<?xml version="1.0" encoding="UTF-8"?>
<svg id="Layer_1" xmlns="http://www.w3.org/2000/svg" version="1.1" viewBox="0 0 533.33 533.33">
  <!-- Generator: Adobe Illustrator 29.4.0, SVG Export Plug-In . SVG Version: 2.1.0 Build 152)  -->
  <defs>
    <style>
      .st0 {
        fill: #1877f2;
      }

      .st1 {
        fill: #fff;
      }
    </style>
  </defs>
  <path class="st0" d="M533.33,266.67C533.33,119.39,413.94,0,266.67,0S0,119.39,0,266.67c0,133.1,97.52,243.42,225,263.43v-186.34h-67.71v-77.08h67.71v-58.75c0-66.83,39.81-103.75,100.72-103.75,29.18,0,59.69,5.21,59.69,5.21v65.63h-33.63c-33.13,0-43.46,20.56-43.46,41.64v50.02h73.96l-11.82,77.08h-62.14v186.34c127.48-20.01,225-130.33,225-263.43"/>
  <path class="st1" d="M370.47,343.75l11.82-77.08h-73.96v-50.02c0-21.09,10.33-41.64,43.46-41.64h33.63v-65.63s-30.52-5.21-59.69-5.21c-60.91,0-100.72,36.92-100.72,103.75v58.75h-67.71v77.08h67.71v186.34c13.78,2.16,27.71,3.24,41.67,3.24,14.18,0,28.09-1.11,41.67-3.24v-186.34h62.14"/>
</svg>