<?xml version="1.0" encoding="utf-8"?><!--Generator: Adobe Illustrator 25.4.0, SVG Export Plug-In . SVG Version: 6.00 Build 0)--><svg version="1.1" id="Capa_1" xmlns="http://www.w3.org/2000/svg" xmlns:xlink="http://www.w3.org/1999/xlink" x="0px" y="0px" viewBox="0 0 366.1 336.9" enable-background="new 0 0 366.1 336.9" xml:space="preserve"><g><path fill="#2F2F2F" d="M258,160.9c0-8.5,0-16.7,0-25c0-2.2,0-4.6,3-4.6c2.9,0,3.1,2.3,3,4.6c0,8.6,0,17.2,0,25.9
		c0,4.9-0.5,5.4-5.3,5.4c-22.7,0-45.5,0-68.2,0c-1.3,0-2.7,0-4.2,0c0,8,0,15.7,0,24c1.4,0,2.8,0,4.3,0c44.5,0,89,0,133.5,0
		c5.8,0,6.1,0.2,6.1,6.2c0,6.5,0,13,0,19.5c0,2.2-0.4,4.2-3.1,4.2c-2.7,0-3-2.1-3-4.3c0-6.4,0-12.7,0-19.3c-30,0-59.8,0-90,0
		c0,6.4,0,12.7,0,19c0,2.3-0.1,4.6-3,4.6c-2.9,0-3-2.4-3-4.6c0-6.2,0-12.5,0-19c-30,0-59.8,0-90,0c0,5.6,0,11.2,0,16.7
		c0,1.1,0.4,2.4-0.1,3.3c-0.7,1.3-1.9,2.4-2.9,3.6c-1-1.2-2.8-2.3-2.9-3.5c-0.3-5-0.1-10-0.1-15c0-1.6,0-3.2,0-5.1
		c-30,0-59.7,0-90,0c0,5.7,0,11.4,0,17.1c0,1.1,0.4,2.4-0.1,3.3c-0.6,1.2-1.9,2.2-2.8,3.3c-1-1-2.9-2.1-2.9-3.1
		c-0.2-7.9-0.3-15.7,0-23.6c0-1.1,2-2.3,3.3-3.1c0.7-0.4,2-0.1,3-0.1c44.2,0,88.5,0,132.7,0c1.5,0,2.9,0,4.6,0c0-8,0-15.7,0-24
		c-1.2,0-2.5,0-3.9,0c-22.7,0-45.5,0-68.2,0c-5.4,0-5.7-0.4-5.7-5.8c0-8.5,0-17,0-25.5c0-2.3,0.1-4.6,3-4.6c3,0,3,2.4,3,4.6
		c0,8.2,0,16.5,0,25C158,160.9,207.8,160.9,258,160.9z"/><path fill="#2F2F2F" d="M289.7,39.9c0,4,0,8,0,12c0,5.3-0.4,5.7-5.9,5.7c-1.2,0-2.5-0.2-3.7,0c-2.6,0.5-5.3,0.9-7.6,2.1
		c-7,3.6-14.3,4.4-21.2,0.6c-4.2-2.3-8.3-2.8-12.8-2.8c-5.9,0.1-6.1-0.3-6.1-6.1c0-7.7-0.1-15.5,0.1-23.2
		c0.4-15,11.5-26.8,26.4-28.1c14.3-1.3,27.8,8.8,30.3,23.3c0.9,5.3,0.1,10.9,0.1,16.4C289.4,39.9,289.6,39.9,289.7,39.9z
		 M238.2,31.1c5.4,0.5,8.1-1.5,9.3-6.2c0.4-1.4,1.9-3.6,2.8-3.6c1.4,0,3.4,1.3,4.2,2.7c2.2,3.8,5.1,6.8,9.5,7.1
		c6.4,0.4,12.9,0.1,19.5,0.1c0.3-9.9-3.3-17.6-11.9-22.3c-8.3-4.5-16.7-3.9-24.3,1.7C240.4,15.6,237.5,22.6,238.2,31.1z M252.4,30.6
		c-2,1.7-3.5,3.7-5.4,4.4c-4,1.3-3.7,4-3.2,7.1c1.4,9.4,10.7,15.8,20.4,14.2c9-1.5,15.5-10.4,13.8-19.3
		C269.1,36.3,259.2,39.1,252.4,30.6z"/><path fill="#2F2F2F" d="M207,237.7c-1-0.6-2.3-1.2-3.3-2.1c-2.2-2.2-1.8-6,0.7-8c2.6-2.1,6.6-1.6,8,1.5c1,2.1,2.5,2,4.1,2.7
		c4,2,7.6,0.7,11.4-0.1c1.1-0.2,2.2-0.2,3.4-0.2c5.5,0.4,11.1,3.1,16.6-0.5c1.5-2.6,3.5-5.7,7.5-4.4c1.7,0.5,3.5,2.6,3.9,4.3
		c1,3.7-1.7,5.6-4.3,6.5c-0.8,2.6-1.6,4.6-2.1,6.8c-0.2,1,0.2,2.1,0.2,3.2c0.2,6.3,1.4,12.8,0.2,18.9c-2.4,11.6-13.3,18.4-25.4,17.2
		c-11-1.1-20-10.4-20.4-21.9c-0.2-4.9,0.9-9.9,1.3-14.8c0.1-0.9,0-1.9-0.2-2.8C208.3,242,207.7,240,207,237.7z M213.8,260.8
		c-0.1,10,8.1,17.7,17.9,17.4c9.4-0.3,17.1-8.3,16.4-17.5c-6.1,0-12.5,0.8-16.5-4.1c-3.4,1.5-5.9,3.1-8.7,3.7
		C220.1,260.9,217,260.7,213.8,260.8z M213.8,254.8c2.1,0,4.1,0.1,6.2,0c4.4-0.2,6.7-2.4,7.9-6.6c0.4-1.4,1.7-3.3,2.9-3.5
		c2.3-0.4,2.9,1.6,3.2,3.6c0.4,3.1,2.1,5.5,5.3,5.9c2.9,0.4,5.9,0.1,8.8,0.1c-0.3-9.9-8.1-17.1-17.8-16.8
		C221.1,237.9,213.4,245.7,213.8,254.8z"/><path fill="#2F2F2F" d="M309.4,230.9c2.6,0.8,4.6,1.5,6.6,1.9c1.1,0.2,2.3,0,3.5-0.1c4.8-0.1,9.6-0.1,14.4-0.2
		c1.7,0,3.5-0.1,5.2-0.3c1.7-0.2,3.4-0.6,5.3-1c1-3,2.9-5.7,6.6-4.6c1.8,0.5,3.8,2.6,4.3,4.3c1.1,3.7-1.6,5.7-4.3,6.6
		c-0.8,2.5-1.6,4.6-2,6.7c-0.2,1.1,0.2,2.3,0.2,3.5c0.1,6.3,1.3,12.8,0,18.9c-2.5,11.6-13.5,18.3-25.6,16.9
		c-10.8-1.2-19.7-10.5-20.1-21.8c-0.2-4.9,0.7-9.9,1.4-14.8c0.2-1.9-2-9.2-3.5-10c-2.6-1.3-4-3.6-3-6.1c0.7-1.8,2.7-3.6,4.5-4.2
		c2.6-0.9,4.8,0.7,5.9,3.4C309.2,230.4,309.4,230.9,309.4,230.9z M326.4,256.5c-4.1,5.1-10.6,3.9-16.6,4.2
		c0.1,10.3,8.5,18,18.4,17.4c9.2-0.6,16.8-8.8,15.9-17.3c-2.9-0.1-6,0.1-8.8-0.6C332.3,259.6,329.6,258,326.4,256.5z M309.9,254.8
		c1.3,0,2.6,0,4,0c6.8,0,8.2-1.1,10.3-7.7c0.3-1,2.1-2.6,2.7-2.4c1.3,0.5,2.8,1.7,3.1,2.9c0.6,3.4,2,6.1,5.6,6.7
		c2.9,0.4,5.9,0.1,8.8,0.1c-0.3-10-8.1-17.1-17.8-16.8C317.1,237.9,309.4,245.7,309.9,254.8z"/><path fill="#2F2F2F" d="M261.2,119.2c-11.4,0-22.7,0-34.1,0c-4.4,0-5-0.6-5-5c0-8.6-0.1-17.2,0-25.8c0.1-12.1,8.7-21.2,20.9-21.4
		c12.1-0.3,24.2-0.3,36.3,0c12.1,0.3,20.7,9.4,20.8,21.5c0.1,8.6-0.1,17.2,0.1,25.8c0.1,3.5-1.3,4.9-4.8,4.9
		C283.9,119.1,272.5,119.2,261.2,119.2z M294,113.1c0-8.5,0.1-16.6,0-24.8c-0.1-8.8-6.2-15.2-15.1-15.3c-12-0.2-24-0.2-36,0
		c-7.4,0.1-13.8,4.8-14.4,11.8c-0.8,9.4-0.2,18.8-0.2,28.3C250.2,113.1,271.9,113.1,294,113.1z"/><path fill="#2F2F2F" d="M105,119.2c-11.2,0-22.5,0-33.7,0c-4.7,0-5.3-0.6-5.3-5.1c0-8.5,0-17,0-25.5c0.1-12.5,8.9-21.5,21.4-21.7
		c11.7-0.2,23.5-0.2,35.2,0c12.5,0.2,21.3,9.2,21.4,21.7c0.1,8.5,0,17,0,25.5c0,4.5-0.6,5.1-5.3,5.1
		C127.5,119.2,116.3,119.2,105,119.2z M72.1,112.9c22.2,0,44,0,66,0c0-8.4,0.1-16.5,0-24.6c-0.1-8.7-6-15.2-14.6-15.4
		c-12.2-0.3-24.5-0.3-36.7,0c-8,0.2-14.3,6.2-14.5,13.9C71.8,95.5,72.1,104.1,72.1,112.9z"/><path fill="#2F2F2F" d="M135,335.2c-11.2,0-22.5,0-33.7,0c-4.7,0-5.3-0.6-5.3-5.1c0-7-0.1-14,0-21c0.2-11.8,9-20.9,20.8-21.1
		c12.1-0.2,24.2-0.2,36.3,0c11.8,0.2,20.6,9.3,20.8,21.1c0.1,7,0,14,0,21c0,4.4-0.7,5-4.9,5.1C157.7,335.2,146.4,335.2,135,335.2z
		 M167.9,329c0-7.4,0.4-14.7-0.1-21.8c-0.5-7.4-6.9-13-14.5-13.1c-12.2-0.2-24.5-0.2-36.7,0c-7.4,0.1-13.8,5.5-14.4,12.8
		c-0.6,7.3-0.1,14.7-0.1,22.2C124.1,329,145.8,329,167.9,329z"/><path fill="#2F2F2F" d="M230.9,335.2c-11.4,0-22.7-0.1-34.1,0c-3.6,0-4.9-1.4-4.8-4.9c0.2-7,0-14,0.1-21
		c0.1-12.2,9.1-21.2,21.3-21.3c11.7-0.1,23.5-0.1,35.2,0c12.3,0.1,21.3,9.1,21.4,21.3c0.1,7.1-0.1,14.2,0.1,21.3
		c0.1,3.4-1.4,4.6-4.7,4.6C253.8,335.1,242.4,335.2,230.9,335.2z M264,329.1c0-7.2,0.2-13.9,0-20.6c-0.2-7.9-6.5-14.2-14.5-14.3
		c-12.4-0.2-24.7-0.2-37.1,0c-6.9,0.1-13,4.8-13.8,11.6c-0.8,7.7-0.2,15.6-0.2,23.4C220.2,329.1,241.9,329.1,264,329.1z"/><path fill="#2F2F2F" d="M327.1,335.2c-11.4,0-22.7,0-34.1,0c-4.4,0-5-0.6-5-5c0-7-0.1-14,0-21c0.1-12,9.1-21.1,21.1-21.2
		c11.9-0.1,23.7-0.1,35.6,0c12.2,0.1,21.2,9.2,21.3,21.4c0.1,7.1-0.1,14.2,0,21.3c0,3.2-1.3,4.5-4.5,4.5
		C350.1,335.2,338.6,335.2,327.1,335.2z M294.1,328.9c22.2,0,44,0,65.9,0c0-7.2,0.3-14.2-0.1-21.2c-0.4-7.5-6.7-13.5-14.3-13.7
		c-12.4-0.2-24.7-0.2-37.1,0c-7.7,0.1-14,6.2-14.3,13.7C293.8,314.7,294.1,321.7,294.1,328.9z"/><path fill="#2F2F2F" d="M39.1,336.9c-11.4,0-22.7,0-34.1,0c-4.4,0-4.9-0.6-4.9-5c0-7-0.1-14,0-21c0.1-11.3,8.2-20.4,19.4-20.8
		c13-0.5,26-0.5,39,0c11.3,0.4,19.4,9.5,19.6,20.7c0.1,7.2,0,14.5,0.1,21.7c0,3.2-1.3,4.5-4.5,4.5C62.1,336.8,50.6,336.9,39.1,336.9
		z M72,330.8c0-6.8,0.1-13.3,0-19.7c-0.1-8.5-5.9-15-14.4-15.2c-12.4-0.3-24.7-0.2-37.1,0c-7,0.1-12.9,4.5-13.7,11.1
		c-0.9,7.8-0.2,15.8-0.2,23.8C28.2,330.8,49.8,330.8,72,330.8z"/><path fill="#2F2F2F" d="M104.6,10.4c3.2,0,6.5-0.1,9.7,0c7.5,0.3,13.7,6,14.1,13.4c0.3,6.7,0.1,13.5,0,20.2c0,1.7-0.6,3.5-1.2,5.1
		c-4,10.5-14.4,15.3-28.4,13.1c-9.7-1.5-16.9-9.8-17.2-20.2c-0.2-6.1-0.2-12.2,0-18.4c0.2-8,5.6-13.2,13.7-13.3
		C98.3,10.4,101.4,10.4,104.6,10.4C104.6,10.4,104.6,10.4,104.6,10.4z M96.5,30.6c-2.3,1.7-4.8,3.5-7.4,5.4
		c-0.6,0.5-1.4,1.1-1.5,1.8c-2,8.4,4,17.3,12.6,18.4c2.9,0.4,6,0.4,8.9,0.1c9.5-1,15.3-9.8,12.8-19.3c-4.4-0.2-9,0.2-13.3-0.8
		C104.4,35.2,100.5,32.5,96.5,30.6z M98,16.5c1.1,12.6,11.4,16.3,24.4,13.8c0-1.8,0.1-3.7,0-5.6c-0.4-4.5-3.4-7.9-7.8-8.2
		C109.2,16.3,103.7,16.5,98,16.5z M87.8,29.7c3.9-2.6,5.1-7.2,3.2-12C87.4,20.4,87,22.1,87.8,29.7z"/><path fill="#2F2F2F" d="M135.3,231.6c3.5,0,7-0.1,10.5,0c6.9,0.3,12.2,5.2,12.5,12c0.3,6.6,0.4,13.3-0.2,19.8
		c-0.9,11.4-11.3,20.3-23.2,20.3c-11.8,0-22.3-8.8-23.2-20.2c-0.6-6.7-0.5-13.5-0.1-20.2c0.3-6.4,5.6-11.3,12-11.7
		C127.6,231.4,131.5,231.6,135.3,231.6C135.3,231.6,135.3,231.6,135.3,231.6z M117.6,258.1c-0.4,7.7,2.2,13.5,8.5,17.1
		c6.4,3.7,12.9,3.5,19-0.7c5.6-3.9,7.9-9.3,7.2-16.5c-6.4,0.1-12.8,0.9-17.4-4.9C130.2,259,123.9,257.9,117.6,258.1z M117.7,252
		c2.4,0,4.3,0,6.3,0c4.7-0.1,6.9-2.1,8.1-6.7c0.4-1.3,2-2.3,3-3.4c1,1.2,2.5,2.2,2.9,3.6c0.8,3.2,2.4,5.7,5.6,6.2
		c2.9,0.5,5.8,0.1,9,0.1c0-2,0-3.6,0-5.3c-0.1-6.6-2.5-9-9-9.1c-5,0-10,0-14.9,0c-9.5,0-11.3,1.8-11.1,11.5
		C117.5,249.8,117.6,250.7,117.7,252z"/><path fill="#2F2F2F" d="M63,255c-0.4,4.4-0.3,9-1.4,13.3c-2.7,10.8-13.5,18.2-24.2,17.1c-12-1.1-21.1-10.1-21.7-21.9
		c-0.3-5.8-0.3-11.7-0.1-17.6c0.3-7.5,5.8-12.7,13.3-12.8c6.7-0.1,13.5-0.1,20.2,0c7.7,0.1,13.1,5.4,13.4,13.2c0.1,2.9,0,5.7,0,8.6
		C62.7,255,62.8,255,63,255z M21.9,259.9c-0.9,7.4,2.4,13.9,8.6,17.3c6.1,3.4,13.8,2.9,19.4-1.4c5-3.9,7.5-10.4,6-15.9
		c-6-0.2-12.4,0.8-16.9-5.1C34.3,260.7,28,259.6,21.9,259.9z M21.7,253.7c2.6,0,4.9,0.1,7.1,0c4.1-0.3,6.5-2.4,7.2-6.4
		c0.3-2.1,0.8-4.1,3.2-3.6c1.2,0.3,2.5,2.1,2.9,3.5c1.1,4.1,3.2,6.2,7.5,6.5c2.2,0.1,4.4,0,7,0c0-2.3,0-4.1,0-6
		c-0.1-6-2.7-8.5-8.8-8.6c-5.2,0-10.5,0-15.7,0c-8.5,0-10.6,2.1-10.5,10.7C21.5,251,21.6,252.1,21.7,253.7z"/></g></svg>