<?xml version="1.0" encoding="utf-8"?><!--Generator: Adobe Illustrator 25.4.0, SVG Export Plug-In . SVG Version: 6.00 Build 0)--><svg version="1.1" id="Capa_1" xmlns="http://www.w3.org/2000/svg" xmlns:xlink="http://www.w3.org/1999/xlink" x="0px" y="0px" viewBox="0 0 775.9 283" enable-background="new 0 0 775.9 283" xml:space="preserve"><g><ellipse fill-rule="evenodd" clip-rule="evenodd" fill="#3D1088" cx="341.4" cy="48.5" rx="63" ry="42"/><g><path fill="#FCFCFC" d="M314.2,44.2h-6.4V32.8h6.4v1.2h-5v3.7h4.7v1.2h-4.7V43h5V44.2z"/><path fill="#FCFCFC" d="M327.6,44.2v-5.6c0-0.7-0.1-1.2-0.4-1.5c-0.3-0.3-0.7-0.5-1.4-0.5c-0.8,0-1.4,0.2-1.8,0.7
			c-0.4,0.5-0.6,1.2-0.6,2.1v4.8h-1.3v-5.6c0-0.7-0.1-1.2-0.4-1.5c-0.3-0.3-0.7-0.5-1.4-0.5c-0.8,0-1.4,0.2-1.8,0.7
			c-0.4,0.5-0.6,1.3-0.6,2.4v4.5h-1.3v-8.6h1.1l0.2,1.2h0.1c0.2-0.4,0.6-0.7,1-1s0.9-0.4,1.5-0.4c1.3,0,2.2,0.5,2.6,1.5h0.1
			c0.3-0.4,0.6-0.8,1.1-1.1c0.5-0.3,1-0.4,1.7-0.4c1,0,1.7,0.2,2.2,0.7c0.5,0.5,0.7,1.3,0.7,2.4v5.6H327.6z"/><path fill="#FCFCFC" d="M335.7,44.3c-0.6,0-1.1-0.1-1.5-0.3s-0.8-0.5-1.2-0.9h-0.1c0.1,0.5,0.1,1,0.1,1.4V48h-1.3V35.6h1.1
			l0.2,1.2h0.1c0.3-0.5,0.7-0.8,1.2-1c0.4-0.2,1-0.3,1.5-0.3c1.1,0,2,0.4,2.6,1.2c0.6,0.8,0.9,1.9,0.9,3.3c0,1.4-0.3,2.5-0.9,3.3
			C337.7,44,336.8,44.3,335.7,44.3z M335.5,36.6c-0.9,0-1.5,0.2-1.9,0.7s-0.6,1.3-0.6,2.3v0.3c0,1.2,0.2,2.1,0.6,2.6
			c0.4,0.5,1,0.8,1.9,0.8c0.7,0,1.3-0.3,1.7-0.9c0.4-0.6,0.6-1.4,0.6-2.5c0-1.1-0.2-1.9-0.6-2.5C336.9,36.9,336.3,36.6,335.5,36.6z"/><path fill="#FCFCFC" d="M345.6,35.5c0.4,0,0.7,0,1,0.1l-0.2,1.2c-0.4-0.1-0.7-0.1-0.9-0.1c-0.7,0-1.3,0.3-1.8,0.8
			s-0.7,1.3-0.7,2.1v4.6h-1.3v-8.6h1.1l0.1,1.6h0.1c0.3-0.6,0.7-1,1.1-1.3C344.6,35.6,345.1,35.5,345.6,35.5z"/><path fill="#FCFCFC" d="M352,44.3c-1.3,0-2.3-0.4-3-1.2c-0.7-0.8-1.1-1.8-1.1-3.2c0-1.4,0.3-2.5,1-3.3s1.6-1.2,2.7-1.2
			c1.1,0,1.9,0.4,2.5,1.1c0.6,0.7,0.9,1.6,0.9,2.8v0.8h-5.9c0,1,0.3,1.8,0.8,2.3c0.5,0.5,1.2,0.8,2,0.8c0.9,0,1.8-0.2,2.7-0.6v1.2
			c-0.5,0.2-0.9,0.3-1.3,0.4C353.1,44.3,352.6,44.3,352,44.3z M351.7,36.6c-0.7,0-1.2,0.2-1.6,0.7c-0.4,0.4-0.6,1.1-0.7,1.9h4.5
			c0-0.8-0.2-1.4-0.5-1.9C352.9,36.8,352.4,36.6,351.7,36.6z"/><path fill="#FCFCFC" d="M363.1,41.9c0,0.8-0.3,1.4-0.9,1.8c-0.6,0.4-1.4,0.6-2.5,0.6c-1.1,0-2-0.2-2.7-0.5v-1.2
			c0.4,0.2,0.9,0.4,1.3,0.5c0.5,0.1,0.9,0.2,1.4,0.2c0.7,0,1.2-0.1,1.6-0.3c0.4-0.2,0.5-0.5,0.5-1c0-0.3-0.1-0.6-0.4-0.9
			c-0.3-0.2-0.9-0.5-1.7-0.8c-0.8-0.3-1.4-0.6-1.7-0.8c-0.3-0.2-0.6-0.5-0.8-0.8s-0.2-0.6-0.2-1c0-0.7,0.3-1.2,0.9-1.7
			c0.6-0.4,1.3-0.6,2.3-0.6c0.9,0,1.8,0.2,2.7,0.6l-0.5,1.1c-0.9-0.4-1.6-0.5-2.3-0.5c-0.6,0-1.1,0.1-1.4,0.3
			c-0.3,0.2-0.5,0.5-0.5,0.8c0,0.2,0.1,0.4,0.2,0.6c0.1,0.2,0.3,0.3,0.6,0.5c0.3,0.1,0.8,0.4,1.5,0.6c1,0.4,1.7,0.7,2.1,1.1
			C362.9,40.8,363.1,41.3,363.1,41.9z"/><path fill="#FCFCFC" d="M370.6,44.2l-0.3-1.2h-0.1c-0.4,0.5-0.9,0.9-1.3,1.1c-0.4,0.2-1,0.3-1.6,0.3c-0.8,0-1.5-0.2-2-0.7
			c-0.5-0.4-0.7-1.1-0.7-1.9c0-1.7,1.4-2.6,4.1-2.7l1.5,0v-0.5c0-0.7-0.1-1.2-0.4-1.5s-0.8-0.5-1.4-0.5c-0.7,0-1.5,0.2-2.4,0.7
			l-0.4-1c0.4-0.2,0.9-0.4,1.4-0.5c0.5-0.1,1-0.2,1.5-0.2c1,0,1.8,0.2,2.3,0.7s0.7,1.2,0.7,2.2v5.8H370.6z M367.7,43.3
			c0.8,0,1.4-0.2,1.9-0.7c0.5-0.4,0.7-1.1,0.7-1.9V40L369,40c-1,0-1.8,0.2-2.2,0.5c-0.5,0.3-0.7,0.7-0.7,1.3c0,0.5,0.1,0.8,0.4,1.1
			C366.8,43.2,367.2,43.3,367.7,43.3z"/><path fill="#FCFCFC" d="M317.6,53c-1.3,0-2.2,0.4-3,1.3s-1.1,2-1.1,3.4c0,1.5,0.4,2.6,1.1,3.5c0.7,0.8,1.7,1.2,3,1.2
			c0.8,0,1.7-0.1,2.7-0.4v1.2c-0.8,0.3-1.8,0.4-2.9,0.4c-1.7,0-3-0.5-3.9-1.5c-0.9-1-1.4-2.5-1.4-4.4c0-1.2,0.2-2.2,0.7-3.1
			c0.4-0.9,1.1-1.6,1.9-2c0.8-0.5,1.8-0.7,2.9-0.7c1.2,0,2.2,0.2,3.1,0.7l-0.6,1.1C319.4,53.2,318.5,53,317.6,53z"/><path fill="#FCFCFC" d="M328.7,63.4v-5.5c0-0.7-0.2-1.2-0.5-1.6c-0.3-0.3-0.8-0.5-1.5-0.5c-0.9,0-1.6,0.2-2,0.7
			c-0.4,0.5-0.6,1.3-0.6,2.4v4.5h-1.3V51.2h1.3v3.7c0,0.4,0,0.8-0.1,1.1h0.1c0.3-0.4,0.6-0.7,1.1-1c0.5-0.2,1-0.4,1.6-0.4
			c1,0,1.8,0.2,2.4,0.7c0.5,0.5,0.8,1.3,0.8,2.4v5.6H328.7z"/><path fill="#FCFCFC" d="M332.7,52.5c0-0.3,0.1-0.5,0.2-0.7c0.1-0.1,0.3-0.2,0.5-0.2c0.2,0,0.4,0.1,0.5,0.2
			c0.2,0.1,0.2,0.4,0.2,0.6c0,0.3-0.1,0.5-0.2,0.7c-0.2,0.1-0.3,0.2-0.5,0.2c-0.2,0-0.4-0.1-0.5-0.2C332.8,53,332.7,52.8,332.7,52.5
			z M334.1,63.4h-1.3v-8.6h1.3V63.4z"/><path fill="#FCFCFC" d="M338.3,63.4H337V51.2h1.3V63.4z"/><path fill="#FCFCFC" d="M344.9,63.5c-1.3,0-2.3-0.4-3-1.2c-0.7-0.8-1.1-1.8-1.1-3.2c0-1.4,0.3-2.5,1-3.3s1.6-1.2,2.7-1.2
			c1.1,0,1.9,0.4,2.5,1.1c0.6,0.7,0.9,1.6,0.9,2.8v0.8h-5.9c0,1,0.3,1.8,0.8,2.3c0.5,0.5,1.2,0.8,2,0.8c0.9,0,1.8-0.2,2.7-0.6V63
			c-0.5,0.2-0.9,0.3-1.3,0.4C346,63.5,345.5,63.5,344.9,63.5z M344.5,55.8c-0.7,0-1.2,0.2-1.6,0.7c-0.4,0.4-0.6,1.1-0.7,1.9h4.5
			c0-0.8-0.2-1.4-0.5-1.9C345.7,56,345.2,55.8,344.5,55.8z"/><path fill="#FCFCFC" d="M356.3,63.4v-5.5c0-0.7-0.2-1.2-0.5-1.6c-0.3-0.3-0.8-0.5-1.5-0.5c-0.9,0-1.6,0.2-2,0.7
			c-0.4,0.5-0.6,1.3-0.6,2.4v4.5h-1.3v-8.6h1.1l0.2,1.2h0.1c0.3-0.4,0.6-0.7,1.1-1c0.5-0.2,1-0.3,1.6-0.3c1,0,1.8,0.2,2.3,0.7
			c0.5,0.5,0.8,1.3,0.8,2.4v5.6H356.3z"/><path fill="#FCFCFC" d="M365.7,63.4l-0.3-1.2h-0.1c-0.4,0.5-0.9,0.9-1.3,1.1c-0.4,0.2-1,0.3-1.6,0.3c-0.8,0-1.5-0.2-2-0.7
			c-0.5-0.4-0.7-1.1-0.7-1.9c0-1.7,1.4-2.6,4.1-2.7l1.5,0v-0.5c0-0.7-0.1-1.2-0.4-1.5s-0.8-0.5-1.4-0.5c-0.7,0-1.5,0.2-2.4,0.7
			l-0.4-1c0.4-0.2,0.9-0.4,1.4-0.5c0.5-0.1,1-0.2,1.5-0.2c1,0,1.8,0.2,2.3,0.7s0.7,1.2,0.7,2.2v5.8H365.7z M362.8,62.5
			c0.8,0,1.4-0.2,1.9-0.7c0.5-0.4,0.7-1.1,0.7-1.9v-0.8l-1.3,0.1c-1,0-1.8,0.2-2.2,0.5c-0.5,0.3-0.7,0.7-0.7,1.3
			c0,0.5,0.1,0.8,0.4,1.1C361.8,62.4,362.2,62.5,362.8,62.5z"/></g></g><g><rect x="274.3" y="179.3" fill="#BFA5F9" width="126" height="84"/><g><path fill="#FCFCFC" d="M284.8,211.2v4.8h-1.3v-11.4h3.1c1.4,0,2.4,0.3,3.1,0.8c0.7,0.5,1,1.3,1,2.4c0,1.5-0.8,2.5-2.3,3.1
			l3.1,5.1h-1.6l-2.8-4.8H284.8z M284.8,210.1h1.8c0.9,0,1.6-0.2,2.1-0.6s0.7-0.9,0.7-1.7c0-0.8-0.2-1.3-0.7-1.6s-1.2-0.5-2.1-0.5
			h-1.7V210.1z"/><path fill="#FCFCFC" d="M297,216.2c-1.3,0-2.3-0.4-3-1.2c-0.7-0.8-1.1-1.8-1.1-3.2c0-1.4,0.3-2.5,1-3.3s1.6-1.2,2.7-1.2
			c1.1,0,1.9,0.4,2.5,1.1s0.9,1.6,0.9,2.8v0.8h-5.9c0,1,0.3,1.8,0.8,2.3c0.5,0.5,1.2,0.8,2,0.8c0.9,0,1.8-0.2,2.7-0.6v1.2
			c-0.5,0.2-0.9,0.3-1.3,0.4C298,216.1,297.5,216.2,297,216.2z M296.6,208.4c-0.7,0-1.2,0.2-1.6,0.7c-0.4,0.4-0.6,1.1-0.7,1.9h4.5
			c0-0.8-0.2-1.4-0.5-1.9C297.8,208.6,297.3,208.4,296.6,208.4z M295.7,206.1c0.2-0.3,0.5-0.7,0.8-1.2s0.5-0.9,0.7-1.2h1.6v0.2
			c-0.2,0.3-0.6,0.8-1,1.2s-0.8,0.9-1.2,1.1h-0.9V206.1z"/><path fill="#FCFCFC" d="M309.5,207.4v0.8l-1.6,0.2c0.1,0.2,0.3,0.4,0.4,0.7c0.1,0.3,0.2,0.6,0.2,1c0,0.8-0.3,1.5-0.9,2
			c-0.6,0.5-1.4,0.8-2.4,0.8c-0.3,0-0.5,0-0.7-0.1c-0.6,0.3-0.8,0.7-0.8,1.1c0,0.2,0.1,0.4,0.3,0.5c0.2,0.1,0.5,0.2,1,0.2h1.5
			c0.9,0,1.6,0.2,2.1,0.6c0.5,0.4,0.7,1,0.7,1.7c0,0.9-0.4,1.7-1.1,2.2c-0.8,0.5-1.9,0.7-3.3,0.7c-1.1,0-2-0.2-2.6-0.6
			c-0.6-0.4-0.9-1-0.9-1.8c0-0.5,0.2-1,0.5-1.4c0.3-0.4,0.8-0.6,1.4-0.8c-0.2-0.1-0.4-0.3-0.6-0.5s-0.2-0.5-0.2-0.7
			c0-0.3,0.1-0.6,0.2-0.8c0.2-0.2,0.4-0.5,0.8-0.7c-0.4-0.2-0.8-0.5-1.1-0.9c-0.3-0.4-0.4-0.9-0.4-1.5c0-0.9,0.3-1.7,0.8-2.2
			s1.4-0.8,2.4-0.8c0.4,0,0.9,0.1,1.2,0.2H309.5z M302.7,217.4c0,0.5,0.2,0.8,0.6,1.1s1,0.4,1.7,0.4c1.1,0,1.9-0.2,2.4-0.5
			s0.8-0.8,0.8-1.3c0-0.5-0.1-0.8-0.4-1c-0.3-0.2-0.8-0.3-1.6-0.3h-1.6c-0.6,0-1,0.1-1.4,0.4S302.7,216.9,302.7,217.4z M303.4,210.2
			c0,0.6,0.2,1.1,0.5,1.4c0.3,0.3,0.8,0.5,1.4,0.5c1.3,0,1.9-0.6,1.9-1.8c0-1.3-0.6-1.9-1.9-1.9c-0.6,0-1.1,0.2-1.4,0.5
			S303.4,209.5,303.4,210.2z"/><path fill="#FCFCFC" d="M311.4,205.1c0-0.3,0.1-0.5,0.2-0.7c0.1-0.1,0.3-0.2,0.5-0.2c0.2,0,0.4,0.1,0.5,0.2
			c0.2,0.1,0.2,0.4,0.2,0.6s-0.1,0.5-0.2,0.7c-0.2,0.1-0.3,0.2-0.5,0.2c-0.2,0-0.4-0.1-0.5-0.2C311.4,205.6,311.4,205.4,311.4,205.1
			z M312.8,216h-1.3v-8.6h1.3V216z"/><path fill="#FCFCFC" d="M326.6,216v-5.6c0-0.7-0.1-1.2-0.4-1.5c-0.3-0.3-0.7-0.5-1.4-0.5c-0.8,0-1.4,0.2-1.8,0.7
			c-0.4,0.5-0.6,1.2-0.6,2.1v4.8h-1.3v-5.6c0-0.7-0.1-1.2-0.4-1.5c-0.3-0.3-0.7-0.5-1.4-0.5c-0.8,0-1.4,0.2-1.8,0.7
			c-0.4,0.5-0.6,1.3-0.6,2.4v4.5h-1.3v-8.6h1.1l0.2,1.2h0.1c0.2-0.4,0.6-0.7,1-1s0.9-0.4,1.5-0.4c1.3,0,2.2,0.5,2.6,1.5h0.1
			c0.3-0.4,0.6-0.8,1.1-1.1s1-0.4,1.7-0.4c1,0,1.7,0.2,2.2,0.7c0.5,0.5,0.7,1.3,0.7,2.4v5.6H326.6z"/><path fill="#FCFCFC" d="M334.4,216.2c-1.3,0-2.3-0.4-3-1.2c-0.7-0.8-1.1-1.8-1.1-3.2c0-1.4,0.3-2.5,1-3.3s1.6-1.2,2.7-1.2
			c1.1,0,1.9,0.4,2.5,1.1s0.9,1.6,0.9,2.8v0.8h-5.9c0,1,0.3,1.8,0.8,2.3c0.5,0.5,1.2,0.8,2,0.8c0.9,0,1.8-0.2,2.7-0.6v1.2
			c-0.5,0.2-0.9,0.3-1.3,0.4C335.5,216.1,335,216.2,334.4,216.2z M334.1,208.4c-0.7,0-1.2,0.2-1.6,0.7c-0.4,0.4-0.6,1.1-0.7,1.9h4.5
			c0-0.8-0.2-1.4-0.5-1.9C335.3,208.6,334.7,208.4,334.1,208.4z"/><path fill="#FCFCFC" d="M345.8,216v-5.5c0-0.7-0.2-1.2-0.5-1.6c-0.3-0.3-0.8-0.5-1.5-0.5c-0.9,0-1.6,0.2-2,0.7
			c-0.4,0.5-0.6,1.3-0.6,2.4v4.5H340v-8.6h1.1l0.2,1.2h0.1c0.3-0.4,0.6-0.7,1.1-1c0.5-0.2,1-0.3,1.6-0.3c1,0,1.8,0.2,2.3,0.7
			c0.5,0.5,0.8,1.3,0.8,2.4v5.6H345.8z"/><path fill="#FCFCFC" d="M358.2,208.4H356v7.6h-1.3v-7.6h-1.5v-0.6l1.5-0.5v-0.5c0-2.1,0.9-3.2,2.8-3.2c0.5,0,1,0.1,1.6,0.3l-0.3,1
			c-0.5-0.2-0.9-0.2-1.3-0.2c-0.5,0-0.9,0.2-1.1,0.5s-0.4,0.8-0.4,1.6v0.6h2.2V208.4z M359.6,205.1c0-0.3,0.1-0.5,0.2-0.7
			c0.1-0.1,0.3-0.2,0.5-0.2c0.2,0,0.4,0.1,0.5,0.2c0.2,0.1,0.2,0.4,0.2,0.6s-0.1,0.5-0.2,0.7c-0.2,0.1-0.3,0.2-0.5,0.2
			c-0.2,0-0.4-0.1-0.5-0.2C359.7,205.6,359.6,205.4,359.6,205.1z M361,216h-1.3v-8.6h1.3V216z"/><path fill="#FCFCFC" d="M369.5,213.7c0,0.8-0.3,1.4-0.9,1.8s-1.4,0.6-2.5,0.6c-1.1,0-2-0.2-2.7-0.5v-1.2c0.4,0.2,0.9,0.4,1.3,0.5
			c0.5,0.1,0.9,0.2,1.4,0.2c0.7,0,1.2-0.1,1.6-0.3c0.4-0.2,0.5-0.5,0.5-1c0-0.3-0.1-0.6-0.4-0.9s-0.9-0.5-1.7-0.8
			c-0.8-0.3-1.4-0.6-1.7-0.8s-0.6-0.5-0.8-0.8s-0.2-0.6-0.2-1c0-0.7,0.3-1.2,0.9-1.7c0.6-0.4,1.3-0.6,2.3-0.6c0.9,0,1.8,0.2,2.7,0.6
			l-0.5,1.1c-0.9-0.4-1.6-0.5-2.3-0.5c-0.6,0-1.1,0.1-1.4,0.3s-0.5,0.5-0.5,0.8c0,0.2,0.1,0.4,0.2,0.6s0.3,0.3,0.6,0.5
			c0.3,0.1,0.8,0.4,1.5,0.6c1,0.4,1.7,0.7,2.1,1.1C369.3,212.6,369.5,213.1,369.5,213.7z"/><path fill="#FCFCFC" d="M375.2,216.2c-1.2,0-2.2-0.4-2.9-1.1s-1-1.8-1-3.2c0-1.4,0.3-2.5,1-3.3c0.7-0.8,1.7-1.2,2.9-1.2
			c0.4,0,0.8,0,1.2,0.1c0.4,0.1,0.7,0.2,1,0.3l-0.4,1.1c-0.3-0.1-0.6-0.2-0.9-0.3c-0.3-0.1-0.6-0.1-0.9-0.1c-1.7,0-2.6,1.1-2.6,3.3
			c0,1.1,0.2,1.9,0.6,2.4c0.4,0.6,1.1,0.8,1.9,0.8c0.7,0,1.4-0.2,2.2-0.5v1.1C376.8,216,376.1,216.2,375.2,216.2z"/><path fill="#FCFCFC" d="M384.9,216l-0.3-1.2h-0.1c-0.4,0.5-0.9,0.9-1.3,1.1c-0.4,0.2-1,0.3-1.6,0.3c-0.8,0-1.5-0.2-2-0.7
			c-0.5-0.4-0.7-1.1-0.7-1.9c0-1.7,1.4-2.6,4.1-2.7l1.5,0v-0.5c0-0.7-0.1-1.2-0.4-1.5s-0.8-0.5-1.4-0.5c-0.7,0-1.5,0.2-2.4,0.7
			l-0.4-1c0.4-0.2,0.9-0.4,1.4-0.5c0.5-0.1,1-0.2,1.5-0.2c1,0,1.8,0.2,2.3,0.7s0.7,1.2,0.7,2.2v5.8H384.9z M381.9,215.1
			c0.8,0,1.4-0.2,1.9-0.7s0.7-1.1,0.7-1.9v-0.8l-1.3,0.1c-1,0-1.8,0.2-2.2,0.5c-0.5,0.3-0.7,0.7-0.7,1.3c0,0.5,0.1,0.8,0.4,1.1
			C381,215,381.4,215.1,381.9,215.1z"/><path fill="#FCFCFC" d="M390,216h-1.3v-12.2h1.3V216z"/><path fill="#FCFCFC" d="M296.1,235.4c-0.6,0-1.1-0.1-1.5-0.3s-0.8-0.5-1.2-0.9h-0.1c0.1,0.5,0.1,1,0.1,1.4v3.5h-1.3v-12.4h1.1
			l0.2,1.2h0.1c0.3-0.5,0.7-0.8,1.2-1c0.4-0.2,1-0.3,1.5-0.3c1.1,0,2,0.4,2.6,1.2c0.6,0.8,0.9,1.9,0.9,3.3c0,1.4-0.3,2.5-0.9,3.3
			C298.1,235,297.2,235.4,296.1,235.4z M295.9,227.6c-0.9,0-1.5,0.2-1.9,0.7s-0.6,1.3-0.6,2.3v0.3c0,1.2,0.2,2.1,0.6,2.6
			c0.4,0.5,1,0.8,1.9,0.8c0.7,0,1.3-0.3,1.7-0.9c0.4-0.6,0.6-1.4,0.6-2.5c0-1.1-0.2-1.9-0.6-2.5
			C297.3,227.9,296.7,227.6,295.9,227.6z"/><path fill="#FCFCFC" d="M306,226.5c0.4,0,0.7,0,1,0.1l-0.2,1.2c-0.4-0.1-0.7-0.1-0.9-0.1c-0.7,0-1.3,0.3-1.8,0.8s-0.7,1.3-0.7,2.1
			v4.6h-1.3v-8.6h1.1l0.1,1.6h0.1c0.3-0.6,0.7-1,1.1-1.3C305,226.6,305.5,226.5,306,226.5z"/><path fill="#FCFCFC" d="M312.5,235.4c-1.3,0-2.3-0.4-3-1.2c-0.7-0.8-1.1-1.8-1.1-3.2c0-1.4,0.3-2.5,1-3.3s1.6-1.2,2.7-1.2
			c1.1,0,1.9,0.4,2.5,1.1c0.6,0.7,0.9,1.6,0.9,2.8v0.8h-5.9c0,1,0.3,1.8,0.8,2.3c0.5,0.5,1.2,0.8,2,0.8c0.9,0,1.8-0.2,2.7-0.6v1.2
			c-0.5,0.2-0.9,0.3-1.3,0.4C313.5,235.3,313,235.4,312.5,235.4z M312.1,227.6c-0.7,0-1.2,0.2-1.6,0.7c-0.4,0.4-0.6,1.1-0.7,1.9h4.5
			c0-0.8-0.2-1.4-0.5-1.9C313.3,227.8,312.8,227.6,312.1,227.6z"/><path fill="#FCFCFC" d="M321.9,227.6h-2.2v7.6h-1.3v-7.6h-1.5v-0.6l1.5-0.5v-0.5c0-2.1,0.9-3.2,2.8-3.2c0.5,0,1,0.1,1.6,0.3
			l-0.3,1c-0.5-0.2-0.9-0.2-1.3-0.2c-0.5,0-0.9,0.2-1.1,0.5c-0.2,0.3-0.4,0.8-0.4,1.6v0.6h2.2V227.6z"/><path fill="#FCFCFC" d="M327.2,235.4c-1.3,0-2.3-0.4-3-1.2c-0.7-0.8-1.1-1.8-1.1-3.2c0-1.4,0.3-2.5,1-3.3s1.6-1.2,2.7-1.2
			c1.1,0,1.9,0.4,2.5,1.1c0.6,0.7,0.9,1.6,0.9,2.8v0.8h-5.9c0,1,0.3,1.8,0.8,2.3c0.5,0.5,1.2,0.8,2,0.8c0.9,0,1.8-0.2,2.7-0.6v1.2
			c-0.5,0.2-0.9,0.3-1.3,0.4C328.3,235.3,327.8,235.4,327.2,235.4z M326.9,227.6c-0.7,0-1.2,0.2-1.6,0.7c-0.4,0.4-0.6,1.1-0.7,1.9
			h4.5c0-0.8-0.2-1.4-0.5-1.9C328.1,227.8,327.6,227.6,326.9,227.6z"/><path fill="#FCFCFC" d="M336.7,226.5c0.4,0,0.7,0,1,0.1l-0.2,1.2c-0.4-0.1-0.7-0.1-0.9-0.1c-0.7,0-1.3,0.3-1.8,0.8
			s-0.7,1.3-0.7,2.1v4.6h-1.3v-8.6h1.1l0.1,1.6h0.1c0.3-0.6,0.7-1,1.1-1.3C335.7,226.6,336.2,226.5,336.7,226.5z"/><path fill="#FCFCFC" d="M343.1,235.4c-1.3,0-2.3-0.4-3-1.2c-0.7-0.8-1.1-1.8-1.1-3.2c0-1.4,0.3-2.5,1-3.3s1.6-1.2,2.7-1.2
			c1.1,0,1.9,0.4,2.5,1.1c0.6,0.7,0.9,1.6,0.9,2.8v0.8h-5.9c0,1,0.3,1.8,0.8,2.3c0.5,0.5,1.2,0.8,2,0.8c0.9,0,1.8-0.2,2.7-0.6v1.2
			c-0.5,0.2-0.9,0.3-1.3,0.4C344.2,235.3,343.7,235.4,343.1,235.4z M342.8,227.6c-0.7,0-1.2,0.2-1.6,0.7c-0.4,0.4-0.6,1.1-0.7,1.9
			h4.5c0-0.8-0.2-1.4-0.5-1.9C344,227.8,343.5,227.6,342.8,227.6z"/><path fill="#FCFCFC" d="M354.5,235.2v-5.5c0-0.7-0.2-1.2-0.5-1.6c-0.3-0.3-0.8-0.5-1.5-0.5c-0.9,0-1.6,0.2-2,0.7
			c-0.4,0.5-0.6,1.3-0.6,2.4v4.5h-1.3v-8.6h1.1l0.2,1.2h0.1c0.3-0.4,0.6-0.7,1.1-1c0.5-0.2,1-0.3,1.6-0.3c1,0,1.8,0.2,2.3,0.7
			c0.5,0.5,0.8,1.3,0.8,2.4v5.6H354.5z"/><path fill="#FCFCFC" d="M362.1,235.4c-1.2,0-2.2-0.4-2.9-1.1c-0.7-0.8-1-1.8-1-3.2c0-1.4,0.3-2.5,1-3.3c0.7-0.8,1.7-1.2,2.9-1.2
			c0.4,0,0.8,0,1.2,0.1c0.4,0.1,0.7,0.2,1,0.3L364,228c-0.3-0.1-0.6-0.2-0.9-0.3c-0.3-0.1-0.6-0.1-0.9-0.1c-1.7,0-2.6,1.1-2.6,3.3
			c0,1.1,0.2,1.9,0.6,2.4c0.4,0.6,1.1,0.8,1.9,0.8c0.7,0,1.4-0.2,2.2-0.5v1.1C363.7,235.2,363,235.4,362.1,235.4z"/><path fill="#FCFCFC" d="M366.4,224.3c0-0.3,0.1-0.5,0.2-0.7c0.1-0.1,0.3-0.2,0.5-0.2c0.2,0,0.4,0.1,0.5,0.2
			c0.2,0.1,0.2,0.4,0.2,0.6c0,0.3-0.1,0.5-0.2,0.7c-0.2,0.1-0.3,0.2-0.5,0.2c-0.2,0-0.4-0.1-0.5-0.2
			C366.5,224.8,366.4,224.6,366.4,224.3z M367.8,235.2h-1.3v-8.6h1.3V235.2z"/><path fill="#FCFCFC" d="M376,235.2l-0.3-1.2h-0.1c-0.4,0.5-0.9,0.9-1.3,1.1c-0.4,0.2-1,0.3-1.6,0.3c-0.8,0-1.5-0.2-2-0.7
			c-0.5-0.4-0.7-1.1-0.7-1.9c0-1.7,1.4-2.6,4.1-2.7l1.5,0v-0.5c0-0.7-0.1-1.2-0.4-1.5s-0.8-0.5-1.4-0.5c-0.7,0-1.5,0.2-2.4,0.7
			l-0.4-1c0.4-0.2,0.9-0.4,1.4-0.5c0.5-0.1,1-0.2,1.5-0.2c1,0,1.8,0.2,2.3,0.7s0.7,1.2,0.7,2.2v5.8H376z M373.1,234.3
			c0.8,0,1.4-0.2,1.9-0.7c0.5-0.4,0.7-1.1,0.7-1.9V231l-1.3,0.1c-1,0-1.8,0.2-2.2,0.5c-0.5,0.3-0.7,0.7-0.7,1.3
			c0,0.5,0.1,0.8,0.4,1.1C372.2,234.2,372.6,234.3,373.1,234.3z"/><path fill="#FCFCFC" d="M381.1,235.2h-1.3V223h1.3V235.2z"/></g></g><polygon fill-rule="evenodd" clip-rule="evenodd" fill="#C3C3CB" points="328.7,160.4 335,160.4 335,94 347.6,94 347.6,160.4 
	353.9,160.4 341.3,173 "/><g><path d="M10,181.6v-12.9h4.8c1,0,1.8,0.1,2.4,0.4s1.1,0.7,1.4,1.2s0.5,1.1,0.5,1.7c0,0.6-0.1,1.1-0.4,1.6s-0.8,0.9-1.4,1.2
		c0.8,0.2,1.4,0.6,1.8,1.2s0.6,1.2,0.6,2c0,0.6-0.1,1.2-0.4,1.7s-0.6,0.9-0.9,1.2s-0.8,0.5-1.4,0.6s-1.3,0.2-2.1,0.2H10z
		 M11.7,174.1h2.8c0.8,0,1.3,0,1.6-0.1c0.4-0.1,0.8-0.3,1-0.6s0.3-0.7,0.3-1.1c0-0.4-0.1-0.8-0.3-1.1s-0.5-0.5-0.9-0.7
		c-0.4-0.1-1-0.2-2-0.2h-2.6V174.1z M11.7,180.1h3.2c0.6,0,0.9,0,1.2-0.1c0.4-0.1,0.7-0.2,1-0.4s0.5-0.4,0.7-0.7s0.3-0.7,0.3-1.1
		c0-0.5-0.1-0.9-0.4-1.3s-0.6-0.6-1-0.7s-1.1-0.2-1.9-0.2h-3V180.1z"/><path d="M28,180.5c-0.6,0.5-1.1,0.8-1.7,1.1s-1.1,0.3-1.7,0.3c-1,0-1.8-0.2-2.4-0.8s-0.8-1.1-0.8-1.9c0-0.5,0.1-0.9,0.3-1.3
		s0.5-0.7,0.8-0.9s0.7-0.4,1.1-0.5c0.3-0.1,0.8-0.2,1.4-0.2c1.3-0.2,2.2-0.3,2.8-0.5c0-0.2,0-0.4,0-0.4c0-0.6-0.1-1.1-0.4-1.4
		c-0.4-0.4-1-0.5-1.8-0.5c-0.7,0-1.3,0.1-1.6,0.4s-0.6,0.7-0.8,1.4l-1.5-0.2c0.1-0.7,0.4-1.2,0.7-1.6s0.8-0.7,1.4-0.9
		s1.3-0.3,2.1-0.3c0.8,0,1.4,0.1,1.9,0.3s0.9,0.4,1.1,0.7s0.4,0.6,0.5,1.1c0.1,0.3,0.1,0.8,0.1,1.5v2.1c0,1.5,0,2.4,0.1,2.8
		s0.2,0.8,0.4,1.1h-1.7C28.1,181.3,28,180.9,28,180.5z M27.8,176.9c-0.6,0.2-1.4,0.4-2.6,0.6c-0.7,0.1-1.1,0.2-1.4,0.3
		s-0.5,0.3-0.6,0.5s-0.2,0.5-0.2,0.8c0,0.4,0.2,0.8,0.5,1.1s0.8,0.4,1.4,0.4c0.6,0,1.2-0.1,1.6-0.4s0.8-0.6,1-1.1
		c0.2-0.4,0.3-0.9,0.3-1.6V176.9z"/><path d="M31.9,181.6v-12.9h1.6v4.6c0.7-0.9,1.7-1.3,2.8-1.3c0.7,0,1.3,0.1,1.8,0.4s0.9,0.6,1.1,1.1s0.3,1.2,0.3,2.1v5.9h-1.6v-5.9
		c0-0.8-0.2-1.4-0.5-1.7s-0.8-0.5-1.5-0.5c-0.5,0-0.9,0.1-1.3,0.4s-0.7,0.6-0.9,1s-0.3,1-0.3,1.7v5.1H31.9z"/><path d="M48,180.5c-0.6,0.5-1.1,0.8-1.7,1.1s-1.1,0.3-1.7,0.3c-1,0-1.8-0.2-2.4-0.8s-0.8-1.1-0.8-1.9c0-0.5,0.1-0.9,0.3-1.3
		s0.5-0.7,0.8-0.9s0.7-0.4,1.1-0.5c0.3-0.1,0.8-0.2,1.4-0.2c1.3-0.2,2.2-0.3,2.8-0.5c0-0.2,0-0.4,0-0.4c0-0.6-0.1-1.1-0.4-1.4
		c-0.4-0.4-1-0.5-1.8-0.5c-0.7,0-1.3,0.1-1.6,0.4s-0.6,0.7-0.8,1.4l-1.5-0.2c0.1-0.7,0.4-1.2,0.7-1.6s0.8-0.7,1.4-0.9
		s1.3-0.3,2.1-0.3c0.8,0,1.4,0.1,1.9,0.3s0.9,0.4,1.1,0.7s0.4,0.6,0.5,1.1c0.1,0.3,0.1,0.8,0.1,1.5v2.1c0,1.5,0,2.4,0.1,2.8
		s0.2,0.8,0.4,1.1h-1.7C48.1,181.3,48,180.9,48,180.5z M47.9,176.9c-0.6,0.2-1.4,0.4-2.6,0.6c-0.7,0.1-1.1,0.2-1.4,0.3
		s-0.5,0.3-0.6,0.5s-0.2,0.5-0.2,0.8c0,0.4,0.2,0.8,0.5,1.1s0.8,0.4,1.4,0.4c0.6,0,1.2-0.1,1.6-0.4s0.8-0.6,1-1.1
		c0.2-0.4,0.3-0.9,0.3-1.6V176.9z"/><path d="M51.9,181.6v-9.3h1.4v1.3c0.3-0.5,0.7-0.8,1.2-1.1s1-0.4,1.7-0.4c0.7,0,1.3,0.1,1.7,0.4s0.8,0.7,0.9,1.2
		c0.7-1.1,1.7-1.6,2.9-1.6c0.9,0,1.6,0.3,2.1,0.8s0.7,1.3,0.7,2.4v6.4H63v-5.9c0-0.6-0.1-1.1-0.2-1.4s-0.3-0.5-0.6-0.7
		s-0.6-0.3-0.9-0.3c-0.7,0-1.2,0.2-1.6,0.7s-0.7,1.1-0.7,2.1v5.4h-1.6v-6.1c0-0.7-0.1-1.2-0.4-1.6s-0.7-0.5-1.3-0.5
		c-0.4,0-0.9,0.1-1.2,0.4s-0.7,0.6-0.8,1s-0.3,1.1-0.3,2v4.8H51.9z"/><path d="M73,180.5c-0.6,0.5-1.1,0.8-1.7,1.1s-1.1,0.3-1.7,0.3c-1,0-1.8-0.2-2.4-0.8s-0.8-1.1-0.8-1.9c0-0.5,0.1-0.9,0.3-1.3
		s0.5-0.7,0.8-0.9s0.7-0.4,1.1-0.5c0.3-0.1,0.8-0.2,1.4-0.2c1.3-0.2,2.2-0.3,2.8-0.5c0-0.2,0-0.4,0-0.4c0-0.6-0.1-1.1-0.4-1.4
		c-0.4-0.4-1-0.5-1.8-0.5c-0.7,0-1.3,0.1-1.6,0.4s-0.6,0.7-0.8,1.4l-1.5-0.2c0.1-0.7,0.4-1.2,0.7-1.6s0.8-0.7,1.4-0.9
		s1.3-0.3,2.1-0.3c0.8,0,1.4,0.1,1.9,0.3s0.9,0.4,1.1,0.7s0.4,0.6,0.5,1.1c0.1,0.3,0.1,0.8,0.1,1.5v2.1c0,1.5,0,2.4,0.1,2.8
		s0.2,0.8,0.4,1.1h-1.7C73.2,181.3,73,180.9,73,180.5z M72.9,176.9c-0.6,0.2-1.4,0.4-2.6,0.6c-0.7,0.1-1.1,0.2-1.4,0.3
		s-0.5,0.3-0.6,0.5s-0.2,0.5-0.2,0.8c0,0.4,0.2,0.8,0.5,1.1s0.8,0.4,1.4,0.4c0.6,0,1.2-0.1,1.6-0.4s0.8-0.6,1-1.1
		c0.2-0.4,0.3-0.9,0.3-1.6V176.9z"/><path d="M76.3,178.8l1.6-0.2c0.1,0.6,0.3,1.1,0.7,1.4s1,0.5,1.7,0.5c0.7,0,1.3-0.1,1.6-0.4s0.5-0.6,0.5-1c0-0.4-0.2-0.6-0.5-0.8
		c-0.2-0.1-0.8-0.3-1.6-0.5c-1.2-0.3-2-0.5-2.4-0.8s-0.8-0.5-1-0.9s-0.3-0.8-0.3-1.3c0-0.4,0.1-0.8,0.3-1.2s0.4-0.6,0.8-0.9
		c0.2-0.2,0.6-0.3,1-0.5s0.9-0.2,1.4-0.2c0.7,0,1.4,0.1,1.9,0.3s1,0.5,1.2,0.9s0.4,0.8,0.5,1.4l-1.5,0.2c-0.1-0.5-0.3-0.9-0.6-1.1
		s-0.8-0.4-1.4-0.4c-0.7,0-1.2,0.1-1.6,0.4s-0.5,0.5-0.5,0.8c0,0.2,0.1,0.4,0.2,0.6c0.1,0.2,0.3,0.3,0.6,0.4
		c0.2,0.1,0.6,0.2,1.4,0.4c1.1,0.3,1.9,0.5,2.3,0.7s0.8,0.5,1,0.8s0.4,0.8,0.4,1.4c0,0.5-0.2,1-0.5,1.5s-0.8,0.8-1.3,1.1
		s-1.2,0.4-2,0.4c-1.2,0-2.1-0.3-2.8-0.8S76.5,179.8,76.3,178.8z"/><path d="M8.7,203.2l4.9-12.9h1.8l5.3,12.9h-1.9l-1.5-3.9h-5.4l-1.4,3.9H8.7z M12.4,197.9h4.4l-1.3-3.6c-0.4-1.1-0.7-2-0.9-2.7
		c-0.2,0.8-0.4,1.6-0.7,2.5L12.4,197.9z"/><path d="M21.9,203.2v-9.3h1.4v1.3c0.7-1,1.7-1.5,3-1.5c0.6,0,1.1,0.1,1.6,0.3c0.5,0.2,0.8,0.5,1.1,0.8s0.4,0.7,0.5,1.2
		c0.1,0.3,0.1,0.8,0.1,1.5v5.7h-1.6v-5.7c0-0.6-0.1-1.1-0.2-1.4c-0.1-0.3-0.3-0.6-0.7-0.8c-0.3-0.2-0.7-0.3-1.1-0.3
		c-0.7,0-1.3,0.2-1.7,0.6s-0.7,1.2-0.7,2.4v5.1H21.9z"/><path d="M31.6,204l1.5,0.2c0.1,0.5,0.2,0.8,0.5,1c0.4,0.3,0.9,0.4,1.6,0.4c0.7,0,1.3-0.1,1.7-0.4s0.7-0.7,0.8-1.2
		c0.1-0.3,0.1-1,0.1-2c-0.7,0.8-1.6,1.2-2.6,1.2c-1.3,0-2.3-0.5-3-1.4c-0.7-0.9-1.1-2-1.1-3.3c0-0.9,0.2-1.7,0.5-2.5
		c0.3-0.8,0.8-1.3,1.4-1.7s1.3-0.6,2.2-0.6c1.1,0,2,0.4,2.7,1.3v-1.1h1.5v8.1c0,1.5-0.1,2.5-0.4,3.1c-0.3,0.6-0.8,1.1-1.4,1.4
		s-1.4,0.5-2.4,0.5c-1.1,0-2-0.2-2.7-0.8C31.9,205.7,31.6,205,31.6,204z M32.9,198.4c0,1.2,0.2,2.1,0.7,2.7s1.1,0.8,1.8,0.8
		c0.7,0,1.3-0.3,1.8-0.8c0.5-0.6,0.7-1.4,0.7-2.6c0-1.1-0.3-2-0.8-2.6s-1.1-0.9-1.8-0.9c-0.7,0-1.3,0.3-1.8,0.9
		C33.2,196.4,32.9,197.2,32.9,198.4z"/><path d="M41.3,198.5c0-1.7,0.5-3,1.4-3.8c0.8-0.7,1.8-1,2.9-1c1.3,0,2.3,0.4,3.1,1.3c0.8,0.8,1.2,2,1.2,3.5c0,1.2-0.2,2.1-0.5,2.8
		c-0.4,0.7-0.9,1.2-1.6,1.6s-1.4,0.6-2.3,0.6c-1.3,0-2.4-0.4-3.2-1.3S41.3,200.1,41.3,198.5z M42.9,198.5c0,1.2,0.3,2.1,0.8,2.7
		c0.5,0.6,1.2,0.9,2,0.9c0.8,0,1.4-0.3,2-0.9s0.8-1.5,0.8-2.7c0-1.2-0.3-2-0.8-2.6c-0.5-0.6-1.2-0.9-2-0.9c-0.8,0-1.4,0.3-2,0.9
		S42.9,197.3,42.9,198.5z"/><path d="M51.9,203.2v-12.9h1.6v12.9H51.9z"/><path d="M62,202.1c-0.6,0.5-1.1,0.8-1.7,1.1s-1.1,0.3-1.7,0.3c-1,0-1.8-0.3-2.4-0.8c-0.6-0.5-0.8-1.1-0.8-1.9
		c0-0.5,0.1-0.9,0.3-1.3c0.2-0.4,0.5-0.7,0.8-0.9s0.7-0.4,1.1-0.5c0.3-0.1,0.8-0.2,1.4-0.2c1.3-0.2,2.2-0.3,2.8-0.5
		c0-0.2,0-0.4,0-0.4c0-0.6-0.1-1.1-0.4-1.4c-0.4-0.4-1-0.5-1.8-0.5c-0.7,0-1.3,0.1-1.6,0.4c-0.4,0.3-0.6,0.7-0.8,1.4l-1.5-0.2
		c0.1-0.7,0.4-1.2,0.7-1.6c0.3-0.4,0.8-0.7,1.4-0.9c0.6-0.2,1.3-0.3,2.1-0.3c0.8,0,1.4,0.1,1.9,0.3s0.9,0.4,1.1,0.7
		c0.2,0.3,0.4,0.6,0.5,1.1c0.1,0.3,0.1,0.8,0.1,1.5v2.1c0,1.5,0,2.4,0.1,2.8c0.1,0.4,0.2,0.8,0.4,1.1h-1.7
		C62.2,202.9,62.1,202.5,62,202.1z M61.9,198.5c-0.6,0.2-1.4,0.4-2.6,0.6c-0.7,0.1-1.1,0.2-1.4,0.3s-0.5,0.3-0.6,0.5
		c-0.1,0.2-0.2,0.5-0.2,0.8c0,0.4,0.2,0.8,0.5,1.1s0.8,0.4,1.4,0.4c0.6,0,1.2-0.1,1.6-0.4c0.5-0.3,0.8-0.6,1-1.1
		c0.2-0.4,0.3-0.9,0.3-1.6V198.5z"/><path d="M10.1,224.8v-12.9h1.7v5.3h6.7v-5.3h1.7v12.9h-1.7v-6.1h-6.7v6.1H10.1z"/><path d="M22.3,220.1c0-1.7,0.5-3,1.4-3.8c0.8-0.7,1.8-1,2.9-1c1.3,0,2.3,0.4,3.1,1.3s1.2,2,1.2,3.5c0,1.2-0.2,2.1-0.5,2.8
		s-0.9,1.2-1.6,1.6s-1.4,0.6-2.3,0.6c-1.3,0-2.4-0.4-3.2-1.3S22.3,221.7,22.3,220.1z M23.9,220.1c0,1.2,0.3,2.1,0.8,2.7
		s1.2,0.9,2,0.9c0.8,0,1.4-0.3,2-0.9s0.8-1.5,0.8-2.7c0-1.2-0.3-2-0.8-2.6s-1.2-0.9-2-0.9c-0.8,0-1.4,0.3-2,0.9
		S23.9,218.9,23.9,220.1z"/><path d="M32.9,224.8v-9.3h1.4v1.3c0.7-1,1.7-1.5,3-1.5c0.6,0,1.1,0.1,1.6,0.3s0.8,0.5,1.1,0.8s0.4,0.7,0.5,1.2
		c0.1,0.3,0.1,0.8,0.1,1.5v5.7h-1.6v-5.7c0-0.6-0.1-1.1-0.2-1.4s-0.3-0.6-0.7-0.8s-0.7-0.3-1.1-0.3c-0.7,0-1.3,0.2-1.7,0.6
		s-0.7,1.2-0.7,2.4v5.1H32.9z"/><path d="M42.6,225.6l1.5,0.2c0.1,0.5,0.2,0.8,0.5,1c0.4,0.3,0.9,0.4,1.6,0.4c0.7,0,1.3-0.1,1.7-0.4s0.7-0.7,0.8-1.2
		c0.1-0.3,0.1-1,0.1-2c-0.7,0.8-1.6,1.2-2.6,1.2c-1.3,0-2.3-0.5-3-1.4s-1.1-2-1.1-3.3c0-0.9,0.2-1.7,0.5-2.5s0.8-1.3,1.4-1.7
		s1.3-0.6,2.2-0.6c1.1,0,2,0.4,2.7,1.3v-1.1h1.5v8.1c0,1.5-0.1,2.5-0.4,3.1s-0.8,1.1-1.4,1.4s-1.4,0.5-2.4,0.5c-1.1,0-2-0.2-2.7-0.8
		S42.6,226.6,42.6,225.6z M43.9,220c0,1.2,0.2,2.1,0.7,2.7s1.1,0.8,1.8,0.8c0.7,0,1.3-0.3,1.8-0.8s0.7-1.4,0.7-2.6
		c0-1.1-0.3-2-0.8-2.6s-1.1-0.9-1.8-0.9c-0.7,0-1.3,0.3-1.8,0.9S43.9,218.8,43.9,220z"/><path d="M58,224.8v-12.9h1.7v6.4l6.4-6.4h2.3l-5.4,5.2l5.6,7.7h-2.2l-4.6-6.5l-2.1,2.1v4.5H58z"/><path d="M69.3,220.1c0-1.7,0.5-3,1.4-3.8c0.8-0.7,1.8-1,2.9-1c1.3,0,2.3,0.4,3.1,1.3s1.2,2,1.2,3.5c0,1.2-0.2,2.1-0.5,2.8
		s-0.9,1.2-1.6,1.6s-1.4,0.6-2.3,0.6c-1.3,0-2.4-0.4-3.2-1.3S69.3,221.7,69.3,220.1z M71,220.1c0,1.2,0.3,2.1,0.8,2.7s1.2,0.9,2,0.9
		c0.8,0,1.4-0.3,2-0.9s0.8-1.5,0.8-2.7c0-1.2-0.3-2-0.8-2.6s-1.2-0.9-2-0.9c-0.8,0-1.4,0.3-2,0.9S71,218.9,71,220.1z"/><path d="M79.9,224.8v-9.3h1.4v1.3c0.7-1,1.7-1.5,3-1.5c0.6,0,1.1,0.1,1.6,0.3s0.8,0.5,1.1,0.8s0.4,0.7,0.5,1.2
		c0.1,0.3,0.1,0.8,0.1,1.5v5.7h-1.6v-5.7c0-0.6-0.1-1.1-0.2-1.4s-0.3-0.6-0.7-0.8s-0.7-0.3-1.1-0.3c-0.7,0-1.3,0.2-1.7,0.6
		s-0.7,1.2-0.7,2.4v5.1H79.9z"/><path d="M89.6,225.6l1.5,0.2c0.1,0.5,0.2,0.8,0.5,1c0.4,0.3,0.9,0.4,1.6,0.4c0.7,0,1.3-0.1,1.7-0.4s0.7-0.7,0.8-1.2
		c0.1-0.3,0.1-1,0.1-2c-0.7,0.8-1.6,1.2-2.6,1.2c-1.3,0-2.3-0.5-3-1.4s-1.1-2-1.1-3.3c0-0.9,0.2-1.7,0.5-2.5s0.8-1.3,1.4-1.7
		s1.3-0.6,2.2-0.6c1.1,0,2,0.4,2.7,1.3v-1.1h1.5v8.1c0,1.5-0.1,2.5-0.4,3.1s-0.8,1.1-1.4,1.4s-1.4,0.5-2.4,0.5c-1.1,0-2-0.2-2.7-0.8
		S89.6,226.6,89.6,225.6z M91,220c0,1.2,0.2,2.1,0.7,2.7s1.1,0.8,1.8,0.8c0.7,0,1.3-0.3,1.8-0.8s0.7-1.4,0.7-2.6
		c0-1.1-0.3-2-0.8-2.6s-1.1-0.9-1.8-0.9c-0.7,0-1.3,0.3-1.8,0.9S91,218.8,91,220z"/><path d="M10.1,246.4v-12.9h1.7v5.3h6.7v-5.3h1.7v12.9h-1.7v-6.1h-6.7v6.1H10.1z"/><path d="M29,245.3c-0.6,0.5-1.1,0.8-1.7,1.1s-1.1,0.3-1.7,0.3c-1,0-1.8-0.3-2.4-0.8s-0.8-1.1-0.8-1.9c0-0.5,0.1-0.9,0.3-1.3
		s0.5-0.7,0.8-0.9s0.7-0.4,1.1-0.5c0.3-0.1,0.8-0.2,1.4-0.2c1.3-0.2,2.2-0.3,2.8-0.5c0-0.2,0-0.4,0-0.4c0-0.6-0.1-1.1-0.4-1.4
		c-0.4-0.4-1-0.5-1.8-0.5c-0.7,0-1.3,0.1-1.6,0.4s-0.6,0.7-0.8,1.4l-1.5-0.2c0.1-0.7,0.4-1.2,0.7-1.6s0.8-0.7,1.4-0.9
		s1.3-0.3,2.1-0.3c0.8,0,1.4,0.1,1.9,0.3s0.9,0.4,1.1,0.7s0.4,0.6,0.5,1.1c0.1,0.3,0.1,0.8,0.1,1.5v2.1c0,1.5,0,2.4,0.1,2.8
		s0.2,0.8,0.4,1.1h-1.7C29.1,246.1,29,245.7,29,245.3z M28.8,241.7c-0.6,0.2-1.4,0.4-2.6,0.6c-0.7,0.1-1.1,0.2-1.4,0.3
		s-0.5,0.3-0.6,0.5s-0.2,0.5-0.2,0.8c0,0.4,0.2,0.8,0.5,1.1s0.8,0.4,1.4,0.4c0.6,0,1.2-0.1,1.6-0.4s0.8-0.6,1-1.1
		c0.2-0.4,0.3-0.9,0.3-1.6V241.7z"/><path d="M36.3,245l0.2,1.4c-0.4,0.1-0.8,0.1-1.2,0.1c-0.6,0-1-0.1-1.3-0.3s-0.5-0.4-0.7-0.7s-0.2-0.9-0.2-1.9v-5.4H32v-1.2h1.2
		v-2.3l1.6-0.9v3.3h1.6v1.2h-1.6v5.5c0,0.5,0,0.7,0.1,0.9s0.1,0.2,0.3,0.3s0.3,0.1,0.5,0.1C35.8,245.1,36.1,245,36.3,245z"/><path d="M38.4,235.9l1.2-2.5h2.1l-1.9,2.5H38.4z M38.4,246.4v-9.3H40v9.3H38.4z"/></g><g><path d="M678.5,181.6v-12.9h9.3v1.5h-7.6v3.9h7.1v1.5h-7.1v4.4h7.9v1.5H678.5z"/><path d="M690,182.4l1.5,0.2c0.1,0.5,0.2,0.8,0.5,1c0.4,0.3,0.9,0.4,1.6,0.4c0.7,0,1.3-0.1,1.7-0.4s0.7-0.7,0.8-1.2
		c0.1-0.3,0.1-1,0.1-2c-0.7,0.8-1.6,1.2-2.6,1.2c-1.3,0-2.3-0.5-3-1.4s-1.1-2-1.1-3.3c0-0.9,0.2-1.7,0.5-2.5
		c0.3-0.8,0.8-1.3,1.4-1.7s1.3-0.6,2.2-0.6c1.1,0,2,0.4,2.7,1.3v-1.1h1.5v8.1c0,1.5-0.1,2.5-0.4,3.1c-0.3,0.6-0.8,1.1-1.4,1.4
		s-1.4,0.5-2.4,0.5c-1.1,0-2-0.3-2.7-0.8C690.3,184.1,690,183.4,690,182.4z M691.3,176.8c0,1.2,0.2,2.1,0.7,2.7s1.1,0.8,1.8,0.8
		c0.7,0,1.3-0.3,1.8-0.8c0.5-0.6,0.7-1.4,0.7-2.6c0-1.1-0.3-2-0.8-2.6s-1.1-0.9-1.8-0.9c-0.7,0-1.3,0.3-1.8,0.9
		C691.6,174.8,691.3,175.6,691.3,176.8z"/><path d="M700.3,170.5v-1.8h1.6v1.8H700.3z M700.3,181.6v-9.3h1.6v9.3H700.3z"/><path d="M704.3,185.2v-12.9h1.4v1.2c0.3-0.5,0.7-0.8,1.2-1.1c0.4-0.2,0.9-0.4,1.6-0.4c0.8,0,1.5,0.2,2.1,0.6s1.1,1,1.4,1.7
		c0.3,0.7,0.5,1.6,0.5,2.5c0,1-0.2,1.8-0.5,2.6c-0.3,0.8-0.8,1.4-1.5,1.8c-0.7,0.4-1.3,0.6-2.1,0.6c-0.5,0-1-0.1-1.4-0.3
		s-0.8-0.5-1-0.8v4.5H704.3z M705.7,177c0,1.2,0.2,2.1,0.7,2.7s1.1,0.9,1.8,0.9c0.7,0,1.3-0.3,1.8-0.9c0.5-0.6,0.8-1.5,0.8-2.8
		c0-1.2-0.2-2.1-0.7-2.7s-1.1-0.9-1.8-0.9c-0.7,0-1.3,0.3-1.8,0.9C706,174.9,705.7,175.8,705.7,177z"/><path d="M717.8,180.2l0.2,1.4c-0.4,0.1-0.8,0.1-1.2,0.1c-0.6,0-1-0.1-1.3-0.3s-0.5-0.4-0.7-0.7c-0.1-0.3-0.2-0.9-0.2-1.9v-5.4h-1.2
		v-1.2h1.2V170l1.6-0.9v3.3h1.6v1.2h-1.6v5.5c0,0.5,0,0.7,0.1,0.9s0.1,0.2,0.3,0.3s0.3,0.1,0.5,0.1
		C717.2,180.3,717.5,180.2,717.8,180.2z"/><path d="M718.7,176.9c0-1.7,0.5-3,1.4-3.8c0.8-0.7,1.8-1,2.9-1c1.3,0,2.3,0.4,3.1,1.3c0.8,0.8,1.2,2,1.2,3.5c0,1.2-0.2,2.1-0.5,2.8
		c-0.4,0.7-0.9,1.2-1.6,1.6s-1.4,0.6-2.3,0.6c-1.3,0-2.4-0.4-3.2-1.3S718.7,178.5,718.7,176.9z M720.3,176.9c0,1.2,0.3,2.1,0.8,2.7
		c0.5,0.6,1.2,0.9,2,0.9c0.8,0,1.4-0.3,2-0.9s0.8-1.5,0.8-2.7c0-1.2-0.3-2-0.8-2.6c-0.5-0.6-1.2-0.9-2-0.9c-0.8,0-1.4,0.3-2,0.9
		S720.3,175.7,720.3,176.9z"/><path d="M687.7,198.7l1.7,0.4c-0.4,1.4-1,2.5-1.9,3.2s-2.1,1.1-3.4,1.1c-1.4,0-2.5-0.3-3.4-0.8s-1.5-1.4-2-2.5s-0.7-2.2-0.7-3.5
		c0-1.3,0.3-2.5,0.8-3.5s1.2-1.8,2.2-2.3s2-0.8,3.1-0.8c1.3,0,2.4,0.3,3.3,1s1.5,1.6,1.8,2.8l-1.7,0.4c-0.3-0.9-0.7-1.6-1.3-2
		s-1.3-0.6-2.1-0.6c-1,0-1.8,0.2-2.5,0.7s-1.1,1.1-1.4,1.9s-0.4,1.6-0.4,2.5c0,1.1,0.2,2.1,0.5,2.9s0.8,1.4,1.5,1.8s1.4,0.6,2.2,0.6
		c1,0,1.8-0.3,2.4-0.8S687.4,199.8,687.7,198.7z"/><path d="M697.4,203.2v-1.4c-0.7,1.1-1.7,1.6-3,1.6c-0.6,0-1.1-0.1-1.5-0.3s-0.8-0.5-1.1-0.8s-0.4-0.7-0.5-1.2
		c-0.1-0.3-0.1-0.8-0.1-1.5v-5.8h1.6v5.2c0,0.8,0,1.4,0.1,1.7c0.1,0.4,0.3,0.7,0.6,1s0.7,0.4,1.2,0.4s0.9-0.1,1.3-0.4s0.7-0.6,0.9-1
		s0.3-1,0.3-1.8v-5h1.6v9.3H697.4z"/><path d="M702.8,203.2h-1.5v-12.9h1.6v4.6c0.7-0.8,1.5-1.3,2.6-1.3c0.6,0,1.1,0.1,1.6,0.3s0.9,0.6,1.3,1s0.6,0.9,0.8,1.5
		s0.3,1.2,0.3,1.9c0,1.6-0.4,2.8-1.2,3.7s-1.7,1.3-2.8,1.3c-1.1,0-2-0.5-2.6-1.4V203.2z M702.7,198.5c0,1.1,0.2,1.9,0.5,2.4
		c0.5,0.8,1.2,1.2,2,1.2c0.7,0,1.3-0.3,1.8-0.9s0.8-1.5,0.8-2.7c0-1.2-0.2-2.1-0.7-2.7s-1.1-0.9-1.8-0.9c-0.7,0-1.3,0.3-1.8,0.9
		S702.7,197.3,702.7,198.5z"/><path d="M717.4,202.1c-0.6,0.5-1.1,0.8-1.7,1.1s-1.1,0.3-1.7,0.3c-1,0-1.8-0.2-2.4-0.8s-0.8-1.1-0.8-1.9c0-0.5,0.1-0.9,0.3-1.3
		s0.5-0.7,0.8-0.9s0.7-0.4,1.1-0.5c0.3-0.1,0.8-0.2,1.4-0.2c1.3-0.2,2.2-0.3,2.8-0.5c0-0.2,0-0.4,0-0.4c0-0.6-0.1-1.1-0.4-1.4
		c-0.4-0.4-1-0.5-1.8-0.5c-0.7,0-1.3,0.1-1.6,0.4s-0.6,0.7-0.8,1.4l-1.5-0.2c0.1-0.7,0.4-1.2,0.7-1.6s0.8-0.7,1.4-0.9
		s1.3-0.3,2.1-0.3c0.8,0,1.4,0.1,1.9,0.3s0.9,0.4,1.1,0.7s0.4,0.6,0.5,1.1c0.1,0.3,0.1,0.8,0.1,1.5v2.1c0,1.5,0,2.4,0.1,2.8
		s0.2,0.8,0.4,1.1h-1.7C717.5,202.9,717.4,202.5,717.4,202.1z M717.3,198.5c-0.6,0.2-1.4,0.4-2.6,0.6c-0.7,0.1-1.1,0.2-1.4,0.3
		s-0.5,0.3-0.6,0.5s-0.2,0.5-0.2,0.8c0,0.4,0.2,0.8,0.5,1.1s0.8,0.4,1.4,0.4c0.6,0,1.2-0.1,1.6-0.4s0.8-0.6,1-1.1
		c0.2-0.4,0.3-0.9,0.3-1.6V198.5z"/><path d="M678.5,224.8v-12.9h1.7L687,222v-10.1h1.6v12.9h-1.7l-6.8-10.1v10.1H678.5z"/><path d="M691.3,213.7v-1.8h1.6v1.8H691.3z M691.3,224.8v-9.3h1.6v9.3H691.3z"/><path d="M701.4,221.4l1.6,0.2c-0.2,1.1-0.6,1.9-1.3,2.5c-0.7,0.6-1.6,0.9-2.6,0.9c-1.3,0-2.3-0.4-3.1-1.3c-0.8-0.8-1.2-2-1.2-3.6
		c0-1,0.2-1.9,0.5-2.6s0.8-1.3,1.5-1.7c0.7-0.4,1.4-0.6,2.2-0.6c1,0,1.8,0.3,2.5,0.8c0.6,0.5,1.1,1.2,1.2,2.2l-1.5,0.2
		c-0.1-0.6-0.4-1.1-0.8-1.4s-0.8-0.5-1.3-0.5c-0.8,0-1.4,0.3-1.9,0.9c-0.5,0.6-0.7,1.5-0.7,2.7c0,1.3,0.2,2.2,0.7,2.7
		s1.1,0.9,1.9,0.9c0.6,0,1.1-0.2,1.6-0.6S701.3,222.2,701.4,221.4z"/><path d="M710.4,223.7c-0.6,0.5-1.1,0.8-1.7,1.1s-1.1,0.3-1.7,0.3c-1,0-1.8-0.3-2.4-0.8c-0.6-0.5-0.8-1.1-0.8-1.9
		c0-0.5,0.1-0.9,0.3-1.3c0.2-0.4,0.5-0.7,0.8-0.9s0.7-0.4,1.1-0.5c0.3-0.1,0.8-0.2,1.4-0.2c1.3-0.2,2.2-0.3,2.8-0.5
		c0-0.2,0-0.4,0-0.4c0-0.6-0.1-1.1-0.4-1.4c-0.4-0.4-1-0.5-1.8-0.5c-0.7,0-1.3,0.1-1.6,0.4c-0.4,0.3-0.6,0.7-0.8,1.4l-1.5-0.2
		c0.1-0.7,0.4-1.2,0.7-1.6c0.3-0.4,0.8-0.7,1.4-0.9c0.6-0.2,1.3-0.3,2.1-0.3c0.8,0,1.4,0.1,1.9,0.3s0.9,0.4,1.1,0.7
		c0.2,0.3,0.4,0.6,0.5,1.1c0.1,0.3,0.1,0.8,0.1,1.5v2.1c0,1.5,0,2.4,0.1,2.8c0.1,0.4,0.2,0.8,0.4,1.1h-1.7
		C710.5,224.5,710.4,224.1,710.4,223.7z M710.2,220.1c-0.6,0.2-1.4,0.4-2.6,0.6c-0.7,0.1-1.1,0.2-1.4,0.3s-0.5,0.3-0.6,0.5
		c-0.1,0.2-0.2,0.5-0.2,0.8c0,0.4,0.2,0.8,0.5,1.1s0.8,0.4,1.4,0.4c0.6,0,1.2-0.1,1.6-0.4c0.5-0.3,0.8-0.6,1-1.1
		c0.2-0.4,0.3-0.9,0.3-1.6V220.1z"/><path d="M714.3,224.8v-9.3h1.4v1.4c0.4-0.7,0.7-1.1,1-1.3s0.6-0.3,1-0.3c0.5,0,1.1,0.2,1.6,0.5l-0.5,1.5c-0.4-0.2-0.8-0.3-1.2-0.3
		c-0.3,0-0.7,0.1-0.9,0.3c-0.3,0.2-0.5,0.5-0.6,0.9c-0.2,0.6-0.3,1.2-0.3,1.8v4.9H714.3z"/><path d="M726.4,223.7c-0.6,0.5-1.1,0.8-1.7,1.1s-1.1,0.3-1.7,0.3c-1,0-1.8-0.3-2.4-0.8c-0.6-0.5-0.8-1.1-0.8-1.9
		c0-0.5,0.1-0.9,0.3-1.3c0.2-0.4,0.5-0.7,0.8-0.9s0.7-0.4,1.1-0.5c0.3-0.1,0.8-0.2,1.4-0.2c1.3-0.2,2.2-0.3,2.8-0.5
		c0-0.2,0-0.4,0-0.4c0-0.6-0.1-1.1-0.4-1.4c-0.4-0.4-1-0.5-1.8-0.5c-0.7,0-1.3,0.1-1.6,0.4c-0.4,0.3-0.6,0.7-0.8,1.4l-1.5-0.2
		c0.1-0.7,0.4-1.2,0.7-1.6c0.3-0.4,0.8-0.7,1.4-0.9c0.6-0.2,1.3-0.3,2.1-0.3c0.8,0,1.4,0.1,1.9,0.3s0.9,0.4,1.1,0.7
		c0.2,0.3,0.4,0.6,0.5,1.1c0.1,0.3,0.1,0.8,0.1,1.5v2.1c0,1.5,0,2.4,0.1,2.8c0.1,0.4,0.2,0.8,0.4,1.1h-1.7
		C726.5,224.5,726.4,224.1,726.4,223.7z M726.2,220.1c-0.6,0.2-1.4,0.4-2.6,0.6c-0.7,0.1-1.1,0.2-1.4,0.3s-0.5,0.3-0.6,0.5
		c-0.1,0.2-0.2,0.5-0.2,0.8c0,0.4,0.2,0.8,0.5,1.1s0.8,0.4,1.4,0.4c0.6,0,1.2-0.1,1.6-0.4c0.5-0.3,0.8-0.6,1-1.1
		c0.2-0.4,0.3-0.9,0.3-1.6V220.1z"/><path d="M730,225.6l1.5,0.2c0.1,0.5,0.2,0.8,0.5,1c0.4,0.3,0.9,0.4,1.6,0.4c0.7,0,1.3-0.1,1.7-0.4s0.7-0.7,0.8-1.2
		c0.1-0.3,0.1-1,0.1-2c-0.7,0.8-1.6,1.2-2.6,1.2c-1.3,0-2.3-0.5-3-1.4s-1.1-2-1.1-3.3c0-0.9,0.2-1.7,0.5-2.5
		c0.3-0.8,0.8-1.3,1.4-1.7s1.3-0.6,2.2-0.6c1.1,0,2,0.4,2.7,1.3v-1.1h1.5v8.1c0,1.5-0.1,2.5-0.4,3.1c-0.3,0.6-0.8,1.1-1.4,1.4
		s-1.4,0.5-2.4,0.5c-1.1,0-2-0.2-2.7-0.8C730.3,227.3,730,226.6,730,225.6z M731.3,220c0,1.2,0.2,2.1,0.7,2.7s1.1,0.8,1.8,0.8
		c0.7,0,1.3-0.3,1.8-0.8c0.5-0.6,0.7-1.4,0.7-2.6c0-1.1-0.3-2-0.8-2.6s-1.1-0.9-1.8-0.9c-0.7,0-1.3,0.3-1.8,0.9
		C731.6,218,731.3,218.8,731.3,220z"/><path d="M746.4,224.8v-1.4c-0.7,1.1-1.7,1.6-3,1.6c-0.6,0-1.1-0.1-1.5-0.3s-0.8-0.5-1.1-0.8c-0.2-0.3-0.4-0.7-0.5-1.2
		c-0.1-0.3-0.1-0.8-0.1-1.5v-5.8h1.6v5.2c0,0.8,0,1.4,0.1,1.7c0.1,0.4,0.3,0.7,0.6,1c0.3,0.2,0.7,0.4,1.2,0.4s0.9-0.1,1.3-0.4
		c0.4-0.2,0.7-0.6,0.9-1c0.2-0.4,0.3-1,0.3-1.8v-5h1.6v9.3H746.4z"/><path d="M756.4,223.7c-0.6,0.5-1.1,0.8-1.7,1.1s-1.1,0.3-1.7,0.3c-1,0-1.8-0.3-2.4-0.8c-0.6-0.5-0.8-1.1-0.8-1.9
		c0-0.5,0.1-0.9,0.3-1.3c0.2-0.4,0.5-0.7,0.8-0.9s0.7-0.4,1.1-0.5c0.3-0.1,0.8-0.2,1.4-0.2c1.3-0.2,2.2-0.3,2.8-0.5
		c0-0.2,0-0.4,0-0.4c0-0.6-0.1-1.1-0.4-1.4c-0.4-0.4-1-0.5-1.8-0.5c-0.7,0-1.3,0.1-1.6,0.4c-0.4,0.3-0.6,0.7-0.8,1.4l-1.5-0.2
		c0.1-0.7,0.4-1.2,0.7-1.6c0.3-0.4,0.8-0.7,1.4-0.9c0.6-0.2,1.3-0.3,2.1-0.3c0.8,0,1.4,0.1,1.9,0.3s0.9,0.4,1.1,0.7
		c0.2,0.3,0.4,0.6,0.5,1.1c0.1,0.3,0.1,0.8,0.1,1.5v2.1c0,1.5,0,2.4,0.1,2.8c0.1,0.4,0.2,0.8,0.4,1.1h-1.7
		C756.6,224.5,756.5,224.1,756.4,223.7z M756.3,220.1c-0.6,0.2-1.4,0.4-2.6,0.6c-0.7,0.1-1.1,0.2-1.4,0.3s-0.5,0.3-0.6,0.5
		c-0.1,0.2-0.2,0.5-0.2,0.8c0,0.4,0.2,0.8,0.5,1.1s0.8,0.4,1.4,0.4c0.6,0,1.2-0.1,1.6-0.4c0.5-0.3,0.8-0.6,1-1.1
		c0.2-0.4,0.3-0.9,0.3-1.6V220.1z"/><path d="M678.4,246.4v-12.9h4.8c1,0,1.8,0.1,2.4,0.4c0.6,0.3,1.1,0.7,1.4,1.2c0.3,0.5,0.5,1.1,0.5,1.7c0,0.6-0.1,1.1-0.4,1.6
		s-0.8,0.9-1.4,1.2c0.8,0.2,1.4,0.6,1.8,1.2s0.6,1.2,0.6,2c0,0.6-0.1,1.2-0.4,1.7c-0.3,0.5-0.6,0.9-0.9,1.2s-0.8,0.5-1.4,0.6
		c-0.6,0.1-1.3,0.2-2.1,0.2H678.4z M680.1,238.9h2.8c0.8,0,1.3,0,1.6-0.1c0.4-0.1,0.8-0.3,1-0.6s0.3-0.7,0.3-1.1
		c0-0.4-0.1-0.8-0.3-1.1c-0.2-0.3-0.5-0.5-0.9-0.7c-0.4-0.1-1-0.2-2-0.2h-2.6V238.9z M680.1,244.9h3.2c0.6,0,0.9,0,1.2-0.1
		c0.4-0.1,0.7-0.2,1-0.4s0.5-0.4,0.7-0.7c0.2-0.3,0.3-0.7,0.3-1.1c0-0.5-0.1-0.9-0.4-1.3c-0.2-0.4-0.6-0.6-1-0.7
		c-0.4-0.1-1.1-0.2-1.9-0.2h-3V244.9z"/><path d="M696.7,243.4l1.6,0.2c-0.3,1-0.7,1.7-1.4,2.2s-1.6,0.8-2.7,0.8c-1.4,0-2.4-0.4-3.2-1.3c-0.8-0.8-1.2-2-1.2-3.5
		c0-1.6,0.4-2.8,1.2-3.7s1.9-1.3,3.1-1.3c1.2,0,2.3,0.4,3.1,1.3s1.2,2,1.2,3.6c0,0.1,0,0.2,0,0.4h-7c0.1,1,0.3,1.8,0.9,2.4
		s1.2,0.8,2,0.8c0.6,0,1.1-0.2,1.5-0.5S696.4,244.1,696.7,243.4z M691.5,240.8h5.2c-0.1-0.8-0.3-1.4-0.6-1.8c-0.5-0.6-1.2-0.9-2-0.9
		c-0.7,0-1.3,0.2-1.8,0.7S691.5,240,691.5,240.8z"/><path d="M700.3,246.4v-9.3h1.4v1.4c0.4-0.7,0.7-1.1,1-1.3s0.6-0.3,1-0.3c0.5,0,1.1,0.2,1.6,0.5l-0.5,1.5c-0.4-0.2-0.8-0.3-1.2-0.3
		c-0.3,0-0.7,0.1-0.9,0.3c-0.3,0.2-0.5,0.5-0.6,0.9c-0.2,0.6-0.3,1.2-0.3,1.8v4.9H700.3z"/><path d="M706.3,246.4v-9.3h1.4v1.3c0.3-0.5,0.7-0.8,1.2-1.1c0.5-0.3,1-0.4,1.7-0.4c0.7,0,1.3,0.1,1.7,0.4s0.8,0.7,0.9,1.2
		c0.7-1.1,1.7-1.6,2.9-1.6c0.9,0,1.6,0.3,2.1,0.8c0.5,0.5,0.7,1.3,0.7,2.4v6.4h-1.6v-5.9c0-0.6-0.1-1.1-0.2-1.4
		c-0.1-0.3-0.3-0.5-0.6-0.7s-0.6-0.3-0.9-0.3c-0.7,0-1.2,0.2-1.6,0.7c-0.4,0.4-0.7,1.1-0.7,2.1v5.4h-1.6v-6.1c0-0.7-0.1-1.2-0.4-1.6
		s-0.7-0.5-1.3-0.5c-0.4,0-0.9,0.1-1.2,0.4s-0.7,0.6-0.8,1s-0.3,1.1-0.3,2v4.8H706.3z"/><path d="M727.4,246.4V245c-0.7,1.1-1.7,1.6-3,1.6c-0.6,0-1.1-0.1-1.5-0.3s-0.8-0.5-1.1-0.8c-0.2-0.3-0.4-0.7-0.5-1.2
		c-0.1-0.3-0.1-0.8-0.1-1.5v-5.8h1.6v5.2c0,0.8,0,1.4,0.1,1.7c0.1,0.4,0.3,0.7,0.6,1c0.3,0.2,0.7,0.4,1.2,0.4s0.9-0.1,1.3-0.4
		c0.4-0.2,0.7-0.6,0.9-1c0.2-0.4,0.3-1,0.3-1.8v-5h1.6v9.3H727.4z"/><path d="M737.4,246.4v-1.2c-0.6,0.9-1.5,1.4-2.6,1.4c-0.7,0-1.4-0.2-2.1-0.6s-1.1-1-1.5-1.7c-0.3-0.7-0.5-1.6-0.5-2.5
		c0-0.9,0.2-1.8,0.5-2.5c0.3-0.8,0.8-1.3,1.4-1.7s1.3-0.6,2.1-0.6c0.6,0,1.1,0.1,1.5,0.4c0.4,0.2,0.8,0.5,1.1,0.9v-4.6h1.6v12.9
		H737.4z M732.4,241.7c0,1.2,0.3,2.1,0.8,2.7s1.1,0.9,1.8,0.9c0.7,0,1.3-0.3,1.8-0.8c0.5-0.6,0.7-1.4,0.7-2.6c0-1.3-0.2-2.2-0.7-2.8
		s-1.1-0.9-1.8-0.9c-0.7,0-1.3,0.3-1.8,0.9S732.4,240.5,732.4,241.7z"/><path d="M747.4,245.3c-0.6,0.5-1.1,0.8-1.7,1.1s-1.1,0.3-1.7,0.3c-1,0-1.8-0.3-2.4-0.8c-0.6-0.5-0.8-1.1-0.8-1.9
		c0-0.5,0.1-0.9,0.3-1.3c0.2-0.4,0.5-0.7,0.8-0.9s0.7-0.4,1.1-0.5c0.3-0.1,0.8-0.2,1.4-0.2c1.3-0.2,2.2-0.3,2.8-0.5
		c0-0.2,0-0.4,0-0.4c0-0.6-0.1-1.1-0.4-1.4c-0.4-0.4-1-0.5-1.8-0.5c-0.7,0-1.3,0.1-1.6,0.4c-0.4,0.3-0.6,0.7-0.8,1.4l-1.5-0.2
		c0.1-0.7,0.4-1.2,0.7-1.6c0.3-0.4,0.8-0.7,1.4-0.9c0.6-0.2,1.3-0.3,2.1-0.3c0.8,0,1.4,0.1,1.9,0.3s0.9,0.4,1.1,0.7
		c0.2,0.3,0.4,0.6,0.5,1.1c0.1,0.3,0.1,0.8,0.1,1.5v2.1c0,1.5,0,2.4,0.1,2.8c0.1,0.4,0.2,0.8,0.4,1.1h-1.7
		C747.6,246.1,747.4,245.7,747.4,245.3z M747.3,241.7c-0.6,0.2-1.4,0.4-2.6,0.6c-0.7,0.1-1.1,0.2-1.4,0.3s-0.5,0.3-0.6,0.5
		c-0.1,0.2-0.2,0.5-0.2,0.8c0,0.4,0.2,0.8,0.5,1.1s0.8,0.4,1.4,0.4c0.6,0,1.2-0.1,1.6-0.4c0.5-0.3,0.8-0.6,1-1.1
		c0.2-0.4,0.3-0.9,0.3-1.6V241.7z"/><path d="M750.7,243.6l1.6-0.2c0.1,0.6,0.3,1.1,0.7,1.4s1,0.5,1.7,0.5c0.7,0,1.3-0.1,1.6-0.4c0.4-0.3,0.5-0.6,0.5-1
		c0-0.4-0.2-0.6-0.5-0.8c-0.2-0.1-0.8-0.3-1.6-0.5c-1.2-0.3-2-0.5-2.4-0.8c-0.4-0.2-0.8-0.5-1-0.9c-0.2-0.4-0.3-0.8-0.3-1.3
		c0-0.4,0.1-0.8,0.3-1.2c0.2-0.4,0.4-0.6,0.8-0.9c0.2-0.2,0.6-0.3,1-0.5c0.4-0.1,0.9-0.2,1.4-0.2c0.7,0,1.4,0.1,1.9,0.3
		s1,0.5,1.2,0.9c0.3,0.4,0.4,0.8,0.5,1.4l-1.5,0.2c-0.1-0.5-0.3-0.9-0.6-1.1s-0.8-0.4-1.4-0.4c-0.7,0-1.2,0.1-1.6,0.4
		s-0.5,0.5-0.5,0.8c0,0.2,0.1,0.4,0.2,0.6c0.1,0.2,0.3,0.3,0.6,0.4c0.2,0.1,0.6,0.2,1.4,0.4c1.1,0.3,1.9,0.5,2.3,0.7
		c0.4,0.2,0.8,0.5,1,0.8s0.4,0.8,0.4,1.4c0,0.5-0.2,1-0.5,1.5c-0.3,0.5-0.8,0.8-1.3,1.1c-0.6,0.3-1.2,0.4-2,0.4
		c-1.2,0-2.1-0.3-2.8-0.8S750.9,244.6,750.7,243.6z"/></g><line fill="none" stroke="#2E2E38" stroke-width="0.5" stroke-miterlimit="8" x1="19.4" y1="114.5" x2="775.4" y2="114.5"/></svg>