<?xml version="1.0" encoding="utf-8"?><!--Generator: Adobe Illustrator 25.4.0, SVG Export Plug-In . SVG Version: 6.00 Build 0)--><svg version="1.1" id="Capa_1" xmlns="http://www.w3.org/2000/svg" xmlns:xlink="http://www.w3.org/1999/xlink" x="0px" y="0px" viewBox="0 0 844 235.4" enable-background="new 0 0 844 235.4" xml:space="preserve"><rect x="158.5" y="4.8" fill="#3D1088" width="150" height="72"/><g><path fill="#FFFFFF" d="M214.7,46.3l-4.4-11.4h-0.1c0.1,0.9,0.1,2,0.1,3.2v8.2h-1.4V33.4h2.2l4.1,10.6h0.1l4.1-10.6h2.2v12.8h-1.5
		V38c0-0.9,0-2,0.1-3.1h-0.1l-4.4,11.4H214.7z"/><path fill="#FFFFFF" d="M230.6,46.3l-0.3-1.4h-0.1c-0.5,0.6-1,1-1.4,1.2s-1.1,0.3-1.8,0.3c-1,0-1.7-0.2-2.2-0.7s-0.8-1.2-0.8-2.1
		c0-1.9,1.6-3,4.7-3.1l1.6-0.1v-0.6c0-0.8-0.2-1.3-0.5-1.7s-0.8-0.5-1.6-0.5c-0.8,0-1.7,0.2-2.7,0.7l-0.4-1.1c0.5-0.3,1-0.5,1.6-0.6
		s1.1-0.2,1.7-0.2c1.1,0,2,0.3,2.6,0.8s0.8,1.3,0.8,2.5v6.6H230.6z M227.3,45.2c0.9,0,1.6-0.2,2.1-0.7s0.8-1.2,0.8-2.1v-0.9
		l-1.5,0.1c-1.2,0-2,0.2-2.5,0.5s-0.8,0.8-0.8,1.5c0,0.5,0.2,0.9,0.5,1.2S226.8,45.2,227.3,45.2z"/><path fill="#FFFFFF" d="M237.4,45.2c0.3,0,0.5,0,0.7-0.1s0.4-0.1,0.6-0.1v1.1c-0.2,0.1-0.4,0.1-0.7,0.2s-0.6,0.1-0.8,0.1
		c-1.9,0-2.8-1-2.8-2.9v-5.7h-1.4v-0.7l1.4-0.6l0.6-2.1h0.8v2.2h2.8v1.1h-2.8v5.7c0,0.6,0.1,1,0.4,1.3S237,45.2,237.4,45.2z"/><path fill="#FFFFFF" d="M244.7,36.5c0.4,0,0.8,0,1.2,0.1l-0.2,1.4c-0.4-0.1-0.8-0.1-1.1-0.1c-0.8,0-1.4,0.3-2,0.9s-0.8,1.4-0.8,2.4
		v5.2h-1.5v-9.6h1.2l0.2,1.8h0.1c0.4-0.6,0.8-1.1,1.3-1.5S244.1,36.5,244.7,36.5z"/><path fill="#FFFFFF" d="M247.2,34c0-0.3,0.1-0.6,0.2-0.7s0.4-0.2,0.6-0.2c0.2,0,0.4,0.1,0.6,0.2s0.3,0.4,0.3,0.7s-0.1,0.6-0.3,0.7
		S248.3,35,248,35c-0.2,0-0.5-0.1-0.6-0.2S247.2,34.4,247.2,34z M248.7,46.3h-1.5v-9.6h1.5V46.3z"/><path fill="#FFFFFF" d="M257.6,46.3h-7v-1l5.3-7.5H251v-1.1h6.5v1.1l-5.2,7.4h5.3V46.3z"/></g><rect x="153.5" y="164.8" fill="#3D1088" width="160" height="60"/><g><path fill="#FFFFFF" d="M217.9,201.3h-1.5v-12.8h7.2v1.3h-5.7v4.7h5.3v1.3h-5.3V201.3z"/><path fill="#FFFFFF" d="M225.1,189c0-0.3,0.1-0.6,0.2-0.7c0.2-0.2,0.4-0.2,0.6-0.2c0.2,0,0.4,0.1,0.6,0.2s0.3,0.4,0.3,0.7
		s-0.1,0.6-0.3,0.7c-0.2,0.2-0.4,0.2-0.6,0.2c-0.2,0-0.5-0.1-0.6-0.2C225.2,189.6,225.1,189.4,225.1,189z M226.7,201.3h-1.5v-9.6
		h1.5V201.3z"/><path fill="#FFFFFF" d="M231,201.3h-1.5v-13.7h1.5V201.3z"/><path fill="#FFFFFF" d="M233.7,189c0-0.3,0.1-0.6,0.2-0.7c0.2-0.2,0.4-0.2,0.6-0.2c0.2,0,0.4,0.1,0.6,0.2s0.3,0.4,0.3,0.7
		s-0.1,0.6-0.3,0.7c-0.2,0.2-0.4,0.2-0.6,0.2c-0.2,0-0.5-0.1-0.6-0.2C233.8,189.6,233.7,189.4,233.7,189z M235.3,201.3h-1.5v-9.6
		h1.5V201.3z"/><path fill="#FFFFFF" d="M244,201.3l-0.3-1.4h-0.1c-0.5,0.6-1,1-1.4,1.2c-0.5,0.2-1.1,0.3-1.8,0.3c-1,0-1.7-0.2-2.2-0.7
		s-0.8-1.2-0.8-2.1c0-1.9,1.6-3,4.7-3.1l1.6-0.1v-0.6c0-0.8-0.2-1.3-0.5-1.7c-0.3-0.4-0.8-0.5-1.6-0.5c-0.8,0-1.7,0.2-2.7,0.7
		l-0.4-1.1c0.5-0.3,1-0.5,1.6-0.6s1.1-0.2,1.7-0.2c1.1,0,2,0.3,2.6,0.8s0.8,1.3,0.8,2.5v6.6H244z M240.7,200.2
		c0.9,0,1.6-0.2,2.1-0.7s0.8-1.2,0.8-2.1v-0.9l-1.5,0.1c-1.2,0-2,0.2-2.5,0.5c-0.5,0.3-0.8,0.8-0.8,1.5c0,0.5,0.2,0.9,0.5,1.2
		S240.1,200.2,240.7,200.2z"/><path fill="#FFFFFF" d="M249.3,201.3h-1.5v-13.7h1.5V201.3z"/></g><ellipse fill-rule="evenodd" clip-rule="evenodd" fill="#27ABA9" cx="566.5" cy="40.8" rx="72" ry="36"/><g><path fill="#FFFFFF" d="M540.2,22.3h3.6c1.7,0,2.9,0.3,3.7,0.8s1.1,1.3,1.1,2.4c0,0.8-0.2,1.4-0.6,1.9s-1,0.8-1.9,1v0.1
		c2,0.3,2.9,1.4,2.9,3.1c0,1.1-0.4,2-1.2,2.7s-1.9,1-3.3,1h-4.5V22.3z M541.7,27.8h2.5c1.1,0,1.8-0.2,2.3-0.5s0.7-0.9,0.7-1.7
		c0-0.7-0.3-1.2-0.8-1.6s-1.3-0.5-2.5-0.5h-2.2V27.8z M541.7,29.1v4.8h2.7c1,0,1.8-0.2,2.3-0.6s0.8-1,0.8-1.9c0-0.8-0.3-1.4-0.8-1.8
		s-1.4-0.6-2.4-0.6H541.7z"/><path fill="#FFFFFF" d="M557.6,35.2l-0.3-1.4h-0.1c-0.5,0.6-1,1-1.4,1.2s-1.1,0.3-1.8,0.3c-1,0-1.7-0.2-2.2-0.7s-0.8-1.2-0.8-2.1
		c0-1.9,1.6-3,4.7-3.1l1.6-0.1v-0.6c0-0.8-0.2-1.3-0.5-1.7s-0.8-0.5-1.6-0.5c-0.8,0-1.7,0.2-2.7,0.7l-0.4-1.1c0.5-0.3,1-0.5,1.6-0.6
		s1.1-0.2,1.7-0.2c1.1,0,2,0.3,2.6,0.8s0.8,1.3,0.8,2.5v6.6H557.6z M554.3,34.1c0.9,0,1.6-0.2,2.1-0.7s0.8-1.2,0.8-2.1v-0.9
		l-1.5,0.1c-1.2,0-2,0.2-2.5,0.5s-0.8,0.8-0.8,1.5c0,0.5,0.2,0.9,0.5,1.2S553.7,34.1,554.3,34.1z"/><path fill="#FFFFFF" d="M568.3,35.2v-6.2c0-0.8-0.2-1.4-0.5-1.8s-0.9-0.6-1.7-0.6c-1,0-1.7,0.3-2.2,0.8s-0.7,1.4-0.7,2.7v5.1h-1.5
		v-9.6h1.2l0.2,1.3h0.1c0.3-0.5,0.7-0.8,1.3-1.1s1.1-0.4,1.8-0.4c1.2,0,2,0.3,2.6,0.8s0.9,1.5,0.9,2.7v6.3H568.3z"/><path fill="#FFFFFF" d="M576.7,35.3c-1.4,0-2.5-0.4-3.2-1.3s-1.1-2.1-1.1-3.6c0-1.6,0.4-2.9,1.2-3.7s1.9-1.3,3.3-1.3
		c0.5,0,0.9,0,1.4,0.1s0.8,0.2,1.1,0.4l-0.4,1.2c-0.3-0.1-0.7-0.2-1.1-0.3s-0.7-0.1-1-0.1c-2,0-2.9,1.2-2.9,3.7
		c0,1.2,0.2,2.1,0.7,2.7s1.2,0.9,2.1,0.9c0.8,0,1.6-0.2,2.5-0.5v1.3C578.5,35.2,577.6,35.3,576.7,35.3z"/><path fill="#FFFFFF" d="M589.7,30.3c0,1.6-0.4,2.8-1.2,3.7s-1.9,1.3-3.3,1.3c-0.9,0-1.6-0.2-2.3-0.6s-1.2-1-1.5-1.7
		s-0.5-1.6-0.5-2.7c0-1.6,0.4-2.8,1.2-3.7s1.9-1.3,3.3-1.3c1.3,0,2.4,0.4,3.2,1.3S589.7,28.8,589.7,30.3z M582.4,30.3
		c0,1.2,0.2,2.2,0.7,2.8s1.2,1,2.2,1s1.7-0.3,2.2-1s0.7-1.6,0.7-2.8c0-1.2-0.2-2.2-0.7-2.8s-1.2-1-2.2-1c-1,0-1.7,0.3-2.2,0.9
		S582.4,29.1,582.4,30.3z"/><path fill="#FFFFFF" d="M528.8,56.9c-1.4,0-2.5-0.4-3.4-1.3s-1.2-2.1-1.2-3.6c0-1.6,0.4-2.8,1.1-3.7s1.8-1.4,3.1-1.4
		c1.2,0,2.2,0.4,2.9,1.2s1.1,1.8,1.1,3.1v0.9h-6.6c0,1.1,0.3,2,0.9,2.6s1.3,0.9,2.3,0.9c1,0,2.1-0.2,3.1-0.7v1.3
		c-0.5,0.2-1,0.4-1.5,0.5S529.5,56.9,528.8,56.9z M528.4,48.2c-0.8,0-1.4,0.3-1.8,0.8s-0.7,1.2-0.8,2.1h5c0-0.9-0.2-1.6-0.6-2.1
		S529.2,48.2,528.4,48.2z"/><path fill="#FFFFFF" d="M537.2,51.8l-3.3-4.7h1.7l2.5,3.7l2.5-3.7h1.6l-3.3,4.7l3.5,4.9h-1.7l-2.7-3.9l-2.7,3.9h-1.7L537.2,51.8z"/><path fill="#FFFFFF" d="M547.5,55.7c0.3,0,0.5,0,0.7-0.1s0.4-0.1,0.6-0.1v1.1c-0.2,0.1-0.4,0.1-0.7,0.2s-0.6,0.1-0.8,0.1
		c-1.9,0-2.8-1-2.8-2.9v-5.7h-1.4v-0.7l1.4-0.6l0.6-2.1h0.8v2.2h2.8v1.1h-2.8v5.7c0,0.6,0.1,1,0.4,1.3S547,55.7,547.5,55.7z"/><path fill="#FFFFFF" d="M555.1,46.9c0.4,0,0.8,0,1.2,0.1l-0.2,1.4c-0.4-0.1-0.8-0.1-1.1-0.1c-0.8,0-1.4,0.3-2,0.9s-0.8,1.4-0.8,2.4
		v5.2h-1.5v-9.6h1.2l0.2,1.8h0.1c0.4-0.6,0.8-1.1,1.3-1.5S554.5,46.9,555.1,46.9z"/><path fill="#FFFFFF" d="M564.1,56.8l-0.3-1.4h-0.1c-0.5,0.6-1,1-1.4,1.2s-1.1,0.3-1.8,0.3c-1,0-1.7-0.2-2.2-0.7s-0.8-1.2-0.8-2.1
		c0-1.9,1.6-3,4.7-3.1l1.6-0.1v-0.6c0-0.8-0.2-1.3-0.5-1.7s-0.8-0.5-1.6-0.5c-0.8,0-1.7,0.2-2.7,0.7l-0.4-1.1c0.5-0.3,1-0.5,1.6-0.6
		s1.1-0.2,1.7-0.2c1.1,0,2,0.3,2.6,0.8s0.8,1.3,0.8,2.5v6.6H564.1z M560.8,55.7c0.9,0,1.6-0.2,2.1-0.7s0.8-1.2,0.8-2.1V52l-1.5,0.1
		c-1.2,0-2,0.2-2.5,0.5s-0.8,0.8-0.8,1.5c0,0.5,0.2,0.9,0.5,1.2S560.2,55.7,560.8,55.7z"/><path fill="#FFFFFF" d="M574.8,56.8v-6.2c0-0.8-0.2-1.4-0.5-1.8s-0.9-0.6-1.7-0.6c-1,0-1.7,0.3-2.2,0.8s-0.7,1.4-0.7,2.7v5.1h-1.5
		v-9.6h1.2l0.2,1.3h0.1c0.3-0.5,0.7-0.8,1.3-1.1s1.1-0.4,1.8-0.4c1.2,0,2,0.3,2.6,0.8s0.9,1.5,0.9,2.7v6.3H574.8z"/><path fill="#FFFFFF" d="M578.1,61.1c-0.6,0-1-0.1-1.4-0.2v-1.2c0.4,0.1,0.8,0.2,1.2,0.2c0.5,0,0.8-0.1,1-0.4s0.3-0.6,0.3-1.1V47.1
		h1.5v11.1C580.7,60.1,579.8,61.1,578.1,61.1z M579.1,44.5c0-0.3,0.1-0.6,0.2-0.7s0.4-0.2,0.6-0.2c0.2,0,0.4,0.1,0.6,0.2
		s0.3,0.4,0.3,0.7s-0.1,0.6-0.3,0.7s-0.4,0.2-0.6,0.2c-0.2,0-0.5-0.1-0.6-0.2S579.1,44.8,579.1,44.5z"/><path fill="#FFFFFF" d="M587.9,56.9c-1.4,0-2.5-0.4-3.4-1.3s-1.2-2.1-1.2-3.6c0-1.6,0.4-2.8,1.1-3.7s1.8-1.4,3.1-1.4
		c1.2,0,2.2,0.4,2.9,1.2s1.1,1.8,1.1,3.1v0.9h-6.6c0,1.1,0.3,2,0.9,2.6s1.3,0.9,2.3,0.9c1,0,2.1-0.2,3.1-0.7v1.3
		c-0.5,0.2-1,0.4-1.5,0.5S588.6,56.9,587.9,56.9z M587.5,48.2c-0.8,0-1.4,0.3-1.8,0.8s-0.7,1.2-0.8,2.1h5c0-0.9-0.2-1.6-0.6-2.1
		S588.3,48.2,587.5,48.2z"/><path fill="#FFFFFF" d="M598.4,46.9c0.4,0,0.8,0,1.2,0.1l-0.2,1.4c-0.4-0.1-0.8-0.1-1.1-0.1c-0.8,0-1.4,0.3-2,0.9s-0.8,1.4-0.8,2.4
		v5.2H594v-9.6h1.2l0.2,1.8h0.1c0.4-0.6,0.8-1.1,1.3-1.5S597.8,46.9,598.4,46.9z"/><path fill="#FFFFFF" d="M609.7,51.9c0,1.6-0.4,2.8-1.2,3.7s-1.9,1.3-3.3,1.3c-0.9,0-1.6-0.2-2.3-0.6s-1.2-1-1.5-1.7
		s-0.5-1.6-0.5-2.7c0-1.6,0.4-2.8,1.2-3.7s1.9-1.3,3.3-1.3c1.3,0,2.4,0.4,3.2,1.3S609.7,50.4,609.7,51.9z M602.3,51.9
		c0,1.2,0.2,2.2,0.7,2.8s1.2,1,2.2,1s1.7-0.3,2.2-1s0.7-1.6,0.7-2.8c0-1.2-0.2-2.2-0.7-2.8s-1.2-1-2.2-1c-1,0-1.7,0.3-2.2,0.9
		S602.3,50.7,602.3,51.9z"/></g><ellipse fill-rule="evenodd" clip-rule="evenodd" fill="#188BE4" cx="566.5" cy="194.8" rx="57" ry="38"/><line fill="#747480" stroke="#747480" stroke-width="0.5" stroke-miterlimit="8" x1="0.5" y1="116.8" x2="842.6" y2="116.8"/><path fill="#747480" stroke="#747480" stroke-miterlimit="10" d="M236.5,150.4l-3,6l-3-6L236.5,150.4z M233.8,94.8l0,56.7h-0.5
	l0-56.7H233.8z"/><path fill="#747480" stroke="#747480" stroke-miterlimit="10" d="M569.5,142.8l-3,6l-3-6H569.5z M566.8,88.8l0,55h-0.5l0-55H566.8z"/><path fill="#747480" stroke="#747480" stroke-miterlimit="10" d="M350.5,199.8l-6,3l6,3V199.8z M494.5,202.5l-145,0v0.5l145,0V202.5
	z"/><path fill="#747480" stroke="#747480" stroke-miterlimit="10" d="M341.9,173l-3.4,5.8l6.7-0.8L341.9,173z M494.4,76.6l-151.8,99.3
	l0.3,0.4L494.6,77L494.4,76.6z"/><path fill="#747480" stroke="#747480" stroke-miterlimit="10" d="M476.5,37.8l6,3l-6,3V37.8z M308.5,40.5l169,0V41l-169,0V40.5z"/><g><path fill="#FFFFFF" d="M525.2,187.4h3.6c1.7,0,2.9,0.3,3.7,0.8s1.1,1.3,1.1,2.4c0,0.8-0.2,1.4-0.6,1.9c-0.4,0.5-1,0.8-1.9,1v0.1
		c2,0.3,2.9,1.4,2.9,3.1c0,1.1-0.4,2-1.2,2.7s-1.9,1-3.3,1h-4.5V187.4z M526.7,192.9h2.5c1.1,0,1.8-0.2,2.3-0.5
		c0.5-0.3,0.7-0.9,0.7-1.7c0-0.7-0.3-1.2-0.8-1.6c-0.5-0.3-1.3-0.5-2.5-0.5h-2.2V192.9z M526.7,194.2v4.8h2.7c1,0,1.8-0.2,2.3-0.6
		c0.5-0.4,0.8-1,0.8-1.9c0-0.8-0.3-1.4-0.8-1.8s-1.4-0.6-2.4-0.6H526.7z"/><path fill="#FFFFFF" d="M542.6,200.2l-0.3-1.4h-0.1c-0.5,0.6-1,1-1.4,1.2c-0.5,0.2-1.1,0.3-1.8,0.3c-1,0-1.7-0.2-2.2-0.7
		s-0.8-1.2-0.8-2.1c0-1.9,1.6-3,4.7-3.1l1.6-0.1v-0.6c0-0.8-0.2-1.3-0.5-1.7c-0.3-0.4-0.8-0.5-1.6-0.5c-0.8,0-1.7,0.2-2.7,0.7
		l-0.4-1.1c0.5-0.3,1-0.5,1.6-0.6s1.1-0.2,1.7-0.2c1.1,0,2,0.3,2.6,0.8s0.8,1.3,0.8,2.5v6.6H542.6z M539.3,199.2
		c0.9,0,1.6-0.2,2.1-0.7s0.8-1.2,0.8-2.1v-0.9l-1.5,0.1c-1.2,0-2,0.2-2.5,0.5c-0.5,0.3-0.8,0.8-0.8,1.5c0,0.5,0.2,0.9,0.5,1.2
		S538.7,199.2,539.3,199.2z"/><path fill="#FFFFFF" d="M553.3,200.2V194c0-0.8-0.2-1.4-0.5-1.8s-0.9-0.6-1.7-0.6c-1,0-1.7,0.3-2.2,0.8s-0.7,1.4-0.7,2.7v5.1h-1.5
		v-9.6h1.2l0.2,1.3h0.1c0.3-0.5,0.7-0.8,1.3-1.1c0.5-0.3,1.1-0.4,1.8-0.4c1.2,0,2,0.3,2.6,0.8c0.6,0.6,0.9,1.5,0.9,2.7v6.3H553.3z"/><path fill="#FFFFFF" d="M561.6,200.4c-1.4,0-2.5-0.4-3.2-1.3c-0.8-0.9-1.1-2.1-1.1-3.6c0-1.6,0.4-2.9,1.2-3.7s1.9-1.3,3.3-1.3
		c0.5,0,0.9,0,1.4,0.1s0.8,0.2,1.1,0.4l-0.4,1.2c-0.3-0.1-0.7-0.2-1.1-0.3c-0.4-0.1-0.7-0.1-1-0.1c-2,0-2.9,1.2-2.9,3.7
		c0,1.2,0.2,2.1,0.7,2.7s1.2,0.9,2.1,0.9c0.8,0,1.6-0.2,2.5-0.5v1.3C563.4,200.2,562.6,200.4,561.6,200.4z"/><path fill="#FFFFFF" d="M574.7,195.4c0,1.6-0.4,2.8-1.2,3.7c-0.8,0.9-1.9,1.3-3.3,1.3c-0.9,0-1.6-0.2-2.3-0.6s-1.2-1-1.5-1.7
		s-0.5-1.6-0.5-2.7c0-1.6,0.4-2.8,1.2-3.7c0.8-0.9,1.9-1.3,3.3-1.3c1.3,0,2.4,0.4,3.2,1.3S574.7,193.9,574.7,195.4z M567.4,195.4
		c0,1.2,0.2,2.2,0.7,2.8s1.2,1,2.2,1s1.7-0.3,2.2-1c0.5-0.6,0.7-1.6,0.7-2.8c0-1.2-0.2-2.2-0.7-2.8c-0.5-0.6-1.2-1-2.2-1
		c-1,0-1.7,0.3-2.2,0.9S567.4,194.2,567.4,195.4z"/><path fill="#FFFFFF" d="M583.5,200.2H582v-13.7h1.5V200.2z"/><path fill="#FFFFFF" d="M594.9,195.4c0,1.6-0.4,2.8-1.2,3.7c-0.8,0.9-1.9,1.3-3.3,1.3c-0.9,0-1.6-0.2-2.3-0.6s-1.2-1-1.5-1.7
		s-0.5-1.6-0.5-2.7c0-1.6,0.4-2.8,1.2-3.7c0.8-0.9,1.9-1.3,3.3-1.3c1.3,0,2.4,0.4,3.2,1.3S594.9,193.9,594.9,195.4z M587.6,195.4
		c0,1.2,0.2,2.2,0.7,2.8s1.2,1,2.2,1s1.7-0.3,2.2-1c0.5-0.6,0.7-1.6,0.7-2.8c0-1.2-0.2-2.2-0.7-2.8c-0.5-0.6-1.2-1-2.2-1
		c-1,0-1.7,0.3-2.2,0.9S587.6,194.2,587.6,195.4z"/><path fill="#FFFFFF" d="M601.3,200.4c-1.4,0-2.5-0.4-3.2-1.3c-0.8-0.9-1.1-2.1-1.1-3.6c0-1.6,0.4-2.9,1.2-3.7s1.9-1.3,3.3-1.3
		c0.5,0,0.9,0,1.4,0.1s0.8,0.2,1.1,0.4l-0.4,1.2c-0.3-0.1-0.7-0.2-1.1-0.3c-0.4-0.1-0.7-0.1-1-0.1c-2,0-2.9,1.2-2.9,3.7
		c0,1.2,0.2,2.1,0.7,2.7s1.2,0.9,2.1,0.9c0.8,0,1.6-0.2,2.5-0.5v1.3C603.1,200.2,602.3,200.4,601.3,200.4z"/><path fill="#FFFFFF" d="M612,200.2l-0.3-1.4h-0.1c-0.5,0.6-1,1-1.4,1.2c-0.5,0.2-1.1,0.3-1.8,0.3c-1,0-1.7-0.2-2.2-0.7
		s-0.8-1.2-0.8-2.1c0-1.9,1.6-3,4.7-3.1l1.6-0.1v-0.6c0-0.8-0.2-1.3-0.5-1.7c-0.3-0.4-0.8-0.5-1.6-0.5c-0.8,0-1.7,0.2-2.7,0.7
		l-0.4-1.1c0.5-0.3,1-0.5,1.6-0.6s1.1-0.2,1.7-0.2c1.1,0,2,0.3,2.6,0.8s0.8,1.3,0.8,2.5v6.6H612z M608.7,199.2
		c0.9,0,1.6-0.2,2.1-0.7s0.8-1.2,0.8-2.1v-0.9l-1.5,0.1c-1.2,0-2,0.2-2.5,0.5c-0.5,0.3-0.8,0.8-0.8,1.5c0,0.5,0.2,0.9,0.5,1.2
		S608.2,199.2,608.7,199.2z"/><path fill="#FFFFFF" d="M617.6,200.2h-1.5v-13.7h1.5V200.2z"/></g></svg>