<?xml version="1.0" encoding="utf-8"?><!--Generator: Adobe Illustrator 25.4.0, SVG Export Plug-In . SVG Version: 6.00 Build 0)--><svg version="1.1" id="Capa_1" xmlns="http://www.w3.org/2000/svg" xmlns:xlink="http://www.w3.org/1999/xlink" x="0px" y="0px" viewBox="0 0 596 308" enable-background="new 0 0 596 308" xml:space="preserve"><line fill="none" stroke="#3D1088" stroke-miterlimit="8" x1="437.1" y1="185.5" x2="437.1" y2="220"/><polyline fill="none" stroke="#3D1088" stroke-miterlimit="8" points="328.5,75.5 328.5,99 437.3,99 437.3,110 "/><polyline fill="none" stroke="#3D1088" stroke-miterlimit="8" points="219.5,185.5 219.5,209 292,209 292,220 "/><polyline fill="none" stroke="#3D1088" stroke-miterlimit="8" points="219,185.5 219,209 146.5,209 146.5,220 "/><polyline fill="none" stroke="#3D1088" stroke-miterlimit="8" points="328.3,75.5 328.3,99 219.5,99 219.5,110 "/><path fill-rule="evenodd" clip-rule="evenodd" fill="none" stroke="#3D1088" stroke-miterlimit="8" d="M268.5,8
	c0-4.1,3.4-7.5,7.5-7.5h104c4.1,0,7.5,3.4,7.5,7.5v60c0,4.1-3.4,7.5-7.5,7.5H276c-4.1,0-7.5-3.4-7.5-7.5V8z"/><path fill="#3D1088" stroke="#3D1088" stroke-miterlimit="8" d="M268.5,8c0-4.1,3.4-7.5,7.5-7.5h104c4.1,0,7.5,3.4,7.5,7.5v60
	c0,4.1-3.4,7.5-7.5,7.5H276c-4.1,0-7.5-3.4-7.5-7.5V8z"/><path fill-rule="evenodd" clip-rule="evenodd" fill="none" stroke="#3D1088" stroke-miterlimit="8" d="M160.5,118
	c0-4.1,3.4-7.5,7.5-7.5h103c4.1,0,7.5,3.4,7.5,7.5v60c0,4.1-3.4,7.5-7.5,7.5H168c-4.1,0-7.5-3.4-7.5-7.5V118z"/><path fill="none" stroke="#3D1088" stroke-miterlimit="8" d="M160.5,118c0-4.1,3.4-7.5,7.5-7.5h103c4.1,0,7.5,3.4,7.5,7.5v60
	c0,4.1-3.4,7.5-7.5,7.5H168c-4.1,0-7.5-3.4-7.5-7.5V118z"/><path fill-rule="evenodd" clip-rule="evenodd" fill="none" stroke="#3D1088" stroke-miterlimit="8" d="M87.5,227.1
	c0-4.2,3.4-7.6,7.6-7.6h103.8c4.2,0,7.6,3.4,7.6,7.6v60.8c0,4.2-3.4,7.6-7.6,7.6H95.1c-4.2,0-7.6-3.4-7.6-7.6V227.1z"/><path fill="none" stroke="#3D1088" stroke-miterlimit="8" d="M87.5,227.1c0-4.2,3.4-7.6,7.6-7.6h103.8c4.2,0,7.6,3.4,7.6,7.6v60.8
	c0,4.2-3.4,7.6-7.6,7.6H95.1c-4.2,0-7.6-3.4-7.6-7.6V227.1z"/><path fill-rule="evenodd" clip-rule="evenodd" fill="none" stroke="#3D1088" stroke-miterlimit="8" d="M232.5,227.1
	c0-4.2,3.4-7.6,7.6-7.6h103.8c4.2,0,7.6,3.4,7.6,7.6v60.8c0,4.2-3.4,7.6-7.6,7.6H240.1c-4.2,0-7.6-3.4-7.6-7.6V227.1z"/><path fill="none" stroke="#3D1088" stroke-miterlimit="8" d="M232.5,227.1c0-4.2,3.4-7.6,7.6-7.6h103.8c4.2,0,7.6,3.4,7.6,7.6v60.8
	c0,4.2-3.4,7.6-7.6,7.6H240.1c-4.2,0-7.6-3.4-7.6-7.6V227.1z"/><path fill-rule="evenodd" clip-rule="evenodd" fill="none" stroke="#3D1088" stroke-miterlimit="8" d="M377.5,118
	c0-4.1,3.4-7.5,7.5-7.5h104c4.1,0,7.5,3.4,7.5,7.5v60c0,4.1-3.4,7.5-7.5,7.5H385c-4.1,0-7.5-3.4-7.5-7.5V118z"/><path fill="none" stroke="#3D1088" stroke-miterlimit="8" d="M377.5,118c0-4.1,3.4-7.5,7.5-7.5h104c4.1,0,7.5,3.4,7.5,7.5v60
	c0,4.1-3.4,7.5-7.5,7.5H385c-4.1,0-7.5-3.4-7.5-7.5V118z"/><path fill-rule="evenodd" clip-rule="evenodd" fill="none" stroke="#3D1088" stroke-miterlimit="8" d="M377.5,227.1
	c0-4.2,3.4-7.6,7.6-7.6h103.8c4.2,0,7.6,3.4,7.6,7.6v60.8c0,4.2-3.4,7.6-7.6,7.6H385.1c-4.2,0-7.6-3.4-7.6-7.6V227.1z"/><path fill="none" stroke="#3D1088" stroke-miterlimit="8" d="M377.5,227.1c0-4.2,3.4-7.6,7.6-7.6h103.8c4.2,0,7.6,3.4,7.6,7.6v60.8
	c0,4.2-3.4,7.6-7.6,7.6H385.1c-4.2,0-7.6-3.4-7.6-7.6V227.1z"/><g><rect x="282.8" y="21.3" fill="none" width="91.4" height="30.5"/><path fill="#FBFAFC" d="M302.1,46L296,30.2h-0.1c0.1,1.3,0.2,2.7,0.2,4.5V46h-1.9V28.1h3.1l5.7,14.7h0.1l5.7-14.7h3.1V46h-2.1V34.5
		c0-1.3,0.1-2.8,0.2-4.3h-0.1L303.7,46H302.1z"/><path fill="#FBFAFC" d="M324.7,46l-0.4-1.9h-0.1c-0.7,0.8-1.3,1.4-2,1.7c-0.7,0.3-1.5,0.4-2.5,0.4c-1.3,0-2.4-0.3-3.1-1
		s-1.1-1.7-1.1-2.9c0-2.7,2.2-4.1,6.5-4.2l2.3-0.1v-0.8c0-1-0.2-1.8-0.7-2.3c-0.5-0.5-1.2-0.8-2.2-0.8c-1.1,0-2.4,0.3-3.8,1
		l-0.6-1.6c0.7-0.4,1.4-0.6,2.2-0.8c0.8-0.2,1.6-0.3,2.4-0.3c1.6,0,2.8,0.4,3.5,1.1c0.8,0.7,1.2,1.8,1.2,3.4V46H324.7z M320.1,44.6
		c1.3,0,2.3-0.3,3-1c0.7-0.7,1.1-1.7,1.1-2.9v-1.2l-2,0.1c-1.6,0.1-2.8,0.3-3.5,0.8c-0.7,0.4-1.1,1.1-1.1,2.1c0,0.7,0.2,1.3,0.7,1.7
		C318.7,44.4,319.3,44.6,320.1,44.6z"/><path fill="#FBFAFC" d="M334.7,44.6c0.4,0,0.7,0,1-0.1c0.3-0.1,0.6-0.1,0.8-0.2v1.6c-0.2,0.1-0.5,0.2-1,0.3
		c-0.4,0.1-0.8,0.1-1.2,0.1c-2.6,0-3.9-1.4-3.9-4.1v-8h-1.9v-1l1.9-0.8l0.9-2.9h1.2v3.1h3.9v1.6h-3.9v7.9c0,0.8,0.2,1.4,0.6,1.9
		C333.5,44.3,334,44.6,334.7,44.6z"/><path fill="#FBFAFC" d="M345.3,32.4c0.6,0,1.1,0,1.6,0.1l-0.3,1.9c-0.6-0.1-1-0.2-1.5-0.2c-1.1,0-2,0.4-2.8,1.3
		c-0.8,0.9-1.2,2-1.2,3.3V46h-2V32.6h1.7l0.2,2.5h0.1c0.5-0.9,1.1-1.5,1.8-2C343.7,32.6,344.4,32.4,345.3,32.4z"/><path fill="#FBFAFC" d="M349.2,29c0-0.5,0.1-0.8,0.3-1c0.2-0.2,0.5-0.3,0.9-0.3c0.3,0,0.6,0.1,0.8,0.3c0.2,0.2,0.4,0.6,0.4,1
		c0,0.5-0.1,0.8-0.4,1c-0.2,0.2-0.5,0.3-0.8,0.3c-0.3,0-0.6-0.1-0.9-0.3C349.3,29.8,349.2,29.4,349.2,29z M351.4,46h-2V32.6h2V46z"/><path fill="#FBFAFC" d="M364.3,46h-9.7v-1.4l7.3-10.4H355v-1.6h9.1v1.6l-7.2,10.2h7.4V46z"/></g><g><rect x="174" y="137.1" fill="none" width="88.3" height="34.9"/><path fill="#3D1088" d="M196.7,156.1h-2.1v-17.8h9.9v1.8h-7.9v6.5h7.4v1.8h-7.4V156.1z"/><path fill="#3D1088" d="M207,139.1c0-0.5,0.1-0.8,0.3-1c0.2-0.2,0.5-0.3,0.9-0.3c0.3,0,0.6,0.1,0.8,0.3c0.2,0.2,0.4,0.6,0.4,1
		c0,0.5-0.1,0.8-0.4,1c-0.2,0.2-0.5,0.3-0.8,0.3c-0.3,0-0.6-0.1-0.9-0.3C207.1,139.9,207,139.6,207,139.1z M209.2,156.1h-2v-13.4h2
		V156.1z"/><path fill="#3D1088" d="M215.5,156.1h-2v-19h2V156.1z"/><path fill="#3D1088" d="M219.6,139.1c0-0.5,0.1-0.8,0.3-1c0.2-0.2,0.5-0.3,0.9-0.3c0.3,0,0.6,0.1,0.8,0.3c0.2,0.2,0.4,0.6,0.4,1
		c0,0.5-0.1,0.8-0.4,1c-0.2,0.2-0.5,0.3-0.8,0.3c-0.3,0-0.6-0.1-0.9-0.3C219.8,139.9,219.6,139.6,219.6,139.1z M221.8,156.1h-2
		v-13.4h2V156.1z"/><path fill="#3D1088" d="M234.4,156.1l-0.4-1.9h-0.1c-0.7,0.8-1.3,1.4-2,1.7c-0.7,0.3-1.5,0.4-2.5,0.4c-1.3,0-2.4-0.3-3.1-1
		c-0.8-0.7-1.1-1.7-1.1-2.9c0-2.7,2.2-4.1,6.5-4.2l2.3-0.1v-0.8c0-1-0.2-1.8-0.7-2.3c-0.5-0.5-1.2-0.8-2.2-0.8c-1.1,0-2.4,0.3-3.8,1
		l-0.6-1.6c0.7-0.4,1.4-0.6,2.2-0.8c0.8-0.2,1.6-0.3,2.4-0.3c1.6,0,2.8,0.4,3.5,1.1c0.8,0.7,1.2,1.8,1.2,3.4v9.1H234.4z
		 M229.8,154.7c1.3,0,2.3-0.3,3-1c0.7-0.7,1.1-1.7,1.1-2.9v-1.2l-2,0.1c-1.6,0.1-2.8,0.3-3.5,0.8c-0.7,0.4-1.1,1.1-1.1,2.1
		c0,0.7,0.2,1.3,0.7,1.7C228.4,154.5,229,154.7,229.8,154.7z"/><path fill="#3D1088" d="M242.1,156.1h-2v-19h2V156.1z"/></g><g><rect x="393.4" y="138.6" fill="none" width="88.3" height="34.9"/><path fill="#3D1088" d="M416.1,157.6H414v-17.8h9.9v1.8h-7.9v6.5h7.4v1.8h-7.4V157.6z"/><path fill="#3D1088" d="M426.4,140.6c0-0.5,0.1-0.8,0.3-1c0.2-0.2,0.5-0.3,0.9-0.3c0.3,0,0.6,0.1,0.8,0.3c0.2,0.2,0.4,0.6,0.4,1
		c0,0.5-0.1,0.8-0.4,1c-0.2,0.2-0.5,0.3-0.8,0.3c-0.3,0-0.6-0.1-0.9-0.3C426.5,141.4,426.4,141,426.4,140.6z M428.6,157.6h-2v-13.4
		h2V157.6z"/><path fill="#3D1088" d="M434.9,157.6h-2v-19h2V157.6z"/><path fill="#3D1088" d="M439.1,140.6c0-0.5,0.1-0.8,0.3-1c0.2-0.2,0.5-0.3,0.9-0.3c0.3,0,0.6,0.1,0.8,0.3c0.2,0.2,0.4,0.6,0.4,1
		c0,0.5-0.1,0.8-0.4,1c-0.2,0.2-0.5,0.3-0.8,0.3c-0.3,0-0.6-0.1-0.9-0.3C439.2,141.4,439.1,141,439.1,140.6z M441.3,157.6h-2v-13.4
		h2V157.6z"/><path fill="#3D1088" d="M453.8,157.6l-0.4-1.9h-0.1c-0.7,0.8-1.3,1.4-2,1.7c-0.7,0.3-1.5,0.4-2.5,0.4c-1.3,0-2.4-0.3-3.1-1
		c-0.8-0.7-1.1-1.7-1.1-2.9c0-2.7,2.2-4.1,6.5-4.2l2.3-0.1v-0.8c0-1-0.2-1.8-0.7-2.3c-0.5-0.5-1.2-0.8-2.2-0.8c-1.1,0-2.4,0.3-3.8,1
		l-0.6-1.6c0.7-0.4,1.4-0.6,2.2-0.8c0.8-0.2,1.6-0.3,2.4-0.3c1.6,0,2.8,0.4,3.5,1.1c0.8,0.7,1.2,1.8,1.2,3.4v9.1H453.8z
		 M449.2,156.1c1.3,0,2.3-0.3,3-1c0.7-0.7,1.1-1.7,1.1-2.9V151l-2,0.1c-1.6,0.1-2.8,0.3-3.5,0.8c-0.7,0.4-1.1,1.1-1.1,2.1
		c0,0.7,0.2,1.3,0.7,1.7C447.8,155.9,448.4,156.1,449.2,156.1z"/><path fill="#3D1088" d="M461.5,157.6h-2v-19h2V157.6z"/></g><g><rect x="391.3" y="248.3" fill="none" width="88.3" height="34.9"/><path fill="#3D1088" d="M413.9,267.3h-2.1v-17.8h9.9v1.8h-7.9v6.5h7.4v1.8h-7.4V267.3z"/><path fill="#3D1088" d="M424.3,250.3c0-0.5,0.1-0.8,0.3-1c0.2-0.2,0.5-0.3,0.9-0.3c0.3,0,0.6,0.1,0.8,0.3s0.4,0.6,0.4,1
		c0,0.5-0.1,0.8-0.4,1s-0.5,0.3-0.8,0.3c-0.3,0-0.6-0.1-0.9-0.3C424.4,251.1,424.3,250.7,424.3,250.3z M426.5,267.3h-2v-13.4h2
		V267.3z"/><path fill="#3D1088" d="M432.8,267.3h-2v-19h2V267.3z"/><path fill="#3D1088" d="M436.9,250.3c0-0.5,0.1-0.8,0.3-1c0.2-0.2,0.5-0.3,0.9-0.3c0.3,0,0.6,0.1,0.8,0.3s0.4,0.6,0.4,1
		c0,0.5-0.1,0.8-0.4,1s-0.5,0.3-0.8,0.3c-0.3,0-0.6-0.1-0.9-0.3C437,251.1,436.9,250.7,436.9,250.3z M439.1,267.3h-2v-13.4h2V267.3z
		"/><path fill="#3D1088" d="M451.7,267.3l-0.4-1.9h-0.1c-0.7,0.8-1.3,1.4-2,1.7c-0.7,0.3-1.5,0.4-2.5,0.4c-1.3,0-2.4-0.3-3.1-1
		s-1.1-1.7-1.1-2.9c0-2.7,2.2-4.1,6.5-4.2l2.3-0.1v-0.8c0-1-0.2-1.8-0.7-2.3c-0.5-0.5-1.2-0.8-2.2-0.8c-1.1,0-2.4,0.3-3.8,1
		l-0.6-1.5c0.7-0.4,1.4-0.6,2.2-0.8c0.8-0.2,1.6-0.3,2.4-0.3c1.6,0,2.8,0.4,3.5,1.1c0.8,0.7,1.2,1.8,1.2,3.4v9.1H451.7z
		 M447.1,265.8c1.3,0,2.3-0.3,3-1c0.7-0.7,1.1-1.7,1.1-2.9v-1.2l-2,0.1c-1.6,0.1-2.8,0.3-3.5,0.8c-0.7,0.4-1.1,1.1-1.1,2.1
		c0,0.7,0.2,1.3,0.7,1.7S446.3,265.8,447.1,265.8z"/><path fill="#3D1088" d="M459.4,267.3h-2v-19h2V267.3z"/></g><g><rect x="247.7" y="247.9" fill="none" width="88.3" height="34.9"/><path fill="#3D1088" d="M270.3,266.9h-2.1V249h9.9v1.8h-7.9v6.5h7.4v1.8h-7.4V266.9z"/><path fill="#3D1088" d="M280.7,249.9c0-0.5,0.1-0.8,0.3-1c0.2-0.2,0.5-0.3,0.9-0.3c0.3,0,0.6,0.1,0.8,0.3c0.2,0.2,0.4,0.6,0.4,1
		c0,0.5-0.1,0.8-0.4,1c-0.2,0.2-0.5,0.3-0.8,0.3c-0.3,0-0.6-0.1-0.9-0.3C280.8,250.7,280.7,250.3,280.7,249.9z M282.9,266.9h-2
		v-13.4h2V266.9z"/><path fill="#3D1088" d="M289.2,266.9h-2v-19h2V266.9z"/><path fill="#3D1088" d="M293.3,249.9c0-0.5,0.1-0.8,0.3-1c0.2-0.2,0.5-0.3,0.9-0.3c0.3,0,0.6,0.1,0.8,0.3c0.2,0.2,0.4,0.6,0.4,1
		c0,0.5-0.1,0.8-0.4,1c-0.2,0.2-0.5,0.3-0.8,0.3c-0.3,0-0.6-0.1-0.9-0.3C293.4,250.7,293.3,250.3,293.3,249.9z M295.5,266.9h-2
		v-13.4h2V266.9z"/><path fill="#3D1088" d="M308,266.9l-0.4-1.9h-0.1c-0.7,0.8-1.3,1.4-2,1.7c-0.7,0.3-1.5,0.4-2.5,0.4c-1.3,0-2.4-0.3-3.1-1
		s-1.1-1.7-1.1-2.9c0-2.7,2.2-4.1,6.5-4.2l2.3-0.1V258c0-1-0.2-1.8-0.7-2.3c-0.5-0.5-1.2-0.8-2.2-0.8c-1.1,0-2.4,0.3-3.8,1l-0.6-1.5
		c0.7-0.4,1.4-0.6,2.2-0.8c0.8-0.2,1.6-0.3,2.4-0.3c1.6,0,2.8,0.4,3.5,1.1c0.8,0.7,1.2,1.8,1.2,3.4v9.1H308z M303.5,265.4
		c1.3,0,2.3-0.3,3-1c0.7-0.7,1.1-1.7,1.1-2.9v-1.2l-2,0.1c-1.6,0.1-2.8,0.3-3.5,0.8c-0.7,0.4-1.1,1.1-1.1,2.1c0,0.7,0.2,1.3,0.7,1.7
		S302.7,265.4,303.5,265.4z"/><path fill="#3D1088" d="M315.7,266.9h-2v-19h2V266.9z"/></g><g><rect x="103.2" y="248.2" fill="none" width="88.3" height="34.9"/><path fill="#3D1088" d="M125.9,267.2h-2.1v-17.8h9.9v1.8h-7.9v6.5h7.4v1.8h-7.4V267.2z"/><path fill="#3D1088" d="M136.2,250.2c0-0.5,0.1-0.8,0.3-1c0.2-0.2,0.5-0.3,0.9-0.3c0.3,0,0.6,0.1,0.8,0.3c0.2,0.2,0.4,0.6,0.4,1
		s-0.1,0.8-0.4,1c-0.2,0.2-0.5,0.3-0.8,0.3c-0.3,0-0.6-0.1-0.9-0.3C136.3,251,136.2,250.7,136.2,250.2z M138.4,267.2h-2v-13.4h2
		V267.2z"/><path fill="#3D1088" d="M144.7,267.2h-2v-19h2V267.2z"/><path fill="#3D1088" d="M148.9,250.2c0-0.5,0.1-0.8,0.3-1c0.2-0.2,0.5-0.3,0.9-0.3c0.3,0,0.6,0.1,0.8,0.3c0.2,0.2,0.4,0.6,0.4,1
		s-0.1,0.8-0.4,1c-0.2,0.2-0.5,0.3-0.8,0.3c-0.3,0-0.6-0.1-0.9-0.3C149,251,148.9,250.7,148.9,250.2z M151.1,267.2h-2v-13.4h2V267.2
		z"/><path fill="#3D1088" d="M163.6,267.2l-0.4-1.9h-0.1c-0.7,0.8-1.3,1.4-2,1.7c-0.7,0.3-1.5,0.4-2.5,0.4c-1.3,0-2.4-0.3-3.1-1
		c-0.8-0.7-1.1-1.7-1.1-2.9c0-2.7,2.2-4.1,6.5-4.2l2.3-0.1v-0.8c0-1-0.2-1.8-0.7-2.3c-0.5-0.5-1.2-0.8-2.2-0.8c-1.1,0-2.4,0.3-3.8,1
		l-0.6-1.6c0.7-0.4,1.4-0.6,2.2-0.8c0.8-0.2,1.6-0.3,2.4-0.3c1.6,0,2.8,0.4,3.5,1.1c0.8,0.7,1.2,1.8,1.2,3.4v9.1H163.6z M159,265.8
		c1.3,0,2.3-0.3,3-1c0.7-0.7,1.1-1.7,1.1-2.9v-1.2l-2,0.1c-1.6,0.1-2.8,0.3-3.5,0.8c-0.7,0.4-1.1,1.1-1.1,2.1c0,0.7,0.2,1.3,0.7,1.7
		C157.6,265.6,158.2,265.8,159,265.8z"/><path fill="#3D1088" d="M171.3,267.2h-2v-19h2V267.2z"/></g></svg>