<?xml version="1.0" encoding="utf-8"?><!--Generator: Adobe Illustrator 25.4.0, SVG Export Plug-In . SVG Version: 6.00 Build 0)--><svg version="1.1" id="Capa_1" xmlns="http://www.w3.org/2000/svg" xmlns:xlink="http://www.w3.org/1999/xlink" x="0px" y="0px" viewBox="0 0 270 270" enable-background="new 0 0 270 270" xml:space="preserve"><circle fill-rule="evenodd" clip-rule="evenodd" fill="#3D1088" cx="135" cy="135.5" r="37"/><g><path fill="#FFFFFF" d="M132.5,146h-11.1v-20h11.1v2.1h-8.8v6.4h8.3v2.1h-8.3v7.4h8.8V146z"/><path fill="#FFFFFF" d="M149.9,131.8c0,2-0.7,3.6-2.1,4.7s-3.4,1.6-5.9,1.6h-2.4v7.9h-2.3v-20h5.2C147.4,126,149.9,128,149.9,131.8
		z M139.5,136.1h2.1c2.1,0,3.5-0.3,4.5-1c0.9-0.7,1.4-1.7,1.4-3.2c0-1.3-0.4-2.3-1.3-3c-0.9-0.6-2.2-1-4-1h-2.6V136.1z"/></g><line fill="none" stroke="#2E2E38" stroke-miterlimit="8" x1="134.8" y1="98.5" x2="134.8" y2="76.1"/><ellipse fill-rule="evenodd" clip-rule="evenodd" fill="#9C70FC" cx="135" cy="39" rx="37" ry="37.5"/><g><path fill="#FFFFFF" d="M116.7,43l-3.9-10.1h-0.1c0.1,0.8,0.1,1.8,0.1,2.9V43h-1.2V31.6h2l3.6,9.4h0.1l3.6-9.4h2V43h-1.3v-7.4
		c0-0.8,0-1.8,0.1-2.8h-0.1L117.7,43H116.7z"/><path fill="#FFFFFF" d="M131.5,43l-0.3-1.2h-0.1c-0.4,0.5-0.9,0.9-1.3,1.1c-0.4,0.2-1,0.3-1.6,0.3c-0.8,0-1.5-0.2-2-0.7
		c-0.5-0.4-0.7-1.1-0.7-1.9c0-1.7,1.4-2.6,4.1-2.7l1.5,0v-0.5c0-0.7-0.1-1.2-0.4-1.5s-0.8-0.5-1.4-0.5c-0.7,0-1.5,0.2-2.4,0.7
		l-0.4-1c0.4-0.2,0.9-0.4,1.4-0.5c0.5-0.1,1-0.2,1.5-0.2c1,0,1.8,0.2,2.3,0.7s0.7,1.2,0.7,2.2V43H131.5z M128.5,42.1
		c0.8,0,1.4-0.2,1.9-0.7c0.5-0.4,0.7-1.1,0.7-1.9v-0.8l-1.3,0.1c-1,0-1.8,0.2-2.2,0.5c-0.5,0.3-0.7,0.7-0.7,1.3
		c0,0.5,0.1,0.8,0.4,1.1C127.6,42,128,42.1,128.5,42.1z"/><path fill="#FFFFFF" d="M138.2,42.1c0.2,0,0.5,0,0.7-0.1c0.2,0,0.4-0.1,0.5-0.1v1c-0.1,0.1-0.3,0.1-0.6,0.2c-0.3,0-0.5,0.1-0.7,0.1
		c-1.7,0-2.5-0.9-2.5-2.6v-5.1h-1.2v-0.6l1.2-0.5l0.5-1.8h0.8v2h2.5v1h-2.5v5c0,0.5,0.1,0.9,0.4,1.2
		C137.4,41.9,137.7,42.1,138.2,42.1z"/><path fill="#FFFFFF" d="M145.3,34.3c0.4,0,0.7,0,1,0.1l-0.2,1.2c-0.4-0.1-0.7-0.1-0.9-0.1c-0.7,0-1.3,0.3-1.8,0.8s-0.7,1.3-0.7,2.1
		V43h-1.3v-8.6h1.1l0.1,1.6h0.1c0.3-0.6,0.7-1,1.1-1.3C144.3,34.4,144.7,34.3,145.3,34.3z"/><path fill="#FFFFFF" d="M148.1,32.1c0-0.3,0.1-0.5,0.2-0.7c0.1-0.1,0.3-0.2,0.5-0.2c0.2,0,0.4,0.1,0.5,0.2s0.2,0.4,0.2,0.6
		c0,0.3-0.1,0.5-0.2,0.7c-0.2,0.1-0.3,0.2-0.5,0.2c-0.2,0-0.4-0.1-0.5-0.2C148.2,32.6,148.1,32.4,148.1,32.1z M149.5,43h-1.3v-8.6
		h1.3V43z"/><path fill="#FFFFFF" d="M158.1,43h-6.2v-0.9l4.7-6.7h-4.4v-1h5.8v1l-4.6,6.5h4.7V43z"/></g><line fill="none" stroke="#2E2E38" stroke-miterlimit="8" x1="172" y1="135.3" x2="194.4" y2="135.3"/><circle fill-rule="evenodd" clip-rule="evenodd" fill="#9C70FC" cx="232" cy="135.5" r="37"/><g><path fill="#FFFFFF" d="M219.8,140.1h-1.3v-11.4h6.4v1.2h-5v4.2h4.7v1.2h-4.7V140.1z"/><path fill="#FFFFFF" d="M226.1,129.2c0-0.3,0.1-0.5,0.2-0.7c0.1-0.1,0.3-0.2,0.5-0.2c0.2,0,0.4,0.1,0.5,0.2s0.2,0.4,0.2,0.6
		c0,0.3-0.1,0.5-0.2,0.7c-0.2,0.1-0.3,0.2-0.5,0.2c-0.2,0-0.4-0.1-0.5-0.2C226.2,129.8,226.1,129.5,226.1,129.2z M227.5,140.1h-1.3
		v-8.6h1.3V140.1z"/><path fill="#FFFFFF" d="M231.2,140.1h-1.3V128h1.3V140.1z"/><path fill="#FFFFFF" d="M233.5,129.2c0-0.3,0.1-0.5,0.2-0.7c0.1-0.1,0.3-0.2,0.5-0.2c0.2,0,0.4,0.1,0.5,0.2s0.2,0.4,0.2,0.6
		c0,0.3-0.1,0.5-0.2,0.7c-0.2,0.1-0.3,0.2-0.5,0.2c-0.2,0-0.4-0.1-0.5-0.2C233.6,129.8,233.5,129.5,233.5,129.2z M234.9,140.1h-1.3
		v-8.6h1.3V140.1z"/><path fill="#FFFFFF" d="M242.6,140.1l-0.3-1.2h-0.1c-0.4,0.5-0.9,0.9-1.3,1.1c-0.4,0.2-1,0.3-1.6,0.3c-0.8,0-1.5-0.2-2-0.7
		c-0.5-0.4-0.7-1.1-0.7-1.9c0-1.7,1.4-2.6,4.1-2.7l1.5,0v-0.5c0-0.7-0.1-1.2-0.4-1.5s-0.8-0.5-1.4-0.5c-0.7,0-1.5,0.2-2.4,0.7
		l-0.4-1c0.4-0.2,0.9-0.4,1.4-0.5c0.5-0.1,1-0.2,1.5-0.2c1,0,1.8,0.2,2.3,0.7s0.7,1.2,0.7,2.2v5.8H242.6z M239.7,139.2
		c0.8,0,1.4-0.2,1.9-0.7c0.5-0.4,0.7-1.1,0.7-1.9v-0.8L241,136c-1,0-1.8,0.2-2.2,0.5c-0.5,0.3-0.7,0.7-0.7,1.3
		c0,0.5,0.1,0.8,0.4,1.1C238.8,139.1,239.2,139.2,239.7,139.2z"/><path fill="#FFFFFF" d="M247.2,140.1h-1.3V128h1.3V140.1z"/></g><line fill="none" stroke="#2E2E38" stroke-miterlimit="8" x1="135.1" y1="172.5" x2="135.1" y2="194.9"/><circle fill-rule="evenodd" clip-rule="evenodd" fill="#9C70FC" cx="135" cy="232.5" r="37"/><g><path fill="#FFFFFF" d="M133,239.4h-6.4V228h6.4v1.2h-5v3.7h4.7v1.2H128v4.2h5V239.4z"/><path fill="#FFFFFF" d="M143,231.3c0,1.2-0.4,2-1.2,2.7c-0.8,0.6-1.9,0.9-3.4,0.9h-1.3v4.5h-1.3V228h3
		C141.6,228,143,229.1,143,231.3z M137.1,233.8h1.2c1.2,0,2-0.2,2.6-0.6c0.5-0.4,0.8-1,0.8-1.8c0-0.8-0.2-1.3-0.7-1.7
		c-0.5-0.4-1.3-0.6-2.3-0.6h-1.5V233.8z"/></g><line fill="none" stroke="#2E2E38" stroke-miterlimit="8" x1="98" y1="135.7" x2="75.5" y2="135.7"/><circle fill-rule="evenodd" clip-rule="evenodd" fill="#9C70FC" cx="38" cy="135.5" r="37"/><g><path fill="#FFFFFF" d="M25.1,140.1h-1.3v-11.4h6.4v1.2h-5v4.2h4.7v1.2h-4.7V140.1z"/><path fill="#FFFFFF" d="M31.4,129.2c0-0.3,0.1-0.5,0.2-0.7c0.1-0.1,0.3-0.2,0.5-0.2c0.2,0,0.4,0.1,0.5,0.2c0.2,0.1,0.2,0.4,0.2,0.6
		c0,0.3-0.1,0.5-0.2,0.7c-0.2,0.1-0.3,0.2-0.5,0.2c-0.2,0-0.4-0.1-0.5-0.2C31.4,129.8,31.4,129.5,31.4,129.2z M32.8,140.1h-1.3v-8.6
		h1.3V140.1z"/><path fill="#FFFFFF" d="M36.5,140.1h-1.3V128h1.3V140.1z"/><path fill="#FFFFFF" d="M38.8,129.2c0-0.3,0.1-0.5,0.2-0.7c0.1-0.1,0.3-0.2,0.5-0.2c0.2,0,0.4,0.1,0.5,0.2c0.2,0.1,0.2,0.4,0.2,0.6
		c0,0.3-0.1,0.5-0.2,0.7c-0.2,0.1-0.3,0.2-0.5,0.2c-0.2,0-0.4-0.1-0.5-0.2C38.8,129.8,38.8,129.5,38.8,129.2z M40.2,140.1h-1.3v-8.6
		h1.3V140.1z"/><path fill="#FFFFFF" d="M47.9,140.1l-0.3-1.2h-0.1c-0.4,0.5-0.9,0.9-1.3,1.1c-0.4,0.2-1,0.3-1.6,0.3c-0.8,0-1.5-0.2-2-0.7
		c-0.5-0.4-0.7-1.1-0.7-1.9c0-1.7,1.4-2.6,4.1-2.7l1.5,0v-0.5c0-0.7-0.1-1.2-0.4-1.5s-0.8-0.5-1.4-0.5c-0.7,0-1.5,0.2-2.4,0.7
		l-0.4-1c0.4-0.2,0.9-0.4,1.4-0.5c0.5-0.1,1-0.2,1.5-0.2c1,0,1.8,0.2,2.3,0.7s0.7,1.2,0.7,2.2v5.8H47.9z M44.9,139.2
		c0.8,0,1.4-0.2,1.9-0.7s0.7-1.1,0.7-1.9v-0.8l-1.3,0.1c-1,0-1.8,0.2-2.2,0.5c-0.5,0.3-0.7,0.7-0.7,1.3c0,0.5,0.1,0.8,0.4,1.1
		C44,139.1,44.4,139.2,44.9,139.2z"/><path fill="#FFFFFF" d="M52.5,140.1h-1.3V128h1.3V140.1z"/></g></svg>