<?xml version="1.0" encoding="utf-8"?><!--Generator: Adobe Illustrator 25.4.0, SVG Export Plug-In . SVG Version: 6.00 Build 0)--><svg version="1.1" id="Capa_1" xmlns="http://www.w3.org/2000/svg" xmlns:xlink="http://www.w3.org/1999/xlink" x="0px" y="0px" viewBox="0 0 699 271" enable-background="new 0 0 699 271" xml:space="preserve"><polyline fill="none" stroke="#2E2E38" stroke-miterlimit="8" points="195.5,128.3 339.1,128.3 339.1,115.5 "/><polyline fill="none" stroke="#2E2E38" stroke-miterlimit="8" points="205.5,128.5 472.2,128.5 472.2,216.7 492.7,216.7 "/><line fill="none" stroke="#2E2E38" stroke-miterlimit="8" x1="205.5" y1="128.1" x2="492.7" y2="128.1"/><polyline fill="none" stroke="#2E2E38" stroke-miterlimit="8" points="205.5,127.7 472.2,127.7 472.2,39.5 492.7,39.5 "/><rect x="0.5" y="96.5" fill="#3D1088" width="205" height="63"/><rect x="0.5" y="96.5" fill="none" stroke="#FFFFFF" stroke-miterlimit="8" width="205" height="63"/><g><path fill="#FFFFFF" d="M82.4,115.5c0,1.6-0.6,2.8-1.7,3.7c-1.1,0.9-2.7,1.3-4.6,1.3c-2.1,0-3.7-0.3-4.9-0.8v-2
		c0.7,0.3,1.5,0.6,2.4,0.7c0.9,0.2,1.7,0.3,2.6,0.3c1.4,0,2.4-0.3,3.1-0.8c0.7-0.5,1-1.3,1-2.2c0-0.6-0.1-1.1-0.4-1.5
		c-0.2-0.4-0.7-0.8-1.2-1.1c-0.6-0.3-1.5-0.7-2.7-1.1c-1.7-0.6-2.8-1.3-3.6-2.1c-0.7-0.8-1.1-1.9-1.1-3.2c0-1.4,0.5-2.5,1.6-3.3
		c1-0.8,2.4-1.2,4.1-1.2c1.8,0,3.4,0.3,4.9,1l-0.6,1.8c-1.5-0.6-2.9-0.9-4.3-0.9c-1.1,0-2,0.2-2.6,0.7c-0.6,0.5-0.9,1.1-0.9,2
		c0,0.6,0.1,1.1,0.3,1.5c0.2,0.4,0.6,0.8,1.2,1.1c0.5,0.3,1.4,0.7,2.5,1.1c1.9,0.7,3.2,1.4,3.9,2.1C82,113.2,82.4,114.2,82.4,115.5z
		"/><path fill="#FFFFFF" d="M96.9,113.5c0,2.2-0.5,3.9-1.6,5.1c-1.1,1.2-2.6,1.8-4.6,1.8c-1.2,0-2.3-0.3-3.2-0.8s-1.6-1.4-2.1-2.4
		c-0.5-1-0.8-2.3-0.8-3.7c0-2.2,0.5-3.9,1.6-5.1c1.1-1.2,2.6-1.8,4.5-1.8c1.9,0,3.4,0.6,4.5,1.9C96.3,109.7,96.9,111.4,96.9,113.5z
		 M86.7,113.5c0,1.7,0.3,3,1,3.9c0.7,0.9,1.7,1.3,3,1.3c1.3,0,2.3-0.4,3-1.3c0.7-0.9,1-2.2,1-3.9c0-1.7-0.3-3-1-3.9
		c-0.7-0.9-1.7-1.3-3-1.3c-1.3,0-2.3,0.4-3,1.3C87,110.5,86.7,111.8,86.7,113.5z"/><path fill="#FFFFFF" d="M105.4,120.5c-1.9,0-3.4-0.6-4.5-1.8c-1.1-1.2-1.6-2.9-1.6-5.1c0-2.2,0.5-4,1.6-5.2
		c1.1-1.2,2.6-1.8,4.6-1.8c0.6,0,1.3,0.1,1.9,0.2c0.6,0.1,1.1,0.3,1.5,0.5l-0.6,1.7c-0.4-0.2-0.9-0.3-1.5-0.4
		c-0.5-0.1-1-0.2-1.4-0.2c-2.7,0-4.1,1.7-4.1,5.2c0,1.6,0.3,2.9,1,3.8c0.7,0.9,1.6,1.3,2.9,1.3c1.1,0,2.3-0.2,3.4-0.7v1.8
		C107.9,120.2,106.8,120.5,105.4,120.5z"/><path fill="#FFFFFF" d="M111.4,103.2c0-0.5,0.1-0.8,0.3-1c0.2-0.2,0.5-0.3,0.9-0.3c0.3,0,0.6,0.1,0.8,0.3c0.2,0.2,0.4,0.6,0.4,1
		c0,0.5-0.1,0.8-0.4,1c-0.2,0.2-0.5,0.3-0.8,0.3c-0.3,0-0.6-0.1-0.9-0.3C111.5,104,111.4,103.7,111.4,103.2z M113.6,120.2h-2v-13.4
		h2V120.2z"/><path fill="#FFFFFF" d="M129.1,113.5c0,2.2-0.5,3.9-1.6,5.1c-1.1,1.2-2.6,1.8-4.6,1.8c-1.2,0-2.3-0.3-3.2-0.8s-1.6-1.4-2.1-2.4
		c-0.5-1-0.8-2.3-0.8-3.7c0-2.2,0.5-3.9,1.6-5.1c1.1-1.2,2.6-1.8,4.5-1.8c1.9,0,3.4,0.6,4.5,1.9
		C128.5,109.7,129.1,111.4,129.1,113.5z M118.9,113.5c0,1.7,0.3,3,1,3.9c0.7,0.9,1.7,1.3,3,1.3c1.3,0,2.3-0.4,3-1.3
		c0.7-0.9,1-2.2,1-3.9c0-1.7-0.3-3-1-3.9c-0.7-0.9-1.7-1.3-3-1.3c-1.3,0-2.3,0.4-3,1.3C119.2,110.5,118.9,111.8,118.9,113.5z"/><path fill="#FFFFFF" d="M59.9,150.2l-2.2-5.7h-7.2l-2.2,5.7h-2.1l7.1-17.9H55l7,17.9H59.9z M57,142.7l-2.1-5.5
		c-0.3-0.7-0.5-1.6-0.8-2.6c-0.2,0.8-0.4,1.6-0.8,2.6l-2.1,5.5H57z"/><path fill="#FFFFFF" d="M69.2,150.5c-1.9,0-3.4-0.6-4.5-1.8c-1.1-1.2-1.6-2.9-1.6-5.1c0-2.2,0.5-4,1.6-5.2c1.1-1.2,2.6-1.8,4.6-1.8
		c0.6,0,1.3,0.1,1.9,0.2c0.6,0.1,1.1,0.3,1.5,0.5l-0.6,1.7c-0.4-0.2-0.9-0.3-1.5-0.4c-0.5-0.1-1-0.2-1.4-0.2c-2.7,0-4.1,1.7-4.1,5.2
		c0,1.6,0.3,2.9,1,3.8c0.7,0.9,1.6,1.3,2.9,1.3c1.1,0,2.3-0.2,3.4-0.7v1.8C71.7,150.2,70.5,150.5,69.2,150.5z"/><path fill="#FFFFFF" d="M80.7,150.5c-1.9,0-3.4-0.6-4.5-1.8c-1.1-1.2-1.6-2.9-1.6-5.1c0-2.2,0.5-4,1.6-5.2c1.1-1.2,2.6-1.8,4.6-1.8
		c0.6,0,1.3,0.1,1.9,0.2c0.6,0.1,1.1,0.3,1.5,0.5l-0.6,1.7c-0.4-0.2-0.9-0.3-1.5-0.4c-0.5-0.1-1-0.2-1.4-0.2c-2.7,0-4.1,1.7-4.1,5.2
		c0,1.6,0.3,2.9,1,3.8c0.7,0.9,1.6,1.3,2.9,1.3c1.1,0,2.3-0.2,3.4-0.7v1.8C83.2,150.2,82.1,150.5,80.7,150.5z"/><path fill="#FFFFFF" d="M86.7,133.2c0-0.5,0.1-0.8,0.3-1c0.2-0.2,0.5-0.3,0.9-0.3c0.3,0,0.6,0.1,0.8,0.3c0.2,0.2,0.4,0.6,0.4,1
		c0,0.5-0.1,0.8-0.4,1c-0.2,0.2-0.5,0.3-0.8,0.3c-0.3,0-0.6-0.1-0.9-0.3C86.8,134,86.7,133.7,86.7,133.2z M88.9,150.2h-2v-13.4h2
		V150.2z"/><path fill="#FFFFFF" d="M104.4,143.5c0,2.2-0.5,3.9-1.6,5.1s-2.6,1.8-4.6,1.8c-1.2,0-2.3-0.3-3.2-0.8s-1.6-1.4-2.1-2.4
		c-0.5-1-0.8-2.3-0.8-3.7c0-2.2,0.5-3.9,1.6-5.1c1.1-1.2,2.6-1.8,4.5-1.8c1.9,0,3.4,0.6,4.5,1.9
		C103.8,139.7,104.4,141.4,104.4,143.5z M94.2,143.5c0,1.7,0.3,3,1,3.9s1.7,1.3,3,1.3c1.3,0,2.3-0.4,3-1.3c0.7-0.9,1-2.2,1-3.9
		c0-1.7-0.3-3-1-3.9c-0.7-0.9-1.7-1.3-3-1.3c-1.3,0-2.3,0.4-3,1.3C94.5,140.5,94.2,141.8,94.2,143.5z"/><path fill="#FFFFFF" d="M116.7,150.2v-8.7c0-1.1-0.2-1.9-0.7-2.4c-0.5-0.5-1.3-0.8-2.3-0.8c-1.4,0-2.4,0.4-3.1,1.1
		c-0.7,0.8-1,2-1,3.7v7h-2v-13.4h1.6l0.3,1.8h0.1c0.4-0.7,1-1.2,1.7-1.5c0.7-0.4,1.6-0.5,2.5-0.5c1.6,0,2.8,0.4,3.6,1.2
		c0.8,0.8,1.2,2,1.2,3.7v8.7H116.7z"/><path fill="#FFFFFF" d="M122.4,133.2c0-0.5,0.1-0.8,0.3-1c0.2-0.2,0.5-0.3,0.9-0.3c0.3,0,0.6,0.1,0.8,0.3c0.2,0.2,0.4,0.6,0.4,1
		c0,0.5-0.1,0.8-0.4,1c-0.2,0.2-0.5,0.3-0.8,0.3c-0.3,0-0.6-0.1-0.9-0.3C122.5,134,122.4,133.7,122.4,133.2z M124.6,150.2h-2v-13.4
		h2V150.2z"/><path fill="#FFFFFF" d="M137.1,146.6c0,1.2-0.5,2.2-1.4,2.9s-2.2,1-3.9,1c-1.8,0-3.2-0.3-4.2-0.8v-1.9c0.6,0.3,1.3,0.6,2.1,0.8
		c0.7,0.2,1.4,0.3,2.1,0.3c1.1,0,1.9-0.2,2.4-0.5c0.6-0.3,0.9-0.9,0.9-1.5c0-0.5-0.2-1-0.7-1.3c-0.5-0.4-1.3-0.8-2.6-1.3
		c-1.2-0.5-2.1-0.9-2.7-1.2c-0.5-0.3-0.9-0.7-1.2-1.2c-0.3-0.4-0.4-1-0.4-1.6c0-1.1,0.4-2,1.3-2.6c0.9-0.6,2.1-0.9,3.6-0.9
		c1.4,0,2.8,0.3,4.2,0.9l-0.7,1.6c-1.3-0.6-2.6-0.8-3.6-0.8c-1,0-1.7,0.2-2.2,0.5c-0.5,0.3-0.7,0.7-0.7,1.2c0,0.4,0.1,0.7,0.3,0.9
		c0.2,0.3,0.5,0.5,0.9,0.7c0.4,0.2,1.2,0.6,2.3,1c1.6,0.6,2.7,1.2,3.2,1.7C136.8,144.9,137.1,145.7,137.1,146.6z"/><path fill="#FFFFFF" d="M144.4,148.8c0.4,0,0.7,0,1-0.1c0.3-0.1,0.6-0.1,0.8-0.2v1.5c-0.2,0.1-0.5,0.2-1,0.3
		c-0.4,0.1-0.8,0.1-1.2,0.1c-2.6,0-3.9-1.4-3.9-4.1v-8h-1.9v-1l1.9-0.8l0.9-2.9h1.2v3.1h3.9v1.6h-3.9v7.9c0,0.8,0.2,1.4,0.6,1.9
		C143.2,148.6,143.7,148.8,144.4,148.8z"/><path fill="#FFFFFF" d="M156.7,150.2l-0.4-1.9h-0.1c-0.7,0.8-1.3,1.4-2,1.7c-0.7,0.3-1.5,0.4-2.5,0.4c-1.3,0-2.4-0.3-3.1-1
		c-0.8-0.7-1.1-1.7-1.1-2.9c0-2.7,2.2-4.1,6.5-4.2l2.3-0.1v-0.8c0-1-0.2-1.8-0.7-2.3c-0.5-0.5-1.2-0.8-2.2-0.8c-1.1,0-2.4,0.3-3.8,1
		l-0.6-1.6c0.7-0.4,1.4-0.6,2.2-0.8c0.8-0.2,1.6-0.3,2.4-0.3c1.6,0,2.8,0.4,3.5,1.1c0.8,0.7,1.2,1.8,1.2,3.4v9.1H156.7z
		 M152.1,148.8c1.3,0,2.3-0.3,3-1c0.7-0.7,1.1-1.7,1.1-2.9v-1.2l-2,0.1c-1.6,0.1-2.8,0.3-3.5,0.8c-0.7,0.4-1.1,1.1-1.1,2.1
		c0,0.7,0.2,1.3,0.7,1.7C150.7,148.6,151.3,148.8,152.1,148.8z"/></g><g/><rect x="493.5" y="8.5" fill="#3D1088" width="205" height="63"/><rect x="493.5" y="8.5" fill="none" stroke="#FFFFFF" stroke-miterlimit="8" width="205" height="63"/><g><path fill="#FFFFFF" d="M549.2,49.1h-9.9V31.3h9.9v1.8h-7.9v5.7h7.4v1.8h-7.4v6.6h7.9V49.1z"/><path fill="#FFFFFF" d="M569.7,49.1v-8.7c0-1.1-0.2-1.9-0.7-2.4c-0.5-0.5-1.2-0.8-2.1-0.8c-1.3,0-2.2,0.4-2.8,1.1
		c-0.6,0.7-0.9,1.8-0.9,3.3v7.5h-2v-8.7c0-1.1-0.2-1.9-0.7-2.4c-0.5-0.5-1.2-0.8-2.1-0.8c-1.3,0-2.2,0.4-2.8,1.1
		c-0.6,0.8-0.9,2-0.9,3.7v7h-2V35.8h1.6l0.3,1.8h0.1c0.4-0.7,0.9-1.2,1.6-1.5c0.7-0.4,1.5-0.5,2.3-0.5c2.1,0,3.5,0.8,4.1,2.3h0.1
		c0.4-0.7,1-1.3,1.7-1.7c0.8-0.4,1.6-0.6,2.6-0.6c1.5,0,2.6,0.4,3.4,1.2c0.8,0.8,1.1,2,1.1,3.7v8.7H569.7z"/><path fill="#FFFFFF" d="M582,49.4c-0.9,0-1.7-0.2-2.4-0.5c-0.7-0.3-1.3-0.8-1.8-1.5h-0.1c0.1,0.8,0.1,1.5,0.1,2.2v5.5h-2V35.8h1.6
		l0.3,1.8h0.1c0.5-0.7,1.1-1.3,1.8-1.6c0.7-0.3,1.5-0.5,2.4-0.5c1.8,0,3.1,0.6,4.1,1.8c1,1.2,1.4,2.9,1.4,5.1c0,2.2-0.5,3.9-1.5,5.1
		C585.1,48.8,583.7,49.4,582,49.4z M581.7,37.2c-1.4,0-2.4,0.4-3,1.1s-0.9,2-0.9,3.6v0.5c0,1.9,0.3,3.2,0.9,4c0.6,0.8,1.6,1.2,3,1.2
		c1.2,0,2.1-0.5,2.7-1.4c0.7-0.9,1-2.2,1-3.9c0-1.7-0.3-2.9-1-3.8C583.8,37.7,582.9,37.2,581.7,37.2z"/><path fill="#FFFFFF" d="M597,35.5c0.6,0,1.1,0,1.6,0.1l-0.3,1.9c-0.6-0.1-1-0.2-1.5-0.2c-1.1,0-2,0.4-2.8,1.3
		c-0.8,0.9-1.2,2-1.2,3.3v7.2h-2V35.8h1.7l0.2,2.5h0.1c0.5-0.9,1.1-1.5,1.8-2C595.4,35.7,596.2,35.5,597,35.5z"/><path fill="#FFFFFF" d="M606.7,49.4c-2,0-3.5-0.6-4.7-1.8c-1.1-1.2-1.7-2.9-1.7-5c0-2.2,0.5-3.9,1.6-5.1c1.1-1.3,2.5-1.9,4.3-1.9
		c1.7,0,3,0.6,4,1.7c1,1.1,1.5,2.6,1.5,4.4v1.3h-9.2c0,1.6,0.4,2.8,1.2,3.6c0.8,0.8,1.8,1.2,3.2,1.2c1.4,0,2.9-0.3,4.3-0.9v1.8
		c-0.7,0.3-1.4,0.5-2,0.7C608.3,49.3,607.6,49.4,606.7,49.4z M606.1,37.2c-1.1,0-1.9,0.4-2.6,1c-0.6,0.7-1,1.7-1.1,2.9h7
		c0-1.3-0.3-2.3-0.9-2.9C608,37.5,607.2,37.2,606.1,37.2z"/><path fill="#FFFFFF" d="M623.5,45.5c0,1.2-0.5,2.2-1.4,2.9c-0.9,0.7-2.2,1-3.9,1c-1.8,0-3.2-0.3-4.2-0.8v-1.9
		c0.6,0.3,1.3,0.6,2.1,0.8c0.7,0.2,1.4,0.3,2.1,0.3c1.1,0,1.9-0.2,2.4-0.5c0.6-0.3,0.9-0.9,0.9-1.5c0-0.5-0.2-1-0.7-1.3
		c-0.5-0.4-1.3-0.8-2.6-1.3c-1.2-0.5-2.1-0.9-2.7-1.2c-0.5-0.3-0.9-0.7-1.2-1.2c-0.3-0.4-0.4-1-0.4-1.6c0-1.1,0.4-2,1.3-2.6
		c0.9-0.6,2.1-0.9,3.7-0.9c1.4,0,2.8,0.3,4.2,0.9l-0.7,1.6c-1.3-0.6-2.6-0.8-3.6-0.8c-1,0-1.7,0.2-2.2,0.5c-0.5,0.3-0.7,0.7-0.7,1.2
		c0,0.4,0.1,0.7,0.3,0.9c0.2,0.3,0.5,0.5,0.9,0.7c0.4,0.2,1.2,0.6,2.3,1c1.6,0.6,2.7,1.2,3.2,1.7S623.5,44.6,623.5,45.5z"/><path fill="#FFFFFF" d="M634.9,49.1l-0.4-1.9h-0.1c-0.7,0.8-1.3,1.4-2,1.7c-0.7,0.3-1.5,0.4-2.5,0.4c-1.3,0-2.4-0.3-3.1-1
		s-1.1-1.7-1.1-2.9c0-2.7,2.2-4.1,6.5-4.2l2.3-0.1v-0.8c0-1-0.2-1.8-0.7-2.3c-0.5-0.5-1.2-0.8-2.2-0.8c-1.1,0-2.4,0.3-3.8,1
		l-0.6-1.6c0.7-0.4,1.4-0.6,2.2-0.8c0.8-0.2,1.6-0.3,2.4-0.3c1.6,0,2.8,0.4,3.5,1.1c0.8,0.7,1.2,1.8,1.2,3.4v9.1H634.9z M630.3,47.7
		c1.3,0,2.3-0.3,3-1c0.7-0.7,1.1-1.7,1.1-2.9v-1.2l-2,0.1c-1.6,0.1-2.8,0.3-3.5,0.8c-0.7,0.4-1.1,1.1-1.1,2.1c0,0.7,0.2,1.3,0.7,1.7
		C628.9,47.5,629.5,47.7,630.3,47.7z"/><path fill="#FFFFFF" d="M647.1,31.3h5c2.4,0,4.1,0.4,5.1,1.1s1.6,1.8,1.6,3.4c0,1.1-0.3,1.9-0.9,2.6c-0.6,0.7-1.5,1.1-2.6,1.3v0.1
		c2.7,0.5,4.1,1.9,4.1,4.3c0,1.6-0.5,2.8-1.6,3.7c-1.1,0.9-2.6,1.3-4.5,1.3h-6.2V31.3z M649.1,38.9h3.4c1.5,0,2.5-0.2,3.2-0.7
		c0.6-0.5,1-1.2,1-2.3c0-1-0.4-1.7-1.1-2.2c-0.7-0.4-1.9-0.7-3.4-0.7h-3.1V38.9z M649.1,40.7v6.7h3.7c1.4,0,2.5-0.3,3.3-0.8
		c0.7-0.6,1.1-1.4,1.1-2.6c0-1.1-0.4-1.9-1.1-2.4c-0.7-0.5-1.9-0.8-3.4-0.8H649.1z"/></g><rect x="493.5" y="96.5" fill="#3D1088" width="205" height="63"/><rect x="493.5" y="96.5" fill="none" stroke="#FFFFFF" stroke-miterlimit="8" width="205" height="63"/><g><path fill="#FFFFFF" d="M549.4,137.1h-9.9v-17.8h9.9v1.8h-7.9v5.7h7.4v1.8h-7.4v6.6h7.9V137.1z"/><path fill="#FFFFFF" d="M569.9,137.1v-8.7c0-1.1-0.2-1.9-0.7-2.4c-0.5-0.5-1.2-0.8-2.1-0.8c-1.3,0-2.2,0.4-2.8,1.1
		c-0.6,0.7-0.9,1.8-0.9,3.3v7.5h-2v-8.7c0-1.1-0.2-1.9-0.7-2.4c-0.5-0.5-1.2-0.8-2.1-0.8c-1.3,0-2.2,0.4-2.8,1.1
		c-0.6,0.8-0.9,2-0.9,3.7v7h-2v-13.4h1.6l0.3,1.8h0.1c0.4-0.7,0.9-1.2,1.6-1.5c0.7-0.4,1.5-0.5,2.3-0.5c2.1,0,3.5,0.8,4.1,2.3h0.1
		c0.4-0.7,1-1.3,1.7-1.7c0.8-0.4,1.6-0.6,2.6-0.6c1.5,0,2.6,0.4,3.4,1.2c0.8,0.8,1.1,2,1.1,3.7v8.7H569.9z"/><path fill="#FFFFFF" d="M582.2,137.4c-0.9,0-1.7-0.2-2.4-0.5c-0.7-0.3-1.3-0.8-1.8-1.5h-0.1c0.1,0.8,0.1,1.5,0.1,2.2v5.5h-2v-19.4
		h1.6l0.3,1.8h0.1c0.5-0.7,1.1-1.3,1.8-1.6c0.7-0.3,1.5-0.5,2.4-0.5c1.8,0,3.1,0.6,4.1,1.8c1,1.2,1.4,2.9,1.4,5.1
		c0,2.2-0.5,3.9-1.5,5.1C585.3,136.8,584,137.4,582.2,137.4z M581.9,125.2c-1.4,0-2.4,0.4-3,1.1s-0.9,2-0.9,3.6v0.5
		c0,1.9,0.3,3.2,0.9,4c0.6,0.8,1.6,1.2,3,1.2c1.2,0,2.1-0.5,2.7-1.4c0.7-0.9,1-2.2,1-3.9c0-1.7-0.3-2.9-1-3.8
		C584,125.7,583.1,125.2,581.9,125.2z"/><path fill="#FFFFFF" d="M597.3,123.5c0.6,0,1.1,0,1.6,0.1l-0.3,1.9c-0.6-0.1-1-0.2-1.5-0.2c-1.1,0-2,0.4-2.8,1.3
		c-0.8,0.9-1.2,2-1.2,3.3v7.2h-2v-13.4h1.7l0.2,2.5h0.1c0.5-0.9,1.1-1.5,1.8-2C595.7,123.7,596.4,123.5,597.3,123.5z"/><path fill="#FFFFFF" d="M606.9,137.4c-2,0-3.5-0.6-4.7-1.8s-1.7-2.9-1.7-5c0-2.2,0.5-3.9,1.6-5.1c1.1-1.3,2.5-1.9,4.3-1.9
		c1.7,0,3,0.6,4,1.7c1,1.1,1.5,2.6,1.5,4.4v1.3h-9.2c0,1.6,0.4,2.8,1.2,3.6c0.8,0.8,1.8,1.2,3.2,1.2c1.4,0,2.9-0.3,4.3-0.9v1.8
		c-0.7,0.3-1.4,0.5-2,0.7C608.5,137.3,607.8,137.4,606.9,137.4z M606.3,125.2c-1.1,0-1.9,0.4-2.6,1c-0.6,0.7-1,1.7-1.1,2.9h7
		c0-1.3-0.3-2.3-0.9-2.9C608.2,125.5,607.4,125.2,606.3,125.2z"/><path fill="#FFFFFF" d="M623.7,133.5c0,1.2-0.5,2.2-1.4,2.9s-2.2,1-3.9,1c-1.8,0-3.2-0.3-4.2-0.8v-1.9c0.6,0.3,1.3,0.6,2.1,0.8
		c0.7,0.2,1.4,0.3,2.1,0.3c1.1,0,1.9-0.2,2.4-0.5c0.6-0.3,0.9-0.9,0.9-1.5c0-0.5-0.2-1-0.7-1.3c-0.5-0.4-1.3-0.8-2.6-1.3
		c-1.2-0.5-2.1-0.9-2.7-1.2c-0.5-0.3-0.9-0.7-1.2-1.2c-0.3-0.4-0.4-1-0.4-1.6c0-1.1,0.4-2,1.3-2.6c0.9-0.6,2.1-0.9,3.6-0.9
		c1.4,0,2.8,0.3,4.2,0.9l-0.7,1.6c-1.3-0.6-2.6-0.8-3.7-0.8c-1,0-1.7,0.2-2.2,0.5c-0.5,0.3-0.7,0.7-0.7,1.2c0,0.4,0.1,0.7,0.3,0.9
		c0.2,0.3,0.5,0.5,0.9,0.7c0.4,0.2,1.2,0.6,2.3,1c1.6,0.6,2.7,1.2,3.2,1.7C623.4,131.9,623.7,132.6,623.7,133.5z"/><path fill="#FFFFFF" d="M635.1,137.1l-0.4-1.9h-0.1c-0.7,0.8-1.3,1.4-2,1.7c-0.7,0.3-1.5,0.4-2.5,0.4c-1.3,0-2.4-0.3-3.1-1
		c-0.8-0.7-1.1-1.7-1.1-2.9c0-2.7,2.2-4.1,6.5-4.2l2.3-0.1v-0.8c0-1-0.2-1.8-0.7-2.3c-0.5-0.5-1.2-0.8-2.2-0.8c-1.1,0-2.4,0.3-3.8,1
		l-0.6-1.6c0.7-0.4,1.4-0.6,2.2-0.8c0.8-0.2,1.6-0.3,2.4-0.3c1.6,0,2.8,0.4,3.5,1.1c0.8,0.7,1.2,1.8,1.2,3.4v9.1H635.1z
		 M630.5,135.7c1.3,0,2.3-0.3,3-1c0.7-0.7,1.1-1.7,1.1-2.9v-1.2l-2,0.1c-1.6,0.1-2.8,0.3-3.5,0.8c-0.7,0.4-1.1,1.1-1.1,2.1
		c0,0.7,0.2,1.3,0.7,1.7C629.1,135.5,629.7,135.7,630.5,135.7z"/><path fill="#FFFFFF" d="M654.9,120.9c-2,0-3.5,0.7-4.6,2c-1.1,1.3-1.7,3.1-1.7,5.4c0,2.3,0.5,4.1,1.6,5.4c1.1,1.3,2.7,1.9,4.7,1.9
		c1.2,0,2.7-0.2,4.3-0.7v1.8c-1.2,0.5-2.8,0.7-4.6,0.7c-2.6,0-4.7-0.8-6.1-2.4c-1.4-1.6-2.1-3.9-2.1-6.8c0-1.8,0.3-3.5,1-4.8
		c0.7-1.4,1.7-2.4,3-3.2c1.3-0.7,2.8-1.1,4.6-1.1c1.9,0,3.5,0.3,4.9,1l-0.9,1.8C657.6,121.2,656.3,120.9,654.9,120.9z"/></g><rect x="493.5" y="185.5" fill="#3D1088" width="205" height="62"/><rect x="493.5" y="185.5" fill="none" stroke="#FFFFFF" stroke-miterlimit="8" width="205" height="62"/><g><path fill="#FFFFFF" d="M548.2,225.1h-9.9v-17.8h9.9v1.8h-7.9v5.7h7.4v1.8h-7.4v6.6h7.9V225.1z"/><path fill="#FFFFFF" d="M568.7,225.1v-8.7c0-1.1-0.2-1.9-0.7-2.4s-1.2-0.8-2.1-0.8c-1.3,0-2.2,0.4-2.8,1.1
		c-0.6,0.7-0.9,1.8-0.9,3.3v7.5h-2v-8.7c0-1.1-0.2-1.9-0.7-2.4c-0.5-0.5-1.2-0.8-2.1-0.8c-1.3,0-2.2,0.4-2.8,1.1
		c-0.6,0.8-0.9,2-0.9,3.7v7h-2v-13.4h1.6l0.3,1.8h0.1c0.4-0.7,0.9-1.2,1.6-1.5c0.7-0.4,1.5-0.5,2.3-0.5c2.1,0,3.5,0.8,4.1,2.3h0.1
		c0.4-0.7,1-1.3,1.7-1.7c0.8-0.4,1.6-0.6,2.6-0.6c1.5,0,2.6,0.4,3.4,1.2c0.8,0.8,1.1,2,1.1,3.7v8.7H568.7z"/><path fill="#FFFFFF" d="M581,225.4c-0.9,0-1.7-0.2-2.4-0.5c-0.7-0.3-1.3-0.8-1.8-1.5h-0.1c0.1,0.8,0.1,1.5,0.1,2.2v5.5h-2v-19.4
		h1.6l0.3,1.8h0.1c0.5-0.7,1.1-1.3,1.8-1.6s1.5-0.5,2.4-0.5c1.8,0,3.1,0.6,4.1,1.8c1,1.2,1.4,2.9,1.4,5.1c0,2.2-0.5,3.9-1.5,5.1
		S582.7,225.4,581,225.4z M580.7,213.2c-1.4,0-2.4,0.4-3,1.1s-0.9,2-0.9,3.6v0.5c0,1.9,0.3,3.2,0.9,4c0.6,0.8,1.6,1.2,3,1.2
		c1.2,0,2.1-0.5,2.7-1.4s1-2.2,1-3.9c0-1.7-0.3-2.9-1-3.8C582.8,213.7,581.9,213.2,580.7,213.2z"/><path fill="#FFFFFF" d="M596,211.5c0.6,0,1.1,0,1.6,0.1l-0.3,1.9c-0.6-0.1-1-0.2-1.5-0.2c-1.1,0-2,0.4-2.8,1.3
		c-0.8,0.9-1.2,2-1.2,3.3v7.2h-2v-13.4h1.7l0.2,2.5h0.1c0.5-0.9,1.1-1.5,1.8-2C594.4,211.7,595.2,211.5,596,211.5z"/><path fill="#FFFFFF" d="M605.6,225.4c-2,0-3.5-0.6-4.7-1.8c-1.1-1.2-1.7-2.9-1.7-5c0-2.2,0.5-3.9,1.6-5.1c1.1-1.3,2.5-1.9,4.3-1.9
		c1.7,0,3,0.6,4,1.7s1.5,2.6,1.5,4.4v1.3h-9.2c0,1.6,0.4,2.8,1.2,3.6c0.8,0.8,1.8,1.2,3.2,1.2c1.4,0,2.9-0.3,4.3-0.9v1.8
		c-0.7,0.3-1.4,0.5-2,0.7C607.3,225.3,606.5,225.4,605.6,225.4z M605.1,213.2c-1.1,0-1.9,0.4-2.6,1.1c-0.6,0.7-1,1.7-1.1,2.9h7
		c0-1.3-0.3-2.3-0.9-2.9C607,213.5,606.1,213.2,605.1,213.2z"/><path fill="#FFFFFF" d="M622.5,221.5c0,1.2-0.5,2.2-1.4,2.9s-2.2,1-3.9,1c-1.8,0-3.2-0.3-4.2-0.8v-1.9c0.6,0.3,1.3,0.6,2.1,0.8
		c0.7,0.2,1.4,0.3,2.1,0.3c1.1,0,1.9-0.2,2.4-0.5s0.9-0.9,0.9-1.5c0-0.5-0.2-1-0.7-1.3c-0.5-0.4-1.3-0.8-2.6-1.3
		c-1.2-0.5-2.1-0.9-2.7-1.2c-0.5-0.3-0.9-0.7-1.2-1.2c-0.3-0.4-0.4-1-0.4-1.6c0-1.1,0.4-2,1.3-2.6s2.1-0.9,3.7-0.9
		c1.4,0,2.8,0.3,4.2,0.9l-0.7,1.6c-1.3-0.6-2.6-0.8-3.6-0.8c-1,0-1.7,0.2-2.2,0.5c-0.5,0.3-0.7,0.7-0.7,1.2c0,0.4,0.1,0.7,0.3,0.9
		c0.2,0.3,0.5,0.5,0.9,0.7s1.2,0.6,2.3,1c1.6,0.6,2.7,1.2,3.2,1.7S622.5,220.6,622.5,221.5z"/><path fill="#FFFFFF" d="M633.9,225.1l-0.4-1.9h-0.1c-0.7,0.8-1.3,1.4-2,1.7c-0.7,0.3-1.5,0.4-2.5,0.4c-1.3,0-2.4-0.3-3.1-1
		s-1.1-1.7-1.1-2.9c0-2.7,2.2-4.1,6.5-4.2l2.3-0.1v-0.8c0-1-0.2-1.8-0.7-2.3c-0.5-0.5-1.2-0.8-2.2-0.8c-1.1,0-2.4,0.3-3.8,1
		l-0.6-1.5c0.7-0.4,1.4-0.6,2.2-0.8c0.8-0.2,1.6-0.3,2.4-0.3c1.6,0,2.8,0.4,3.5,1.1c0.8,0.7,1.2,1.8,1.2,3.4v9.1H633.9z
		 M629.3,223.7c1.3,0,2.3-0.3,3-1c0.7-0.7,1.1-1.7,1.1-2.9v-1.2l-2,0.1c-1.6,0.1-2.8,0.3-3.5,0.8c-0.7,0.4-1.1,1.1-1.1,2.1
		c0,0.7,0.2,1.3,0.7,1.7C627.9,223.5,628.5,223.7,629.3,223.7z"/><path fill="#FFFFFF" d="M660.3,216c0,2.9-0.8,5.2-2.4,6.8c-1.6,1.6-3.9,2.3-6.9,2.3H646v-17.8h5.5c2.8,0,4.9,0.8,6.5,2.3
		C659.5,211.1,660.3,213.3,660.3,216z M658.1,216.1c0-2.3-0.6-4.1-1.8-5.3s-2.9-1.8-5.2-1.8h-3v14.3h2.5c2.5,0,4.3-0.6,5.6-1.8
		C657.5,220.3,658.1,218.5,658.1,216.1z"/></g><rect x="236.5" y="52.5" fill="#3D1088" width="206" height="63"/><rect x="236.5" y="52.5" fill="none" stroke="#FFFFFF" stroke-miterlimit="8" width="206" height="63"/><g><path fill="#FFFFFF" d="M287.2,91h-9.9V73.2h9.9V75h-7.9v5.7h7.4v1.8h-7.4v6.6h7.9V91z"/><path fill="#FFFFFF" d="M307.7,91v-8.7c0-1.1-0.2-1.9-0.7-2.4c-0.5-0.5-1.2-0.8-2.1-0.8c-1.3,0-2.2,0.4-2.8,1.1
		c-0.6,0.7-0.9,1.8-0.9,3.3V91h-2v-8.7c0-1.1-0.2-1.9-0.7-2.4c-0.5-0.5-1.2-0.8-2.1-0.8c-1.3,0-2.2,0.4-2.8,1.1
		c-0.6,0.8-0.9,2-0.9,3.7v7h-2V77.6h1.6l0.3,1.8h0.1c0.4-0.7,0.9-1.2,1.6-1.5c0.7-0.4,1.5-0.5,2.3-0.5c2.1,0,3.5,0.8,4.1,2.3h0.1
		c0.4-0.7,1-1.3,1.7-1.7c0.8-0.4,1.6-0.6,2.6-0.6c1.5,0,2.6,0.4,3.4,1.2c0.8,0.8,1.1,2,1.1,3.7V91H307.7z"/><path fill="#FFFFFF" d="M320,91.2c-0.9,0-1.7-0.2-2.4-0.5c-0.7-0.3-1.3-0.8-1.8-1.5h-0.1c0.1,0.8,0.1,1.5,0.1,2.2V97h-2V77.6h1.6
		l0.3,1.8h0.1c0.5-0.7,1.1-1.3,1.8-1.6c0.7-0.3,1.5-0.5,2.4-0.5c1.8,0,3.1,0.6,4.1,1.8c1,1.2,1.4,2.9,1.4,5.1c0,2.2-0.5,3.9-1.5,5.1
		C323.1,90.6,321.8,91.2,320,91.2z M319.7,79.1c-1.4,0-2.4,0.4-3,1.1s-0.9,2-0.9,3.6v0.5c0,1.9,0.3,3.2,0.9,4c0.6,0.8,1.6,1.2,3,1.2
		c1.2,0,2.1-0.5,2.7-1.4c0.7-0.9,1-2.2,1-3.9c0-1.7-0.3-2.9-1-3.8C321.8,79.5,320.9,79.1,319.7,79.1z"/><path fill="#FFFFFF" d="M335.1,77.4c0.6,0,1.1,0,1.6,0.1l-0.3,1.9c-0.6-0.1-1-0.2-1.5-0.2c-1.1,0-2,0.4-2.8,1.3
		c-0.8,0.9-1.2,2-1.2,3.3V91h-2V77.6h1.7l0.2,2.5h0.1c0.5-0.9,1.1-1.5,1.8-2C333.5,77.6,334.2,77.4,335.1,77.4z"/><path fill="#FFFFFF" d="M344.7,91.2c-2,0-3.5-0.6-4.7-1.8c-1.1-1.2-1.7-2.9-1.7-5c0-2.2,0.5-3.9,1.6-5.1c1.1-1.3,2.5-1.9,4.3-1.9
		c1.7,0,3,0.6,4,1.7c1,1.1,1.5,2.6,1.5,4.4v1.3h-9.2c0,1.6,0.4,2.8,1.2,3.6c0.8,0.8,1.8,1.2,3.2,1.2c1.4,0,2.9-0.3,4.3-0.9v1.8
		c-0.7,0.3-1.4,0.5-2,0.7C346.3,91.2,345.6,91.2,344.7,91.2z M344.1,79.1c-1.1,0-1.9,0.4-2.6,1c-0.6,0.7-1,1.7-1.1,2.9h7
		c0-1.3-0.3-2.3-0.9-2.9C346,79.4,345.2,79.1,344.1,79.1z"/><path fill="#FFFFFF" d="M361.5,87.4c0,1.2-0.5,2.2-1.4,2.9c-0.9,0.7-2.2,1-3.9,1c-1.8,0-3.2-0.3-4.2-0.8v-1.9
		c0.6,0.3,1.3,0.6,2.1,0.8c0.7,0.2,1.4,0.3,2.1,0.3c1.1,0,1.9-0.2,2.4-0.5c0.6-0.3,0.9-0.9,0.9-1.5c0-0.5-0.2-1-0.7-1.3
		c-0.5-0.4-1.3-0.8-2.6-1.3c-1.2-0.5-2.1-0.9-2.7-1.2c-0.5-0.3-0.9-0.7-1.2-1.2c-0.3-0.4-0.4-1-0.4-1.6c0-1.1,0.4-2,1.3-2.6
		c0.9-0.6,2.1-0.9,3.7-0.9c1.4,0,2.8,0.3,4.2,0.9l-0.7,1.6c-1.3-0.6-2.6-0.8-3.6-0.8c-1,0-1.7,0.2-2.2,0.5c-0.5,0.3-0.7,0.7-0.7,1.2
		c0,0.4,0.1,0.7,0.3,0.9c0.2,0.3,0.5,0.5,0.9,0.7c0.4,0.2,1.2,0.6,2.3,1c1.6,0.6,2.7,1.2,3.2,1.7S361.5,86.5,361.5,87.4z"/><path fill="#FFFFFF" d="M372.9,91l-0.4-1.9h-0.1c-0.7,0.8-1.3,1.4-2,1.7c-0.7,0.3-1.5,0.4-2.5,0.4c-1.3,0-2.4-0.3-3.1-1
		s-1.1-1.7-1.1-2.9c0-2.7,2.2-4.1,6.5-4.2l2.3-0.1v-0.8c0-1-0.2-1.8-0.7-2.3c-0.5-0.5-1.2-0.8-2.2-0.8c-1.1,0-2.4,0.3-3.8,1
		l-0.6-1.6c0.7-0.4,1.4-0.6,2.2-0.8c0.8-0.2,1.6-0.3,2.4-0.3c1.6,0,2.8,0.4,3.5,1.1c0.8,0.7,1.2,1.8,1.2,3.4V91H372.9z M368.3,89.6
		c1.3,0,2.3-0.3,3-1c0.7-0.7,1.1-1.7,1.1-2.9v-1.2l-2,0.1c-1.6,0.1-2.8,0.3-3.5,0.8c-0.7,0.4-1.1,1.1-1.1,2.1c0,0.7,0.2,1.3,0.7,1.7
		C366.9,89.4,367.5,89.6,368.3,89.6z"/><path fill="#FFFFFF" d="M396.3,91l-2.2-5.7h-7.2l-2.2,5.7h-2.1l7.1-17.9h1.7l7,17.9H396.3z M393.4,83.5l-2.1-5.5
		c-0.3-0.7-0.5-1.6-0.8-2.6c-0.2,0.8-0.4,1.6-0.8,2.6l-2.1,5.5H393.4z"/></g><g><g><line fill="none" stroke="#2E2E38" stroke-width="0.5" stroke-miterlimit="8" x1="222.5" y1="0.5" x2="222.5" y2="6.5"/><line fill="none" stroke="#2E2E38" stroke-width="0.5" stroke-miterlimit="8" stroke-dasharray="12.2857,12.2857" x1="222.5" y1="18.8" x2="222.5" y2="258.4"/><line fill="none" stroke="#2E2E38" stroke-width="0.5" stroke-miterlimit="8" x1="222.5" y1="264.5" x2="222.5" y2="270.5"/></g></g><g><g><line fill="none" stroke="#2E2E38" stroke-width="0.5" stroke-miterlimit="8" x1="454.5" y1="0.5" x2="454.5" y2="6.5"/><line fill="none" stroke="#2E2E38" stroke-width="0.5" stroke-miterlimit="8" stroke-dasharray="12.2857,12.2857" x1="454.5" y1="18.8" x2="454.5" y2="258.4"/><line fill="none" stroke="#2E2E38" stroke-width="0.5" stroke-miterlimit="8" x1="454.5" y1="264.5" x2="454.5" y2="270.5"/></g></g></svg>