<?xml version="1.0" encoding="UTF-8"?>
<svg id="Layer_1" data-name="Layer 1" xmlns="http://www.w3.org/2000/svg" xmlns:xlink="http://www.w3.org/1999/xlink" viewBox="0 0 1971.68 1971.68">
  <defs>
    <!-- Avatar Specific Gradients -->
    <linearGradient id="linear-gradient" x1="630.54" y1="286.4" x2="1322.73" y2="286.4" gradientUnits="userSpaceOnUse">
      <stop offset="0" stop-color="#444860"/>
      <stop offset="1" stop-color="#282c3a"/>
    </linearGradient>
    
    <!-- High-tech cyan-tinted glass reflections -->
    <linearGradient id="linear-gradient-2" x1="692.26" y1="831.23" x2="918.85" y2="831.23" gradientUnits="userSpaceOnUse">
      <stop offset="0" stop-color="#A5F2F8" stop-opacity="0.75"/>
      <stop offset="1" stop-color="#5EA6B0" stop-opacity="0.1"/>
    </linearGradient>
    <linearGradient id="linear-gradient-3" x1="1029.04" y1="817.3" x2="1258.26" y2="817.3" gradientUnits="userSpaceOnUse">
      <stop offset="0" stop-color="#A5F2F8" stop-opacity="0.75"/>
      <stop offset="1" stop-color="#5EA6B0" stop-opacity="0.1"/>
    </linearGradient>

    <!-- Rasika Favicon Gradients -->
    <linearGradient id="favicon-tech-gradient" gradientUnits="userSpaceOnUse" x1="1550" y1="-60" x2="1910" y2="300">
        <stop offset="0%" stop-color="#A5F2F8" />
        <stop offset="50%" stop-color="#7CD6E0" />
        <stop offset="100%" stop-color="#5EA6B0" />
    </linearGradient>
    <linearGradient id="dark-bg-gradient" x1="0%" y1="0%" x2="100%" y2="100%">
        <stop offset="0%" stop-color="#1E2226" />
        <stop offset="100%" stop-color="#141619" />
    </linearGradient>

    <!-- Luminous grey for floating documents -->
    <linearGradient id="luminous-grey" x1="0%" y1="0%" x2="100%" y2="100%">
        <stop offset="0%" stop-color="#FFFFFF" />
        <stop offset="100%" stop-color="#B0B2B9" />
    </linearGradient>

    <clipPath id="favicon-clip">
        <rect x="1550" y="-60" width="360" height="360" rx="180" />
    </clipPath>
    
    <!-- CSS Animation for Hover State -->
    <style>
      /* Main bubble scale */
      svg {
        transition: transform 0.4s cubic-bezier(0.175, 0.885, 0.32, 1.275);
      }
      svg:hover {
        transform: scale(1.04);
      }

      /* Head components moving up */
      #Neck, #Face_oval, #Left_ear, #Right_ear, #Nose, #Hair, #Face_outline, #Mouth {
        transition: transform 0.4s cubic-bezier(0.175, 0.885, 0.32, 1.275);
      }
      svg:hover #Neck, 
      svg:hover #Face_oval, 
      svg:hover #Left_ear, 
      svg:hover #Right_ear, 
      svg:hover #Nose, 
      svg:hover #Hair, 
      svg:hover #Face_outline, 
      svg:hover #Mouth {
        transform: translateY(-30px);
      }

      /* Eyebrows raise higher */
      #Left_eyebrow, #Right_eyebrow {
        transition: transform 0.3s cubic-bezier(0.175, 0.885, 0.32, 1.275);
      }
      svg:hover #Left_eyebrow, 
      svg:hover #Right_eyebrow {
        transform: translateY(-55px);
      }

      /* Eyes moving and fading in */
      #Eyes {
        opacity: 0;
        transition: opacity 0.3s ease-in-out, transform 0.4s cubic-bezier(0.175, 0.885, 0.32, 1.275);
      }
      svg:hover #Eyes {
        opacity: 1;
        transform: translateY(-30px);
      }

      /* Reflections moving and fading out */
      #Glasses_reflections {
        opacity: 1;
        transition: opacity 0.3s ease-in-out, transform 0.4s cubic-bezier(0.175, 0.885, 0.32, 1.275);
      }
      svg:hover #Glasses_reflections {
        opacity: 0;
        transform: translateY(-30px);
      }
      
      /* Floating elements extra pop */
      #Floating_elements {
        transition: transform 0.5s cubic-bezier(0.175, 0.885, 0.32, 1.275);
        transform-origin: center;
        transform-box: fill-box;
      }
      svg:hover #Floating_elements {
        transform: scale(1.02) translateY(-10px);
      }
    </style>
  </defs>
  
  <g id="Avatar">
    <!-- UI Aligned Dark Background Base -->
    <circle cx="985.84" cy="985.84" r="971.34" fill="#141619" />

    <g id="Neck">
      <!-- 1. Skin Base Extensions (Drawn furthest back) -->
      <rect x="780" y="1360" width="360" height="150" fill="#fcc6aa"/>
      <rect x="970" y="1360" width="160" height="150" fill="#ee997c"/>
      
      <!-- 2. Original Skin Paths (Drawn over skin extensions) -->
      <path d="M795.68,1206.07c36.63,19.81,77.44,36.75,118.81,43.69,51.36,8.61,111.01,5.3,160.95-9.42,14.98-4.41,32.28-10.82,47.23-15.26.6,23.13-1.58,167.16-.85,190.29.09,2.95-.07,9.51-.07,9.51-11.74,11.71-121.6,35.75-149.4,35.02-5.46-.14-10.76-2.26-16.12-2.94-44.38-5.62-85.17-8.97-128.13-21.87-7.66-2.3-26.14-7.84-32.16-11.83-3.33-2.21-.26-217.18-.26-217.18Z" fill="#fcc6aa"/>
      <path d="M797.58,1330.97c.23-2.56-1.26-114.99,2.8-113.82,7.87,2.26,20.46,11.04,29.24,14.75,69.17,29.24,133.22,38.74,208.15,26.46,29.18-4.78,55.45-15,83.5-23.4l-.11,190.05c-21.33,15.52-130.86,36.29-147.6,35l-.13-12.13c-42.81-19.86-85.63-40.53-124.53-67.32-10.66-7.34-39.3-26.86-46.23-35.69-3.75-4.78-1.63-9.81-5.09-13.89Z" fill="#ee997c"/>

      <!-- 3. Outline Base Extensions (Drawn over the skin layers to prevent bleeding, perfectly flush with paths) -->
      <rect x="771.5" y="1360" width="27" height="150" fill="#1E2226"/>
      <rect x="1120.5" y="1360" width="31" height="150" fill="#1E2226"/>
      
      <!-- 4. Original Outline Paths (Drawn last to blend perfectly with extensions) -->
      <path id="Neck_outline_right" d="M1148.43,1230.76c-9.76,4.13-20.07,6.43-27.54,14.34.24-.09.37,99.86.37,99.86l-.04,69.54-.07,9.51c-.21.09-.42.17-.64.26,10.66-2.67,21.18-6.31,30.39-12.87l-2.48-180.65Z" fill="#1E2226"/>
      <path id="Neck_outline_left" d="M797.26,1246.54c-8.34-6.75-16.9-13.64-27.38-16.07.07.05.14.1.22.15.48,12.95-.05,105.92.12,118.88.19,14.85.47,30.18,1.08,44.92.19,4.49-.2,9.05-.05,13.53-.06,0-.12.01-.18.02,7.89,5.26,16.83,12.9,25.33,16.93.1-.62.86-178.36.86-178.36Z" fill="#1E2226"/>
    </g>

    <g id="Jacket">
      <!-- Lightened Jacket based on body text #E5E7EB to stand out over dark background -->
      <path d="M469.58,1811.62c-8.58-5.16-17-12.15-25.57-17.97-36.02-24.48-71.32-49.38-104.29-77.68-.91-1.08-.45-1.9.04-2.99.78-1.73,9.86-12.04,11.89-13.61,11.28-8.72,32.92-16.08,46.64-21.89,103.68-43.88,208.96-83.93,312.94-127.06,7.53-3.12,44.14-17.44,46.84-22.16.94-1.64,1.08-3.89,1.23-5.77,1.97-23.24-2.34-49.97-.02-73.02.74-7.38,3.29-10.63,11.26-9.29,42.34,20.36,88.8,32.25,135.36,38.65,14.68,2.02,30.32,2.24,44.76,4.24,2.45.34,8.02,1.6,9.11,3.89l-.44,471.57c-2.81,1.95-22.02-.37-26.57-.55-163.17-6.63-324.55-62.94-463.17-146.35Z" fill="#E5E7EB"/>
      <path d="M991.26,1488.46c1.52-5.31,32.08-7.61,38.23-8.77,34.41-6.47,69.44-14.65,101.76-28.24,7.11-2.99,17.13-9.5,23.46-11.55,5.83-1.88,9.86.34,10.58,6.54,2.82,24.24-3.18,54.96.07,78.93.26,1.9,1.3,5.05,2.43,6.57,3.41,4.57,23.87,12.18,30.23,14.77,31.92,13,65.99,24.69,97.25,36.73,40.41,15.57,80.77,31.34,123.17,47.84,51.1,19.89,114.39,38.48,165.79,62.21,11.41,5.27,18.43,12.33,25.1,22.98,0,1.09-9.52,9.54-11.14,10.87-94.5,77.5-200.62,137.43-314.68,178.38-89.69,32.2-184.91,48.88-280.71,54.28-2.08.12-11.54.53-11.54-1.54v-470Z" fill="#D1D5DB"/>
      <!-- Inner Jacket / Outline converted to Deep Surface Grey -->
      <path d="M1622.23,1686.49c-15.27-17.96-45.81-25.77-67.66-34.34-106.46-41.76-214.71-80.51-320.28-121.67-13.99-5.46-27.78-11.48-41.86-16.68-1.69-23.21,1.67-48.39-.13-71.37-1.75-22.26-19.57-35.29-36.66-34.34-4.57.25-24.46,13.52-35.13,16.19-27.96,11.84-57.08,19.81-87.07,25.37-14.03,2.6-43.33,8.33-55.92,8.16-5.47-.07-13.54-1.03-18.9-1.71-44.38-5.62-81.01-11.25-124.73-21.27-8.55-1.96-22.7-4.42-41.85-13.36-8.01-3.74-16.47-13.62-20.97-13.5-19.53,1.6-36.19,11.4-37.84,32.46-1.67,21.36,2.66,47.5.09,68.09-.14,1.1.07,2.23-1.05,2.95-42.81,16.99-85.32,34.74-128.02,51.98-72.98,29.46-146.29,58.65-218.31,89.69-15.89,6.85-41.1,14.16-53.21,25.79-2.08,1.99-14.76,15.38-14.76,15.38l21.3,20.77s10.42-14.2,12.37-15.71c11.28-8.72,32.92-16.08,46.64-21.89,103.68-43.88,208.96-83.93,312.94-127.06,7.53-3.12,44.14-17.44,46.84-22.16.94-1.64,1.08-3.89,1.23-5.77,1.97-23.24-2.34-49.97-.02-73.02.74-7.38,3.29-10.63,11.26-9.29,42.34,20.36,88.8,32.25,135.36,38.65,14.68,2.02,30.32,2.24,44.76,4.24,2.45.34,8.02,1.6,9.11,3.89l-.44,471.8c9.89,3.36,21.01,1.97,31.93.57v-470.87c1.52-5.31,32.08-7.61,38.23-8.77,34.41-6.47,69.44-14.65,101.76-28.24,7.11-2.99,17.13-9.5,23.46-11.55,5.83-1.88,9.86.34,10.58,6.54,2.82,24.24-3.18,54.96.07,78.93.26,1.9,1.3,5.05,2.43,6.57,3.41,4.57,23.87,12.18,30.23,14.77,31.92,13,65.99,24.69,97.25,36.73,40.41,15.57,80.77,31.34,123.17,47.84,51.1,19.89,114.39,38.48,165.79,62.21,11.41,5.27,24.63,23.81,23.92,24.59,1.7-.37,22.76-21.64,22.76-21.64,0,0-3.22-3.53-8.68-9.95Z" fill="#1E2226"/>
    </g>
    <g id="Face_oval">
      <path d="M1367.71,828.67c-.12,289.73-171.35,520.93-395.05,520.54-237.07-.41-390.63-232.95-405.05-520.54-15.04-299.82,68.37-506.61,395.38-509.57,413.01-3.74,404.86,206.35,404.73,509.57Z" fill="#fcc6aa"/>
      <path d="M1039.99,1340.64c-1.08-5.43.37-4.87,3.65-7.29,12.81-9.45,35.58-18.46,50.14-27.83,106.52-68.5,148.36-184.3,153.97-307.58.36-7.98-2.12-14.98-5.77-22.03,27.69-3.12,55.79-12.97,76.29-31.95,2.25,55.46-10.62,109.02-25.1,163.34-33.37,125.19-125.89,209.5-253.18,233.34Z" fill="#ee997c"/>
      <path d="M1333.71,708.26c-26.55-5.88-55.03-12.48-81.92-15.98-7.91-2.53-10.11-12.36-11.99-19.98,10.21,1.58,19.98-211.79,19.98-211.79,11,2.98,44.67,9.79,50.9,18.03,6.28,8.3,10.92,43.23,12.7,55.23,8.5,57.22,10.44,116.66,10.32,174.5Z" fill="#ee997c"/>
    </g>
    <path id="Left_ear" d="M603.26,1041.95c-61.91-6.2-101.14-67.04-113.5-122.99-9.08-41.09-5.8-113.75,37.47-135.55,10.68-5.38,20.08-5.21,31.64-6.41l1.95.9c1.1,8.4,2.06,16.94,3.77,25.23,2.16,10.48,2.73,17.21,12.47,23.53,7.5,71.93,15.04,143.86,26.21,215.28Z" fill="#fcc6aa"/>
    <path id="Right_ear" d="M1404.91,793.31c28.84,27.71,33.06,83.55,27.06,120.86-8.53,53.07-42.93,116.27-99.7,127.79,8.27-40.37,12.05-81.51,16-122.49.7-7.31,2.33-14.7,2.98-22.02,1.8-20.3.73-44.29,4.15-63.85,1.42-8.13,2.44-6.67,5.7-12.3,6.44-11.14,5.3-30.57,6.16-43.34,14.1-.17,27.61,5.7,37.65,15.35Z" fill="#ee997c"/>
    <path id="Nose" d="M962.07,773.2c5.68-.65,16.24-.59,21.98,0,7.37.76,12.09,2.52,15.02,9.96,5.19,13.19,6.48,40.43,9.89,56.05,7.05,32.28,20.67,93.98,43.03,117.81-3.01,1.57-5.61.56-6.14,4.91-2.08,17.27,9.94,57.72-18.75,57.09l-96.98-8.08,33.53-7.35,2.42-2.07,2.01-175.36c.01-1.75-4.08-1.32-4.95-.95-5.11,2.17-21.89,43.24-28.13,49.79-3.01,28.91-24.19,80.71-50.2,95.66-16.2,9.31-24.37,7.23-40.61,8.34,8.16-3.61,17.04-4.02,25.36-7.61,58.47-25.22,63.93-134.57,79.54-188.2,3.02-6.85,5.7-9.16,12.99-9.99Z" fill="#ee997c"/>
    <g id="Hair">
      <path d="M1058,148.27c5.31,2.52,11.04-.32,17.83.6,1.86.25,1.26,1.86,2.12,2.08,1.73.43,8.69-1.15,11.79-1,25.59,1.26,57.67,7.36,83.08,12.91,58.11,12.7,129.03,31.46,145.14,98.89,6.39,26.75,7.62,53.05-4.33,78.09-12.22,25.62-33.28,59.74-52.41,80.59-4.46,4.86-5.21,7.02-12.35,6.41-13.29-1.14-28.23-7.51-42.08-7.92l-508.02.02c-20.36-14.96-35.8-37.81-48.53-59.47-4.64-7.89-18.2-31.33-18.98-39.02-3.13-31.01,3.41-82.06,24.96-106.01,42.31-47.03,148.57-62.99,208.63-66.37,55.83-3.14,119.02-2.69,174.85-.06,3.95.19,15.82-.9,18.28.27Z" fill="url(#linear-gradient)"/>
      <path d="M667.83,420.41c1.21,1.17,3.39,1.91,1.4,3.01-7.01,3.87-16,6.07-23.64,10.37-30.91,17.37-35.89,40.31-45.83,72.17-11.68,37.47-23.15,80.6-27.38,119.62-1.36,12.53-1.07,25.35-2.14,37.86-.12,1.35-.52,7.26-2.47,6.5-2.59-1.01-16.28-12.36-19.04-14.96-22.43-21.12-35.02-51.99-37.52-82.48l.49-198.59c2.15-7.04,17.82-8.37,24.37-9.63,22.55-4.34,45.55-6.59,68.46-8.15,21.81,20.8,41.59,43.38,63.29,64.3Z" fill="#444860"/>
      <path d="M1359.27,659.96c-1.95-15.58-1.08-31.76-2.02-47.49-2.5-41.87-6.79-94.41-17.27-134.73-2.18-8.38-18.88-33.49-19.64-38.39-.54-3.51-3.16-12.26-3.08-18.39,0,0,7.48-21.4,13.89-29.24,8.5-11.13,19.32-20.2,27.16-25.21,11.6-7.42,25.24-4.05,28.45-3.56,6.24.95,20.33,5.46,21.45,12.56l.04,187.93c-1.97,10.42-2.68,21.26-5.48,31.52-6.93,25.43-25.29,46.7-43.5,64.99Z" fill="#282c3a"/>
    </g>
    <path id="Face_outline" d="M916.08,1369.64c51.13,9.87,111.01,5.3,160.95-9.42,14-4.12,71.4-30.11,71.4-30.11,62.99-32.09,118.75-87.94,147.69-152.8,14.97-33.55,25.18-70.41,32.65-106.35,8.14-3.59,17.25-5.07,25.74-8.26,97.63-36.73,140.38-201.92,73.72-281.22-17.31-20.6-29.07-24.38-54.48-28.52-4.77-.78.6-4.94,1.27-8.74.94-5.29,1.5-18.2-.52-23.01-1.14-2.7-5.51-4.58-5.79-7.71-.3-3.38,1.36-8.63,1.54-12.06.22-4.17-.88-13.36.53-16.47,1.38-3.03,14.78-14.62,17.88-18.12,32.82-37.08,41.91-58.71,44.56-108.44,2.86-53.51,3.19-114.32,2.09-168.01-.44-21.57.22-37.3-21.69-47.31-19.14-8.75-43.68-11.32-63.92-17.08-.99-20.13.71-39.31-2.72-59.28-13.86-80.68-77.76-109.39-149.88-127.12-96.9-23.82-198.06-23.39-297.29-20.63-68.1,1.9-129.95,7.28-194.06,31.94-65.15,25.07-97.77,65.34-101.53,136.47-.3,5.73.95,37.67-.4,39.6-1.49,2.11-18.98,2.57-22.93,3.07-14.09,1.77-28.88,3.6-42.81,6.19-21.94,4.08-49.65,7.78-53.73,34.27,2.49,66.17-3.59,135.11-.13,200.96,1.73,32.87,13.97,64.68,35.07,89.93,10.33,12.37,23.1,21.81,35.94,31.25-.13,20.15.03,40.25,1.04,60.27-5.33.38-11.26-.53-16.5,0-12.75,1.29-28.22,8.88-37.97,17.03-10.17,8.5-20.99,23.52-28.38,34.18-.36.52-2.6,9.01-3.64,11.79-19.96,53.5-11.51,110,12.64,160.35,21.26,44.34,65.64,85.98,116.51,91.28,2.84.3,6.97-2.01,10.11.6l12.97,46.53c18.5,55.62,44.81,104.8,86.84,146.18,5.23,5.15,11.44,11.11,16.92,16.02,13.8,12.36,104.05,76.06,190.33,92.72ZM1323.96,829.15c-5.33,25.72-16.6,82.07-34.64,100.36-19.79,20.06-92.81,22.66-121.05,23.45h-9c-2.33.04-4.67,0-7,0-.34,0-.66,0-1,0-2.99,0-6.01.06-9,0h-13c-32.23-1.45-51.14-3.52-67-34-17.72-34.06-29.43-98.99-31.99-137.51-.73-11.03-2.7-33.66.68-43.3,4.02-11.49,28.12-15.12,39.06-16.94,59.64-9.88,128.68-5.31,188.25,3.75,16.07,2.44,32.18,4.74,48.01,8.49,4.47,1.06,29.92,7.38,30.85,10.15-1.78,28.48-7.37,57.56-13.17,85.56ZM1404.91,793.31c28.84,27.71,33.06,83.55,27.06,120.86-8.53,53.07-42.93,116.27-99.7,127.79,8.27-40.37,12.05-81.51,16-122.49.7-7.31,2.33-14.7,2.98-22.02,1.8-20.3.73-44.29,4.15-63.85,1.42-8.13,2.44-6.67,5.7-12.3,6.44-11.14,5.3-30.57,6.16-43.34,14.1-.17,27.61,5.7,37.65,15.35ZM1358.31,366.51c7.76-5.43,25.24-4.05,28.45-3.56,6.24.95,20.33,5.46,21.45,12.56l.04,187.93c-1.97,10.42-2.68,21.26-5.48,31.52-6.93,25.43-25.29,46.7-43.5,64.99-1.95-15.58-1.08-31.76-2.02-47.49-2.5-41.87-6.79-94.41-17.27-134.73-2.18-8.38-18.88-33.49-19.64-38.39-.54-3.51-3.16-12.26-3.08-18.39,0,0,16.65-37.39,41.05-54.45ZM656.24,214.43c42.31-47.03,148.57-62.99,208.63-66.37,55.83-3.14,119.02-2.69,174.85-.06,3.95.19,15.82-.9,18.28.27,5.31,2.52,11.04-.32,17.83.6,1.86.25,1.26,1.86,2.12,2.08,1.73.43,8.69-1.15,11.79-1,25.59,1.26,57.67,7.36,83.08,12.91,58.11,12.7,129.03,31.46,145.14,98.89,6.39,26.75,7.62,53.05-4.33,78.09-12.22,25.62-33.28,59.74-52.41,80.59-4.46,4.86-5.21,7.02-12.35,6.41-13.29-1.14-28.23-7.51-42.08-7.92l-508.02.02c-20.36-14.96-35.8-37.81-48.53-59.47-4.64-7.89-18.2-31.33-18.98-39.02-3.13-31.01,3.41-82.06,24.96-106.01ZM548.74,654.98c-22.43-21.12-35.02-51.99-37.52-82.48l.49-198.59c2.15-7.04,17.82-8.37,24.37-9.63,22.55-4.34,45.55-6.59,68.46-8.15,21.81,20.8,41.59,43.38,63.29,64.3,1.21,1.17,3.39,1.91,1.4,3.01-7.01,3.87-16,6.07-23.64,10.37-30.91,17.37-35.89,40.31-45.83,72.17-11.68,37.47-23.15,80.6-27.38,119.62-1.36,12.53-1.07,25.35-2.14,37.86-.12,1.35-.52,7.26-2.47,6.5-2.59-1.01-16.28-12.36-19.04-14.96ZM489.75,918.97c-9.08-41.09-5.8-113.75,37.47-135.55,10.68-5.38,20.08-5.21,31.64-6.41l1.95.9c1.1,8.4,2.06,16.94,3.77,25.23,2.16,10.48,2.73,17.21,12.47,23.53,7.5,71.93,15.04,143.86,26.21,215.28-61.91-6.2-101.14-67.04-113.5-122.99ZM596.26,706.96c.38-12.14-.48-24.4-.04-36.55,1.83-50.23,13.2-100.31,27.78-148.22,4.17-13.71,12.63-45.53,22.24-54.76,26.32-25.27,65.42-20.17,98.56-20.44,150.95-1.23,302.69.82,453.95-.03,22.39,3.18,44.75,7.41,66.51,13.49,8.63,2.41,36.09,10.27,41.55,15.45,6.66,6.34,9.42,25.64,11.14,34.86,1.59,8.52,2.99,17.24,4.17,25.83,7.76,56.12,9.49,113.69,10.14,170.35-23.53-4.06-46.97-9.51-70.64-12.85-65.1-9.19-151.54-12.42-215.59,1.13-20.18,4.27-39.35,11.61-60.23,12.77-44.82,2.49-83.18-14.89-127.05-19.04-53.62-5.07-116.39-3.03-169.87,3.12-31.07,3.57-61.63,10.9-92.63,14.88ZM608.27,763.45c-.55-5.73-2.53-18.78.96-23.02,3.22-3.91,37.7-10.76,44.85-12.15,32.07-6.26,64.52-9.86,97.19-11.31,0,0,19.74-1,24.5-1h31c2.61,0,16.5,1,16.5,1,18.22.91,85.86,11.02,92.02,18.76,5.25,6.59,2.58,25.72,1.98,34.24-2.95,41.9-18.22,130.25-45.02,162.48-21.82,26.24-80.31,20.82-111.44,19.48-34.36-1.48-95.18-1.35-115.57-33.43-20.04-31.52-33.26-116.59-36.96-155.04ZM627.74,1025.98c-4.78-26.61-11.2-61.85-11.52-88.49-.02-1.48-.81-4.03,1.53-3.53,23.86,36.58,70.78,42.65,111.02,45.98,40.95,3.4,120.26,8.31,154.22-15.76,43.29-30.68,51.23-127.79,64.56-176.44,1.3-4.73,2.33-9.51,7-12,8.97-4.77,39.16-5.81,43.49,6.91,8.67,43.26,15.15,87.37,29.92,129.08,17.76,50.14,38.26,67.49,92.8,70.2,43.63,2.17,133.75,1.08,172.46-17.52,8.79-4.22,20.06-12.25,25.04-20.46,1.67-.27,1.1,2.44,1.03,3.52-3.47,54.23-15.01,123.27-30.77,175.24-58.02,191.27-279.76,274.75-456.94,191.41-125.16-58.87-179.97-155.31-203.85-288.15Z" fill="#1E2226"/>
    <path id="Mouth" d="M1095.01,1072.14c8.52-1.66,11.71,8.34,7.7,14.77-4.33,6.93-29.85,20.23-38.1,23.9-58.99,26.32-134.36,27.72-192.03-2.69-7.47-3.94-29.59-16.04-30.03-24.83-.2-4.08,4.54-10.83,8.97-10.17,17.21,10.66,35.11,20.67,54.74,26.32,63.55,18.28,133.27,8.34,188.75-27.31Z" fill="#1E2226"/>
    <path id="Left_eyebrow" d="M672.9,601.58c21.83-15.97,54.66-13.33,80.9-14.58,44.73-2.13,89.73-2.71,134.72-1.8,7.41,1.49,12.44,8.19,13.48,15.52.71,5.02,1.14,13.43,1.31,18.69.3,9.42,1.05,27.01-4.52,34.57-7.75,10.52-18.36,6.76-29.86,6.35-68.23-2.47-142.34-9.06-207.92,14.88-7.09,2.59-16.36,8.41-22.93,10.06-13.12,3.28-15.47-11.72-11.67-21.66,7.49-19.64,29.71-49.75,46.49-62.02Z" fill="#1E2226"/>
    <path id="Right_eyebrow" d="M1173.83,663.88c-12.36-1.66-32.98-1.63-46.03-1.96-19.01-.49-40.54,1.65-59.08.08-7.29-.62-12.24-3.15-14.69-10.31-3.01-8.82-2.68-42.48-.54-51.99,1.73-7.69,7.19-13.83,15.26-14.74,23.63-2.65,56.68.41,80.96,1.04,24.24.64,48.85.55,73.04,2.96,9.68.97,24.66,2.4,33.21,6.79,14.23,7.3,51.49,59.32,52.24,74.84.2,4.15-3.65,11.96-7.65,13.15-5.18,1.55-22.59-5.02-29.09-6.5-23.75-5.39-48.42-9.26-72.71-11.28-2.57-.21-23.03-1.84-24.93-2.1Z" fill="#1E2226"/>
    
    <g id="Eyes">
      <ellipse cx="780" cy="830" rx="20" ry="34" fill="#1E2226"/>
      <ellipse cx="1165" cy="830" rx="20" ry="34" fill="#1E2226"/>
    </g>

    <g id="Glasses_reflections">
      <path d="M914.4,734.37c7.41,4,3.47,27.07,2.87,35.59l-1.99-6.99c-.12,1.44-.78,2.75-1.57,3.93-13.45,20.16-27.7,40.81-40.4,60.82-22.55,35.54-43.58,72.11-66.04,107.73,0,0-113.34.39-114.56-1.43l-.44-181.07c53.48-1.72,112.43-2.91,184.47.38.53.02,14.6-26.36,14.6-26.36,3.91.94,13.63,2.3,23.06,7.39Z" fill="url(#linear-gradient-2)"/>
      <path d="M1062.26,918.96c-17.72-34.06-29.43-98.99-31.99-137.51-.73-11.03-2.7-33.66.68-43.3,4.02-11.49,28.12-15.12,39.06-16.94,59.64-9.88,128.68-5.31,188.25,3.75v52.97s-73.05.02-73.05.02l.06,102.01-23.4.1.39-73.1h-73.5l-.5,110c-.13,0-1.09,1.08-2.47,1.08" fill="url(#linear-gradient-3)"/>
      <g opacity="0.85">
        <rect x="710.43" y="854.51" width="66.02" height="13.18" rx="6.59" ry="6.59" fill="#E5E7EB"/>
        <rect x="711.5" y="877.84" width="54.1" height="13.18" rx="6.59" ry="6.59" fill="#E5E7EB"/>
        <rect x="711.5" y="829.4" width="97.83" height="13.18" rx="6.59" ry="6.59" fill="#E5E7EB"/>
        <rect x="711.14" y="804.64" width="120.07" height="13.18" rx="6.59" ry="6.59" fill="#E5E7EB"/>
        <rect x="711.14" y="778.64" width="137.13" height="13.18" rx="6.59" ry="6.59" fill="#E5E7EB"/>
      </g>
      <g opacity="0.85">
        <rect x="1185.23" y="777.93" width="75.08" height="140.08" fill="#E5E7EB"/>
        <polygon points="1088.26 916.96 1088.76 806.96 1162.26 806.96 1161.6 917 1088.26 916.96" fill="#E5E7EB"/>
      </g>
    </g>

    <!-- Transformed 1:1 Favicon into the Chest Badge (Now a perfect circle) -->
    <g id="Brand_Logo" transform="translate(1150, 1660) scale(0.42) translate(-1550, 60)">
        <rect x="1550" y="-60" width="360" height="360" rx="180" fill="url(#dark-bg-gradient)" />
        <g clip-path="url(#favicon-clip)">
            <g transform="translate(-510, 25) scale(1.28)">
                <path d="M1733.87 85.2s-6.66 43.31-6 50.64c.57 6.61 3.13 67.49 61.37 97 1.07.55 2.15 1.08 3.26 1.6q5.74 2.7 12.19 5c-.56-.16 16.45-.11 34-.05l37.66-.06-52.78-184.81v-1.47c-27.26-17.24-83.26-6-89.69 32.15" fill="url(#favicon-tech-gradient)"/>
                <path d="M1805.41 14.78c-.61-.45-5-5.74-15.6-6.2l1.89-.68c-.69 0-3-.39-5.66-.41l-4.14.3a22.5 22.5 0 014.14-.3l6-.43c-1.77-.63-4.7-.64-7.26-.47l-5 .54s2.29-.37 5-.54l8.76-.94c-4.81-2.07-16.94 1-17.33.91l16.77-4c-7.69-.3-18.46 3.09-18.46 3.09l18-5.65c-13.59.31-24.81 6.13-30.19 8.37-18.4 7.65-38.69 20.28-42 50.94-.92 8.43-20 1.06-113 61.43 120.51-60.37 127.76-50.78 126.57-35.54 23.76 40.78 94.43 28.11 89.69-32.15-.29-17.13-7.43-30.28-18.18-38.27z" fill="url(#favicon-tech-gradient)"/>
            </g>
        </g>
    </g>

    <!-- UI Holographic Floating Elements (Luminous Grey with Cyan/Dark Accents) -->
    <g id="Floating_elements" data-name="Floating elements">
      <g id="Circle_upper_right" data-name="Circle upper right">
        <path d="M1758.91,549.75c0,26.1-21.16,47.25-47.25,47.25s-47.25-21.16-47.25-47.25,21.16-47.25,47.25-47.25,47.25,21.16,47.25,47.25ZM1738.07,549.72c0-14.4-11.67-26.08-26.08-26.08s-26.08,11.67-26.08,26.08,11.67,26.08,26.08,26.08,26.08-11.67,26.08-26.08Z" fill="#5EA6B0"/>
        <circle cx="1711.99" cy="549.72" r="26.08" fill="#1E2226"/>
      </g>
      <g id="Circle_upper_left" data-name="Circle upper left">
        <path d="M374.03,389.47c0,26.1-21.16,47.25-47.25,47.25s-47.25-21.16-47.25-47.25,21.16-47.25,47.25-47.25,47.25,21.16,47.25,47.25ZM353.18,389.43c0-14.4-11.67-26.08-26.08-26.08s-26.08,11.67-26.08,26.08,11.67,26.08,26.08,26.08,26.08-11.67,26.08-26.08Z" fill="#5EA6B0"/>
        <circle cx="327.11" cy="389.43" r="26.08" fill="#1E2226"/>
      </g>
      <g id="Rectangle_4" data-name="Rectangle 4">
        <path d="M1522.02,1241.66c6.53.04,162.43-.03,168.54,0s12.07,7.39,13.3,12.7c1.03,4.44,1.12,25.85.2,30.34-1.41,6.9-8.4,13.47-16.27,13.73s-158.88-.03-164.94-.06-12.92-9.36-13.61-16.39c-.5-5-.75-25.72.3-29.81.96-3.76,5.95-10.56,12.48-10.52ZM1685.29,1258.38h-157v22.05h157v-22.05Z" fill="#5EA6B0"/>
        <rect x="1527.78" y="1257.57" width="159.96" height="22.9" fill="#1E2226"/>
      </g>
      <g id="Rectangle_3" data-name="Rectangle 3">
        <path d="M1617.12,1164.72c6.53.04,162.43-.03,168.54,0s12.07,7.39,13.3,12.7c1.03,4.44,1.12,25.85.2,30.34-1.41,6.9-8.4,13.47-16.27,13.73s-158.88-.03-164.94-.06-12.92-9.36-13.61-16.39c-.5-5-.75-25.72.3-29.81.96-3.76,5.95-10.56,12.48-10.52ZM1780.39,1181.45h-157v22.05h157v-22.05Z" fill="#5EA6B0"/>
        <rect x="1622.88" y="1180.63" width="159.96" height="22.9" fill="#7CD6E0"/>
      </g>
      <g id="Rectangle_2" data-name="Rectangle 2">
        <rect x="266.26" y="1258.91" width="157" height="22.05" fill="url(#luminous-grey)"/>
        <path id="Outline_2" data-name="Outline 2" d="M259.99,1242.18c6.53.04,162.43-.03,168.54,0s12.07,7.39,13.3,12.7c1.03,4.44,1.12,25.85.2,30.34-1.41,6.9-8.4,13.47-16.27,13.73s-158.88-.03-164.94-.06-12.92-9.36-13.61-16.39c-.5-5-.75-25.72.3-29.81.96-3.76,5.95-10.56,12.48-10.52ZM423.26,1258.91h-157v22.05h157v-22.05Z" fill="#5EA6B0"/>
      </g>
      <g id="Rectangle_1" data-name="Rectangle 1">
        <rect x="133.25" y="1179.01" width="159.96" height="22.9" fill="url(#luminous-grey)"/>
        <path id="Outline_1" data-name="Outline 1" d="M127.49,1163.11c6.53.04,162.43-.03,168.54,0s12.07,7.39,13.3,12.7c1.03,4.44,1.12,25.85.2,30.34-1.41,6.9-8.4,13.47-16.27,13.73s-158.88-.03-164.94-.06-12.92-9.36-13.61-16.39c-.5-5-.75-25.72.3-29.81.96-3.76,5.95-10.56,12.48-10.52ZM290.76,1179.83h-157v22.05h157v-22.05Z" fill="#1E2226"/>
      </g>
      <g id="Document_right" data-name="Document right">
        <path d="M1837.6,1006.99h-129.81c-6.6,0-12-5.4-12-12v-187.23c0-6.6,5.4-12,12-12l89.32-2.87c6.6,0,55.57,52.89,55.57,52.89l-3.08,149.21c0,6.6-5.4,12-12,12Z" fill="url(#luminous-grey)"/>
        <path d="M1697.08,1017.39c-4.79-2.66-12.15-12.19-12.35-18.13l-.04-196.04c1.22-11.72,10.02-20.71,21.65-22.35l89.42.36c8.35,2.13,25.7,21.45,32.92,28.08,4.1,3.77,8.31,7.45,12.52,11.48,4.91,4.69,20.73,17.18,22.1,22.9l.47,150.61c-1.25,14.48-10.16,24.37-24.55,26.45l-129.02.05c-3.34-.29-10.31-1.84-13.12-3.4ZM1779.73,801.75h-71.5c-1.61,0-2.41,5-2.55,6.45-.9,9.74-.14,22.98,0,33.09.55,36.86,1.37,73.97,1.08,111-.1,12.47-1.95,25.33-1.08,38,.5,7.29.85,8.86,8.5,9.5h118.07c2.41-.21,7.87-.81,8.98-3.02l.49-148.02-40.55.05s-14.36-.34-15.03-.74c-.88-.53-6.34-3.05-6.43-8.8s0-37.5,0-37.5ZM1821.73,829.75c-6.34-6.05-21.25-22.44-23-22v22h23Z" fill="#1E2226"/>
        <rect x="1723.44" y="884.25" width="96.17" height="13.18" rx="6.59" ry="6.59" fill="#5EA6B0"/>
        <rect x="1724.51" y="860.92" width="54.1" height="13.18" rx="6.59" ry="6.59" fill="#5EA6B0"/>
        <rect x="1724.51" y="909.36" width="96.17" height="13.18" rx="6.59" ry="6.59" fill="#5EA6B0"/>
        <rect x="1724.16" y="934.12" width="96.17" height="13.18" rx="6.59" ry="6.59" fill="#5EA6B0"/>
        <rect x="1724.16" y="960.12" width="96.17" height="13.18" rx="6.59" ry="6.59" fill="#5EA6B0"/>
      </g>
      <g id="Document_left" data-name="Document left">
        <path d="M241.14,1010.2H111.33c-6.6,0-12-5.4-12-12v-187.23c0-6.6,5.4-12,12-12l89.32-2.87c6.6,0,55.57,52.89,55.57,52.89l-3.08,149.21c0,6.6-5.4,12-12,12Z" fill="url(#luminous-grey)"/>
        <path d="M100.61,1020.59c-4.79-2.66-12.15-12.19-12.35-18.13l-.04-196.04c1.22-11.72,10.02-20.71,21.65-22.35l89.42.36c8.35,2.13,25.7,21.45,32.92,28.08,4.1,3.77,8.31,7.45,12.52,11.48,4.91,4.69,20.73,17.18,22.1,22.9l.47,150.61c-1.25,14.48-10.16,24.37-24.55,26.45l-129.02.05c-3.34-.29-10.31-1.84-13.12-3.4ZM183.26,804.96h-71.5c-1.61,0-2.41,5-2.55,6.45-.9,9.74-.14,22.98,0,33.09.55,36.86,1.37,73.97,1.08,111-.1,12.47-1.95,25.33-1.08,38,.5,7.29.85,8.86,8.5,9.5h118.07c2.41-.21,7.87-.81,8.98-3.02l.49-148.02-40.55.05s-14.36-.34-15.03-.74c-.88-.53-6.34-3.05-6.43-8.8s0-37.5,0-37.5ZM225.26,832.96c-6.34-6.05-21.25-22.44-23-22v22h23Z" fill="#1E2226"/>
        <rect x="126.98" y="887.46" width="96.17" height="13.18" rx="6.59" ry="6.59" fill="#5EA6B0"/>
        <rect x="128.05" y="864.13" width="54.1" height="13.18" rx="6.59" ry="6.59" fill="#5EA6B0"/>
        <rect x="128.05" y="912.57" width="96.17" height="13.18" rx="6.59" ry="6.59" fill="#5EA6B0"/>
        <rect x="127.69" y="937.32" width="96.17" height="13.18" rx="6.59" ry="6.59" fill="#5EA6B0"/>
        <rect x="127.69" y="963.33" width="96.17" height="13.18" rx="6.59" ry="6.59" fill="#5EA6B0"/>
      </g>
    </g>
  </g>
</svg>