<?xml version="1.0" encoding="UTF-8"?>
<svg data-bbox="0 0 2729.68 1252.631" viewBox="0 0 2800.64 1285.88" xmlns="http://www.w3.org/2000/svg" data-type="ugc">
    <defs>
        <!-- Continuous gradient stretching across the entire logo canvas -->
        <linearGradient id="rasika-tech-gradient" gradientUnits="userSpaceOnUse" x1="0" y1="0" x2="2800" y2="0">
            <stop offset="0%" stop-color="#5EA6B0" /> <!-- Base Cyan -->
            <stop offset="50%" stop-color="#7CD6E0" /> <!-- Bright Midpoint -->
            <stop offset="100%" stop-color="#A5F2F8" /> <!-- Lighter, energetic edge -->
        </linearGradient>
    </defs>
    <g>
        <text transform="translate(44.61 1215.85)" fill="url(#rasika-tech-gradient)" font-size="170.4" font-family="AvenirNext-Regular,Avenir Next" letter-spacing=".69em">
            PRODU<tspan y="0" x="1179.33" letter-spacing=".67em">C</tspan><tspan y="0" x="1416.7" letter-spacing=".68em">CIONES</tspan>
        </text>
        <path d="M2357.83 295.99v174.7a29.07 29.07 0 004.57 0q30.82-5.74 61.65-11.6c38.79-7.34 77.59-13.91 117.4-8.46a23.51 23.51 0 0120.14 23.19q.09 10.47.12 21v54.2h-9.25c-43 0-86.06-.47-129.08.21-20.12.32-40.47 1.33-60.26 4.7-50.53 8.59-85.37 36.57-99.7 87a218.51 218.51 0 00-.1 121c12.83 45.65 42.61 73.87 88.42 85.53 37.66 9.59 76 7.08 114.61 7.63l25.48-100.74h-9.55c-25.66 0-51.32.1-77-.13-24.9-.23-39.8-12.15-45.46-36.2-7.72-32.86 6.64-66.87 50-66.9 47.17 0 94.34-.33 141.51-.45 3.53 0 7.06.51 11.5.86v230.25l102.62-25.66v-7.58c0-105.24.15-210.47-.18-315.7-.08-24.57-.15-49.34-3.22-73.64-6.54-51.67-35.39-90.08-88.91-104.81-29.11-8-58.82-8.05-88.64-7-6.89.24-13.8 0-20.69 0v-51.27z" fill="url(#rasika-tech-gradient)"/>
        <path d="M1876.37 239.31h-97.07l-6 623 103.24 25.41v-10.26c.09-36.29.26-82.63.16-118.91l78.21-84.76c2.75 4.35 5.35 8.15 7.62 12.13q58.28 102.1 116.44 204.28c9.33 16.41 18.34 33 27.45 49.54 21.3 38.63 55.66 57 97.93 62.65 10.85 1.45 21.92 1.33 33.06 1.94v-111.7a56.47 56.47 0 00-6.41.32c-17.09 2.81-30.55-2.75-40.14-17.27-2.7-4.1-5.38-8.24-7.81-12.5q-75.27-131.72-150.64-263.39c-3.24-5.65-2.45-8.67 1.73-13.19q76.1-82.12 151.79-164.63c4.67-5.07 9.21-10.26 14.09-15.71l-75.83-69.68-246.5 266.81-1.12-307.74-.2-56.34" fill="url(#rasika-tech-gradient)"/>
        <path d="M1673.27 860.85l-103.91 25.71v-9.86q-.1-183.1-.28-366.22a131.39 131.39 0 00-1.68-23.21c-3.49-19.17-17.8-31.59-37.61-33.4-6.7-.61-13.43-1.06-20.15-1.27s-13.41 0-21.19 0c2.18-7.57 4.17-14.61 6.21-21.63 7.14-24.52 14.35-49 21.38-73.59 1-3.49 1.69-6 6.36-5.94 25.5.52 50.69 3.21 74.34 13.27 40.36 17.17 63.83 48.43 71.59 91a309.2 309.2 0 014.7 54c.42 114.56.23 229.11.24 343.67z" fill="url(#rasika-tech-gradient)"/>
        <path d="M1294.25 346.63h-9.14c-41.94.18-84-1.74-125.66 4.64-28 4.3-55.05 11.76-79.76 26.18-27.55 16.08-45.45 39.33-49.58 71.25-4.2 32.47-4.39 65.3 1.5 97.54 11.79 64.56 58.55 97.19 114 101.45 29.15 2.24 58.52 1.38 87.76 2.5 23.24.89 46.74.84 69.61 4.42 37.91 5.94 53.29 24.95 51.85 59.28-1 24.36-16.92 40.38-41.22 41.87-68.48 4.2-135.84-3.82-202.7-18-19.37-4.1-38.88-7.55-58.85-11.41-3.83 27.3-7.64 53.85-11.22 80.44-.93 6.9 2.81 11.43 9.11 13.6 7.8 2.69 15.77 4.89 23.61 7.47 37.15 12.27 75 22.12 114 24.92 53 3.82 106 5.81 159.14.7 49.82-4.8 87.09-33.95 102.67-81.76 11.31-34.72 10.43-70.31 8-106.1-2.15-31.16-16-55.7-40.47-74.59-14.52-11.22-31-18.57-48.53-23.61-54.33-15.65-110.3-16.2-166.15-17.79-10.86-.31-21.77-.08-32.58-1-18.29-1.53-31.42-12.83-36.21-30.13-9.08-32.84 4.77-58.06 37.61-67.84a191.23 191.23 0 0184.53-5.54c37 5.75 73.6 13.58 110.37 20.58 11.49 2.18 23 4.54 35.5 7v-177h-107.19z" fill="url(#rasika-tech-gradient)"/>
        <path d="M617.85 472.46c24.14-5.12 47.54-10.25 71-15 35.06-7.1 70.24-13 106.25-8.64 18.2 2.22 26.08 10.7 26.24 29.14.19 21.51.1 43 .06 64.54a53.1 53.1 0 01-.78 6.3h-9.05c-33.18 0-66.37-.57-99.53.2-30 .71-60.19 1.06-89.88 4.86-43.76 5.61-76.12 29.42-92.88 70.74-20.41 50.31-19.56 101.73-.95 152.29 14.46 39.3 43.84 63 85 70 24.67 4.19 49.81 5.61 74.77 7.91 12.3 1.14 24.66 1.44 37.25 2.14 8.76-34.53 17.3-68.21 26-102.37-2.75-.17-4.76-.41-6.77-.41-26.7-.06-53.4.08-80.09-.16-24.26-.22-38.94-11.79-44.82-35-8.07-31.85 4.49-68 50.07-68.09 46.91-.1 93.82-.37 140.73-.49 3.52 0 7 .53 11.34.89v230.3c32.28-8 63.48-16 94.85-23.32 6.57-1.53 8.59-3.84 8.57-10.62-.25-116.12-.1-232.24-.38-348.35a280.31 280.31 0 00-3.24-44.11c-9.55-58.52-50.21-98.2-109.36-105.21-26.38-3.13-53.19-2.65-79.81-3.77-3-.13-6 0-8.91 0v-50.54H617.85z" fill="url(#rasika-tech-gradient)"/>
        <path d="M56.02 856.26l103.55 25.51V448.99a38.49 38.49 0 014.8-.74c51.57.2 103.16-.22 154.72 1 17.9.42 32.45 10.16 38.18 28.07a83 83 0 013.36 29.73c-1.64 26.93-16.8 42.54-40.55 43.22-24.35.7-48.72 1.88-73.05 1.29-14.12-.34-26.2 2.9-37.95 10.37-12.56 8-25.8 14.91-39.05 22.47 2 4 3.48 7.32 5.24 10.44 31.3 55.69 62.32 111.54 94.15 166.94 11.32 19.7 23.43 39.18 37.24 57.18 28.82 37.55 68.06 49.35 113.88 41.8 5.8-1 9.65-4.1 10.37-10.74.74-6.91 2.46-13.72 3.81-20.56 5.86-29.56 11.74-59.13 17.79-89.58-10.72 4.72-20.31 9.68-30.4 13.22-20.49 7.18-37.2 1.64-48.16-16.8-16-26.9-31-54.36-46.43-81.6a15.49 15.49 0 01-.95-3c11.53-1.78 22.84-2.92 33.89-5.31 50.57-10.95 83.76-40.51 96.86-91.35 8.35-32.42 7.79-65.09 3-97.85-8.8-59.94-51.45-106-123.51-108.79-44.26-1.7-109.08.76-153.39.3-4.9 13.9-16.71 44.89-22 58.63l-1.5-.46V295.71l-103.87-.38z" fill="url(#rasika-tech-gradient)"/>
        <path stroke="url(#rasika-tech-gradient)" stroke-miterlimit="10" stroke-width="60" fill="url(#rasika-tech-gradient)" d="M2729.68 268.42H0"/>
        <path d="M1733.87 85.2s-6.66 43.31-6 50.64c.57 6.61 3.13 67.49 61.37 97 1.07.55 2.15 1.08 3.26 1.6q5.74 2.7 12.19 5c-.56-.16 16.45-.11 34-.05l37.66-.06-52.78-184.81v-1.47c-27.26-17.24-83.26-6-89.69 32.15" fill="url(#rasika-tech-gradient)"/>
        <path d="M1805.41 14.78c-.61-.45-5-5.74-15.6-6.2l1.89-.68c-.69 0-3-.39-5.66-.41l-4.14.3a22.5 22.5 0 014.14-.3l6-.43c-1.77-.63-4.7-.64-7.26-.47l-5 .54s2.29-.37 5-.54l8.76-.94c-4.81-2.07-16.94 1-17.33.91l16.77-4c-7.69-.3-18.46 3.09-18.46 3.09l18-5.65c-13.59.31-24.81 6.13-30.19 8.37-18.4 7.65-38.69 20.28-42 50.94-.92 8.43-20 1.06-113 61.43 120.51-60.37 127.76-50.78 126.57-35.54 23.76 40.78 94.43 28.11 89.69-32.15-.29-17.13-7.43-30.28-18.18-38.27z" fill="url(#rasika-tech-gradient)"/>
    </g>
</svg>