<?xml version="1.0" encoding="UTF-8"?>
<svg id="Capa_1" data-name="Capa 1" xmlns="http://www.w3.org/2000/svg" viewBox="0 0 510 510">
  <circle cx="255" cy="255" r="255" fill="#231f20"/>
  <path d="M63.53,389.26c13.59-13.06,24.19-22.65,31.5-28.52l-.66-1c-6.07,3.31-19,9.28-38.45,17.75l-3.98-6.15,47.08-43.46c.93-.86,1.11-2.26.42-3.32l-1.09-1.69,6.46-4.17,9.55,14.78-6.46,4.17-.73-1.12c-.48-.74-1.29-1.18-2.18-1.18-.67,0-1.3.25-1.79.71-10.09,9.57-20.87,18.77-32.05,27.35l.64,1.01c12.73-6.5,25.56-12.57,38.15-18.04.7-.3,1.23-.9,1.45-1.63.22-.73.11-1.52-.31-2.16l-.79-1.22,6.46-4.17,8.78,13.59-6.46,4.17-.69-1.07c-.48-.74-1.29-1.18-2.18-1.18-.67,0-1.31.26-1.8.72-10.75,10.26-21.47,19.55-31.86,27.61l.66,1c10.94-6.19,23.69-12.36,37.88-18.32.72-.3,1.26-.9,1.49-1.64.23-.74.12-1.53-.3-2.17l-.7-1.08,6.46-4.17,8.78,13.59-6.46,4.17-.98-1.51c-.48-.75-1.3-1.19-2.18-1.19-.36,0-.71.07-1.04.22l-58.64,25.52-4-6.2Z" fill="#fff"/>
  <path d="M127.99,451.17l4.27-6.39,1.54,1.03c.43.29.93.44,1.44.44.97,0,1.86-.53,2.31-1.4l7-13.39-8.2-5.48-9.69,11.59c-.47.57-.68,1.31-.58,2.04s.52,1.38,1.13,1.79l1.54,1.03-4.27,6.39-15.36-10.27,4.27-6.39,1.88,1.26c.43.29.93.44,1.44.44.74,0,1.44-.31,1.93-.86l35.04-38.9c.51-.56.74-1.31.65-2.06-.09-.75-.51-1.42-1.14-1.84l-1.84-1.23,4.27-6.39,21.66,14.47-4.27,6.39-1.84-1.23c-.43-.29-.93-.44-1.44-.44-1,0-1.92.58-2.35,1.48l-22.53,47.26c-.55,1.16-.16,2.57.9,3.28l1.88,1.25-4.27,6.39-15.36-10.27ZM141.07,419.89l7.31,4.89,16.18-30.09-1.88-1.26-21.61,26.46Z" fill="#fff"/>
  <path d="M330.84,468.74l2.49-1.1c1.31-.58,1.91-2.12,1.33-3.43l-21.91-49.8-4.87,2.14-3.1-7.04,18.43-8.11,3.1,7.04-2.76,1.21c-.64.28-1.12.79-1.38,1.44s-.24,1.35.04,1.99l20.87,47.42c.42.94,1.35,1.55,2.38,1.55.36,0,.71-.08,1.05-.22l4.56-2.01c1.31-.58,1.91-2.12,1.33-3.43l-3.8-8.72c-.31-.71.01-1.54.72-1.85l5.75-2.53,8.51,19.42-29.65,13.05-3.1-7.04Z" fill="#fff"/>
  <path d="M395.8,432.23l2.07-1.91c.51-.47.81-1.11.83-1.81.03-.69-.22-1.36-.69-1.87l-35.17-38.05c-.49-.53-1.19-.83-1.91-.83-.66,0-1.28.25-1.76.69l-2.07,1.91-5.22-5.65,24-22.19,13.77,14.9-5.64,5.22-6.79-7.34c-.49-.53-1.19-.83-1.91-.83-.66,0-1.28.25-1.76.69l-3.8,3.52c-.51.47-.81,1.11-.83,1.81-.03.69.22,1.36.69,1.87l14.2,15.36,4.84-4.59,4.57.89.64,4.76-4.83,4.58,15.75,17.04c.49.53,1.19.84,1.91.84.66,0,1.28-.25,1.76-.69l3.8-3.52c.51-.47.81-1.11.83-1.81.03-.69-.22-1.36-.69-1.87l-6.6-7.14c-.25-.27-.39-.63-.37-1s.17-.72.45-.97l4.62-4.27,14.53,15.72-24,22.19-5.22-5.65Z" fill="#fff"/>
  <path d="M432.86,364.22l3.63-6.78,5.46,2.92c3.59,1.92,6.27,2.87,8.17,2.9h.1c1.98,0,3.51-.99,4.56-2.95.83-1.55.86-3.17.09-4.81-.74-1.58-2.15-2.92-4.18-4.01-1.68-.9-3.69-1.58-6-2.04-1.72-.34-3.3-.51-4.71-.51-.48,0-.94.02-1.39.06-1.73.15-5.55.75-11.68,1.84-4.95.9-9.01,1.35-12.06,1.35-.73,0-1.41-.03-2.03-.08-3.17-.26-6.54-1.34-10.01-3.2-4.12-2.2-7.02-4.95-8.63-8.18-1.6-3.2-1.64-6.12-.13-8.95,1.27-2.37,3.27-3.88,6.14-4.63l1.48-.39-2.76-1.47,3.63-6.78,18.32,9.8-3.63,6.78-4.38-2.34c-2.72-1.45-4.85-2.16-6.51-2.16h-.18c-1.78.06-3.14.95-4.05,2.64-1.05,1.97-1.39,4.81,2.99,7.15,1.89,1.01,4.07,1.67,6.47,1.96.74.09,1.53.13,2.36.13,1.85,0,3.96-.23,6.27-.67l7.16-1.37c3.82-.72,7.44-1.09,10.76-1.09,5.93,0,11.13,1.17,15.45,3.48,4.37,2.34,7.45,5.37,9.17,9.01,1.71,3.64,1.73,6.92.05,10.05-1.36,2.55-3.47,4.18-6.45,5l-1.45.4,2.82,1.51-3.63,6.78-21.25-11.36Z" fill="#fff"/>
  <path d="M104.55,179.09l1.59-2.56c.75-1.22.37-2.83-.84-3.58l-44.07-27.24c-.41-.25-.88-.39-1.36-.39-.91,0-1.74.46-2.21,1.23l-1.59,2.56-6.54-4.04,8.31-13.45c3.1-5.02,6.97-8.14,11.5-9.28,1.25-.31,2.53-.47,3.8-.47,3.34,0,6.81,1.1,10.32,3.27,3.58,2.21,6.05,4.86,7.32,7.87,1.27,3,1.18,5.95-.27,9.01l-.23.49,1.04.64.34-.36c2.66-2.89,5.96-4.45,9.78-4.64.29-.01.57-.02.86-.02,3.59,0,7.24,1.14,10.87,3.38,5.32,3.29,8.59,7.44,9.73,12.35,1.14,4.91-.06,10.26-3.55,15.91l-8.26,13.36-6.54-4.04ZM98.82,146.2c-2.11,0-3.78.5-4.96,1.48-1.19.99-2.41,2.49-3.62,4.45l-.32.51,22.41,13.85.32-.51c2.11-3.41,2.76-6.47,1.94-9.12-.81-2.61-3.13-5.12-6.9-7.45-3.32-2.05-6.16-3.13-8.44-3.2-.15,0-.29,0-.44,0ZM71.27,130.54c-.16,0-.31,0-.46.02-2.31.17-4.48,1.95-6.64,5.45l-.32.51,19.55,12.08.31-.52c1.11-1.86,1.85-3.48,2.2-4.81.37-1.44.09-3-.85-4.64-.92-1.61-2.77-3.26-5.66-5.05-3.31-2.04-5.97-3.04-8.13-3.04Z" fill="#fff"/>
  <path d="M148.52,132.46c-.63,0-1.27-.05-1.9-.14-3.83-.57-7.16-2.63-9.89-6.14l-29.6-38.04c-.5-.64-1.24-1-2.05-1-.58,0-1.14.19-1.6.55l-2.38,1.85-4.72-6.07,14.77-11.5,4.72,6.07-1.03.8c-1.13.88-1.34,2.52-.46,3.65l27.77,35.68c2.27,2.92,4.22,4.64,5.95,5.27.55.2,1.12.3,1.68.3,1.28,0,2.58-.51,3.88-1.53,1.94-1.51,2.81-3.25,2.58-5.16-.22-1.82-1.42-4.11-3.67-7l-27.77-35.68c-.5-.64-1.24-1-2.05-1-.58,0-1.13.19-1.6.55l-.95.74-4.72-6.07,13.39-10.42,4.72,6.07-2.26,1.76c-1.13.88-1.34,2.52-.46,3.65l27.5,35.34c3.98,5.11,5.76,9.76,5.28,13.82-.47,4.06-2.41,7.43-5.75,10.04-3.07,2.39-6.23,3.6-9.4,3.6Z" fill="#fff"/>
  <path d="M309.67,103.99l2.54-7.26,1.75.61c.28.1.57.15.86.15,1.21,0,2.26-.83,2.53-2.01l3.43-14.71-9.31-3.25-6.48,13.65c-.32.67-.33,1.44-.05,2.12.28.68.85,1.21,1.54,1.45l1.75.61-2.54,7.26-17.44-6.09,2.54-7.26,2.13.75c.28.1.57.15.86.15.97,0,1.86-.54,2.31-1.4l24.19-46.43c.35-.67.39-1.46.11-2.16-.28-.7-.85-1.25-1.56-1.5l-2.09-.73,2.54-7.26,24.59,8.59-2.54,7.26-2.09-.73c-.28-.1-.57-.15-.86-.15-1.24,0-2.31.89-2.55,2.11l-9.99,51.39c-.25,1.26.48,2.53,1.69,2.95l2.13.75-2.54,7.26-17.44-6.1ZM314.5,70.44l8.3,2.9,8.14-33.19-2.14-.75-14.3,31.03Z" fill="#fff"/>
  <path d="M344.09,120.64l4.88-5.94,2.1,1.73c.46.38,1.05.59,1.65.59.78,0,1.51-.35,2.01-.95l32.9-40.02c.44-.54.65-1.21.58-1.9s-.4-1.31-.94-1.76l-2.1-1.73,4.88-5.94,15.56,12.79-4.88,5.94-2.33-1.92c-.46-.38-1.05-.59-1.65-.59-.78,0-1.51.35-2.01.95l-32.9,40.02c-.44.54-.65,1.21-.58,1.9.07.69.4,1.31.94,1.76l3.85,3.17c.46.38,1.05.59,1.65.59.78,0,1.51-.35,2.01-.95l6.14-7.45c.27-.33.66-.51,1.08-.51.33,0,.63.11.89.32l4.86,3.99-13.56,16.48-25.02-20.57Z" fill="#fff"/>
  <path d="M401.73,177.83c-5.16,0-8.84-1.93-11.25-5.9-2.92-4.8-2.51-9.78,1.24-15.23,3.8-5.51,11.14-11.59,21.81-18.08,7.16-4.35,13.58-7.47,19.09-9.28,3.94-1.29,7.46-1.94,10.46-1.94,1.16,0,2.26.1,3.28.29,3.59.67,6.3,2.48,8.06,5.38,2.7,4.44,2.14,9.37-1.71,15.09-3.89,5.77-11.32,12.02-22.1,18.57-12.13,7.37-21.85,11.11-28.88,11.11ZM443.28,135.52c-1.33,0-2.96.39-4.85,1.15-4.09,1.65-10.8,5.3-19.94,10.85-9.09,5.53-15.16,9.69-18.04,12.38-3.09,2.88-3.99,5.44-2.68,7.6.76,1.26,2.04,1.89,3.78,1.89h0c1.16,0,2.55-.29,4.15-.86,3.72-1.32,10.18-4.78,19.22-10.27,9.86-5.99,16.38-10.4,19.39-13.11,3.22-2.9,4.18-5.49,2.85-7.68-.79-1.31-2.09-1.97-3.86-1.97Z" fill="#fff"/>
  <path d="M258.86,481.74l3.49-.3c.48-.04.92-.27,1.23-.64.31-.37.46-.84.42-1.32l-4.54-53.09c-.08-.93-.87-1.66-1.8-1.66-.05,0-.1,0-.15,0l-3.49.3-.65-7.64,32.6-2.79,1.72,20.17-5.83.5c-.05,0-.1,0-.16,0-.94,0-1.73-.73-1.81-1.67l-.76-8.91c-.08-.93-.87-1.66-1.8-1.66-.05,0-.1,0-.15,0l-6.91.59c-.48.04-.92.27-1.23.64s-.46.84-.42,1.32l1.84,21.58,6.63-.57,2.88,3.48-2.23,4.16-6.62.56,2.04,23.87c.08.93.87,1.66,1.8,1.66.05,0,.1,0,.16,0l4.27-.36.65,7.64-20.51,1.75-.65-7.64Z" fill="#fff"/>
  <path d="M184.89,479.18l1.83-7.56,3.45.83c.14.03.29.05.43.05.84,0,1.57-.57,1.77-1.4l12.67-52.42c.24-.98-.37-1.97-1.34-2.2l-3.45-.83,1.83-7.56,32.21,7.78-4.82,19.93-5.76-1.39c-.99-.24-1.6-1.24-1.36-2.23l2.13-8.8c.11-.47.04-.96-.22-1.38-.25-.42-.66-.71-1.13-.82l-6.83-1.65c-.14-.03-.29-.05-.43-.05-.84,0-1.57.57-1.77,1.4l-5.15,21.3,6.54,1.58,1.65,4.27-3.48,3.28-6.53-1.58-5.69,23.56c-.11.47-.04.96.22,1.38.25.42.66.71,1.13.82l4.22,1.02-1.83,7.56-20.27-4.9Z" fill="#fff"/>
  <path d="M241.88,94.05l.14-7.67s3.5.06,3.5.06c1.01,0,1.82-.8,1.84-1.78l.96-53.28c0-.48-.17-.94-.51-1.29s-.79-.54-1.27-.55l-3.5-.06.14-7.67,32.71.59-.36,20.24-5.85-.11c-1-.02-1.8-.85-1.79-1.85l.16-8.94c0-.48-.17-.94-.51-1.29-.34-.35-.79-.54-1.27-.55,0,0-6.94-.12-6.94-.12-1.01,0-1.82.8-1.84,1.78l-.39,21.66,6.65.12,2.5,3.76-2.65,3.91-6.64-.12-.43,23.95c0,.48.17.94.51,1.29.34.35.79.54,1.27.55l4.28.08-.14,7.67-20.58-.37Z" fill="#fff"/>
  <path d="M188.66,99.08l3.34-1.05c.95-.3,1.48-1.32,1.18-2.27l-16.01-50.82c-.24-.76-.93-1.27-1.73-1.27-.18,0-.37.03-.54.08l-3.34,1.05-2.3-7.32,31.21-9.83,6.08,19.31-5.58,1.76c-.18.06-.36.08-.55.08-.8,0-1.49-.51-1.73-1.27l-2.69-8.53c-.24-.76-.93-1.27-1.73-1.27-.18,0-.37.03-.55.08l-6.62,2.08c-.95.3-1.48,1.32-1.18,2.27l6.51,20.66,6.34-2,3.57,2.77-1.27,4.55-6.33,2,7.2,22.85c.24.76.93,1.27,1.73,1.27.18,0,.37-.03.54-.08l4.08-1.29,2.3,7.32-19.63,6.18-2.3-7.32Z" fill="#fff"/>
  <path d="M150.28,268.84c-12.91,0-27.22-7.39-38.27-19.77-8.22-9.21-21.33-28.89-18.85-58.8,9.48,29.14,24.37,48.77,63.56,50.7,2.59.13,4.63,4.22,5.2,10.42.67,7.33-.96,15.79-4.76,16.68-2.18.51-4.5.77-6.88.77ZM100.08,218.39c3.72,13.04,10.32,22.3,15.19,27.76,10.23,11.47,23.31,18.31,35,18.31,1.83,0,3.61-.18,5.29-.52l.25-.05.14-.21c.84-1.31,1.74-4.71,1.74-9.12,0-4.16-.83-7.5-1.64-8.96l-.16-.29-.33-.02c-24.98-1.43-42.77-10.39-54.39-27.41l-1.07.5Z" fill="#fff"/>
  <path d="M273.69,227.44c-6.02,0-18.64-8.99-22.88-16.31-.94-1.62-1.87-3.9-.96-5.49.73-1.28,3.2-2.72,5.37-3.99,1.37-.8,2.66-1.56,3.47-2.24,5.44-4.58,9.95-9.84,13.43-15.62,10.11-16.83,10.81-38.68,2.06-61.8,9.12,10.09,16.19,22.64,20.05,35.68,3.27,11.03,3.85,22.38,1.67,32.82-1.4,6.71-3.97,13.34-7.64,19.71-.26.44-.53.93-.83,1.46-2.84,5-7.6,13.37-11.99,15.44-.47.22-1.05.33-1.73.33ZM284.44,147.49c1.01,14.42-1.87,27.39-8.57,38.56-3.72,6.2-8.55,11.82-14.36,16.72-1.09.92-2.54,1.77-4.07,2.67-.76.45-2.17,1.27-3.09,1.91l-.41.29.2.45c.83,1.85,3.3,5.1,7.73,8.69,4.92,3.98,9.59,6.18,11.67,6.28h.18s.16-.08.16-.08c2.77-1.64,6.65-8.06,9.73-13.47l.85-1.48c3.44-5.96,5.84-12.16,7.15-18.42,2.03-9.73,1.48-20.34-1.58-30.68-1.17-3.94-2.66-7.88-4.44-11.72l-1.14.29Z" fill="#fff"/>
  <path d="M271.62,375.57c-16.37-.21-27.2-4.99-30.13-6.45l-.12-.06h-.14c-1.44-.01-2.87-.03-4.33-.07-2.99.13-5.86.53-8.39.89-3.24.45-6.58.92-10,.92-3.85,0-7.36-.61-10.72-1.85-7.03-2.6-11.84-6.33-17.42-10.65-3.44-2.66-6.99-5.41-11.58-8.33-9.78-6.23-23.47-6.7-23.61-6.7-1-.03-1.85-.73-2.07-1.7-.22-.97.24-1.97,1.13-2.43,4.12-2.13,12.49-9.84,13.59-15.21l.03-.12,1.24-4.61-1.21.64c-2.51,1.31-5.18,2.42-5.69,2.63-.15.06-.31.09-.48.09-.27,0-.54-.09-.76-.25-.35-.26-.54-.7-.49-1.14l1.51-13.71-8.96,1.29c-.06,0-.13.01-.19.01-.43,0-.82-.22-1.05-.58-.27-.41-.26-.95,0-1.36l7.79-12.1-.86-.18c-3.3-.68-9.23-2.21-11.93-4.81-.46-.44-.63-1.06-.45-1.64.22-.73.9-2.94,24.07-6.98h.12s.63-.06.63-.06l-.09-.63c-.29-2.06-.64-4.06-.98-5.93-.67-3.69-1.35-7.48-1.65-12-.46-7.02.64-14.55,3.02-20.68,5.47-14.06,15.86-24.3,29.27-28.82,4.76-1.61,9.77-2.42,14.9-2.42,9.37,0,18.78,2.73,27.21,7.88,5.48,3.35,10.26,7.59,14.89,11.69,6.99,6.19,13.59,12.04,22.36,15.05,3.15,1.08,6.25,1.61,9.47,1.61,6.76,0,13.16-2.39,19.94-4.91,3.56-1.33,7.25-2.7,11.15-3.78,4.1-1.14,8.13-1.71,12-1.71,5.78,0,10.8,1.29,14.51,3.74,4.57,3.02,7.31,7.65,8.14,13.77.35,2.57-.22,4.91-.72,6.99-.81,3.34-1.15,5.19.67,7.27,1.19,1.37,4.16,1.85,7.04,2.31,3.16.51,6.41,1.03,8.78,2.8,5.12,3.82,7.82,9.16,8.05,15.87.27,8.13-3.23,18.11-10.12,28.88-6.16,9.62-14.73,19.36-24.11,27.41-29.07,24.93-55.32,30.17-72.22,30.17-.35,0-.7,0-1.05,0ZM357.54,275.07c3.75,5.45,3.48,12.49-.83,21.54-11.51,24.15-24.66,40.84-41.4,52.52-16,11.17-34.93,17.5-57.88,19.37l-.07,1.19c4.75.97,9.68,1.48,14.65,1.52h.7c16.15,0,41.29-5.05,69.34-29.11,19.73-16.93,33.18-38.65,32.71-52.82-.18-5.39-2.24-9.48-6.29-12.51-1.51-1.13-4.23-1.57-6.85-1.99-1.3-.21-2.38-.4-3.44-.63l-1.49-.33.86,1.26ZM173.8,313.33c.2,2.35.03,4.6-.51,7.1l-1.19,4.43c-.85,3.99-4.52,9.13-9.8,13.79l-.95.83,1.25.21c5.07.85,12.4,2.68,18.54,6.59,4.77,3.04,8.56,5.97,11.91,8.56,5.51,4.26,9.87,7.63,16.26,10,2.86,1.06,5.88,1.58,9.22,1.58,3.12,0,6.15-.42,9.35-.87,3.03-.42,5.76-.79,8.7-.92h.12s.3-.01.3-.01l.41-.02c.41-.02.82-.03,1.24-.03,1.01,0,2.07.04,3.17.13h1.1c28.56,0,51.43-6.26,69.9-19.15,16.09-11.23,28.78-27.37,39.95-50.82,6.35-13.32,1.23-17.73-2.16-20.65-.51-.44-1.15-.99-1.67-1.58l-.58-.66-.4.78c-3.42,6.68-7.85,13.05-13.18,18.93l-.66.73.96.25c5.25,1.38,8.96,3.56,10.18,5.98.52,1.03.56,2.12.11,3.05-1.13,2.35-3.38,3.49-6.9,3.49-2.72,0-5.74-.67-8.59-1.35l-1.01-.24.29.99c.54,1.84.66,3.63.34,5.31-.59,3.12-2.61,5.84-5.86,7.87-1.98,1.24-4.41,1.92-6.82,1.92s-4.93-.72-7.09-2.09l-1.12-.71.2,1.3c.35,2.28.2,4.43-.45,6.39-1.21,3.62-4.07,6.55-8.28,8.46-1.96.89-4.16,1.36-6.38,1.36h-.69v.68s.22,1.53.22,1.53c1.5,10.84,1.68,12.66-.77,13.52-.13.05-.27.07-.42.07-.35,0-.69-.15-.92-.4-.05-.05-4.63-4.99-8.58-10.22l-1.25-1.64.17,2.06c.59,7.15-.72,9.79-.87,10.07-.15.27-.4.48-.69.58-.25.09-.49.13-.74.13-1.8,0-4.1-2.44-7.44-7.91l-.25-.41-.45.15c-1.51.5-3.1.85-4.7,1.03-.76.09-1.53.13-2.27.13-1.17,0-2.35-.12-3.48-.34l-.52-.1-.17.5c-2.76,8.27-3.4,10-5.26,10-.17,0-.35-.01-.54-.04-.51-.06-.93-.43-1.06-.92-.13-.48-3.14-11.81-4.27-19.08v-.08s-.04-.07-.04-.07c-.38-.86-.7-1.76-.94-2.67l-.13-.47-.48.02c-2.05.1-3.86.14-5.53.15h-.81s.24.78.24.78c.99,3.2,2.23,6.33,3.51,9.53,2.62,6.53,4.52,11.25,2.69,13.84-.74,1.05-1.99,1.59-3.71,1.59-.11,0-.22,0-.34,0-8.28-.32-10.44-7.07-11.55-14.33h-1.19c-.84,6.41-1.72,11.45-4.78,13.45-.85.55-1.82.83-2.88.83-.68,0-1.42-.12-2.2-.34-2.54-.75-4.32-2.12-5.29-4.08-1.83-3.68-.51-8.61,1.19-13.38l.45-1.26-1.24.5c-3.65,1.48-7.73,2.26-11.8,2.26-4.78,0-9.23-1.04-12.89-2.99-3.7-1.98-7.42-7.13-9.03-12.53-.59-1.96-1.14-4.84-.46-7.41l.14-.53-.52-.19c-2.47-.89-4.67-2.09-6.36-3.48l-1.1-.9.12,1.42ZM232.48,331.03c.53,2.05.84,4.38,1.17,6.98,1.14,9.06,2.5,15.49,9.64,15.76h.25c.85,0,1.41-.17,1.65-.51.96-1.37-.62-5.61-2.97-11.45-1.32-3.3-2.82-7.03-3.91-10.78l-.18.32-.11-.83c-1.74-.05-3.35-.13-4.91-.24l-.83-.06.21.81ZM222.39,329.5c-.55,1.9-1.36,4.03-2.14,6.09-2.07,5.44-4.42,11.6-2.68,15.12.66,1.32,1.88,2.23,3.75,2.78.54.16,1.04.24,1.48.24.58,0,1.07-.14,1.51-.42,2.37-1.55,3.12-7.38,3.9-13.56.34-2.65.76-5.94,1.39-9.13l.13-.64-.65-.07c-2.04-.22-4.06-.5-6-.83l-.53-.09-.15.52ZM252.66,340.65c.65,2.94,1.35,5.8,1.81,7.67l.48,1.91.67-1.85c.51-1.4,1.15-3.33,1.84-5.38l.17-.51-.48-.27c-1.27-.57-2.46-1.3-3.52-2.17l-1.34-1.09.37,1.68ZM277.78,338.38c-.96,1-2.12,1.89-3.45,2.65l-.54.31.33.53c1.83,2.94,3.03,4.44,3.71,5.18l.85.92.18-1.24c.22-1.46.38-4.03-.06-8l-.14-1.28-.89.92ZM281.76,330.15c-.14.91-.34,1.77-.6,2.55l-.09.26.15.24c2.64,4.26,7.08,9.52,9.5,12.28l1.21,1.38-.16-1.83c-.16-1.85-.55-4.64-1.04-8.18l-.4-2.92-.39-.1c-2.68-.67-5.09-2.02-7.17-4.02l-.83-.8-.18,1.14ZM278.62,325.13c-8.96,2.6-18.1,4.28-27.16,5.01l-.6.05.05.6c.05.56.12,1.18.22,1.86v.09s.05.08.05.08c1.21,2.5,4.88,8.32,12.86,8.32.64,0,1.31-.04,1.98-.11,4.76-.54,8.48-2.39,10.78-5.36,2.03-2.63,2.92-6.09,2.57-10.01l-.06-.73-.7.2ZM183.94,317.75c-.4,1.6-.24,3.66.45,5.96,1.39,4.65,4.75,9.39,7.81,11.03,3.27,1.75,7.31,2.67,11.67,2.67,5.21,0,10.28-1.32,14.27-3.73l.18-.11.07-.19c.49-1.31,1.05-2.83,1.47-4.23l.19-.62-.64-.13c-10.07-2.13-18.81-5.73-25.97-10.69l-.21-.14-.25.05c-1.02.2-2.09.3-3.18.3-1.62,0-3.36-.2-5.17-.59l-.57-.12-.14.57ZM304.49,314.71c-.59.32-1.19.63-1.79.94-6.39,3.26-13.24,6.07-20.37,8.35l-.75.24.43.66c2.07,3.2,6.38,6.93,11.73,6.93,1.76,0,3.54-.4,5.29-1.2,3.61-1.64,5.94-3.98,6.93-6.97.85-2.56.64-5.55-.63-8.64l-.25-.61-.59.31ZM215.62,214.92c-4.65,0-9.19.74-13.49,2.19-12.16,4.1-21.6,13.43-26.59,26.26-2.16,5.55-3.16,12.41-2.74,18.81.28,4.29.95,7.96,1.59,11.52.63,3.48,1.27,7.06,1.55,11.14.03.47.04.98.03,1.54v.06s0,.06,0,.06c4.14,23.19,24.11,38.15,54.79,41.06,3.41.32,6.94.49,10.51.49,21.97,0,45.66-6.27,64.99-17.21,21.72-12.29,36.83-29.36,43.69-49.35.13-.61.26-1.13.38-1.63.45-1.86.88-3.62.64-5.37-.65-4.81-2.74-8.41-6.21-10.7-3.02-1.99-7.18-3.04-12.02-3.04-3.47,0-7.14.53-10.91,1.58-3.73,1.04-7.32,2.37-10.79,3.67-6.82,2.54-13.87,5.17-21.54,5.17-3.7,0-7.25-.6-10.83-1.83-9.59-3.3-16.83-9.71-23.84-15.92-4.49-3.98-9.13-8.09-14.28-11.24-7.74-4.74-16.36-7.24-24.93-7.24ZM163.4,304.71c.33,0,.64.13.87.35.28.27.42.65.38,1.04l-1.46,13.18.97-.45c1.6-.74,3.78-1.82,5.08-2.73l.25-.17v-.3c.06-2.18-.3-4.03-.64-5.82-.4-2.06-.85-4.39-.81-7.34.04-3.25.98-6.1,1.9-8.85.95-2.86,1.84-5.55,1.64-8.49-.01-.21-.03-.42-.05-.62l-.09-1.05-.65.11c-8.34,1.46-16.66,3.34-20.22,4.57l-1.31.45,1.23.65c3.36,1.77,8.9,2.92,11.36,3.29.43.06.79.33.96.72.18.39.15.84-.09,1.2l-7.33,11.39,7.84-1.12c.06,0,.12-.01.18-.01ZM324.21,301.61c-4.72,3.91-9.93,7.52-15.48,10.75l-.68.39.55.55c1.14,1.13,4.24,3.77,8.39,3.77,1.83,0,3.61-.53,5.28-1.58,2.67-1.67,4.26-3.75,4.72-6.2.44-2.36-.21-4.98-1.9-7.56l-.37-.56-.52.43ZM174.08,295c-.47,1.42-.96,2.89-1.28,4.38-.16,3,.28,6.19,1.14,8.43,1.58,4.09,8.87,7.21,14.7,7.54l1.77.1-1.35-1.16c-6.4-5.5-10.99-12.2-13.64-19.9l-.58-1.68-.76,2.29ZM331.81,294.66c-1.55,1.56-3.15,3.09-4.78,4.54l-.4.35.53.78.13.2.24.05c.74.16,1.5.34,2.3.53,2.67.64,5.97,1.43,8.59,1.43,2.42,0,3.98-.7,4.64-2.07.11-.23.08-.49-.09-.83-.81-1.61-4.47-3.9-10.62-5.15l-.32-.06-.23.23Z" fill="#fff"/>
  <path d="M206.92,242.08c-1.49,0-2.99-.17-4.46-.49-1.61-.35-3.24-.95-4.86-1.78-.67-.36-1.27-.71-1.81-1.07,2.38.62,4.7,1.01,6.93,1.15.56.03,1.11.05,1.66.05,2.8,0,5.42-.41,7.79-1.22,3.01-.97,5.82-2.52,8.32-4.62,1.73-1.43,3.33-3.09,4.86-5.04-.75,2.21-1.99,4.34-3.65,6.26-1.19,1.37-2.52,2.54-3.96,3.49-1.69,1.08-3.26,1.83-4.79,2.3-1.9.65-3.93.98-6.04.98Z" fill="#fff"/>
  <path d="M202.24,272.58c-2.19,0-4.43-.5-6.48-1.43-1.89-.89-3.51-2.05-4.77-3.43,1.85.8,3.62,1.39,5.36,1.8,1.75.4,3.44.6,5.03.6.85,0,1.68-.06,2.49-.17,2.48-.3,4.9-1.05,7.18-2.25,1.56-.8,3.11-1.82,4.69-3.08-.87,1.66-2.15,3.22-3.73,4.51-2.2,1.8-4.98,2.98-7.83,3.32-.64.09-1.29.13-1.94.13h0Z" fill="#fff"/>
  <path d="M244.85,260.77c-1.48,0-2.83-.28-4-.82,1.46-.25,2.71-.54,3.85-.91,1.79-.58,3.27-1.31,4.55-2.22,1.39-.96,2.59-2.1,3.66-3.48.73-.93,1.43-2,2.14-3.3.12,1.32-.09,2.73-.62,4.11-.72,1.89-2.05,3.58-3.75,4.74-1.63,1.17-3.67,1.83-5.76,1.87h-.08Z" fill="#fff"/>
  <path d="M292.63,276.41c-.65,0-1.29-.05-1.91-.15,1.76-.55,3.32-1.18,4.74-1.91,2.21-1.15,3.98-2.47,5.42-4.03,1.54-1.61,2.79-3.5,3.72-5.62.64-1.43,1.16-3.02,1.58-4.83.38,1.66.41,3.48.07,5.31-.48,2.54-1.73,4.98-3.54,6.86-1.71,1.87-4.08,3.26-6.66,3.92-1.15.28-2.3.43-3.41.43h0Z" fill="#fff"/>
  <path d="M238.52,319.97c-.59,0-1.19,0-1.78-.02-3.54-.12-7.01-.51-10.3-1.15-2.93-.58-5.82-1.44-8.62-2.56,2.79.86,5.71,1.48,8.74,1.86,2.7.35,5.54.53,8.43.53,3.77,0,7.78-.3,11.91-.9,3.72-.56,6.99-1.19,10.01-1.92,3.51-.84,6.92-1.88,9.8-2.8,5.82-1.86,11.83-4.27,18.94-7.58,12.93-6.19,24.56-13.48,34.57-21.68,2.83-2.29,5.33-4.52,7.66-6.81,2.27-2.19,4.26-4.32,6.07-6.47-3.34,4.74-7.56,9.42-12.86,14.29-5.18,4.67-10.69,8.94-16.36,12.66-5.54,3.69-11.6,7.13-18.02,10.23-13.67,6.54-26.99,10.54-39.59,11.88-2.92.29-5.82.44-8.6.44Z" fill="#fff"/>
  <path d="M252.41,291.69c-1.05,0-2.09-.12-3.11-.34-1.85-.43-3.5-1.17-4.87-2.17,1.81.3,3.49.45,5.08.45,2.5-.02,4.68-.38,6.67-1.12,2.1-.74,4.08-1.85,5.87-3.32,1.22-.99,2.41-2.17,3.6-3.58-.41,1.65-1.22,3.29-2.36,4.76-1.58,2.04-3.81,3.64-6.27,4.51-1.44.54-2.99.81-4.61.81Z" fill="#fff"/>
  <path d="M207.31,299.77c-2.44,0-4.98-.75-7.17-2.1-1.61-1.02-2.92-2.26-3.88-3.65,1.62.89,3.15,1.58,4.66,2.1,2.24.76,4.32,1.13,6.35,1.13h.31c2.23,0,4.46-.41,6.63-1.21,1.47-.53,2.98-1.26,4.58-2.2-.93,1.42-2.23,2.71-3.79,3.73-2.16,1.41-4.79,2.19-7.4,2.19h-.28Z" fill="#fff"/>
  <path d="M265.18,335.14c-.93,0-1.87-.19-2.72-.55-.6-.26-1.33-.67-1.97-1.3,1.31.26,2.41.38,3.45.38.81,0,1.57-.08,2.31-.23,1.73-.33,3.35-1.05,5.22-2.36-.28.69-.72,1.36-1.3,1.97-.95.99-2.23,1.69-3.61,1.96-.45.1-.91.15-1.37.15h0Z" fill="#fff"/>
  <path d="M293.64,326.78c-.35,0-.71-.03-1.05-.08-.64-.11-1.46-.33-2.24-.78,2.36-.12,4.09-.52,5.62-1.27,1.59-.74,2.98-1.85,4.47-3.58-.1.74-.36,1.5-.77,2.22-.68,1.2-1.75,2.19-3.01,2.79-.91.46-1.95.69-3.02.69h0Z" fill="#fff"/>
  <path d="M318.18,312.74c-.49-.02-1.12-.11-1.72-.4,1.47-.5,2.65-1.03,3.71-1.8,1.01-.71,1.87-1.56,2.89-2.92.07.55.02,1.15-.17,1.76-.3.96-.95,1.85-1.8,2.45-.79.58-1.81.91-2.81.91h-.11Z" fill="#fff"/>
  <path d="M199.34,331.09c-.93,0-1.87-.19-2.72-.55-1.27-.51-2.39-1.45-3.15-2.64-.35-.55-.72-1.31-.9-2.19,1.65,1.68,3.1,2.72,4.67,3.37,1.54.67,3.24.98,5.35.98.09,0,.19,0,.29,0-.63.41-1.37.72-2.18.89-.44.09-.9.14-1.36.14h0Z" fill="#fff"/>
  <polygon points="452.51 269.25 435.2 281.82 441.81 261.47 424.5 248.9 445.9 248.9 452.51 228.55 459.12 248.9 480.52 248.9 463.21 261.47 469.82 281.82 452.51 269.25" fill="#fff"/>
  <polygon points="56.45 269.07 39.14 281.64 45.75 261.29 28.44 248.72 49.84 248.72 56.45 228.37 63.06 248.72 84.46 248.72 67.15 261.29 73.76 281.64 56.45 269.07" fill="#fff"/>
</svg>