<?xml version="1.0" encoding="UTF-8"?>
<svg id="Layer_1" xmlns="http://www.w3.org/2000/svg" version="1.1" viewBox="0 0 182.19 182.19">
  <!-- Generator: Adobe Illustrator 29.4.0, SVG Export Plug-In . SVG Version: 2.1.0 Build 152)  -->
  <defs>
    <style>
      .st0 {
        fill: #ff690a;
      }

      .st1 {
        fill: #fff;
      }
    </style>
  </defs>
  <path class="st1" d="M172.99,122.68c-12.75,33.22-44.81,56.98-82.28,56.98S20.98,156.09,8.43,122.87h9.66c12.17,28.2,39.98,47.9,72.62,47.9s60.46-19.89,72.62-47.9l9.66-.19h0Z"/>
  <path class="st1" d="M172.99,122.68l-.77-.39c-12.55,32.84-44.42,56.21-81.51,56.21S21.76,155.13,9.2,122.29l-.77.39v.97h9.66v-.97l-.77.39c12.17,28.39,40.56,48.48,73.4,48.48s61.03-20.09,73.4-48.48l-.77-.39v.97h9.85l-.19-.97-.77-.39.77.39v-.97h-10.43l-.19.58c-11.98,27.81-39.6,47.32-71.66,47.32s-59.88-19.51-71.85-47.32l-.19-.58H7.27l.39,1.16c12.75,33.61,45.2,57.36,83.05,57.36s70.31-23.95,83.05-57.36l.39-1.16h-1.35l.19.97h0Z"/>
  <path class="st1" d="M163.91,59.71c-2.32-5.41-5.41-10.62-8.88-15.45-1.35.58-3.09.77-4.83.77-7.53,0-13.52-5.99-13.52-13.52,0-1.74.39-3.28.97-4.83-12.94-9.46-28.97-15.07-46.36-15.07-32.64,0-60.65,19.7-72.62,47.9h-9.46C21.76,26.68,53.82,2.92,91.29,2.92c19.51,0,37.47,6.37,51.96,17,2.12-1.35,4.44-2.12,7.15-2.12,7.53,0,13.71,6.18,13.71,13.71,0,2.51-.77,5.02-1.93,6.95,4.64,6.37,8.69,13.71,11.4,21.25h-9.66Z"/>
  <path class="st1" d="M163.91,59.71l.77-.39c-2.32-5.6-5.41-10.82-8.88-15.64l-.39-.58-.58.19c-1.35.58-2.9.77-4.44.77-3.48,0-6.76-1.35-8.88-3.67-2.32-2.32-3.67-5.41-3.67-8.88,0-1.55.19-3.09.77-4.44l.19-.58-.58-.39c-13.13-9.66-29.36-15.26-46.93-15.26-33.03,0-61.42,20.09-73.59,48.48l.77.39v-.97h-9.46v.97l.77.39C22.34,27.26,54.01,3.7,91.1,3.7c19.31,0,37.08,6.37,51.38,17l.58.39.58-.39c1.93-1.16,4.25-1.93,6.76-1.93,3.48,0,6.76,1.35,9.08,3.67s3.67,5.41,3.67,9.08c0,2.51-.58,4.64-1.74,6.57l-.39.58.39.39c4.64,6.37,8.5,13.52,11.4,20.86l.77-.39v-.97h-9.66v1.16l.77-.39-.77.39v.97h11.01l-.39-1.16c-2.9-7.53-6.76-14.87-11.59-21.44l-.77.58.77.39c1.35-2.12,2.12-4.83,2.12-7.53,0-8.11-6.57-14.49-14.49-14.49-2.9,0-5.41.77-7.53,2.12l.39.77.58-.77C129.15,8.33,110.8,1.96,91.29,1.96,53.43,1.96,20.98,25.91,8.24,59.52l-.39,1.16h11.4l.19-.58C31.22,32.09,59.03,12.58,91.29,12.58c17.19,0,33.03,5.6,45.78,14.87l.58-.77-.77-.39c-.58,1.55-.97,3.28-.97,5.02,0,7.92,6.37,14.49,14.49,14.49,1.74,0,3.48-.39,5.02-.97l-.39-.77-.77.58c3.48,4.64,6.37,9.85,8.69,15.26l.19.58h.58l.19-.77h0Z"/>
  <path class="st0" d="M142.86,31.51c0-4.06,3.28-7.53,7.53-7.53s7.53,3.28,7.53,7.53-3.28,7.53-7.53,7.53c-4.06-.19-7.53-3.48-7.53-7.53"/>
  <path class="st0" d="M142.86,31.51h0c.19-1.93.97-3.86,2.32-5.21s3.09-2.12,5.21-2.12c1.93,0,3.86.77,5.21,2.12,1.35,1.35,2.12,3.09,2.12,5.21,0,1.93-.77,3.86-2.12,5.21s-3.09,2.12-5.21,2.12c-1.93,0-3.86-.77-5.21-2.12s-2.12-3.28-2.32-5.21h0c-.19,4.25,3.28,7.53,7.53,7.53s7.53-3.48,7.53-7.53-3.48-7.53-7.53-7.53c-4.25-.19-7.53,3.28-7.53,7.53h0Z"/>
  <path class="st1" d="M3.79,90.81c0-2.7.58-5.21,1.55-7.53s2.51-4.44,4.25-6.18c1.74-1.74,3.86-3.28,6.37-4.25,2.32-.97,5.02-1.55,7.53-1.55,2.7,0,5.21.58,7.53,1.55s4.44,2.32,6.37,4.25c1.74,1.74,3.28,3.86,4.25,6.18s1.55,4.83,1.55,7.53v19.7h-7.73v-19.7c0-1.55-.39-3.09-.97-4.64-.58-1.55-1.35-2.7-2.51-3.67-.97-1.16-2.32-1.93-3.67-2.51-1.55-.58-3.09-.97-4.64-.97s-3.09.39-4.64.97c-1.35.58-2.7,1.35-3.67,2.51-.97.97-1.93,2.32-2.51,3.67s-.97,2.9-.97,4.64v19.7h-7.73l-.39-19.7h0Z"/>
  <path class="st1" d="M3.79,90.81h.97c0-2.7.39-5.02,1.35-7.34l-.77-.39.77.39c.97-2.32,2.32-4.25,4.06-5.99s3.67-3.09,5.99-4.06h0c2.32-.97,4.64-1.55,7.34-1.55s5.02.58,7.34,1.55h0c2.32.97,4.25,2.32,5.99,4.06h0c1.74,1.74,3.09,3.67,4.06,5.99h0c.97,2.12,1.55,4.64,1.55,7.15v18.74h-5.99v-18.74c0-1.74-.39-3.48-.97-4.83l-.77.39.77-.39c-.58-1.55-1.55-2.9-2.7-4.06l-.58.58.58-.58c-1.16-1.16-2.51-2.12-4.06-2.7l-.39.77.39-.77c-1.55-.77-3.28-.97-5.02-.97s-3.48.39-5.02.97l.39.77-.39-.77c-1.55.58-2.9,1.55-4.06,2.7-1.16,1.16-2.12,2.51-2.7,4.06h0c-.58,1.55-.97,3.09-.97,4.83v18.74h-5.99v-18.54h-1.74v20.67h9.66v-20.67c0-1.55.19-2.9.77-4.25l-.77-.39.77.39c.58-1.35,1.35-2.51,2.32-3.48s2.12-1.74,3.48-2.32h0c1.35-.58,2.7-.97,4.25-.97s2.9.39,4.25.97h0c1.35.58,2.51,1.35,3.48,2.32h0c.97.97,1.74,2.12,2.32,3.48h0c.58,1.35.97,2.7.97,4.25v20.67h9.66v-20.67c0-2.9-.58-5.6-1.74-7.92l-.97.19.77-.39c-.97-2.51-2.51-4.64-4.44-6.57l-.58.58.58-.58c-1.93-1.93-4.06-3.28-6.57-4.44l-.39.77.39-.77c-2.51-1.16-5.21-1.74-7.92-1.74s-5.41.58-7.92,1.74l.39.77-.39-.77c-2.51.97-4.64,2.51-6.57,4.44-1.74,1.74-3.28,4.06-4.44,6.57h0c-.97,2.51-1.55,5.02-1.55,7.92l.77.19h0Z"/>
  <path class="st1" d="M53.43,76.9c1.93-1.93,4.06-3.28,6.57-4.25s4.83-1.55,7.34-1.55,5.02.58,7.34,1.55c2.51.97,4.64,2.32,6.57,4.25l2.7,2.7-5.41,5.6-2.7-2.7c-1.16-1.16-2.51-2.12-3.86-2.7-1.55-.58-2.9-.97-4.44-.97s-3.09.19-4.44.97c-1.55.58-2.7,1.55-3.86,2.7-1.16,1.16-2.12,2.32-2.7,3.86s-.97,2.9-.97,4.44.39,3.09.97,4.44c.58,1.55,1.55,2.7,2.7,3.86,2.32,2.32,5.21,3.48,8.31,3.48,1.55,0,3.09-.39,4.64-.97s2.7-1.55,3.86-2.7l2.7-2.7,5.41,5.6-2.7,2.7c-1.93,1.93-4.06,3.28-6.57,4.44-2.32.97-4.83,1.35-7.34,1.35s-5.02-.39-7.34-1.35c-2.32-.97-4.64-2.51-6.57-4.44-1.93-1.93-3.28-4.06-4.25-6.57-.97-2.32-1.35-4.83-1.35-7.34s.39-5.02,1.35-7.34c.77-2.32,2.12-4.44,4.06-6.37"/>
  <path class="st1" d="M53.43,76.9l.58.58c1.93-1.93,3.86-3.28,6.18-4.06h0c2.32-.97,4.64-1.35,7.15-1.35,2.32,0,4.64.39,6.95,1.35h0c2.32.97,4.44,2.32,6.18,4.06l2.12,2.12-4.25,4.25-2.12-2.12-.58.58.58-.58c-1.16-1.16-2.7-2.12-4.25-2.9-1.55-.58-3.09-.97-4.83-.97-1.55,0-3.28.39-4.83.97s-2.9,1.55-4.25,2.9l.58.58-.58-.58c-1.16,1.16-2.12,2.51-2.9,4.25-.58,1.55-.97,3.09-.97,4.83s.39,3.28.97,4.83,1.55,3.09,2.9,4.25c2.51,2.51,5.6,3.86,9.08,3.67,1.74,0,3.28-.39,4.83-.97s2.9-1.55,4.25-2.9l-.58-.58.58.58,2.12-2.12,4.25,4.25-2.12,2.12c-1.93,1.93-3.86,3.28-6.18,4.25l.39.77-.19-.77c-2.32.97-4.64,1.35-6.95,1.35s-4.83-.39-7.15-1.35l-.39.77.39-.77c-2.32-.97-4.25-2.32-6.18-4.25s-3.28-3.86-4.06-6.18c-.97-2.32-1.35-4.64-1.35-6.95,0-2.51.39-4.83,1.35-7.15s2.32-4.25,4.06-6.18l-.77-.58-.58-.58c-1.93,1.93-3.48,4.25-4.44,6.76s-1.55,5.02-1.55,7.73.58,5.21,1.55,7.73,2.51,4.83,4.44,6.76c1.93,1.93,4.25,3.48,6.76,4.64h0c2.51.97,5.21,1.55,7.73,1.55,2.7,0,5.21-.58,7.73-1.55h0c2.51-.97,4.83-2.51,6.76-4.64l3.28-3.28-6.76-6.76-3.09,3.28h0c-.97,1.16-2.12,1.93-3.48,2.32-1.35.58-2.7.77-4.25.77-3.09,0-5.6-.97-7.73-3.28-1.16-1.16-1.93-2.32-2.51-3.67-.58-1.16-.97-2.51-.97-3.86s.19-2.7.77-4.06c.58-1.35,1.35-2.51,2.32-3.48h0c1.16-1.16,2.32-1.93,3.67-2.51,1.35-.58,2.7-.77,4.06-.77s2.7.19,4.06.77c1.35.58,2.51,1.35,3.67,2.51l3.48,3.28,6.76-6.76-3.28-3.28c-1.93-1.93-4.25-3.48-6.95-4.44l-.39.77.39-.77c-2.51-.97-5.02-1.55-7.73-1.55s-5.21.58-7.73,1.55l.39.77-.39-.77c-2.51.97-4.83,2.51-6.76,4.44l.77.39h0Z"/>
  <path class="st1" d="M96.5,90.81c0,1.55.39,3.09.97,4.64.58,1.55,1.55,2.7,2.51,3.86,1.16.97,2.32,1.93,3.86,2.51s3.09.97,4.64.97,3.09-.19,4.64-.97c1.55-.58,2.7-1.55,3.67-2.51,1.16-1.16,1.93-2.32,2.51-3.86s.97-3.09.97-4.64-.39-3.09-.97-4.64c-.58-1.55-1.35-2.7-2.51-3.67-.97-1.16-2.32-1.93-3.67-2.51-1.55-.58-3.09-.97-4.64-.97s-3.09.39-4.64.97-2.7,1.35-3.86,2.51c-.97.97-1.93,2.32-2.51,3.67-.77,1.35-.97,2.9-.97,4.64M88.78,90.81c0-2.7.58-5.21,1.55-7.53.97-2.32,2.51-4.44,4.25-6.18,1.74-1.74,3.86-3.28,6.37-4.25,2.32-.97,4.83-1.55,7.53-1.55s5.21.58,7.53,1.55c2.32.97,4.44,2.32,6.37,4.25,1.74,1.74,3.28,3.86,4.25,6.18.97,2.32,1.55,4.83,1.55,7.53s-.58,5.21-1.55,7.53c-.97,2.32-2.32,4.44-4.25,6.37-1.74,1.74-3.86,3.28-6.37,4.25-2.32.97-4.83,1.55-7.53,1.55s-5.21-.58-7.53-1.55c-2.32-.97-4.44-2.51-6.37-4.25-1.74-1.74-3.09-3.86-4.25-6.37-1.16-2.32-1.55-5.02-1.55-7.53"/>
  <path class="st1" d="M96.5,90.81h-.97c0,1.74.39,3.48.97,5.02h0c.77,1.55,1.55,2.9,2.7,4.06h0c1.16,1.16,2.51,1.93,4.06,2.7h0c1.55.58,3.28.97,5.02.97s3.48-.39,5.02-.97h0c1.55-.77,2.9-1.55,4.06-2.7,1.16-1.16,2.12-2.51,2.7-4.06l-.77-.39.77.39c.77-1.55.97-3.28.97-5.02s-.39-3.48-.97-4.83l-.77.39.77-.39c-.58-1.55-1.55-2.9-2.7-4.06l-.58.58.58-.58c-1.16-1.16-2.51-2.12-4.06-2.7l-.39.77.39-.77c-1.55-.77-3.28-.97-5.02-.97s-3.48.39-5.02.97l.39.77-.39-.77c-1.55.58-2.9,1.55-4.06,2.7h0c-1.16,1.16-2.12,2.51-2.7,4.06h0c-.58,1.55-.97,3.09-.97,4.83h1.74c0-1.55.19-2.9.77-4.25l-.77-.39.77.39c.58-1.35,1.35-2.51,2.32-3.48h0c.97-.97,2.12-1.74,3.48-2.32h0c1.35-.58,2.7-.97,4.25-.97s2.9.39,4.25.97h0c1.35.58,2.51,1.35,3.48,2.32h0c.97.97,1.74,2.12,2.32,3.48h0c.58,1.35.97,2.7.97,4.25s-.39,2.9-.97,4.25h0c-.58,1.35-1.35,2.51-2.32,3.48s-2.12,1.74-3.48,2.32l.39.77-.39-.77c-1.35.58-2.7.77-4.25.77s-2.9-.19-4.25-.77l-.39.77.39-.77c-1.35-.58-2.51-1.35-3.67-2.32l-.58.58.58-.58c-.97-.97-1.74-2.32-2.32-3.67l-.77.39.77-.39c-.58-1.35-.77-2.7-.77-4.25l-.58.19h0ZM88.78,90.81h.97c0-2.7.39-5.02,1.35-7.34l-.77-.39.77.39c.97-2.32,2.32-4.25,4.06-5.99,1.74-1.74,3.67-3.09,5.99-4.06h0c2.32-.97,4.64-1.55,7.34-1.55s5.02.58,7.15,1.55h0c2.32.97,4.25,2.32,5.99,4.06h0c1.74,1.74,3.09,3.67,4.06,5.99h0c.97,2.12,1.55,4.64,1.55,7.15s-.58,5.02-1.55,7.34h0c-.97,2.32-2.32,4.25-4.06,5.99-1.74,1.74-3.67,3.09-5.99,4.06l.39.77-.39-.77c-2.12.97-4.64,1.35-7.34,1.35-2.51,0-5.02-.39-7.34-1.35l-.19.97.39-.77c-2.32-.97-4.25-2.32-5.99-4.06l-.58.58.58-.58c-1.74-1.74-3.09-3.67-4.06-5.99l-.77.39.77-.39c-.97-2.32-1.35-4.64-1.35-7.34h-1.74c0,2.7.58,5.41,1.55,7.92h0c1.16,2.51,2.51,4.64,4.44,6.57h0c1.93,1.93,4.06,3.28,6.57,4.44h0c2.51.97,5.21,1.55,7.92,1.55,2.9,0,5.6-.58,7.92-1.55h0c2.51-1.16,4.64-2.51,6.57-4.44s3.28-4.06,4.44-6.57l-.77-.39.77.39c1.16-2.51,1.74-5.21,1.74-7.92,0-2.9-.58-5.6-1.74-7.92l-.77.39.77-.39c-.97-2.51-2.51-4.64-4.44-6.57l-.58.58.58-.58c-1.93-1.93-4.06-3.28-6.57-4.44l-.39.77.39-.77c-2.51-1.16-5.21-1.74-7.92-1.74-2.9,0-5.41.58-7.92,1.74l.39.77-.39-.77c-2.51.97-4.64,2.51-6.57,4.44-1.74,1.74-3.28,4.06-4.44,6.57h0c-.97,2.51-1.55,5.02-1.55,7.92h.77Z"/>
  <path class="st1" d="M168.16,71.11v7.73h-23.76c-1.16,0-2.12.39-2.7,1.16-.77.77-1.16,1.74-1.16,2.7,0,1.16.39,2.12,1.16,2.9s1.74,1.16,2.7,1.16h15.64c1.55,0,3.09.39,4.64.97s2.7,1.35,3.67,2.51c1.16.97,1.93,2.32,2.51,3.67.58,1.35.97,2.9.97,4.64,0,1.55-.39,3.09-.97,4.64-.58,1.35-1.35,2.7-2.51,3.67-.97.97-2.32,1.93-3.67,2.51-1.35.58-2.9.97-4.64.97h-23.56v-7.73h23.56c1.16,0,2.12-.39,2.9-1.16.77-.77,1.16-1.74,1.16-2.9s-.39-2.12-1.16-2.7c-.77-.77-1.74-1.16-2.9-1.16h-15.64c-1.55,0-3.09-.39-4.64-.97-1.35-.58-2.7-1.55-3.67-2.51-.97-1.16-1.93-2.32-2.51-3.67-.58-1.55-.97-3.09-.97-4.64s.19-3.09.97-4.64c.58-1.55,1.55-2.7,2.51-3.67s2.32-1.93,3.67-2.51c1.55-.58,3.09-.97,4.64-.97h23.76Z"/>
  <path class="st1" d="M168.16,71.11h-.97v6.95h-22.79c-1.35,0-2.51.39-3.48,1.35s-1.35,2.12-1.35,3.48.39,2.51,1.35,3.48h0c.97.97,2.12,1.35,3.48,1.35h15.64c1.55,0,2.9.39,4.25.97h0c1.35.58,2.51,1.35,3.48,2.32h0c.97.97,1.74,2.12,2.32,3.48h0c.58,1.35.97,2.7.97,4.25s-.39,2.9-.97,4.25h0c-.58,1.35-1.35,2.51-2.32,3.48s-2.12,1.74-3.48,2.32l.39.77-.39-.77c-1.35.58-2.7.77-4.25.77h-22.6v-5.99h22.79c1.35,0,2.51-.39,3.48-1.35s1.35-2.12,1.35-3.48-.39-2.51-1.35-3.48-2.12-1.35-3.48-1.35h-15.64c-1.55,0-2.9-.19-4.25-.77l-.39.77.39-.77c-1.35-.58-2.51-1.35-3.48-2.32l-.58.58.58-.58c-.97-.97-1.74-2.12-2.32-3.48l-.77.39.77-.39c-.58-1.35-.77-2.7-.77-4.25s.19-2.9.77-4.25l-.77-.39.77.39c.58-1.35,1.35-2.51,2.32-3.48s2.12-1.74,3.48-2.32h0c1.35-.58,2.7-.97,4.25-.97h23.76l-.19-.97h-.97.97v-.97h-23.76c-1.74,0-3.48.39-5.02.97l.39.77-.39-.77c-1.55.58-2.9,1.55-3.86,2.7-1.16,1.16-2.12,2.51-2.7,4.06h0c-.58,1.55-.97,3.09-.97,4.83s.39,3.48.97,5.02h0c.77,1.55,1.55,2.9,2.7,4.06h0c1.16,1.16,2.51,2.12,3.86,2.7h0c1.55.58,3.28.97,5.02.97h15.64c.97,0,1.74.39,2.32.97.58.58.77,1.35.97,2.12,0,.97-.19,1.74-.97,2.32-.58.58-1.35.77-2.32.97h-24.53v9.66h24.53c1.74,0,3.28-.39,4.83-.97h0c1.55-.77,2.9-1.55,4.06-2.7,1.16-1.16,2.12-2.51,2.7-4.06l-.77-.39.77.39c.77-1.55.97-3.28.97-5.02s-.39-3.48-.97-4.83l-.77.39.77-.39c-.58-1.55-1.55-2.9-2.7-4.06l-.58.58.58-.58c-1.16-1.16-2.51-1.93-4.06-2.7l-.39.77.39-.77c-1.55-.77-3.09-.97-4.83-.97h-15.64c-.97,0-1.55-.19-2.12-.97l-.58.58.58-.58c-.58-.77-.97-1.35-.97-2.32s.19-1.55.97-2.12c.58-.58,1.35-.77,2.12-.97h24.53v-9.66h-.97l.19.97h0Z"/>
</svg>