<?xml version="1.0" encoding="UTF-8"?>
<svg id="Capa_1" xmlns="http://www.w3.org/2000/svg" version="1.1" viewBox="0 0 241.78 173.92">
  <!-- Generator: Adobe Illustrator 29.4.0, SVG Export Plug-In . SVG Version: 2.1.0 Build 152)  -->
  <defs>
    <style>
      .st0 {
        fill: #5ea6b0;
      }
    </style>
  </defs>
  <path class="st0" d="M132.61,135.82v15.39h49.27v15.11h-49.27v7.6h-22.71v-7.6h-49.09v-15.02h49.09v-15.48C48.45,132.61,0,103.49,0,68.05,0,30.5,54.12,0,120.89,0s120.89,30.5,120.89,68.05c0,35.44-48.08,64.57-109.9,67.77M56.32,68.05c-.78-29.43,15.11-48.7,38.56-58.89C42.77,15.75,7.87,42.04,7.87,68.14s34.89,52.39,87.74,58.89c-23.44-10.19-38.51-29.55-39.29-58.98ZM146.99,9.25c32.52,13.99,47.54,51.71,33.55,84.23-6.48,15.06-18.49,27.07-33.55,33.55,52.85-6.5,87.65-32.79,87.65-58.89S200.2,15.75,146.99,9.25"/>
</svg>