<?xml version="1.0" encoding="UTF-8"?>
<svg id="Layer_1" xmlns="http://www.w3.org/2000/svg" version="1.1" viewBox="0 0 39.38 27.38">
  <!-- Generator: Adobe Illustrator 29.4.0, SVG Export Plug-In . SVG Version: 2.1.0 Build 152)  -->
  <defs>
    <style>
      .st0 {
        fill: none;
        stroke: #5ea6b0;
        stroke-miterlimit: 10;
        stroke-width: .75px;
      }

      .st1 {
        fill: #5ea6b0;
      }
    </style>
  </defs>
  <path class="st0" d="M29.5,6c-2.5,0-4.8,1-6.5,2.6-1.7-1.6-4-2.6-6.5-2.6-5.2,0-9.5,4.3-9.5,9.5v11.5h6v-12.5c0-1.9,1.6-3.5,3.5-3.5s3.5,1.6,3.5,3.5v12.5h6v-12.5c0-1.9,1.6-3.5,3.5-3.5s3.5,1.6,3.5,3.5v12.5h6v-11.5c0-5.2-4.3-9.5-9.5-9.5Z"/>
  <path class="st1" d="M1.5,6.2h1v15.8h-1V6.2Z"/>
  <path class="st1" d="M18,3c1.1.4,2.6,2,3,3-1.8,1.7-2.6,2.9-3,6-.1,1.1-.9,1.7-2,1-3.1-1.9-6-2-8-2-1-1-.5-3.7,0-5l6,1,4-4Z"/>
  <path class="st1" d="M14,7H0L11,0h14l-11,7Z"/>
  <path class="st1" d="M3.5,20c0-2.2-.7-4-1.5-4s-1.5,1.8-1.5,4,.7,4,1.5,4,1.5-1.8,1.5-4Z"/>
</svg>