<?xml version="1.0" encoding="UTF-8"?>
<svg id="Layer_1" xmlns="http://www.w3.org/2000/svg" version="1.1" viewBox="0 0 37.03 38">
  <!-- Generator: Adobe Illustrator 29.4.0, SVG Export Plug-In . SVG Version: 2.1.0 Build 152)  -->
  <defs>
    <style>
      .st0 {
        fill: none;
        stroke: #fff;
        stroke-miterlimit: 10;
      }
    </style>
  </defs>
  <path class="st0" d="M32.73,4.41c-8.93-5.16-19.34-5.28-28.43,0-5.13,9.33-5.01,20.03,0,29.19,9.08,5.26,19.49,5.14,28.41,0,5.02-9.16,5.14-19.85,0-29.18Z"/>
  <g>
    <path class="st0" d="M13.93,15.23c.53-.3,1.02-.63,1.5-.94,1.04-.69,1.95-1.25,2.95-1.62v-5.79h-4.57v8.42s.08-.04.12-.06h0Z"/>
    <path class="st0" d="M23.76,25.75c-.57.51-1.32.82-2.14.82-1.77,0-3.22-1.44-3.22-3.22v-4.71h6.42v-4.56h-3.5c-2.04,0-3.12.65-4.84,1.79-.51.33-1.03.68-1.61,1.01-.21.12-.43.23-.63.33-.15.08-.3.15-.46.22-.17.07-.33.15-.5.21-1.19.48-2.53.78-3.99.91v.07h4.57v4.71c0,4.28,3.48,7.76,7.76,7.76,1.74,0,3.35-.58,4.65-1.55l-2.5-3.81h0Z"/>
  </g>
</svg>