<?xml version="1.0" encoding="UTF-8"?>
<svg id="Layer_1" xmlns="http://www.w3.org/2000/svg" version="1.1" viewBox="0 0 66.83 89.99">
  <!-- Generator: Adobe Illustrator 29.4.0, SVG Export Plug-In . SVG Version: 2.1.0 Build 152)  -->
  <defs>
    <style>
      .st0 {
        fill-rule: evenodd;
      }

      .st0, .st1 {
        fill: #fff;
      }
    </style>
  </defs>
  <g id="logo-uc-white">
    <path id="Path" class="st0" d="M44.37,40.21c.28,0,.54-.17.64-.42s.05-.56-.15-.76c-.2-.2-.5-.26-.76-.15s-.43.36-.43.64c0,.38.31.69.69.69"/>
    <path id="Path1" data-name="Path" class="st0" d="M22.42,67.05c-.12,0-.21.09-.21.21s.09.21.21.21.21-.09.21-.21-.09-.21-.21-.21"/>
    <path id="Path2" data-name="Path" class="st0" d="M31.01,67.46c.11,0,.2-.09.2-.2s-.09-.2-.2-.2-.2.09-.2.2c0,.05.02.11.06.14.04.04.09.06.14.06"/>
    <path id="Shape" class="st1" d="M16.55,63.67c.38.26.66.64.79,1.08-.45.11-.92.06-1.34-.14-.38-.26-.66-.64-.79-1.08.45-.11.92-.06,1.34.14h0ZM15.78,60.31c.42.04.81.23,1.11.52.25.34.37.76.34,1.18-.42-.04-.81-.23-1.11-.53-.25-.34-.37-.76-.34-1.18h0ZM16.71,62.26c.33.32.54.74.59,1.2-.46.03-.92-.1-1.29-.37-.33-.32-.54-.74-.59-1.2.46-.03.91.1,1.29.37h0ZM16.73,58.83c1.18-.01,2.32.42,3.19,1.2l-.15.18c-.63-.37-1.36-.56-2.09-.56-2,0-3.35,1.35-3.35,3.03-.02,1.43,1,2.66,2.41,2.92.96.22,1.14.75,1.14,1.03v.29h-.84c-.04-.32-.33-.51-1.15-.68-2.05-.42-3.2-1.77-3.2-3.67,0-2.08,1.65-3.75,4.06-3.75l-.02.02ZM18,60.83c.29-.3.68-.49,1.1-.54.03.42-.09.84-.33,1.18-.29.3-.69.49-1.1.53-.03-.42.09-.83.33-1.17h0ZM18.16,62.24c.37-.27.83-.4,1.29-.37-.05.46-.26.88-.59,1.2-.37.27-.83.4-1.29.37.05-.46.26-.88.59-1.2h0ZM18.89,64.6c-.42.2-.89.25-1.33.14.13-.44.41-.82.79-1.08.41-.2.89-.25,1.33-.14-.13.44-.41.83-.79,1.08h0ZM18.43,71.19c-.1.46-.5.78-.97.78s-.87-.32-.97-.78l.36-3.54h1.23l.36,3.54ZM22.19,62.86h2.42c.23,0,.42.19.42.42v.58h.54v-.58c0-.41-.26-.77-.64-.91l-.18-.07.16-.11c.56-.39,1.22-.59,1.9-.6.73,0,1.44.25,2.03.69l.13.1-.15.08c-.32.17-.52.5-.53.86v.58h.54v-.58c0-.23.19-.42.42-.42h2.42v.1c0,.2-.03.41-.1.6h-1.64v.27h1.54c-.22.49-.71.81-1.25.8h-.63v.55h1.15v.95h-7.77v-.95h1.34v-.55h-.63c-.54,0-1.03-.31-1.25-.8h1.51v-.27h-1.65c-.06-.19-.09-.4-.1-.6l-.02-.13ZM28.05,67.63s.08-.62.08-.83h.45c-.2.27-.38.54-.54.83h0ZM26.05,66.8h1.32l-.08,1.87c-.29.15-.58.28-.89.4l-.26.1-.1-2.37ZM32.09,67.27l-.03.21c-.29.29-.69.44-1.1.42-.6,0-.95-.29-1.22-.03-.29.33-.54.69-.73,1.08-.19.36-.48.66-.84.86-.38.21-.78.39-1.18.55-.27.11-.54.23-.79.35h0c-.49.22-.84.47-.84.87,0,.28.28.5.66.71-.26.14-.51.3-.74.47-.42-.25-.7-.69-.73-1.18.01-.57.33-1.08.84-1.35.41-.22.82-.41,1.25-.57.38-.14.75-.31,1.1-.52h0c.22-.12.4-.31.52-.53.84-1.62,1.74-1.98,2.42-1.97.52.05,1.01.28,1.38.63h.01ZM26.36,71.52c0-.2.16-.36.36-.36s.36.16.36.36-.16.36-.36.36c-.1,0-.19-.04-.25-.1-.07-.07-.11-.16-.11-.25h0ZM27.59,73.11h0l-.32.16c-.36.16-.7.35-1.02.57l-.07.05-.03.03h0c-.15.09-.24.25-.26.42,0,.22.13.41.33.5-.21.16-.41.34-.6.54-.36-.22-.57-.62-.54-1.03.01-.42.22-.81.57-1.05h.03c.37-.26.77-.49,1.18-.69l.42-.22c.47-.24.84-.47.84-.79s-.22-.53-.56-.72c.28-.12.56-.25.84-.38.34.27.54.68.54,1.11,0,.73-.66,1.19-1.31,1.53h-.03ZM27.51,75.67c-.24.1-.46.24-.65.42-.06.06-.1.13-.11.22,0,.08.02.17.08.23.06.06.14.1.22.11.09,0,.17-.02.23-.08.12-.11.26-.2.42-.27.03.09.05.18.05.28-.03.41-.32.75-.72.83v.44c.01.1-.04.21-.12.26-.09.06-.2.06-.29,0-.09-.06-.14-.16-.12-.26v-.44c-.4-.09-.69-.43-.72-.83,0-.18.05-.36.15-.52.32-.5.69-.72,1.41-1.21l.07-.05h0l.04-.03c.1-.1.16-.23.16-.38-.01-.16-.1-.3-.23-.39l.18-.1c.2-.1.38-.19.56-.29.18.22.29.49.29.77-.01.59-.38,1.11-.92,1.33l.04-.05ZM24.85,66.87h.45c0,.22.05.83.05.83-.15-.29-.32-.57-.51-.83h0ZM24.44,69.02c-.19-.39-.44-.75-.73-1.08-.27-.27-.62.03-1.22.03-.41.02-.81-.13-1.1-.42l-.04-.21c.38-.36.87-.58,1.38-.63.69,0,1.61.35,2.42,1.97.19.27.45.48.76.6-.29.12-.57.26-.84.42-.27-.19-.49-.44-.64-.73v.06ZM10.32,60.95l1.67.95c-.03.22-.05.44-.05.66,0,2.2,1.25,3.9,3.81,4.42.2.04.33.08.42.11l-.42,4.09v.04c.1.88.85,1.55,1.74,1.55s1.64-.67,1.74-1.55v-.04l-.42-4.26h-.13v-.29c0-.44-.2-.86-.52-1.16.38.01.76-.08,1.1-.27.49-.31.86-.8,1.01-1.36l.13-.47,1.18-.67v.29c0,.66.26,1.29.72,1.76v1.16c-.55.14-1.05.41-1.47.79l-.32.29.1.56.05.18c.18.52,1.01.96,1.84.96.26,0,.52-.04.78-.1h0c.18.23.33.47.46.73.16.3.37.57.64.8-.41.43-.62,1.02-.57,1.61s.35,1.14.83,1.5c-.23.33-.35.72-.35,1.11-.01.65.28,1.26.78,1.67-.07.18-.11.37-.12.57,0,.55.29,1.05.75,1.35,0,.58.47,1.04,1.05,1.04s1.05-.47,1.05-1.04c.45-.3.73-.81.74-1.35,0-.19-.05-.39-.12-.57.51-.4.8-1.02.78-1.67,0-.4-.12-.79-.35-1.11.48-.36.78-.9.83-1.5.05-.59-.16-1.18-.57-1.61.26-.22.47-.49.63-.8.13-.26.29-.5.46-.73h0c.25.07.51.1.77.1.84,0,1.67-.44,1.84-.96,0-.04.05-.18.05-.18l.1-.55-.33-.3c-.35-.32-.76-.56-1.21-.72v-1.06c.59-.47.93-1.18.92-1.93v-.74h-2.51c-.76-.83-1.84-1.3-2.96-1.3s-2.2.47-2.96,1.3h-1.54l2.24-1.29c.1-.06.13-.18.08-.28-.03-.05-.07-.08-.12-.09-.05-.01-.11,0-.15.02l-4.21,2.42-.35-.09c.13-.26.21-.54.25-.83l.04-.49,3.06-2.56c.06-.05.08-.12.07-.19s-.06-.13-.13-.15c-.07-.02-.14-.01-.2.03l-3.08,2.57h-.14c.03-.1.05-.2.07-.28l1.02-1.21-.35-.33-.21-.18,1.36-1.62s.05-.09.05-.15c0-.05-.03-.1-.07-.14-.09-.07-.21-.06-.28.02l-1.37,1.63c-.93-.64-2.05-.99-3.18-.98-.76,0-1.51.15-2.2.46l-.94-1.11s-.08-.07-.14-.07-.11.01-.15.04c-.08.07-.1.2-.03.28l.88,1.05c-.42.24-.8.55-1.13.9l-1.08-.9c-.06-.05-.13-.06-.2-.03-.07.02-.12.08-.13.15-.01.07.01.14.07.19l1.08.9c-.35.46-.6.99-.74,1.55l-1.54-.88s-.1-.04-.15-.02-.1.05-.12.09c-.03.05-.04.1-.02.15.01.05.05.1.09.12v-.02Z"/>
    <path id="Shape1" data-name="Shape" class="st1" d="M51.31,68.14c-1.01,0-1.83-.82-1.84-1.83h3.66c0,.48-.19.95-.53,1.29-.34.34-.81.54-1.29.54h0ZM47.4,73.59c-.23.02-.46,0-.68-.05-.32-.08-.79-.5-1.36-.77l.42-5.64c.1,0,.2.02.3.04.35.1.67.27.96.49.41.31.87.54,1.37.67.39.1.79.17,1.2.21-.28.73-2.2,5.05-2.2,5.05h0ZM44.47,75.21c0,.15-.12.27-.27.27s-.27-.12-.27-.27l-.96-13.44h-6.19c-.41,0-.74-.33-.74-.74s.33-.74.74-.74.74.33.74.74v.05c1.34.09,4.05.17,5.92-1.2-.39-.42-.37-1.07.04-1.46.41-.4,1.06-.4,1.47,0,.41.4.43,1.05.04,1.46,1.87,1.37,4.6,1.3,5.93,1.2v-.05c0-.41.33-.74.74-.74s.74.33.74.74-.33.74-.74.74h-6.23l-.96,13.44ZM42.57,72.38c-.15-.45-.49-.8-.93-.97-.46-.1-.93-.11-1.4-.03-.57.08-1.14.07-1.71-.05-.28-.08-.55-.19-.8-.34.3-.46,2.65-4.17,2.93-4.62.28.14.58.25.9.32.34.08.69.1,1.03.08l.39,5.36c-.15.05-.3.13-.42.24h0ZM37.13,68.14c-1.01,0-1.84-.82-1.84-1.83h3.67c0,1.01-.82,1.83-1.83,1.83h0ZM39.03,65.59l-1.41-3.09h4.68l.26,3.61c-.28.02-.56,0-.84-.06-.34-.08-.67-.21-.96-.4l-.28-.2-.19.29-.66,1c.02-.14.04-.29.04-.44v-.72h-.64ZM37.13,62.75l1.28,2.84h-2.57l1.29-2.84ZM49.25,67.79c-.22-.02-.45-.06-.66-.11-.42-.11-.8-.31-1.14-.57-.35-.27-.75-.48-1.18-.59-.14-.03-.28-.04-.42-.05l.28-3.97h4.68l-1.39,3.09h-.66v.72c0,.53.17,1.05.48,1.48h.03ZM52.58,65.59h-2.56l1.28-2.84,1.28,2.84ZM53.21,65.59l-1.39-3.09c.7-.07,1.25-.63,1.31-1.33s-.4-1.34-1.08-1.52c-.68-.18-1.4.14-1.7.77-1.85.07-3.35-.18-4.42-.76.04-.16.06-.32.06-.49,0-.69-.39-1.33-1.02-1.63s-1.37-.2-1.91.24c-.53.44-.76,1.16-.58,1.83-1.08.58-2.56.83-4.4.77-.31-.63-1.02-.96-1.7-.77s-1.13.82-1.08,1.52c.05.7.59,1.26,1.29,1.34l-1.4,3.1h-.64v.72c0,.93.51,1.79,1.34,2.24.82.45,1.83.41,2.61-.1l-1.49,2.25h0v.03h0l-.18,1.11,4.8.96c-.06.25.42.55.71.63.25.06.52.04.76-.05l.13,1.87v-.05c0,.55.45.99,1,.99s1-.44,1-.99h0l.09-1.3,2.74.88,2.36-5.78v-.33c.29.12.61.18.92.18,1.41,0,2.56-1.14,2.56-2.55v-.72l-.7.06Z"/>
    <path id="Shape2" data-name="Shape" class="st1" d="M17.13,43.38c.54-.01,1.09.05,1.61.17.43-.07.87-.11,1.31-.12.72,0,1.45.72,1.45.72l-.07.38s-.34.42-1.35.42c-.59,0-1.09-.38-1.49-.51-.48-.14-.98-.21-1.48-.21-1.16.07-2.04,1.06-1.99,2.21,0,1.25.73,1.88,1.47,2.42.84.63,1.44.9,1.67,1.1l-.11.03c-.21.06-.4.19-.53.37-1.55-.58-3.35-1.62-3.35-3.92-.04-.78.25-1.55.78-2.12s1.28-.92,2.06-.95h0ZM23.2,45.66v.8c0,1.09-.84,1.7-1.59,2.23-.31.22-.94.64-.94.64l-1.58.42c-.26-.42-.87-.71-1.36-1.06-.74-.53-1.59-1.14-1.59-2.23v-.8h7.06ZM21.02,52.33l-2.39.66c-.15.09-.34.08-.48-.03-.14-.11-.19-.3-.13-.46s.22-.28.4-.28l2.39-.67c.15-.09.34-.07.48.04.14.11.19.3.13.46-.06.17-.21.28-.39.28h0ZM18.34,50.57l2.39-.67c.19,0,.36.12.41.3.05.18-.03.37-.19.47l-2.39.67c-.19,0-.36-.12-.41-.3-.05-.18.03-.37.19-.47h0ZM21.73,54.88v.12h-4.14v-.1c0-.42,1.02-.93,1.44-1.36l1.1-.3c.03.48,1.61,1.14,1.61,1.67v-.03ZM21.74,40.12h3.89v-4.48h2.21v4.45h3.88v2.2h-3.88v12.7h-2.21v-12.7h-3.89v-2.17ZM13.48,46.45c0,2.79,2.15,4.05,3.97,4.71.05.27.21.51.45.66-.11.08-.2.18-.27.3-.13.23-.16.51-.09.76.06.22.2.41.39.55-.46.31-1.15.79-1.15,1.55v.58h5.78v-.57c0-.9-.95-1.35-1.37-1.71-.08-.07-.18-.16-.25-.22v-.06s.98-.24.98-1.04c-.01-.34-.19-.65-.47-.83.11-.08.2-.19.27-.3.13-.23.16-.51.1-.76-.04-.15-.12-.3-.23-.42.18-.1.36-.21.5-.3.81-.58,1.93-1.38,1.93-2.88v-1.6h-1.83l.09-.5c.2-.11.43-.18.66-.21.25,0,.51.22.77.22s.34-.14.33-.21c0-.07-.15-.09-.3-.09-.22,0-.47-.32-.84-.32-.2.01-.39.05-.58.11-.3-.29-.61-.55-.95-.79h3.48v12.5h3.73v-12.5h3.88v-3.73h-3.88v-4.46h-3.73v4.46h-3.89v3.52c-.3-.13-.61-.2-.93-.23-.4,0-.79.05-1.18.12-.57-.1-1.16-.16-1.74-.17-1,.03-1.95.46-2.63,1.19-.68.73-1.05,1.7-1.01,2.69h0Z"/>
    <path id="Shape3" data-name="Shape" class="st1" d="M49.89,47.41c0-.77.42-1.25,1.08-1.25.17-.01.34.04.47.15.13.11.2.27.21.44.01.13-.03.25-.12.34s-.21.13-.34.12c-.18.05-.31.21-.31.4s.13.35.31.4c.34.01.66-.12.9-.35.24-.24.37-.56.35-.9,0-.38-.16-.75-.44-1.01-.28-.26-.66-.4-1.04-.38-.75-.03-1.43.42-1.7,1.11l-.76-1.96h2.22c1.56,0,2.51.91,2.51,2.36,0,1.06-.87,1.92-1.94,1.92-.38.01-.74-.13-1.01-.39-.27-.26-.41-.63-.4-1h0ZM51.8,55.02l-.2.11-7.39-12.87h.16c.78,0,1.53-.34,2.05-.92,1.67,4.21,5.39,13.67,5.38,13.67h0ZM49.51,53.93h-1.36v-3.37l1.36,2.38v.99ZM47.28,53.93h-1.36v-5.02c0-.24-.19-.43-.43-.43s-.43.19-.43.43v5.03h-1.36v-5.03c0-.24-.19-.43-.43-.43s-.43.19-.43.43v5.03h-1.36v-4.86l.79-1.37h4.26l.78,1.35v4.86ZM40.59,53.93h-1.36v-.98l1.36-2.38v3.35ZM44.09,44.51h.59l1.37,2.39h-3.35l1.39-2.39ZM37.13,55.13l-.2-.11s3.73-9.47,5.39-13.67c.26.28.57.51.92.67l.72,1.25-6.82,11.86ZM37.46,48.8c-1.06,0-1.92-.86-1.92-1.92,0-1.45.97-2.36,2.51-2.36h2.22l-.78,1.98c-.27-.7-.96-1.15-1.71-1.12-.38-.02-.76.12-1.04.38-.28.26-.44.63-.44,1.01-.01.33.12.66.35.9.24.24.56.36.9.35.18-.05.31-.21.31-.4s-.13-.35-.31-.4c-.13.01-.25-.03-.34-.12-.09-.09-.14-.21-.12-.34,0-.17.08-.33.21-.44.13-.11.3-.17.47-.15.67,0,1.07.46,1.07,1.25.01.37-.13.74-.4,1-.27.26-.63.41-1,.39h.01ZM44.36,37.56c.79,0,1.51.47,1.82,1.2.3.73.14,1.57-.42,2.13-.56.56-1.41.73-2.14.42s-1.21-1.02-1.21-1.81c0-1.08.88-1.95,1.96-1.95h0ZM54.03,46.88c0-1.89-1.34-3.17-3.35-3.17h-2.54l-1.25-3.15c.14-.33.21-.69.21-1.05.02-1.13-.65-2.16-1.7-2.6-1.05-.44-2.26-.19-3.05.62-.79.81-1.01,2.02-.55,3.05l-1.25,3.14h-2.51c-1.99,0-3.35,1.27-3.35,3.17,0,1.51,1.24,2.73,2.75,2.72.3,0,.6-.05.87-.16l-1.12,2.86-.97,2.48c-.25.63.18.81.18.81l.56.29c.35.19.64-.06.82-.38l.64-1.12v.29h11.9v-.3l.65,1.13c.18.32.47.57.82.38l.56-.29s.42-.17.18-.81l-.97-2.48-1.13-2.85c.28.11.57.16.87.16,1.51,0,2.74-1.21,2.75-2.72h-.02Z"/>
    <path id="Path3" data-name="Path" class="st0" d="M20.18,44.28c.11,0,.2-.09.2-.2s-.09-.2-.2-.2-.2.09-.2.2.09.2.2.2"/>
    <path id="Shape4" data-name="Shape" class="st1" d="M44.11,19.49c.46-.36.88-.77,1.25-1.22l.1-.03.18-.03v.07l.06.34v.04l-.03.02c-.67.47-1.16,1.17-1.36,1.97l-.05.21-.09-.2-.03-.06v-.47c0-.2-.02-.39-.07-.58v-.04l.03-.03ZM43.62,20.54c.04.3.18.58.39.79.25.16.52.28.8.36h0c-.02-.12-.03-.25-.03-.38,0-1.45,1.41-2.35,1.41-2.35.04-.08.07-.16.09-.25l-.17-.96c0-.13,0-.19-.18-.15l-.84.16c-.48.57-1.02,1.1-1.61,1.56.13.39.18.8.15,1.21h0Z"/>
    <path id="Path4" data-name="Path" class="st0" d="M46.64,17.08c.07.48.1.96.09,1.45.27-.22.45-.53.51-.88-.02-.45-.08-.89-.19-1.33-.04-.07-.54-.69-.79-.69-.11,0-.26.16-.36.42-.13.26-.28.51-.44.75v.08c.37,0,1.13,0,1.2.17"/>
    <path id="Path5" data-name="Path" class="st0" d="M15.14,23.57l.65.79c.35-.28.72-.53,1.1-.75,0-.05,0-.1,0-.15,0-.42.25-.8.63-.98.14-.07.29-.1.45-.1.32,0,.63.14.84.38.38-.13.77-.24,1.17-.32l-.2-1c-.84.16-1.66.42-2.43.78-.78.36-1.5.82-2.17,1.36"/>
    <path id="Path6" data-name="Path" class="st0" d="M13.6,21.59l.63.83c.51-.41,1.04-.77,1.61-1.09,0-.04,0-.09,0-.13,0-.42.25-.8.63-.98.14-.07.3-.1.45-.1.3,0,.59.13.8.35.57-.21,1.15-.37,1.74-.48-.03-.12-.23-1-.23-1-2.07.39-4.01,1.28-5.63,2.61"/>
    <path id="Path7" data-name="Path" class="st0" d="M14.78,19.05s0-.07,0-.1c0-.42.24-.8.62-.98.14-.07.3-.1.46-.1.29,0,.58.12.78.33.73-.28,1.49-.5,2.26-.65-.1-.42-.17-.66-.21-.8-.07,0-.13,0-.2,0-.35.01-.69.06-1.02.15l-.16.05c-.34.1-.7.16-1.06.17-.49.02-.97-.18-1.29-.55-.15-.18-.2-.19-.22-.19-.04,0-.07.02-.11.04q-.11.05-.11.14c0,.07,0,.13,0,.2.01.08.02.17.02.25,0,.93-.84,1.51-1.25,1.78l-.13.1c-.35.22-.66.5-.9.83.08.12.22.33.48.68.64-.51,1.33-.97,2.05-1.36"/>
    <path id="Shape5" data-name="Shape" class="st1" d="M38.62,17.04c.27.38.54.73.78,1.02-.43.38-.75.85-.95,1.39l-.42-.12c.01-.19.01-.37,0-.56,0-.49-.05-.98-.13-1.46l.69-.27M37.5,19.67l1.25.35c.2-.76.65-1.44,1.29-1.9-.46-.51-.87-1.06-1.25-1.63-.55.24-1.12.42-1.37.52.12.58.18,1.18.18,1.77,0,.3-.03.6-.1.9"/>
    <path id="Shape6" data-name="Shape" class="st1" d="M28.89,17.31c-.08.48-.13.97-.13,1.46,0,.19.01.38.04.56l-.42.12c-.19-.54-.52-1.01-.95-1.39.24-.29.51-.63.78-1.02.24.1.46.19.69.27M26.75,18.11c.64.46,1.1,1.13,1.3,1.89l1.25-.35c-.07-.29-.1-.59-.1-.9,0-.6.06-1.19.18-1.77-.25-.08-.84-.29-1.37-.52-.38.57-.8,1.12-1.25,1.63"/>
    <path id="Shape7" data-name="Shape" class="st1" d="M28.61,21.25l.76-.21c.19.34.41.66.66.95-.55.22-1.12.4-1.7.53.16-.41.25-.84.28-1.28M27.45,23.2c1.16-.2,2.28-.55,3.35-1.05-.49-.48-.89-1.05-1.19-1.67-.22.07-.64.18-1.44.4.02.83-.23,1.64-.72,2.31"/>
    <path id="Shape8" data-name="Shape" class="st1" d="M33.41,21.79c.11.14.22.27.34.39l-.34.2-.34-.2c.12-.13.24-.26.34-.39M32.32,22.24c.35.25.71.47,1.09.67.38-.19.75-.41,1.09-.66-.44-.35-.81-.78-1.09-1.27-.28.49-.65.92-1.09,1.27"/>
    <path id="Shape9" data-name="Shape" class="st1" d="M27.65,13c.14,0,.25.33.25.45-.03.41-.15.81-.35,1.17-.21-.19-.33-.46-.33-.74,0-.45.26-.87.42-.87M27.69,15.32c.36-.57.59-1.21.66-1.88,0-.32-.27-.91-.71-.91s-.9.65-.9,1.33c.05.61.4,1.16.94,1.45"/>
    <path id="Shape10" data-name="Shape" class="st1" d="M37.44,21.05l.76.21c.02.44.11.87.26,1.28-.57-.14-1.13-.32-1.67-.53.25-.3.47-.62.66-.95M39.37,23.2c-.49-.67-.74-1.48-.72-2.31-.8-.21-1.22-.33-1.43-.4-.3.62-.7,1.18-1.2,1.67,1.06.5,2.19.85,3.35,1.05"/>
    <path id="Shape11" data-name="Shape" class="st1" d="M30.62,17.92c.53.17,1.06.39,1.06.39-.36-.02-.7.16-.88.48l-.22.06v-.07c0-.29.02-.57.05-.86h0ZM32.5,19.45s.09.76-.86,1.6c-.15-.16-.29-.33-.42-.5,1.16-.31,1.29-1.1,1.29-1.1h0ZM31.07,19.17s.09-.03.14-.06v-.04c0-.2.14-.37.33-.42.04,0,.08,0,.12,0,.2,0,.37.14.42.33.05.48-.26.92-.73,1.02l-.87.25c.28.53.66,1.01,1.12,1.41.87-.63,1.3-1.37,1.3-2.19,0-1.17-1.25-1.71-2.66-2.2-.1.49-.15.99-.15,1.49,0,.22.02.44.07.66l.9-.26Z"/>
    <path id="Shape12" data-name="Shape" class="st1" d="M39.16,13c.17,0,.42.42.42.87,0,.28-.12.55-.33.74-.2-.36-.32-.76-.35-1.17,0-.12.11-.45.25-.45M40.04,13.88c0-.69-.42-1.33-.89-1.33s-.69.59-.69.91c.07.67.3,1.31.66,1.88.54-.29.89-.84.94-1.45"/>
    <path id="Shape13" data-name="Shape" class="st1" d="M34.31,19.44s.13.79,1.29,1.1c-.13.17-.27.34-.42.5-.95-.83-.87-1.6-.87-1.6M36.18,17.92c.03.29.05.57.05.86,0,.02,0,.04,0,.07l-.22-.06c-.18-.32-.53-.51-.9-.48,0,0,.53-.22,1.06-.39M35.2,21.66c.46-.4.83-.87,1.12-1.4l-.87-.26c-.48-.11-.79-.57-.71-1.05.05-.19.22-.32.42-.33.04,0,.08,0,.12,0,.19.05.33.22.33.42v.04s.09.04.13.06l.9.25c.05-.22.07-.44.07-.66,0-.5-.04-1-.13-1.49-1.41.49-2.66,1.03-2.66,2.2,0,.83.42,1.56,1.3,2.19"/>
    <polygon id="Path8" data-name="Path" class="st0" points="50.56 22.77 50.74 21.36 52.15 21.12 50.85 20.5 51.04 19.1 50.04 20.13 48.75 19.54 48.76 19.54 49.43 20.77 48.43 21.8 49.86 21.52 50.56 22.77"/>
    <path id="Shape14" data-name="Shape" class="st1" d="M48.35,18.96c.47-.68.24-1.76.24-1.76h.03c.25.2.54.35.84.46.33.11.68.17,1.03.18.46.02.9-.17,1.2-.51.08-.09.11-.12.13-.12.02.06.02.13,0,.2,0,.07,0,.14,0,.22,0,.96.98,1.62,1.36,1.8.24.11.49.2.75.26v.04c-.49.23-.89.63-1.11,1.12-.51,1.03-.1,2.22-.36,2.7-.22.44-.68.72-1.17.71-.12,0-.24-.01-.36-.04l-.72-.19c-.46-.15-.94-.24-1.43-.27h-.03c-.33-.36-.71-.68-1.13-.94l-.63-.46c-.34-.27-.81-.91-.42-1.57.39-.66,1.13-.9,1.77-1.83M46.1,20.56c-.11.24-.16.49-.16.75,0,.58.28,1.12.74,1.47l.65.47c.4.25.76.56,1.07.92l.1.13h.28c.44.03.87.11,1.29.25l.74.19c.15.03.31.05.46.05.71,0,1.35-.4,1.67-1.03.13-.3.18-.63.17-.96v-.53c0-.3.03-.6.09-.9.01-.06.03-.13.05-.19h0l.07-.18c.23-.41.59-.73,1.02-.92l.18-.15-.11-.74-.22-.04c-.27-.05-.53-.13-.78-.25-.22-.1-1.05-.62-1.05-1.31,0-.05,0-.09,0-.14,0-.08,0-.15,0-.23,0-.22-.13-.42-.34-.5-.08-.04-.17-.07-.27-.07-.2.02-.38.14-.49.3-.2.22-.49.34-.79.32-.28-.01-.57-.06-.84-.15-.29-.11-.56-.27-.8-.48l-.17-.15-.19.12-.3.18-.18.11.04.21c.05.23.08.46.09.7,0,.22-.04.44-.13.65l-.1.18-.1.14c-.25.32-.54.6-.87.83-.35.23-.64.55-.84.91"/>
    <path id="Path9" data-name="Path" class="st0" d="M24.6,22.08c.39,0,.35-.44.5-.59.15-.15.59-.09.59-.5s-.44-.35-.59-.5c-.14-.14-.08-.59-.5-.59-.26,0-.39.2-.39.49v1.19c0,.29.13.5.39.5"/>
    <path id="Path10" data-name="Path" class="st0" d="M11.48,26.27c-.22-.18-.46-.21-.63,0-.25.3.12.54.14.75.02.21-.3.51,0,.77.3.26.55-.11.76-.13.2-.02.5.32.77,0,.16-.2.1-.42-.13-.62l-.9-.77Z"/>
    <path id="Shape15" data-name="Shape" class="st1" d="M33.6,89.17c-12.29.08-23.57-6.73-29.2-17.61C-1.21,60.67-.21,47.56,7,37.65c.24-.09.46-.23.65-.4.34-.34.56-.78.62-1.25,6.19-7.48,15.41-11.82,25.14-11.82s18.95,4.33,25.14,11.82c.06.76.56,1.41,1.28,1.67,7.15,9.86,8.18,22.87,2.65,33.72-5.52,10.85-16.67,17.71-28.87,17.78h0ZM8.93,34.02c-.32.33-.63.68-.92,1.05-.03-.05-.06-.1-.1-.15-.14-.16-.33-.25-.54-.26-.13,0,.08-.1.27-.17s1.29-.47,1.29-.47h0ZM4.85,35.49c0-.72.42-1.35,1.25-1.87.26-.17.54-.31.84-.42l1.25-.55.56-.26h-.31c-2,0-2.93-.5-2.93-1.57.02-.23.22-.4.45-.4s.42.17.45.4c0,.12.03.23.12.32.37.37,1.53.37,1.92.37,1.03-.04,2.02-.36,2.89-.91-.74-.08-1.43-.38-2-.86-1.49-1.18-1.75-3.34-.58-4.84.8-.97,1.98-1.56,3.24-1.63.23.02.4.21.4.44s-.17.42-.4.44c-1,.07-1.92.54-2.56,1.31-.4.51-.58,1.16-.51,1.8.07.71.43,1.35.99,1.79.48.4,1.07.63,1.7.66.77-.03,1.49-.42,1.94-1.04l.11-.09c.67-.73,1.56-1.82,1.78-2.11s.93.21.63.62c-.88,1.16-1.85,2.25-2.89,3.26q-.16.16-.18.17c-.85.8-1.78,1.51-2.76,2.13l-1.63.83h0l-1.31.57c-.24.09-.48.2-.7.33-.6.38-.87.75-.84,1.2,0,.3.21.56.5.63.42,0,.49-.36.49-.58,0-.24.2-.44.44-.44.24,0,.44.2.44.44.03.39-.11.77-.38,1.05-.27.28-.65.43-1.04.41-.65,0-1.37-.69-1.37-1.62h.01ZM8.05,23.1v-.8h.35v-.75h-1.02v.75h.35v.8h-1.37v-.8h.35v-.75h-.35v-1.14h4.45c.6.42.68.68.69,1.16h-2.43v.75h.35v.8l-1.38-.02ZM12.38,22.92c-.13-.07-.27-.11-.42-.11-.68.04-1.34.22-1.94.53v-1.18h1.78c.08.1.33.42.58.76h0ZM13.14,26.44c.28.22.46.55.47.9.03.35-.08.7-.31.98-.23.27-.56.44-.91.47-.19-.01-.38-.05-.56-.1-.2.11-.42.17-.65.19-.72,0-1.31-.57-1.33-1.29,0-.16.04-.32.09-.48-.09-.17-.16-.35-.19-.54-.03-.35.08-.7.31-.97.23-.27.55-.44.91-.47h.11c.32,0,.62.11.86.32.03.03.06.06.09.09l1.3-1.57c.24.04.45.16.62.33.14.2.23.43.25.67l-1.16,1.4s.08.04.11.08h0ZM13.86,26.44l.67-.81c.24.28.34.42.49.58-.26.33-.56.7-.88,1.1h0c-.03-.31-.13-.61-.29-.87h0ZM12.45,17.95l.16-.11c.32-.22.79-.55.74-.9-.16-.64.15-1.3.75-1.58.6-.28,1.31-.09,1.7.44.11.11.26.16.42.15.52,0,1.31-.38,2.3-.38.61,0,1.04.18,1.18.56.79,2.28,1.63,7.46,1.63,7.47-1.03.08-2.04.35-2.98.78-.92.47-1.76,1.07-2.51,1.78,0,0-3.45-4-4.7-6.05-.34-.56.17-1.32,1.33-2.17h-.02ZM22.94,12.69l.88.75-.23.27.59.47.22-.27.61.52-.87,1.04-.62-.51.23-.27-.57-.48-.66.8.57.48.22-.27.61.51-.88,1.05-.61-.52.23-.27-.57-.48-1.51,1.8s-.02-.04-.04-.05c-.36-.26-.55-.7-.48-1.14l2.89-3.42ZM25.48,14.77c.22.56.6,1.05,1.1,1.4-.29.42-.57.75-.77.98-.32-.11-.65-.17-.99-.17-.44,0-.88.06-1.3.17l1.96-2.37ZM23.24,23.08c-.52,0-.99,0-1.41-.03-.03-.23-.05-.39-.11-.74h1.05c.09.29.25.56.46.77h0ZM20.99,18.82l-.2-.83,1.15-1.36.89.75c-1.03.44-1.74,1.13-1.84,1.45h0ZM21.08,20.37v-.05h2.16s0-.09,0-.13c0-.73.6-1.33,1.33-1.33.56,0,1.07.35,1.25.88.52.19.87.68.87,1.23s-.35,1.04-.87,1.23c-.18.53-.69.89-1.25.88-.73,0-1.33-.6-1.33-1.33,0-.04,0-.09,0-.13h-1.76l-.03-.03s-.04-.06-.06-.08c-.35-.27-.48-.73-.31-1.14h0ZM19.82,25.68v-.27c0-.19.03-.49.2-.58.49-.03.98-.03,1.48,0,.55,0,1.23.04,1.99.04-1.41.44-2.79.97-4.13,1.6.29-.16.48-.46.48-.79h-.01ZM19.26,26.5c-1.35.63-2.65,1.35-3.9,2.15.51-.58.93-1.12,1.27-1.57.29-.4.6-.77.95-1.13.23-.09.6.23.68.32.26.28.66.37,1.01.23h0ZM19.22,25.64c.02.13-.05.26-.17.32-.12.06-.27.02-.36-.08-.24-.26-.55-.44-.9-.52.49-.34,1.03-.6,1.61-.75-.16.32-.23.68-.18,1.04h0ZM27.65,11.67c.91,0,1.6.95,1.6,1.79-.07.8-.33,1.58-.75,2.27.36.15.74.29,1.13.42.23-.66.54-1.29.92-1.87l.1-.14.13.12c.14.15.28.29.42.42l.09.08-.06.1c-.32.49-.58,1.02-.77,1.57,1.13.39,2.34.88,2.93,1.75.63-.92,1.8-1.34,2.93-1.75-.2-.54-.45-1.07-.77-1.55v-.11s.08-.08.08-.08c.15-.13.29-.27.42-.42l.12-.12.1.15c.4.57.72,1.19.95,1.85.42-.14.89-.33,1.13-.42-.42-.69-.68-1.46-.75-2.27,0-.83.69-1.79,1.6-1.79s1.78,1.01,1.78,2.22c0,.91-.42,1.61-1.36,2.19.39.56.8,1.1,1.25,1.6l.89-.25-.5.42c-.35.22-.62.56-.75.95h-.09c-.36.05-.62.37-.59.73,0,.05.02.09.03.13v.05l-.03.05c-.19.39-.29.82-.28,1.25,0,.16.04,1.61,1.29,2.23l.07.03.05.35.3.25.17.34.18.17-.42-.03c-3.69-.31-5.51-1.3-5.91-1.55-.38.27-1.51,1.03-1.88,1.03s-1.51-.77-1.88-1.03c-.51.27-3.27,1.67-7.53,1.67-.7,0-1.53,0-2.15-.03-.23,0-.28-.86,0-.85.28,0,1.74,0,2.46,0h.21c2.05,0,2.77-1.32,2.77-2.55.02-.71-.25-1.4-.75-1.9-.44-.46-1.04-.74-1.68-.79-1-.01-1.96.39-2.65,1.1-.08.1-.21.16-.34.16-.1,0-.21-.04-.28-.1-.09-.07-.15-.18-.15-.3-.01-.12.02-.24.1-.33.86-.93,2.08-1.45,3.35-1.42.39,0,.78.09,1.15.24.45-.5.87-1.04,1.25-1.59-.8-.45-1.32-1.28-1.35-2.2,0-1.2.81-2.22,1.78-2.22h-.01ZM30.1,14.17c-.29.44-.53.92-.73,1.41l-.21-.08c.3-.56.49-1.18.56-1.81.13.17.26.33.39.48h0ZM35.39,15.42c.14.23.27.48.37.73-.87.28-1.67.74-2.35,1.35-.68-.6-1.48-1.06-2.34-1.33.11-.25.24-.5.38-.74.58.43,1.28.68,2,.7.7-.04,1.38-.29,1.94-.71h0ZM37.67,15.48l-.21.08c-.2-.48-.44-.95-.72-1.39.13-.15.26-.31.38-.48.07.62.26,1.23.55,1.78h0ZM33.44,15.28c-1.31,0-3.05-1.73-3.96-3.67h1.16c.72,1.4,1.89,2.61,2.81,2.61s2.09-1.21,2.81-2.61h1.16c-.92,1.95-2.65,3.67-3.96,3.67h0ZM27.65,10.13h11.38v.88h-11.38v-.88ZM31.69,6.41c.43,0,.86.09,1.25.27v-3.29h-1.6v-1.01h1.61V.75h1.1v1.63h1.61v1.01h-1.63v3.22c.35-.14.72-.21,1.09-.2,1.67,0,2.84,1.25,2.84,3.08v.04h-1.06c-.04-1.01-.65-2.06-1.94-2.06-.64.03-1.23.37-1.56.91-.32-.56-.91-.91-1.56-.91-1.39,0-1.91,1.05-1.94,2.06h-1.07v-.04c0-1.85,1.14-3.08,2.84-3.08h.02ZM42.24,15.16c.15.34.38.64.66.89v.03c-.31.33-.64.63-.99.91-.32.02-.63.07-.94.17-.19-.23-.47-.57-.77-.98.54-.37.96-.89,1.18-1.51.24.24.54.41.87.47h-.02ZM40.61,22.5c-.4-.41-.62-.97-.61-1.54h0c0-.22.03-.43.09-.64.16.11.34.16.53.17l.22.22c-.12.23-.26.45-.42.65l-.11.5c.12.2.22.41.3.62h0ZM45.31,24.82c.42,0,.99-.04,1.3,0,.12.08.23.17.33.25.03.2.04.41.03.62.01.32.18.6.45.77-1.33-.61-2.7-1.14-4.1-1.58.75,0,1.43-.02,1.98-.04v-.02ZM42.54,23.07l-.18-.23c-.03-.29-.06-.56-.11-.83.02-.09.02-.18,0-.27l.37-.45v.27s.23.27.23.27l.17.03c.06.02.13.05.18.1l.65.58.54.09.03.02c.07.13.14.26.22.38-.62,0-1.36.03-2.14,0l.04.03ZM42.8,24.2c.04-.08.06-.17.06-.26,0-.08-.02-.16-.04-.23v-.2s1.86-.03,2.36-.02c.5,0,.66.83.18.83l-2.63.06.08-.18ZM52,26.5c.19.03.38.03.56,0,.05.08.06.11.1.16-.03.28.06.56.25.77l.51.19c-.07.1-.14.2-.22.3-.45-.51-.84-1-1.2-1.44v.02ZM51.41,28.62c-1.24-.8-2.53-1.51-3.86-2.14.34.08.71-.01.97-.24.13-.12.27-.21.42-.29.13.03.27.06.42.1.21.23.56.68.84,1,.35.45.77.99,1.25,1.57h-.04ZM50.51,26.72c-.4-.51.55-.73.7-.54.48.61,1.04,1.33,1.67,2.03l.2.23h-.31c-.18.02-.36.07-.52.17l-.1.06-.11-.07c-.59-.67-1.12-1.35-1.52-1.88h-.02ZM41.98,13.73l.46.08-.12-.36.37.18.04-.45.28.28.11-.42.28.67c.19.04.36.12.51.23.1,0,.48.03.54.23.1.34-.64.48-.64.56,0,.08.2.19.37.32.34.25.64.55.89.89.08-.1.32-.38.39-.45.18-.2.37-.4.58-.57.26-.1.56.29.76.42.24.17.45.37.63.6l1.31-.79c.33.66.99,1.08,1.73,1.1.16.02.32-.03.45-.13.37-.51,1.06-.69,1.64-.42s.88.91.73,1.52c-.05.32.53.78.77.9.3.16.64.24.98.24l.42-.07.31,1.98c-1.57.83-1.64.83-1.64,2.46.05.57-.04,1.14-.25,1.67-.16.33-.38.62-.66.86-.03.03-.07.04-.1.07,0,.06-.02.12-.03.18l.42.74c.34-.24.65-.52.92-.83.02-.35.01-.7-.02-1.04,0,0,.2-.36.2-1.6,0-1.13.07-1.35.47-1.62.3-.22.62-.42.95-.59-.09.42-.71.65-.71.87,0,.16.07.31.19.42l.12-.1c.12-.09.27-.13.42-.11.19-.18.42-.31.68-.37.23,0,.46.06.67.16l.11-.15c-.1-.14-.17-.3-.21-.47,0-.19-.16-.35-.49-.24l.1-.22c.1-.15.28-.23.46-.2.14-.05.28-.05.42,0l.38-.45.07.38h.26l-.05.32.29.04-.07.25.28.16-.53.17c.02.38-.15.74-.46.95.03.06.05.13.05.2,0,.33-.24.61-.56.68l-.06.48c.12.08.25.13.38.15,1.05-.05.96-1.75,1.64-1.74.68.01.7.62.75,1.09.07.83.34,1.4-.02,2.92-.19.84-.51,1.65-.94,2.39.07-.23.11-.46.13-.7v-.38c.03-.88-.27-1.75-.84-2.43-.19-.25-.49-.4-.81-.42-.24,0-.48.1-.64.28-.14.16-.22.37-.22.58,0,.27.11.53.3.73.28.36.42.8.42,1.25v.2c-.06.54-.32,1.05-.74,1.4v-.11c.07-.28.16-.56.27-.83.04-.17.06-.35.07-.52.04-.26.12-.51.21-.75-.21.12-.66.65-.97.66h-.23v.69c0,.1-.26,1.35-.26,1.37h-.03l-.42.08h0s-.3-.25-.34-.28l.22-1.17-.36.78s-.11-.19-.22-.35c-.05-.07-.13-.1-.21-.09l-.62,1.1c.17.21.31.45.39.7l-.14.05c-.03-.05-.24-.39-.48-.38-.15,0-.42.29-.45.35l-.13-.07c.04-.14.1-.27.18-.39-.09-.03-.18-.04-.27-.04-.18.03-.36.1-.52.19l-.05-.13c.15-.15.34-.25.55-.3-.03-.05-.09-.09-.15-.1h-.31v-.11c.09-.05.19-.09.3-.11.3,0,.42.18.74.17l.61-1.17c-.02-.48.21-.52.2-.86,0-.13.03-.25,0-.25s-.7.23-.87.24c-.16,0-.11-.42-.13-.52l-.4-.68c-.24.1-.51.13-.77.07l-.06-.09h0c-.44.1-.9.1-1.33,0h0l-1.03-.27c-.25-.07-.5-.13-.75-.18-.3.13-.58.3-.84.51-.09.09-.23.11-.35.07-.12-.06-.19-.19-.17-.32.04-.31,0-.63-.13-.92-.23-.19-.47-.36-.73-.52l-.86-.61-.06-.04c-.43-.34-.75-.79-.94-1.3h-.06l-.17-.2-.56-.08c-.26-.3-.59-.54-.95-.7l-.15-.18c.03-.16.02-.33-.03-.48-.05-.12-.14-.22-.25-.29-.08.12-.33.45-.52.74-.19.26-.42.5-.67.71.09.41.15.83.18,1.25.08.08.15.17.21.27.08.12.39.45.42.55.02.04.02.08,0,.12-.02.04-.05.07-.09.08-.17.02-.33-.03-.46-.13l-.13-.08-.08-.24-.27-.24c-.04-.38-.11-.75-.22-1.11-.05-.16-.12-.32-.2-.47l.04-.15c.18-.24.59-.83.49-1.1-.07-.11-.16-.22-.26-.3-.12-.1-.23-.22-.31-.36-.11.05-.24.06-.36.02-.12-.04-.21-.13-.26-.25-.03-.09-.03-.18,0-.26.06-.16.23-.2.2,0,0,.04,0,.07,0,.11.04.1.21.06.32.02-.01-.27.05-.53.18-.76.18-.27.41-.5.68-.68.15-.18.32-.35.49-.51.15-.15.32-.29.49-.42.37-.27.69-.61.92-1l-.12-.43c-.32-.24-.56-.56-.71-.93-.02-.06-.03-.11-.04-.17-.23-.02-.88-.18-.97-.47l.61-.08-.4-.36ZM58.84,35.08c-.46-.53-.63-.72-1.12-1.22l1.42.61c.27.1.36.21.33.21-.27.02-.51.18-.63.42v-.02ZM58.8,27.37c-.09.94-.56,1.8-1.3,2.39-.56.48-1.26.78-2,.86.86.55,1.86.87,2.89.91,1.8,0,2.04-.37,2.04-.68,0-.24.2-.44.44-.44.24,0,.43.19.44.43,0,1.57-2.05,1.57-2.93,1.57h-.33l.54.27,1.28.56c.28.11.56.25.82.42.84.52,1.25,1.15,1.25,1.89.03.83-.6,1.54-1.43,1.6-.38,0-.74-.16-1-.43-.26-.28-.38-.65-.35-1.03,0-.12.04-.24.12-.32.08-.08.2-.13.32-.12.24,0,.44.2.44.44,0,.46.27.58.42.58.35-.06.6-.37.58-.72,0-.42-.27-.78-.84-1.14-.22-.13-.45-.25-.69-.33l-1.32-.58-1.55-.8h-.03c-.9-.56-1.75-1.21-2.54-1.92l-.34-.26.08-.07s.59.2.76,0,.05-.73.05-.73l.22.04h.11c.06,0,.13,0,.19,0,.65-.03,1.27-.25,1.79-.64.56-.44.91-1.09.98-1.79,0-.08,0-.16,0-.24.01-.57-.17-1.12-.52-1.56-.11-.11-.17-.26-.18-.42,0-.1.03-.2.1-.27.07-.08.18-.13.29-.13.19.02.36.11.47.26.49.6.75,1.35.73,2.12,0,.11,0,.22,0,.33v-.04ZM60.88,37.79c1.03-.24,1.75-1.16,1.75-2.21,0-.67-.28-1.67-1.59-2.46-.17-.11-.34-.2-.52-.28.9-.25,1.5-1.08,1.45-2,0-.45-.28-.84-.69-1.01-.41-.17-.89-.08-1.21.23-.18.18-.29.41-.31.66-.45.12-.92.17-1.38.14-.36,0-.72-.06-1.06-.16.38-.24.75-.52,1.08-.83.23-.22.87-.42,1.15-.88.61-.94,1.05-1.99,1.3-3.08.13-.52.2-1.05.2-1.59,0-.37-.04-.73-.1-1.09l-.06-.49c-.03-.4-.13-1.43-1.04-1.74,0,0-1.58-2.36-1.63-2.44-.05-.07-.13-.1-.19-.03l-.68.77c-.23,0-.46.06-.67.15-.04-.06-.1-.12-.15-.16-.05-.04-.1-.08-.16-.11l-.28-1.8-.2.03-.97.17c-.19-.03-.37-.1-.55-.18-.11-.07-.21-.15-.3-.24,0-.09,0-.18,0-.26,0-.86-.53-1.64-1.34-1.96-.81-.32-1.73-.11-2.32.52-.13-.02-.26-.05-.39-.09-.16-.05-.3-.14-.42-.25l-.61-1.05-1.46.87c-.87-.71-1.25-.95-1.82-.74-.23.1-.42.25-.57.45.06-.11.09-.24.1-.37,0-.28-.1-.55-.3-.74-.2-.2-.46-.31-.74-.31-.07-.05-.14-.09-.22-.12l-.51-1.21s-.06-.07-.11-.07c-.04,0-.09,0-.12.03l-1.72,1.39c-.18-.98-.92-1.77-1.89-2.02v-1.67h-.84v-.04c0-2.26-1.53-3.9-3.66-3.9-.11,0-.23.02-.34.03v-1.47h1.61V1.64h-1.62V0h-2.62v1.63h-1.61v2.5h1.61v1.5c-.17-.03-.33-.05-.5-.05-2.15,0-3.66,1.6-3.66,3.94h-.98v1.67c-1.03.34-1.75,1.27-1.82,2.35l-.77-.62-1.47-1.23-.15-.13-3.02,3.58c-.41-.25-.89-.38-1.38-.35-.73.06-1.46.18-2.17.37-.62-.72-1.65-.93-2.51-.51-.78.32-1.28,1.09-1.25,1.94,0,.1.01.21.03.31-.12.1-.24.2-.37.29l-.18.12c-1.07.78-1.67,1.54-1.75,2.3h-4.68v4.31h3.25c-.94.77-1.48,1.93-1.46,3.15.04,1.51.87,2.89,2.18,3.64-.35.11-.72.17-1.09.18-.46.03-.93-.02-1.38-.14-.05-.59-.57-1.04-1.16-1.01-.6.03-1.06.53-1.05,1.13,0,.89.58,1.68,1.44,1.95-.16.07-2.09.91-2.09,2.73-.02,1.06.72,1.99,1.76,2.22-8.21,11.8-7.9,27.52.77,38.99,8.67,11.47,23.74,16.11,37.39,11.52,13.65-4.6,22.81-17.4,22.72-31.75-.03-6.71-2.11-13.25-5.96-18.75v.06Z"/>
    <path id="Shape16" data-name="Shape" class="st1" d="M33.89,80.51v-23.48h23.48c-.19,12.85-10.58,23.24-23.48,23.48h0ZM33.89,32.89c12.84.24,23.21,10.54,23.48,23.33h-23.48v-23.33ZM33.08,56.22H9.57c.27-12.81,10.65-23.11,23.5-23.33v23.33ZM33.08,80.51c-12.91-.22-23.32-10.62-23.51-23.48h23.51v23.48ZM58.17,56.7c0-9.96-6.02-18.94-15.25-22.75-9.24-3.81-19.87-1.71-26.93,5.34-7.07,7.04-9.18,17.63-5.36,26.83,3.83,9.2,12.84,15.2,22.84,15.2,13.64-.01,24.7-11.03,24.71-24.62h0Z"/>
    <path id="Path11" data-name="Path" class="st0" d="M13.73,74.55c-.09-.1-.3-.37-.53-.64-.05-.05-.11-.07-.15-.04-.04.03,0,.09,0,.13.28.33.28.39-.33.93l-1.98,1.73c-.05.05-.08.06-.22-.1-.35-.42-.27-.86.19-1.25.14-.15.33-.24.54-.24.2,0,.4.07.55.21.09.1.14.11.18.07s-.04-.16-.07-.2c-.21-.29-.54-.47-.9-.5-.36-.03-.71.09-.97.33-.5.42-.33,1.08.13,1.6l.53.57c.1.11.31.37.49.58.07.08.11.09.15.06.03-.03.03-.08,0-.14-.22-.25-.24-.35.04-.6l1.94-1.67c.51-.44.61-.44.79-.22.04.05.08.07.12.04s.04-.09-.03-.15c-.13-.16-.37-.42-.46-.5"/>
    <path id="Shape17" data-name="Shape" class="st1" d="M7.51,72.55c-.45-.73-.18-1.69.84-2.29,1.3-.78,1.88-.15,2.07.16.53.86.1,1.82-.84,2.38-1.11.67-1.76.25-2.07-.25M10.79,70.45c-.28-.52-.77-.9-1.35-1.05-.58-.15-1.19-.05-1.69.28-1.05.63-1.25,1.75-.57,2.92.26.52.73.9,1.3,1.06.56.16,1.16.08,1.66-.23.5-.29.86-.77.98-1.33.12-.56,0-1.15-.32-1.62"/>
    <path id="Path12" data-name="Path" class="st0" d="M8.95,67.74c.03.07.06.1.1.08.04-.02.06-.07.03-.16-.1-.26-.19-.5-.21-.54s-.1-.3-.21-.63c-.03-.09-.08-.13-.13-.11-.05.02-.04.05,0,.12.11.31.08.46-.42.65l-2.04.75,1.73-3.62c.04-.07.06-.15.05-.22-.02-.05-.08-.08-.2-.03l-3.17,1.08c-.32.11-.42.1-.53-.16-.03-.08-.06-.12-.1-.1-.04.02-.05.09-.03.17.09.25.18.42.2.49.02.07.1.35.2.61.05.1.08.15.13.13.05-.02.05-.07.03-.13-.12-.34-.07-.42.31-.57l2.18-.83-1.78,3.57c-.06.09-.08.2-.06.31.02.06.1.06.22,0l3.07-1.05c.51-.18.55-.09.64.17"/>
    <path id="Path13" data-name="Path" class="st0" d="M4.2,63.64c.05,0,.11-.03.1-.1,0-.05-.05-.08-.1-.07-.19,0-.33-.11-.42-.52l-.15-.75,2.62-.45c.84-.14.9-.11.95.19,0,.06.03.11.09.09s.07-.05.05-.14c-.04-.21-.11-.54-.13-.66s-.07-.48-.13-.83c0-.08-.05-.13-.1-.11-.05.02-.06.06-.05.12.08.42.03.48-.84.63l-2.57.45-.1-.64c-.08-.47,0-.6.23-.66.1-.03.12-.05.11-.1,0-.05-.05-.06-.12-.05l-.61.08c-.11,0-.14.04-.13.1.07.16.12.32.14.49l.42,2.35c.02.16.02.33,0,.49,0,.05.04.06.13.07.21.02.42.02.62,0"/>
    <path id="Path14" data-name="Path" class="st0" d="M3.01,58.97c0-.3.07-.34.26-.36.2-.02.32-.02,1.13-.07l.93-.05c.38-.03.76-.04,1.15-.03.23,0,.28.08.28.3,0,.06.02.11.07.11s.09-.05.08-.14c0-.21-.05-.55-.05-.67s0-.48,0-.83c0-.09-.05-.13-.09-.13-.05,0-.07.06-.07.12,0,.3,0,.45-.23.47-.23.02-.64.05-1.16.08l-.93.05c-.8.04-.95.05-1.12.05-.23,0-.29-.08-.31-.32,0-.05-.02-.11-.09-.11s-.06.05-.06.15c0,.2.04.52.05.65,0,.13,0,.49,0,.7,0,.1.03.15.08.15.04,0,.08-.07.08-.12"/>
    <path id="Path15" data-name="Path" class="st0" d="M2.85,55.85s.07-.04.07-.12c.03-.38.1-.42.64-.38l2.37.17c.74.05.76.13.74.4,0,.07,0,.11.06.11s.08-.04.09-.13c0-.2.03-.55.03-.68,0-.13.05-.47.07-.81,0-.1-.03-.14-.07-.15s-.08.05-.08.11c-.03.4-.04.48-.81.42l-.84-.06s-.03,0-.03-.04.04-.62.07-.75c.01-.08.06-.15.12-.2.07-.05.15-.07.23-.05.05,0,.1-.02.1-.07s-.06-.08-.12-.09c-.24-.02-.48-.06-.71-.11-.04,0-.08,0-.08.05s.15.09.13.33l-.05.87s0,.04-.03.03l-1.53-.1s-.02,0-.03,0c0,0-.01-.02-.01-.03l.06-.81c0-.2.1-.29.16-.32.06-.02.13-.03.19-.02.08,0,.12,0,.12-.07,0-.07-.04-.07-.09-.08-.05-.01-.38-.05-.42-.06l-.2-.05s-.02,0-.03,0c-.05,0-.08,0-.09.06,0,.02,0,.04,0,.06h0c.01.08.01.15,0,.23,0,.12-.08,1.2-.09,1.4-.02.2-.05.49-.07.76,0,.1,0,.16.07.16"/>
    <path id="Path16" data-name="Path" class="st0" d="M3.33,51.76c.06-.29.15-.31.35-.29.2.03.32.05,1.11.2l.91.17c.51.1.92.17,1.12.24.2.07.25.15.21.37,0,.06,0,.11.04.12.04,0,.09-.02.11-.11.03-.21.08-.55.1-.67.02-.12.11-.47.18-.81,0-.09,0-.14-.06-.15-.06,0-.08.04-.09.1-.06.29-.12.42-.33.42s-.64-.1-1.14-.2l-.92-.17c-.79-.15-.93-.17-1.09-.21-.23-.07-.27-.15-.23-.38,0-.05,0-.11-.06-.13s-.07.04-.09.13c-.04.2-.08.51-.11.65-.03.13-.11.48-.15.68,0,.1,0,.15.04.16.04,0,.09-.05.1-.1"/>
    <path id="Path17" data-name="Path" class="st0" d="M5.66,49.19c1.42.5,2.44-.42,2.88-1.67.11-.31.18-.63.21-.95,0-.08-.05-.16-.12-.2-.2-.13-.41-.25-.64-.34-.05,0-.1,0-.12.03s0,.07.08.13c.38.26.46.55.22,1.27-.31.88-1.13,1.36-2.31.96-.93-.35-1.42-.98-1.09-1.94.2-.59.64-1.11,1.17-.93.08.03.14,0,.16-.03.02-.03-.03-.09-.11-.12-.08-.03-.38-.14-.54-.21-.16-.07-.23-.1-.27-.12-.04-.02-.08,0-.11.08-.22.38-.41.78-.57,1.18-.42,1.19-.08,2.46,1.15,2.88"/>
    <path id="Path18" data-name="Path" class="st0" d="M5.9,43.59c.13-.26.23-.25.42-.18s.29.14,1.01.5l.84.42c.34.16.68.34,1,.54.2.12.2.21.1.42-.03.05-.04.11,0,.13.04.02.1,0,.14-.08.09-.19.23-.5.29-.61s.24-.42.4-.73c.04-.08.03-.14,0-.16s-.09,0-.11.07c-.14.26-.23.38-.42.3-.18-.08-.59-.28-1.05-.5l-.84-.42c-.72-.36-.84-.42-.99-.51-.15-.1-.22-.21-.11-.42.02-.04.04-.1-.03-.14s-.08,0-.12.1c-.1.18-.22.47-.28.59-.06.12-.23.42-.33.61-.05.1-.05.15,0,.17s.1,0,.12-.07"/>
    <path id="Shape18" data-name="Shape" class="st1" d="M10.59,40.42l-.65.92-.92-1.33h.02l1.55.42ZM10.17,42.5c.22.33.23.49.05.76-.03.03-.04.08,0,.11.04.03.08,0,.14-.06.16-.22.31-.47.35-.52.09-.13.24-.32.33-.45.04-.06.05-.1,0-.14s-.08,0-.15.09-.17.14-.23.1c-.09-.07-.16-.15-.22-.25l-.32-.49s-.01-.04,0-.06l.74-1.05s.03-.03.05-.03l.95.23s-.08.25-.09.28c0,.02-.04.09,0,.12.04.03.11,0,.19-.12.08-.12.23-.36.32-.49.09-.13.23-.3.31-.42.13-.19.13-.25.1-.27-.03-.02-.08,0-.12.04-.15.21-.47.17-.78.1-.86-.17-3.12-.7-3.43-.76-.15-.03-.21-.03-.25,0s0,.12.09.28l1.97,3.02Z"/>
    <path id="Path19" data-name="Path" class="st0" d="M12.28,34.68c.28-.23.36-.23.72.2l1.01,1.2c.79.95,1.58,1.02,2.45.3.94-.78.77-1.67,0-2.58l-.87-1.04c-.34-.42-.39-.47-.14-.69.07-.06.08-.1.04-.14-.03-.04-.08-.02-.15.04-.15.13-.31.28-.45.42s-.28.2-.49.38c-.08.06-.09.11-.06.15.03.03.08.03.14,0,.31-.25.37-.19.71.22l.93,1.12c.67.83.84,1.35.22,1.85-.68.57-1.23.18-1.77-.46l-.99-1.17c-.34-.42-.35-.5-.13-.68.06-.05.07-.09.04-.13-.03-.04-.09-.03-.16.03-.15.12-.33.31-.49.42s-.39.3-.61.49c-.08.06-.09.11-.06.15.03.04.08.03.13,0"/>
    <path id="Path20" data-name="Path" class="st0" d="M18.76,33.65c.25.47.18.52-.07.66-.07.04-.09.08-.07.11.02.04.08.05.16,0,.24-.14.46-.27.5-.29.04-.02.29-.14.59-.31.08-.05.12-.1.09-.15-.03-.05-.06-.03-.13,0-.28.16-.45.15-.71-.3l-1.08-1.88,3.86,1.13c.08.03.16.03.23,0,.05-.03.06-.1,0-.21l-1.57-2.95c-.15-.3-.16-.42.08-.54.08-.04.1-.08.08-.12s-.09-.04-.17,0c-.23.12-.42.24-.45.27-.03.03-.33.15-.58.29-.09.06-.14.1-.11.15.03.05.08.04.13,0,.32-.17.42-.14.62.21l1.18,2.02-3.8-1.17c-.1-.03-.21-.03-.31,0-.06.03-.05.11,0,.22l1.52,2.85Z"/>
    <path id="Path21" data-name="Path" class="st0" d="M22.28,28.38c.28-.1.34-.04.42.15.08.18.12.3.42,1.05l.32.87c.18.48.32.87.36,1.08.05.21,0,.29-.21.36-.06,0-.1.05-.09.1.01.05.07.06.16.03l.63-.25c.13-.05.46-.14.79-.26.08-.03.11-.08.1-.12s-.08-.05-.13-.03c-.28.1-.42.12-.52-.07s-.24-.6-.42-1.08l-.32-.87c-.28-.75-.33-.89-.38-1.05-.06-.23,0-.3.21-.39.05,0,.1-.05.08-.12-.03-.07-.07-.05-.15,0-.19.07-.49.19-.61.23-.13.04-.46.15-.66.22-.1.04-.14.08-.12.12s.09.05.13.04"/>
    <path id="Path22" data-name="Path" class="st0" d="M24.79,27.42c.26-.08.54.04.66.28l2.09,2.97c.09.13.17.2.23.18.06-.01.1-.1.15-.31l.72-3.41c.09-.42.16-.56.42-.62.08,0,.1-.04.1-.09,0-.05-.07-.07-.16-.05-.09.02-.28.08-.48.12-.2.04-.3.04-.56.1-.12.02-.17.06-.15.12.02.06.06.05.13.04.17-.04.26,0,.27.04.01.06.01.13,0,.19l-.47,2.75-1.41-2.11c-.08-.11-.15-.24-.2-.37-.03-.12.12-.14.2-.17.09-.03.1-.04.09-.09-.01-.05-.08-.06-.16-.04-.26.05-.51.13-.64.16-.13.03-.49.08-.77.14-.1,0-.16.06-.15.11.02.05.05.07.1.05"/>
    <path id="Path23" data-name="Path" class="st0" d="M30.25,26.41c.3-.02.42.05.42.27s.03.31.08,1.11l.06.93c0,.27.03.54.04.75.04.6,0,.65-.3.67-.07,0-.11.02-.1.08,0,.05.04.07.13.07.21,0,.55-.05.67-.06.57-.03,1.1-.04,1.61-.07.1,0,.18-.08.18-.17.02-.19.03-.39.03-.59,0-.07,0-.13-.08-.12-.08.01-.07.04-.08.1.01.15-.06.3-.2.38-.22.06-.44.1-.67.1-.38.02-.42,0-.46-.35,0-.15-.04-.62-.08-1.22,0,0,0-.02.03-.03l.73-.03c.25,0,.31.19.32.35,0,.04.03.08.08.08.05,0,.07-.08.07-.13v-.74s0-.04-.02-.05c-.01-.01-.03-.02-.05-.02-.04,0-.06.05-.13.11-.14.08-.3.13-.46.12l-.56.03s-.05,0-.05-.03l-.09-1.41v-.03c1.04-.06,1.07-.04,1.14.3,0,.05,0,.1.08.1.02,0,.04,0,.06-.03s.02-.04.02-.06c-.02-.23-.02-.46,0-.69,0-.04,0-.08-.06-.08-.1.04-.21.07-.32.08l-1.33.08c-.15,0-.49,0-.77.03-.1,0-.14.04-.14.09,0,.05.04.07.13.06"/>
    <path id="Shape19" data-name="Shape" class="st1" d="M35.63,26.59s0-.07.31-.04c.23.03.44.16.57.35.13.19.18.43.13.66-.05.48-.26.83-.74.79-.3-.03-.42-.08-.42-.17l.15-1.59ZM34.28,30.14c.21.02.55.03.65.04.1,0,.47.06.79.09.09,0,.13-.03.13-.06s-.03-.08-.08-.08c-.42-.04-.46-.15-.42-.71l.08-.83h0l.46.06s.07.02.08.05c.18.25.31.51.45.75.37.62.65.94,1.25,1l.51.05c.08,0,.13,0,.13-.07,0-.07-.03-.08-.08-.08-.42-.04-.77-.32-1.71-1.89.44-.21.74-.63.79-1.1.07-.75-.59-1.03-1.28-1.1-.16,0-.57-.03-.75-.05-.11,0-.44-.05-.73-.08-.1,0-.15,0-.15.06s.03.08.1.09c.42.04.42.12.37.6l-.23,2.5c-.05.52-.1.64-.42.61-.06,0-.11,0-.12.06,0,.06.03.08.13.09l.02.02Z"/>
    <path id="Path24" data-name="Path" class="st0" d="M39.57,30.94c.32.11.68.09.99-.07s.53-.43.63-.76c.3-1.2-1.23-1.76-1.04-2.5.04-.15.14-.27.27-.34s.3-.08.44-.02c.34.06.58.38.53.73,0,.05,0,.12.05.14.05.02.1-.03.13-.16.1-.42.15-.55.16-.61,0-.04-.01-.08-.05-.1-.22-.13-.45-.22-.7-.27-.73-.18-1.33.11-1.47.71-.28,1.16,1.22,1.67,1,2.58-.05.16-.16.3-.32.38-.15.08-.33.09-.5.04-.21-.04-.39-.16-.5-.34-.11-.18-.14-.4-.09-.6,0-.05,0-.11-.05-.13s-.1.04-.13.13l-.2.72c-.05.16.3.37.84.5"/>
    <path id="Path25" data-name="Path" class="st0" d="M42.08,31.58l.64.22c.13.05.45.19.77.31.09.03.14,0,.16-.03.02-.03-.03-.09-.08-.11-.28-.1-.42-.19-.35-.39.07-.2.2-.61.38-1.09l.33-.87c.28-.75.33-.89.42-1.04.1-.21.19-.24.42-.16.05,0,.11.03.14-.04s-.03-.08-.11-.11l-.62-.21c-.15-.05-.46-.18-.65-.26-.1-.04-.15-.02-.17,0-.02.03.03.1.08.11.28.1.28.2.23.39-.06.19-.1.3-.38,1.06l-.33.87c-.18.48-.33.87-.42,1.06-.09.19-.19.22-.42.14-.06-.02-.11-.02-.13,0-.02.03,0,.1.1.12"/>
    <path id="Shape20" data-name="Shape" class="st1" d="M46.18,32.13l1.21-2.13c.08-.15.12-.18.42,0,1.02.57,1.42,1.55.87,2.57-.56,1.02-1.29,1.19-2.27.65-.6-.34-.58-.47-.24-1.08M44.65,32.42s0,.09.08.14l.6.31c.23.13.62.42.96.61,1.17.66,2.45.57,3.14-.67.69-1.24,0-2.25-1.39-3.03-.28-.15-.58-.31-.73-.39s-.42-.25-.66-.39c-.09-.05-.15-.05-.17,0s0,.08.07.12c.26.14.33.26.22.45-.11.19-.15.28-.54.98l-.46.83c-.65,1.15-.72,1.2-.93,1.09-.11-.06-.17-.07-.2-.03"/>
    <path id="Shape21" data-name="Shape" class="st1" d="M52.28,33.9h0l-.53,1.52-.87-.73,1.4-.8ZM48.94,34.81s-.08-.05-.11,0c-.03.05-.03.08.05.14.21.18.44.35.49.39.13.1.3.27.42.38.05.05.1.06.14,0,.04-.06,0-.08-.08-.16s-.13-.18-.08-.24c.08-.08.16-.14.26-.2l.52-.27h.05l.99.83s.03.03,0,.05l-.31.92s-.25-.1-.27-.12c-.03-.01-.08-.04-.12,0-.03.04,0,.11.1.2s.34.26.46.36c.12.1.28.26.38.34.18.15.23.15.26.12.03-.03,0-.07-.03-.12-.19-.16-.12-.48-.03-.78.25-.83.97-3.03,1.06-3.33.04-.15.04-.2,0-.25-.04-.05-.13,0-.29.07l-3.16,1.67c-.35.19-.51.19-.76,0h.03Z"/>
    <path id="Shape22" data-name="Shape" class="st1" d="M54.24,38.38l1.9-1.55c.13-.11.17-.12.42.16.74.89.76,1.95-.13,2.7s-1.64.65-2.35-.22c-.44-.52-.37-.65.17-1.09M52.91,38.2c-.08-.1-.13-.13-.18-.1-.05.04-.03.08.03.15.13.16.36.42.42.51.17.2.42.62.67.92.84,1.03,2.09,1.41,3.17.5,1.08-.9.84-2.08-.19-3.33-.2-.25-.42-.5-.54-.62s-.3-.39-.47-.6c-.07-.08-.12-.1-.15-.07-.04.03-.03.08.02.14.19.22.21.36.04.5s-.24.21-.86.72l-.72.59c-1.02.83-1.11.86-1.25.68"/>
    <path id="Path26" data-name="Path" class="st0" d="M58.53,47.45c.05.06.14.09.22.08.24-.04.48-.1.71-.18.05,0,.08-.06.06-.1-.02-.05-.05-.05-.15-.04-.46.06-.72-.1-1.02-.79-.38-.86-.1-1.76,1.04-2.26.93-.37,1.71-.24,2.12.69.26.57.29,1.25-.23,1.47-.08.04-.12.09-.1.14s.08.05.17,0,.37-.14.54-.21c.17-.07.23-.07.28-.09.04-.02.06-.06.03-.13-.1-.43-.22-.84-.38-1.25-.51-1.15-1.61-1.86-2.8-1.34-1.39.59-1.52,1.95-.98,3.17.12.3.29.58.49.83"/>
    <path id="Shape23" data-name="Shape" class="st1" d="M62.19,49.42h.03l-1.33.9-.26-1.09,1.57.19ZM58.95,48.17s-.03-.09-.09-.07c-.05.02-.07.05-.05.14.07.27.15.55.16.61.04.16.08.39.13.55,0,.07.04.11.1.09.06-.02.06-.05.03-.17s0-.22.08-.24c.11-.02.22-.02.33,0l.58.08s.04.02.04.04l.31,1.25v.05l-.79.56s-.14-.23-.15-.25c-.01-.02-.04-.08-.09-.08-.05,0-.06.09-.03.22.03.13.13.42.16.57.04.15.07.37.1.5.05.22.1.26.14.25.04,0,.06-.05.05-.11-.06-.25.18-.46.44-.65.69-.53,2.58-1.87,2.84-2.08.12-.1.15-.14.15-.2,0-.06-.09-.09-.27-.12l-3.54-.51c-.39-.06-.52-.15-.6-.47v.02Z"/>
    <path id="Path27" data-name="Path" class="st0" d="M63.23,52.32c-.06,0-.11,0-.11.09,0,.05.05.08.09.08.2,0,.32.14.37.55l.09.76-2.63.22c-.84.07-.91.03-.94-.27,0-.06-.03-.11-.08-.1-.05,0-.08.05-.07.13,0,.21.06.55.07.67,0,.12.03.49.06.83,0,.08.04.13.09.12.05-.01.07-.05.06-.11-.04-.42,0-.49.9-.56l2.6-.22.04.64c.03.48-.06.6-.28.64-.1,0-.13.05-.12.1,0,.05.04.06.12.06l.61-.03c.11,0,.14-.03.14-.08-.05-.16-.09-.33-.1-.5l-.21-2.38c0-.17.01-.33.05-.49,0-.05-.03-.06-.13-.08-.2-.04-.41-.06-.62-.06"/>
    <path id="Shape24" data-name="Shape" class="st1" d="M63.83,59.19c-.08.86-.84,1.48-2.03,1.37-1.5-.13-1.6-.99-1.57-1.35.08-1,1-1.54,2.09-1.43,1.3.11,1.56.83,1.51,1.41M64.77,60.14s-.45-.79-.65-1.1c.02-1.15-.89-2.1-2.05-2.13s-2.11.89-2.14,2.04c-.08.59.08,1.19.46,1.65.38.46.93.74,1.53.77,1.2.1,2.04-.65,2.18-1.93.11.42.26.96.26.97,0,.03.03.06.06.07.03.01.06.01.09,0,.08-.04.15-.08.22-.12.05-.03.09-.1.03-.22"/>
    <path id="Path28" data-name="Path" class="st0" d="M63.33,63.22c-.1.37-.18.35-.78.2l-2.02-.5c-.84-.21-.93-.26-.84-.58,0-.06,0-.11-.04-.12-.04,0-.08,0-.11.11-.05.2-.13.53-.15.65-.11.42-.23.75-.42,1.5-.07.26-.05.32.06.39.21.1.42.18.64.25.08.02.13,0,.14-.04.01-.04-.05-.09-.08-.1-.34-.15-.45-.3-.31-.83.17-.65.24-.7.95-.51l2.02.52c.65.17.66.22.58.55-.02.08,0,.12.05.14.05.01.08,0,.1-.12.05-.2.14-.58.17-.7.03-.12.14-.46.2-.71.03-.1,0-.14-.03-.16s-.08,0-.1.1"/>
    <path id="Path29" data-name="Path" class="st0" d="M62.05,67.43c-.11.28-.2.28-.39.22-.19-.06-.3-.11-1.05-.42l-.87-.35c-.47-.19-.86-.35-1.05-.45-.19-.1-.21-.2-.13-.42.03-.06.03-.11,0-.13-.03-.02-.1,0-.13.1-.07.2-.19.52-.23.63-.05.11-.2.44-.33.76-.03.08,0,.13.03.15.03.02.09-.03.11-.08.11-.28.2-.42.42-.33.22.08.61.22,1.08.42l.86.35c.74.3.89.35,1.03.42.21.11.23.2.14.42,0,.05-.03.11.04.14s.08,0,.11-.11c.08-.19.18-.48.23-.61.05-.12.2-.45.27-.64.04-.1.03-.15,0-.17-.03-.02-.1.03-.12.08"/>
    <path id="Path30" data-name="Path" class="st0" d="M59.27,69.49c-1.3-.78-2.48-.08-3.16,1.07-.18.28-.31.58-.39.9-.02.08,0,.16.07.22.17.17.36.32.56.46.05.03.1.03.12,0,.03-.03.02-.07-.05-.15-.32-.33-.35-.64.04-1.29.47-.81,1.38-1.11,2.45-.49.84.53,1.2,1.25.69,2.12-.32.54-.84.97-1.33.68-.08-.05-.14-.05-.17,0-.03.05,0,.09.08.15s.34.21.49.31.2.15.24.17c.04.02.08,0,.13-.05.29-.33.56-.68.8-1.05.64-1.09.56-2.4-.56-3.05"/>
    <path id="Shape25" data-name="Shape" class="st1" d="M56.29,75.56h0l-1.52-.56.73-.85.79,1.4h.02l-.02.02ZM55.34,72.97c-.18-.35-.18-.5.03-.75.03-.03.05-.08,0-.11s-.08-.03-.14.05c-.18.21-.36.45-.4.49-.1.12-.27.3-.38.42-.05.05-.06.1,0,.14.06.04.08,0,.16-.08.08-.08.18-.12.24-.08.08.08.14.17.2.27l.27.51s.01.04,0,.05l-.84.98s-.03.03-.05.03l-.92-.31s.1-.25.12-.27c.02-.03.04-.08,0-.12-.04-.03-.11,0-.2.1s-.26.35-.36.47-.26.27-.34.38c-.15.18-.15.23-.12.26.03.03.08,0,.12-.03.17-.19.49-.12.79-.02.84.25,3.04.98,3.35,1.07.15.04.2.04.25,0,.04-.04.02-.12-.07-.29l-1.69-3.15Z"/>
    <path id="Shape26" data-name="Shape" class="st1" d="M19.97,82.17c-.61,1.02-1.32,1.15-2.28.58-.59-.35-.57-.49-.21-1.08l1.25-2.08c.09-.15.12-.18.42,0,1,.6,1.38,1.58.79,2.59M19.38,79.37l-.72-.42c-.13-.08-.42-.27-.65-.42-.09-.05-.14-.05-.17,0-.03.05,0,.08.07.12.25.15.32.27.2.46s-.16.28-.57.97l-.48.8c-.68,1.13-.75,1.18-.95,1.06-.11-.07-.17-.08-.2-.03-.03.05,0,.09.08.13.18.11.48.27.59.33.23.13.61.42.95.63,1.15.69,2.42.63,3.15-.59.73-1.22.08-2.24-1.3-3.06"/>
    <path id="Path31" data-name="Path" class="st0" d="M25.08,82.03l-1.25-.46c-.14-.05-.45-.18-.72-.28-.09-.04-.14-.02-.16,0-.02.03,0,.08.09.11.28.1.36.21.28.42-.08.21-.1.29-.38,1.04l-.33.89c-.1.26-.19.5-.27.7-.2.56-.26.6-.54.5-.06-.02-.11,0-.13.03s0,.09.09.12c.2.07.53.18.64.22.53.2,1.02.42,1.51.58.09.04.19,0,.23-.08.1-.17.19-.35.27-.53.03-.07.03-.12-.03-.14-.06-.02-.08,0-.12.07-.1.19-.19.25-.33.27-.23-.03-.45-.09-.66-.17-.36-.13-.42-.16-.28-.5.06-.14.22-.58.42-1.14h.03l.68.27c.23.08.21.3.15.45,0,.02-.01.04,0,.06s.02.03.04.04c.06.03.1-.04.11-.09.1-.27.29-.6.32-.67,0-.02.01-.04,0-.05,0-.02-.02-.03-.04-.03-.03,0-.08.03-.16.05-.16.02-.32,0-.47-.07l-.53-.2s-.04,0-.03-.05l.49-1.33s0-.03.03,0c.97.35,1,.4.92.73,0,.05-.03.1.03.12.02,0,.05,0,.07,0s.04-.03.04-.05c.08-.21.18-.42.3-.62,0-.04,0-.08-.03-.09-.11,0-.22-.02-.32-.06"/>
    <path id="Path32" data-name="Path" class="st0" d="M32.58,83.47c-.42-.13-.85-.22-1.28-.28-1.25-.12-2.42.49-2.55,1.77-.17,1.5.96,2.28,2.29,2.41.32.05.65.05.98,0,.08-.02.14-.08.17-.15.08-.23.15-.46.19-.7,0-.06,0-.1-.06-.1-.06,0-.07,0-.11.11-.17.42-.42.58-1.19.5-.93-.09-1.59-.78-1.47-2.01.13-.98.63-1.6,1.64-1.5.63.06,1.25.36,1.18.92,0,.09,0,.14.07.15s.08-.04.1-.13c.02-.09.05-.42.08-.57.03-.15.05-.25.05-.29,0-.04,0-.08-.1-.09"/>
    <path id="Path33" data-name="Path" class="st0" d="M39.07,86.81c-.3.03-.42,0-.48-.22-.06-.22-.1-.65-.15-1.12l-.1-.92c-.09-.79-.1-.94-.11-1.11,0-.17.05-.3.29-.33.08,0,.12-.04.11-.08,0-.04-.05-.07-.15-.06-.21,0-.54.07-.67.09-.13.01-.48.04-.77.07-.1,0-.14.04-.13.08,0,.05.05.07.13.07.26-.03.42,0,.44.24.03.17.05.31.14,1.11l.03.23v.03l-2.01.21h0l-.03-.22c-.09-.8-.1-.94-.1-1.11,0-.23.05-.3.28-.32.09,0,.13-.04.12-.09,0-.05-.05-.07-.15-.06-.21,0-.54.08-.66.09-.13.01-.49.03-.77.06-.1,0-.14.05-.13.1s.05.07.13.06c.28-.03.42,0,.44.24.03.24.04.31.13,1.11l.1.92c.05.48.1.9.09,1.11,0,.22-.04.3-.28.32-.06,0-.11.03-.11.08,0,.05.05.08.15.07.21-.03.54-.07.67-.09.13-.02.48-.04.84-.07.08,0,.13-.05.13-.1,0-.05-.05-.06-.11-.06-.31.03-.42.03-.49-.22s-.09-.64-.15-1.12l-.04-.32s0-.03.02-.03l2.01-.22h0l.04.33c.05.47.1.89.09,1.11,0,.22-.03.3-.28.33-.06,0-.11.03-.11.08s.05.08.15.06c.2-.02.54-.07.66-.1.13-.02.49-.03.84-.07.1,0,.13-.05.13-.1,0-.04-.05-.06-.11-.06"/>
    <path id="Path34" data-name="Path" class="st0" d="M42.91,85.77c-.29.08-.44.1-.51-.1-.07-.2-.2-.61-.35-1.1l-.26-.89c-.23-.77-.28-.91-.31-1.07-.05-.23,0-.3.23-.37.05,0,.11-.05.09-.12s-.07-.05-.15-.02c-.2.06-.49.16-.62.2-.13.04-.47.12-.67.18-.1.03-.14.07-.13.11s.08.06.13.05c.28-.09.34,0,.42.17.08.17.1.3.33,1.07l.26.89c.12.36.22.73.3,1.1.05.23,0,.29-.23.35-.06,0-.1.05-.09.09.01.05.07.07.15.04l.64-.21c.14-.04.47-.12.8-.22.09-.02.12-.07.11-.12-.01-.05-.08-.05-.13-.04"/>
    <path id="Path35" data-name="Path" class="st0" d="M47.31,83.24c-.03-.08-.07-.1-.12-.08-.05.02-.04.09-.03.13.1.36.06.53-.46.77-.61.28-.69.25-.99-.42l-.87-1.89c-.28-.61-.25-.65.07-.79.08-.03.1-.08.08-.12-.03-.05-.06-.05-.15,0-.19.09-.54.26-.65.31-.11.05-.45.18-.68.29-.09.04-.12.08-.1.12.02.05.06.05.14,0,.35-.16.38-.08.64.48l.86,1.89c.36.78.38.89.08,1.03-.06.03-.1.06-.07.11.03.05.06.05.15,0l.6-.29c.39-.18.73-.3,1.44-.62.25-.11.28-.16.26-.29-.05-.23-.12-.45-.21-.66"/>
    <path id="Path36" data-name="Path" class="st0" d="M51.17,80.94c-.04-.06-.07-.1-.13-.06s-.04.07,0,.13c.07.13.07.29,0,.42-.16.16-.33.3-.53.42-.32.21-.37.22-.57-.07l-.67-1.02s-.01-.01-.01-.02,0-.02.01-.02l.62-.39c.2-.14.36,0,.45.14,0,.02.03.03.04.03.02,0,.04,0,.06,0,.06-.04.03-.1,0-.15-.15-.23-.31-.59-.36-.65,0-.02-.02-.03-.04-.04-.02,0-.04,0-.05.01-.03,0-.03.08-.06.16-.07.14-.19.26-.33.33l-.48.31h-.05l-.79-1.18v-.04c.87-.57.91-.57,1.14-.3.03.03.06.08.11.04.05-.04.05-.07.03-.12-.12-.19-.23-.4-.33-.6-.03-.04-.05-.06-.09-.03-.07.08-.15.16-.23.22l-1.11.73c-.13.08-.42.25-.66.42-.08.05-.1.1-.08.14.03.04.07.04.14,0,.25-.16.38-.17.51,0,.12.17.18.25.62.92l.52.78c.15.23.29.45.42.63.33.5.33.57.08.73-.06.03-.08.07-.05.12.03.05.08.04.15,0,.18-.12.46-.32.56-.38.48-.31.93-.57,1.36-.86.08-.05.12-.15.08-.24-.08-.18-.17-.36-.28-.52"/>
  </g>
</svg>