<?xml version="1.0" encoding="UTF-8"?>
<svg xmlns="http://www.w3.org/2000/svg" onmouseup="{ if(window.parent.document.onmouseup) window.parent.document.onmouseup(arguments[0]);}" viewBox="0 0 1370 1662" data-name="Capa 1" id="Capa_1"><g id="IMG"><g data-name="Roles Gobierno" id="Roles_Gobierno"><path data-cppathid="10000" fill="#fff" d="M694,835.5A108.7,108.7,0,1,1,802.7,726.8h0A108.81,108.81,0,0,1,694,835.5ZM694,651a75.8,75.8,0,1,0,75.8,75.8h0A75.69,75.69,0,0,0,694,651Z"/><path data-cppathid="10001" fill="#fff" d="M518.9,1155.1a13.93,13.93,0,0,1-3.5-.4,16.47,16.47,0,0,1-12.6-19.6h0l37.4-173.9c13.4-62.2,69.3-107.4,133-107.4h44.4A136.54,136.54,0,0,1,850.9,963.1l34.4,172.3a16.47,16.47,0,0,1-32.3,6.5h0L818.6,969.5a103.21,103.21,0,0,0-101.1-82.8H673.1c-48.2,0-90.6,34.2-100.8,81.5l-37.5,173.9A16.46,16.46,0,0,1,518.9,1155.1Z"/><path data-cppathid="10002" fill="#fff" d="M358.2,923.6a95.7,95.7,0,1,1,95.7-95.7h0a95.7,95.7,0,0,1-95.7,95.7Zm0-158.5A62.8,62.8,0,1,0,421,827.9h0A62.84,62.84,0,0,0,358.2,765.1Z"/><path data-cppathid="10003" fill="#fff" d="M213.4,1187.4a16.49,16.49,0,0,1-16.2-19.4v-.2l26.5-138.7a.6.6,0,0,1,.1-.4c11.7-54.5,60.7-94.2,116.5-94.2h38.2a119.47,119.47,0,0,1,116.9,95.8,16.47,16.47,0,1,1-32.3,6.5h0a86.3,86.3,0,0,0-84.6-69.3H340.3a86.8,86.8,0,0,0-84.3,68L229.6,1174A16.49,16.49,0,0,1,213.4,1187.4Z"/><path data-cppathid="10004" fill="#fff" d="M1025.1,923.6a95.75,95.75,0,1,1,95.8-95.8,95.73,95.73,0,0,1-95.8,95.8Zm0-158.5a62.8,62.8,0,1,0,62.8,62.8h0A62.72,62.72,0,0,0,1025.1,765.1Z"/><path data-cppathid="10005" fill="#fff" d="M1170,1187.4a16.4,16.4,0,0,1-16.1-13.4l-26.4-138.5a86.8,86.8,0,0,0-84.3-68H1005a86.4,86.4,0,0,0-84.6,69.3,16.38,16.38,0,0,1-19.6,12.5,16.58,16.58,0,0,1-12.7-19A119.37,119.37,0,0,1,1005,934.5h38.2c55.8,0,104.8,39.5,116.5,94.2l.1.4,26.4,138.7a16.54,16.54,0,0,1-13,19.3h-.2A13.86,13.86,0,0,1,1170,1187.4Z"/><path data-cppathid="10006" fill="#fff" d="M193.6,769.5a16.39,16.39,0,0,1-16.1-13.2,531.65,531.65,0,0,1-10.7-106c0-140.4,54.7-272.4,154-371.7s231.3-154,371.8-154,272.5,54.7,371.7,154,154,231.3,154,371.8a540.25,540.25,0,0,1-7.1,87,16.43,16.43,0,0,1-32.4-5.4,495.56,495.56,0,0,0,6.8-81.6c0-131.6-51.2-255.4-144.3-348.5S824.4,157.7,692.8,157.7,437.2,208.9,344.1,302,199.8,518.8,199.8,650.4a495.21,495.21,0,0,0,10.1,99.4,16.58,16.58,0,0,1-12.8,19.5,12.67,12.67,0,0,1-3.4.4Z"/><path data-cppathid="10007" fill="#fff" d="M692.6,432c-159.9,0-309.5-21.6-420.9-60.6a16.45,16.45,0,1,1,11-31c108.1,37.9,253.7,58.8,410,58.8,154.4,0,298.8-20.5,406.5-57.5a16.43,16.43,0,0,1,10.7,31C998.7,410.9,850.5,432,692.6,432Z"/><path data-cppathid="10008" fill="#fff" d="M1002,666.9a16.41,16.41,0,0,1-16.4-16.4c0-133.1-31.3-257.9-88.2-351.6C842,207.8,769.3,157.7,692.6,157.7S543.2,207.8,487.8,298.9c-56.9,93.6-88.2,218.5-88.2,351.6a16.46,16.46,0,0,1-32.9,0c0-139,33.1-269.9,93.1-368.6C521.2,180.5,604,124.7,692.6,124.7s171.3,55.8,232.9,157.1c60,98.7,93.1,229.6,93.1,368.6a16.67,16.67,0,0,1-16.6,16.5Z"/><path data-cppathid="10009" fill="#fff" d="M692.6,557.1a16.41,16.41,0,0,1-16.4-16.4V141.1a16.4,16.4,0,1,1,32.8,0V540.6a16.43,16.43,0,0,1-16.4,16.5Z"/><path data-cppathid="10010" fill="#fff" d="M1201.8,666.9H857.2a16.4,16.4,0,0,1,0-32.8h344.6a16.4,16.4,0,1,1,0,32.8Z"/><path data-cppathid="10011" fill="#fff" d="M531.5,666.9H183.3a16.4,16.4,0,0,1,0-32.8H531.6a16.4,16.4,0,1,1-.1,32.8Z"/></g></g><g id="TXT"><path data-cppathid="10012" fill="#fff" d="M429.5,1345.2v52H412.6V1276.5h35.6c11.6,0,20.6,3,26.9,8.9s9.5,14.4,9.5,25.5a31.31,31.31,0,0,1-4.4,16.6,29.44,29.44,0,0,1-12.7,11c6.2,2.1,10.7,5.6,13.4,10.5s4.1,10.9,4.1,18.1v10.5a45.38,45.38,0,0,0,1.1,10.4,14.55,14.55,0,0,0,3.8,7.5v1.9H472.6c-1.9-1.8-3.1-4.6-3.7-8.3a74.58,74.58,0,0,1-.9-11.6v-10.2c0-6.7-1.6-12.1-4.7-16s-7.5-5.9-13-5.9Zm0-12.9h17.9c7,0,12.1-1.8,15.4-5.5s5-8.9,5-15.6c0-6.9-1.6-12.3-4.9-16.1s-8.1-5.7-14.7-5.7H429.4v42.9Z"/><path data-cppathid="10013" fill="#fff" d="M502,1351.3c0-13.3,3.2-24.3,9.5-32.8s15-12.8,26-12.8,19.7,4.3,26,12.8,9.5,19.5,9.5,32.8v2.2c0,13.4-3.2,24.3-9.5,32.8s-14.9,12.7-25.9,12.7-19.8-4.2-26.1-12.7-9.5-19.4-9.5-32.8v-2.2Zm16.9,2.3c0,9.6,1.5,17.4,4.6,23.5s7.8,9.1,14.1,9.1c6.1,0,10.7-3.1,13.8-9.2s4.6-13.9,4.6-23.4v-2.2c0-9.4-1.6-17.2-4.7-23.4s-7.7-9.3-13.9-9.3-10.8,3.1-13.9,9.3-4.6,14-4.6,23.4Z"/><path data-cppathid="10014" fill="#fff" d="M607.1,1397.2H590.2V1267.7h16.9Z"/><path data-cppathid="10015" fill="#fff" d="M660.1,1399c-11.2,0-19.9-4.1-26.3-12.3s-9.5-18.9-9.5-32v-3.9c0-13.2,3.2-24,9.5-32.4s14.6-12.7,24.7-12.7,18,3.6,23.4,10.9,8,17,8,29.2v9.5H641.2c0,9.2,1.6,16.6,4.9,22.3s8.3,8.6,15.2,8.6a32.28,32.28,0,0,0,12.3-2.2,31,31,0,0,0,9.6-6.4l5.5,10.5a35.71,35.71,0,0,1-11.8,7.8A43.58,43.58,0,0,1,660.1,1399Zm-1.5-80.3c-4.9,0-8.7,2.3-11.6,6.8s-4.7,10.5-5.4,17.9h31.8v-1.9c0-6.7-1.2-12.2-3.6-16.4a12.08,12.08,0,0,0-11.2-6.4Z"/><path data-cppathid="10016" fill="#fff" d="M747.7,1374.6a12.15,12.15,0,0,0-3.5-8.8c-2.3-2.3-6.8-5-13.4-7.9-9.2-3.5-16.2-7.3-20.8-11.4a20.21,20.21,0,0,1-6.9-15.8c0-6.9,2.8-12.8,8.3-17.7s12.8-7.3,21.7-7.3c9.2,0,16.7,2.7,22.3,8a24.19,24.19,0,0,1,8.1,19.4l-.2.5H747a16.4,16.4,0,0,0-3.8-11A12.32,12.32,0,0,0,733,1318c-4.3,0-7.7,1.2-10.1,3.6a11.57,11.57,0,0,0-3.6,8.4,10.62,10.62,0,0,0,3.1,8.1c2.1,2,6.5,4.5,13.3,7.6,9.4,3.3,16.5,7.2,21.2,11.5a21.8,21.8,0,0,1,7.1,16.4,22.18,22.18,0,0,1-8.6,18.2c-5.7,4.7-13.2,7-22.5,7-10.1,0-18-2.8-23.8-8.4a25.47,25.47,0,0,1-8.3-19.7l.2-.5h16c.2,5.8,1.9,10,4.9,12.6a17.62,17.62,0,0,0,11.5,3.9c4.5,0,8-1.2,10.5-3.4A11.17,11.17,0,0,0,747.7,1374.6Z"/><path data-cppathid="10017" fill="#fff" d="M814.2,1353.4c0-14.4,2.6-25.9,7.9-34.6s12.6-13,22.2-13a22.37,22.37,0,0,1,11.5,2.9,25.59,25.59,0,0,1,8.7,8.3v-49.1h16.8v129.5h-14l-1.7-10.8a27,27,0,0,1-9.1,9.3,23.44,23.44,0,0,1-12.4,3.2c-9.5,0-16.8-4-22-12s-7.8-18.6-7.8-31.8Zm16.8,1.8q0,14.1,4.2,22.5c2.8,5.6,7.2,8.3,13.2,8.3a15.85,15.85,0,0,0,9.6-3,21.53,21.53,0,0,0,6.4-8.5V1331a23.51,23.51,0,0,0-6.5-8.8,14.3,14.3,0,0,0-9.5-3.3q-9,0-13.2,9.6c-2.8,6.4-4.2,14.7-4.3,25v1.7Z"/><path data-cppathid="10018" fill="#fff" d="M933.5,1399c-11.2,0-19.9-4.1-26.3-12.3s-9.5-18.9-9.5-32v-3.9c0-13.2,3.2-24,9.5-32.4s14.6-12.6,24.7-12.6,18,3.6,23.4,10.9,8,17,8,29.2v9.5H914.6c0,9.2,1.6,16.6,4.9,22.3s8.3,8.6,15.2,8.6a29.38,29.38,0,0,0,21.9-8.6l5.5,10.5a35.71,35.71,0,0,1-11.8,7.8A46.19,46.19,0,0,1,933.5,1399Zm-1.6-80.3c-4.9,0-8.7,2.3-11.6,6.8s-4.7,10.5-5.4,17.9h31.8v-1.9c0-6.7-1.2-12.2-3.6-16.4S936.9,1318.7,931.9,1318.7Z"/><path data-cppathid="10019" fill="#fff" d="M472.4,1585.5c-2.9,4.6-7.5,8.7-13.7,12.2s-14.4,5.3-24.3,5.3c-12.6,0-22.8-3.8-30.5-11.5s-11.6-18.7-11.6-32.9v-35.9c0-14,3.7-24.8,11.2-32.5s17.4-11.5,29.8-11.5c12.2,0,21.7,3.2,28.3,9.5s9.8,14.9,9.6,25.9l-.2.5H455.2c0-7.2-1.8-12.9-5.5-16.9s-9-6-16.1-6c-7.6,0-13.5,2.6-17.9,7.9s-6.5,13-6.5,23v36c0,10.3,2.3,18.1,6.8,23.5s10.6,8.1,18.4,8.1c5.7,0,10.2-.9,13.6-2.7a17.88,17.88,0,0,0,7.4-6.5v-28.1H433.2v-12.3h39.2v44.9Z"/><path data-cppathid="10020" fill="#fff" d="M489.5,1555.3c0-13.3,3.2-24.3,9.5-32.8s15-12.8,26-12.8,19.7,4.3,26,12.8,9.5,19.5,9.5,32.8v2.2c0,13.4-3.2,24.3-9.5,32.8s-14.9,12.7-25.9,12.7-19.8-4.2-26.1-12.7-9.5-19.4-9.5-32.8Zm17,2.3c0,9.6,1.5,17.4,4.6,23.5s7.8,9.1,14.1,9.1c6.1,0,10.8-3.1,13.8-9.2s4.6-13.9,4.6-23.4v-2.2c0-9.4-1.6-17.2-4.7-23.4s-7.7-9.3-13.9-9.3-10.8,3.1-13.9,9.3-4.6,14-4.6,23.4Z"/><path data-cppathid="10021" fill="#fff" d="M644.1,1559.2c0,13.3-2.6,23.9-7.8,31.9s-12.6,12-22.2,12a23.44,23.44,0,0,1-12.7-3.3,25.9,25.9,0,0,1-9-9.6l-1.8,11.1H576.7V1471.8h16.9v49.4a26.55,26.55,0,0,1,8.6-8.4,23.3,23.3,0,0,1,11.8-3c9.6,0,17.1,4.3,22.3,13s7.8,20.2,7.8,34.7v1.7Zm-17-1.8c0-10.4-1.4-18.8-4.2-25.1s-7.2-9.5-13.3-9.5a14.91,14.91,0,0,0-9.9,3.4,23.33,23.33,0,0,0-6.3,9.2v42.5a19.15,19.15,0,0,0,6.3,8.8,16,16,0,0,0,10.1,3.2c6,0,10.4-2.8,13.2-8.3s4.1-13,4.1-22.5Z"/><path data-cppathid="10022" fill="#fff" d="M678.3,1487.9H661.4v-16.1h16.9Zm0,113.3H661.4v-89.8h16.9Z"/><path data-cppathid="10023" fill="#fff" d="M731.3,1603c-11.2,0-19.9-4.1-26.3-12.3s-9.5-18.9-9.5-32v-3.9c0-13.2,3.2-24,9.5-32.4s14.6-12.7,24.7-12.7,18,3.6,23.4,10.9,8,17,8,29.2v9.5H712.4c0,9.2,1.6,16.6,4.9,22.3s8.3,8.6,15.2,8.6a32.28,32.28,0,0,0,12.3-2.2,31,31,0,0,0,9.6-6.4l5.5,10.5a35.71,35.71,0,0,1-11.8,7.8A43.58,43.58,0,0,1,731.3,1603Zm-1.6-80.3c-4.9,0-8.7,2.3-11.6,6.8s-4.7,10.5-5.4,17.9h31.8v-1.9c0-6.7-1.2-12.2-3.6-16.4a12.08,12.08,0,0,0-11.2-6.4Z"/><path data-cppathid="10024" fill="#fff" d="M814.8,1525.5l-7.3-.4a12.46,12.46,0,0,0-8.8,3.2,20.35,20.35,0,0,0-5.4,9v64H776.4v-89.8h15.5l1.2,13.3a29,29,0,0,1,7.6-11,15.73,15.73,0,0,1,10.7-3.9,15.26,15.26,0,0,1,3,.3,23.35,23.35,0,0,1,2.5.7Z"/><path data-cppathid="10025" fill="#fff" d="M843.9,1511.4l1,13.4a32.09,32.09,0,0,1,9.6-11.1,23,23,0,0,1,13.2-3.9c8,0,14.2,2.9,18.6,8.8s6.7,15,6.7,27.4v55.3H876.1v-55.2c0-8.5-1.2-14.5-3.5-17.9s-5.9-5.2-10.7-5.2a16.17,16.17,0,0,0-10,3,20.51,20.51,0,0,0-6.6,8.3v67H828.4v-89.8Z"/><path data-cppathid="10026" fill="#fff" d="M908.9,1555.3c0-13.3,3.2-24.3,9.5-32.8s15-12.8,26-12.8,19.7,4.3,26,12.8,9.5,19.5,9.5,32.8v2.2c0,13.4-3.2,24.3-9.5,32.8s-14.9,12.7-25.9,12.7-19.9-4.2-26.2-12.7-9.4-19.4-9.4-32.8v-2.2Zm16.9,2.3c0,9.6,1.5,17.4,4.6,23.5s7.8,9.1,14.1,9.1c6.1,0,10.7-3.1,13.8-9.2s4.6-13.9,4.6-23.4v-2.2c0-9.4-1.5-17.2-4.7-23.4s-7.8-9.3-14-9.3-10.8,3.1-13.9,9.3-4.6,14-4.6,23.4Z"/></g><g id="Borde"><path data-cppathid="10027" stroke-width="11" stroke-miterlimit="10" stroke="#71f3cf" fill="none" d="M151.6,5.5H1218.4a146.09,146.09,0,0,1,146.1,146.1V1510.4a146.09,146.09,0,0,1-146.1,146.1H151.6A146.09,146.09,0,0,1,5.5,1510.4V151.6A146.09,146.09,0,0,1,151.6,5.5Z"/></g></svg>