<?xml version="1.0" encoding="UTF-8"?>
<svg xmlns="http://www.w3.org/2000/svg" onmouseup="{ if(window.parent.document.onmouseup) window.parent.document.onmouseup(arguments[0]);}" viewBox="0 0 1370 1662"><defs><style>.cls-1{fill:#fff;}.cls-2{fill:#00ff0c;}.cls-3{fill:#03e503;}.cls-4{fill:none;stroke:#71f3cf;stroke-miterlimit:10;stroke-width:11px;}</style></defs><g id="IMG"><g data-name="Roles Gobierno" id="Roles_Gobierno"><path data-cppathid="10000" transform="translate(-0.11 0)" d="M694.15,835.48A108.69,108.69,0,1,1,802.84,726.79h0A108.83,108.83,0,0,1,694.15,835.48Zm0-184.5A75.81,75.81,0,1,0,770,726.79h0A75.85,75.85,0,0,0,694.15,651Z" class="cls-1"/><path data-cppathid="10001" transform="translate(-0.11 0)" d="M519,1155.07a14.71,14.71,0,0,1-3.47-.36,16.47,16.47,0,0,1-12.6-19.55h0l37.45-173.91c13.42-62.2,69.32-107.41,133-107.41h44.39A136.46,136.46,0,0,1,851.07,963.17l34.43,172.27a16.44,16.44,0,0,1-32.24,6.48h0L818.83,969.56a103.36,103.36,0,0,0-101.12-82.84H673.32c-48.22,0-90.6,34.25-100.83,81.47L535,1142.1A16.52,16.52,0,0,1,519,1155.07Z" class="cls-1"/><path data-cppathid="10002" transform="translate(-0.11 0)" d="M358.3,923.62A95.72,95.72,0,1,1,454,827.9,95.69,95.69,0,0,1,358.3,923.62Zm0-158.56a62.84,62.84,0,1,0,62.84,62.84h0a63,63,0,0,0-62.84-62.84Z" class="cls-1"/><path data-cppathid="10003" transform="translate(-0.11 0)" d="M213.53,1187.41a17.21,17.21,0,0,1-3.11-.28A16.34,16.34,0,0,1,197.36,1168v-.09l26.49-138.65a.57.57,0,0,1,.09-.37c11.69-54.53,60.74-94.17,116.46-94.17h38.18a119.49,119.49,0,0,1,116.91,95.82,16.44,16.44,0,0,1-32.24,6.48,86.43,86.43,0,0,0-84.58-69.32H340.49a86.73,86.73,0,0,0-84.31,67.95l-26.39,138.47A16.7,16.7,0,0,1,213.53,1187.41Z" class="cls-1"/><path data-cppathid="10004" transform="translate(-0.11 0)" d="M1025.25,923.62A95.72,95.72,0,1,1,1121,827.9,95.7,95.7,0,0,1,1025.25,923.62Zm0-158.56a62.84,62.84,0,1,0,62.84,62.84h0a62.89,62.89,0,0,0-62.84-62.84Z" class="cls-1"/><path data-cppathid="10005" transform="translate(-0.11 0)" d="M1170.11,1187.41A16.45,16.45,0,0,1,1154,1174l-26.4-138.47a86.73,86.73,0,0,0-84.31-68h-38.17a86.42,86.42,0,0,0-84.58,69.32,16.45,16.45,0,0,1-32.25-6.48,119.49,119.49,0,0,1,116.92-95.82h38.18c55.8,0,104.76,39.55,116.54,94.17l.09.37,26.4,138.65a16.42,16.42,0,0,1-13.06,19.27h-.09A11.81,11.81,0,0,1,1170.11,1187.41Z" class="cls-1"/><path data-cppathid="10006" transform="translate(-0.11 0)" d="M193.71,769.53a16.34,16.34,0,0,1-16.08-13.15,530.11,530.11,0,0,1-10.68-106C167,510,221.66,378,320.94,278.68s231.27-154,371.75-154,272.46,54.71,371.74,154,154,231.27,154,371.75a532.57,532.57,0,0,1-7.12,87,16.44,16.44,0,0,1-32.43-5.39,497.5,497.5,0,0,0,6.76-81.56c0-131.62-51.24-255.38-144.31-348.46S824.49,157.66,692.87,157.66,437.31,208.9,344.23,302,199.92,518.81,199.92,650.43A497.6,497.6,0,0,0,210,749.81a16.53,16.53,0,0,1-12.79,19.45,14.47,14.47,0,0,1-3.38.37Z" class="cls-1"/><path data-cppathid="10007" transform="translate(-0.11 0)" d="M692.69,432c-159.94,0-309.46-21.56-420.89-60.65a16.47,16.47,0,0,1,11-31.06c108.15,37.91,253.74,58.83,410,58.83,154.36,0,298.77-20.46,406.55-57.55A16.43,16.43,0,0,1,1110,372.58C998.76,410.94,850.61,432,692.69,432Z" class="cls-1"/><path data-cppathid="10008" transform="translate(-0.11 0)" d="M1002.14,666.87a16.49,16.49,0,0,1-16.44-16.44c0-133.08-31.33-257.94-88.23-351.56C842.12,207.8,769.41,157.66,692.69,157.66S543.26,207.8,487.91,298.87C431,392.49,399.68,517.35,399.68,650.43a16.45,16.45,0,0,1-32.89,0c0-139,33.07-269.91,93.08-368.64,61.47-101.3,144.22-157.1,232.82-157.1S864,180.49,925.6,281.79c60,98.73,93.07,229.62,93.07,368.64a16.5,16.5,0,0,1-16.53,16.44Z" class="cls-1"/><path data-cppathid="10009" transform="translate(-0.11 0)" d="M692.69,557.08a16.49,16.49,0,0,1-16.44-16.44V141.13a16.44,16.44,0,1,1,32.88,0V540.64A16.43,16.43,0,0,1,692.69,557.08Z" class="cls-1"/><path data-cppathid="10010" transform="translate(-0.11 0)" d="M1201.9,666.87H857.28a16.44,16.44,0,1,1,0-32.88H1201.9a16.44,16.44,0,0,1,0,32.88Z" class="cls-1"/><path data-cppathid="10011" transform="translate(-0.11 0)" d="M531.66,666.87H183.39a16.44,16.44,0,0,1,0-32.88H531.66a16.44,16.44,0,1,1,0,32.88Z" class="cls-1"/></g></g><g id="TXT"><path data-cppathid="10012" transform="translate(-0.11 0)" d="M429.65,1345.2v52H412.8V1276.47h35.61q17.43,0,26.94,8.88t9.5,25.48a30.56,30.56,0,0,1-4.44,16.56,29.23,29.23,0,0,1-12.74,11q9.29,3.16,13.4,10.46t4.11,18.1v10.54a47.38,47.38,0,0,0,1.08,10.38,14.52,14.52,0,0,0,3.82,7.47v1.91H472.73q-2.82-2.74-3.69-8.35a75.29,75.29,0,0,1-.87-11.58v-10.21q0-10.12-4.69-16t-13-5.89Zm0-12.87h17.93q10.46,0,15.44-5.52t5-15.64q0-10.38-4.86-16.11t-14.73-5.72H429.65Z" class="cls-1"/><path data-cppathid="10013" transform="translate(-0.11 0)" d="M502.12,1351.34q0-20,9.46-32.79t26-12.78q16.52,0,26,12.78t9.51,32.79v2.24q0,20.1-9.47,32.75T537.73,1399q-16.69,0-26.15-12.66t-9.46-32.75Zm16.93,2.24q0,14.37,4.61,23.5t14.07,9.13q9.21,0,13.82-9.18t4.6-23.45v-2.24q0-14.1-4.65-23.36t-13.94-9.26q-9.3,0-13.9,9.26t-4.61,23.36Z" class="cls-1"/><path data-cppathid="10014" transform="translate(-0.11 0)" d="M607.2,1397.25H590.27v-129.5H607.2Z" class="cls-1"/><path data-cppathid="10015" transform="translate(-0.11 0)" d="M660.25,1399q-16.77,0-26.28-12.29t-9.5-32v-3.91q0-19.75,9.46-32.41t24.74-12.66q15.36,0,23.36,10.88t8,29.21v9.47H641.32q0,13.77,4.94,22.33t15.15,8.55a31.61,31.61,0,0,0,12.28-2.2,31.29,31.29,0,0,0,9.63-6.44L688.8,1388a35.73,35.73,0,0,1-11.83,7.8A41.9,41.9,0,0,1,660.25,1399Zm-1.58-80.27q-7.3,0-11.62,6.77t-5.4,17.88h31.79v-1.91q0-10.12-3.61-16.43C667.43,1320.82,663.7,1318.72,658.67,1318.72Z" class="cls-1"/><path data-cppathid="10016" transform="translate(-0.11 0)" d="M747.82,1374.58a11.93,11.93,0,0,0-3.49-8.75q-3.48-3.52-13.36-7.93-13.86-5.24-20.75-11.37a20.15,20.15,0,0,1-6.89-15.77q0-10.38,8.34-17.68t21.71-7.31q13.86,0,22.32,8a24.63,24.63,0,0,1,8.14,19.38l-.17.5H747.4a16.84,16.84,0,0,0-3.77-11,12.56,12.56,0,0,0-10.25-4.6q-6.48,0-10.09,3.61a11.51,11.51,0,0,0-3.61,8.42,10.65,10.65,0,0,0,3.11,8.1q3.12,2.94,13.32,7.59,14.11,5,21.21,11.54a21.44,21.44,0,0,1,7.1,16.43,22.39,22.39,0,0,1-8.59,18.22q-8.6,7-22.54,7-15.1,0-23.78-8.43t-8.26-19.71l.17-.5h15.69q.33,8.72,4.93,12.58a17.34,17.34,0,0,0,11.5,3.86q6.72,0,10.5-3.45A11.31,11.31,0,0,0,747.82,1374.58Z" class="cls-1"/><path data-cppathid="10017" transform="translate(-0.11 0)" d="M814.31,1353.42q0-21.59,7.88-34.62t22.17-13a22.92,22.92,0,0,1,11.45,2.86,26.1,26.1,0,0,1,8.72,8.26v-49.14h16.85v129.5h-14l-1.74-10.79a26.7,26.7,0,0,1-9.13,9.33,23.82,23.82,0,0,1-12.37,3.2q-14.19,0-22-12t-7.84-31.83Zm16.77,1.74q0,14.11,4.23,22.46t13.2,8.34a15.41,15.41,0,0,0,9.58-3,21.52,21.52,0,0,0,6.44-8.47V1331a23.68,23.68,0,0,0-6.48-8.84,14.39,14.39,0,0,0-9.46-3.28q-9,0-13.24,9.58t-4.27,25Z" class="cls-1"/><path data-cppathid="10018" transform="translate(-0.11 0)" d="M933.59,1399q-16.77,0-26.27-12.29t-9.51-32v-3.91q0-19.75,9.47-32.41T932,1305.77q15.36,0,23.37,10.88t8,29.21v9.47H914.66q0,13.77,4.94,22.33t15.15,8.55a29.4,29.4,0,0,0,21.92-8.64l5.47,10.46a35.68,35.68,0,0,1-11.82,7.8A42,42,0,0,1,933.59,1399ZM932,1318.72q-7.31,0-11.62,6.77T915,1343.37h31.79v-1.91q0-10.12-3.61-16.43T932,1318.72Z" class="cls-1"/><path data-cppathid="10019" transform="translate(-0.11 0)" d="M472.52,1585.47q-4.31,6.9-13.73,12.21T434.51,1603q-18.93,0-30.51-11.54t-11.58-32.87v-35.86q0-21,11.21-32.54t29.8-11.54q18.35,0,28.3,9.47t9.63,25.89l-.17.5H455.34q0-10.87-5.52-16.89t-16.06-6q-11.37,0-17.89,7.93t-6.52,23v36q0,15.43,6.77,23.53t18.39,8.1c5.69,0,10.25-.89,13.65-2.66a18.28,18.28,0,0,0,7.43-6.47v-28.14H433.34v-12.29h39.18Z" class="cls-1"/><path data-cppathid="10020" transform="translate(-0.11 0)" d="M489.62,1555.34q0-20,9.47-32.79t26-12.78q16.51,0,26,12.78t9.5,32.79v2.24q0,20.1-9.46,32.75T525.23,1603q-16.68,0-26.14-12.66t-9.47-32.75Zm16.94,2.24q0,14.37,4.6,23.5t14.07,9.13q9.22,0,13.82-9.18t4.61-23.45v-2.24q0-14.1-4.65-23.36t-13.94-9.26q-9.3,0-13.91,9.26t-4.6,23.36Z" class="cls-1"/><path data-cppathid="10021" transform="translate(-0.11 0)" d="M644.18,1559.16q0,19.92-7.84,31.88t-22.21,12a24.16,24.16,0,0,1-12.74-3.28,25.54,25.54,0,0,1-9-9.59l-1.83,11.13H576.7v-129.5h16.93v49.39a25.83,25.83,0,0,1,8.63-8.42,23,23,0,0,1,11.79-3q14.44,0,22.29,13t7.84,34.66Zm-16.93-1.74q0-15.62-4.15-25.07t-13.28-9.46a14.68,14.68,0,0,0-9.88,3.4,23.12,23.12,0,0,0-6.31,9.21V1578a20.07,20.07,0,0,0,6.27,8.84A16,16,0,0,0,610,1590q9.06,0,13.16-8.26t4.11-22.54Z" class="cls-1"/><path data-cppathid="10022" transform="translate(-0.11 0)" d="M678.38,1487.86H661.45v-16.11h16.93Zm0,113.39H661.45v-89.82h16.93Z" class="cls-1"/><path data-cppathid="10023" transform="translate(-0.11 0)" d="M731.42,1603q-16.75,0-26.27-12.29t-9.5-32v-3.91q0-19.75,9.46-32.41t24.74-12.66q15.35,0,23.36,10.88t8,29.21v9.47H712.5q0,13.77,4.94,22.33t15.15,8.55a31.61,31.61,0,0,0,12.28-2.2,31.29,31.29,0,0,0,9.63-6.44L760,1592a35.73,35.73,0,0,1-11.83,7.8A41.91,41.91,0,0,1,731.42,1603Zm-1.57-80.27q-7.3,0-11.62,6.77t-5.4,17.88h31.79v-1.91q0-10.12-3.61-16.43A12,12,0,0,0,729.85,1522.72Z" class="cls-1"/><path data-cppathid="10024" transform="translate(-0.11 0)" d="M814.93,1525.46l-7.31-.42a12.65,12.65,0,0,0-8.83,3.2,20.35,20.35,0,0,0-5.44,9v64H776.41v-89.82h15.53l1.16,13.28a28.87,28.87,0,0,1,7.64-11,16.07,16.07,0,0,1,10.7-3.94,14.47,14.47,0,0,1,2.95.29,16.71,16.71,0,0,1,2.45.71Z" class="cls-1"/><path data-cppathid="10025" transform="translate(-0.11 0)" d="M844,1511.43l1,13.37a30.27,30.27,0,0,1,9.63-11.09,23,23,0,0,1,13.2-3.94q11.94,0,18.63,8.8t6.68,27.39v55.29H876.27v-55.2q0-12.71-3.52-17.93t-10.67-5.23a16.4,16.4,0,0,0-10,3,21.19,21.19,0,0,0-6.64,8.34v67H828.54v-89.82Z" class="cls-1"/><path data-cppathid="10026" transform="translate(-0.11 0)" d="M909,1555.34q0-20,9.46-32.79t26-12.78q16.51,0,26,12.78t9.51,32.79v2.24q0,20.1-9.46,32.75T944.59,1603q-16.7,0-26.15-12.66T909,1557.58Zm16.93,2.24q0,14.37,4.61,23.5t14.07,9.13q9.21,0,13.82-9.18t4.61-23.45v-2.24q0-14.1-4.65-23.36t-14-9.26q-9.3,0-13.9,9.26t-4.61,23.36Z" class="cls-1"/></g><g id="Check"><g data-name="Capa 2-2" id="Capa_2-2"><path data-cppathid="10027" transform="translate(-0.11 0)" d="M1030,637.23l-17.13-18.54a40.46,40.46,0,0,0-57.14-2.84c-1,.9-1.94,1.84-2.85,2.84l-370.75,398.6L417.33,838.68a40.35,40.35,0,0,0-57-3h0a39.49,39.49,0,0,0-3,3l-20.85,22.41,242.22,263.07Z" class="cls-2"/><path data-cppathid="10028" transform="translate(-0.11 0)" d="M1030,637.23,578.9,1124,336.68,860.92l-22.17,23.82a48.51,48.51,0,0,0,0,64.66l237.62,257.23a40.19,40.19,0,0,0,53.39,5.85,42.94,42.94,0,0,0,7.58-6.34l442.6-476.31a48.52,48.52,0,0,0,0-64.67Z" class="cls-3"/></g></g><g id="Borde"><rect data-cppathid="10029" rx="146.08" height="1651" width="1359" y="5.5" x="5.5" class="cls-4"/></g></svg>