<?xml version="1.0" encoding="UTF-8"?>
<svg xmlns="http://www.w3.org/2000/svg" onmouseup="{ if(window.parent.document.onmouseup) window.parent.document.onmouseup(arguments[0]);}" viewBox="0 0 54.59 71.48"><g id="TXT"><g id="Dueno"><path data-cppathid="10000" fill="#fff" transform="translate(-0.01 0.01)" d="M4.52,63.18V57.49H6.13a1.91,1.91,0,0,1,1.51.68,2.61,2.61,0,0,1,.58,1.76v.81a2.61,2.61,0,0,1-.58,1.76,1.91,1.91,0,0,1-1.51.68Zm.79-5.08v4.47h.82a1.1,1.1,0,0,0,.94-.51,2.31,2.31,0,0,0,.35-1.32v-.82a2.3,2.3,0,0,0-.35-1.31,1.1,1.1,0,0,0-.94-.51Z"/><path data-cppathid="10001" fill="#fff" transform="translate(-0.01 0.01)" d="M11.2,62.56a1.42,1.42,0,0,1-.44.52,1.08,1.08,0,0,1-.62.18,1.06,1.06,0,0,1-.91-.45,2.39,2.39,0,0,1-.33-1.4V59h.8v2.47a2,2,0,0,0,.16.95.5.5,0,0,0,.47.27.89.89,0,0,0,.5-.13.83.83,0,0,0,.32-.39V59H12v4.23h-.68Z"/><path data-cppathid="10002" fill="#fff" transform="translate(-0.01 0.01)" d="M14.23,63.26A1.47,1.47,0,0,1,13,62.68a2.39,2.39,0,0,1-.45-1.5V61A2.43,2.43,0,0,1,13,59.47a1.39,1.39,0,0,1,1.16-.6,1.27,1.27,0,0,1,1.1.51,2.22,2.22,0,0,1,.38,1.38v.44H13.34a2.1,2.1,0,0,0,.23,1,.77.77,0,0,0,.71.41,1.46,1.46,0,0,0,.58-.11,1.37,1.37,0,0,0,.45-.3l.26.49a1.61,1.61,0,0,1-.55.37A2,2,0,0,1,14.23,63.26Zm-.08-3.78a.62.62,0,0,0-.54.32,1.89,1.89,0,0,0-.26.84h1.5v-.09a1.57,1.57,0,0,0-.17-.77A.56.56,0,0,0,14.15,59.48Z"/><path data-cppathid="10003" fill="#fff" transform="translate(-0.01 0.01)" d="M16.9,59l.05.63a1.36,1.36,0,0,1,.45-.52,1.07,1.07,0,0,1,.63-.19,1,1,0,0,1,.87.42,2.09,2.09,0,0,1,.32,1.28v2.61h-.8v-2.6a1.63,1.63,0,0,0-.16-.85.57.57,0,0,0-.5-.24.79.79,0,0,0-.47.14A1.12,1.12,0,0,0,17,60v3.16h-.79V59Zm2-1.7a1,1,0,0,1-.2.61.63.63,0,0,1-.5.25,1,1,0,0,1-.52-.2.91.91,0,0,0-.45-.19.27.27,0,0,0-.22.13.58.58,0,0,0-.09.33l-.44-.11a1,1,0,0,1,.2-.61.6.6,0,0,1,.5-.25,1,1,0,0,1,.5.19.93.93,0,0,0,.47.19.26.26,0,0,0,.22-.13.52.52,0,0,0,.1-.33Z"/><path data-cppathid="10004" fill="#fff" transform="translate(-0.01 0.01)" d="M19.8,61a2.52,2.52,0,0,1,.45-1.55,1.42,1.42,0,0,1,1.22-.6,1.45,1.45,0,0,1,1.23.6A2.59,2.59,0,0,1,23.14,61v.1a2.55,2.55,0,0,1-.44,1.54,1.55,1.55,0,0,1-2.45,0,2.49,2.49,0,0,1-.45-1.54Zm.8.1a2.41,2.41,0,0,0,.22,1.11.71.71,0,0,0,1.31,0,2.47,2.47,0,0,0,.22-1.1V61a2.5,2.5,0,0,0-.22-1.1.72.72,0,0,0-.66-.44.69.69,0,0,0-.65.44A2.37,2.37,0,0,0,20.6,61Z"/><path data-cppathid="10005" fill="#fff" transform="translate(-0.01 0.01)" d="M25.19,61.11a3.12,3.12,0,0,1,.37-1.63,1.18,1.18,0,0,1,1-.61,1.09,1.09,0,0,1,.54.14,1.24,1.24,0,0,1,.41.38V57.08h.8v6.1h-.66l-.08-.51a1.3,1.3,0,0,1-.43.44,1.14,1.14,0,0,1-.58.15,1.17,1.17,0,0,1-1-.57,2.63,2.63,0,0,1-.37-1.49Zm.79.09a2.36,2.36,0,0,0,.2,1,.65.65,0,0,0,.62.39.67.67,0,0,0,.45-.14.93.93,0,0,0,.3-.39v-2a1.1,1.1,0,0,0-.3-.42.7.7,0,0,0-.45-.15.65.65,0,0,0-.62.45,3,3,0,0,0-.2,1.17Z"/><path data-cppathid="10006" fill="#fff" transform="translate(-0.01 0.01)" d="M30.64,63.26a1.46,1.46,0,0,1-1.23-.58,2.39,2.39,0,0,1-.45-1.5V61a2.43,2.43,0,0,1,.45-1.52,1.37,1.37,0,0,1,1.16-.6,1.28,1.28,0,0,1,1.1.51,2.28,2.28,0,0,1,.38,1.38v.44h-2.3a2,2,0,0,0,.24,1,.76.76,0,0,0,.71.41,1.5,1.5,0,0,0,.58-.11,1.61,1.61,0,0,0,.45-.3l.26.49a1.66,1.66,0,0,1-.56.37A2,2,0,0,1,30.64,63.26Zm-.07-3.78a.64.64,0,0,0-.55.32,1.9,1.9,0,0,0-.25.84h1.49v-.09a1.47,1.47,0,0,0-.17-.77A.55.55,0,0,0,30.57,59.48Z"/><path data-cppathid="10007" fill="#fff" transform="translate(-0.01 0.01)" d="M34.05,61.11a3.12,3.12,0,0,1,.37-1.63,1.18,1.18,0,0,1,1-.61A1.09,1.09,0,0,1,36,59a1.24,1.24,0,0,1,.41.38V57.08h.8v6.1h-.66l-.08-.51a1.3,1.3,0,0,1-.43.44,1.14,1.14,0,0,1-.58.15,1.17,1.17,0,0,1-1-.57,2.63,2.63,0,0,1-.37-1.49Zm.79.09a2.36,2.36,0,0,0,.2,1,.65.65,0,0,0,.62.39.67.67,0,0,0,.45-.14,1,1,0,0,0,.3-.39v-2a1.22,1.22,0,0,0-.3-.42.72.72,0,0,0-.45-.15.65.65,0,0,0-.62.45,3,3,0,0,0-.2,1.17Z"/><path data-cppathid="10008" fill="#fff" transform="translate(-0.01 0.01)" d="M40.17,63.18c0-.13-.06-.25-.08-.35s0-.2,0-.29a1.55,1.55,0,0,1-.44.51,1,1,0,0,1-.63.21,1.08,1.08,0,0,1-.86-.34,1.28,1.28,0,0,1-.31-.92,1.16,1.16,0,0,1,.42-.94,1.79,1.79,0,0,1,1.17-.34h.65v-.43a1,1,0,0,0-.17-.61.61.61,0,0,0-.49-.22.59.59,0,0,0-.46.19.67.67,0,0,0-.17.48H38v0a1.07,1.07,0,0,1,.39-.86,1.5,1.5,0,0,1,1.06-.38,1.41,1.41,0,0,1,1,.37,1.39,1.39,0,0,1,.39,1v2a3.48,3.48,0,0,0,0,.47,2.36,2.36,0,0,0,.1.46Zm-1-.53a.9.9,0,0,0,.57-.2.94.94,0,0,0,.33-.49v-.75h-.66a.73.73,0,0,0-.57.23.83.83,0,0,0-.21.56.73.73,0,0,0,.14.47A.48.48,0,0,0,39.15,62.65Z"/><path data-cppathid="10009" fill="#fff" transform="translate(-0.01 0.01)" d="M42.61,57.9V59h.66v.57h-.66V62a.89.89,0,0,0,.1.47.33.33,0,0,0,.27.14l.12,0,.14,0,.08.55-.25.08a.92.92,0,0,1-.29,0,.89.89,0,0,1-.71-.3,1.38,1.38,0,0,1-.25-.93V59.52h-.56V59h.56V57.9Z"/><path data-cppathid="10010" fill="#fff" transform="translate(-0.01 0.01)" d="M43.67,61a2.52,2.52,0,0,1,.45-1.55,1.54,1.54,0,0,1,2.44,0A2.52,2.52,0,0,1,47,61v.1a2.55,2.55,0,0,1-.44,1.54,1.45,1.45,0,0,1-1.22.6,1.43,1.43,0,0,1-1.23-.6,2.49,2.49,0,0,1-.45-1.54Zm.8.1a2.41,2.41,0,0,0,.22,1.11.71.71,0,0,0,1.31,0,2.48,2.48,0,0,0,.21-1.1V61a2.51,2.51,0,0,0-.21-1.1.72.72,0,0,0-.66-.44.69.69,0,0,0-.65.44,2.37,2.37,0,0,0-.22,1.1Z"/><path data-cppathid="10011" fill="#fff" transform="translate(-0.01 0.01)" d="M49.61,62.11a.56.56,0,0,0-.16-.41,2.26,2.26,0,0,0-.63-.38,3.26,3.26,0,0,1-1-.53,1,1,0,0,1-.32-.74,1.08,1.08,0,0,1,.39-.84,1.53,1.53,0,0,1,1-.34,1.45,1.45,0,0,1,1,.38,1.14,1.14,0,0,1,.39.91v0h-.77a.8.8,0,0,0-.17-.51.59.59,0,0,0-.49-.22.64.64,0,0,0-.47.17.54.54,0,0,0-.17.4.5.5,0,0,0,.15.38,2.31,2.31,0,0,0,.62.35,2.89,2.89,0,0,1,1,.55,1,1,0,0,1,.33.77,1.06,1.06,0,0,1-.4.86,1.62,1.62,0,0,1-1.06.33,1.52,1.52,0,0,1-1.12-.4,1.2,1.2,0,0,1-.39-.93v0h.74a.79.79,0,0,0,.23.59.82.82,0,0,0,.54.18.72.72,0,0,0,.5-.16A.55.55,0,0,0,49.61,62.11Z"/></g></g><g id="IMG"><g data-name="Affiliate marketing" id="Affiliate_marketing"><path data-cppathid="10012" fill="#fff" transform="translate(-0.01 0.01)" d="M19,42.19l2.48-4.27c-.27-.14-.54-.29-.8-.45l-2.47,4.26Z"/><path data-cppathid="10013" fill="#fff" transform="translate(-0.01 0.01)" d="M14.6,26.15H11.69v.91H14.6v-.45C14.6,26.45,14.59,26.31,14.6,26.15Z"/><path data-cppathid="10014" fill="#fff" transform="translate(-0.01 0.01)" d="M43.06,27.06v-.91h-2.9v.91Z"/><path data-cppathid="10015" fill="#fff" transform="translate(-0.01 0.01)" d="M36.6,41.72l-2.49-4.25c-.26.17-.53.31-.79.45l2.48,4.27Z"/><path data-cppathid="10016" fill="#fff" transform="translate(-0.01 0.01)" d="M19,11l-.79.46L20.77,16a6.46,6.46,0,0,1,.5-1Z"/><path data-cppathid="10017" fill="#fff" transform="translate(-0.01 0.01)" d="M35.8,11l-2.32,4a7.53,7.53,0,0,1,.5,1l2.59-4.49Z"/><path data-cppathid="10018" fill="#fff" transform="translate(-0.01 0.01)" d="M16.4,12A4.58,4.58,0,1,1,21,7.4,4.58,4.58,0,0,1,16.4,12Zm0-8.23A3.66,3.66,0,1,0,20.06,7.4,3.65,3.65,0,0,0,16.4,3.75Z"/><path data-cppathid="10019" fill="#fff" transform="translate(-0.01 0.01)" d="M7.26,31.18a4.57,4.57,0,1,1,4.57-4.57h0A4.58,4.58,0,0,1,7.26,31.18Zm0-8.23a3.66,3.66,0,1,0,3.65,3.66h0A3.65,3.65,0,0,0,7.26,23Z"/><path data-cppathid="10020" fill="#fff" transform="translate(-0.01 0.01)" d="M16.4,50.38A4.57,4.57,0,1,1,21,45.81,4.57,4.57,0,0,1,16.4,50.38Zm0-8.23a3.66,3.66,0,1,0,3.66,3.66A3.66,3.66,0,0,0,16.4,42.15Z"/><path data-cppathid="10021" fill="#fff" transform="translate(-0.01 0.01)" d="M38.35,50.38a4.57,4.57,0,1,1,4.57-4.57A4.56,4.56,0,0,1,38.35,50.38Zm0-8.23A3.66,3.66,0,1,0,42,45.81,3.66,3.66,0,0,0,38.35,42.15Z"/><path data-cppathid="10022" fill="#fff" transform="translate(-0.01 0.01)" d="M47.49,31.18a4.57,4.57,0,1,1,4.57-4.57A4.58,4.58,0,0,1,47.49,31.18Zm0-8.23a3.66,3.66,0,1,0,3.66,3.66A3.66,3.66,0,0,0,47.49,23Z"/><path data-cppathid="10023" fill="#fff" transform="translate(-0.01 0.01)" d="M38.35,12A4.58,4.58,0,1,1,42.92,7.4,4.57,4.57,0,0,1,38.35,12Zm0-8.23A3.66,3.66,0,1,0,42,7.4a3.65,3.65,0,0,0-3.66-3.65Z"/><path data-cppathid="10024" fill="#fff" transform="translate(-0.01 0.01)" d="M37.64,32.11l.24.07A11.9,11.9,0,0,0,34.32,17a12.69,12.69,0,0,1,.25,1.37A11,11,0,0,1,37,31.92Z"/><path data-cppathid="10025" fill="#fff" transform="translate(-0.01 0.01)" d="M20.19,18.34A10.64,10.64,0,0,1,20.44,17a11.88,11.88,0,0,0-3.56,15.21l.23-.07.67-.19A10.92,10.92,0,0,1,20.19,18.34Z"/><path data-cppathid="10026" fill="#fff" transform="translate(-0.01 0.01)" d="M36.46,32.73h0L31,31.18l-.91,1.26-2.75,1.37-2.74-1.37-.91-1.26L17.36,33a11.89,11.89,0,0,0,20,0Zm-17.61.78,4.3-1.22,2.1,5.05h0A11,11,0,0,1,18.85,33.51Zm8.49,4.07a9.28,9.28,0,0,1-1.06-.07l-1.62-4,2.74,1.37,2.75-1.37-1.66,4a10.36,10.36,0,0,1-1.12.07Zm2.11-.23h0l2.07-5.05,4.29,1.22a10.92,10.92,0,0,1-6.32,3.83Z"/><path data-cppathid="10027" fill="#fff" transform="translate(-0.01 0.01)" d="M30.1,29.58h0v2.74l-2.74,1.49-2.75-1.49V29.58h0a7.51,7.51,0,0,1-.75-.92h-.19v4.28l3.66,2,3.66-2V28.66H30.8A7,7,0,0,1,30.1,29.58Z"/><path data-cppathid="10028" fill="#fff" transform="translate(-0.01 0.01)" d="M32.68,22.11H32a.6.6,0,0,0-.46-.38l-.92-.12a4.5,4.5,0,0,0-1.16,0l-1.19.14a.53.53,0,0,0-.43.37H26.9a.51.51,0,0,0-.44-.37l-1.18-.14h-.53a3.42,3.42,0,0,0-.64,0l-.91.12a.63.63,0,0,0-.47.38H22v.59h.66l.15,1a.74.74,0,0,0,.66.59l.91.09h.45a4.17,4.17,0,0,0,.71-.06l.32-.08a.84.84,0,0,0,.73-.53l.29-1.06a.49.49,0,0,1,.89,0l.3,1.06a.91.91,0,0,0,.71.61h.32a4.21,4.21,0,0,0,.71,0,3.38,3.38,0,0,0,.45,0l.92-.13a.64.64,0,0,0,.66-.52l.14-1h.66Zm-6,.21-.3,1.19a.69.69,0,0,1-.49.46l-.32.07a2.89,2.89,0,0,1-.65.05,2.8,2.8,0,0,1-.41,0L23.56,24a.51.51,0,0,1-.41-.41L23,22.36a.32.32,0,0,1,.26-.33l.91-.13h1.09l1.19.14a.27.27,0,0,1,.17.1A.23.23,0,0,1,26.65,22.32Zm4.93,1.23a.51.51,0,0,1-.41.41l-.92.13a2.8,2.8,0,0,1-.41,0,2.81,2.81,0,0,1-.65-.05l-.28,0a.7.7,0,0,1-.49-.47l-.3-1.21a.21.21,0,0,1,0-.19.2.2,0,0,1,.16-.09l1.19-.15a3.84,3.84,0,0,1,.48,0c.2,0,.41,0,.61,0l.91.13a.31.31,0,0,1,.26.34Z"/><path data-cppathid="10029" fill="#fff" transform="translate(-0.01 0.01)" d="M31.65,17.53a5,5,0,0,1,.3,1.72v4.57c0,2.74-2.26,6.4-4.58,6.4s-4.57-3.66-4.57-6.4V19.25a4.92,4.92,0,0,1,.3-1.71,11.29,11.29,0,0,0-1.18,2.74v3.56c0,3.22,2.59,7.31,5.49,7.31s5.49-4.09,5.49-7.31V20.18A12.35,12.35,0,0,0,31.65,17.53Z"/><path data-cppathid="10030" fill="#fff" transform="translate(-0.01 0.01)" d="M27.37,13.76c3.15,0,5.13,1.65,5.49,5.18-.31-.91-1-1.92-1.24-1.92a2.43,2.43,0,0,0-1.19.44,5.64,5.64,0,0,1-6,0A2.52,2.52,0,0,0,23.22,17c-.26,0-.91,1-1.23,1.91.31-3.53,2.29-5.18,5.43-5.18m0-.92c-3.75,0-6,2.25-6.35,6A11.08,11.08,0,0,0,22,23.64l.83-4.4a5.53,5.53,0,0,1,.6-1.22,4.59,4.59,0,0,1,.49.26,6.57,6.57,0,0,0,6.91,0,4.59,4.59,0,0,1,.49-.26,5.56,5.56,0,0,1,.63,1.24l.77,4.57a13,13,0,0,0,1-4.91c-.12-3.66-2.6-6-6.4-6Z"/></g></g><g id="Borde"><path data-cppathid="10031" fill="#00ffd3" transform="translate(-0.01 0.01)" d="M47.61,1a6,6,0,0,1,6,6v57.5a6,6,0,0,1-6,6H7a6,6,0,0,1-6-6V7A6,6,0,0,1,7,1H47.61m0-1H7A7,7,0,0,0,0,7v57.5a7,7,0,0,0,7,7H47.61a7,7,0,0,0,7-7V7a7,7,0,0,0-7-7Z"/></g></svg>