<?xml version="1.0" encoding="UTF-8"?>
<svg xmlns="http://www.w3.org/2000/svg" onmouseup="{ if(window.parent.document.onmouseup) window.parent.document.onmouseup(arguments[0]);}" viewBox="0 0 54.59 71.48"><defs><style>.cls-1{fill:#fff;}.cls-2{fill:#00ffd3;}</style></defs><g id="TXT"><path data-cppathid="10000" transform="translate(-0.01 0.01)" d="M15.88,55.74H14v2h2.28v.61H13.16V52.69h3.05v.61H14v1.83h1.93Z" class="cls-1"/><path data-cppathid="10001" transform="translate(-0.01 0.01)" d="M16.55,56.31a3.12,3.12,0,0,1,.38-1.63,1.16,1.16,0,0,1,1-.61,1.1,1.1,0,0,1,.57.15,1.27,1.27,0,0,1,.41.42l.09-.49h.65V60h-.8V58a1,1,0,0,1-.4.35,1.12,1.12,0,0,1-.53.12,1.18,1.18,0,0,1-1-.57,2.71,2.71,0,0,1-.37-1.49Zm.79.09a2.41,2.41,0,0,0,.2,1.06.67.67,0,0,0,.62.4.79.79,0,0,0,.44-.13.94.94,0,0,0,.29-.36V55.19a.91.91,0,0,0-.29-.37.71.71,0,0,0-.43-.14.67.67,0,0,0-.63.46,3,3,0,0,0-.2,1.17Z" class="cls-1"/><path data-cppathid="10002" transform="translate(-0.01 0.01)" d="M22.75,57.76a1.4,1.4,0,0,1-.43.52,1.1,1.1,0,0,1-.62.18,1.06,1.06,0,0,1-.91-.45,2.39,2.39,0,0,1-.33-1.4V54.15h.8v2.47a2.1,2.1,0,0,0,.15,1,.53.53,0,0,0,.48.27.82.82,0,0,0,.82-.52V54.15h.8v4.23h-.68Z" class="cls-1"/><path data-cppathid="10003" transform="translate(-0.01 0.01)" d="M25.11,53h-.8v-.76h.8Zm0,5.34h-.8V54.15h.8Z" class="cls-1"/><path data-cppathid="10004" transform="translate(-0.01 0.01)" d="M29.09,56.4a2.69,2.69,0,0,1-.38,1.5,1.18,1.18,0,0,1-1,.56,1.15,1.15,0,0,1-1-.49v2h-.8V54.15h.68l.07.51a1.3,1.3,0,0,1,.43-.44,1.09,1.09,0,0,1,.58-.15,1.17,1.17,0,0,1,1,.61,3.12,3.12,0,0,1,.38,1.63Zm-.8-.09a2.78,2.78,0,0,0-.21-1.17.67.67,0,0,0-.63-.45.77.77,0,0,0-.45.14,1,1,0,0,0-.29.4v2.13a.91.91,0,0,0,.29.37.86.86,0,0,0,.46.13.67.67,0,0,0,.62-.4,2.3,2.3,0,0,0,.21-1.06Z" class="cls-1"/><path data-cppathid="10005" transform="translate(-0.01 0.01)" d="M29.53,56.22A2.52,2.52,0,0,1,30,54.67a1.54,1.54,0,0,1,2.44,0,2.52,2.52,0,0,1,.45,1.55v.1a2.55,2.55,0,0,1-.44,1.54,1.45,1.45,0,0,1-1.22.6,1.43,1.43,0,0,1-1.23-.6,2.49,2.49,0,0,1-.45-1.54Zm.8.1a2.41,2.41,0,0,0,.22,1.11.71.71,0,0,0,1.31,0,2.47,2.47,0,0,0,.22-1.1v-.1a2.5,2.5,0,0,0-.22-1.1.72.72,0,0,0-.66-.44.69.69,0,0,0-.65.44,2.37,2.37,0,0,0-.22,1.1Z" class="cls-1"/><path data-cppathid="10006" transform="translate(-0.01 0.01)" d="M34.92,56.31a3.12,3.12,0,0,1,.37-1.63,1.17,1.17,0,0,1,1-.61,1.09,1.09,0,0,1,.54.14,1.24,1.24,0,0,1,.41.38V52.28h.8v6.1h-.66l-.08-.51a1.3,1.3,0,0,1-.43.44,1.14,1.14,0,0,1-.58.15,1.16,1.16,0,0,1-1-.57,2.63,2.63,0,0,1-.37-1.49Zm.79.09a2.23,2.23,0,0,0,.2,1.05.65.65,0,0,0,.62.39A.67.67,0,0,0,37,57.7a1,1,0,0,0,.3-.39V55.26a1.22,1.22,0,0,0-.3-.42.72.72,0,0,0-.45-.15.65.65,0,0,0-.62.45,3,3,0,0,0-.2,1.17Z" class="cls-1"/><path data-cppathid="10007" transform="translate(-0.01 0.01)" d="M40.37,58.46a1.45,1.45,0,0,1-1.23-.58,2.39,2.39,0,0,1-.45-1.5v-.19a2.49,2.49,0,0,1,.44-1.52,1.4,1.4,0,0,1,1.17-.6,1.28,1.28,0,0,1,1.1.51A2.28,2.28,0,0,1,41.77,56v.44H39.48a2.1,2.1,0,0,0,.23,1.05.79.79,0,0,0,.72.41,1.41,1.41,0,0,0,.57-.11,1.52,1.52,0,0,0,.46-.3l.26.49a1.66,1.66,0,0,1-.56.37A2,2,0,0,1,40.37,58.46Zm-.07-3.78a.64.64,0,0,0-.55.32,1.9,1.9,0,0,0-.25.84H41v-.09a1.47,1.47,0,0,0-.17-.77A.55.55,0,0,0,40.3,54.68Z" class="cls-1"/><path data-cppathid="10008" transform="translate(-0.01 0.01)" d="M12.74,65.91a3.06,3.06,0,0,1,.37-1.62,1.15,1.15,0,0,1,1-.62,1.09,1.09,0,0,1,.54.14,1.26,1.26,0,0,1,.41.39V61.88h.79V68h-.65l-.09-.51a1.21,1.21,0,0,1-.43.44,1.09,1.09,0,0,1-.58.15,1.16,1.16,0,0,1-1-.57A2.63,2.63,0,0,1,12.74,66Zm.79.09a2.38,2.38,0,0,0,.19,1,.68.68,0,0,0,.63.4.72.72,0,0,0,.45-.15,1,1,0,0,0,.3-.39v-2a1.12,1.12,0,0,0-.31-.42.67.67,0,0,0-.44-.15.65.65,0,0,0-.62.45,2.8,2.8,0,0,0-.2,1.17Z" class="cls-1"/><path data-cppathid="10009" transform="translate(-0.01 0.01)" d="M18.19,68.06A1.47,1.47,0,0,1,17,67.48a2.39,2.39,0,0,1-.44-1.5v-.19A2.45,2.45,0,0,1,17,64.27a1.4,1.4,0,0,1,1.17-.6,1.27,1.27,0,0,1,1.09.51,2.22,2.22,0,0,1,.38,1.38V66H17.3a2.1,2.1,0,0,0,.23,1,.77.77,0,0,0,.71.41,1.43,1.43,0,0,0,.58-.11,1.52,1.52,0,0,0,.46-.3l.25.49a1.61,1.61,0,0,1-.55.37A2,2,0,0,1,18.19,68.06Zm-.07-3.78a.63.63,0,0,0-.55.32,1.89,1.89,0,0,0-.26.84h1.5v-.09a1.57,1.57,0,0,0-.17-.77A.56.56,0,0,0,18.12,64.28Z" class="cls-1"/><path data-cppathid="10010" transform="translate(-0.01 0.01)" d="M22.15,66.91A.56.56,0,0,0,22,66.5a2.26,2.26,0,0,0-.63-.38,3.14,3.14,0,0,1-1-.53,1,1,0,0,1-.32-.74,1.06,1.06,0,0,1,.39-.83,1.49,1.49,0,0,1,1-.35,1.45,1.45,0,0,1,1.05.38,1.1,1.1,0,0,1,.38.91v0h-.77a.76.76,0,0,0-.18-.51.58.58,0,0,0-.48-.22.64.64,0,0,0-.47.17.52.52,0,0,0-.17.4.54.54,0,0,0,.14.38,2.62,2.62,0,0,0,.63.35,2.89,2.89,0,0,1,1,.55,1,1,0,0,1,.33.77,1.06,1.06,0,0,1-.4.86,1.64,1.64,0,0,1-1.06.33,1.51,1.51,0,0,1-1.12-.4,1.2,1.2,0,0,1-.39-.93v0h.74a.75.75,0,0,0,.23.59.8.8,0,0,0,.54.18.69.69,0,0,0,.49-.16A.52.52,0,0,0,22.15,66.91Z" class="cls-1"/><path data-cppathid="10011" transform="translate(-0.01 0.01)" d="M25.71,68a2.85,2.85,0,0,1-.08-.35,1.55,1.55,0,0,1,0-.29,1.55,1.55,0,0,1-.44.51,1,1,0,0,1-.63.21,1.09,1.09,0,0,1-.87-.34,1.32,1.32,0,0,1-.3-.92,1.16,1.16,0,0,1,.42-.94,1.79,1.79,0,0,1,1.17-.34h.64v-.43a.94.94,0,0,0-.17-.61.59.59,0,0,0-.49-.21.6.6,0,0,0-.46.18.72.72,0,0,0-.17.48h-.76v0a1.06,1.06,0,0,1,.38-.86A1.5,1.5,0,0,1,25,63.67,1.41,1.41,0,0,1,26,64a1.39,1.39,0,0,1,.39,1v2a3.75,3.75,0,0,0,0,.48,3.63,3.63,0,0,0,.1.45Zm-1-.53a.93.93,0,0,0,.58-.2,1,1,0,0,0,.32-.49V66h-.66a.75.75,0,0,0-.57.23.83.83,0,0,0-.21.56.73.73,0,0,0,.14.47A.49.49,0,0,0,24.68,67.45Z" class="cls-1"/><path data-cppathid="10012" transform="translate(-0.01 0.01)" d="M28.94,64.41l-.34,0a.6.6,0,0,0-.42.15,1,1,0,0,0-.26.42v3h-.79V63.75h.73l.05.63a1.41,1.41,0,0,1,.36-.52.75.75,0,0,1,.51-.19l.13,0a.35.35,0,0,1,.12,0Z" class="cls-1"/><path data-cppathid="10013" transform="translate(-0.01 0.01)" d="M31.24,64.41l-.34,0a.6.6,0,0,0-.42.15,1,1,0,0,0-.25.42v3h-.8V63.75h.73l.05.63a1.41,1.41,0,0,1,.36-.52.75.75,0,0,1,.51-.19l.14,0a.35.35,0,0,1,.11,0Z" class="cls-1"/><path data-cppathid="10014" transform="translate(-0.01 0.01)" d="M31.49,65.82a2.52,2.52,0,0,1,.45-1.55,1.54,1.54,0,0,1,2.44,0,2.52,2.52,0,0,1,.45,1.55v.1a2.53,2.53,0,0,1-.44,1.54,1.45,1.45,0,0,1-1.22.6,1.43,1.43,0,0,1-1.23-.6,2.47,2.47,0,0,1-.45-1.54Zm.8.1A2.56,2.56,0,0,0,32.5,67a.73.73,0,0,0,.67.43.71.71,0,0,0,.65-.43A2.56,2.56,0,0,0,34,65.92v-.1a2.51,2.51,0,0,0-.21-1.1.71.71,0,0,0-1.32,0,2.51,2.51,0,0,0-.21,1.1Z" class="cls-1"/><path data-cppathid="10015" transform="translate(-0.01 0.01)" d="M36.28,68h-.8v-6.1h.8Z" class="cls-1"/><path data-cppathid="10016" transform="translate(-0.01 0.01)" d="M37.93,68h-.79v-6.1h.79Z" class="cls-1"/><path data-cppathid="10017" transform="translate(-0.01 0.01)" d="M38.58,65.82A2.52,2.52,0,0,1,39,64.27a1.54,1.54,0,0,1,2.44,0,2.52,2.52,0,0,1,.45,1.55v.1a2.53,2.53,0,0,1-.44,1.54,1.45,1.45,0,0,1-1.22.6,1.43,1.43,0,0,1-1.23-.6,2.47,2.47,0,0,1-.45-1.54Zm.8.1A2.56,2.56,0,0,0,39.59,67a.73.73,0,0,0,.67.43.71.71,0,0,0,.65-.43,2.56,2.56,0,0,0,.21-1.11v-.1a2.51,2.51,0,0,0-.21-1.1.71.71,0,0,0-1.32,0,2.51,2.51,0,0,0-.21,1.1Z" class="cls-1"/></g><g id="IMG"><g data-name="Equipo de datos" id="Equipo_de_datos"><path data-cppathid="10018" transform="translate(-0.01 0.01)" d="M51.24,29.86A27.73,27.73,0,0,0,45.06,28v-2A8.6,8.6,0,0,0,46.83,21v-.11a10.16,10.16,0,0,0,.88-3.42c0-4.31-1.71-7.07-6.18-7.07-2.73,0-4.41,1-5.3,2.83v-1.5c0-2.58-.44-6.18-3.53-6.18-1.29-1.51-3.49-1.77-6.18-1.77-6.62,0-7.95,4-7.95,8v1.48c-.88-1.77-2.65-2.81-5.29-2.81-4.47,0-7.07,1.91-7.07,6.18A10.46,10.46,0,0,0,8.29,23a8.43,8.43,0,0,0,2.34,3.89v1.35A24.19,24.19,0,0,0,3.56,29.9v6.18L9,39.54v.07L27.39,51.08l18.4-11.47v-.07l5.44-3.46ZM45.94,21c0,2.65-2.18,6.18-4.41,6.18S37.12,23.68,37.12,21V16.61c.08-.27.2-.37.36-.37.54,0,1.61,1.26,4.05,1.26s3.53-1.27,4-1.27c.16,0,.28.11.36.38Zm-1.76,5.88v1.6l-2.65,1-2.65-1v-1.6a3.57,3.57,0,0,0,5.3,0ZM35.53,34.8,36.41,36,28.66,46l4.63-15.9,3.83,1.28v1.46l-1.29.65-.94.46ZM27.39,47.16l-4-13.68a6.5,6.5,0,0,0,8,0ZM19,33.48l-1.28-.64V31.38l3.82-1.28L26.1,45.92,18.34,36l.89-1.23.63-.88Zm12.85-1.57a5.74,5.74,0,0,1-8.07.76,6.06,6.06,0,0,1-.76-.76V27.78a6.63,6.63,0,0,0,4.41,2.08,6.67,6.67,0,0,0,4.42-2.08ZM32.7,29V26.85a11.38,11.38,0,0,0,2.65-6.27h0a.89.89,0,0,0,.65-.27h0c.08.23.16.43.24.61v.13A8.54,8.54,0,0,0,38,26v2a31.21,31.21,0,0,0-4.58,1.22Zm8.83-17.65c3.26,0,4.95,1.59,5.3,5a1.26,1.26,0,0,0-1.2-1,2.36,2.36,0,0,0-1.15.42,5.44,5.44,0,0,1-5.81,0,2.49,2.49,0,0,0-1.15-.41,1.22,1.22,0,0,0-1.19,1C36.58,12.91,38.27,11.32,41.53,11.32Zm-15-6.63c2.56,0,4.48.25,5.51,1.46l.26.31h.41c.65,0,2.65,0,2.65,5.3v.69a15.11,15.11,0,0,0-1-2,1.76,1.76,0,0,0-1.59-1,4.74,4.74,0,0,0-2.13.8,9.72,9.72,0,0,1-5,1.53,8.2,8.2,0,0,1-3.9-.82,2.3,2.3,0,0,0-1-.34h0c-1.07,0-1.22,1.12-1.3,1.87v-.75C19.46,6.87,21.64,4.69,26.52,4.69ZM18.57,17.05a.87.87,0,0,1,.36-.67,17.13,17.13,0,0,0,.53,2.44c0-2.59.59-3.73.88-6.18.11-.88.18-1.12.43-1.12.49,0,1.64,1.12,4.87,1.12,3.85,0,5.89-2.33,7.12-2.33a.92.92,0,0,1,.82.56c1.77,3.09,1.77,4.86,1.77,8a18.62,18.62,0,0,0,.53-2.44.89.89,0,0,1,.35.67v1.89a.38.38,0,0,1,0,.15.87.87,0,0,1-.88.61h0a.88.88,0,0,0-.88.83C34.23,24.63,30.61,29,27.4,29s-6.8-4.34-7.06-8.44a.89.89,0,0,0-.88-.83h0a.89.89,0,0,1-.89-.61v-2Zm0,4.86s.22-.63.43-1.47h0a.9.9,0,0,0,.46.15h0a11.31,11.31,0,0,0,2.65,6.27V29l-.83.28a27,27,0,0,0-5.36-1V26.91a8.69,8.69,0,0,0,2.65-5.18ZM8,19a8.19,8.19,0,0,0-.23,1.2,10.37,10.37,0,0,1-.62-3.53c0-3.61,2-5.3,6.18-5.3,2.74,0,4.42,1.12,5,3.53a1.15,1.15,0,0,0-.81-.38,2.48,2.48,0,0,0-1.12.4,5.92,5.92,0,0,1-3.07.88c-2.83,0-4.55,1-5.29,3.2ZM8.86,21V19.26c.41-1.2,1.27-2.65,4.42-2.65,2.42,0,3.7-1.29,4.18-1.29h0a4.32,4.32,0,0,1,.19,1.28V21c0,2.65-2.18,6.18-4.41,6.18S8.86,23.67,8.86,21ZM15,27.56v1.37l-1.76.58-1.77-.58V27.56a3.2,3.2,0,0,0,3.53,0Zm-10.59,8V30.45a24.63,24.63,0,0,1,6.18-1.34v.46l2.65.88,2.64-.88v-.43a26.23,26.23,0,0,1,3.85.65l-3,1v.35L12.34,32a4.13,4.13,0,0,0-3,3.14l-.23,1.34a14.37,14.37,0,0,0-.11,2ZM10,36.6l.22-1.34a3.25,3.25,0,0,1,2.34-2.41L16.81,32v1.39l1.76.89L17.25,36,27,48.48l-.31,1.08L9.86,39.06A13.51,13.51,0,0,1,10,36.6Zm35,2.46L27.4,50l-.51-.32L37.56,36l-1.33-1.77L38,33.39V32l4.29.89a3.27,3.27,0,0,1,2.34,2.41l.2,1.31A14.49,14.49,0,0,1,45,39.06Zm5.41-3.53L45.84,38.4a11.5,11.5,0,0,0-.13-1.94l-.22-1.34a4.12,4.12,0,0,0-3-3.13L38,31.1v-.35l-3.18-1.06A26.85,26.85,0,0,1,38,28.9v.24l3.53,1.33,3.53-1.33V28.9a28.55,28.55,0,0,1,5.3,1.56Z" class="cls-1"/><path data-cppathid="10019" transform="translate(-0.01 0.01)" d="M35.35,16.61H34.29a.88.88,0,0,0-.7-.56l-1.34-.15a6.05,6.05,0,0,0-.95-.05,5.34,5.34,0,0,0-.8,0l-1.76.22a.76.76,0,0,0-.65.55H26.73a.75.75,0,0,0-.64-.55l-1.77-.22a5.08,5.08,0,0,0-.78,0,6.24,6.24,0,0,0-1,.05l-1.34.19a.91.91,0,0,0-.7.57H19.47v.88h1l.22,1.55a1.13,1.13,0,0,0,1,.89l1.34.13c.23,0,.46,0,.68,0A5.37,5.37,0,0,0,24.75,20l.48-.1a1.25,1.25,0,0,0,1.06-.83l.45-1.57a.71.71,0,0,1,1.32,0l.46,1.57a1.38,1.38,0,0,0,1.07.88l.48.05a7.59,7.59,0,0,0,1.07.06,3.79,3.79,0,0,0,.67-.06l1.34-.2a1.05,1.05,0,0,0,1-.78l.22-1.56h1Zm-9.06.31-.45,1.82a1.12,1.12,0,0,1-.74.71l-.48.09a6.37,6.37,0,0,1-1,.08H23l-1.31-.19a.79.79,0,0,1-.61-.62l-.22-1.76a.47.47,0,0,1,.39-.52l1.34-.18a5.14,5.14,0,0,1,.88-.05,4.45,4.45,0,0,1,.73,0l1.77.22a.35.35,0,0,1,.25.14A.34.34,0,0,1,26.29,16.92Zm7.38,1.85a.78.78,0,0,1-.61.62l-1.34.19a3.11,3.11,0,0,1-.61,0,5.33,5.33,0,0,1-1-.08l-.48-.09a1.12,1.12,0,0,1-.74-.7l-.45-1.82a.37.37,0,0,1,.05-.29.35.35,0,0,1,.24-.14l1.77-.22h.74a6.4,6.4,0,0,1,.88.06l1.35.18a.46.46,0,0,1,.38.51Z" class="cls-1"/></g></g><g id="Borde"><path data-cppathid="10020" transform="translate(-0.01 0.01)" d="M47.61,1a6,6,0,0,1,6,6v57.5a6,6,0,0,1-6,6H7a6,6,0,0,1-6-6V7A6,6,0,0,1,7,1H47.61m0-1H7A7,7,0,0,0,0,7v57.5a7,7,0,0,0,7,7H47.61a7,7,0,0,0,7-7V7a7,7,0,0,0-7-7Z" class="cls-2"/></g></svg>