<?xml version="1.0" encoding="UTF-8"?>
<svg xmlns="http://www.w3.org/2000/svg" onmouseup="{ if(window.parent.document.onmouseup) window.parent.document.onmouseup(arguments[0]);}" viewBox="0 0 54.59 71.48"><defs><style>.cls-1{fill:#fff;}.cls-2{fill:none;stroke:#fff;stroke-miterlimit:10;}.cls-3{fill:#00ff0c;}.cls-4{fill:#03e503;}.cls-5{fill:#00ffd3;}</style></defs><g id="TXT"><g id="Admin"><path data-cppathid="10000" transform="translate(-0.01 0.01)" d="M9.12,61.74H7.42L7,63.18H6.19l1.7-5.69h.77l1.69,5.69H9.53ZM7.6,61.11H8.94L8.29,58.8h0Z" class="cls-1"/><path data-cppathid="10001" transform="translate(-0.01 0.01)" d="M10.61,61.11A3.12,3.12,0,0,1,11,59.48a1.18,1.18,0,0,1,1-.61,1,1,0,0,1,.53.14,1.24,1.24,0,0,1,.41.38V57.08h.8v6.1h-.66L13,62.67a1.3,1.3,0,0,1-.43.44,1.11,1.11,0,0,1-.58.15,1.17,1.17,0,0,1-1-.57,2.63,2.63,0,0,1-.37-1.49Zm.79.09a2.36,2.36,0,0,0,.2,1,.65.65,0,0,0,.62.39.67.67,0,0,0,.45-.14.85.85,0,0,0,.3-.39v-2a1.1,1.1,0,0,0-.3-.42.7.7,0,0,0-.45-.15.66.66,0,0,0-.62.45,3,3,0,0,0-.2,1.17Z" class="cls-1"/><path data-cppathid="10002" transform="translate(-0.01 0.01)" d="M15.26,59l.05.57a1.28,1.28,0,0,1,.44-.48,1.25,1.25,0,0,1,.64-.17,1,1,0,0,1,.6.19,1.1,1.1,0,0,1,.39.59,1.43,1.43,0,0,1,.45-.57,1,1,0,0,1,.66-.21,1,1,0,0,1,.86.45,2.37,2.37,0,0,1,.32,1.36v2.5h-.8v-2.5a2,2,0,0,0-.16-.93.56.56,0,0,0-.49-.26.61.61,0,0,0-.46.2,1.1,1.1,0,0,0-.27.54v.14a.86.86,0,0,1,0,.16v2.65h-.79v-2.5a1.89,1.89,0,0,0-.17-.92.55.55,0,0,0-.49-.27.72.72,0,0,0-.44.14.89.89,0,0,0-.28.39v3.16h-.8V59Z" class="cls-1"/><path data-cppathid="10003" transform="translate(-0.01 0.01)" d="M21.27,57.84h-.8v-.76h.8Zm0,5.34h-.8V59h.8Z" class="cls-1"/><path data-cppathid="10004" transform="translate(-0.01 0.01)" d="M22.8,59l0,.63a1.3,1.3,0,0,1,.46-.52,1,1,0,0,1,.62-.19,1,1,0,0,1,.87.42,2.09,2.09,0,0,1,.32,1.28v2.61h-.8v-2.6a1.63,1.63,0,0,0-.16-.85.57.57,0,0,0-.5-.24.79.79,0,0,0-.47.14,1,1,0,0,0-.31.39v3.16h-.8V59Z" class="cls-1"/><path data-cppathid="10005" transform="translate(-0.01 0.01)" d="M26.7,57.84h-.79v-.76h.79Zm0,5.34h-.79V59h.79Z" class="cls-1"/><path data-cppathid="10006" transform="translate(-0.01 0.01)" d="M29.51,62.11a.56.56,0,0,0-.16-.41,2.26,2.26,0,0,0-.63-.38,3.07,3.07,0,0,1-1-.53.94.94,0,0,1-.33-.74,1.08,1.08,0,0,1,.39-.84,1.57,1.57,0,0,1,1-.34,1.5,1.5,0,0,1,1.06.38,1.17,1.17,0,0,1,.38.91v0H29.5a.76.76,0,0,0-.18-.51.59.59,0,0,0-.49-.22.64.64,0,0,0-.47.17.54.54,0,0,0-.17.4.5.5,0,0,0,.15.38,2.31,2.31,0,0,0,.62.35,2.8,2.8,0,0,1,1,.55,1,1,0,0,1,.34.77,1.07,1.07,0,0,1-.41.86,1.62,1.62,0,0,1-1.06.33,1.52,1.52,0,0,1-1.12-.4,1.2,1.2,0,0,1-.39-.93v0h.74a.79.79,0,0,0,.23.59.84.84,0,0,0,.54.18.72.72,0,0,0,.5-.16A.52.52,0,0,0,29.51,62.11Z" class="cls-1"/><path data-cppathid="10007" transform="translate(-0.01 0.01)" d="M31.89,57.9V59h.66v.57h-.66V62a.89.89,0,0,0,.1.47.33.33,0,0,0,.27.14l.12,0,.14,0,.08.55-.25.08a.92.92,0,0,1-.29,0,.89.89,0,0,1-.71-.3A1.38,1.38,0,0,1,31.1,62V59.52h-.56V59h.56V57.9Z" class="cls-1"/><path data-cppathid="10008" transform="translate(-0.01 0.01)" d="M34.92,59.61l-.34,0a.58.58,0,0,0-.41.15.89.89,0,0,0-.26.42v3h-.8V59h.73l.06.62a1.23,1.23,0,0,1,.36-.51.71.71,0,0,1,.5-.19h.14l.11,0Z" class="cls-1"/><path data-cppathid="10009" transform="translate(-0.01 0.01)" d="M37.61,63.18a3.34,3.34,0,0,1-.08-.35c0-.1,0-.2,0-.29a1.55,1.55,0,0,1-.44.51,1,1,0,0,1-.63.21,1.09,1.09,0,0,1-.87-.34,1.32,1.32,0,0,1-.3-.92,1.16,1.16,0,0,1,.42-.94,1.79,1.79,0,0,1,1.17-.34h.65v-.43a1,1,0,0,0-.17-.61.67.67,0,0,0-1,0,.72.72,0,0,0-.17.48h-.75v0a1.06,1.06,0,0,1,.38-.86,1.51,1.51,0,0,1,1.06-.38,1.41,1.41,0,0,1,1,.37,1.39,1.39,0,0,1,.39,1v2a2.35,2.35,0,0,0,0,.47,3.4,3.4,0,0,0,.09.46Zm-1-.53a.95.95,0,0,0,.91-.69v-.75h-.66a.75.75,0,0,0-.58.23.87.87,0,0,0-.2.56.68.68,0,0,0,.14.47A.46.46,0,0,0,36.58,62.65Z" class="cls-1"/><path data-cppathid="10010" transform="translate(-0.01 0.01)" d="M38.88,61.11a3.22,3.22,0,0,1,.37-1.63,1.18,1.18,0,0,1,1-.61,1.09,1.09,0,0,1,.54.14,1.34,1.34,0,0,1,.41.38V57.08H42v6.1h-.66l-.08-.51a1.3,1.3,0,0,1-.43.44,1.11,1.11,0,0,1-.58.15,1.17,1.17,0,0,1-1-.57,2.71,2.71,0,0,1-.37-1.49Zm.79.09a2.36,2.36,0,0,0,.2,1,.65.65,0,0,0,.62.39.67.67,0,0,0,.45-.14,1,1,0,0,0,.31-.39v-2a1.12,1.12,0,0,0-.31-.42.67.67,0,0,0-.44-.15.66.66,0,0,0-.63.45,3,3,0,0,0-.2,1.17Z" class="cls-1"/><path data-cppathid="10011" transform="translate(-0.01 0.01)" d="M42.65,61a2.59,2.59,0,0,1,.44-1.55,1.55,1.55,0,0,1,2.45,0A2.52,2.52,0,0,1,46,61v.1a2.49,2.49,0,0,1-.45,1.54,1.42,1.42,0,0,1-1.22.6,1.45,1.45,0,0,1-1.23-.6,2.55,2.55,0,0,1-.44-1.54Zm.8.1a2.56,2.56,0,0,0,.21,1.11.72.72,0,0,0,.66.43.69.69,0,0,0,.65-.44,2.34,2.34,0,0,0,.22-1.1V61a2.37,2.37,0,0,0-.22-1.1.69.69,0,0,0-.65-.44.71.71,0,0,0-.66.44,2.51,2.51,0,0,0-.21,1.1Z" class="cls-1"/><path data-cppathid="10012" transform="translate(-0.01 0.01)" d="M48.4,59.61l-.35,0a.59.59,0,0,0-.41.15,1,1,0,0,0-.26.42v3h-.79V59h.73l0,.62a1.23,1.23,0,0,1,.36-.51.73.73,0,0,1,.5-.19h.14l.12,0Z" class="cls-1"/></g></g><g id="IMG"><g data-name="Admin" id="Admin-2"><g id="management"><g id="cogwheel"><g id="cogwheel-2"><path data-cppathid="10013" transform="translate(-0.01 0.01)" d="M29.07,3.74a.28.28,0,0,1,.24.18l1.33,5.31a3.58,3.58,0,0,1,.09.45l.09.58.57.14a16.27,16.27,0,0,1,4.47,1.88l.5.3.47-.35.38-.25,4.73-2.83h.11a.31.31,0,0,1,.19.06l2.49,2.49a.32.32,0,0,1,0,.3l-2.8,4.69c-.06.11-.16.24-.25.37l-.34.48.3.49a16.4,16.4,0,0,1,1.86,4.5l.14.57.57.09a3.74,3.74,0,0,1,.45.12L50,24.64a.36.36,0,0,1,.18.24V28.4a.31.31,0,0,1-.19.24l-5.33,1.29a3.43,3.43,0,0,1-.44.09l-.58.09-.14.57a16.52,16.52,0,0,1-1.86,4.49l-.3.51.34.46a3.11,3.11,0,0,1,.25.38l2.84,4.71a.39.39,0,0,1,0,.3L42.28,44a.36.36,0,0,1-.2.06H42l-4.71-2.84a3.11,3.11,0,0,1-.38-.25l-.46-.34-.56.25a16.65,16.65,0,0,1-4.49,1.86l-.56.14-.1.57a3.58,3.58,0,0,1-.09.45l-1.33,5.33a.32.32,0,0,1-.23.19H25.54a.35.35,0,0,1-.25-.19L24,43.92c0-.15-.06-.3-.09-.45l-.08-.57-.57-.14a16.91,16.91,0,0,1-4.48-1.86l-.47-.26L17.8,41l-.38.26-4.71,2.83h-.1a.46.46,0,0,1-.2-.05L9.9,41.53a.36.36,0,0,1-.05-.3l2.84-4.73c.07-.11.15-.24.25-.38l.34-.46L13,35.17a16.21,16.21,0,0,1-1.86-4.49L11,30.11,10.42,30a3.58,3.58,0,0,1-.45-.09L4.63,28.59a.35.35,0,0,1-.19-.24V24.83a.35.35,0,0,1,.19-.24L10,23.31a3.58,3.58,0,0,1,.45-.09l.57-.09.14-.56A16.24,16.24,0,0,1,13,18l.3-.49L13,17.06c-.1-.13-.19-.26-.26-.37L9.85,12a.33.33,0,0,1,.05-.3l2.49-2.45a.31.31,0,0,1,.19-.06h.11L17.39,12l.37.25.48.35.49-.3a16.42,16.42,0,0,1,4.5-1.87l.57-.14.08-.57A3.58,3.58,0,0,1,24,9.25L25.31,4a.35.35,0,0,1,.24-.19h3.52m0-.88H25.55a1.22,1.22,0,0,0-1.1.88L23.13,9a4.25,4.25,0,0,1-.1.52,17.84,17.84,0,0,0-4.76,2l-.44-.3L13.13,8.4a1.06,1.06,0,0,0-.55-.15,1.19,1.19,0,0,0-.82.32L9.27,11.06a1.16,1.16,0,0,0-.16,1.37l2.82,4.72c.08.13.18.28.3.44a17.27,17.27,0,0,0-2,4.72l-.52.12L4.42,23.75a1.2,1.2,0,0,0-.88,1.1v3.52a1.18,1.18,0,0,0,.88,1.09l5.33,1.33a4.64,4.64,0,0,1,.52.1,16.9,16.9,0,0,0,2,4.73c-.12.16-.22.32-.3.44L9.11,40.78a1.16,1.16,0,0,0,.16,1.37l2.49,2.49a1.19,1.19,0,0,0,.82.32,1,1,0,0,0,.55-.15L17.85,42c.13-.08.28-.18.44-.3a17.29,17.29,0,0,0,4.74,2,4.59,4.59,0,0,0,.1.51l1.3,5.34a1.2,1.2,0,0,0,1.1.88h3.52a1.19,1.19,0,0,0,1.09-.88l1.33-5.33a4.25,4.25,0,0,1,.1-.52,17.23,17.23,0,0,0,4.73-2l.44.3,4.72,2.84A1.19,1.19,0,0,0,42,45a1.17,1.17,0,0,0,.81-.32l2.49-2.49a1.18,1.18,0,0,0,.18-1.37l-2.81-4.72-.3-.44a17.52,17.52,0,0,0,2-4.73,2,2,0,0,0,.53-.1l5.33-1.32a1.19,1.19,0,0,0,.88-1.09V24.86a1.21,1.21,0,0,0-.88-1.1l-5.33-1.33-.53-.11a17.65,17.65,0,0,0-2-4.73c.11-.16.22-.31.3-.44l2.85-4.72a1.18,1.18,0,0,0-.18-1.37L42.9,8.57A1.15,1.15,0,0,0,42,8.25a1.09,1.09,0,0,0-.56.15l-4.72,2.82-.44.3a17.52,17.52,0,0,0-4.73-2,2,2,0,0,0-.1-.52L30.16,3.71a1.17,1.17,0,0,0-1.09-.88Z" class="cls-1"/></g></g><path data-cppathid="10014" transform="translate(-0.01 0.01)" d="M29.93,33.21h0M23.77,31l-7.92,2.16a13.21,13.21,0,0,0,11.44,6.64l-2.64-6.62h0m2.64,6.59a13.17,13.17,0,0,0,11.43-6.64L30.81,31M26,38.84a12.34,12.34,0,0,1-8.73-5.14l6-1.6Zm2.64,0,2.75-6.74,6,1.64a12.29,12.29,0,0,1-8.72,5.1Z" class="cls-1"/><path data-cppathid="10015" transform="translate(-0.01 0.01)" d="M27.07,28.05a3.28,3.28,0,0,1-.7-.1.4.4,0,0,1-.24-.33.42.42,0,0,1,.28-.32,10.44,10.44,0,0,1,1.37,0c.12,0,.27.22.31.36s-.17.27-.29.3A4.55,4.55,0,0,1,27.07,28.05Z" class="cls-1"/><path data-cppathid="10016" transform="translate(-0.01 0.01)" d="M22.21,20.85v3.34c0,2.91,2.34,6.6,5,6.6s5-3.69,5-6.6V20.86a4.62,4.62,0,0,0-.93-1.66c.18.48.1.29.1.88a10.06,10.06,0,0,1,.48,3.85C31.73,26.57,29.26,30,27.17,30s-4.62-2.63-4.62-6a16.66,16.66,0,0,1,.3-4.23" class="cls-1"/><path data-cppathid="10017" transform="translate(-0.01 0.01)" d="M33.48,16A12.18,12.18,0,0,1,38.3,32.1l.88.23a13.13,13.13,0,0,0-6.69-17.9A6.47,6.47,0,0,1,33.48,16Z" class="cls-1"/><path data-cppathid="10018" transform="translate(-0.01 0.01)" d="M16.32,32.1a12.3,12.3,0,0,1,4.83-16.17,5.78,5.78,0,0,1,1-1.5,13.2,13.2,0,0,0-7,17.31c.09.21.19.42.29.62Z" class="cls-1"/></g><path data-cppathid="10019" transform="translate(-0.01 0.01)" d="M30.45,30.42c.64.09,1.21.2,1.76.26a1.18,1.18,0,0,0,1.35-.88,3.65,3.65,0,0,0,.24-1.3c0-1.06-.08-2.1-.14-3.15-.12-1.76-.3-3.52-.36-5.28A11.45,11.45,0,0,0,31.72,15a1.7,1.7,0,0,0-1.43-1,.81.81,0,0,1-.5-.34,3.1,3.1,0,0,0-2.46-1.23,5.38,5.38,0,0,0-4.47,2.3A9.68,9.68,0,0,0,21.1,19.9c-.09,1.33-.18,2.68-.3,4-.14,1.76-.32,3.58-.29,5.38a1.28,1.28,0,0,0,1.13,1.42h.06a11.47,11.47,0,0,0,1.76-.1.37.37,0,0,0,.37-.37V30.2a5.3,5.3,0,0,0-.42-2.29,10.08,10.08,0,0,1-1.15-6.16,7,7,0,0,1,1.32-3.52,1.23,1.23,0,0,1,1.33-.53,10.87,10.87,0,0,0,4.4,0,1.39,1.39,0,0,1,1.55.68,6.55,6.55,0,0,1,1.06,2.54,9.89,9.89,0,0,1-1,7A5.24,5.24,0,0,0,30.45,30.42Z" class="cls-2"/></g></g><g id="Check"><g data-name="Capa 2" id="Capa_2"><path data-cppathid="10020" transform="translate(-0.01 0.01)" d="M42.46,25.66l-.74-.8a1.75,1.75,0,0,0-2.47-.13.49.49,0,0,0-.12.13l-16,17.24L16,34.37a1.75,1.75,0,0,0-2.46-.13l-.13.13-.9,1L22.94,46.72Z" class="cls-3"/><path data-cppathid="10021" transform="translate(-0.01 0.01)" d="M42.46,25.66,23,46.71,12.47,35.33l-1,1a2.11,2.11,0,0,0,0,2.8L21.79,50.29a1.82,1.82,0,0,0,2.64,0l19.14-20.6a2.09,2.09,0,0,0,0-2.79Z" class="cls-4"/></g></g><g id="Borde"><path data-cppathid="10022" transform="translate(-0.01 0.01)" d="M47.61,1a6,6,0,0,1,6,6v57.5a6,6,0,0,1-6,6H7a6,6,0,0,1-6-6V7A6,6,0,0,1,7,1H47.61m0-1H7A7,7,0,0,0,0,7v57.5a7,7,0,0,0,7,7H47.61a7,7,0,0,0,7-7V7a7,7,0,0,0-7-7Z" class="cls-5"/></g></svg>