<?xml version="1.0" encoding="UTF-8"?>
<svg xmlns="http://www.w3.org/2000/svg" onmouseup="{ if(window.parent.document.onmouseup) window.parent.document.onmouseup(arguments[0]);}" viewBox="0 0 54.59 71.48"><g id="TXT"><g id="Custodio"><path data-cppathid="10000" fill="#fff" transform="translate(-0.01 0.01)" d="M18,61.46v0a1.68,1.68,0,0,1-.47,1.3,1.84,1.84,0,0,1-1.33.47,1.83,1.83,0,0,1-1.4-.56,2.28,2.28,0,0,1-.52-1.58V59.55A2.29,2.29,0,0,1,14.83,58a1.77,1.77,0,0,1,1.38-.56,1.94,1.94,0,0,1,1.36.45A1.68,1.68,0,0,1,18,59.18v0h-.76a1.32,1.32,0,0,0-.26-.9,1.05,1.05,0,0,0-.8-.28.94.94,0,0,0-.81.39,1.91,1.91,0,0,0-.28,1.13v1.58a1.85,1.85,0,0,0,.29,1.14,1,1,0,0,0,.83.4,1,1,0,0,0,.77-.29,1.34,1.34,0,0,0,.26-.91Z"/><path data-cppathid="10001" fill="#fff" transform="translate(-0.01 0.01)" d="M20.92,62.56a1.4,1.4,0,0,1-.43.52,1.1,1.1,0,0,1-.62.18,1.06,1.06,0,0,1-.91-.45,2.39,2.39,0,0,1-.33-1.4V59h.8v2.47a2.1,2.1,0,0,0,.15.95.53.53,0,0,0,.48.27.82.82,0,0,0,.82-.52V59h.8v4.23H21Z"/><path data-cppathid="10002" fill="#fff" transform="translate(-0.01 0.01)" d="M24.43,62.11a.56.56,0,0,0-.16-.41,2.26,2.26,0,0,0-.63-.38,3.14,3.14,0,0,1-1-.53,1,1,0,0,1-.32-.74,1.08,1.08,0,0,1,.39-.84,1.53,1.53,0,0,1,1-.34,1.45,1.45,0,0,1,1.05.38,1.14,1.14,0,0,1,.39.91v0h-.77a.76.76,0,0,0-.18-.51.55.55,0,0,0-.48-.22.64.64,0,0,0-.47.17.51.51,0,0,0-.17.4.54.54,0,0,0,.14.38,2.62,2.62,0,0,0,.63.35,2.89,2.89,0,0,1,1,.55,1,1,0,0,1,.33.77,1.06,1.06,0,0,1-.4.86,1.62,1.62,0,0,1-1.06.33,1.51,1.51,0,0,1-1.12-.4,1.2,1.2,0,0,1-.39-.93v0H23a.75.75,0,0,0,.23.59.8.8,0,0,0,.54.18.67.67,0,0,0,.49-.16A.52.52,0,0,0,24.43,62.11Z"/><path data-cppathid="10003" fill="#fff" transform="translate(-0.01 0.01)" d="M26.81,57.9V59h.66v.57h-.66V62a.8.8,0,0,0,.1.47.31.31,0,0,0,.26.14l.13,0,.14,0,.08.55-.25.08a1,1,0,0,1-.29,0,.87.87,0,0,1-.71-.3A1.38,1.38,0,0,1,26,62V59.52h-.55V59H26V57.9Z"/><path data-cppathid="10004" fill="#fff" transform="translate(-0.01 0.01)" d="M27.87,61a2.59,2.59,0,0,1,.44-1.55,1.45,1.45,0,0,1,1.23-.6,1.44,1.44,0,0,1,1.22.6A2.52,2.52,0,0,1,31.21,61v.1a2.49,2.49,0,0,1-.45,1.54,1.42,1.42,0,0,1-1.22.6,1.45,1.45,0,0,1-1.23-.6,2.55,2.55,0,0,1-.44-1.54Zm.8.1a2.56,2.56,0,0,0,.21,1.11.72.72,0,0,0,1.32,0,2.48,2.48,0,0,0,.21-1.1V61a2.37,2.37,0,0,0-.22-1.1.69.69,0,0,0-.65-.44.72.72,0,0,0-.66.44,2.51,2.51,0,0,0-.21,1.1Z"/><path data-cppathid="10005" fill="#fff" transform="translate(-0.01 0.01)" d="M31.66,61.11A3.12,3.12,0,0,1,32,59.48a1.17,1.17,0,0,1,1-.61,1.09,1.09,0,0,1,.54.14,1.24,1.24,0,0,1,.41.38V57.08h.8v6.1h-.66l-.08-.51a1.3,1.3,0,0,1-.43.44,1.14,1.14,0,0,1-.58.15,1.16,1.16,0,0,1-1-.57,2.63,2.63,0,0,1-.37-1.49Zm.79.09a2.23,2.23,0,0,0,.2,1,.65.65,0,0,0,.62.39.67.67,0,0,0,.45-.14,1,1,0,0,0,.3-.39v-2a1.22,1.22,0,0,0-.3-.42.72.72,0,0,0-.45-.15.65.65,0,0,0-.62.45,3,3,0,0,0-.2,1.17Z"/><path data-cppathid="10006" fill="#fff" transform="translate(-0.01 0.01)" d="M36.43,57.84h-.79v-.76h.79Zm0,5.34h-.79V59h.79Z"/><path data-cppathid="10007" fill="#fff" transform="translate(-0.01 0.01)" d="M37.08,61a2.52,2.52,0,0,1,.45-1.55,1.54,1.54,0,0,1,2.44,0A2.52,2.52,0,0,1,40.42,61v.1A2.55,2.55,0,0,1,40,62.66a1.45,1.45,0,0,1-1.22.6,1.43,1.43,0,0,1-1.23-.6,2.49,2.49,0,0,1-.45-1.54Zm.8.1a2.56,2.56,0,0,0,.21,1.11.73.73,0,0,0,.67.43.7.7,0,0,0,.65-.44,2.48,2.48,0,0,0,.21-1.1V61a2.51,2.51,0,0,0-.21-1.1.71.71,0,0,0-1.32,0,2.51,2.51,0,0,0-.21,1.1Z"/></g></g><g id="IMG"><g data-name="Custodio" id="Custodio-2"><path data-cppathid="10008" fill="#fff" transform="translate(-0.01 0.01)" d="M44.15,43.24q-1.84-5-3.73-10a6.54,6.54,0,0,0-3.2-3.58c-1.7-.85-8.22-3.14-9.89-4V26c0,.57.07,4.58-3.57,4.71-2.87.12-3.31-3.95-3.3-4.42a3.94,3.94,0,0,0,0-.6s-6.84,2.94-8.78,4a6.4,6.4,0,0,0-3.11,3.5C7.31,36.59,6,39.91,4.8,43.28a5.2,5.2,0,0,0,1.56,5.79c.27.22.56.41.85.65A2.59,2.59,0,0,0,9,50.36H39.14c2.1,0,1.8.11,3.45-1.23A5.16,5.16,0,0,0,44.15,43.24Zm-7,6.29H11.94V35.28a1.31,1.31,0,0,1,1.11-1.47,1.15,1.15,0,0,1,.37,0H35.6a1.32,1.32,0,0,1,1.5,1.11,1.27,1.27,0,0,1,0,.39V49.53Zm4.86-1c-1.46,1.18-1,1-2.83,1H37.92V44.16a.56.56,0,0,1,.31-.55c.59-.33,1.16-.69,1.74-1,.25-.15.46-.34.26-.64s-.44-.2-.69,0l-1.61,1v-7.6A2.06,2.06,0,0,0,36.08,33H13.3a2,2,0,0,0-2.17,1.88,1.4,1.4,0,0,0,0,.29v7.66c-.6-.36-1.12-.68-1.65-1a.63.63,0,0,0-.4-.1.41.41,0,0,0-.3.3.62.62,0,0,0,.23.45c.61.4,1.24.76,1.86,1.15a.58.58,0,0,1,.24.4v5.27a.74.74,0,0,1,0,.21H8.48a.61.61,0,0,1-.32-.13c-1.34-.91-2.55-1.92-2.8-3.65a4.5,4.5,0,0,1,.23-2.27q1.86-5,3.74-10a5.44,5.44,0,0,1,2.55-3c2.15-1.17,7.55-3.46,7.55-3.46s.71,4.25,4.36,4.31c4.09,0,4.31-4.57,4.4-4.48s7.17,2.7,8.67,3.48a5.8,5.8,0,0,1,2.83,3.21c1.22,3.3,2.46,6.58,3.68,9.87A4.36,4.36,0,0,1,42,48.56Z"/><path data-cppathid="10009" fill="#fff" transform="translate(-0.01 0.01)" d="M41.61,22.44v.91a1.42,1.42,0,0,1-1.35,1.37,1.34,1.34,0,0,1-1.5-1.19v0a11.45,11.45,0,0,1,0-2.19,1.4,1.4,0,0,1,1.5-1.22,1.44,1.44,0,0,1,1.36,1.39A7.53,7.53,0,0,1,41.61,22.44Zm-2.09,0v.85a.63.63,0,0,0,.61.65.64.64,0,0,0,.67-.62V21.55a.63.63,0,0,0-.63-.62h0a.64.64,0,0,0-.62.64c0,.28,0,.57,0,.86Z"/><path data-cppathid="10010" fill="#fff" transform="translate(-0.01 0.01)" d="M47.64,22.44v.91a1.44,1.44,0,0,1-2.88,0V21.44a1.43,1.43,0,0,1,1.45-1.36,1.45,1.45,0,0,1,1.43,1.38C47.65,21.8,47.64,22.11,47.64,22.44Zm-2.08-.05h0v.85a.64.64,0,1,0,1.28.14V21.49a.64.64,0,0,0-.72-.57.64.64,0,0,0-.56.57C45.55,21.83,45.56,22.11,45.56,22.39Z"/><path data-cppathid="10011" fill="#fff" transform="translate(-0.01 0.01)" d="M45.73,28.83V28a1.46,1.46,0,0,1,1.41-1.41,1.41,1.41,0,0,1,1.47,1.33,13.22,13.22,0,0,1,0,2,1.4,1.4,0,0,1-1.47,1.31,1.44,1.44,0,0,1-1.41-1.39C45.72,29.46,45.73,29.15,45.73,28.83Zm2.09.05V28a.64.64,0,0,0-.62-.65.62.62,0,0,0-.64.59,14.59,14.59,0,0,0,0,1.87.64.64,0,0,0,.73.53.63.63,0,0,0,.53-.59C47.83,29.45,47.82,29.16,47.82,28.88Z"/><path data-cppathid="10012" fill="#fff" transform="translate(-0.01 0.01)" d="M42,28.83V28a1.44,1.44,0,0,1,2.88,0v1.87a1.44,1.44,0,0,1-2.88,0C42,29.49,42,29.16,42,28.83Zm.8,0v.84a.64.64,0,1,0,1.28.15.38.38,0,0,0,0-.15V28a.64.64,0,0,0-.56-.72.64.64,0,0,0-.72.57V28c0,.31,0,.59,0,.87Z"/><path data-cppathid="10013" fill="#fff" transform="translate(-0.01 0.01)" d="M42.54,14.36l-1.9-1.88c-.08-.07-.2-.13-.21-.23s-.09-.46,0-.52a.57.57,0,0,1,.54,0c.85.79,1.61,1.58,2.41,2.39a.39.39,0,0,1,0,.55.12.12,0,0,1,0,.05L41,17.13a.38.38,0,0,1-.55.05l0-.05a.41.41,0,0,1,0-.58l.06-.05,1.84-1.83Z"/><path data-cppathid="10014" fill="#fff" transform="translate(-0.01 0.01)" d="M47.55,17.07H45.49c-.29,0-.57,0-.57-.39s.25-.42.55-.42h4.19c.29,0,.55.06.54.42s-.25.39-.52.39Z"/><path data-cppathid="10015" fill="#fff" transform="translate(-0.01 0.01)" d="M49.51,28.85V27.09c0-.28.06-.52.4-.52s.41.24.41.54v3.51c0,.29,0,.55-.41.55s-.4-.28-.4-.57Z"/><path data-cppathid="10016" fill="#fff" transform="translate(-0.01 0.01)" d="M40.27,28.86V27.07c0-.27.07-.5.38-.5s.42.2.42.49v3.66c0,.27-.1.48-.4.48s-.4-.2-.4-.48Z"/><path data-cppathid="10017" fill="#fff" transform="translate(-0.01 0.01)" d="M37.59,22.42v1.75c0,.29-.05.55-.42.54s-.39-.24-.39-.52V20.65c0-.29.08-.53.39-.54s.42.23.42.52C37.58,21.22,37.59,21.82,37.59,22.42Z"/><path data-cppathid="10018" fill="#fff" transform="translate(-0.01 0.01)" d="M42.79,22.4V20.7c0-.28,0-.56.39-.57s.41.25.41.55v3.5c0,.29,0,.56-.4.55s-.4-.28-.4-.56Z"/><path data-cppathid="10019" fill="#fff" transform="translate(-0.01 0.01)" d="M32.87,7.84a6.07,6.07,0,0,0-5.4-3.77,1.68,1.68,0,0,1-.72-.22,8.64,8.64,0,0,0-4.91-1.06,8,8,0,0,0-7.52,5.84,14,14,0,0,0-.52,2.72A15.05,15.05,0,0,0,17.39,23a2.51,2.51,0,0,0,.54.54c.15.11.45.18.54.11a.8.8,0,0,0,.2-.57,3.36,3.36,0,0,0-.18-.76l.18-.08c.23.28.6.54.68.84a10.1,10.1,0,0,1,.17,3.1l1-.45c0-.17,0-.52,0-1.4v-.54A8.55,8.55,0,0,0,24,24.91a7.13,7.13,0,0,0,3.39-1.19,17.11,17.11,0,0,1,0,1.91l.85.52a6.55,6.55,0,0,1,.21-2.92,1.33,1.33,0,0,1,.32-.61c.31-.32.68-.61,1-.91l.13.05c-.05.3-.11.59-.17.9s-.32.8.18,1,.64-.26.85-.52a14.53,14.53,0,0,0,3.4-9.34A13.37,13.37,0,0,0,32.87,7.84ZM30.12,19.18a1.71,1.71,0,0,1-.41,1.13,12.5,12.5,0,0,1-4.14,3.29,3.67,3.67,0,0,1-3.14.07,10.19,10.19,0,0,1-2.86-1.81,4.77,4.77,0,0,1-1.75-3.59,19.2,19.2,0,0,1,.67-6.49c.07-.22.16-.44.23-.66s.1-.2.16-.3h.22c.91.12.9.12,1.17-.77.09-.22.2-.44.31-.65a5.71,5.71,0,0,1,.19.71,1.1,1.1,0,0,0,1.17,1,15.4,15.4,0,0,0,1.92-.06.91.91,0,0,0,.93-.88v-.06a4.69,4.69,0,0,1,.09-.64c.17.43.22.85.43,1a1.8,1.8,0,0,0,.94.2c.28,0,.59,0,.7-.36s.12-.55.22-.94a4,4,0,0,0,.61,1.05,3.55,3.55,0,0,0,1.15.34c.27,1.07.59,2.23.85,3.4A22.8,22.8,0,0,1,30.12,19.18Zm.89,2V17.47a23.42,23.42,0,0,0-1.13-6.59c-.34-1.11-.35-1.11-1.55-1.19-.09-.4-.2-.85-.29-1.28s0-.62-.36-.71a.73.73,0,0,0-.75.42c-.32.5-.59,1-1,1.7,0-.55-.09-1-.1-1.36a6.79,6.79,0,0,0,0-1,.69.69,0,0,0-.29-.54.66.66,0,0,0-.57.24,17.88,17.88,0,0,0-.85,1.62c-.06.12-.07.25-.12.37-.13.34-.2.91-.43,1a4.63,4.63,0,0,1-1.7.07c-.13,0-.31-.26-.35-.43-.09-.38-.11-.77-.17-1.15-.1-.6-.39-.73-.91-.4a3,3,0,0,0-1.19,1.62c-.09,0-.14.06-.18.05-.85-.12-.85-.12-1.19.67a16.06,16.06,0,0,0-1.07,7.35c.06,1,.23,2,.35,2.92a.49.49,0,0,1-.12.32c-.19-.3-.39-.6-.56-.9A14.31,14.31,0,0,1,15.06,9.33c1.4-5.61,7.54-6.79,11.21-4.69a2.59,2.59,0,0,0,1.3.38,4.65,4.65,0,0,1,3.55,1.77A8.89,8.89,0,0,1,33,11a13.63,13.63,0,0,1-1.7,9.8Z"/></g></g><g id="Check"><g data-name="Capa 2" id="Capa_2"><path data-cppathid="10020" fill="#00ff0c" transform="translate(-0.01 0.01)" d="M42.46,25.66l-.74-.8a1.75,1.75,0,0,0-2.47-.13.49.49,0,0,0-.12.13l-16,17.24L16,34.37a1.75,1.75,0,0,0-2.46-.13l-.13.13-.9,1L22.94,46.72Z"/><path data-cppathid="10021" fill="#03e503" transform="translate(-0.01 0.01)" d="M42.46,25.66,23,46.71,12.47,35.33l-1,1a2.11,2.11,0,0,0,0,2.8L21.79,50.29a1.82,1.82,0,0,0,2.64,0l19.14-20.6a2.09,2.09,0,0,0,0-2.79Z"/></g></g><g id="Borde"><path data-cppathid="10022" fill="#00ffd3" transform="translate(-0.01 0.01)" d="M47.61,1a6,6,0,0,1,6,6v57.5a6,6,0,0,1-6,6H7a6,6,0,0,1-6-6V7A6,6,0,0,1,7,1H47.61m0-1H7A7,7,0,0,0,0,7v57.5a7,7,0,0,0,7,7H47.61a7,7,0,0,0,7-7V7a7,7,0,0,0-7-7Z"/></g></svg>