<?xml version="1.0" encoding="UTF-8"?>
<svg xmlns="http://www.w3.org/2000/svg" onmouseup="{ if(window.parent.document.onmouseup) window.parent.document.onmouseup(arguments[0]);}" viewBox="0 0 1370 1662" data-name="Capa 1" id="Capa_1"><g id="TXT"><path data-cppathid="10000" fill="#fff" d="M251.8,1383.44l.13.38q.25,13.61-7.6,21.14t-21.58,7.54q-14.19,0-22.6-9.09t-8.42-25.48v-25.57q0-16.33,8.29-25.51t22.29-9.18q14.1,0,22,7.31t7.66,21.37l-.12.38H239.52q0-9.88-4.3-14.53t-12.91-4.65q-8.49,0-13.11,6.36t-4.62,18.26v25.76q0,12,4.75,18.42t13.42,6.4q8.35,0,12.53-4.59t4.18-14.72Z"/><path data-cppathid="10001" fill="#fff" d="M261.89,1376.16q0-15.26,7.21-25t19.82-9.75q12.58,0,19.84,9.75t7.25,25v1.71q0,15.32-7.22,25T289,1412.53q-12.72,0-19.94-9.66t-7.21-25Zm12.91,1.71q0,11,3.51,17.91t10.73,7q7,0,10.54-7t3.52-17.88v-1.71q0-10.76-3.55-17.82t-10.66-7.09q-7.09,0-10.61,7.06t-3.51,17.82Z"/><path data-cppathid="10002" fill="#fff" d="M340,1342.68l.7,9.3a21.26,21.26,0,0,1,7.25-7.82,18.88,18.88,0,0,1,10.22-2.75,16,16,0,0,1,9.87,3.13q4.19,3.14,6.27,9.53a23.4,23.4,0,0,1,7.25-9.31,17.45,17.45,0,0,1,10.67-3.35,16.24,16.24,0,0,1,14,7.25q5.09,7.24,5.09,22.06v40.45H398.47v-40.52q0-10.7-2.66-15a8.72,8.72,0,0,0-7.91-4.27,9.67,9.67,0,0,0-7.44,3.29,20,20,0,0,0-4.4,8.68c0,.75.08,1.55.13,2.37s.06,1.66.06,2.5v42.92H363.4v-40.52q0-10.3-2.72-14.78a8.74,8.74,0,0,0-7.91-4.46,11.13,11.13,0,0,0-7.09,2.28,15,15,0,0,0-4.56,6.27v51.21H328.21v-68.49Z"/><path data-cppathid="10003" fill="#fff" d="M439.89,1324.7H427v-12.28h12.87Zm0,86.47H427v-68.49h12.87Z"/><path data-cppathid="10004" fill="#fff" d="M472.15,1325.65v17h10.74v9.17h-10.7v40.77c0,3.54.54,6.07,1.61,7.56a5,5,0,0,0,4.28,2.25,10.34,10.34,0,0,0,2-.19q.94-.2,2.22-.57l1.33,8.86a20.46,20.46,0,0,1-4.09,1.43,20.17,20.17,0,0,1-4.65.54q-7.41,0-11.52-4.78t-4.11-15.1v-40.77H450.2v-9.17h9.06v-17Z"/><path data-cppathid="10005" fill="#fff" d="M519.24,1412.5q-12.78,0-20-9.37T492,1378.76v-3q0-15.06,7.22-24.72t18.86-9.65q11.71,0,17.82,8.29T542,1372v7.22H504.81q0,10.52,3.77,17a12.46,12.46,0,0,0,11.55,6.52,22.42,22.42,0,0,0,16.71-6.59l4.18,8a27.43,27.43,0,0,1-9,6A32,32,0,0,1,519.24,1412.5Zm-1.2-61.22q-5.56,0-8.86,5.16c-2.19,3.44-3.57,8-4.11,13.64h24.24v-1.45q0-7.73-2.75-12.54a9.18,9.18,0,0,0-8.52-4.81Zm3.67-37.79h14.75l.19.32-15.32,16.52H510.57Z"/><path data-cppathid="10006" fill="#fff" d="M606.79,1412.5q-12.79,0-20-9.37t-7.24-24.37v-3q0-15.06,7.21-24.72t18.87-9.65q11.7,0,17.81,8.29t6.11,22.28v7.22H592.36q0,10.52,3.76,17a12.46,12.46,0,0,0,11.55,6.52,22.43,22.43,0,0,0,16.72-6.59l4.17,8a27,27,0,0,1-9,6A32,32,0,0,1,606.79,1412.5Zm-1.2-61.22q-5.58,0-8.87,5.16t-4.11,13.64h24.28v-1.45q0-7.73-2.75-12.54A9.16,9.16,0,0,0,605.59,1351.28Z"/><path data-cppathid="10007" fill="#fff" d="M655.34,1342.68v73.17q0,11-5.06,17t-14.06,6a19,19,0,0,1-3.45-.29,30.38,30.38,0,0,1-3.38-.85l.76-9.81a14.43,14.43,0,0,0,2.34.63,12.77,12.77,0,0,0,2.47.25,6.23,6.23,0,0,0,5.5-3.19q2-3.19,2-9.72V1342.7Zm-.32-18.17H642.11v-12.09H655Z"/><path data-cppathid="10008" fill="#fff" d="M695.6,1412.5q-12.79,0-20-9.37t-7.24-24.37v-3q0-15.06,7.21-24.72t18.87-9.65q11.7,0,17.81,8.29t6.11,22.28v7.22H681.17q0,10.52,3.76,17a12.46,12.46,0,0,0,11.55,6.52,22.43,22.43,0,0,0,16.72-6.59l4.17,8a27,27,0,0,1-9,6A32,32,0,0,1,695.6,1412.5Zm-1.2-61.22q-5.58,0-8.87,5.16t-4.11,13.64h24.24v-1.45q0-7.73-2.75-12.54A9.15,9.15,0,0,0,694.4,1351.28Z"/><path data-cppathid="10009" fill="#fff" d="M753.71,1402.75a10.13,10.13,0,0,0,7.94-3.67q3.2-3.67,3.2-9.94h11.58l.13.38a21.15,21.15,0,0,1-6.52,16.33,22.47,22.47,0,0,1-16.33,6.65q-12.66,0-19.56-9.66t-6.9-24.65v-2.41q0-14.94,6.9-24.65t19.56-9.72q10.24,0,16.68,6.93t6.23,18l-.12.32H764.89q0-6.84-3.07-11.11a9.49,9.49,0,0,0-8.07-4.28q-7.21,0-10.42,7t-3.19,17.53v2.41q0,10.76,3.16,17.66T753.71,1402.75Z"/><path data-cppathid="10010" fill="#fff" d="M825.43,1401.17a22,22,0,0,1-7.09,8.38,17.39,17.39,0,0,1-10,3q-9.44,0-14.75-7.28t-5.32-22.6v-39.94h12.91v40.06q0,11,2.53,15.42a8.36,8.36,0,0,0,7.73,4.4,14.23,14.23,0,0,0,8.07-2.22,14.84,14.84,0,0,0,5.22-6.33v-51.33h12.91v68.49h-11Z"/><path data-cppathid="10011" fill="#fff" d="M868.89,1325.65v17h10.7v9.17h-10.7v40.77c0,3.54.54,6.07,1.62,7.56a5,5,0,0,0,4.27,2.25,10.34,10.34,0,0,0,2-.19c.63-.13,1.37-.32,2.21-.57l1.33,8.86a20.37,20.37,0,0,1-8.73,2q-7.41,0-11.53-4.78t-4.11-15.1v-40.77H846.9v-9.17H856v-17Z"/><path data-cppathid="10012" fill="#fff" d="M905,1324.7H892.08v-12.28H905Zm0,86.47H892.08v-68.49H905Z"/><path data-cppathid="10013" fill="#fff" d="M940.82,1390.59l1.07,5.41h.38l1.14-5.38,12-47.91H968.7l-20.89,68.49H936.33l-21-68.49h13.42Z"/><path data-cppathid="10014" fill="#fff" d="M974.31,1376.16q0-15.26,7.21-25t19.82-9.75q12.58,0,19.84,9.75t7.25,25v1.71q0,15.32-7.22,25t-19.75,9.66q-12.72,0-19.94-9.66t-7.21-25Zm12.91,1.71q0,11,3.51,17.91t10.73,7q7,0,10.54-7t3.52-17.88v-1.71q0-10.76-3.55-17.82t-10.63-7.06q-7.1,0-10.61,7.06t-3.51,17.82Z"/><path data-cppathid="10015" fill="#fff" d="M1066.79,1377.74q0-16.46,6-26.39t16.9-9.94a17.45,17.45,0,0,1,8.74,2.18,20,20,0,0,1,6.65,6.3v-37.47h12.85v98.75h-10.64l-1.33-8.23a20.39,20.39,0,0,1-7,7.12,18.12,18.12,0,0,1-9.43,2.44,19,19,0,0,1-16.81-9.15q-6-9.15-6-24.28Zm12.79,1.33q0,10.77,3.23,17.13t10.06,6.36a11.7,11.7,0,0,0,7.31-2.28,16.44,16.44,0,0,0,4.91-6.46v-33.17a18.12,18.12,0,0,0-4.94-6.74,11,11,0,0,0-7.22-2.5q-6.83,0-10.09,7.31t-3.26,19Z"/><path data-cppathid="10016" fill="#fff" d="M1157.75,1412.5q-12.78,0-20-9.37t-7.25-24.37v-3q0-15.06,7.22-24.72t18.86-9.65q11.72,0,17.82,8.29t6.11,22.28v7.22h-37.16q0,10.52,3.77,17a12.46,12.46,0,0,0,11.55,6.52,22.42,22.42,0,0,0,16.71-6.59l4.18,8a27.43,27.43,0,0,1-9,6A32.16,32.16,0,0,1,1157.75,1412.5Zm-1.2-61.22q-5.57,0-8.86,5.16t-4.12,13.64h24.25v-1.45q0-7.73-2.76-12.54A9.14,9.14,0,0,0,1156.55,1351.28Z"/><path data-cppathid="10017" fill="#fff" d="M547.6,1533.31q0-16.45,6-26.4t16.9-9.94a17.42,17.42,0,0,1,8.73,2.19,19.75,19.75,0,0,1,6.65,6.3V1468h12.85v98.75H588.12l-1.33-8.23a20.23,20.23,0,0,1-7,7.12,18.12,18.12,0,0,1-9.43,2.44,19,19,0,0,1-16.8-9.15q-6-9.14-6-24.27Zm12.79,1.33q0,10.75,3.23,17.12t10.06,6.36a11.7,11.7,0,0,0,7.31-2.28,16.41,16.41,0,0,0,4.91-6.45v-33.17a18.12,18.12,0,0,0-4.94-6.74,11,11,0,0,0-7.21-2.5q-6.84,0-10.1,7.31t-3.26,19Z"/><path data-cppathid="10018" fill="#fff" d="M649.39,1566.73c-.55-2.07-1-3.91-1.3-5.54a35.75,35.75,0,0,1-.6-4.84,25.11,25.11,0,0,1-7.18,8.39,16.67,16.67,0,0,1-10.16,3.32q-9.18,0-14.09-5.44t-4.9-14.88q0-9.67,6.8-15.25t19-5.57h10.51v-7q0-6.27-2.79-9.78a10.74,10.74,0,0,0-15.16-.72l-.25.24a11.19,11.19,0,0,0-2.76,7.79l-12.27.06-.13-.38q-.37-8,6.2-14t17.18-6.13q10.18,0,16.52,6t6.33,17.06v31.77a57.3,57.3,0,0,0,.51,7.63,46.91,46.91,0,0,0,1.58,7.31Zm-16.58-8.54a14.44,14.44,0,0,0,9.3-3.26,15.19,15.19,0,0,0,5.32-7.89v-12.15h-10.7q-6,0-9.31,3.77a13.19,13.19,0,0,0-3.35,9.08,11.82,11.82,0,0,0,2.28,7.6A7.76,7.76,0,0,0,632.81,1558.19Z"/><path data-cppathid="10019" fill="#fff" d="M691.55,1481.21v17h10.69v9.18H691.55v40.76c0,3.55.54,6.08,1.61,7.57a5,5,0,0,0,4.27,2.25,10.34,10.34,0,0,0,2-.19q.95-.19,2.22-.57l1.32,8.86a20.56,20.56,0,0,1-8.73,2q-7.41,0-11.52-4.78t-4.12-15.1v-40.76h-9v-9.18h9v-17Z"/><path data-cppathid="10020" fill="#fff" d="M711.3,1531.73q0-15.26,7.21-25t19.82-9.75q12.58,0,19.84,9.75t7.25,25v1.71q0,15.32-7.22,25t-19.75,9.65q-12.72,0-19.94-9.65t-7.21-25Zm12.91,1.71q0,10.95,3.51,17.91t10.73,7q7,0,10.54-7t3.52-17.88v-1.71q0-10.77-3.55-17.82t-10.63-7.06q-7.1,0-10.61,7.06t-3.51,17.82Z"/><path data-cppathid="10021" fill="#fff" d="M810.17,1549.45a9.16,9.16,0,0,0-2.66-6.68q-2.65-2.68-10.19-6-10.58-4-15.82-8.67a15.42,15.42,0,0,1-5.26-12,17.29,17.29,0,0,1,6.36-13.49Q789,1497,799.16,1497q10.56,0,17,6.11a18.8,18.8,0,0,1,6.21,14.78l-.13.38H809.89a12.77,12.77,0,0,0-2.88-8.38,9.54,9.54,0,0,0-7.81-3.52c-3.29,0-5.86.92-7.69,2.76a8.77,8.77,0,0,0-2.76,6.42,8,8,0,0,0,2.38,6.17q2.37,2.25,10.16,5.8,10.76,3.8,16.17,8.79a16.38,16.38,0,0,1,5.41,12.54,17.06,17.06,0,0,1-6.55,13.89q-6.55,5.35-17.19,5.35-11.52,0-18.13-6.42a19.28,19.28,0,0,1-6.3-15l.13-.38h12q.25,6.64,3.77,9.59a13.17,13.17,0,0,0,8.76,3q5.13,0,8-2.63A8.66,8.66,0,0,0,810.17,1549.45Z"/></g><g id="IMG"><g data-name="Comite ejec datos" id="Comite_ejec_datos"><path data-cppathid="10022" fill="#fff" d="M266.16,1125.32A104.45,104.45,0,1,1,370.6,1020.86h0A104.58,104.58,0,0,1,266.16,1125.32Zm0-172.42a68,68,0,1,0,68,68,68,68,0,0,0-68-68Z"/><path data-cppathid="10023" fill="#fff" d="M401.75,1241a18.26,18.26,0,0,1-17.86-14.69,119.3,119.3,0,0,0-116.67-95.64c-55.68,0-104.6,39.52-116.31,94a18.24,18.24,0,0,1-35.66-7.67c15.3-71.13,79.22-122.76,152-122.76a155.86,155.86,0,0,1,152.43,125A18,18,0,0,1,401.75,1241Z"/><path data-cppathid="10024" fill="#fff" d="M535.89,1125.32a104.45,104.45,0,1,1,104.45-104.45A104.45,104.45,0,0,1,535.89,1125.32Zm0-172.42a68,68,0,1,0,68,68,68,68,0,0,0-68-68Z"/><path data-cppathid="10025" fill="#fff" d="M671.48,1241a18.26,18.26,0,0,1-17.87-14.67A119.28,119.28,0,0,0,537,1130.69c-55.69,0-104.6,39.52-116.31,94A18.24,18.24,0,0,1,385,1217c15.3-71.13,79.21-122.76,152-122.76a155.86,155.86,0,0,1,152.43,125,18.28,18.28,0,0,1-17.9,21.82Z"/><path data-cppathid="10026" fill="#fff" d="M805.61,1125.32a104.45,104.45,0,1,1,104.44-104.46h0A104.58,104.58,0,0,1,805.61,1125.32Zm0-172.42a68,68,0,1,0,68,68,68,68,0,0,0-68-68Z"/><path data-cppathid="10027" fill="#fff" d="M941.2,1241a18.24,18.24,0,0,1-17.86-14.67,119.28,119.28,0,0,0-116.66-95.64c-55.69,0-104.61,39.52-116.32,94A18.24,18.24,0,0,1,654.7,1217c15.3-71.13,79.22-122.76,152-122.76a155.87,155.87,0,0,1,152.43,125A17.91,17.91,0,0,1,941.2,1241Z"/><path data-cppathid="10028" fill="#fff" d="M1075.34,1125.32a104.45,104.45,0,1,1,104.44-104.46h0A104.56,104.56,0,0,1,1075.34,1125.32Zm0-172.42a68,68,0,1,0,68,68,68,68,0,0,0-68-68Z"/><path data-cppathid="10029" fill="#fff" d="M1210.89,1241a18.23,18.23,0,0,1-17.86-14.67,119.3,119.3,0,0,0-116.67-95.64c-55.69,0-104.6,39.52-116.31,94a18.24,18.24,0,0,1-35.66-7.67c15.3-71.13,79.21-122.76,152-122.76a155.86,155.86,0,0,1,152.43,125,18.26,18.26,0,0,1-17.93,21.74Z"/><path data-cppathid="10030" fill="#fff" d="M315.48,580.12A109.85,109.85,0,1,1,425.33,470.27,109.85,109.85,0,0,1,315.48,580.12Zm0-183.22a73.37,73.37,0,1,0,73.41,73.37A73.37,73.37,0,0,0,315.48,396.9Z"/><path data-cppathid="10031" fill="#fff" d="M125.6,880.71a18.23,18.23,0,0,1-18.25-18.21,17.35,17.35,0,0,1,.32-3.44l32.22-169.54c.06-.3.13-.6.2-.9A125.68,125.68,0,0,1,262.53,592.4H342a160,160,0,0,1,117.18,51.28l68.36,74L656.14,671a63.23,63.23,0,0,1,81,37.86c.13.34.24.67.36,1l.37,1.07a64.11,64.11,0,0,1-38.43,81.56c-36.91,13.66-116.22,44.9-160.21,62.31A76.13,76.13,0,0,1,455,835l-12.58-14v41.45a18.24,18.24,0,1,1-36.47.85c0-.28,0-.57,0-.85v-89a18.24,18.24,0,0,1,31.79-12.2l44.37,49.3a39.54,39.54,0,0,0,43.75,10.28c44.13-17.47,123.72-48.83,161-62.61a27.83,27.83,0,0,0,16.62-35.45l-.37-1.07a26.75,26.75,0,0,0-34-16.65l-.48.17L528.63,756A18.26,18.26,0,0,1,509,751.27l-76.58-82.88A123.39,123.39,0,0,0,342,628.84H262.53a89.29,89.29,0,0,0-86.88,67.93L143.5,865.88A18.26,18.26,0,0,1,125.6,880.71Z"/><path data-cppathid="10032" fill="#fff" d="M212.58,880.71a18.24,18.24,0,0,1-18.24-18.24V735.92a18.24,18.24,0,0,1,36.48,0V862.47a18.24,18.24,0,0,1-18.24,18.24Z"/><path data-cppathid="10033" fill="#fff" d="M424.15,791.73a18.24,18.24,0,0,1-18.26-18.22V735.92a18.24,18.24,0,0,1,36.47,0v37.57A18.24,18.24,0,0,1,424.15,791.73Z"/><path data-cppathid="10034" fill="#fff" d="M1244.41,844.7H805.61a18.24,18.24,0,0,1,0-36.48h420.57V129.81H292.45V300.4a18.24,18.24,0,0,1-36.47.85c0-.28,0-.57,0-.85V111.57a18.23,18.23,0,0,1,18.23-18.23h970.2a18.23,18.23,0,0,1,18.24,18.22h0V826.46A18.24,18.24,0,0,1,1244.41,844.7Z"/><path data-cppathid="10035" fill="#fff" d="M1145.89,628.7a18.24,18.24,0,0,1-18.23-18.24V318.3a18.24,18.24,0,0,1,36.47,0V610.46A18.24,18.24,0,0,1,1145.89,628.7Z"/><path data-cppathid="10036" fill="#fff" d="M1077.52,628.7a18.24,18.24,0,0,1-18.23-18.24V357.79a18.24,18.24,0,0,1,36.47,0V610.46A18.24,18.24,0,0,1,1077.52,628.7Z"/><path data-cppathid="10037" fill="#fff" d="M1009.11,628.7a18.23,18.23,0,0,1-18.22-18.24V397.28a18.24,18.24,0,0,1,36.47,0V610.46a18.24,18.24,0,0,1-18.24,18.24Z"/><path data-cppathid="10038" fill="#fff" d="M940.69,628.7a18.24,18.24,0,0,1-18.23-18.24V422.57a18.24,18.24,0,0,1,36.47-.85c0,.28,0,.57,0,.85V610.46a18.24,18.24,0,0,1-18.24,18.24Z"/><path data-cppathid="10039" fill="#fff" d="M872.28,628.7A18.24,18.24,0,0,1,854,610.46V417a18.24,18.24,0,0,1,36.48,0V610.46A18.24,18.24,0,0,1,872.28,628.7Z"/><path data-cppathid="10040" fill="#fff" d="M803.89,628.7a18.24,18.24,0,0,1-18.24-18.24v-165a18.24,18.24,0,0,1,36.47-.86c0,.29,0,.57,0,.86v165A18.24,18.24,0,0,1,803.89,628.7Z"/><path data-cppathid="10041" fill="#fff" d="M735.45,628.7a18.24,18.24,0,0,1-18.23-18.24V464.28a18.24,18.24,0,0,1,36.47-.85c0,.28,0,.57,0,.85V610.46a18.24,18.24,0,0,1-18.24,18.24Z"/><path data-cppathid="10042" fill="#fff" d="M667,628.7a18.24,18.24,0,0,1-18.24-18.24V455.28a18.24,18.24,0,0,1,36.48,0V610.46A18.24,18.24,0,0,1,667,628.7Z"/><path data-cppathid="10043" fill="#fff" d="M598.63,628.7a18.24,18.24,0,0,1-18.24-18.24V469.68a18.24,18.24,0,0,1,36.47-.86c0,.29,0,.57,0,.86V610.46A18.24,18.24,0,0,1,598.63,628.7Z"/><path data-cppathid="10044" fill="#fff" d="M530.21,628.7A18.24,18.24,0,0,1,512,610.46V483.8a18.24,18.24,0,0,1,36.47-.85c0,.28,0,.57,0,.85V610.46a18.24,18.24,0,0,1-18.24,18.24Z"/><path data-cppathid="10045" fill="#fff" d="M516.17,463.79a18.24,18.24,0,0,1-7.84-34.72l115.5-54.84a18.26,18.26,0,0,1,10.75-1.53l116.56,19,113.58-52.61a18.28,18.28,0,0,1,11.17-1.4l61.45,11.88,199.6-114a18.24,18.24,0,0,1,18.74,31.3l-.65.37L949.51,384.6A18.26,18.26,0,0,1,937,386.67l-62.3-12.05L761.39,427.11a18.2,18.2,0,0,1-10.59,1.45L634.34,409.61,524,462A18.22,18.22,0,0,1,516.17,463.79Z"/></g></g><g id="Borde"><rect data-cppathid="10046" stroke-width="11" stroke-miterlimit="10" stroke="#71f3cf" fill="none" rx="146.08" height="1651" width="1359" y="5.5" x="5.5"/></g></svg>