<?xml version="1.0" encoding="UTF-8"?>
<svg xmlns="http://www.w3.org/2000/svg" onmouseup="{ if(window.parent.document.onmouseup) window.parent.document.onmouseup(arguments[0]);}" viewBox="0 0 1370.11 1662"><g data-name="Capa 2" id="Capa_2"><rect data-cppathid="10000" fill="#333e48" height="1662" width="1370"/></g><g id="TXT"><path data-cppathid="10001" fill="#fff" transform="translate(0 0)" d="M209.44,1446.49H178.17v33H215v9.75H165.32v-92.17h49.37V1407H178.17v29.68h31.27Z"/><path data-cppathid="10002" fill="#fff" transform="translate(0 0)" d="M222.92,1455.86q0-16.45,6-26.39t16.9-9.94a17.4,17.4,0,0,1,9.17,2.4,20.72,20.72,0,0,1,6.78,6.84l1.39-8h10.57v94.83H260.84v-32.54a18.19,18.19,0,0,1-6.49,5.64,20.22,20.22,0,0,1-25.45-7.25q-6-9.15-6-24.28Zm12.79,1.33q0,10.83,3.23,17.25t10.06,6.43a11.89,11.89,0,0,0,7-2.06,15.41,15.41,0,0,0,4.81-5.86V1437.7a16.11,16.11,0,0,0-4.78-6.08,11.3,11.3,0,0,0-7-2.22q-6.83,0-10.09,7.38t-3.26,19.08Z"/><path data-cppathid="10003" fill="#fff" transform="translate(0 0)" d="M326,1479.28a22,22,0,0,1-7.09,8.39,17.29,17.29,0,0,1-10,2.94q-9.44,0-14.75-7.28t-5.31-22.59v-40h12.91v40.07c0,7.35.84,12.48,2.53,15.42a8.33,8.33,0,0,0,7.72,4.4,14.23,14.23,0,0,0,8.08-2.22,14.91,14.91,0,0,0,5.22-6.33v-51.34h12.91v68.5H327.24Z"/><path data-cppathid="10004" fill="#fff" transform="translate(0 0)" d="M366.68,1402.82H353.76v-12.28h12.92Zm0,86.47H353.76v-68.5h12.92Z"/><path data-cppathid="10005" fill="#fff" transform="translate(0 0)" d="M433.77,1457.19q0,15.19-6,24.31a19.13,19.13,0,0,1-16.87,9.11,19.38,19.38,0,0,1-9-2,18.23,18.23,0,0,1-6.61-5.85v32.85H382.37v-94.83h10.95l1.21,8.23a20,20,0,0,1,6.83-7,17.91,17.91,0,0,1,9.44-2.44q10.88,0,16.93,9.94t6,26.39Zm-12.91-1.33q0-11.64-3.39-19t-10.16-7.34a11.33,11.33,0,0,0-7.28,2.37,16.55,16.55,0,0,0-4.74,6.43v34.5a14.47,14.47,0,0,0,4.74,6,12.52,12.52,0,0,0,7.35,2.09q6.76,0,10.13-6.46t3.35-17.22Z"/><path data-cppathid="10006" fill="#fff" transform="translate(0 0)" d="M443.58,1454.28q0-15.26,7.22-25t19.81-9.75q12.6,0,19.85,9.75t7.25,25V1456q0,15.32-7.22,25t-19.75,9.65q-12.72,0-19.94-9.65t-7.22-25ZM456.5,1456q0,11,3.51,17.91t10.73,7q7,0,10.54-7t3.51-17.88v-1.71q0-10.76-3.54-17.82t-10.64-7.06q-7.08,0-10.6,7.06t-3.51,17.82Z"/><path data-cppathid="10007" fill="#fff" transform="translate(0 0)" d="M539.86,1489.29v-92.17H566q14.94,0,24.4,11.08t9.46,28.48v13.11q0,17.46-9.46,28.48t-24.4,11ZM552.71,1407v72.54H566q9.5,0,15.19-8.33t5.7-21.42v-13.23q0-12.91-5.7-21.24T566,1407Z"/><path data-cppathid="10008" fill="#fff" transform="translate(0 0)" d="M638.61,1490.61q-12.78,0-20-9.36t-7.25-24.37v-3q0-15.06,7.22-24.72t18.86-9.65q11.72,0,17.82,8.29t6.11,22.28v7.22H624.18q0,10.5,3.77,17a12.46,12.46,0,0,0,11.55,6.52,22.42,22.42,0,0,0,16.71-6.59l4.18,8a27.35,27.35,0,0,1-9,6A32.15,32.15,0,0,1,638.61,1490.61Zm-1.2-61.21q-5.58,0-8.86,5.16t-4.12,13.64h24.25v-1.45q0-7.73-2.76-12.54A9.14,9.14,0,0,0,637.41,1429.4Z"/><path data-cppathid="10009" fill="#fff" transform="translate(0 0)" d="M705.39,1472a9.08,9.08,0,0,0-2.66-6.67q-2.65-2.7-10.19-6-10.57-4-15.82-8.67a15.36,15.36,0,0,1-5.26-12,17.27,17.27,0,0,1,6.37-13.48q6.36-5.56,16.55-5.57,10.57,0,17,6.11a18.8,18.8,0,0,1,6.2,14.78l-.13.38h-12.4a12.81,12.81,0,0,0-2.88-8.39,9.58,9.58,0,0,0-7.82-3.51c-3.29,0-5.86.91-7.69,2.75a8.81,8.81,0,0,0-2.76,6.43,8.11,8.11,0,0,0,2.38,6.17q2.37,2.25,10.16,5.79,10.75,3.8,16.17,8.8a16.33,16.33,0,0,1,5.41,12.53,17.1,17.1,0,0,1-6.55,13.9q-6.56,5.34-17.19,5.34-11.52,0-18.13-6.42a19.25,19.25,0,0,1-6.3-15l.13-.38h12q.25,6.65,3.77,9.59a13.18,13.18,0,0,0,8.76,2.94q5.13,0,8-2.63A8.63,8.63,0,0,0,705.39,1472Z"/><path data-cppathid="10010" fill="#fff" transform="translate(0 0)" d="M765.59,1489.29q-.83-3.11-1.3-5.54a36.91,36.91,0,0,1-.6-4.85,25.06,25.06,0,0,1-7.18,8.39,16.55,16.55,0,0,1-10.16,3.32q-9.18,0-14.09-5.44t-4.9-14.88q0-9.68,6.8-15.25t19-5.57h10.51v-7q0-6.26-2.79-9.78a10.72,10.72,0,0,0-15.41-.47,11.11,11.11,0,0,0-2.75,7.78l-12.28.07-.13-.38q-.37-8,6.2-14.05t17.22-6.08q10.18,0,16.52,6t6.33,17.06v31.78a55.83,55.83,0,0,0,.51,7.62,48.74,48.74,0,0,0,1.58,7.32ZM749,1480.74a14.43,14.43,0,0,0,9.3-3.26,15.13,15.13,0,0,0,5.32-7.88v-12.15h-10.7q-6,0-9.3,3.76a13.17,13.17,0,0,0-3.36,9.08,11.81,11.81,0,0,0,2.28,7.6A7.79,7.79,0,0,0,749,1480.74Z"/><path data-cppathid="10011" fill="#fff" transform="translate(0 0)" d="M820.6,1431.49l-5.57-.31a9.67,9.67,0,0,0-6.74,2.43,15.61,15.61,0,0,0-4.15,6.87v48.81H791.23v-68.5h11.83l.89,10.13a22,22,0,0,1,5.82-8.38,12.25,12.25,0,0,1,8.17-3,10.73,10.73,0,0,1,2.25.22,12.93,12.93,0,0,1,1.86.54Z"/><path data-cppathid="10012" fill="#fff" transform="translate(0 0)" d="M860.48,1431.49l-5.57-.31a9.67,9.67,0,0,0-6.74,2.43,15.61,15.61,0,0,0-4.15,6.87v48.81H831.11v-68.5h11.83l.89,10.13a22,22,0,0,1,5.82-8.38,12.25,12.25,0,0,1,8.17-3,10.73,10.73,0,0,1,2.25.22,12.93,12.93,0,0,1,1.86.54Z"/><path data-cppathid="10013" fill="#fff" transform="translate(0 0)" d="M867.12,1454.28q0-15.26,7.22-25t19.81-9.75q12.6,0,19.85,9.75t7.25,25V1456q0,15.32-7.22,25t-19.75,9.65q-12.72,0-19.94-9.65t-7.22-25ZM880,1456q0,11,3.51,17.91t10.73,7q7,0,10.54-7t3.51-17.88v-1.71q0-10.76-3.54-17.82t-10.64-7.06q-7.08,0-10.6,7.06T880,1454.28Z"/><path data-cppathid="10014" fill="#fff" transform="translate(0 0)" d="M947.26,1489.29H934.35v-98.75h12.91Z"/><path data-cppathid="10015" fill="#fff" transform="translate(0 0)" d="M976.7,1489.29H963.78v-98.75H976.7Z"/><path data-cppathid="10016" fill="#fff" transform="translate(0 0)" d="M1028,1489.29q-.83-3.11-1.3-5.54a33.81,33.81,0,0,1-.6-4.85,25.17,25.17,0,0,1-7.18,8.39,16.57,16.57,0,0,1-10.16,3.32q-9.18,0-14.09-5.44t-4.9-14.88q0-9.68,6.8-15.25t19-5.57H1026v-7q0-6.26-2.79-9.78a10.72,10.72,0,0,0-15.41-.47,11.12,11.12,0,0,0-2.76,7.78l-12.28.07-.12-.38q-.39-8,6.2-14.05t17.22-6.08q10.19,0,16.52,6t6.33,17.06v31.78a55.83,55.83,0,0,0,.51,7.62,47.53,47.53,0,0,0,1.58,7.32Zm-16.59-8.55a14.44,14.44,0,0,0,9.31-3.26,15.13,15.13,0,0,0,5.32-7.88v-12.15h-10.7q-6,0-9.31,3.76a13.21,13.21,0,0,0-3.35,9.08,11.81,11.81,0,0,0,2.28,7.6A7.79,7.79,0,0,0,1011.38,1480.74Z"/><path data-cppathid="10017" fill="#fff" transform="translate(0 0)" d="M1051.2,1455.86q0-16.45,6-26.39t16.9-9.94a17.49,17.49,0,0,1,8.74,2.18,20,20,0,0,1,6.65,6.3v-37.47h12.85v98.75h-10.64l-1.33-8.23a20.4,20.4,0,0,1-7,7.12,18.19,18.19,0,0,1-9.43,2.43,19,19,0,0,1-16.81-9.14q-6-9.15-6-24.28Zm12.79,1.33q0,10.77,3.22,17.12t10.07,6.37a11.73,11.73,0,0,0,7.31-2.28,16.47,16.47,0,0,0,4.91-6.46v-33.17a18.33,18.33,0,0,0-4.94-6.74,11,11,0,0,0-7.22-2.5q-6.83,0-10.09,7.31t-3.26,19Z"/><path data-cppathid="10018" fill="#fff" transform="translate(0 0)" d="M1114.82,1454.28q0-15.26,7.21-25t19.82-9.75q12.59,0,19.84,9.75t7.25,25V1456q0,15.32-7.22,25t-19.75,9.65q-12.72,0-19.94-9.65t-7.21-25Zm12.91,1.71q0,11,3.51,17.91t10.73,7q7,0,10.54-7T1156,1456v-1.71q0-10.76-3.55-17.82t-10.63-7.06q-7.1,0-10.61,7.06t-3.51,17.82Z"/><path data-cppathid="10019" fill="#fff" transform="translate(0 0)" d="M1210.59,1431.49l-5.57-.31a9.67,9.67,0,0,0-6.74,2.43,15.61,15.61,0,0,0-4.15,6.87v48.81h-12.91v-68.5h11.84l.88,10.13a21.93,21.93,0,0,1,5.83-8.38,12.21,12.21,0,0,1,8.16-3,10.73,10.73,0,0,1,2.25.22,12.71,12.71,0,0,1,1.87.54Z"/></g><g id="IMG"><g id="Equipo_div"><path data-cppathid="10020" fill="#fff" transform="translate(0 0)" d="M1063.33,930.61a79.81,79.81,0,1,1,79.81-79.8A79.89,79.89,0,0,1,1063.33,930.61Zm0-123.13a43.33,43.33,0,1,0,43.33,43.33A43.38,43.38,0,0,0,1063.33,807.48Z"/><path data-cppathid="10021" fill="#fff" transform="translate(0 0)" d="M1040.39,1158.25a42.74,42.74,0,0,1-8.69-.9l-85.59-17.69a58.23,58.23,0,0,1-45.24-67.35L920.56,961.1A78.73,78.73,0,0,1,960.64,906l42.18-22.81a18.24,18.24,0,1,1,17.35,32.08L978,938a42.35,42.35,0,0,0-21.56,29.59l-19.68,111.21A21.62,21.62,0,0,0,953.49,1104l85.59,17.68a6.17,6.17,0,0,0,7.42-6.05,6.17,6.17,0,0,0-4.61-6l-70.23-18.44a18.22,18.22,0,0,1-13.42-20.26L970,989.74a18.24,18.24,0,1,1,36.1,5.24l-9.45,65,54.47,14.3a42.66,42.66,0,0,1-10.76,83.92Z"/><path data-cppathid="10022" fill="#fff" transform="translate(0 0)" d="M1092.58,1158.24a42.65,42.65,0,0,1-10.77-83.91l54.48-14.3-9.45-65a18.24,18.24,0,1,1,36.1-5.24l11.79,81.17a18.22,18.22,0,0,1-13.42,20.26l-70.23,18.44a6.17,6.17,0,0,0-4.61,6,6.17,6.17,0,0,0,7.43,6.05l85.59-17.68a21.58,21.58,0,0,0,16.75-25L1176.5,967.46A42.27,42.27,0,0,0,1155,938l-42.17-22.81a18.24,18.24,0,1,1,17.35-32.08L1172.33,906a78.65,78.65,0,0,1,40.05,55l19.75,111.54c5.71,30.64-14.58,60.85-45.26,67.19l-85.59,17.69A42.89,42.89,0,0,1,1092.58,1158.24Z"/><path data-cppathid="10023" fill="#fff" transform="translate(0 0)" d="M680.66,930.61a79.81,79.81,0,1,1,79.81-79.8A79.89,79.89,0,0,1,680.66,930.61Zm0-123.13A43.33,43.33,0,1,0,724,850.81,43.38,43.38,0,0,0,680.66,807.48Z"/><path data-cppathid="10024" fill="#fff" transform="translate(0 0)" d="M657.72,1165.54a42.73,42.73,0,0,1-8.69-.89L563.43,1147a58.24,58.24,0,0,1-45.26-67.17l19.69-118.5.06-.36A78.65,78.65,0,0,1,578,906l42.18-22.81a18.24,18.24,0,1,1,17.35,32.08L595.33,938a42.32,42.32,0,0,0-21.52,29.43l-19.69,118.47-.06.36a21.57,21.57,0,0,0,16.76,25l85.59,17.69a6.18,6.18,0,0,0,7.43-6v-7.3a6.18,6.18,0,0,0-4.62-6L589,1091.17a18.23,18.23,0,0,1-13.42-20.26l11.79-81.17a18.24,18.24,0,1,1,36.1,5.24L614,1060l54.48,14.3a42.68,42.68,0,0,1,31.82,41.25v7.3a42.67,42.67,0,0,1-42.59,42.66Z"/><path data-cppathid="10025" fill="#fff" transform="translate(0 0)" d="M709.91,1165.54a42.67,42.67,0,0,1-42.59-42.66v-7.3a42.68,42.68,0,0,1,31.83-41.25l54.48-14.3-9.45-65a18.23,18.23,0,1,1,36.09-5.24l11.79,81.17a18.22,18.22,0,0,1-13.42,20.26l-70.23,18.44a6.17,6.17,0,0,0-4.61,6v7.3a6.17,6.17,0,0,0,7.42,6l85.6-17.69c10-2.07,19.12-19.55,16.75-32.25L793.83,967.46A42.24,42.24,0,0,0,772.3,938l-42.17-22.81a18.24,18.24,0,0,1,17.35-32.08L789.66,906a78.65,78.65,0,0,1,40.05,55l19.75,111.54c2.68,14.38-.24,30.86-8.05,45-8.6,15.62-22.16,26.35-37.21,29.46l-85.59,17.69A42.89,42.89,0,0,1,709.91,1165.54Z"/><path data-cppathid="10026" fill="#fff" transform="translate(0 0)" d="M298,930.61a79.81,79.81,0,1,1,79.81-79.8A79.89,79.89,0,0,1,298,930.61Zm0-123.13a43.33,43.33,0,1,0,43.34,43.33A43.38,43.38,0,0,0,298,807.48Z"/><path data-cppathid="10027" fill="#fff" transform="translate(0 0)" d="M275.05,1158.25a42.74,42.74,0,0,1-8.69-.9l-85.59-17.69a58.22,58.22,0,0,1-45.23-67.36l19.68-111.2A78.72,78.72,0,0,1,195.31,906l42.17-22.81a18.24,18.24,0,1,1,17.36,32.08L212.66,938a42.34,42.34,0,0,0-21.55,29.59l-19.69,111.21A21.62,21.62,0,0,0,188.15,1104l85.59,17.68a6,6,0,0,0,5.15-1.26,6.08,6.08,0,0,0,2.28-4.79,6.18,6.18,0,0,0-4.61-6l-70.24-18.44a18.23,18.23,0,0,1-13.42-20.26l11.79-81.17a18.24,18.24,0,1,1,36.1,5.24l-9.45,65,54.48,14.3a42.66,42.66,0,0,1-10.77,83.92Z"/><path data-cppathid="10028" fill="#fff" transform="translate(0 0)" d="M327.25,1158.24a42.65,42.65,0,0,1-10.77-83.91L371,1060l-9.45-65a18.23,18.23,0,1,1,36.09-5.24l11.79,81.17A18.22,18.22,0,0,1,396,1091.17l-70.24,18.44a6.18,6.18,0,0,0-4.61,6,6.18,6.18,0,0,0,7.43,6.05L414.15,1104a21.57,21.57,0,0,0,16.75-25L411.16,967.46A42.24,42.24,0,0,0,389.63,938l-42.17-22.81a18.24,18.24,0,0,1,17.35-32.08L407,906a78.69,78.69,0,0,1,40.06,55l19.74,111.54c5.71,30.64-14.57,60.85-45.26,67.19l-85.59,17.69A42.8,42.8,0,0,1,327.25,1158.24Z"/><path data-cppathid="10029" fill="#fff" transform="translate(0 0)" d="M1281.87,1105.82h-65a18.24,18.24,0,1,1,0-36.47h65a18.24,18.24,0,0,1,0,36.47Z"/><path data-cppathid="10030" fill="#fff" transform="translate(0 0)" d="M912.66,1105.82H834.4a18.24,18.24,0,0,1,0-36.47h78.26a18.24,18.24,0,0,1,0,36.47Z"/><path data-cppathid="10031" fill="#fff" transform="translate(0 0)" d="M530.84,1105.82h-76a18.24,18.24,0,1,1,0-36.47h76a18.24,18.24,0,1,1,0,36.47Z"/><path data-cppathid="10032" fill="#fff" transform="translate(0 0)" d="M147.1,1105.82H88.34a18.24,18.24,0,0,1,0-36.47H147.1a18.24,18.24,0,0,1,0,36.47Z"/><path data-cppathid="10033" fill="#fff" transform="translate(0 0)" d="M1144.68,1264.71H989.89a18.24,18.24,0,0,1-17.72-22.54l15.93-65.5a18.24,18.24,0,1,1,35.44,8.62l-10.45,43h108.39l-10.44-43a18.24,18.24,0,0,1,35.44-8.62l15.92,65.5a18.22,18.22,0,0,1-17.72,22.54Z"/><path data-cppathid="10034" fill="#fff" transform="translate(0 0)" d="M373.29,1271.67H218.5a18.24,18.24,0,0,1-17.72-22.55l15.92-65.49a18.24,18.24,0,0,1,35.45,8.62l-10.45,42.94H350.09l-10.45-42.94a18.24,18.24,0,0,1,35.45-8.62L391,1249.12a18.24,18.24,0,0,1-17.72,22.55Z"/><path data-cppathid="10035" fill="#fff" transform="translate(0 0)" d="M680.35,1232.54a18.24,18.24,0,0,1-18.24-18.24V1022.21a18.24,18.24,0,1,1,36.47,0V1214.3A18.24,18.24,0,0,1,680.35,1232.54Z"/><path data-cppathid="10036" fill="#fff" transform="translate(0 0)" d="M732.63,1290.89H628.07a18.24,18.24,0,0,1-18.24-18.23V1214.3a18.24,18.24,0,0,1,18.24-18.24H732.63a18.24,18.24,0,0,1,18.23,18.24v58.36A18.23,18.23,0,0,1,732.63,1290.89Zm-86.32-36.47h68.08v-21.88H646.31Z"/><path data-cppathid="10037" fill="#fff" transform="translate(0 0)" d="M648.15,1050.17a18.24,18.24,0,0,1-9.21-34l58.36-34a18.24,18.24,0,0,1,18.38,31.5l-58.36,34A18.11,18.11,0,0,1,648.15,1050.17Z"/><path data-cppathid="10038" fill="#fff" transform="translate(0 0)" d="M934.57,859.65H815.91a18.24,18.24,0,1,1,0-36.47H934.57a18.24,18.24,0,1,1,0,36.47Z"/><path data-cppathid="10039" fill="#fff" transform="translate(0 0)" d="M1260.06,859.65h-59.19a18.24,18.24,0,0,1,0-36.47h41V136.42H122.13V823.18h48.43a18.24,18.24,0,0,1,0,36.47H103.89a18.23,18.23,0,0,1-18.23-18.24V118.19A18.23,18.23,0,0,1,103.89,100H1260.06a18.24,18.24,0,0,1,18.24,18.24V841.41A18.24,18.24,0,0,1,1260.06,859.65Z"/><path data-cppathid="10040" fill="#fff" transform="translate(0 0)" d="M541.14,859.65H424.81a18.24,18.24,0,1,1,0-36.47H541.14a18.24,18.24,0,1,1,0,36.47Z"/><path data-cppathid="10041" fill="#fff" transform="translate(0 0)" d="M644,275.67H437a18.24,18.24,0,1,1,0-36.47H644a18.24,18.24,0,1,1,0,36.47Z"/><path data-cppathid="10042" fill="#fff" transform="translate(0 0)" d="M371.89,275.67H231.73a18.24,18.24,0,1,1,0-36.47H371.89a18.24,18.24,0,0,1,0,36.47Z"/><path data-cppathid="10043" fill="#fff" transform="translate(0 0)" d="M526.46,382.17H506.21a18.24,18.24,0,1,1,0-36.47h20.25a18.24,18.24,0,1,1,0,36.47Z"/><path data-cppathid="10044" fill="#fff" transform="translate(0 0)" d="M444.06,382.17H231.73a18.24,18.24,0,1,1,0-36.47H444.06a18.24,18.24,0,0,1,0,36.47Z"/><path data-cppathid="10045" fill="#fff" transform="translate(0 0)" d="M599.44,488.67H343.82a18.24,18.24,0,1,1,0-36.47H599.44a18.24,18.24,0,0,1,0,36.47Z"/><path data-cppathid="10046" fill="#fff" transform="translate(0 0)" d="M283.67,488.67H231.73a18.24,18.24,0,1,1,0-36.47h51.94a18.24,18.24,0,1,1,0,36.47Z"/><path data-cppathid="10047" fill="#fff" transform="translate(0 0)" d="M438.54,595.17H231.73a18.24,18.24,0,1,1,0-36.47H438.54a18.24,18.24,0,1,1,0,36.47Z"/><path data-cppathid="10048" fill="#fff" transform="translate(0 0)" d="M553.3,595.17H496.77a18.24,18.24,0,0,1,0-36.47H553.3a18.24,18.24,0,0,1,0,36.47Z"/><path data-cppathid="10049" fill="#fff" transform="translate(0 0)" d="M324.61,701.67H231.73a18.24,18.24,0,1,1,0-36.47h92.88a18.24,18.24,0,1,1,0,36.47Z"/><path data-cppathid="10050" fill="#fff" transform="translate(0 0)" d="M969,633c-111.28,0-201.82-90.53-201.82-201.82S857.76,229.37,969,229.37s201.82,90.54,201.82,201.82S1080.33,633,969,633Zm0-367.17c-91.17,0-165.35,74.18-165.35,165.35S877.87,596.54,969,596.54s165.35-74.18,165.35-165.35S1060.21,265.84,969,265.84Z"/><path data-cppathid="10051" fill="#fff" transform="translate(0 0)" d="M970.26,450.64a18.25,18.25,0,0,1-13.59-6.07L833.09,306.51a18.24,18.24,0,0,1,27.18-24.33L968.94,403.6,1065.26,274a18.23,18.23,0,1,1,29.27,21.75L984.9,443.28a18.24,18.24,0,0,1-13.81,7.34C970.81,450.64,970.53,450.64,970.26,450.64Z"/><path data-cppathid="10052" fill="#fff" transform="translate(0 0)" d="M1150.22,475a18.73,18.73,0,0,1-2.47-.16L967.82,450.48a18.24,18.24,0,1,1,4.88-36.15l179.94,24.32a18.24,18.24,0,0,1-2.42,36.31Z"/></g></g><g id="Check"><g data-name="Capa 2-2" id="Capa_2-2"><path data-cppathid="10053" fill="#00ff0c" transform="translate(0 0)" d="M1030,707.23l-17.13-18.54a40.46,40.46,0,0,0-57.14-2.84c-1,.9-1.94,1.84-2.85,2.84l-370.75,398.6L417.33,908.68a40.35,40.35,0,0,0-57-3h0a39.49,39.49,0,0,0-3,3l-20.85,22.41,242.22,263.07Z"/><path data-cppathid="10054" fill="#03e503" transform="translate(0 0)" d="M1030,707.23,578.9,1194,336.68,930.92l-22.17,23.82a48.51,48.51,0,0,0,0,64.66l237.62,257.23a40.19,40.19,0,0,0,53.39,5.85,42.94,42.94,0,0,0,7.58-6.34l442.6-476.31a48.52,48.52,0,0,0,0-64.67Z"/></g></g><g id="Borde"><rect data-cppathid="10055" stroke-width="11" stroke-miterlimit="10" stroke="#71f3cf" fill="none" rx="146.08" height="1651" width="1359" y="5.5" x="5.61"/></g></svg>