<?xml version="1.0" encoding="UTF-8"?>
<svg xmlns="http://www.w3.org/2000/svg" onmouseup="{ if(window.parent.document.onmouseup) window.parent.document.onmouseup(arguments[0]);}" viewBox="0 0 1370 1662" data-name="Capa 1" id="Capa_1"><g id="TXT"><path data-cppathid="10000" fill="#fff" d="M217.53,1383.44l.12.38q.25,13.61-7.59,21.14t-21.59,7.54q-14.17,0-22.6-9.09t-8.42-25.48v-25.57q0-16.33,8.3-25.51t22.28-9.18q14.11,0,22,7.31t7.66,21.37l-.13.38H205.25q0-9.88-4.31-14.53T188,1327.55q-8.49,0-13.1,6.36t-4.63,18.26v25.76q0,12,4.75,18.42t13.42,6.4q8.35,0,12.53-4.59t4.18-14.72Z"/><path data-cppathid="10001" fill="#fff" d="M227.59,1376.16q0-15.26,7.22-25t19.81-9.75q12.6,0,19.84,9.75t7.25,25v1.71q0,15.32-7.21,25t-19.75,9.66q-12.74,0-19.94-9.66t-7.22-25Zm12.91,1.71q0,11,3.52,17.91t10.73,7q7,0,10.54-7t3.51-17.88v-1.71q0-10.76-3.55-17.82t-10.63-7.06q-7.1,0-10.6,7.06t-3.52,17.82Z"/><path data-cppathid="10002" fill="#fff" d="M305.77,1342.68l.69,9.3a21.35,21.35,0,0,1,7.25-7.82,18.88,18.88,0,0,1,10.22-2.75,16,16,0,0,1,9.88,3.13q4.17,3.14,6.26,9.53a23.4,23.4,0,0,1,7.25-9.31,17.45,17.45,0,0,1,10.67-3.35,16.24,16.24,0,0,1,14,7.25q5.1,7.24,5.09,22.06v40.45H364.19v-40.52q0-10.7-2.66-15a8.72,8.72,0,0,0-7.91-4.27,9.71,9.71,0,0,0-7.44,3.29,20.24,20.24,0,0,0-4.4,8.68c.05.75.09,1.55.13,2.37s.06,1.66.06,2.5v42.92H329.12v-40.52q0-10.3-2.72-14.78a8.74,8.74,0,0,0-7.91-4.46,11.13,11.13,0,0,0-7.09,2.28,15.07,15.07,0,0,0-4.51,6.34v51.21h-13v-68.49Z"/><path data-cppathid="10003" fill="#fff" d="M405.65,1324.7H392.74v-12.28h12.91Zm0,86.47H392.74v-68.49h12.91Z"/><path data-cppathid="10004" fill="#fff" d="M437.89,1325.65v17h10.7v9.17h-10.7v40.77c0,3.54.54,6.07,1.62,7.56a5,5,0,0,0,4.27,2.25,10.34,10.34,0,0,0,2-.19c.63-.13,1.37-.32,2.21-.57l1.33,8.86a20.37,20.37,0,0,1-8.74,2q-7.4,0-11.52-4.78t-4.11-15.1v-40.77h-9.06v-9.17h9.05v-17Z"/><path data-cppathid="10005" fill="#fff" d="M485,1412.5q-12.8,0-20-9.37t-7.24-24.37v-3q0-15.06,7.21-24.72t18.87-9.65q11.7,0,17.81,8.29t6.07,22.32v7.22H470.54q0,10.52,3.76,17a12.46,12.46,0,0,0,11.55,6.52,22.43,22.43,0,0,0,16.72-6.59l4.17,8a27.17,27.17,0,0,1-9,5.95A32.11,32.11,0,0,1,485,1412.5Zm-1.2-61.22q-5.58,0-8.87,5.16t-4.11,13.64H495v-1.45q0-7.73-2.75-12.54a9.15,9.15,0,0,0-8.51-4.81Zm3.67-37.79h14.75l.19.32-15.32,16.52H476.3Z"/><path data-cppathid="10006" fill="#fff" d="M545.36,1377.74q0-16.46,6-26.39t16.9-9.94a17.45,17.45,0,0,1,8.74,2.18,20.1,20.1,0,0,1,6.64,6.3v-37.47h12.85v98.75h-10.6l-1.33-8.23a20.39,20.39,0,0,1-7,7.12,18.18,18.18,0,0,1-9.44,2.44,19,19,0,0,1-16.8-9.15q-6-9.15-6-24.28Zm12.78,1.33q0,10.77,3.23,17.13t10.06,6.36a11.79,11.79,0,0,0,7.32-2.28,16.41,16.41,0,0,0,4.9-6.46v-33.17a18.12,18.12,0,0,0-4.94-6.74,11,11,0,0,0-7.21-2.5q-6.84,0-10.1,7.31t-3.26,19Z"/><path data-cppathid="10007" fill="#fff" d="M636.32,1412.5q-12.8,0-20-9.37t-7.24-24.37v-3q0-15.06,7.21-24.72t18.86-9.65q11.72,0,17.82,8.29t6.11,22.28v7.22H621.89q0,10.52,3.76,17a12.46,12.46,0,0,0,11.55,6.52,24,24,0,0,0,9.37-1.68,23.76,23.76,0,0,0,7.34-4.91l4.18,8a27.17,27.17,0,0,1-9,6A32,32,0,0,1,636.32,1412.5Zm-1.21-61.22q-5.57,0-8.86,5.16t-4.11,13.64h24.24v-1.45q0-7.73-2.75-12.54A9.18,9.18,0,0,0,635.11,1351.28Z"/><path data-cppathid="10008" fill="#fff" d="M697,1377.74q0-16.46,6-26.39t17-9.94a17.31,17.31,0,0,1,9.4,2.56,20.81,20.81,0,0,1,6.86,7.31l1.21-8.6h10.76v68.61q0,13.17-7,20.35t-19.81,7.19a36.39,36.39,0,0,1-9.34-1.33,37.5,37.5,0,0,1-9-3.61l2.08-9.62a33,33,0,0,0,7.57,3.07,32.17,32.17,0,0,0,8.51,1.11q7.21,0,10.64-4.28t3.41-12.94v-6.77a17.77,17.77,0,0,1-15.44,8,19,19,0,0,1-16.84-9.15q-6-9.15-6-24.28Zm12.91,1.33q0,10.83,3.17,17.16a10.52,10.52,0,0,0,10.06,6.33,12,12,0,0,0,7.31-2.22,15.42,15.42,0,0,0,4.84-6.26V1360.4a16.8,16.8,0,0,0-4.84-6.58,11.21,11.21,0,0,0-7.25-2.41q-6.82,0-10.06,7.31t-3.23,19Z"/><path data-cppathid="10009" fill="#fff" d="M787.67,1412.5q-12.79,0-20-9.37t-7.25-24.37v-3q0-15.06,7.22-24.72t18.86-9.65q11.71,0,17.82,8.29t6.07,22.32v7.22H773.23q0,10.52,3.77,17a12.46,12.46,0,0,0,11.55,6.52,24,24,0,0,0,9.37-1.68,23.76,23.76,0,0,0,7.34-4.91l4.18,8a27.17,27.17,0,0,1-9,5.95A32.11,32.11,0,0,1,787.67,1412.5Zm-1.21-61.22q-5.57,0-8.86,5.16t-4.11,13.64h24.24v-1.45q0-7.73-2.75-12.54A9.18,9.18,0,0,0,786.46,1351.28Z"/><path data-cppathid="10010" fill="#fff" d="M854.45,1393.88a9.15,9.15,0,0,0-2.66-6.67q-2.65-2.7-10.19-6-10.58-4-15.83-8.67a15.38,15.38,0,0,1-5.25-12,17.27,17.27,0,0,1,6.37-13.54q6.36-5.57,16.55-5.57,10.57,0,17,6.11a18.76,18.76,0,0,1,6.2,14.78l-.12.38H854.13a12.79,12.79,0,0,0-2.88-8.39,9.56,9.56,0,0,0-7.82-3.51q-4.93,0-7.69,2.75A8.82,8.82,0,0,0,833,1360a8.12,8.12,0,0,0,2.37,6.17q2.39,2.25,10.16,5.79,10.77,3.8,16.18,8.8a16.36,16.36,0,0,1,5.41,12.53,17.13,17.13,0,0,1-6.55,13.9q-6.55,5.34-17.19,5.35-11.52,0-18.14-6.43a19.18,19.18,0,0,1-6.29-15l.12-.38h12q.24,6.64,3.76,9.59a13.23,13.23,0,0,0,8.77,2.94q5.13,0,8-2.63A8.64,8.64,0,0,0,854.45,1393.88Z"/><path data-cppathid="10011" fill="#fff" d="M895.59,1325.65v17h10.7v9.17h-10.7v40.77c0,3.54.54,6.07,1.62,7.56a5,5,0,0,0,4.27,2.25,10.34,10.34,0,0,0,2-.19c.63-.13,1.37-.32,2.21-.57l1.33,8.86a20.37,20.37,0,0,1-8.74,2q-7.39,0-11.52-4.78t-4.11-15.1v-40.77h-9v-9.17h9v-17Z"/><path data-cppathid="10012" fill="#fff" d="M931.67,1324.7H918.76v-12.28h12.91Zm0,86.47H918.76v-68.49h12.91Z"/><path data-cppathid="10013" fill="#fff" d="M944.78,1376.16q0-15.26,7.21-25t19.82-9.75q12.59,0,19.84,9.75t7.25,25v1.71q0,15.32-7.22,25t-19.79,9.63q-12.72,0-19.94-9.66t-7.21-25Zm12.91,1.71q0,11,3.51,17.91t10.73,7q7,0,10.54-7T986,1377.9v-1.71q0-10.76-3.55-17.82t-10.63-7.06q-7.09,0-10.61,7.06t-3.51,17.82Zm19-64.31h14.75l.19.31-15.32,16.53H965.6Z"/><path data-cppathid="10014" fill="#fff" d="M1022.83,1342.68l.76,10.19a22.91,22.91,0,0,1,7.34-8.45,17.43,17.43,0,0,1,10.06-3q9.12,0,14.21,6.71t5.1,20.89v42.16h-12.85v-42.1q0-9.67-2.69-13.67c-1.79-2.66-4.51-4-8.13-4a12.59,12.59,0,0,0-7.6,2.31,16.14,16.14,0,0,0-5.06,6.36v51.09h-12.92v-68.49Z"/><path data-cppathid="10015" fill="#fff" d="M1101.07,1377.74q0-16.46,6-26.39t16.9-9.94a17.45,17.45,0,0,1,8.74,2.18,20.1,20.1,0,0,1,6.64,6.3v-37.47h12.85v98.75h-10.63l-1.33-8.23a20.39,20.39,0,0,1-7,7.12,18.18,18.18,0,0,1-9.44,2.44,19,19,0,0,1-16.8-9.15q-6-9.15-6-24.28Zm12.78,1.33q0,10.77,3.23,17.13t10.06,6.36a11.79,11.79,0,0,0,7.32-2.28,16.41,16.41,0,0,0,4.9-6.46v-33.17a18.12,18.12,0,0,0-4.94-6.74,11,11,0,0,0-7.21-2.5q-6.84,0-10.1,7.31t-3.26,19Z"/><path data-cppathid="10016" fill="#fff" d="M1192,1412.5q-12.79,0-20-9.37t-7.24-24.37v-3q0-15.06,7.21-24.72t18.87-9.65q11.7,0,17.81,8.29t6.11,22.28v7.22h-37.15q0,10.52,3.76,17a12.46,12.46,0,0,0,11.55,6.52,22.43,22.43,0,0,0,16.72-6.59l4.17,8a27.17,27.17,0,0,1-9,6A32.16,32.16,0,0,1,1192,1412.5Zm-1.2-61.22q-5.58,0-8.87,5.16t-4.11,13.64h24.24v-1.45q0-7.73-2.75-12.54a9.15,9.15,0,0,0-8.51-4.81Z"/><path data-cppathid="10017" fill="#fff" d="M252.53,1533.31q0-16.45,6-26.4t16.91-9.94a17.42,17.42,0,0,1,8.73,2.19,19.75,19.75,0,0,1,6.65,6.3V1468h12.85v98.75H293l-1.33-8.23a20.23,20.23,0,0,1-7,7.12,18.12,18.12,0,0,1-9.43,2.44,19,19,0,0,1-16.81-9.15q-6-9.14-6-24.27Zm12.79,1.33q0,10.75,3.23,17.12t10.06,6.36a11.7,11.7,0,0,0,7.31-2.28,16.41,16.41,0,0,0,4.91-6.45v-33.17a18.12,18.12,0,0,0-4.94-6.74,11,11,0,0,0-7.22-2.5q-6.82,0-10.09,7.31t-3.26,19Z"/><path data-cppathid="10018" fill="#fff" d="M354.32,1566.73c-.55-2.07-1-3.91-1.3-5.54a32.83,32.83,0,0,1-.6-4.84,25.25,25.25,0,0,1-7.19,8.39,16.61,16.61,0,0,1-10.16,3.32q-9.18,0-14.08-5.44t-4.91-14.88q0-9.67,6.81-15.25t19-5.57h10.5v-7q0-6.27-2.78-9.78a10.74,10.74,0,0,0-15.16-.72l-.25.24a11.19,11.19,0,0,0-2.76,7.79l-12.28.06-.12-.38q-.39-8,6.2-14t17.22-6.08q10.19,0,16.52,6t6.33,17.06v31.77a57.29,57.29,0,0,0,.5,7.63,48.11,48.11,0,0,0,1.59,7.31Zm-16.59-8.54a14.48,14.48,0,0,0,9.31-3.26,15.11,15.11,0,0,0,5.31-7.89v-12.15H341.66q-6,0-9.31,3.77a13.15,13.15,0,0,0-3.35,9.08,11.82,11.82,0,0,0,2.28,7.6A7.75,7.75,0,0,0,337.73,1558.19Z"/><path data-cppathid="10019" fill="#fff" d="M396.47,1481.21v17h10.7v9.18h-10.7v40.76c0,3.55.54,6.08,1.62,7.57a5,5,0,0,0,4.27,2.25,11.2,11.2,0,0,0,2-.19c.63-.13,1.37-.32,2.21-.57l1.33,8.86a20.56,20.56,0,0,1-8.73,2q-7.41,0-11.52-4.78t-4.12-15.1v-40.76h-9v-9.18h9v-17Z"/><path data-cppathid="10020" fill="#fff" d="M416.22,1531.73q0-15.26,7.22-25t19.81-9.75q12.6,0,19.85,9.75t7.25,25v1.71q0,15.32-7.22,25t-19.75,9.65q-12.72,0-19.94-9.65t-7.22-25Zm12.92,1.71q0,10.95,3.51,17.91t10.73,7q7,0,10.54-7t3.51-17.88v-1.71q0-10.77-3.54-17.82t-10.64-7.06q-7.08,0-10.6,7.06t-3.51,17.82Z"/><path data-cppathid="10021" fill="#fff" d="M515.1,1549.45a9.16,9.16,0,0,0-2.66-6.68q-2.66-2.68-10.19-6-10.58-4-15.83-8.67a15.41,15.41,0,0,1-5.25-12,17.29,17.29,0,0,1,6.36-13.49q6.36-5.61,16.55-5.61,10.57,0,17,6.11a18.8,18.8,0,0,1,6.21,14.78l-.13.38H514.78a12.77,12.77,0,0,0-2.88-8.38,9.55,9.55,0,0,0-7.82-3.52c-3.29,0-5.86.92-7.69,2.76a8.8,8.8,0,0,0-2.75,6.42,8.07,8.07,0,0,0,2.37,6.17q2.39,2.25,10.16,5.8,10.77,3.8,16.18,8.79a16.38,16.38,0,0,1,5.41,12.54,17.09,17.09,0,0,1-6.55,13.89q-6.56,5.35-17.19,5.35-11.52,0-18.13-6.42a19.28,19.28,0,0,1-6.3-15l.12-.38h12q.26,6.64,3.76,9.59a13.26,13.26,0,0,0,8.77,3q5.13,0,8-2.63A8.66,8.66,0,0,0,515.1,1549.45Z"/><path data-cppathid="10022" fill="#fff" d="M565.8,1533.31q0-16.45,6-26.4t16.9-9.94a17.42,17.42,0,0,1,8.73,2.19,19.75,19.75,0,0,1,6.65,6.3V1468h12.85v98.75H606.31l-1.33-8.23a20.23,20.23,0,0,1-7,7.12,18.12,18.12,0,0,1-9.43,2.44,19,19,0,0,1-16.81-9.15q-6-9.14-6-24.27Zm12.79,1.33q0,10.75,3.23,17.12t10.06,6.36a11.7,11.7,0,0,0,7.31-2.28,16.41,16.41,0,0,0,4.91-6.45v-33.17a18.12,18.12,0,0,0-4.94-6.74,11,11,0,0,0-7.22-2.5q-6.83,0-10.09,7.31t-3.26,19Z"/><path data-cppathid="10023" fill="#fff" d="M656.76,1568.06q-12.78,0-20-9.37t-7.25-24.37v-3q0-15.08,7.22-24.72t18.86-9.66q11.71,0,17.82,8.3t6.11,22.28v7.21H642.33q0,10.51,3.77,17a12.44,12.44,0,0,0,11.55,6.52,22.45,22.45,0,0,0,16.71-6.58l4.18,8a27.31,27.31,0,0,1-9,6A32.15,32.15,0,0,1,656.76,1568.06Zm-1.2-61.21q-5.56,0-8.86,5.16t-4.12,13.64h24.25v-1.46q0-7.71-2.76-12.53a9.14,9.14,0,0,0-8.51-4.81Z"/><path data-cppathid="10024" fill="#fff" d="M778.62,1539l.12.38q.25,13.61-7.59,21.14t-21.59,7.53q-14.17,0-22.6-9.08t-8.42-25.48v-25.57q0-16.34,8.3-25.51t22.28-9.18q14.11,0,22,7.31t7.66,21.36l-.13.38H766.34q0-9.87-4.31-14.53t-12.91-4.65q-8.49,0-13.11,6.36t-4.62,18.27v25.76q0,12,4.75,18.42t13.42,6.39q8.36,0,12.53-4.59t4.18-14.71Z"/><path data-cppathid="10025" fill="#fff" d="M788.68,1531.73q0-15.26,7.22-25t19.81-9.75q12.6,0,19.84,9.75t7.25,25v1.71q0,15.32-7.21,25t-19.7,9.62q-12.74,0-19.94-9.65t-7.22-25Zm12.91,1.71q0,10.95,3.52,17.91t10.73,7q7,0,10.54-7t3.51-17.88v-1.71q0-10.77-3.55-17.82t-10.63-7.06q-7.1,0-10.6,7.06t-3.52,17.82Z"/><path data-cppathid="10026" fill="#fff" d="M852.68,1533.31q0-16.45,6-26.4t16.9-9.94a17.46,17.46,0,0,1,8.74,2.19,19.72,19.72,0,0,1,6.64,6.3V1468h12.85v98.75H893.19l-1.3-8.25a20.23,20.23,0,0,1-7,7.12,18.18,18.18,0,0,1-9.44,2.44,19,19,0,0,1-16.8-9.15q-6-9.14-6-24.27Zm12.78,1.33q0,10.75,3.23,17.12t10.07,6.36a11.76,11.76,0,0,0,7.31-2.28,16.38,16.38,0,0,0,4.9-6.45v-33.17a18.12,18.12,0,0,0-4.94-6.74,11,11,0,0,0-7.21-2.5q-6.84,0-10.1,7.31t-3.26,19Z"/><path data-cppathid="10027" fill="#fff" d="M943.64,1568.06q-12.79,0-20-9.37t-7.24-24.37v-3q0-15.08,7.21-24.72t18.87-9.66q11.7,0,17.81,8.3t6.11,22.28v7.21H929.21q0,10.51,3.76,17a12.44,12.44,0,0,0,11.55,6.52,22.51,22.51,0,0,0,16.72-6.58l4.17,8a27.31,27.31,0,0,1-9,6A32.1,32.1,0,0,1,943.64,1568.06Zm-1.2-61.21q-5.58,0-8.87,5.16t-4.11,13.64H953.7v-1.46q0-7.71-2.75-12.53a9.15,9.15,0,0,0-8.51-4.81Z"/><path data-cppathid="10028" fill="#fff" d="M991.68,1566.73H978.77V1468h12.91Z"/><path data-cppathid="10029" fill="#fff" d="M1031.18,1558.31a10.12,10.12,0,0,0,8-3.67q3.19-3.67,3.19-9.94h11.52l.12.38a21.15,21.15,0,0,1-6.52,16.33,22.43,22.43,0,0,1-16.33,6.65q-12.66,0-19.56-9.65t-6.9-24.66v-2.4q0-14.94,6.9-24.66t19.56-9.72q10.26,0,16.68,6.94t6.24,18l-.13.31H1042.3q0-6.84-3.07-11.11a9.48,9.48,0,0,0-8.07-4.27q-7.22,0-10.41,7t-3.2,17.54v2.4q0,10.77,3.17,17.66T1031.18,1558.31Z"/><path data-cppathid="10030" fill="#fff" d="M1063.46,1531.73q0-15.26,7.22-25t19.81-9.75q12.6,0,19.85,9.75t7.25,25v1.71q0,15.32-7.22,25t-19.75,9.65q-12.72,0-19.94-9.65t-7.22-25Zm12.92,1.71q0,10.95,3.51,17.91t10.73,7q7,0,10.54-7t3.51-17.88v-1.71q0-10.77-3.54-17.82t-10.64-7.06q-7.08,0-10.6,7.06t-3.51,17.82Z"/></g><g id="IMG"><g data-name="Comite gest datos" id="Comite_gest_datos"><path data-cppathid="10031" fill="#fff" d="M310,967.9A108.07,108.07,0,1,1,418.07,859.83,108.06,108.06,0,0,1,310,967.9Zm0-179.67a71.6,71.6,0,1,0,71.6,71.6h0a71.67,71.67,0,0,0-71.6-71.6Z"/><path data-cppathid="10032" fill="#fff" d="M145.8,1237.68a19.56,19.56,0,0,1-2.65-.19,18.24,18.24,0,0,1-15.42-20.68l18-123.62c.26-1.71.53-3.24.82-4.77,11-56.81,61.75-98,120.73-98h86.37c59,0,109.76,41.23,120.73,98.05.3,1.52.56,3,.8,4.6l17.07,118.24a18.24,18.24,0,0,1-36,5.86l-.09-.65-17-118.06c-.14-.91-.33-2-.54-3.07-7.66-39.69-43.38-68.5-84.92-68.5H267.31c-41.53,0-77.25,28.81-84.92,68.5-.21,1.08-.39,2.16-.56,3.26l-18,123.46A18.24,18.24,0,0,1,145.8,1237.68Z"/><path data-cppathid="10033" fill="#fff" d="M688.15,922.59A108.07,108.07,0,1,1,796.22,814.52,108.06,108.06,0,0,1,688.15,922.59Zm0-179.66a71.6,71.6,0,1,0,71.6,71.6h0a71.67,71.67,0,0,0-71.6-71.59Z"/><path data-cppathid="10034" fill="#fff" d="M524,1192.37a18.24,18.24,0,0,1-18.25-18.23,17.94,17.94,0,0,1,.19-2.64l18-123.62c.26-1.7.53-3.23.82-4.76,11-56.82,61.75-98,120.73-98h86.37c59,0,109.75,41.23,120.73,98,.3,1.53.56,3.06.8,4.6L870.43,1166a18.24,18.24,0,0,1-36.1,5.21l-17-118.06c-.14-.91-.33-2-.54-3.08-7.67-39.69-43.38-68.5-84.92-68.5H645.46c-41.54,0-77.25,28.81-84.92,68.5-.21,1.08-.4,2.17-.57,3.26l-18,123.46A18.23,18.23,0,0,1,524,1192.37Z"/><path data-cppathid="10035" fill="#fff" d="M1066.3,969.18a108.07,108.07,0,1,1,108.07-108.07h0A108.19,108.19,0,0,1,1066.3,969.18Zm0-179.66a71.59,71.59,0,1,0,71.6,71.59A71.59,71.59,0,0,0,1066.3,789.52Z"/><path data-cppathid="10036" fill="#fff" d="M902.1,1239A18.23,18.23,0,0,1,884,1218.13l18-123.62c.27-1.7.53-3.23.83-4.76,11-56.82,61.75-98,120.73-98H1110c59,0,109.75,41.23,120.73,98,.3,1.53.56,3.06.8,4.6l17.07,118.25a18.24,18.24,0,0,1-36.1,5.21l-17-118.06c-.14-.91-.33-2-.54-3.08-7.67-39.69-43.38-68.5-84.92-68.5h-86.37c-41.54,0-77.25,28.81-84.92,68.5-.21,1.08-.4,2.17-.57,3.26l-18,123.46A18.24,18.24,0,0,1,902.1,1239Z"/><path data-cppathid="10037" fill="#fff" d="M706.63,503.12a18.31,18.31,0,0,1-17.93-14.81,18.24,18.24,0,0,1-33.81,5.56C648,481.71,626,446.87,607.61,432a128.73,128.73,0,1,1,160.49,1.3c-23.69,18.6-37.4,30.34-43.64,55.33l-.19.73A18.24,18.24,0,0,1,706.63,503.12ZM688.69,239.7a92.26,92.26,0,0,0-58.07,163.93c27.55,22.35,54.88,70.22,56,72.24a18.49,18.49,0,0,1,2,5.57c.07-.34.14-.67.22-1l.18-.72c8.91-35.65,28.16-52.91,56.51-75.16a91.62,91.62,0,0,0,35.36-74.48c-1-48.65-41.31-89.18-90-90.35Z"/><path data-cppathid="10038" fill="#fff" d="M702.24,548.11H675.15a18.24,18.24,0,0,1,0-36.48h27.09a18.24,18.24,0,0,1,0,36.48Z"/><path data-cppathid="10039" fill="#fff" d="M702.24,593.74H675.15a18.24,18.24,0,0,1,0-36.48h27.09a18.24,18.24,0,0,1,0,36.48Z"/><path data-cppathid="10040" fill="#fff" d="M689.37,167.69a18.23,18.23,0,0,1-18.24-18.22h0V121.84A18.24,18.24,0,0,1,707.6,121c0,.29,0,.57,0,.86v27.62A18.23,18.23,0,0,1,689.37,167.69Z"/><path data-cppathid="10041" fill="#fff" d="M504.34,352.71H476.73a18.24,18.24,0,1,1-.85-36.47h28.46a18.24,18.24,0,0,1,.85,36.47C504.91,352.72,504.62,352.72,504.34,352.71Z"/><path data-cppathid="10042" fill="#fff" d="M902,352.71H874.39a18.24,18.24,0,0,1-.85-36.47H902a18.24,18.24,0,1,1,.85,36.47C902.57,352.72,902.28,352.72,902,352.71Z"/><path data-cppathid="10043" fill="#fff" d="M558.54,221.88a18.16,18.16,0,0,1-12.9-5.34L526.11,197a18.24,18.24,0,0,1,25.8-25.8l19.52,19.53a18.24,18.24,0,0,1-12.89,31.13Z"/><path data-cppathid="10044" fill="#fff" d="M820.2,221.88a18.24,18.24,0,0,1-12.9-31.13l19.53-19.53a18.24,18.24,0,0,1,26.52,25.05l-.73.73-19.53,19.54A18.18,18.18,0,0,1,820.2,221.88Z"/><path data-cppathid="10045" fill="#fff" d="M355.51,555a18.15,18.15,0,0,1-9.41-2.63c-10.8-6.51-43.37-24.16-64.28-27.76a118.44,118.44,0,1,1,129.34-71.22c-10.34,24.88-15.9,40-9.89,62l.18.68a18.23,18.23,0,0,1-27.7,20,18.25,18.25,0,0,1-17.51,19l-.73,0ZM301.22,326.16a80.34,80.34,0,0,0-37.74,9.32A82,82,0,0,0,288,488.69c32,5.51,75.14,31.39,77,32.49l.17.1c-7.86-33.19,2.41-57.92,12.36-81.86a81.42,81.42,0,0,0-5-73.06C357.39,340.72,329.56,326.16,301.22,326.16Z"/><path data-cppathid="10046" fill="#fff" d="M379,588.67A18.24,18.24,0,0,1,370,554.53l21.42-12a18.23,18.23,0,1,1,17.85,31.8l-21.42,12A18.18,18.18,0,0,1,379,588.67Z"/><path data-cppathid="10047" fill="#fff" d="M399.22,624.76a18.25,18.25,0,0,1-9-34.15l21.42-12a18.24,18.24,0,0,1,17.86,31.81l-21.42,12A18.18,18.18,0,0,1,399.22,624.76Z"/><path data-cppathid="10048" fill="#fff" d="M221.37,281.54a18.22,18.22,0,0,1-15.92-9.31l-12.26-21.84a18.24,18.24,0,0,1,31.55-18.32c.09.15.17.31.26.47l12.26,21.84a18.23,18.23,0,0,1-15.89,27.16Z"/><path data-cppathid="10049" fill="#fff" d="M135.34,522.23a18.25,18.25,0,0,1-9-34.15l21.84-12.25a18.23,18.23,0,0,1,17.85,31.8l-21.83,12.26A18.18,18.18,0,0,1,135.34,522.23Z"/><path data-cppathid="10050" fill="#fff" d="M142,382.46a18.34,18.34,0,0,1-4.94-.68L112.89,375a18.24,18.24,0,0,1,9.87-35.12l24.13,6.79A18.24,18.24,0,0,1,142,382.46Z"/><path data-cppathid="10051" fill="#fff" d="M348.89,266.34a18.28,18.28,0,0,1-17.57-23.18l6.78-24.11a18.24,18.24,0,1,1,35.33,9.09c-.07.26-.14.52-.22.78L366.42,253A18.25,18.25,0,0,1,348.89,266.34Z"/><path data-cppathid="10052" fill="#fff" d="M1014.49,555a18.26,18.26,0,0,1-18.26-18.24c0-.26,0-.51,0-.76a18.24,18.24,0,0,1-27.7-20l.18-.65c6-22,.44-37.11-9.89-62a118.41,118.41,0,1,1,129.33,71.22c-20.91,3.6-53.49,21.26-64.28,27.76A18.13,18.13,0,0,1,1014.49,555Zm54.28-228.87c-28.34,0-56.17,14.56-71.24,40.2a81.42,81.42,0,0,0-5,73.06c9.94,23.93,20.21,48.65,12.35,81.87l.17-.11c1.82-1.1,45-27,77-32.49a82,82,0,0,0,24.51-153.21,80.27,80.27,0,0,0-37.79-9.29Z"/><path data-cppathid="10053" fill="#fff" d="M991,588.67a18.17,18.17,0,0,1-8.91-2.33l-21.42-12a18.23,18.23,0,0,1,17.85-31.8h0l21.42,12A18.24,18.24,0,0,1,991,588.68Z"/><path data-cppathid="10054" fill="#fff" d="M970.78,624.76a18.08,18.08,0,0,1-8.91-2.34l-21.43-12a18.24,18.24,0,0,1,17.86-31.81l21.42,12a18.25,18.25,0,0,1-8.94,34.15Z"/><path data-cppathid="10055" fill="#fff" d="M1148.62,281.54a18.23,18.23,0,0,1-15.88-27.16L1145,232.54a18.24,18.24,0,0,1,31.81,17.85l-12.26,21.84A18.22,18.22,0,0,1,1148.62,281.54Z"/><path data-cppathid="10056" fill="#fff" d="M1234.65,522.23a18.18,18.18,0,0,1-8.91-2.34l-21.85-12.26a18.23,18.23,0,0,1,17.85-31.8l21.84,12.25a18.25,18.25,0,0,1-9,34.15Z"/><path data-cppathid="10057" fill="#fff" d="M1228,382.46a18.24,18.24,0,0,1-4.93-35.79l24.11-6.78a18.24,18.24,0,0,1,9.87,35.11L1233,381.77A18.35,18.35,0,0,1,1228,382.46Z"/><path data-cppathid="10058" fill="#fff" d="M1021.12,266.34A18.27,18.27,0,0,1,1003.57,253l-6.77-24.11a18.24,18.24,0,0,1,35.11-9.87l6.78,24.11a18.36,18.36,0,0,1-17.57,23.21Z"/></g></g><g id="Check"><g data-name="Capa 2-2" id="Capa_2-2"><path data-cppathid="10059" fill="#00ff0c" d="M1029.89,707.23l-17.13-18.54a40.53,40.53,0,0,0-60,0L582,1087.29,417.22,908.68a40.34,40.34,0,0,0-57-3h0q-1.58,1.43-3,3l-20.85,22.41,242.22,263.07Z"/><path data-cppathid="10060" fill="#03e503" d="M1029.89,707.23,578.79,1194,336.57,930.92,314.4,954.74a48.51,48.51,0,0,0,0,64.66L552,1276.63a40.19,40.19,0,0,0,53.39,5.85,42.59,42.59,0,0,0,7.58-6.34l442.6-476.31a48.52,48.52,0,0,0,0-64.67Z"/></g></g><g id="Borde"><rect data-cppathid="10061" stroke-width="11" stroke-miterlimit="10" stroke="#71f3cf" fill="none" rx="146.08" height="1651" width="1359" y="5.5" x="5.5"/></g></svg>