<?xml version="1.0" encoding="UTF-8"?>
<svg xmlns="http://www.w3.org/2000/svg" onmouseup="{ if(window.parent.document.onmouseup) window.parent.document.onmouseup(arguments[0]);}" viewBox="0 0 1056.4 986.2" id="over"><g data-name="like icon" id="like_icon"><rect data-cppathid="10000" fill="#333e48" height="986.2" width="1056.4"/><circle data-cppathid="10001" stroke-dasharray="0 30" stroke-width="8" stroke-linejoin="round" stroke-linecap="round" stroke="#00ffd3" fill="none" r="449.9" cy="493.1" cx="528.2"/><path data-cppathid="10002" fill="#f7a800" d="M252.5,564.7H238.2V552.1h14.3Zm0,58.6H238.2V576.7h14.3Z"/><path data-cppathid="10003" fill="#f7a800" d="M306.8,573.8H280.4v20.3h31.4V605H266.2V533.8h45.5v11H280.4v17.9h26.4Z"/><path data-cppathid="10004" fill="#f7a800" d="M347,559.1l13.3-25.2h16.6l-21.1,35.3,22.4,35.9H360.9l-13.7-25.6-13.7,25.7H316.8l21.6-35.9L317.3,534h16.5Z"/><path data-cppathid="10005" fill="#f7a800" d="M437.6,581.5l.1.3c.1,7.6-2.2,13.5-6.9,17.8s-11.3,6.5-19.7,6.5-15.4-2.7-20.7-8.2-7.9-12.6-7.9-21.3V562.4c0-8.7,2.6-15.8,7.7-21.3s11.8-8.3,20.1-8.3c8.7,0,15.4,2.1,20.3,6.3s7.3,10.2,7.1,17.9l-.1.3H423.7q0-6.9-3.3-10.2t-10.2-3.3a11.5,11.5,0,0,0-10,5.2c-2.4,3.4-3.6,7.9-3.6,13.3v14.2c0,5.5,1.3,9.9,3.8,13.4a12.49,12.49,0,0,0,10.5,5.2q6.45,0,9.6-3.3c2.1-2.2,3.1-5.7,3.1-10.3Z"/><path data-cppathid="10006" fill="#f7a800" d="M488.6,573.8H462.2v20.3h31.4V605H448V533.8h45.5v11H462.2v17.9h26.4Z"/><path data-cppathid="10007" fill="#f7a800" d="M517.9,594.1h31.9V605H503.7V533.8H518v60.3Z"/><path data-cppathid="10008" fill="#f7a800" d="M599.9,573.8H573.5v20.3h31.4V605H559.2V533.8h45.5v11H573.5v17.9h26.4Z"/><path data-cppathid="10009" fill="#f7a800" d="M672.4,605H658.2l-28.7-48-.3.1V605H614.9V533.8h14.3l28.7,47.9h.3V533.8h14.3Z"/><path data-cppathid="10010" fill="#f7a800" d="M733.7,544.9H713.4V605H699.1V544.8h-20v-11h54.6Z"/><path data-cppathid="10011" fill="#f7a800" d="M782.2,573.8H755.8v20.3h31.4V605H741.5V533.8H787v11H755.7v17.9h26.4v11.1Z"/><path data-cppathid="10012" fill="#f7a800" d="M811.5,580.5H797.2V533.9h14.3Zm0,24.6H797.2V592.6h14.3Z"/><path data-cppathid="10013" fill="#fff" d="M270.2,643H257.3l-2.9,7.9h-1.1l9.8-26.3h1.2l9.9,26.3h-1.1Zm-12.5-1h12.1l-5.5-14.7-.5-1.5h-.1l-.5,1.5Z"/><path data-cppathid="10014" fill="#fff" d="M278.9,635.3a7.91,7.91,0,0,1,2.7-3.3,8.21,8.21,0,0,1,4.3-1.2,5.58,5.58,0,0,1,4.6,1.9c1.1,1.3,1.6,3.3,1.6,6.1v11.9h-1V638.8c0-2.6-.5-4.4-1.4-5.4a5.07,5.07,0,0,0-3.8-1.6,6.55,6.55,0,0,0-4.8,1.8,8.93,8.93,0,0,0-2.2,4.7v12.4h-1v-10h0V622.6h1Z"/><path data-cppathid="10015" fill="#fff" d="M296.6,640.7a10.64,10.64,0,0,1,2.4-7,8.28,8.28,0,0,1,11.8-.5l.5.5a10.64,10.64,0,0,1,2.4,7v.8a9.82,9.82,0,0,1-2.4,7,8.35,8.35,0,0,1-12.3,0,10.64,10.64,0,0,1-2.4-7Zm1,.7a9.16,9.16,0,0,0,2.1,6.2,6.55,6.55,0,0,0,5.5,2.5,6.63,6.63,0,0,0,5.5-2.6,10.09,10.09,0,0,0,2.1-6.2v-.8a9.51,9.51,0,0,0-2.1-6.2,7.24,7.24,0,0,0-10.1-.9l-.9.9a10.09,10.09,0,0,0-2.1,6.2Z"/><path data-cppathid="10016" fill="#fff" d="M327.1,632l-1.3-.1a5.88,5.88,0,0,0-4.3,1.7,8.2,8.2,0,0,0-2.1,4.5v12.8h-1V631.3h.8l.2,3.4v.7a7.84,7.84,0,0,1,2.4-3.3,7.21,7.21,0,0,1,4-1.2,2.2,2.2,0,0,1,.8.1c.2,0,.4.1.6.1Z"/><path data-cppathid="10017" fill="#fff" d="M343.1,647.2a7.62,7.62,0,0,1-3,2.9,9.29,9.29,0,0,1-4.9,1.1,6.13,6.13,0,0,1-4.3-1.5,5,5,0,0,1-1.5-4,4.87,4.87,0,0,1,2.3-4.1,9.87,9.87,0,0,1,5.8-1.7h5.6v-2.8a4.73,4.73,0,0,0-1.6-3.8,6.45,6.45,0,0,0-4.4-1.4,6.82,6.82,0,0,0-4.3,1.3,3.94,3.94,0,0,0-1.6,3.3h-.8v-.1a4.68,4.68,0,0,1,1.8-3.9,8.61,8.61,0,0,1,10,0,5.71,5.71,0,0,1,1.9,4.6v9.8a13.4,13.4,0,0,0,.1,2,10.62,10.62,0,0,0,.4,1.9h-1.1c-.1-.9-.3-1.5-.3-1.9a6.6,6.6,0,0,1-.1-1.4Zm-7.9,3a8.61,8.61,0,0,0,4.9-1.3,7.76,7.76,0,0,0,3-3.7v-4.4h-5.5a8.39,8.39,0,0,0-5.1,1.4,4.12,4.12,0,0,0-2.1,3.5,4.22,4.22,0,0,0,1.3,3.2,4.52,4.52,0,0,0,3.5,1.3Z"/><path data-cppathid="10018" fill="#fff" d="M371.2,646a3.72,3.72,0,0,0-1.3-2.8,9.56,9.56,0,0,0-4.6-2,13.74,13.74,0,0,1-5.1-1.9,3.93,3.93,0,0,1-1.6-3.5,4.36,4.36,0,0,1,1.8-3.5,7.52,7.52,0,0,1,4.8-1.4,7.85,7.85,0,0,1,5.1,1.5,4.87,4.87,0,0,1,1.8,4v.1h-.8a4.22,4.22,0,0,0-1.6-3.3,6.37,6.37,0,0,0-4.4-1.3,6,6,0,0,0-4.1,1.2,3.32,3.32,0,0,0-1.4,2.7,3.22,3.22,0,0,0,1.2,2.6,11.39,11.39,0,0,0,4.7,1.9,11.64,11.64,0,0,1,5,2.1,4.71,4.71,0,0,1-.2,7.4,8.1,8.1,0,0,1-5,1.4,8.7,8.7,0,0,1-5.4-1.5,4.1,4.1,0,0,1-1.8-3.7v-.1h.8a3.71,3.71,0,0,0,2,3.3,9.2,9.2,0,0,0,4.4,1,6.64,6.64,0,0,0,4.3-1.3A3.7,3.7,0,0,0,371.2,646Z"/><path data-cppathid="10019" fill="#fff" d="M381.4,623.4h1.4v.1l-4.2,4.7h-1.2v-.1Zm-2.6,27.4h-1V631.2h1Z"/><path data-cppathid="10020" fill="#fff" d="M400.7,651.2a7.61,7.61,0,0,1-5.8-2.7,10,10,0,0,1-2.4-6.8v-1.2a10.14,10.14,0,0,1,2.4-7,7.2,7.2,0,0,1,5.9-2.7,6.65,6.65,0,0,1,5.2,2.1,8.15,8.15,0,0,1,1.9,5.8v1.5H393.5v1.4a8.73,8.73,0,0,0,2,6,6.3,6.3,0,0,0,5.2,2.4,8,8,0,0,0,3.4-.7,7.82,7.82,0,0,0,2.6-1.7l.5.8a8.32,8.32,0,0,1-2.6,1.9A8,8,0,0,1,400.7,651.2Zm.1-19.3a6.37,6.37,0,0,0-5,2.1,8.94,8.94,0,0,0-2.2,5.3l.1.1H407v-.6a7.5,7.5,0,0,0-1.6-5A6,6,0,0,0,400.8,631.9Z"/><path data-cppathid="10021" fill="#fff" d="M424.6,646a3.72,3.72,0,0,0-1.3-2.8,9.56,9.56,0,0,0-4.6-2,13.74,13.74,0,0,1-5.1-1.9,3.93,3.93,0,0,1-1.6-3.5,4.36,4.36,0,0,1,1.8-3.5,7.52,7.52,0,0,1,4.8-1.4,7.85,7.85,0,0,1,5.1,1.5,4.87,4.87,0,0,1,1.8,4v.1h-.8a4.22,4.22,0,0,0-1.6-3.3,6.37,6.37,0,0,0-4.4-1.3,6,6,0,0,0-4.1,1.2,3.32,3.32,0,0,0-1.4,2.7,3.37,3.37,0,0,0,1.2,2.6,11.39,11.39,0,0,0,4.7,1.9,11.64,11.64,0,0,1,5,2.1,4.71,4.71,0,0,1-.2,7.4,8.1,8.1,0,0,1-5,1.4,8.7,8.7,0,0,1-5.4-1.5,4.1,4.1,0,0,1-1.8-3.7v-.1h.8a3.71,3.71,0,0,0,2,3.3,9.2,9.2,0,0,0,4.4,1,6.64,6.64,0,0,0,4.3-1.3A4,4,0,0,0,424.6,646Z"/><path data-cppathid="10022" fill="#fff" d="M433,626v5.3h4.8v1H433v13.5a5.73,5.73,0,0,0,.8,3.4,2.51,2.51,0,0,0,2.1,1h.9l1-.1.2.9a2.92,2.92,0,0,1-.9.2H436a3.51,3.51,0,0,1-3-1.3,6.61,6.61,0,0,1-1-4.1V632.3h-3.6v-1H432V626Z"/><path data-cppathid="10023" fill="#fff" d="M454.7,647.2a8.34,8.34,0,0,1-3,2.9,9.29,9.29,0,0,1-4.9,1.1,6.13,6.13,0,0,1-4.3-1.5,5,5,0,0,1-1.5-4,4.87,4.87,0,0,1,2.3-4.1,9.87,9.87,0,0,1,5.8-1.7h5.6v-2.8a4.73,4.73,0,0,0-1.6-3.8,6.3,6.3,0,0,0-4.4-1.4,6.82,6.82,0,0,0-4.3,1.3,3.94,3.94,0,0,0-1.6,3.3H442v-.1a4.68,4.68,0,0,1,1.8-3.9,8.61,8.61,0,0,1,10,0,5.75,5.75,0,0,1,1.8,4.6v9.8a13.4,13.4,0,0,0,.1,2,10.62,10.62,0,0,0,.4,1.9H455a9.91,9.91,0,0,1-.3-1.9,6.6,6.6,0,0,1-.1-1.4Zm-7.8,3a8.61,8.61,0,0,0,4.9-1.3,7.76,7.76,0,0,0,3-3.7v-4.4h-5.6a8.39,8.39,0,0,0-5.1,1.4,4.12,4.12,0,0,0-2.1,3.5,4.22,4.22,0,0,0,1.3,3.2,4.74,4.74,0,0,0,3.6,1.3Z"/><path data-cppathid="10024" fill="#fff" d="M462.7,631.3l.1,3.9a7.19,7.19,0,0,1,2.5-3.2,6.4,6.4,0,0,1,4-1.1,6.1,6.1,0,0,1,4.1,1.3,6.68,6.68,0,0,1,2.2,3.9,7.09,7.09,0,0,1,7-5.2,6,6,0,0,1,4.9,2.1c1.1,1.4,1.7,3.6,1.7,6.7v11.2h-1V639.7q0-4.2-1.5-6a5.18,5.18,0,0,0-4-1.8,5.75,5.75,0,0,0-4.6,1.8,8.7,8.7,0,0,0-2,4.6v12.6h-1v-10H475v-1.4c0-2.8-.6-4.7-1.6-5.9a5.09,5.09,0,0,0-4-1.7,5.8,5.8,0,0,0-4.5,1.7,8.39,8.39,0,0,0-2,4.5v12.7h-1v-10h0v-9.5Z"/><path data-cppathid="10025" fill="#fff" d="M493.6,640.7a10.14,10.14,0,0,1,2.4-7,8.28,8.28,0,0,1,11.8-.5l.5.5a10.64,10.64,0,0,1,2.4,7v.8a9.82,9.82,0,0,1-2.4,7,8.37,8.37,0,0,1-11.8.6l-.6-.6a10.64,10.64,0,0,1-2.4-7Zm1,.7a9.16,9.16,0,0,0,2.1,6.2,6.55,6.55,0,0,0,5.5,2.5,6.63,6.63,0,0,0,5.5-2.6,10.09,10.09,0,0,0,2.1-6.2v-.8a9.51,9.51,0,0,0-2.1-6.2,7.23,7.23,0,0,0-10.1-.9l-.9.9a9.89,9.89,0,0,0-2.1,6.2Z"/><path data-cppathid="10026" fill="#fff" d="M527.4,646a3.72,3.72,0,0,0-1.3-2.8,9.56,9.56,0,0,0-4.6-2,12.68,12.68,0,0,1-5-1.9,3.93,3.93,0,0,1-1.6-3.5,4.36,4.36,0,0,1,1.8-3.5,7.52,7.52,0,0,1,4.8-1.4,7.85,7.85,0,0,1,5.1,1.5,4.87,4.87,0,0,1,1.8,4v.1h-.8a4.22,4.22,0,0,0-1.6-3.3,6.37,6.37,0,0,0-4.4-1.3,6.29,6.29,0,0,0-4.2,1.2,3.32,3.32,0,0,0-1.4,2.7,3.22,3.22,0,0,0,1.2,2.6,11.39,11.39,0,0,0,4.7,1.9,11.64,11.64,0,0,1,5,2.1,4.71,4.71,0,0,1-.2,7.4,8.1,8.1,0,0,1-5,1.4,8.7,8.7,0,0,1-5.4-1.5,4.1,4.1,0,0,1-1.8-3.7v-.1h.8a3.71,3.71,0,0,0,2,3.3,9.2,9.2,0,0,0,4.4,1,6.64,6.64,0,0,0,4.3-1.3A3.7,3.7,0,0,0,527.4,646Z"/><path data-cppathid="10027" fill="#fff" d="M543.9,650.8h-1V622.6h1Z"/><path data-cppathid="10028" fill="#fff" d="M551.5,625.1h-1v-2.5h1Zm0,25.7h-1V631.2h1Z"/><path data-cppathid="10029" fill="#fff" d="M570,646a3.72,3.72,0,0,0-1.3-2.8,9.56,9.56,0,0,0-4.6-2,13.74,13.74,0,0,1-5.1-1.9,3.93,3.93,0,0,1-1.6-3.5,4.36,4.36,0,0,1,1.8-3.5,7.52,7.52,0,0,1,4.8-1.4,7.85,7.85,0,0,1,5.1,1.5,4.87,4.87,0,0,1,1.8,4v.1h-.8a4.22,4.22,0,0,0-1.6-3.3,6.37,6.37,0,0,0-4.4-1.3,6.45,6.45,0,0,0-4.2,1.2,3.32,3.32,0,0,0-1.4,2.7,3.22,3.22,0,0,0,1.2,2.6,11.39,11.39,0,0,0,4.7,1.9,11.64,11.64,0,0,1,5,2.1,4.71,4.71,0,0,1-.2,7.4,8.1,8.1,0,0,1-5,1.4,8.7,8.7,0,0,1-5.4-1.5A4.1,4.1,0,0,1,557,646v-.1h.8a3.71,3.71,0,0,0,2,3.3,9.2,9.2,0,0,0,4.4,1,6.64,6.64,0,0,0,4.3-1.3A4.12,4.12,0,0,0,570,646Z"/><path data-cppathid="10030" fill="#fff" d="M578.4,626v5.3h4.8v1h-4.8v13.5a5.73,5.73,0,0,0,.8,3.4,2.57,2.57,0,0,0,2.2,1h.9l1-.1.2.9a2.92,2.92,0,0,1-.9.2h-1.1a3.51,3.51,0,0,1-3-1.3,6.61,6.61,0,0,1-1-4.1V632.3h-3.6v-1h3.6V626Z"/><path data-cppathid="10031" fill="#fff" d="M586.3,640.7a10.14,10.14,0,0,1,2.4-7,8.28,8.28,0,0,1,11.8-.5l.5.5a10.64,10.64,0,0,1,2.4,7v.8a9.82,9.82,0,0,1-2.4,7,8.28,8.28,0,0,1-11.8.5l-.5-.5a10.64,10.64,0,0,1-2.4-7Zm1,.7a9.16,9.16,0,0,0,2.1,6.2,7.27,7.27,0,0,0,10.2.8,6,6,0,0,0,.8-.8,10.09,10.09,0,0,0,2.1-6.2v-.8a9.51,9.51,0,0,0-2.1-6.2,7.23,7.23,0,0,0-10.1-.9l-.9.9a9.89,9.89,0,0,0-2.1,6.2Z"/><path data-cppathid="10032" fill="#fff" d="M620.1,646a3.72,3.72,0,0,0-1.3-2.8,9.56,9.56,0,0,0-4.6-2,13.74,13.74,0,0,1-5.1-1.9,3.93,3.93,0,0,1-1.6-3.5,4.36,4.36,0,0,1,1.8-3.5,7.52,7.52,0,0,1,4.8-1.4,7.85,7.85,0,0,1,5.1,1.5,4.87,4.87,0,0,1,1.8,4v.1h-.8a4.22,4.22,0,0,0-1.6-3.3,6.37,6.37,0,0,0-4.4-1.3,6.45,6.45,0,0,0-4.2,1.2,3.32,3.32,0,0,0-1.4,2.7,3.22,3.22,0,0,0,1.2,2.6,11.39,11.39,0,0,0,4.7,1.9,11.64,11.64,0,0,1,5,2.1,4.71,4.71,0,0,1-.2,7.4,8.1,8.1,0,0,1-5,1.4,8.7,8.7,0,0,1-5.4-1.5,4.1,4.1,0,0,1-1.8-3.7v-.1h.8a3.71,3.71,0,0,0,2,3.3,9.2,9.2,0,0,0,4.4,1,6.64,6.64,0,0,0,4.3-1.3A3.78,3.78,0,0,0,620.1,646Z"/><path data-cppathid="10033" fill="#fff" d="M650.3,641.4a12.28,12.28,0,0,1-2,7.2,6.33,6.33,0,0,1-5.4,2.6,9,9,0,0,1-4-.9,7.19,7.19,0,0,1-2.7-2.5v10.5h-1V631.1h.8l.2,3.5a6.62,6.62,0,0,1,2.7-2.8,7.92,7.92,0,0,1,4-1,6.29,6.29,0,0,1,5.4,2.7,12.91,12.91,0,0,1,2,7.4Zm-1-.4a12.66,12.66,0,0,0-1.6-6.6,5.27,5.27,0,0,0-4.7-2.5,6,6,0,0,0-4.3,1.4,8.92,8.92,0,0,0-2.3,3.4V646a6.45,6.45,0,0,0,2.4,3,7,7,0,0,0,4.2,1.1,5.19,5.19,0,0,0,4.7-2.4,11.13,11.13,0,0,0,1.6-6.4Z"/><path data-cppathid="10034" fill="#fff" d="M667.9,647.2a7.62,7.62,0,0,1-3,2.9,9.29,9.29,0,0,1-4.9,1.1,6.13,6.13,0,0,1-4.3-1.5,5,5,0,0,1-1.5-4,4.87,4.87,0,0,1,2.3-4.1,9.87,9.87,0,0,1,5.8-1.7h5.6v-2.8a4.73,4.73,0,0,0-1.6-3.8,6.45,6.45,0,0,0-4.4-1.4,6.82,6.82,0,0,0-4.3,1.3,3.94,3.94,0,0,0-1.6,3.3h-.8v-.1a4.68,4.68,0,0,1,1.8-3.9,8.61,8.61,0,0,1,10,0,5.71,5.71,0,0,1,1.9,4.6v9.8a13.4,13.4,0,0,0,.1,2,10.62,10.62,0,0,0,.4,1.9h-1.1a9.91,9.91,0,0,1-.3-1.9,6.6,6.6,0,0,1-.1-1.4Zm-7.9,3a8.61,8.61,0,0,0,4.9-1.3,7.76,7.76,0,0,0,3-3.7v-4.4h-5.5a8.39,8.39,0,0,0-5.1,1.4,4.12,4.12,0,0,0-2.1,3.5,4.22,4.22,0,0,0,1.3,3.2,4.65,4.65,0,0,0,3.5,1.3Z"/><path data-cppathid="10035" fill="#fff" d="M683.8,632l-1.3-.1a5.88,5.88,0,0,0-4.3,1.7,8.2,8.2,0,0,0-2.1,4.5v12.8h-1V631.3h.8l.2,3.4v.7a7.84,7.84,0,0,1,2.4-3.3,7.21,7.21,0,0,1,4-1.2,2.2,2.2,0,0,1,.8.1c.2,0,.4.1.6.1Z"/><path data-cppathid="10036" fill="#fff" d="M699.8,647.2a7.62,7.62,0,0,1-3,2.9,9.29,9.29,0,0,1-4.9,1.1,6.13,6.13,0,0,1-4.3-1.5,5.51,5.51,0,0,1-1.6-4,4.87,4.87,0,0,1,2.3-4.1,9.87,9.87,0,0,1,5.8-1.7h5.6v-2.8a4.73,4.73,0,0,0-1.6-3.8,6.45,6.45,0,0,0-4.4-1.4,6.82,6.82,0,0,0-4.3,1.3,4.22,4.22,0,0,0-1.6,3.3H687v-.1a4.68,4.68,0,0,1,1.8-3.9,8.61,8.61,0,0,1,10,0,5.71,5.71,0,0,1,1.9,4.6v9.8a13.4,13.4,0,0,0,.1,2,10.62,10.62,0,0,0,.4,1.9h-1.1a9.91,9.91,0,0,1-.3-1.9,6.6,6.6,0,0,1-.1-1.4Zm-7.9,3a8.61,8.61,0,0,0,4.9-1.3,7.76,7.76,0,0,0,3-3.7v-4.4h-5.5a8.39,8.39,0,0,0-5.1,1.4,4.12,4.12,0,0,0-2.1,3.5,4.22,4.22,0,0,0,1.3,3.2,4.65,4.65,0,0,0,3.5,1.3Z"/><path data-cppathid="10037" fill="#fff" d="M730.9,641.4a11.78,11.78,0,0,1-2,7.2,6.33,6.33,0,0,1-5.4,2.6,9,9,0,0,1-4-.9,7.19,7.19,0,0,1-2.7-2.5v10.5h-1V631.1h.8l.2,3.5a6.62,6.62,0,0,1,2.7-2.8,7.92,7.92,0,0,1,4-1,6.29,6.29,0,0,1,5.4,2.7,12.91,12.91,0,0,1,2,7.4Zm-1-.4a12.66,12.66,0,0,0-1.6-6.6,5.27,5.27,0,0,0-4.7-2.5,6,6,0,0,0-4.3,1.4,8.92,8.92,0,0,0-2.3,3.4V646a6.45,6.45,0,0,0,2.4,3,7,7,0,0,0,4.2,1.1,5.19,5.19,0,0,0,4.7-2.4,11.13,11.13,0,0,0,1.6-6.4V641Z"/><path data-cppathid="10038" fill="#fff" d="M748.5,647.2a8.34,8.34,0,0,1-3,2.9,9.29,9.29,0,0,1-4.9,1.1,6.13,6.13,0,0,1-4.3-1.5,5,5,0,0,1-1.5-4,4.87,4.87,0,0,1,2.3-4.1,9.87,9.87,0,0,1,5.8-1.7h5.6v-2.8a4.73,4.73,0,0,0-1.6-3.8,6.45,6.45,0,0,0-4.4-1.4,6.56,6.56,0,0,0-4.3,1.2,3.94,3.94,0,0,0-1.6,3.3h-.8v-.1a4.68,4.68,0,0,1,1.8-3.9,8.61,8.61,0,0,1,10,0,5.84,5.84,0,0,1,1.9,4.6v9.8a13.4,13.4,0,0,0,.1,2,10.62,10.62,0,0,0,.4,1.9h-1.1a9.91,9.91,0,0,1-.3-1.9,6.6,6.6,0,0,1-.1-1.4Zm-7.9,3a8.61,8.61,0,0,0,4.9-1.3,7.76,7.76,0,0,0,3-3.7v-4.4H743a8.39,8.39,0,0,0-5.1,1.4,4.12,4.12,0,0,0-2.1,3.5,4.22,4.22,0,0,0,1.3,3.2,4.52,4.52,0,0,0,3.5,1.3Z"/><path data-cppathid="10039" fill="#fff" d="M767.7,646a3.72,3.72,0,0,0-1.3-2.8,9.56,9.56,0,0,0-4.6-2,12.68,12.68,0,0,1-5-1.9,3.93,3.93,0,0,1-1.6-3.5,4.36,4.36,0,0,1,1.8-3.5,7.52,7.52,0,0,1,4.8-1.4,7.85,7.85,0,0,1,5.1,1.5,4.87,4.87,0,0,1,1.8,4v.1h-.8a4.22,4.22,0,0,0-1.6-3.3,6.37,6.37,0,0,0-4.4-1.3,6.29,6.29,0,0,0-4.2,1.2,3.32,3.32,0,0,0-1.4,2.7,3.22,3.22,0,0,0,1.2,2.6,11.39,11.39,0,0,0,4.7,1.9,11.64,11.64,0,0,1,5,2.1,4.71,4.71,0,0,1-.2,7.4,8.1,8.1,0,0,1-5,1.4,8.24,8.24,0,0,1-5.3-1.5,4.1,4.1,0,0,1-1.8-3.7v-.1h.8a3.71,3.71,0,0,0,2,3.3,9.07,9.07,0,0,0,4.3,1,6.64,6.64,0,0,0,4.3-1.3A3.42,3.42,0,0,0,767.7,646Z"/><path data-cppathid="10040" fill="#fff" d="M786.4,647.2a7.62,7.62,0,0,1-3,2.9,9.29,9.29,0,0,1-4.9,1.1,6.13,6.13,0,0,1-4.3-1.5,5.51,5.51,0,0,1-1.6-4,4.87,4.87,0,0,1,2.3-4.1,9.87,9.87,0,0,1,5.8-1.7h5.6v-2.8a4.73,4.73,0,0,0-1.6-3.8,6.45,6.45,0,0,0-4.4-1.4,6.72,6.72,0,0,0-4.3,1.2,4.22,4.22,0,0,0-1.6,3.3h-.8v-.1a4.68,4.68,0,0,1,1.8-3.9,8.61,8.61,0,0,1,10,0,5.71,5.71,0,0,1,1.9,4.6v9.8a13.4,13.4,0,0,0,.1,2,10.62,10.62,0,0,0,.4,1.9h-1.1a9.91,9.91,0,0,1-.3-1.9,6.6,6.6,0,0,1-.1-1.4Zm-7.9,3a8.61,8.61,0,0,0,4.9-1.3,7.76,7.76,0,0,0,3-3.7v-4.4h-5.5a8.39,8.39,0,0,0-5.1,1.4,4.12,4.12,0,0,0-2.1,3.5,4.22,4.22,0,0,0,1.3,3.2,4.8,4.8,0,0,0,3.5,1.3Z"/><path data-cppathid="10041" fill="#fff" d="M802.3,632l-1.3-.1a5.88,5.88,0,0,0-4.3,1.7,8.2,8.2,0,0,0-2.1,4.5v12.8h-1V631.3h.8l.2,3.4v.7a7.84,7.84,0,0,1,2.4-3.3,7.21,7.21,0,0,1,4-1.2,2.2,2.2,0,0,1,.8.1c.2,0,.4.1.6.1Z"/><path data-cppathid="10042" fill="#00ffd3" d="M372.7,697.8c-.2-.5-.4-1.1-.6-1.7a11.63,11.63,0,0,1-.4-1.8,8.42,8.42,0,0,1-2.5,2.8,6.18,6.18,0,0,1-3.7,1.1,7.81,7.81,0,0,1-5.6-1.9,7.27,7.27,0,0,1-2-5.1,5.86,5.86,0,0,1,2.6-5.2,13.29,13.29,0,0,1,7.6-1.9h3.5v-1.8a3.61,3.61,0,0,0-.9-2.6,3.11,3.11,0,0,0-2.6-.9,3.17,3.17,0,0,0-2.3.7,2.17,2.17,0,0,0-.8,2h-6v-.1a5.78,5.78,0,0,1,2.5-5,10.94,10.94,0,0,1,7-2.1,10.12,10.12,0,0,1,6.7,2.1,7.3,7.3,0,0,1,2.6,6v9.5c0,1,.1,2,.2,3a12.9,12.9,0,0,0,.8,2.8Zm-5.7-4.2a6,6,0,0,0,2.9-.8,3.51,3.51,0,0,0,1.7-1.9v-3.2h-3.5a4.06,4.06,0,0,0-3,1,3.1,3.1,0,0,0-1,2.4,2.36,2.36,0,0,0,.8,1.9A3.22,3.22,0,0,0,367,693.6Z"/><path data-cppathid="10043" fill="#00ffd3" d="M389.1,697.8h-6.2V664.7h6.2Z"/><path data-cppathid="10044" fill="#00ffd3" d="M417.4,691.4a2.23,2.23,0,0,0-1-1.8,9.63,9.63,0,0,0-3.7-1.3,14.74,14.74,0,0,1-6.1-2.4,5.22,5.22,0,0,1-2.1-4.4,6.16,6.16,0,0,1,2.5-5,10.12,10.12,0,0,1,6.7-2.1,10.94,10.94,0,0,1,7,2.1,5.89,5.89,0,0,1,2.5,5.2v.1h-6a2.94,2.94,0,0,0-.9-2.2,4,4,0,0,0-4.9-.1,2.14,2.14,0,0,0-.9,1.8,2,2,0,0,0,.9,1.7,11.49,11.49,0,0,0,3.7,1.2,14.42,14.42,0,0,1,6.3,2.5,5.68,5.68,0,0,1,2.1,4.5,6.44,6.44,0,0,1-2.6,5.1,11.67,11.67,0,0,1-7,2,11.35,11.35,0,0,1-7.3-2.3,6.44,6.44,0,0,1-2.5-5.3v-.1h5.7a3.26,3.26,0,0,0,1.2,2.7,4.55,4.55,0,0,0,3,.8,4,4,0,0,0,2.6-.7A2.57,2.57,0,0,0,417.4,691.4Z"/><path data-cppathid="10045" fill="#00ffd3" d="M433.9,669.3h-6.2v-4.7h6.2Zm0,28.5h-6.2v-23h6.2Z"/><path data-cppathid="10046" fill="#00ffd3" d="M438.1,686.5a15.2,15.2,0,0,1,2.4-8.8,7.6,7.6,0,0,1,6.6-3.3,6.65,6.65,0,0,1,3.4.9,7.47,7.47,0,0,1,2.5,2.5l.5-2.9h5.3v22.9a8.6,8.6,0,0,1-2.9,6.9,12.73,12.73,0,0,1-8.2,2.5,15.68,15.68,0,0,1-3.7-.5,15.51,15.51,0,0,1-3.6-1.3l1-4.6a14.19,14.19,0,0,0,2.9,1,12.31,12.31,0,0,0,3.3.3,5.84,5.84,0,0,0,3.8-1.1,4.14,4.14,0,0,0,1.2-3.3v-2.1a7.06,7.06,0,0,1-5.6,2.7,7.79,7.79,0,0,1-6.6-3.1A13.38,13.38,0,0,1,438,687Zm6.2.4a10.12,10.12,0,0,0,1,4.8,3.48,3.48,0,0,0,3.3,1.7,6.44,6.44,0,0,0,2.4-.5,3.86,3.86,0,0,0,1.6-1.5v-10a4.1,4.1,0,0,0-1.6-1.6,4.75,4.75,0,0,0-2.4-.6,3.38,3.38,0,0,0-3.3,2,12.2,12.2,0,0,0-1,5.3Z"/><path data-cppathid="10047" fill="#00ffd3" d="M477.7,694.3a7.25,7.25,0,0,1-6.5,3.8,6.93,6.93,0,0,1-5.7-2.5c-1.4-1.6-2.1-4.2-2-7.7V674.6h6.2V688a7.66,7.66,0,0,0,.8,4.1,2.81,2.81,0,0,0,2.5,1.1,5.34,5.34,0,0,0,2.5-.5,3.91,3.91,0,0,0,1.7-1.4V674.6h6.2v23h-5.1Z"/><path data-cppathid="10048" fill="#00ffd3" d="M494.7,669.3h-6.2v-4.7h6.2Zm0,28.5h-6.2v-23h6.2Z"/><path data-cppathid="10049" fill="#00ffd3" d="M509.7,698.2a10.14,10.14,0,0,1-8-3.2,11.4,11.4,0,0,1-2.9-8.1v-.8a13,13,0,0,1,2.8-8.5,9.8,9.8,0,0,1,7.7-3.3,8.93,8.93,0,0,1,7.1,2.8,11.78,11.78,0,0,1,2.5,7.6v3.2H505.1v.1a5.94,5.94,0,0,0,1.4,3.8,5,5,0,0,0,3.8,1.5,13.42,13.42,0,0,0,3.5-.4,11.37,11.37,0,0,0,3-1.3l1.7,3.8a10.86,10.86,0,0,1-3.7,1.9A14,14,0,0,1,509.7,698.2Zm-.4-19.1a3.33,3.33,0,0,0-2.9,1.3,6.1,6.1,0,0,0-1.2,3.4v.1h7.6v-.5a5.29,5.29,0,0,0-.8-3.2,3.34,3.34,0,0,0-2.7-1.1Z"/><path data-cppathid="10050" fill="#00ffd3" d="M528.2,674.8l.3,3.3a8,8,0,0,1,2.8-2.7,7,7,0,0,1,3.8-1,6.69,6.69,0,0,1,5.4,2.2c1.3,1.5,2,3.9,2,7.1v14.1h-6.3v-14a5.43,5.43,0,0,0-.9-3.5,3.19,3.19,0,0,0-2.6-1,6.44,6.44,0,0,0-2.4.5,3.91,3.91,0,0,0-1.7,1.4v16.6h-6.2v-23Z"/><path data-cppathid="10051" fill="#00ffd3" d="M554.5,669.1v5.6h3.9v4.4h-3.9v11.7a2.21,2.21,0,0,0,.6,1.9,2,2,0,0,0,1.5.6h.8a3.09,3.09,0,0,0,.8-.2l.5,4.5a12.09,12.09,0,0,1-1.8.5,12.25,12.25,0,0,1-1.9.2,6.39,6.39,0,0,1-4.9-1.8c-1.2-1.2-1.7-3-1.7-5.6V679.1H545v-4.4h3.3v-5.6Z"/><path data-cppathid="10052" fill="#00ffd3" d="M572.2,698.2a10.14,10.14,0,0,1-8-3.2,11.4,11.4,0,0,1-2.9-8.1v-.8a13,13,0,0,1,2.8-8.5,9.8,9.8,0,0,1,7.7-3.3,8.93,8.93,0,0,1,7.1,2.8,11.78,11.78,0,0,1,2.5,7.6v3.2H567.7l-.1.1a5.94,5.94,0,0,0,1.4,3.8,5,5,0,0,0,3.8,1.5,13.42,13.42,0,0,0,3.5-.4,11.37,11.37,0,0,0,3-1.3l1.7,3.8a10.86,10.86,0,0,1-3.7,1.9A12.78,12.78,0,0,1,572.2,698.2Zm-.4-19.1a3.33,3.33,0,0,0-2.9,1.3,6.1,6.1,0,0,0-1.2,3.4v.1h7.6v-.5a5.29,5.29,0,0,0-.8-3.2A3.48,3.48,0,0,0,571.8,679.1Z"/><path data-cppathid="10053" fill="#00ffd3" d="M601.5,674.8l.3,3.3a8,8,0,0,1,2.8-2.7,7,7,0,0,1,3.8-1,6.69,6.69,0,0,1,5.4,2.2c1.3,1.5,2,3.9,2,7.1v14.1h-6.2v-14a5.43,5.43,0,0,0-.9-3.5,3.19,3.19,0,0,0-2.6-1,6.44,6.44,0,0,0-2.4.5,3.91,3.91,0,0,0-1.7,1.4v16.6h-6.2v-23Z"/><path data-cppathid="10054" fill="#00ffd3" d="M626.9,669.3h-6.2v-4.7h6.2Zm0,28.5h-6.2v-23h6.2Z"/><path data-cppathid="10055" fill="#00ffd3" d="M640.3,689.2l.4,2.1h.1l.4-2.1,3.8-14.4h6.5l-7.8,23h-5.9l-7.8-23h6.5Z"/><path data-cppathid="10056" fill="#00ffd3" d="M663.9,698.2a10.14,10.14,0,0,1-8-3.2,11.4,11.4,0,0,1-2.9-8.1v-.8a13,13,0,0,1,2.8-8.5,9.8,9.8,0,0,1,7.7-3.3c3.1,0,5.5.9,7.1,2.8a11.78,11.78,0,0,1,2.5,7.6v3.2H659.4l-.1.1a5.94,5.94,0,0,0,1.4,3.8,5,5,0,0,0,3.8,1.5,13.42,13.42,0,0,0,3.5-.4,11.37,11.37,0,0,0,3-1.3l1.7,3.8a10.86,10.86,0,0,1-3.7,1.9A12.48,12.48,0,0,1,663.9,698.2Zm-.4-19.1a3.33,3.33,0,0,0-2.9,1.3,7,7,0,0,0-1.2,3.4v.1H667v-.5a5.29,5.29,0,0,0-.8-3.2,3.48,3.48,0,0,0-2.7-1.1Z"/><path data-cppathid="10057" fill="#00ffd3" d="M683.2,697.8H677V664.7h6.2Z"/><path data-cppathid="10058" fill="#00ffd3" d="M695.2,697.8H689v-5.4h6.2Z"/><path data-cppathid="10059" fill="#0099a8" d="M528.2,155.1h0A162.64,162.64,0,0,0,365.5,317.8h0A162.64,162.64,0,0,0,528.2,480.5h0A162.64,162.64,0,0,0,690.9,317.8h0A162.71,162.71,0,0,0,528.2,155.1Z"/><path data-cppathid="10060" stroke-width="5" stroke-linejoin="round" stroke-linecap="round" stroke="#00ffd3" fill="none" d="M673.9,317.9A145.66,145.66,0,0,1,528.2,463.6h0A145.66,145.66,0,0,1,382.5,317.9h0A145.64,145.64,0,0,1,528.1,172.2h.1c80.5-.1,145.7,65.2,145.7,145.7Z"/><path data-cppathid="10061" fill="#f7a800" d="M464.4,285.5H428.2A12.25,12.25,0,0,0,416,297.7V397.9a12.25,12.25,0,0,0,12.2,12.2h36.1a12.25,12.25,0,0,0,12.2-12.2V297.7A12.16,12.16,0,0,0,464.4,285.5Z"/><path data-cppathid="10062" fill="#fff" d="M623.2,314H621a19.2,19.2,0,1,0,0-38.4H559.3c7.6-12,17.9-31.1,17.9-46.7,0-24.8-13.5-38.5-22.4-40.1s-15.3,3.1-17.9,10.6,2,21.6.2,26.7c-2.7,7.8-16.3,18.2-34.8,41.9-16.5,21.2-14.1,46.2-14.1,46.2v84.3a12,12,0,0,0,12,12H615a13.9,13.9,0,0,0,0-27.8h2a17.1,17.1,0,1,0,0-34.2h6.2a17.25,17.25,0,0,0,0-34.5Z"/></g><path data-cppathid="10063" fill="#00ffd3" d="M399.6,720.3H656.7a38.41,38.41,0,0,1,38.4,38.4h0a38.41,38.41,0,0,1-38.4,38.4H399.6a38.41,38.41,0,0,1-38.4-38.4h0A38.41,38.41,0,0,1,399.6,720.3Z"/><path data-cppathid="10064" fill="#333e48" d="M416.6,754.9h-5.2v-5.1h5.2Zm0,26.3h-5.2V760.4h5.2Z"/><path data-cppathid="10065" fill="#333e48" d="M439.7,765.8H428.6l-2.4,7.3h-5.4l11-31.5h5l10.8,31.5h-5.4Zm-9.7-4.4h8.3l-4-12.4h-.1Z"/><path data-cppathid="10066" fill="#333e48" d="M451.4,773.1V741.7h10.4a13.42,13.42,0,0,1,9.7,3.7,13.12,13.12,0,0,1,3.8,9.6v4.8a12.74,12.74,0,0,1-3.8,9.6,13,13,0,0,1-9.7,3.7Zm5.3-27.2V769h5.1a7.3,7.3,0,0,0,6-2.6,9.77,9.77,0,0,0,2.2-6.6V755a9.51,9.51,0,0,0-2.2-6.5,7.61,7.61,0,0,0-6-2.6Z"/><path data-cppathid="10067" fill="#333e48" d="M498.6,759H486.3v10h14.5v4.1H481V741.7h19.6v4.2H486.2v8.9h12.3V759Z"/><path data-cppathid="10068" fill="#333e48" d="M510.8,769h14.7v4.2h-20V741.8h5.2Z"/><path data-cppathid="10069" fill="#333e48" d="M546.8,765.8H535.7l-2.5,7.3h-5.4l11-31.5h5l10.8,31.5h-5.4Zm-9.7-4.4h8.3l-4-12.4h-.2Z"/><path data-cppathid="10070" fill="#333e48" d="M583.1,773.1h-5.3l-13.9-22.6h-.1v22.6h-5.3V741.7h5.3l13.9,22.7h.1V741.7h5.3Z"/><path data-cppathid="10071" fill="#333e48" d="M611,745.9h-9.7v27.2H596V745.9h-9.6v-4.2H611Z"/><path data-cppathid="10072" fill="#333e48" d="M632.6,759H620.3v10h14.5v4.1H615V741.7h19.6v4.2H620.2v8.9h12.3V759Z"/><path data-cppathid="10073" fill="#333e48" d="M644.8,762.5h-5.2V741.7h5.2Zm0,10.7h-5.2v-5h5.2Z"/></svg>