<?xml version="1.0" encoding="UTF-8"?>
<svg xmlns="http://www.w3.org/2000/svg" onmouseup="{ if(window.parent.document.onmouseup) window.parent.document.onmouseup(arguments[0]);}" viewBox="0 0 1056.41 986.25" id="normal"><defs><style>.cls-1{fill:#333e48;}.cls-2,.cls-8{fill:none;stroke:#00ffd3;stroke-linecap:round;stroke-linejoin:round;}.cls-2{stroke-width:8px;stroke-dasharray:0 30;}.cls-3{isolation:isolate;}.cls-4{fill:#f7a800;}.cls-5{fill:#fff;}.cls-6{fill:#00ffd3;}.cls-7{fill:#0099a8;}.cls-8{stroke-width:5px;}</style></defs><g id="like_icon"><rect data-cppathid="10000" height="986.25" width="1056.41" class="cls-1"/><circle data-cppathid="10001" r="449.94" cy="493.13" cx="528.2" class="cls-2"/><g class="cls-3"><path data-cppathid="10002" transform="translate(16.2 15.13)" d="M236.26,549.6H222V537h14.27Zm0,58.6H222V561.63h14.27Z" class="cls-4"/><path data-cppathid="10003" transform="translate(16.2 15.13)" d="M290.61,558.65H264.22V579h31.37v10.94H250V518.77H295.5v11H264.22v17.89h26.39Z" class="cls-4"/><path data-cppathid="10004" transform="translate(16.2 15.13)" d="M330.78,544l13.34-25.21h16.62l-21.11,35.28L362,589.92H344.71L331,564.27l-13.74,25.65H300.58l21.65-35.87-21.11-35.28h16.51Z" class="cls-4"/><path data-cppathid="10005" transform="translate(16.2 15.13)" d="M421.44,566.37l.1.29q.19,11.39-6.94,17.84T394.9,591q-12.79,0-20.67-8.24t-7.87-21.28V547.31q0-13,7.67-21.29t20.14-8.28q13,0,20.33,6.35T421.63,542l-.09.29H407.66q0-6.84-3.3-10.19t-10.19-3.34a11.53,11.53,0,0,0-10,5.15q-3.59,5.16-3.59,13.32v14.22q0,8.22,3.79,13.39A12.29,12.29,0,0,0,394.9,580q6.41,0,9.56-3.34t3.15-10.29Z" class="cls-4"/><path data-cppathid="10006" transform="translate(16.2 15.13)" d="M472.41,558.65H446V579H477.4v10.94H431.75V518.77H477.3v11H446v17.89h26.39Z" class="cls-4"/><path data-cppathid="10007" transform="translate(16.2 15.13)" d="M501.69,579h31.86v10.94H487.42V518.77h14.27Z" class="cls-4"/><path data-cppathid="10008" transform="translate(16.2 15.13)" d="M583.7,558.65H557.3V579h31.38v10.94H543V518.77h45.55v11H557.3v17.89h26.4Z" class="cls-4"/><path data-cppathid="10009" transform="translate(16.2 15.13)" d="M656.22,589.92H642l-28.69-48L613,542v47.94H598.7V518.77H613l28.69,47.94.29-.05V518.77h14.27Z" class="cls-4"/><path data-cppathid="10010" transform="translate(16.2 15.13)" d="M717.51,529.76H697.18v60.16H682.91V529.76h-20v-11h54.64Z" class="cls-4"/><path data-cppathid="10011" transform="translate(16.2 15.13)" d="M766,558.65H739.6V579H771v10.94H725.33V518.77h45.55v11H739.6v17.89H766Z" class="cls-4"/><path data-cppathid="10012" transform="translate(16.2 15.13)" d="M795.26,565.39H781V518.77h14.27Zm0,24.53H781V577.41h14.27Z" class="cls-4"/></g><g class="cls-3"><g class="cls-3"><path data-cppathid="10013" transform="translate(16.2 15.13)" d="M254,627.84H241.12l-2.94,7.86h-1.07l9.83-26.32h1.2L258,635.7h-1.07Zm-12.49-1h12.13l-5.51-14.73-.51-1.53h-.1l-.49,1.53Z" class="cls-5"/><path data-cppathid="10014" transform="translate(16.2 15.13)" d="M262.69,620.21a7.32,7.32,0,0,1,2.67-3.26,7.52,7.52,0,0,1,4.27-1.17,5.63,5.63,0,0,1,4.63,1.94c1.06,1.29,1.58,3.32,1.58,6.09V635.7h-1V623.77c0-2.56-.47-4.38-1.42-5.43a4.86,4.86,0,0,0-3.79-1.58,6.21,6.21,0,0,0-4.79,1.82,8.78,8.78,0,0,0-2.16,4.69V635.7h-1v-10h0v-.64a4.38,4.38,0,0,1,0-.5v-17h1Z" class="cls-5"/><path data-cppathid="10015" transform="translate(16.2 15.13)" d="M280.43,625.54a10.34,10.34,0,0,1,2.38-7,8.36,8.36,0,0,1,12.36,0,10.29,10.29,0,0,1,2.38,7v.76a10.32,10.32,0,0,1-2.38,7.05,7.76,7.76,0,0,1-6.15,2.73,7.85,7.85,0,0,1-6.2-2.73,10.33,10.33,0,0,1-2.39-7.05Zm1,.76a9.68,9.68,0,0,0,2.06,6.25A6.75,6.75,0,0,0,289,635.1a6.67,6.67,0,0,0,5.49-2.56,9.61,9.61,0,0,0,2.06-6.24v-.76a9.62,9.62,0,0,0-2.07-6.19,7.17,7.17,0,0,0-11,0,9.66,9.66,0,0,0-2.06,6.19Z" class="cls-5"/><path data-cppathid="10016" transform="translate(16.2 15.13)" d="M310.85,616.85l-1.26-.11a5.65,5.65,0,0,0-4.26,1.69,8.26,8.26,0,0,0-2.12,4.46V635.7h-1V616.14h.8l.18,3.4v.67a7.05,7.05,0,0,1,2.42-3.26,6.54,6.54,0,0,1,4-1.17,3.8,3.8,0,0,1,.77.07,5.57,5.57,0,0,1,.6.13Z" class="cls-5"/><path data-cppathid="10017" transform="translate(16.2 15.13)" d="M326.88,632.08a7.57,7.57,0,0,1-3,2.89,9.93,9.93,0,0,1-4.87,1.11,6,6,0,0,1-4.28-1.49,5.31,5.31,0,0,1-1.55-4,4.91,4.91,0,0,1,2.32-4.12,9.71,9.71,0,0,1,5.81-1.67h5.58v-2.85a4.8,4.8,0,0,0-1.56-3.81,6.47,6.47,0,0,0-4.4-1.36,6.68,6.68,0,0,0-4.27,1.28,4,4,0,0,0-1.62,3.31l-.82,0,0-.09a4.59,4.59,0,0,1,1.77-3.86,7.48,7.48,0,0,1,5-1.58,7.57,7.57,0,0,1,5,1.59,5.64,5.64,0,0,1,1.9,4.59v9.8a16.45,16.45,0,0,0,.12,2,12.94,12.94,0,0,0,.39,1.93h-1.09c-.15-.86-.26-1.5-.31-1.92a10,10,0,0,1-.09-1.39Zm-7.88,3a9,9,0,0,0,4.93-1.28,7.44,7.44,0,0,0,2.95-3.67v-4.39h-5.53a9,9,0,0,0-5.12,1.4,4.1,4.1,0,0,0-2.09,3.46,4.25,4.25,0,0,0,1.33,3.23A5,5,0,0,0,319,635.12Z" class="cls-5"/><path data-cppathid="10018" transform="translate(16.2 15.13)" d="M355,630.91a3.84,3.84,0,0,0-1.33-2.83,9.85,9.85,0,0,0-4.63-2,13.33,13.33,0,0,1-5.06-1.9,4,4,0,0,1-1.56-3.46,4.35,4.35,0,0,1,1.77-3.52,7.45,7.45,0,0,1,4.77-1.42,7.85,7.85,0,0,1,5.1,1.52,4.63,4.63,0,0,1,1.77,4l0,.11H355a4.1,4.1,0,0,0-1.61-3.26,6.64,6.64,0,0,0-4.39-1.35,6.3,6.3,0,0,0-4.15,1.18,3.5,3.5,0,0,0-1.41,2.74,3.38,3.38,0,0,0,1.19,2.62,11.19,11.19,0,0,0,4.73,1.9,13,13,0,0,1,5,2.07,4.38,4.38,0,0,1,1.69,3.66,4.46,4.46,0,0,1-1.88,3.72,8.08,8.08,0,0,1-5,1.43,8.44,8.44,0,0,1-5.36-1.53,4.24,4.24,0,0,1-1.82-3.71l0-.11h.79a3.83,3.83,0,0,0,2,3.34,8.76,8.76,0,0,0,4.36,1,6.73,6.73,0,0,0,4.3-1.26A3.68,3.68,0,0,0,355,630.91Z" class="cls-5"/><path data-cppathid="10019" transform="translate(16.2 15.13)" d="M365.22,608.25h1.41l0,.09-4.18,4.71h-1.21l0-.09Zm-2.66,27.45h-1V616.14h1Z" class="cls-5"/><path data-cppathid="10020" transform="translate(16.2 15.13)" d="M384.47,636.08a7.5,7.5,0,0,1-5.83-2.67,9.83,9.83,0,0,1-2.38-6.75v-1.15a10.34,10.34,0,0,1,2.36-7,7.52,7.52,0,0,1,5.94-2.74,6.68,6.68,0,0,1,5.19,2.14,8.41,8.41,0,0,1,1.93,5.85v1.5H377.24v1.39a9.06,9.06,0,0,0,2,6,6.48,6.48,0,0,0,5.21,2.43,8.83,8.83,0,0,0,3.37-.65,7.22,7.22,0,0,0,2.63-1.73l.52.76a7.84,7.84,0,0,1-2.65,1.87A9.38,9.38,0,0,1,384.47,636.08Zm.09-19.32a6.47,6.47,0,0,0-5,2.1,8.59,8.59,0,0,0-2.2,5.33l.06.11H390.7v-.6a7.47,7.47,0,0,0-1.64-5A5.56,5.56,0,0,0,384.56,616.76Z" class="cls-5"/><path data-cppathid="10021" transform="translate(16.2 15.13)" d="M408.38,630.91a3.84,3.84,0,0,0-1.33-2.83,9.85,9.85,0,0,0-4.63-2,13.33,13.33,0,0,1-5.06-1.9,4,4,0,0,1-1.56-3.46,4.35,4.35,0,0,1,1.77-3.52,7.45,7.45,0,0,1,4.77-1.42,7.85,7.85,0,0,1,5.1,1.52,4.63,4.63,0,0,1,1.77,4l0,.11h-.84a4.1,4.1,0,0,0-1.61-3.26,6.64,6.64,0,0,0-4.39-1.35,6.3,6.3,0,0,0-4.15,1.18,3.5,3.5,0,0,0-1.41,2.74A3.38,3.38,0,0,0,398,623.3a11.24,11.24,0,0,0,4.74,1.9,13,13,0,0,1,5,2.07,4.38,4.38,0,0,1,1.69,3.66,4.46,4.46,0,0,1-1.88,3.72,8.08,8.08,0,0,1-5,1.43,8.44,8.44,0,0,1-5.36-1.53,4.24,4.24,0,0,1-1.82-3.71l0-.11h.79a3.83,3.83,0,0,0,2,3.34,8.76,8.76,0,0,0,4.36,1,6.73,6.73,0,0,0,4.3-1.26A3.68,3.68,0,0,0,408.38,630.91Z" class="cls-5"/><path data-cppathid="10022" transform="translate(16.2 15.13)" d="M416.84,610.87v5.27h4.81v1h-4.81v13.52a5.58,5.58,0,0,0,.81,3.42,2.61,2.61,0,0,0,2.15,1q.49,0,.87,0l1.05-.13.18.89a5.59,5.59,0,0,1-.94.2c-.33,0-.69.05-1.1.05a3.6,3.6,0,0,1-3-1.28,6.7,6.7,0,0,1-1-4.14V617.14h-3.62v-1h3.62v-5.27Z" class="cls-5"/><path data-cppathid="10023" transform="translate(16.2 15.13)" d="M438.53,632.08a7.59,7.59,0,0,1-3,2.89,9.92,9.92,0,0,1-4.86,1.11,6,6,0,0,1-4.29-1.49,5.35,5.35,0,0,1-1.55-4,4.91,4.91,0,0,1,2.32-4.12,9.73,9.73,0,0,1,5.81-1.67h5.59v-2.85a4.77,4.77,0,0,0-1.57-3.81,6.46,6.46,0,0,0-4.4-1.36,6.7,6.7,0,0,0-4.27,1.28,4,4,0,0,0-1.62,3.31l-.81,0,0-.09a4.59,4.59,0,0,1,1.77-3.86,7.5,7.5,0,0,1,5-1.58,7.62,7.62,0,0,1,5.05,1.59A5.66,5.66,0,0,1,439.5,622v9.8a16.45,16.45,0,0,0,.12,2,12.94,12.94,0,0,0,.39,1.93h-1.08c-.16-.86-.27-1.5-.32-1.92a12,12,0,0,1-.08-1.39Zm-7.88,3a9,9,0,0,0,4.92-1.28,7.46,7.46,0,0,0,3-3.67v-4.39H433a9,9,0,0,0-5.13,1.4,4.08,4.08,0,0,0-2.08,3.46,4.27,4.27,0,0,0,1.32,3.23A5,5,0,0,0,430.65,635.12Z" class="cls-5"/><path data-cppathid="10024" transform="translate(16.2 15.13)" d="M446.48,616.14l.13,3.94a7.34,7.34,0,0,1,2.55-3.17,6.91,6.91,0,0,1,4-1.13,6.27,6.27,0,0,1,4.06,1.26,6.73,6.73,0,0,1,2.19,3.89,7.84,7.84,0,0,1,2.56-3.8,6.83,6.83,0,0,1,4.35-1.37,5.9,5.9,0,0,1,4.91,2.12q1.68,2.11,1.68,6.65v11.15h-1V624.49q0-4.25-1.52-6a5.11,5.11,0,0,0-4.05-1.75,5.86,5.86,0,0,0-4.6,1.77,8.83,8.83,0,0,0-2,4.59c0,.24,0,.49,0,.73s0,.5,0,.75V635.7h-1v-10h-.06c0-.23,0-.46,0-.69s0-.45.05-.67q-.06-4.16-1.56-5.86a5.09,5.09,0,0,0-4-1.71,5.82,5.82,0,0,0-4.54,1.72,8.81,8.81,0,0,0-2,4.48V635.7h-1v-10h0v-.51q0-.25,0-.63v-8.41Z" class="cls-5"/><path data-cppathid="10025" transform="translate(16.2 15.13)" d="M477.44,625.54a10.29,10.29,0,0,1,2.38-7,8.36,8.36,0,0,1,12.36,0,10.29,10.29,0,0,1,2.38,7v.76a10.32,10.32,0,0,1-2.38,7.05,8.35,8.35,0,0,1-12.35,0,10.33,10.33,0,0,1-2.39-7.05Zm1,.76a9.62,9.62,0,0,0,2.06,6.25A6.75,6.75,0,0,0,486,635.1a6.67,6.67,0,0,0,5.49-2.56,9.61,9.61,0,0,0,2.06-6.24v-.76a9.57,9.57,0,0,0-2.08-6.19,7.16,7.16,0,0,0-11,0,9.61,9.61,0,0,0-2.06,6.19Z" class="cls-5"/><path data-cppathid="10026" transform="translate(16.2 15.13)" d="M511.22,630.91a3.84,3.84,0,0,0-1.33-2.83,9.85,9.85,0,0,0-4.63-2,13.2,13.2,0,0,1-5.05-1.9,4,4,0,0,1-1.57-3.46,4.35,4.35,0,0,1,1.77-3.52,7.46,7.46,0,0,1,4.78-1.42,7.84,7.84,0,0,1,5.09,1.52,4.63,4.63,0,0,1,1.77,4l0,.11h-.83a4.08,4.08,0,0,0-1.62-3.26,6.63,6.63,0,0,0-4.38-1.35,6.31,6.31,0,0,0-4.16,1.18,3.5,3.5,0,0,0-1.41,2.74,3.42,3.42,0,0,0,1.19,2.62,11.24,11.24,0,0,0,4.74,1.9,13,13,0,0,1,5,2.07,4.38,4.38,0,0,1,1.69,3.66,4.46,4.46,0,0,1-1.88,3.72,8.08,8.08,0,0,1-5,1.43,8.46,8.46,0,0,1-5.36-1.53,4.26,4.26,0,0,1-1.82-3.71l0-.11h.8a3.8,3.8,0,0,0,2,3.34,8.76,8.76,0,0,0,4.36,1,6.73,6.73,0,0,0,4.3-1.26A3.68,3.68,0,0,0,511.22,630.91Z" class="cls-5"/><path data-cppathid="10027" transform="translate(16.2 15.13)" d="M527.72,635.7h-1V607.5h1Z" class="cls-5"/><path data-cppathid="10028" transform="translate(16.2 15.13)" d="M535.35,610h-1v-2.5h1Zm0,25.7h-1V616.14h1Z" class="cls-5"/><path data-cppathid="10029" transform="translate(16.2 15.13)" d="M553.75,630.91a3.84,3.84,0,0,0-1.33-2.83,9.85,9.85,0,0,0-4.63-2,13.33,13.33,0,0,1-5.06-1.9,4,4,0,0,1-1.56-3.46,4.35,4.35,0,0,1,1.77-3.52,7.45,7.45,0,0,1,4.77-1.42,7.85,7.85,0,0,1,5.1,1.52,4.63,4.63,0,0,1,1.77,4l0,.11h-.84a4.1,4.1,0,0,0-1.61-3.26,6.64,6.64,0,0,0-4.39-1.35,6.3,6.3,0,0,0-4.15,1.18,3.5,3.5,0,0,0-1.41,2.74,3.38,3.38,0,0,0,1.19,2.62,11.18,11.18,0,0,0,4.74,1.9,13,13,0,0,1,5,2.07,4.38,4.38,0,0,1,1.69,3.66,4.46,4.46,0,0,1-1.88,3.72,8.08,8.08,0,0,1-5,1.43,8.44,8.44,0,0,1-5.36-1.53,4.24,4.24,0,0,1-1.82-3.71l0-.11h.79a3.83,3.83,0,0,0,2,3.34,8.76,8.76,0,0,0,4.36,1,6.73,6.73,0,0,0,4.3-1.26A3.68,3.68,0,0,0,553.75,630.91Z" class="cls-5"/><path data-cppathid="10030" transform="translate(16.2 15.13)" d="M562.21,610.87v5.27H567v1h-4.81v13.52a5.58,5.58,0,0,0,.81,3.42,2.61,2.61,0,0,0,2.15,1q.5,0,.87,0l1.05-.13.18.89a5.59,5.59,0,0,1-.94.2c-.33,0-.69.05-1.1.05a3.6,3.6,0,0,1-3-1.28,6.69,6.69,0,0,1-1-4.14V617.14H557.6v-1h3.61v-5.27Z" class="cls-5"/><path data-cppathid="10031" transform="translate(16.2 15.13)" d="M570.09,625.54a10.29,10.29,0,0,1,2.38-7,8.36,8.36,0,0,1,12.36,0,10.34,10.34,0,0,1,2.38,7v.76a10.37,10.37,0,0,1-2.38,7.05,8.36,8.36,0,0,1-12.36,0,10.32,10.32,0,0,1-2.38-7.05Zm1,.76a9.62,9.62,0,0,0,2.06,6.25,7.24,7.24,0,0,0,11,0,9.67,9.67,0,0,0,2.06-6.24v-.76a9.57,9.57,0,0,0-2.08-6.19,7.16,7.16,0,0,0-11,0,9.61,9.61,0,0,0-2.06,6.19Z" class="cls-5"/><path data-cppathid="10032" transform="translate(16.2 15.13)" d="M603.87,630.91a3.84,3.84,0,0,0-1.33-2.83,9.85,9.85,0,0,0-4.63-2,13.33,13.33,0,0,1-5.06-1.9,4,4,0,0,1-1.56-3.46,4.35,4.35,0,0,1,1.77-3.52,7.45,7.45,0,0,1,4.77-1.42,7.85,7.85,0,0,1,5.1,1.52,4.63,4.63,0,0,1,1.77,4l0,.11h-.84a4.1,4.1,0,0,0-1.61-3.26,6.64,6.64,0,0,0-4.39-1.35,6.3,6.3,0,0,0-4.15,1.18,3.5,3.5,0,0,0-1.41,2.74,3.38,3.38,0,0,0,1.19,2.62,11.19,11.19,0,0,0,4.73,1.9,13,13,0,0,1,5,2.07,4.38,4.38,0,0,1,1.69,3.66,4.46,4.46,0,0,1-1.88,3.72,8.08,8.08,0,0,1-5,1.43,8.44,8.44,0,0,1-5.36-1.53,4.24,4.24,0,0,1-1.82-3.71l0-.11h.79a3.83,3.83,0,0,0,2,3.34,8.76,8.76,0,0,0,4.36,1,6.73,6.73,0,0,0,4.3-1.26A3.68,3.68,0,0,0,603.87,630.91Z" class="cls-5"/><path data-cppathid="10033" transform="translate(16.2 15.13)" d="M634.11,626.28a11.79,11.79,0,0,1-2,7.16,6.35,6.35,0,0,1-5.39,2.64,8.34,8.34,0,0,1-4-.9,7.09,7.09,0,0,1-2.66-2.46v10.5h-1V630.35a.46.46,0,0,0,0-.09s0,0,0-.07v-8l0-.12v-6h.76l.2,3.46a7.38,7.38,0,0,1,2.66-2.8,7.47,7.47,0,0,1,4-1,6.31,6.31,0,0,1,5.42,2.74,12.51,12.51,0,0,1,2,7.38Zm-1-.38a12,12,0,0,0-1.63-6.6,5.3,5.3,0,0,0-4.73-2.54,6.29,6.29,0,0,0-4.34,1.39,8,8,0,0,0-2.27,3.43v9.35a6.27,6.27,0,0,0,2.42,3,7.37,7.37,0,0,0,4.23,1.13,5.33,5.33,0,0,0,4.71-2.38,11.39,11.39,0,0,0,1.61-6.44Z" class="cls-5"/><path data-cppathid="10034" transform="translate(16.2 15.13)" d="M651.69,632.08a7.57,7.57,0,0,1-3,2.89,9.93,9.93,0,0,1-4.87,1.11,6,6,0,0,1-4.28-1.49,5.31,5.31,0,0,1-1.55-4,4.91,4.91,0,0,1,2.32-4.12,9.71,9.71,0,0,1,5.81-1.67h5.58v-2.85a4.8,4.8,0,0,0-1.56-3.81,6.47,6.47,0,0,0-4.4-1.36,6.68,6.68,0,0,0-4.27,1.28,4,4,0,0,0-1.62,3.31l-.82,0,0-.09a4.59,4.59,0,0,1,1.77-3.86,7.48,7.48,0,0,1,5-1.58,7.57,7.57,0,0,1,5,1.59,5.64,5.64,0,0,1,1.9,4.59v9.8a16.45,16.45,0,0,0,.12,2,12.94,12.94,0,0,0,.39,1.93h-1.09c-.16-.86-.26-1.5-.31-1.92a10,10,0,0,1-.09-1.39Zm-7.88,3a9.06,9.06,0,0,0,4.93-1.28,7.44,7.44,0,0,0,3-3.67v-4.39h-5.53a9,9,0,0,0-5.12,1.4,4.1,4.1,0,0,0-2.09,3.46,4.25,4.25,0,0,0,1.33,3.23A5,5,0,0,0,643.81,635.12Z" class="cls-5"/><path data-cppathid="10035" transform="translate(16.2 15.13)" d="M667.58,616.85l-1.26-.11a5.65,5.65,0,0,0-4.26,1.69,8.26,8.26,0,0,0-2.12,4.46V635.7h-1V616.14h.79l.19,3.4v.67a7.05,7.05,0,0,1,2.42-3.26,6.54,6.54,0,0,1,4-1.17,3.64,3.64,0,0,1,.76.07,5.29,5.29,0,0,1,.61.13Z" class="cls-5"/><path data-cppathid="10036" transform="translate(16.2 15.13)" d="M683.61,632.08a7.53,7.53,0,0,1-3,2.89,9.86,9.86,0,0,1-4.86,1.11,6,6,0,0,1-4.28-1.49,5.32,5.32,0,0,1-1.56-4,4.92,4.92,0,0,1,2.33-4.12,9.71,9.71,0,0,1,5.81-1.67h5.58v-2.85a4.8,4.8,0,0,0-1.56-3.81,6.47,6.47,0,0,0-4.4-1.36,6.73,6.73,0,0,0-4.28,1.28,4,4,0,0,0-1.61,3.31l-.82,0,0-.09a4.54,4.54,0,0,1,1.77-3.86,7.48,7.48,0,0,1,5-1.58,7.57,7.57,0,0,1,5,1.59,5.64,5.64,0,0,1,1.9,4.59v9.8a16.45,16.45,0,0,0,.12,2,11.76,11.76,0,0,0,.38,1.93H684c-.16-.86-.26-1.5-.32-1.92a12,12,0,0,1-.08-1.39Zm-7.88,3a9.06,9.06,0,0,0,4.93-1.28,7.44,7.44,0,0,0,3-3.67v-4.39h-5.53a9,9,0,0,0-5.12,1.4,4.1,4.1,0,0,0-2.09,3.46,4.25,4.25,0,0,0,1.33,3.23A4.94,4.94,0,0,0,675.73,635.12Z" class="cls-5"/><path data-cppathid="10037" transform="translate(16.2 15.13)" d="M714.68,626.28a11.79,11.79,0,0,1-1.95,7.16,6.33,6.33,0,0,1-5.39,2.64,8.3,8.3,0,0,1-4-.9,7,7,0,0,1-2.67-2.46v10.5h-1V630.35a.23.23,0,0,1,0-.09.17.17,0,0,1,0-.07v-8a.48.48,0,0,1,0-.12v-6h.75l.2,3.46a7.38,7.38,0,0,1,2.66-2.8,7.48,7.48,0,0,1,4-1,6.31,6.31,0,0,1,5.41,2.74,12.44,12.44,0,0,1,2,7.38Zm-1-.38a12,12,0,0,0-1.64-6.6,5.28,5.28,0,0,0-4.72-2.54,6.3,6.3,0,0,0-4.35,1.39,8,8,0,0,0-2.27,3.43v9.35a6.33,6.33,0,0,0,2.42,3,7.37,7.37,0,0,0,4.23,1.13,5.33,5.33,0,0,0,4.71-2.38,11.31,11.31,0,0,0,1.62-6.44Z" class="cls-5"/><path data-cppathid="10038" transform="translate(16.2 15.13)" d="M732.27,632.08a7.59,7.59,0,0,1-3,2.89,9.92,9.92,0,0,1-4.86,1.11,6,6,0,0,1-4.29-1.49,5.35,5.35,0,0,1-1.55-4,4.91,4.91,0,0,1,2.32-4.12,9.73,9.73,0,0,1,5.81-1.67h5.59v-2.85a4.8,4.8,0,0,0-1.56-3.81,6.5,6.5,0,0,0-4.41-1.36A6.7,6.7,0,0,0,722,618a4,4,0,0,0-1.62,3.31l-.81,0,0-.09a4.59,4.59,0,0,1,1.77-3.86,7.5,7.5,0,0,1,5-1.58,7.62,7.62,0,0,1,5.05,1.59,5.66,5.66,0,0,1,1.89,4.59v9.8a16.45,16.45,0,0,0,.12,2,12.94,12.94,0,0,0,.39,1.93h-1.08c-.16-.86-.27-1.5-.32-1.92a10.11,10.11,0,0,1-.08-1.39Zm-7.88,3a9,9,0,0,0,4.92-1.28,7.46,7.46,0,0,0,3-3.67v-4.39h-5.53a9,9,0,0,0-5.13,1.4,4.08,4.08,0,0,0-2.08,3.46,4.27,4.27,0,0,0,1.32,3.23A5,5,0,0,0,724.39,635.12Z" class="cls-5"/><path data-cppathid="10039" transform="translate(16.2 15.13)" d="M751.52,630.91a3.87,3.87,0,0,0-1.33-2.83,9.89,9.89,0,0,0-4.64-2,13.27,13.27,0,0,1-5-1.9,4,4,0,0,1-1.56-3.46,4.35,4.35,0,0,1,1.77-3.52,7.45,7.45,0,0,1,4.77-1.42,7.85,7.85,0,0,1,5.1,1.52,4.63,4.63,0,0,1,1.77,4l0,.11h-.83a4.08,4.08,0,0,0-1.62-3.26,6.63,6.63,0,0,0-4.38-1.35,6.33,6.33,0,0,0-4.16,1.18,3.5,3.5,0,0,0-1.41,2.74,3.39,3.39,0,0,0,1.2,2.62,11.19,11.19,0,0,0,4.73,1.9,13,13,0,0,1,5,2.07,4.35,4.35,0,0,1,1.69,3.66,4.44,4.44,0,0,1-1.88,3.72,8,8,0,0,1-5,1.43,8.43,8.43,0,0,1-5.35-1.53,4.24,4.24,0,0,1-1.82-3.71l0-.11h.79a3.83,3.83,0,0,0,2,3.34,8.75,8.75,0,0,0,4.35,1,6.76,6.76,0,0,0,4.31-1.26A3.68,3.68,0,0,0,751.52,630.91Z" class="cls-5"/><path data-cppathid="10040" transform="translate(16.2 15.13)" d="M770.22,632.08a7.57,7.57,0,0,1-3,2.89,9.93,9.93,0,0,1-4.87,1.11,6,6,0,0,1-4.28-1.49,5.32,5.32,0,0,1-1.56-4,4.92,4.92,0,0,1,2.33-4.12,9.71,9.71,0,0,1,5.81-1.67h5.58v-2.85a4.8,4.8,0,0,0-1.56-3.81,6.47,6.47,0,0,0-4.4-1.36A6.73,6.73,0,0,0,760,618a4.06,4.06,0,0,0-1.61,3.31l-.82,0,0-.09a4.59,4.59,0,0,1,1.77-3.86,7.48,7.48,0,0,1,5-1.58,7.57,7.57,0,0,1,5,1.59,5.64,5.64,0,0,1,1.9,4.59v9.8a16.45,16.45,0,0,0,.12,2,11.79,11.79,0,0,0,.39,1.93h-1.09c-.16-.86-.26-1.5-.32-1.92a12,12,0,0,1-.08-1.39Zm-7.88,3a9.06,9.06,0,0,0,4.93-1.28,7.44,7.44,0,0,0,3-3.67v-4.39h-5.53a9,9,0,0,0-5.12,1.4,4.1,4.1,0,0,0-2.09,3.46,4.25,4.25,0,0,0,1.33,3.23A5,5,0,0,0,762.34,635.12Z" class="cls-5"/><path data-cppathid="10041" transform="translate(16.2 15.13)" d="M786.11,616.85l-1.26-.11a5.65,5.65,0,0,0-4.26,1.69,8.26,8.26,0,0,0-2.12,4.46V635.7h-1V616.14h.79l.19,3.4v.67a7,7,0,0,1,2.42-3.26,6.54,6.54,0,0,1,4-1.17,3.64,3.64,0,0,1,.76.07,5.29,5.29,0,0,1,.61.13Z" class="cls-5"/></g><g class="cls-3"><path data-cppathid="10042" transform="translate(16.2 15.13)" d="M356.51,682.62a12,12,0,0,1-.58-1.66,10.58,10.58,0,0,1-.35-1.78,8.54,8.54,0,0,1-2.53,2.78,6.33,6.33,0,0,1-3.74,1.11,7.76,7.76,0,0,1-5.57-1.86,6.67,6.67,0,0,1-1.95-5.07,6.06,6.06,0,0,1,2.6-5.24c1.73-1.24,4.27-1.86,7.59-1.86h3.49v-1.82a3.57,3.57,0,0,0-.87-2.57,3.42,3.42,0,0,0-2.59-.92,3.36,3.36,0,0,0-2.33.74,2.53,2.53,0,0,0-.82,2h-6l0-.12a5.84,5.84,0,0,1,2.54-5,11,11,0,0,1,7-2.11,10.26,10.26,0,0,1,6.7,2.08,7.25,7.25,0,0,1,2.56,6v9.5a17.13,17.13,0,0,0,.25,3,15.24,15.24,0,0,0,.77,2.83Zm-5.67-4.14a5.29,5.29,0,0,0,2.89-.81,4.33,4.33,0,0,0,1.74-1.87v-3.25H352a4.13,4.13,0,0,0-3,1,3.22,3.22,0,0,0-1,2.4,2.4,2.4,0,0,0,.75,1.86A3,3,0,0,0,350.84,678.48Z" class="cls-6"/><path data-cppathid="10043" transform="translate(16.2 15.13)" d="M372.85,682.62h-6.21V649.48h6.21Z" class="cls-6"/><path data-cppathid="10044" transform="translate(16.2 15.13)" d="M401.21,676.25a2.15,2.15,0,0,0-1-1.76,10.07,10.07,0,0,0-3.66-1.28,14.63,14.63,0,0,1-6.13-2.44,5.35,5.35,0,0,1-2.1-4.44,6.35,6.35,0,0,1,2.51-5,10.1,10.1,0,0,1,6.67-2.08,10.89,10.89,0,0,1,7,2.08,6.09,6.09,0,0,1,2.52,5.18l0,.13h-6a3,3,0,0,0-.9-2.25,4.18,4.18,0,0,0-4.93-.13,2.33,2.33,0,0,0-.87,1.83,2.05,2.05,0,0,0,.91,1.73,9.86,9.86,0,0,0,3.66,1.2,14.92,14.92,0,0,1,6.3,2.5,5.48,5.48,0,0,1,2.07,4.53,6.07,6.07,0,0,1-2.65,5.08,11.45,11.45,0,0,1-7,2,10.68,10.68,0,0,1-7.26-2.33,6.51,6.51,0,0,1-2.54-5.3l0-.13h5.68a3.21,3.21,0,0,0,1.21,2.68,5,5,0,0,0,3,.83,4.29,4.29,0,0,0,2.63-.69A2.25,2.25,0,0,0,401.21,676.25Z" class="cls-6"/><path data-cppathid="10045" transform="translate(16.2 15.13)" d="M417.74,654.13h-6.21v-4.65h6.21Zm0,28.49h-6.21v-23h6.21Z" class="cls-6"/><path data-cppathid="10046" transform="translate(16.2 15.13)" d="M421.92,671.32a14.93,14.93,0,0,1,2.36-8.78,7.65,7.65,0,0,1,6.63-3.33,6.54,6.54,0,0,1,3.4.87,7.71,7.71,0,0,1,2.51,2.48l.48-2.93h5.34v22.88a8.57,8.57,0,0,1-2.93,6.94c-2,1.64-4.69,2.45-8.18,2.45a15.44,15.44,0,0,1-3.7-.47,17.33,17.33,0,0,1-3.61-1.31l1-4.63a14.26,14.26,0,0,0,2.94,1,14.8,14.8,0,0,0,3.28.35,5.6,5.6,0,0,0,3.75-1.06,4.22,4.22,0,0,0,1.2-3.32v-2.08a6.7,6.7,0,0,1-5.56,2.66,7.81,7.81,0,0,1-6.59-3.11,13.2,13.2,0,0,1-2.36-8.2Zm6.21.44a9.34,9.34,0,0,0,1,4.75,3.51,3.51,0,0,0,3.3,1.73,5.08,5.08,0,0,0,2.41-.52,3.85,3.85,0,0,0,1.58-1.52v-10a4.23,4.23,0,0,0-1.58-1.64,4.67,4.67,0,0,0-2.37-.57,3.47,3.47,0,0,0-3.31,2,11.41,11.41,0,0,0-1,5.27Z" class="cls-6"/><path data-cppathid="10047" transform="translate(16.2 15.13)" d="M461.48,679.22a7.89,7.89,0,0,1-2.7,2.85,7.18,7.18,0,0,1-3.8,1,7,7,0,0,1-5.68-2.47q-2.06-2.46-2.05-7.65V659.63h6.18V673c0,2,.27,3.38.82,4.13a2.94,2.94,0,0,0,2.54,1.11,6.34,6.34,0,0,0,2.55-.47,4.36,4.36,0,0,0,1.74-1.42V659.63h6.2v23h-5.14Z" class="cls-6"/><path data-cppathid="10048" transform="translate(16.2 15.13)" d="M478.48,654.13h-6.21v-4.65h6.21Zm0,28.49h-6.21v-23h6.21Z" class="cls-6"/><path data-cppathid="10049" transform="translate(16.2 15.13)" d="M493.54,683.07a10.36,10.36,0,0,1-8-3.16,11.53,11.53,0,0,1-2.89-8.12v-.85a12.64,12.64,0,0,1,2.8-8.46,9.54,9.54,0,0,1,7.72-3.27,8.92,8.92,0,0,1,7.1,2.83,11.24,11.24,0,0,1,2.48,7.64v3.21H489L489,673a6.2,6.2,0,0,0,1.44,3.82,4.77,4.77,0,0,0,3.81,1.47,12.5,12.5,0,0,0,3.54-.43,14.14,14.14,0,0,0,3-1.29l1.68,3.82a11.55,11.55,0,0,1-3.74,1.89A16.54,16.54,0,0,1,493.54,683.07Zm-.4-19.08a3.45,3.45,0,0,0-2.88,1.28,6.4,6.4,0,0,0-1.22,3.41l0,.11h7.56v-.47a5.3,5.3,0,0,0-.83-3.17A3,3,0,0,0,493.14,664Z" class="cls-6"/><path data-cppathid="10050" transform="translate(16.2 15.13)" d="M512,659.63l.28,3.3a8.28,8.28,0,0,1,2.82-2.74,7.28,7.28,0,0,1,3.76-1,6.84,6.84,0,0,1,5.44,2.24c1.31,1.49,2,3.86,2,7.09v14.08H520V668.56a5.47,5.47,0,0,0-.86-3.5,3.15,3.15,0,0,0-2.58-1,5.36,5.36,0,0,0-2.43.52,4.76,4.76,0,0,0-1.73,1.44v16.63h-6.21v-23Z" class="cls-6"/><path data-cppathid="10051" transform="translate(16.2 15.13)" d="M538.32,654v5.63h3.89V664h-3.89v11.7a2.67,2.67,0,0,0,.57,1.92,2,2,0,0,0,1.47.57,6.82,6.82,0,0,0,.85,0c.25,0,.52-.1.83-.18l.51,4.48a13.53,13.53,0,0,1-1.81.48,11.5,11.5,0,0,1-1.93.16,6.61,6.61,0,0,1-4.94-1.77c-1.15-1.17-1.73-3-1.73-5.58V664h-3.35v-4.36h3.35V654Z" class="cls-6"/><path data-cppathid="10052" transform="translate(16.2 15.13)" d="M556,683.07a10.36,10.36,0,0,1-8-3.16,11.53,11.53,0,0,1-2.89-8.12v-.85a12.64,12.64,0,0,1,2.8-8.46,9.54,9.54,0,0,1,7.72-3.27,8.92,8.92,0,0,1,7.1,2.83,11.24,11.24,0,0,1,2.48,7.64v3.21H551.47l-.06.13a6.2,6.2,0,0,0,1.44,3.82,4.77,4.77,0,0,0,3.81,1.47,12.5,12.5,0,0,0,3.54-.43,14.14,14.14,0,0,0,3-1.29l1.68,3.82a11.55,11.55,0,0,1-3.74,1.89A16.54,16.54,0,0,1,556,683.07ZM555.6,664a3.45,3.45,0,0,0-2.88,1.28,6.4,6.4,0,0,0-1.22,3.41l0,.11h7.56v-.47a5.3,5.3,0,0,0-.83-3.17A3,3,0,0,0,555.6,664Z" class="cls-6"/><path data-cppathid="10053" transform="translate(16.2 15.13)" d="M585.3,659.63l.27,3.3a8.4,8.4,0,0,1,2.83-2.74,7.25,7.25,0,0,1,3.76-1,6.86,6.86,0,0,1,5.44,2.24c1.3,1.49,1.95,3.86,1.95,7.09v14.08h-6.22V668.56a5.54,5.54,0,0,0-.86-3.5,3.18,3.18,0,0,0-2.58-1,5.38,5.38,0,0,0-2.44.52,4.76,4.76,0,0,0-1.73,1.44v16.63h-6.2v-23Z" class="cls-6"/><path data-cppathid="10054" transform="translate(16.2 15.13)" d="M610.71,654.13H604.5v-4.65h6.21Zm0,28.49H604.5v-23h6.21Z" class="cls-6"/><path data-cppathid="10055" transform="translate(16.2 15.13)" d="M624.11,674.06l.41,2.12h.12l.43-2.12,3.78-14.43h6.48l-7.82,23h-5.93l-7.81-23h6.48Z" class="cls-6"/><path data-cppathid="10056" transform="translate(16.2 15.13)" d="M647.71,683.07a10.37,10.37,0,0,1-8-3.16,11.58,11.58,0,0,1-2.89-8.12v-.85a12.59,12.59,0,0,1,2.81-8.46,9.53,9.53,0,0,1,7.71-3.27q4.63,0,7.11,2.83a11.23,11.23,0,0,1,2.47,7.64v3.21h-13.7l-.07.13a6.2,6.2,0,0,0,1.44,3.82,4.8,4.8,0,0,0,3.81,1.47,12.5,12.5,0,0,0,3.54-.43,14.43,14.43,0,0,0,3-1.29l1.67,3.82a11.49,11.49,0,0,1-3.73,1.89A16.65,16.65,0,0,1,647.71,683.07Zm-.4-19.08a3.45,3.45,0,0,0-2.88,1.28,6.49,6.49,0,0,0-1.22,3.41l0,.11h7.57v-.47a5.37,5.37,0,0,0-.83-3.17A3.05,3.05,0,0,0,647.31,664Z" class="cls-6"/><path data-cppathid="10057" transform="translate(16.2 15.13)" d="M667,682.62h-6.21V649.48H667Z" class="cls-6"/><path data-cppathid="10058" transform="translate(16.2 15.13)" d="M679,682.62H672.8v-5.44H679Z" class="cls-6"/></g></g><path data-cppathid="10059" transform="translate(16.2 15.13)" d="M512,140h0A162.69,162.69,0,0,0,349.31,302.71h0A162.69,162.69,0,0,0,512,465.4h0A162.69,162.69,0,0,0,674.69,302.71h0A162.69,162.69,0,0,0,512,140Z" class="cls-7"/><path data-cppathid="10060" transform="translate(16.2 15.13)" d="M657.69,302.73A145.68,145.68,0,0,1,512,448.41h0A145.68,145.68,0,0,1,366.32,302.73v0A145.68,145.68,0,0,1,512,157h0A145.68,145.68,0,0,1,657.68,302.71v0Z" class="cls-8"/><path data-cppathid="10061" transform="translate(16.2 15.13)" d="M448.17,270.36H412a12.21,12.21,0,0,0-12.18,12.18V382.7A12.21,12.21,0,0,0,412,394.88h36.14a12.21,12.21,0,0,0,12.18-12.18V282.54A12.21,12.21,0,0,0,448.17,270.36Z" class="cls-4"/><path data-cppathid="10062" transform="translate(16.2 15.13)" d="M607.05,298.82h-2.16a19.25,19.25,0,0,0,0-38.5H543.15c7.62-12,17.94-31.12,17.94-46.74,0-24.75-13.55-38.49-22.39-40.06s-15.32,3.14-17.87,10.6,2,21.61.22,26.66c-2.7,7.78-16.32,18.2-34.78,41.88-16.5,21.16-14.14,46.15-14.14,46.15v84.27a12,12,0,0,0,12,12H598.8a13.94,13.94,0,1,0,0-27.88h2a17.09,17.09,0,1,0,0-34.18H607a17.09,17.09,0,0,0,0-34.18Z" class="cls-5"/></g><path data-cppathid="10063" transform="translate(16.2 15.13)" d="M640.58,708.14a35.36,35.36,0,0,1,0,70.72H383.43a35.36,35.36,0,0,1,0-70.72H640.58m0-3H383.43a38.36,38.36,0,0,0-38.36,38.36h0a38.36,38.36,0,0,0,38.36,38.36H640.58a38.36,38.36,0,0,0,38.36-38.36h0a38.36,38.36,0,0,0-38.36-38.36Z" class="cls-6"/><path data-cppathid="10064" transform="translate(16.2 15.13)" d="M400.44,739.73h-5.25v-5.08h5.25Zm0,26.39h-5.25V745.28h5.25Z" class="cls-5"/><path data-cppathid="10065" transform="translate(16.2 15.13)" d="M423.5,750.69H412.35L409.93,758H404.5l11-31.46h5L431.32,758H425.9Zm-9.71-4.39h8.28l-4-12.41h-.13Z" class="cls-5"/><path data-cppathid="10066" transform="translate(16.2 15.13)" d="M435.21,758V726.57h10.4a13.15,13.15,0,0,1,9.73,3.74,13,13,0,0,1,3.75,9.61v4.78a13,13,0,0,1-3.75,9.62,13.25,13.25,0,0,1-9.73,3.71Zm5.25-27.25v23.06h5.15a7.52,7.52,0,0,0,6-2.56,9.64,9.64,0,0,0,2.23-6.58v-4.82a9.59,9.59,0,0,0-2.23-6.54,7.56,7.56,0,0,0-6-2.56Z" class="cls-5"/><path data-cppathid="10067" transform="translate(16.2 15.13)" d="M482.43,743.88H470.11v10h14.52V758H464.86V726.57h19.62v4.21H470.11v8.88h12.32Z" class="cls-5"/><path data-cppathid="10068" transform="translate(16.2 15.13)" d="M494.62,753.84h14.74V758h-20V726.57h5.25Z" class="cls-5"/><path data-cppathid="10069" transform="translate(16.2 15.13)" d="M530.6,750.69H519.45L517,758H511.6l11-31.46h5L538.42,758H533Zm-9.7-4.39h8.27l-4-12.41H525Z" class="cls-5"/><path data-cppathid="10070" transform="translate(16.2 15.13)" d="M566.89,758h-5.26L547.7,735.36l-.13,0V758h-5.26V726.57h5.26l13.93,22.67.13,0V726.57h5.26Z" class="cls-5"/><path data-cppathid="10071" transform="translate(16.2 15.13)" d="M594.85,730.78h-9.72V758h-5.26V730.78H570.3v-4.21h24.55Z" class="cls-5"/><path data-cppathid="10072" transform="translate(16.2 15.13)" d="M616.42,743.88H604.1v10h14.52V758H598.85V726.57h19.62v4.21H604.1v8.88h12.32Z" class="cls-5"/><path data-cppathid="10073" transform="translate(16.2 15.13)" d="M628.63,747.42h-5.25V726.57h5.25Zm0,10.61h-5.25v-5h5.25Z" class="cls-5"/></svg>