<?xml version="1.0" encoding="UTF-8"?>
<svg xmlns="http://www.w3.org/2000/svg" onmouseup="{ if(window.parent.document.onmouseup) window.parent.document.onmouseup(arguments[0]);}" xml:space="preserve" style="enable-background:new 0 0 1156.82 1080;" viewBox="0 0 1156.82 1080" y="0px" x="0px" id="Layer_1" version="1.1" xmlns:xlink="http://www.w3.org/1999/xlink"><style type="text/css">
	.st0{fill:#333E48;}
	.st1{opacity:0.2;fill:url(#SVGID_1_);}
	.st2{fill:#FFFFFF;}
	.st3{fill:#D3D3D3;}
	.st4{fill:none;stroke:#FFFFFF;stroke-width:10;stroke-linecap:round;stroke-linejoin:round;stroke-miterlimit:10;}
	.st5{fill:none;stroke:#00FFD3;stroke-width:2;stroke-linecap:round;stroke-linejoin:round;stroke-miterlimit:10;}
	.st6{fill:#B6D8D8;}
	.st7{fill:#EDEDED;}
	.st8{fill:url(#SVGID_00000088117863265536006210000005287189244124757386_);}
	.st9{fill:url(#SVGID_00000016068183816612451960000016638723009936369319_);}
	.st10{fill:#0069A7;}
	.st11{fill:#00496D;}
	.st12{fill:#0099A8;}
	.st13{fill:#173D7A;}
	.st14{opacity:0.3;fill:#06033E;}
	.st15{fill:#D4ECFF;}
	.st16{fill:#F7A800;}
	.st17{fill:#C9C9C9;}
	.st18{opacity:0.7;fill:#4D4C63;}
	.st19{opacity:0.5;}
	.st20{fill:url(#SVGID_00000042730182605836662910000004762733801106316425_);}
	.st21{fill:url(#SVGID_00000079464866008625559480000007081294968375484083_);}
	.st22{fill:#DDDDDD;}
	.st23{fill:#006D72;}
	.st24{fill:#97CBD2;}
	.st25{opacity:0.11;}
	.st26{clip-path:url(#SVGID_00000107551565060030655580000012831796349900079789_);}
	.st27{fill:url(#SVGID_00000034808350996057095720000004778971125816339847_);}
	.st28{fill:url(#SVGID_00000166653062220304756420000008811407134411258303_);}
	.st29{fill:#9198DB;}
	.st30{fill:#ADB1F2;}
	.st31{fill:#24126A;}
	.st32{fill:#48B4BE;}
	.st33{fill:#EBEEEE;}
	.st34{fill:#F1F1F1;}
	.st35{fill:#C33A32;}
	.st36{fill:#E75300;}
	.st37{fill:#0A5D67;}
	.st38{fill:#04AA8A;}
	.st39{fill:#00FFD3;}
	.st40{enable-background:new    ;}
</style><g><rect data-cppathid="10000" height="1080" width="1156.82" class="st0"/></g><g><radialGradient gradientUnits="userSpaceOnUse" r="1599.2461" cy="23.1698" cx="24.3566" id="SVGID_1_"><stop style="stop-color:#42E8E0" offset="0"/><stop style="stop-color:#42E8E0" offset="0.5161"/><stop style="stop-color:#42E8E0" offset="0.9317"/><stop style="stop-color:#42E8E0" offset="1"/></radialGradient><path data-cppathid="10001" d="M985.12,37.63l28.56-16.49l28.56,16.49l28.56,16.49l-28.55,16.49l-28.56,16.49L985.12,70.6l-28.56-16.49   L985.12,37.63z M114.59,841.27l-28.56-16.49l28.55-16.49l28.56-16.49l28.56,16.49l27.4,15.82h-0.03l1.16,0.67l-28.55,16.49   l-28.56,16.49l-10.89-6.29h0.02L114.59,841.27z M1012.75,824.79l-28.55,16.49l-28.56,16.49l-10.9-6.3h0.03l-17.66-10.19   l-28.56-16.49l28.55-16.49l28.56-16.49l28.56,16.49l27.38,15.81h-0.02L1012.75,824.79z M230.66,841.27l-28.56-16.49l28.55-16.49   l28.56-16.49l28.56,16.49l27.4,15.82h-0.03l1.17,0.67l-28.55,16.49l-28.56,16.49l-10.89-6.29h0.03L230.66,841.27z M896.68,824.79   l-28.56,16.49l-28.56,16.49l-10.9-6.29h0.03l-17.66-10.2l-28.55-16.49l28.55-16.49l28.56-16.49l28.56,16.49l27.39,15.81h-0.02   L896.68,824.79z M346.73,841.27l-28.56-16.49l28.55-16.49l28.56-16.49l28.56,16.49l27.39,15.82h-0.03l1.17,0.67l-28.55,16.49   l-28.56,16.49l-10.9-6.29h0.03L346.73,841.27z M780.6,824.79l-28.55,16.49l-28.56,16.49l-10.9-6.29h0.02l-17.66-10.2l-28.56-16.49   l28.55-16.49l28.56-16.49l28.56,16.49l27.39,15.81h-0.03L780.6,824.79z M462.81,841.27l-28.56-16.49l28.55-16.49l28.56-16.49   l28.56,16.49l27.39,15.81h-0.02l1.17,0.68l-28.55,16.49l-28.56,16.49l-10.9-6.29h0.03L462.81,841.27z M664.53,824.79l-28.56,16.49   l-28.56,16.49l-10.9-6.29h0.02l-17.66-10.2l-28.56-16.49l28.55-16.49l28.56-16.49l28.56,16.49l27.39,15.81h-0.02L664.53,824.79z    M577.95,640.76l28.56,16.49l-28.55,16.49l-28.56,16.49l-28.56-16.49l-28.56-16.49l28.55-16.49l28.56-16.49L577.95,640.76z    M520.84,606.72l-28.56-16.49l28.55-16.49l28.56-16.49l28.56,16.49l28.56,16.49l-28.56,16.49l-28.56,16.49L520.84,606.72z    M577.95,707.78l28.56,16.49l-28.55,16.49l-28.56,16.49l-28.56-16.49l-28.56-16.49l28.56-16.49l28.56-16.49L577.95,707.78z    M577.96,774.79l28.55,16.49l-28.55,16.49l-28.32,16.35h-0.02l-0.23,0.13l-28.55-16.48l-28.56-16.49l28.56-16.49l28.56-16.49   L577.96,774.79z M504.09,851.47h0.02l16.74-9.66l28.54-16.48l28.55,16.48l28.56,16.49l-28.55,16.49l-28.56,16.49l-28.56-16.49   l-28.56-16.49L504.09,851.47z M577.94,908.83l28.56,16.49l-28.55,16.49l-28.56,16.49l-28.56-16.49l-28.56-16.49l28.56-16.49   l28.56-16.49L577.94,908.83z M577.94,975.84l28.56,16.49l-28.55,16.49l-28.56,16.49l-28.56-16.49l-28.56-16.49l28.56-16.49   l28.56-16.49L577.94,975.84z M578.87,1042.32l-28.56-16.49l28.55-16.49l28.56-16.49l28.56,16.49l28.56,16.49l-28.55,16.49   l-28.56,16.49L578.87,1042.32z M578.86,975.31l-28.56-16.49l28.55-16.49l28.56-16.49l28.56,16.49l28.56,16.49l-28.55,16.49   l-28.56,16.49L578.86,975.31z M578.86,908.29l-28.56-16.49l28.55-16.49l28.56-16.49l28.56,16.49l28.56,16.49l-28.55,16.49   l-28.56,16.49L578.86,908.29z M578.88,774.26l-28.55-16.49l28.55-16.49l28.56-16.49l28.56,16.49l28.55,16.49l-28.55,16.49   l-28.56,16.49L578.88,774.26z M578.88,707.24l-28.56-16.49l28.55-16.49l28.56-16.49l28.56,16.49l28.55,16.49l-28.55,16.49   l-28.56,16.49L578.88,707.24z M578.88,640.23l-28.56-16.49l28.55-16.49l28.56-16.49l28.56,16.49l28.55,16.49l-28.55,16.49   l-28.56,16.49L578.88,640.23z M578.87,573.21l-28.56-16.49l28.56-16.49l28.56-16.49l28.56,16.49l28.55,16.49l-28.55,16.49   l-28.56,16.49L578.87,573.21z M577.95,539.71l-28.56,16.49l-28.56-16.49l-28.56-16.49l28.55-16.49l28.56-16.49l28.56,16.49   l28.56,16.49L577.95,539.71z M519.91,540.24l28.56,16.49l-28.56,16.49l-28.56,16.49l-28.56-16.49l-28.56-16.49l28.55-16.49   l28.56-16.49L519.91,540.24z M519.91,607.25l28.56,16.49l-28.55,16.49l-28.56,16.49l-28.56-16.49l-28.56-16.49l28.55-16.49   l28.56-16.49L519.91,607.25z M519.92,674.27l28.56,16.49l-28.55,16.49l-28.56,16.49l-28.56-16.49l-28.56-16.49l28.55-16.49   l28.56-16.49L519.92,674.27z M519.92,741.28l28.56,16.49l-28.55,16.49l-28.56,16.49l-28.56-16.49l-28.56-16.49l28.55-16.49   l28.56-16.49L519.92,741.28z M519.9,875.32l28.56,16.49l-28.55,16.49l-28.56,16.49l-28.56-16.49l-28.56-16.49l28.55-16.49   l28.56-16.49L519.9,875.32z M519.9,942.33l28.56,16.49l-28.55,16.49l-28.56,16.49l-28.56-16.49l-28.56-16.49l28.55-16.49   l28.56-16.49L519.9,942.33z M519.9,1009.35l28.56,16.49l-28.55,16.49l-28.56,16.49l-28.56-16.49l-28.56-16.49l28.55-16.49   l28.56-16.49L519.9,1009.35z M491.35,1059.87 M607.42,1059.88 M636.9,1008.81l-28.56-16.49l28.55-16.49l28.56-16.49l28.56,16.49   l28.56,16.49l-28.55,16.49l-28.56,16.49L636.9,1008.81z M636.9,941.8l-28.56-16.49l28.55-16.49l28.56-16.49l28.56,16.49   l28.56,16.49l-28.55,16.49l-28.56,16.49L636.9,941.8z M636.9,874.78l-28.56-16.49l11.82-6.83h0.02l16.74-9.66l28.54-16.48   l28.55,16.48l28.56,16.49l-28.56,16.49l-28.56,16.49L636.9,874.78z M665.71,824.11h-0.02l-0.23,0.13l-28.55-16.48l-28.56-16.49   l28.55-16.49l28.56-16.49l28.56,16.49l28.56,16.49l-28.56,16.49L665.71,824.11z M636.92,740.75l-28.55-16.49l28.55-16.49   l28.56-16.49l28.56,16.49l28.56,16.49l-28.55,16.49l-28.56,16.49L636.92,740.75z M636.91,673.74l-28.55-16.49l28.55-16.49   l28.56-16.49l28.56,16.49l28.56,16.49l-28.55,16.49l-28.56,16.49L636.91,673.74z M636.91,606.72l-28.56-16.49l28.55-16.49   l28.56-16.49l28.56,16.49l28.56,16.49l-28.55,16.49l-28.56,16.49L636.91,606.72z M636.91,539.71l-28.55-16.49l28.55-16.49   l28.56-16.49l28.56,16.49l28.56,16.49l-28.55,16.49l-28.56,16.49L636.91,539.71z M636.91,472.69l-28.55-16.49l28.55-16.49   l28.56-16.49l28.56,16.49l28.56,16.49l-28.56,16.49l-28.56,16.49L636.91,472.69z M635.98,473.23l28.55,16.49l-28.55,16.49   l-28.56,16.49l-28.56-16.49l-28.56-16.49l28.55-16.49l28.56-16.49L635.98,473.23z M577.95,472.69l-28.56,16.49l-28.56-16.49   l-28.56-16.49l28.55-16.49l28.56-16.49l28.56,16.49l28.56,16.49L577.95,472.69z M519.91,473.22l28.56,16.49l-28.55,16.49   l-28.56,16.49L462.8,506.2l-28.56-16.49l28.55-16.49l28.56-16.49L519.91,473.22z M461.87,472.69l-28.56,16.49l-28.56-16.49   l-28.56-16.49l28.55-16.49l28.56-16.49l28.56,16.49l28.56,16.49L461.87,472.69z M461.88,506.73l28.56,16.49l-28.56,16.49   l-28.56,16.49l-28.56-16.49l-28.56-16.49l28.55-16.49l28.56-16.49L461.88,506.73z M461.88,573.75l28.56,16.49l-28.55,16.49   l-28.56,16.49l-28.56-16.49l-28.56-16.49l28.55-16.49l28.56-16.49L461.88,573.75z M461.88,640.76l28.56,16.49l-28.55,16.49   l-28.56,16.49l-28.56-16.49l-28.56-16.49l28.56-16.49l28.56-16.49L461.88,640.76z M461.88,707.78l28.56,16.49l-28.55,16.49   l-28.56,16.49l-28.56-16.49l-28.56-16.49l28.55-16.49l28.56-16.49L461.88,707.78z M461.88,774.79l28.56,16.49l-28.55,16.49   l-28.32,16.35h-0.02l-0.23,0.13l-28.55-16.48l-28.56-16.49l28.55-16.49l28.56-16.49L461.88,774.79z M388.02,851.47h0.02l16.74-9.66   l28.54-16.48l28.55,16.48l28.56,16.49l-28.55,16.49l-28.56,16.49l-28.56-16.49l-28.56-16.49L388.02,851.47z M461.86,908.82   l28.56,16.49l-28.55,16.49l-28.56,16.49l-28.56-16.49l-28.56-16.49l28.55-16.49l28.56-16.49L461.86,908.82z M461.87,975.84   l28.56,16.49l-28.55,16.49l-28.56,16.49l-28.56-16.49l-28.56-16.49l28.55-16.49l28.56-16.49L461.87,975.84z M723.5,1059.88    M694.94,1042.32l-28.55-16.49l28.55-16.49l28.56-16.49l28.56,16.49l28.56,16.49l-28.56,16.49l-28.56,16.49L694.94,1042.32z    M694.94,975.31l-28.55-16.49l28.55-16.49l28.56-16.49l28.56,16.49l28.56,16.49l-28.56,16.49l-28.56,16.49L694.94,975.31z    M694.94,908.29l-28.55-16.49l28.55-16.49l28.56-16.49l28.56,16.49l28.55,16.49l-28.55,16.49l-28.56,16.49L694.94,908.29z    M694.95,774.26l-28.56-16.49l28.55-16.49l28.56-16.49l28.56,16.49l28.56,16.49l-28.56,16.49l-28.56,16.49L694.95,774.26z    M694.95,707.24l-28.56-16.49l28.56-16.49l28.56-16.49l28.56,16.49l28.56,16.49l-28.55,16.49l-28.56,16.49L694.95,707.24z    M694.95,640.23l-28.56-16.49l28.55-16.49l28.56-16.49l28.56,16.49l28.56,16.49l-28.55,16.49l-28.56,16.49L694.95,640.23z    M694.95,573.21l-28.56-16.49l28.55-16.49l28.56-16.49l28.56,16.49l28.56,16.49l-28.55,16.49L723.5,589.7L694.95,573.21z    M694.95,506.2l-28.56-16.49l28.55-16.49l28.56-16.49l28.56,16.49l28.56,16.49l-28.56,16.49l-28.56,16.49L694.95,506.2z    M694.94,439.18l-28.55-16.49l28.55-16.49l28.56-16.49l28.56,16.49l28.56,16.49l-28.55,16.49l-28.56,16.49L694.94,439.18z    M694.02,405.68l-28.56,16.49l-28.56-16.49l-28.56-16.49l28.55-16.49l28.56-16.49l28.56,16.49l28.55,16.49L694.02,405.68z    M635.98,406.21l28.56,16.49l-28.55,16.49l-28.56,16.49l-28.56-16.49l-28.56-16.49l28.55-16.49l28.56-16.49L635.98,406.21z    M577.95,405.68l-28.56,16.49l-28.56-16.49l-28.56-16.49l28.55-16.49l28.56-16.49l28.56,16.49l28.56,16.49L577.95,405.68z    M519.91,406.21l28.56,16.49l-28.55,16.49l-28.56,16.49l-28.56-16.49l-28.56-16.49l28.56-16.49l28.56-16.49L519.91,406.21z    M461.87,405.68l-28.56,16.49l-28.56-16.49l-28.56-16.49l28.55-16.49l28.56-16.49l28.56,16.49l28.56,16.49L461.87,405.68z    M403.84,406.21l28.56,16.49l-28.55,16.49l-28.56,16.49l-28.56-16.49l-28.56-16.49l28.55-16.49l28.56-16.49L403.84,406.21z    M403.84,473.22l28.56,16.49l-28.55,16.49l-28.56,16.49l-28.56-16.49l-28.56-16.49l28.56-16.49l28.56-16.49L403.84,473.22z    M403.84,540.24l28.56,16.49l-28.55,16.49l-28.56,16.49l-28.56-16.49l-28.56-16.49l28.56-16.49l28.56-16.49L403.84,540.24z    M403.84,607.25l28.56,16.49l-28.55,16.49l-28.56,16.49l-28.56-16.49l-28.56-16.49l28.55-16.49l28.56-16.49L403.84,607.25z    M403.84,674.27l28.56,16.49l-28.56,16.49l-28.56,16.49l-28.56-16.49l-28.56-16.49l28.55-16.49l28.56-16.49L403.84,674.27z    M403.84,741.28l28.56,16.49l-28.56,16.49l-28.56,16.49l-28.56-16.49l-28.56-16.49l28.55-16.49l28.56-16.49L403.84,741.28z    M403.83,875.32l28.56,16.49l-28.56,16.49l-28.56,16.49l-28.56-16.49l-28.56-16.49l28.55-16.49l28.56-16.49L403.83,875.32z    M403.83,942.33l28.56,16.49l-28.56,16.49l-28.56,16.49l-28.56-16.49l-28.56-16.49l28.55-16.49l28.56-16.49L403.83,942.33z    M403.83,1009.35l28.56,16.49l-28.55,16.49l-28.56,16.49l-28.56-16.49l-28.56-16.49l28.55-16.49l28.56-16.49L403.83,1009.35z    M375.28,1059.87 M752.97,1008.81l-28.56-16.49l28.55-16.49l28.56-16.49l28.56,16.49l28.56,16.49l-28.55,16.49l-28.56,16.49   L752.97,1008.81z M752.97,941.8l-28.56-16.49l28.56-16.49l28.56-16.49l28.56,16.49l28.56,16.49l-28.55,16.49l-28.56,16.49   L752.97,941.8z M752.97,874.79l-28.56-16.49l11.83-6.83h0.02l16.73-9.66l28.54-16.48l28.55,16.48l28.56,16.49l-28.55,16.49   l-28.56,16.49L752.97,874.79z M781.79,824.11h-0.02l-0.23,0.14l-28.55-16.48l-28.56-16.49l28.55-16.49l28.56-16.49l28.56,16.49   l28.55,16.49l-28.55,16.49L781.79,824.11z M752.99,740.75l-28.56-16.49l28.56-16.49l28.56-16.49l28.56,16.49l28.55,16.49   l-28.55,16.49l-28.56,16.49L752.99,740.75z M752.99,673.74l-28.56-16.49l28.56-16.49l28.56-16.49l28.56,16.49l28.56,16.49   l-28.55,16.49l-28.56,16.49L752.99,673.74z M752.99,606.72l-28.56-16.49l28.55-16.49l28.56-16.49l28.56,16.49l28.56,16.49   l-28.56,16.49l-28.56,16.49L752.99,606.72z M752.98,539.71l-28.56-16.49l28.55-16.49l28.56-16.49l28.56,16.49l28.56,16.49   l-28.56,16.49l-28.56,16.49L752.98,539.71z M752.98,472.69l-28.56-16.49l28.56-16.49l28.56-16.49l28.56,16.49l28.56,16.49   l-28.55,16.49l-28.56,16.49L752.98,472.69z M752.98,405.68l-28.56-16.49l28.56-16.49l28.56-16.49l28.56,16.49l28.56,16.49   l-28.55,16.49l-28.56,16.49L752.98,405.68z M752.98,338.66l-28.56-16.49l28.55-16.49l28.56-16.49l28.56,16.49l28.56,16.49   l-28.55,16.49l-28.56,16.49L752.98,338.66z M752.05,339.2l28.56,16.49l-28.55,16.49l-28.56,16.49l-28.56-16.49l-28.56-16.49   l28.55-16.49l28.56-16.49L752.05,339.2z M694.02,338.66l-28.56,16.49l-28.56-16.49l-28.56-16.49l28.55-16.49l28.56-16.49   l28.56,16.49l28.55,16.49L694.02,338.66z M635.98,339.19l28.56,16.49l-28.55,16.49l-28.56,16.49l-28.56-16.49l-28.56-16.49   l28.55-16.49l28.56-16.49L635.98,339.19z M577.94,338.66l-28.56,16.49l-28.56-16.49l-28.56-16.49l28.55-16.49l28.56-16.49   l28.56,16.49l28.56,16.49L577.94,338.66z M519.91,339.19l28.56,16.49l-28.55,16.49l-28.56,16.49l-28.56-16.49l-28.56-16.49   l28.56-16.49l28.56-16.49L519.91,339.19z M461.87,338.66l-28.56,16.49l-28.56-16.49l-28.56-16.49l28.56-16.49l28.56-16.49   l28.56,16.49l28.56,16.49L461.87,338.66z M403.83,339.19l28.56,16.49l-28.55,16.49l-28.56,16.49l-28.56-16.49l-28.56-16.49   l28.55-16.49l28.56-16.49L403.83,339.19z M345.8,338.66l-28.56,16.49l-28.56-16.49l-28.56-16.49l28.55-16.49l28.56-16.49   l28.56,16.49l28.56,16.49L345.8,338.66z M345.8,372.7l28.56,16.49l-28.56,16.49l-28.56,16.49l-28.56-16.49l-28.56-16.49   l28.55-16.49l28.56-16.49L345.8,372.7z M345.8,439.72l28.56,16.49l-28.55,16.49l-28.56,16.49l-28.56-16.49l-28.56-16.49   l28.55-16.49l28.56-16.49L345.8,439.72z M345.8,506.73l28.56,16.49L345.8,539.7l-28.56,16.49l-28.56-16.49l-28.56-16.49   l28.55-16.49l28.56-16.49L345.8,506.73z M345.8,573.75l28.56,16.49l-28.56,16.49l-28.56,16.49l-28.56-16.49l-28.56-16.49   l28.55-16.49l28.56-16.49L345.8,573.75z M345.8,640.76l28.56,16.49l-28.55,16.49l-28.56,16.49l-28.56-16.49l-28.56-16.49   l28.55-16.49l28.56-16.49L345.8,640.76z M345.81,707.78l28.56,16.49l-28.55,16.49l-28.56,16.49l-28.56-16.49l-28.56-16.49   l28.55-16.49l28.56-16.49L345.81,707.78z M345.81,774.79l28.56,16.49l-28.55,16.49l-28.32,16.35h-0.01l-0.23,0.13l-28.55-16.48   l-28.56-16.49l28.56-16.49l28.56-16.49L345.81,774.79z M271.94,851.47h0.01l16.74-9.67l28.54-16.48l28.55,16.48l28.56,16.49   l-28.55,16.49l-28.56,16.49l-28.56-16.49l-28.56-16.49L271.94,851.47z M345.79,908.82l28.56,16.49l-28.55,16.49l-28.56,16.49   l-28.56-16.49l-28.56-16.49l28.55-16.49l28.56-16.49L345.79,908.82z M345.79,975.84l28.56,16.49l-28.55,16.49l-28.56,16.49   l-28.56-16.49l-28.56-16.49l28.56-16.49l28.56-16.49L345.79,975.84z M839.57,1059.88 M811.01,1042.32l-28.56-16.49l28.56-16.49   l28.56-16.49l28.56,16.49l28.56,16.49l-28.55,16.49l-28.56,16.49L811.01,1042.32z M811.01,975.31l-28.56-16.49l28.56-16.49   l28.56-16.49l28.56,16.49l28.56,16.49l-28.55,16.49l-28.56,16.49L811.01,975.31z M811.01,908.29l-28.56-16.49l28.55-16.49   l28.56-16.49l28.56,16.49l28.56,16.49l-28.55,16.49l-28.56,16.49L811.01,908.29z M811.03,774.26l-28.56-16.49l28.55-16.49   l28.56-16.49l28.56,16.49l28.56,16.49l-28.55,16.49l-28.56,16.49L811.03,774.26z M811.02,707.24l-28.56-16.49l28.55-16.49   l28.56-16.49l28.56,16.49l28.56,16.49l-28.56,16.49l-28.56,16.49L811.02,707.24z M811.02,640.23l-28.55-16.49l28.55-16.49   l28.56-16.49l28.56,16.49l28.56,16.49l-28.56,16.49l-28.56,16.49L811.02,640.23z M811.02,573.21l-28.56-16.49l28.55-16.49   l28.56-16.49l28.56,16.49l28.55,16.49l-28.55,16.49l-28.56,16.49L811.02,573.21z M811.02,506.2l-28.56-16.49l28.56-16.49   l28.56-16.49l28.56,16.49l28.55,16.49l-28.55,16.49l-28.56,16.49L811.02,506.2z M811.02,439.19l-28.56-16.49l28.56-16.49   l28.56-16.49l28.56,16.49l28.55,16.49l-28.55,16.49l-28.56,16.49L811.02,439.19z M811.02,372.17l-28.56-16.49l28.55-16.49   l28.56-16.49l28.56,16.49l28.56,16.49l-28.55,16.49l-28.56,16.49L811.02,372.17z M811.01,305.16l-28.56-16.49l28.55-16.49   l28.56-16.49l28.56,16.49l28.56,16.49l-28.56,16.49l-28.56,16.49L811.01,305.16z M810.09,271.65l-28.56,16.49l-28.56-16.49   l-28.56-16.49l28.55-16.49l28.56-16.49l28.56,16.49l28.56,16.49L810.09,271.65z M752.05,272.18l28.56,16.49l-28.55,16.49   l-28.56,16.49l-28.56-16.49l-28.55-16.49l28.55-16.49l28.56-16.49L752.05,272.18z M694.02,271.65l-28.56,16.49l-28.56-16.49   l-28.56-16.49l28.55-16.49l28.56-16.49l28.56,16.49l28.55,16.49L694.02,271.65z M635.98,272.18l28.56,16.49l-28.55,16.49   l-28.56,16.49l-28.56-16.49l-28.56-16.49l28.55-16.49l28.56-16.49L635.98,272.18z M577.94,271.65l-28.56,16.49l-28.56-16.49   l-28.56-16.49l28.55-16.49l28.56-16.49l28.56,16.49l28.56,16.49L577.94,271.65z M519.91,272.18l28.56,16.49l-28.55,16.49   l-28.56,16.49l-28.56-16.49l-28.56-16.49l28.55-16.49l28.56-16.49L519.91,272.18z M461.87,271.64l-28.56,16.49l-28.56-16.49   l-28.56-16.49l28.56-16.49l28.56-16.49l28.56,16.49l28.56,16.49L461.87,271.64z M403.83,272.18l28.56,16.49l-28.55,16.49   l-28.56,16.49l-28.56-16.49l-28.56-16.49l28.55-16.49l28.56-16.49L403.83,272.18z M345.8,271.64l-28.56,16.49l-28.56-16.49   l-28.56-16.49l28.55-16.49l28.56-16.49l28.56,16.49l28.56,16.49L345.8,271.64z M287.76,272.18l28.56,16.49l-28.56,16.49   l-28.56,16.49l-28.56-16.49l-28.56-16.49l28.55-16.49l28.56-16.49L287.76,272.18z M287.76,339.19l28.56,16.49l-28.55,16.49   l-28.56,16.49l-28.56-16.49l-28.56-16.49l28.55-16.49l28.56-16.49L287.76,339.19z M287.76,406.21l28.56,16.49l-28.55,16.49   l-28.56,16.49l-28.56-16.49l-28.56-16.49l28.55-16.49l28.56-16.49L287.76,406.21z M287.76,473.22l28.56,16.49l-28.55,16.49   l-28.56,16.49l-28.56-16.49l-28.56-16.49l28.56-16.49l28.56-16.49L287.76,473.22z M287.77,540.24l28.56,16.49l-28.55,16.49   l-28.56,16.49l-28.56-16.49l-28.56-16.49l28.55-16.49l28.56-16.49L287.77,540.24z M287.77,607.25l28.56,16.49l-28.55,16.49   l-28.56,16.49l-28.56-16.49l-28.56-16.49l28.55-16.49l28.56-16.49L287.77,607.25z M287.77,674.27l28.56,16.49l-28.55,16.49   l-28.56,16.49l-28.56-16.49l-28.56-16.49l28.56-16.49l28.56-16.49L287.77,674.27z M287.77,741.28l28.56,16.49l-28.55,16.49   l-28.56,16.49l-28.56-16.49l-28.56-16.49l28.55-16.49l28.56-16.49L287.77,741.28z M287.75,875.32l28.56,16.49l-28.55,16.49   l-28.56,16.49l-28.56-16.49l-28.56-16.49l28.56-16.49l28.56-16.49L287.75,875.32z M287.76,942.33l28.56,16.49l-28.55,16.49   l-28.56,16.49l-28.56-16.49l-28.56-16.49l28.55-16.49l28.56-16.49L287.76,942.33z M287.76,1009.35l28.56,16.49l-28.56,16.49   l-28.56,16.49l-28.56-16.49l-28.56-16.49l28.55-16.49l28.56-16.49L287.76,1009.35z M259.2,1059.87 M869.05,1008.82l-28.56-16.49   l28.56-16.49l28.56-16.49l28.56,16.49l28.55,16.49l-28.55,16.49l-28.56,16.49L869.05,1008.82z M869.05,941.8l-28.56-16.49   l28.55-16.49l28.56-16.49l28.56,16.49l28.56,16.49l-28.55,16.49l-28.56,16.49L869.05,941.8z M869.05,874.79l-28.56-16.49   l11.83-6.83h0.01l16.73-9.66l28.54-16.48l28.55,16.48l28.55,16.49l-28.55,16.49l-28.56,16.49L869.05,874.79z M897.86,824.11h-0.02   l-0.23,0.14l-28.55-16.48l-28.56-16.49l28.56-16.49l28.56-16.49l28.56,16.49l28.56,16.49l-28.55,16.49L897.86,824.11z    M869.06,740.75l-28.56-16.49l28.55-16.49l28.56-16.49l28.56,16.49l28.56,16.49l-28.56,16.49l-28.56,16.49L869.06,740.75z    M869.06,673.74l-28.56-16.49l28.55-16.49l28.56-16.49l28.56,16.49l28.56,16.49l-28.56,16.49l-28.56,16.49L869.06,673.74z    M869.06,606.72l-28.55-16.49l28.55-16.49l28.56-16.49l28.56,16.49l28.56,16.49l-28.55,16.49l-28.56,16.49L869.06,606.72z    M869.06,539.71l-28.56-16.49l28.55-16.49l28.56-16.49l28.56,16.49l28.56,16.49l-28.55,16.49l-28.56,16.49L869.06,539.71z    M869.06,472.69l-28.56-16.49l28.55-16.49l28.56-16.49l28.56,16.49l28.56,16.49l-28.56,16.49l-28.56,16.49L869.06,472.69z    M869.05,405.68l-28.55-16.49l28.55-16.49l28.56-16.49l28.56,16.49l28.56,16.49l-28.56,16.49l-28.56,16.49L869.05,405.68z    M869.05,338.66l-28.55-16.49l28.55-16.49l28.56-16.49l28.56,16.49l28.55,16.49l-28.55,16.49l-28.56,16.49L869.05,338.66z    M869.05,271.65l-28.56-16.49l28.56-16.49l28.56-16.49l28.56,16.49l28.55,16.49l-28.55,16.49l-28.56,16.49L869.05,271.65z    M869.05,204.63l-28.56-16.49l28.56-16.49l28.56-16.49l28.56,16.49l28.55,16.49l-28.55,16.49l-28.56,16.49L869.05,204.63z    M868.12,205.17l28.56,16.49l-28.55,16.49l-28.56,16.49l-28.56-16.49l-28.56-16.49l28.56-16.49l28.56-16.49L868.12,205.17z    M810.09,204.63l-28.56,16.49l-28.56-16.49l-28.56-16.49l28.55-16.49l28.56-16.49l28.56,16.49l28.56,16.49L810.09,204.63z    M752.05,205.17l28.56,16.49l-28.56,16.49l-28.56,16.49l-28.56-16.49l-28.55-16.49l28.55-16.49l28.56-16.49L752.05,205.17z    M694.01,204.63l-28.56,16.49l-28.56-16.49l-28.56-16.49l28.55-16.49l28.56-16.49l28.56,16.49l28.56,16.49L694.01,204.63z    M635.98,205.16l28.56,16.49l-28.55,16.49l-28.56,16.49l-28.56-16.49l-28.56-16.49l28.55-16.49l28.56-16.49L635.98,205.16z    M577.94,204.63l-28.56,16.49l-28.56-16.49l-28.56-16.49l28.56-16.49l28.56-16.49l28.56,16.49l28.56,16.49L577.94,204.63z    M519.9,205.16l28.56,16.49l-28.55,16.49l-28.56,16.49l-28.56-16.49l-28.56-16.49l28.55-16.49l28.56-16.49L519.9,205.16z    M461.87,204.63l-28.56,16.49l-28.56-16.49l-28.56-16.49l28.55-16.49l28.56-16.49l28.56,16.49l28.56,16.49L461.87,204.63z    M403.83,205.16l28.56,16.49l-28.55,16.49l-28.56,16.49l-28.56-16.49l-28.56-16.49l28.55-16.49l28.56-16.49L403.83,205.16z    M345.79,204.63l-28.56,16.49l-28.56-16.49l-28.56-16.49l28.56-16.49l28.56-16.49l28.56,16.49l28.56,16.49L345.79,204.63z    M287.76,205.16l28.56,16.49l-28.56,16.49l-28.56,16.49l-28.56-16.49l-28.56-16.49l28.55-16.49l28.56-16.49L287.76,205.16z    M229.72,204.63l-28.56,16.49l-28.56-16.49l-28.56-16.49l28.55-16.49l28.56-16.49l28.56,16.49l28.56,16.49L229.72,204.63z    M229.72,238.67l28.56,16.49l-28.55,16.49l-28.56,16.49l-28.56-16.49l-28.56-16.49l28.55-16.49l28.56-16.49L229.72,238.67z    M229.72,305.68l28.56,16.49l-28.55,16.49l-28.56,16.49l-28.56-16.49l-28.56-16.49l28.56-16.49l28.56-16.49L229.72,305.68z    M229.73,372.7l28.56,16.49l-28.55,16.49l-28.56,16.49l-28.56-16.49l-28.56-16.49l28.56-16.49l28.56-16.49L229.73,372.7z    M229.73,439.71l28.56,16.49l-28.55,16.49l-28.56,16.49l-28.56-16.49l-28.56-16.49l28.55-16.49l28.56-16.49L229.73,439.71z    M229.73,506.73l28.56,16.49l-28.56,16.49l-28.56,16.49l-28.56-16.49l-28.56-16.49l28.55-16.49l28.56-16.49L229.73,506.73z    M229.73,573.74l28.56,16.49l-28.55,16.49l-28.56,16.49l-28.56-16.49l-28.56-16.49l28.55-16.49l28.56-16.49L229.73,573.74z    M229.73,640.76l28.56,16.49l-28.55,16.49l-28.56,16.49l-28.56-16.49l-28.56-16.49l28.55-16.49l28.56-16.49L229.73,640.76z    M229.73,707.77l28.56,16.49l-28.55,16.49l-28.56,16.49l-28.56-16.49l-28.56-16.49l28.55-16.49l28.56-16.49L229.73,707.77z    M229.74,774.79l28.56,16.49l-28.55,16.49l-28.32,16.35h-0.02l-0.22,0.13l-28.55-16.48l-28.56-16.49l28.55-16.49l28.56-16.49   L229.74,774.79z M155.87,851.47h0.02l16.74-9.67l28.54-16.48l28.55,16.48l28.56,16.49l-28.55,16.49l-28.56,16.49l-28.56-16.49   l-28.56-16.49L155.87,851.47z M229.72,908.82l28.56,16.49l-28.55,16.49l-28.56,16.49l-28.56-16.49l-28.56-16.49l28.55-16.49   l28.56-16.49L229.72,908.82z M229.72,975.84l28.56,16.49l-28.55,16.49l-28.56,16.49l-28.56-16.49l-28.56-16.49l28.55-16.49   l28.56-16.49L229.72,975.84z M955.64,1059.88 M927.09,1042.32l-28.56-16.49l28.55-16.49l28.56-16.49l28.56,16.49l28.56,16.49   l-28.55,16.49l-28.56,16.49L927.09,1042.32z M927.08,975.31l-28.55-16.49l28.55-16.49l28.56-16.49l28.56,16.49l28.56,16.49   l-28.56,16.49l-28.56,16.49L927.08,975.31z M927.08,908.29l-28.55-16.49l28.55-16.49l28.56-16.49l28.56,16.49l28.56,16.49   l-28.55,16.49l-28.56,16.49L927.08,908.29z M927.1,774.26l-28.56-16.49l28.55-16.49l28.56-16.49l28.56,16.49l28.56,16.49   l-28.55,16.49l-28.56,16.49L927.1,774.26z M927.1,707.25l-28.56-16.49l28.55-16.49l28.56-16.49l28.56,16.49l28.56,16.49   l-28.56,16.49l-28.56,16.49L927.1,707.25z M927.1,640.23l-28.56-16.49l28.56-16.49l28.56-16.49l28.56,16.49l28.56,16.49   l-28.55,16.49l-28.56,16.49L927.1,640.23z M927.09,573.22l-28.56-16.49l28.56-16.49l28.56-16.49l28.56,16.49l28.56,16.49   l-28.55,16.49l-28.56,16.49L927.09,573.22z M927.09,506.2l-28.56-16.49l28.55-16.49l28.56-16.49l28.56,16.49l28.56,16.49   l-28.56,16.49l-28.56,16.49L927.09,506.2z M927.09,439.19l-28.56-16.49l28.55-16.49l28.56-16.49l28.56,16.49l28.56,16.49   l-28.56,16.49l-28.56,16.49L927.09,439.19z M927.09,372.17l-28.56-16.49l28.56-16.49l28.56-16.49l28.56,16.49l28.56,16.49   l-28.55,16.49l-28.56,16.49L927.09,372.17z M927.09,305.16l-28.56-16.49l28.55-16.49l28.56-16.49l28.56,16.49l28.56,16.49   l-28.55,16.49l-28.56,16.49L927.09,305.16z M927.09,238.14l-28.56-16.49l28.55-16.49l28.56-16.49l28.56,16.49l28.56,16.49   l-28.55,16.49l-28.56,16.49L927.09,238.14z M927.08,171.13l-28.55-16.49l28.55-16.49l28.56-16.49l28.56,16.49l28.56,16.49   l-28.56,16.49l-28.56,16.49L927.08,171.13z M926.16,137.62L897.6,154.1l-28.56-16.49l-28.56-16.49l28.55-16.49l28.56-16.49   l28.56,16.49l28.56,16.49L926.16,137.62z M868.12,138.15l28.56,16.49l-28.55,16.49l-28.56,16.49l-28.56-16.49l-28.56-16.49   l28.56-16.49l28.56-16.49L868.12,138.15z M810.09,137.62l-28.56,16.49l-28.56-16.49l-28.56-16.49l28.56-16.49l28.56-16.49   l28.56,16.49l28.56,16.49L810.09,137.62z M752.05,138.15l28.56,16.49l-28.56,16.49l-28.56,16.49l-28.56-16.49l-28.55-16.49   l28.55-16.49l28.56-16.49L752.05,138.15z M694.01,137.62l-28.56,16.49l-28.56-16.49l-28.56-16.49l28.55-16.49l28.56-16.49   l28.56,16.49l28.56,16.49L694.01,137.62z M635.98,138.15l28.56,16.49l-28.55,16.49l-28.56,16.49l-28.56-16.49l-28.56-16.49   l28.55-16.49l28.56-16.49L635.98,138.15z M577.94,137.62l-28.56,16.49l-28.56-16.49l-28.56-16.49l28.56-16.49l28.56-16.49   l28.56,16.49l28.56,16.49L577.94,137.62z M519.9,138.15l28.56,16.49l-28.55,16.49l-28.56,16.49l-28.56-16.49l-28.56-16.49   l28.55-16.49l28.56-16.49L519.9,138.15z M461.87,137.61l-28.56,16.49l-28.56-16.49l-28.56-16.49l28.55-16.49l28.56-16.49   l28.56,16.49l28.56,16.49L461.87,137.61z M403.83,138.15l28.56,16.49l-28.56,16.49l-28.56,16.49l-28.56-16.49l-28.56-16.49   l28.55-16.49l28.56-16.49L403.83,138.15z M345.79,137.61l-28.56,16.49l-28.56-16.49l-28.56-16.49l28.55-16.49l28.56-16.49   l28.56,16.49l28.56,16.49L345.79,137.61z M287.76,138.15l28.56,16.49l-28.55,16.49l-28.56,16.49l-28.56-16.49l-28.56-16.49   l28.55-16.49l28.56-16.49L287.76,138.15z M229.72,137.61l-28.56,16.49l-28.56-16.49l-28.56-16.49l28.55-16.49l28.56-16.49   l28.56,16.49l28.56,16.49L229.72,137.61z M171.68,138.15l28.56,16.49l-28.56,16.49l-28.56,16.49l-28.56-16.49l-28.56-16.49   l28.55-16.49l28.56-16.49L171.68,138.15z M171.68,205.16l28.56,16.49l-28.55,16.49l-28.56,16.49l-28.56-16.49l-28.56-16.49   l28.55-16.49l28.56-16.49L171.68,205.16z M171.69,272.18l28.56,16.49l-28.55,16.49l-28.56,16.49l-28.56-16.49l-28.56-16.49   l28.55-16.49l28.56-16.49L171.69,272.18z M171.69,339.19l28.56,16.49l-28.55,16.49l-28.56,16.49l-28.56-16.49l-28.56-16.49   l28.55-16.49l28.56-16.49L171.69,339.19z M171.69,406.21l28.56,16.49l-28.56,16.49l-28.56,16.49l-28.56-16.49l-28.56-16.49   l28.55-16.49l28.56-16.49L171.69,406.21z M171.69,473.22l28.56,16.49l-28.55,16.49l-28.56,16.49l-28.56-16.49l-28.56-16.49   l28.55-16.49l28.56-16.49L171.69,473.22z M171.69,540.24l28.56,16.49l-28.55,16.49l-28.56,16.49l-28.56-16.49l-28.56-16.49   l28.56-16.49l28.56-16.49L171.69,540.24z M171.69,607.25l28.56,16.49l-28.55,16.49l-28.56,16.49l-28.56-16.49l-28.56-16.49   l28.56-16.49l28.56-16.49L171.69,607.25z M171.7,674.27l28.56,16.49l-28.55,16.49l-28.56,16.49l-28.56-16.49l-28.56-16.49   l28.55-16.49l28.56-16.49L171.7,674.27z M171.7,741.28l28.56,16.49l-28.56,16.49l-28.56,16.49l-28.56-16.49l-28.56-16.49   l28.55-16.49l28.56-16.49L171.7,741.28z M171.68,875.31l28.56,16.49l-28.55,16.49l-28.56,16.49l-28.56-16.49L86.01,891.8   l28.55-16.49l28.56-16.49L171.68,875.31z M171.68,942.33l28.56,16.49l-28.56,16.49l-28.56,16.49l-28.56-16.49l-28.56-16.49   l28.55-16.49l28.56-16.49L171.68,942.33z M171.68,1009.34l28.56,16.49l-28.55,16.49l-28.56,16.49l-28.56-16.49l-28.56-16.49   l28.55-16.49l28.56-16.49L171.68,1009.34z M143.13,1059.87 M985.12,1008.82l-28.56-16.49l28.55-16.49l28.56-16.49l28.56,16.49   l28.56,16.49l-28.56,16.49l-28.56,16.49L985.12,1008.82z M985.12,941.8l-28.56-16.49l28.55-16.49l28.56-16.49l28.56,16.49   l28.56,16.49l-28.55,16.49l-28.56,16.49L985.12,941.8z M985.12,874.79l-28.56-16.49l11.83-6.83h0.02l16.73-9.66l28.54-16.48   l28.55,16.48l28.56,16.49l-28.55,16.49l-28.56,16.49L985.12,874.79z M1013.94,824.11h-0.02l-0.24,0.14l-28.55-16.48l-28.55-16.49   l28.55-16.49l28.56-16.49l28.56,16.49l28.56,16.49l-28.56,16.49L1013.94,824.11z M985.14,740.75l-28.56-16.49l28.55-16.49   l28.56-16.49l28.56,16.49l28.55,16.49l-28.55,16.49l-28.56,16.49L985.14,740.75z M985.13,673.74l-28.56-16.49l28.55-16.49   l28.56-16.49l28.56,16.49l28.55,16.49l-28.55,16.49l-28.56,16.49L985.13,673.74z M985.13,606.72l-28.56-16.49l28.56-16.49   l28.56-16.49l28.56,16.49l28.56,16.49l-28.55,16.49l-28.56,16.49L985.13,606.72z M985.13,539.71l-28.56-16.49l28.55-16.49   l28.56-16.49l28.56,16.49l28.56,16.49l-28.55,16.49l-28.56,16.49L985.13,539.71z M985.13,472.69l-28.56-16.49l28.55-16.49   l28.56-16.49l28.56,16.49l28.56,16.49l-28.56,16.49l-28.56,16.49L985.13,472.69z M985.13,405.68l-28.56-16.49l28.55-16.49   l28.56-16.49l28.56,16.49l28.56,16.49l-28.55,16.49l-28.56,16.49L985.13,405.68z M985.13,338.66l-28.56-16.49l28.56-16.49   l28.56-16.49l28.56,16.49l28.56,16.49l-28.55,16.49l-28.56,16.49L985.13,338.66z M985.12,271.65l-28.56-16.49l28.55-16.49   l28.56-16.49l28.56,16.49l28.56,16.49l-28.56,16.49l-28.56,16.49L985.12,271.65z M985.12,204.63l-28.56-16.49l28.55-16.49   l28.56-16.49l28.56,16.49l28.56,16.49l-28.56,16.49l-28.56,16.49L985.12,204.63z M985.12,137.62l-28.56-16.49l28.55-16.49   l28.56-16.49l28.56,16.49l28.56,16.49l-28.55,16.49l-28.56,16.49L985.12,137.62z M984.19,71.14l28.56,16.49l-28.55,16.49   l-28.56,16.49l-28.56-16.49l-28.55-16.49l28.55-16.49l28.56-16.49L984.19,71.14z M869.04,37.63l28.56-16.49l28.56,16.49   l28.55,16.49L926.16,70.6L897.6,87.09L869.05,70.6l-28.56-16.49L869.04,37.63z M868.12,71.14l28.56,16.49l-28.55,16.49   l-28.56,16.49l-28.56-16.49l-28.56-16.49l28.55-16.49l28.56-16.49L868.12,71.14z M752.97,37.63l28.56-16.49l28.56,16.49   l28.56,16.49L810.08,70.6l-28.56,16.49L752.97,70.6l-28.56-16.49L752.97,37.63z M752.05,71.14l28.55,16.49l-28.55,16.49   l-28.56,16.49l-28.56-16.49l-28.55-16.49l28.55-16.49l28.56-16.49L752.05,71.14z M636.9,37.63l28.56-16.49l28.56,16.49l28.56,16.49   L694.01,70.6l-28.56,16.49L636.9,70.6l-28.56-16.49L636.9,37.63z M635.97,71.14l28.56,16.49l-28.55,16.49l-28.56,16.49   l-28.56-16.49l-28.56-16.49l28.55-16.49l28.56-16.49L635.97,71.14z M520.82,37.63l28.56-16.49l28.56,16.49l28.56,16.49L577.94,70.6   l-28.56,16.49L520.82,70.6l-28.56-16.49L520.82,37.63z M519.9,71.13l28.56,16.49l-28.55,16.49l-28.56,16.49l-28.56-16.49   l-28.56-16.49l28.55-16.49l28.56-16.49L519.9,71.13z M404.75,37.63l28.56-16.49l28.56,16.49l28.56,16.49L461.86,70.6l-28.56,16.49   L404.75,70.6L376.2,54.11L404.75,37.63z M403.83,71.13l28.56,16.49l-28.56,16.49l-28.56,16.49l-28.56-16.49l-28.56-16.49   l28.55-16.49l28.56-16.49L403.83,71.13z M288.68,37.63l28.56-16.49l28.56,16.49l28.56,16.49L345.79,70.6l-28.56,16.49L288.68,70.6   l-28.56-16.49L288.68,37.63z M287.75,71.13l28.56,16.49l-28.55,16.49l-28.56,16.49l-28.56-16.49l-28.56-16.49l28.56-16.49   l28.56-16.49L287.75,71.13z M172.6,37.62l28.56-16.49l28.56,16.49l28.56,16.49L229.72,70.6l-28.56,16.49L172.6,70.6l-28.56-16.49   L172.6,37.62z M171.68,71.13l28.56,16.49l-28.55,16.49l-28.56,16.49l-28.56-16.49L86.01,87.62l28.55-16.49l28.56-16.49   L171.68,71.13z M56.53,70.6L27.98,54.11l28.55-16.49l28.56-16.49l28.56,16.49l28.56,16.49L113.64,70.6L85.09,87.08L56.53,70.6z    M56.53,137.61l-28.56-16.49l28.55-16.49l28.56-16.49l28.56,16.49l28.56,16.49l-28.56,16.49L85.09,154.1L56.53,137.61z    M56.53,204.63l-28.56-16.49l28.55-16.49l28.56-16.49l28.56,16.49l28.56,16.49l-28.55,16.49l-28.56,16.49L56.53,204.63z    M56.54,271.64l-28.56-16.49l28.56-16.49l28.56-16.49l28.56,16.49l28.56,16.49l-28.55,16.49l-28.56,16.49L56.54,271.64z    M56.54,338.66l-28.56-16.49l28.55-16.49l28.56-16.49l28.56,16.49l28.56,16.49l-28.55,16.49L85.1,355.14L56.54,338.66z    M56.54,405.67l-28.56-16.49l28.55-16.49l28.56-16.49l28.56,16.49l28.56,16.49l-28.55,16.49L85.1,422.16L56.54,405.67z    M56.54,472.69L27.99,456.2l28.55-16.49l28.56-16.49l28.56,16.49l28.56,16.49l-28.55,16.49L85.1,489.17L56.54,472.69z M56.54,539.7   l-28.56-16.49l28.56-16.49l28.56-16.49l28.56,16.49l28.56,16.49l-28.55,16.49L85.1,556.19L56.54,539.7z M56.54,606.72l-28.56-16.49   l28.55-16.49l28.56-16.49l28.56,16.49l28.56,16.49l-28.55,16.49L85.1,623.2L56.54,606.72z M56.55,673.73l-28.56-16.49l28.55-16.49   l28.56-16.49l28.56,16.49l28.56,16.49l-28.56,16.49L85.1,690.22L56.55,673.73z M56.55,740.75l-28.56-16.49l28.55-16.49l28.56-16.49   l28.56,16.49l28.56,16.49l-28.56,16.49l-28.56,16.49L56.55,740.75z M27.99,791.27l28.55-16.49l28.56-16.49l28.56,16.49l28.56,16.49   l-28.55,16.49l-28.33,16.35h-0.02l-0.22,0.13l-28.55-16.48L27.99,791.27z M56.53,874.78l-28.56-16.49l11.81-6.82h0.01l16.75-9.67   l28.54-16.48l28.55,16.48l28.56,16.49l-28.56,16.49l-28.56,16.49L56.53,874.78z M56.53,941.79l-28.56-16.49l28.55-16.49   l28.56-16.49l28.56,16.49l28.56,16.49l-28.56,16.49l-28.56,16.49L56.53,941.79z M56.53,1008.81l-28.56-16.49l28.55-16.49   l28.56-16.49l28.56,16.49l28.56,16.49l-28.55,16.49l-28.56,16.49L56.53,1008.81z M1129.75,1025.3l-28.56-16.49l-28.56-16.49   l28.55-16.49l28.56-16.49l0.89-0.51l-0.89-0.56l-28.56-16.49l-28.56-16.49l28.56-16.49l28.56-16.49l0.89-0.52l-0.89-0.55   l-28.56-16.49l-28.56-16.49l11.83-6.83h0.01l16.73-9.66l28.54-16.48l0.89-0.6l-0.89-0.48l-28.55-16.48l-28.56-16.49l28.56-16.49   l28.56-16.49l0.89-0.57l-0.89-0.5l-28.56-16.49l-28.56-16.49l28.55-16.49l28.56-16.49l0.89-0.52l-0.89-0.55l-28.56-16.49   l-28.56-16.49l28.55-16.49l28.56-16.49l0.89-0.51l-0.89-0.56l-28.56-16.49l-28.56-16.49l28.55-16.49l28.56-16.49l0.89-0.51   l-0.89-0.56l-28.56-16.49l-28.56-16.49l28.56-16.49l28.56-16.49l0.89-0.52l-0.89-0.55l-28.56-16.49l-28.56-16.49l28.55-16.49   l28.56-16.49l0.89-0.5l-0.89-0.57l-28.56-16.49l-28.56-16.49l28.55-16.49l28.56-16.49l0.89-0.49l-0.89-0.58l-28.56-16.49   l-28.55-16.49l28.55-16.49l28.56-16.49l0.89-0.54l-0.89-0.53l-28.56-16.49l-28.55-16.49l28.55-16.49l28.56-16.49l0.89-0.54   l-0.89-0.53l-28.56-16.49l-28.56-16.49l28.55-16.49l28.56-16.49l0.89-0.5l-0.89-0.57l-28.56-16.49l-28.56-16.49l28.56-16.49   l28.56-16.49l0.89-0.51l-0.89-0.56l-28.56-16.49l-28.56-16.49l28.55-16.49l29.17-17.03l-1.54,0.01l-28.55,16.49l-28.56,16.49   l-28.56-16.49l-28.56-16.49l-0.87-0.54l-0.98,0.54L984.19,37.1l-28.56,16.49L927.08,37.1l-28.56-16.49l-0.89-0.54l-0.96,0.54   L868.12,37.1l-28.56,16.49L811.01,37.1l-28.56-16.49l-0.86-0.54l-0.99,0.54L752.05,37.1l-28.56,16.49l-28.56-16.49l-28.56-16.49   l-0.86-0.54l-0.99,0.54l-28.56,16.49l-28.56,16.49l-28.56-16.49l-28.56-16.49l-0.87-0.54l-0.98,0.54L519.9,37.09l-28.56,16.49   l-28.56-16.49l-28.56-16.49l-0.91-0.54l-0.94,0.54l-28.55,16.49l-28.56,16.49l-28.56-16.49l-28.56-16.49l-0.87-0.54l-0.98,0.54   l-28.55,16.49L259.2,53.58l-28.56-16.49L202.08,20.6l-0.9-0.54l-0.95,0.54l-28.55,16.49l-28.56,16.49l-28.56-16.49L86.01,20.6   l-0.87-0.54l-0.98,0.54L55.61,37.09L27.14,53.53l-0.97,0.58l0.97,0.58l28.47,16.44l28.56,16.49L55.61,104.1l-28.47,16.44   l-0.97,0.61l0.97,0.55l28.47,16.44l28.56,16.49l-28.55,16.49l-28.47,16.44l-0.97,0.59l0.97,0.57l28.48,16.44l28.56,16.49   l-28.55,16.49l-28.48,16.44l-0.97,0.63l0.97,0.54l28.48,16.44l28.56,16.49l-28.56,16.49l-28.48,16.44l-0.97,0.6l0.97,0.56   l28.48,16.44l28.56,16.49l-28.56,16.49l-28.48,16.44l-0.97,0.61l0.97,0.55l28.48,16.44l28.56,16.49l-28.55,16.49l-28.48,16.44   l-0.97,0.64l0.97,0.52l28.48,16.44l28.56,16.49l-28.55,16.49l-28.48,16.45l-0.97,0.62l0.97,0.53l28.48,16.44l28.56,16.49   l-28.55,16.49l-28.48,16.45l-0.97,0.58l0.97,0.57l28.49,16.45l28.56,16.49l-28.55,16.49l-28.49,16.45l-0.97,0.6l0.97,0.55   l28.49,16.45l28.56,16.49l-28.55,16.49l-28.49,16.45l-0.97,0.58l0.97,0.56l28.49,16.45l28.56,16.49l-28.55,16.49L27.14,790.7   l-0.97,0.57l0.97,0.57l28.49,16.45l27.4,15.82H83l1.16,0.67l-28.55,16.49l-28.47,16.44l-0.97,0.61l0.97,0.56l28.47,16.44   l28.56,16.49l-28.55,16.49l-28.47,16.44l-0.97,0.59l0.97,0.58l28.47,16.44l28.56,16.49L55.61,975.3l-28.47,16.44l-0.95,0.56   l0.95,0.61l28.48,16.44l28.56,16.49l-28.55,16.49l-28.48,16.44v1.08l0.84-0.5l28.56-16.49l28.56-16.49l28.56,16.49l28.56,16.49   l0.93,0.6l0.92-0.6l28.55-16.49l28.56-16.49l28.56,16.49l28.56,16.49l0.91,0.55l0.94-0.55l28.55-16.49l28.56-16.49l28.56,16.49   l28.56,16.49l0.84,0.52l1.01-0.52l28.56-16.49l28.56-16.49l28.56,16.49l28.56,16.49l0.92,0.56l0.93-0.56l28.55-16.49l28.56-16.49   l28.56,16.49l28.56,16.49l0.97,0.57l0.88-0.57l28.55-16.49l28.56-16.49l28.56,16.49l28.55,16.49l0.93,0.53l0.92-0.53l28.55-16.49   l28.56-16.49l28.56,16.49l28.56,16.49l0.98,0.51l0.87-0.51l28.56-16.49l28.56-16.49l28.56,16.49l28.55,16.49l0.91,0.54l0.94-0.54   l28.55-16.49l28.56-16.49l28.56,16.49l28.56,16.49l0.9,0.45l0.95-0.45l28.55-16.49l28.56-16.49l0.89-0.5L1129.75,1025.3z    M1071.72,1059.88 M1100.27,1009.35l28.55,16.49l-28.55,16.49l-28.56,16.49l-28.56-16.49l-28.56-16.49l28.55-16.49l28.56-16.49   L1100.27,1009.35z M1100.27,942.34l28.55,16.49l-28.55,16.49l-28.56,16.49l-28.56-16.49l-28.56-16.49l28.56-16.49l28.56-16.49   L1100.27,942.34z M1100.27,875.32l28.56,16.49l-28.55,16.49l-28.56,16.49l-28.56-16.49l-28.56-16.49l28.56-16.49l28.56-16.49   L1100.27,875.32z M1100.29,808.3l27.39,15.81h-0.02l1.18,0.68l-28.55,16.49l-28.56,16.49l-10.9-6.3h0.02l-17.66-10.19l-28.56-16.49   l28.55-16.49l28.56-16.49L1100.29,808.3z M1100.28,741.29l28.56,16.49l-28.55,16.49l-28.56,16.49l-28.56-16.49l-28.55-16.49   l28.55-16.49l28.56-16.49L1100.28,741.29z M1100.28,674.27l28.56,16.49l-28.55,16.49l-28.56,16.49l-28.56-16.49l-28.55-16.49   l28.55-16.49l28.56-16.49L1100.28,674.27z M1100.28,607.26l28.56,16.49l-28.56,16.49l-28.56,16.49l-28.56-16.49l-28.55-16.49   l28.55-16.49l28.56-16.49L1100.28,607.26z M1100.28,540.24l28.56,16.49l-28.56,16.49l-28.56,16.49l-28.56-16.49l-28.55-16.49   l28.55-16.49l28.56-16.49L1100.28,540.24z M1100.28,473.23l28.55,16.49l-28.55,16.49l-28.56,16.49l-28.56-16.49l-28.55-16.49   l28.55-16.49l28.56-16.49L1100.28,473.23z M1100.28,406.21l28.55,16.49l-28.55,16.49l-28.56,16.49l-28.56-16.49l-28.56-16.49   l28.56-16.49l28.56-16.49L1100.28,406.21z M1100.27,339.2l28.56,16.49l-28.55,16.49l-28.56,16.49l-28.56-16.49l-28.56-16.49   l28.55-16.49l28.56-16.49L1100.27,339.2z M1100.27,272.18l28.56,16.49l-28.55,16.49l-28.56,16.49l-28.56-16.49l-28.56-16.49   l28.55-16.49l28.56-16.49L1100.27,272.18z M1100.27,205.17l28.55,16.49l-28.55,16.49l-28.56,16.49l-28.56-16.49l-28.56-16.49   l28.55-16.49l28.56-16.49L1100.27,205.17z M1100.27,138.15l28.55,16.49l-28.55,16.49l-28.56,16.49l-28.56-16.49l-28.56-16.49   l28.56-16.49l28.56-16.49L1100.27,138.15z M1100.27,71.14l28.56,16.49l-28.55,16.49l-28.56,16.49l-28.56-16.49l-28.56-16.49   l28.56-16.49l28.56-16.49L1100.27,71.14z" class="st1"/></g><g><g><g><path data-cppathid="10002" d="M359.66,769.58c0,1.41,0.49,2.42,1.28,2.9c0.02,0.01,19.67,10.21,19.7,10.22c0.83,0.44,0.3-0.56,1.55-1.25     c2.52-1.39,4.57-4.77,4.57-7.54c0-1.37,1.32-1.38,0.51-1.84c-0.02-0.01-19.83-10.72-19.83-10.72c-0.85-0.46-1.97-0.38-3.21,0.34     C361.7,763.16,359.66,766.69,359.66,769.58z" class="st2"/><path data-cppathid="10003" d="M333.84,792.7c0,1.41,0.49,2.42,1.28,2.9c0.02,0.01,19.67,10.21,19.7,10.22c0.83,0.44,0.3-0.56,1.55-1.25     c2.52-1.39,4.57-4.77,4.57-7.54c0-1.37,1.32-1.38,0.51-1.84c-0.02-0.01-19.83-10.72-19.83-10.72c-0.85-0.46-1.97-0.38-3.21,0.34     C335.88,786.28,333.84,789.81,333.84,792.7z" class="st2"/><path data-cppathid="10004" d="M350.47,810.86c0,18.73,13.24,26.28,29.56,16.85c16.33-9.43,29.56-32.25,29.56-50.99     c0-18.73-13.24-26.28-29.56-16.85C363.71,769.3,350.47,792.13,350.47,810.86z M359.57,805.61c0-12.97,9.16-28.77,20.47-35.3     c11.3-6.53,20.47-1.3,20.47,11.67c0,12.97-9.16,28.77-20.47,35.3C368.73,823.8,359.57,818.58,359.57,805.61z" class="st3"/><ellipse data-cppathid="10005" ry="24.06" rx="41.68" cy="795.3" cx="382.61" class="st3" transform="matrix(0.5047 -0.8633 0.8633 0.5047 -497.068 724.2301)"/><path data-cppathid="10006" d="M361.58,814.01c0,8.07,2.79,13.79,7.32,16.56c0.14,0.08,47.73,11.02,47.83,11.07     c3.14,1.68,1.13-2.13,5.9-4.77c9.6-5.3,17.39-18.14,17.39-28.68c0-5.21,5.04-5.25,1.95-6.99c-0.09-0.05-35.97-34.12-35.97-34.12     c-4.83-2.62-11.26-2.15-18.34,1.94C373.25,777.34,361.58,797.48,361.58,814.01z" class="st2"/><path data-cppathid="10007" d="M430.46,802.73c9.29-5.36,16.82-1.07,16.82,9.59c0,10.66-7.53,23.64-16.82,29.01     c-9.29,5.36-16.82,1.07-16.82-9.59C413.64,821.08,421.17,808.09,430.46,802.73z" class="st3"/></g></g><path data-cppathid="10008" d="M258.29,722.74l-131.95-76.18c-18.37-10.6-18.41-37.1-0.08-47.76l146.34-85.16" class="st4"/><g><path data-cppathid="10009" d="M432.36,684.89c-4.2,0-8.25-0.88-11.34-2.67l-147.16-84.96c-3.7-2.14-5.82-5.43-5.82-9.05    c0-4.08,2.67-7.96,7.33-10.65l142.68-83.07c7.55-4.36,18.71-4.74,25.41-0.87l147.15,84.96c3.7,2.14,5.82,5.43,5.82,9.05    c0,4.08-2.67,7.96-7.33,10.65l-142.68,83.07C442.36,683.69,437.25,684.89,432.36,684.89z" class="st5"/><g><g><g><g><g><g><path data-cppathid="10010" d="M426.73,275.06c0,0-78.78,7.5-126.23,11.15l125.85,358.41l166.46-96.01c0.03-0.01,0.05-0.03,0.08-0.05          l0.3-0.17l0-0.01c2.08-1.31,3.4-4.17,3.4-8.22V189.85c0-3.7-1.11-7.68-2.89-11.18L426.73,275.06z" class="st6"/><path data-cppathid="10011" d="M586.27,170.15L439.88,85.63c-2.54-1.47-4.87-1.58-6.67-0.58l0,0l-167.13,96.42l7.87,29.14l41.9,119.34          l7.89,4.55L593.7,178.66C591.82,174.98,589.19,171.84,586.27,170.15z" class="st7"/><path data-cppathid="10012" d="M419.27,644.3l-146.39-84.52c-5.69-3.29-10.31-12.11-10.31-19.7V189.77c0-7.59,4.62-11.08,10.31-7.79          l146.39,84.52c5.69,3.29,10.31,12.11,10.31,19.7V636.5C429.58,644.09,424.96,647.58,419.27,644.3z" class="st2"/><path data-cppathid="10013" d="M422.41,264.73l-146.39-84.52c-3.3-1.9-6.22-1.52-8.11,0.6c1.47-0.23,3.17,0.12,4.97,1.16l146.39,84.52          c5.69,3.29,10.31,12.11,10.31,19.7V636.5c0,3.2-0.83,5.65-2.2,7.2c3.18-0.5,5.34-3.77,5.34-8.96V284.43          C432.71,276.84,428.1,268.02,422.41,264.73z" class="st2"/><linearGradient gradientTransform="matrix(0.866 0.5 0 1.1547 340.1914 -1559.1635)" y2="1687.0925" x2="80.3986" y1="1724.3494" x1="-84.0169" gradientUnits="userSpaceOnUse" id="SVGID_00000090278379161475781680000007626691831242248595_"><stop style="stop-color:#3919BB" offset="0"/><stop style="stop-color:#6507FA" offset="1"/></linearGradient><path data-cppathid="10014" d="M410.06,623.21l-127.97-73.88          c-4.98-2.87-9.01-10.58-9.01-17.22V206.76c0-6.64,4.03-9.69,9.01-6.81l127.97,73.88c4.98,2.87,9.01,10.58,9.01,17.22v325.34          C419.07,623.03,415.03,626.08,410.06,623.21z" style="fill:url(#SVGID_00000090278379161475781680000007626691831242248595_);"/><linearGradient gradientTransform="matrix(0.866 0.5 0 1.1547 340.1914 -1559.1635)" y2="1687.0925" x2="80.3986" y1="1724.3494" x1="-84.0169" gradientUnits="userSpaceOnUse" id="SVGID_00000109010189981473049000000004862533073272101289_"><stop style="stop-color:#3919BB" offset="0"/><stop style="stop-color:#6507FA" offset="1"/></linearGradient><path data-cppathid="10015" d="M410.06,623.21l-127.97-73.88          c-4.98-2.87-9.01-10.58-9.01-17.22V206.76c0-6.64,4.03-9.69,9.01-6.81l127.97,73.88c4.98,2.87,9.01,10.58,9.01,17.22v325.34          C419.07,623.03,415.03,626.08,410.06,623.21z" style="fill:url(#SVGID_00000109010189981473049000000004862533073272101289_);"/><path data-cppathid="10016" d="M410.06,623.21l-127.97-73.88c-4.98-2.87-9.01-10.58-9.01-17.22V206.76c0-6.64,4.03-9.69,9.01-6.81          l127.97,73.88c4.98,2.87,9.01,10.58,9.01,17.22v325.34C419.07,623.03,415.03,626.08,410.06,623.21z" class="st10"/><path data-cppathid="10017" d="M414.24,620.75l-127.97-73.88c-4.98-2.87-9.01-10.58-9.01-17.22V204.3c0-2.26,0.48-4.1,1.29-5.43          c-3.22-0.03-5.47,2.93-5.47,7.89V532.1c0,6.64,4.03,14.34,9.01,17.22l127.97,73.88c3.28,1.89,6.14,1.2,7.72-1.38          C416.69,621.82,415.5,621.47,414.24,620.75z" class="st11"/></g></g></g><g><polygon data-cppathid="10018" points="419.07,299.97 286.63,223.5 286.63,265.64 419.07,342.1       " class="st12"/><polygon data-cppathid="10019" points="419.07,366.63 286.63,290.17 286.63,332.31 419.07,408.77       " class="st12"/><polygon data-cppathid="10020" points="419.07,433.3 286.63,356.84 286.63,398.98 419.07,475.44       " class="st12"/><polygon data-cppathid="10021" points="419.07,499.97 286.63,423.51 286.63,465.64 419.07,542.11       " class="st12"/><polygon data-cppathid="10022" points="419.07,566.64 286.63,490.17 286.63,532.31 419.07,608.77       " class="st12"/></g><g><path data-cppathid="10023" d="M407.39,327.09l-99.75-57.59c-2.82-1.63-5.1-5.99-5.1-9.74v-11.28c0-3.76,2.28-5.48,5.1-3.86        l99.75,57.59c2.82,1.63,5.1,5.99,5.1,9.74v11.28C412.49,326.99,410.21,328.71,407.39,327.09z" class="st13"/><path data-cppathid="10024" d="M312.68,267.33c-2.82-1.63-5.1-5.99-5.1-9.74V246.3c0-0.6,0.08-1.13,0.19-1.62l-0.13-0.07        c-2.82-1.63-5.1,0.1-5.1,3.86v11.28c0,3.76,2.28,8.12,5.1,9.74l99.75,57.59c2.37,1.37,4.34,0.35,4.91-2.23L312.68,267.33z" class="st14"/><path data-cppathid="10025" d="M376.09,296.16l-60.03-34.66c-0.99-0.57-1.79-2.11-1.79-3.43l0,0c0-1.32,0.8-1.93,1.79-1.36l60.03,34.66        c0.99,0.57,1.79,2.11,1.79,3.43l0,0C377.88,296.12,377.08,296.73,376.09,296.16z" class="st2"/></g><g><path data-cppathid="10026" d="M407.39,393.34l-99.75-57.59c-2.82-1.63-5.1-5.99-5.1-9.74v-11.28c0-3.76,2.28-5.48,5.1-3.86        l99.75,57.59c2.82,1.63,5.1,5.99,5.1,9.74v11.28C412.49,393.24,410.21,394.97,407.39,393.34z" class="st13"/><path data-cppathid="10027" d="M312.68,333.59c-2.82-1.63-5.1-5.99-5.1-9.74v-11.28c0-0.6,0.08-1.13,0.19-1.62l-0.13-0.07        c-2.82-1.63-5.1,0.1-5.1,3.85v11.28c0,3.76,2.28,8.12,5.1,9.74l99.75,57.59c2.37,1.37,4.34,0.35,4.91-2.23L312.68,333.59z" class="st14"/><path data-cppathid="10028" d="M376.09,362.41l-60.03-34.66c-0.99-0.57-1.79-2.11-1.79-3.43l0,0c0-1.32,0.8-1.93,1.79-1.36l60.03,34.66        c0.99,0.57,1.79,2.11,1.79,3.43l0,0C377.88,362.38,377.08,362.99,376.09,362.41z" class="st2"/></g><g><path data-cppathid="10029" d="M407.39,460.22l-99.75-57.59c-2.82-1.63-5.1-5.99-5.1-9.74V381.6c0-3.76,2.28-5.48,5.1-3.86l99.75,57.59        c2.82,1.63,5.1,5.99,5.1,9.74v11.28C412.49,460.12,410.21,461.84,407.39,460.22z" class="st13"/><path data-cppathid="10030" d="M312.68,400.46c-2.82-1.63-5.1-5.99-5.1-9.74v-11.28c0-0.6,0.08-1.13,0.19-1.62l-0.13-0.07        c-2.82-1.63-5.1,0.1-5.1,3.85v11.28c0,3.76,2.28,8.12,5.1,9.74l99.75,57.59c2.37,1.37,4.34,0.35,4.91-2.23L312.68,400.46z" class="st14"/><path data-cppathid="10031" d="M376.09,429.29l-60.03-34.66c-0.99-0.57-1.79-2.11-1.79-3.43l0,0c0-1.32,0.8-1.93,1.79-1.36l60.03,34.66        c0.99,0.57,1.79,2.11,1.79,3.43l0,0C377.88,429.25,377.08,429.86,376.09,429.29z" class="st15"/></g><g><path data-cppathid="10032" d="M407.39,527.71l-99.75-57.59c-2.82-1.63-5.1-5.99-5.1-9.74v-11.28c0-3.76,2.28-5.48,5.1-3.86        l99.75,57.59c2.82,1.63,5.1,5.99,5.1,9.74v11.28C412.49,527.61,410.21,529.33,407.39,527.71z" class="st13"/><path data-cppathid="10033" d="M312.68,467.95c-2.82-1.63-5.1-5.99-5.1-9.74v-11.28c0-0.6,0.08-1.13,0.19-1.62l-0.13-0.07        c-2.82-1.63-5.1,0.1-5.1,3.86v11.28c0,3.76,2.28,8.12,5.1,9.74l99.75,57.59c2.37,1.37,4.34,0.35,4.91-2.23L312.68,467.95z" class="st14"/><path data-cppathid="10034" d="M376.09,496.78l-60.03-34.66c-0.99-0.57-1.79-2.11-1.79-3.43l0,0c0-1.32,0.8-1.93,1.79-1.36l60.03,34.66        c0.99,0.57,1.79,2.11,1.79,3.43l0,0C377.88,496.74,377.08,497.35,376.09,496.78z" class="st16"/></g><g><path data-cppathid="10035" d="M407.39,593.86l-99.75-57.59c-2.82-1.63-5.1-5.99-5.1-9.74v-11.28c0-3.76,2.28-5.48,5.1-3.86        l99.75,57.59c2.82,1.63,5.1,5.99,5.1,9.74v11.28C412.49,593.76,410.21,595.49,407.39,593.86z" class="st13"/><path data-cppathid="10036" d="M312.68,534.11c-2.82-1.63-5.1-5.99-5.1-9.74v-11.28c0-0.6,0.08-1.13,0.19-1.62l-0.13-0.07        c-2.82-1.63-5.1,0.1-5.1,3.86v11.28c0,3.76,2.28,8.12,5.1,9.74l99.75,57.59c2.37,1.37,4.34,0.35,4.91-2.23L312.68,534.11z" class="st14"/><path data-cppathid="10037" d="M376.09,562.93l-60.03-34.66c-0.99-0.57-1.79-2.11-1.79-3.43l0,0c0-1.32,0.8-1.93,1.79-1.36l60.03,34.66        c0.99,0.57,1.79,2.11,1.79,3.43l0,0C377.88,562.9,377.08,563.5,376.09,562.93z" class="st15"/></g><polygon data-cppathid="10038" points="286.63,223.5 297.06,229.52 297.06,271.66 286.63,265.64      " class="st12"/><polygon data-cppathid="10039" points="286.63,290.17 297.06,296.19 297.06,338.33 286.63,332.31      " class="st12"/><polygon data-cppathid="10040" points="286.63,356.84 297.06,362.86 297.06,405 286.63,398.98      " class="st12"/><polygon data-cppathid="10041" points="286.63,423.51 297.06,429.53 297.06,471.66 286.63,465.64      " class="st12"/><polygon data-cppathid="10042" points="286.63,490.17 297.06,496.19 297.06,538.33 286.63,532.31      " class="st12"/></g><path data-cppathid="10043" d="M387.91,300.32c0,1.35-0.95,1.89-2.11,1.22c-1.17-0.67-2.11-2.31-2.11-3.66c0-1.35,0.95-1.89,2.11-1.22      C386.97,297.33,387.91,298.97,387.91,300.32z" class="st15"/><path data-cppathid="10044" d="M396.86,305.49c0,1.35-0.95,1.89-2.11,1.22c-1.17-0.67-2.11-2.31-2.11-3.66c0-1.35,0.95-1.89,2.11-1.22      C395.92,302.5,396.86,304.14,396.86,305.49z" class="st16"/><ellipse data-cppathid="10045" ry="2.99" rx="1.72" cy="309.44" cx="403.71" class="st15" transform="matrix(0.866 -0.5001 0.5001 0.866 -100.6377 243.3526)"/><path data-cppathid="10046" d="M387.91,366.95c0,1.35-0.95,1.89-2.11,1.22c-1.17-0.67-2.11-2.31-2.11-3.66c0-1.35,0.95-1.89,2.11-1.22      C386.97,363.97,387.91,365.61,387.91,366.95z" class="st16"/><path data-cppathid="10047" d="M396.86,372.12c0,1.35-0.95,1.89-2.11,1.22c-1.17-0.67-2.11-2.31-2.11-3.66c0-1.35,0.95-1.89,2.11-1.22      C395.92,369.14,396.86,370.77,396.86,372.12z" class="st15"/><path data-cppathid="10048" d="M405.82,377.29c0,1.35-0.95,1.89-2.11,1.22c-1.17-0.67-2.11-2.31-2.11-3.66c0-1.35,0.95-1.89,2.11-1.22      C404.87,374.31,405.82,375.94,405.82,377.29z" class="st2"/><path data-cppathid="10049" d="M387.91,434.09c0,1.35-0.95,1.89-2.11,1.22c-1.17-0.67-2.11-2.31-2.11-3.66c0-1.35,0.95-1.89,2.11-1.22      C386.97,431.11,387.91,432.74,387.91,434.09z" class="st2"/><path data-cppathid="10050" d="M396.86,439.26c0,1.35-0.95,1.89-2.11,1.22c-1.17-0.67-2.11-2.31-2.11-3.66c0-1.35,0.95-1.89,2.11-1.22      C395.92,436.27,396.86,437.91,396.86,439.26z" class="st16"/><path data-cppathid="10051" d="M405.82,444.43c0,1.35-0.95,1.89-2.11,1.22c-1.17-0.67-2.11-2.31-2.11-3.66c0-1.35,0.95-1.89,2.11-1.22      C404.87,441.44,405.82,443.08,405.82,444.43z" class="st2"/><path data-cppathid="10052" d="M387.91,500.25c0,1.35-0.95,1.89-2.11,1.22c-1.17-0.67-2.11-2.31-2.11-3.66c0-1.35,0.95-1.89,2.11-1.22      C386.97,497.27,387.91,498.9,387.91,500.25z" class="st2"/><path data-cppathid="10053" d="M396.86,505.42c0,1.35-0.95,1.89-2.11,1.22c-1.17-0.67-2.11-2.31-2.11-3.66c0-1.35,0.95-1.89,2.11-1.22      C395.92,502.43,396.86,504.07,396.86,505.42z" class="st15"/><path data-cppathid="10054" d="M405.82,510.59c0,1.35-0.95,1.89-2.11,1.22c-1.17-0.67-2.11-2.31-2.11-3.66c0-1.35,0.95-1.89,2.11-1.22      C404.87,507.6,405.82,509.24,405.82,510.59z" class="st15"/><path data-cppathid="10055" d="M387.91,567.31c0,1.35-0.95,1.89-2.11,1.22c-1.17-0.67-2.11-2.31-2.11-3.66c0-1.35,0.95-1.89,2.11-1.22      C386.97,564.33,387.91,565.97,387.91,567.31z" class="st2"/><path data-cppathid="10056" d="M396.86,572.48c0,1.35-0.95,1.89-2.11,1.22c-1.17-0.67-2.11-2.31-2.11-3.66c0-1.35,0.95-1.89,2.11-1.22      C395.92,569.5,396.86,571.13,396.86,572.48z" class="st16"/><ellipse data-cppathid="10057" ry="2.99" rx="1.72" cy="576.43" cx="403.71" class="st15" transform="matrix(0.866 -0.5001 0.5001 0.866 -234.1542 279.1344)"/><g><path data-cppathid="10058" d="M451.62,596.94v-298.3l0.62-0.35l124.67-71.98v298.3l-0.62,0.35L451.62,596.94z M454.09,300.07v292.59       l120.35-69.48V230.59L454.09,300.07z" class="st10"/></g><g><path data-cppathid="10059" d="M544.52,360.53l-55.9,32.27c-3.76,2.17-6.8-0.13-6.8-5.14v-30.99c0-5.01,3.04-10.82,6.8-12.99l55.9-32.27       c3.76-2.17,6.8,0.13,6.8,5.14v30.99C551.32,352.54,548.28,358.36,544.52,360.53z" class="st10"/><path data-cppathid="10060" d="M545.88,310.8c0.32,0.87,0.5,1.9,0.5,3.11v30.99c0,5.01-3.04,10.82-6.8,12.99l-55.9,32.27       c-0.46,0.27-0.92,0.47-1.36,0.6c1.01,2.74,3.44,3.68,6.29,2.03l55.9-32.27c3.76-2.17,6.8-7.98,6.8-12.99v-30.99       C551.32,312.16,548.98,309.85,545.88,310.8z" class="st11"/><g><g><path data-cppathid="10061" d="M534.31,341.86c1.03-0.6,1.87-0.11,1.87,1.08V350c0,1.19-0.84,2.64-1.87,3.24         c-1.03,0.6-1.87,0.11-1.87-1.08v-7.06C532.44,343.91,533.28,342.46,534.31,341.86z" class="st2"/><path data-cppathid="10062" d="M526.29,347.37c1.03-0.6,1.87-0.11,1.87,1.08v6.18c0,1.19-0.84,2.64-1.87,3.24         c-1.03,0.6-1.87,0.11-1.87-1.08v-6.18C524.42,349.42,525.26,347.97,526.29,347.37z" class="st15"/><path data-cppathid="10063" d="M518.28,345.11c1.03-0.6,1.87-0.11,1.87,1.08v13.07c0,1.19-0.84,2.64-1.87,3.24         c-1.03,0.6-1.87,0.11-1.87-1.08v-13.07C516.4,347.16,517.24,345.71,518.28,345.11z" class="st16"/><path data-cppathid="10064" d="M510.26,342.21c1.03-0.6,1.87-0.11,1.87,1.08v20.6c0,1.19-0.84,2.64-1.87,3.24         c-1.03,0.6-1.87,0.11-1.87-1.08v-20.6C508.39,344.26,509.22,342.81,510.26,342.21z" class="st15"/><path data-cppathid="10065" d="M502.24,349c1.03-0.6,1.87-0.11,1.87,1.08v18.44c0,1.19-0.84,2.64-1.87,3.24         c-1.03,0.6-1.87,0.11-1.87-1.08v-18.44C500.37,351.05,501.2,349.6,502.24,349z" class="st15"/><path data-cppathid="10066" d="M494.22,362.06c1.03-0.6,1.87-0.11,1.87,1.08v10.02c0,1.19-0.84,2.64-1.87,3.24         c-1.03,0.6-1.87,0.11-1.87-1.08V365.3C492.35,364.1,493.19,362.65,494.22,362.06z" class="st2"/></g><path data-cppathid="10067" d="M532.47,338.3c0,1.17,0.82,1.65,1.84,1.06c1.02-0.59,1.84-2.01,1.84-3.19c0-1.17-0.82-1.65-1.84-1.06        C533.3,335.7,532.47,337.12,532.47,338.3z" class="st16"/><path data-cppathid="10068" d="M532.47,331.66c0,1.17,0.82,1.65,1.84,1.06c1.02-0.59,1.84-2.01,1.84-3.19s-0.82-1.65-1.84-1.06        C533.3,329.06,532.47,330.49,532.47,331.66z" class="st2"/></g></g></g></g></g><g><g><path data-cppathid="10069" d="M219.83,720.99c0,5.83,2.01,9.96,5.28,11.96c0.1,0.06,37.89,35.6,38.05,35.69c5.32,2.84,1.92-3.61,9.99-8.06     c16.25-8.97,29.42-30.69,29.42-48.52c0-8.82,8.52-8.89,3.3-11.83c-0.15-0.08-53.97-13.1-53.97-13.1     c-3.49-1.89-8.13-1.55-13.24,1.4C228.26,694.51,219.83,709.05,219.83,720.99z" class="st7"/><path data-cppathid="10070" d="M255.28,755.1c0,20.29,14.33,28.46,32.01,18.25c17.68-10.21,32.01-34.93,32.01-55.22     c0-20.29-14.33-28.46-32.01-18.25C269.61,710.09,255.28,734.81,255.28,755.1z M265.13,749.41c0-14.05,9.92-31.16,22.16-38.23     c12.24-7.07,22.16-1.41,22.16,12.64s-9.92,31.16-22.16,38.23C275.05,769.11,265.13,763.46,265.13,749.41z" class="st17"/><ellipse data-cppathid="10071" ry="26.06" rx="45.13" cy="738.24" cx="290.09" class="st2" transform="matrix(0.5047 -0.8633 0.8633 0.5047 -493.6425 616.0941)"/><ellipse data-cppathid="10072" ry="18.04" rx="31.24" cy="738.24" cx="290.09" class="st3" transform="matrix(0.5047 -0.8633 0.8633 0.5047 -493.6428 616.095)"/><path data-cppathid="10073" d="M300.52,739.62c3.23-1.86,5.84-6.37,5.84-10.08c0-3.7-2.62-5.19-5.84-3.33c-3.23,1.86-5.84,6.37-5.84,10.08     C294.68,740,297.29,741.49,300.52,739.62z" class="st18"/><path data-cppathid="10074" d="M280.51,752.3c3.23-1.86,5.84-6.37,5.84-10.08c0-3.7-2.62-5.19-5.84-3.33c-3.23,1.86-5.84,6.37-5.84,10.08     C274.67,752.67,277.28,754.16,280.51,752.3z" class="st18"/><g class="st19"><radialGradient gradientUnits="userSpaceOnUse" gradientTransform="matrix(-1 0 0 1 1281.7537 0)" r="17.7406" cy="717.3914" cx="1004.9626" id="SVGID_00000090292474273406988380000018233850441137351587_"><stop style="stop-color:#FFFFFF" offset="0"/><stop style="stop-color:#000000" offset="1"/></radialGradient><path data-cppathid="10075" d="M289.61,701.24      c8.97-5.18,17.07-5.62,22.88-2.16c-5.77-3.16-13.68-2.6-22.41,2.43c-17.68,10.21-32.01,34.93-32.01,55.22      c0,10,3.48,17.05,9.13,20.41c-5.93-3.25-9.6-10.41-9.6-20.69C257.6,736.17,271.93,711.45,289.61,701.24z" style="fill:url(#SVGID_00000090292474273406988380000018233850441137351587_);"/><radialGradient gradientUnits="userSpaceOnUse" gradientTransform="matrix(-1 0 0 1 1281.7537 0)" r="14.1" cy="757.0358" cx="990.6297" id="SVGID_00000171691011578905032980000008444596311572180872_"><stop style="stop-color:#FFFFFF" offset="0"/><stop style="stop-color:#000000" offset="1"/></radialGradient><path data-cppathid="10076" d="M305.52,711.09      c4.15,2.23,6.73,7.2,6.73,14.36c0,14.04-9.92,31.16-22.16,38.23c-6.24,3.6-11.88,3.89-15.91,1.45      c3.99,2.14,9.43,1.74,15.43-1.72c12.24-7.07,22.16-24.18,22.16-38.23C311.78,718.3,309.39,713.44,305.52,711.09z" style="fill:url(#SVGID_00000171691011578905032980000008444596311572180872_);"/></g></g></g><path data-cppathid="10077" d="M772.94,616.79l36.83-19.16c16.17-8.41,35.51-7.96,51.27,1.2l174.29,102.46c17.06,9.91,16.99,34.57-0.12,44.39   L700.44,937.76c-21.1,12.1-47.03,12.11-68.13,0.02L433.33,823.8" class="st4"/><g><g><g><g><g><g><g><path data-cppathid="10078" d="M494.66,785.96c-0.9,0.52-1.43,1.45-1.43,2.48c0,1.04,0.54,1.96,1.43,2.48l161.1,92.59          c6.68,3.86,14.98,3.86,21.66,0l273.61-158c0.9-0.52,1.43-1.45,1.43-2.48c0-1.04-0.54-1.96-1.43-2.48L779.1,621.71          L494.66,785.96z" class="st5"/></g><g><g><path data-cppathid="10079" d="M779.16,564.35l-36.64-217.39l2.95-1.24l-4.43-2.54l0.01,0.03c-0.86-0.57-2.07-0.54-3.41,0.24           L444.8,512.51c-2.4,1.39-4.22,4.95-3.8,7.44l36.93,219.12c0.19,1.14,0.76,1.9,1.54,2.23l0,0l4.33,2.5l0.74-4.04l-0.25,0.07           l291.07-168.05C777.76,570.4,779.58,566.84,779.16,564.35z" class="st2"/><path data-cppathid="10080" d="M446.43,518.46l-4.81-2.13c-0.54,1.23-0.81,2.53-0.62,3.62l36.93,219.12c0.19,1.14,0.76,1.9,1.54,2.23           l0,0l4.33,2.5l0.74-4.04l-0.25,0.07l14.73-8.5L446.43,518.46z" class="st2"/><path data-cppathid="10081" d="M779.95,574.42L487.12,743.49c-2.26,1.31-4.2,0.55-4.59-1.79l-36.93-219.12           c-0.42-2.49,1.4-6.05,3.8-7.44l292.84-169.07c2.26-1.31,4.2-0.55,4.59,1.79l36.93,219.12           C784.18,569.47,782.36,573.03,779.95,574.42z" class="st22"/><g><polygon data-cppathid="10082" points="738.4,360.07 456.13,523.04 491.13,729.4 773.22,566.54           " class="st12"/></g></g><g><path data-cppathid="10083" d="M964.03,678.16l-15.98,8.35L787.8,593.99c-2.68-1.55-7.36-1.35-10.46,0.43L500.96,753.99           c-2.65-1.48-14.7-7.28-14.7-7.28l5.85,15.24c0,0,0.02-0.02,0.02-0.02c0.24,0.68,0.76,1.31,1.64,1.81l168.77,97.44           c2.68,1.55,7.36,1.35,10.46-0.43l282.83-163.29c1.27-0.73,2.05-1.62,2.37-2.52l0.02,0.01L964.03,678.16z" class="st12"/><path data-cppathid="10084" d="M961.56,680.79L671.7,848.14c-3.17,1.83-7.97,2.03-10.72,0.44l-172.97-99.86           c-2.75-1.59-2.4-4.36,0.77-6.19l289.86-167.35c3.17-1.83,7.97-2.03,10.72-0.44l172.97,99.86           C965.08,676.19,964.73,678.96,961.56,680.79z" class="st7"/><path data-cppathid="10085" d="M584.27,811.94v-3.18c0-0.3,0.18-0.44,0.41-0.31l11.21,6.47c0.23,0.13,0.41,0.48,0.41,0.78v3.18           c0,0.3-0.18,0.44-0.41,0.31l-11.21-6.47C584.45,812.59,584.27,812.24,584.27,811.94z" class="st23"/><path data-cppathid="10086" d="M601.04,821.62v-3.18c0-0.3,0.18-0.44,0.41-0.31l11.21,6.47c0.23,0.13,0.41,0.48,0.41,0.78v3.18           c0,0.3-0.18,0.44-0.41,0.31l-11.21-6.47C601.22,822.27,601.04,821.92,601.04,821.62z" class="st23"/><path data-cppathid="10087" d="M533.11,739.37L773.98,600.3c1.61-0.93,3.58-0.93,5.19,0l85.77,49.63c1.23,0.71,1.23,2.49,0,3.2           l-240.76,139c-1.6,0.93-3.58,0.93-5.18,0l-85.89-49.56C531.87,741.86,531.87,740.08,533.11,739.37z" class="st24"/><path data-cppathid="10088" d="M533.11,742.57l0.86,0.5L773.98,604.5c1.61-0.93,3.58-0.93,5.19,0l84.91,49.13l0.86-0.5           c1.23-0.71,1.23-2.49,0-3.2l-85.77-49.63c-1.61-0.93-3.58-0.93-5.19,0L533.11,739.37           C531.87,740.08,531.87,741.86,533.11,742.57z" class="st12"/><g><g><polygon data-cppathid="10089" points="785.64,612.87 576.41,733.67 567.11,728.3 776.34,607.5            " class="st12"/><polygon data-cppathid="10090" points="808.45,626.04 612.2,739.34 602.89,733.97 799.15,620.67            " class="st12"/><polygon data-cppathid="10091" points="823.31,634.61 592.24,768.02 582.94,762.65 814,629.24            " class="st12"/><polygon data-cppathid="10092" points="838.16,643.19 607.1,776.6 597.79,771.22 828.86,637.82            " class="st12"/><polygon data-cppathid="10093" points="853.02,651.77 621.95,785.17 612.65,779.8 843.71,646.4            " class="st12"/><polygon data-cppathid="10094" points="563.77,740.97 554.46,746.34 545.16,740.97 554.46,735.6            " class="st12"/><polygon data-cppathid="10095" points="596.58,748.36 577.27,759.51 567.97,754.14 587.28,742.99            " class="st12"/></g></g><path data-cppathid="10096" d="M783.26,773.02l64.95-37.5c2.54-1.47,2.54-3.84,0-5.31l-44.41-25.64c-2.54-1.47-6.65-1.47-9.19,0           l-64.95,37.5c-2.54,1.47-2.54,3.84,0,5.31l44.41,25.64C776.6,774.49,780.72,774.49,783.26,773.02z" class="st24"/><path data-cppathid="10097" d="M729.65,744.24l64.95-37.5c2.54-1.47,6.65-1.47,9.19,0l44.41,25.64c0.78,0.45,1.3,1,1.6,1.57           c0.67-1.28,0.16-2.73-1.6-3.74l-44.41-25.64c-2.54-1.47-6.65-1.47-9.19,0l-64.95,37.5c-1.76,1.01-2.27,2.46-1.6,3.74           C728.35,745.24,728.87,744.69,729.65,744.24z" class="st12"/></g></g><g class="st25"><defs><polygon data-cppathid="10098" points="738.4,360.07            456.13,523.04 491.13,729.4 773.22,566.54          " class="st25" id="SVGID_00000031893216979740692060000015346032460210878870_"/></defs><clipPath id="SVGID_00000162332809111671559390000002997162003889476020_"><use style="overflow:visible;" xlink:href="#SVGID_00000031893216979740692060000015346032460210878870_"/></clipPath><g style="clip-path:url(#SVGID_00000162332809111671559390000002997162003889476020_);"><linearGradient gradientTransform="matrix(1 0 0 1 749.1564 0)" y2="605.7053" x2="193.0302" y1="605.7053" x1="-285.0007" gradientUnits="userSpaceOnUse" id="SVGID_00000083073086925173640690000014577868002493877892_"><stop style="stop-color:#C0BFF6" offset="0"/><stop style="stop-color:#C5C4F7" offset="0.2938"/><stop style="stop-color:#D3D2F9" offset="0.6399"/><stop style="stop-color:#E9E9FD" offset="1"/></linearGradient><path data-cppathid="10099" d="M778.93,574.83L489.07,742.19           c-3.17,1.83-7.97,2.03-10.72,0.44l-172.97-99.86c-2.75-1.59-2.4-4.36,0.77-6.19l289.86-167.35           c3.17-1.83,7.97-2.03,10.72-0.44l172.97,99.86C782.44,570.23,782.1,573,778.93,574.83z" style="fill:url(#SVGID_00000083073086925173640690000014577868002493877892_);"/><linearGradient gradientTransform="matrix(1 0 0 1 749.1564 0)" y2="570.6144" x2="-194.1007" y1="570.6144" x1="-316.4631" gradientUnits="userSpaceOnUse" id="SVGID_00000080164100241032674340000016925076758779919766_"><stop style="stop-color:#C0BFF6" offset="0"/><stop style="stop-color:#C5C4F7" offset="0.2938"/><stop style="stop-color:#D3D2F9" offset="0.6399"/><stop style="stop-color:#E9E9FD" offset="1"/></linearGradient><path data-cppathid="10100" d="M488.2,604.84l64.95-37.5           c2.54-1.47,2.54-3.84,0-5.31l-44.41-25.64c-2.54-1.47-6.65-1.47-9.19,0l-64.95,37.5c-2.54,1.47-2.54,3.84,0,5.31           l44.41,25.64C481.55,606.3,485.66,606.3,488.2,604.84z" style="fill:url(#SVGID_00000080164100241032674340000016925076758779919766_);"/><path data-cppathid="10101" d="M434.6,576.06l64.95-37.5c2.54-1.47,6.65-1.47,9.19,0l44.41,25.64c0.78,0.45,1.3,1,1.6,1.57           c0.67-1.28,0.16-2.73-1.6-3.74l-44.41-25.64c-2.54-1.47-6.65-1.47-9.19,0l-64.95,37.5c-1.76,1.01-2.27,2.46-1.6,3.74           C433.3,577.06,433.81,576.51,434.6,576.06z" class="st29"/><g><path data-cppathid="10102" d="M406.05,663.44l240.87-139.07c1.61-0.93,3.58-0.93,5.19,0L737.88,574c1.23,0.71,1.23,2.49,0,3.2            l-240.76,139c-1.6,0.93-3.58,0.93-5.18,0l-85.89-49.56C404.81,665.93,404.81,664.15,406.05,663.44z" class="st30"/><path data-cppathid="10103" d="M406.05,666.64l0.86,0.5l240.01-138.57c1.61-0.93,3.58-0.93,5.19,0l84.91,49.13l0.86-0.5            c1.23-0.71,1.23-2.49,0-3.2l-85.77-49.63c-1.61-0.93-3.58-0.93-5.19,0L406.05,663.44            C404.81,664.15,404.81,665.93,406.05,666.64z" class="st29"/><g><polygon data-cppathid="10104" points="715.44,570.61 505.59,691.77 513.91,696.57 723.75,575.41            " class="st31"/><polygon data-cppathid="10105" points="693.33,557.85 493.87,673 502.19,677.8 701.64,562.65            " class="st31"/><polygon data-cppathid="10106" points="478.98,681.6 460.35,692.36 468.67,697.16 487.29,686.4            " class="st31"/><polygon data-cppathid="10107" points="495.43,697.63 482.46,705.12 490.78,709.92 503.75,702.43            " class="st31"/><polygon data-cppathid="10108" points="679.47,549.85 446.5,684.36 454.81,689.16 687.79,554.65            " class="st31"/><polygon data-cppathid="10109" points="665.62,541.85 432.64,676.36 440.96,681.16 673.93,546.65            " class="st31"/><polygon data-cppathid="10110" points="651.77,533.85 418.79,668.36 427.1,673.16 660.08,538.65            " class="st31"/></g></g></g></g></g></g></g><g><g><polygon data-cppathid="10111" points="482.97,533.2 478.75,535.89 478.25,532.77 482.47,530.08       " class="st2"/></g><g><polygon data-cppathid="10112" points="486.36,554.29 482.13,556.98 479.2,538.73 483.43,536.04       " class="st2"/></g><g><polygon data-cppathid="10113" points="487.97,564.38 483.75,567.06 482.59,559.82 486.81,557.13       " class="st2"/></g><g><polygon data-cppathid="10114" points="489.65,574.83 485.43,577.52 484.27,570.27 488.49,567.59       " class="st2"/></g><g><polygon data-cppathid="10115" points="490.89,539.28 486.66,541.97 485.5,534.72 489.72,532.04       " class="st2"/></g><g><polygon data-cppathid="10116" points="493.11,553.13 488.89,555.81 487.18,545.18 491.4,542.49       " class="st2"/></g><g><polygon data-cppathid="10117" points="495.15,565.87 490.93,568.56 489.47,559.44 493.69,556.75       " class="st2"/></g><g><polygon data-cppathid="10118" points="491.33,585.29 487.11,587.97 485.94,580.73 490.17,578.04       " class="st2"/></g><g><polygon data-cppathid="10119" points="489.27,529.19 485.04,531.88 484.54,528.76 488.77,526.08       " class="st2"/></g></g><g><polygon data-cppathid="10120" points="496.1,593.43 488.73,598.12 488.25,595.09 495.62,590.4      " class="st2"/></g></g></g></g></g><g><g><path data-cppathid="10121" d="M509.69,520.4c-3.63,2.23-6.03,7.79-5.36,12.42l13.4,92.2c0.67,4.63,4.11,6.51,7.69,4.21l128.79-80.06    c3.67-2.2,6.17-7.63,5.59-12.15l-11.53-90.05c-0.58-4.52-4.06-6.45-7.79-4.32L509.69,520.4z" class="st32"/></g><g><g><path data-cppathid="10122" d="M549.73,626l0.3,2.13c0.18,1.25,1.61,2.04,2.58,1.42l8.99-5.75c0.45-0.29,0.68-0.82,0.6-1.41l-0.3-2.12     c-0.18-1.25-1.61-2.04-2.59-1.42l-9,5.75C549.87,624.88,549.65,625.41,549.73,626z" class="st2"/></g><g><path data-cppathid="10123" d="M522.87,654.84l0.31,2.14c0.18,1.26,1.61,2.04,2.58,1.42l37.33-24.03c0.45-0.29,0.68-0.83,0.6-1.41     l-0.3-2.13c-0.18-1.25-1.61-2.04-2.58-1.42l-37.35,24.01C523.01,653.71,522.79,654.25,522.87,654.84z" class="st2"/></g><g><path data-cppathid="10124" d="M541.28,666.14l0.31,2.14c0.18,1.26,1.61,2.04,2.57,1.41l21.9-14.17c0.45-0.29,0.68-0.83,0.6-1.41     l-0.3-2.13c-0.18-1.25-1.6-2.03-2.57-1.41l-21.91,14.15C541.42,665.01,541.2,665.56,541.28,666.14z" class="st16"/></g><g><path data-cppathid="10125" d="M530.18,661.73l0.31,2.14c0.18,1.26,1.61,2.04,2.57,1.41l31.51-20.34c0.45-0.29,0.68-0.83,0.6-1.41     l-0.3-2.13c-0.18-1.25-1.6-2.04-2.58-1.41l-31.53,20.32C530.32,660.6,530.1,661.15,530.18,661.73z" class="st2"/></g></g><g><g><path data-cppathid="10126" d="M541.56,577.03c0.99,0.62,1.51,1.63,1.44,2.84l15.08-9.4l5.87-13.43c-0.3,0.03-0.59,0.05-0.88,0.04     c-1.22-0.02-2.2-0.39-2.87-0.98l-5.59,12.8L541.56,577.03z" class="st2"/></g><g><path data-cppathid="10127" d="M613.29,519.2c-0.28,0.61-0.41,1.2-0.41,1.74c-0.01,1.17,0.58,2.14,1.63,2.71     c0.62,0.34,1.39,0.54,2.29,0.56c3.14,0.08,6.71-2.03,7.93-4.72c1.24-2.72-0.35-4.96-3.49-5.04c-0.71-0.02-1.45,0.08-2.18,0.27     c-1.55,0.4-3.05,1.23-4.19,2.32C614.19,517.68,613.64,518.41,613.29,519.2z" class="st16"/></g><g><path data-cppathid="10128" d="M569.11,547.46c1.19,0.43,1.96,1.28,2.18,2.38l43.21-26.19c-1.04-0.57-1.63-1.54-1.63-2.71L569.11,547.46z" class="st2"/></g><g><path data-cppathid="10129" d="M637.15,484.84c-0.43,0.93-0.53,1.81-0.34,2.56c0.27,1.07,1.12,1.88,2.38,2.26     c0.43,0.13,0.91,0.2,1.44,0.22c3.15,0.1,6.75-1.99,8.01-4.68c1.24-2.66-0.33-4.94-3.48-5.04     C642.01,480.06,638.39,482.17,637.15,484.84z" class="st16"/></g><g><path data-cppathid="10130" d="M636.82,487.4l-30.13,17.82l8.18,11.82c1.14-1.08,2.64-1.91,4.19-2.32l-6.49-9.34l26.63-15.72     C637.93,489.28,637.09,488.46,636.82,487.4z" class="st2"/></g><g><path data-cppathid="10131" d="M559.56,552.01c-0.73,1.66-0.42,3.17,0.64,4.1c0.68,0.59,1.66,0.96,2.87,0.98     c0.29,0.01,0.58-0.01,0.88-0.04c2.88-0.31,5.9-2.33,6.99-4.8c0.38-0.86,0.48-1.68,0.34-2.4c-0.21-1.09-0.99-1.95-2.18-2.38     c-0.49-0.18-1.05-0.28-1.68-0.29C564.31,547.1,560.75,549.28,559.56,552.01z" class="st16"/></g><g><path data-cppathid="10132" d="M531.31,581.23c-1.19,2.78,0.38,5.04,3.49,5.09c3.15,0.05,6.62-2.13,7.82-4.9     c0.23-0.54,0.36-1.06,0.39-1.55c0.07-1.21-0.45-2.22-1.44-2.84c-0.64-0.41-1.48-0.65-2.48-0.66     C535.96,576.31,532.49,578.49,531.31,581.23z" class="st16"/></g></g><g><g><g><g><polygon data-cppathid="10133" points="665.02,446.42 719.86,415.55 718.44,403.66 663.54,434.4      " class="st33"/><polygon data-cppathid="10134" points="665.02,446.42 719.86,415.55 718.44,403.66 663.54,434.4      " class="st2"/></g><g><polygon data-cppathid="10135" points="666.98,462.31 699.83,443.59 698.99,436.7 666.13,455.38      " class="st33"/><polygon data-cppathid="10136" points="666.98,462.31 699.83,443.59 698.99,436.7 666.13,455.38      " class="st2"/></g></g><g><g><polygon data-cppathid="10137" points="671.23,496.79 725.68,465.47 724.25,453.58 669.75,484.77      " class="st33"/><polygon data-cppathid="10138" points="671.23,496.79 725.68,465.47 724.25,453.58 669.75,484.77      " class="st2"/></g><g><polygon data-cppathid="10139" points="673.19,512.69 705.81,493.69 704.96,486.8 672.34,505.75      " class="st33"/><polygon data-cppathid="10140" points="673.19,512.69 705.81,493.69 704.96,486.8 672.34,505.75      " class="st2"/></g></g></g><g><g><path data-cppathid="10141" d="M699.35,519.26l3.31,6c-0.36,0.37-0.73,0.75-1.08,1.15c-7.55,8.56-10.11,21.92-5.75,29.83      c0.16,0.28,0.32,0.56,0.5,0.82c0.06,0.1,0.13,0.19,0.19,0.28c3,4.37,7.88,5.5,12.89,3.5c0.78-0.31,1.57-0.7,2.36-1.17      c0.21-0.12,0.42-0.25,0.63-0.39c0.38-0.25,0.67-0.45,0.95-0.65l0.13-0.1c0.62-0.46,1.23-0.96,1.84-1.52      c0.07-0.07,0.15-0.14,0.23-0.21c0.22-0.21,0.45-0.43,0.67-0.65c0.08-0.08,0.16-0.16,0.25-0.25c0.29-0.3,0.58-0.6,0.86-0.92      c0.46-0.52,0.89-1.05,1.31-1.6l3.29,5.98c-0.43,0.54-0.86,1.07-1.31,1.58c-0.4,0.46-0.81,0.9-1.22,1.32      c-0.12,0.12-0.23,0.24-0.35,0.36c-0.31,0.32-0.63,0.63-0.95,0.93c-0.11,0.1-0.21,0.21-0.32,0.3c-0.86,0.79-1.74,1.51-2.61,2.16      c-0.07,0.05-0.14,0.1-0.21,0.15c-0.4,0.3-0.81,0.57-1.21,0.84l-0.14,0.09c-0.28,0.18-0.55,0.35-0.83,0.52      c-0.66,0.39-1.32,0.75-1.98,1.07c-0.5,0.24-0.97,0.44-1.45,0.63c-7.64,3.03-15.06,0.93-19.18-6.55      c-6.19-11.22-2.57-30.21,8.13-42.35C698.63,520.02,698.99,519.64,699.35,519.26z" class="st16"/></g><g><path data-cppathid="10142" d="M721.65,523.12l5.65-6.71c-5-6.4-13.19-7.23-21.14-2.61c-2.32,1.35-4.62,3.17-6.81,5.46l3.31,6.01      c1.45-1.45,2.95-2.63,4.47-3.52C712.54,518.6,718.1,519.03,721.65,523.12z" class="st34"/><path data-cppathid="10143" d="M724.44,528.43c2.15,7.39-0.16,17.55-5.82,24.96l3.29,5.98c8.88-11.14,12.28-26.94,8.26-37.74      L724.44,528.43z" class="st34"/></g></g></g><g><g><path data-cppathid="10144" d="M591.83,617.77c3.35-2.1,6.53-0.37,7.11,3.87c0.58,4.24-1.66,9.39-5,11.5c-3.34,2.11-6.52,0.39-7.1-3.87     C586.25,625.02,588.48,619.87,591.83,617.77z" class="st16"/></g><g><path data-cppathid="10145" d="M622.93,598.38c3.37-2.08,6.55-0.35,7.11,3.87c0.56,4.22-1.71,9.33-5.07,11.42     c-3.38,2.1-6.56,0.38-7.12-3.85C617.28,605.59,619.55,600.47,622.93,598.38z" class="st35"/></g><g><path data-cppathid="10146" d="M654.2,579.2c3.39-2.06,6.59-0.34,7.13,3.86c0.54,4.2-1.78,9.28-5.16,11.35c-3.38,2.07-6.56,0.34-7.1-3.87     C648.51,586.34,650.81,581.26,654.2,579.2z" class="st36"/></g></g></g><g><g><polygon data-cppathid="10147" points="738.4,360.07 456.13,523.04 491.13,729.4 773.22,566.54   " class="st37"/></g></g><g><path data-cppathid="10148" d="M593.93,613.2c0.81,0.46,1.64,0.88,2.5,1.24c0.16,0.07,0.32,0.12,0.48,0.19c0.73,0.29,1.47,0.55,2.24,0.78   c0.26,0.08,0.51,0.15,0.77,0.22c0.86,0.23,1.73,0.42,2.63,0.56c0.08,0.01,0.15,0.03,0.23,0.04c0.97,0.15,1.97,0.23,2.98,0.28   c0.27,0.01,0.55,0.02,0.83,0.02c0.82,0.02,1.65,0,2.49-0.04c0.25-0.01,0.49-0.02,0.74-0.04c1.06-0.08,2.13-0.21,3.22-0.39   c0.23-0.04,0.47-0.09,0.7-0.14c0.9-0.17,1.81-0.37,2.73-0.6c0.32-0.08,0.63-0.16,0.95-0.25c1.14-0.32,2.3-0.67,3.47-1.09   l-13.97-8.12c-7.15,2.57-13.77,3.14-19.56,1.94C589.3,610.02,591.5,611.82,593.93,613.2z" class="st38"/><path data-cppathid="10149" d="M569.77,642.41c-0.16-0.13-0.33-0.25-0.49-0.38c-0.97-0.82-1.9-1.71-2.79-2.64c-0.26-0.27-0.5-0.56-0.75-0.84   c-0.63-0.69-1.25-1.4-1.84-2.14c-0.3-0.37-0.58-0.76-0.87-1.15c-0.52-0.71-1.03-1.43-1.53-2.18c-0.27-0.42-0.55-0.84-0.81-1.27   c-0.5-0.81-0.97-1.66-1.43-2.52c-0.21-0.4-0.43-0.79-0.64-1.2c-0.64-1.29-1.25-2.61-1.81-4l-6.82,4.3c3.1,3.87,6.7,7.02,10.75,9.38   l13.97,8.12c-0.46-0.27-0.89-0.57-1.34-0.86c-0.36-0.23-0.72-0.45-1.07-0.69C571.43,643.73,570.59,643.09,569.77,642.41z" class="st38"/><polygon data-cppathid="10150" points="554.05,555.45 529.61,624.31 543.58,632.43 568.02,563.57  " class="st38"/><path data-cppathid="10151" d="M616.48,615.33c-0.92,0.23-1.83,0.43-2.73,0.6c-0.23,0.04-0.47,0.1-0.7,0.14c-1.09,0.18-2.17,0.31-3.22,0.39   c-0.25,0.02-0.49,0.02-0.74,0.04c-0.84,0.05-1.67,0.06-2.49,0.04c-0.28-0.01-0.56-0.01-0.83-0.02c-1.01-0.05-2.01-0.13-2.98-0.28   c-0.08-0.01-0.15-0.03-0.23-0.04c-0.9-0.14-1.77-0.34-2.63-0.56c-0.26-0.07-0.52-0.14-0.77-0.22c-0.76-0.23-1.51-0.48-2.24-0.78   c-0.16-0.06-0.33-0.12-0.48-0.19c-0.86-0.37-1.69-0.79-2.5-1.24c-2.43-1.38-4.63-3.18-6.56-5.39c-0.55-0.63-1.09-1.3-1.59-2   l11.31-7.14l-29.07-35.11l-24.44,68.86l6.41-4.04l6.82-4.3c0.56,1.39,1.17,2.71,1.81,4c0.2,0.41,0.43,0.8,0.64,1.2   c0.46,0.86,0.93,1.71,1.43,2.52c0.26,0.43,0.54,0.85,0.81,1.27c0.49,0.75,1,1.48,1.53,2.18c0.29,0.39,0.57,0.78,0.87,1.15   c0.59,0.74,1.21,1.45,1.84,2.14c0.25,0.28,0.49,0.57,0.75,0.84c0.9,0.93,1.83,1.81,2.79,2.64c0.16,0.13,0.33,0.25,0.49,0.38   c0.82,0.67,1.66,1.32,2.53,1.91c0.35,0.24,0.71,0.46,1.07,0.69c11.2,7.17,25.98,8.18,42.63,2.18l4.9-33.2   c-1.17,0.42-2.33,0.77-3.47,1.09C617.11,615.17,616.8,615.25,616.48,615.33z" class="st39"/><path data-cppathid="10152" d="M676.08,551.82c4.02-10.97,6.22-21.94,6.19-31.88c-0.02-7.62-1.28-14.32-3.73-19.89l-13.97-8.12   c2.45,5.58,3.71,12.27,3.73,19.89c0.03,9.07-1.82,18.99-5.2,28.99l6.66,3.87L676.08,551.82z" class="st38"/><polygon data-cppathid="10153" points="663.11,540.82 655.81,536.57 632.41,605.47 646.37,613.59 669.77,544.69  " class="st38"/><polygon data-cppathid="10154" points="703.48,474.2 689.52,466.09 664.58,491.93 678.54,500.05  " class="st38"/><path data-cppathid="10155" d="M709.12,504.44c-0.03-11.54-1.91-21.73-5.64-30.24l-24.94,25.85c2.45,5.58,3.71,12.27,3.73,19.89   c0.03,9.94-2.17,20.91-6.19,31.88l-6.31-7.13l-23.4,68.9l53.43-35.04l-7.45-8.43C703.21,547.92,709.18,524.82,709.12,504.44z" class="st39"/><path data-cppathid="10156" d="M630.26,490.3c-4.01,2.32-7.96,5.15-11.77,8.38l8.44,4.91l5.69-14.55   C631.83,489.45,631.04,489.84,630.26,490.3z" class="st38"/><polygon data-cppathid="10157" points="653.8,434.8 639.83,426.68 633.22,443.64 647.18,451.76  " class="st38"/><path data-cppathid="10158" d="M630.17,459.42c5.74-3.32,11.44-5.85,17.01-7.67l-13.97-8.12c-5.57,1.82-11.27,4.35-17.01,7.67   c-14.73,8.51-28.88,21.4-41.04,37.01c-4.05,5.2-7.89,10.7-11.45,16.44c-1.19,1.91-2.34,3.85-3.47,5.82   c-3.37,5.89-6.45,12-9.19,18.27l13.97,8.12C579.63,503.54,603.98,474.54,630.17,459.42z" class="st38"/><path data-cppathid="10159" d="M653.8,434.8l-6.62,16.96c-5.57,1.82-11.27,4.35-17.01,7.67c-26.19,15.12-50.54,44.12-65.14,77.54l22.32,4.44   c7.38-16.91,18.55-32.08,31.14-42.73c3.82-3.23,7.76-6.06,11.77-8.38c0.78-0.45,1.57-0.85,2.35-1.27l-5.69,14.55l53.57-30.64   L653.8,434.8z" class="st39"/></g><g id="XMLID_00000006691331546469259370000010528198842084157353_"><g><polygon data-cppathid="10160" points="630.72,542.03 632.96,532.92 635.26,539.41   " class="st16"/></g><g class="st40"><g><path data-cppathid="10161" d="M569.1,564.51l6.85,16.94l-3.98,2.3l-1.27-3.57l-6.56,3.79l-1.24,5.02l-3.97,2.29l6.7-24.76L569.1,564.51z      M565.14,579.89l4.53-2.62l-2.3-6.49L565.14,579.89" class="st2"/></g><g><polygon data-cppathid="10162" points="565.14,579.89 567.37,570.78 569.68,577.27    " class="st16"/></g></g><g><path data-cppathid="10163" d="M526.59,593.82c0.71,1.12,1.07,2.65,1.07,4.58l0,0.96c0.01,1.94-0.33,3.86-1.03,5.77    c-0.69,1.91-1.67,3.65-2.93,5.21c-1.26,1.56-2.68,2.8-4.27,3.73l-5.62,3.25l-0.06-20.86l5.59-3.23c1.6-0.92,3.02-1.33,4.28-1.23    C524.89,592.1,525.87,592.71,526.59,593.82z M523.88,601.68l0-1.1c-0.01-2.12-0.39-3.51-1.16-4.16c-0.77-0.65-1.89-0.56-3.36,0.29    l-1.85,1.07l0.04,13.92l1.81-1.04c1.46-0.84,2.58-2.04,3.35-3.58C523.47,605.53,523.87,603.73,523.88,601.68" class="st2"/></g><g><path data-cppathid="10164" d="M519.36,596.71c1.47-0.85,2.59-0.94,3.36-0.29c0.77,0.65,1.16,2.04,1.16,4.16l0,1.1    c-0.01,2.06-0.4,3.86-1.17,5.4c-0.77,1.54-1.89,2.73-3.35,3.58l-1.81,1.04l-0.04-13.92L519.36,596.71z" class="st16"/></g><g><polygon data-cppathid="10165" points="542.49,579.87 542.5,583.35 534.1,588.2 534.11,593.17 541.3,589.03 541.3,592.39 534.12,596.54     534.14,602.12 542.57,597.26 542.58,600.71 530.41,607.74 530.35,586.88   " class="st2"/></g><g><path data-cppathid="10166" d="M551.2,574.55c1.3-0.75,2.45-1.14,3.47-1.19c1.01-0.04,1.8,0.27,2.37,0.93c0.56,0.66,0.84,1.62,0.85,2.86    l-3.74,2.16c0-0.95-0.27-1.54-0.79-1.77c-0.53-0.23-1.26-0.07-2.21,0.48c-0.91,0.53-1.62,1.16-2.13,1.9    c-0.5,0.74-0.76,1.47-0.75,2.19c0,0.68,0.3,1.07,0.9,1.19c0.6,0.11,1.47,0.04,2.63-0.23c2.13-0.49,3.68-0.47,4.66,0.05    c0.97,0.53,1.46,1.61,1.47,3.23c0.01,1.8-0.58,3.56-1.77,5.28s-2.78,3.15-4.79,4.31c-1.4,0.81-2.67,1.25-3.82,1.32    c-1.14,0.07-2.02-0.23-2.63-0.9c-0.6-0.68-0.91-1.69-0.91-3.04l3.75-2.16c0.01,2.3,1.21,2.76,3.6,1.38    c0.89-0.51,1.58-1.12,2.08-1.83s0.74-1.43,0.74-2.17c0-0.81-0.25-1.29-0.75-1.44c-0.5-0.15-1.4-0.09-2.7,0.18    c-1.3,0.26-2.33,0.38-3.08,0.35c-2.07-0.09-3.1-1.22-3.1-3.39c0-1.12,0.27-2.29,0.82-3.49c0.55-1.2,1.34-2.35,2.38-3.44    C548.75,576.22,549.92,575.3,551.2,574.55z" class="st2"/></g><g><path data-cppathid="10167" d="M584.31,555.44c2.09-1.21,3.79-1.54,5.07-0.99c1.28,0.55,2.03,1.94,2.24,4.15l-3.74,2.16    c-0.09-1.29-0.42-2.08-0.99-2.36s-1.42-0.09-2.57,0.57c-1.24,0.72-2.18,1.77-2.79,3.16s-0.93,3.16-0.94,5.33l0,1.58    c0.01,2.25,0.3,3.73,0.9,4.43c0.6,0.7,1.54,0.68,2.82-0.06c1.15-0.66,2.02-1.47,2.58-2.4c0.57-0.93,0.89-2.06,0.97-3.37l3.74-2.16    c-0.13,2.33-0.85,4.5-2.15,6.55s-3.01,3.68-5.13,4.9c-2.33,1.35-4.16,1.5-5.5,0.47c-1.34-1.03-2.02-3.12-2.03-6.26l0-1.28    c-0.01-2,0.3-3.95,0.91-5.83c0.61-1.88,1.49-3.56,2.63-5.04C581.48,557.49,582.8,556.31,584.31,555.44z" class="st2"/></g><g><polygon data-cppathid="10168" points="607.32,542.44 607.33,545.92 601.78,549.13 601.82,566.51 598.08,568.67 598.03,551.29     592.55,554.45 592.54,550.98   " class="st2"/></g><g><path data-cppathid="10169" d="M634.67,526.65l6.85,16.94l-3.98,2.3l-1.27-3.57l-6.56,3.79l-1.23,5.02l-3.98,2.3l6.7-24.76L634.67,526.65z     M630.72,542.03l4.54-2.62l-2.3-6.49L630.72,542.03" class="st2"/></g><g><polygon data-cppathid="10170" points="660.96,511.47 661.02,532.33 657.28,534.49 657.22,513.63   " class="st2"/></g><g class="st40"><g><path data-cppathid="10171" d="M727.78,477.47c0.65,1.19,0.97,2.8,0.98,4.85l0,0.93c0.01,2.05-0.3,4.03-0.93,5.95     c-0.63,1.91-1.52,3.62-2.7,5.15c-1.17,1.51-2.52,2.72-4.04,3.6c-1.51,0.87-2.85,1.23-4.03,1.08c-1.18-0.15-2.1-0.81-2.75-1.98     c-0.66-1.17-0.99-2.75-1-4.76l0-1.03c-0.01-2.05,0.31-4.04,0.95-5.98c0.64-1.93,1.54-3.65,2.72-5.17     c1.18-1.52,2.52-2.71,4.03-3.58c1.51-0.87,2.86-1.23,4.04-1.08C726.22,475.6,727.13,476.28,727.78,477.47z M724.98,485.5l0-1.01     c-0.01-2.19-0.35-3.66-1.04-4.4c-0.69-0.74-1.66-0.75-2.92-0.02c-1.26,0.73-2.22,1.85-2.9,3.36c-0.68,1.52-1.02,3.37-1.02,5.53     l0,1.02c0.01,2.13,0.35,3.58,1.04,4.36c0.69,0.78,1.66,0.8,2.95,0.06c1.25-0.72,2.21-1.84,2.89-3.36     C724.64,489.52,724.98,487.68,724.98,485.5" class="st2"/></g><g><path data-cppathid="10172" d="M725.72,458.19c12.64-7.3,22.92-1.44,22.96,13.08c0.04,14.53-10.17,32.22-22.81,39.52L516.83,631.48     c-12.64,7.3-22.92,1.44-22.96-13.09c-0.04-14.52,10.17-32.21,22.81-39.51L725.72,458.19z M637.55,545.88l3.98-2.3l-6.85-16.94     l-3.47,2l-6.7,24.76l3.98-2.3l1.23-5.02l6.56-3.79L637.55,545.88 M571.97,583.74l3.98-2.3l-6.85-16.94l-3.47,2l-6.7,24.76     l3.97-2.29l1.24-5.02l6.56-3.79L571.97,583.74 M691.63,514.66l3.97-2.29l-6.85-16.94l-3.46,2l-6.7,24.76l3.98-2.3l1.23-5.02     l6.56-3.79L691.63,514.66 M728.76,483.25l0-0.93c-0.01-2.05-0.33-3.66-0.98-4.85c-0.65-1.19-1.56-1.86-2.74-2.02     c-1.18-0.15-2.53,0.2-4.04,1.08c-1.51,0.87-2.85,2.07-4.03,3.58c-1.17,1.51-2.08,3.23-2.72,5.17c-0.64,1.93-0.95,3.92-0.95,5.98     l0,1.03c0.01,2.01,0.34,3.59,1,4.76c0.65,1.17,1.57,1.83,2.75,1.98c1.18,0.15,2.53-0.21,4.03-1.08c1.52-0.88,2.87-2.08,4.04-3.6     c1.18-1.53,2.08-3.23,2.7-5.15C728.46,487.28,728.77,485.3,728.76,483.25 M581.5,573.45c-0.6-0.69-0.9-2.17-0.9-4.42l0-1.58     c0.01-2.16,0.32-3.94,0.94-5.33c0.62-1.38,1.55-2.44,2.79-3.16c1.15-0.66,2.01-0.86,2.57-0.57c0.56,0.28,0.89,1.07,0.99,2.36     l3.74-2.16c-0.21-2.21-0.96-3.59-2.24-4.15c-1.28-0.55-2.97-0.22-5.07,0.99c-1.51,0.87-2.83,2.05-3.97,3.52     c-1.14,1.47-2.02,3.16-2.63,5.04c-0.61,1.88-0.92,3.83-0.91,5.83l0,1.28c0.01,3.14,0.69,5.23,2.03,6.26     c1.34,1.03,3.17,0.88,5.5-0.47c2.13-1.23,3.84-2.86,5.13-4.9c1.3-2.04,2.02-4.22,2.15-6.55l-3.74,2.16     c-0.08,1.32-0.4,2.44-0.97,3.37c-0.57,0.94-1.43,1.74-2.58,2.4C583.03,574.12,582.09,574.14,581.5,573.45 M607.33,545.92     l-0.01-3.48l-14.78,8.53l0.01,3.48l5.48-3.17l0.05,17.38l3.74-2.16l-0.05-17.38L607.33,545.92 M549.16,583.29     c-0.6-0.12-0.9-0.51-0.9-1.19c0-0.72,0.25-1.45,0.75-2.19c0.51-0.74,1.22-1.37,2.13-1.9c0.95-0.55,1.69-0.7,2.21-0.48     c0.52,0.23,0.79,0.82,0.79,1.77l3.73-2.16c0-1.25-0.28-2.2-0.85-2.86c-0.56-0.66-1.36-0.96-2.37-0.93     c-1.02,0.05-2.17,0.45-3.47,1.19c-1.29,0.74-2.45,1.67-3.48,2.75c-1.03,1.1-1.82,2.24-2.38,3.44c-0.55,1.2-0.82,2.37-0.82,3.49     c0.01,2.17,1.04,3.3,3.1,3.39c0.75,0.03,1.78-0.08,3.08-0.35c1.3-0.27,2.2-0.33,2.7-0.18c0.5,0.15,0.75,0.63,0.75,1.44     c0,0.74-0.25,1.46-0.74,2.17c-0.5,0.71-1.19,1.31-2.08,1.83c-2.39,1.38-3.6,0.92-3.6-1.38l-3.75,2.16c0,1.35,0.31,2.36,0.91,3.04     c0.61,0.67,1.49,0.96,2.63,0.9c1.15-0.08,2.42-0.52,3.82-1.32c2.01-1.16,3.61-2.6,4.79-4.31c1.18-1.71,1.77-3.47,1.77-5.28     c0-1.62-0.49-2.7-1.47-3.23c-0.97-0.53-2.53-0.54-4.66-0.05C550.64,583.33,549.76,583.41,549.16,583.29 M623.23,547.01     l-0.04-13.73l-3.75,2.17l0.04,13.88c-0.02,2.56-1.09,4.44-3.19,5.66c-1,0.58-1.79,0.72-2.36,0.42c-0.57-0.3-0.85-1.13-0.86-2.5     l-0.04-13.76l-3.74,2.16l0.04,13.9c0.03,2.24,0.67,3.64,1.92,4.21c1.25,0.57,2.94,0.24,5.05-0.98c2.15-1.24,3.85-2.89,5.09-4.94     C622.62,551.46,623.24,549.29,623.23,547.01 M527.66,599.37l0-0.96c-0.01-1.94-0.36-3.47-1.07-4.58     c-0.71-1.12-1.7-1.72-2.96-1.82c-1.26-0.1-2.69,0.31-4.28,1.23l-5.59,3.23l0.06,20.86l5.62-3.25c1.58-0.93,3.01-2.17,4.27-3.73     c1.26-1.56,2.24-3.3,2.93-5.21C527.33,603.23,527.67,601.3,527.66,599.37 M711.14,493.44l0-0.96c-0.01-1.94-0.37-3.46-1.07-4.58     c-0.71-1.12-1.7-1.72-2.96-1.82c-1.26-0.1-2.69,0.31-4.28,1.23l-5.59,3.23l0.06,20.86l5.62-3.24c1.59-0.93,3.01-2.17,4.27-3.73     c1.26-1.56,2.24-3.3,2.93-5.21C710.8,497.3,711.15,495.37,711.14,493.44 M677.6,522.76l-0.01-3.46l-9.15,5.28l8.91-20.11     l-0.01-2.47l-13.61,7.86l0.01,3.48l8.96-5.18l-8.93,20.04l0.01,2.52L677.6,522.76 M542.58,600.71l-0.01-3.46l-8.43,4.87     l-0.02-5.58l7.18-4.15l-0.01-3.37l-7.18,4.15l-0.01-4.97l8.4-4.85l-0.01-3.48l-12.14,7.01l0.06,20.86L542.58,600.71      M654.9,535.86l-0.01-3.46l-7.94,4.59l-0.05-17.4l-3.73,2.16l0.06,20.86L654.9,535.86 M661.02,532.33l-0.06-20.86l-3.73,2.16     l0.06,20.86L661.02,532.33" class="st16"/></g><g><path data-cppathid="10173" d="M723.97,491.04c0.67-1.52,1.01-3.37,1.01-5.54l0-1.01c-0.01-2.19-0.35-3.66-1.04-4.4     c-0.69-0.74-1.66-0.75-2.92-0.02c-1.26,0.73-2.22,1.85-2.9,3.36c-0.68,1.52-1.02,3.37-1.02,5.53l0,1.02     c0.01,2.13,0.35,3.58,1.04,4.36c0.69,0.78,1.67,0.8,2.95,0.06C722.33,493.68,723.29,492.56,723.97,491.04z" class="st16"/></g></g><g><path data-cppathid="10174" d="M710.06,487.89c0.71,1.12,1.07,2.65,1.07,4.58l0,0.96c0.01,1.94-0.34,3.86-1.03,5.77    c-0.69,1.91-1.67,3.65-2.93,5.21c-1.26,1.56-2.68,2.8-4.27,3.73l-5.62,3.24l-0.06-20.86l5.59-3.23c1.59-0.92,3.02-1.33,4.28-1.23    C708.36,486.17,709.35,486.78,710.06,487.89z M707.35,495.75l0-1.1c-0.01-2.12-0.39-3.51-1.16-4.16    c-0.77-0.65-1.89-0.56-3.36,0.29l-1.85,1.07l0.04,13.92l1.81-1.04c1.46-0.84,2.58-2.04,3.35-3.58    C706.95,499.6,707.34,497.8,707.35,495.75" class="st2"/></g><g><path data-cppathid="10175" d="M702.83,490.78c1.47-0.85,2.59-0.94,3.36-0.29c0.76,0.65,1.15,2.04,1.16,4.16l0,1.1    c-0.01,2.05-0.4,3.85-1.17,5.4c-0.77,1.54-1.89,2.73-3.35,3.58l-1.81,1.04l-0.04-13.92L702.83,490.78z" class="st16"/></g><g><polygon data-cppathid="10176" points="684.8,510.81 687.03,501.7 689.33,508.19   " class="st16"/></g><g><path data-cppathid="10177" d="M623.19,533.28l0.04,13.73c0.01,2.28-0.61,4.44-1.85,6.49c-1.24,2.05-2.94,3.69-5.09,4.94    c-2.11,1.22-3.8,1.55-5.05,0.98c-1.26-0.57-1.89-1.97-1.92-4.21l-0.04-13.9l3.74-2.16l0.04,13.76c0,1.36,0.29,2.2,0.86,2.5    c0.58,0.29,1.36,0.15,2.36-0.42c2.11-1.22,3.17-3.1,3.19-5.66l-0.04-13.88L623.19,533.28z" class="st2"/></g><g><polygon data-cppathid="10178" points="646.9,519.59 646.95,536.99 654.89,532.41 654.9,535.86 643.22,542.61 643.16,521.75   " class="st2"/></g><g><polygon data-cppathid="10179" points="677.34,502.02 677.35,504.48 668.44,524.59 677.59,519.3 677.6,522.76 663.78,530.74 663.77,528.22     672.7,508.18 663.74,513.35 663.73,509.87   " class="st2"/></g><g><path data-cppathid="10180" d="M688.74,495.43l6.85,16.94l-3.97,2.29l-1.28-3.57l-6.56,3.79l-1.23,5.02l-3.98,2.3l6.7-24.76L688.74,495.43z     M684.8,510.81l4.53-2.62l-2.3-6.49L684.8,510.81" class="st2"/></g></g></svg>