<?xml version="1.0" encoding="UTF-8"?>
<svg xmlns="http://www.w3.org/2000/svg" onmouseup="{ if(window.parent.document.onmouseup) window.parent.document.onmouseup(arguments[0]);}" viewBox="0 0 211 211" data-name="Capa 28" id="Capa_28"><circle data-cppathid="10000" fill="#fff" r="105.5" cy="105.5" cx="105.5"/><path data-cppathid="10001" fill="#343e48" transform="translate(0 -0.01)" d="M140.92,160.46H70.76V145.21l31.06-34.11A67.16,67.16,0,0,0,111,98.48q2.91-5.55,2.91-9.64c0-3.93-.87-7-2.63-9.33s-4.58-3.43-8.46-3.43a9.66,9.66,0,0,0-8.49,4.47A20,20,0,0,0,91.3,92h-23l-.14-.42A31.43,31.43,0,0,1,77.43,67.8q9.57-9.75,25.38-9.75,16.57,0,25.58,8.15t9,22.43a29.62,29.62,0,0,1-5,17q-5,7.4-18.31,21.81l-12.27,14.7.14.35h39Z"/></svg>