<?xml version="1.0" encoding="UTF-8"?>
<svg xmlns="http://www.w3.org/2000/svg" onmouseup="{ if(window.parent.document.onmouseup) window.parent.document.onmouseup(arguments[0]);}" viewBox="0 0 211 211" data-name="Capa 29" id="Capa_29"><circle data-cppathid="10000" fill="#fff" r="105.5" cy="105.5" cx="105.5"/><path data-cppathid="10001" fill="#343e48" transform="translate(0 -0.01)" d="M103.83,100.21q6.32,0,9.71-3.4t3.39-9.45a10.59,10.59,0,0,0-3.5-8q-3.47-3.3-9.36-3.3a11.34,11.34,0,0,0-7.53,2.6,8.52,8.52,0,0,0-3.08,6.83H70.76l-.14-.41Q70.2,73,80.08,65.52t24-7.49q16.42,0,26.31,7.53t9.88,21.32a21.1,21.1,0,0,1-4.16,12.62,28.45,28.45,0,0,1-11.3,9.08,26.49,26.49,0,0,1,12.62,9,23.81,23.81,0,0,1,4.44,14.59q0,13.88-10.65,21.81t-27.14,7.94q-14.3,0-24.82-7.45t-10.2-21.6l.14-.42H92a10.87,10.87,0,0,0,3.4,8.18,12,12,0,0,0,8.67,3.26,15.27,15.27,0,0,0,10.32-3.53,11,11,0,0,0,4.06-8.7q0-7.35-3.85-10.71t-10.85-3.37H92.74v-17.4Z"/></svg>