<?xml version="1.0" encoding="UTF-8"?>
<svg xmlns="http://www.w3.org/2000/svg" onmouseup="{ if(window.parent.document.onmouseup) window.parent.document.onmouseup(arguments[0]);}" viewBox="0 0 211 211" data-name="Capa 31" id="Capa_31"><circle data-cppathid="10000" fill="#fff" r="105.5" cy="105.5" cx="105.5"/><path data-cppathid="10001" fill="#343e48" transform="translate(0 -0.01)" d="M72.14,116.09,78,59.51h59.14V77.68H97l-2.57,21a23.69,23.69,0,0,1,7.25-3.26,38.46,38.46,0,0,1,9.6-1.39q14.07-.27,21.67,8.63t7.59,25.28q0,14.63-8.46,24.3t-26.62,9.68q-14.42,0-25.06-7.59T70.13,134.25l.07-.41,23-1.39a10.73,10.73,0,0,0,3.37,8.39,12.7,12.7,0,0,0,8.9,3q6.52,0,9.09-3.95t2.56-11.86q0-8.31-3-13.1t-9.43-4.78a12.82,12.82,0,0,0-7.52,2,10.46,10.46,0,0,0-4,5.06Z"/></svg>