<?xml version="1.0" encoding="UTF-8"?>
<svg xmlns="http://www.w3.org/2000/svg" onmouseup="{ if(window.parent.document.onmouseup) window.parent.document.onmouseup(arguments[0]);}" viewBox="0 0 211 211" data-name="Capa 32" id="Capa_32"><defs><style>.cls-1{fill:#fff;}.cls-2{fill:#343e48;}</style></defs><circle data-cppathid="10000" transform="translate(-45.97 105.46) rotate(-45)" r="105.5" cy="107.14" cx="107.07" class="cls-1"/><path data-cppathid="10001" transform="translate(-1.57 -1.64)" d="M112.68,59.69a48.71,48.71,0,0,1,10.4,1,67.28,67.28,0,0,1,10.19,3.22l-4,17.06q-4.84-1.45-8.39-2.18a40.16,40.16,0,0,0-8.11-.73A17.19,17.19,0,0,0,99,84.2q-5.2,6.15-5.2,18.21v1a26.57,26.57,0,0,1,9.4-5.9,35.36,35.36,0,0,1,12.51-2.08q13,0,20.07,9.43t7.11,24.55q0,14.91-9.91,24.54t-25.45,9.64q-16.64,0-26.87-10.89T70.45,122.86V102.54q0-20,11.83-31.41T112.68,59.69Zm-4.78,53.6a24.46,24.46,0,0,0-8.53,1.32,12.89,12.89,0,0,0-5.55,3.74v4.51q0,11,3.61,16.81a11.27,11.27,0,0,0,10.12,5.86,10.14,10.14,0,0,0,8.6-4.68,19.27,19.27,0,0,0,3.33-11.47q0-7.63-3.19-11.86A10,10,0,0,0,107.9,113.29Z" class="cls-2"/></svg>