<?xml version="1.0" encoding="UTF-8"?>
<svg xmlns="http://www.w3.org/2000/svg" onmouseup="{ if(window.parent.document.onmouseup) window.parent.document.onmouseup(arguments[0]);}" xml:space="preserve" enable-background="new 0 0 473.6 89.7" viewBox="0 0 473.6 89.7" y="0px" x="0px" id="over" version="1.1" xmlns:xlink="http://www.w3.org/1999/xlink"><path data-cppathid="10000" d="M44.8,1.5h383.9c23.9,0,43.3,19.4,43.3,43.3l0,0  c0,23.9-19.4,43.3-43.3,43.3H44.8c-23.9,0-43.3-19.4-43.3-43.3l0,0C1.5,20.9,20.9,1.5,44.8,1.5z" stroke-miterlimit="10" stroke-width="3" stroke="#00FFD3" fill="#00FFD3"/><path data-cppathid="10001" d="M83.5,40.8h-7.2v-7h7.2V40.8z M83.5,77.1h-7.2V48.4h7.2V77.1z" fill="#333E48"/><path data-cppathid="10002" d="M115.2,55.9H99.8L96.5,66H89l15.1-43.2h6.9L125.9,66h-7.4L115.2,55.9z M101.8,49.9h11.4l-5.6-17h-0.2  L101.8,49.9z" fill="#333E48"/><path data-cppathid="10003" d="M131.3,66V22.7h14.3c5.5,0,10,1.7,13.4,5.1c3.5,3.5,5.3,8.3,5.1,13.2v6.6c0,5.4-1.7,9.8-5.1,13.2  c-3.4,3.4-7.9,5.1-13.4,5.2H131.3z M138.5,28.5v31.7h7.1c3.1,0.1,6.2-1.2,8.3-3.5c2.1-2.5,3.2-5.7,3.1-9V41c0.1-3.3-1-6.5-3.1-9  c-2.1-2.4-5.1-3.7-8.3-3.5H138.5z" fill="#333E48"/><path data-cppathid="10004" d="M196.1,46.5h-16.9v13.7h20V66H172V22.7h27v5.8h-19.8v12.2h16.9L196.1,46.5L196.1,46.5z" fill="#333E48"/><path data-cppathid="10005" d="M212.9,60.2h20.2V66h-27.5V22.7h7.2v37.5H212.9z" fill="#333E48"/><path data-cppathid="10006" d="M262.3,55.9H247L243.7,66h-7.4l15.1-43.2h6.9L273.1,66h-7.5L262.3,55.9z M249,49.9h11.4l-5.6-17h-0.2  L249,49.9z" fill="#333E48"/><path data-cppathid="10007" d="M312.2,66H305l-19.2-31.2l-0.2,0.1V66h-7.2V22.7h7.2l19.2,31.1l0.2-0.1v-31h7.2V66z" fill="#333E48"/><path data-cppathid="10008" d="M350.6,28.5h-13.4V66H330V28.5h-13.2v-5.8h33.7v5.8H350.6z" fill="#333E48"/><path data-cppathid="10009" d="M380.3,46.5h-16.9v13.7h20V66h-27.2V22.7h27v5.8h-19.8v12.2h16.9V46.5z" fill="#333E48"/><path data-cppathid="10010" d="M397,51.4h-7.2V22.7h7.2V51.4z M397,66h-7.2v-7h7.2V66z" fill="#333E48"/></svg>