<?xml version="1.0" encoding="UTF-8"?>
<svg xmlns="http://www.w3.org/2000/svg" onmouseup="{ if(window.parent.document.onmouseup) window.parent.document.onmouseup(arguments[0]);}" viewBox="0 0 530.43 286.97" data-name="Layer 1" id="Layer_1"><defs><style>.cls-1{fill:#333e48;stroke:#00ffd3;stroke-miterlimit:10;stroke-width:2px;}.cls-2{fill:#0099a8;}.cls-3{fill:#fff;}.cls-4{fill:#f7a800;}.cls-5{fill:#00ffd3;}</style></defs><rect data-cppathid="10000" transform="translate(1230.89 721.19) rotate(180)" rx="26.23" height="284.97" width="528.43" y="435.22" x="701.46" class="cls-1"/><path data-cppathid="10001" transform="translate(-700.46 -434.22)" d="M850.36,506H840.17l-2.12,6.43h-6.59l10.61-29.83h6.46l10.56,29.83H852.5Zm-8.64-4.7h7.11l-3.48-10.51h-.13Z" class="cls-2"/><path data-cppathid="10002" transform="translate(-700.46 -434.22)" d="M887.55,512.4h-6.31l-12.68-20.12-.13,0v20.1h-6.31V482.57h6.31l12.68,20.1.13,0V482.57h6.31Z" class="cls-2"/><path data-cppathid="10003" transform="translate(-700.46 -434.22)" d="M910.13,506h-10.2l-2.12,6.43h-6.59l10.61-29.83h6.46l10.57,29.83h-6.59Zm-8.65-4.7h7.11l-3.48-10.51H905Z" class="cls-2"/><path data-cppathid="10004" transform="translate(-700.46 -434.22)" d="M928.19,507.81h14.09v4.59h-20.4V482.57h6.31Z" class="cls-2"/><path data-cppathid="10005" transform="translate(-700.46 -434.22)" d="M953.21,512.4H946.9V482.57h6.31Z" class="cls-2"/><path data-cppathid="10006" transform="translate(-700.46 -434.22)" d="M965.65,507.81h14.44v4.59H958.22v-3.11l14-22.11h-14v-4.61h21.48v3Z" class="cls-2"/><path data-cppathid="10007" transform="translate(-700.46 -434.22)" d="M1001.26,506h-10.2l-2.12,6.43h-6.59L993,482.57h6.46L1010,512.4h-6.59Zm-8.64-4.7h7.11l-3.48-10.51h-.13Z" class="cls-2"/><path data-cppathid="10008" transform="translate(-700.46 -434.22)" d="M1019.32,500.48V512.4H1013V482.57h10.89c3.59,0,6.39.77,8.42,2.32a7.71,7.71,0,0,1,3,6.49,6.33,6.33,0,0,1-1.28,4,9,9,0,0,1-3.75,2.7,6.78,6.78,0,0,1,4,2.6,8,8,0,0,1,1.22,4.51v2.19a10.23,10.23,0,0,0,.36,2.61,3.51,3.51,0,0,0,1.22,2v.43h-6.51a3.26,3.26,0,0,1-1.11-2.17,17.66,17.66,0,0,1-.25-2.93v-2.11a4.6,4.6,0,0,0-1.28-3.47,5,5,0,0,0-3.65-1.24Zm0-4.61h4.47a6.16,6.16,0,0,0,4-1.07,3.86,3.86,0,0,0,1.29-3.16,4.2,4.2,0,0,0-1.3-3.25,5.44,5.44,0,0,0-3.84-1.21h-4.58Z" class="cls-2"/><path data-cppathid="10009" transform="translate(-700.46 -434.22)" d="M1054.07,512.4h-2.37V481.29h2.37Z" class="cls-3"/><path data-cppathid="10010" transform="translate(-700.46 -434.22)" d="M1074.33,512.4q-.21-1.14-.33-1.95a13.29,13.29,0,0,1-.11-1.68,8.61,8.61,0,0,1-3.13,2.9,9.1,9.1,0,0,1-4.62,1.15,6.76,6.76,0,0,1-4.92-1.69,6.06,6.06,0,0,1-1.75-4.57,5.51,5.51,0,0,1,2.54-4.69,11.1,11.1,0,0,1,6.58-1.79h5.3V497.4a4.62,4.62,0,0,0-1.46-3.63,6,6,0,0,0-4.14-1.31,6.23,6.23,0,0,0-4,1.19,3.72,3.72,0,0,0-1.5,3h-2.22l0-.12a5.1,5.1,0,0,1,2.09-4.28,8.63,8.63,0,0,1,5.75-1.85,8.53,8.53,0,0,1,5.7,1.82,6.41,6.41,0,0,1,2.16,5.2v10.61a17.9,17.9,0,0,0,.13,2.22,13,13,0,0,0,.43,2.13Zm-7.93-1.69a8.56,8.56,0,0,0,4.76-1.31,6.49,6.49,0,0,0,2.73-3.36v-4.13h-5.32a7.92,7.92,0,0,0-4.81,1.39,4,4,0,0,0-1.89,3.34,3.82,3.82,0,0,0,1.21,2.95A4.71,4.71,0,0,0,1066.4,510.71Z" class="cls-3"/><path data-cppathid="10011" transform="translate(-700.46 -434.22)" d="M1095.55,506.88a3.48,3.48,0,0,0-1.24-2.65,10.24,10.24,0,0,0-4.5-1.84,14.76,14.76,0,0,1-5.69-2.18,4.55,4.55,0,0,1-1.87-3.88,5.26,5.26,0,0,1,2.08-4.19,8.44,8.44,0,0,1,5.52-1.72,8.58,8.58,0,0,1,5.76,1.83,5.39,5.39,0,0,1,2.06,4.5l0,.11h-2.22a4,4,0,0,0-1.52-3.09,6,6,0,0,0-4-1.31,5.88,5.88,0,0,0-3.91,1.13,3.43,3.43,0,0,0-1.32,2.66,3.1,3.1,0,0,0,1.13,2.44,11.26,11.26,0,0,0,4.5,1.71,14.46,14.46,0,0,1,5.73,2.33,4.82,4.82,0,0,1,2,4,5.26,5.26,0,0,1-2.19,4.37,9.14,9.14,0,0,1-5.77,1.69,9.32,9.32,0,0,1-6.17-1.87,5.31,5.31,0,0,1-2.13-4.47l0-.12h2.2a4,4,0,0,0,1.9,3.39,8,8,0,0,0,4.16,1.06,6.54,6.54,0,0,0,4.09-1.16A3.44,3.44,0,0,0,1095.55,506.88Z" class="cls-3"/><path data-cppathid="10012" transform="translate(-700.46 -434.22)" d="M795.14,558.78l.06.2q.13,7.75-4.72,12.13t-13.39,4.39q-8.72,0-14.06-5.6t-5.35-14.48v-9.6q0-8.85,5.21-14.48t13.7-5.63q8.83,0,13.83,4.32t4.85,12.17l-.07.19h-9.44c0-3.1-.74-5.41-2.24-6.93s-3.81-2.27-6.93-2.27a7.85,7.85,0,0,0-6.8,3.5,15.51,15.51,0,0,0-2.44,9.06v9.67a15.09,15.09,0,0,0,2.57,9.11,8.39,8.39,0,0,0,7.17,3.53q4.35,0,6.5-2.28t2.14-7Z" class="cls-4"/><path data-cppathid="10013" transform="translate(-700.46 -434.22)" d="M827.38,564.37H811.69l-3.26,10.43H798.29l16.33-48.39h9.93l16.26,48.39H830.67Zm-13.3-7.62H825l-5.35-17h-.2Z" class="cls-4"/><path data-cppathid="10014" transform="translate(-700.46 -434.22)" d="M883.26,526.41v31.67q0,8.19-5.42,12.8t-14.06,4.62q-8.61,0-14-4.62t-5.37-12.8V526.41h9.74v31.67c0,3.24.87,5.71,2.59,7.42a9.59,9.59,0,0,0,7,2.56,9.77,9.77,0,0,0,7.11-2.56q2.63-2.57,2.63-7.42V526.41Z" class="cls-4"/><path data-cppathid="10015" transform="translate(-700.46 -434.22)" d="M916.9,562.17a5.64,5.64,0,0,0-1.95-4.48c-1.3-1.14-3.57-2.2-6.83-3.2q-8.37-2.52-12.71-6a11.23,11.23,0,0,1-4.34-9.34,11.77,11.77,0,0,1,4.88-9.72q4.89-3.76,12.47-3.77,8,0,13,4a12.72,12.72,0,0,1,4.73,10.64l-.06.2h-9.41a7.07,7.07,0,0,0-2.19-5.57,9,9,0,0,0-6.15-1.94,8.06,8.06,0,0,0-5.55,1.73,5.62,5.62,0,0,0-2,4.42,4.84,4.84,0,0,0,2.13,4,28.8,28.8,0,0,0,7.35,3.34q8,2.25,12.16,5.9a12.05,12.05,0,0,1,4.19,9.59,11.54,11.54,0,0,1-4.85,9.8q-4.86,3.6-12.83,3.59a22.91,22.91,0,0,1-13.42-3.89q-5.6-3.89-5.43-11.6l.07-.2h9.4c0,2.86.85,5,2.53,6.32a10.65,10.65,0,0,0,6.85,2,9.37,9.37,0,0,0,5.93-1.63A5.31,5.31,0,0,0,916.9,562.17Z" class="cls-4"/><path data-cppathid="10016" transform="translate(-700.46 -434.22)" d="M959,564.37H943.29L940,574.8H929.89l16.32-48.39h9.94l16.26,48.39H962.27Zm-13.3-7.62h10.94l-5.35-17h-.2Z" class="cls-4"/><path data-cppathid="10017" transform="translate(-700.46 -434.22)" d="M1002.29,562.17a5.64,5.64,0,0,0-1.95-4.48c-1.29-1.14-3.57-2.2-6.83-3.2q-8.37-2.52-12.71-6a11.25,11.25,0,0,1-4.34-9.34,11.75,11.75,0,0,1,4.89-9.72q4.89-3.76,12.46-3.77,8,0,13,4a12.7,12.7,0,0,1,4.74,10.64l-.07.2H1002a7.07,7.07,0,0,0-2.19-5.57,9,9,0,0,0-6.15-1.94,8.09,8.09,0,0,0-5.55,1.73,5.61,5.61,0,0,0-2,4.42,4.85,4.85,0,0,0,2.12,4,28.8,28.8,0,0,0,7.35,3.34q8,2.25,12.17,5.9a12.08,12.08,0,0,1,4.19,9.59,11.53,11.53,0,0,1-4.86,9.8q-4.85,3.6-12.83,3.59a22.85,22.85,0,0,1-13.41-3.89q-5.61-3.89-5.44-11.6l.07-.2h9.41q0,4.29,2.52,6.32a10.67,10.67,0,0,0,6.85,2,9.37,9.37,0,0,0,5.93-1.63A5.28,5.28,0,0,0,1002.29,562.17Z" class="cls-4"/><path data-cppathid="10018" transform="translate(-700.46 -434.22)" d="M1045.8,555.46V574.8h-9.71V526.41h16.76q8.26,0,12.94,3.77t4.67,10.52a10.65,10.65,0,0,1-2,6.43,13.75,13.75,0,0,1-5.77,4.37,10.39,10.39,0,0,1,6.16,4.22,13.34,13.34,0,0,1,1.88,7.32v3.55a17.82,17.82,0,0,0,.55,4.24,5.83,5.83,0,0,0,1.88,3.28v.69h-10a5.42,5.42,0,0,1-1.71-3.52,31.51,31.51,0,0,1-.38-4.75V563.1a7.68,7.68,0,0,0-2-5.63,7.5,7.5,0,0,0-5.6-2Zm0-7.48h6.88c2.73,0,4.75-.58,6.08-1.73a6.41,6.41,0,0,0,2-5.12,7,7,0,0,0-2-5.28,8.11,8.11,0,0,0-5.9-2h-7Z" class="cls-4"/><path data-cppathid="10019" transform="translate(-700.46 -434.22)" d="M1104.7,564.37H1089l-3.26,10.43h-10.13l16.32-48.39h9.94l16.25,48.39H1108Zm-13.29-7.62h10.93l-5.35-17h-.2Z" class="cls-4"/><path data-cppathid="10020" transform="translate(-700.46 -434.22)" d="M1133.16,574.8h-9.71V526.41h9.71Zm-2.93-62H1141l.07.2-9.21,8.64h-8.27Z" class="cls-4"/><path data-cppathid="10021" transform="translate(-700.46 -434.22)" d="M1152.3,567.36h22.21v7.44h-33.64v-5l21.54-35.86H1140.9v-7.48h33v4.85Z" class="cls-4"/><path data-cppathid="10022" transform="translate(-700.46 -434.22)" d="M787.33,609.58a14.06,14.06,0,0,1,2.18-8.27,7,7,0,0,1,6.09-3.1,7.5,7.5,0,0,1,6.64,3.59V589.08h2.4v31.11h-2l-.34-3.13a7.55,7.55,0,0,1-2.79,2.63,8.28,8.28,0,0,1-4,.92,7.14,7.14,0,0,1-6-2.89,12.44,12.44,0,0,1-2.18-7.72Zm2.39.42a11,11,0,0,0,1.56,6.22,5.33,5.33,0,0,0,4.72,2.31,6.74,6.74,0,0,0,3.85-1,6.82,6.82,0,0,0,2.39-2.84V604.43a7.56,7.56,0,0,0-2.31-3,6.19,6.19,0,0,0-3.89-1.16,5.2,5.2,0,0,0-4.74,2.59,12.74,12.74,0,0,0-1.58,6.71Z" class="cls-3"/><path data-cppathid="10023" transform="translate(-700.46 -434.22)" d="M819.2,620.61a8.65,8.65,0,0,1-6.81-3,11.07,11.07,0,0,1-2.61-7.6v-1.1a11.3,11.3,0,0,1,2.64-7.7,8.37,8.37,0,0,1,6.56-3,7.53,7.53,0,0,1,6.07,2.52,10.14,10.14,0,0,1,2.14,6.79v1.86h-15V610a9.78,9.78,0,0,0,1.86,6.12,6.13,6.13,0,0,0,5.16,2.43,9.76,9.76,0,0,0,3.63-.65,7.9,7.9,0,0,0,2.75-1.74l1,1.63a8.78,8.78,0,0,1-3,2A11.28,11.28,0,0,1,819.2,620.61ZM819,600.24a5.8,5.8,0,0,0-4.53,2,8.44,8.44,0,0,0-2.07,5l0,.12H824.8v-.5a7.25,7.25,0,0,0-1.51-4.73A5.23,5.23,0,0,0,819,600.24Z" class="cls-3"/><path data-cppathid="10024" transform="translate(-700.46 -434.22)" d="M844.62,620.19h-2.37V589.08h2.37Z" class="cls-3"/><path data-cppathid="10025" transform="translate(-700.46 -434.22)" d="M849.89,609.08a11.6,11.6,0,0,1,2.61-7.82,9.4,9.4,0,0,1,13.86,0,11.6,11.6,0,0,1,2.62,7.82v.66a11.61,11.61,0,0,1-2.61,7.83,9.43,9.43,0,0,1-13.87,0,11.61,11.61,0,0,1-2.61-7.83Zm2.39.66a10.23,10.23,0,0,0,1.9,6.3,6.7,6.7,0,0,0,10.52,0,10.23,10.23,0,0,0,1.9-6.3v-.66a10.21,10.21,0,0,0-1.91-6.26,6.2,6.2,0,0,0-5.27-2.58,6.14,6.14,0,0,0-5.24,2.58,10.21,10.21,0,0,0-1.9,6.26Z" class="cls-3"/><path data-cppathid="10026" transform="translate(-700.46 -434.22)" d="M886.89,614.66a3.46,3.46,0,0,0-1.25-2.64,10.12,10.12,0,0,0-4.5-1.84,14.75,14.75,0,0,1-5.69-2.19,4.53,4.53,0,0,1-1.87-3.88,5.25,5.25,0,0,1,2.09-4.19,8.4,8.4,0,0,1,5.51-1.71A8.67,8.67,0,0,1,887,600a5.4,5.4,0,0,1,2,4.5l0,.12h-2.21a4,4,0,0,0-1.53-3.09,6,6,0,0,0-4-1.32,5.83,5.83,0,0,0-3.91,1.14A3.4,3.4,0,0,0,876,604a3.09,3.09,0,0,0,1.12,2.45,11.13,11.13,0,0,0,4.5,1.7,14.69,14.69,0,0,1,5.73,2.33,4.83,4.83,0,0,1,2,4,5.28,5.28,0,0,1-2.18,4.38,10.9,10.9,0,0,1-12-.19,5.31,5.31,0,0,1-2.13-4.47l0-.12h2.2a4,4,0,0,0,1.9,3.4,8,8,0,0,0,4.16,1.05,6.54,6.54,0,0,0,4.09-1.15A3.44,3.44,0,0,0,886.89,614.66Z" class="cls-3"/><path data-cppathid="10027" transform="translate(-700.46 -434.22)" d="M922.07,610a12.38,12.38,0,0,1-2.2,7.72,7.15,7.15,0,0,1-6,2.89,8.75,8.75,0,0,1-4-.86,7.24,7.24,0,0,1-2.78-2.43v11.16H904.7V598.61h1.83L907,602a7.66,7.66,0,0,1,2.79-2.78,8,8,0,0,1,4-1,7,7,0,0,1,6.08,3.1,14,14,0,0,1,2.2,8.27Zm-2.4-.42a12.36,12.36,0,0,0-1.63-6.7,5.32,5.32,0,0,0-4.79-2.6,6.27,6.27,0,0,0-3.88,1.14,7.2,7.2,0,0,0-2.28,3v10.45a6.66,6.66,0,0,0,2.37,2.76,6.79,6.79,0,0,0,3.83,1,5.42,5.42,0,0,0,4.76-2.35,10.82,10.82,0,0,0,1.62-6.24Z" class="cls-3"/><path data-cppathid="10028" transform="translate(-700.46 -434.22)" d="M937.28,600.66l-1.69-.12a5.38,5.38,0,0,0-3.7,1.27,6.88,6.88,0,0,0-2.06,3.48v14.9h-2.4V598.61h2.1l.3,3.59v.24a7.67,7.67,0,0,1,2.51-3.11,6.28,6.28,0,0,1,3.75-1.12,4.43,4.43,0,0,1,.83.07q.41.08.66.15Z" class="cls-3"/><path data-cppathid="10029" transform="translate(-700.46 -434.22)" d="M939.64,609.08a11.6,11.6,0,0,1,2.61-7.82,9.4,9.4,0,0,1,13.86,0,11.6,11.6,0,0,1,2.61,7.82v.66a11.6,11.6,0,0,1-2.6,7.83,9.43,9.43,0,0,1-13.87,0,11.61,11.61,0,0,1-2.61-7.83Zm2.39.66a10.29,10.29,0,0,0,1.89,6.3,6.71,6.71,0,0,0,10.53,0,10.29,10.29,0,0,0,1.9-6.3v-.66a10.21,10.21,0,0,0-1.91-6.26,6.65,6.65,0,0,0-10.52,0,10.27,10.27,0,0,0-1.89,6.26Z" class="cls-3"/><path data-cppathid="10030" transform="translate(-700.46 -434.22)" d="M981.1,610a12.44,12.44,0,0,1-2.19,7.72,7.18,7.18,0,0,1-6,2.89,8.33,8.33,0,0,1-4.07-1A7.49,7.49,0,0,1,966,617l-.4,3.23h-1.87V589.08h2.39v12.84a7.45,7.45,0,0,1,6.72-3.71,7,7,0,0,1,6.09,3.1,14.06,14.06,0,0,1,2.19,8.27Zm-2.41-.42a12.55,12.55,0,0,0-1.6-6.71,5.19,5.19,0,0,0-4.72-2.59,6.24,6.24,0,0,0-4,1.21,7.37,7.37,0,0,0-2.28,3.12v9.87a6.37,6.37,0,0,0,6.31,4,5.32,5.32,0,0,0,4.7-2.31,10.89,10.89,0,0,0,1.58-6.22Z" class="cls-3"/><path data-cppathid="10031" transform="translate(-700.46 -434.22)" d="M989.12,620.19h-2.37V589.08h2.37Z" class="cls-3"/><path data-cppathid="10032" transform="translate(-700.46 -434.22)" d="M1003.92,620.61a8.62,8.62,0,0,1-6.8-3,11.07,11.07,0,0,1-2.62-7.6v-1.1a11.26,11.26,0,0,1,2.65-7.7,8.34,8.34,0,0,1,6.55-3,7.53,7.53,0,0,1,6.07,2.52,10.14,10.14,0,0,1,2.15,6.79v1.86h-15V610a9.78,9.78,0,0,0,1.86,6.12,6.13,6.13,0,0,0,5.16,2.43,9.76,9.76,0,0,0,3.63-.65,7.9,7.9,0,0,0,2.75-1.74l1,1.63a8.93,8.93,0,0,1-3,2A11.25,11.25,0,0,1,1003.92,620.61Zm-.22-20.37a5.8,5.8,0,0,0-4.53,2,8.5,8.5,0,0,0-2.07,5l.06.12h12.36v-.5a7.3,7.3,0,0,0-1.5-4.73A5.26,5.26,0,0,0,1003.7,600.24Z" class="cls-3"/><path data-cppathid="10033" transform="translate(-700.46 -434.22)" d="M1018.78,598.61l.22,3.55a7.59,7.59,0,0,1,2.76-2.91,7.81,7.81,0,0,1,4.1-1,6.9,6.9,0,0,1,4.12,1.19,6.5,6.5,0,0,1,2.38,3.62,8.16,8.16,0,0,1,2.78-3.53,7.27,7.27,0,0,1,4.36-1.28,6.49,6.49,0,0,1,5.33,2.29q1.89,2.29,1.89,7.1v12.59h-2.4V607.56c0-2.66-.47-4.53-1.41-5.63a4.89,4.89,0,0,0-3.91-1.65,5.4,5.4,0,0,0-4.23,1.67,8,8,0,0,0-1.89,4.3c0,.14,0,.29,0,.44s0,.33,0,.55v13h-2.42V607.56c0-2.6-.47-4.47-1.42-5.59a4.88,4.88,0,0,0-3.92-1.69,6,6,0,0,0-4,1.27,6.7,6.7,0,0,0-2.09,3.42v15.22h-2.39V598.61Z" class="cls-3"/><path data-cppathid="10034" transform="translate(-700.46 -434.22)" d="M1066.6,620.19c-.15-.76-.26-1.41-.33-2a13,13,0,0,1-.11-1.67,8.69,8.69,0,0,1-3.13,2.9,9.22,9.22,0,0,1-4.63,1.15,6.79,6.79,0,0,1-4.91-1.69,6,6,0,0,1-1.75-4.58,5.5,5.5,0,0,1,2.54-4.68,11.09,11.09,0,0,1,6.58-1.8h5.3v-2.67a4.66,4.66,0,0,0-1.46-3.63,6,6,0,0,0-4.14-1.32,6.15,6.15,0,0,0-4,1.2,3.68,3.68,0,0,0-1.51,3h-2.21l0-.12a5.11,5.11,0,0,1,2.08-4.28,8.67,8.67,0,0,1,5.76-1.84,8.55,8.55,0,0,1,5.7,1.81,6.43,6.43,0,0,1,2.16,5.21v10.61a17.62,17.62,0,0,0,.13,2.21,13.27,13.27,0,0,0,.42,2.14Zm-7.94-1.7a8.56,8.56,0,0,0,4.77-1.3,6.54,6.54,0,0,0,2.73-3.36V609.7h-5.32a8,8,0,0,0-4.81,1.38,4.07,4.07,0,0,0-1.89,3.34,3.86,3.86,0,0,0,1.2,3A4.72,4.72,0,0,0,1058.66,618.49Z" class="cls-3"/><path data-cppathid="10035" transform="translate(-700.46 -434.22)" d="M1087.82,614.66a3.45,3.45,0,0,0-1.24-2.64,10.17,10.17,0,0,0-4.5-1.84,14.87,14.87,0,0,1-5.7-2.19,4.55,4.55,0,0,1-1.86-3.88,5.24,5.24,0,0,1,2.08-4.19,8.43,8.43,0,0,1,5.52-1.71,8.64,8.64,0,0,1,5.76,1.82,5.41,5.41,0,0,1,2.06,4.5l0,.12h-2.22a4,4,0,0,0-1.52-3.09,6,6,0,0,0-4-1.32,5.83,5.83,0,0,0-3.91,1.14,3.41,3.41,0,0,0-1.32,2.65,3.1,3.1,0,0,0,1.13,2.45,11.13,11.13,0,0,0,4.5,1.7,14.83,14.83,0,0,1,5.73,2.33,4.83,4.83,0,0,1,2,4,5.27,5.27,0,0,1-2.19,4.38,9.2,9.2,0,0,1-5.77,1.69,9.32,9.32,0,0,1-6.17-1.88,5.31,5.31,0,0,1-2.13-4.47l0-.12h2.19a4,4,0,0,0,1.91,3.4,8,8,0,0,0,4.16,1.05,6.54,6.54,0,0,0,4.09-1.15A3.45,3.45,0,0,0,1087.82,614.66Z" class="cls-3"/><path data-cppathid="10036" transform="translate(-700.46 -434.22)" d="M1104.69,609.58a14.06,14.06,0,0,1,2.19-8.27,7,7,0,0,1,6.09-3.1,7.5,7.5,0,0,1,6.64,3.59V589.08h2.4v31.11h-2l-.34-3.13a7.55,7.55,0,0,1-2.79,2.63,8.28,8.28,0,0,1-4,.92,7.14,7.14,0,0,1-6-2.89,12.44,12.44,0,0,1-2.19-7.72Zm2.4.42a11,11,0,0,0,1.56,6.22,5.33,5.33,0,0,0,4.72,2.31,6.74,6.74,0,0,0,3.85-1,6.82,6.82,0,0,0,2.39-2.84V604.43a7.56,7.56,0,0,0-2.31-3,6.21,6.21,0,0,0-3.89-1.16,5.2,5.2,0,0,0-4.74,2.59,12.74,12.74,0,0,0-1.58,6.71Z" class="cls-3"/><path data-cppathid="10037" transform="translate(-700.46 -434.22)" d="M1136.57,620.61a8.65,8.65,0,0,1-6.81-3,11.07,11.07,0,0,1-2.61-7.6v-1.1a11.3,11.3,0,0,1,2.64-7.7,8.37,8.37,0,0,1,6.56-3,7.54,7.54,0,0,1,6.07,2.52,10.14,10.14,0,0,1,2.14,6.79v1.86h-15V610a9.78,9.78,0,0,0,1.87,6.12,6.13,6.13,0,0,0,5.16,2.43,9.67,9.67,0,0,0,3.62-.65,7.85,7.85,0,0,0,2.76-1.74l1,1.63a8.78,8.78,0,0,1-3,2A11.28,11.28,0,0,1,1136.57,620.61Zm-.22-20.37a5.8,5.8,0,0,0-4.53,2,8.45,8.45,0,0,0-2.08,5l.06.12h12.37v-.5a7.25,7.25,0,0,0-1.51-4.73A5.23,5.23,0,0,0,1136.35,600.24Z" class="cls-3"/><path data-cppathid="10038" transform="translate(-700.46 -434.22)" d="M835.2,658.23l0,.12a9.11,9.11,0,0,1-2.83,7.28q-2.91,2.63-8,2.63a11.12,11.12,0,0,1-8.43-3.36,12,12,0,0,1-3.22-8.69v-5.76a12.29,12.29,0,0,1,3.14-8.69,10.66,10.66,0,0,1,8.21-3.38q5.31,0,8.3,2.6a8.94,8.94,0,0,1,2.91,7.3l0,.12h-5.66a5.69,5.69,0,0,0-1.35-4.16,5.62,5.62,0,0,0-4.16-1.37A4.71,4.71,0,0,0,820,645a9.39,9.39,0,0,0-1.46,5.44v5.8a9,9,0,0,0,1.54,5.47,5,5,0,0,0,4.3,2.11,5.12,5.12,0,0,0,3.9-1.36,5.93,5.93,0,0,0,1.29-4.2Z" class="cls-5"/><path data-cppathid="10039" transform="translate(-700.46 -434.22)" d="M851.7,667.84a10.92,10.92,0,0,1-.55-1.55,9.6,9.6,0,0,1-.33-1.68,7.94,7.94,0,0,1-2.38,2.61,5.94,5.94,0,0,1-3.51,1,7.24,7.24,0,0,1-5.22-1.75,6.24,6.24,0,0,1-1.84-4.75,5.69,5.69,0,0,1,2.45-4.92c1.63-1.16,4-1.74,7.13-1.74h3.27v-1.72a3.32,3.32,0,0,0-.82-2.41,3.21,3.21,0,0,0-2.43-.86,3.16,3.16,0,0,0-2.19.69,2.41,2.41,0,0,0-.76,1.88h-5.61l0-.12a5.47,5.47,0,0,1,2.38-4.71,10.34,10.34,0,0,1,6.6-2,9.62,9.62,0,0,1,6.29,2,6.8,6.8,0,0,1,2.4,5.6v8.92a17.14,17.14,0,0,0,.23,2.85,14.33,14.33,0,0,0,.73,2.65ZM846.37,664a4.9,4.9,0,0,0,2.71-.76,4.05,4.05,0,0,0,1.64-1.75v-3.05h-3.27a3.87,3.87,0,0,0-2.8.91,3,3,0,0,0-.95,2.26,2.21,2.21,0,0,0,.71,1.74A2.75,2.75,0,0,0,846.37,664Z" class="cls-5"/><path data-cppathid="10040" transform="translate(-700.46 -434.22)" d="M867,667.84h-5.82V636.73H867Z" class="cls-5"/><path data-cppathid="10041" transform="translate(-700.46 -434.22)" d="M877.94,641.1h-5.82v-4.37h5.82Zm0,26.74h-5.82V646.26h5.82Z" class="cls-5"/><path data-cppathid="10042" transform="translate(-700.46 -434.22)" d="M881.83,657.23A14,14,0,0,1,884,649a7.18,7.18,0,0,1,6.22-3.13,6,6,0,0,1,2.91.7,7.11,7.11,0,0,1,2.27,2V636.73h5.85v31.11h-5l-.5-2.65a7.14,7.14,0,0,1-2.41,2.28,6.34,6.34,0,0,1-3.19.79,7.31,7.31,0,0,1-6.18-2.91,12.43,12.43,0,0,1-2.2-7.7Zm5.8.42a8.79,8.79,0,0,0,1,4.46,3.34,3.34,0,0,0,3.11,1.62,4.55,4.55,0,0,0,2.2-.51,4.09,4.09,0,0,0,1.53-1.48v-9.2a4.61,4.61,0,0,0-1.52-1.58,4.06,4.06,0,0,0-2.17-.57,3.29,3.29,0,0,0-3.12,1.89,10.73,10.73,0,0,0-1,5Z" class="cls-5"/><path data-cppathid="10043" transform="translate(-700.46 -434.22)" d="M918.51,667.84a10.92,10.92,0,0,1-.55-1.55,11.88,11.88,0,0,1-.33-1.68,8,8,0,0,1-2.37,2.61,6,6,0,0,1-3.51,1,7.27,7.27,0,0,1-5.23-1.75,6.24,6.24,0,0,1-1.83-4.75,5.68,5.68,0,0,1,2.44-4.92c1.63-1.16,4-1.74,7.13-1.74h3.27v-1.72a3.32,3.32,0,0,0-.82-2.41,3.2,3.2,0,0,0-2.43-.86,3.15,3.15,0,0,0-2.18.69,2.38,2.38,0,0,0-.77,1.88h-5.61l0-.12a5.46,5.46,0,0,1,2.39-4.71,10.31,10.31,0,0,1,6.59-2,9.62,9.62,0,0,1,6.29,2,6.8,6.8,0,0,1,2.4,5.6v8.92a17.14,17.14,0,0,0,.23,2.85,15.15,15.15,0,0,0,.73,2.65ZM913.18,664a5,5,0,0,0,2.72-.76,4.08,4.08,0,0,0,1.63-1.75v-3.05h-3.27a3.87,3.87,0,0,0-2.8.91,3.05,3.05,0,0,0-1,2.26,2.25,2.25,0,0,0,.71,1.74A2.75,2.75,0,0,0,913.18,664Z" class="cls-5"/><path data-cppathid="10044" transform="translate(-700.46 -434.22)" d="M926.82,657.23A14,14,0,0,1,929,649a7.17,7.17,0,0,1,6.21-3.13,6,6,0,0,1,2.91.7,7.15,7.15,0,0,1,2.28,2V636.73h5.84v31.11h-5l-.49-2.65a7.17,7.17,0,0,1-2.42,2.28,6.32,6.32,0,0,1-3.19.79,7.29,7.29,0,0,1-6.17-2.91,12.44,12.44,0,0,1-2.21-7.7Zm5.81.42a8.79,8.79,0,0,0,1,4.46,3.32,3.32,0,0,0,3.11,1.62,4.51,4.51,0,0,0,2.19-.51,4,4,0,0,0,1.54-1.48v-9.2A4.55,4.55,0,0,0,938.9,651a4,4,0,0,0-2.16-.57,3.27,3.27,0,0,0-3.12,1.89,10.73,10.73,0,0,0-1,5Z" class="cls-5"/><path data-cppathid="10045" transform="translate(-700.46 -434.22)" d="M960.05,657.23a14.11,14.11,0,0,1,2.2-8.24,7.18,7.18,0,0,1,6.22-3.13,6,6,0,0,1,2.91.7,7.11,7.11,0,0,1,2.27,2V636.73h5.85v31.11h-5l-.5-2.65a7.14,7.14,0,0,1-2.41,2.28,6.34,6.34,0,0,1-3.19.79,7.31,7.31,0,0,1-6.18-2.91,12.5,12.5,0,0,1-2.2-7.7Zm5.8.42a8.79,8.79,0,0,0,1,4.46,3.34,3.34,0,0,0,3.11,1.62,4.55,4.55,0,0,0,2.2-.51,4.09,4.09,0,0,0,1.53-1.48v-9.2a4.52,4.52,0,0,0-1.52-1.58,4.06,4.06,0,0,0-2.17-.57,3.29,3.29,0,0,0-3.12,1.89,10.73,10.73,0,0,0-1,5Z" class="cls-5"/><path data-cppathid="10046" transform="translate(-700.46 -434.22)" d="M993.36,668.26a9.73,9.73,0,0,1-7.54-3,10.86,10.86,0,0,1-2.71-7.63v-.8a11.81,11.81,0,0,1,2.63-7.94,9,9,0,0,1,7.24-3.07,8.39,8.39,0,0,1,6.67,2.66,10.53,10.53,0,0,1,2.32,7.17v3H989.11l-.06.12a5.8,5.8,0,0,0,1.35,3.59,4.51,4.51,0,0,0,3.58,1.37,11.88,11.88,0,0,0,3.32-.4,13.46,13.46,0,0,0,2.82-1.21l1.57,3.59a10.84,10.84,0,0,1-3.51,1.77A15.47,15.47,0,0,1,993.36,668.26ZM993,650.35a3.22,3.22,0,0,0-2.7,1.21,5.94,5.94,0,0,0-1.15,3.2l0,.1h7.1v-.44a5,5,0,0,0-.78-3A2.87,2.87,0,0,0,993,650.35Z" class="cls-5"/><path data-cppathid="10047" transform="translate(-700.46 -434.22)" d="M1016,667.84v-29h10.14a12,12,0,0,1,8.77,3.4,11.74,11.74,0,0,1,3.45,8.73v4.8a11.68,11.68,0,0,1-3.45,8.73,12,12,0,0,1-8.77,3.38Zm5.83-24.55v20.08h4.31a5.67,5.67,0,0,0,4.62-2.14,8.4,8.4,0,0,0,1.76-5.5v-4.84a8.35,8.35,0,0,0-1.76-5.47,5.69,5.69,0,0,0-4.62-2.13Z" class="cls-5"/><path data-cppathid="10048" transform="translate(-700.46 -434.22)" d="M1055.28,667.84a14.13,14.13,0,0,1-.55-1.55,10.6,10.6,0,0,1-.32-1.68,7.94,7.94,0,0,1-2.38,2.61,5.94,5.94,0,0,1-3.51,1,7.24,7.24,0,0,1-5.22-1.75,6.21,6.21,0,0,1-1.84-4.75,5.69,5.69,0,0,1,2.45-4.92q2.43-1.74,7.13-1.74h3.27v-1.72a3.37,3.37,0,0,0-.82-2.41,3.24,3.24,0,0,0-2.44-.86,3.15,3.15,0,0,0-2.18.69,2.41,2.41,0,0,0-.77,1.88h-5.6l0-.12a5.47,5.47,0,0,1,2.38-4.71,10.31,10.31,0,0,1,6.59-2,9.65,9.65,0,0,1,6.3,2,6.8,6.8,0,0,1,2.4,5.6v8.92a17.14,17.14,0,0,0,.23,2.85,13.59,13.59,0,0,0,.73,2.65ZM1050,664a4.92,4.92,0,0,0,2.71-.76,4.11,4.11,0,0,0,1.64-1.75v-3.05H1051a3.89,3.89,0,0,0-2.81.91,3,3,0,0,0-.94,2.26,2.24,2.24,0,0,0,.7,1.74A2.79,2.79,0,0,0,1050,664Z" class="cls-5"/><path data-cppathid="10049" transform="translate(-700.46 -434.22)" d="M1071.48,641v5.28h3.65v4.09h-3.65v11a2.46,2.46,0,0,0,.53,1.79,1.84,1.84,0,0,0,1.38.54,4.75,4.75,0,0,0,.8,0,5.87,5.87,0,0,0,.78-.17l.48,4.21a12.05,12.05,0,0,1-1.71.45,10.08,10.08,0,0,1-1.8.15,6.18,6.18,0,0,1-4.64-1.66c-1.08-1.1-1.63-2.85-1.63-5.24v-11h-3.15v-4.09h3.15V641Z" class="cls-5"/><path data-cppathid="10050" transform="translate(-700.46 -434.22)" d="M1077.82,656.85a11.62,11.62,0,0,1,2.69-7.91,9.4,9.4,0,0,1,7.46-3.08,9.52,9.52,0,0,1,7.5,3.07,11.52,11.52,0,0,1,2.71,7.92v.42a11.55,11.55,0,0,1-2.7,7.93,10.67,10.67,0,0,1-15,0,11.55,11.55,0,0,1-2.7-7.93Zm5.8.42a9.41,9.41,0,0,0,1,4.74,4,4,0,0,0,6.65,0,9.34,9.34,0,0,0,1-4.73v-.42a9.16,9.16,0,0,0-1.06-4.68,3.93,3.93,0,0,0-6.63,0,9.32,9.32,0,0,0-1.05,4.68Z" class="cls-5"/><path data-cppathid="10051" transform="translate(-700.46 -434.22)" d="M1113.44,661.86a2,2,0,0,0-.93-1.65,9.29,9.29,0,0,0-3.44-1.2,13.72,13.72,0,0,1-5.75-2.3,5,5,0,0,1-2-4.17,5.94,5.94,0,0,1,2.36-4.72,9.44,9.44,0,0,1,6.26-2,10.18,10.18,0,0,1,6.55,2,5.69,5.69,0,0,1,2.36,4.86l0,.12h-5.62a2.81,2.81,0,0,0-.84-2.11,3.29,3.29,0,0,0-2.41-.82,3.26,3.26,0,0,0-2.21.7,2.15,2.15,0,0,0-.82,1.71,1.93,1.93,0,0,0,.85,1.63,9.5,9.5,0,0,0,3.44,1.13,14,14,0,0,1,5.91,2.34,5.13,5.13,0,0,1,1.94,4.26,5.68,5.68,0,0,1-2.49,4.76,10.72,10.72,0,0,1-6.58,1.86,10,10,0,0,1-6.81-2.18,6.11,6.11,0,0,1-2.38-5l0-.12h5.32a3,3,0,0,0,1.14,2.51,4.67,4.67,0,0,0,2.81.78,4,4,0,0,0,2.46-.65A2.09,2.09,0,0,0,1113.44,661.86Z" class="cls-5"/></svg>