<?xml version="1.0" encoding="UTF-8"?>
<svg xmlns="http://www.w3.org/2000/svg" onmouseup="{ if(window.parent.document.onmouseup) window.parent.document.onmouseup(arguments[0]);}" viewBox="0 0 530.43 286.97" data-name="Layer 1" id="Layer_1"><defs><style>.cls-1{fill:#333e48;stroke:#00ffd3;stroke-miterlimit:10;stroke-width:2px;}.cls-2{fill:#0099a8;}.cls-3{fill:#fff;}.cls-4{fill:#f7a800;}.cls-5{fill:#00ffd3;}</style></defs><rect data-cppathid="10000" transform="translate(1230.6 719.85) rotate(180)" rx="26.23" height="284.97" width="528.43" y="433.89" x="701.17" class="cls-1"/><path data-cppathid="10001" transform="translate(-700.17 -432.89)" d="M854.42,534.07V502.61h11a13,13,0,0,1,9.51,3.69,12.68,12.68,0,0,1,3.73,9.45V521a12.65,12.65,0,0,1-3.73,9.45,13,13,0,0,1-9.51,3.66Zm6.31-26.6v21.76h4.67a6.14,6.14,0,0,0,5-2.32,9.07,9.07,0,0,0,1.9-5.95v-5.25a9,9,0,0,0-1.9-5.92,6.17,6.17,0,0,0-5-2.32Z" class="cls-2"/><path data-cppathid="10002" transform="translate(-700.17 -432.89)" d="M901.68,520.24H890v9h13.87v4.84H883.7V502.61h20.14v4.86H890v7.91h11.67Z" class="cls-2"/><path data-cppathid="10003" transform="translate(-700.17 -432.89)" d="M926.7,521H914.62v13.07h-6.31V502.61H928.9v4.86H914.62v8.67H926.7Z" class="cls-2"/><path data-cppathid="10004" transform="translate(-700.17 -432.89)" d="M939.66,534.07h-6.31V502.61h6.31Z" class="cls-2"/><path data-cppathid="10005" transform="translate(-700.17 -432.89)" d="M971.33,534.07H965l-12.69-21.22-.13,0v21.19H945.9V502.61h6.31l12.68,21.2.14,0V502.61h6.3Z" class="cls-2"/><path data-cppathid="10006" transform="translate(-700.17 -432.89)" d="M983.87,534.07h-6.31V502.61h6.31Z" class="cls-2"/><path data-cppathid="10007" transform="translate(-700.17 -432.89)" d="M996.42,521.5v12.57h-6.31V502.61H1001q5.38,0,8.41,2.46a8.27,8.27,0,0,1,3,6.83,6.86,6.86,0,0,1-1.29,4.18,8.86,8.86,0,0,1-3.74,2.85,6.74,6.74,0,0,1,4,2.74,8.65,8.65,0,0,1,1.22,4.75v2.31a11.38,11.38,0,0,0,.36,2.76,3.83,3.83,0,0,0,1.22,2.13v.45h-6.5a3.44,3.44,0,0,1-1.11-2.29,19.49,19.49,0,0,1-.25-3.09v-2.22a5,5,0,0,0-1.29-3.67,4.88,4.88,0,0,0-3.64-1.3Zm0-4.86h4.47a5.94,5.94,0,0,0,4-1.13,4.17,4.17,0,0,0,1.29-3.32,4.54,4.54,0,0,0-1.31-3.44,5.27,5.27,0,0,0-3.83-1.28h-4.58Z" class="cls-2"/><path data-cppathid="10008" transform="translate(-700.17 -432.89)" d="M1032.25,534.07h-2.37V503h2.37Z" class="cls-3"/><path data-cppathid="10009" transform="translate(-700.17 -432.89)" d="M1037.52,523a11.59,11.59,0,0,1,2.61-7.81,9.38,9.38,0,0,1,13.86,0,11.59,11.59,0,0,1,2.62,7.81v.66a11.61,11.61,0,0,1-2.61,7.83,9.43,9.43,0,0,1-13.87,0,11.61,11.61,0,0,1-2.61-7.83Zm2.39.66a10.23,10.23,0,0,0,1.9,6.3,6.68,6.68,0,0,0,10.52,0,10.23,10.23,0,0,0,1.9-6.3V523a10.23,10.23,0,0,0-1.91-6.26,6.22,6.22,0,0,0-5.27-2.57,6.15,6.15,0,0,0-5.24,2.57,10.23,10.23,0,0,0-1.9,6.26Z" class="cls-3"/><path data-cppathid="10010" transform="translate(-700.17 -432.89)" d="M1074.52,528.55a3.5,3.5,0,0,0-1.25-2.65,10.24,10.24,0,0,0-4.5-1.84,14.76,14.76,0,0,1-5.69-2.18,4.55,4.55,0,0,1-1.87-3.88,5.24,5.24,0,0,1,2.09-4.19,8.41,8.41,0,0,1,5.51-1.72,8.58,8.58,0,0,1,5.76,1.83,5.36,5.36,0,0,1,2.06,4.5l0,.12h-2.21a4,4,0,0,0-1.53-3.1,6,6,0,0,0-4-1.31,5.88,5.88,0,0,0-3.91,1.13,3.42,3.42,0,0,0-1.31,2.66,3.07,3.07,0,0,0,1.12,2.44,11.11,11.11,0,0,0,4.5,1.71,14.4,14.4,0,0,1,5.73,2.33,4.82,4.82,0,0,1,2,4,5.31,5.31,0,0,1-2.18,4.38,11,11,0,0,1-12-.19,5.31,5.31,0,0,1-2.13-4.47l0-.12h2.2a4,4,0,0,0,1.9,3.39,8,8,0,0,0,4.16,1.06,6.54,6.54,0,0,0,4.09-1.16A3.42,3.42,0,0,0,1074.52,528.55Z" class="cls-3"/><path data-cppathid="10011" transform="translate(-700.17 -432.89)" d="M788.65,578.8H770.7v13.83H792v7.44H761v-48.4h31v7.48H770.7v12.17h17.95Z" class="cls-4"/><path data-cppathid="10012" transform="translate(-700.17 -432.89)" d="M824.08,587.44a5.68,5.68,0,0,0-1.94-4.49q-1.95-1.69-6.83-3.19-8.38-2.52-12.72-6a11.25,11.25,0,0,1-4.34-9.34,11.74,11.74,0,0,1,4.89-9.72Q808,551,815.6,551q8.05,0,12.95,4a12.7,12.7,0,0,1,4.74,10.64l-.07.2h-9.41a7.06,7.06,0,0,0-2.19-5.57,8.93,8.93,0,0,0-6.15-1.94,8.14,8.14,0,0,0-5.55,1.72,5.64,5.64,0,0,0-2,4.42,4.81,4.81,0,0,0,2.13,4,28,28,0,0,0,7.34,3.34q8,2.26,12.17,5.9a12.11,12.11,0,0,1,4.19,9.59,11.53,11.53,0,0,1-4.86,9.81q-4.84,3.59-12.83,3.59a23,23,0,0,1-13.41-3.89q-5.6-3.89-5.43-11.6l.06-.2h9.41c0,2.86.84,5,2.53,6.32a10.62,10.62,0,0,0,6.84,2,9.34,9.34,0,0,0,5.94-1.63A5.27,5.27,0,0,0,824.08,587.44Z" class="cls-4"/><path data-cppathid="10013" transform="translate(-700.17 -432.89)" d="M874.67,559.15H860.85v40.92h-9.71V559.15H837.51v-7.48h37.16Z" class="cls-4"/><path data-cppathid="10014" transform="translate(-700.17 -432.89)" d="M901.6,589.63H885.91l-3.26,10.44H872.51l16.32-48.4h9.94L915,600.07H904.89ZM888.3,582h10.94l-5.35-17h-.2Zm7.25-44h10.8l.07.2-9.21,8.64h-8.28Z" class="cls-4"/><path data-cppathid="10015" transform="translate(-700.17 -432.89)" d="M958.8,600.07h-9.7l-19.52-32.64-.19,0v32.61h-9.71v-48.4h9.71l19.51,32.61.2,0V551.67h9.7Z" class="cls-4"/><path data-cppathid="10016" transform="translate(-700.17 -432.89)" d="M967.71,600.07v-48.4H984.6a20,20,0,0,1,14.62,5.67,19.52,19.52,0,0,1,5.75,14.54v8q0,8.9-5.75,14.54a20,20,0,0,1-14.62,5.63Zm9.71-40.92v33.48h7.18a9.46,9.46,0,0,0,7.71-3.58,14,14,0,0,0,2.92-9.15v-8.08a13.87,13.87,0,0,0-2.92-9.11,9.5,9.5,0,0,0-7.71-3.56Z" class="cls-4"/><path data-cppathid="10017" transform="translate(-700.17 -432.89)" d="M1037.28,589.63h-15.69l-3.25,10.44H1008.2l16.32-48.4h9.94l16.25,48.4h-10.14ZM1024,582h10.93l-5.35-17h-.2Z" class="cls-4"/><path data-cppathid="10018" transform="translate(-700.17 -432.89)" d="M1065.07,580.73v19.34h-9.7v-48.4h16.75q8.28,0,13,3.78t4.67,10.52a10.61,10.61,0,0,1-2,6.43,13.75,13.75,0,0,1-5.77,4.37,10.44,10.44,0,0,1,6.17,4.22,13.39,13.39,0,0,1,1.88,7.31v3.56a17.86,17.86,0,0,0,.54,4.24,5.8,5.8,0,0,0,1.88,3.27v.7h-10a5.38,5.38,0,0,1-1.72-3.52,31.64,31.64,0,0,1-.38-4.76v-3.42a7.68,7.68,0,0,0-2-5.63,7.48,7.48,0,0,0-5.6-2Zm0-7.48H1072q4.1,0,6.09-1.73a6.4,6.4,0,0,0,2-5.12,7.05,7.05,0,0,0-2-5.29,8.16,8.16,0,0,0-5.9-2h-7Z" class="cls-4"/><path data-cppathid="10019" transform="translate(-700.17 -432.89)" d="M1126.4,578.8h-18v13.83h21.34v7.44h-31v-48.4h31v7.48h-21.27v12.17h18Z" class="cls-4"/><path data-cppathid="10020" transform="translate(-700.17 -432.89)" d="M1161.83,587.44a5.65,5.65,0,0,0-1.94-4.49q-2-1.69-6.83-3.19-8.38-2.52-12.72-6a11.25,11.25,0,0,1-4.33-9.34,11.73,11.73,0,0,1,4.88-9.72q4.89-3.78,12.47-3.77,8,0,12.94,4a12.7,12.7,0,0,1,4.74,10.64l-.07.2h-9.4a7,7,0,0,0-2.2-5.57,8.93,8.93,0,0,0-6.15-1.94,8.14,8.14,0,0,0-5.55,1.72,5.67,5.67,0,0,0-2,4.42,4.81,4.81,0,0,0,2.13,4,28.12,28.12,0,0,0,7.35,3.34q8,2.26,12.16,5.9a12.11,12.11,0,0,1,4.19,9.59,11.55,11.55,0,0,1-4.85,9.81q-4.86,3.59-12.83,3.59a23,23,0,0,1-13.42-3.89q-5.6-3.89-5.43-11.6l.06-.2h9.41c0,2.86.84,5,2.53,6.32a10.63,10.63,0,0,0,6.85,2,9.31,9.31,0,0,0,5.93-1.63A5.27,5.27,0,0,0,1161.83,587.44Z" class="cls-4"/><path data-cppathid="10021" transform="translate(-700.17 -432.89)" d="M785.83,634.85a14.14,14.14,0,0,1,2.18-8.27,7,7,0,0,1,6.1-3.1,7.5,7.5,0,0,1,6.64,3.59V614.34h2.39v31.12h-1.95l-.34-3.14a7.49,7.49,0,0,1-2.79,2.64,8.28,8.28,0,0,1-4,.92A7.2,7.2,0,0,1,788,643a12.51,12.51,0,0,1-2.18-7.73Zm2.39.41a10.93,10.93,0,0,0,1.57,6.23,5.31,5.31,0,0,0,4.72,2.31,6.7,6.7,0,0,0,3.84-1,6.77,6.77,0,0,0,2.4-2.84V629.7a7.68,7.68,0,0,0-2.32-3,6.16,6.16,0,0,0-3.88-1.16,5.2,5.2,0,0,0-4.74,2.58,12.69,12.69,0,0,0-1.59,6.72Z" class="cls-3"/><path data-cppathid="10022" transform="translate(-700.17 -432.89)" d="M817.7,645.88a8.63,8.63,0,0,1-6.8-3,11.08,11.08,0,0,1-2.61-7.61v-1.09a11.3,11.3,0,0,1,2.64-7.7,8.34,8.34,0,0,1,6.55-3,7.53,7.53,0,0,1,6.07,2.52,10.14,10.14,0,0,1,2.15,6.79v1.86h-15v.65a9.83,9.83,0,0,0,1.86,6.13,6.16,6.16,0,0,0,5.16,2.43,9.89,9.89,0,0,0,3.63-.65,7.9,7.9,0,0,0,2.75-1.74l1,1.63a8.88,8.88,0,0,1-3,2A11.3,11.3,0,0,1,817.7,645.88Zm-.22-20.37a5.83,5.83,0,0,0-4.53,2,8.5,8.5,0,0,0-2.07,5l.06.12H823.3v-.5a7.3,7.3,0,0,0-1.5-4.73A5.22,5.22,0,0,0,817.48,625.51Z" class="cls-3"/><path data-cppathid="10023" transform="translate(-700.17 -432.89)" d="M861.76,635.84l0,.12a9.07,9.07,0,0,1-2.84,7.28q-2.91,2.64-8,2.64a11.14,11.14,0,0,1-8.44-3.37,12,12,0,0,1-3.21-8.68v-5.77a12.26,12.26,0,0,1,3.13-8.68,10.66,10.66,0,0,1,8.22-3.38c3.53,0,6.3.86,8.29,2.59a8.92,8.92,0,0,1,2.92,7.3l0,.12h-5.67a5.75,5.75,0,0,0-1.34-4.16,5.63,5.63,0,0,0-4.16-1.36,4.71,4.71,0,0,0-4.08,2.1,9.27,9.27,0,0,0-1.47,5.43v5.81a9,9,0,0,0,1.55,5.46,5,5,0,0,0,4.3,2.12,5.13,5.13,0,0,0,3.9-1.37,6,6,0,0,0,1.28-4.2Z" class="cls-5"/><path data-cppathid="10024" transform="translate(-700.17 -432.89)" d="M878.25,645.46a12.47,12.47,0,0,1-.55-1.56,11.35,11.35,0,0,1-.33-1.68,8,8,0,0,1-2.37,2.62,5.94,5.94,0,0,1-3.51,1,7.33,7.33,0,0,1-5.23-1.75,6.26,6.26,0,0,1-1.83-4.76,5.67,5.67,0,0,1,2.44-4.91q2.45-1.76,7.13-1.75h3.27V631a3.4,3.4,0,0,0-.81-2.42,3.23,3.23,0,0,0-2.44-.85,3.2,3.2,0,0,0-2.18.68,2.42,2.42,0,0,0-.77,1.89h-5.6l0-.12a5.47,5.47,0,0,1,2.38-4.72,10.36,10.36,0,0,1,6.59-2,9.67,9.67,0,0,1,6.29,1.95A6.8,6.8,0,0,1,883.1,631V640a16.13,16.13,0,0,0,.23,2.85,14.38,14.38,0,0,0,.72,2.66Zm-5.32-3.89a5,5,0,0,0,2.71-.76,4,4,0,0,0,1.63-1.76v-3H874a3.89,3.89,0,0,0-2.8.92,3,3,0,0,0-1,2.25,2.25,2.25,0,0,0,.71,1.75A2.82,2.82,0,0,0,872.93,641.57Z" class="cls-5"/><path data-cppathid="10025" transform="translate(-700.17 -432.89)" d="M893.59,645.46h-5.83V614.34h5.83Z" class="cls-5"/><path data-cppathid="10026" transform="translate(-700.17 -432.89)" d="M904.5,618.71h-5.83v-4.37h5.83Zm0,26.75h-5.83V623.88h5.83Z" class="cls-5"/><path data-cppathid="10027" transform="translate(-700.17 -432.89)" d="M908.39,634.85a14,14,0,0,1,2.2-8.24,7.15,7.15,0,0,1,6.21-3.13,6,6,0,0,1,2.91.7,6.92,6.92,0,0,1,2.28,2V614.34h5.84v31.12h-5l-.49-2.66a7.3,7.3,0,0,1-2.42,2.29,6.42,6.42,0,0,1-3.19.79,7.31,7.31,0,0,1-6.17-2.92,12.41,12.41,0,0,1-2.2-7.7Zm5.8.41a8.77,8.77,0,0,0,1,4.46,3.31,3.31,0,0,0,3.11,1.63,4.49,4.49,0,0,0,2.19-.51,4.07,4.07,0,0,0,1.54-1.49v-9.19a4.49,4.49,0,0,0-1.53-1.59,4,4,0,0,0-2.16-.57,3.28,3.28,0,0,0-3.12,1.9,10.67,10.67,0,0,0-1,5Z" class="cls-5"/><path data-cppathid="10028" transform="translate(-700.17 -432.89)" d="M945.06,645.46a14.31,14.31,0,0,1-.55-1.56,10.18,10.18,0,0,1-.32-1.68,7.87,7.87,0,0,1-2.38,2.62,5.94,5.94,0,0,1-3.51,1,7.29,7.29,0,0,1-5.22-1.75,6.23,6.23,0,0,1-1.84-4.76,5.68,5.68,0,0,1,2.45-4.91c1.62-1.17,4-1.75,7.12-1.75h3.28V631a3.41,3.41,0,0,0-.82-2.42,3.23,3.23,0,0,0-2.44-.85,3.2,3.2,0,0,0-2.18.68,2.42,2.42,0,0,0-.77,1.89h-5.6l0-.12a5.5,5.5,0,0,1,2.38-4.72,10.36,10.36,0,0,1,6.59-2,9.7,9.7,0,0,1,6.3,1.95,6.82,6.82,0,0,1,2.4,5.61V640a17.14,17.14,0,0,0,.23,2.85,13.68,13.68,0,0,0,.73,2.66Zm-5.32-3.89a5,5,0,0,0,2.71-.76,4.13,4.13,0,0,0,1.64-1.76v-3h-3.28a3.89,3.89,0,0,0-2.8.92,3,3,0,0,0-.94,2.25,2.25,2.25,0,0,0,.7,1.75A2.84,2.84,0,0,0,939.74,641.57Z" class="cls-5"/><path data-cppathid="10029" transform="translate(-700.17 -432.89)" d="M953.38,634.85a14,14,0,0,1,2.2-8.24,7.15,7.15,0,0,1,6.21-3.13,6,6,0,0,1,2.92.7,7,7,0,0,1,2.27,2V614.34h5.84v31.12h-5l-.5-2.66a7.27,7.27,0,0,1-2.41,2.29,6.45,6.45,0,0,1-3.19.79,7.32,7.32,0,0,1-6.18-2.92,12.41,12.41,0,0,1-2.2-7.7Zm5.8.41a8.77,8.77,0,0,0,1,4.46,3.32,3.32,0,0,0,3.11,1.63,4.55,4.55,0,0,0,2.2-.51,4.12,4.12,0,0,0,1.53-1.49v-9.19a4.56,4.56,0,0,0-1.52-1.59,4.06,4.06,0,0,0-2.17-.57,3.3,3.3,0,0,0-3.12,1.9,10.67,10.67,0,0,0-1,5Z" class="cls-5"/><path data-cppathid="10030" transform="translate(-700.17 -432.89)" d="M986.61,634.85a14,14,0,0,1,2.2-8.24,7.15,7.15,0,0,1,6.21-3.13,6,6,0,0,1,2.91.7,6.92,6.92,0,0,1,2.28,2V614.34h5.84v31.12h-5l-.5-2.66a7.3,7.3,0,0,1-2.42,2.29,6.42,6.42,0,0,1-3.19.79,7.31,7.31,0,0,1-6.17-2.92,12.41,12.41,0,0,1-2.2-7.7Zm5.8.41a8.77,8.77,0,0,0,1,4.46,3.32,3.32,0,0,0,3.11,1.63,4.49,4.49,0,0,0,2.19-.51,4.07,4.07,0,0,0,1.54-1.49v-9.19a4.49,4.49,0,0,0-1.53-1.59,4,4,0,0,0-2.16-.57,3.29,3.29,0,0,0-3.12,1.9,10.67,10.67,0,0,0-1,5Z" class="cls-5"/><path data-cppathid="10031" transform="translate(-700.17 -432.89)" d="M1019.91,645.88a9.71,9.71,0,0,1-7.54-3,10.83,10.83,0,0,1-2.71-7.63v-.79a11.85,11.85,0,0,1,2.63-7.94,8.94,8.94,0,0,1,7.24-3.07,8.41,8.41,0,0,1,6.68,2.66,10.58,10.58,0,0,1,2.32,7.17v3h-12.87l-.06.12A5.9,5.9,0,0,0,1017,640a4.5,4.5,0,0,0,3.58,1.38,12.21,12.21,0,0,0,3.32-.4,13.52,13.52,0,0,0,2.82-1.22l1.58,3.59a10.85,10.85,0,0,1-3.51,1.78A15.58,15.58,0,0,1,1019.91,645.88Zm-.38-17.92a3.24,3.24,0,0,0-2.7,1.21,6.14,6.14,0,0,0-1.15,3.2l0,.1h7.1V632a5.12,5.12,0,0,0-.77-3A2.9,2.9,0,0,0,1019.53,628Z" class="cls-5"/><path data-cppathid="10032" transform="translate(-700.17 -432.89)" d="M1042.53,645.46v-29h10.13a12,12,0,0,1,8.78,3.4,11.69,11.69,0,0,1,3.44,8.72v4.81a11.7,11.7,0,0,1-3.44,8.73,12.06,12.06,0,0,1-8.78,3.38Zm5.82-24.56V641h4.31a5.7,5.7,0,0,0,4.63-2.15,8.37,8.37,0,0,0,1.75-5.49V628.5a8.3,8.3,0,0,0-1.75-5.46,5.72,5.72,0,0,0-4.63-2.14Z" class="cls-5"/><path data-cppathid="10033" transform="translate(-700.17 -432.89)" d="M1081.84,645.46a11.05,11.05,0,0,1-.55-1.56,11.35,11.35,0,0,1-.33-1.68,8,8,0,0,1-2.37,2.62,6,6,0,0,1-3.51,1,7.31,7.31,0,0,1-5.23-1.75,6.26,6.26,0,0,1-1.83-4.76,5.67,5.67,0,0,1,2.44-4.91c1.63-1.17,4-1.75,7.13-1.75h3.27V631a3.36,3.36,0,0,0-.82-2.42,3.87,3.87,0,0,0-4.61-.17,2.39,2.39,0,0,0-.77,1.89h-5.61l0-.12a5.48,5.48,0,0,1,2.39-4.72,10.36,10.36,0,0,1,6.59-2,9.67,9.67,0,0,1,6.29,1.95,6.83,6.83,0,0,1,2.41,5.61V640a17.17,17.17,0,0,0,.22,2.85,15.25,15.25,0,0,0,.73,2.66Zm-5.33-3.89a5,5,0,0,0,2.72-.76,4.1,4.1,0,0,0,1.63-1.76v-3h-3.27a3.87,3.87,0,0,0-2.8.92,3,3,0,0,0-1,2.25,2.25,2.25,0,0,0,.71,1.75A2.81,2.81,0,0,0,1076.51,641.57Z" class="cls-5"/><path data-cppathid="10034" transform="translate(-700.17 -432.89)" d="M1098,618.59v5.29h3.65V628H1098v11a2.53,2.53,0,0,0,.53,1.8,1.86,1.86,0,0,0,1.39.54,6.22,6.22,0,0,0,.8,0,6.12,6.12,0,0,0,.77-.17l.48,4.21a11.52,11.52,0,0,1-1.7.44,9.38,9.38,0,0,1-1.81.16,6.2,6.2,0,0,1-4.63-1.66q-1.63-1.65-1.63-5.25V628h-3.15v-4.08h3.15v-5.29Z" class="cls-5"/><path data-cppathid="10035" transform="translate(-700.17 -432.89)" d="M1104.38,634.47a11.55,11.55,0,0,1,2.69-7.91,9.36,9.36,0,0,1,7.46-3.08,9.48,9.48,0,0,1,7.5,3.07,11.57,11.57,0,0,1,2.71,7.92v.42a11.53,11.53,0,0,1-2.7,7.92,10.65,10.65,0,0,1-15,0,11.53,11.53,0,0,1-2.7-7.92Zm5.8.42a9.39,9.39,0,0,0,1,4.73,3.58,3.58,0,0,0,3.35,1.79,3.55,3.55,0,0,0,3.3-1.8,9.28,9.28,0,0,0,1-4.72v-.42a9.28,9.28,0,0,0-1.05-4.69,3.59,3.59,0,0,0-3.33-1.82,3.52,3.52,0,0,0-3.3,1.83,9.32,9.32,0,0,0-1,4.68Z" class="cls-5"/><path data-cppathid="10036" transform="translate(-700.17 -432.89)" d="M1140,639.47a2,2,0,0,0-.93-1.64,9.52,9.52,0,0,0-3.44-1.21,13.71,13.71,0,0,1-5.76-2.29,5,5,0,0,1-2-4.17,6,6,0,0,1,2.35-4.73,9.52,9.52,0,0,1,6.27-1.95,10.28,10.28,0,0,1,6.55,1.95,5.72,5.72,0,0,1,2.36,4.87l0,.12h-5.62a2.83,2.83,0,0,0-.84-2.12,4,4,0,0,0-4.63-.12,2.2,2.2,0,0,0-.82,1.72,2,2,0,0,0,.85,1.63,9.61,9.61,0,0,0,3.44,1.12,13.88,13.88,0,0,1,5.92,2.35,5.15,5.15,0,0,1,1.94,4.25,5.71,5.71,0,0,1-2.49,4.77,10.77,10.77,0,0,1-6.59,1.86,10,10,0,0,1-6.81-2.19,6.13,6.13,0,0,1-2.38-5l0-.12h5.33a3,3,0,0,0,1.13,2.52,4.7,4.7,0,0,0,2.81.78,4,4,0,0,0,2.47-.65A2.12,2.12,0,0,0,1140,639.47Z" class="cls-5"/></svg>