<?xml version="1.0" encoding="UTF-8"?>
<svg xmlns="http://www.w3.org/2000/svg" onmouseup="{ if(window.parent.document.onmouseup) window.parent.document.onmouseup(arguments[0]);}" viewBox="0 0 530.43 286.97" data-name="Layer 1" id="Layer_1"><defs><style>.cls-1{fill:#333e48;stroke:#00ffd3;stroke-miterlimit:10;stroke-width:2px;}.cls-2{fill:#f7a800;}.cls-3{fill:#fff;}.cls-4{fill:#00ffd3;}</style></defs><rect data-cppathid="10000" transform="translate(1232.39 718.97) rotate(180)" rx="26.23" height="284.97" width="528.43" y="433" x="702.96" class="cls-1"/><path data-cppathid="10001" transform="translate(-701.96 -432)" d="M874.62,539.23H868.8v-29h5.82Z" class="cls-2"/><path data-cppathid="10002" transform="translate(-701.96 -432)" d="M885.35,517.65l.24,2.85a7.13,7.13,0,0,1,2.61-2.4,7.42,7.42,0,0,1,3.62-.85,6.63,6.63,0,0,1,3.55.92,5.67,5.67,0,0,1,2.23,2.77,7.42,7.42,0,0,1,2.59-2.71,7.08,7.08,0,0,1,3.75-1,6.18,6.18,0,0,1,5,2.26c1.23,1.51,1.84,3.82,1.84,6.91v12.81H905V526.41a6.1,6.1,0,0,0-.8-3.62,2.84,2.84,0,0,0-2.37-1,4,4,0,0,0-2.15.55,4,4,0,0,0-1.44,1.52,6.23,6.23,0,0,0,0,.65c0,.18,0,.36,0,.55v14.18h-5.81V526.41a6.07,6.07,0,0,0-.79-3.58,2.83,2.83,0,0,0-2.4-1.05,4.5,4.5,0,0,0-2.06.45,4.06,4.06,0,0,0-1.47,1.26v15.74H880V517.65Z" class="cls-2"/><path data-cppathid="10003" transform="translate(-701.96 -432)" d="M934.76,529a12.39,12.39,0,0,1-2.22,7.7,7.32,7.32,0,0,1-6.18,2.91,6.9,6.9,0,0,1-3-.63,6.16,6.16,0,0,1-2.26-1.85v10.36h-5.8V517.65h5.25l.33,2.55a6.93,6.93,0,0,1,2.31-2.18,6.24,6.24,0,0,1,3.14-.77,7.17,7.17,0,0,1,6.22,3.13,14,14,0,0,1,2.22,8.24Zm-5.83-.42a10.44,10.44,0,0,0-1-5,3.31,3.31,0,0,0-3.11-1.89,4.4,4.4,0,0,0-2.24.54,3.87,3.87,0,0,0-1.47,1.53v9.46a3.58,3.58,0,0,0,1.47,1.39,4.93,4.93,0,0,0,2.28.48,3.34,3.34,0,0,0,3.1-1.65,8.74,8.74,0,0,0,1-4.49Z" class="cls-2"/><path data-cppathid="10004" transform="translate(-701.96 -432)" d="M951.57,536a7.32,7.32,0,0,1-2.53,2.67,6.7,6.7,0,0,1-3.57.94,6.54,6.54,0,0,1-5.34-2.32q-1.92-2.31-1.92-7.18v-12.5H944v12.54a7,7,0,0,0,.77,3.88,2.74,2.74,0,0,0,2.38,1,5.76,5.76,0,0,0,2.39-.45,4.08,4.08,0,0,0,1.64-1.32v-15.7H957v21.58h-4.82Z" class="cls-2"/><path data-cppathid="10005" transform="translate(-701.96 -432)" d="M967.52,539.23H961.7V508.12h5.82Z" class="cls-2"/><path data-cppathid="10006" transform="translate(-701.96 -432)" d="M984,533.25a2,2,0,0,0-.93-1.65,9.44,9.44,0,0,0-3.44-1.21,13.61,13.61,0,0,1-5.75-2.29,5,5,0,0,1-2-4.17,6,6,0,0,1,2.35-4.72,9.47,9.47,0,0,1,6.27-2,10.2,10.2,0,0,1,6.55,2,5.69,5.69,0,0,1,2.36,4.86l0,.12h-5.62a2.81,2.81,0,0,0-.84-2.11,3.91,3.91,0,0,0-4.63-.12,2.18,2.18,0,0,0-.82,1.71,2,2,0,0,0,.85,1.63,9.49,9.49,0,0,0,3.44,1.12,14.14,14.14,0,0,1,5.92,2.35,5.16,5.16,0,0,1,1.94,4.26,5.68,5.68,0,0,1-2.49,4.76,10.76,10.76,0,0,1-6.58,1.86,10,10,0,0,1-6.81-2.19,6.09,6.09,0,0,1-2.39-5l0-.12h5.33a3,3,0,0,0,1.13,2.51,4.71,4.71,0,0,0,2.82.78,4,4,0,0,0,2.46-.65A2.11,2.11,0,0,0,984,533.25Z" class="cls-2"/><path data-cppathid="10007" transform="translate(-701.96 -432)" d="M1006.1,539.23a10.62,10.62,0,0,1-.55-1.56,9.31,9.31,0,0,1-.33-1.67,7.94,7.94,0,0,1-2.38,2.61,5.94,5.94,0,0,1-3.51,1,7.24,7.24,0,0,1-5.22-1.75,6.22,6.22,0,0,1-1.84-4.75,5.69,5.69,0,0,1,2.45-4.92c1.63-1.16,4-1.74,7.13-1.74h3.27v-1.72a3.32,3.32,0,0,0-.82-2.41,3.21,3.21,0,0,0-2.43-.86,3.18,3.18,0,0,0-2.19.69,2.39,2.39,0,0,0-.76,1.88h-5.61l0-.12a5.47,5.47,0,0,1,2.38-4.71,10.34,10.34,0,0,1,6.6-2,9.62,9.62,0,0,1,6.29,2,6.8,6.8,0,0,1,2.4,5.6v8.91a17.17,17.17,0,0,0,.23,2.86,14.33,14.33,0,0,0,.73,2.65Zm-5.33-3.89a4.9,4.9,0,0,0,2.71-.76,4.05,4.05,0,0,0,1.64-1.75v-3.05h-3.27a3.91,3.91,0,0,0-2.81.91,3,3,0,0,0-.94,2.26,2.21,2.21,0,0,0,.71,1.74A2.79,2.79,0,0,0,1000.77,535.34Z" class="cls-2"/><path data-cppathid="10008" transform="translate(-701.96 -432)" d="M1026.66,522.66l-2.14-.06a4,4,0,0,0-2.13.53,3.48,3.48,0,0,0-1.28,1.52v14.58h-5.8V517.65h5.4l.26,3.19a6.79,6.79,0,0,1,2-2.64,4.38,4.38,0,0,1,2.78-1,4.14,4.14,0,0,1,.81.07c.24,0,.49.1.75.17Z" class="cls-2"/><path data-cppathid="10009" transform="translate(-701.96 -432)" d="M1043.21,539.23h-2.37V508.12h2.37Z" class="cls-3"/><path data-cppathid="10010" transform="translate(-701.96 -432)" d="M1063.47,539.23c-.14-.76-.25-1.41-.33-2a13,13,0,0,1-.1-1.67,8.72,8.72,0,0,1-3.14,2.9,9.1,9.1,0,0,1-4.62,1.15,6.76,6.76,0,0,1-4.92-1.69,6.07,6.07,0,0,1-1.74-4.57,5.5,5.5,0,0,1,2.53-4.69,11.11,11.11,0,0,1,6.58-1.8H1063v-2.67a4.63,4.63,0,0,0-1.47-3.63,6,6,0,0,0-4.14-1.31,6.15,6.15,0,0,0-4,1.19,3.71,3.71,0,0,0-1.51,3h-2.21l0-.12a5.1,5.1,0,0,1,2.09-4.27,8.65,8.65,0,0,1,5.75-1.85,8.53,8.53,0,0,1,5.7,1.82,6.41,6.41,0,0,1,2.16,5.2v10.61a17.9,17.9,0,0,0,.13,2.22,13.4,13.4,0,0,0,.43,2.13Zm-7.93-1.7a8.55,8.55,0,0,0,4.76-1.3,6.56,6.56,0,0,0,2.74-3.36v-4.13h-5.33a8,8,0,0,0-4.81,1.38,4.07,4.07,0,0,0-1.89,3.35,3.85,3.85,0,0,0,1.2,2.95A4.75,4.75,0,0,0,1055.54,537.53Z" class="cls-3"/><path data-cppathid="10011" transform="translate(-701.96 -432)" d="M797.06,577.05l.05.16q.1,6.38-3.88,10t-11,3.61a15.27,15.27,0,0,1-11.57-4.6,16.56,16.56,0,0,1-4.4-11.91v-7.9a16.84,16.84,0,0,1,4.29-11.91,14.64,14.64,0,0,1,11.27-4.64q7.28,0,11.37,3.56t4,10l0,.16h-7.77q0-3.83-1.84-5.7T781.8,556a6.43,6.43,0,0,0-5.59,2.88,12.76,12.76,0,0,0-2,7.45v8a12.39,12.39,0,0,0,2.11,7.49,6.91,6.91,0,0,0,5.9,2.9,7,7,0,0,0,5.34-1.87q1.77-1.87,1.77-5.76Z" class="cls-4"/><path data-cppathid="10012" transform="translate(-701.96 -432)" d="M835,573.91A16.71,16.71,0,0,1,830.41,586a16,16,0,0,1-12,4.77,15.83,15.83,0,0,1-12-4.78,16.76,16.76,0,0,1-4.6-12.11v-7.17a16.84,16.84,0,0,1,4.58-12.1,15.76,15.76,0,0,1,11.94-4.8,16,16,0,0,1,12.06,4.8,16.68,16.68,0,0,1,4.65,12.1Zm-8-7.22a12,12,0,0,0-2.33-7.63,7.68,7.68,0,0,0-6.42-3,7.43,7.43,0,0,0-6.3,3,12.24,12.24,0,0,0-2.26,7.63v7.22a12.41,12.41,0,0,0,2.27,7.71,7.53,7.53,0,0,0,6.34,3,7.63,7.63,0,0,0,6.4-3,12.3,12.3,0,0,0,2.3-7.71Z" class="cls-4"/><path data-cppathid="10013" transform="translate(-701.96 -432)" d="M873.56,573.91A16.71,16.71,0,0,1,868.94,586a17.48,17.48,0,0,1-24,0,16.79,16.79,0,0,1-4.59-12.11v-7.17a16.84,16.84,0,0,1,4.58-12.1,15.74,15.74,0,0,1,11.94-4.8,16,16,0,0,1,12,4.8,16.68,16.68,0,0,1,4.65,12.1Zm-7.95-7.22a12,12,0,0,0-2.33-7.63,7.68,7.68,0,0,0-6.42-3,7.46,7.46,0,0,0-6.31,3,12.3,12.3,0,0,0-2.25,7.63v7.22a12.35,12.35,0,0,0,2.27,7.71,7.52,7.52,0,0,0,6.34,3,7.63,7.63,0,0,0,6.4-3,12.3,12.3,0,0,0,2.3-7.71Z" class="cls-4"/><path data-cppathid="10014" transform="translate(-701.96 -432)" d="M887.86,574.32v15.91h-8V550.42h13.78q6.81,0,10.65,3.1a10.5,10.5,0,0,1,3.84,8.65,8.77,8.77,0,0,1-1.62,5.3,11.4,11.4,0,0,1-4.75,3.59,8.56,8.56,0,0,1,5.07,3.47,11,11,0,0,1,1.55,6v2.93a14.46,14.46,0,0,0,.45,3.48,4.84,4.84,0,0,0,1.55,2.7v.57h-8.24a4.45,4.45,0,0,1-1.4-2.9,25.43,25.43,0,0,1-.32-3.91V580.6a6.3,6.3,0,0,0-1.63-4.63,6.17,6.17,0,0,0-4.6-1.65Zm0-6.16h5.66a7.49,7.49,0,0,0,5-1.42,5.28,5.28,0,0,0,1.64-4.21,5.79,5.79,0,0,0-1.66-4.35,6.69,6.69,0,0,0-4.85-1.61h-5.8Z" class="cls-4"/><path data-cppathid="10015" transform="translate(-701.96 -432)" d="M915.56,590.23V550.42h13.89a16.4,16.4,0,0,1,12,4.66,16,16,0,0,1,4.74,12v6.59a16,16,0,0,1-4.74,12,16.47,16.47,0,0,1-12,4.64Zm8-33.66V584.1h5.9a7.83,7.83,0,0,0,6.35-2.93,11.55,11.55,0,0,0,2.4-7.54V567a11.41,11.41,0,0,0-2.4-7.49,7.8,7.8,0,0,0-6.35-2.93Z" class="cls-4"/><path data-cppathid="10016" transform="translate(-701.96 -432)" d="M961.14,590.23h-8V550.42h8Z" class="cls-4"/><path data-cppathid="10017" transform="translate(-701.96 -432)" d="M1001.23,590.23h-8l-16-26.85-.17,0v26.82h-8V550.42h8l16.05,26.82.17,0V550.42h8Z" class="cls-4"/><path data-cppathid="10018" transform="translate(-701.96 -432)" d="M1029.8,581.64h-12.9l-2.68,8.59h-8.34l13.42-39.81h8.18l13.37,39.81h-8.34Zm-10.93-6.26h9l-4.4-14h-.16Z" class="cls-4"/><path data-cppathid="10019" transform="translate(-701.96 -432)" d="M1074.24,577.05l0,.16q.12,6.38-3.88,10t-11,3.61a15.29,15.29,0,0,1-11.57-4.6,16.56,16.56,0,0,1-4.4-11.91v-7.9a16.84,16.84,0,0,1,4.29-11.91,14.66,14.66,0,0,1,11.27-4.64q7.27,0,11.38,3.56t4,10l-.06.16h-7.76q0-3.83-1.85-5.7T1059,556a6.43,6.43,0,0,0-5.59,2.88,12.76,12.76,0,0,0-2,7.45v8a12.39,12.39,0,0,0,2.12,7.49,6.89,6.89,0,0,0,5.89,2.9,7.06,7.06,0,0,0,5.35-1.87q1.76-1.87,1.76-5.76Z" class="cls-4"/><path data-cppathid="10020" transform="translate(-701.96 -432)" d="M1088.54,590.23h-8V550.42h8Z" class="cls-4"/><path data-cppathid="10021" transform="translate(-701.96 -432)" d="M1128.65,573.91A16.71,16.71,0,0,1,1124,586a17.48,17.48,0,0,1-24,0,16.79,16.79,0,0,1-4.59-12.11v-7.17a16.84,16.84,0,0,1,4.58-12.1,15.74,15.74,0,0,1,11.94-4.8,16,16,0,0,1,12,4.8,16.68,16.68,0,0,1,4.65,12.1Zm-8-7.22a12,12,0,0,0-2.33-7.63,7.68,7.68,0,0,0-6.42-3,7.46,7.46,0,0,0-6.31,3,12.3,12.3,0,0,0-2.25,7.63v7.22a12.35,12.35,0,0,0,2.27,7.71,7.52,7.52,0,0,0,6.34,3,7.65,7.65,0,0,0,6.4-3,12.3,12.3,0,0,0,2.3-7.71Zm-7.06-28.06h8.89l0,.17-7.57,7.11h-6.81Z" class="cls-4"/><path data-cppathid="10022" transform="translate(-701.96 -432)" d="M1167.15,590.23h-8l-16.05-26.85-.17,0v26.82h-8V550.42h8l16,26.82.17,0V550.42h8Z" class="cls-4"/><path data-cppathid="10023" transform="translate(-701.96 -432)" d="M840.61,636a8.65,8.65,0,0,1-6.8-3,11.08,11.08,0,0,1-2.61-7.61v-1.1a11.28,11.28,0,0,1,2.64-7.69,8.35,8.35,0,0,1,6.55-3,7.54,7.54,0,0,1,6.07,2.53,10.12,10.12,0,0,1,2.15,6.79v1.85h-15v.66a9.78,9.78,0,0,0,1.86,6.12,6.14,6.14,0,0,0,5.16,2.44,9.89,9.89,0,0,0,3.63-.65,7.77,7.77,0,0,0,2.75-1.75l1,1.64a8.72,8.72,0,0,1-3,2A11.16,11.16,0,0,1,840.61,636Zm-.22-20.36a5.86,5.86,0,0,0-4.53,2,8.56,8.56,0,0,0-2.07,5l.06.12h12.36v-.5a7.35,7.35,0,0,0-1.5-4.74A5.24,5.24,0,0,0,840.39,615.67Z" class="cls-3"/><path data-cppathid="10024" transform="translate(-701.96 -432)" d="M855.55,614l.22,3.75a7.93,7.93,0,0,1,2.81-3.06,7.8,7.8,0,0,1,4.17-1.09,6.63,6.63,0,0,1,5.34,2.15c1.22,1.43,1.84,3.66,1.84,6.69v13.14h-2.4V622.49q0-3.71-1.38-5.25a5.06,5.06,0,0,0-3.94-1.53,6.37,6.37,0,0,0-4.12,1.26,7,7,0,0,0-2.26,3.37v15.27h-2.4V614Z" class="cls-3"/><path data-cppathid="10025" transform="translate(-701.96 -432)" d="M879.9,608.51V614h4.75v2H879.9v14.06a4.54,4.54,0,0,0,.77,3,2.57,2.57,0,0,0,2,.89,7.77,7.77,0,0,0,.85-.05c.27,0,.59-.09,1-.17l.35,1.77a4.79,4.79,0,0,1-1.18.39,6.76,6.76,0,0,1-1.41.15,4.51,4.51,0,0,1-3.54-1.43,6.81,6.81,0,0,1-1.26-4.55V616h-3.73v-2h3.73v-5.52Z" class="cls-3"/><path data-cppathid="10026" transform="translate(-701.96 -432)" d="M899.17,616.09l-1.7-.12a5.43,5.43,0,0,0-3.7,1.26,7,7,0,0,0-2.06,3.48v14.9h-2.4V614h2.1l.3,3.59v.24a7.74,7.74,0,0,1,2.51-3.11,6.35,6.35,0,0,1,3.75-1.12,5.71,5.71,0,0,1,.84.07c.26,0,.48.1.65.15Z" class="cls-3"/><path data-cppathid="10027" transform="translate(-701.96 -432)" d="M911.07,636a8.65,8.65,0,0,1-6.8-3,11.08,11.08,0,0,1-2.61-7.61v-1.1a11.28,11.28,0,0,1,2.64-7.69,8.36,8.36,0,0,1,6.55-3,7.56,7.56,0,0,1,6.08,2.53,10.17,10.17,0,0,1,2.14,6.79v1.85h-15v.66a9.72,9.72,0,0,0,1.87,6.12,6.11,6.11,0,0,0,5.15,2.44,9.89,9.89,0,0,0,3.63-.65,7.77,7.77,0,0,0,2.75-1.75l1,1.64a8.72,8.72,0,0,1-3,2A11.12,11.12,0,0,1,911.07,636Zm-.22-20.36a5.86,5.86,0,0,0-4.53,2,8.56,8.56,0,0,0-2.07,5l.06.12h12.37v-.5a7.35,7.35,0,0,0-1.51-4.74A5.23,5.23,0,0,0,910.85,615.67Z" class="cls-3"/><path data-cppathid="10028" transform="translate(-701.96 -432)" d="M933.35,635.61v-29h10.13a12,12,0,0,1,8.78,3.4,11.74,11.74,0,0,1,3.45,8.73v4.81a11.67,11.67,0,0,1-3.45,8.72,12,12,0,0,1-8.78,3.38Zm5.82-24.55v20.09h4.31a5.69,5.69,0,0,0,4.63-2.15,8.38,8.38,0,0,0,1.75-5.49v-4.85a8.3,8.3,0,0,0-1.75-5.46,5.68,5.68,0,0,0-4.63-2.14Z" class="cls-3"/><path data-cppathid="10029" transform="translate(-701.96 -432)" d="M959,624.62a11.54,11.54,0,0,1,2.69-7.9,9.36,9.36,0,0,1,7.46-3.09,9.49,9.49,0,0,1,7.5,3.08,11.48,11.48,0,0,1,2.71,7.91V625a11.54,11.54,0,0,1-2.7,7.93,10.67,10.67,0,0,1-15,0A11.54,11.54,0,0,1,959,625Zm5.8.42a9.41,9.41,0,0,0,1,4.74,3.58,3.58,0,0,0,3.35,1.78,3.54,3.54,0,0,0,3.3-1.79,9.31,9.31,0,0,0,1.05-4.73v-.42a9.26,9.26,0,0,0-1.06-4.68,3.58,3.58,0,0,0-3.33-1.82,3.53,3.53,0,0,0-3.3,1.83,9.25,9.25,0,0,0-1,4.67Z" class="cls-3"/><path data-cppathid="10030" transform="translate(-701.96 -432)" d="M988.39,614l.24,2.86a7.33,7.33,0,0,1,2.61-2.41,7.53,7.53,0,0,1,3.62-.85,6.63,6.63,0,0,1,3.55.92,5.72,5.72,0,0,1,2.23,2.77,7.5,7.5,0,0,1,2.59-2.71,7.08,7.08,0,0,1,3.75-1,6.16,6.16,0,0,1,5,2.27q1.85,2.26,1.84,6.91v12.8H1008V622.79a6.06,6.06,0,0,0-.8-3.61,2.82,2.82,0,0,0-2.37-1,3.87,3.87,0,0,0-3.59,2.08c0,.25,0,.47,0,.64s0,.37,0,.55v14.18h-5.8V622.79a6.08,6.08,0,0,0-.8-3.58,2.82,2.82,0,0,0-2.4-1.05,4.5,4.5,0,0,0-2.06.45,4,4,0,0,0-1.47,1.27v15.73H983V614Z" class="cls-3"/><path data-cppathid="10031" transform="translate(-701.96 -432)" d="M1024.45,608.87h-5.82V604.5h5.82Zm0,26.74h-5.82V614h5.82Z" class="cls-3"/><path data-cppathid="10032" transform="translate(-701.96 -432)" d="M1034.56,614l.26,3.09a8,8,0,0,1,2.66-2.57,6.88,6.88,0,0,1,3.53-.92,6.41,6.41,0,0,1,5.1,2.11q1.85,2.1,1.84,6.65v13.22h-5.85v-13.2a5.22,5.22,0,0,0-.8-3.28,3,3,0,0,0-2.43-1,5.17,5.17,0,0,0-2.28.49A4.57,4.57,0,0,0,1035,620v15.61h-5.82V614Z" class="cls-3"/><path data-cppathid="10033" transform="translate(-701.96 -432)" d="M1058.42,608.87h-5.83V604.5h5.83Zm0,26.74h-5.83V614h5.83Z" class="cls-3"/><path data-cppathid="10034" transform="translate(-701.96 -432)" d="M1062.31,624.62a11.59,11.59,0,0,1,2.69-7.9,9.36,9.36,0,0,1,7.46-3.09,9.49,9.49,0,0,1,7.5,3.08,11.48,11.48,0,0,1,2.71,7.91V625A11.54,11.54,0,0,1,1080,633a10.67,10.67,0,0,1-15,0,11.54,11.54,0,0,1-2.7-7.93Zm5.8.42a9.41,9.41,0,0,0,1,4.74,3.58,3.58,0,0,0,3.35,1.78,3.54,3.54,0,0,0,3.3-1.79,9.31,9.31,0,0,0,1-4.73v-.42a9.26,9.26,0,0,0-1.06-4.68,3.59,3.59,0,0,0-3.33-1.82,3.53,3.53,0,0,0-3.3,1.83,9.25,9.25,0,0,0-1.05,4.67Z" class="cls-3"/><path data-cppathid="10035" transform="translate(-701.96 -432)" d="M1097.93,629.63A2,2,0,0,0,1097,628a9.55,9.55,0,0,0-3.44-1.2,13.77,13.77,0,0,1-5.76-2.3,5,5,0,0,1-2-4.16,5.94,5.94,0,0,1,2.35-4.73,9.52,9.52,0,0,1,6.27-2,10.26,10.26,0,0,1,6.55,2,5.7,5.7,0,0,1,2.36,4.87l0,.12h-5.62a2.83,2.83,0,0,0-.84-2.12,3.91,3.91,0,0,0-4.63-.12,2.19,2.19,0,0,0-.81,1.72,1.94,1.94,0,0,0,.84,1.62,9.37,9.37,0,0,0,3.44,1.13,14,14,0,0,1,5.92,2.34,5.16,5.16,0,0,1,1.94,4.26,5.71,5.71,0,0,1-2.49,4.77,10.81,10.81,0,0,1-6.58,1.85,10,10,0,0,1-6.81-2.18,6.12,6.12,0,0,1-2.39-5l0-.12h5.33a3.06,3.06,0,0,0,1.13,2.52,4.78,4.78,0,0,0,2.82.77,4,4,0,0,0,2.46-.65A2.1,2.1,0,0,0,1097.93,629.63Z" class="cls-3"/></svg>