<?xml version="1.0" encoding="UTF-8"?>
<svg xmlns="http://www.w3.org/2000/svg" onmouseup="{ if(window.parent.document.onmouseup) window.parent.document.onmouseup(arguments[0]);}" viewBox="0 0 530.43 286.97" data-name="Layer 1" id="Layer_1"><defs><style>.cls-1{fill:#333e48;stroke:#00ffd3;stroke-miterlimit:10;stroke-width:2px;}.cls-2{fill:#00ffd3;}.cls-3{fill:#fff;}.cls-4{fill:#f7a800;}</style></defs><rect data-cppathid="10000" transform="translate(1231.56 719.62) rotate(180)" rx="26.23" height="284.97" width="528.43" y="433.65" x="702.14" class="cls-1"/><path data-cppathid="10001" transform="translate(-701.14 -432.65)" d="M844.22,498.72H833.45V507h12.8v4.47H827.63v-29h18.59v4.49H833.45v7.3h10.77Z" class="cls-2"/><path data-cppathid="10002" transform="translate(-701.14 -432.65)" d="M865.48,503.91a3.37,3.37,0,0,0-1.17-2.69,11.62,11.62,0,0,0-4.09-1.92,23.23,23.23,0,0,1-7.63-3.57,6.75,6.75,0,0,1-2.61-5.6,7.05,7.05,0,0,1,2.94-5.84,13.56,13.56,0,0,1,15.24.17,7.65,7.65,0,0,1,2.85,6.39l0,.11h-5.65a4.24,4.24,0,0,0-1.32-3.34,5.38,5.38,0,0,0-3.68-1.16,4.86,4.86,0,0,0-3.34,1,3.37,3.37,0,0,0-1.17,2.65,2.89,2.89,0,0,0,1.27,2.42,17.42,17.42,0,0,0,4.41,2,18.82,18.82,0,0,1,7.3,3.54,7.22,7.22,0,0,1,2.51,5.75,6.91,6.91,0,0,1-2.91,5.88,12.6,12.6,0,0,1-7.7,2.16,13.71,13.71,0,0,1-8-2.34,7.68,7.68,0,0,1-3.26-7l0-.12h5.64a4.57,4.57,0,0,0,1.52,3.79,6.38,6.38,0,0,0,4.1,1.22,5.59,5.59,0,0,0,3.56-1A3.16,3.16,0,0,0,865.48,503.91Z" class="cls-2"/><path data-cppathid="10003" transform="translate(-701.14 -432.65)" d="M895.84,486.94h-8.3v24.55h-5.82V486.94h-8.18v-4.49h22.3Z" class="cls-2"/><path data-cppathid="10004" transform="translate(-701.14 -432.65)" d="M912,505.23h-9.41l-2,6.26h-6.08l9.79-29h6l9.75,29H914Zm-8-4.57h6.56l-3.21-10.23h-.12Z" class="cls-2"/><path data-cppathid="10005" transform="translate(-701.14 -432.65)" d="M922.84,511.49v-29h9.51q5.13,0,8,2a6.78,6.78,0,0,1,2.87,6,6.13,6.13,0,0,1-4.07,5.94,6.25,6.25,0,0,1,4.09,2.35,7.06,7.06,0,0,1,1.38,4.33,7.52,7.52,0,0,1-2.75,6.31q-2.76,2.15-7.8,2.15Zm5.82-16.87h3.89a5.79,5.79,0,0,0,3.59-1,3.29,3.29,0,0,0,1.26-2.79,3.48,3.48,0,0,0-1.27-3,6.26,6.26,0,0,0-3.78-.95h-3.69Zm0,4V507h5.41a5.42,5.42,0,0,0,3.53-1,3.64,3.64,0,0,0,1.22-3,4.26,4.26,0,0,0-1.2-3.25,5.06,5.06,0,0,0-3.61-1.14Z" class="cls-2"/><path data-cppathid="10006" transform="translate(-701.14 -432.65)" d="M954.69,507h13v4.47H948.87v-29h5.82Z" class="cls-2"/><path data-cppathid="10007" transform="translate(-701.14 -432.65)" d="M988.16,498.72H977.39V507h12.8v4.47H971.56v-29h18.59v4.49H977.39v7.3h10.77Z" class="cls-2"/><path data-cppathid="10008" transform="translate(-701.14 -432.65)" d="M1016.06,501.88l0,.11a9.09,9.09,0,0,1-2.83,7.28q-2.91,2.64-8,2.64a11.15,11.15,0,0,1-8.44-3.36,12.07,12.07,0,0,1-3.21-8.69V494.1a12.31,12.31,0,0,1,3.13-8.69,10.7,10.7,0,0,1,8.22-3.38c3.54,0,6.3.86,8.3,2.59a9,9,0,0,1,2.91,7.3l0,.12h-5.67a5.7,5.7,0,0,0-1.34-4.16,5.63,5.63,0,0,0-4.16-1.36,4.71,4.71,0,0,0-4.08,2.1,9.3,9.3,0,0,0-1.46,5.44v5.8a9.06,9.06,0,0,0,1.54,5.47,5,5,0,0,0,4.3,2.11,5.13,5.13,0,0,0,3.9-1.37,5.92,5.92,0,0,0,1.29-4.19Z" class="cls-2"/><path data-cppathid="10009" transform="translate(-701.14 -432.65)" d="M1036.86,498.72h-10.77V507h12.8v4.47h-18.62v-29h18.59v4.49h-12.77v7.3h10.77Z" class="cls-2"/><path data-cppathid="10010" transform="translate(-701.14 -432.65)" d="M1048.81,499.88v11.61H1043v-29H1053c3.31,0,5.89.75,7.76,2.26a7.68,7.68,0,0,1,2.81,6.32,6.36,6.36,0,0,1-1.19,3.85,8.3,8.3,0,0,1-3.46,2.63,6.25,6.25,0,0,1,3.7,2.53,8,8,0,0,1,1.13,4.39v2.13a10.46,10.46,0,0,0,.32,2.54,3.53,3.53,0,0,0,1.13,2v.42h-6a3.23,3.23,0,0,1-1-2.12,18.86,18.86,0,0,1-.23-2.85v-2a4.61,4.61,0,0,0-1.19-3.38,4.48,4.48,0,0,0-3.36-1.21Zm0-4.49h4.13a5.44,5.44,0,0,0,3.64-1,3.86,3.86,0,0,0,1.2-3.08,4.26,4.26,0,0,0-1.2-3.17,4.91,4.91,0,0,0-3.54-1.17h-4.23Z" class="cls-2"/><path data-cppathid="10011" transform="translate(-701.14 -432.65)" d="M1082.33,511.49H1080V480.38h2.37Z" class="cls-3"/><path data-cppathid="10012" transform="translate(-701.14 -432.65)" d="M1102.6,511.49c-.15-.76-.26-1.41-.33-2a11.43,11.43,0,0,1-.11-1.67,8.77,8.77,0,0,1-3.13,2.9,9.27,9.27,0,0,1-4.63,1.15,6.83,6.83,0,0,1-4.92-1.69,6.07,6.07,0,0,1-1.74-4.58,5.49,5.49,0,0,1,2.53-4.68,11.11,11.11,0,0,1,6.58-1.8h5.31v-2.67a4.63,4.63,0,0,0-1.47-3.63,6,6,0,0,0-4.14-1.32,6.19,6.19,0,0,0-4,1.2,3.7,3.7,0,0,0-1.5,3h-2.21l-.05-.12a5.12,5.12,0,0,1,2.09-4.28,8.66,8.66,0,0,1,5.75-1.84,8.57,8.57,0,0,1,5.71,1.81,6.45,6.45,0,0,1,2.15,5.21v10.61a17.62,17.62,0,0,0,.13,2.21,14.48,14.48,0,0,0,.43,2.14Zm-7.94-1.7a8.55,8.55,0,0,0,4.76-1.3,6.49,6.49,0,0,0,2.74-3.37V501h-5.33a7.93,7.93,0,0,0-4.8,1.38,4.05,4.05,0,0,0-1.9,3.34,3.83,3.83,0,0,0,1.21,3A4.71,4.71,0,0,0,1094.66,509.79Z" class="cls-3"/><path data-cppathid="10013" transform="translate(-701.14 -432.65)" d="M804,552.62H786.07v13.82h21.34v7.45h-31v-48.4h31V533H786.07v12.17H804Z" class="cls-4"/><path data-cppathid="10014" transform="translate(-701.14 -432.65)" d="M839.46,561.26a5.66,5.66,0,0,0-2-4.49c-1.3-1.13-3.57-2.19-6.83-3.19q-8.38-2.52-12.72-6a11.25,11.25,0,0,1-4.33-9.34,11.74,11.74,0,0,1,4.88-9.72q4.89-3.78,12.47-3.78,8,0,12.95,4.06a12.71,12.71,0,0,1,4.73,10.64l-.06.2h-9.41a7.06,7.06,0,0,0-2.19-5.57,9,9,0,0,0-6.15-2,8.15,8.15,0,0,0-5.56,1.73,5.65,5.65,0,0,0-2,4.42,4.83,4.83,0,0,0,2.13,4,28.12,28.12,0,0,0,7.35,3.34q8,2.26,12.16,5.9a12.11,12.11,0,0,1,4.19,9.59,11.55,11.55,0,0,1-4.85,9.81q-4.86,3.59-12.83,3.59a23,23,0,0,1-13.42-3.89q-5.59-3.88-5.43-11.6l.07-.2h9.4c0,2.86.85,5,2.53,6.31a10.59,10.59,0,0,0,6.85,2,9.31,9.31,0,0,0,5.93-1.63A5.28,5.28,0,0,0,839.46,561.26Z" class="cls-4"/><path data-cppathid="10015" transform="translate(-701.14 -432.65)" d="M890.05,533H876.22v40.92h-9.71V533H852.88v-7.48h37.17Z" class="cls-4"/><path data-cppathid="10016" transform="translate(-701.14 -432.65)" d="M905.07,554.54v19.35h-9.71v-48.4h16.76q8.26,0,12.94,3.78t4.67,10.52a10.6,10.6,0,0,1-2,6.43,13.83,13.83,0,0,1-5.77,4.37,10.44,10.44,0,0,1,6.17,4.22,13.39,13.39,0,0,1,1.87,7.31v3.56a18,18,0,0,0,.55,4.24,5.84,5.84,0,0,0,1.88,3.27v.7h-10a5.38,5.38,0,0,1-1.72-3.52,31.64,31.64,0,0,1-.38-4.76v-3.42a7.67,7.67,0,0,0-2-5.63,7.46,7.46,0,0,0-5.6-2Zm0-7.47H912c2.73,0,4.75-.58,6.08-1.73a6.41,6.41,0,0,0,2-5.12,7.05,7.05,0,0,0-2-5.29,8.16,8.16,0,0,0-5.9-2h-7Z" class="cls-4"/><path data-cppathid="10017" transform="translate(-701.14 -432.65)" d="M964,563.45H948.28L945,573.89H934.89l16.32-48.4h9.94l16.25,48.4H967.26Zm-13.29-7.61h10.93l-5.35-17.05h-.2Z" class="cls-4"/><path data-cppathid="10018" transform="translate(-701.14 -432.65)" d="M1012.83,533H999v40.92H989.3V533H975.67v-7.48h37.16Z" class="cls-4"/><path data-cppathid="10019" transform="translate(-701.14 -432.65)" d="M1045.81,552.62h-18v13.82h21.34v7.45h-31.05v-48.4h31V533h-21.27v12.17h18Z" class="cls-4"/><path data-cppathid="10020" transform="translate(-701.14 -432.65)" d="M1093.11,567.28a18.44,18.44,0,0,1-6.75,5.13,26.59,26.59,0,0,1-11.57,2.18q-8.77,0-14.36-5.52t-5.58-14.33v-10.1q0-8.77,5.42-14.31a18.64,18.64,0,0,1,13.93-5.54q8.86,0,13.59,4.21a13.77,13.77,0,0,1,4.55,11.22l-.06.2h-9.14a8,8,0,0,0-2.23-6c-1.48-1.43-3.65-2.15-6.48-2.15a8.73,8.73,0,0,0-7.18,3.44,13.84,13.84,0,0,0-2.73,8.86v10.17a13.77,13.77,0,0,0,2.8,9,9.11,9.11,0,0,0,7.47,3.45,17.06,17.06,0,0,0,5.47-.7,8.26,8.26,0,0,0,3.11-1.76v-9.37h-9.31v-6.72h19Z" class="cls-4"/><path data-cppathid="10021" transform="translate(-701.14 -432.65)" d="M1111.72,573.89H1102v-48.4h9.7Z" class="cls-4"/><path data-cppathid="10022" transform="translate(-701.14 -432.65)" d="M1147.16,563.45h-15.69l-3.26,10.44h-10.14l16.32-48.4h9.94l16.26,48.4h-10.14Zm-13.3-7.61h10.94l-5.35-17.05h-.2Z" class="cls-4"/><path data-cppathid="10023" transform="translate(-701.14 -432.65)" d="M845.77,608.66A14.1,14.1,0,0,1,848,600.4a7,7,0,0,1,6.09-3.1,7.82,7.82,0,0,1,3.88.93,7.9,7.9,0,0,1,2.77,2.66V588.16h2.39v31.11h-2l-.33-3.13a7.68,7.68,0,0,1-2.8,2.64,8.28,8.28,0,0,1-4,.91,7.17,7.17,0,0,1-6-2.88,12.53,12.53,0,0,1-2.18-7.73Zm2.39.42a10.93,10.93,0,0,0,1.57,6.23,5.3,5.3,0,0,0,4.71,2.31,6.71,6.71,0,0,0,3.85-1,6.85,6.85,0,0,0,2.4-2.84V603.52a7.61,7.61,0,0,0-2.32-3,6.17,6.17,0,0,0-3.89-1.16,5.18,5.18,0,0,0-4.73,2.58,12.65,12.65,0,0,0-1.59,6.71Z" class="cls-3"/><path data-cppathid="10024" transform="translate(-701.14 -432.65)" d="M877.64,619.69a8.62,8.62,0,0,1-6.8-3,11.08,11.08,0,0,1-2.62-7.61V608a11.29,11.29,0,0,1,2.65-7.7,8.34,8.34,0,0,1,6.55-3,7.53,7.53,0,0,1,6.07,2.52,10.12,10.12,0,0,1,2.15,6.79v1.85h-15v.66a9.83,9.83,0,0,0,1.86,6.13,6.15,6.15,0,0,0,5.16,2.43,10,10,0,0,0,3.63-.65,7.9,7.9,0,0,0,2.75-1.74l1,1.63a8.88,8.88,0,0,1-3,2A11.34,11.34,0,0,1,877.64,619.69Zm-.22-20.36a5.84,5.84,0,0,0-4.53,2,8.56,8.56,0,0,0-2.07,5l.06.12h12.36v-.5a7.3,7.3,0,0,0-1.5-4.73A5.23,5.23,0,0,0,877.42,599.33Z" class="cls-3"/><path data-cppathid="10025" transform="translate(-701.14 -432.65)" d="M899.46,608.66a14,14,0,0,1,2.18-8.26,7,7,0,0,1,6.09-3.1,7.82,7.82,0,0,1,3.88.93,7.9,7.9,0,0,1,2.77,2.66V588.16h2.39v31.11h-2l-.34-3.13a7.57,7.57,0,0,1-2.79,2.64,8.28,8.28,0,0,1-4,.91,7.17,7.17,0,0,1-6.05-2.88,12.47,12.47,0,0,1-2.18-7.73Zm2.39.42a10.93,10.93,0,0,0,1.57,6.23,5.3,5.3,0,0,0,4.71,2.31,6.74,6.74,0,0,0,3.85-1,6.85,6.85,0,0,0,2.4-2.84V603.52a7.61,7.61,0,0,0-2.32-3,6.19,6.19,0,0,0-3.89-1.16,5.18,5.18,0,0,0-4.73,2.58,12.65,12.65,0,0,0-1.59,6.71Z" class="cls-3"/><path data-cppathid="10026" transform="translate(-701.14 -432.65)" d="M936.79,619.27q-.21-1.12-.33-1.95a13.17,13.17,0,0,1-.11-1.68,8.72,8.72,0,0,1-3.13,2.91,9.2,9.2,0,0,1-4.62,1.14,6.79,6.79,0,0,1-4.92-1.68,6.1,6.1,0,0,1-1.75-4.58,5.51,5.51,0,0,1,2.54-4.69,11.18,11.18,0,0,1,6.58-1.79h5.3v-2.67a4.6,4.6,0,0,0-1.46-3.63,6,6,0,0,0-4.14-1.32,6.15,6.15,0,0,0-4,1.2,3.7,3.7,0,0,0-1.51,3h-2.21l0-.12a5.12,5.12,0,0,1,2.09-4.28,8.63,8.63,0,0,1,5.75-1.84,8.53,8.53,0,0,1,5.7,1.81,6.43,6.43,0,0,1,2.16,5.21v10.61a17.85,17.85,0,0,0,.13,2.21,13,13,0,0,0,.43,2.13Zm-7.94-1.69a8.57,8.57,0,0,0,4.77-1.31,6.49,6.49,0,0,0,2.73-3.36v-4.13H931a8,8,0,0,0-4.81,1.39,4.05,4.05,0,0,0-1.89,3.34,3.84,3.84,0,0,0,1.2,3A4.7,4.7,0,0,0,928.85,617.58Z" class="cls-3"/><path data-cppathid="10027" transform="translate(-701.14 -432.65)" d="M948.82,592.17v5.52h4.74v2h-4.74v14.06a4.54,4.54,0,0,0,.77,3,2.57,2.57,0,0,0,2,.89,7.77,7.77,0,0,0,.85-.05c.27,0,.59-.09,1-.17l.35,1.77a4.79,4.79,0,0,1-1.18.39,6.76,6.76,0,0,1-1.41.15,4.51,4.51,0,0,1-3.54-1.43,6.81,6.81,0,0,1-1.26-4.55V599.65h-3.73v-2h3.73v-5.52Z" class="cls-3"/><path data-cppathid="10028" transform="translate(-701.14 -432.65)" d="M956.9,608.17a11.6,11.6,0,0,1,2.61-7.82,9.4,9.4,0,0,1,13.86,0,11.6,11.6,0,0,1,2.61,7.82v.65a11.6,11.6,0,0,1-2.6,7.83,9.43,9.43,0,0,1-13.87,0,11.61,11.61,0,0,1-2.61-7.83Zm2.39.65a10.34,10.34,0,0,0,1.89,6.31,6.7,6.7,0,0,0,10.52,0,10.28,10.28,0,0,0,1.91-6.31v-.65a10.21,10.21,0,0,0-1.92-6.27,6.66,6.66,0,0,0-10.51,0,10.32,10.32,0,0,0-1.89,6.27Z" class="cls-3"/><path data-cppathid="10029" transform="translate(-701.14 -432.65)" d="M993.89,613.75a3.43,3.43,0,0,0-1.25-2.64,10.23,10.23,0,0,0-4.49-1.85,14.81,14.81,0,0,1-5.7-2.18,4.57,4.57,0,0,1-1.86-3.88,5.23,5.23,0,0,1,2.08-4.19,8.43,8.43,0,0,1,5.52-1.71,8.59,8.59,0,0,1,5.76,1.82,5.37,5.37,0,0,1,2,4.5l0,.12h-2.22a4,4,0,0,0-1.52-3.09,6,6,0,0,0-4-1.32,5.83,5.83,0,0,0-3.91,1.14,3.4,3.4,0,0,0-1.32,2.65,3.08,3.08,0,0,0,1.13,2.44,11,11,0,0,0,4.5,1.71,14.67,14.67,0,0,1,5.73,2.33,4.81,4.81,0,0,1,1.94,4,5.28,5.28,0,0,1-2.18,4.38,9.22,9.22,0,0,1-5.77,1.68,9.36,9.36,0,0,1-6.18-1.87,5.32,5.32,0,0,1-2.12-4.47l0-.12h2.19a4,4,0,0,0,1.91,3.39,7.9,7.9,0,0,0,4.16,1.06,6.54,6.54,0,0,0,4.09-1.16A3.42,3.42,0,0,0,993.89,613.75Z" class="cls-3"/><path data-cppathid="10030" transform="translate(-701.14 -432.65)" d="M1029.07,609.08a12.47,12.47,0,0,1-2.19,7.73,7.18,7.18,0,0,1-6,2.88,8.56,8.56,0,0,1-4-.86,7.17,7.17,0,0,1-2.78-2.43v11.17h-2.4V597.69h1.84l.44,3.38a7.62,7.62,0,0,1,2.79-2.79,7.89,7.89,0,0,1,4-1,7,7,0,0,1,6.08,3.1,14,14,0,0,1,2.19,8.26Zm-2.39-.42A12.38,12.38,0,0,0,1025,602a5.3,5.3,0,0,0-4.78-2.59,6.25,6.25,0,0,0-3.88,1.14,7.05,7.05,0,0,0-2.28,3v10.45a6.52,6.52,0,0,0,2.37,2.76,6.84,6.84,0,0,0,3.83,1,5.42,5.42,0,0,0,4.75-2.35,10.75,10.75,0,0,0,1.63-6.25Z" class="cls-3"/><path data-cppathid="10031" transform="translate(-701.14 -432.65)" d="M1048.1,619.27q-.22-1.12-.33-1.95a13.17,13.17,0,0,1-.11-1.68,8.8,8.8,0,0,1-3.13,2.91,9.24,9.24,0,0,1-4.63,1.14A6.79,6.79,0,0,1,1035,618a6.06,6.06,0,0,1-1.75-4.58,5.53,5.53,0,0,1,2.53-4.69,11.21,11.21,0,0,1,6.59-1.79h5.3v-2.67a4.63,4.63,0,0,0-1.46-3.63,6,6,0,0,0-4.14-1.32,6.15,6.15,0,0,0-4,1.2,3.67,3.67,0,0,0-1.51,3h-2.21l0-.12a5.11,5.11,0,0,1,2.08-4.28,8.67,8.67,0,0,1,5.76-1.84,8.56,8.56,0,0,1,5.7,1.81,6.42,6.42,0,0,1,2.15,5.21v10.61a20,20,0,0,0,.13,2.21,14.1,14.1,0,0,0,.43,2.13Zm-7.94-1.69a8.57,8.57,0,0,0,4.77-1.31,6.54,6.54,0,0,0,2.73-3.36v-4.13h-5.32a7.94,7.94,0,0,0-4.81,1.39,4.07,4.07,0,0,0-1.9,3.34,3.84,3.84,0,0,0,1.21,3A4.68,4.68,0,0,0,1040.16,617.58Z" class="cls-3"/><path data-cppathid="10032" transform="translate(-701.14 -432.65)" d="M1066.25,599.75l-1.7-.12a5.4,5.4,0,0,0-3.7,1.27,7,7,0,0,0-2.06,3.48v14.89h-2.39V597.69h2.09l.3,3.59v.24a7.74,7.74,0,0,1,2.51-3.11,6.34,6.34,0,0,1,3.75-1.11,4.61,4.61,0,0,1,.84.07,3.63,3.63,0,0,1,.66.15Z" class="cls-3"/><path data-cppathid="10033" transform="translate(-701.14 -432.65)" d="M1084,619.27q-.23-1.12-.33-1.95a13.17,13.17,0,0,1-.11-1.68,8.8,8.8,0,0,1-3.13,2.91,9.24,9.24,0,0,1-4.63,1.14,6.79,6.79,0,0,1-4.91-1.68,6.06,6.06,0,0,1-1.75-4.58,5.53,5.53,0,0,1,2.53-4.69,11.21,11.21,0,0,1,6.59-1.79h5.3v-2.67a4.6,4.6,0,0,0-1.47-3.63,5.94,5.94,0,0,0-4.13-1.32,6.15,6.15,0,0,0-4,1.2,3.67,3.67,0,0,0-1.51,3h-2.21l0-.12a5.11,5.11,0,0,1,2.08-4.28,8.67,8.67,0,0,1,5.76-1.84,8.56,8.56,0,0,1,5.7,1.81,6.42,6.42,0,0,1,2.15,5.21v10.61a20,20,0,0,0,.13,2.21,14.1,14.1,0,0,0,.43,2.13Zm-7.94-1.69a8.57,8.57,0,0,0,4.77-1.31,6.54,6.54,0,0,0,2.73-3.36v-4.13h-5.32a7.94,7.94,0,0,0-4.81,1.39,4.07,4.07,0,0,0-1.9,3.34,3.84,3.84,0,0,0,1.21,3A4.67,4.67,0,0,0,1076.06,617.58Z" class="cls-3"/><path data-cppathid="10034" transform="translate(-701.14 -432.65)" d="M880,665.08a9.7,9.7,0,0,1-7.54-3,10.82,10.82,0,0,1-2.71-7.62v-.8a11.85,11.85,0,0,1,2.63-7.94,9,9,0,0,1,7.24-3.07,8.39,8.39,0,0,1,6.67,2.66,10.54,10.54,0,0,1,2.33,7.17v3H875.79l-.06.12a5.81,5.81,0,0,0,1.35,3.59,4.5,4.5,0,0,0,3.58,1.38,11.83,11.83,0,0,0,3.32-.4A13.52,13.52,0,0,0,886.8,659l1.58,3.59a10.85,10.85,0,0,1-3.51,1.78A15.58,15.58,0,0,1,880,665.08Zm-.38-17.91a3.24,3.24,0,0,0-2.7,1.2,6.17,6.17,0,0,0-1.15,3.2l0,.1H883v-.43a5.05,5.05,0,0,0-.78-3A2.86,2.86,0,0,0,879.66,647.17Z" class="cls-3"/><path data-cppathid="10035" transform="translate(-701.14 -432.65)" d="M898.17,664.66h-5.82V633.54h5.82Z" class="cls-3"/><path data-cppathid="10036" transform="translate(-701.14 -432.65)" d="M913.57,664.66v-29H923.7a12,12,0,0,1,8.77,3.4,11.74,11.74,0,0,1,3.45,8.73v4.8a11.69,11.69,0,0,1-3.45,8.73,12,12,0,0,1-8.77,3.38Zm5.82-24.55v20.08h4.31a5.67,5.67,0,0,0,4.62-2.14,8.4,8.4,0,0,0,1.76-5.5v-4.84a8.32,8.32,0,0,0-1.76-5.47,5.69,5.69,0,0,0-4.62-2.13Z" class="cls-3"/><path data-cppathid="10037" transform="translate(-701.14 -432.65)" d="M939.25,653.67a11.55,11.55,0,0,1,2.7-7.91,10.62,10.62,0,0,1,14.95,0,11.53,11.53,0,0,1,2.72,7.92v.42a11.53,11.53,0,0,1-2.7,7.92,10.65,10.65,0,0,1-15,0,11.53,11.53,0,0,1-2.71-7.92Zm5.81.42a9.4,9.4,0,0,0,1,4.73,3.6,3.6,0,0,0,3.36,1.79,3.55,3.55,0,0,0,3.3-1.8,9.38,9.38,0,0,0,1-4.72v-.42a9.28,9.28,0,0,0-1-4.69,3.58,3.58,0,0,0-3.33-1.81,3.51,3.51,0,0,0-3.3,1.82,9.32,9.32,0,0,0-1.05,4.68Z" class="cls-3"/><path data-cppathid="10038" transform="translate(-701.14 -432.65)" d="M968.61,643.08l.24,2.85a7.18,7.18,0,0,1,2.6-2.4,7.45,7.45,0,0,1,3.62-.85,6.58,6.58,0,0,1,3.55.92,5.63,5.63,0,0,1,2.24,2.77,7.42,7.42,0,0,1,2.59-2.71,6.94,6.94,0,0,1,3.75-1,6.15,6.15,0,0,1,5,2.26c1.23,1.51,1.84,3.82,1.84,6.91v12.81h-5.82V651.83a6.08,6.08,0,0,0-.8-3.61,2.84,2.84,0,0,0-2.37-1,4.14,4.14,0,0,0-2.15.54,4.08,4.08,0,0,0-1.44,1.53,6.33,6.33,0,0,0,0,.65c0,.18,0,.36,0,.55v14.18h-5.81V651.83a6,6,0,0,0-.8-3.58,2.83,2.83,0,0,0-2.39-1,4.5,4.5,0,0,0-2.06.45,3.89,3.89,0,0,0-1.47,1.26v15.74h-5.8V643.08Z" class="cls-3"/><path data-cppathid="10039" transform="translate(-701.14 -432.65)" d="M1004.67,637.91h-5.82v-4.37h5.82Zm0,26.75h-5.82V643.08h5.82Z" class="cls-3"/><path data-cppathid="10040" transform="translate(-701.14 -432.65)" d="M1014.78,643.08l.26,3.09a7.92,7.92,0,0,1,2.65-2.57,6.91,6.91,0,0,1,3.53-.92,6.41,6.41,0,0,1,5.11,2.1c1.22,1.41,1.84,3.62,1.84,6.65v13.23h-5.85V651.45a5.17,5.17,0,0,0-.81-3.28,3,3,0,0,0-2.42-1,5,5,0,0,0-2.28.49,4.44,4.44,0,0,0-1.63,1.34v15.62h-5.82V643.08Z" class="cls-3"/><path data-cppathid="10041" transform="translate(-701.14 -432.65)" d="M1038.64,637.91h-5.83v-4.37h5.83Zm0,26.75h-5.83V643.08h5.83Z" class="cls-3"/><path data-cppathid="10042" transform="translate(-701.14 -432.65)" d="M1042.52,653.67a11.55,11.55,0,0,1,2.7-7.91,10.62,10.62,0,0,1,15,0,11.53,11.53,0,0,1,2.72,7.92v.42a11.53,11.53,0,0,1-2.7,7.92,10.65,10.65,0,0,1-15,0,11.53,11.53,0,0,1-2.71-7.92Zm5.81.42a9.29,9.29,0,0,0,1,4.73,4,4,0,0,0,6.65,0,9.38,9.38,0,0,0,1-4.72v-.42a9.28,9.28,0,0,0-1-4.69,3.58,3.58,0,0,0-3.33-1.81,3.51,3.51,0,0,0-3.3,1.82,9.32,9.32,0,0,0-1.05,4.68Z" class="cls-3"/></svg>