<?xml version="1.0" encoding="UTF-8"?>
<svg xmlns="http://www.w3.org/2000/svg" onmouseup="{ if(window.parent.document.onmouseup) window.parent.document.onmouseup(arguments[0]);}" viewBox="0 0 1370 1662" data-name="Capa 1" id="Capa_1"><g id="IMG"><path data-cppathid="10000" fill="#fff" d="M320.6,871.2A115.8,115.8,0,1,1,436.4,755.4h0A115.81,115.81,0,0,1,320.6,871.2Zm0-195.4a79.7,79.7,0,1,0,79.7,79.7h0A79.72,79.72,0,0,0,320.6,675.8Z"/><path data-cppathid="10001" fill="#fff" d="M556.8,1123.7H380a76.55,76.55,0,0,1-70.9-47.3l-40.2-97.5a18.08,18.08,0,1,1,33.3-14.1c0,.1.1.2.1.3l40.2,97.5a40.68,40.68,0,0,0,37.5,25H556.8a19.9,19.9,0,1,0,0-39.8H398.5a18.3,18.3,0,0,1-16.8-11.2L329.4,908.4a18.05,18.05,0,1,1,33.2-14.2h0c.1.2.2.3.2.5l47.8,116.9H556.8a56.05,56.05,0,1,1,0,112.1Z"/><path data-cppathid="10002" fill="#fff" d="M161.6,1233.2h-1.3a18.2,18.2,0,0,1-16.9-19.3h0l15.1-210.5A366.36,366.36,0,0,1,229.3,810a18.09,18.09,0,0,1,29.1,21.5h0A329.13,329.13,0,0,0,194.6,1006l-15.1,210.5A18,18,0,0,1,161.6,1233.2Z"/><path data-cppathid="10003" fill="#fff" d="M1044.3,871.2a115.8,115.8,0,1,1,115.8-115.8h0A116,116,0,0,1,1044.3,871.2Zm0-195.4a79.7,79.7,0,1,0,79.7,79.7h0A79.72,79.72,0,0,0,1044.3,675.8Z"/><path data-cppathid="10004" fill="#fff" d="M984.9,1123.7H808.2a56.05,56.05,0,0,1-.1-112.1H954.4l47.7-116.9a17.92,17.92,0,0,1,23.6-9.5h.1a18.25,18.25,0,0,1,9.8,23.2l-52.3,128.2a18.06,18.06,0,0,1-16.7,11.2H808.2a19.9,19.9,0,0,0,0,39.8H984.9a40.52,40.52,0,0,0,37.5-25l40.2-97.4a18,18,0,1,1,33.6,13.2h0c-.1.2-.2.3-.3.5l-40.2,97.5A76.06,76.06,0,0,1,984.9,1123.7Z"/><path data-cppathid="10005" fill="#fff" d="M1203.5,1233.2a18,18,0,0,1-18-16.8L1170.4,1006a330.27,330.27,0,0,0-63.8-174.5,18.14,18.14,0,0,1,29.2-21.5,365.88,365.88,0,0,1,70.8,193.6l15,210.3a18.08,18.08,0,0,1-16.6,19.3h-1.5Z"/><path data-cppathid="10006" fill="#fff" d="M777.3,1000.6a18.29,18.29,0,0,1-15.9-9.3L666,818.8a57.22,57.22,0,0,1,99.3-56.9l66,113.4L949.7,868a18.08,18.08,0,1,1,2.1,36.1l-129.5,8a18.47,18.47,0,0,1-16.8-8.9L733.9,780.1a21.1,21.1,0,0,0-36.6,21l95.5,172.6a18.18,18.18,0,0,1-7,24.6A16.94,16.94,0,0,1,777.3,1000.6Z"/><path data-cppathid="10007" fill="#fff" d="M1065.1,1126H305.4a18.1,18.1,0,1,1-.8-36.2h760.5a18.1,18.1,0,0,1,0,36.2Z"/><path data-cppathid="10008" fill="#fff" d="M685.2,1219.8a18.05,18.05,0,0,1-18-18h0v-92.6a18.1,18.1,0,1,1,36.2-.8v93.4A18.16,18.16,0,0,1,685.2,1219.8Z"/><path data-cppathid="10009" fill="#fff" d="M1123.9,638.5a18,18,0,0,1-18.1-18,17.33,17.33,0,0,1,.3-3.2,430,430,0,0,0,6.7-75.9c0-237.3-193.1-430.3-430.3-430.3s-430.3,193-430.3,430.3a278.8,278.8,0,0,0,6.7,53.8,18.11,18.11,0,0,1-35.3,8.1h0a307.43,307.43,0,0,1-7.7-61.9c.2-257.2,209.4-466.5,466.6-466.5S1149,284.2,1149,541.4a481.14,481.14,0,0,1-7.2,82.2A18.22,18.22,0,0,1,1123.9,638.5Z"/><path data-cppathid="10010" fill="#fff" d="M682.5,212.4a18.05,18.05,0,0,1-18-18h0v-29a18.1,18.1,0,0,1,36.2-.8v29.6A18.4,18.4,0,0,1,682.5,212.4Z"/><path data-cppathid="10011" fill="#fff" d="M1063.4,564.3h-28.9a18.1,18.1,0,1,1-.8-36.2h29.7a18.1,18.1,0,0,1,.8,36.2Z"/><path data-cppathid="10012" fill="#fff" d="M947.5,299.2a18.05,18.05,0,0,1-18-18v-.1a18.09,18.09,0,0,1,5.3-12.8l4.3-4.3a18.08,18.08,0,0,1,25.5,25.6l-4.3,4.3A18.09,18.09,0,0,1,947.5,299.2Z"/><path data-cppathid="10013" fill="#fff" d="M417.4,299.2a18.09,18.09,0,0,1-12.8-5.3l-4.3-4.3a18,18,0,1,1,24.5-26.5l.9.9,4.3,4.3a18.23,18.23,0,0,1,0,25.6A17.46,17.46,0,0,1,417.4,299.2Z"/><path data-cppathid="10014" fill="#fff" d="M848.8,564.3H682.5a18.05,18.05,0,0,1-18-18h0V264.1a18.1,18.1,0,0,1,36.2-.8V528.1H849a18.1,18.1,0,0,1,17.7,18.5h0A18.45,18.45,0,0,1,848.8,564.3Z"/><path data-cppathid="10015" fill="#fff" d="M332.9,564.3H304a18.1,18.1,0,1,1-.8-36.2h29.7a18.1,18.1,0,0,1,.8,36.2Z"/></g><g id="TXT"><path data-cppathid="10016" fill="#fff" d="M428.7,1397.2V1276.3h33.5c11.6,0,20.6,2.7,27.1,8.1s9.7,13.6,9.8,24.4a27.45,27.45,0,0,1-4.2,15,24.24,24.24,0,0,1-11.8,9.6,23.24,23.24,0,0,1,16.2,10,32.8,32.8,0,0,1,5.7,19.5c0,11.1-3.2,19.6-9.6,25.4s-15.2,8.8-26.4,8.8H428.7Zm16.8-68.4h19.2c5.4-.2,9.7-1.9,12.7-5.3s4.6-8.1,4.6-14.2c0-6.7-1.7-11.6-5.1-14.9s-8.3-5-14.9-5H445.4Zm0,12.1v43.6h23.4c6.1,0,10.8-1.8,14.1-5.5s5-9,5-15.8-1.6-12-4.9-15.9-7.8-6.1-13.7-6.3l-23.9-.1Z"/><path data-cppathid="10017" fill="#fff" d="M538.7,1397.2H521.8V1267.7h16.9Z"/><path data-cppathid="10018" fill="#fff" d="M555.9,1351.3c0-13.3,3.2-24.3,9.5-32.8s15-12.8,26-12.8,19.7,4.3,26,12.8,9.5,19.5,9.5,32.8v2.2c0,13.4-3.2,24.3-9.5,32.8s-15,12.7-25.9,12.7c-11.1,0-19.8-4.2-26.2-12.7s-9.4-19.4-9.4-32.8v-2.2Zm16.9,2.3c0,9.6,1.5,17.4,4.6,23.5s7.8,9.1,14.1,9.1c6.1,0,10.7-3.1,13.8-9.2s4.6-13.9,4.6-23.4v-2.2c0-9.4-1.5-17.2-4.6-23.4s-7.8-9.3-14-9.3-10.8,3.1-13.9,9.3-4.6,14-4.6,23.4Z"/><path data-cppathid="10019" fill="#fff" d="M639.8,1353.4c0-14.4,2.6-25.9,7.9-34.6s12.6-13,22.2-13a22.08,22.08,0,0,1,12,3.2,27.34,27.34,0,0,1,8.9,9l1.8-10.5h13.9v124.3H689.6v-42.7a24.27,24.27,0,0,1-8.5,7.4,24.56,24.56,0,0,1-11.3,2.5c-9.5,0-16.8-4-22-12s-7.8-18.6-7.8-31.8Zm16.7,1.8c0,9.5,1.4,17,4.2,22.6s7.2,8.4,13.2,8.4a15.76,15.76,0,0,0,9.2-2.7,19.7,19.7,0,0,0,6.3-7.7v-46.2a21.38,21.38,0,0,0-6.3-8,14.43,14.43,0,0,0-9.2-2.9c-6,0-10.4,3.2-13.2,9.7s-4.3,14.8-4.3,25v1.8Z"/><path data-cppathid="10020" fill="#fff" d="M774.9,1384.1a28.31,28.31,0,0,1-9.3,11,22.86,22.86,0,0,1-13.1,3.9c-8.2,0-14.7-3.2-19.3-9.6s-7-16.2-7-29.6v-52.4h16.9V1360c0,9.6,1.1,16.4,3.3,20.2a10.94,10.94,0,0,0,10.1,5.8,17.87,17.87,0,0,0,17.4-11.2v-67.3h16.9v89.8H776.5Z"/><path data-cppathid="10021" fill="#fff" d="M842.7,1399c-11.2,0-19.9-4.1-26.3-12.3s-9.5-18.9-9.5-32v-3.9c0-13.2,3.2-24,9.5-32.4s14.6-12.7,24.7-12.7,18,3.6,23.4,10.9,8,17,8,29.2v9.5H823.8c0,9.2,1.6,16.6,4.9,22.3s8.3,8.6,15.2,8.6a29.38,29.38,0,0,0,21.9-8.6l5.5,10.5a35.71,35.71,0,0,1-11.8,7.8A44.28,44.28,0,0,1,842.7,1399Zm-1.6-80.3c-4.9,0-8.7,2.3-11.6,6.8s-4.7,10.5-5.4,17.9h31.8v-1.9c0-6.7-1.2-12.2-3.6-16.4s-6.1-6.4-11.2-6.4Z"/><path data-cppathid="10022" fill="#fff" d="M930.3,1374.6a12.15,12.15,0,0,0-3.5-8.8c-2.3-2.3-6.8-5-13.4-7.9-9.2-3.5-16.2-7.3-20.8-11.4a20.21,20.21,0,0,1-6.9-15.8c0-6.9,2.8-12.8,8.3-17.7s12.8-7.3,21.7-7.3c9.2,0,16.7,2.7,22.3,8a24.51,24.51,0,0,1,8.1,19.4l-.2.5H929.6a16.4,16.4,0,0,0-3.8-11,12.32,12.32,0,0,0-10.2-4.6c-4.3,0-7.7,1.2-10.1,3.6a11.57,11.57,0,0,0-3.6,8.4,10.62,10.62,0,0,0,3.1,8.1c2.1,2,6.5,4.5,13.3,7.6,9.4,3.3,16.5,7.2,21.2,11.5a21.8,21.8,0,0,1,7.1,16.4,22.18,22.18,0,0,1-8.6,18.2c-5.7,4.7-13.2,7-22.5,7-10.1,0-18-2.8-23.8-8.4s-8.5-12.2-8.2-19.7l.2-.5h15.7c.2,5.8,1.9,10,4.9,12.6a17.62,17.62,0,0,0,11.5,3.9c4.5,0,8-1.2,10.5-3.4A10.74,10.74,0,0,0,930.3,1374.6Z"/><path data-cppathid="10023" fill="#fff" d="M204.2,1557.5c0,14.3-3.9,25.5-11.6,33.5s-18.1,12-31.1,12c-12.8,0-23.1-4-30.6-12s-11.4-19.2-11.4-33.5v-33.2c0-14.3,3.8-25.5,11.4-33.5s17.8-12.1,30.5-12.1c13,0,23.4,4,31.2,12.1s11.7,19.2,11.7,33.6Zm-16.7-33.4c0-10.5-2.3-18.5-6.8-24s-10.9-8.2-19.3-8.2c-8.1,0-14.3,2.7-18.6,8.2s-6.5,13.5-6.5,24v33.4c0,10.6,2.2,18.7,6.6,24.2s10.6,8.2,18.7,8.2c8.4,0,14.8-2.7,19.2-8.2s6.7-13.5,6.7-24.2Z"/><path data-cppathid="10024" fill="#fff" d="M260.7,1525.5l-7.3-.4a12.7,12.7,0,0,0-8.9,3.2,20.35,20.35,0,0,0-5.4,9v64H222.2v-89.8h15.5l1.2,13.3a29,29,0,0,1,7.6-11,15.73,15.73,0,0,1,10.7-3.9,15.26,15.26,0,0,1,3,.3,23.35,23.35,0,0,1,2.5.7Z"/><path data-cppathid="10025" fill="#fff" d="M270,1557.4c0-14.4,2.6-25.9,7.9-34.6s12.7-13,22.2-13a22.41,22.41,0,0,1,12.3,3.4,27.62,27.62,0,0,1,9,9.6l1.6-11.3h14.1v90c0,11.5-3.1,20.4-9.2,26.7s-14.8,9.4-26,9.4a45.49,45.49,0,0,1-12.2-1.7,54,54,0,0,1-11.7-4.7l2.7-12.6a44.65,44.65,0,0,0,9.9,4,38.25,38.25,0,0,0,11.2,1.4c6.3,0,11-1.9,14-5.6s4.5-9.4,4.5-17v-8.9a24.45,24.45,0,0,1-8.7,7.9,26,26,0,0,1-11.6,2.7c-9.5,0-16.8-4-22.1-12s-7.9-18.6-7.9-31.8Zm17,1.8c0,9.5,1.4,17,4.1,22.5s7.2,8.3,13.2,8.3a15.76,15.76,0,0,0,9.6-2.9,20.59,20.59,0,0,0,6.4-8.2v-44.2a22.93,22.93,0,0,0-6.4-8.7,15.55,15.55,0,0,0-9.5-3.2q-9,0-13.2,9.6c-2.8,6.4-4.2,14.7-4.2,25Z"/><path data-cppathid="10026" fill="#fff" d="M403.2,1601.2c-.7-2.7-1.3-5.1-1.7-7.3a45.23,45.23,0,0,1-.8-6.3,33.23,33.23,0,0,1-9.4,11A21.9,21.9,0,0,1,378,1603c-8,0-14.2-2.4-18.5-7.1s-6.5-11.3-6.4-19.5c0-8.5,3-15.1,8.9-20s14.2-7.3,24.9-7.3h13.8v-9.2c0-5.5-1.2-9.8-3.6-12.8s-5.9-4.6-10.5-4.6a12.63,12.63,0,0,0-9.8,4,14.24,14.24,0,0,0-3.6,10.2l-16.1.1-.2-.5c-.3-7,2.4-13.1,8.1-18.4s13.3-8,22.6-8c8.9,0,16.1,2.6,21.7,7.8s8.3,12.7,8.3,22.4v41.7a67.25,67.25,0,0,0,.7,10,53.1,53.1,0,0,0,2.1,9.6ZM381.4,1590a18.76,18.76,0,0,0,12.2-4.3,19.91,19.91,0,0,0,7-10.3v-15.9h-14c-5.2,0-9.3,1.6-12.2,4.9a17.39,17.39,0,0,0-4.4,11.9c0,4.2,1,7.5,3,10A10.18,10.18,0,0,0,381.4,1590Z"/><path data-cppathid="10027" fill="#fff" d="M452.1,1511.4l1,13.4a32.09,32.09,0,0,1,9.6-11.1,23,23,0,0,1,13.2-3.9c8,0,14.2,2.9,18.6,8.8s6.7,15,6.7,27.4v55.3H484.3v-55.2c0-8.5-1.2-14.5-3.5-17.9s-5.9-5.2-10.7-5.2a16.17,16.17,0,0,0-10,3,20.51,20.51,0,0,0-6.6,8.3v67H436.6v-89.8Z"/><path data-cppathid="10028" fill="#fff" d="M538.5,1487.9H521.6v-16.1h16.9Zm0,113.3H521.6v-89.8h16.9Z"/><path data-cppathid="10029" fill="#fff" d="M574.9,1588.5h43.7v12.8H555.9v-10.6l41.4-66.2H556.8v-13h59.8V1522Z"/><path data-cppathid="10030" fill="#fff" d="M680.7,1601.2c-.7-2.7-1.3-5.1-1.7-7.3a45.23,45.23,0,0,1-.8-6.3,33.23,33.23,0,0,1-9.4,11,21.9,21.9,0,0,1-13.3,4.4c-8,0-14.2-2.4-18.5-7.1s-6.5-11.3-6.4-19.5c0-8.5,3-15.1,8.9-20s14.2-7.3,24.9-7.3h13.8v-9.2c0-5.5-1.2-9.8-3.7-12.8s-5.9-4.6-10.5-4.6a12.63,12.63,0,0,0-9.8,4,14.24,14.24,0,0,0-3.6,10.2l-16.1.1-.2-.5c-.3-7,2.4-13.1,8.1-18.4s13.3-8,22.6-8c8.9,0,16.1,2.6,21.7,7.8s8.3,12.7,8.3,22.4v41.7a67.25,67.25,0,0,0,.7,10,63.24,63.24,0,0,0,2.1,9.6ZM658.9,1590a18.76,18.76,0,0,0,12.2-4.3,19.91,19.91,0,0,0,7-10.3v-15.9h-14c-5.2,0-9.3,1.6-12.2,4.9a17.39,17.39,0,0,0-4.4,11.9c0,4.2,1,7.5,3,10A10.06,10.06,0,0,0,658.9,1590Z"/><path data-cppathid="10031" fill="#fff" d="M745.5,1590.2a13,13,0,0,0,10.4-4.8c2.8-3.2,4.2-7.5,4.2-13h15.2l.2.5a27.69,27.69,0,0,1-8.5,21.4,29.28,29.28,0,0,1-21.4,8.7c-11.1,0-19.6-4.2-25.6-12.7s-9-19.2-9.1-32.3v-3.2c0-13.1,3-23.8,9-32.3s14.6-12.7,25.7-12.7c9,0,16.2,3,21.9,9.1s8.3,13.9,8.2,23.6l-.2.4H760.2c0-6-1.3-10.9-4-14.6a12.18,12.18,0,0,0-10.6-5.6c-6.3,0-10.9,3-13.7,9.1s-4.2,13.8-4.2,23v3.1c0,9.4,1.4,17.1,4.2,23.2S739.2,1590.2,745.5,1590.2Z"/><path data-cppathid="10032" fill="#fff" d="M809.3,1487.9H792.4v-16.1h16.9Zm0,113.3H792.4v-89.8h16.9Z"/><path data-cppathid="10033" fill="#fff" d="M826.4,1555.3c0-13.3,3.2-24.3,9.5-32.8s15-12.8,26-12.8,19.7,4.3,26,12.8,9.5,19.5,9.5,32.8v2.2c0,13.4-3.2,24.3-9.5,32.8S873,1603,862,1603s-19.8-4.2-26.2-12.7-9.5-19.4-9.5-32.8Zm17,2.3c0,9.6,1.5,17.4,4.6,23.5s7.8,9.1,14.1,9.1c6.1,0,10.7-3.1,13.8-9.2s4.6-13.9,4.6-23.4v-2.2c0-9.4-1.5-17.2-4.7-23.4s-7.7-9.3-13.9-9.3-10.8,3.1-13.9,9.3-4.6,14-4.6,23.4Z"/><path data-cppathid="10034" fill="#fff" d="M928.8,1511.4l1,13.4a32.09,32.09,0,0,1,9.6-11.1,23,23,0,0,1,13.2-3.9c8,0,14.2,2.9,18.6,8.8s6.6,15,6.6,27.4v55.3H961v-55.2c0-8.5-1.2-14.4-3.5-17.9s-5.9-5.2-10.7-5.3a16.17,16.17,0,0,0-10,3,20.51,20.51,0,0,0-6.6,8.3v67H913.3v-89.8Z"/><path data-cppathid="10035" fill="#fff" d="M1043.9,1601.2c-.7-2.7-1.3-5.1-1.7-7.3a45.23,45.23,0,0,1-.8-6.3,33.23,33.23,0,0,1-9.4,11,21.9,21.9,0,0,1-13.3,4.4c-8,0-14.2-2.4-18.5-7.1s-6.5-11.3-6.4-19.5c0-8.5,3-15.1,8.9-20s14.2-7.3,24.9-7.3h13.8v-9.2c0-5.5-1.2-9.8-3.7-12.8s-5.9-4.6-10.5-4.6a12.63,12.63,0,0,0-9.8,4,14.24,14.24,0,0,0-3.6,10.2l-16.1.1-.2-.5c-.3-7,2.4-13.1,8.1-18.4s13.3-8,22.6-8c8.9,0,16.1,2.6,21.7,7.8s8.3,12.7,8.3,22.4v41.7a67.25,67.25,0,0,0,.7,10,63.24,63.24,0,0,0,2.1,9.6Zm-21.8-11.2a18.76,18.76,0,0,0,12.2-4.3,19.91,19.91,0,0,0,7-10.3v-15.9h-14c-5.2,0-9.3,1.7-12.2,4.9a17.39,17.39,0,0,0-4.4,11.9c0,4.2,1,7.5,3,10A10.06,10.06,0,0,0,1022.1,1590Z"/><path data-cppathid="10036" fill="#fff" d="M1095.5,1601.2h-16.9V1471.7h16.9Z"/><path data-cppathid="10037" fill="#fff" d="M1148.5,1603c-11.2,0-19.9-4.1-26.3-12.3s-9.5-18.9-9.5-32v-3.9c0-13.2,3.2-24,9.5-32.4s14.6-12.7,24.7-12.7,18,3.6,23.4,10.9,8,17,8,29.2v9.5h-48.7c0,9.2,1.6,16.6,4.9,22.3s8.3,8.6,15.2,8.6a29.38,29.38,0,0,0,21.9-8.6l5.5,10.5a35.71,35.71,0,0,1-11.8,7.8A44.28,44.28,0,0,1,1148.5,1603Zm-1.6-80.3c-4.9,0-8.7,2.3-11.6,6.8s-4.7,10.5-5.4,17.9h31.8v-1.9c0-6.7-1.2-12.2-3.6-16.4s-6.1-6.4-11.2-6.4Z"/><path data-cppathid="10038" fill="#fff" d="M1236.1,1578.6a12.15,12.15,0,0,0-3.5-8.8c-2.3-2.3-6.8-5-13.4-7.9-9.2-3.5-16.2-7.3-20.8-11.4a20.21,20.21,0,0,1-6.9-15.8c0-6.9,2.8-12.8,8.3-17.7s12.8-7.3,21.7-7.3c9.2,0,16.7,2.7,22.3,8a24.19,24.19,0,0,1,8.1,19.4l-.2.5h-16.3a16.4,16.4,0,0,0-3.8-11,12.32,12.32,0,0,0-10.2-4.6c-4.3,0-7.7,1.2-10.1,3.6a11.57,11.57,0,0,0-3.6,8.4,10.62,10.62,0,0,0,3.1,8.1c2.1,2,6.5,4.5,13.3,7.6,9.4,3.3,16.5,7.2,21.2,11.5a21.8,21.8,0,0,1,7.1,16.4,22.18,22.18,0,0,1-8.6,18.2c-5.7,4.7-13.2,7-22.5,7-10.1,0-18-2.8-23.8-8.4a25.47,25.47,0,0,1-8.3-19.7l.2-.5h15.7c.2,5.8,1.9,10,4.9,12.6a17.62,17.62,0,0,0,11.5,3.9c4.5,0,8-1.2,10.5-3.4A10.55,10.55,0,0,0,1236.1,1578.6Z"/></g><g id="Borde"><path data-cppathid="10039" stroke-width="11" stroke-miterlimit="10" stroke="#71f3cf" fill="none" d="M151.6,5.5H1218.4a146.09,146.09,0,0,1,146.1,146.1V1510.4a146.09,146.09,0,0,1-146.1,146.1H151.6A146.09,146.09,0,0,1,5.5,1510.4V151.6A146.09,146.09,0,0,1,151.6,5.5Z"/></g></svg>