<?xml version="1.0" encoding="UTF-8"?>
<svg xmlns="http://www.w3.org/2000/svg" onmouseup="{ if(window.parent.document.onmouseup) window.parent.document.onmouseup(arguments[0]);}" viewBox="0 0 1370 1662"><defs><style>.cls-1{fill:#fff;}.cls-2{fill:#00ff0c;}.cls-3{fill:#03e503;}.cls-4{fill:none;stroke:#71f3cf;stroke-miterlimit:10;stroke-width:11px;}</style></defs><g id="IMG"><path data-cppathid="10000" transform="translate(-0.11 0)" d="M320.74,871.2a115.8,115.8,0,1,1,115.8-115.8A115.87,115.87,0,0,1,320.74,871.2Zm0-195.4a79.7,79.7,0,1,0,79.7,79.7h0a79.79,79.79,0,0,0-79.7-79.7Z" class="cls-1"/><path data-cppathid="10001" transform="translate(-0.11 0)" d="M556.94,1123.7H380.14a76.55,76.55,0,0,1-70.9-47.3L269,978.9a18.07,18.07,0,1,1,33.4-13.8l40.2,97.5a40.68,40.68,0,0,0,37.5,25h176.8a19.9,19.9,0,0,0,0-39.8H398.64a18.35,18.35,0,0,1-16.8-11.2l-52.3-128.2a18.05,18.05,0,1,1,33.2-14.2,1.69,1.69,0,0,1,.2.5l47.8,116.9h146.2a56.05,56.05,0,1,1,0,112.1Z" class="cls-1"/><path data-cppathid="10002" transform="translate(-0.11 0)" d="M161.74,1233.2h-1.3a18.26,18.26,0,0,1-16.9-19.3h0l15.1-210.5A366.06,366.06,0,0,1,229.44,810a18.09,18.09,0,0,1,29.1,21.5h0a329.74,329.74,0,0,0-63.8,174.5l-15.1,210.5A18,18,0,0,1,161.74,1233.2Z" class="cls-1"/><path data-cppathid="10003" transform="translate(-0.11 0)" d="M1044.44,871.2a115.8,115.8,0,1,1,115.8-115.8h0A116,116,0,0,1,1044.44,871.2Zm0-195.4a79.7,79.7,0,1,0,79.7,79.7h0a79.72,79.72,0,0,0-79.7-79.7Z" class="cls-1"/><path data-cppathid="10004" transform="translate(-0.11 0)" d="M985,1123.7H808.34a56.05,56.05,0,1,1,0-112.1h146.2l47.7-116.9a18,18,0,0,1,23.7-9.5,18.21,18.21,0,0,1,9.8,23.2l-52.3,128.2a18.11,18.11,0,0,1-16.7,11.2H808.34a19.9,19.9,0,0,0,0,39.8H985a40.52,40.52,0,0,0,37.5-25l40.2-97.4a18,18,0,1,1,33.6,13.2,2.19,2.19,0,0,1-.3.5l-40.2,97.5A76,76,0,0,1,985,1123.7Z" class="cls-1"/><path data-cppathid="10005" transform="translate(-0.11 0)" d="M1203.64,1233.2a18,18,0,0,1-18-16.8l-15.1-210.4a330,330,0,0,0-63.8-174.5,18.14,18.14,0,0,1,29.2-21.5,365.88,365.88,0,0,1,70.8,193.6l15,210.3a18,18,0,0,1-16.8,19.3h-1.3Z" class="cls-1"/><path data-cppathid="10006" transform="translate(-0.11 0)" d="M777.44,1000.6a18.29,18.29,0,0,1-15.9-9.3l-95.4-172.5a57.22,57.22,0,0,1,99.3-56.9l66,113.4,118.4-7.3a18.08,18.08,0,1,1,2.1,36.1l-129.5,8a18.47,18.47,0,0,1-16.8-8.9L734,780.1a21.1,21.1,0,0,0-36.6,21l95.5,172.6a18.24,18.24,0,0,1-7,24.6A16.67,16.67,0,0,1,777.44,1000.6Z" class="cls-1"/><path data-cppathid="10007" transform="translate(-0.11 0)" d="M1065.24,1126H305.54a18.1,18.1,0,1,1-.8-36.2h760.5a18.1,18.1,0,0,1,0,36.2Z" class="cls-1"/><path data-cppathid="10008" transform="translate(-0.11 0)" d="M685.34,1219.8a18,18,0,0,1-18-18h0v-92.6a18.1,18.1,0,1,1,36.2-.8v93.4A18.23,18.23,0,0,1,685.34,1219.8Z" class="cls-1"/><path data-cppathid="10009" transform="translate(-0.11 0)" d="M1124,638.5a18.07,18.07,0,0,1-18.1-18,16.55,16.55,0,0,1,.3-3.2,430,430,0,0,0,6.7-75.9c0-237.3-193.1-430.3-430.3-430.3s-430.3,193-430.3,430.3a278.8,278.8,0,0,0,6.7,53.8,18.11,18.11,0,0,1-35.3,8.1h0a307.43,307.43,0,0,1-7.7-61.9c.2-257.2,209.4-466.5,466.6-466.5s466.5,209.3,466.5,466.5a481.14,481.14,0,0,1-7.2,82.2A18.3,18.3,0,0,1,1124,638.5Z" class="cls-1"/><path data-cppathid="10010" transform="translate(-0.11 0)" d="M682.64,212.4a18,18,0,0,1-18-18h0v-29a18.1,18.1,0,0,1,36.2-.8v29.6A18.4,18.4,0,0,1,682.64,212.4Z" class="cls-1"/><path data-cppathid="10011" transform="translate(-0.11 0)" d="M1063.54,564.3h-28.9a18.1,18.1,0,1,1-.8-36.2h29.7a18.1,18.1,0,0,1,.8,36.2Z" class="cls-1"/><path data-cppathid="10012" transform="translate(-0.11 0)" d="M947.64,299.2a18,18,0,0,1-18-18.1,18.26,18.26,0,0,1,5.3-12.8l4.3-4.3a18.08,18.08,0,0,1,25.5,25.6l-4.3,4.3A18.26,18.26,0,0,1,947.64,299.2Z" class="cls-1"/><path data-cppathid="10013" transform="translate(-0.11 0)" d="M417.54,299.2a18.09,18.09,0,0,1-12.8-5.3l-4.3-4.3a18,18,0,1,1,24.5-26.5,7.64,7.64,0,0,1,.9.9l4.3,4.3a18.23,18.23,0,0,1,0,25.6A17.29,17.29,0,0,1,417.54,299.2Z" class="cls-1"/><path data-cppathid="10014" transform="translate(-0.11 0)" d="M848.94,564.3H682.64a18,18,0,0,1-18-18h0V264.1a18.1,18.1,0,0,1,36.2-.8V528.1h148.3a18.1,18.1,0,0,1,17.7,18.5A18.53,18.53,0,0,1,848.94,564.3Z" class="cls-1"/><path data-cppathid="10015" transform="translate(-0.11 0)" d="M333,564.3h-28.9a18.1,18.1,0,1,1-.8-36.2H333a18.1,18.1,0,0,1,.8,36.2Z" class="cls-1"/></g><g id="TXT"><path data-cppathid="10016" transform="translate(-0.11 0)" d="M428.78,1397.25V1276.39h33.45q17.36,0,27.1,8.13t9.76,24.41a27.1,27.1,0,0,1-4.24,15,24.73,24.73,0,0,1-11.79,9.63,23.46,23.46,0,0,1,16.23,10,33.51,33.51,0,0,1,5.69,19.47q0,16.68-9.59,25.44T469,1397.25Zm16.85-68.49H464.8q8.15-.24,12.74-5.27t4.61-14.23q0-10-5.06-14.94t-14.86-5h-16.6Zm0,12.12v43.58H469q9.14,0,14.11-5.52t5-15.81q0-10-4.86-15.94t-13.66-6.31h-23.9Z" class="cls-1"/><path data-cppathid="10017" transform="translate(-0.11 0)" d="M538.76,1397.25H521.83v-129.5h16.93Z" class="cls-1"/><path data-cppathid="10018" transform="translate(-0.11 0)" d="M556,1351.34q0-20,9.46-32.79t26-12.78q16.51,0,26,12.78t9.51,32.79v2.24q0,20.1-9.47,32.75T591.56,1399q-16.69,0-26.15-12.66T556,1353.58Zm16.93,2.24q0,14.37,4.61,23.5t14.07,9.13q9.21,0,13.82-9.18t4.6-23.45v-2.24q0-14.1-4.64-23.36t-14-9.26q-9.3,0-13.9,9.26t-4.61,23.36Z" class="cls-1"/><path data-cppathid="10019" transform="translate(-0.11 0)" d="M639.87,1353.42q0-21.59,7.88-34.62t22.17-13a22.76,22.76,0,0,1,12,3.16,26.89,26.89,0,0,1,8.88,9l1.83-10.46h13.86v124.35H689.59v-42.67a23.69,23.69,0,0,1-8.51,7.39,24.83,24.83,0,0,1-11.33,2.49q-14.19,0-22-12t-7.84-31.83Zm16.76,1.74q0,14.19,4.24,22.62t13.2,8.43a15.56,15.56,0,0,0,9.21-2.7,20.29,20.29,0,0,0,6.31-7.68v-46.24a21.08,21.08,0,0,0-6.27-8,14.79,14.79,0,0,0-9.17-2.91q-9,0-13.24,9.67t-4.28,25Z" class="cls-1"/><path data-cppathid="10020" transform="translate(-0.11 0)" d="M775,1384.13a28.85,28.85,0,0,1-9.29,11,22.72,22.72,0,0,1-13.12,3.86q-12.36,0-19.34-9.55t-7-29.63v-52.38h16.93V1360q0,14.43,3.32,20.21a10.91,10.91,0,0,0,10.13,5.77,18.6,18.6,0,0,0,10.58-2.91,19.4,19.4,0,0,0,6.85-8.3v-67.32H791v89.82H776.66Z" class="cls-1"/><path data-cppathid="10021" transform="translate(-0.11 0)" d="M842.82,1399q-16.77,0-26.27-12.29t-9.51-32v-3.91q0-19.75,9.47-32.41t24.73-12.66q15.36,0,23.37,10.88t8,29.21v9.47H823.89q0,13.77,4.94,22.33t15.15,8.55a29.4,29.4,0,0,0,21.92-8.64l5.48,10.46a35.83,35.83,0,0,1-11.83,7.8A42,42,0,0,1,842.82,1399Zm-1.58-80.27q-7.31,0-11.62,6.77t-5.39,17.88H856v-1.91q0-10.12-3.61-16.43T841.24,1318.72Z" class="cls-1"/><path data-cppathid="10022" transform="translate(-0.11 0)" d="M930.39,1374.58a12,12,0,0,0-3.48-8.75q-3.49-3.52-13.37-7.93-13.86-5.24-20.75-11.37a20.19,20.19,0,0,1-6.89-15.77q0-10.38,8.34-17.68t21.71-7.31q13.86,0,22.33,8a24.65,24.65,0,0,1,8.13,19.38l-.16.5H930a16.79,16.79,0,0,0-3.78-11,12.55,12.55,0,0,0-10.25-4.6q-6.48,0-10.09,3.61a11.55,11.55,0,0,0-3.61,8.42,10.62,10.62,0,0,0,3.12,8.1q3.11,2.94,13.32,7.59,14.12,5,21.21,11.54a21.44,21.44,0,0,1,7.1,16.43,22.4,22.4,0,0,1-8.6,18.22q-8.58,7-22.53,7-15.12,0-23.79-8.43t-8.25-19.71l.16-.5h15.69q.33,8.72,4.94,12.58a17.3,17.3,0,0,0,11.5,3.86q6.72,0,10.5-3.45A11.34,11.34,0,0,0,930.39,1374.58Z" class="cls-1"/><path data-cppathid="10023" transform="translate(-0.11 0)" d="M204.32,1557.5q0,21.49-11.62,33.49t-31.12,12q-19.26,0-30.63-12t-11.38-33.49v-33.2q0-21.42,11.38-33.54t30.54-12.12q19.51,0,31.17,12.08t11.66,33.58Zm-16.76-33.45q0-15.77-6.77-24t-19.3-8.18q-12.12,0-18.63,8.18t-6.52,24v33.45q0,15.95,6.56,24.16t18.68,8.21q12.53,0,19.25-8.17t6.73-24.2Z" class="cls-1"/><path data-cppathid="10024" transform="translate(-0.11 0)" d="M260.77,1525.46l-7.3-.42a12.7,12.7,0,0,0-8.85,3.2,20.43,20.43,0,0,0-5.43,9v64H222.25v-89.82h15.53l1.16,13.28a28.87,28.87,0,0,1,7.64-11,16.07,16.07,0,0,1,10.7-3.94,14.47,14.47,0,0,1,3,.29,16.71,16.71,0,0,1,2.45.71Z" class="cls-1"/><path data-cppathid="10025" transform="translate(-0.11 0)" d="M270.15,1557.42q0-21.59,7.89-34.62t22.24-13a22.71,22.71,0,0,1,12.33,3.36,27.42,27.42,0,0,1,9,9.59l1.58-11.29H337.3v90q0,17.27-9.21,26.69t-26,9.42a47.64,47.64,0,0,1-12.25-1.74,49.1,49.1,0,0,1-11.74-4.73l2.74-12.62a43.33,43.33,0,0,0,9.92,4,42.79,42.79,0,0,0,11.16,1.45q9.46,0,13.95-5.61t4.48-17v-8.88a24.79,24.79,0,0,1-8.67,7.88,24.42,24.42,0,0,1-11.58,2.66q-14.21,0-22.08-12t-7.89-31.83Zm16.93,1.74q0,14.19,4.15,22.5t13.2,8.3a15.71,15.71,0,0,0,9.59-2.91,20.3,20.3,0,0,0,6.35-8.22v-44.16A22.27,22.27,0,0,0,314,1526a14.76,14.76,0,0,0-9.5-3.15q-9,0-13.2,9.58t-4.24,25Z" class="cls-1"/><path data-cppathid="10026" transform="translate(-0.11 0)" d="M403.29,1601.25c-.72-2.71-1.28-5.14-1.7-7.27a46.28,46.28,0,0,1-.79-6.35,32.92,32.92,0,0,1-9.42,11,21.69,21.69,0,0,1-13.32,4.36q-12,0-18.47-7.14t-6.43-19.51q0-12.69,8.92-20t24.86-7.31h13.78v-9.21q0-8.22-3.65-12.82t-10.46-4.61a12.5,12.5,0,0,0-9.75,4,14.61,14.61,0,0,0-3.61,10.21l-16.11.09-.16-.5q-.51-10.45,8.13-18.43t22.58-8q13.37,0,21.66,7.85t8.3,22.37v41.67a74.2,74.2,0,0,0,.67,10,63.55,63.55,0,0,0,2.07,9.59ZM381.55,1590a18.91,18.91,0,0,0,12.2-4.27,19.83,19.83,0,0,0,7-10.34v-15.94h-14q-7.8,0-12.2,4.94a17.32,17.32,0,0,0-4.4,11.91q0,6.23,3,10A10.22,10.22,0,0,0,381.55,1590Z" class="cls-1"/><path data-cppathid="10027" transform="translate(-0.11 0)" d="M452.19,1511.43l1,13.37a30.45,30.45,0,0,1,9.63-11.09,23,23,0,0,1,13.2-3.94q12,0,18.63,8.8t6.69,27.39v55.29H484.48v-55.2q0-12.71-3.53-17.93t-10.67-5.23a16.44,16.44,0,0,0-10,3,21.19,21.19,0,0,0-6.64,8.34v67H436.75v-89.82Z" class="cls-1"/><path data-cppathid="10028" transform="translate(-0.11 0)" d="M538.6,1487.86H521.66v-16.11H538.6Zm0,113.39H521.66v-89.82H538.6Z" class="cls-1"/><path data-cppathid="10029" transform="translate(-0.11 0)" d="M575,1588.46H618.7v12.79H556v-10.63l41.42-66.16H556.94v-13h59.85v10.46Z" class="cls-1"/><path data-cppathid="10030" transform="translate(-0.11 0)" d="M680.79,1601.25c-.72-2.71-1.29-5.14-1.7-7.27a44.78,44.78,0,0,1-.79-6.35,32.92,32.92,0,0,1-9.42,11,21.69,21.69,0,0,1-13.32,4.36q-12,0-18.47-7.14t-6.44-19.51q0-12.69,8.93-20t24.86-7.31h13.78v-9.21q0-8.22-3.66-12.82t-10.46-4.61a12.53,12.53,0,0,0-9.75,4,14.61,14.61,0,0,0-3.61,10.21l-16.1.09-.17-.5q-.5-10.45,8.14-18.43t22.57-8q13.37,0,21.67,7.85t8.3,22.37v41.67a74.21,74.21,0,0,0,.66,10,64.83,64.83,0,0,0,2.08,9.59ZM659,1590a18.91,18.91,0,0,0,12.2-4.27,19.85,19.85,0,0,0,7-10.34v-15.94h-14q-7.8,0-12.2,4.94a17.28,17.28,0,0,0-4.4,11.91q0,6.23,3,10A10.24,10.24,0,0,0,659,1590Z" class="cls-1"/><path data-cppathid="10031" transform="translate(-0.11 0)" d="M745.62,1590.21a13.28,13.28,0,0,0,10.42-4.82q4.19-4.82,4.19-13h15.19l.16.5a27.68,27.68,0,0,1-8.55,21.41,29.47,29.47,0,0,1-21.41,8.72Q729,1603,720,1590.33T710.92,1558v-3.16q0-19.58,9.05-32.33t25.65-12.74q13.44,0,21.87,9.09t8.18,23.62l-.17.41H760.23q0-9-4-14.57a12.45,12.45,0,0,0-10.58-5.6q-9.47,0-13.66,9.13t-4.19,23V1558q0,14.12,4.15,23.16T745.62,1590.21Z" class="cls-1"/><path data-cppathid="10032" transform="translate(-0.11 0)" d="M809.37,1487.86H792.43v-16.11h16.94Zm0,113.39H792.43v-89.82h16.94Z" class="cls-1"/><path data-cppathid="10033" transform="translate(-0.11 0)" d="M826.55,1555.34q0-20,9.46-32.79t26-12.78q16.51,0,26,12.78t9.5,32.79v2.24q0,20.1-9.46,32.75T862.16,1603q-16.68,0-26.15-12.66t-9.46-32.75Zm16.93,2.24q0,14.37,4.61,23.5t14.07,9.13q9.21,0,13.82-9.18t4.61-23.45v-2.24q0-14.1-4.65-23.36T862,1522.72q-9.3,0-13.91,9.26t-4.61,23.36Z" class="cls-1"/><path data-cppathid="10034" transform="translate(-0.11 0)" d="M928.9,1511.43l1,13.37a30.34,30.34,0,0,1,9.62-11.09,23,23,0,0,1,13.2-3.94q12,0,18.64,8.8T978,1546v55.29H961.19v-55.2q0-12.71-3.53-17.93T947,1522.89a16.45,16.45,0,0,0-10,3,21.27,21.27,0,0,0-6.64,8.34v67H913.46v-89.82Z" class="cls-1"/><path data-cppathid="10035" transform="translate(-0.11 0)" d="M1044,1601.25c-.72-2.71-1.29-5.14-1.7-7.27a44.78,44.78,0,0,1-.79-6.35,32.92,32.92,0,0,1-9.42,11,21.74,21.74,0,0,1-13.33,4.36q-12,0-18.47-7.14t-6.43-19.51q0-12.69,8.92-20t24.87-7.31h13.78v-9.21q0-8.22-3.66-12.82t-10.46-4.61a12.53,12.53,0,0,0-9.75,4,14.61,14.61,0,0,0-3.61,10.21l-16.1.09-.17-.5q-.5-10.45,8.13-18.43t22.58-8q13.37,0,21.67,7.85t8.3,22.37v41.67a74.21,74.21,0,0,0,.66,10,64.83,64.83,0,0,0,2.08,9.59ZM1022.2,1590a18.91,18.91,0,0,0,12.2-4.27,19.85,19.85,0,0,0,7-10.34v-15.94h-14c-5.21,0-9.27,1.65-12.21,4.94a17.32,17.32,0,0,0-4.39,11.91q0,6.23,3,10A10.24,10.24,0,0,0,1022.2,1590Z" class="cls-1"/><path data-cppathid="10036" transform="translate(-0.11 0)" d="M1095.58,1601.25h-16.93v-129.5h16.93Z" class="cls-1"/><path data-cppathid="10037" transform="translate(-0.11 0)" d="M1148.62,1603q-16.77,0-26.27-12.29t-9.51-32v-3.91q0-19.75,9.47-32.41t24.73-12.66q15.36,0,23.37,10.88t8,29.21v9.47H1129.7q0,13.77,4.93,22.33t15.15,8.55a29.4,29.4,0,0,0,21.92-8.64l5.48,10.46a35.83,35.83,0,0,1-11.83,7.8A42,42,0,0,1,1148.62,1603Zm-1.58-80.27q-7.3,0-11.62,6.77t-5.39,17.88h31.79v-1.91q0-10.12-3.61-16.43T1147,1522.72Z" class="cls-1"/><path data-cppathid="10038" transform="translate(-0.11 0)" d="M1236.19,1578.58a12,12,0,0,0-3.48-8.75q-3.49-3.52-13.37-7.93-13.86-5.24-20.75-11.37a20.19,20.19,0,0,1-6.89-15.77q0-10.38,8.34-17.68t21.71-7.31q13.86,0,22.33,8a24.62,24.62,0,0,1,8.13,19.38l-.16.5h-16.27a16.79,16.79,0,0,0-3.78-11,12.55,12.55,0,0,0-10.25-4.6q-6.48,0-10.08,3.61a11.52,11.52,0,0,0-3.62,8.42,10.62,10.62,0,0,0,3.12,8.1q3.11,2.94,13.32,7.59,14.12,5,21.21,11.54a21.44,21.44,0,0,1,7.1,16.43,22.4,22.4,0,0,1-8.6,18.22q-8.58,7-22.53,7-15.11,0-23.78-8.43t-8.26-19.71l.16-.5h15.69q.33,8.72,4.94,12.58a17.3,17.3,0,0,0,11.5,3.86q6.72,0,10.5-3.45A11.34,11.34,0,0,0,1236.19,1578.58Z" class="cls-1"/></g><g id="Check"><g data-name="Capa 2-2" id="Capa_2-2"><path data-cppathid="10039" transform="translate(-0.11 0)" d="M1030,637.23l-17.13-18.54a40.46,40.46,0,0,0-57.14-2.84c-1,.9-1.94,1.84-2.85,2.84l-370.75,398.6L417.33,838.68a40.35,40.35,0,0,0-57-3h0a39.49,39.49,0,0,0-3,3l-20.85,22.41,242.22,263.07Z" class="cls-2"/><path data-cppathid="10040" transform="translate(-0.11 0)" d="M1030,637.23,578.9,1124,336.68,860.92l-22.17,23.82a48.51,48.51,0,0,0,0,64.66l237.62,257.23a40.19,40.19,0,0,0,53.39,5.85,42.94,42.94,0,0,0,7.58-6.34l442.6-476.31a48.52,48.52,0,0,0,0-64.67Z" class="cls-3"/></g></g><g id="Borde"><rect data-cppathid="10041" rx="146.08" height="1651" width="1359" y="5.5" x="5.5" class="cls-4"/></g></svg>