<?xml version="1.0" encoding="UTF-8"?>
<svg xmlns="http://www.w3.org/2000/svg" onmouseup="{ if(window.parent.document.onmouseup) window.parent.document.onmouseup(arguments[0]);}" viewBox="0 0 248.5 270.05"><defs><style>.cls-1,.cls-3{fill:#fff;}.cls-2{fill:#f2a808;}.cls-3{fill-rule:evenodd;}.cls-4{fill:#00ffd3;}.cls-5{fill:#00ff0c;}.cls-6{fill:#03e503;}</style></defs><g id="TXT"><path data-cppathid="10000" transform="translate(0 -0.1)" d="M61,215.18h.1l7.26-18.49h3.83v22.75H69.09v-17l-.09,0-6.89,17.06H60l-7.1-17.62h-.09v17.61H49.7V196.69h4Z" class="cls-1"/><path data-cppathid="10001" transform="translate(0 -0.1)" d="M84.08,219.77a7.16,7.16,0,0,1-5.68-2.33,8.94,8.94,0,0,1-2-6.12v-.69a8.76,8.76,0,0,1,2.1-6,6.59,6.59,0,0,1,5.13-2.39,6.16,6.16,0,0,1,5.09,2.11,8.71,8.71,0,0,1,1.69,5.61v1.63H79.56l0,.08a7,7,0,0,0,1.13,4.13,3.93,3.93,0,0,0,3.44,1.58,7.68,7.68,0,0,0,2.74-.44,6.12,6.12,0,0,0,2-1.23l1.21,2a7.44,7.44,0,0,1-2.39,1.48A9.58,9.58,0,0,1,84.08,219.77Zm-.49-15.12a3.33,3.33,0,0,0-2.66,1.24,5.94,5.94,0,0,0-1.29,3.18l0,.08H87.3v-.25a5,5,0,0,0-.91-3.05A3.28,3.28,0,0,0,83.59,204.65Z" class="cls-1"/><path data-cppathid="10002" transform="translate(0 -0.1)" d="M98.11,198.46v4.08h3.2v2.28h-3.2v10.26a2.28,2.28,0,0,0,.49,1.67,1.76,1.76,0,0,0,1.31.49,2.68,2.68,0,0,0,.59-.07c.22,0,.4-.1.55-.15l.42,2.11a2.7,2.7,0,0,1-1,.46,5.13,5.13,0,0,1-1.33.18,4,4,0,0,1-3-1.13A4.93,4.93,0,0,1,95,215.08V204.82H92.34v-2.28H95v-4.08Z" class="cls-1"/><path data-cppathid="10003" transform="translate(0 -0.1)" d="M115,219.44q-.16-.76-.24-1.35a9.24,9.24,0,0,1-.1-1.18,7.27,7.27,0,0,1-2.25,2,5.68,5.68,0,0,1-3,.82,5.56,5.56,0,0,1-4-1.35,5,5,0,0,1-1.38-3.73,4.38,4.38,0,0,1,2-3.79,9.17,9.17,0,0,1,5.32-1.36h3.35v-1.68a3.12,3.12,0,0,0-.91-2.35,3.56,3.56,0,0,0-2.56-.86,3.75,3.75,0,0,0-2.43.75,2.25,2.25,0,0,0-.92,1.79l-2.92,0,0-.09a4.06,4.06,0,0,1,1.73-3.38,7.14,7.14,0,0,1,4.74-1.53,7,7,0,0,1,4.62,1.46,5.18,5.18,0,0,1,1.75,4.22V216a14.32,14.32,0,0,0,.1,1.75,8.48,8.48,0,0,0,.34,1.65Zm-5.11-2.25a5.46,5.46,0,0,0,3-.86,4.15,4.15,0,0,0,1.75-2v-2.75H111.2a4.48,4.48,0,0,0-3,.94,2.8,2.8,0,0,0-1.12,2.2,2.34,2.34,0,0,0,.7,1.79A3,3,0,0,0,109.89,217.19Z" class="cls-1"/><path data-cppathid="10004" transform="translate(0 -0.1)" d="M121.5,211.3a11.3,11.3,0,0,1,1.74-6.58,5.63,5.63,0,0,1,4.88-2.5,6.17,6.17,0,0,1,2.64.55,5.65,5.65,0,0,1,2,1.59v-9.29h3.08v24.37h-2.36L133,217.3a5.57,5.57,0,0,1-2.05,1.85,6.18,6.18,0,0,1-2.83.62,5.81,5.81,0,0,1-4.84-2.24,9.31,9.31,0,0,1-1.75-5.9Zm3.08.33a7.22,7.22,0,0,0,1,4.1,3.66,3.66,0,0,0,3.25,1.54,4.16,4.16,0,0,0,2.32-.62,4.77,4.77,0,0,0,1.53-1.75V207a4.83,4.83,0,0,0-1.54-1.66,4.08,4.08,0,0,0-2.27-.62,3.53,3.53,0,0,0-3.28,1.83,9.47,9.47,0,0,0-1,4.75Z" class="cls-1"/><path data-cppathid="10005" transform="translate(0 -0.1)" d="M150.78,219.44c-.1-.51-.19-1-.24-1.35a9.24,9.24,0,0,1-.1-1.18,7.27,7.27,0,0,1-2.25,2,5.68,5.68,0,0,1-3,.82,5.56,5.56,0,0,1-4-1.35,5,5,0,0,1-1.38-3.73,4.38,4.38,0,0,1,2-3.79,9.17,9.17,0,0,1,5.32-1.36h3.35v-1.68a3.12,3.12,0,0,0-.91-2.35,3.54,3.54,0,0,0-2.56-.86,3.7,3.7,0,0,0-2.42.75,2.23,2.23,0,0,0-.93,1.79l-2.92,0,0-.09a4.06,4.06,0,0,1,1.73-3.38,7.14,7.14,0,0,1,4.74-1.53,7,7,0,0,1,4.62,1.46,5.18,5.18,0,0,1,1.75,4.22V216a16.63,16.63,0,0,0,.1,1.75,9.3,9.3,0,0,0,.34,1.65Zm-5.11-2.25a5.43,5.43,0,0,0,3-.86,4.1,4.1,0,0,0,1.75-2v-2.75H147a4.48,4.48,0,0,0-3,.94,2.8,2.8,0,0,0-1.12,2.2,2.34,2.34,0,0,0,.7,1.79A3,3,0,0,0,145.67,217.19Z" class="cls-1"/><path data-cppathid="10006" transform="translate(0 -0.1)" d="M162.26,198.46v4.08h3.21v2.28h-3.21v10.26a2.28,2.28,0,0,0,.5,1.67,1.75,1.75,0,0,0,1.3.49,2.7,2.7,0,0,0,.6-.07,5.55,5.55,0,0,0,.54-.15l.42,2.11a2.65,2.65,0,0,1-1,.46,5.13,5.13,0,0,1-1.33.18,4,4,0,0,1-3-1.13,4.93,4.93,0,0,1-1.11-3.56V204.82H156.5v-2.28h2.69v-4.08Z" class="cls-1"/><path data-cppathid="10007" transform="translate(0 -0.1)" d="M168.05,210.83a9.28,9.28,0,0,1,2-6.18,6.8,6.8,0,0,1,5.51-2.43,6.87,6.87,0,0,1,5.56,2.43,9.25,9.25,0,0,1,2,6.18v.35a9.26,9.26,0,0,1-2,6.18,7.56,7.56,0,0,1-11.07,0,9.25,9.25,0,0,1-2-6.18Zm3.07.35a7.94,7.94,0,0,0,1.14,4.43,4.09,4.09,0,0,0,6.71,0,7.94,7.94,0,0,0,1.14-4.43v-.35a7.92,7.92,0,0,0-1.15-4.42,3.76,3.76,0,0,0-3.37-1.76,3.69,3.69,0,0,0-3.33,1.76,8,8,0,0,0-1.14,4.42Z" class="cls-1"/><path data-cppathid="10008" transform="translate(0 -0.1)" d="M196.78,214.9a2.07,2.07,0,0,0-.77-1.66,7.6,7.6,0,0,0-2.93-1.13,12.23,12.23,0,0,1-4.59-1.79,3.62,3.62,0,0,1-1.6-3.1,4.47,4.47,0,0,1,1.76-3.53,6.85,6.85,0,0,1,4.55-1.47,6.78,6.78,0,0,1,4.66,1.57,4.46,4.46,0,0,1,1.7,3.64l0,.09h-2.94a2.65,2.65,0,0,0-1-2,3.41,3.41,0,0,0-2.43-.89,3.51,3.51,0,0,0-2.43.73,2.3,2.3,0,0,0-.8,1.75,1.87,1.87,0,0,0,.69,1.55,8,8,0,0,0,2.87,1,11.89,11.89,0,0,1,4.72,1.86,3.75,3.75,0,0,1,1.61,3.14,4.46,4.46,0,0,1-1.82,3.67,7.51,7.51,0,0,1-4.76,1.42,7.43,7.43,0,0,1-5.09-1.64,4.69,4.69,0,0,1-1.77-3.83l0-.09h2.94a2.86,2.86,0,0,0,1.22,2.4,4.75,4.75,0,0,0,2.67.75,4.24,4.24,0,0,0,2.57-.69A2.13,2.13,0,0,0,196.78,214.9Z" class="cls-1"/><path data-cppathid="10009" transform="translate(0 -0.1)" d="M68.07,251.72a5.34,5.34,0,0,1,1.1-3.34,13.61,13.61,0,0,1,3.29-2.87,16,16,0,0,1-1.81-2.75,5.57,5.57,0,0,1-.6-2.5,5.31,5.31,0,0,1,1.53-4.07,5.88,5.88,0,0,1,4.19-1.43,5.7,5.7,0,0,1,4,1.43,4.48,4.48,0,0,1,1.55,3.42,4.36,4.36,0,0,1-.83,2.65,11.24,11.24,0,0,1-2.42,2.29l-1.71,1.25,5.31,6.39a8.81,8.81,0,0,0,1-2.25,9.35,9.35,0,0,0,.36-2.61H85.8a11.44,11.44,0,0,1-.61,3.81,9.9,9.9,0,0,1-1.76,3.14l2.89,3.48,0,.08H82.71l-1.33-1.59a9.53,9.53,0,0,1-2.76,1.43,10.06,10.06,0,0,1-3.14.49,7.78,7.78,0,0,1-5.4-1.8A5.94,5.94,0,0,1,68.07,251.72Zm7.41,4a6.5,6.5,0,0,0,2.21-.38,7.66,7.66,0,0,0,2.07-1.1l-5.64-6.8-.63.46a5.93,5.93,0,0,0-1.88,2,4.08,4.08,0,0,0-.46,1.75,4,4,0,0,0,1.11,2.9A4.29,4.29,0,0,0,75.48,255.76Zm-2.35-15.53a4.06,4.06,0,0,0,.42,1.73,10.87,10.87,0,0,0,1.27,2L77,242.44a3.39,3.39,0,0,0,1.21-1.29,3.72,3.72,0,0,0,.32-1.54,2.31,2.31,0,0,0-.76-1.69,2.72,2.72,0,0,0-2-.73,2.33,2.33,0,0,0-2,.88A3.41,3.41,0,0,0,73.13,240.23Z" class="cls-1"/><path data-cppathid="10010" transform="translate(0 -0.1)" d="M100.69,255.44h11.1v2.4H97.62V235.09h3.07Z" class="cls-1"/><path data-cppathid="10011" transform="translate(0 -0.1)" d="M118.12,236.61H115v-3.14h3.08Zm0,21.23H115v-16.9h3.08Z" class="cls-1"/><path data-cppathid="10012" transform="translate(0 -0.1)" d="M125.6,240.94l.22,2.51a6.11,6.11,0,0,1,2.12-2.08,5.57,5.57,0,0,1,2.9-.75,5.51,5.51,0,0,1,4.23,1.61,7,7,0,0,1,1.5,4.94v10.67h-3.08V247.23a4.57,4.57,0,0,0-.88-3.17,3.57,3.57,0,0,0-2.7-.94,4.75,4.75,0,0,0-2.41.57,4.19,4.19,0,0,0-1.57,1.61v12.54h-3.08v-16.9Z" class="cls-1"/><path data-cppathid="10013" transform="translate(0 -0.1)" d="M151.43,257.84q-.17-.76-.24-1.35a7.72,7.72,0,0,1-.1-1.18,7.38,7.38,0,0,1-2.25,2,5.68,5.68,0,0,1-3,.82,5.54,5.54,0,0,1-4-1.35,5,5,0,0,1-1.38-3.73,4.38,4.38,0,0,1,2-3.79,9.17,9.17,0,0,1,5.32-1.36h3.35v-1.68a3.13,3.13,0,0,0-.91-2.35,3.56,3.56,0,0,0-2.56-.86,3.75,3.75,0,0,0-2.43.75,2.26,2.26,0,0,0-.92,1.79l-2.92,0,0-.09a4,4,0,0,1,1.73-3.37,7.09,7.09,0,0,1,4.74-1.54,7,7,0,0,1,4.62,1.46,5.18,5.18,0,0,1,1.75,4.22v8.14a14.32,14.32,0,0,0,.1,1.75,8.48,8.48,0,0,0,.34,1.65Zm-5.11-2.25a5.46,5.46,0,0,0,3-.86,4.15,4.15,0,0,0,1.75-2V250h-3.46a4.48,4.48,0,0,0-3,.94,2.8,2.8,0,0,0-1.12,2.21,2.31,2.31,0,0,0,.7,1.78A3,3,0,0,0,146.32,255.59Z" class="cls-1"/><path data-cppathid="10014" transform="translate(0 -0.1)" d="M162.18,240.94v18.29a5.67,5.67,0,0,1-1.34,4,4.94,4.94,0,0,1-3.74,1.41,4.76,4.76,0,0,1-.88-.07,8.07,8.07,0,0,1-.85-.21l.22-2.42a3.59,3.59,0,0,0,.62.13,4.7,4.7,0,0,0,.67.06,2,2,0,0,0,1.62-.69,3.39,3.39,0,0,0,.6-2.24V240.94Zm-.09-4.39H159v-3.08h3.08Z" class="cls-1"/><path data-cppathid="10015" transform="translate(0 -0.1)" d="M173.91,258.17a7.14,7.14,0,0,1-5.68-2.33,8.94,8.94,0,0,1-2-6.12V249a8.72,8.72,0,0,1,2.11-6,6.59,6.59,0,0,1,5.13-2.39,6.14,6.14,0,0,1,5.08,2.11,8.71,8.71,0,0,1,1.7,5.61V250H169.4l-.05.08a7,7,0,0,0,1.13,4.13,3.91,3.91,0,0,0,3.43,1.58,7.74,7.74,0,0,0,2.75-.44,6.22,6.22,0,0,0,2-1.23l1.2,2a7.22,7.22,0,0,1-2.39,1.48A9.54,9.54,0,0,1,173.91,258.17Zm-.48-15.12a3.36,3.36,0,0,0-2.67,1.24,5.86,5.86,0,0,0-1.28,3.18l0,.08h7.62v-.25a5,5,0,0,0-.9-3.05A3.29,3.29,0,0,0,173.43,243.05Z" class="cls-1"/></g><g id="IMG"><g id="Metadatos"><rect data-cppathid="10016" height="25.27" width="59.13" y="34.38" x="51" class="cls-2"/><path data-cppathid="10017" transform="translate(0 -0.1)" d="M168.77,185.5l-54.39.43a5,5,0,0,1-5-4.9l-.2-25.54a2.61,2.61,0,0,1,2.59-2.63l59.05-.46a2.6,2.6,0,0,1,2.63,2.58l.2,25.54a4.94,4.94,0,0,1-4.9,5Zm-54.16-4.79,53.85-.42-.18-22.66-53.85.42Z" class="cls-3"/><path data-cppathid="10018" transform="translate(0 -0.1)" d="M170.94,164.92a2.6,2.6,0,0,1-2.62-2.59l-.1-12.7-25.84.21a6.33,6.33,0,0,1-3.76-1.22l-4.18-3.08a1,1,0,0,0-.63-.21l-19.48.16.14,17.27a2.61,2.61,0,0,1-5.21,0l-.16-19.88a2.6,2.6,0,0,1,2.59-2.62l22.08-.18a6.35,6.35,0,0,1,3.76,1.22l4.18,3.08a1,1,0,0,0,.62.21l28.45-.23a2.61,2.61,0,0,1,2.63,2.59l.12,15.3A2.61,2.61,0,0,1,170.94,164.92Z" class="cls-3"/><path data-cppathid="10019" transform="translate(0 -0.1)" d="M107.11,64.91l-54.39.42a4.94,4.94,0,0,1-5-4.89l-.2-25.54a2.61,2.61,0,0,1,2.59-2.63l59.06-.46a2.6,2.6,0,0,1,2.62,2.58l.2,25.54a4.94,4.94,0,0,1-4.9,5ZM53,60.12l53.85-.42L106.62,37l-53.85.42Z" class="cls-3"/><path data-cppathid="10020" transform="translate(0 -0.1)" d="M109.28,44.33a2.61,2.61,0,0,1-2.62-2.59l-.1-12.7-25.84.2A6.32,6.32,0,0,1,77,28l-4.18-3.09a1.07,1.07,0,0,0-.63-.2l-19.47.15.13,17.28a2.61,2.61,0,0,1-5.21,0l-.15-19.88A2.6,2.6,0,0,1,50,19.7l22.08-.17a6.26,6.26,0,0,1,3.76,1.22l4.18,3.08a1,1,0,0,0,.63.2l28.44-.22a2.61,2.61,0,0,1,2.63,2.59l.12,15.3A2.61,2.61,0,0,1,109.28,44.33Z" class="cls-3"/><path data-cppathid="10021" transform="translate(0 -0.1)" d="M195.34,64.22,141,64.64a4.93,4.93,0,0,1-5-4.89l-.2-25.55a2.59,2.59,0,0,1,2.58-2.62l59.06-.46A2.59,2.59,0,0,1,200,33.7l.2,25.54a4.94,4.94,0,0,1-4.9,5Zm-54.16-4.79L195,59l-.18-22.66L141,36.77Z" class="cls-3"/><path data-cppathid="10022" transform="translate(0 -0.1)" d="M197.51,43.64a2.61,2.61,0,0,1-2.62-2.59l-.1-12.7-25.84.2a6.28,6.28,0,0,1-3.76-1.22L161,24.25a1.07,1.07,0,0,0-.62-.2l-19.48.15L141,41.47a2.61,2.61,0,1,1-5.21.05l-.15-19.88A2.61,2.61,0,0,1,138.26,19l22.08-.17a6.26,6.26,0,0,1,3.76,1.22l4.18,3.08a1,1,0,0,0,.63.2l28.44-.22A2.61,2.61,0,0,1,200,25.71L200.1,41A2.61,2.61,0,0,1,197.51,43.64Z" class="cls-3"/><path data-cppathid="10023" transform="translate(0 -0.1)" d="M117.2,106.27,88,106.5a2.61,2.61,0,0,1,0-5.21l29.16-.23a2.61,2.61,0,0,1,0,5.21Z" class="cls-3"/><path data-cppathid="10024" transform="translate(0 -0.1)" d="M197.05,105.64l-22.37.18a2.61,2.61,0,0,1,0-5.21l22.36-.18a2.61,2.61,0,0,1,.05,5.21Z" class="cls-3"/><path data-cppathid="10025" transform="translate(0 -0.1)" d="M161.11,105.92l-30,.24a2.61,2.61,0,0,1,0-5.21l30-.24a2.61,2.61,0,0,1,0,5.21Z" class="cls-3"/><path data-cppathid="10026" transform="translate(0 -0.1)" d="M74.16,106.61l-22.48.17a2.61,2.61,0,0,1,0-5.21l22.48-.17a2.61,2.61,0,0,1,0,5.21Z" class="cls-3"/><path data-cppathid="10027" transform="translate(0 -0.1)" d="M130.78,112.54l-12.75.1a2.61,2.61,0,0,1-2.63-2.58l-.1-12.76a2.62,2.62,0,0,1,2.59-2.63l12.75-.1a2.61,2.61,0,0,1,2.63,2.59l.1,12.76a2.61,2.61,0,0,1-2.59,2.62Z" class="cls-3"/><path data-cppathid="10028" transform="translate(0 -0.1)" d="M174.25,112.2l-12.75.1a2.61,2.61,0,0,1-2.63-2.58L158.77,97a2.62,2.62,0,0,1,2.59-2.63l12.75-.1a2.61,2.61,0,0,1,2.63,2.59l.1,12.75a2.61,2.61,0,0,1-2.59,2.63Zm-10.19-5.13,7.55-.06-.06-7.55-7.55.06Z" class="cls-3"/><path data-cppathid="10029" transform="translate(0 -0.1)" d="M87.32,112.88l-12.76.1a2.62,2.62,0,0,1-2.63-2.58l-.1-12.76A2.62,2.62,0,0,1,74.42,95l12.75-.1A2.61,2.61,0,0,1,89.8,97.5l.1,12.76a2.61,2.61,0,0,1-2.58,2.62Zm-10.2-5.13,7.55-.06-.06-7.55-7.55.06Z" class="cls-3"/><path data-cppathid="10030" transform="translate(0 -0.1)" d="M80.72,100A2.58,2.58,0,0,1,78.1,97.4l-.28-34.67a2.61,2.61,0,0,1,5.21,0l.28,34.67A2.59,2.59,0,0,1,80.72,100Z" class="cls-3"/><path data-cppathid="10031" transform="translate(0 -0.1)" d="M167.77,99.31a2.58,2.58,0,0,1-2.62-2.56L164.87,62a2.61,2.61,0,0,1,5.21,0l.28,34.74A2.59,2.59,0,0,1,167.77,99.31Z" class="cls-3"/><path data-cppathid="10032" transform="translate(0 -0.1)" d="M124.66,145.31a2.59,2.59,0,0,1-2.62-2.57l-.26-32.65a2.61,2.61,0,0,1,5.21,0l.26,32.65A2.6,2.6,0,0,1,124.66,145.31Z" class="cls-3"/></g></g><g id="Borde"><path data-cppathid="10033" transform="translate(0 -0.1)" d="M212.85,3.1A32.65,32.65,0,0,1,245.5,35.76V234.5a32.65,32.65,0,0,1-32.65,32.65H35.65A32.65,32.65,0,0,1,3,234.5V35.76A32.65,32.65,0,0,1,35.65,3.1h177.2m0-3H35.65A35.7,35.7,0,0,0,0,35.76V234.5a35.69,35.69,0,0,0,35.65,35.65h177.2A35.69,35.69,0,0,0,248.5,234.5V35.76A35.7,35.7,0,0,0,212.85.1Z" class="cls-4"/></g><g id="Check"><g data-name="Capa 2" id="Capa_2"><path data-cppathid="10034" transform="translate(0 -0.1)" d="M177.75,121.42l-2.08-2.25a4.92,4.92,0,0,0-6.94-.34l-.34.34-45,48.38-20-21.68a4.9,4.9,0,0,0-6.92-.36l-.36.36-2.53,2.72L123,180.52Z" class="cls-5"/><path data-cppathid="10035" transform="translate(0 -0.1)" d="M177.75,121.42,123,180.5,93.6,148.57l-2.69,2.89a5.89,5.89,0,0,0,0,7.85l28.84,31.22a4.87,4.87,0,0,0,6.48.71,5.61,5.61,0,0,0,.92-.77l53.72-57.81a5.91,5.91,0,0,0,0-7.85Z" class="cls-6"/></g></g></svg>