<?xml version="1.0" encoding="UTF-8"?>
<svg xmlns="http://www.w3.org/2000/svg" onmouseup="{ if(window.parent.document.onmouseup) window.parent.document.onmouseup(arguments[0]);}" viewBox="0 0 248.5 270.05"><defs><style>.cls-1{fill:#fff;}.cls-2{fill:#006ba0;}.cls-3{fill:#00ffd3;}</style></defs><g id="TXT"><path data-cppathid="10000" transform="translate(0 -0.1)" d="M66.07,213.71a3.44,3.44,0,0,0-1.11-2.6,9.33,9.33,0,0,0-3.91-1.78,12.92,12.92,0,0,1-5.41-2.53,5.29,5.29,0,0,1-2-4.2,5.59,5.59,0,0,1,2.1-4.45,8.09,8.09,0,0,1,5.44-1.79,7.93,7.93,0,0,1,5.72,2A6.2,6.2,0,0,1,69,203.16l0,.09H66a4.21,4.21,0,0,0-1.35-3.2,4.88,4.88,0,0,0-3.46-1.26,4.79,4.79,0,0,0-3.31,1,3.54,3.54,0,0,0-1.15,2.72A3,3,0,0,0,58,205a11.63,11.63,0,0,0,4.09,1.74,11.53,11.53,0,0,1,5.23,2.63,5.69,5.69,0,0,1,1.8,4.28A5.31,5.31,0,0,1,67,218.1a9,9,0,0,1-5.64,1.67,9.64,9.64,0,0,1-5.83-1.84A5.63,5.63,0,0,1,53.07,213l0-.09H56a3.83,3.83,0,0,0,1.62,3.3,6.15,6.15,0,0,0,3.68,1.16,5.51,5.51,0,0,0,3.46-1A3.23,3.23,0,0,0,66.07,213.71Z" class="cls-1"/><path data-cppathid="10001" transform="translate(0 -0.1)" d="M80.09,219.77a7.14,7.14,0,0,1-5.68-2.33,8.94,8.94,0,0,1-2-6.12v-.69a8.76,8.76,0,0,1,2.1-6,6.59,6.59,0,0,1,5.13-2.39,6.16,6.16,0,0,1,5.09,2.11,8.71,8.71,0,0,1,1.69,5.61v1.63H75.57l0,.08a7,7,0,0,0,1.13,4.13,3.92,3.92,0,0,0,3.44,1.58,7.68,7.68,0,0,0,2.74-.44,6.22,6.22,0,0,0,2-1.23l1.2,2a7.22,7.22,0,0,1-2.39,1.48A9.52,9.52,0,0,1,80.09,219.77Zm-.49-15.12a3.33,3.33,0,0,0-2.66,1.24,5.79,5.79,0,0,0-1.29,3.18l0,.08H83.3v-.25a5,5,0,0,0-.9-3.05A3.29,3.29,0,0,0,79.6,204.65Z" class="cls-1"/><path data-cppathid="10002" transform="translate(0 -0.1)" d="M89.29,211.3A11.3,11.3,0,0,1,91,204.72a5.61,5.61,0,0,1,4.87-2.5,6,6,0,0,1,2.83.65,5.68,5.68,0,0,1,2,1.87l.38-2.2h2.45v17a6.45,6.45,0,0,1-1.89,5,7.77,7.77,0,0,1-5.45,1.74,11.18,11.18,0,0,1-2.64-.34,10,10,0,0,1-2.49-.91l.47-2.39a9.26,9.26,0,0,0,2.15.76,11.18,11.18,0,0,0,2.48.29,4.48,4.48,0,0,0,3.27-1,4.24,4.24,0,0,0,1-3.11v-1.93a5.37,5.37,0,0,1-2,1.61,6.1,6.1,0,0,1-2.67.55A5.79,5.79,0,0,1,91,217.53a9.37,9.37,0,0,1-1.74-5.9Zm3.08.33a7.15,7.15,0,0,0,1,4.09,3.65,3.65,0,0,0,3.24,1.55,4.12,4.12,0,0,0,2.33-.63,4.77,4.77,0,0,0,1.54-1.79v-7.78A4.73,4.73,0,0,0,99,205.36a4,4,0,0,0-2.3-.64,3.5,3.5,0,0,0-3.26,1.83,9.47,9.47,0,0,0-1,4.75Z" class="cls-1"/><path data-cppathid="10003" transform="translate(0 -0.1)" d="M118.76,216.94a5.74,5.74,0,0,1-2.05,2.1,5.59,5.59,0,0,1-2.89.73,5.42,5.42,0,0,1-4.31-1.77c-1-1.17-1.55-3-1.55-5.5v-10H111v10a6.18,6.18,0,0,0,.8,3.71,2.94,2.94,0,0,0,2.48,1,5.08,5.08,0,0,0,2.71-.66,4.23,4.23,0,0,0,1.62-1.89V202.54h3.08v16.9H119Z" class="cls-1"/><path data-cppathid="10004" transform="translate(0 -0.1)" d="M134.21,205.25l-1.58-.09a3.47,3.47,0,0,0-2,.58,3.68,3.68,0,0,0-1.29,1.62v12.08h-3.08v-16.9H129l.3,2.46a5.93,5.93,0,0,1,1.77-2,4.13,4.13,0,0,1,2.43-.74,4.23,4.23,0,0,1,1.17.18Z" class="cls-1"/><path data-cppathid="10005" transform="translate(0 -0.1)" d="M140.74,198.21h-3.08v-3.14h3.08Zm0,21.23h-3.08v-16.9h3.08Z" class="cls-1"/><path data-cppathid="10006" transform="translate(0 -0.1)" d="M144.77,211.3a11.3,11.3,0,0,1,1.74-6.58,5.64,5.64,0,0,1,4.89-2.5,6.12,6.12,0,0,1,2.63.55,5.47,5.47,0,0,1,2,1.59v-9.29h3.08v24.37h-2.36l-.47-2.14a5.49,5.49,0,0,1-2.05,1.85,6.17,6.17,0,0,1-2.82.62,5.82,5.82,0,0,1-4.85-2.24,9.37,9.37,0,0,1-1.75-5.9Zm3.08.33a7.14,7.14,0,0,0,1.05,4.1,3.64,3.64,0,0,0,3.25,1.54,4.12,4.12,0,0,0,2.31-.62A4.68,4.68,0,0,0,156,214.9V207a4.83,4.83,0,0,0-1.54-1.66,4.08,4.08,0,0,0-2.27-.62,3.51,3.51,0,0,0-3.27,1.83,9.36,9.36,0,0,0-1.06,4.75Z" class="cls-1"/><path data-cppathid="10007" transform="translate(0 -0.1)" d="M174.05,219.44q-.15-.76-.24-1.35a9.24,9.24,0,0,1-.1-1.18,7.23,7.23,0,0,1-2.24,2,5.72,5.72,0,0,1-3,.82,5.52,5.52,0,0,1-4-1.35,5,5,0,0,1-1.38-3.73,4.38,4.38,0,0,1,2-3.79,9.15,9.15,0,0,1,5.32-1.36h3.34v-1.68a3.08,3.08,0,0,0-.91-2.35,3.54,3.54,0,0,0-2.56-.86,3.7,3.7,0,0,0-2.42.75,2.22,2.22,0,0,0-.92,1.79l-2.92,0,0-.09a4.09,4.09,0,0,1,1.73-3.38,7.16,7.16,0,0,1,4.74-1.53,7,7,0,0,1,4.63,1.46,5.21,5.21,0,0,1,1.75,4.22V216a16.66,16.66,0,0,0,.09,1.75,8.51,8.51,0,0,0,.35,1.65Zm-5.11-2.25a5.43,5.43,0,0,0,3-.86,4,4,0,0,0,1.75-2v-2.75h-3.45a4.51,4.51,0,0,0-3,.94,2.83,2.83,0,0,0-1.12,2.2,2.34,2.34,0,0,0,.71,1.79A3,3,0,0,0,168.94,217.19Z" class="cls-1"/><path data-cppathid="10008" transform="translate(0 -0.1)" d="M180.55,211.3a11.23,11.23,0,0,1,1.75-6.58,5.63,5.63,0,0,1,4.88-2.5,6.09,6.09,0,0,1,2.63.55,5.47,5.47,0,0,1,2,1.59v-9.29h3.08v24.37h-2.36L192,217.3a5.54,5.54,0,0,1-2,1.85,6.24,6.24,0,0,1-2.83.62,5.83,5.83,0,0,1-4.85-2.24,9.37,9.37,0,0,1-1.75-5.9Zm3.08.33a7.14,7.14,0,0,0,1.05,4.1,3.65,3.65,0,0,0,3.25,1.54,4.12,4.12,0,0,0,2.31-.62,4.6,4.6,0,0,0,1.53-1.75V207a4.73,4.73,0,0,0-1.54-1.66,4.08,4.08,0,0,0-2.27-.62,3.51,3.51,0,0,0-3.27,1.83,9.36,9.36,0,0,0-1.06,4.75Z" class="cls-1"/><path data-cppathid="10009" transform="translate(0 -0.1)" d="M63.59,249.7a11.23,11.23,0,0,1,1.75-6.58,5.61,5.61,0,0,1,4.88-2.5,6.09,6.09,0,0,1,2.63.55,5.47,5.47,0,0,1,2,1.59v-9.29h3.08v24.37H75.53l-.47-2.14a5.49,5.49,0,0,1-2,1.85,6.17,6.17,0,0,1-2.82.62,5.82,5.82,0,0,1-4.85-2.24,9.37,9.37,0,0,1-1.75-5.9Zm3.08.33a7.14,7.14,0,0,0,1,4.1A3.65,3.65,0,0,0,71,255.67a4.12,4.12,0,0,0,2.31-.62,4.6,4.6,0,0,0,1.53-1.75v-7.89a4.68,4.68,0,0,0-1.54-1.67,4.08,4.08,0,0,0-2.27-.62A3.51,3.51,0,0,0,67.73,245a9.36,9.36,0,0,0-1.06,4.75Z" class="cls-1"/><path data-cppathid="10010" transform="translate(0 -0.1)" d="M89.48,258.17a7.14,7.14,0,0,1-5.68-2.33,8.94,8.94,0,0,1-2-6.12V249a8.72,8.72,0,0,1,2.11-6A6.59,6.59,0,0,1,89,240.62a6.18,6.18,0,0,1,5.09,2.11,8.76,8.76,0,0,1,1.69,5.61V250H85l0,.08a7,7,0,0,0,1.13,4.13,3.91,3.91,0,0,0,3.43,1.58,7.74,7.74,0,0,0,2.75-.44,6.22,6.22,0,0,0,2-1.23l1.2,2a7.22,7.22,0,0,1-2.39,1.48A9.54,9.54,0,0,1,89.48,258.17ZM89,243.05a3.33,3.33,0,0,0-2.66,1.24,5.79,5.79,0,0,0-1.29,3.18l0,.08H92.7v-.25a5,5,0,0,0-.9-3.05A3.29,3.29,0,0,0,89,243.05Z" class="cls-1"/><path data-cppathid="10011" transform="translate(0 -0.1)" d="M106.48,249.7a11.23,11.23,0,0,1,1.75-6.58,5.61,5.61,0,0,1,4.88-2.5,6.09,6.09,0,0,1,2.63.55,5.47,5.47,0,0,1,2,1.59v-9.29h3.08v24.37h-2.36L118,255.7a5.54,5.54,0,0,1-2,1.85,6.24,6.24,0,0,1-2.83.62,5.82,5.82,0,0,1-4.85-2.24,9.37,9.37,0,0,1-1.75-5.9Zm3.08.33a7.14,7.14,0,0,0,1,4.1,3.65,3.65,0,0,0,3.25,1.54,4.12,4.12,0,0,0,2.31-.62,4.6,4.6,0,0,0,1.53-1.75v-7.89a4.68,4.68,0,0,0-1.54-1.67,4.08,4.08,0,0,0-2.27-.62,3.51,3.51,0,0,0-3.27,1.83,9.36,9.36,0,0,0-1.06,4.75Z" class="cls-1"/><path data-cppathid="10012" transform="translate(0 -0.1)" d="M135.76,257.84q-.15-.76-.24-1.35a9.24,9.24,0,0,1-.1-1.18,7.23,7.23,0,0,1-2.24,2,5.72,5.72,0,0,1-3,.82,5.52,5.52,0,0,1-4-1.35,5,5,0,0,1-1.38-3.73,4.38,4.38,0,0,1,2-3.79,9.15,9.15,0,0,1,5.32-1.36h3.34v-1.68a3.1,3.1,0,0,0-.91-2.35,3.53,3.53,0,0,0-2.56-.86,3.7,3.7,0,0,0-2.42.75,2.26,2.26,0,0,0-.92,1.79l-2.92,0,0-.09a4,4,0,0,1,1.72-3.37,7.13,7.13,0,0,1,4.74-1.54,7,7,0,0,1,4.63,1.46,5.18,5.18,0,0,1,1.75,4.22v8.14a16.66,16.66,0,0,0,.09,1.75,9.32,9.32,0,0,0,.35,1.65Zm-5.1-2.25a5.42,5.42,0,0,0,3-.86,4,4,0,0,0,1.75-2V250H132a4.53,4.53,0,0,0-3,.94,2.83,2.83,0,0,0-1.12,2.21,2.32,2.32,0,0,0,.71,1.78A3,3,0,0,0,130.66,255.59Z" class="cls-1"/><path data-cppathid="10013" transform="translate(0 -0.1)" d="M147.25,236.86v4.08h3.2v2.28h-3.2v10.26a2.31,2.31,0,0,0,.49,1.68,1.79,1.79,0,0,0,1.31.48,2.68,2.68,0,0,0,.59-.07c.22,0,.4-.1.55-.15l.42,2.11a2.7,2.7,0,0,1-1,.46,5.13,5.13,0,0,1-1.33.18,4,4,0,0,1-3-1.13,4.93,4.93,0,0,1-1.11-3.56V243.22h-2.69v-2.28h2.69v-4.08Z" class="cls-1"/><path data-cppathid="10014" transform="translate(0 -0.1)" d="M153,249.23a9.33,9.33,0,0,1,2-6.18,7.52,7.52,0,0,1,11.07,0,9.25,9.25,0,0,1,2,6.18v.35a9.26,9.26,0,0,1-2,6.18,7.56,7.56,0,0,1-11.07,0,9.25,9.25,0,0,1-2-6.18Zm3.08.35a8,8,0,0,0,1.13,4.43,4.09,4.09,0,0,0,6.71,0,7.94,7.94,0,0,0,1.14-4.43v-.35a7.92,7.92,0,0,0-1.15-4.42,4.07,4.07,0,0,0-6.7,0,8.08,8.08,0,0,0-1.13,4.42Z" class="cls-1"/><path data-cppathid="10015" transform="translate(0 -0.1)" d="M181.76,253.3a2,2,0,0,0-.77-1.66,7.47,7.47,0,0,0-2.93-1.13,12.1,12.1,0,0,1-4.58-1.79,3.63,3.63,0,0,1-1.61-3.1,4.47,4.47,0,0,1,1.76-3.53,7.74,7.74,0,0,1,9.21.1,4.47,4.47,0,0,1,1.71,3.64l0,.09h-2.93a2.65,2.65,0,0,0-1-2,3.41,3.41,0,0,0-2.43-.89,3.48,3.48,0,0,0-2.43.73,2.28,2.28,0,0,0-.81,1.75,1.85,1.85,0,0,0,.7,1.55,7.72,7.72,0,0,0,2.86,1,11.83,11.83,0,0,1,4.72,1.86,3.73,3.73,0,0,1,1.61,3.14,4.43,4.43,0,0,1-1.82,3.67,8.7,8.7,0,0,1-9.85-.22,4.65,4.65,0,0,1-1.76-3.83l0-.09h2.93a2.88,2.88,0,0,0,1.22,2.4,4.75,4.75,0,0,0,2.67.75,4.27,4.27,0,0,0,2.58-.69A2.14,2.14,0,0,0,181.76,253.3Z" class="cls-1"/></g><g id="IMG"><g id="Seguridad"><path data-cppathid="10016" transform="translate(0 -0.1)" d="M124.29,190.12a3.65,3.65,0,0,1-2.41-.93c-10.25-9.29-19-16.93-26.47-23.45C51,127,50.6,126,51.22,58.43c.08-8.9.17-19,.17-30.51a3.59,3.59,0,0,1,1.29-2.75,3.63,3.63,0,0,1,2.94-.77c24.4,4.52,46.78.08,66.68-13.2a3.57,3.57,0,0,1,4.3.24c15.27,12.94,36.85,17.15,66.06,12.94a3.7,3.7,0,0,1,2.86.83,3.6,3.6,0,0,1,1.23,2.71c0,14.6.22,26.82.4,37.2,1,59.75.62,60.7-45.83,102-7.06,6.27-15.21,13.52-24.63,22.1A3.56,3.56,0,0,1,124.29,190.12Zm-65.75-158c0,9.82-.09,18.55-.17,26.37-.59,64.89-.59,64.89,41.75,101.85,6.9,6,14.9,13,24.15,21.36,8.44-7.66,15.83-14.22,22.3-20C191,122.27,191,122.27,190,65.25c-.17-9.44-.36-20.38-.4-33.26-27.93,3.38-49.67-1.12-65.55-13.41C104.31,31.05,82.4,35.64,58.54,32.13Z" class="cls-1"/><path data-cppathid="10017" transform="translate(0 -0.1)" d="M131.46,95.23A14.49,14.49,0,1,0,116,94.61l-5,24.87a5.29,5.29,0,0,0,5.18,6.34h15.84a5.3,5.3,0,0,0,5.15-6.52Z" class="cls-2"/></g></g><g id="Borde"><path data-cppathid="10018" transform="translate(0 -0.1)" d="M212.85,3.1A32.65,32.65,0,0,1,245.5,35.76V234.5a32.65,32.65,0,0,1-32.65,32.65H35.65A32.65,32.65,0,0,1,3,234.5V35.76A32.65,32.65,0,0,1,35.65,3.1h177.2m0-3H35.65A35.7,35.7,0,0,0,0,35.76V234.5a35.69,35.69,0,0,0,35.65,35.65h177.2A35.69,35.69,0,0,0,248.5,234.5V35.76A35.7,35.7,0,0,0,212.85.1Z" class="cls-3"/></g></svg>