<?xml version="1.0" encoding="UTF-8"?>
<svg xmlns="http://www.w3.org/2000/svg" onmouseup="{ if(window.parent.document.onmouseup) window.parent.document.onmouseup(arguments[0]);}" xml:space="preserve" style="enable-background:new 0 0 248.5 270;" viewBox="0 0 248.5 270" y="0px" x="0px" id="Capa_1" version="1.1" xmlns:xlink="http://www.w3.org/1999/xlink"><style type="text/css">
	.st0{fill:#FFFFFF;}
	.st1{fill:#333E48;stroke:#FFFFFF;stroke-width:3;stroke-miterlimit:10;}
	.st2{fill:#333E48;stroke:#FFFFFF;stroke-width:3;stroke-linecap:round;stroke-linejoin:round;}
	.st3{fill:#333E48;}
	.st4{fill:none;stroke:#FFFFFF;stroke-width:3;stroke-miterlimit:10;}
	.st5{fill:#00F3FF;}
	.st6{fill:#00FFD3;}
</style><g id="TXT"><path data-cppathid="10000" d="M58.8,208.8h-9.3v8.1h10.9v2.4h-14v-22.7h13.8v2.4H49.4v7.4h9.3V208.8z" class="st0"/><path data-cppathid="10001" d="M73.4,214.8c0-0.6-0.3-1.3-0.8-1.7c-0.9-0.6-1.9-1-2.9-1.1c-1.6-0.3-3.2-0.9-4.6-1.8c-1-0.7-1.6-1.9-1.6-3.1   c0-1.4,0.7-2.7,1.8-3.5c1.3-1,2.9-1.5,4.6-1.5c1.7-0.1,3.4,0.5,4.7,1.6c1.1,0.9,1.7,2.2,1.7,3.6v0.1h-3c0-0.8-0.4-1.5-1-2   c-0.7-0.6-1.5-0.9-2.4-0.9c-0.9-0.1-1.7,0.2-2.4,0.7c-0.5,0.4-0.8,1.1-0.8,1.8c0,0.6,0.2,1.2,0.7,1.6c0.9,0.5,1.9,0.9,2.9,1   c1.7,0.3,3.3,0.9,4.7,1.9c1,0.7,1.6,1.9,1.6,3.1c0,1.4-0.7,2.8-1.8,3.7c-1.4,1-3.1,1.5-4.8,1.4c-1.8,0.1-3.7-0.5-5.1-1.6   c-1.2-0.9-1.8-2.3-1.8-3.8v-0.1h3c0,1,0.4,1.9,1.2,2.4c0.8,0.5,1.7,0.8,2.7,0.8c0.9,0.1,1.8-0.2,2.6-0.7   C73.1,216.2,73.4,215.5,73.4,214.8z" class="st0"/><path data-cppathid="10002" d="M84.6,198.4v4.1h3.2v2.3h-3.2V215c-0.1,0.6,0.1,1.2,0.5,1.7c0.3,0.3,0.8,0.5,1.3,0.5c0.2,0,0.4,0,0.6-0.1   c0.2,0,0.4-0.1,0.6-0.1l0.4,2.1c-0.3,0.2-0.6,0.4-1,0.5c-0.4,0.1-0.9,0.2-1.3,0.2c-1.1,0.1-2.2-0.4-3-1.1c-0.8-1-1.2-2.3-1.1-3.6   v-10.3h-2.7v-2.3h2.7v-4.1H84.6z" class="st0"/><path data-cppathid="10003" d="M101.5,219.3c-0.1-0.5-0.2-1-0.2-1.4c-0.1-0.4-0.1-0.8-0.1-1.2c-0.6,0.8-1.4,1.5-2.2,2c-0.9,0.5-1.9,0.8-3,0.8   c-1.5,0.1-2.9-0.4-4-1.4c-1-1-1.5-2.3-1.4-3.7c0-1.5,0.7-3,2-3.8c1.6-1,3.4-1.5,5.3-1.4h3.3v-1.7c0-0.9-0.3-1.7-0.9-2.4   c-0.7-0.6-1.6-0.9-2.6-0.9c-0.9,0-1.7,0.2-2.4,0.8c-0.6,0.4-0.9,1.1-0.9,1.8h-2.9V207c0-1.3,0.6-2.6,1.7-3.4c1.3-1.1,3-1.6,4.7-1.5   c1.7-0.1,3.3,0.4,4.6,1.5c1.2,1.1,1.8,2.6,1.8,4.2v8.2c0,0.6,0,1.2,0.1,1.8c0.1,0.6,0.2,1.1,0.3,1.6L101.5,219.3z M96.4,217.1   c1.1,0,2.1-0.3,3-0.9c0.8-0.4,1.4-1.2,1.8-2v-2.8h-3.4c-1.1-0.1-2.1,0.3-3,0.9c-0.7,0.5-1.1,1.3-1.1,2.2c0,0.7,0.2,1.3,0.7,1.8   C94.9,216.9,95.6,217.1,96.4,217.1z M99,195.3h3.6v0.1l-4.2,4.1h-2.3L99,195.3z" class="st0"/><path data-cppathid="10004" d="M111.4,202.4l0.2,2.5c0.5-0.9,1.2-1.6,2.1-2.1c0.9-0.5,1.9-0.8,2.9-0.8c1.6-0.1,3.1,0.5,4.2,1.6   c1.1,1.4,1.6,3.2,1.5,4.9v10.7h-3.1v-10.6c0.1-1.1-0.2-2.3-0.9-3.2c-0.7-0.7-1.7-1-2.7-0.9c-0.8,0-1.7,0.2-2.4,0.6   c-0.7,0.4-1.2,0.9-1.6,1.6v12.5h-3.1v-16.9L111.4,202.4z" class="st0"/><path data-cppathid="10005" d="M126.2,211.2c-0.1-2.3,0.5-4.6,1.7-6.6c1.1-1.6,2.9-2.6,4.9-2.5c0.9,0,1.8,0.2,2.6,0.6c0.8,0.4,1.5,0.9,2,1.6   V195h3.1v24.4h-2.4l-0.5-2.1c-0.5,0.8-1.2,1.4-2,1.9c-0.9,0.4-1.9,0.6-2.8,0.6c-1.9,0.1-3.7-0.8-4.8-2.2c-1.2-1.7-1.9-3.8-1.8-5.9   L126.2,211.2z M129.2,211.5c-0.1,1.4,0.3,2.9,1.1,4.1c0.7,1.1,2,1.6,3.2,1.5c0.8,0,1.6-0.2,2.3-0.6c0.6-0.4,1.2-1,1.5-1.8v-7.9   c-0.4-0.7-0.9-1.2-1.5-1.7c-0.7-0.4-1.5-0.6-2.3-0.6c-1.4-0.1-2.6,0.6-3.3,1.8c-0.8,1.5-1.1,3.1-1.1,4.8V211.5z" class="st0"/><path data-cppathid="10006" d="M155.4,219.3c-0.1-0.5-0.2-1-0.2-1.4c-0.1-0.4-0.1-0.8-0.1-1.2c-0.6,0.8-1.4,1.5-2.2,2c-0.9,0.5-1.9,0.8-3,0.8   c-1.5,0.1-2.9-0.4-4-1.4c-1-1-1.5-2.3-1.4-3.7c0-1.5,0.7-3,2-3.8c1.6-1,3.4-1.5,5.3-1.4h3.4v-1.7c0-0.9-0.3-1.7-0.9-2.4   c-0.7-0.6-1.6-0.9-2.6-0.9c-0.9,0-1.7,0.2-2.4,0.8c-0.6,0.4-0.9,1.1-0.9,1.8h-2.9V207c0-1.3,0.6-2.6,1.7-3.4c1.3-1.1,3-1.6,4.7-1.5   c1.7-0.1,3.3,0.4,4.6,1.5c1.2,1.1,1.8,2.6,1.8,4.2v8.2c0,0.6,0,1.2,0.1,1.8c0.1,0.6,0.2,1.1,0.3,1.6L155.4,219.3z M150.3,217.1   c1.1,0,2.1-0.3,3-0.9c0.8-0.5,1.4-1.2,1.8-2v-2.8h-3.4c-1.1-0.1-2.1,0.3-3,0.9c-0.7,0.5-1.1,1.3-1.1,2.2c0,0.7,0.2,1.3,0.7,1.8   C148.8,216.9,149.6,217.1,150.3,217.1z" class="st0"/><path data-cppathid="10007" d="M170.7,205.1l-1.6-0.1c-0.7,0-1.5,0.2-2.1,0.6c-0.6,0.4-1,1-1.3,1.6v12.1h-3.1v-16.9h2.8l0.3,2.5   c0.4-0.8,1-1.5,1.8-2c0.7-0.5,1.6-0.8,2.4-0.7c0.2,0,0.4,0,0.6,0.1c0.2,0,0.3,0.1,0.5,0.1L170.7,205.1z" class="st0"/><path data-cppathid="10008" d="M180.6,219.7c-2.1,0.1-4.2-0.7-5.7-2.3c-1.4-1.7-2.1-3.9-2-6.1v-0.7c-0.1-2.2,0.7-4.3,2.1-6   c1.3-1.5,3.2-2.4,5.1-2.4c1.9-0.1,3.8,0.6,5.1,2.1c1.2,1.6,1.8,3.6,1.7,5.6v1.6h-10.9l-0.1,0.1c-0.1,1.5,0.3,2.9,1.1,4.1   c0.8,1.1,2.1,1.7,3.4,1.6c0.9,0,1.9-0.1,2.7-0.4c0.7-0.3,1.4-0.7,2-1.2l1.2,2c-0.7,0.6-1.5,1.1-2.4,1.5   C183,219.5,181.8,219.7,180.6,219.7z M180.1,204.6c-1,0-2,0.4-2.7,1.2c-0.7,0.9-1.2,2-1.3,3.2v0.1h7.6v-0.2c0-1.1-0.3-2.2-0.9-3.1   C182.2,204.9,181.1,204.5,180.1,204.6L180.1,204.6z" class="st0"/><path data-cppathid="10009" d="M200.1,214.8c0-0.6-0.3-1.3-0.8-1.7c-0.9-0.6-1.9-1-2.9-1.1c-1.6-0.3-3.2-0.9-4.6-1.8c-1-0.7-1.6-1.9-1.6-3.1   c0-1.4,0.7-2.7,1.8-3.5c1.3-1,2.9-1.5,4.6-1.5c1.7-0.1,3.4,0.5,4.7,1.6c1.1,0.9,1.7,2.2,1.7,3.6v0.1H200c0-0.8-0.4-1.5-1-2   c-0.7-0.6-1.5-0.9-2.4-0.9c-0.9-0.1-1.7,0.2-2.4,0.7c-0.5,0.4-0.8,1.1-0.8,1.8c0,0.6,0.2,1.2,0.7,1.6c0.9,0.5,1.9,0.9,2.9,1   c1.7,0.3,3.3,0.9,4.7,1.9c1,0.7,1.6,1.9,1.6,3.1c0,1.4-0.7,2.8-1.8,3.7c-1.4,1-3.1,1.5-4.8,1.4c-1.8,0.1-3.7-0.5-5.1-1.6   c-1.2-0.9-1.8-2.3-1.8-3.8v-0.1h2.9c0,1,0.4,1.9,1.2,2.4c0.8,0.5,1.7,0.8,2.7,0.8c0.9,0.1,1.8-0.2,2.6-0.7   C199.8,216.2,200.1,215.5,200.1,214.8z" class="st0"/><path data-cppathid="10010" d="M52.1,249.6c-0.1-2.3,0.5-4.6,1.7-6.6c1.1-1.6,2.9-2.6,4.9-2.5c0.9,0,1.8,0.2,2.6,0.6c0.8,0.4,1.5,0.9,2,1.6   v-9.3h3.1v24.4h-2.4l-0.5-2.1c-0.5,0.8-1.2,1.4-2,1.8c-0.9,0.4-1.9,0.6-2.8,0.6c-1.9,0.1-3.7-0.8-4.8-2.2c-1.2-1.7-1.9-3.8-1.8-5.9   L52.1,249.6z M55.2,249.9c-0.1,1.4,0.3,2.9,1,4.1c0.7,1,2,1.6,3.2,1.5c0.8,0,1.6-0.2,2.3-0.6c0.7-0.4,1.2-1,1.5-1.8v-7.9   c-0.4-0.7-0.9-1.2-1.5-1.7c-0.7-0.4-1.5-0.6-2.3-0.6c-1.4-0.1-2.6,0.7-3.3,1.9c-0.8,1.5-1.1,3.1-1.1,4.8V249.9z" class="st0"/><path data-cppathid="10011" d="M78,258.1c-2.1,0.1-4.2-0.7-5.7-2.3c-1.4-1.7-2.1-3.9-2-6.1v-0.7c-0.1-2.2,0.7-4.3,2.1-6   c1.3-1.5,3.1-2.4,5.1-2.4c1.9-0.1,3.8,0.6,5.1,2.1c1.2,1.6,1.8,3.6,1.7,5.6v1.7H73.5v0.1c-0.1,1.5,0.3,2.9,1.1,4.1   c0.8,1.1,2.1,1.6,3.4,1.5c0.9,0,1.9-0.1,2.7-0.4c0.7-0.3,1.4-0.7,2-1.2l1.2,2c-0.7,0.6-1.5,1.1-2.4,1.5   C80.4,257.9,79.2,258.1,78,258.1z M77.5,243c-1,0-2,0.4-2.7,1.2c-0.7,0.9-1.2,2-1.3,3.2v0.1h7.6v-0.2c0-1.1-0.3-2.2-0.9-3.1   C79.6,243.3,78.6,242.9,77.5,243L77.5,243z" class="st0"/><path data-cppathid="10012" d="M102.4,255.7c0.9,0,1.8-0.3,2.5-0.9c0.7-0.6,1.1-1.4,1.1-2.3h2.8v0.1c0,1.5-0.7,3-1.9,3.9   c-3,2.5-7.4,2.2-10-0.7c-1.3-1.7-2-3.8-1.9-6V249c-0.1-2.2,0.7-4.3,2-6c1.3-1.6,3.4-2.5,5.5-2.4c1.7-0.1,3.4,0.6,4.6,1.8   c1.2,1.1,1.8,2.7,1.7,4.3v0.1H106c0-1-0.3-1.9-1-2.6c-0.7-0.7-1.6-1.1-2.5-1.1c-1.3-0.1-2.6,0.6-3.3,1.8c-0.7,1.3-1.1,2.8-1,4.3   v0.7c-0.1,1.5,0.3,3,1,4.3C99.8,255.1,101.1,255.8,102.4,255.7z" class="st0"/><path data-cppathid="10013" d="M122.8,257.7c-0.1-0.5-0.2-1-0.2-1.4c-0.1-0.4-0.1-0.8-0.1-1.2c-0.6,0.8-1.4,1.5-2.2,2c-0.9,0.5-1.9,0.8-3,0.8   c-1.5,0.1-2.9-0.4-4-1.4c-1-1-1.5-2.3-1.4-3.7c0-1.5,0.7-3,2-3.8c1.6-1,3.4-1.5,5.3-1.4h3.3v-1.7c0-0.9-0.3-1.7-0.9-2.4   c-0.7-0.6-1.6-0.9-2.6-0.9c-0.9,0-1.7,0.2-2.4,0.8c-0.6,0.4-0.9,1.1-0.9,1.8h-2.9v-0.1c0-1.3,0.6-2.6,1.7-3.4   c1.3-1.1,3-1.6,4.7-1.5c1.7-0.1,3.3,0.4,4.6,1.5c1.2,1.1,1.8,2.6,1.8,4.2v8.1c0,0.6,0,1.2,0.1,1.8c0.1,0.6,0.2,1.1,0.3,1.6   L122.8,257.7z M117.7,255.5c1.1,0,2.1-0.3,3-0.9c0.8-0.5,1.4-1.2,1.8-2v-2.7H119c-1.1-0.1-2.1,0.3-3,0.9c-0.7,0.5-1.1,1.3-1.1,2.2   c0,0.7,0.2,1.3,0.7,1.8C116.2,255.3,117,255.6,117.7,255.5z" class="st0"/><path data-cppathid="10014" d="M133.4,257.7h-3.1v-24.4h3.1V257.7z" class="st0"/><path data-cppathid="10015" d="M141.4,236.5h-3.1v-3.1h3.1V236.5z M141.4,257.7h-3.1v-16.9h3.1V257.7z" class="st0"/><path data-cppathid="10016" d="M145.5,249.6c-0.1-2.3,0.5-4.6,1.7-6.6c1.1-1.6,2.9-2.6,4.9-2.5c0.9,0,1.8,0.2,2.6,0.6c0.8,0.4,1.5,0.9,2,1.6   v-9.3h3.1v24.4h-2.4l-0.5-2.1c-0.5,0.8-1.2,1.4-2,1.8c-0.9,0.4-1.9,0.6-2.8,0.6c-1.9,0.1-3.7-0.8-4.8-2.2c-1.2-1.7-1.9-3.8-1.8-5.9   L145.5,249.6z M148.6,249.9c-0.1,1.4,0.3,2.9,1,4.1c0.7,1,2,1.6,3.2,1.5c0.8,0,1.6-0.2,2.3-0.6c0.7-0.4,1.2-1,1.5-1.8v-7.9   c-0.4-0.7-0.9-1.2-1.5-1.7c-0.7-0.4-1.5-0.6-2.3-0.6c-1.4-0.1-2.6,0.6-3.3,1.8c-0.8,1.5-1.1,3.1-1.1,4.8L148.6,249.9z" class="st0"/><path data-cppathid="10017" d="M174.8,257.7c-0.1-0.5-0.2-1-0.2-1.4c-0.1-0.4-0.1-0.8-0.1-1.2c-0.6,0.8-1.4,1.5-2.2,2c-0.9,0.5-1.9,0.8-3,0.8   c-1.5,0.1-2.9-0.4-4-1.4c-1-1-1.5-2.3-1.4-3.7c0-1.5,0.7-3,2-3.8c1.6-1,3.4-1.5,5.3-1.4h3.3v-1.7c0-0.9-0.3-1.7-0.9-2.4   c-0.7-0.6-1.6-0.9-2.6-0.9c-0.9,0-1.7,0.2-2.4,0.8c-0.6,0.4-0.9,1.1-0.9,1.8h-2.9v-0.1c0-1.3,0.6-2.6,1.7-3.4   c1.3-1.1,3-1.6,4.8-1.5c1.7-0.1,3.3,0.4,4.6,1.5c1.2,1.1,1.9,2.6,1.8,4.2v8.1c0,0.6,0,1.2,0.1,1.8c0.1,0.6,0.2,1.1,0.3,1.6   L174.8,257.7z M169.6,255.5c1.1,0,2.1-0.3,3-0.9c0.8-0.4,1.4-1.2,1.8-2v-2.7H171c-1.1-0.1-2.1,0.3-3,0.9c-0.7,0.5-1.1,1.3-1.1,2.2   c0,0.7,0.2,1.3,0.7,1.8C168.2,255.3,168.9,255.5,169.6,255.5z" class="st0"/><path data-cppathid="10018" d="M181.3,249.6c-0.1-2.3,0.5-4.6,1.7-6.6c1.1-1.6,2.9-2.6,4.9-2.5c0.9,0,1.8,0.2,2.6,0.6c0.8,0.4,1.5,0.9,2,1.6   v-9.3h3.1v24.4h-2.4l-0.5-2.1c-0.5,0.8-1.2,1.4-2,1.8c-0.9,0.4-1.9,0.6-2.8,0.6c-1.9,0.1-3.7-0.8-4.8-2.2c-1.2-1.7-1.9-3.8-1.8-5.9   L181.3,249.6z M184.3,249.9c-0.1,1.4,0.3,2.9,1,4.1c0.7,1,2,1.6,3.2,1.5c0.8,0,1.6-0.2,2.3-0.6c0.7-0.4,1.2-1,1.5-1.8v-7.9   c-0.4-0.7-0.9-1.2-1.5-1.7c-0.7-0.4-1.5-0.6-2.3-0.6c-1.4-0.1-2.6,0.6-3.3,1.8c-0.7,1.5-1.1,3.1-1,4.8L184.3,249.9z" class="st0"/></g><g id="IMG"><g id="Estandares_calidad"><path data-cppathid="10019" d="M56.9,12.1h107c4.9,0,8.9,4,8.9,8.9v144.4c0,4.9-4,8.9-8.9,8.9h-107c-4.9,0-8.9-4-8.9-8.9V21    C48,16.1,52,12.1,56.9,12.1z" class="st1"/><path data-cppathid="10020" d="M74.6,68.8h-7.1V39.6h-7.3v-5.4l14.4-1.3V68.8z" class="st0"/><path data-cppathid="10021" d="M110,56c0,4.1-1.1,7.4-3.3,9.8c-2.2,2.4-5.4,3.7-8.7,3.5c-3.3,0.1-6.5-1.2-8.7-3.5c-2.2-2.4-3.3-5.6-3.3-9.8    v-9.7c0-4.1,1.1-7.4,3.3-9.8c4.8-4.8,12.6-4.8,17.4,0c2.2,2.4,3.3,5.6,3.3,9.8V56z M102.9,45.5c0.1-1.8-0.3-3.7-1.3-5.3    c-0.8-1.2-2.2-1.9-3.6-1.9c-1.4-0.1-2.8,0.7-3.6,1.9c-0.9,1.6-1.4,3.4-1.3,5.3v11.1c-0.1,1.9,0.3,3.7,1.3,5.3    c0.8,1.2,2.2,1.9,3.6,1.9c1.4,0.1,2.8-0.7,3.6-1.9c0.9-1.6,1.4-3.5,1.3-5.3V45.5z" class="st0"/><path data-cppathid="10022" d="M138.5,56c0,4.1-1.1,7.4-3.3,9.8c-4.8,4.7-12.5,4.7-17.4,0c-2.2-2.4-3.3-5.6-3.3-9.8v-9.7    c0-4.1,1.1-7.4,3.3-9.8c4.8-4.8,12.6-4.8,17.4,0c2.2,2.4,3.3,5.6,3.3,9.8V56z M131.4,45.5c0.1-1.8-0.3-3.7-1.3-5.3    c-0.8-1.2-2.2-1.9-3.6-1.9c-1.4-0.1-2.8,0.7-3.6,1.9c-0.9,1.6-1.4,3.4-1.3,5.3v11.1c-0.1,1.9,0.3,3.7,1.3,5.3    c0.8,1.2,2.2,1.9,3.6,1.9c1.4,0.1,2.8-0.7,3.6-1.9c0.9-1.6,1.4-3.5,1.3-5.3V45.5z" class="st0"/><path data-cppathid="10023" d="M160.1,68.8h-7.1V39.6h-7.3v-5.4l14.4-1.3V68.8z" class="st0"/><path data-cppathid="10024" d="M81.4,99.9c0,4.1-1.1,7.4-3.3,9.8c-2.2,2.4-5.4,3.7-8.7,3.5c-3.3,0.1-6.5-1.2-8.7-3.5    c-2.2-2.4-3.3-5.6-3.3-9.8v-9.7c0-4.1,1.1-7.4,3.3-9.8c2.2-2.4,5.4-3.7,8.7-3.5c3.3-0.1,6.4,1.2,8.7,3.6c2.2,2.4,3.3,5.6,3.3,9.8    V99.9z M74.4,89.5c0.1-1.8-0.3-3.7-1.3-5.3c-0.8-1.2-2.2-1.9-3.6-1.9c-1.4-0.1-2.8,0.7-3.6,1.9c-0.9,1.6-1.4,3.4-1.3,5.3v11.1    c-0.1,1.9,0.3,3.7,1.3,5.3c0.8,1.2,2.2,1.9,3.6,1.8c1.4,0.1,2.8-0.6,3.6-1.8c0.9-1.6,1.4-3.5,1.3-5.3V89.5z" class="st0"/><path data-cppathid="10025" d="M103.1,112.7H96V83.5h-7.3v-5.4l14.4-1.2V112.7z" class="st0"/><path data-cppathid="10026" d="M138.5,99.9c0,4.1-1.1,7.4-3.3,9.8c-4.8,4.7-12.5,4.7-17.4,0c-2.2-2.4-3.3-5.6-3.3-9.8v-9.7    c0-4.1,1.1-7.4,3.3-9.8c4.8-4.7,12.5-4.7,17.4,0c2.2,2.4,3.3,5.6,3.3,9.8V99.9z M131.4,89.4c0.1-1.8-0.3-3.7-1.3-5.3    c-0.8-1.2-2.2-1.9-3.6-1.9c-1.4-0.1-2.8,0.7-3.6,1.9c-0.9,1.6-1.4,3.4-1.3,5.3v11.1c-0.1,1.9,0.3,3.7,1.3,5.3    c0.8,1.2,2.2,1.9,3.6,1.8c1.4,0.1,2.8-0.6,3.6-1.8c0.9-1.6,1.4-3.5,1.3-5.3V89.4z" class="st0"/><path data-cppathid="10027" d="M160.1,112.7h-7.1V83.5h-7.3v-5.4l14.4-1.2V112.7z" class="st0"/><path data-cppathid="10028" d="M74.6,156.7h-7.1v-29.2h-7.3v-5.4l14.4-1.3V156.7z" class="st0"/><path data-cppathid="10029" d="M110,143.9c0,4.1-1.1,7.4-3.3,9.8c-2.2,2.4-5.4,3.7-8.7,3.5c-3.3,0.1-6.5-1.2-8.7-3.5    c-2.2-2.4-3.3-5.6-3.3-9.8v-9.7c0-4.1,1.1-7.4,3.3-9.8c4.8-4.8,12.6-4.8,17.4,0c2.2,2.3,3.3,5.6,3.3,9.7V143.9z M102.9,133.4    c0.1-1.8-0.3-3.7-1.3-5.3c-0.8-1.2-2.2-1.9-3.6-1.9c-1.4-0.1-2.8,0.7-3.6,1.9c-0.9,1.6-1.4,3.4-1.3,5.3v11.1    c-0.1,1.9,0.3,3.7,1.3,5.4c0.8,1.2,2.2,1.9,3.6,1.9c1.4,0.1,2.8-0.7,3.6-1.9c0.9-1.6,1.4-3.5,1.3-5.3V133.4z" class="st0"/><path data-cppathid="10030" d="M131.6,156.7h-7.1v-29.2h-7.3v-5.4l14.4-1.3V156.7z" class="st0"/><path data-cppathid="10031" d="M160.1,156.7h-7.1v-29.2h-7.3v-5.4l14.4-1.3V156.7z" class="st0"/><polygon data-cppathid="10032" points="211.7,164.7 194.6,157.8 187.1,174.7 169.5,130.2 180.4,131.1 184.9,125.5 194.1,119.7   " class="st2"/><polygon data-cppathid="10033" points="117.9,167.8 134.6,159.8 143.1,176.1 159.5,128.9 148.7,133.8 133.9,121   " class="st2"/><path data-cppathid="10034" d="M165.6,23.6L165.6,23.6c4-3.6,10.2-3.2,13.7,0.8c0.7,0.8,1.3,1.8,1.7,2.8l0,0c1.8,4.4,6.4,6.8,11,5.9l0,0    c5.3-1.1,10.4,2.3,11.5,7.6c0.2,1.1,0.3,2.2,0.1,3.2l0,0c-0.7,4.7,2.1,9.1,6.6,10.6l0,0c5.1,1.7,7.9,7.2,6.2,12.3    c-0.3,1.1-0.9,2-1.6,2.9l0,0c-2.9,3.7-2.7,8.9,0.4,12.4l0,0c3.6,4,3.2,10.2-0.8,13.7c-0.8,0.7-1.8,1.3-2.8,1.7l0,0    c-4.4,1.8-6.8,6.4-5.9,11l0,0c1.1,5.3-2.3,10.4-7.5,11.5c-1.1,0.2-2.2,0.3-3.3,0.1l0,0c-4.6-0.7-9.1,2.1-10.6,6.6l0,0    c-1.7,5.1-7.2,7.9-12.3,6.2c-1.1-0.3-2-0.9-2.9-1.6l0,0c-3.7-2.9-8.9-2.7-12.4,0.4l0,0c-4,3.6-10.2,3.2-13.7-0.8    c-0.7-0.8-1.3-1.8-1.7-2.8l0,0c-1.8-4.4-6.4-6.8-11-5.9l0,0c-5.3,1.1-10.4-2.3-11.5-7.5c-0.2-1.1-0.3-2.2-0.1-3.3l0,0    c0.7-4.6-2.1-9.1-6.5-10.6l0,0c-5.1-1.7-7.9-7.2-6.2-12.3c0.3-1.1,0.9-2,1.6-2.9l0,0c2.9-3.7,2.7-8.9-0.4-12.4l0,0    c-3.6-4-3.2-10.2,0.8-13.7c0.8-0.7,1.8-1.3,2.8-1.7l0,0c4.4-1.8,6.8-6.4,5.9-11l0,0c-1.1-5.3,2.3-10.4,7.5-11.5    c1.1-0.2,2.2-0.3,3.3-0.1l0,0c4.7,0.7,9.1-2.1,10.6-6.6l0,0c1.7-5.1,7.2-7.9,12.3-6.2c1.1,0.3,2,0.9,2.9,1.6l0,0    C156.9,26.9,162.1,26.7,165.6,23.6z" class="st3"/><path data-cppathid="10035" d="M166.6,24.7c3.5-3,8.7-2.5,11.7,1c0.2,0.3,0.5,0.6,0.7,0.9c0.6,1.1,1,2.3,1.7,3.3c0.9,1.3,2,2.3,3.3,3.2    c2.4,1.5,5.3,2.1,8.1,1.6c2.5-0.6,5.1,0.1,7.1,1.7c2,1.6,3.1,4.1,3,6.7c-0.1,1.3-0.2,2.6-0.1,3.8c0.2,1.4,0.6,2.8,1.3,4    c1.4,2.4,3.7,4.3,6.3,5.2c4.3,1.6,6.6,6.4,5,10.7c-0.3,0.8-0.7,1.6-1.3,2.3l1.3-0.8c-1.5,0-2.3,2.2-2.8,3.3    c-0.6,1.4-0.8,2.9-0.8,4.4c0.1,1.5,0.4,3,1.1,4.4c0.5,1,1.5,3.3,2.9,3.2l-1.1-0.4c1.8,2.1,2.5,5.1,1.7,7.8    c-0.9,2.9-3.1,4.4-5.5,5.6c-3,1.5-5.2,4.2-6,7.5c-0.7,3.2,0.7,6-0.3,9.1c-1,2.9-3.4,5-6.3,5.5c-1.6,0.3-3.2-0.2-4.8,0    c-1.6,0.1-3.2,0.5-4.7,1.3c-1.5,0.8-2.8,1.9-3.8,3.3c-0.8,1.4-1.5,2.8-2.1,4.3c-1.3,2.4-3.7,4.1-6.4,4.4c-1.6,0.2-3.1-0.1-4.5-0.8    c-1.7-0.9-3-2.1-4.9-2.8c-3.8-1.2-8-0.3-11,2.4l1.1-0.4c-1.1,0-2.1,1.3-3.1,1.8c-3.5,1.5-7.5,0.5-9.8-2.5    c-0.7-1.1-1.3-2.3-1.8-3.4c-2.2-3.8-6.4-5.9-10.8-5.5c-1.3,0.3-2.7,0.3-4,0.2c-4-0.7-6.9-4.1-6.9-8.1c0.1-1.3,0.2-2.6,0.1-3.8    c-0.2-1.5-0.6-3-1.3-4.3c-0.7-1.2-1.6-2.3-2.6-3.2c-0.5-0.4-0.9-0.7-1.4-1c-0.3-0.2-0.6-0.3-0.9-0.5l-0.7-0.3    c-0.4-0.2-0.4-0.2,0,0.1c-2.7-0.9-4.8-2.9-5.8-5.6c-0.8-2.7-0.3-5.6,1.4-7.8l-1.3,0.8c1.5,0,2.3-2.2,2.8-3.3    c0.6-1.4,0.8-2.9,0.8-4.4c0-1.5-0.4-3-1-4.4c-0.5-1-1.6-3.3-2.9-3.2l1.1,0.4c-1.8-2.1-2.5-5.1-1.7-7.8c0.4-1.3,1.1-2.5,2-3.5    c0.5-0.5,1.1-0.9,1.7-1.3c0.3-0.2,0.6-0.3,0.9-0.4l-0.4,0.1h0.4l0.7-0.3c3.1-1.5,5.4-4.2,6.2-7.6c0.8-3.2-0.7-6.1,0.4-9.3    c1-2.8,3.5-4.9,6.4-5.4c1.6-0.3,3.2,0.2,4.8,0.1c3.4-0.2,6.4-2,8.4-4.7c1-1.4,1.3-3,2.1-4.4c2.2-3.9,7.2-5.3,11.2-3.1    c0.4,0.2,0.7,0.5,1.1,0.7l0.5,0.2c0.9,0.4-0.2-0.3,0.1,0.2s2,1.1,2.7,1.3C159.4,28.3,163.6,27.4,166.6,24.7c1.5-1.2-0.7-3.3-2.1-2    c-2.8,2.4-6.9,2.7-10,0.6c-0.2-0.2-0.4-0.3-0.6-0.4c-0.1-0.1-0.7-0.2-0.8-0.2h0.2c0.3,0,0.3,0,0.1-0.1c-0.1-0.1-0.4-0.3-0.5-0.4    c-0.7-0.4-1.4-0.7-2.2-1c-1.5-0.5-3.1-0.7-4.7-0.5c-3.1,0.3-5.9,1.8-7.9,4.3c-1,1.4-1.4,2.9-2.2,4.4c-0.8,1.5-2,2.8-3.5,3.6    c-3.2,1.7-6.7,0.2-10,1.3c-3.2,1.1-5.8,3.5-7,6.7c-0.6,1.6-0.8,3.2-0.7,4.9c0.3,1.6,0.4,3.2,0.2,4.8c-0.4,1.6-1.2,3.1-2.5,4.3    c-0.6,0.5-1.3,1-2,1.3c-0.6,0.4-0.1,0.2,0.1,0.1c-0.2,0.1-0.5,0.1-0.8,0.2c-0.4,0.2-0.8,0.3-1.2,0.6c-3.1,1.8-5.2,5-5.6,8.6    c-0.2,1.7,0,3.4,0.6,5c0.5,1.2,1.7,4.2,3.3,4.2l-1-0.5c2.6,3,2.7,7.5,0.2,10.6l1.3-0.7c-1.4,0-2.2,2-2.7,3.1    c-1.7,3.9-1,8.5,1.9,11.7c0.9,1.1,2,2,3.3,2.6c0.3,0.2,0.6,0.3,0.9,0.4c0.2,0.1,0.3,0.1,0.5,0.2c-0.1,0-0.9-0.5-0.1,0    c0.8,0.3,1.5,0.7,2.2,1.1c2.5,1.7,3.9,4.6,3.7,7.7c-0.4,2.9,0.2,5.9,1.9,8.3c1.7,2.4,4.3,4.1,7.2,4.6c3.1,0.5,6.1-0.9,9.1,0.4    c1.4,0.6,2.6,1.6,3.5,2.8c0.8,1.2,1.2,2.6,2.1,3.8c3.6,5.1,10.7,6.3,15.8,2.7c0.3-0.2,0.6-0.5,0.9-0.7l-1.1,0.4    c0.8,0,1.4-0.8,2.1-1.2c0.8-0.5,1.6-0.8,2.5-1c1.8-0.4,3.7-0.2,5.4,0.6c1.6,0.7,2.8,1.9,4.4,2.6c1.4,0.6,3,0.8,4.5,0.7    c3.2-0.2,6.1-1.6,8.1-4.1c1-1.4,1.7-2.8,2.3-4.4c0.7-1.6,1.8-2.9,3.3-3.8c1.5-0.9,3.2-1.3,4.9-1.2c1.7,0.2,3.4,0.1,5.1-0.2    c3.2-0.9,5.9-3.3,7.2-6.3c0.7-1.5,1-3.2,0.9-4.9c-0.1-1.6-0.6-3.1-0.3-4.8c0.3-1.7,1.1-3.3,2.3-4.5c0.6-0.6,1.2-1,1.9-1.4    c0.9-0.5,1.4-0.6,2.1-1c3.1-1.8,5.1-4.9,5.5-8.3c0.2-1.7,0-3.5-0.6-5.2c-0.5-1.2-1.7-4.2-3.3-4.2l1.1,0.4c-2.6-3-2.7-7.5-0.2-10.6    l-1.3,0.7c1.4,0,2.2-2,2.7-3.1c1.7-3.9,1-8.4-1.8-11.6c-0.9-1.1-2-2-3.3-2.6c-1.3-0.5-2.6-1.1-3.9-1.8c-2.5-1.8-3.8-4.7-3.5-7.8    c0.4-2.9-0.3-5.9-2-8.3c-1.7-2.4-4.4-4-7.3-4.5c-3.1-0.5-6,0.9-9-0.4c-1.4-0.6-2.6-1.6-3.5-2.8c-0.9-1.2-1.3-2.7-2.2-4    c-3.7-5.1-10.8-6.2-15.8-2.5c-0.3,0.2-0.6,0.4-0.8,0.7C163.1,23.8,165.2,25.9,166.6,24.7z" class="st0"/><circle data-cppathid="10036" r="43" cy="77.7" cx="161.1" class="st4"/><path data-cppathid="10037" d="M184.7,70.3l-29.6,27c-2.1,1.9-5.3,1.9-7.3,0l-9.5-8.6c-2.2-2-2.4-5.5-0.4-7.7c2-2.2,5.5-2.4,7.7-0.4l5.8,5.3    l26-23.7c2.1-2.2,5.5-2.3,7.7-0.2c2.2,2.1,2.3,5.5,0.2,7.7C185.2,69.9,185,70.1,184.7,70.3L184.7,70.3z" class="st5"/></g></g><g id="Borde"><path data-cppathid="10038" d="M212.9,3c18,0,32.6,14.6,32.6,32.7c0,0,0,0,0,0v198.7c0,18-14.6,32.6-32.6,32.6H35.7C17.6,267,3,252.4,3,234.4   V35.7C3,17.6,17.6,3,35.6,3c0,0,0,0,0,0H212.9 M212.9,0H35.7C16,0,0,16,0,35.7v198.7C0,254.1,16,270,35.7,270h177.2   c19.7,0,35.6-16,35.6-35.6V35.7C248.5,16,232.5,0,212.9,0z" class="st6"/></g></svg>