<?xml version="1.0" encoding="UTF-8"?>
<svg xmlns="http://www.w3.org/2000/svg" onmouseup="{ if(window.parent.document.onmouseup) window.parent.document.onmouseup(arguments[0]);}" viewBox="0 0 248.5 270.05"><defs><style>.cls-1{fill:#fff;}.cls-2{fill:red;}.cls-2,.cls-3{stroke:#fff;stroke-linecap:round;stroke-linejoin:round;stroke-width:6px;}.cls-3{fill:#333e48;}.cls-4{fill:#00ffd3;}</style></defs><g id="TXT"><path data-cppathid="10000" transform="translate(0 -0.1)" d="M44,238.06v9.12H40.94V224.43h8.7a8,8,0,0,1,5.66,1.88,7,7,0,0,1,0,9.89,8,8,0,0,1-5.66,1.86Zm0-2.41h5.62a4.12,4.12,0,0,0,4.59-4.37,4.54,4.54,0,0,0-1.14-3.16,4.45,4.45,0,0,0-3.45-1.26H44Z" class="cls-1"/><path data-cppathid="10001" transform="translate(0 -0.1)" d="M68.86,233l-1.58-.1a3.54,3.54,0,0,0-2,.58,3.71,3.71,0,0,0-1.29,1.63v12.07H60.86v-16.9h2.75l.3,2.47a5.77,5.77,0,0,1,1.77-2.05,4.13,4.13,0,0,1,2.43-.74,3.52,3.52,0,0,1,.66.06l.51.12Z" class="cls-1"/><path data-cppathid="10002" transform="translate(0 -0.1)" d="M75.39,226H72.31v-3.14h3.08Zm0,21.23H72.31v-16.9h3.08Z" class="cls-1"/><path data-cppathid="10003" transform="translate(0 -0.1)" d="M79.41,238.57a9.28,9.28,0,0,1,2-6.18,7.52,7.52,0,0,1,11.07,0,9.25,9.25,0,0,1,2,6.18v.35a9.3,9.3,0,0,1-2,6.19,7.58,7.58,0,0,1-11.08,0,9.29,9.29,0,0,1-2-6.18Zm3.07.35a8,8,0,0,0,1.14,4.44,4.09,4.09,0,0,0,6.71,0,8,8,0,0,0,1.14-4.44v-.35a7.92,7.92,0,0,0-1.15-4.42A3.78,3.78,0,0,0,87,232.39a3.71,3.71,0,0,0-3.33,1.76,8,8,0,0,0-1.14,4.42Z" class="cls-1"/><path data-cppathid="10004" transform="translate(0 -0.1)" d="M106.31,233l-1.58-.1a3.56,3.56,0,0,0-2,.58,3.71,3.71,0,0,0-1.29,1.63v12.07H98.31v-16.9h2.75l.3,2.47a5.87,5.87,0,0,1,1.77-2.05,4.18,4.18,0,0,1,2.43-.74,3.52,3.52,0,0,1,.66.06l.51.12Z" class="cls-1"/><path data-cppathid="10005" transform="translate(0 -0.1)" d="M112.84,226h-3.07v-3.14h3.07Zm0,21.23h-3.07v-16.9h3.07Z" class="cls-1"/><path data-cppathid="10006" transform="translate(0 -0.1)" d="M120.48,244.78h9.77v2.4H116.81V245L126,232.71h-9v-2.43h12.8v2.09Z" class="cls-1"/><path data-cppathid="10007" transform="translate(0 -0.1)" d="M144.06,247.18q-.15-.77-.24-1.35a9.24,9.24,0,0,1-.1-1.18,7.34,7.34,0,0,1-2.24,2,5.74,5.74,0,0,1-3,.82,5.52,5.52,0,0,1-4-1.35,4.94,4.94,0,0,1-1.39-3.73,4.4,4.4,0,0,1,2-3.79,9.17,9.17,0,0,1,5.32-1.36h3.35v-1.67a3.1,3.1,0,0,0-.91-2.36,3.59,3.59,0,0,0-2.56-.86,3.7,3.7,0,0,0-2.42.75,2.23,2.23,0,0,0-.92,1.79L134,235l0-.09a4,4,0,0,1,1.73-3.37,7.15,7.15,0,0,1,4.74-1.54,7,7,0,0,1,4.63,1.47,5.18,5.18,0,0,1,1.75,4.21v8.14a16.66,16.66,0,0,0,.09,1.75,9.3,9.3,0,0,0,.34,1.65ZM139,244.93a5.43,5.43,0,0,0,3-.86,4.08,4.08,0,0,0,1.75-2v-2.75h-3.46a4.48,4.48,0,0,0-3,.93,2.8,2.8,0,0,0-1.12,2.21,2.35,2.35,0,0,0,.7,1.78A3,3,0,0,0,139,244.93Z" class="cls-1"/><path data-cppathid="10008" transform="translate(0 -0.1)" d="M158,245.11a3.64,3.64,0,0,0,2.49-1,3,3,0,0,0,1.06-2.32h2.78l.05.09a4.88,4.88,0,0,1-1.88,3.89,7.17,7.17,0,0,1-10-.73,9.35,9.35,0,0,1-1.93-6v-.66a9.3,9.3,0,0,1,1.94-6A6.67,6.67,0,0,1,158,230a6.43,6.43,0,0,1,4.64,1.75,5.57,5.57,0,0,1,1.74,4.3l0,.1h-2.8a3.75,3.75,0,0,0-1-2.64,3.33,3.33,0,0,0-2.54-1.08,3.54,3.54,0,0,0-3.3,1.75,8.3,8.3,0,0,0-1,4.26v.66a8.42,8.42,0,0,0,1,4.3A3.56,3.56,0,0,0,158,245.11Z" class="cls-1"/><path data-cppathid="10009" transform="translate(0 -0.1)" d="M171.34,226h-3.08v-3.14h3.08Zm0,21.23h-3.08v-16.9h3.08Z" class="cls-1"/><path data-cppathid="10010" transform="translate(0 -0.1)" d="M175.36,238.57a9.33,9.33,0,0,1,2-6.18,7.52,7.52,0,0,1,11.07,0,9.25,9.25,0,0,1,2,6.18v.35a9.3,9.3,0,0,1-2,6.19,7.57,7.57,0,0,1-11.07,0,9.25,9.25,0,0,1-2-6.18Zm3.08.35a8,8,0,0,0,1.13,4.44,4.09,4.09,0,0,0,6.71,0,8,8,0,0,0,1.14-4.44v-.35a7.92,7.92,0,0,0-1.15-4.42,3.77,3.77,0,0,0-3.36-1.76,3.72,3.72,0,0,0-3.34,1.76,8,8,0,0,0-1.13,4.42Zm6-15.81H188l0,.09-4.21,4.06h-2.31Z" class="cls-1"/><path data-cppathid="10011" transform="translate(0 -0.1)" d="M197,230.28l.22,2.51a6.19,6.19,0,0,1,2.12-2.08,5.62,5.62,0,0,1,2.9-.75,5.51,5.51,0,0,1,4.23,1.61,7,7,0,0,1,1.5,4.94v10.67h-3.07V236.57a4.57,4.57,0,0,0-.89-3.17,3.54,3.54,0,0,0-2.69-.94,4.79,4.79,0,0,0-2.42.58,4.16,4.16,0,0,0-1.57,1.6v12.54h-3.08v-16.9Z" class="cls-1"/></g><g id="IMG"><g id="Priorizacion"><polygon data-cppathid="10012" points="124.25 23.52 83.63 94.29 164.87 94.29 124.25 23.52" class="cls-2"/><polygon data-cppathid="10013" points="173.29 108.97 75.21 108.97 55.12 143.96 193.38 143.96 173.29 108.97" class="cls-3"/><polygon data-cppathid="10014" points="46.7 158.64 24.86 196.69 223.64 196.69 201.81 158.64 46.7 158.64" class="cls-3"/></g></g><g id="Borde"><path data-cppathid="10015" transform="translate(0 -0.1)" d="M212.85,3.1A32.65,32.65,0,0,1,245.5,35.76V234.5a32.65,32.65,0,0,1-32.65,32.65H35.65A32.65,32.65,0,0,1,3,234.5V35.76A32.65,32.65,0,0,1,35.65,3.1h177.2m0-3H35.65A35.7,35.7,0,0,0,0,35.76V234.5a35.69,35.69,0,0,0,35.65,35.65h177.2A35.69,35.69,0,0,0,248.5,234.5V35.76A35.7,35.7,0,0,0,212.85.1Z" class="cls-4"/></g></svg>