<?xml version="1.0" encoding="UTF-8"?>
<svg xmlns="http://www.w3.org/2000/svg" onmouseup="{ if(window.parent.document.onmouseup) window.parent.document.onmouseup(arguments[0]);}" viewBox="0 0 1156.82 1080" data-name="Layer 1" id="Layer_1"><defs><style>.cls-1,.cls-8{fill:#333e48;}.cls-2{isolation:isolate;}.cls-3{fill:#fff;}.cls-4{fill:#0099a8;}.cls-5{fill:#00ffd3;}.cls-6{fill:#f7a800;}.cls-7{fill:none;stroke:#00ffd3;stroke-width:2px;}.cls-7,.cls-8{stroke-linecap:round;stroke-linejoin:round;}.cls-8{stroke:#fff;stroke-width:3px;}</style></defs><rect data-cppathid="10000" height="1080" width="1156.82" class="cls-1"/><g class="cls-2"><g class="cls-2"><path data-cppathid="10001" d="M229.49,448l.07.22q.15,8.2-5,12.54t-13.46,4.34a17.17,17.17,0,0,1-14-6.46q-5.28-6.47-5.28-17v-8q0-10.47,5.28-16.95a17.14,17.14,0,0,1,14-6.49q8.36,0,13.46,4.36t5,12.45l-.07.22h-1.68q0-7.21-4.49-11.13t-12.18-3.92a15.36,15.36,0,0,0-12.56,5.9q-4.76,5.89-4.76,15.49v8.05q0,9.7,4.76,15.59a15.39,15.39,0,0,0,12.56,5.87q7.7,0,12.18-3.77T227.81,448Z" class="cls-3"/><path data-cppathid="10002" d="M266.33,457a15.45,15.45,0,0,1-6.11,5.84,20.1,20.1,0,0,1-9.86,2.25q-5.52,0-8.67-3a10.76,10.76,0,0,1-3.15-8.15q0-5,4.7-8.35A19.76,19.76,0,0,1,255,442.22h11.31v-5.78a9.66,9.66,0,0,0-3.17-7.71c-2.11-1.84-5.08-2.77-8.91-2.77a13.54,13.54,0,0,0-8.66,2.6,8.18,8.18,0,0,0-3.28,6.71l-1.65-.08-.07-.18a9.23,9.23,0,0,1,3.59-7.82Q248,424,254.25,424t10.21,3.22q3.85,3.23,3.85,9.3v19.85a33.56,33.56,0,0,0,.24,4.06,26.4,26.4,0,0,0,.78,3.92h-2.19c-.32-1.73-.53-3-.64-3.9a22.17,22.17,0,0,1-.17-2.8Zm-16,6.15a18.21,18.21,0,0,0,10-2.6,15,15,0,0,0,6-7.43v-8.9h-11.2a18.16,18.16,0,0,0-10.39,2.84q-4.23,2.84-4.23,7a8.6,8.6,0,0,0,2.7,6.54A10,10,0,0,0,250.36,463.17Z" class="cls-3"/><path data-cppathid="10003" d="M279.22,444.49q0-9.4,4-15a12.74,12.74,0,0,1,11-5.54,15.07,15.07,0,0,1,8,2.07,15.27,15.27,0,0,1,5.4,5.65v-24.5h2V437a0,0,0,0,0,0,0v16.15a.51.51,0,0,0,0,.11v11h-1.9l-.07-6.11a14.13,14.13,0,0,1-5.42,5,16.71,16.71,0,0,1-8.06,1.85,12.8,12.8,0,0,1-10.93-5.35q-3.95-5.34-3.94-14.5Zm2,.77q0,8.21,3.24,13a10.75,10.75,0,0,0,9.54,4.83,14.85,14.85,0,0,0,8.57-2.32,13.3,13.3,0,0,0,4.95-6.21V435.85a16.56,16.56,0,0,0-4.64-7.05q-3.17-2.83-8.8-2.84a10.67,10.67,0,0,0-9.58,5.15q-3.27,5.14-3.28,13.38Z" class="cls-3"/><path data-cppathid="10004" d="M347,457a15.45,15.45,0,0,1-6.11,5.84,20.1,20.1,0,0,1-9.86,2.25c-3.68,0-6.58-1-8.67-3a10.76,10.76,0,0,1-3.15-8.15q0-5,4.7-8.35a19.76,19.76,0,0,1,11.78-3.37H347v-5.78a9.66,9.66,0,0,0-3.17-7.71c-2.11-1.84-5.08-2.77-8.91-2.77a13.54,13.54,0,0,0-8.66,2.6,8.18,8.18,0,0,0-3.28,6.71l-1.65-.08-.07-.18a9.23,9.23,0,0,1,3.59-7.82q3.8-3.21,10.07-3.2t10.21,3.22q3.86,3.23,3.85,9.3v19.85a33.56,33.56,0,0,0,.24,4.06,26.4,26.4,0,0,0,.78,3.92h-2.19c-.32-1.73-.53-3-.64-3.9a22.17,22.17,0,0,1-.17-2.8Zm-16,6.15a18.21,18.21,0,0,0,10-2.6,15,15,0,0,0,6-7.43v-8.9h-11.2a18.16,18.16,0,0,0-10.39,2.84q-4.23,2.84-4.23,7a8.62,8.62,0,0,0,2.69,6.54A10,10,0,0,0,331,463.17Z" class="cls-3"/><path data-cppathid="10005" d="M377.81,444.49q0-9.4,3.95-15a12.76,12.76,0,0,1,11-5.54,14.68,14.68,0,0,1,13.4,7.72v-24.5h2V437s0,0,0,0v16.15a.24.24,0,0,0,0,.11v11h-1.91l-.07-6.11a14.06,14.06,0,0,1-5.42,5,16.68,16.68,0,0,1-8.06,1.85,12.81,12.81,0,0,1-10.93-5.35q-3.93-5.34-3.93-14.5Zm2.05.77q0,8.21,3.24,13a10.75,10.75,0,0,0,9.54,4.83,14.87,14.87,0,0,0,8.57-2.32,13.22,13.22,0,0,0,4.94-6.21V435.85a16.63,16.63,0,0,0-4.63-7.05q-3.16-2.83-8.81-2.84a10.67,10.67,0,0,0-9.58,5.15q-3.27,5.14-3.27,13.38Z" class="cls-3"/><path data-cppathid="10006" d="M417.58,443.76q0-8.72,4.81-14.24a16.95,16.95,0,0,1,25.05,0q4.81,5.52,4.82,14.24v1.54q0,8.74-4.82,14.28a16.93,16.93,0,0,1-25,0q-4.83-5.52-4.83-14.28Zm2,1.54A19.53,19.53,0,0,0,423.73,458a14.65,14.65,0,0,0,22.37,0,19.48,19.48,0,0,0,4.18-12.63v-1.54a19.41,19.41,0,0,0-4.21-12.54,14.49,14.49,0,0,0-22.34,0,19.55,19.55,0,0,0-4.18,12.54Z" class="cls-3"/><path data-cppathid="10007" d="M463.13,424.72l.26,8a14.81,14.81,0,0,1,5.16-6.42,14,14,0,0,1,8.13-2.29,12.77,12.77,0,0,1,8.24,2.54q3.19,2.55,4.43,7.89a15.89,15.89,0,0,1,5.19-7.71,13.85,13.85,0,0,1,8.8-2.76q6.56,0,10,4.28t3.41,13.48v22.6h-2V441.64q0-8.61-3.08-12.16a10.31,10.31,0,0,0-8.2-3.55q-6.12,0-9.32,3.59a17.8,17.8,0,0,0-4.12,9.3c0,.49,0,1,.07,1.48s0,1,0,1.52v22.52h-2V444.05H488c0-.46,0-.92,0-1.39s0-.91.09-1.35q-.1-8.43-3.15-11.89a10.33,10.33,0,0,0-8.16-3.46q-6,0-9.21,3.5a17.45,17.45,0,0,0-4.12,9.06v25.82h-2V444.05h-.07c0-.34,0-.68,0-1s0-.77.05-1.28v-17Z" class="cls-3"/><path data-cppathid="10008" d="M531.43,412.27h-2v-5.06h2Zm0,52.07h-2V424.72h2Z" class="cls-3"/><path data-cppathid="10009" d="M546.12,424.72l.25,8a14.5,14.5,0,0,1,5.28-6.42,14.89,14.89,0,0,1,8.46-2.29q6.48,0,9.72,4.08T573.07,441v23.33h-2v-23.4q0-8.24-3-11.61a10.1,10.1,0,0,0-8-3.37q-6.23,0-9.52,3.63a17.66,17.66,0,0,0-4.21,9.34v25.41h-2V444.05h-.11c0-.46,0-.93,0-1.41s0-.95.09-1.44V424.72Z" class="cls-3"/><path data-cppathid="10010" d="M587.94,412.27h-2v-5.06h2Zm0,52.07h-2V424.72h2Z" class="cls-3"/><path data-cppathid="10011" d="M597.83,443.76q0-8.72,4.81-14.24a16.95,16.95,0,0,1,25.05,0q4.81,5.52,4.82,14.24v1.54q0,8.74-4.82,14.28a16.93,16.93,0,0,1-25,0q-4.83-5.52-4.83-14.28Zm2,1.54A19.53,19.53,0,0,0,604,458a14.65,14.65,0,0,0,22.37,0,19.48,19.48,0,0,0,4.18-12.63v-1.54a19.46,19.46,0,0,0-4.21-12.54,14.49,14.49,0,0,0-22.34,0,19.55,19.55,0,0,0-4.18,12.54Z" class="cls-3"/><path data-cppathid="10012" d="M673.81,465.11A15.18,15.18,0,0,1,662,459.69,19.79,19.79,0,0,1,657.19,446v-2.34q0-8.61,4.78-14.16A15.21,15.21,0,0,1,674,424a13.44,13.44,0,0,1,10.51,4.34q3.91,4.34,3.92,11.84v3H659.17V446a18.35,18.35,0,0,0,4.1,12.18,13.1,13.1,0,0,0,10.54,4.92,18.28,18.28,0,0,0,6.83-1.31A14.6,14.6,0,0,0,686,458.3l1.07,1.54a16,16,0,0,1-5.39,3.79A19,19,0,0,1,673.81,465.11ZM674,426a13.13,13.13,0,0,0-10.09,4.27A17.35,17.35,0,0,0,659.46,441l.11.23h26.88V440a15.17,15.17,0,0,0-3.33-10.09A11.28,11.28,0,0,0,674,426Z" class="cls-3"/><path data-cppathid="10013" d="M722.26,454.64a7.78,7.78,0,0,0-2.69-5.73q-2.69-2.58-9.39-4.05-7.06-1.5-10.24-3.86a8.21,8.21,0,0,1-3.16-7,8.78,8.78,0,0,1,3.59-7.12Q704,424,710,424q6.56,0,10.33,3.07a9.4,9.4,0,0,1,3.59,8l-.07.22h-1.69a8.3,8.3,0,0,0-3.28-6.61Q715.64,426,710,426t-8.42,2.4a7.12,7.12,0,0,0-2.86,5.55,6.91,6.91,0,0,0,2.42,5.31q2.42,2.2,9.6,3.85c4.41,1,7.77,2.42,10.05,4.19a8.85,8.85,0,0,1,3.42,7.41,9,9,0,0,1-3.81,7.55q-3.81,2.89-10.1,2.89-6.93,0-10.86-3.09a8.59,8.59,0,0,1-3.68-7.53l.07-.22h1.61a7.79,7.79,0,0,0,4,6.78,17.82,17.82,0,0,0,8.83,2.08q5.49,0,8.71-2.56A7.46,7.46,0,0,0,722.26,454.64Z" class="cls-3"/><path data-cppathid="10014" d="M739.4,414v10.69h9.74v2H739.4v27.4c0,3.24.55,5.56,1.65,6.94a5.32,5.32,0,0,0,4.36,2.06c.66,0,1.24,0,1.76-.07s1.22-.13,2.12-.26l.37,1.8a10,10,0,0,1-1.91.4,18.78,18.78,0,0,1-2.23.11,7.27,7.27,0,0,1-6.06-2.6c-1.38-1.73-2.07-4.53-2.07-8.38v-27.4h-7.33v-2h7.33V414Z" class="cls-3"/><path data-cppathid="10015" d="M783.35,457a15.48,15.48,0,0,1-6.12,5.84,20.06,20.06,0,0,1-9.85,2.25c-3.68,0-6.58-1-8.68-3a10.76,10.76,0,0,1-3.15-8.15q0-5,4.71-8.35A19.75,19.75,0,0,1,772,442.22h11.32v-5.78a9.69,9.69,0,0,0-3.17-7.71c-2.11-1.84-5.08-2.77-8.92-2.77a13.56,13.56,0,0,0-8.66,2.6,8.2,8.2,0,0,0-3.27,6.71l-1.65-.08-.08-.18a9.25,9.25,0,0,1,3.59-7.82Q765,424,771.26,424t10.22,3.22q3.84,3.23,3.85,9.3v19.85a35.75,35.75,0,0,0,.23,4.06,26.43,26.43,0,0,0,.79,3.92h-2.2c-.31-1.73-.53-3-.64-3.9a22.25,22.25,0,0,1-.16-2.8Zm-16,6.15a18.24,18.24,0,0,0,10-2.6,15.09,15.09,0,0,0,6-7.43v-8.9H772.14a18.15,18.15,0,0,0-10.38,2.84q-4.23,2.84-4.23,7a8.62,8.62,0,0,0,2.69,6.54A10,10,0,0,0,767.38,463.17Z" class="cls-3"/><path data-cppathid="10016" d="M828.36,445.26q0,9.17-4,14.5a12.81,12.81,0,0,1-10.91,5.35,16.75,16.75,0,0,1-8.11-1.87,14,14,0,0,1-5.41-5l-.25,6.11h-1.65v-10.8c0-.07,0-.13-.05-.18a.39.39,0,0,1,0-.15V437a1.57,1.57,0,0,1,.07-.23V407.21h2v24.47a14.8,14.8,0,0,1,5.34-5.64,15.11,15.11,0,0,1,8-2.05,12.76,12.76,0,0,1,11,5.54q4,5.55,4,15Zm-2.06-.77q0-8.24-3.29-13.38a10.67,10.67,0,0,0-9.56-5.15q-5.64,0-8.81,2.82a16.22,16.22,0,0,0-4.59,7v19a12.85,12.85,0,0,0,4.91,6.14,15.06,15.06,0,0,0,8.56,2.28,10.78,10.78,0,0,0,9.53-4.83q3.26-4.83,3.25-13Z" class="cls-3"/><path data-cppathid="10017" d="M841.58,464.34h-2V407.21h2Z" class="cls-3"/><path data-cppathid="10018" d="M868.46,465.11a15.17,15.17,0,0,1-11.81-5.42A19.75,19.75,0,0,1,851.83,446v-2.34q0-8.61,4.78-14.16a15.21,15.21,0,0,1,12-5.54,13.44,13.44,0,0,1,10.51,4.34q3.92,4.34,3.92,11.84v3H853.81V446a18.35,18.35,0,0,0,4.1,12.18,13.1,13.1,0,0,0,10.55,4.92,18.35,18.35,0,0,0,6.83-1.31,14.64,14.64,0,0,0,5.32-3.52l1.07,1.54a16,16,0,0,1-5.39,3.79A18.93,18.93,0,0,1,868.46,465.11Zm.18-39.15a13.13,13.13,0,0,0-10.09,4.27A17.35,17.35,0,0,0,854.1,441l.11.23h26.88V440a15.17,15.17,0,0,0-3.33-10.09A11.27,11.27,0,0,0,868.64,426Z" class="cls-3"/><path data-cppathid="10019" d="M906.07,463.13a14.88,14.88,0,0,0,8.86-2.74q3.84-2.75,3.84-8.24h1.69l.07.22a10.79,10.79,0,0,1-4.27,9.28,16,16,0,0,1-10.19,3.46q-7.59,0-11.89-5.45t-4.3-14.36v-1.54q0-8.86,4.28-14.32A14.23,14.23,0,0,1,906,424a15.61,15.61,0,0,1,10.42,3.6q4.26,3.62,4.12,10.17l-.07.22h-1.69q0-5.84-3.73-8.92a13.75,13.75,0,0,0-9-3.1q-7,0-10.54,5t-3.59,12.82v1.54q0,7.9,3.59,12.87T906.07,463.13Z" class="cls-3"/><path data-cppathid="10020" d="M944.55,465.11a15.18,15.18,0,0,1-11.81-5.42A19.79,19.79,0,0,1,927.93,446v-2.34q0-8.61,4.78-14.16a15.21,15.21,0,0,1,12-5.54,13.46,13.46,0,0,1,10.51,4.34q3.91,4.34,3.92,11.84v3H929.91V446a18.35,18.35,0,0,0,4.1,12.18,13.1,13.1,0,0,0,10.54,4.92,18.28,18.28,0,0,0,6.83-1.31,14.68,14.68,0,0,0,5.33-3.52l1.06,1.54a15.91,15.91,0,0,1-5.38,3.79A19,19,0,0,1,944.55,465.11Zm.19-39.15a13.13,13.13,0,0,0-10.09,4.27A17.35,17.35,0,0,0,930.2,441l.11.23h26.88V440a15.17,15.17,0,0,0-3.33-10.09A11.29,11.29,0,0,0,944.74,426Z" class="cls-3"/></g><g class="cls-2"><path data-cppathid="10021" d="M191.39,519.12q0-9.25,4-14.92a13,13,0,0,1,11.26-5.68,11.18,11.18,0,0,1,5.71,1.43,12.79,12.79,0,0,1,4.23,4.1l1-4.8h9v54.12H216V534.69A11.48,11.48,0,0,1,211.9,538a12.13,12.13,0,0,1-5.33,1.12,13.25,13.25,0,0,1-11.19-5.27q-4-5.28-4-14Zm10.52.76a16.2,16.2,0,0,0,1.73,8.13,6,6,0,0,0,5.64,3,8.46,8.46,0,0,0,4-.87,7,7,0,0,0,2.71-2.53V510.27a7.43,7.43,0,0,0-2.69-2.68,7.84,7.84,0,0,0-3.92-.94,5.94,5.94,0,0,0-5.65,3.47,19.55,19.55,0,0,0-1.79,9Z" class="cls-4"/><path data-cppathid="10022" d="M258.74,532.56a13.14,13.14,0,0,1-4.59,4.84,12.07,12.07,0,0,1-6.46,1.7,11.88,11.88,0,0,1-9.67-4.19q-3.48-4.18-3.49-13V499.25h10.52V522q0,5.14,1.39,7a5,5,0,0,0,4.32,1.9,10.52,10.52,0,0,0,4.33-.81,7.37,7.37,0,0,0,3-2.41V499.25h10.55v39.09h-8.75Z" class="cls-4"/><path data-cppathid="10023" d="M293.5,539.1q-8.75,0-13.65-5.36t-4.92-13.82v-1.45q0-8.78,4.77-14.38t13.12-5.57q7.88,0,12.08,4.83t4.21,13v5.45h-23.3l-.11.22a10.55,10.55,0,0,0,2.44,6.5c1.45,1.67,3.62,2.5,6.48,2.5a21.81,21.81,0,0,0,6-.72,24.92,24.92,0,0,0,5.11-2.21l2.86,6.5a19.66,19.66,0,0,1-6.36,3.22A28.17,28.17,0,0,1,293.5,539.1Zm-.68-32.45a5.86,5.86,0,0,0-4.9,2.19,11,11,0,0,0-2.08,5.8l.08.18h12.86V514a9.17,9.17,0,0,0-1.41-5.41A5.22,5.22,0,0,0,292.82,506.65Zm1.26-24.13h11.74l.08.21-10,9.4h-9Z" class="cls-4"/><path data-cppathid="10024" d="M346.33,489.67v9.58h6.61v7.4h-6.61v19.91a4.55,4.55,0,0,0,1,3.26,3.35,3.35,0,0,0,2.51,1,10.08,10.08,0,0,0,1.44-.09,11.14,11.14,0,0,0,1.41-.31l.87,7.63a21.42,21.42,0,0,1-3.09.81,18.49,18.49,0,0,1-3.27.27q-5.46,0-8.4-3t-2.95-9.5v-20h-5.7v-7.4h5.7v-9.58Z" class="cls-4"/><path data-cppathid="10025" d="M370.54,489.89H360V482h10.55Zm0,48.45H360V499.25h10.55Z" class="cls-4"/><path data-cppathid="10026" d="M414.48,519.88q0,8.67-4,14a13.3,13.3,0,0,1-11.21,5.27,12.5,12.5,0,0,1-5.45-1.14,11.18,11.18,0,0,1-4.08-3.34v18.75H379.21V499.25h9.5l.62,4.62a12.42,12.42,0,0,1,4.17-3.95,11.27,11.27,0,0,1,5.69-1.4,13,13,0,0,1,11.28,5.68q4,5.67,4,14.92Zm-10.55-.76a18.88,18.88,0,0,0-1.85-9,6,6,0,0,0-5.63-3.43,8,8,0,0,0-4.07,1,7,7,0,0,0-2.65,2.78v17.13a6.45,6.45,0,0,0,2.65,2.53,8.93,8.93,0,0,0,4.14.87,6.08,6.08,0,0,0,5.62-3,15.86,15.86,0,0,0,1.79-8.13Z" class="cls-4"/><path data-cppathid="10027" d="M419.35,518.43q0-8.74,4.88-14.32t13.52-5.59q8.67,0,13.58,5.57t4.92,14.34v.76q0,8.82-4.9,14.37t-13.53,5.54q-8.67,0-13.57-5.54t-4.9-14.37Zm10.52.76a16.9,16.9,0,0,0,1.88,8.58,7.22,7.22,0,0,0,12.05,0,17,17,0,0,0,1.89-8.57v-.76a16.68,16.68,0,0,0-1.91-8.49,6.49,6.49,0,0,0-6-3.29,6.4,6.4,0,0,0-6,3.31,16.83,16.83,0,0,0-1.9,8.47Z" class="cls-4"/><path data-cppathid="10028" d="M479.55,519.12q0-9.25,4-14.92a13,13,0,0,1,11.26-5.68,11,11,0,0,1,5.27,1.27,12.67,12.67,0,0,1,4.12,3.61V482h10.59v56.36h-9l-.9-4.8a13.16,13.16,0,0,1-4.37,4.13,11.47,11.47,0,0,1-5.78,1.43,13.25,13.25,0,0,1-11.19-5.27q-4-5.28-4-14Zm10.52.76A15.86,15.86,0,0,0,491.8,528a6,6,0,0,0,5.64,2.95,8.25,8.25,0,0,0,4-.92,7.38,7.38,0,0,0,2.78-2.69V510.63a8,8,0,0,0-2.76-2.87,7.33,7.33,0,0,0-3.92-1,6,6,0,0,0-5.66,3.43,19.42,19.42,0,0,0-1.78,9Z" class="cls-4"/><path data-cppathid="10029" d="M539.89,539.1q-8.75,0-13.66-5.36t-4.91-13.82v-1.45q0-8.78,4.77-14.38t13.12-5.57q7.88,0,12.08,4.83t4.21,13v5.45H532.2l-.11.22a10.55,10.55,0,0,0,2.44,6.5c1.45,1.67,3.62,2.5,6.48,2.5a21.81,21.81,0,0,0,6-.72,24.92,24.92,0,0,0,5.11-2.21l2.86,6.5a19.66,19.66,0,0,1-6.36,3.22A28.17,28.17,0,0,1,539.89,539.1Zm-.68-32.45a5.86,5.86,0,0,0-4.9,2.19,11,11,0,0,0-2.08,5.8l.08.18h12.86V514a9.17,9.17,0,0,0-1.41-5.41A5.22,5.22,0,0,0,539.21,506.65Z" class="cls-4"/></g><g class="cls-2"><path data-cppathid="10030" d="M594,489.67v9.58h6.62v7.4H594v19.91a4.55,4.55,0,0,0,1,3.26,3.37,3.37,0,0,0,2.51,1,10.13,10.13,0,0,0,1.45-.09,11.14,11.14,0,0,0,1.41-.31l.86,7.63a21.3,21.3,0,0,1-3.08.81,18.49,18.49,0,0,1-3.27.27q-5.46,0-8.41-3t-2.94-9.5v-20h-5.71v-7.4h5.71v-9.58Z" class="cls-5"/><path data-cppathid="10031" d="M627.66,508.32l-3.87-.11a7,7,0,0,0-3.86,1,6.14,6.14,0,0,0-2.31,2.75v26.41H607.1V499.25h9.79l.47,5.78a12.31,12.31,0,0,1,3.56-4.79,8,8,0,0,1,5-1.72,8.37,8.37,0,0,1,1.47.13c.44.09.89.19,1.35.31Z" class="cls-5"/><path data-cppathid="10032" d="M656.21,538.34a21.79,21.79,0,0,1-1-2.82,18.88,18.88,0,0,1-.59-3,14.55,14.55,0,0,1-4.3,4.73A10.83,10.83,0,0,1,644,539.1q-6.15,0-9.47-3.16a11.32,11.32,0,0,1-3.32-8.62,10.29,10.29,0,0,1,4.42-8.9q4.42-3.17,12.92-3.17h5.92v-3.1a6.1,6.1,0,0,0-1.48-4.38,5.83,5.83,0,0,0-4.41-1.55,5.72,5.72,0,0,0-3.95,1.25,4.34,4.34,0,0,0-1.39,3.41H633l-.07-.21q-.26-4.95,4.32-8.55t11.94-3.6q7,0,11.4,3.55T665,512.22v16.15a30.35,30.35,0,0,0,.41,5.17,26.38,26.38,0,0,0,1.32,4.8Zm-9.65-7a8.93,8.93,0,0,0,4.91-1.38,7.3,7.3,0,0,0,3-3.18v-5.52h-5.92a7,7,0,0,0-5.08,1.66,5.47,5.47,0,0,0-1.71,4.08,4,4,0,0,0,1.28,3.16A5,5,0,0,0,646.56,531.3Z" class="cls-5"/><path data-cppathid="10033" d="M685.54,489.67v9.58h6.62v7.4h-6.62v19.91a4.55,4.55,0,0,0,1,3.26,3.37,3.37,0,0,0,2.51,1,10.13,10.13,0,0,0,1.45-.09,11.14,11.14,0,0,0,1.41-.31l.87,7.63a21.42,21.42,0,0,1-3.09.81,18.49,18.49,0,0,1-3.27.27q-5.46,0-8.41-3T675,526.6v-20h-5.71v-7.4H675v-9.58Z" class="cls-5"/><path data-cppathid="10034" d="M721.71,538.34a23.38,23.38,0,0,1-1-2.82,18.89,18.89,0,0,1-.6-3,14.33,14.33,0,0,1-4.3,4.73,10.79,10.79,0,0,1-6.36,1.88q-6.13,0-9.46-3.16a11.32,11.32,0,0,1-3.33-8.62,10.29,10.29,0,0,1,4.43-8.9q4.42-3.17,12.92-3.17h5.92v-3.1a6.1,6.1,0,0,0-1.48-4.38,5.85,5.85,0,0,0-4.41-1.55,5.71,5.71,0,0,0-3.95,1.25,4.34,4.34,0,0,0-1.39,3.41H698.55l-.07-.21q-.26-4.95,4.32-8.55t11.94-3.6q7.05,0,11.4,3.55t4.35,10.15v16.15a30.32,30.32,0,0,0,.42,5.17,26.38,26.38,0,0,0,1.32,4.8Zm-9.64-7a8.93,8.93,0,0,0,4.91-1.38,7.3,7.3,0,0,0,3-3.18v-5.52H714a7,7,0,0,0-5.08,1.66,5.48,5.48,0,0,0-1.72,4.08,4,4,0,0,0,1.29,3.16A5,5,0,0,0,712.07,531.3Z" class="cls-5"/><path data-cppathid="10035" d="M748.2,499.25l.43,5.16a13.17,13.17,0,0,1,4.72-4.35,13.58,13.58,0,0,1,6.56-1.54,12,12,0,0,1,6.43,1.67,10.19,10.19,0,0,1,4,5,13.64,13.64,0,0,1,4.7-4.92,12.85,12.85,0,0,1,6.8-1.77,11.13,11.13,0,0,1,9.12,4.11q3.35,4.1,3.34,12.52v23.19H783.79V515.11q0-4.69-1.45-6.54a5.11,5.11,0,0,0-4.3-1.84,7.39,7.39,0,0,0-3.88,1,7.18,7.18,0,0,0-2.62,2.76c0,.46,0,.85,0,1.18s0,.66,0,1v25.69H761.1V515.11q0-4.59-1.45-6.49a5.11,5.11,0,0,0-4.33-1.89,8.21,8.21,0,0,0-3.74.81,7.25,7.25,0,0,0-2.66,2.29v28.51H738.41V499.25Z" class="cls-5"/><path data-cppathid="10036" d="M813.53,489.89H803V482h10.55Zm0,48.45H803V499.25h10.55Z" class="cls-5"/><path data-cppathid="10037" d="M839.15,539.1q-8.74,0-13.66-5.36t-4.92-13.82v-1.45q0-8.78,4.77-14.38t13.12-5.57q7.88,0,12.08,4.83t4.21,13v5.45h-23.3l-.11.22a10.55,10.55,0,0,0,2.44,6.5q2.19,2.5,6.49,2.5a21.73,21.73,0,0,0,6-.72,24.69,24.69,0,0,0,5.11-2.21l2.86,6.5a19.66,19.66,0,0,1-6.36,3.22A28.1,28.1,0,0,1,839.15,539.1Zm-.69-32.45a5.87,5.87,0,0,0-4.9,2.19,11,11,0,0,0-2.07,5.8l.07.18h12.86V514a9.17,9.17,0,0,0-1.41-5.41A5.22,5.22,0,0,0,838.46,506.65Z" class="cls-5"/><path data-cppathid="10038" d="M870.54,499.25l.47,5.6a14.34,14.34,0,0,1,4.81-4.66,12.47,12.47,0,0,1,6.4-1.67q5.92,0,9.25,3.82t3.32,12.05v24H884.2V514.42q0-4.18-1.46-5.94a5.39,5.39,0,0,0-4.39-1.75,9.21,9.21,0,0,0-4.14.88,8.13,8.13,0,0,0-2.94,2.44v28.29H860.72V499.25Z" class="cls-5"/><path data-cppathid="10039" d="M915.31,489.67v9.58h6.62v7.4h-6.62v19.91a4.55,4.55,0,0,0,1,3.26,3.37,3.37,0,0,0,2.51,1,10.13,10.13,0,0,0,1.45-.09,11.14,11.14,0,0,0,1.41-.31l.86,7.63a21.42,21.42,0,0,1-3.09.81,18.49,18.49,0,0,1-3.27.27q-5.45,0-8.4-3t-2.94-9.5v-20h-5.71v-7.4h5.71v-9.58Z" class="cls-5"/><path data-cppathid="10040" d="M926.8,518.43q0-8.74,4.88-14.32t13.52-5.59q8.67,0,13.58,5.57t4.92,14.34v.76q0,8.82-4.9,14.37t-13.53,5.54q-8.67,0-13.57-5.54t-4.9-14.37Zm10.52.76a16.9,16.9,0,0,0,1.88,8.58,7.22,7.22,0,0,0,12,0,17,17,0,0,0,1.89-8.57v-.76a16.68,16.68,0,0,0-1.91-8.49,7.12,7.12,0,0,0-12,0,16.94,16.94,0,0,0-1.89,8.47Z" class="cls-5"/></g><g class="cls-2"><path data-cppathid="10041" d="M195.24,604.34h-1.5V560.92h1.5Z" class="cls-3"/><path data-cppathid="10042" d="M215.67,604.93a11.56,11.56,0,0,1-9-4.12A15.06,15.06,0,0,1,203,590.43v-1.78a15.91,15.91,0,0,1,3.63-10.76,11.56,11.56,0,0,1,9.14-4.22,10.24,10.24,0,0,1,8,3.3c2,2.2,3,5.2,3,9v2.31H204.54v2.15a14,14,0,0,0,3.12,9.25,9.93,9.93,0,0,0,8,3.74,13.73,13.73,0,0,0,5.19-1,11.18,11.18,0,0,0,4-2.67l.81,1.17a12.12,12.12,0,0,1-4.09,2.88A14.47,14.47,0,0,1,215.67,604.93Zm.14-29.76a10,10,0,0,0-7.67,3.25,13.23,13.23,0,0,0-3.38,8.19l.08.17h20.43v-.92a11.53,11.53,0,0,0-2.53-7.67A8.58,8.58,0,0,0,215.81,575.17Z" class="cls-3"/><path data-cppathid="10043" d="M246.29,589.26q0-7.15,3-11.37a9.7,9.7,0,0,1,8.35-4.22,11.49,11.49,0,0,1,6.08,1.57,11.63,11.63,0,0,1,4.11,4.3V560.92h1.5v22.66a0,0,0,0,0,0,0v12.27a.23.23,0,0,0,0,.09v8.37h-1.45l-.05-4.65a10.71,10.71,0,0,1-4.12,3.83,12.71,12.71,0,0,1-6.12,1.41,9.73,9.73,0,0,1-8.31-4.07q-3-4.05-3-11Zm1.56.58q0,6.24,2.46,9.91a8.16,8.16,0,0,0,7.25,3.67,11.27,11.27,0,0,0,6.51-1.76,10.06,10.06,0,0,0,3.76-4.72V582.69a12.69,12.69,0,0,0-3.52-5.36,9.69,9.69,0,0,0-6.7-2.16,8.1,8.1,0,0,0-7.27,3.91q-2.49,3.92-2.49,10.18Z" class="cls-3"/><path data-cppathid="10044" d="M297.78,598.78a11.87,11.87,0,0,1-4.65,4.44,15.27,15.27,0,0,1-7.49,1.71,9.16,9.16,0,0,1-6.6-2.3,8.19,8.19,0,0,1-2.39-6.19,7.59,7.59,0,0,1,3.58-6.35,15,15,0,0,1,8.95-2.56h8.6v-4.4a7.37,7.37,0,0,0-2.41-5.85,10,10,0,0,0-6.78-2.11,10.26,10.26,0,0,0-6.58,2,6.22,6.22,0,0,0-2.49,5.09l-1.25,0-.06-.14a7,7,0,0,1,2.73-5.94,11.46,11.46,0,0,1,7.65-2.44,11.72,11.72,0,0,1,7.77,2.45,8.73,8.73,0,0,1,2.92,7.07v15.09a25.88,25.88,0,0,0,.18,3.08,19,19,0,0,0,.6,3h-1.67c-.24-1.31-.41-2.3-.49-3a17.74,17.74,0,0,1-.12-2.13Zm-12.14,4.67a13.92,13.92,0,0,0,7.59-2,11.55,11.55,0,0,0,4.55-5.65v-6.77h-8.52a13.81,13.81,0,0,0-7.89,2.16c-2.14,1.44-3.22,3.21-3.22,5.33a6.56,6.56,0,0,0,2.05,5A7.59,7.59,0,0,0,285.64,603.45Z" class="cls-3"/><path data-cppathid="10045" d="M322.24,575.31l-1.95-.16a8.68,8.68,0,0,0-6.55,2.6,12.74,12.74,0,0,0-3.27,6.86v19.73H309V574.23h1.23l.28,5.23v1a10.75,10.75,0,0,1,3.73-5,10.08,10.08,0,0,1,6.09-1.8,6.36,6.36,0,0,1,1.19.1,7.26,7.26,0,0,1,.93.21Z" class="cls-3"/><path data-cppathid="10046" d="M346.93,598.78a11.87,11.87,0,0,1-4.65,4.44,15.27,15.27,0,0,1-7.49,1.71,9.12,9.12,0,0,1-6.59-2.3,8.16,8.16,0,0,1-2.4-6.19,7.59,7.59,0,0,1,3.58-6.35,15,15,0,0,1,8.95-2.56h8.6v-4.4a7.37,7.37,0,0,0-2.41-5.85,10,10,0,0,0-6.78-2.11,10.28,10.28,0,0,0-6.58,2,6.22,6.22,0,0,0-2.49,5.09l-1.25,0-.06-.14a7,7,0,0,1,2.73-5.94,11.46,11.46,0,0,1,7.65-2.44,11.72,11.72,0,0,1,7.77,2.45,8.7,8.7,0,0,1,2.92,7.07v15.09a25.88,25.88,0,0,0,.18,3.08,19,19,0,0,0,.6,3h-1.67c-.24-1.31-.4-2.3-.49-3a17.74,17.74,0,0,1-.12-2.13Zm-12.14,4.67a13.92,13.92,0,0,0,7.59-2,11.49,11.49,0,0,0,4.55-5.65v-6.77h-8.52a13.81,13.81,0,0,0-7.89,2.16c-2.14,1.44-3.21,3.21-3.21,5.33a6.55,6.55,0,0,0,2,5A7.59,7.59,0,0,0,334.79,603.45Zm8.13-42h2.17l.06.14-6.43,7.26h-1.87l-.05-.14Z" class="cls-3"/><path data-cppathid="10047" d="M390.65,598.78a11.87,11.87,0,0,1-4.65,4.44,15.23,15.23,0,0,1-7.48,1.71,9.14,9.14,0,0,1-6.6-2.3,8.15,8.15,0,0,1-2.39-6.19,7.61,7.61,0,0,1,3.57-6.35,15.05,15.05,0,0,1,8.95-2.56h8.6v-4.4a7.34,7.34,0,0,0-2.41-5.85,10,10,0,0,0-6.77-2.11,10.29,10.29,0,0,0-6.59,2,6.22,6.22,0,0,0-2.49,5.09l-1.25,0-.05-.14a7,7,0,0,1,2.72-5.94,11.47,11.47,0,0,1,7.66-2.44,11.69,11.69,0,0,1,7.76,2.45,8.7,8.7,0,0,1,2.92,7.07v15.09a23.92,23.92,0,0,0,.19,3.08,20.14,20.14,0,0,0,.59,3h-1.67c-.24-1.31-.4-2.3-.48-3a15.82,15.82,0,0,1-.13-2.13Zm-12.13,4.67a13.9,13.9,0,0,0,7.58-2,11.44,11.44,0,0,0,4.55-5.65v-6.77h-8.52a13.86,13.86,0,0,0-7.89,2.16c-2.14,1.44-3.21,3.21-3.21,5.33a6.52,6.52,0,0,0,2.05,5A7.57,7.57,0,0,0,378.52,603.45Z" class="cls-3"/><path data-cppathid="10048" d="M417.34,604.34h-1.5V560.92h1.5Z" class="cls-3"/><path data-cppathid="10049" d="M424.86,588.7a15.92,15.92,0,0,1,3.66-10.83,12.88,12.88,0,0,1,19,0,15.92,15.92,0,0,1,3.66,10.83v1.17a15.92,15.92,0,0,1-3.66,10.85,12,12,0,0,1-9.47,4.21,12.07,12.07,0,0,1-9.55-4.21,15.88,15.88,0,0,1-3.67-10.85Zm1.5,1.17a14.88,14.88,0,0,0,3.17,9.62,10.43,10.43,0,0,0,8.55,3.93,10.29,10.29,0,0,0,8.46-3.95,14.86,14.86,0,0,0,3.17-9.6V588.7a14.79,14.79,0,0,0-3.2-9.53,11,11,0,0,0-17,0,14.88,14.88,0,0,0-3.17,9.53Z" class="cls-3"/><path data-cppathid="10050" d="M476.88,597a6,6,0,0,0-2.05-4.36q-2-2-7.14-3.07-5.37-1.14-7.78-2.94a6.24,6.24,0,0,1-2.41-5.33,6.67,6.67,0,0,1,2.73-5.41,11.41,11.41,0,0,1,7.35-2.19q5,0,7.85,2.34a7.13,7.13,0,0,1,2.73,6.09l-.06.17h-1.28a6.32,6.32,0,0,0-2.49-5,10.24,10.24,0,0,0-6.75-2.08c-2.82,0-5,.61-6.4,1.83a5.37,5.37,0,0,0-2.17,4.21,5.27,5.27,0,0,0,1.83,4c1.23,1.11,3.66,2.09,7.3,2.92a19.89,19.89,0,0,1,7.64,3.19,6.74,6.74,0,0,1,2.6,5.64,6.88,6.88,0,0,1-2.9,5.73,12.41,12.41,0,0,1-7.68,2.2c-3.51,0-6.26-.79-8.25-2.35a6.53,6.53,0,0,1-2.8-5.72l.06-.17H458a5.93,5.93,0,0,0,3.06,5.15,13.53,13.53,0,0,0,6.71,1.58,10.38,10.38,0,0,0,6.63-1.94A5.7,5.7,0,0,0,476.88,597Z" class="cls-3"/><path data-cppathid="10051" d="M499,589.26q0-7.15,3-11.37a9.67,9.67,0,0,1,8.34-4.22,11.55,11.55,0,0,1,6.09,1.57,11.68,11.68,0,0,1,4.1,4.3V560.92h1.5v22.66a0,0,0,0,0,0,0v12.27a.23.23,0,0,0,0,.09v8.37h-1.44l-.06-4.65a10.64,10.64,0,0,1-4.12,3.83,12.69,12.69,0,0,1-6.12,1.41,9.74,9.74,0,0,1-8.31-4.07q-3-4.05-3-11Zm1.56.58q0,6.24,2.46,9.91a8.16,8.16,0,0,0,7.25,3.67,11.25,11.25,0,0,0,6.51-1.76,10.06,10.06,0,0,0,3.76-4.72V582.69a12.6,12.6,0,0,0-3.52-5.36,9.66,9.66,0,0,0-6.69-2.16,8.12,8.12,0,0,0-7.28,3.91q-2.49,3.92-2.49,10.18Z" class="cls-3"/><path data-cppathid="10052" d="M550.52,598.78a11.87,11.87,0,0,1-4.65,4.44,15.24,15.24,0,0,1-7.49,1.71,9.12,9.12,0,0,1-6.59-2.3,8.16,8.16,0,0,1-2.4-6.19,7.62,7.62,0,0,1,3.58-6.35,15,15,0,0,1,8.95-2.56h8.6v-4.4a7.34,7.34,0,0,0-2.41-5.85,10,10,0,0,0-6.78-2.11,10.28,10.28,0,0,0-6.58,2,6.22,6.22,0,0,0-2.49,5.09l-1.25,0-.06-.14a7,7,0,0,1,2.73-5.94,11.46,11.46,0,0,1,7.65-2.44,11.72,11.72,0,0,1,7.77,2.45,8.7,8.7,0,0,1,2.92,7.07v15.09a25.88,25.88,0,0,0,.18,3.08,19,19,0,0,0,.6,3h-1.67c-.24-1.31-.4-2.3-.49-3a17.74,17.74,0,0,1-.12-2.13Zm-12.14,4.67a13.92,13.92,0,0,0,7.59-2,11.49,11.49,0,0,0,4.55-5.65v-6.77H542a13.81,13.81,0,0,0-7.89,2.16c-2.14,1.44-3.21,3.21-3.21,5.33a6.55,6.55,0,0,0,2,5A7.6,7.6,0,0,0,538.38,603.45Z" class="cls-3"/><path data-cppathid="10053" d="M564.82,566.1v8.13h7.41v1.53h-7.41v20.82c0,2.47.42,4.22,1.26,5.27a4,4,0,0,0,3.31,1.57c.5,0,.94,0,1.33,0s.93-.1,1.62-.2l.28,1.37a7,7,0,0,1-1.45.3,14.43,14.43,0,0,1-1.7.09,5.51,5.51,0,0,1-4.6-2q-1.57-2-1.58-6.37V575.76h-5.56v-1.53h5.56V566.1Z" class="cls-3"/><path data-cppathid="10054" d="M577,588.7a15.92,15.92,0,0,1,3.66-10.83,12.89,12.89,0,0,1,19,0,15.92,15.92,0,0,1,3.66,10.83v1.17a15.92,15.92,0,0,1-3.66,10.85,12.86,12.86,0,0,1-19,0A15.88,15.88,0,0,1,577,589.87Zm1.5,1.17a14.88,14.88,0,0,0,3.17,9.62,10.43,10.43,0,0,0,8.55,3.93,10.28,10.28,0,0,0,8.46-3.95,14.8,14.8,0,0,0,3.17-9.6V588.7a14.73,14.73,0,0,0-3.2-9.53,11,11,0,0,0-17,0,14.88,14.88,0,0,0-3.17,9.53Z" class="cls-3"/><path data-cppathid="10055" d="M629,597a6,6,0,0,0-2.05-4.36q-2-2-7.14-3.07-5.37-1.14-7.78-2.94a6.23,6.23,0,0,1-2.4-5.33,6.66,6.66,0,0,1,2.72-5.41,11.41,11.41,0,0,1,7.35-2.19q5,0,7.85,2.34a7.13,7.13,0,0,1,2.73,6.09l-.06.17h-1.28a6.32,6.32,0,0,0-2.49-5,10.24,10.24,0,0,0-6.75-2.08q-4.23,0-6.4,1.83a5.37,5.37,0,0,0-2.17,4.21,5.24,5.24,0,0,0,1.84,4c1.22,1.11,3.65,2.09,7.29,2.92a19.82,19.82,0,0,1,7.64,3.19,6.74,6.74,0,0,1,2.6,5.64,6.87,6.87,0,0,1-2.89,5.73,12.45,12.45,0,0,1-7.69,2.2c-3.5,0-6.25-.79-8.25-2.35a6.55,6.55,0,0,1-2.8-5.72l.06-.17h1.22a5.92,5.92,0,0,0,3.07,5.15,13.49,13.49,0,0,0,6.7,1.58,10.34,10.34,0,0,0,6.63-1.94A5.7,5.7,0,0,0,629,597Z" class="cls-3"/><path data-cppathid="10056" d="M651.13,589.26q0-7.15,3-11.37a9.67,9.67,0,0,1,8.35-4.22,11.51,11.51,0,0,1,6.08,1.57,11.68,11.68,0,0,1,4.1,4.3V560.92h1.51v22.66s0,0,0,0v12.27a.51.51,0,0,0,0,.09v8.37h-1.45l-.06-4.65a10.64,10.64,0,0,1-4.12,3.83,12.69,12.69,0,0,1-6.12,1.41,9.75,9.75,0,0,1-8.31-4.07q-3-4.05-3-11Zm1.56.58q0,6.24,2.46,9.91a8.17,8.17,0,0,0,7.25,3.67,11.3,11.3,0,0,0,6.52-1.76,10.1,10.1,0,0,0,3.75-4.72V582.69a12.6,12.6,0,0,0-3.52-5.36,9.65,9.65,0,0,0-6.69-2.16,8.12,8.12,0,0,0-7.28,3.91q-2.49,3.92-2.49,10.18Z" class="cls-3"/><path data-cppathid="10057" d="M694.27,604.93a11.6,11.6,0,0,1-9-4.12,15.1,15.1,0,0,1-3.65-10.38v-1.78a15.91,15.91,0,0,1,3.63-10.76,11.56,11.56,0,0,1,9.14-4.22,10.24,10.24,0,0,1,8,3.3c2,2.2,3,5.2,3,9v2.31H683.14v2.15a14,14,0,0,0,3.12,9.25,9.91,9.91,0,0,0,8,3.74,13.73,13.73,0,0,0,5.19-1,11.18,11.18,0,0,0,4-2.67l.81,1.17a12.12,12.12,0,0,1-4.09,2.88A14.47,14.47,0,0,1,694.27,604.93Zm.14-29.76a10,10,0,0,0-7.67,3.25,13.23,13.23,0,0,0-3.38,8.19l.08.17h20.43v-.92a11.53,11.53,0,0,0-2.53-7.67A8.58,8.58,0,0,0,694.41,575.17Z" class="cls-3"/><path data-cppathid="10058" d="M745.18,598.78a11.87,11.87,0,0,1-4.65,4.44,15.27,15.27,0,0,1-7.49,1.71,9.12,9.12,0,0,1-6.59-2.3,8.16,8.16,0,0,1-2.4-6.19,7.59,7.59,0,0,1,3.58-6.35,15,15,0,0,1,9-2.56h8.6v-4.4a7.37,7.37,0,0,0-2.41-5.85,10,10,0,0,0-6.78-2.11,10.26,10.26,0,0,0-6.58,2,6.22,6.22,0,0,0-2.49,5.09l-1.25,0-.06-.14a7,7,0,0,1,2.73-5.94,11.46,11.46,0,0,1,7.65-2.44,11.72,11.72,0,0,1,7.77,2.45,8.7,8.7,0,0,1,2.92,7.07v15.09a25.88,25.88,0,0,0,.18,3.08,19,19,0,0,0,.6,3h-1.67c-.24-1.31-.41-2.3-.49-3a17.74,17.74,0,0,1-.12-2.13ZM733,603.45a13.92,13.92,0,0,0,7.59-2,11.55,11.55,0,0,0,4.55-5.65v-6.77h-8.52a13.81,13.81,0,0,0-7.89,2.16c-2.14,1.44-3.22,3.21-3.22,5.33a6.56,6.56,0,0,0,2.05,5A7.59,7.59,0,0,0,733,603.45Z" class="cls-3"/><path data-cppathid="10059" d="M766.58,603.42a11.27,11.27,0,0,0,6.73-2.08,7.19,7.19,0,0,0,2.93-6.26h1.28l.05.16a8.21,8.21,0,0,1-3.24,7.06,12.23,12.23,0,0,1-7.75,2.63,10.88,10.88,0,0,1-9-4.15q-3.27-4.14-3.27-10.91V588.7q0-6.74,3.25-10.88a10.79,10.79,0,0,1,9-4.15,11.88,11.88,0,0,1,7.92,2.74,9.27,9.27,0,0,1,3.13,7.73l-.05.16h-1.28a8.28,8.28,0,0,0-2.84-6.77,10.45,10.45,0,0,0-6.88-2.36,9.26,9.26,0,0,0-8,3.79,16.24,16.24,0,0,0-2.73,9.74v1.17a16.27,16.27,0,0,0,2.73,9.78C760.33,602.17,763,603.42,766.58,603.42Z" class="cls-3"/><path data-cppathid="10060" d="M805.46,599.05a10.37,10.37,0,0,1-4,4.33,12.23,12.23,0,0,1-6.34,1.55,8.79,8.79,0,0,1-7.28-3.3q-2.62-3.3-2.63-10.23V574.23h1.5v17.23q0,6.12,2.26,9a7.27,7.27,0,0,0,6.09,2.92c3.06,0,5.44-.74,7.11-2.24a10.43,10.43,0,0,0,3.27-5.91v-21h1.54V592h0q0,.36,0,.69c0,.23,0,.49,0,.78v10.91h-1.26Z" class="cls-3"/><path data-cppathid="10061" d="M827,604.93a11.59,11.59,0,0,1-9-4.12,15.06,15.06,0,0,1-3.66-10.38v-1.78A15.86,15.86,0,0,1,818,577.89a11.56,11.56,0,0,1,9.14-4.22,10.24,10.24,0,0,1,8,3.3q3,3.3,3,9v2.31H815.9v2.15a14,14,0,0,0,3.11,9.25,10,10,0,0,0,8,3.74,13.73,13.73,0,0,0,5.19-1,11.18,11.18,0,0,0,4-2.67l.81,1.17A12.12,12.12,0,0,1,833,603.8,14.47,14.47,0,0,1,827,604.93Zm.14-29.76a10,10,0,0,0-7.67,3.25,13.23,13.23,0,0,0-3.38,8.19l.08.17h20.43v-.92a11.53,11.53,0,0,0-2.53-7.67A8.58,8.58,0,0,0,827.17,575.17Z" class="cls-3"/><path data-cppathid="10062" d="M858.67,575.31l-1.94-.16a8.71,8.71,0,0,0-6.56,2.6,12.74,12.74,0,0,0-3.27,6.86v19.73h-1.5V574.23h1.22l.28,5.23v1a10.88,10.88,0,0,1,3.73-5,10.09,10.09,0,0,1,6.1-1.8,6.25,6.25,0,0,1,1.18.1,7.26,7.26,0,0,1,.93.21Z" class="cls-3"/><path data-cppathid="10063" d="M862.54,589.26q0-7.15,3-11.37a9.69,9.69,0,0,1,8.35-4.22,11.51,11.51,0,0,1,6.08,1.57,11.63,11.63,0,0,1,4.11,4.3V560.92h1.5v22.66a0,0,0,0,0,0,0v12.27a.23.23,0,0,0,0,.09v8.37h-1.45l0-4.65a10.79,10.79,0,0,1-4.12,3.83,12.75,12.75,0,0,1-6.13,1.41,9.72,9.72,0,0,1-8.3-4.07q-3-4.05-3-11Zm1.56.58q0,6.24,2.47,9.91a8.15,8.15,0,0,0,7.25,3.67,11.29,11.29,0,0,0,6.51-1.76,10.12,10.12,0,0,0,3.76-4.72V582.69a12.79,12.79,0,0,0-3.52-5.36,9.69,9.69,0,0,0-6.7-2.16,8.12,8.12,0,0,0-7.28,3.91q-2.49,3.92-2.49,10.18Z" class="cls-3"/><path data-cppathid="10064" d="M892.77,588.7a15.92,15.92,0,0,1,3.66-10.83,12.89,12.89,0,0,1,19,0,15.92,15.92,0,0,1,3.66,10.83v1.17a15.92,15.92,0,0,1-3.66,10.85,12.86,12.86,0,0,1-19,0,15.88,15.88,0,0,1-3.67-10.85Zm1.5,1.17a14.83,14.83,0,0,0,3.18,9.62,11.14,11.14,0,0,0,17,0,14.8,14.8,0,0,0,3.17-9.6V588.7a14.73,14.73,0,0,0-3.2-9.53,11,11,0,0,0-17,0,14.83,14.83,0,0,0-3.18,9.53Z" class="cls-3"/><path data-cppathid="10065" d="M958.87,598.78a11.87,11.87,0,0,1-4.65,4.44,15.23,15.23,0,0,1-7.48,1.71,9.14,9.14,0,0,1-6.6-2.3,8.15,8.15,0,0,1-2.39-6.19,7.61,7.61,0,0,1,3.57-6.35,15.05,15.05,0,0,1,8.95-2.56h8.6v-4.4a7.34,7.34,0,0,0-2.41-5.85,10,10,0,0,0-6.77-2.11,10.29,10.29,0,0,0-6.59,2,6.22,6.22,0,0,0-2.49,5.09l-1.25,0-.06-.14a7,7,0,0,1,2.73-5.94,11.47,11.47,0,0,1,7.66-2.44,11.71,11.71,0,0,1,7.76,2.45,8.7,8.7,0,0,1,2.92,7.07v15.09a25.88,25.88,0,0,0,.18,3.08,19,19,0,0,0,.6,3h-1.67c-.24-1.31-.4-2.3-.48-3a15.82,15.82,0,0,1-.13-2.13Zm-12.13,4.67a13.9,13.9,0,0,0,7.58-2,11.44,11.44,0,0,0,4.55-5.65v-6.77h-8.52a13.86,13.86,0,0,0-7.89,2.16c-2.14,1.44-3.21,3.21-3.21,5.33a6.55,6.55,0,0,0,2,5A7.61,7.61,0,0,0,946.74,603.45Z" class="cls-3"/><path data-cppathid="10066" d="M205.06,644.92l.57,6.74a17.08,17.08,0,0,1,5.78-5.61,15,15,0,0,1,7.69-2q7.13,0,11.12,4.59t4,14.49v28.81H221.49V663.17q0-5-1.76-7.14a6.49,6.49,0,0,0-5.28-2.11,11.09,11.09,0,0,0-5,1.06,9.74,9.74,0,0,0-3.54,2.94v34H193.24v-47Z" class="cls-3"/><path data-cppathid="10067" d="M257,633.67H244.35v-9.52H257Zm0,58.27H244.35v-47H257Z" class="cls-3"/><path data-cppathid="10068" d="M284.46,674.43l.82,4.34h.26l.87-4.34,7.74-29.51H307.4l-16,47H279.29l-16-47h13.26Z" class="cls-3"/><path data-cppathid="10069" d="M332.74,692.85q-10.51,0-16.43-6.45t-5.91-16.62V668q0-10.56,5.74-17.29t15.77-6.7q9.48,0,14.54,5.8t5.06,15.63V672h-28l-.13.26a12.69,12.69,0,0,0,2.93,7.82q2.64,3,7.8,3a26.08,26.08,0,0,0,7.24-.87,29.66,29.66,0,0,0,6.15-2.65l3.43,7.82a23.34,23.34,0,0,1-7.65,3.87A34,34,0,0,1,332.74,692.85Zm-.83-39a7.06,7.06,0,0,0-5.89,2.63,13.24,13.24,0,0,0-2.5,7l.09.22h15.47v-.95a11,11,0,0,0-1.69-6.5Q335.7,653.83,331.91,653.83Z" class="cls-3"/><path data-cppathid="10070" d="M372.24,691.94H359.55V624.15h12.69Z" class="cls-3"/><path data-cppathid="10071" d="M402.88,668.82q0-11.12,4.8-17.94a15.59,15.59,0,0,1,13.54-6.83,13.2,13.2,0,0,1,6.34,1.52,15.44,15.44,0,0,1,5,4.35V624.15h12.73v67.79H434.43l-1.09-5.78a15.83,15.83,0,0,1-5.26,5,13.93,13.93,0,0,1-6.95,1.71q-8.65,0-13.45-6.34t-4.8-16.77Zm12.64.92q0,6.16,2.09,9.71t6.78,3.54a9.87,9.87,0,0,0,4.78-1.11,8.88,8.88,0,0,0,3.35-3.24v-20a9.68,9.68,0,0,0-3.33-3.45,8.81,8.81,0,0,0-4.71-1.24,7.17,7.17,0,0,0-6.81,4.13,23.35,23.35,0,0,0-2.15,10.77Z" class="cls-3"/><path data-cppathid="10072" d="M475.45,692.85q-10.51,0-16.43-6.45t-5.91-16.62V668q0-10.56,5.74-17.29t15.77-6.7q9.48,0,14.54,5.8t5.06,15.63V672h-28l-.13.26a12.69,12.69,0,0,0,2.94,7.82q2.63,3,7.8,3a26,26,0,0,0,7.23-.87,29.21,29.21,0,0,0,6.15-2.65l3.44,7.82a23.55,23.55,0,0,1-7.65,3.87A34,34,0,0,1,475.45,692.85Zm-.83-39a7,7,0,0,0-5.88,2.63,13.16,13.16,0,0,0-2.5,7l.08.22H481.8v-.95a11,11,0,0,0-1.7-6.5C479,654.62,477.15,653.83,474.62,653.83Z" class="cls-3"/><path data-cppathid="10073" d="M543.42,683.12a7.07,7.07,0,0,0,5.26-2,7.17,7.17,0,0,0,2-5.28h11.56l.09.26a14.72,14.72,0,0,1-5.3,11.93,19.83,19.83,0,0,1-13.56,4.8q-10.44,0-16.13-6.67t-5.69-17v-1.31q0-10.34,5.67-17.05t16.06-6.72q8.61,0,13.86,5t5.09,13l-.09.26H550.63a9.38,9.38,0,0,0-1.93-6.06,6.49,6.49,0,0,0-5.37-2.41c-3.27,0-5.6,1.31-7,3.93a21.55,21.55,0,0,0-2.07,10.06v1.31a21.42,21.42,0,0,0,2.07,10.12C537.73,681.83,540.09,683.12,543.42,683.12Z" class="cls-3"/><path data-cppathid="10074" d="M594.39,655.83l-4.65-.13a8.49,8.49,0,0,0-4.65,1.17,7.58,7.58,0,0,0-2.78,3.3v31.77H569.67v-47h11.77l.57,7a14.76,14.76,0,0,1,4.28-5.76,9.51,9.51,0,0,1,6.06-2.07,8.79,8.79,0,0,1,1.76.16c.54.1,1.08.22,1.63.36Z" class="cls-3"/><path data-cppathid="10075" d="M614.34,633.67H601.65v-9.52h12.69Zm0,58.27H601.65v-47h12.69Z" class="cls-3"/><path data-cppathid="10076" d="M640,633.41v11.51h7.95v8.91H640v23.95a5.47,5.47,0,0,0,1.15,3.91,4.06,4.06,0,0,0,3,1.17,12.42,12.42,0,0,0,1.74-.11,12.82,12.82,0,0,0,1.69-.37l1,9.17a25.66,25.66,0,0,1-3.72,1,21.87,21.87,0,0,1-3.93.32q-6.57,0-10.1-3.6t-3.55-11.43v-24h-6.86v-8.91h6.86V633.41Z" class="cls-3"/><path data-cppathid="10077" d="M669.1,633.67H656.41v-9.52H669.1Zm0,58.27H656.41v-47H669.1Z" class="cls-3"/><path data-cppathid="10078" d="M699.17,683.12a7.07,7.07,0,0,0,5.26-2,7.17,7.17,0,0,0,2-5.28h11.56l.09.26a14.72,14.72,0,0,1-5.3,11.93,19.83,19.83,0,0,1-13.56,4.8q-10.44,0-16.13-6.67t-5.69-17v-1.31q0-10.34,5.67-17.05t16.06-6.72q8.61,0,13.86,5T718,662l-.09.26H706.38a9.38,9.38,0,0,0-1.93-6.06,6.49,6.49,0,0,0-5.37-2.41c-3.27,0-5.6,1.31-7,3.93A21.55,21.55,0,0,0,690,667.82v1.31a21.42,21.42,0,0,0,2.07,10.12C693.48,681.83,695.84,683.12,699.17,683.12Z" class="cls-3"/><path data-cppathid="10079" d="M738.76,633.67H726.07v-9.52h12.69Zm0,58.27H726.07v-47h12.69Z" class="cls-3"/><path data-cppathid="10080" d="M747.23,668.82q0-11.12,4.8-17.94a15.6,15.6,0,0,1,13.54-6.83,13.24,13.24,0,0,1,6.35,1.52,15.41,15.41,0,0,1,5,4.35V624.15H789.6v67.79H778.78l-1.09-5.78a15.8,15.8,0,0,1-5.25,5,14,14,0,0,1-7,1.71q-8.64,0-13.45-6.34t-4.8-16.77Zm12.65.92q0,6.16,2.08,9.71t6.78,3.54a9.84,9.84,0,0,0,4.78-1.11,8.88,8.88,0,0,0,3.35-3.24v-20a9.68,9.68,0,0,0-3.33-3.45,8.78,8.78,0,0,0-4.71-1.24,7.15,7.15,0,0,0-6.8,4.13q-2.16,4.13-2.15,10.77Z" class="cls-3"/><path data-cppathid="10081" d="M827.15,691.94a26.54,26.54,0,0,1-1.2-3.39,23.1,23.1,0,0,1-.71-3.65,17.41,17.41,0,0,1-5.17,5.69,13,13,0,0,1-7.65,2.26q-7.39,0-11.39-3.8t-4-10.36A12.39,12.39,0,0,1,802.36,668q5.32-3.81,15.53-3.81H825v-3.73a7.34,7.34,0,0,0-1.78-5.26,7,7,0,0,0-5.3-1.87,6.88,6.88,0,0,0-4.76,1.5,5.23,5.23,0,0,0-1.68,4.11H799.29l-.08-.27q-.32-5.94,5.19-10.27t14.36-4.33q8.47,0,13.71,4.26t5.24,12.21V680a37,37,0,0,0,.5,6.21,31.23,31.23,0,0,0,1.58,5.78Zm-11.6-8.47a10.83,10.83,0,0,0,5.91-1.65A9,9,0,0,0,825,678v-6.65h-7.13c-2.69,0-4.73.67-6.1,2a6.57,6.57,0,0,0-2.07,4.91,4.93,4.93,0,0,0,1.54,3.81A6.13,6.13,0,0,0,815.55,683.47Z" class="cls-3"/><path data-cppathid="10082" d="M845.27,668.82q0-11.12,4.8-17.94a15.6,15.6,0,0,1,13.54-6.83,13.17,13.17,0,0,1,6.34,1.52,15.34,15.34,0,0,1,5,4.35V624.15h12.73v67.79H876.82l-1.09-5.78a15.8,15.8,0,0,1-5.25,5,14,14,0,0,1-7,1.71q-8.64,0-13.45-6.34t-4.8-16.77Zm12.65.92q0,6.16,2.08,9.71t6.78,3.54a9.84,9.84,0,0,0,4.78-1.11,8.88,8.88,0,0,0,3.35-3.24v-20a9.68,9.68,0,0,0-3.33-3.45,8.78,8.78,0,0,0-4.71-1.24,7.15,7.15,0,0,0-6.8,4.13q-2.16,4.13-2.15,10.77Z" class="cls-3"/><path data-cppathid="10083" d="M917.67,668q0-10.51,5.87-17.23t16.25-6.72q10.43,0,16.34,6.7T962,668v.91q0,10.61-5.89,17.27t-16.27,6.67q-10.44,0-16.32-6.67t-5.89-17.27Zm12.65.91q0,6.44,2.26,10.32t7.3,3.89a7.72,7.72,0,0,0,7.19-3.91q2.28-3.91,2.28-10.3V668a20.15,20.15,0,0,0-2.3-10.21,7.8,7.8,0,0,0-7.26-4,7.69,7.69,0,0,0-7.19,4A20.28,20.28,0,0,0,930.32,668Z" class="cls-3"/><path data-cppathid="10084" d="M203.18,772.34h-9.55V724.71h9.55Z" class="cls-6"/><path data-cppathid="10085" d="M237.27,759.81h.2l12.23-35.1h12.47v47.63h-9.56V739.82l-.19,0-11.78,32.55h-6.48l-11.77-32.61-.2,0v32.58h-9.55V724.71h12.53Z" class="cls-6"/><path data-cppathid="10086" d="M280.49,755.07v17.27h-9.56V724.71h18.23q8.2,0,12.92,4.19a15.22,15.22,0,0,1,0,22q-4.71,4.14-12.92,4.15Zm0-7.36h8.67a8,8,0,0,0,6-2.18,7.75,7.75,0,0,0,2.06-5.54,8.13,8.13,0,0,0-2-5.68q-2.06-2.23-6.07-2.24h-8.67Z" class="cls-6"/><path data-cppathid="10087" d="M332.63,762.07H317.19L314,772.34H304l16.06-47.63h9.78l16,47.63h-10Zm-13.08-7.49h10.76L325,737.8h-.19Z" class="cls-6"/><path data-cppathid="10088" d="M385.8,756.57l.06.2q.13,7.62-4.64,11.94T368,773q-8.56,0-13.84-5.51t-5.26-14.25v-9.45q0-8.72,5.13-14.25T367.54,724q8.7,0,13.61,4.26t4.78,12l-.07.2h-9.29c0-3.06-.74-5.33-2.21-6.83s-3.74-2.24-6.82-2.24a7.7,7.7,0,0,0-6.69,3.45,15.33,15.33,0,0,0-2.4,8.92v9.52a14.81,14.81,0,0,0,2.53,9,8.22,8.22,0,0,0,7,3.47c2.86,0,5-.74,6.4-2.24s2.11-3.79,2.11-6.89Z" class="cls-6"/><path data-cppathid="10089" d="M425,732.07H411.35v40.27h-9.56V732.07H388.38v-7.36H425Z" class="cls-6"/><path data-cppathid="10090" d="M467.81,752.81a20,20,0,0,1-5.53,14.51Q456.76,773,447.89,773t-14.33-5.73a20.08,20.08,0,0,1-5.5-14.49v-8.57a20.16,20.16,0,0,1,5.48-14.48Q439,724,447.82,724t14.43,5.74a20,20,0,0,1,5.56,14.48Zm-9.52-8.64a14.43,14.43,0,0,0-2.78-9.12,9.2,9.2,0,0,0-7.69-3.57,8.92,8.92,0,0,0-7.54,3.57,14.7,14.7,0,0,0-2.7,9.12v8.64A14.82,14.82,0,0,0,440.3,762a9,9,0,0,0,7.59,3.56,9.09,9.09,0,0,0,7.65-3.56,14.64,14.64,0,0,0,2.75-9.23Z" class="cls-6"/><path data-cppathid="10091" d="M519.27,751.41H501.61V765h21v7.33H492.05V724.71h30.49v7.36H501.61v12h17.66Z" class="cls-6"/><path data-cppathid="10092" d="M567.82,772.34h-9.55l-19.21-32.12-.19,0v32.09h-9.55V724.71h9.55l19.2,32.09.2,0V724.71h9.55Z" class="cls-6"/><path data-cppathid="10093" d="M620.49,751.41H602.83V765h21v7.33H593.27V724.71h30.49v7.36H602.83v12h17.66Z" class="cls-6"/><path data-cppathid="10094" d="M640.09,765h21.33v7.33H630.54V724.71h9.55Z" class="cls-6"/><path data-cppathid="10095" d="M723,772.34H713.4l-19.2-32.12-.2,0v32.09h-9.55V724.71H694l19.21,32.09.19,0V724.71H723Z" class="cls-6"/><path data-cppathid="10096" d="M758.94,751.41H741.28V765h21v7.33H731.72V724.71h30.49v7.36H741.28v12h17.66Z" class="cls-6"/><path data-cppathid="10097" d="M805.5,765.83a18.18,18.18,0,0,1-6.65,5.06A26.1,26.1,0,0,1,787.47,773q-8.64,0-14.13-5.43t-5.5-14.1v-10q0-8.62,5.33-14.08A18.37,18.37,0,0,1,786.88,724q8.73,0,13.38,4.14a13.58,13.58,0,0,1,4.48,11l-.06.2h-9a7.83,7.83,0,0,0-2.19-5.91c-1.46-1.4-3.59-2.11-6.38-2.11a8.58,8.58,0,0,0-7.07,3.39,13.6,13.6,0,0,0-2.68,8.72v10a13.58,13.58,0,0,0,2.75,8.8,9,9,0,0,0,7.36,3.4,16.85,16.85,0,0,0,5.38-.69,8.07,8.07,0,0,0,3.06-1.73v-9.22h-9.16v-6.61H805.5Z" class="cls-6"/><path data-cppathid="10098" d="M852.15,752.81a20,20,0,0,1-5.53,14.51q-5.54,5.71-14.4,5.71t-14.33-5.73a20.07,20.07,0,0,1-5.49-14.49v-8.57a20.12,20.12,0,0,1,5.48-14.48q5.48-5.73,14.28-5.74t14.42,5.74a20,20,0,0,1,5.57,14.48Zm-9.52-8.64a14.43,14.43,0,0,0-2.78-9.12,9.22,9.22,0,0,0-7.69-3.57,8.91,8.91,0,0,0-7.54,3.57,14.7,14.7,0,0,0-2.7,9.12v8.64a14.82,14.82,0,0,0,2.71,9.23,9,9,0,0,0,7.59,3.56,9.11,9.11,0,0,0,7.66-3.56,14.71,14.71,0,0,0,2.75-9.23Z" class="cls-6"/><path data-cppathid="10099" d="M895.43,756.57l.06.2q.13,7.62-4.64,11.94T877.66,773q-8.56,0-13.83-5.51t-5.27-14.25v-9.45q0-8.72,5.13-14.25T877.17,724q8.7,0,13.61,4.26t4.78,12l-.07.2H886.2c0-3.06-.73-5.33-2.21-6.83s-3.74-2.24-6.82-2.24a7.72,7.72,0,0,0-6.69,3.45,15.33,15.33,0,0,0-2.4,8.92v9.52a14.81,14.81,0,0,0,2.53,9,8.22,8.22,0,0,0,7,3.47c2.86,0,5-.74,6.4-2.24s2.11-3.79,2.11-6.89Z" class="cls-6"/><path data-cppathid="10100" d="M912.54,772.34H903V724.71h9.55Z" class="cls-6"/><path data-cppathid="10101" d="M960.53,752.81A20,20,0,0,1,955,767.32Q949.48,773,940.61,773t-14.33-5.73a20,20,0,0,1-5.5-14.49v-8.57a20.16,20.16,0,0,1,5.48-14.48q5.47-5.73,14.28-5.74T955,729.76a20,20,0,0,1,5.56,14.48ZM951,744.17a14.43,14.43,0,0,0-2.78-9.12,9.2,9.2,0,0,0-7.69-3.57,8.91,8.91,0,0,0-7.54,3.57,14.7,14.7,0,0,0-2.7,9.12v8.64A14.82,14.82,0,0,0,933,762a9,9,0,0,0,7.59,3.56,9.09,9.09,0,0,0,7.65-3.56,14.71,14.71,0,0,0,2.75-9.23Z" class="cls-6"/></g></g><line data-cppathid="10102" y2="194.38" x2="1133.8" y1="194.38" x1="21.1" class="cls-7"/><path data-cppathid="10103" d="M1103.43,22a30.43,30.43,0,0,1,30.39,30.39v975.23a30.43,30.43,0,0,1-30.39,30.39H51.39A30.43,30.43,0,0,1,21,1027.62V52.39A30.42,30.42,0,0,1,51.39,22h1052m0-2H51.39A32.39,32.39,0,0,0,19,52.39v975.23A32.39,32.39,0,0,0,51.39,1060h1052a32.39,32.39,0,0,0,32.39-32.39V52.39A32.39,32.39,0,0,0,1103.43,20Z" class="cls-5"/><path data-cppathid="10104" d="M36.19,230.86v90.2L147,210.26l-90-.19A20.8,20.8,0,0,0,36.19,230.86Z" class="cls-6"/><path data-cppathid="10105" d="M1118.39,1023.65v-90.2l-110.81,110.81,90,.19A20.81,20.81,0,0,0,1118.39,1023.65Z" class="cls-4"/><g class="cls-2"><path data-cppathid="10106" d="M409.86,119.91v22.48H397.43v-62h23.71q10.69,0,16.82,5.45t6.13,14.35q0,8.89-6.13,14.3t-16.82,5.41Zm0-9.58h11.28c3.47,0,6.09-.94,7.88-2.83a10.06,10.06,0,0,0,2.68-7.22A10.49,10.49,0,0,0,429,92.9Q426.39,90,421.14,90H409.86Z" class="cls-6"/><path data-cppathid="10107" d="M465.42,117.61v24.78H453v-62h21.46Q485,80.4,491,85.23t6,13.48a13.6,13.6,0,0,1-2.53,8.24,17.57,17.57,0,0,1-7.39,5.59q5.49,1.62,7.9,5.41a17.19,17.19,0,0,1,2.4,9.37v4.55a22.51,22.51,0,0,0,.71,5.43,7.4,7.4,0,0,0,2.4,4.19v.9H487.69a6.83,6.83,0,0,1-2.19-4.51,39.25,39.25,0,0,1-.5-6.09V127.4c0-3.09-.84-5.5-2.53-7.21s-4.08-2.58-7.17-2.58Zm0-9.58h8.81q5.24,0,7.8-2.21c1.7-1.48,2.55-3.66,2.55-6.56A9,9,0,0,0,482,92.49Q479.44,90,474.45,90h-9Z" class="cls-6"/><path data-cppathid="10108" d="M521.83,142.39H509.4v-62h12.43Z" class="cls-6"/><path data-cppathid="10109" d="M584.29,117q0,11.46-7.2,18.88t-18.73,7.43q-11.49,0-18.65-7.45T532.56,117V105.82q0-11.37,7.13-18.84t18.58-7.47q11.55,0,18.78,7.47t7.24,18.84ZM571.9,105.73q0-7.23-3.62-11.88a12,12,0,0,0-10-4.64,11.61,11.61,0,0,0-9.81,4.64Q545,98.5,545,105.73V117q0,7.36,3.53,12a11.72,11.72,0,0,0,9.88,4.64,11.86,11.86,0,0,0,10-4.64q3.58-4.65,3.58-12Z" class="cls-6"/><path data-cppathid="10110" d="M606.55,117.61v24.78H594.12v-62h21.46q10.6,0,16.58,4.83t6,13.48a13.6,13.6,0,0,1-2.53,8.24,17.57,17.57,0,0,1-7.39,5.59q5.49,1.62,7.9,5.41a17.19,17.19,0,0,1,2.41,9.37v4.55a22.48,22.48,0,0,0,.7,5.43,7.45,7.45,0,0,0,2.4,4.19v.9H628.82a6.83,6.83,0,0,1-2.19-4.51,39.21,39.21,0,0,1-.49-6.09V127.4a9.83,9.83,0,0,0-2.54-7.21c-1.68-1.72-4.08-2.58-7.17-2.58Zm0-9.58h8.82c3.49,0,6.08-.74,7.79-2.21s2.55-3.66,2.55-6.56a9.05,9.05,0,0,0-2.57-6.77Q620.56,90,615.58,90h-9Z" class="cls-6"/><path data-cppathid="10111" d="M663,142.39H650.53v-62H663Z" class="cls-6"/><path data-cppathid="10112" d="M687.49,132.85h28.43v9.54H672.84v-6.47L700.43,90H672.88V80.4H715.2v6.22Z" class="cls-6"/><path data-cppathid="10113" d="M757.65,129h-20.1l-4.17,13.37h-13l20.91-62H754l20.82,62h-13Zm-17-9.75h14l-6.85-21.84h-.26Z" class="cls-6"/><path data-cppathid="10114" d="M826.83,121.87l.08.25q.18,9.93-6,15.54t-17.16,5.62q-11.15,0-18-7.17t-6.85-18.54V105.26q0-11.33,6.68-18.54t17.54-7.21q11.32,0,17.71,5.53T827,100.62l-.09.26H814.82c0-4-1-6.93-2.87-8.88s-4.88-2.91-8.88-2.91a10,10,0,0,0-8.7,4.49q-3.14,4.48-3.13,11.6v12.39q0,7.16,3.3,11.66a10.72,10.72,0,0,0,9.17,4.52c3.72,0,6.49-1,8.32-2.92s2.75-4.93,2.75-9Z" class="cls-6"/><path data-cppathid="10115" d="M849.09,142.39H836.66v-62h12.43Z" class="cls-6"/><path data-cppathid="10116" d="M911.55,117q0,11.46-7.19,18.88t-18.74,7.43q-11.49,0-18.64-7.45T859.82,117V105.82q0-11.37,7.13-18.84t18.59-7.47q11.54,0,18.77,7.47t7.24,18.84Zm-12.39-11.24q0-7.23-3.62-11.88a12,12,0,0,0-10-4.64,11.64,11.64,0,0,0-9.82,4.64q-3.51,4.65-3.51,11.88V117q0,7.36,3.54,12a11.69,11.69,0,0,0,9.87,4.64,11.86,11.86,0,0,0,10-4.64q3.58-4.65,3.58-12Zm-11-43.68H902l.09.26L890.31,73.38h-10.6Z" class="cls-6"/><path data-cppathid="10117" d="M971.49,142.39H959.06l-25-41.81-.25,0v41.77H921.38v-62h12.44l25,41.77.25,0V80.4h12.43Z" class="cls-6"/></g><polygon data-cppathid="10118" points="169.15 112.45 169.15 89.33 189.17 100.89 209.18 112.45 189.17 124 169.15 135.56 169.15 112.45" class="cls-5"/><polygon data-cppathid="10119" points="302.34 56.95 279.87 96.11 324.82 96.11 302.34 56.95" class="cls-8"/><polygon data-cppathid="10120" points="329.48 104.23 275.21 104.23 264.09 123.59 340.6 123.59 329.48 104.23" class="cls-8"/><polygon data-cppathid="10121" points="259.43 131.72 247.35 152.77 357.34 152.77 345.26 131.72 259.43 131.72" class="cls-8"/></svg>