<?xml version="1.0" encoding="UTF-8"?>
<svg xmlns="http://www.w3.org/2000/svg" onmouseup="{ if(window.parent.document.onmouseup) window.parent.document.onmouseup(arguments[0]);}" viewBox="0 0 1156.82 1080" data-name="Layer 1" id="Layer_1"><defs><style>.cls-1,.cls-7{fill:#333e48;}.cls-2{fill:none;stroke:#00ffd3;stroke-width:2px;}.cls-2,.cls-7{stroke-linecap:round;stroke-linejoin:round;}.cls-3{fill:#00ffd3;}.cls-4{fill:#f7a800;}.cls-5{fill:#0099a8;}.cls-6{isolation:isolate;}.cls-7{stroke:#fff;stroke-width:3px;}.cls-8{fill:#fff;}</style></defs><rect data-cppathid="10000" height="1080" width="1156.82" class="cls-1"/><line data-cppathid="10001" y2="194.38" x2="1133.8" y1="194.38" x1="21.1" class="cls-2"/><path data-cppathid="10002" d="M1103.43,22a30.43,30.43,0,0,1,30.39,30.39v975.23a30.43,30.43,0,0,1-30.39,30.39H51.39A30.43,30.43,0,0,1,21,1027.62V52.39A30.42,30.42,0,0,1,51.39,22h1052m0-2H51.39A32.39,32.39,0,0,0,19,52.39v975.23A32.39,32.39,0,0,0,51.39,1060h1052a32.39,32.39,0,0,0,32.39-32.39V52.39A32.39,32.39,0,0,0,1103.43,20Z" class="cls-3"/><path data-cppathid="10003" d="M36.19,230.86v90.2L147,210.26l-90-.19A20.8,20.8,0,0,0,36.19,230.86Z" class="cls-4"/><path data-cppathid="10004" d="M1118.39,1023.65v-90.2l-110.81,110.81,90,.19A20.81,20.81,0,0,0,1118.39,1023.65Z" class="cls-5"/><g class="cls-6"><path data-cppathid="10005" d="M409.86,119.91v22.48H397.43v-62h23.72q10.68,0,16.81,5.45t6.13,14.35q0,8.89-6.13,14.3t-16.81,5.41Zm0-9.58h11.29q5.19,0,7.87-2.83a10.06,10.06,0,0,0,2.68-7.22A10.49,10.49,0,0,0,429,92.9Q426.39,90,421.15,90H409.86Z" class="cls-4"/><path data-cppathid="10006" d="M465.42,117.61v24.78H453v-62h21.46Q485,80.4,491,85.23t6,13.48a13.6,13.6,0,0,1-2.53,8.24,17.57,17.57,0,0,1-7.39,5.59q5.49,1.62,7.9,5.41a17.19,17.19,0,0,1,2.4,9.37v4.55a22.51,22.51,0,0,0,.71,5.43,7.45,7.45,0,0,0,2.4,4.19v.9H487.69a6.83,6.83,0,0,1-2.19-4.51,39.3,39.3,0,0,1-.49-6.09V127.4a9.83,9.83,0,0,0-2.54-7.21q-2.54-2.58-7.17-2.58Zm0-9.58h8.81c3.5,0,6.09-.74,7.8-2.21s2.55-3.66,2.55-6.56A9,9,0,0,0,482,92.49Q479.44,90,474.45,90h-9Z" class="cls-4"/><path data-cppathid="10007" d="M521.83,142.39H509.4v-62h12.43Z" class="cls-4"/><path data-cppathid="10008" d="M584.29,117q0,11.46-7.2,18.88t-18.73,7.43q-11.49,0-18.65-7.45T532.56,117V105.82q0-11.37,7.13-18.84t18.59-7.47q11.54,0,18.77,7.47t7.24,18.84ZM571.9,105.73q0-7.23-3.62-11.88a12,12,0,0,0-10-4.64,11.61,11.61,0,0,0-9.82,4.64Q545,98.5,545,105.73V117q0,7.36,3.53,12a11.72,11.72,0,0,0,9.88,4.64,11.86,11.86,0,0,0,10-4.64q3.58-4.65,3.58-12Z" class="cls-4"/><path data-cppathid="10009" d="M606.55,117.61v24.78H594.12v-62h21.46q10.6,0,16.58,4.83t6,13.48a13.6,13.6,0,0,1-2.53,8.24,17.57,17.57,0,0,1-7.39,5.59q5.49,1.62,7.9,5.41a17.19,17.19,0,0,1,2.41,9.37v4.55a22.48,22.48,0,0,0,.7,5.43,7.45,7.45,0,0,0,2.4,4.19v.9H628.82a6.83,6.83,0,0,1-2.19-4.51,39.3,39.3,0,0,1-.49-6.09V127.4a9.83,9.83,0,0,0-2.54-7.21c-1.68-1.72-4.08-2.58-7.17-2.58Zm0-9.58h8.82c3.49,0,6.08-.74,7.79-2.21s2.55-3.66,2.55-6.56a9.05,9.05,0,0,0-2.57-6.77Q620.56,90,615.58,90h-9Z" class="cls-4"/><path data-cppathid="10010" d="M663,142.39H650.53v-62H663Z" class="cls-4"/><path data-cppathid="10011" d="M687.49,132.85h28.43v9.54H672.84v-6.47L700.43,90H672.88V80.4H715.2v6.22Z" class="cls-4"/><path data-cppathid="10012" d="M757.65,129h-20.1l-4.17,13.37h-13l20.9-62H754l20.82,62h-13Zm-17-9.75h14l-6.85-21.84h-.26Z" class="cls-4"/><path data-cppathid="10013" d="M826.83,121.87l.08.25q.18,9.93-6,15.54t-17.16,5.62q-11.15,0-18-7.17t-6.85-18.54V105.26q0-11.33,6.68-18.54t17.54-7.21q11.32,0,17.71,5.53T827,100.62l-.09.26H814.82c0-4-1-6.93-2.87-8.88s-4.87-2.91-8.88-2.91a10,10,0,0,0-8.7,4.49q-3.14,4.48-3.13,11.6v12.39q0,7.16,3.3,11.66a10.72,10.72,0,0,0,9.17,4.52c3.72,0,6.49-1,8.33-2.92s2.74-4.93,2.74-9Z" class="cls-4"/><path data-cppathid="10014" d="M849.1,142.39H836.66v-62H849.1Z" class="cls-4"/><path data-cppathid="10015" d="M911.55,117q0,11.46-7.19,18.88t-18.74,7.43q-11.49,0-18.64-7.45T859.82,117V105.82q0-11.37,7.14-18.84t18.58-7.47q11.54,0,18.77,7.47t7.24,18.84Zm-12.39-11.24q0-7.23-3.62-11.88a12,12,0,0,0-10-4.64,11.64,11.64,0,0,0-9.82,4.64q-3.51,4.65-3.51,11.88V117q0,7.36,3.54,12a11.69,11.69,0,0,0,9.87,4.64,11.89,11.89,0,0,0,10-4.64q3.57-4.65,3.57-12Zm-11-43.68H902l.09.26L890.31,73.38h-10.6Z" class="cls-4"/><path data-cppathid="10016" d="M971.49,142.39H959.06l-25-41.81-.25,0v41.77H921.39v-62h12.43l25,41.77.25,0V80.4h12.43Z" class="cls-4"/></g><polygon data-cppathid="10017" points="169.15 112.45 169.15 89.33 189.17 100.89 209.18 112.45 189.17 124 169.15 135.56 169.15 112.45" class="cls-3"/><polygon data-cppathid="10018" points="302.34 56.95 279.87 96.11 324.82 96.11 302.34 56.95" class="cls-7"/><polygon data-cppathid="10019" points="329.48 104.23 275.21 104.23 264.09 123.59 340.6 123.59 329.48 104.23" class="cls-7"/><polygon data-cppathid="10020" points="259.43 131.72 247.35 152.77 357.34 152.77 345.26 131.72 259.43 131.72" class="cls-7"/><path data-cppathid="10021" d="M188.54,471.41H168v19.86h23.49v1.58H166.45V450.2h25.08v1.58H168v18h20.5Z" class="cls-8"/><path data-cppathid="10022" d="M200.67,492.85h-1.58v-45.7h1.58Z" class="cls-8"/><path data-cppathid="10023" d="M230.94,462.74l.36,4.31a10.92,10.92,0,0,1,3.7-3.59,9.66,9.66,0,0,1,4.93-1.28,9,9,0,0,1,7.12,2.94c1.71,1.95,2.56,5.05,2.56,9.28v18.45h-8.15V474.43c0-2.16-.38-3.68-1.13-4.58A4.15,4.15,0,0,0,237,468.5a7.16,7.16,0,0,0-3.19.68,6.3,6.3,0,0,0-2.27,1.88v21.79h-8.12V462.74Z" class="cls-8"/><path data-cppathid="10024" d="M264.22,455.53H256.1v-6.1h8.12Zm0,37.32H256.1V462.74h8.12Z" class="cls-8"/><path data-cppathid="10025" d="M281.79,481.64l.52,2.78h.17l.56-2.78,4.95-18.9h8.49l-10.24,30.11h-7.77l-10.24-30.11h8.49Z" class="cls-8"/><path data-cppathid="10026" d="M312.71,493.44q-6.73,0-10.52-4.14a15.1,15.1,0,0,1-3.79-10.64v-1.12a16.47,16.47,0,0,1,3.68-11.07q3.66-4.32,10.1-4.29,6.06,0,9.31,3.72t3.24,10v4.2h-18l-.08.17a8.15,8.15,0,0,0,1.87,5,6.31,6.31,0,0,0,5,1.92,16.74,16.74,0,0,0,4.63-.55,19.14,19.14,0,0,0,3.94-1.7l2.2,5a15,15,0,0,1-4.9,2.47A21.63,21.63,0,0,1,312.71,493.44Zm-.53-25a4.5,4.5,0,0,0-3.77,1.69,8.4,8.4,0,0,0-1.6,4.46l.05.14h9.91v-.61a7.06,7.06,0,0,0-1.08-4.16A4,4,0,0,0,312.18,468.44Z" class="cls-8"/><path data-cppathid="10027" d="M338,492.85h-8.13V449.43H338Z" class="cls-8"/><path data-cppathid="10028" d="M357.63,478c0-4.74,1-8.58,3.07-11.49a10,10,0,0,1,8.67-4.37,8.56,8.56,0,0,1,4.07,1,9.82,9.82,0,0,1,3.17,2.79V449.43h8.15v43.42h-6.93l-.69-3.7a10.2,10.2,0,0,1-3.37,3.19,8.92,8.92,0,0,1-4.45,1.1,10.2,10.2,0,0,1-8.62-4.07q-3.07-4.06-3.07-10.74Zm8.1.59a12.28,12.28,0,0,0,1.33,6.22,4.66,4.66,0,0,0,4.35,2.27,6.4,6.4,0,0,0,3.06-.71,5.68,5.68,0,0,0,2.14-2.08V471.5a6.37,6.37,0,0,0-2.13-2.21,5.64,5.64,0,0,0-3-.79,4.58,4.58,0,0,0-4.35,2.64,15,15,0,0,0-1.38,6.9Z" class="cls-8"/><path data-cppathid="10029" d="M404.11,493.44q-6.74,0-10.52-4.14a15.1,15.1,0,0,1-3.79-10.64v-1.12a16.47,16.47,0,0,1,3.68-11.07q3.67-4.32,10.1-4.29,6.06,0,9.31,3.72t3.24,10v4.2H398.18l-.08.17a8.15,8.15,0,0,0,1.87,5,6.31,6.31,0,0,0,5,1.92,16.74,16.74,0,0,0,4.63-.55,19.14,19.14,0,0,0,3.94-1.7l2.2,5a14.94,14.94,0,0,1-4.9,2.47A21.63,21.63,0,0,1,404.11,493.44Zm-.53-25a4.5,4.5,0,0,0-3.77,1.69,8.4,8.4,0,0,0-1.6,4.46l.05.14h9.91v-.61a7.06,7.06,0,0,0-1.08-4.16A4,4,0,0,0,403.58,468.44Z" class="cls-8"/><path data-cppathid="10030" d="M447.64,487.2a4.51,4.51,0,0,0,3.36-1.26,4.61,4.61,0,0,0,1.26-3.39h7.4l.06.17a9.44,9.44,0,0,1-3.4,7.64,12.7,12.7,0,0,1-8.68,3.08q-6.69,0-10.33-4.28a16.22,16.22,0,0,1-3.64-10.92v-.84a16.36,16.36,0,0,1,3.63-10.92q3.63-4.31,10.28-4.3a12.44,12.44,0,0,1,8.88,3.17,10.65,10.65,0,0,1,3.26,8.35l-.06.17h-7.4A6,6,0,0,0,451,470a4.17,4.17,0,0,0-3.44-1.55,4.65,4.65,0,0,0-4.47,2.52,13.84,13.84,0,0,0-1.32,6.44v.84a13.76,13.76,0,0,0,1.32,6.48A4.7,4.7,0,0,0,447.64,487.2Z" class="cls-8"/><path data-cppathid="10031" d="M480.28,469.72l-3-.08a5.42,5.42,0,0,0-3,.75,4.71,4.71,0,0,0-1.78,2.12v20.34h-8.1V462.74H472l.36,4.45a9.55,9.55,0,0,1,2.74-3.69,6.14,6.14,0,0,1,3.89-1.32,5.62,5.62,0,0,1,1.12.1c.35.06.69.14,1,.23Z" class="cls-8"/><path data-cppathid="10032" d="M493.06,455.53h-8.13v-6.1h8.13Zm0,37.32h-8.13V462.74h8.13Z" class="cls-8"/><path data-cppathid="10033" d="M509.48,455.36v7.38h5.09v5.7h-5.09v15.34a3.49,3.49,0,0,0,.74,2.5,2.58,2.58,0,0,0,1.93.75,7.37,7.37,0,0,0,1.12-.07,8.49,8.49,0,0,0,1.08-.23l.67,5.87a16.5,16.5,0,0,1-2.38.63,14.11,14.11,0,0,1-2.52.21,8.66,8.66,0,0,1-6.47-2.31q-2.26-2.31-2.27-7.32V468.44H497v-5.7h4.4v-7.38Z" class="cls-8"/><path data-cppathid="10034" d="M528.13,455.53H520v-6.1h8.13Zm0,37.32H520V462.74h8.13Z" class="cls-8"/><path data-cppathid="10035" d="M533.55,478c0-4.74,1-8.58,3.08-11.49a10,10,0,0,1,8.67-4.37,8.52,8.52,0,0,1,4.06,1,9.75,9.75,0,0,1,3.18,2.79V449.43h8.15v43.42h-6.93l-.7-3.7a10.07,10.07,0,0,1-3.36,3.19,9,9,0,0,1-4.46,1.1,10.18,10.18,0,0,1-8.61-4.07q-3.07-4.06-3.08-10.74Zm8.1.59a12.27,12.27,0,0,0,1.34,6.22,4.66,4.66,0,0,0,4.34,2.27,6.34,6.34,0,0,0,3.06-.71,5.64,5.64,0,0,0,2.15-2.08V471.5a6.37,6.37,0,0,0-2.13-2.21,5.67,5.67,0,0,0-3-.79,4.59,4.59,0,0,0-4.36,2.64,15,15,0,0,0-1.38,6.9Z" class="cls-8"/><path data-cppathid="10036" d="M584.74,492.85a15.86,15.86,0,0,1-.77-2.17,16.41,16.41,0,0,1-.46-2.34A11.14,11.14,0,0,1,580.2,492a8.32,8.32,0,0,1-4.9,1.45c-3.15,0-5.58-.82-7.29-2.44a8.72,8.72,0,0,1-2.56-6.64,8,8,0,0,1,3.41-6.86q3.4-2.43,9.95-2.43h4.56v-2.4a4.67,4.67,0,0,0-1.14-3.36,4.46,4.46,0,0,0-3.39-1.2,4.41,4.41,0,0,0-3.05,1,3.37,3.37,0,0,0-1.07,2.63H566.9l-.06-.17a7.64,7.64,0,0,1,3.33-6.58,14.41,14.41,0,0,1,9.2-2.77,13.47,13.47,0,0,1,8.78,2.73,9.51,9.51,0,0,1,3.35,7.82v12.44a23.86,23.86,0,0,0,.32,4,19.23,19.23,0,0,0,1,3.7Zm-7.43-5.43a6.94,6.94,0,0,0,3.78-1.05,5.61,5.61,0,0,0,2.28-2.45v-4.26h-4.56a5.42,5.42,0,0,0-3.91,1.28,4.2,4.2,0,0,0-1.32,3.14,3.17,3.17,0,0,0,1,2.44A3.94,3.94,0,0,0,577.31,487.42Z" class="cls-8"/><path data-cppathid="10037" d="M596.34,478c0-4.74,1-8.58,3.08-11.49a10,10,0,0,1,8.67-4.37,8.52,8.52,0,0,1,4.06,1,9.75,9.75,0,0,1,3.18,2.79V449.43h8.15v43.42h-6.93l-.7-3.7a10.07,10.07,0,0,1-3.36,3.19,9,9,0,0,1-4.46,1.1,10.18,10.18,0,0,1-8.61-4.07q-3.07-4.06-3.08-10.74Zm8.1.59a12.27,12.27,0,0,0,1.34,6.22,4.66,4.66,0,0,0,4.34,2.27,6.34,6.34,0,0,0,3.06-.71,5.71,5.71,0,0,0,2.15-2.08V471.5a6.37,6.37,0,0,0-2.13-2.21,5.67,5.67,0,0,0-3-.79,4.59,4.59,0,0,0-4.36,2.64,15,15,0,0,0-1.38,6.9Z" class="cls-8"/><path data-cppathid="10038" d="M656.43,493.47a12.14,12.14,0,0,1-9.44-4.34,15.84,15.84,0,0,1-3.86-10.93v-1.87A16.75,16.75,0,0,1,647,465a12.16,12.16,0,0,1,9.62-4.43A10.75,10.75,0,0,1,665,464q3.13,3.46,3.13,9.48V476H644.71v2.25a14.68,14.68,0,0,0,3.29,9.74,10.46,10.46,0,0,0,8.43,3.94,14.58,14.58,0,0,0,5.47-1.05,11.61,11.61,0,0,0,4.26-2.81l.85,1.23a12.73,12.73,0,0,1-4.31,3A15.15,15.15,0,0,1,656.43,493.47Zm.15-31.32a10.51,10.51,0,0,0-8.07,3.41,13.91,13.91,0,0,0-3.56,8.63l.09.18h21.5v-1a12.17,12.17,0,0,0-2.66-8.07A9,9,0,0,0,656.58,462.15Z" class="cls-8"/><path data-cppathid="10039" d="M695.19,485.09A6.24,6.24,0,0,0,693,480.5q-2.16-2.06-7.51-3.23-5.65-1.22-8.19-3.1a6.55,6.55,0,0,1-2.54-5.61,7,7,0,0,1,2.87-5.69,12,12,0,0,1,7.74-2.3c3.49,0,6.25.82,8.26,2.46a7.49,7.49,0,0,1,2.87,6.41l-.06.18h-1.35a6.66,6.66,0,0,0-2.62-5.29,10.78,10.78,0,0,0-7.1-2.18q-4.45,0-6.74,1.92a5.7,5.7,0,0,0-2.29,4.44,5.52,5.52,0,0,0,1.94,4.24c1.29,1.18,3.85,2.2,7.67,3.08a21,21,0,0,1,8,3.35,7.12,7.12,0,0,1,2.74,5.94,7.23,7.23,0,0,1-3,6,13,13,0,0,1-8.09,2.32q-5.53,0-8.68-2.48a6.9,6.9,0,0,1-3-6l.06-.18h1.29a6.21,6.21,0,0,0,3.22,5.42,14.18,14.18,0,0,0,7.06,1.67,10.9,10.9,0,0,0,7-2.05A6,6,0,0,0,695.19,485.09Z" class="cls-8"/><path data-cppathid="10040" d="M718.51,477q0-7.53,3.17-12a10.21,10.21,0,0,1,8.79-4.43,12.07,12.07,0,0,1,6.4,1.65,12.22,12.22,0,0,1,4.32,4.53v-19.6h1.58V471a0,0,0,0,0,0,0V484a.16.16,0,0,0,0,.08v8.82h-1.52l-.06-4.89a11.32,11.32,0,0,1-4.34,4,13.46,13.46,0,0,1-6.44,1.48,10.27,10.27,0,0,1-8.75-4.28q-3.15-4.28-3.15-11.6Zm1.64.62q0,6.56,2.6,10.43a8.59,8.59,0,0,0,7.63,3.86,11.79,11.79,0,0,0,6.85-1.86,10.58,10.58,0,0,0,4-5v-15a13.23,13.23,0,0,0-3.71-5.64,10.19,10.19,0,0,0-7-2.27,8.52,8.52,0,0,0-7.66,4.11q-2.62,4.13-2.63,10.71Z" class="cls-8"/><path data-cppathid="10041" d="M763.92,493.47a12.14,12.14,0,0,1-9.44-4.34,15.84,15.84,0,0,1-3.86-10.93v-1.87A16.75,16.75,0,0,1,754.45,465a12.18,12.18,0,0,1,9.62-4.43,10.75,10.75,0,0,1,8.41,3.47q3.13,3.46,3.13,9.48V476h-23.4v2.25a14.68,14.68,0,0,0,3.28,9.74,10.46,10.46,0,0,0,8.43,3.94,14.58,14.58,0,0,0,5.47-1.05,11.61,11.61,0,0,0,4.26-2.81l.85,1.23a12.73,12.73,0,0,1-4.31,3A15.15,15.15,0,0,1,763.92,493.47Zm.15-31.32a10.51,10.51,0,0,0-8.07,3.41,13.91,13.91,0,0,0-3.56,8.63l.09.18H774v-1a12.17,12.17,0,0,0-2.66-8.07A9,9,0,0,0,764.07,462.15Z" class="cls-8"/><path data-cppathid="10042" d="M785.66,492.85V462.76h-5.51v-1.61h5.51v-4.63q0-4.77,2.51-7.38a9.18,9.18,0,0,1,7-2.61,20.62,20.62,0,0,1,4,.4,17.43,17.43,0,0,1,3.9,1.27l-.24,1.53a19.92,19.92,0,0,0-3.56-1.23,17.6,17.6,0,0,0-4-.38,7.62,7.62,0,0,0-5.8,2.22,8.67,8.67,0,0,0-2.11,6.18v4.63h8.38v1.61h-8.38v30.09Zm18.46,0h-1.58v-31.7h1.58Z" class="cls-8"/><path data-cppathid="10043" d="M815.87,461.15l.2,6.39a11.71,11.71,0,0,1,4.22-5.14,12,12,0,0,1,6.77-1.83q5.19,0,7.78,3.26t2.59,10.36v18.66h-1.58V474.13q0-6.58-2.36-9.29a8.09,8.09,0,0,0-6.4-2.69q-5,0-7.62,2.9a14.11,14.11,0,0,0-3.37,7.47v20.33h-1.58V476.62h-.09c0-.37,0-.75,0-1.13s0-.76.07-1.15V461.15Z" class="cls-8"/><path data-cppathid="10044" d="M849.32,451.19h-1.58v-4h1.58Zm0,41.66h-1.58v-31.7h1.58Z" class="cls-8"/><path data-cppathid="10045" d="M858.26,477q0-7.53,3.16-12a10.21,10.21,0,0,1,8.79-4.43,12,12,0,0,1,6.4,1.65,12.24,12.24,0,0,1,4.33,4.53v-19.6h1.58V471a0,0,0,0,0,0,0V484a.16.16,0,0,0,0,.08v8.82H881l0-4.89a11.32,11.32,0,0,1-4.34,4,13.5,13.5,0,0,1-6.45,1.48,10.25,10.25,0,0,1-8.74-4.28q-3.15-4.28-3.15-11.6Zm1.64.62q0,6.56,2.59,10.43a8.6,8.6,0,0,0,7.63,3.86A11.83,11.83,0,0,0,877,490a10.58,10.58,0,0,0,4-5v-15a13.33,13.33,0,0,0-3.71-5.64,10.21,10.21,0,0,0-7.05-2.27,8.53,8.53,0,0,0-7.66,4.11q-2.62,4.13-2.62,10.71Z" class="cls-8"/><path data-cppathid="10046" d="M890.08,476.39q0-7,3.85-11.4a13.57,13.57,0,0,1,20,0q3.85,4.42,3.85,11.4v1.23q0,7-3.85,11.42a13.54,13.54,0,0,1-20,0q-3.86-4.43-3.86-11.42Zm1.58,1.23A15.6,15.6,0,0,0,895,487.74a11.73,11.73,0,0,0,17.9,0,15.65,15.65,0,0,0,3.34-10.1v-1.23a15.55,15.55,0,0,0-3.37-10,11.6,11.6,0,0,0-17.87,0,15.64,15.64,0,0,0-3.34,10Z" class="cls-8"/><path data-cppathid="10047" d="M189.86,564q0,7.32-3.16,11.6a10.27,10.27,0,0,1-8.73,4.28,13.39,13.39,0,0,1-6.43-1.47,11.32,11.32,0,0,1-4.33-4v17h-1.58V570.58c0-.06,0-.11,0-.15a.52.52,0,0,1,0-.11V557.38l.06-.19v-9.64h1.23l.33,5.6a11.86,11.86,0,0,1,4.3-4.53,12.17,12.17,0,0,1,6.42-1.65,10.21,10.21,0,0,1,8.77,4.43q3.18,4.44,3.18,12Zm-1.61-.62q0-6.58-2.65-10.71a8.57,8.57,0,0,0-7.66-4.11,10.26,10.26,0,0,0-7.05,2.25,13.09,13.09,0,0,0-3.68,5.57v15.15a10.29,10.29,0,0,0,3.93,4.93,12,12,0,0,0,6.86,1.83,8.63,8.63,0,0,0,7.63-3.86q2.63-3.87,2.62-10.43Z" class="cls-8"/><path data-cppathid="10048" d="M196,562.79a16.73,16.73,0,0,1,3.86-11.4,13.57,13.57,0,0,1,20,0,16.77,16.77,0,0,1,3.85,11.4V564a16.81,16.81,0,0,1-3.85,11.42,13.54,13.54,0,0,1-20,0Q196,571,196,564Zm1.59,1.23a15.6,15.6,0,0,0,3.34,10.12,11.73,11.73,0,0,0,17.9,0,15.65,15.65,0,0,0,3.34-10.1v-1.23a15.59,15.59,0,0,0-3.37-10,11.6,11.6,0,0,0-17.87,0,15.62,15.62,0,0,0-3.34,10Z" class="cls-8"/><path data-cppathid="10049" d="M245.29,548.69l-2-.17a9.17,9.17,0,0,0-6.9,2.74,13.41,13.41,0,0,0-3.44,7.22v20.77h-1.58v-31.7h1.29l.29,5.51v1.08a11.5,11.5,0,0,1,3.92-5.28,10.65,10.65,0,0,1,6.42-1.89,7,7,0,0,1,1.25.1c.38.07.7.14,1,.22Z" class="cls-8"/><path data-cppathid="10050" d="M276.84,579.87a12.14,12.14,0,0,1-9.44-4.34,15.84,15.84,0,0,1-3.86-10.93v-1.87a16.75,16.75,0,0,1,3.83-11.33A12.18,12.18,0,0,1,277,547a10.75,10.75,0,0,1,8.41,3.47q3.14,3.46,3.13,9.48v2.43H265.12v2.25a14.68,14.68,0,0,0,3.29,9.74,10.46,10.46,0,0,0,8.43,3.94,14.58,14.58,0,0,0,5.47-1,11.61,11.61,0,0,0,4.26-2.81l.85,1.23a12.73,12.73,0,0,1-4.31,3A15.15,15.15,0,0,1,276.84,579.87Zm.15-31.32a10.51,10.51,0,0,0-8.07,3.41,13.91,13.91,0,0,0-3.56,8.63l.09.17H287v-1a12.17,12.17,0,0,0-2.66-8.07A9,9,0,0,0,277,548.55Z" class="cls-8"/><path data-cppathid="10051" d="M298.14,579.25h-1.58v-45.7h1.58Z" class="cls-8"/><path data-cppathid="10052" d="M344.23,579.25a21.08,21.08,0,0,1-1-2.74,19.48,19.48,0,0,1-.58-3,14.18,14.18,0,0,1-4.18,4.6,10.5,10.5,0,0,1-6.19,1.83q-6,0-9.21-3.08a11,11,0,0,1-3.24-8.38,10,10,0,0,1,4.31-8.67q4.31-3.08,12.57-3.07h5.76v-3a5.91,5.91,0,0,0-1.44-4.25,5.65,5.65,0,0,0-4.29-1.51,5.59,5.59,0,0,0-3.85,1.21,4.25,4.25,0,0,0-1.35,3.32h-9.88l-.07-.21q-.24-4.82,4.2-8.31t11.62-3.5q6.85,0,11.09,3.44t4.24,9.88v15.72a29.81,29.81,0,0,0,.4,5,25,25,0,0,0,1.29,4.67Zm-9.39-6.85a8.76,8.76,0,0,0,4.78-1.34A7.13,7.13,0,0,0,342.5,568v-5.38h-5.76a6.86,6.86,0,0,0-4.94,1.61,5.35,5.35,0,0,0-1.67,4,3.92,3.92,0,0,0,1.25,3.07A4.93,4.93,0,0,0,334.84,572.4Z" class="cls-3"/><path data-cppathid="10053" d="M358.89,560.55q0-9,3.88-14.52a12.61,12.61,0,0,1,11-5.52,10.7,10.7,0,0,1,5.14,1.23,12.39,12.39,0,0,1,4,3.51V524.41h10.3v54.84h-8.75l-.88-4.67a12.76,12.76,0,0,1-4.25,4,11.22,11.22,0,0,1-5.63,1.39,12.87,12.87,0,0,1-10.88-5.13q-3.88-5.15-3.88-13.57Zm10.23.74a15.54,15.54,0,0,0,1.68,7.85,5.89,5.89,0,0,0,5.49,2.87,8,8,0,0,0,3.87-.9,7.13,7.13,0,0,0,2.7-2.62v-16.2a7.87,7.87,0,0,0-2.69-2.8,7.13,7.13,0,0,0-3.81-1,5.78,5.78,0,0,0-5.5,3.34,18.88,18.88,0,0,0-1.74,8.72Z" class="cls-3"/><path data-cppathid="10054" d="M410.64,541.21l.42,5a12.82,12.82,0,0,1,4.59-4.24,13.24,13.24,0,0,1,6.38-1.49,11.64,11.64,0,0,1,6.26,1.62,9.93,9.93,0,0,1,3.93,4.88,13.21,13.21,0,0,1,4.57-4.78,12.4,12.4,0,0,1,6.61-1.72,10.85,10.85,0,0,1,8.88,4q3.25,4,3.25,12.18v22.57H445.27v-22.6q0-4.57-1.41-6.37a5,5,0,0,0-4.18-1.79,7.09,7.09,0,0,0-3.78,1,7,7,0,0,0-2.55,2.69q0,.66,0,1.14c0,.31,0,.64,0,1v25H423.19v-22.6c0-3-.47-5.08-1.41-6.32a5,5,0,0,0-4.22-1.84,8,8,0,0,0-3.64.79,7,7,0,0,0-2.58,2.23v27.74H401.11v-38Z" class="cls-3"/><path data-cppathid="10055" d="M474.2,532.11H463.93v-7.7H474.2Zm0,47.14H463.93v-38H474.2Z" class="cls-3"/><path data-cppathid="10056" d="M492,541.21l.46,5.45a13.85,13.85,0,0,1,4.68-4.53,12.1,12.1,0,0,1,6.22-1.62q5.76,0,9,3.71t3.23,11.72v23.31h-10.3V556q0-4.08-1.42-5.79a5.26,5.26,0,0,0-4.27-1.7,9,9,0,0,0-4,.86,7.87,7.87,0,0,0-2.86,2.37v27.53H482.46v-38Z" class="cls-3"/><path data-cppathid="10057" d="M534.07,532.11H523.8v-7.7h10.27Zm0,47.14H523.8v-38h10.27Z" class="cls-3"/><path data-cppathid="10058" d="M563.07,568.7a3.54,3.54,0,0,0-1.63-2.9,16.8,16.8,0,0,0-6.06-2.12q-6.69-1.33-10.15-4a8.81,8.81,0,0,1-3.46-7.34,10.49,10.49,0,0,1,4.15-8.34q4.14-3.44,11-3.44,7.2,0,11.55,3.44a10.07,10.07,0,0,1,4.16,8.58l-.07.21h-9.91a5,5,0,0,0-1.48-3.72,6.91,6.91,0,0,0-8.16-.21,3.81,3.81,0,0,0-1.44,3,3.39,3.39,0,0,0,1.5,2.86q1.49,1.11,6.06,2,7,1.41,10.43,4.13a9.08,9.08,0,0,1,3.42,7.51,10,10,0,0,1-4.39,8.4Q564.24,580,557,580q-7.6,0-12-3.85t-4.2-8.77l.07-.21h9.39a5.35,5.35,0,0,0,2,4.43,8.32,8.32,0,0,0,5,1.37,7.06,7.06,0,0,0,4.34-1.14A3.71,3.71,0,0,0,563.07,568.7Z" class="cls-3"/><path data-cppathid="10059" d="M591.94,531.9v9.31h6.43v7.21h-6.43v19.37a4.4,4.4,0,0,0,.93,3.16,3.23,3.23,0,0,0,2.44.95,11.44,11.44,0,0,0,1.41-.08,12.44,12.44,0,0,0,1.37-.3l.84,7.41a20.3,20.3,0,0,1-3,.8,18.52,18.52,0,0,1-3.18.26q-5.31,0-8.18-2.92c-1.91-1.94-2.86-5-2.86-9.24V548.42h-5.56v-7.21h5.56V531.9Z" class="cls-3"/><path data-cppathid="10060" d="M624.7,550l-3.76-.11a6.85,6.85,0,0,0-3.76,1,6,6,0,0,0-2.25,2.67v25.7H604.7v-38h9.53l.45,5.63a12,12,0,0,1,3.47-4.66,8.11,8.11,0,0,1,6.32-1.55q.66.12,1.32.3Z" class="cls-3"/><path data-cppathid="10061" d="M652.48,579.25a21.08,21.08,0,0,1-1-2.74,19.48,19.48,0,0,1-.58-3,14.07,14.07,0,0,1-4.18,4.6,10.5,10.5,0,0,1-6.19,1.83q-6,0-9.21-3.08a11,11,0,0,1-3.24-8.38,10,10,0,0,1,4.31-8.67q4.3-3.08,12.57-3.07h5.76v-3a5.91,5.91,0,0,0-1.44-4.25A5.65,5.65,0,0,0,645,548a5.59,5.59,0,0,0-3.85,1.21,4.25,4.25,0,0,0-1.35,3.32h-9.88l-.07-.21q-.24-4.82,4.2-8.31t11.62-3.5q6.85,0,11.09,3.44t4.24,9.88v15.72a29.81,29.81,0,0,0,.4,5,25,25,0,0,0,1.29,4.67Zm-9.39-6.85a8.76,8.76,0,0,0,4.78-1.34,7.13,7.13,0,0,0,2.88-3.09v-5.38H645a6.86,6.86,0,0,0-4.94,1.61,5.35,5.35,0,0,0-1.67,4,3.92,3.92,0,0,0,1.25,3.07A4.93,4.93,0,0,0,643.09,572.4Z" class="cls-3"/><path data-cppathid="10062" d="M667.14,560.55q0-9,3.88-14.52a12.61,12.61,0,0,1,11-5.52,10.7,10.7,0,0,1,5.14,1.23,12.39,12.39,0,0,1,4,3.51V524.41h10.3v54.84h-8.75l-.88-4.67a12.76,12.76,0,0,1-4.25,4A11.22,11.22,0,0,1,681.9,580,12.87,12.87,0,0,1,671,574.86q-3.88-5.15-3.88-13.57Zm10.23.74a15.54,15.54,0,0,0,1.68,7.85,5.89,5.89,0,0,0,5.49,2.87,8,8,0,0,0,3.87-.9,7.13,7.13,0,0,0,2.7-2.62v-16.2a7.87,7.87,0,0,0-2.69-2.8,7.13,7.13,0,0,0-3.81-1,5.78,5.78,0,0,0-5.5,3.34,18.88,18.88,0,0,0-1.74,8.72Z" class="cls-3"/><path data-cppathid="10063" d="M707.78,559.88q0-8.5,4.74-13.94t13.15-5.43q8.45,0,13.22,5.41t4.78,14v.74q0,8.58-4.76,14T725.74,580q-8.43,0-13.2-5.4t-4.76-14Zm10.23.74a16.54,16.54,0,0,0,1.83,8.35,7,7,0,0,0,11.72,0,16.45,16.45,0,0,0,1.85-8.33v-.74a16.16,16.16,0,0,0-1.87-8.26,6.31,6.31,0,0,0-5.87-3.2,6.22,6.22,0,0,0-5.82,3.22,16.4,16.4,0,0,0-1.84,8.24Z" class="cls-3"/><path data-cppathid="10064" d="M770,550l-3.76-.11a6.85,6.85,0,0,0-3.76,1,6,6,0,0,0-2.25,2.67v25.7H750v-38h9.53l.45,5.63a12.08,12.08,0,0,1,3.47-4.66,7.73,7.73,0,0,1,4.9-1.67,8,8,0,0,1,1.43.12c.43.08.87.18,1.31.3Z" class="cls-3"/><path data-cppathid="10065" d="M807,563.29l.42,2.11h.21l7.28-24.19h11L810.5,585a20,20,0,0,1-4.39,6.87q-2.77,2.79-8.33,2.79a13,13,0,0,1-2.41-.21c-.74-.14-1.64-.34-2.69-.59l1.2-7.49,1,.14a8.68,8.68,0,0,0,.95.07,5.59,5.59,0,0,0,3.9-1.25,8.25,8.25,0,0,0,2.11-3.11l1.2-2.95-13.5-38h11Z" class="cls-3"/><path data-cppathid="10066" d="M864.47,580q-8.51,0-13.29-5.22t-4.78-13.45v-1.4q0-8.55,4.64-14t12.76-5.41q7.66,0,11.76,4.69t4.1,12.64v5.31H857l-.1.21a10.25,10.25,0,0,0,2.37,6.33c1.42,1.62,3.52,2.42,6.31,2.42a21,21,0,0,0,5.85-.7,23.88,23.88,0,0,0,5-2.14l2.77,6.32a18.77,18.77,0,0,1-6.18,3.13A27.26,27.26,0,0,1,864.47,580Zm-.67-31.57a5.69,5.69,0,0,0-4.76,2.13,10.52,10.52,0,0,0-2,5.64l.07.17H869.6v-.77a8.93,8.93,0,0,0-1.37-5.26A5.08,5.08,0,0,0,863.8,548.42Z" class="cls-3"/><path data-cppathid="10067" d="M896.43,579.25H886.16V524.41h10.27Z" class="cls-3"/><path data-cppathid="10068" d="M180.42,658.51a5.76,5.76,0,0,0,4.26-1.59,5.85,5.85,0,0,0,1.58-4.28h9.35l.07.21a11.9,11.9,0,0,1-4.29,9.65,16,16,0,0,1-11,3.89q-8.43,0-13-5.4t-4.61-13.8v-1.05q0-8.37,4.59-13.8t13-5.43q7,0,11.22,4a13.41,13.41,0,0,1,4.11,10.54l-.07.21h-9.35a7.56,7.56,0,0,0-1.57-4.9,5.25,5.25,0,0,0-4.34-1.95,5.85,5.85,0,0,0-5.64,3.18,17.48,17.48,0,0,0-1.67,8.14v1.05a17.46,17.46,0,0,0,1.67,8.2A5.94,5.94,0,0,0,180.42,658.51Z" class="cls-3"/><path data-cppathid="10069" d="M225,660a12.9,12.9,0,0,1-4.46,4.71,11.85,11.85,0,0,1-6.29,1.65,11.57,11.57,0,0,1-9.41-4.08q-3.39-4.08-3.39-12.65v-22h10.23v22.12q0,5,1.35,6.83a4.89,4.89,0,0,0,4.21,1.85,10.14,10.14,0,0,0,4.21-.79,7.12,7.12,0,0,0,2.89-2.34V627.61h10.26v38h-8.51Z" class="cls-3"/><path data-cppathid="10070" d="M262.86,655.1a3.54,3.54,0,0,0-1.63-2.9,16.79,16.79,0,0,0-6.07-2.12Q248.49,648.75,245,646a8.81,8.81,0,0,1-3.46-7.34,10.49,10.49,0,0,1,4.15-8.34q4.14-3.44,11-3.44,7.2,0,11.54,3.44a10.06,10.06,0,0,1,4.17,8.58l-.07.21h-9.91a5,5,0,0,0-1.48-3.72,6.91,6.91,0,0,0-8.16-.21,3.81,3.81,0,0,0-1.44,3,3.39,3.39,0,0,0,1.5,2.86c1,.74,3,1.41,6.06,2q7,1.41,10.42,4.13a9.06,9.06,0,0,1,3.43,7.51,10,10,0,0,1-4.39,8.4q-4.4,3.27-11.6,3.27-7.6,0-12-3.85t-4.2-8.77l.07-.21h9.39a5.33,5.33,0,0,0,2,4.43,8.32,8.32,0,0,0,5,1.37,7.06,7.06,0,0,0,4.34-1.14A3.71,3.71,0,0,0,262.86,655.1Z" class="cls-3"/><path data-cppathid="10071" d="M291.73,618.3v9.31h6.43v7.21h-6.43v19.37a4.4,4.4,0,0,0,.93,3.16,3.23,3.23,0,0,0,2.44.95,11.44,11.44,0,0,0,1.41-.08,12.44,12.44,0,0,0,1.37-.3l.84,7.41a20.3,20.3,0,0,1-3,.8,18.61,18.61,0,0,1-3.18.26q-5.31,0-8.18-2.92c-1.91-1.94-2.86-5-2.86-9.24V634.82h-5.56v-7.21h5.56V618.3Z" class="cls-3"/><path data-cppathid="10072" d="M302.91,646.28q0-8.5,4.74-13.94t13.15-5.43q8.44,0,13.22,5.41t4.78,14V647q0,8.58-4.76,14t-13.17,5.4q-8.43,0-13.2-5.4t-4.76-14Zm10.23.74a16.65,16.65,0,0,0,1.82,8.35,6.31,6.31,0,0,0,5.91,3.14,6.25,6.25,0,0,0,5.82-3.16,16.45,16.45,0,0,0,1.85-8.33v-.74a16.29,16.29,0,0,0-1.87-8.26,6.31,6.31,0,0,0-5.87-3.2A6.22,6.22,0,0,0,315,638a16.4,16.4,0,0,0-1.84,8.24Z" class="cls-3"/><path data-cppathid="10073" d="M343.55,647q0-9,3.88-14.52a12.61,12.61,0,0,1,10.95-5.52,10.7,10.7,0,0,1,5.14,1.23,12.21,12.21,0,0,1,4,3.52V610.81h10.3v54.84h-8.75l-.88-4.67a12.66,12.66,0,0,1-4.25,4,11.22,11.22,0,0,1-5.63,1.39,12.87,12.87,0,0,1-10.88-5.13q-3.89-5.14-3.88-13.57Zm10.23.74a15.54,15.54,0,0,0,1.68,7.85,5.89,5.89,0,0,0,5.49,2.87,8,8,0,0,0,3.87-.9,7.06,7.06,0,0,0,2.7-2.62v-16.2a7.87,7.87,0,0,0-2.69-2.8,7.13,7.13,0,0,0-3.81-1,5.78,5.78,0,0,0-5.5,3.34,18.88,18.88,0,0,0-1.74,8.72Z" class="cls-3"/><path data-cppathid="10074" d="M396.56,618.51H386.3v-7.7h10.26Zm0,47.14H386.3v-38h10.26Z" class="cls-3"/><path data-cppathid="10075" d="M403.42,646.28q0-8.5,4.74-13.94t13.15-5.43q8.44,0,13.22,5.41t4.78,14V647q0,8.58-4.76,14t-13.17,5.4q-8.43,0-13.2-5.4t-4.76-14Zm10.23.74a16.54,16.54,0,0,0,1.83,8.35,7,7,0,0,0,11.72,0,16.45,16.45,0,0,0,1.85-8.33v-.74a16.19,16.19,0,0,0-1.87-8.26,6.31,6.31,0,0,0-5.87-3.2,6.22,6.22,0,0,0-5.82,3.22,16.4,16.4,0,0,0-1.84,8.24Z" class="cls-3"/><path data-cppathid="10076" d="M448.24,665.87l-1.94,7h-1.42l1.86-6.84v-4.76h1.5Z" class="cls-8"/><path data-cppathid="10077" d="M469.57,649.77q0-7.53,3.17-12a10.21,10.21,0,0,1,8.79-4.43,11.71,11.71,0,0,1,10.72,6.18V620h1.58V643.8a0,0,0,0,0,0,0v12.92a.16.16,0,0,0,0,.08v8.82h-1.52l-.06-4.89a11.25,11.25,0,0,1-4.34,4,13.46,13.46,0,0,1-6.44,1.48,10.27,10.27,0,0,1-8.75-4.28q-3.15-4.28-3.15-11.6Zm1.65.62q0,6.55,2.59,10.43a8.59,8.59,0,0,0,7.63,3.86,11.92,11.92,0,0,0,6.86-1.86,10.62,10.62,0,0,0,3.95-5v-15a13.23,13.23,0,0,0-3.71-5.64,10.19,10.19,0,0,0-7-2.27,8.52,8.52,0,0,0-7.66,4.11q-2.62,4.13-2.62,10.71Z" class="cls-8"/><path data-cppathid="10078" d="M515,666.27a12.14,12.14,0,0,1-9.44-4.34A15.84,15.84,0,0,1,501.68,651v-1.87a16.75,16.75,0,0,1,3.83-11.33,12.18,12.18,0,0,1,9.62-4.43,10.75,10.75,0,0,1,8.41,3.47q3.13,3.46,3.13,9.48v2.43h-23.4V651a14.68,14.68,0,0,0,3.28,9.74,10.46,10.46,0,0,0,8.43,3.94,14.58,14.58,0,0,0,5.47-1,11.61,11.61,0,0,0,4.26-2.81l.85,1.23a12.73,12.73,0,0,1-4.31,3A15.15,15.15,0,0,1,515,666.27Zm.15-31.32a10.51,10.51,0,0,0-8.07,3.41A13.91,13.91,0,0,0,503.5,647l.09.18h21.5v-1a12.17,12.17,0,0,0-2.66-8.07A9,9,0,0,0,515.13,635Z" class="cls-8"/><path data-cppathid="10079" d="M568.57,659.79a12.39,12.39,0,0,1-4.89,4.67,16,16,0,0,1-7.88,1.81,9.64,9.64,0,0,1-6.95-2.42,8.6,8.6,0,0,1-2.52-6.52,8,8,0,0,1,3.77-6.68,15.75,15.75,0,0,1,9.42-2.69h9.05v-4.63a7.75,7.75,0,0,0-2.54-6.17q-2.52-2.2-7.13-2.21A10.82,10.82,0,0,0,552,637a6.53,6.53,0,0,0-2.62,5.36l-1.32-.06-.06-.15a7.4,7.4,0,0,1,2.87-6.25,12.12,12.12,0,0,1,8.06-2.56,12.34,12.34,0,0,1,8.17,2.57c2.06,1.72,3.08,4.2,3.08,7.45v15.87a26.69,26.69,0,0,0,.19,3.26,21.16,21.16,0,0,0,.63,3.13h-1.76q-.37-2.08-.51-3.12a17.44,17.44,0,0,1-.13-2.24Zm-12.77,4.92a14.54,14.54,0,0,0,8-2.08,12.07,12.07,0,0,0,4.79-5.94v-7.12h-9a14.49,14.49,0,0,0-8.3,2.27q-3.39,2.26-3.39,5.61a6.87,6.87,0,0,0,2.16,5.23A8,8,0,0,0,555.8,664.71Z" class="cls-8"/><path data-cppathid="10080" d="M591.1,664.68a11.92,11.92,0,0,0,7.09-2.19,7.57,7.57,0,0,0,3.07-6.59h1.35l.06.17a8.66,8.66,0,0,1-3.41,7.43,12.91,12.91,0,0,1-8.16,2.77,11.46,11.46,0,0,1-9.51-4.37q-3.44-4.36-3.44-11.48v-1.23q0-7.1,3.43-11.46a11.35,11.35,0,0,1,9.46-4.36,12.47,12.47,0,0,1,8.33,2.88,9.75,9.75,0,0,1,3.3,8.13l-.06.18h-1.35a8.74,8.74,0,0,0-3-7.14A11,11,0,0,0,591,635q-5.56,0-8.44,4a17.17,17.17,0,0,0-2.87,10.26v1.23q0,6.33,2.87,10.29T591.1,664.68Z" class="cls-8"/><path data-cppathid="10081" d="M632,660.08a11,11,0,0,1-4.25,4.56,13,13,0,0,1-6.68,1.63,9.24,9.24,0,0,1-7.66-3.48q-2.78-3.46-2.77-10.76V634h1.58v18.14c0,4.29.79,7.47,2.37,9.52a7.69,7.69,0,0,0,6.42,3.07q4.83,0,7.49-2.35A11.1,11.1,0,0,0,632,656.1V634h1.61v18.66h.06c0,.26,0,.5,0,.74s0,.5,0,.82v11.48h-1.32Z" class="cls-8"/><path data-cppathid="10082" d="M654.73,666.27a12.17,12.17,0,0,1-9.45-4.34A15.83,15.83,0,0,1,641.43,651v-1.87a16.79,16.79,0,0,1,3.82-11.33,12.2,12.2,0,0,1,9.63-4.43,10.76,10.76,0,0,1,8.41,3.47q3.13,3.46,3.13,9.48v2.43H643V651a14.73,14.73,0,0,0,3.28,9.74,10.48,10.48,0,0,0,8.44,3.94,14.58,14.58,0,0,0,5.47-1,11.78,11.78,0,0,0,4.26-2.81l.85,1.23a12.83,12.83,0,0,1-4.31,3A15.22,15.22,0,0,1,654.73,666.27Zm.15-31.32a10.51,10.51,0,0,0-8.07,3.41,13.91,13.91,0,0,0-3.56,8.63l.08.18h21.51v-1a12.12,12.12,0,0,0-2.67-8.07A9,9,0,0,0,654.88,635Z" class="cls-8"/><path data-cppathid="10083" d="M688,635.09l-2-.17a9.17,9.17,0,0,0-6.9,2.74,13.41,13.41,0,0,0-3.44,7.22v20.77h-1.58V634h1.29l.29,5.51v1.08a11.45,11.45,0,0,1,3.93-5.28,10.6,10.6,0,0,1,6.41-1.89,7,7,0,0,1,1.25.1c.38.07.7.14,1,.22Z" class="cls-8"/><path data-cppathid="10084" d="M692.11,649.77q0-7.53,3.17-12a10.21,10.21,0,0,1,8.79-4.43,11.71,11.71,0,0,1,10.72,6.18V620h1.58V643.8a0,0,0,0,0,0,0v12.92a.16.16,0,0,0,0,.08v8.82h-1.52l-.06-4.89a11.25,11.25,0,0,1-4.34,4,13.46,13.46,0,0,1-6.44,1.48,10.27,10.27,0,0,1-8.75-4.28q-3.15-4.28-3.15-11.6Zm1.64.62q0,6.55,2.6,10.43a8.59,8.59,0,0,0,7.63,3.86,11.87,11.87,0,0,0,6.85-1.86,10.58,10.58,0,0,0,4-5v-15a13.23,13.23,0,0,0-3.71-5.64,10.19,10.19,0,0,0-7-2.27,8.52,8.52,0,0,0-7.66,4.11q-2.62,4.13-2.63,10.71Z" class="cls-8"/><path data-cppathid="10085" d="M723.93,649.19q0-7,3.85-11.4a13.57,13.57,0,0,1,20,0q3.85,4.43,3.85,11.4v1.23q0,7-3.85,11.42a13.52,13.52,0,0,1-20,0q-3.87-4.43-3.87-11.42Zm1.58,1.23a15.65,15.65,0,0,0,3.34,10.12,11,11,0,0,0,9,4.14,10.8,10.8,0,0,0,8.9-4.16,15.6,15.6,0,0,0,3.34-10.1v-1.23a15.55,15.55,0,0,0-3.37-10,11.6,11.6,0,0,0-17.87,0,15.7,15.7,0,0,0-3.34,10Z" class="cls-8"/><path data-cppathid="10086" d="M793.51,659.79a12.26,12.26,0,0,1-4.89,4.67,16,16,0,0,1-7.88,1.81,9.64,9.64,0,0,1-7-2.42,8.6,8.6,0,0,1-2.52-6.52,8,8,0,0,1,3.77-6.68,15.75,15.75,0,0,1,9.42-2.69h9v-4.63a7.74,7.74,0,0,0-2.53-6.17q-2.54-2.2-7.14-2.21a10.82,10.82,0,0,0-6.93,2.08,6.56,6.56,0,0,0-2.62,5.36l-1.32-.06-.05-.15a7.35,7.35,0,0,1,2.87-6.25,12.07,12.07,0,0,1,8.05-2.56,12.37,12.37,0,0,1,8.18,2.57q3.08,2.58,3.07,7.45v15.87a28.85,28.85,0,0,0,.19,3.26,21.16,21.16,0,0,0,.63,3.13h-1.75c-.26-1.39-.43-2.43-.52-3.12a17.44,17.44,0,0,1-.13-2.24Zm-12.77,4.92a14.54,14.54,0,0,0,8-2.08,12,12,0,0,0,4.79-5.94v-7.12h-9a14.52,14.52,0,0,0-8.31,2.27c-2.26,1.51-3.38,3.38-3.38,5.61a6.86,6.86,0,0,0,2.15,5.23A8,8,0,0,0,780.74,664.71Z" class="cls-8"/><path data-cppathid="10087" d="M821.61,665.65H820V620h1.59Z" class="cls-8"/><path data-cppathid="10088" d="M851.9,659.79a12.32,12.32,0,0,1-4.89,4.67,16,16,0,0,1-7.88,1.81,9.64,9.64,0,0,1-7-2.42,8.6,8.6,0,0,1-2.52-6.52,8,8,0,0,1,3.77-6.68,15.75,15.75,0,0,1,9.42-2.69h9v-4.63a7.78,7.78,0,0,0-2.53-6.17q-2.54-2.2-7.14-2.21A10.82,10.82,0,0,0,835.3,637a6.53,6.53,0,0,0-2.62,5.36l-1.32-.06-.06-.15a7.4,7.4,0,0,1,2.87-6.25,12.12,12.12,0,0,1,8.06-2.56,12.38,12.38,0,0,1,8.18,2.57q3.08,2.58,3.07,7.45v15.87a26.69,26.69,0,0,0,.19,3.26,21.16,21.16,0,0,0,.63,3.13h-1.76q-.37-2.08-.51-3.12a17.44,17.44,0,0,1-.13-2.24Zm-12.77,4.92a14.54,14.54,0,0,0,8-2.08,12.07,12.07,0,0,0,4.79-5.94v-7.12h-9a14.49,14.49,0,0,0-8.3,2.27c-2.26,1.51-3.38,3.38-3.38,5.61a6.86,6.86,0,0,0,2.15,5.23A8,8,0,0,0,839.13,664.71Z" class="cls-8"/><path data-cppathid="10089" d="M175.12,704.36H165v-7.59h10.12Zm0,46.49H165V713.34h10.12Z" class="cls-4"/><path data-cppathid="10090" d="M192.83,713.34l.42,5a12.62,12.62,0,0,1,4.52-4.18,13.08,13.08,0,0,1,6.3-1.47,11.49,11.49,0,0,1,6.17,1.59,9.88,9.88,0,0,1,3.88,4.82,13,13,0,0,1,4.51-4.71,12.16,12.16,0,0,1,6.52-1.7,10.7,10.7,0,0,1,8.75,3.93q3.21,3.95,3.21,12v22.26H227V728.56c0-3-.46-5.1-1.38-6.27a4.93,4.93,0,0,0-4.13-1.77,7.06,7.06,0,0,0-3.73,1,7,7,0,0,0-2.51,2.65c0,.44,0,.82,0,1.13s0,.63,0,1v24.65H205.21V728.56q0-4.41-1.39-6.22a4.88,4.88,0,0,0-4.16-1.82,7.8,7.8,0,0,0-3.58.78,6.85,6.85,0,0,0-2.55,2.2v27.35H183.44V713.34Z" class="cls-4"/><path data-cppathid="10091" d="M278.71,733.14q0,8.31-3.85,13.38a12.75,12.75,0,0,1-10.75,5.06,12,12,0,0,1-5.23-1.09,10.78,10.78,0,0,1-3.92-3.21v18H244.87V713.34H254l.59,4.44a12,12,0,0,1,4-3.8,10.83,10.83,0,0,1,5.46-1.33,12.48,12.48,0,0,1,10.82,5.44q3.84,5.45,3.85,14.32Zm-10.13-.73a18.15,18.15,0,0,0-1.76-8.6,5.78,5.78,0,0,0-5.41-3.29,7.66,7.66,0,0,0-3.9.93,6.7,6.7,0,0,0-2.55,2.67v16.43a6.09,6.09,0,0,0,2.55,2.43,8.51,8.51,0,0,0,4,.83,5.82,5.82,0,0,0,5.39-2.87,15.24,15.24,0,0,0,1.71-7.8Z" class="cls-4"/><path data-cppathid="10092" d="M283.39,731.75q0-8.38,4.68-13.75t13-5.35q8.33,0,13,5.34t4.71,13.76v.73q0,8.46-4.69,13.78t-13,5.32q-8.31,0-13-5.32t-4.7-13.78Zm10.09.73a16.33,16.33,0,0,0,1.8,8.23,6.93,6.93,0,0,0,11.56,0,16.21,16.21,0,0,0,1.82-8.21v-.73a16,16,0,0,0-1.84-8.15,6.21,6.21,0,0,0-5.79-3.15,6.12,6.12,0,0,0-5.73,3.17,16.1,16.1,0,0,0-1.82,8.13Z" class="cls-4"/><path data-cppathid="10093" d="M344.75,722l-3.71-.1a6.7,6.7,0,0,0-3.71.94,5.93,5.93,0,0,0-2.22,2.63v25.34H325V713.34h9.4l.45,5.55a11.92,11.92,0,0,1,3.41-4.6,7.66,7.66,0,0,1,4.84-1.64,7.53,7.53,0,0,1,1.4.12c.43.08.87.18,1.3.29Z" class="cls-4"/><path data-cppathid="10094" d="M362.74,704.15v9.19h6.35v7.11h-6.35v19.1a4.36,4.36,0,0,0,.92,3.12,3.25,3.25,0,0,0,2.41.94,9.44,9.44,0,0,0,1.39-.09,12.19,12.19,0,0,0,1.35-.3l.83,7.32a19.69,19.69,0,0,1-3,.78,18,18,0,0,1-3.14.26q-5.24,0-8.06-2.88c-1.88-1.92-2.83-5-2.83-9.12V720.45h-5.47v-7.11h5.47v-9.19Z" class="cls-4"/><path data-cppathid="10095" d="M397.45,750.85a21.45,21.45,0,0,1-1-2.7,20.23,20.23,0,0,1-.57-2.91,13.93,13.93,0,0,1-4.13,4.54,10.34,10.34,0,0,1-6.1,1.8q-5.9,0-9.08-3a10.87,10.87,0,0,1-3.19-8.27,9.9,9.9,0,0,1,4.25-8.55q4.24-3,12.39-3h5.69v-3a5.88,5.88,0,0,0-1.42-4.2A5.6,5.6,0,0,0,390.1,720a5.48,5.48,0,0,0-3.8,1.2A4.18,4.18,0,0,0,385,724.5h-9.74l-.07-.2q-.24-4.75,4.15-8.2t11.45-3.45q6.76,0,10.94,3.39t4.18,9.75v15.49a28.89,28.89,0,0,0,.4,5,24.86,24.86,0,0,0,1.26,4.61Zm-9.26-6.76a8.57,8.57,0,0,0,4.71-1.32,7,7,0,0,0,2.85-3v-5.3h-5.69a6.75,6.75,0,0,0-4.87,1.59,5.25,5.25,0,0,0-1.65,3.92,3.9,3.9,0,0,0,1.23,3A4.84,4.84,0,0,0,388.19,744.09Z" class="cls-4"/><path data-cppathid="10096" d="M422.72,713.34l.45,5.37a13.84,13.84,0,0,1,4.61-4.47,12,12,0,0,1,6.14-1.59,11.17,11.17,0,0,1,8.87,3.65Q446,720,446,727.87v23H435.82v-23q0-4-1.4-5.7a5.18,5.18,0,0,0-4.21-1.68,8.76,8.76,0,0,0-4,.85,7.6,7.6,0,0,0-2.83,2.34v27.14H413.29V713.34Z" class="cls-4"/><path data-cppathid="10097" d="M469.21,743.81a5.63,5.63,0,0,0,4.19-1.57A5.74,5.74,0,0,0,475,738h9.22l.07.21a11.7,11.7,0,0,1-4.23,9.52,15.81,15.81,0,0,1-10.81,3.83q-8.32,0-12.86-5.32t-4.55-13.61v-1q0-8.25,4.53-13.61t12.81-5.35q6.86,0,11.06,4a13.19,13.19,0,0,1,4.05,10.4l-.07.21H475a7.48,7.48,0,0,0-1.54-4.84,5.19,5.19,0,0,0-4.28-1.92,5.79,5.79,0,0,0-5.57,3.13,17.35,17.35,0,0,0-1.64,8v1a17.26,17.26,0,0,0,1.64,8.08A5.86,5.86,0,0,0,469.21,743.81Z" class="cls-4"/><path data-cppathid="10098" d="M500.79,704.36H490.67v-7.59h10.12Zm0,46.49H490.67V713.34h10.12Z" class="cls-4"/><path data-cppathid="10099" d="M531.23,750.85a20,20,0,0,1-1-2.7,19,19,0,0,1-.58-2.91,13.9,13.9,0,0,1-4.12,4.54,10.36,10.36,0,0,1-6.1,1.8q-5.9,0-9.09-3a10.91,10.91,0,0,1-3.19-8.27,9.9,9.9,0,0,1,4.25-8.55q4.24-3,12.39-3h5.69v-3a5.84,5.84,0,0,0-1.42-4.2,5.6,5.6,0,0,0-4.23-1.49,5.5,5.5,0,0,0-3.8,1.2,4.17,4.17,0,0,0-1.33,3.27H509l-.07-.2q-.24-4.75,4.14-8.2t11.46-3.45q6.75,0,10.94,3.39t4.17,9.75v15.49a29.93,29.93,0,0,0,.4,5,24.9,24.9,0,0,0,1.27,4.61ZM522,744.09a8.63,8.63,0,0,0,4.72-1.32,7.06,7.06,0,0,0,2.84-3v-5.3h-5.69A6.77,6.77,0,0,0,519,736a5.28,5.28,0,0,0-1.64,3.92,3.9,3.9,0,0,0,1.23,3A4.83,4.83,0,0,0,522,744.09Z" class="cls-4"/><path data-cppathid="10100" d="M584.65,722l-3.71-.1a6.7,6.7,0,0,0-3.71.94,5.93,5.93,0,0,0-2.22,2.63v25.34H564.93V713.34h9.39l.45,5.55a11.84,11.84,0,0,1,3.42-4.6,7.63,7.63,0,0,1,4.83-1.64,7.72,7.72,0,0,1,1.41.12c.42.08.86.18,1.3.29Z" class="cls-4"/><path data-cppathid="10101" d="M605.52,751.58q-8.38,0-13.1-5.15t-4.72-13.26v-1.39q0-8.41,4.58-13.79t12.58-5.34q7.56,0,11.6,4.63t4,12.46V735H598.14l-.1.21a10.09,10.09,0,0,0,2.34,6.24c1.39,1.6,3.47,2.39,6.22,2.39a20.91,20.91,0,0,0,5.77-.69,24,24,0,0,0,4.91-2.11l2.73,6.24a18.77,18.77,0,0,1-6.1,3.08A27.09,27.09,0,0,1,605.52,751.58Zm-.66-31.13a5.62,5.62,0,0,0-4.69,2.09,10.53,10.53,0,0,0-2,5.57l.07.17h12.34v-.76a8.75,8.75,0,0,0-1.35-5.18A5,5,0,0,0,604.86,720.45Z" class="cls-4"/><path data-cppathid="10102" d="M637,750.85H626.91V696.77H637Z" class="cls-4"/><path data-cppathid="10103" d="M667.47,750.85a21.43,21.43,0,0,1-1-2.7,17.83,17.83,0,0,1-.57-2.91,13.93,13.93,0,0,1-4.13,4.54,10.34,10.34,0,0,1-6.1,1.8q-5.9,0-9.08-3a10.87,10.87,0,0,1-3.19-8.27,9.87,9.87,0,0,1,4.25-8.55q4.24-3,12.39-3h5.69v-3a5.84,5.84,0,0,0-1.43-4.2,5.57,5.57,0,0,0-4.23-1.49,5.47,5.47,0,0,0-3.79,1.2A4.18,4.18,0,0,0,655,724.5h-9.74l-.07-.2q-.24-4.75,4.15-8.2t11.45-3.45q6.76,0,10.94,3.39t4.18,9.75v15.49a28.89,28.89,0,0,0,.4,5,24.11,24.11,0,0,0,1.26,4.61Zm-9.25-6.76a8.62,8.62,0,0,0,4.71-1.32,7,7,0,0,0,2.85-3v-5.3h-5.69a6.75,6.75,0,0,0-4.87,1.59,5.25,5.25,0,0,0-1.65,3.92,3.9,3.9,0,0,0,1.23,3A4.84,4.84,0,0,0,658.22,744.09Z" class="cls-4"/><path data-cppathid="10104" d="M695.62,704.15v9.19H702v7.11h-6.35v19.1a4.36,4.36,0,0,0,.92,3.12,3.26,3.26,0,0,0,2.41.94,9.35,9.35,0,0,0,1.39-.09,12.19,12.19,0,0,0,1.35-.3l.83,7.32a19.38,19.38,0,0,1-3,.78,18,18,0,0,1-3.14.26q-5.24,0-8.06-2.88t-2.82-9.12V720.45h-5.48v-7.11h5.48v-9.19Z" class="cls-4"/><path data-cppathid="10105" d="M718.85,704.36H708.73v-7.59h10.12Zm0,46.49H708.73V713.34h10.12Z" class="cls-4"/><path data-cppathid="10106" d="M740.73,736.88l.66,3.47h.2l.7-3.47,6.17-23.54H759l-12.76,37.51H736.6l-12.76-37.51h10.58Z" class="cls-4"/><path data-cppathid="10107" d="M785,750.85a21.43,21.43,0,0,1-.95-2.7,17.83,17.83,0,0,1-.57-2.91,13.93,13.93,0,0,1-4.13,4.54,10.34,10.34,0,0,1-6.1,1.8q-5.89,0-9.08-3a10.87,10.87,0,0,1-3.19-8.27,9.89,9.89,0,0,1,4.24-8.55q4.26-3,12.4-3h5.68v-3a5.84,5.84,0,0,0-1.42-4.2,5.59,5.59,0,0,0-4.23-1.49,5.47,5.47,0,0,0-3.79,1.2,4.18,4.18,0,0,0-1.34,3.27h-9.74l-.07-.2q-.24-4.75,4.14-8.2t11.46-3.45q6.76,0,10.94,3.39t4.18,9.75v15.49a28.89,28.89,0,0,0,.4,5,24.11,24.11,0,0,0,1.26,4.61Zm-9.25-6.76a8.62,8.62,0,0,0,4.71-1.32,7,7,0,0,0,2.84-3v-5.3h-5.68a6.75,6.75,0,0,0-4.87,1.59,5.25,5.25,0,0,0-1.65,3.92,3.9,3.9,0,0,0,1.23,3A4.84,4.84,0,0,0,775.78,744.09Z" class="cls-4"/><path data-cppathid="10108" d="M817.18,735q0-7.53,3.16-12a10.21,10.21,0,0,1,8.79-4.43,11.71,11.71,0,0,1,10.72,6.18v-19.6h1.58V729a0,0,0,0,0,0,0V742a.16.16,0,0,0,0,.08v8.82h-1.52l-.06-4.89a11.29,11.29,0,0,1-4.33,4,13.53,13.53,0,0,1-6.45,1.48,10.25,10.25,0,0,1-8.74-4.28q-3.15-4.28-3.15-11.6Zm1.64.62q0,6.55,2.59,10.43a8.59,8.59,0,0,0,7.63,3.86A11.9,11.9,0,0,0,835.9,748a10.62,10.62,0,0,0,4-5v-15a13.22,13.22,0,0,0-3.7-5.64,10.21,10.21,0,0,0-7-2.27,8.53,8.53,0,0,0-7.66,4.11q-2.62,4.13-2.62,10.71Z" class="cls-8"/><path data-cppathid="10109" d="M862.59,751.47a12.17,12.17,0,0,1-9.45-4.34,15.83,15.83,0,0,1-3.85-10.93v-1.87A16.74,16.74,0,0,1,853.11,723a12.19,12.19,0,0,1,9.62-4.43,10.75,10.75,0,0,1,8.41,3.47q3.14,3.47,3.14,9.48V734H850.87v2.25a14.68,14.68,0,0,0,3.28,9.74,10.48,10.48,0,0,0,8.44,3.94,14.57,14.57,0,0,0,5.46-1,11.61,11.61,0,0,0,4.26-2.81l.85,1.23a12.78,12.78,0,0,1-4.3,3A15.22,15.22,0,0,1,862.59,751.47Zm.14-31.32a10.51,10.51,0,0,0-8.07,3.41,14,14,0,0,0-3.56,8.63l.09.18h21.5v-1a12.11,12.11,0,0,0-2.66-8.07A9,9,0,0,0,862.73,720.15Z" class="cls-8"/><path data-cppathid="10110" d="M883.89,750.85H882.3v-45.7h1.59Z" class="cls-8"/><path data-cppathid="10111" d="M164.17,807q0-7.53,3.16-12a10.21,10.21,0,0,1,8.79-4.43,11.71,11.71,0,0,1,10.72,6.18v-19.6h1.59V801a0,0,0,0,0,0,0V814a.16.16,0,0,0,0,.08v8.82H186.9l-.06-4.89a11.29,11.29,0,0,1-4.33,4,13.53,13.53,0,0,1-6.45,1.48,10.25,10.25,0,0,1-8.74-4.28q-3.15-4.28-3.15-11.6Zm1.64.62q0,6.55,2.59,10.43a8.59,8.59,0,0,0,7.63,3.86,11.9,11.9,0,0,0,6.86-1.86,10.56,10.56,0,0,0,4-5v-15a13.22,13.22,0,0,0-3.7-5.64,10.21,10.21,0,0,0-7-2.27,8.53,8.53,0,0,0-7.66,4.11q-2.62,4.13-2.62,10.71Z" class="cls-8"/><path data-cppathid="10112" d="M218.37,817a12.44,12.44,0,0,1-4.9,4.68,16,16,0,0,1-7.88,1.8,9.61,9.61,0,0,1-6.94-2.42,8.6,8.6,0,0,1-2.52-6.52,8,8,0,0,1,3.77-6.68,15.7,15.7,0,0,1,9.41-2.69h9.06v-4.63a7.75,7.75,0,0,0-2.54-6.17c-1.69-1.47-4.06-2.21-7.13-2.21a10.82,10.82,0,0,0-6.93,2.08,6.53,6.53,0,0,0-2.62,5.36l-1.32-.06-.06-.15a7.38,7.38,0,0,1,2.87-6.25,12.1,12.1,0,0,1,8.06-2.56,12.34,12.34,0,0,1,8.17,2.57q3.07,2.58,3.08,7.45v15.87a26.69,26.69,0,0,0,.19,3.26,21.16,21.16,0,0,0,.63,3.13H219q-.37-2.08-.51-3.12a17.44,17.44,0,0,1-.13-2.24Zm-12.78,4.92a14.55,14.55,0,0,0,8-2.08,12.12,12.12,0,0,0,4.79-5.94v-7.12h-9a14.49,14.49,0,0,0-8.3,2.27q-3.39,2.26-3.39,5.61a6.87,6.87,0,0,0,2.16,5.23A8,8,0,0,0,205.59,821.91Z" class="cls-8"/><path data-cppathid="10113" d="M233.43,782.6v8.55h7.79v1.61h-7.79v21.92q0,3.9,1.31,5.55a4.24,4.24,0,0,0,3.49,1.65c.53,0,1,0,1.41,0s1-.11,1.7-.21l.29,1.44a8.55,8.55,0,0,1-1.52.32,16.08,16.08,0,0,1-1.79.09,5.84,5.84,0,0,1-4.85-2.08c-1.1-1.39-1.66-3.63-1.66-6.71V792.76H226v-1.61h5.85V782.6Z" class="cls-8"/><path data-cppathid="10114" d="M246.2,806.39q0-7,3.85-11.4a13.57,13.57,0,0,1,20,0q3.86,4.43,3.85,11.4v1.23q0,7-3.85,11.42a13.52,13.52,0,0,1-20,0q-3.87-4.42-3.87-11.42Zm1.58,1.23a15.6,15.6,0,0,0,3.34,10.12,11,11,0,0,0,9,4.14,10.82,10.82,0,0,0,8.9-4.16,15.6,15.6,0,0,0,3.34-10.1v-1.23a15.55,15.55,0,0,0-3.37-10,11.6,11.6,0,0,0-17.87,0,15.64,15.64,0,0,0-3.34,10Z" class="cls-8"/><path data-cppathid="10115" d="M307,823.47a12.17,12.17,0,0,1-9.45-4.34,15.83,15.83,0,0,1-3.85-10.93v-1.87A16.74,16.74,0,0,1,297.51,795a12.2,12.2,0,0,1,9.63-4.43,10.74,10.74,0,0,1,8.4,3.47q3.13,3.47,3.14,9.48V806H295.27v2.25a14.73,14.73,0,0,0,3.28,9.74,10.48,10.48,0,0,0,8.44,3.94,14.53,14.53,0,0,0,5.46-1,11.73,11.73,0,0,0,4.27-2.81l.85,1.23a12.83,12.83,0,0,1-4.31,3A15.22,15.22,0,0,1,307,823.47Zm.15-31.32a10.49,10.49,0,0,0-8.07,3.41,13.91,13.91,0,0,0-3.56,8.63l.08.18H317.1v-1a12.12,12.12,0,0,0-2.67-8.07A9,9,0,0,0,307.14,792.15Z" class="cls-8"/><path data-cppathid="10116" d="M327.67,791.15l.21,6.39a11.64,11.64,0,0,1,4.22-5.14,11.94,11.94,0,0,1,6.77-1.83c3.45,0,6.05,1.09,7.77,3.26s2.6,5.63,2.6,10.36v18.66h-1.59V804.13q0-6.58-2.35-9.29a8.11,8.11,0,0,0-6.41-2.69c-3.32,0-5.85,1-7.61,2.9a14.11,14.11,0,0,0-3.37,7.47v20.33h-1.58V806.62h-.09c0-.37,0-.75,0-1.13s0-.76.08-1.15V791.15Z" class="cls-8"/><path data-cppathid="10117" d="M375.49,822.85H373.9v-45.7h1.59Z" class="cls-8"/><path data-cppathid="10118" d="M405.78,817a12.41,12.41,0,0,1-4.89,4.68,16.07,16.07,0,0,1-7.88,1.8,9.64,9.64,0,0,1-6.95-2.42,8.6,8.6,0,0,1-2.52-6.52,8,8,0,0,1,3.77-6.68,15.75,15.75,0,0,1,9.42-2.69h9v-4.63a7.78,7.78,0,0,0-2.53-6.17q-2.53-2.21-7.14-2.21a10.82,10.82,0,0,0-6.93,2.08,6.53,6.53,0,0,0-2.62,5.36l-1.32-.06-.06-.15a7.4,7.4,0,0,1,2.87-6.25,12.12,12.12,0,0,1,8.06-2.56,12.38,12.38,0,0,1,8.18,2.57q3.07,2.58,3.07,7.45v15.87a26.69,26.69,0,0,0,.19,3.26,21.16,21.16,0,0,0,.63,3.13h-1.76q-.37-2.08-.51-3.12a17.44,17.44,0,0,1-.13-2.24ZM393,821.91a14.54,14.54,0,0,0,8-2.08,12.07,12.07,0,0,0,4.79-5.94v-7.12h-9a14.49,14.49,0,0,0-8.3,2.27q-3.39,2.26-3.39,5.61a6.87,6.87,0,0,0,2.16,5.23A8,8,0,0,0,393,821.91Z" class="cls-8"/><path data-cppathid="10119" d="M448.28,818.4a10.24,10.24,0,0,1-3.53,3.73,9.39,9.39,0,0,1-5,1.31,9.16,9.16,0,0,1-7.45-3.23q-2.69-3.23-2.69-10V792.74h8.1v17.5c0,2.64.36,4.44,1.07,5.42a3.88,3.88,0,0,0,3.33,1.46,8.06,8.06,0,0,0,3.34-.63,5.57,5.57,0,0,0,2.28-1.85v-21.9h8.13v30.11h-6.74Z" class="cls-5"/><path data-cppathid="10120" d="M469.43,792.74l.37,4.31a10.92,10.92,0,0,1,3.7-3.59,9.6,9.6,0,0,1,4.92-1.28,9,9,0,0,1,7.13,2.94q2.56,2.94,2.56,9.28v18.45H480V804.43c0-2.16-.37-3.68-1.12-4.58a4.15,4.15,0,0,0-3.38-1.35,7.16,7.16,0,0,0-3.19.68,6.22,6.22,0,0,0-2.27,1.88v21.79h-8.13V792.74Z" class="cls-5"/><path data-cppathid="10121" d="M502.72,785.53h-8.13v-6.1h8.13Zm0,37.32h-8.13V792.74h8.13Z" class="cls-5"/><path data-cppathid="10122" d="M508.15,808q0-7.12,3.07-11.49a10,10,0,0,1,8.67-4.37,8.56,8.56,0,0,1,4.07,1,9.82,9.82,0,0,1,3.17,2.79V779.43h8.15v43.42h-6.93l-.69-3.7a10.2,10.2,0,0,1-3.37,3.19,8.92,8.92,0,0,1-4.45,1.1,10.2,10.2,0,0,1-8.62-4.07q-3.08-4.07-3.07-10.74Zm8.1.59a12.28,12.28,0,0,0,1.33,6.22,4.66,4.66,0,0,0,4.35,2.27,6.4,6.4,0,0,0,3.06-.71,5.68,5.68,0,0,0,2.14-2.08V801.5a6.37,6.37,0,0,0-2.13-2.21,5.64,5.64,0,0,0-3-.79,4.58,4.58,0,0,0-4.35,2.64,15,15,0,0,0-1.38,6.9Z" class="cls-5"/><path data-cppathid="10123" d="M559.33,822.85a15.84,15.84,0,0,1-.76-2.17,14,14,0,0,1-.46-2.34,11.17,11.17,0,0,1-3.32,3.65,8.31,8.31,0,0,1-4.89,1.45c-3.16,0-5.59-.82-7.3-2.44a8.74,8.74,0,0,1-2.56-6.64,8,8,0,0,1,3.41-6.86q3.42-2.43,9.95-2.43H558v-2.4a4.67,4.67,0,0,0-1.14-3.36,4.49,4.49,0,0,0-3.4-1.2,4.43,4.43,0,0,0-3,1,3.37,3.37,0,0,0-1.07,2.63h-7.82l0-.17a7.63,7.63,0,0,1,3.32-6.58,14.42,14.42,0,0,1,9.2-2.77,13.47,13.47,0,0,1,8.78,2.73c2.24,1.82,3.35,4.42,3.35,7.82v12.44a23.86,23.86,0,0,0,.32,4,20.79,20.79,0,0,0,1,3.7Zm-7.43-5.43a7,7,0,0,0,3.79-1,5.73,5.73,0,0,0,2.28-2.45v-4.26H553.4a5.43,5.43,0,0,0-3.91,1.28,4.2,4.2,0,0,0-1.32,3.14,3.13,3.13,0,0,0,1,2.44A3.92,3.92,0,0,0,551.9,817.42Z" class="cls-5"/><path data-cppathid="10124" d="M570.94,808q0-7.12,3.07-11.49a10,10,0,0,1,8.67-4.37,8.56,8.56,0,0,1,4.07,1,9.82,9.82,0,0,1,3.17,2.79V779.43h8.15v43.42h-6.93l-.69-3.7a10.2,10.2,0,0,1-3.37,3.19,8.92,8.92,0,0,1-4.45,1.1,10.19,10.19,0,0,1-8.62-4.07q-3.07-4.07-3.07-10.74Zm8.1.59a12.28,12.28,0,0,0,1.33,6.22,4.66,4.66,0,0,0,4.34,2.27,6.41,6.41,0,0,0,3.07-.71,5.68,5.68,0,0,0,2.14-2.08V801.5a6.37,6.37,0,0,0-2.13-2.21,5.64,5.64,0,0,0-3-.79,4.57,4.57,0,0,0-4.35,2.64A15,15,0,0,0,579,808Z" class="cls-5"/><path data-cppathid="10125" d="M617.31,808q0-7.12,3.07-11.49a10,10,0,0,1,8.67-4.37,8.58,8.58,0,0,1,4.07,1,9.82,9.82,0,0,1,3.17,2.79V779.43h8.15v43.42h-6.93l-.69-3.7a10.2,10.2,0,0,1-3.37,3.19,8.92,8.92,0,0,1-4.45,1.1,10.19,10.19,0,0,1-8.62-4.07q-3.07-4.07-3.07-10.74Zm8.1.59a12.28,12.28,0,0,0,1.33,6.22,4.66,4.66,0,0,0,4.34,2.27,6.34,6.34,0,0,0,3.06-.71,5.64,5.64,0,0,0,2.15-2.08V801.5a6.37,6.37,0,0,0-2.13-2.21,5.64,5.64,0,0,0-3-.79,4.59,4.59,0,0,0-4.36,2.64,15,15,0,0,0-1.37,6.9Z" class="cls-5"/><path data-cppathid="10126" d="M663.79,823.44q-6.75,0-10.52-4.14a15.1,15.1,0,0,1-3.79-10.64v-1.12a16.52,16.52,0,0,1,3.67-11.07q3.68-4.32,10.11-4.29,6.06,0,9.31,3.72t3.24,10v4.2H657.86l-.09.17a8.15,8.15,0,0,0,1.88,5,6.31,6.31,0,0,0,5,1.92,16.33,16.33,0,0,0,4.63-.56,18.77,18.77,0,0,0,3.94-1.69l2.2,5a15,15,0,0,1-4.9,2.47A21.63,21.63,0,0,1,663.79,823.44Zm-.53-25a4.48,4.48,0,0,0-3.77,1.69,8.4,8.4,0,0,0-1.61,4.46l.06.14h9.91v-.61a7,7,0,0,0-1.09-4.16A4,4,0,0,0,663.26,798.44Z" class="cls-5"/><path data-cppathid="10127" d="M702.17,792.74l.36,4.31a10.92,10.92,0,0,1,3.7-3.59,9.64,9.64,0,0,1,4.93-1.28,9,9,0,0,1,7.12,2.94q2.57,2.94,2.56,9.28v18.45h-8.15V804.43c0-2.16-.38-3.68-1.13-4.58a4.15,4.15,0,0,0-3.38-1.35,7.16,7.16,0,0,0-3.19.68,6.3,6.3,0,0,0-2.27,1.88v21.79H694.6V792.74Z" class="cls-5"/><path data-cppathid="10128" d="M740,823.44q-6.74,0-10.52-4.14a15.14,15.14,0,0,1-3.78-10.64v-1.12a16.47,16.47,0,0,1,3.67-11.07q3.67-4.32,10.1-4.29,6.08,0,9.31,3.72t3.24,10v4.2H734l-.08.17a8.15,8.15,0,0,0,1.88,5,6.29,6.29,0,0,0,5,1.92,16.41,16.41,0,0,0,4.64-.56A19,19,0,0,0,749.4,815l2.2,5a15,15,0,0,1-4.9,2.47A21.7,21.7,0,0,1,740,823.44Zm-.53-25a4.5,4.5,0,0,0-3.77,1.69,8.48,8.48,0,0,0-1.6,4.46l.06.14H744v-.61a7.06,7.06,0,0,0-1.09-4.16A4,4,0,0,0,739.43,798.44Z" class="cls-5"/><path data-cppathid="10129" d="M755.52,808q0-7.12,3.09-11.49a10,10,0,0,1,8.68-4.37,8.6,8.6,0,0,1,4.46,1.14,10,10,0,0,1,3.28,3.26l.64-3.84h7v30q0,5.88-3.85,9.09T768.1,835a20.21,20.21,0,0,1-4.84-.62,22.91,22.91,0,0,1-4.74-1.71l1.37-6.07a19.14,19.14,0,0,0,3.85,1.35,19.48,19.48,0,0,0,4.3.46A7.34,7.34,0,0,0,773,827a5.55,5.55,0,0,0,1.57-4.35V820a9,9,0,0,1-3.15,2.58,9.17,9.17,0,0,1-4.14.9,10.22,10.22,0,0,1-8.63-4.07q-3.09-4.07-3.09-10.74Zm8.13.59a12.39,12.39,0,0,0,1.32,6.22,4.62,4.62,0,0,0,4.33,2.27,6.8,6.8,0,0,0,3.16-.68,5.27,5.27,0,0,0,2.07-2V801.39a5.61,5.61,0,0,0-2.07-2.14,6.12,6.12,0,0,0-3.11-.75,4.56,4.56,0,0,0-4.34,2.64,15.1,15.1,0,0,0-1.36,6.9Z" class="cls-5"/><path data-cppathid="10130" d="M787.64,807.52a16.2,16.2,0,0,1,3.75-11q3.76-4.31,10.41-4.3t10.47,4.29a16.07,16.07,0,0,1,3.78,11v.58q0,6.79-3.77,11.06t-10.42,4.28q-6.68,0-10.45-4.28t-3.77-11.06Zm8.1.58a13.14,13.14,0,0,0,1.44,6.61,5,5,0,0,0,4.68,2.49,5,5,0,0,0,4.61-2.5,13.07,13.07,0,0,0,1.46-6.6v-.58a12.87,12.87,0,0,0-1.48-6.54,5,5,0,0,0-4.65-2.54,4.92,4.92,0,0,0-4.6,2.55,12.94,12.94,0,0,0-1.46,6.53Z" class="cls-5"/><path data-cppathid="10131" d="M833.64,817.2a4.53,4.53,0,0,0,3.37-1.26,4.61,4.61,0,0,0,1.25-3.39h7.41l.05.17a9.4,9.4,0,0,1-3.39,7.64,12.72,12.72,0,0,1-8.69,3.08q-6.67,0-10.32-4.28a16.23,16.23,0,0,1-3.65-10.92v-.84a16.36,16.36,0,0,1,3.63-10.92c2.43-2.87,5.85-4.3,10.29-4.3a12.46,12.46,0,0,1,8.88,3.17,10.61,10.61,0,0,1,3.25,8.35l-.05.17h-7.41A6,6,0,0,0,837,800a4.18,4.18,0,0,0-3.44-1.55,4.64,4.64,0,0,0-4.47,2.52,13.84,13.84,0,0,0-1.32,6.44v.84a13.76,13.76,0,0,0,1.32,6.48A4.69,4.69,0,0,0,833.64,817.2Z" class="cls-5"/><path data-cppathid="10132" d="M859,785.53h-8.13v-6.1H859Zm0,37.32h-8.13V792.74H859Z" class="cls-5"/><path data-cppathid="10133" d="M864.43,807.52a16.2,16.2,0,0,1,3.75-11q3.77-4.31,10.41-4.3c4.46,0,7.94,1.43,10.47,4.29a16.07,16.07,0,0,1,3.78,11v.58q0,6.79-3.77,11.06t-10.42,4.28q-6.67,0-10.45-4.28t-3.77-11.06Zm8.1.58a13.14,13.14,0,0,0,1.44,6.61,5,5,0,0,0,4.68,2.49,4.93,4.93,0,0,0,4.6-2.5,13,13,0,0,0,1.47-6.6v-.58a12.87,12.87,0,0,0-1.48-6.54,5,5,0,0,0-4.65-2.54A4.92,4.92,0,0,0,874,801a12.94,12.94,0,0,0-1.46,6.53Z" class="cls-5"/></svg>