<?xml version="1.0" encoding="UTF-8"?>
<svg xmlns="http://www.w3.org/2000/svg" onmouseup="{ if(window.parent.document.onmouseup) window.parent.document.onmouseup(arguments[0]);}" xml:space="preserve" style="enable-background:new 0 0 512 160;" viewBox="0 0 512 160" y="0px" x="0px" id="Capa_3" version="1.1" xmlns:xlink="http://www.w3.org/1999/xlink"><style type="text/css">
	.st0{clip-path:url(#SVGID_00000091009734717924911700000009378798468866629308_);}
	.st1{fill:none;}
	.st2{fill:#0099A8;}
	.st3{fill:#038389;}
	.st4{fill:#006868;}
	.st5{fill:#FFFFFF;}
	.st6{fill:#FFC600;}
	.st7{fill:#F7A800;}
	.st8{fill:#D88B03;}
	.st9{fill:#E75300;}
	.st10{fill:#EA680F;}
	.st11{fill:#621D19;}
</style><g><defs><rect data-cppathid="10000" height="160" width="512" id="SVGID_1_"/></defs><clipPath id="SVGID_00000155115633247863069670000003719322223967508637_"><use style="overflow:visible;" xlink:href="#SVGID_1_"/></clipPath><g style="clip-path:url(#SVGID_00000155115633247863069670000003719322223967508637_);"><rect data-cppathid="10001" height="160" width="512" class="st1" y="319.6" id="_Trazado_down_"/><rect data-cppathid="10002" height="160" width="512" class="st1" y="0.4" id="_Trazado_up_"/><polygon data-cppathid="10003" points="411.9,241.3 489.4,330.9 256.8,465.9 256.8,331.3   " class="st2"/><polygon data-cppathid="10004" points="256.8,331.3 256.8,465.9 22.6,330.9 100.6,241.3   " class="st3"/><polygon data-cppathid="10005" points="411.9,241.3 256.8,331.3 100.6,241.3 255.8,151.3   " class="st4"/><path data-cppathid="10006" d="M132.8,334.4c-3.1,12.4,1.7,27.4,10.8,33.5s18.9,1.1,22-11.3s-1.7-27.4-10.8-33.5S135.9,322,132.8,334.4z" class="st5"/><path data-cppathid="10007" d="M134.4,335.5c-2.8,11.1,1.5,24.6,9.6,30.1s16.9,1,19.7-10.1s-1.5-24.6-9.6-30.1S137.2,324.4,134.4,335.5z" class="st2"/><path data-cppathid="10008" d="M146.9,347.5c0.1,1.9-0.3,3.9-1.1,5.6c-0.6,1-1.9,1.4-2.9,0.8l0,0l-0.1-0.1c-1.5-0.8-2.6-2.2-3.1-3.8    c-0.8-2.1-1.2-4.4-1.2-6.7v-6.5c-0.1-1.9,0.3-3.9,1.1-5.6c0.6-1,1.9-1.4,2.9-0.8l0,0l0.2,0.1c1.5,0.8,2.6,2.2,3.1,3.8    c0.8,2.1,1.2,4.4,1.2,6.7L146.9,347.5z M144.9,339.5c0-1.5-0.2-2.9-0.6-4.3c-0.2-1-0.8-1.8-1.6-2.3c-0.7-0.4-1.2-0.1-1.6,0.7    c-0.5,1.2-0.7,2.5-0.6,3.8v7.4c0,1.5,0.2,3,0.6,4.4c0.2,1,0.8,1.8,1.6,2.3c0.7,0.4,1.2,0.1,1.6-0.7c0.4-1.2,0.7-2.5,0.6-3.8V339.5    z" class="st5"/><path data-cppathid="10009" d="M153.1,345.8c0.7,0.4,1.3,0.3,1.6-0.2c0.4-0.8,0.6-1.7,0.5-2.6c0-1.1-0.2-2.1-0.5-3.1    c-0.3-0.8-0.8-1.4-1.5-1.9c-0.5-0.3-1.2-0.2-1.5,0.3c-0.5,0.7-0.7,1.6-0.6,2.4l-2-1v-0.1c-0.1-1.4,0.2-2.7,1.1-3.8    c0.8-0.8,2.1-0.9,3-0.3c1.3,0.7,2.4,1.8,3,3.1c0.8,1.6,1.2,3.4,1.1,5.2c0,0.9-0.1,1.8-0.5,2.7c-0.3,0.6-0.8,1.1-1.4,1.3    c0.7,0.8,1.3,1.8,1.6,2.9c0.4,1.2,0.6,2.4,0.6,3.7c0,2.1-0.4,3.5-1.2,4.2c-0.8,0.8-2.2,0.9-3.1,0.2c-1.3-0.8-2.3-1.9-3-3.2    c-0.9-1.6-1.3-3.5-1.2-5.3v-0.1l2,1c0,1.1,0.2,2.2,0.6,3.2c0.3,0.8,0.9,1.5,1.6,2c0.5,0.4,1.1,0.3,1.5-0.1c0,0,0.1-0.1,0.1-0.2    l0,0c0.5-0.8,0.7-1.8,0.6-2.7c0-1.2-0.2-2.4-0.6-3.5c-0.3-0.8-1-1.5-1.8-1.9l-1.4-0.7v-2.4L153.1,345.8z" class="st5"/><polygon data-cppathid="10010" points="334.1,127.7 411.6,217.3 256.5,307.3 256.5,172.7   " class="st6"/><polygon data-cppathid="10011" points="256.5,172.7 256.5,307.3 100.4,217.3 178.4,127.7   " class="st7"/><polygon data-cppathid="10012" points="334.1,127.7 256.5,172.7 178.4,127.7 256,82.7   " class="st8"/><path data-cppathid="10013" d="M309.7,187.7c-9,6.1-13.9,21.1-10.8,33.5s12.9,17.4,22,11.3s13.9-21.2,10.8-33.5S318.8,181.6,309.7,187.7z" class="st5"/><path data-cppathid="10014" d="M310.3,190c-8.1,5.5-12.4,19-9.6,30.1s11.6,15.6,19.7,10.1s12.4-19,9.6-30.1S318.4,184.5,310.3,190z" class="st7"/><path data-cppathid="10015" d="M314.4,213.1c0,2-0.3,4.1-1,6c-0.4,1.4-1.4,2.7-2.6,3.5c-0.7,0.6-1.8,0.5-2.4-0.2l0,0    c-0.1-0.1-0.1-0.2-0.2-0.2c-0.8-1.5-1.1-3.1-1-4.8v-5.7c0-2,0.3-4.1,1-6c0.5-1.4,1.4-2.6,2.6-3.5c0.8-0.6,1.8-0.5,2.5,0.2    c0,0.1,0,0.1,0.1,0.2c0.8,1.5,1.1,3.1,1,4.8V213.1z M312.7,208c0.1-1.1-0.1-2.3-0.5-3.3c-0.1-0.5-0.6-0.8-1.1-0.6    c-0.1,0-0.2,0.1-0.3,0.1c-0.7,0.5-1.2,1.3-1.4,2.1c-0.3,1.3-0.5,2.6-0.4,3.9v6.5c-0.1,1.1,0.1,2.3,0.5,3.3    c0.1,0.5,0.6,0.8,1.1,0.6c0.1,0,0.2-0.1,0.3-0.1c0.7-0.5,1.2-1.3,1.4-2.1c0.3-1.2,0.5-2.5,0.5-3.8L312.7,208z" class="st5"/><path data-cppathid="10016" d="M323.3,214.9l-7,4.2v-1.8l3.4-9.4c0.5-1.2,0.9-2.5,1.2-3.8c0.2-0.9,0.3-1.7,0.3-2.6c0.1-0.8-0.1-1.5-0.4-2.2    c-0.2-0.4-0.8-0.5-1.1-0.2c0,0,0,0-0.1,0c-0.7,0.5-1.1,1.1-1.4,1.9c-0.3,1-0.5,2-0.5,3.1l-1.7,1V205c0-1.6,0.3-3.3,0.9-4.8    c0.5-1.3,1.4-2.5,2.6-3.3c1-0.6,1.9-0.6,2.4,0c0.7,1,1,2.2,0.9,3.4c0,1.2-0.2,2.4-0.5,3.6c-0.4,1.2-0.9,2.9-1.6,4.8l-2.4,6.9    l4.9-2.9L323.3,214.9z" class="st5"/><polygon data-cppathid="10017" points="256.2,14.1 256.2,148.7 178.2,103.7   " class="st9"/><polygon data-cppathid="10018" points="256.2,14.1 333.8,103.7 256.2,148.7   " class="st10"/><path data-cppathid="10019" d="M256.3,14.1" class="st11"/><path data-cppathid="10020" d="M214.3,80.7c-2.6,10.3,1.4,22.8,9,28s15.7,0.9,18.3-9.4s-1.4-22.8-9-28S216.9,70.4,214.3,80.7z" class="st5"/><path data-cppathid="10021" d="M215.7,81.6c-2.3,9.3,1.3,20.5,8,25.1s14.1,0.8,16.4-8.4s-1.2-20.5-8-25S218,72.4,215.7,81.6z" class="st10"/><path data-cppathid="10022" d="M227.2,92.8c0.1,1.5-0.2,2.9-0.9,4.2c-0.4,0.8-1.4,1-2.2,0.6c0,0,0,0,0,0l0,0l-0.1-0.1    c-1.1-0.6-1.9-1.7-2.3-2.9c-0.6-1.6-0.9-3.3-0.9-5v-4.9c-0.1-1.5,0.2-2.9,0.9-4.2c0.4-0.8,1.4-1,2.2-0.6c0,0,0,0,0,0L224,80    c1.1,0.6,1.9,1.7,2.3,2.9c0.6,1.6,0.9,3.3,0.9,5V92.8z M225.7,86.8c0-1.1-0.1-2.2-0.4-3.2c-0.2-0.7-0.6-1.4-1.2-1.8    c-0.5-0.3-0.9-0.1-1.2,0.5c-0.3,0.9-0.5,1.8-0.4,2.8v5.6c0,1.1,0.1,2.2,0.4,3.3c0.2,0.7,0.6,1.3,1.2,1.8c0.5,0.3,0.9,0.1,1.2-0.5    c0.3-0.9,0.5-1.8,0.4-2.8V86.8z" class="st5"/><path data-cppathid="10023" d="M232.9,101.8l-1.5-0.8V86l-2.1-0.9v-1.8l3.6,1.1V101.8z" class="st5"/></g></g></svg>