<?xml version="1.0" encoding="UTF-8"?>
<svg xmlns="http://www.w3.org/2000/svg" onmouseup="{ if(window.parent.document.onmouseup) window.parent.document.onmouseup(arguments[0]);}" xml:space="preserve" style="enable-background:new 0 0 512 160;" viewBox="0 0 512 160" y="0px" x="0px" id="Capa_3" version="1.1" xmlns:xlink="http://www.w3.org/1999/xlink"><style type="text/css">
	.st0{clip-path:url(#SVGID_00000008115096682999876230000004234598119007518398_);}
	.st1{fill:none;}
	.st2{fill:#0099A8;}
	.st3{fill:#038389;}
	.st4{fill:#006868;}
	.st5{fill:#FFFFFF;}
	.st6{fill:#FFC600;}
	.st7{fill:#F7A800;}
	.st8{fill:#D88B03;}
	.st9{fill:#E75300;}
	.st10{fill:#EA680F;}
	.st11{fill:#621D19;}
</style><g><g><defs><rect data-cppathid="10000" height="160" width="512" id="SVGID_1_"/></defs><clipPath id="SVGID_00000178914974260874259720000018401715105098190525_"><use style="overflow:visible;" xlink:href="#SVGID_1_"/></clipPath><g style="clip-path:url(#SVGID_00000178914974260874259720000018401715105098190525_);"><g><rect data-cppathid="10001" height="160" width="512" class="st1" y="159.6" id="_Trazado_down_"/><rect data-cppathid="10002" height="160" width="512" class="st1" y="-159.6" id="_Trazado_up_"/><polygon data-cppathid="10003" points="411.9,81.3 489.4,170.9 256.8,305.9 256.8,171.3     " class="st2"/><polygon data-cppathid="10004" points="256.8,171.3 256.8,305.9 22.6,170.9 100.6,81.3     " class="st3"/><polygon data-cppathid="10005" points="411.9,81.3 256.8,171.3 100.6,81.3 255.8,-8.7     " class="st4"/><path data-cppathid="10006" d="M132.8,174.4c-3.1,12.4,1.7,27.4,10.8,33.5s18.9,1.1,22-11.3s-1.7-27.4-10.8-33.5S135.9,162,132.8,174.4z" class="st5"/><path data-cppathid="10007" d="M134.4,175.5c-2.8,11.1,1.5,24.6,9.6,30.1s16.9,1,19.7-10.1s-1.5-24.6-9.6-30.1S137.2,164.4,134.4,175.5z" class="st2"/><path data-cppathid="10008" d="M146.9,187.5c0,2.6-0.4,4.4-1.1,5.6c-0.6,1-1.9,1.4-2.9,0.8l0,0l-0.1-0.1c-1.5-0.9-2.6-2.2-3.1-3.8      c-0.8-2.2-1.2-4.4-1.2-6.7v-6.5c0-2.6,0.4-4.4,1.1-5.6c0.6-1,1.9-1.4,2.9-0.8l0,0l0.2,0.1c1.5,0.9,2.6,2.2,3.1,3.8      c0.8,2.1,1.2,4.4,1.2,6.7L146.9,187.5z M144.9,179.5c0-1.5-0.2-2.9-0.6-4.3c-0.2-1-0.8-1.8-1.6-2.3c-0.7-0.4-1.2-0.1-1.6,0.7      c-0.5,1.2-0.7,2.5-0.6,3.8v7.4c0,1.5,0.2,3,0.6,4.4c0.2,1,0.8,1.8,1.6,2.3c0.7,0.4,1.2,0.1,1.6-0.7c0.5-1.2,0.6-2.5,0.6-3.8      V179.5z" class="st5"/><path data-cppathid="10009" d="M153.1,185.8c0.7,0.4,1.3,0.3,1.6-0.2c0.4-0.8,0.6-1.7,0.5-2.6c0-1-0.2-2.1-0.5-3.1      c-0.3-0.8-0.8-1.4-1.5-1.9c-0.5-0.3-1.2-0.2-1.5,0.3c-0.5,0.7-0.7,1.6-0.6,2.4l-2-1v-0.1c-0.2-1.4,0.3-2.7,1.1-3.8      c0.8-0.8,2.1-0.9,3-0.3c1.3,0.7,2.4,1.8,3,3.1c0.8,1.6,1.2,3.4,1.1,5.2c0,0.9-0.1,1.8-0.5,2.7c-0.3,0.6-0.8,1.1-1.4,1.3      c0.7,0.8,1.3,1.8,1.6,2.9c0.4,1.2,0.6,2.4,0.6,3.7c0,2.1-0.4,3.5-1.2,4.2c-0.9,0.8-2.1,0.9-3.1,0.2c-1.3-0.7-2.3-1.9-3-3.2      c-0.9-1.6-1.3-3.4-1.2-5.3v-0.1l2,1c0,1.1,0.2,2.2,0.6,3.2c0.3,0.8,0.9,1.5,1.6,2c0.5,0.4,1.3,0.3,1.6-0.3l0,0      c0.5-0.8,0.7-1.8,0.6-2.7c0-1.2-0.2-2.4-0.6-3.5c-0.3-0.8-1-1.5-1.8-1.9l-1.4-0.7v-2.4L153.1,185.8z" class="st5"/><polygon data-cppathid="10010" points="334.1,-32.3 411.6,57.3 256.5,147.3 256.5,12.7     " class="st6"/><polygon data-cppathid="10011" points="256.5,12.7 256.5,147.3 100.4,57.3 178.4,-32.3     " class="st7"/><polygon data-cppathid="10012" points="334.1,-32.3 256.5,12.7 178.4,-32.3 256,-77.3     " class="st8"/><path data-cppathid="10013" d="M309.7,27.7c-9,6.1-13.9,21.1-10.8,33.5s12.9,17.4,22,11.3s13.9-21.2,10.8-33.5S318.8,21.6,309.7,27.7z" class="st5"/><path data-cppathid="10014" d="M310.3,30c-8.1,5.5-12.4,19-9.6,30.1s11.6,15.6,19.7,10.1s12.4-19,9.6-30.1S318.4,24.5,310.3,30z" class="st7"/><path data-cppathid="10015" d="M314.4,53.1c0,2-0.3,4.1-1,6c-0.4,1.4-1.4,2.7-2.6,3.5c-0.7,0.6-1.8,0.5-2.4-0.2l0,0      c-0.1-0.1-0.1-0.2-0.2-0.2c-0.8-1.5-1.1-3.1-1-4.8v-5.7c0-2,0.3-4.1,1-6c0.5-1.4,1.4-2.7,2.6-3.5c0.7-0.6,1.8-0.5,2.5,0.2      c0,0.1,0.1,0.2,0.1,0.2c0.8,1.5,1.1,3.1,1,4.8V53.1z M312.7,48c0.1-1.1-0.1-2.2-0.5-3.3c-0.3-0.7-0.8-0.8-1.4-0.5      c-0.7,0.5-1.2,1.3-1.4,2.1c-0.3,1.3-0.5,2.6-0.4,3.9v6.5c-0.1,1.1,0.1,2.2,0.5,3.3c0.3,0.7,0.8,0.8,1.4,0.5      c0.7-0.5,1.2-1.3,1.4-2.1c0.3-1.3,0.5-2.5,0.5-3.8L312.7,48z" class="st5"/><path data-cppathid="10016" d="M323.3,54.9l-7,4.2v-1.8l3.4-9.4c0.5-1.2,0.9-2.5,1.2-3.8c0.2-0.8,0.3-1.7,0.3-2.6c0.1-0.8-0.1-1.5-0.4-2.2      c-0.3-0.4-0.7-0.5-1.2-0.2c-0.7,0.5-1.1,1.1-1.4,1.9c-0.3,1-0.5,2-0.5,3.1l-1.7,1V45c0-1.6,0.3-3.3,0.9-4.8      c0.5-1.3,1.4-2.5,2.6-3.3c1-0.6,1.9-0.6,2.4,0c0.7,1,1,2.2,0.9,3.4c0,1.2-0.2,2.4-0.5,3.6c-0.4,1.2-0.9,2.9-1.6,4.8l-2.4,6.9      l4.9-2.9L323.3,54.9z" class="st5"/><polygon data-cppathid="10017" points="256.2,-145.9 256.2,-11.3 178.2,-56.3     " class="st9"/><polygon data-cppathid="10018" points="256.2,-145.9 333.8,-56.3 256.2,-11.3     " class="st10"/><path data-cppathid="10019" d="M256.3-145.9L256.3-145.9L256.3-145.9z" class="st11"/><path data-cppathid="10020" d="M214.3-79.3c-2.6,10.3,1.4,22.8,9,28s15.7,0.9,18.3-9.4s-1.4-22.8-9-28S216.9-89.6,214.3-79.3z" class="st5"/><path data-cppathid="10021" d="M215.7-78.4c-2.3,9.3,1.3,20.5,8,25.1s14.1,0.8,16.4-8.4s-1.2-20.5-8-25S218-87.6,215.7-78.4z" class="st10"/><path data-cppathid="10022" d="M227.2-67.2c0.1,1.4-0.2,2.9-0.9,4.2c-0.4,0.8-1.4,1-2.2,0.6l0,0l0,0l-0.1-0.1c-1.1-0.6-1.9-1.7-2.3-2.9      c-0.6-1.6-0.9-3.3-0.9-5v-4.9c-0.1-1.4,0.2-2.9,0.9-4.2c0.4-0.8,1.4-1,2.2-0.6L224-80c1.1,0.6,1.9,1.7,2.3,2.9      c0.6,1.6,0.9,3.3,0.9,5V-67.2z M225.7-73.2c0-1.1-0.1-2.2-0.4-3.2c-0.2-0.7-0.6-1.4-1.2-1.8c-0.5-0.3-0.9-0.1-1.2,0.5      c-0.3,0.9-0.5,1.9-0.4,2.8v5.6c0,1.1,0.1,2.2,0.4,3.3c0.2,0.7,0.6,1.3,1.2,1.8c0.5,0.3,0.9,0.1,1.2-0.5c0.3-0.9,0.5-1.9,0.4-2.8      V-73.2z" class="st5"/><path data-cppathid="10023" d="M232.9-58.2l-1.5-0.8v-15l-2.1-0.9v-1.8l3.6,1.1V-58.2z" class="st5"/></g></g></g></g></svg>