<?xml version="1.0" encoding="UTF-8"?>
<svg xmlns="http://www.w3.org/2000/svg" onmouseup="{ if(window.parent.document.onmouseup) window.parent.document.onmouseup(arguments[0]);}" xml:space="preserve" style="enable-background:new 0 0 1156.82 1080;" viewBox="0 0 1156.82 1080" y="0px" x="0px" id="Layer_1" version="1.1" xmlns:xlink="http://www.w3.org/1999/xlink"><style type="text/css">
	.st0{fill:#333E48;}
	.st1{fill:#00FFD3;}
	.st2{fill:#FFFFFF;}
	.st3{fill:#F7A800;}
	.st4{fill:#0099A8;}
</style><g><rect data-cppathid="10000" height="1080" width="1156.82" class="st0"/></g><g><path data-cppathid="10001" d="M1104.43,22c16.75,0,30.39,13.63,30.39,30.39v975.23c0,16.75-13.63,30.39-30.39,30.39H52.39   c-16.75,0-30.39-13.63-30.39-30.39V52.39C22,35.63,35.63,22,52.39,22H1104.43 M1104.43,20H52.39C34.5,20,20,34.5,20,52.39v975.23   c0,17.89,14.5,32.39,32.39,32.39h1052.04c17.89,0,32.39-14.5,32.39-32.39V52.39C1136.82,34.5,1122.32,20,1104.43,20L1104.43,20z" class="st1"/></g><g><g><g><rect data-cppathid="10002" height="9.53" width="9.53" class="st1" transform="matrix(-1 -1.224647e-16 1.224647e-16 -1 347.2278 92.5796)" y="41.53" x="168.85"/><rect data-cppathid="10003" height="9.53" width="9.53" class="st1" transform="matrix(-1 -1.224647e-16 1.224647e-16 -1 310.5811 92.5796)" y="41.53" x="150.53"/><rect data-cppathid="10004" height="9.53" width="9.53" class="st1" transform="matrix(-1 -1.224647e-16 1.224647e-16 -1 273.9343 92.5796)" y="41.53" x="132.2"/><rect data-cppathid="10005" height="9.53" width="9.53" class="st1" transform="matrix(-1 -1.224647e-16 1.224647e-16 -1 237.2873 92.5796)" y="41.53" x="113.88"/><rect data-cppathid="10006" height="9.53" width="9.53" class="st1" transform="matrix(-1 -1.224647e-16 1.224647e-16 -1 200.6405 92.5796)" y="41.53" x="95.56"/><rect data-cppathid="10007" height="9.53" width="9.53" class="st1" transform="matrix(-1 -1.224647e-16 1.224647e-16 -1 163.9937 92.5796)" y="41.53" x="77.23"/><rect data-cppathid="10008" height="9.53" width="9.53" class="st1" transform="matrix(-1 -1.224647e-16 1.224647e-16 -1 163.9937 129.2264)" y="59.85" x="77.23"/><rect data-cppathid="10009" height="9.53" width="9.53" class="st1" transform="matrix(-1 -1.224647e-16 1.224647e-16 -1 200.6405 129.2264)" y="59.85" x="95.56"/><rect data-cppathid="10010" height="9.53" width="9.53" class="st1" transform="matrix(-1 -1.224647e-16 1.224647e-16 -1 163.9937 165.8732)" y="78.17" x="77.23"/><rect data-cppathid="10011" height="9.53" width="9.53" class="st1" transform="matrix(-1 -1.224647e-16 1.224647e-16 -1 127.3469 92.5796)" y="41.53" x="58.91"/><rect data-cppathid="10012" height="9.53" width="9.53" class="st1" transform="matrix(-1 -1.224647e-16 1.224647e-16 -1 90.7001 92.5796)" y="41.53" x="40.59"/><rect data-cppathid="10013" height="9.53" width="9.53" class="st1" transform="matrix(6.123234e-17 -1 1 6.123234e-17 -129.2037 219.9038)" y="169.79" x="40.59"/><rect data-cppathid="10014" height="9.53" width="9.53" class="st1" transform="matrix(6.123234e-17 -1 1 6.123234e-17 -110.8802 201.5803)" y="151.47" x="40.59"/><rect data-cppathid="10015" height="9.53" width="9.53" class="st1" transform="matrix(6.123234e-17 -1 1 6.123234e-17 -92.5569 183.2569)" y="133.14" x="40.59"/><rect data-cppathid="10016" height="9.53" width="9.53" class="st1" transform="matrix(6.123234e-17 -1 1 6.123234e-17 -74.2334 164.9335)" y="114.82" x="40.59"/><rect data-cppathid="10017" height="9.53" width="9.53" class="st1" transform="matrix(6.123234e-17 -1 1 6.123234e-17 -55.91 146.61)" y="96.5" x="40.59"/><rect data-cppathid="10018" height="9.53" width="9.53" class="st1" transform="matrix(6.123234e-17 -1 1 6.123234e-17 -37.5866 128.2866)" y="78.17" x="40.59"/><rect data-cppathid="10019" height="9.53" width="9.53" class="st1" transform="matrix(6.123234e-17 -1 1 6.123234e-17 -18.6714 147.2017)" y="78.17" x="59.5"/><rect data-cppathid="10020" height="9.53" width="9.53" class="st1" transform="matrix(6.123234e-17 -1 1 6.123234e-17 -36.9948 165.5251)" y="96.5" x="59.5"/><rect data-cppathid="10021" height="9.53" width="9.53" class="st1" transform="matrix(6.123234e-17 -1 1 6.123234e-17 -19.2632 109.9632)" y="59.85" x="40.59"/><rect data-cppathid="10022" height="9.53" width="9.53" class="st1" transform="matrix(6.123234e-17 -1 1 6.123234e-17 -0.9398 128.2867)" y="59.85" x="58.91"/></g></g><g><g><rect data-cppathid="10023" height="9.53" width="9.53" class="st1" y="1028.95" x="976.45"/><rect data-cppathid="10024" height="9.53" width="9.53" class="st1" y="1028.95" x="994.77"/><rect data-cppathid="10025" height="9.53" width="9.53" class="st1" y="1028.95" x="1013.09"/><rect data-cppathid="10026" height="9.53" width="9.53" class="st1" y="1028.95" x="1031.42"/><rect data-cppathid="10027" height="9.53" width="9.53" class="st1" y="1028.95" x="1049.74"/><rect data-cppathid="10028" height="9.53" width="9.53" class="st1" y="1028.95" x="1068.06"/><rect data-cppathid="10029" height="9.53" width="9.53" class="st1" y="1010.63" x="1068.06"/><rect data-cppathid="10030" height="9.53" width="9.53" class="st1" y="1010.63" x="1049.74"/><rect data-cppathid="10031" height="9.53" width="9.53" class="st1" y="992.31" x="1068.06"/><rect data-cppathid="10032" height="9.53" width="9.53" class="st1" y="1028.95" x="1086.39"/><rect data-cppathid="10033" height="9.53" width="9.53" class="st1" y="1028.95" x="1104.71"/><rect data-cppathid="10034" height="9.53" width="9.53" class="st1" transform="matrix(-1.836970e-16 1 -1 -1.836970e-16 2014.9265 -204.0224)" y="900.69" x="1104.71"/><rect data-cppathid="10035" height="9.53" width="9.53" class="st1" transform="matrix(-1.836970e-16 1 -1 -1.836970e-16 2033.25 -185.699)" y="919.01" x="1104.71"/><rect data-cppathid="10036" height="9.53" width="9.53" class="st1" transform="matrix(-1.836970e-16 1 -1 -1.836970e-16 2051.5732 -167.3756)" y="937.34" x="1104.71"/><rect data-cppathid="10037" height="9.53" width="9.53" class="st1" transform="matrix(-1.836970e-16 1 -1 -1.836970e-16 2069.8967 -149.0522)" y="955.66" x="1104.71"/><rect data-cppathid="10038" height="9.53" width="9.53" class="st1" transform="matrix(-1.836970e-16 1 -1 -1.836970e-16 2088.2202 -130.7287)" y="973.98" x="1104.71"/><rect data-cppathid="10039" height="9.53" width="9.53" class="st1" transform="matrix(-1.836970e-16 1 -1 -1.836970e-16 2106.5437 -112.4053)" y="992.31" x="1104.71"/><rect data-cppathid="10040" height="9.53" width="9.53" class="st1" transform="matrix(-1.836970e-16 1 -1 -1.836970e-16 2087.6284 -93.4902)" y="992.31" x="1085.8"/><rect data-cppathid="10041" height="9.53" width="9.53" class="st1" transform="matrix(-1.836970e-16 1 -1 -1.836970e-16 2069.3052 -111.8136)" y="973.98" x="1085.8"/><rect data-cppathid="10042" height="9.53" width="9.53" class="st1" transform="matrix(-1.836970e-16 1 -1 -1.836970e-16 2124.8669 -94.0819)" y="1010.63" x="1104.71"/><rect data-cppathid="10043" height="9.53" width="9.53" class="st1" transform="matrix(-1.836970e-16 1 -1 -1.836970e-16 2106.5437 -75.7585)" y="1010.63" x="1086.39"/></g></g></g><g><g><path data-cppathid="10044" d="M933.84,868.98H632.43c-16.9,0-30.65-13.75-30.65-30.65V535.12v-12.08v-279c0-16.9,13.75-30.65,30.65-30.65    h228.78c2.15,0,3.9-1.75,3.9-3.9s-1.75-3.9-3.9-3.9H632.43c-21.2,0-38.45,17.25-38.45,38.45v279v12.08v303.21    c0,21.2,17.25,38.45,38.45,38.45h301.41c2.15,0,3.9-1.75,3.9-3.9C937.74,870.72,935.99,868.98,933.84,868.98z" class="st2"/><path data-cppathid="10045" d="M695.67,346.83v111.95c0,11.47-9.33,20.81-20.81,20.81h-75.28c-2.15,0-3.9,1.75-3.9,3.9s1.75,3.9,3.9,3.9    h75.28c15.78,0,28.61-12.84,28.61-28.61V346.83c0-11.47,9.33-20.81,20.81-20.81h229.5c2.15,0,3.9-1.75,3.9-3.9    c0-2.15-1.75-3.9-3.9-3.9h-229.5C708.5,318.22,695.67,331.06,695.67,346.83z" class="st2"/><path data-cppathid="10046" d="M965.43,763.26H735.25c-13.96,0-25.32-11.36-25.32-25.32V588.1c0-18.26-14.86-33.12-33.12-33.12h-62.44    c-2.15,0-3.9,1.75-3.9,3.9s1.75,3.9,3.9,3.9h62.44c13.96,0,25.32,11.36,25.32,25.32v149.84c0,18.26,14.86,33.12,33.12,33.12    h230.17c2.15,0,3.9-1.75,3.9-3.9C969.33,765.01,967.58,763.26,965.43,763.26z" class="st2"/><path data-cppathid="10047" d="M1040,662.55H930.75c-13.96,0-25.32-11.36-25.32-25.32v-24.91c0-13.96,11.36-25.32,25.32-25.32H1040    c2.15,0,3.9-1.75,3.9-3.9c0-2.15-1.75-3.9-3.9-3.9H930.75c-18.26,0-33.12,14.86-33.12,33.12v7.93c-0.58-0.34-1.24-0.54-1.95-0.54    h-108.9c-10.11,0-18.34-8.23-18.34-18.34v-58.7h32.24c19.86,0,36.02-16.16,36.02-36.02v-40.41c0-15.56,12.66-28.22,28.22-28.22    h164.87c2.15,0,3.9-1.75,3.9-3.9c0-2.15-1.75-3.9-3.9-3.9H864.92c-19.86,0-36.02,16.16-36.02,36.02v40.41    c0,15.56-12.66,28.22-28.22,28.22H614.36c-2.15,0-3.9,1.75-3.9,3.9c0,2.15,1.75,3.9,3.9,3.9h146.28v58.7    c0,14.41,11.72,26.14,26.14,26.14h108.9c0.71,0,1.37-0.21,1.95-0.54v10.26c0,18.26,14.86,33.12,33.12,33.12H1040    c2.15,0,3.9-1.75,3.9-3.9C1043.91,664.29,1042.16,662.55,1040,662.55z" class="st2"/><path data-cppathid="10048" d="M523.07,205.59H294.28c-2.15,0-3.9,1.75-3.9,3.9s1.75,3.9,3.9,3.9h228.78c16.9,0,30.65,13.75,30.65,30.65v279    v12.08v303.21c0,16.9-13.75,30.65-30.65,30.65H221.65c-2.15,0-3.9,1.75-3.9,3.9c0,2.15,1.75,3.9,3.9,3.9h301.41    c21.2,0,38.45-17.25,38.45-38.45V535.12v-12.08v-279C561.52,222.84,544.27,205.59,523.07,205.59z" class="st2"/><path data-cppathid="10049" d="M201.71,326.02h229.5c11.48,0,20.81,9.34,20.81,20.81v111.95c0,15.78,12.84,28.61,28.61,28.61h76.75    c2.15,0,3.9-1.75,3.9-3.9s-1.75-3.9-3.9-3.9h-76.75c-11.48,0-20.81-9.34-20.81-20.81V346.83c0-15.78-12.84-28.61-28.61-28.61    h-229.5c-2.15,0-3.9,1.75-3.9,3.9C197.81,324.28,199.56,326.02,201.71,326.02z" class="st2"/><path data-cppathid="10050" d="M453.36,737.94V588.1c0-13.96,11.36-25.32,25.32-25.32h62.44c2.15,0,3.9-1.75,3.9-3.9s-1.75-3.9-3.9-3.9    h-62.44c-18.26,0-33.12,14.86-33.12,33.12v149.84c0,13.96-11.36,25.32-25.32,25.32H190.06c-2.15,0-3.9,1.75-3.9,3.9    c0,2.15,1.75,3.9,3.9,3.9h230.17C438.5,771.07,453.36,756.21,453.36,737.94z" class="st2"/><path data-cppathid="10051" d="M257.86,637.22v-10.26c0.58,0.34,1.24,0.54,1.95,0.54h108.9c14.41,0,26.14-11.73,26.14-26.14v-58.7h146.28    c2.15,0,3.9-1.75,3.9-3.9c0-2.15-1.75-3.9-3.9-3.9H354.81c-15.56,0-28.22-12.66-28.22-28.22v-40.41    c0-19.86-16.16-36.02-36.02-36.02H125.7c-2.15,0-3.9,1.75-3.9,3.9c0,2.15,1.75,3.9,3.9,3.9h164.87    c15.56,0,28.22,12.66,28.22,28.22v40.41c0,19.86,16.16,36.02,36.02,36.02h32.24v58.7c0,10.11-8.23,18.34-18.34,18.34h-108.9    c-0.71,0-1.37,0.21-1.95,0.54v-7.93c0-18.26-14.86-33.12-33.12-33.12H115.49c-2.15,0-3.9,1.75-3.9,3.9c0,2.15,1.75,3.9,3.9,3.9    h109.25c13.96,0,25.32,11.36,25.32,25.32v24.91c0,13.96-11.36,25.32-25.32,25.32H115.49c-2.15,0-3.9,1.75-3.9,3.9    c0,2.15,1.75,3.9,3.9,3.9h109.25C243,670.35,257.86,655.49,257.86,637.22z" class="st2"/><g><g><path data-cppathid="10052" d="M652.55,209.49c0,9.1,7.37,16.47,16.47,16.47c9.1,0,16.47-7.37,16.47-16.47s-7.37-16.47-16.47-16.47      C659.92,193.02,652.55,200.4,652.55,209.49z" class="st1"/></g></g><g><g><circle data-cppathid="10053" r="16.47" cy="872.88" cx="640.54" class="st1"/></g></g><g><g><path data-cppathid="10054" d="M711.7,322.12c0,9.1,7.37,16.47,16.47,16.47c9.1,0,16.47-7.37,16.47-16.47s-7.37-16.47-16.47-16.47      C719.07,305.65,711.7,313.03,711.7,322.12z" class="st1"/></g></g><path data-cppathid="10055" d="M854.09,434.12c0,9.1,7.37,16.47,16.47,16.47c9.1,0,16.47-7.37,16.47-16.47s-7.37-16.47-16.47-16.47    C861.47,417.65,854.09,425.02,854.09,434.12z" class="st1"/><g><g><path data-cppathid="10056" d="M957.16,581.49c0,9.1,7.37,16.47,16.47,16.47c9.1,0,16.47-7.37,16.47-16.47c0-9.1-7.37-16.47-16.47-16.47      C964.54,565.02,957.16,572.39,957.16,581.49z" class="st1"/></g></g><g><g><path data-cppathid="10057" d="M957.16,666.45c0,9.1,7.37,16.47,16.47,16.47c9.1,0,16.47-7.37,16.47-16.47c0-9.1-7.37-16.47-16.47-16.47      C964.54,649.98,957.16,657.35,957.16,666.45z" class="st1"/></g></g><g><g><path data-cppathid="10058" d="M750.88,540.81c0,9.1,7.37,16.47,16.47,16.47s16.47-7.37,16.47-16.47s-7.37-16.47-16.47-16.47      S750.88,531.71,750.88,540.81z" class="st1"/></g></g><g><g><g><path data-cppathid="10059" d="M743.63,766.01c0,9.1,7.37,16.47,16.47,16.47c9.1,0,16.47-7.37,16.47-16.47c0-9.1-7.37-16.47-16.47-16.47       C751.01,749.54,743.63,756.92,743.63,766.01z" class="st1"/></g></g></g><ellipse data-cppathid="10060" ry="41.33" rx="41.33" cy="207.27" cx="760.64" class="st3" transform="matrix(0.9253 -0.3794 0.3794 0.9253 -21.7729 304.0449)"/><circle data-cppathid="10061" r="41.19" cy="322.12" cx="810.86" class="st3"/><circle data-cppathid="10062" r="41.19" cy="434.12" cx="951.28" class="st3"/><path data-cppathid="10063" d="M870.08,622.28c0,22.74-18.42,41.17-41.19,41.17c-11.03,0-21.04-4.32-28.41-11.43    c-1.81-1.67-3.48-3.57-4.92-5.61c-1.47-1.99-2.73-4.12-3.8-6.33c-1.07-2.25-1.96-4.61-2.59-7.05c-0.95-3.43-1.44-7.02-1.44-10.74    c0-22.77,18.42-41.19,41.17-41.19C851.66,581.08,870.08,599.51,870.08,622.28z" class="st3"/><ellipse data-cppathid="10064" ry="41.19" rx="41.19" cy="767.16" cx="843.16" class="st3" transform="matrix(0.9225 -0.386 0.386 0.9225 -230.7974 384.9679)"/><circle data-cppathid="10065" r="41.19" cy="872.88" cx="746.9" class="st3"/><g><g><path data-cppathid="10066" d="M499.59,209.49c0,9.1-7.37,16.47-16.47,16.47c-9.1,0-16.47-7.37-16.47-16.47s7.37-16.47,16.47-16.47      C492.22,193.02,499.59,200.4,499.59,209.49z" class="st1"/></g></g><g><g><path data-cppathid="10067" d="M528.07,872.88c0-9.1-7.37-16.47-16.47-16.47c-9.1,0-16.47,7.37-16.47,16.47c0,9.1,7.37,16.47,16.47,16.47      C520.7,889.35,528.07,881.97,528.07,872.88z" class="st1"/></g></g><g><g><path data-cppathid="10068" d="M440.44,322.12c0,9.1-7.37,16.47-16.47,16.47s-16.47-7.37-16.47-16.47s7.37-16.47,16.47-16.47      S440.44,313.03,440.44,322.12z" class="st1"/></g></g><path data-cppathid="10069" d="M298.05,434.12c0,9.1-7.37,16.47-16.47,16.47c-9.1,0-16.47-7.37-16.47-16.47s7.37-16.47,16.47-16.47    C290.67,417.65,298.05,425.02,298.05,434.12z" class="st1"/><g><g><path data-cppathid="10070" d="M194.98,581.49c0,9.1-7.37,16.47-16.47,16.47c-9.1,0-16.47-7.37-16.47-16.47c0-9.1,7.37-16.47,16.47-16.47      C187.6,565.02,194.98,572.39,194.98,581.49z" class="st1"/></g></g><g><g><path data-cppathid="10071" d="M194.98,666.45c0,9.1-7.37,16.47-16.47,16.47c-9.1,0-16.47-7.37-16.47-16.47c0-9.1,7.37-16.47,16.47-16.47      C187.6,649.98,194.98,657.35,194.98,666.45z" class="st1"/></g></g><g><g><path data-cppathid="10072" d="M401.25,540.81c0,9.1-7.37,16.47-16.47,16.47s-16.47-7.37-16.47-16.47s7.37-16.47,16.47-16.47      S401.25,531.71,401.25,540.81z" class="st1"/></g></g><g><g><path data-cppathid="10073" d="M408.51,770.85c0,9.1-7.37,16.47-16.47,16.47s-16.47-7.37-16.47-16.47s7.37-16.47,16.47-16.47      S408.51,761.76,408.51,770.85z" class="st1"/></g></g><ellipse data-cppathid="10074" ry="41.33" rx="41.33" cy="207.27" cx="391.5" class="st3" transform="matrix(0.3794 -0.9253 0.9253 0.3794 51.2039 490.8781)"/><circle data-cppathid="10075" r="41.19" cy="322.12" cx="341.28" class="st3"/><circle data-cppathid="10076" r="41.19" cy="434.12" cx="200.86" class="st3"/><circle data-cppathid="10077" r="41.19" cy="622.27" cx="323.24" class="st3"/><ellipse data-cppathid="10078" ry="41.19" rx="41.19" cy="767.16" cx="308.98" class="st3" transform="matrix(0.386 -0.9225 0.9225 0.386 -517.9952 756.0298)"/><circle data-cppathid="10079" r="41.19" cy="872.88" cx="405.23" class="st3"/></g><g><g><circle data-cppathid="10080" r="39.71" cy="582.29" cx="1076.09" class="st4"/><g><g><g><g><g><path data-cppathid="10081" d="M1079.35,582.89c3.2-1.34,5.48-4.65,5.5-8.54c0.02-5.1-3.84-9.25-8.62-9.28          c-4.78-0.02-8.68,4.1-8.7,9.2c-0.02,3.93,2.28,7.27,5.52,8.62c-13.33,2.01-12.72,16.49-12.72,16.49l31.52,0.15          C1091.85,599.52,1092.57,584.88,1079.35,582.89z" class="st2"/></g></g></g></g></g></g><g><circle data-cppathid="10082" r="39.71" cy="430.76" cx="1064.61" class="st4"/><g><g><g><g><g><path data-cppathid="10083" d="M1067.87,431.35c3.2-1.34,5.48-4.65,5.5-8.54c0.02-5.1-3.84-9.25-8.62-9.28          c-4.78-0.02-8.68,4.1-8.7,9.2c-0.02,3.93,2.28,7.27,5.52,8.62c-13.33,2.01-12.72,16.49-12.72,16.49l31.52,0.15          C1080.37,447.99,1081.09,433.34,1067.87,431.35z" class="st2"/></g></g></g></g></g></g><g><circle data-cppathid="10084" r="39.71" cy="321.32" cx="989.61" class="st4"/><g><g><g><g><g><path data-cppathid="10085" d="M992.87,321.91c3.2-1.34,5.48-4.65,5.5-8.54c0.02-5.1-3.84-9.25-8.62-9.28c-4.78-0.02-8.68,4.1-8.7,9.2          c-0.02,3.93,2.28,7.27,5.52,8.62c-13.33,2.01-12.72,16.49-12.72,16.49l31.52,0.15          C1005.37,338.55,1006.08,323.9,992.87,321.91z" class="st2"/></g></g></g></g></g></g><g><circle data-cppathid="10086" r="39.71" cy="208.81" cx="894.71" class="st4"/><g><g><g><g><g><path data-cppathid="10087" d="M897.97,209.4c3.2-1.34,5.48-4.65,5.5-8.54c0.02-5.1-3.84-9.25-8.62-9.28c-4.78-0.02-8.68,4.1-8.7,9.2          c-0.02,3.93,2.28,7.27,5.52,8.62c-13.33,2.01-12.72,16.49-12.72,16.49l31.52,0.15C910.46,226.04,911.18,211.4,897.97,209.4z          " class="st2"/></g></g></g></g></g></g><g><circle data-cppathid="10088" r="39.71" cy="666.48" cx="1076.09" class="st4"/><g><g><g><g><g><path data-cppathid="10089" d="M1079.35,667.07c3.2-1.34,5.48-4.65,5.5-8.54c0.02-5.1-3.84-9.25-8.62-9.28          c-4.78-0.02-8.68,4.1-8.7,9.2c-0.02,3.93,2.28,7.27,5.52,8.62c-13.33,2.01-12.72,16.49-12.72,16.49l31.52,0.15          C1091.85,683.71,1092.57,669.07,1079.35,667.07z" class="st2"/></g></g></g></g></g></g><g><circle data-cppathid="10090" r="39.71" cy="765.21" cx="1001.85" class="st4"/><g><g><g><g><g><path data-cppathid="10091" d="M1005.12,765.8c3.2-1.34,5.48-4.65,5.5-8.54c0.02-5.1-3.84-9.26-8.62-9.28c-4.78-0.02-8.68,4.1-8.7,9.2          c-0.02,3.93,2.28,7.27,5.52,8.62c-13.33,2.01-12.72,16.49-12.72,16.49l31.52,0.15          C1017.61,782.44,1018.33,767.8,1005.12,765.8z" class="st2"/></g></g></g></g></g></g><g><circle data-cppathid="10092" r="39.71" cy="870.44" cx="964.73" class="st4"/><g><g><g><g><g><path data-cppathid="10093" d="M968,871.03c3.2-1.34,5.48-4.65,5.5-8.54c0.02-5.1-3.84-9.25-8.62-9.28c-4.78-0.02-8.68,4.1-8.7,9.2          c-0.02,3.93,2.28,7.27,5.52,8.62c-13.33,2.01-12.72,16.49-12.72,16.49l31.52,0.15C980.49,887.67,981.21,873.03,968,871.03z" class="st2"/></g></g></g></g></g></g></g><g><g><circle data-cppathid="10094" r="39.71" cy="582.29" cx="75.73" class="st4"/><g><g><g><g><g><path data-cppathid="10095" d="M72.47,582.89c-3.2-1.34-5.48-4.65-5.5-8.54c-0.02-5.1,3.84-9.25,8.62-9.28c4.78-0.02,8.68,4.1,8.7,9.2          c0.02,3.93-2.28,7.27-5.52,8.62c13.33,2.01,12.72,16.49,12.72,16.49l-31.52,0.15C59.97,599.52,59.25,584.88,72.47,582.89z" class="st2"/></g></g></g></g></g></g><g><circle data-cppathid="10096" r="39.71" cy="430.76" cx="87.21" class="st4"/><g><g><g><g><g><path data-cppathid="10097" d="M83.95,431.35c-3.2-1.34-5.48-4.65-5.5-8.54c-0.02-5.1,3.84-9.25,8.62-9.28c4.78-0.02,8.68,4.1,8.7,9.2          c0.02,3.93-2.28,7.27-5.52,8.62c13.33,2.01,12.72,16.49,12.72,16.49l-31.52,0.15C71.45,447.99,70.73,433.34,83.95,431.35z" class="st2"/></g></g></g></g></g></g><g><circle data-cppathid="10098" r="39.71" cy="321.32" cx="162.21" class="st4"/><g><g><g><g><g><path data-cppathid="10099" d="M158.95,321.91c-3.2-1.34-5.48-4.65-5.5-8.54c-0.02-5.1,3.84-9.25,8.62-9.28          c4.78-0.02,8.68,4.1,8.7,9.2c0.02,3.93-2.28,7.27-5.52,8.62c13.33,2.01,12.72,16.49,12.72,16.49l-31.52,0.15          C146.46,338.55,145.74,323.9,158.95,321.91z" class="st2"/></g></g></g></g></g></g><g><circle data-cppathid="10100" r="39.71" cy="208.81" cx="257.11" class="st4"/><g><g><g><g><g><path data-cppathid="10101" d="M253.85,209.4c-3.2-1.34-5.48-4.65-5.5-8.54c-0.02-5.1,3.84-9.25,8.62-9.28c4.78-0.02,8.68,4.1,8.7,9.2          c0.02,3.93-2.28,7.27-5.52,8.62c13.33,2.01,12.72,16.49,12.72,16.49l-31.52,0.15C241.36,226.04,240.64,211.4,253.85,209.4z" class="st2"/></g></g></g></g></g></g><g><circle data-cppathid="10102" r="39.71" cy="666.48" cx="75.73" class="st4"/><g><g><g><g><g><path data-cppathid="10103" d="M72.47,667.07c-3.2-1.34-5.48-4.65-5.5-8.54c-0.02-5.1,3.84-9.25,8.62-9.28c4.78-0.02,8.68,4.1,8.7,9.2          c0.02,3.93-2.28,7.27-5.52,8.62c13.33,2.01,12.72,16.49,12.72,16.49l-31.52,0.15C59.97,683.71,59.25,669.07,72.47,667.07z" class="st2"/></g></g></g></g></g></g><g><circle data-cppathid="10104" r="39.71" cy="765.21" cx="149.97" class="st4"/><g><g><g><g><g><path data-cppathid="10105" d="M146.7,765.8c-3.2-1.34-5.48-4.65-5.5-8.54c-0.02-5.1,3.84-9.26,8.62-9.28c4.78-0.02,8.68,4.1,8.7,9.2          c0.02,3.93-2.28,7.27-5.52,8.62c13.33,2.01,12.72,16.49,12.72,16.49l-31.52,0.15C134.21,782.44,133.49,767.8,146.7,765.8z" class="st2"/></g></g></g></g></g></g><g><circle data-cppathid="10106" r="39.71" cy="870.44" cx="187.09" class="st4"/><g><g><g><g><g><path data-cppathid="10107" d="M183.82,871.03c-3.2-1.34-5.48-4.65-5.5-8.54c-0.02-5.1,3.84-9.25,8.62-9.28          c4.78-0.02,8.68,4.1,8.7,9.2c0.02,3.93-2.28,7.27-5.52,8.62c13.33,2.01,12.72,16.49,12.72,16.49l-31.52,0.15          C171.33,887.67,170.61,873.03,183.82,871.03z" class="st2"/></g></g></g></g></g></g></g><g><path data-cppathid="10108" d="M577.74,414.04c-2.26,0-4.52,1.12-5.82,3.36L466.36,600.25c-2.59,4.48,0.65,10.08,5.82,10.08h211.13    c5.17,0,8.4-5.6,5.82-10.08L583.56,417.4C582.27,415.16,580.01,414.04,577.74,414.04L577.74,414.04z" class="st0"/><g><path data-cppathid="10109" d="M577.74,419.79c0.37,0,0.66,0.16,0.84,0.49l105.57,182.85c0.19,0.32,0.19,0.65,0,0.98     c-0.19,0.32-0.47,0.49-0.84,0.49H472.18c-0.37,0-0.66-0.16-0.84-0.49c-0.19-0.32-0.19-0.65,0-0.98L576.9,420.27     C577.09,419.95,577.37,419.79,577.74,419.79L577.74,419.79z M577.74,414.04c-2.26,0-4.52,1.12-5.82,3.36L466.36,600.25     c-2.59,4.48,0.65,10.08,5.82,10.08h211.13c5.17,0,8.4-5.6,5.82-10.08L583.56,417.4C582.27,415.16,580.01,414.04,577.74,414.04     L577.74,414.04z" class="st3"/><g><g><path data-cppathid="10110" d="M564.98,574.03c0-4.06,1.09-7.13,3.26-9.21c2.18-2.08,5.34-3.12,9.5-3.12c4.01,0,7.12,1.06,9.32,3.19       c2.2,2.13,3.3,5.17,3.3,9.14c0,3.82-1.11,6.83-3.34,9.03c-2.22,2.2-5.32,3.3-9.28,3.3c-4.06,0-7.2-1.08-9.43-3.23       C566.09,580.98,564.98,577.95,564.98,574.03z M586.66,549.23h-17.7l-3.7-70.85h25.09L586.66,549.23z" class="st2"/></g></g></g></g><g><g><path data-cppathid="10111" d="M391.5,177.64c0.1,0,0.18,0.04,0.23,0.13l28.84,49.95c0.05,0.09,0.05,0.18,0,0.27     c-0.05,0.09-0.13,0.13-0.23,0.13h-57.68c-0.1,0-0.18-0.04-0.23-0.13c-0.05-0.09-0.05-0.18,0-0.27l28.84-49.95     C391.32,177.68,391.4,177.64,391.5,177.64L391.5,177.64z M391.5,176.07c-0.62,0-1.24,0.31-1.59,0.92l-28.84,49.95     c-0.71,1.22,0.18,2.75,1.59,2.75h57.68c1.41,0,2.3-1.53,1.59-2.75l-28.84-49.95C392.74,176.37,392.12,176.07,391.5,176.07     L391.5,176.07z" class="st2"/><g><g><path data-cppathid="10112" d="M388.01,219.77c0-1.11,0.3-1.95,0.89-2.52c0.59-0.57,1.46-0.85,2.6-0.85c1.1,0,1.94,0.29,2.55,0.87       c0.6,0.58,0.9,1.41,0.9,2.5c0,1.04-0.3,1.87-0.91,2.47c-0.61,0.6-1.45,0.9-2.54,0.9c-1.11,0-1.97-0.29-2.58-0.88       C388.32,221.67,388.01,220.84,388.01,219.77z M393.94,213h-4.83l-1.01-19.35h6.85L393.94,213z" class="st2"/></g></g></g></g><g><g><path data-cppathid="10113" d="M341.28,291.82c0.1,0,0.18,0.04,0.23,0.13l28.84,49.95c0.05,0.09,0.05,0.18,0,0.27     c-0.05,0.09-0.13,0.13-0.23,0.13h-57.68c-0.1,0-0.18-0.04-0.23-0.13c-0.05-0.09-0.05-0.18,0-0.27l28.84-49.95     C341.1,291.87,341.17,291.82,341.28,291.82L341.28,291.82z M341.28,290.25c-0.62,0-1.24,0.31-1.59,0.92l-28.84,49.95     c-0.71,1.22,0.18,2.75,1.59,2.75h57.68c1.41,0,2.3-1.53,1.59-2.75l-28.84-49.95C342.51,290.56,341.9,290.25,341.28,290.25     L341.28,290.25z" class="st2"/><g><g><path data-cppathid="10114" d="M337.79,333.96c0-1.11,0.3-1.95,0.89-2.52c0.59-0.57,1.46-0.85,2.6-0.85c1.1,0,1.94,0.29,2.55,0.87       c0.6,0.58,0.9,1.41,0.9,2.5c0,1.04-0.3,1.87-0.91,2.47c-0.61,0.6-1.45,0.9-2.54,0.9c-1.11,0-1.97-0.29-2.58-0.88       C338.09,335.86,337.79,335.03,337.79,333.96z M343.71,327.18h-4.83l-1.01-19.35h6.85L343.71,327.18z" class="st2"/></g></g></g></g><g><g><path data-cppathid="10115" d="M200.86,402c0.1,0,0.18,0.04,0.23,0.13l28.84,49.95c0.05,0.09,0.05,0.18,0,0.27     c-0.05,0.09-0.13,0.13-0.23,0.13h-57.68c-0.1,0-0.18-0.04-0.23-0.13c-0.05-0.09-0.05-0.18,0-0.27l28.84-49.95     C200.68,402.05,200.76,402,200.86,402L200.86,402z M200.86,400.43c-0.62,0-1.24,0.31-1.59,0.92l-28.84,49.95     c-0.71,1.22,0.18,2.75,1.59,2.75h57.68c1.41,0,2.3-1.53,1.59-2.75l-28.84-49.95C202.1,400.74,201.48,400.43,200.86,400.43     L200.86,400.43z" class="st2"/><g><g><path data-cppathid="10116" d="M197.38,444.14c0-1.11,0.3-1.95,0.89-2.52c0.59-0.57,1.46-0.85,2.6-0.85c1.1,0,1.94,0.29,2.55,0.87       c0.6,0.58,0.9,1.41,0.9,2.5c0,1.04-0.3,1.87-0.91,2.47c-0.61,0.6-1.45,0.9-2.54,0.9c-1.11,0-1.97-0.29-2.58-0.88       C197.68,446.04,197.38,445.21,197.38,444.14z M203.3,437.36h-4.83l-1.01-19.35h6.85L203.3,437.36z" class="st2"/></g></g></g></g><g><g><path data-cppathid="10117" d="M323.24,590.51c0.1,0,0.18,0.04,0.23,0.13l28.84,49.95c0.05,0.09,0.05,0.18,0,0.27s-0.13,0.13-0.23,0.13     H294.4c-0.1,0-0.18-0.04-0.23-0.13c-0.05-0.09-0.05-0.18,0-0.27l28.84-49.95C323.06,590.56,323.13,590.51,323.24,590.51     L323.24,590.51z M323.24,588.94c-0.62,0-1.24,0.31-1.59,0.92l-28.84,49.95c-0.71,1.22,0.18,2.75,1.59,2.75h57.68     c1.41,0,2.3-1.53,1.59-2.75l-28.84-49.95C324.47,589.25,323.86,588.94,323.24,588.94L323.24,588.94z" class="st2"/><g><g><path data-cppathid="10118" d="M319.75,632.65c0-1.11,0.3-1.95,0.89-2.52c0.59-0.57,1.46-0.85,2.6-0.85c1.1,0,1.94,0.29,2.55,0.87       c0.6,0.58,0.9,1.41,0.9,2.5c0,1.04-0.3,1.87-0.91,2.47c-0.61,0.6-1.45,0.9-2.54,0.9c-1.11,0-1.97-0.29-2.58-0.88       C320.05,634.55,319.75,633.72,319.75,632.65z M325.67,625.87h-4.83l-1.01-19.35h6.85L325.67,625.87z" class="st2"/></g></g></g></g><g><g><path data-cppathid="10119" d="M308.98,736.87c0.1,0,0.18,0.04,0.23,0.13l28.84,49.95c0.05,0.09,0.05,0.18,0,0.27     c-0.05,0.09-0.13,0.13-0.23,0.13h-57.68c-0.1,0-0.18-0.04-0.23-0.13c-0.05-0.09-0.05-0.18,0-0.27L308.75,737     C308.8,736.92,308.87,736.87,308.98,736.87L308.98,736.87z M308.98,735.3c-0.62,0-1.24,0.31-1.59,0.92l-28.84,49.95     c-0.71,1.22,0.18,2.75,1.59,2.75h57.68c1.41,0,2.3-1.53,1.59-2.75l-28.84-49.95C310.21,735.61,309.59,735.3,308.98,735.3     L308.98,735.3z" class="st2"/><g><g><path data-cppathid="10120" d="M305.49,779.01c0-1.11,0.3-1.95,0.89-2.52c0.59-0.57,1.46-0.85,2.6-0.85c1.1,0,1.94,0.29,2.55,0.87       c0.6,0.58,0.9,1.41,0.9,2.5c0,1.04-0.3,1.87-0.91,2.47c-0.61,0.6-1.45,0.9-2.54,0.9c-1.11,0-1.97-0.29-2.58-0.88       C305.79,780.91,305.49,780.08,305.49,779.01z M311.41,772.23h-4.83l-1.01-19.35h6.85L311.41,772.23z" class="st2"/></g></g></g></g><g><g><path data-cppathid="10121" d="M405.23,841.44c0.1,0,0.18,0.04,0.23,0.13l28.84,49.95c0.05,0.09,0.05,0.18,0,0.27     c-0.05,0.09-0.13,0.13-0.23,0.13H376.4c-0.1,0-0.18-0.04-0.23-0.13c-0.05-0.09-0.05-0.18,0-0.27L405,841.57     C405.05,841.48,405.13,841.44,405.23,841.44L405.23,841.44z M405.23,839.87c-0.62,0-1.24,0.31-1.59,0.92l-28.84,49.95     c-0.71,1.22,0.18,2.75,1.59,2.75h57.68c1.41,0,2.3-1.53,1.59-2.75l-28.84-49.95C406.47,840.17,405.85,839.87,405.23,839.87     L405.23,839.87z" class="st2"/><g><g><path data-cppathid="10122" d="M401.75,883.57c0-1.11,0.3-1.95,0.89-2.52c0.59-0.57,1.46-0.85,2.6-0.85c1.1,0,1.94,0.29,2.55,0.87       c0.6,0.58,0.9,1.41,0.9,2.5c0,1.04-0.3,1.87-0.91,2.47c-0.61,0.6-1.45,0.9-2.54,0.9c-1.11,0-1.97-0.29-2.58-0.88       C402.05,885.47,401.75,884.64,401.75,883.57z M407.67,876.8h-4.83l-1.01-19.35h6.85L407.67,876.8z" class="st2"/></g></g></g></g><g><g><path data-cppathid="10123" d="M746.9,841.44c0.1,0,0.18,0.04,0.23,0.13l28.84,49.95c0.05,0.09,0.05,0.18,0,0.27s-0.13,0.13-0.23,0.13     h-57.68c-0.1,0-0.18-0.04-0.23-0.13c-0.05-0.09-0.05-0.18,0-0.27l28.84-49.95C746.72,841.48,746.8,841.44,746.9,841.44     L746.9,841.44z M746.9,839.87c-0.62,0-1.24,0.31-1.59,0.92l-28.84,49.95c-0.71,1.22,0.18,2.75,1.59,2.75h57.68     c1.41,0,2.3-1.53,1.59-2.75l-28.84-49.95C748.14,840.17,747.52,839.87,746.9,839.87L746.9,839.87z" class="st2"/><g><g><path data-cppathid="10124" d="M743.42,883.57c0-1.11,0.3-1.95,0.89-2.52c0.59-0.57,1.46-0.85,2.6-0.85c1.1,0,1.94,0.29,2.55,0.87       c0.6,0.58,0.9,1.41,0.9,2.5c0,1.04-0.3,1.87-0.91,2.47c-0.61,0.6-1.45,0.9-2.54,0.9c-1.11,0-1.97-0.29-2.58-0.88       C743.72,885.47,743.42,884.64,743.42,883.57z M749.34,876.8h-4.83l-1.01-19.35h6.85L749.34,876.8z" class="st2"/></g></g></g></g><g><g><path data-cppathid="10125" d="M843.16,735.54c0.1,0,0.18,0.04,0.23,0.13l28.84,49.95c0.05,0.09,0.05,0.18,0,0.27     c-0.05,0.09-0.13,0.13-0.23,0.13h-57.68c-0.1,0-0.18-0.04-0.23-0.13c-0.05-0.09-0.05-0.18,0-0.27l28.84-49.95     C842.98,735.58,843.06,735.54,843.16,735.54L843.16,735.54z M843.16,733.97c-0.62,0-1.24,0.31-1.59,0.92l-28.84,49.95     c-0.71,1.22,0.18,2.75,1.59,2.75H872c1.41,0,2.3-1.53,1.59-2.75l-28.84-49.95C844.4,734.27,843.78,733.97,843.16,733.97     L843.16,733.97z" class="st2"/><g><g><path data-cppathid="10126" d="M839.67,777.67c0-1.11,0.3-1.95,0.89-2.52c0.59-0.57,1.46-0.85,2.6-0.85c1.1,0,1.94,0.29,2.55,0.87       c0.6,0.58,0.9,1.41,0.9,2.5c0,1.04-0.3,1.87-0.91,2.47c-0.61,0.6-1.45,0.9-2.54,0.9c-1.11,0-1.97-0.29-2.58-0.88       C839.98,779.57,839.67,778.74,839.67,777.67z M845.6,770.9h-4.83l-1.01-19.35h6.85L845.6,770.9z" class="st2"/></g></g></g></g><g><g><path data-cppathid="10127" d="M828.9,591.88c0.1,0,0.18,0.04,0.23,0.13l28.84,49.95c0.05,0.09,0.05,0.18,0,0.27     c-0.05,0.09-0.13,0.13-0.23,0.13h-57.68c-0.1,0-0.18-0.04-0.23-0.13c-0.05-0.09-0.05-0.18,0-0.27l28.84-49.95     C828.72,591.92,828.8,591.88,828.9,591.88L828.9,591.88z M828.9,590.31c-0.62,0-1.24,0.31-1.59,0.92l-28.84,49.95     c-0.71,1.22,0.18,2.75,1.59,2.75h57.68c1.41,0,2.3-1.53,1.59-2.75l-28.84-49.95C830.14,590.62,829.52,590.31,828.9,590.31     L828.9,590.31z" class="st2"/><g><g><path data-cppathid="10128" d="M825.42,634.02c0-1.11,0.3-1.95,0.89-2.52c0.59-0.57,1.46-0.85,2.6-0.85c1.1,0,1.94,0.29,2.55,0.87       c0.6,0.58,0.9,1.41,0.9,2.5c0,1.04-0.3,1.87-0.91,2.47c-0.61,0.6-1.45,0.9-2.54,0.9c-1.11,0-1.97-0.29-2.58-0.88       C825.72,635.92,825.42,635.09,825.42,634.02z M831.34,627.24h-4.83l-1.01-19.35h6.85L831.34,627.24z" class="st2"/></g></g></g></g><g><g><path data-cppathid="10129" d="M951.28,403.31c0.1,0,0.18,0.04,0.23,0.13l28.84,49.95c0.05,0.09,0.05,0.18,0,0.27s-0.13,0.13-0.23,0.13     h-57.68c-0.1,0-0.18-0.04-0.23-0.13c-0.05-0.09-0.05-0.18,0-0.27l28.84-49.95C951.1,403.35,951.17,403.31,951.28,403.31     L951.28,403.31z M951.28,401.74c-0.62,0-1.24,0.31-1.59,0.92l-28.84,49.95c-0.71,1.22,0.18,2.75,1.59,2.75h57.68     c1.41,0,2.3-1.53,1.59-2.75l-28.84-49.95C952.51,402.04,951.89,401.74,951.28,401.74L951.28,401.74z" class="st2"/><g><g><path data-cppathid="10130" d="M947.79,445.44c0-1.11,0.3-1.95,0.89-2.52c0.59-0.57,1.46-0.85,2.6-0.85c1.1,0,1.94,0.29,2.55,0.87       c0.6,0.58,0.9,1.41,0.9,2.5c0,1.04-0.3,1.87-0.91,2.47c-0.61,0.6-1.45,0.9-2.54,0.9c-1.11,0-1.97-0.29-2.58-0.88       C948.09,447.34,947.79,446.51,947.79,445.44z M953.71,438.67h-4.83l-1.01-19.35h6.85L953.71,438.67z" class="st2"/></g></g></g></g><g><g><path data-cppathid="10131" d="M810.86,290.78c0.1,0,0.18,0.04,0.23,0.13l28.84,49.95c0.05,0.09,0.05,0.18,0,0.27s-0.13,0.13-0.23,0.13     h-57.68c-0.1,0-0.18-0.04-0.23-0.13s-0.05-0.18,0-0.27l28.84-49.95C810.68,290.83,810.76,290.78,810.86,290.78L810.86,290.78z      M810.86,289.21c-0.62,0-1.24,0.31-1.59,0.92l-28.84,49.95c-0.71,1.22,0.18,2.75,1.59,2.75h57.68c1.41,0,2.3-1.53,1.59-2.75     l-28.84-49.95C812.1,289.52,811.48,289.21,810.86,289.21L810.86,289.21z" class="st2"/><g><g><path data-cppathid="10132" d="M807.37,332.92c0-1.11,0.3-1.95,0.89-2.52c0.59-0.57,1.46-0.85,2.6-0.85c1.1,0,1.94,0.29,2.55,0.87       c0.6,0.58,0.9,1.41,0.9,2.5c0,1.04-0.3,1.87-0.91,2.47c-0.61,0.6-1.45,0.9-2.54,0.9c-1.11,0-1.97-0.29-2.58-0.88       C807.68,334.82,807.37,333.99,807.37,332.92z M813.3,326.14h-4.83l-1.01-19.35h6.85L813.3,326.14z" class="st2"/></g></g></g></g><g><g><path data-cppathid="10133" d="M760.64,176.27c0.1,0,0.18,0.04,0.23,0.13l28.84,49.95c0.05,0.09,0.05,0.18,0,0.27     c-0.05,0.09-0.13,0.13-0.23,0.13H731.8c-0.1,0-0.18-0.04-0.23-0.13c-0.05-0.09-0.05-0.18,0-0.27l28.84-49.95     C760.46,176.32,760.54,176.27,760.64,176.27L760.64,176.27z M760.64,174.7c-0.62,0-1.24,0.31-1.59,0.92l-28.84,49.95     c-0.71,1.22,0.18,2.75,1.59,2.75h57.68c1.41,0,2.3-1.53,1.59-2.75l-28.84-49.95C761.87,175.01,761.26,174.7,760.64,174.7     L760.64,174.7z" class="st2"/><g><g><path data-cppathid="10134" d="M757.15,218.41c0-1.11,0.3-1.95,0.89-2.52c0.59-0.57,1.46-0.85,2.6-0.85c1.1,0,1.94,0.29,2.55,0.87       c0.6,0.58,0.9,1.41,0.9,2.5c0,1.04-0.3,1.87-0.91,2.47c-0.61,0.6-1.45,0.9-2.54,0.9c-1.11,0-1.97-0.29-2.58-0.88       C757.46,220.31,757.15,219.48,757.15,218.41z M763.07,211.63h-4.83l-1.01-19.35h6.85L763.07,211.63z" class="st2"/></g></g></g></g></g></svg>