<?xml version="1.0" encoding="UTF-8"?>
<svg xmlns="http://www.w3.org/2000/svg" onmouseup="{ if(window.parent.document.onmouseup) window.parent.document.onmouseup(arguments[0]);}" viewBox="0 0 1156.8 1080" data-name="Layer 1" id="Layer_1"><g data-name="Layer 1" id="Layer_1-2"><rect data-cppathid="10000" fill="#333e48" height="1080" width="1156.8"/></g><g style="isolation:isolate"><path data-cppathid="10001" fill="#fff" d="M193.67,506.51v25.94h-2.24V472h18.88q9.38,0,14.44,4.71t5.07,12.52q0,7.89-5,12.57t-14.46,4.69Zm0-2.24h16.64q8.59,0,12.93-4.27a14.38,14.38,0,0,0,4.34-10.67,14.53,14.53,0,0,0-4.32-10.81q-4.32-4.26-12.95-4.25H193.67Z"/><path data-cppathid="10002" fill="#fff" d="M256.5,533.32a17.2,17.2,0,0,1-13.38-6.14q-5.46-6.13-5.46-15.48v-2.65q0-9.76,5.42-16.05a17.22,17.22,0,0,1,13.63-6.28q7.47,0,11.91,4.91t4.44,13.43v3.45H239.9v3.19a20.83,20.83,0,0,0,4.65,13.8,14.85,14.85,0,0,0,11.95,5.58,20.42,20.42,0,0,0,7.74-1.49,16.58,16.58,0,0,0,6-4l1.21,1.74a18.15,18.15,0,0,1-6.1,4.29A21.4,21.4,0,0,1,256.5,533.32Zm.21-44.36a14.85,14.85,0,0,0-11.43,4.83A19.73,19.73,0,0,0,240.23,506l.13.24h30.46V504.9a17.22,17.22,0,0,0-3.77-11.44A12.79,12.79,0,0,0,256.71,489Z"/><path data-cppathid="10003" fill="#fff" d="M303.69,489.16l-2.9-.24A13,13,0,0,0,291,492.8,19,19,0,0,0,286.14,503v29.42H283.9v-44.9h1.82l.42,7.8v1.54a16.24,16.24,0,0,1,5.56-7.5,15.09,15.09,0,0,1,9.09-2.67,10.73,10.73,0,0,1,1.76.14c.54.1,1,.2,1.39.31Z"/><path data-cppathid="10004" fill="#fff" d="M313.9,487.55l.29,9a16.93,16.93,0,0,1,5.86-7.28,15.86,15.86,0,0,1,9.21-2.59,14.53,14.53,0,0,1,9.34,2.88q3.61,2.88,5,8.95a18,18,0,0,1,5.87-8.74,15.72,15.72,0,0,1,10-3.14q7.42,0,11.28,4.86t3.86,15.27v25.61h-2.28V506.72q0-9.75-3.49-13.78a11.68,11.68,0,0,0-9.29-4q-6.93,0-10.56,4.06a20.19,20.19,0,0,0-4.67,10.55c0,.55.05,1.11.08,1.68s0,1.14,0,1.72v25.52h-2.28v-23H342c0-.52,0-1,0-1.58s.05-1,.11-1.53c-.09-6.37-1.27-10.86-3.57-13.47a11.72,11.72,0,0,0-9.26-3.92q-6.84,0-10.44,4a19.94,19.94,0,0,0-4.66,10.27v29.26H312v-23h-.08c0-.39,0-.77,0-1.16s0-.87.06-1.45v-19.3Z"/><path data-cppathid="10005" fill="#fff" d="M391.31,473.44h-2.24v-5.73h2.24Zm0,59h-2.24v-44.9h2.24Z"/><path data-cppathid="10006" fill="#fff" d="M410.69,475.43v12.12h11v2.28h-11v31c0,3.68.62,6.31,1.87,7.87a6,6,0,0,0,4.94,2.34,19.86,19.86,0,0,0,2-.08c.58,0,1.38-.15,2.41-.29l.41,2a10.24,10.24,0,0,1-2.16.46,23.86,23.86,0,0,1-2.53.12,8.28,8.28,0,0,1-6.87-2.94c-1.56-2-2.34-5.13-2.34-9.51v-31h-8.3v-2.28h8.3V475.43Z"/><path data-cppathid="10007" fill="#fff" d="M448,533.32a17.2,17.2,0,0,1-13.38-6.14Q429.2,521,429.2,511.7v-2.65q0-9.76,5.42-16.05a17.22,17.22,0,0,1,13.63-6.28q7.47,0,11.91,4.91t4.44,13.43v3.45H431.44v3.19a20.83,20.83,0,0,0,4.65,13.8,14.85,14.85,0,0,0,12,5.58,20.51,20.51,0,0,0,7.75-1.49,16.62,16.62,0,0,0,6-4l1.21,1.74a18.15,18.15,0,0,1-6.1,4.29A21.37,21.37,0,0,1,448,533.32Zm.21-44.36a14.85,14.85,0,0,0-11.43,4.83A19.73,19.73,0,0,0,431.77,506l.13.24h30.46V504.9a17.22,17.22,0,0,0-3.77-11.44A12.79,12.79,0,0,0,448.25,489Z"/></g><g style="isolation:isolate"><path data-cppathid="10008" fill="#fff" d="M513.33,533.32q-10.05,0-15.69-6.16T492,511.29v-1.66q0-10.1,5.47-16.52t15.07-6.39q9,0,13.88,5.54t4.84,14.92v6.26H504.49l-.13.25a12.1,12.1,0,0,0,2.81,7.47q2.5,2.87,7.45,2.87a25.09,25.09,0,0,0,6.91-.83,28.35,28.35,0,0,0,5.87-2.53l3.28,7.47a22.76,22.76,0,0,1-7.31,3.69A32.27,32.27,0,0,1,513.33,533.32Zm-.79-37.26a6.71,6.71,0,0,0-5.62,2.51,12.55,12.55,0,0,0-2.39,6.66l.08.2h14.78v-.91a10.45,10.45,0,0,0-1.62-6.2Q516.15,496.06,512.54,496.06Z"/><path data-cppathid="10009" fill="#fff" d="M562.59,520a4.16,4.16,0,0,0-1.93-3.42c-1.28-1-3.67-1.79-7.16-2.51q-7.87-1.58-12-4.78a10.43,10.43,0,0,1-4.09-8.67,12.4,12.4,0,0,1,4.9-9.84q4.89-4.06,13-4.06,8.5,0,13.64,4.06a11.91,11.91,0,0,1,4.91,10.13l-.08.25h-11.7a5.86,5.86,0,0,0-1.75-4.4,8.15,8.15,0,0,0-9.62-.25,4.51,4.51,0,0,0-1.71,3.57,4,4,0,0,0,1.77,3.38c1.17.87,3.56,1.66,7.16,2.35,5.5,1.11,9.61,2.73,12.3,4.88a10.68,10.68,0,0,1,4.05,8.86,11.86,11.86,0,0,1-5.19,9.92q-5.19,3.85-13.69,3.85-9,0-14.18-4.54t-5-10.35l.09-.25h11.08c.08,2.4.87,4.15,2.36,5.23A9.85,9.85,0,0,0,555.7,525a8.39,8.39,0,0,0,5.13-1.34A4.38,4.38,0,0,0,562.59,520Z"/><path data-cppathid="10010" fill="#fff" d="M596.67,476.55v11h7.59v8.51h-7.59v22.86a5.24,5.24,0,0,0,1.1,3.74,3.83,3.83,0,0,0,2.88,1.12,13.09,13.09,0,0,0,1.66-.1,13.59,13.59,0,0,0,1.62-.36l1,8.76a24.23,24.23,0,0,1-3.55.93,21,21,0,0,1-3.76.31q-6.25,0-9.65-3.44T584.59,519V496.06H578v-8.51h6.56v-11Z"/><path data-cppathid="10011" fill="#fff" d="M638.21,532.45a26.14,26.14,0,0,1-1.14-3.23,22.66,22.66,0,0,1-.68-3.49,16.62,16.62,0,0,1-4.94,5.44,12.44,12.44,0,0,1-7.31,2.15q-7,0-10.87-3.63t-3.82-9.89a11.87,11.87,0,0,1,5.09-10.24q5.07-3.63,14.83-3.63h6.81v-3.57a7,7,0,0,0-1.7-5,6.68,6.68,0,0,0-5.06-1.78,6.57,6.57,0,0,0-4.55,1.43,5,5,0,0,0-1.6,3.92H611.61l-.08-.25q-.3-5.69,5-9.81t13.71-4.13q8.1,0,13.1,4.06c3.33,2.72,5,6.6,5,11.67V521a34.83,34.83,0,0,0,.48,5.93,29,29,0,0,0,1.51,5.52Zm-11.08-8.09a10.26,10.26,0,0,0,5.65-1.58,8.44,8.44,0,0,0,3.4-3.65v-6.35h-6.81a8.09,8.09,0,0,0-5.83,1.91,6.29,6.29,0,0,0-2,4.69A4.69,4.69,0,0,0,623,523,5.85,5.85,0,0,0,627.13,524.36Z"/><path data-cppathid="10012" fill="#fff" d="M697.9,511.24q0,10.05-4.49,16.07t-12.95,6a13.64,13.64,0,0,1-6.86-1.66,14.08,14.08,0,0,1-5-4.85l-1,5.64H657.39V467.71h12.08v24.61a13.65,13.65,0,0,1,4.67-4.15,13,13,0,0,1,6.24-1.45q8.55,0,13,6.45t4.49,17.2Zm-12.08-.87q0-6.56-1.93-10.39a6.78,6.78,0,0,0-6.58-3.84,9,9,0,0,0-4.77,1.18,8.19,8.19,0,0,0-3.07,3.38v19a7.53,7.53,0,0,0,3.09,3.11,9.91,9.91,0,0,0,4.83,1.08q4.7,0,6.56-3.3c1.25-2.2,1.87-5.31,1.87-9.36Z"/><path data-cppathid="10013" fill="#fff" d="M718.11,532.45H706V467.71h12.12Z"/><path data-cppathid="10014" fill="#fff" d="M747.54,533.32q-10,0-15.69-6.16t-5.65-15.87v-1.66q0-10.1,5.48-16.52t15.07-6.39q9,0,13.88,5.54t4.83,14.92v6.26H738.7l-.13.25a12.09,12.09,0,0,0,2.8,7.47q2.52,2.87,7.45,2.87a25,25,0,0,0,6.91-.83,28.42,28.42,0,0,0,5.88-2.53l3.27,7.47a22.7,22.7,0,0,1-7.3,3.69A32.27,32.27,0,0,1,747.54,533.32Zm-.79-37.26a6.73,6.73,0,0,0-5.63,2.51,12.55,12.55,0,0,0-2.38,6.66l.08.2h14.77v-.91a10.45,10.45,0,0,0-1.61-6.2C750.9,496.81,749.15,496.06,746.75,496.06Z"/><path data-cppathid="10015" fill="#fff" d="M791.28,524a6.73,6.73,0,0,0,5-1.89,6.84,6.84,0,0,0,1.87-5h11l.08.25a14,14,0,0,1-5.06,11.39,18.92,18.92,0,0,1-13,4.58q-10,0-15.4-6.37t-5.43-16.29v-1.24q0-9.89,5.41-16.29t15.34-6.41q8.22,0,13.24,4.73t4.85,12.45l-.08.25h-11a9,9,0,0,0-1.85-5.79,6.18,6.18,0,0,0-5.12-2.3q-4.69,0-6.66,3.75a20.52,20.52,0,0,0-2,9.61v1.24a20.42,20.42,0,0,0,2,9.67Q786.51,524,791.28,524Z"/><path data-cppathid="10016" fill="#fff" d="M835.81,533.32q-10,0-15.68-6.16t-5.65-15.87v-1.66q0-10.1,5.48-16.52T835,486.72q9,0,13.88,5.54t4.83,14.92v6.26H827l-.12.25a12.09,12.09,0,0,0,2.8,7.47c1.67,1.91,4.16,2.87,7.45,2.87a25,25,0,0,0,6.91-.83,28.12,28.12,0,0,0,5.87-2.53l3.28,7.47a22.7,22.7,0,0,1-7.3,3.69A32.29,32.29,0,0,1,835.81,533.32ZM835,496.06a6.73,6.73,0,0,0-5.63,2.51,12.55,12.55,0,0,0-2.38,6.66l.08.2h14.77v-.91a10.45,10.45,0,0,0-1.62-6.2C839.18,496.81,837.43,496.06,835,496.06Z"/><path data-cppathid="10017" fill="#fff" d="M884.42,498l-4.45-.12a8.08,8.08,0,0,0-4.44,1.12,7.15,7.15,0,0,0-2.65,3.15v30.34H860.8v-44.9h11.25l.54,6.64a14.16,14.16,0,0,1,4.08-5.5,9.1,9.1,0,0,1,5.79-2,9.87,9.87,0,0,1,1.69.14c.51.1,1,.22,1.55.35Z"/></g><g style="isolation:isolate"><path data-cppathid="10018" fill="#fff" d="M934,533.32a17.19,17.19,0,0,1-13.38-6.14q-5.46-6.13-5.46-15.48v-2.65q0-9.76,5.41-16.05a17.24,17.24,0,0,1,13.64-6.28q7.47,0,11.91,4.91t4.44,13.43v3.45H917.37v3.19A20.83,20.83,0,0,0,922,525.5a14.85,14.85,0,0,0,12,5.58,20.5,20.5,0,0,0,7.74-1.49,16.58,16.58,0,0,0,6-4l1.2,1.74a18.05,18.05,0,0,1-6.1,4.29A21.35,21.35,0,0,1,934,533.32Zm.21-44.36a14.89,14.89,0,0,0-11.44,4.83,19.78,19.78,0,0,0-5,12.23l.13.24h30.46V504.9a17.17,17.17,0,0,0-3.78-11.44A12.77,12.77,0,0,0,934.18,489Z"/><path data-cppathid="10019" fill="#fff" d="M964.14,532.45H961.9V467.71h2.24Z"/></g><g style="isolation:isolate"><path data-cppathid="10020" fill="#f7a800" d="M221.56,596.4H197.48v26.05H184.91v-62.7h41v9.69H197.48v17.27h24.08Z"/><path data-cppathid="10021" fill="#f7a800" d="M246.53,612.81h28.08v9.64H234v-62.7h12.57Z"/><path data-cppathid="10022" fill="#f7a800" d="M331.63,559.75v41q0,10.59-7,16.58t-18.21,6q-11.16,0-18.11-6t-7-16.58v-41H294v41q0,6.29,3.36,9.6t9.09,3.32q5.81,0,9.21-3.32t3.41-9.6v-41Z"/><path data-cppathid="10023" fill="#f7a800" d="M367.51,559.75H380V603q0,9.3-5.71,14.81t-14.66,5.52q-9.94,0-15.76-4.91t-5.6-14.26l.09-.26h12.23c0,3.34.81,5.8,2.45,7.39a9.06,9.06,0,0,0,6.59,2.39,6.79,6.79,0,0,0,5.64-2.86,12.53,12.53,0,0,0,2.2-7.82Z"/><path data-cppathid="10024" fill="#f7a800" d="M442.23,596.74q0,11.6-7.28,19.1T416,623.36q-11.62,0-18.86-7.54t-7.24-19.08V585.46q0-11.51,7.22-19.06t18.79-7.56q11.67,0,19,7.56t7.32,19.06ZM429.7,585.37q0-7.32-3.67-12a12.12,12.12,0,0,0-10.12-4.7,11.73,11.73,0,0,0-9.92,4.7q-3.56,4.7-3.56,12v11.37q0,7.46,3.58,12.15a11.83,11.83,0,0,0,10,4.69,12,12,0,0,0,10.08-4.69q3.62-4.7,3.62-12.15Z"/><path data-cppathid="10025" fill="#f7a800" d="M474.14,622.45v-62.7H496q11.49,0,19,7.34t7.45,18.84v10.38q0,11.55-7.45,18.84t-19,7.3Zm12.58-53v43.37H496a12.3,12.3,0,0,0,10-4.63q3.8-4.63,3.79-11.87V585.85q0-7.2-3.79-11.8a12.29,12.29,0,0,0-10-4.61Z"/><path data-cppathid="10026" fill="#f7a800" d="M568.33,594.89H545.07v17.92h27.65v9.64H532.5v-62.7h40.13v9.69H545.07V585.2h23.26Z"/><path data-cppathid="10027" fill="#f7a800" d="M636.2,608.93H615.87l-4.22,13.52H598.52l21.14-62.7h12.88l21.06,62.7H640.46ZM619,599.07h14.17L626.21,577H626Z"/><path data-cppathid="10028" fill="#f7a800" d="M672.2,612.81h28.08v9.64H659.63v-62.7H672.2Z"/><path data-cppathid="10029" fill="#f7a800" d="M744.47,594.89H721.21v17.92h27.65v9.64H708.64v-62.7h40.13v9.69H721.21V585.2h23.26Z"/><path data-cppathid="10030" fill="#f7a800" d="M770.26,597.39v25.06H757.69v-62.7h21.7q10.73,0,16.78,4.89t6.05,13.63a13.74,13.74,0,0,1-2.56,8.33,17.82,17.82,0,0,1-7.47,5.66q5.55,1.65,8,5.47a17.31,17.31,0,0,1,2.44,9.48v4.61a22.49,22.49,0,0,0,.71,5.49,7.51,7.51,0,0,0,2.43,4.24v.9h-13a7,7,0,0,1-2.22-4.56,40.19,40.19,0,0,1-.49-6.16v-4.44a10,10,0,0,0-2.57-7.3q-2.57-2.6-7.25-2.6Zm0-9.69h8.92q5.3,0,7.88-2.24t2.58-6.63A9.11,9.11,0,0,0,787,572q-2.61-2.54-7.65-2.54h-9.13Z"/><path data-cppathid="10031" fill="#f7a800" d="M855.45,569.44H837.53v53H825v-53H807.3v-9.69h48.15Z"/><path data-cppathid="10032" fill="#f7a800" d="M890.33,608.93H870l-4.22,13.52H852.65l21.15-62.7h12.87l21.06,62.7H894.6Zm-17.22-9.86h14.17L880.34,577h-.26Z"/><path data-cppathid="10033" fill="#f7a800" d="M946.45,606.09a7.36,7.36,0,0,0-2.52-5.82q-2.52-2.19-8.85-4.13-10.86-3.27-16.47-7.71a14.58,14.58,0,0,1-5.62-12.1,15.23,15.23,0,0,1,6.33-12.6q6.33-4.89,16.15-4.89,10.42,0,16.77,5.26a16.42,16.42,0,0,1,6.14,13.78l-.09.26H946.1c0-3.13-.94-5.54-2.84-7.22s-4.55-2.52-8-2.52c-3.1,0-5.49.75-7.19,2.24a7.33,7.33,0,0,0-2.54,5.73,6.24,6.24,0,0,0,2.76,5.23q2.76,2.05,9.52,4.33,10.33,2.94,15.76,7.65A15.63,15.63,0,0,1,959,606a15,15,0,0,1-6.28,12.71q-6.3,4.65-16.63,4.65a29.67,29.67,0,0,1-17.37-5q-7.26-5-7-15l.09-.26H924q0,5.55,3.27,8.18t8.87,2.63c3.36,0,5.93-.7,7.69-2.11A6.84,6.84,0,0,0,946.45,606.09Z"/></g><g style="isolation:isolate"><path data-cppathid="10034" fill="#fff" d="M215,690.13a15.48,15.48,0,0,1-6.12,5.84,20.06,20.06,0,0,1-9.85,2.25c-3.68,0-6.58-1-8.68-3a10.76,10.76,0,0,1-3.15-8.15q0-5,4.71-8.35a19.75,19.75,0,0,1,11.77-3.37H215v-5.78a9.69,9.69,0,0,0-3.17-7.71c-2.11-1.84-5.08-2.77-8.92-2.77a13.58,13.58,0,0,0-8.66,2.6,8.2,8.2,0,0,0-3.27,6.71l-1.65-.08-.07-.18a9.22,9.22,0,0,1,3.58-7.82q3.81-3.19,10.07-3.2t10.22,3.22q3.85,3.23,3.85,9.3v19.85a33.84,33.84,0,0,0,.24,4.07,25.29,25.29,0,0,0,.78,3.91h-2.19c-.32-1.73-.54-3-.65-3.9a22.25,22.25,0,0,1-.16-2.8Zm-16,6.15a18.15,18.15,0,0,0,10-2.6,15.09,15.09,0,0,0,6-7.43v-8.9H203.82a18.15,18.15,0,0,0-10.38,2.84q-4.23,2.84-4.23,7a8.62,8.62,0,0,0,2.69,6.54A10,10,0,0,0,199.06,696.28Z"/><path data-cppathid="10035" fill="#fff" d="M231.44,657.83l.25,8a14.5,14.5,0,0,1,5.28-6.42,14.89,14.89,0,0,1,8.46-2.29q6.48,0,9.72,4.08t3.24,12.94v23.33h-2v-23.4q0-8.24-3-11.61a10.1,10.1,0,0,0-8-3.37q-6.22,0-9.52,3.63a17.66,17.66,0,0,0-4.21,9.34v25.41h-2V677.17h-.11c0-.47,0-.94,0-1.42s0-1,.09-1.44V657.83Z"/><path data-cppathid="10036" fill="#fff" d="M274.91,647.14v10.69h9.74v2h-9.74v27.4c0,3.24.54,5.56,1.64,6.94a5.32,5.32,0,0,0,4.36,2.06c.66,0,1.25,0,1.76-.07s1.22-.13,2.12-.25l.37,1.79a10,10,0,0,1-1.91.4,18.67,18.67,0,0,1-2.23.11,7.27,7.27,0,0,1-6.06-2.6c-1.38-1.73-2.07-4.53-2.07-8.38v-27.4h-7.32v-2h7.32V647.14Z"/><path data-cppathid="10037" fill="#fff" d="M307.86,698.22a15.18,15.18,0,0,1-11.81-5.42,19.79,19.79,0,0,1-4.81-13.66V676.8q0-8.61,4.78-14.16a15.21,15.21,0,0,1,12-5.54,13.46,13.46,0,0,1,10.51,4.34q3.92,4.34,3.92,11.84v3H293.22v2.82a18.35,18.35,0,0,0,4.1,12.18,13.1,13.1,0,0,0,10.54,4.92,18.28,18.28,0,0,0,6.83-1.31,14.56,14.56,0,0,0,5.33-3.52l1.06,1.54a15.91,15.91,0,0,1-5.38,3.79A19,19,0,0,1,307.86,698.22Zm.19-39.15A13.13,13.13,0,0,0,298,663.34a17.35,17.35,0,0,0-4.45,10.78l.11.23H320.5v-1.21a15.17,15.17,0,0,0-3.33-10.09A11.29,11.29,0,0,0,308.05,659.07Z"/><path data-cppathid="10038" fill="#fff" d="M348.15,677.6q0-9.4,4-15a12.76,12.76,0,0,1,11-5.54,14.68,14.68,0,0,1,13.4,7.72v-24.5h2v29.81s0,0,0,0v16.15a.24.24,0,0,0,0,.11v11h-1.9l-.08-6.11a14.06,14.06,0,0,1-5.42,5,16.67,16.67,0,0,1-8.05,1.85,12.83,12.83,0,0,1-10.94-5.34q-3.93-5.36-3.93-14.51Zm2.05.77q0,8.21,3.24,13a10.75,10.75,0,0,0,9.54,4.83,14.87,14.87,0,0,0,8.57-2.32,13.22,13.22,0,0,0,4.94-6.21V669a16.54,16.54,0,0,0-4.63-7.05q-3.17-2.83-8.81-2.84a10.64,10.64,0,0,0-9.57,5.15q-3.28,5.14-3.28,13.38Z"/><path data-cppathid="10039" fill="#fff" d="M404.91,698.22a15.18,15.18,0,0,1-11.81-5.42,19.79,19.79,0,0,1-4.82-13.66V676.8q0-8.61,4.78-14.16a15.24,15.24,0,0,1,12-5.54,13.43,13.43,0,0,1,10.51,4.34q3.93,4.34,3.92,11.84v3H390.26v2.82a18.4,18.4,0,0,0,4.1,12.18,13.12,13.12,0,0,0,10.55,4.92,18.31,18.31,0,0,0,6.83-1.31,14.64,14.64,0,0,0,5.33-3.52l1.06,1.54a16,16,0,0,1-5.38,3.79A19,19,0,0,1,404.91,698.22Zm.18-39.15A13.14,13.14,0,0,0,395,663.34a17.46,17.46,0,0,0-4.45,10.78l.11.23h26.88v-1.21a15.17,15.17,0,0,0-3.33-10.09A11.27,11.27,0,0,0,405.09,659.07Z"/><path data-cppathid="10040" fill="#fff" d="M453.36,687.75a7.81,7.81,0,0,0-2.69-5.73q-2.7-2.58-9.4-4-7.06-1.5-10.23-3.86a8.21,8.21,0,0,1-3.17-7,8.8,8.8,0,0,1,3.59-7.12q3.59-2.88,9.67-2.87,6.56,0,10.33,3.07a9.36,9.36,0,0,1,3.58,8l-.07.22h-1.68A8.35,8.35,0,0,0,450,661.8q-3.28-2.73-8.88-2.73t-8.42,2.4a7.09,7.09,0,0,0-2.86,5.55,6.88,6.88,0,0,0,2.42,5.31q2.42,2.2,9.59,3.85,6.63,1.53,10.05,4.19a8.84,8.84,0,0,1,3.43,7.42,9,9,0,0,1-3.81,7.54q-3.81,2.89-10.11,2.89-6.92,0-10.86-3.09a8.61,8.61,0,0,1-3.68-7.53l.08-.22h1.61a7.77,7.77,0,0,0,4,6.78,17.81,17.81,0,0,0,8.82,2.08q5.49,0,8.72-2.56A7.45,7.45,0,0,0,453.36,687.75Z"/><path data-cppathid="10041" fill="#fff" d="M476,689.07l1.87,5.34h.22l1.9-5.34,12.19-31.24h2.13l-15.42,39.59,0,0h-1.91l-15.38-39.62h2.13Z"/><path data-cppathid="10042" fill="#fff" d="M504.67,645.38h-2v-5.06h2Zm0,52.07h-2V657.83h2Z"/><path data-cppathid="10043" fill="#fff" d="M542.53,690.13a15.45,15.45,0,0,1-6.11,5.84,20.09,20.09,0,0,1-9.85,2.25q-5.54,0-8.68-3a10.76,10.76,0,0,1-3.15-8.15q0-5,4.7-8.35a19.76,19.76,0,0,1,11.78-3.37h11.31v-5.78a9.66,9.66,0,0,0-3.17-7.71c-2.11-1.84-5.08-2.77-8.91-2.77a13.54,13.54,0,0,0-8.66,2.6,8.18,8.18,0,0,0-3.28,6.71l-1.65-.08-.07-.18a9.23,9.23,0,0,1,3.59-7.82q3.81-3.19,10.07-3.2t10.21,3.22q3.86,3.23,3.85,9.3v19.85a33.84,33.84,0,0,0,.24,4.07,25.32,25.32,0,0,0,.79,3.91h-2.2c-.32-1.73-.53-3-.64-3.9a22.17,22.17,0,0,1-.17-2.8Zm-16,6.15a18.12,18.12,0,0,0,10-2.6,15,15,0,0,0,6-7.43v-8.9h-11.2a18.16,18.16,0,0,0-10.39,2.84q-4.23,2.84-4.23,7a8.6,8.6,0,0,0,2.7,6.54A10,10,0,0,0,526.57,696.28Z"/><path data-cppathid="10044" fill="#fff" d="M570.69,696.24a14.89,14.89,0,0,0,8.87-2.74q3.84-2.75,3.84-8.24h1.69l.07.22a10.82,10.82,0,0,1-4.27,9.28,16,16,0,0,1-10.2,3.46q-7.58,0-11.88-5.45t-4.3-14.36v-1.54q0-8.86,4.28-14.32a14.23,14.23,0,0,1,11.83-5.45A15.63,15.63,0,0,1,581,660.7q4.26,3.62,4.12,10.17l-.07.22H583.4q0-5.83-3.73-8.92a13.75,13.75,0,0,0-9-3.1q-7,0-10.55,5t-3.59,12.82v1.54q0,7.9,3.59,12.87T570.69,696.24Z"/><path data-cppathid="10045" fill="#fff" d="M597.76,645.38h-2v-5.06h2Zm0,52.07h-2V657.83h2Z"/><path data-cppathid="10046" fill="#fff" d="M607.64,676.87q0-8.72,4.82-14.24a16.95,16.95,0,0,1,25,0q4.82,5.52,4.81,14.24v1.54q0,8.76-4.81,14.28a16.93,16.93,0,0,1-25,0q-4.83-5.52-4.84-14.28Zm2,1.54a19.48,19.48,0,0,0,4.18,12.65,14.65,14.65,0,0,0,22.37,0,19.48,19.48,0,0,0,4.18-12.63v-1.54a19.46,19.46,0,0,0-4.21-12.54,14.49,14.49,0,0,0-22.34,0,19.5,19.5,0,0,0-4.18,12.54Z"/><path data-cppathid="10047" fill="#fff" d="M653.49,657.83l.26,8a14.54,14.54,0,0,1,5.27-6.42,14.93,14.93,0,0,1,8.46-2.29q6.48,0,9.73,4.08t3.24,12.94v23.33h-2v-23.4q0-8.24-3-11.61a10.1,10.1,0,0,0-8-3.37q-6.22,0-9.52,3.63a17.66,17.66,0,0,0-4.21,9.34v25.41h-2V677.17h-.11c0-.47,0-.94,0-1.42s0-1,.09-1.44V657.83Z"/><path data-cppathid="10048" fill="#fff" d="M706.74,698.22a15.18,15.18,0,0,1-11.81-5.42,19.79,19.79,0,0,1-4.81-13.66V676.8q0-8.61,4.77-14.16a15.24,15.24,0,0,1,12-5.54,13.43,13.43,0,0,1,10.51,4.34q3.93,4.34,3.92,11.84v3H692.09v2.82a18.4,18.4,0,0,0,4.1,12.18,13.12,13.12,0,0,0,10.55,4.92,18.28,18.28,0,0,0,6.83-1.31,14.56,14.56,0,0,0,5.33-3.52L720,693a15.91,15.91,0,0,1-5.38,3.79A19,19,0,0,1,706.74,698.22Zm.18-39.15a13.11,13.11,0,0,0-10.08,4.27,17.35,17.35,0,0,0-4.45,10.78l.11.23h26.88v-1.21A15.18,15.18,0,0,0,716,663.05,11.27,11.27,0,0,0,706.92,659.07Z"/><path data-cppathid="10049" fill="#fff" d="M755.19,687.75A7.81,7.81,0,0,0,752.5,682c-1.79-1.72-4.93-3.07-9.39-4q-7.08-1.5-10.24-3.86a8.21,8.21,0,0,1-3.17-7,8.8,8.8,0,0,1,3.59-7.12q3.59-2.88,9.67-2.87,6.56,0,10.33,3.07a9.4,9.4,0,0,1,3.59,8l-.08.22h-1.68a8.32,8.32,0,0,0-3.28-6.61c-2.19-1.82-5.14-2.73-8.88-2.73s-6.52.8-8.42,2.4a7.09,7.09,0,0,0-2.86,5.55,6.91,6.91,0,0,0,2.42,5.31q2.42,2.2,9.59,3.85,6.63,1.53,10,4.19a8.84,8.84,0,0,1,3.43,7.42,9,9,0,0,1-3.81,7.54q-3.81,2.89-10.11,2.89-6.91,0-10.86-3.09a8.61,8.61,0,0,1-3.68-7.53l.08-.22h1.61a7.77,7.77,0,0,0,4,6.78,17.81,17.81,0,0,0,8.82,2.08q5.49,0,8.72-2.56A7.45,7.45,0,0,0,755.19,687.75Z"/><path data-cppathid="10050" fill="#fff" d="M784.34,677.6q0-9.4,4-15a12.74,12.74,0,0,1,11-5.54,15.07,15.07,0,0,1,8,2.07,15.27,15.27,0,0,1,5.4,5.65v-24.5h2v29.81a0,0,0,0,0,0,0v16.15a.51.51,0,0,0,0,.11v11h-1.9l-.07-6.11a14.13,14.13,0,0,1-5.42,5,16.71,16.71,0,0,1-8.06,1.85,12.81,12.81,0,0,1-10.93-5.34q-3.94-5.36-3.94-14.51Zm2,.77q0,8.21,3.24,13a10.75,10.75,0,0,0,9.54,4.83,14.85,14.85,0,0,0,8.57-2.32,13.3,13.3,0,0,0,5-6.21V669a16.56,16.56,0,0,0-4.64-7.05q-3.16-2.83-8.8-2.84a10.66,10.66,0,0,0-9.58,5.15q-3.28,5.14-3.28,13.38Z"/><path data-cppathid="10051" fill="#fff" d="M841.1,698.22a15.18,15.18,0,0,1-11.81-5.42,19.79,19.79,0,0,1-4.81-13.66V676.8q0-8.61,4.78-14.16a15.21,15.21,0,0,1,12-5.54,13.46,13.46,0,0,1,10.51,4.34q3.91,4.34,3.92,11.84v3H826.46v2.82a18.35,18.35,0,0,0,4.1,12.18,13.1,13.1,0,0,0,10.54,4.92,18.28,18.28,0,0,0,6.83-1.31,14.56,14.56,0,0,0,5.33-3.52l1.06,1.54a15.91,15.91,0,0,1-5.38,3.79A19,19,0,0,1,841.1,698.22Zm.19-39.15a13.13,13.13,0,0,0-10.09,4.27,17.35,17.35,0,0,0-4.45,10.78l.11.23h26.88v-1.21a15.17,15.17,0,0,0-3.33-10.09A11.29,11.29,0,0,0,841.29,659.07Z"/><path data-cppathid="10052" fill="#fff" d="M885.67,697.45h-2V640.32h2Z"/><path data-cppathid="10053" fill="#fff" d="M895.56,676.87q0-8.72,4.82-14.24a16.94,16.94,0,0,1,25,0q4.82,5.52,4.82,14.24v1.54q0,8.76-4.82,14.28A15.74,15.74,0,0,1,913,698.22a15.91,15.91,0,0,1-12.57-5.53q-4.83-5.52-4.83-14.28Zm2,1.54a19.52,19.52,0,0,0,4.17,12.65,14.66,14.66,0,0,0,22.38,0,19.53,19.53,0,0,0,4.17-12.63v-1.54a19.41,19.41,0,0,0-4.21-12.54,14.49,14.49,0,0,0-22.34,0,19.55,19.55,0,0,0-4.17,12.54Z"/><path data-cppathid="10054" fill="#fff" d="M964,687.75a7.78,7.78,0,0,0-2.69-5.73q-2.68-2.58-9.39-4-7.06-1.5-10.24-3.86a8.2,8.2,0,0,1-3.16-7,8.78,8.78,0,0,1,3.59-7.12q3.58-2.88,9.66-2.87,6.56,0,10.33,3.07a9.4,9.4,0,0,1,3.59,8l-.07.22h-1.69a8.32,8.32,0,0,0-3.28-6.61q-3.27-2.73-8.88-2.73t-8.42,2.4a7.12,7.12,0,0,0-2.86,5.55,6.91,6.91,0,0,0,2.42,5.31q2.42,2.2,9.6,3.85c4.41,1,7.77,2.42,10,4.19a8.85,8.85,0,0,1,3.42,7.42,9,9,0,0,1-3.81,7.54q-3.81,2.89-10.1,2.89-6.93,0-10.86-3.09a8.59,8.59,0,0,1-3.68-7.53l.07-.22h1.61a7.79,7.79,0,0,0,4,6.78,17.82,17.82,0,0,0,8.83,2.08q5.49,0,8.71-2.56A7.45,7.45,0,0,0,964,687.75Z"/></g><g style="isolation:isolate"><path data-cppathid="10055" fill="#00ffd3" d="M222.61,753.74q0,9.25-4.28,14.89t-12,5.63a13.37,13.37,0,0,1-5.82-1.21,12,12,0,0,1-4.36-3.57v20H185V731.72h10.14l.66,4.93a13.42,13.42,0,0,1,4.45-4.22,12.07,12.07,0,0,1,6.08-1.49,13.87,13.87,0,0,1,12,6.06q4.29,6.06,4.28,15.93Zm-11.26-.81a20.19,20.19,0,0,0-2-9.56,6.4,6.4,0,0,0-6-3.67,8.53,8.53,0,0,0-4.34,1,7.46,7.46,0,0,0-2.84,3V762a6.9,6.9,0,0,0,2.84,2.7,9.6,9.6,0,0,0,4.41.92,6.46,6.46,0,0,0,6-3.2,16.93,16.93,0,0,0,1.91-8.68Z"/><path data-cppathid="10056" fill="#00ffd3" d="M254.17,773.45a22.7,22.7,0,0,1-1.06-3,20.41,20.41,0,0,1-.64-3.24,15.47,15.47,0,0,1-4.59,5.06,11.56,11.56,0,0,1-6.79,2q-6.56,0-10.11-3.37t-3.54-9.2a11,11,0,0,1,4.72-9.51q4.72-3.37,13.79-3.38h6.33v-3.31a6.52,6.52,0,0,0-1.58-4.67,6.21,6.21,0,0,0-4.71-1.66,6.09,6.09,0,0,0-4.22,1.33,4.65,4.65,0,0,0-1.49,3.65H229.44l-.08-.23q-.27-5.29,4.61-9.13t12.75-3.84c5,0,9.07,1.27,12.17,3.78s4.65,6.14,4.65,10.84v17.25a33.16,33.16,0,0,0,.44,5.51,27.94,27.94,0,0,0,1.41,5.13Zm-10.3-7.52a9.56,9.56,0,0,0,5.24-1.47,7.82,7.82,0,0,0,3.17-3.39v-5.9H246a7.51,7.51,0,0,0-5.42,1.77,5.85,5.85,0,0,0-1.83,4.36,4.37,4.37,0,0,0,1.37,3.38A5.44,5.44,0,0,0,243.87,765.93Z"/><path data-cppathid="10057" fill="#00ffd3" d="M293.94,741.4l-4.13-.12a7.55,7.55,0,0,0-4.13,1,6.69,6.69,0,0,0-2.47,2.94v28.19H272V731.72h10.45l.5,6.17a13.21,13.21,0,0,1,3.8-5.11,8.8,8.8,0,0,1,6.95-1.7q.71.13,1.44.33Z"/><path data-cppathid="10058" fill="#00ffd3" d="M324.41,773.45a24.22,24.22,0,0,1-1.06-3,20.41,20.41,0,0,1-.64-3.24,15.25,15.25,0,0,1-4.59,5.06,11.53,11.53,0,0,1-6.79,2q-6.56,0-10.1-3.37t-3.55-9.2a11,11,0,0,1,4.72-9.51q4.73-3.37,13.79-3.38h6.33v-3.31a6.52,6.52,0,0,0-1.58-4.67,6.2,6.2,0,0,0-4.71-1.66,6.1,6.1,0,0,0-4.22,1.33,4.65,4.65,0,0,0-1.49,3.65H299.69l-.08-.23q-.27-5.29,4.61-9.13T317,730.94c5,0,9.07,1.27,12.17,3.78s4.64,6.14,4.64,10.84v17.25a32.1,32.1,0,0,0,.45,5.51,26.44,26.44,0,0,0,1.41,5.13Zm-10.3-7.52a9.59,9.59,0,0,0,5.25-1.47,7.8,7.8,0,0,0,3.16-3.39v-5.9h-6.33a7.49,7.49,0,0,0-5.41,1.77,5.83,5.83,0,0,0-1.84,4.36,4.37,4.37,0,0,0,1.37,3.38A5.44,5.44,0,0,0,314.11,765.93Zm4.67-52h12.54l.07.24-10.68,10H311.1Z"/><path data-cppathid="10059" fill="#00ffd3" d="M352.69,731.72l.46,5.51a14.14,14.14,0,0,1,5-4.65,14.53,14.53,0,0,1,7-1.64,12.77,12.77,0,0,1,6.87,1.78,11,11,0,0,1,4.32,5.36,14.48,14.48,0,0,1,5-5.25,13.67,13.67,0,0,1,7.25-1.89,11.9,11.9,0,0,1,9.74,4.38Q402,739.7,402,748.69v24.76H390.68v-24.8q0-5-1.54-7a5.49,5.49,0,0,0-4.59-2,7.54,7.54,0,0,0-6.95,4c0,.49,0,.91,0,1.26s0,.7,0,1.06v27.42H366.46v-24.8c0-3.27-.52-5.57-1.55-6.92a5.44,5.44,0,0,0-4.62-2,8.76,8.76,0,0,0-4,.87,7.59,7.59,0,0,0-2.83,2.45v30.43H342.23V731.72Z"/><path data-cppathid="10060" fill="#00ffd3" d="M428.68,774.26q-9.35,0-14.58-5.72t-5.25-14.76v-1.54q0-9.37,5.09-15.36t14-5.94q8.42,0,12.91,5.15T445.34,750v5.83H420.46l-.11.23A11.18,11.18,0,0,0,423,763c1.55,1.78,3.86,2.66,6.92,2.66a23.06,23.06,0,0,0,6.43-.77,26,26,0,0,0,5.45-2.35l3.05,6.94a21,21,0,0,1-6.79,3.44A30.22,30.22,0,0,1,428.68,774.26Zm-.74-34.64a6.24,6.24,0,0,0-5.22,2.34,11.73,11.73,0,0,0-2.22,6.19l.08.19h13.73v-.85a9.68,9.68,0,0,0-1.51-5.76Q431.3,739.62,427.94,739.62Z"/><path data-cppathid="10061" fill="#00ffd3" d="M465.4,721.49v10.23h7.06v7.9H465.4v21.26a4.85,4.85,0,0,0,1,3.47,3.61,3.61,0,0,0,2.68,1,10.08,10.08,0,0,0,1.55-.1,13.27,13.27,0,0,0,1.5-.32l.93,8.14a23.7,23.7,0,0,1-3.3.86,19,19,0,0,1-3.49.29q-5.84,0-9-3.2c-2.1-2.13-3.15-5.52-3.15-10.14v-21.3h-6.09v-7.9h6.09V721.49Z"/><path data-cppathid="10062" fill="#00ffd3" d="M501.35,741.4l-4.13-.12a7.52,7.52,0,0,0-4.12,1,6.62,6.62,0,0,0-2.47,2.94v28.19H479.4V731.72h10.46l.5,6.17a13,13,0,0,1,3.8-5.11,8.78,8.78,0,0,1,6.94-1.7c.48.09,1,.2,1.45.33Z"/><path data-cppathid="10063" fill="#00ffd3" d="M504.71,752.2q0-9.33,5.2-15.3t14.43-6q9.25,0,14.51,5.94t5.24,15.32V753q0,9.4-5.23,15.33t-14.44,5.92q-9.25,0-14.49-5.92T504.71,753Zm11.22.81a18.11,18.11,0,0,0,2,9.16,7.7,7.7,0,0,0,12.86,0,18,18,0,0,0,2-9.14v-.81a17.81,17.81,0,0,0-2.05-9.07,6.91,6.91,0,0,0-6.44-3.51,6.84,6.84,0,0,0-6.38,3.53,18,18,0,0,0-2,9.05Z"/><path data-cppathid="10064" fill="#00ffd3" d="M573.6,761.88a3.9,3.9,0,0,0-1.79-3.18q-1.8-1.34-6.66-2.33-7.32-1.47-11.13-4.44a9.7,9.7,0,0,1-3.8-8.06,11.51,11.51,0,0,1,4.56-9.15c3-2.51,7.07-3.78,12.11-3.78,5.27,0,9.49,1.27,12.67,3.78a11,11,0,0,1,4.57,9.42l-.08.23H573.18a5.46,5.46,0,0,0-1.62-4.09,6.44,6.44,0,0,0-4.67-1.58,6.37,6.37,0,0,0-4.28,1.35,4.17,4.17,0,0,0-1.58,3.32,3.74,3.74,0,0,0,1.63,3.14q1.65,1.22,6.66,2.18,7.68,1.54,11.44,4.53a10,10,0,0,1,3.76,8.24,11,11,0,0,1-4.82,9.22q-4.83,3.59-12.73,3.58-8.34,0-13.18-4.22t-4.61-9.62l.08-.24h10.3a5.85,5.85,0,0,0,2.2,4.86,9,9,0,0,0,5.44,1.51,7.69,7.69,0,0,0,4.76-1.26A4.06,4.06,0,0,0,573.6,761.88Z"/><path data-cppathid="10065" fill="#00ffd3" d="M609.71,752.93q0-9.87,4.26-15.93a13.84,13.84,0,0,1,12-6.06,11.72,11.72,0,0,1,5.64,1.35,13.69,13.69,0,0,1,4.39,3.86V713.28h11.31v60.17h-9.61l-1-5.13a14,14,0,0,1-4.67,4.42,12.4,12.4,0,0,1-6.17,1.52q-7.68,0-11.94-5.63t-4.26-14.89Zm11.22.81c0,3.65.62,6.53,1.85,8.62a6.45,6.45,0,0,0,6,3.15,8.71,8.71,0,0,0,4.24-1,7.77,7.77,0,0,0,3-2.87V743.87a8.54,8.54,0,0,0-3-3.07,7.85,7.85,0,0,0-4.18-1.1,6.35,6.35,0,0,0-6,3.67,20.72,20.72,0,0,0-1.91,9.56Z"/><path data-cppathid="10066" fill="#00ffd3" d="M674.12,774.26q-9.33,0-14.58-5.72t-5.24-14.76v-1.54q0-9.37,5.09-15.36t14-5.94q8.42,0,12.91,5.15T690.79,750v5.83H665.91l-.12.23A11.25,11.25,0,0,0,668.4,763c1.55,1.78,3.86,2.66,6.92,2.66a22.93,22.93,0,0,0,6.42-.77,26.3,26.3,0,0,0,5.46-2.35l3,6.94a21.09,21.09,0,0,1-6.79,3.44A30.29,30.29,0,0,1,674.12,774.26Zm-.73-34.64a6.24,6.24,0,0,0-5.22,2.34,11.56,11.56,0,0,0-2.22,6.19l.07.19h13.74v-.85a9.68,9.68,0,0,0-1.51-5.76Q676.75,739.62,673.39,739.62Z"/><path data-cppathid="10067" fill="#00ffd3" d="M734.46,765.62a6.24,6.24,0,0,0,4.66-1.75,6.36,6.36,0,0,0,1.74-4.69h10.26l.08.23A13.07,13.07,0,0,1,746.49,770a17.6,17.6,0,0,1-12,4.26q-9.27,0-14.32-5.92t-5-15.14V752q0-9.18,5-15.14t14.26-6q7.64,0,12.3,4.4a14.71,14.71,0,0,1,4.52,11.57l-.08.24H740.86a8.33,8.33,0,0,0-1.72-5.39,5.78,5.78,0,0,0-4.76-2.14,6.43,6.43,0,0,0-6.19,3.49,19.06,19.06,0,0,0-1.84,8.93v1.16a19,19,0,0,0,1.84,9Q730,765.63,734.46,765.62Z"/><path data-cppathid="10068" fill="#00ffd3" d="M782.36,773.45a24.22,24.22,0,0,1-1.06-3,21.58,21.58,0,0,1-.63-3.24,15.47,15.47,0,0,1-4.59,5.06,11.58,11.58,0,0,1-6.79,2q-6.56,0-10.11-3.37a12.12,12.12,0,0,1-3.55-9.2,11,11,0,0,1,4.73-9.51q4.73-3.37,13.79-3.38h6.32v-3.31a6.48,6.48,0,0,0-1.58-4.67,6.18,6.18,0,0,0-4.7-1.66,6.11,6.11,0,0,0-4.23,1.33,4.65,4.65,0,0,0-1.48,3.65H757.64l-.08-.23q-.27-5.29,4.61-9.13t12.75-3.84c5,0,9.07,1.27,12.17,3.78s4.65,6.14,4.65,10.84v17.25a33.16,33.16,0,0,0,.44,5.51,27.94,27.94,0,0,0,1.41,5.13Zm-10.29-7.52a9.56,9.56,0,0,0,5.24-1.47,7.8,7.8,0,0,0,3.16-3.39v-5.9h-6.32a7.51,7.51,0,0,0-5.42,1.77,5.85,5.85,0,0,0-1.83,4.36,4.34,4.34,0,0,0,1.37,3.38A5.44,5.44,0,0,0,772.07,765.93Z"/><path data-cppathid="10069" fill="#00ffd3" d="M812,773.45H800.76V713.28H812Z"/><path data-cppathid="10070" fill="#00ffd3" d="M833.13,721.72H821.86v-8.44h11.27Zm0,51.73H821.86V731.72h11.27Z"/><path data-cppathid="10071" fill="#00ffd3" d="M840.65,752.93q0-9.87,4.26-15.93a13.84,13.84,0,0,1,12-6.06,11.68,11.68,0,0,1,5.63,1.35,13.72,13.72,0,0,1,4.4,3.86V713.28h11.3v60.17h-9.6l-1-5.13a14,14,0,0,1-4.67,4.42,12.38,12.38,0,0,1-6.17,1.52q-7.68,0-11.94-5.63t-4.26-14.89Zm11.23.81c0,3.65.61,6.53,1.85,8.62a6.43,6.43,0,0,0,6,3.15,8.75,8.75,0,0,0,4.25-1,7.77,7.77,0,0,0,3-2.87V743.87a8.62,8.62,0,0,0-3-3.07,7.89,7.89,0,0,0-4.19-1.1,6.36,6.36,0,0,0-6,3.67,20.73,20.73,0,0,0-1.9,9.56Z"/><path data-cppathid="10072" fill="#00ffd3" d="M911.59,773.45a22.7,22.7,0,0,1-1.06-3,20.41,20.41,0,0,1-.64-3.24,15.47,15.47,0,0,1-4.59,5.06,11.56,11.56,0,0,1-6.79,2q-6.56,0-10.1-3.37t-3.55-9.2a11,11,0,0,1,4.72-9.51q4.73-3.37,13.79-3.38h6.33v-3.31a6.52,6.52,0,0,0-1.58-4.67,6.21,6.21,0,0,0-4.71-1.66,6.09,6.09,0,0,0-4.22,1.33,4.65,4.65,0,0,0-1.49,3.65H886.86l-.07-.23q-.28-5.29,4.6-9.13t12.75-3.84c5,0,9.07,1.27,12.17,3.78s4.65,6.14,4.65,10.84v17.25a32.1,32.1,0,0,0,.45,5.51,27.13,27.13,0,0,0,1.4,5.13Zm-10.3-7.52a9.62,9.62,0,0,0,5.25-1.47,7.86,7.86,0,0,0,3.16-3.39v-5.9h-6.33a7.51,7.51,0,0,0-5.42,1.77,5.85,5.85,0,0,0-1.83,4.36,4.37,4.37,0,0,0,1.37,3.38A5.44,5.44,0,0,0,901.29,765.93Z"/><path data-cppathid="10073" fill="#00ffd3" d="M927.67,752.93q0-9.87,4.27-15.93a13.82,13.82,0,0,1,12-6.06,11.66,11.66,0,0,1,5.63,1.35,13.72,13.72,0,0,1,4.4,3.86V713.28h11.3v60.17h-9.6l-1-5.13a14,14,0,0,1-4.66,4.42,12.4,12.4,0,0,1-6.17,1.52q-7.68,0-11.94-5.63t-4.27-14.89Zm11.23.81c0,3.65.62,6.53,1.85,8.62a6.44,6.44,0,0,0,6,3.15,8.71,8.71,0,0,0,4.24-1,7.77,7.77,0,0,0,3-2.87V743.87a8.54,8.54,0,0,0-3-3.07,7.89,7.89,0,0,0-4.19-1.1,6.34,6.34,0,0,0-6,3.67,20.72,20.72,0,0,0-1.91,9.56Z"/></g><line data-cppathid="10074" stroke-width="2" stroke-linejoin="round" stroke-linecap="round" stroke="#00ffd3" fill="none" y2="194.4" x2="1133.8" y1="194.4" x1="21.1"/><path data-cppathid="10075" fill="#00ffd3" d="M1103.4,22a30.39,30.39,0,0,1,30.4,30.4v975.2a30.39,30.39,0,0,1-30.4,30.4H51.4A30.39,30.39,0,0,1,21,1027.6V52.4A30.39,30.39,0,0,1,51.4,22h1052m0-2H51.4A32.39,32.39,0,0,0,19,52.4v975.2A32.39,32.39,0,0,0,51.4,1060h1052a32.39,32.39,0,0,0,32.4-32.4V52.4A32.39,32.39,0,0,0,1103.4,20Z"/><path data-cppathid="10076" fill="#f7a800" d="M36.2,230.9v90.2L147,210.3l-90-.2A20.72,20.72,0,0,0,36.2,230.9Z"/><path data-cppathid="10077" fill="#0099a8" d="M1118.4,1023.6V933.4l-110.8,110.8,90,.2A20.72,20.72,0,0,0,1118.4,1023.6Z"/><g style="isolation:isolate"><path data-cppathid="10078" fill="#f7a800" d="M323.61,117.76h-17.4v13.41H326.9v7.22H296.8V91.47h30v7.25H306.21v11.79h17.4Z"/><path data-cppathid="10079" fill="#f7a800" d="M358,126.14a5.49,5.49,0,0,0-1.89-4.35,18.93,18.93,0,0,0-6.62-3.09q-8.13-2.46-12.33-5.77a10.92,10.92,0,0,1-4.2-9.06,11.37,11.37,0,0,1,4.73-9.42q4.74-3.66,12.09-3.66,7.8,0,12.55,3.93A12.29,12.29,0,0,1,366.89,105l-.06.2h-9.12a6.84,6.84,0,0,0-2.13-5.4,8.66,8.66,0,0,0-6-1.89,7.85,7.85,0,0,0-5.38,1.68,5.46,5.46,0,0,0-1.9,4.29,4.66,4.66,0,0,0,2.06,3.91,27.59,27.59,0,0,0,7.12,3.24q7.74,2.19,11.8,5.72a11.74,11.74,0,0,1,4.06,9.3,11.17,11.17,0,0,1-4.71,9.5q-4.71,3.48-12.44,3.48a22.17,22.17,0,0,1-13-3.77q-5.43-3.76-5.27-11.24l.06-.2h9.12q0,4.17,2.45,6.13a10.34,10.34,0,0,0,6.64,2,9,9,0,0,0,5.75-1.58A5.1,5.1,0,0,0,358,126.14Z"/><path data-cppathid="10080" fill="#f7a800" d="M407,98.72h-13.4v39.67H384.2V98.72H371V91.47h36Z"/><path data-cppathid="10081" fill="#f7a800" d="M433.12,128.27H417.91l-3.16,10.12h-9.83l15.82-46.92h9.64l15.76,46.92h-9.83Zm-12.89-7.38h10.6l-5.19-16.53h-.19Zm7-42.64h10.48l.06.2-8.93,8.38h-8Z"/><path data-cppathid="10082" fill="#f7a800" d="M488.58,138.39h-9.41l-18.92-31.65-.19,0v31.62h-9.41V91.47h9.41L479,123.08l.19,0V91.47h9.41Z"/><path data-cppathid="10083" fill="#f7a800" d="M497.22,138.39V91.47h16.37A19.38,19.38,0,0,1,527.77,97a19,19,0,0,1,5.57,14.1v7.77a18.92,18.92,0,0,1-5.57,14.1,19.44,19.44,0,0,1-14.18,5.46Zm9.41-39.67v32.45h7a9.15,9.15,0,0,0,7.47-3.47,13.52,13.52,0,0,0,2.84-8.87V111a13.43,13.43,0,0,0-2.84-8.83,9.19,9.19,0,0,0-7.47-3.45Z"/><path data-cppathid="10084" fill="#f7a800" d="M564.67,128.27H549.46l-3.16,10.12h-9.83l15.82-46.92h9.64l15.76,46.92h-9.83Zm-12.89-7.38h10.6l-5.19-16.53H557Z"/><path data-cppathid="10085" fill="#f7a800" d="M591.61,119.63v18.76H582.2V91.47h16.24q8,0,12.55,3.65t4.53,10.2a10.28,10.28,0,0,1-1.92,6.24A13.42,13.42,0,0,1,608,115.8a10.07,10.07,0,0,1,6,4.09,13,13,0,0,1,1.82,7.09v3.45a17.3,17.3,0,0,0,.53,4.11,5.67,5.67,0,0,0,1.82,3.17v.68h-9.7A5.24,5.24,0,0,1,606.8,135a30.87,30.87,0,0,1-.37-4.61V127a7.49,7.49,0,0,0-1.91-5.46,7.29,7.29,0,0,0-5.44-2Zm0-7.25h6.67q4,0,5.9-1.67a6.23,6.23,0,0,0,1.93-5,6.82,6.82,0,0,0-2-5.12,7.87,7.87,0,0,0-5.72-1.9h-6.83Z"/><path data-cppathid="10086" fill="#f7a800" d="M651.07,117.76H633.66v13.41h20.69v7.22h-30.1V91.47h30v7.25H633.66v11.79h17.41Z"/><path data-cppathid="10087" fill="#f7a800" d="M685.42,126.14a5.52,5.52,0,0,0-1.88-4.35,19,19,0,0,0-6.63-3.09q-8.11-2.46-12.32-5.77a10.9,10.9,0,0,1-4.21-9.06,11.38,11.38,0,0,1,4.74-9.42q4.74-3.66,12.08-3.66,7.8,0,12.55,3.93a12.32,12.32,0,0,1,4.6,10.31l-.07.2h-9.12a6.87,6.87,0,0,0-2.12-5.4,8.69,8.69,0,0,0-6-1.89,7.86,7.86,0,0,0-5.38,1.68,5.46,5.46,0,0,0-1.9,4.29,4.68,4.68,0,0,0,2.06,3.91,27.76,27.76,0,0,0,7.12,3.24q7.74,2.19,11.8,5.72a11.7,11.7,0,0,1,4.06,9.3,11.17,11.17,0,0,1-4.71,9.5q-4.7,3.48-12.43,3.48a22.2,22.2,0,0,1-13-3.77q-5.43-3.76-5.27-11.24l.07-.2h9.12c0,2.78.81,4.82,2.45,6.13a10.3,10.3,0,0,0,6.64,2,9,9,0,0,0,5.75-1.58A5.12,5.12,0,0,0,685.42,126.14Z"/><path data-cppathid="10088" fill="#f7a800" d="M718.19,138.39V91.47h16.38A19.38,19.38,0,0,1,748.75,97a19,19,0,0,1,5.57,14.1v7.77a18.92,18.92,0,0,1-5.57,14.1,19.44,19.44,0,0,1-14.18,5.46Zm9.41-39.67v32.45h7A9.15,9.15,0,0,0,742,127.7a13.52,13.52,0,0,0,2.84-8.87V111a13.43,13.43,0,0,0-2.84-8.83,9.19,9.19,0,0,0-7.47-3.45Z"/><path data-cppathid="10089" fill="#f7a800" d="M788.67,117.76h-17.4v13.41H792v7.22h-30.1V91.47h30v7.25H771.27v11.79h17.4Z"/><path data-cppathid="10090" fill="#f7a800" d="M850.19,122.85l.07.2c.08,5-1.44,8.93-4.58,11.76s-7.46,4.25-13,4.25-10.18-1.8-13.64-5.43-5.18-8.29-5.18-14v-9.31q0-8.58,5-14a17.27,17.27,0,0,1,13.28-5.46q8.58,0,13.41,4.19t4.7,11.79l-.06.2h-9.15q0-4.52-2.18-6.72T832.21,98a7.58,7.58,0,0,0-6.59,3.4,15,15,0,0,0-2.37,8.78v9.38a14.63,14.63,0,0,0,2.5,8.83,8.12,8.12,0,0,0,7,3.42q4.21,0,6.3-2.21t2.07-6.79Z"/><path data-cppathid="10091" fill="#f7a800" d="M881.45,128.27H866.24l-3.16,10.12h-9.82l15.82-46.92h9.63l15.76,46.92h-9.83Zm-12.89-7.38h10.61L874,104.36h-.2Z"/><path data-cppathid="10092" fill="#f7a800" d="M908.4,131.17h21v7.22H899V91.47h9.41Z"/><path data-cppathid="10093" fill="#f7a800" d="M945.71,138.39H936.3V91.47h9.41Z"/><path data-cppathid="10094" fill="#f7a800" d="M955,138.39V91.47H971.4A19.38,19.38,0,0,1,985.58,97a19,19,0,0,1,5.57,14.1v7.77a18.92,18.92,0,0,1-5.57,14.1,19.44,19.44,0,0,1-14.18,5.46Zm9.41-39.67v32.45h7a9.19,9.19,0,0,0,7.48-3.47,13.52,13.52,0,0,0,2.83-8.87V111a13.42,13.42,0,0,0-2.83-8.83,9.23,9.23,0,0,0-7.48-3.45Z"/><path data-cppathid="10095" fill="#f7a800" d="M1022.48,128.27h-15.21l-3.16,10.12h-9.83l15.82-46.92h9.64l15.76,46.92h-9.83Zm-12.89-7.38h10.6L1015,104.36h-.19Z"/><path data-cppathid="10096" fill="#f7a800" d="M1040,138.39V91.47h16.37A19.37,19.37,0,0,1,1070.56,97a18.92,18.92,0,0,1,5.57,14.1v7.77q0,8.63-5.57,14.1a19.43,19.43,0,0,1-14.18,5.46Zm9.41-39.67v32.45h7a9.17,9.17,0,0,0,7.48-3.47,13.52,13.52,0,0,0,2.83-8.87V111a13.42,13.42,0,0,0-2.83-8.83,9.21,9.21,0,0,0-7.48-3.45Z"/></g><polygon data-cppathid="10097" fill="#00ffd3" points="69.9 112.4 69.9 89.3 89.9 100.9 109.9 112.4 89.9 124 69.9 135.6 69.9 112.4"/><path data-cppathid="10098" stroke-width="3" stroke-miterlimit="10" stroke="#fff" fill="#333e48" d="M226.3,170.9H151.8a8.92,8.92,0,0,1-8.9-8.9V60a8.92,8.92,0,0,1,8.9-8.9h74.5a8.92,8.92,0,0,1,8.9,8.9V162.1A8.9,8.9,0,0,1,226.3,170.9Z"/><g style="isolation:isolate"><path data-cppathid="10099" fill="#fff" d="M162.56,93h-5.22V71.44h-5.4v-4l10.62-.93Z"/><path data-cppathid="10100" fill="#fff" d="M188.74,83.56a10.28,10.28,0,0,1-2.41,7.21,9.18,9.18,0,0,1-12.84,0,10.2,10.2,0,0,1-2.43-7.21v-7.2a10.27,10.27,0,0,1,2.42-7.21,9.11,9.11,0,0,1,12.83,0,10.23,10.23,0,0,1,2.43,7.21Zm-5.22-7.74a6.76,6.76,0,0,0-1-3.89,3.07,3.07,0,0,0-2.67-1.38,3,3,0,0,0-2.66,1.38,6.84,6.84,0,0,0-.94,3.89v8.24a6.85,6.85,0,0,0,1,3.94,3.09,3.09,0,0,0,2.69,1.37A3.05,3.05,0,0,0,182.58,88a7,7,0,0,0,.94-3.94Z"/><path data-cppathid="10101" fill="#fff" d="M209.82,83.56a10.23,10.23,0,0,1-2.41,7.21,9.18,9.18,0,0,1-12.84,0,10.24,10.24,0,0,1-2.42-7.21v-7.2a10.27,10.27,0,0,1,2.41-7.21,9.11,9.11,0,0,1,12.83,0,10.23,10.23,0,0,1,2.43,7.21Zm-5.22-7.74a6.76,6.76,0,0,0-1-3.89,3.26,3.26,0,0,0-5.33,0,6.84,6.84,0,0,0-.94,3.89v8.24a6.93,6.93,0,0,0,.95,3.94A3.1,3.1,0,0,0,201,89.37,3,3,0,0,0,203.66,88a6.93,6.93,0,0,0,.94-3.94Z"/><path data-cppathid="10102" fill="#fff" d="M225.81,93h-5.22V71.44h-5.4v-4l10.62-.93Z"/></g><g style="isolation:isolate"><path data-cppathid="10103" fill="#fff" d="M167.66,116a10.25,10.25,0,0,1-2.42,7.22,8.31,8.31,0,0,1-6.4,2.62,8.39,8.39,0,0,1-6.44-2.62A10.25,10.25,0,0,1,150,116v-7.19a10.34,10.34,0,0,1,2.41-7.22,9.14,9.14,0,0,1,12.83,0,10.26,10.26,0,0,1,2.44,7.22Zm-5.23-7.73a6.79,6.79,0,0,0-1-3.9,3.26,3.26,0,0,0-5.33,0,7,7,0,0,0-.94,3.9v8.23a6.88,6.88,0,0,0,1,3.94,3.08,3.08,0,0,0,2.69,1.38,3,3,0,0,0,2.65-1.38,6.89,6.89,0,0,0,.94-3.94Z"/><path data-cppathid="10104" fill="#fff" d="M183.64,125.49h-5.22V103.92H173v-4L183.64,99Z"/><path data-cppathid="10105" fill="#fff" d="M209.82,116a10.24,10.24,0,0,1-2.41,7.22,9.18,9.18,0,0,1-12.84,0,10.25,10.25,0,0,1-2.42-7.22v-7.19a10.29,10.29,0,0,1,2.41-7.22,9.14,9.14,0,0,1,12.83,0,10.26,10.26,0,0,1,2.43,7.22Zm-5.22-7.73a6.79,6.79,0,0,0-1-3.9,3.26,3.26,0,0,0-5.33,0,6.88,6.88,0,0,0-.94,3.9v8.23a6.88,6.88,0,0,0,.95,3.94,3.08,3.08,0,0,0,2.69,1.38,3,3,0,0,0,2.65-1.38,6.89,6.89,0,0,0,.94-3.94Z"/><path data-cppathid="10106" fill="#fff" d="M225.81,125.49h-5.22V103.92h-5.4v-4L225.81,99Z"/></g><g style="isolation:isolate"><path data-cppathid="10107" fill="#fff" d="M162.56,158h-5.22V136.4h-5.4v-4l10.62-.93Z"/><path data-cppathid="10108" fill="#fff" d="M188.74,148.51a10.26,10.26,0,0,1-2.41,7.21,9.18,9.18,0,0,1-12.84,0,10.18,10.18,0,0,1-2.43-7.21v-7.2a10.27,10.27,0,0,1,2.42-7.21,9.11,9.11,0,0,1,12.83,0,10.23,10.23,0,0,1,2.43,7.21Zm-5.22-7.74a6.76,6.76,0,0,0-1-3.89,3.07,3.07,0,0,0-2.67-1.38,3,3,0,0,0-2.66,1.38,6.84,6.84,0,0,0-.94,3.89V149a6.85,6.85,0,0,0,1,3.94,3.09,3.09,0,0,0,2.69,1.37,3.05,3.05,0,0,0,2.65-1.37,7,7,0,0,0,.94-3.94Z"/><path data-cppathid="10109" fill="#fff" d="M204.73,158H199.5V136.4h-5.4v-4l10.63-.93Z"/><path data-cppathid="10110" fill="#fff" d="M225.81,158h-5.22V136.4h-5.4v-4l10.62-.93Z"/></g><polygon data-cppathid="10111" stroke-width="3" stroke-linejoin="round" stroke-linecap="round" stroke="#fff" fill="#333e48" points="263.9 163.9 251.3 158.8 245.8 171.3 232.8 138.4 240.8 139 244.2 134.9 250.9 130.7 263.9 163.9"/><polygon data-cppathid="10112" stroke-width="3" stroke-linejoin="round" stroke-linecap="round" stroke="#fff" fill="#333e48" points="194.6 166.2 206.9 160.3 213.3 172.4 225.4 137.5 217.3 141.1 206.4 131.6 194.6 166.2"/><path data-cppathid="10113" fill="#333e48" d="M229.9,59.6h0a7.15,7.15,0,0,1,11.4,2.7h0a7.16,7.16,0,0,0,8.1,4.3h0a7.18,7.18,0,0,1,8.6,8h0a7.2,7.2,0,0,0,4.9,7.8h0a7.14,7.14,0,0,1,3.4,11.2h0a7.24,7.24,0,0,0,.3,9.2h0a7.15,7.15,0,0,1-2.7,11.4h0a7.16,7.16,0,0,0-4.3,8.1h0a7.18,7.18,0,0,1-8,8.6h0a7.2,7.2,0,0,0-7.8,4.9h0a7.14,7.14,0,0,1-11.2,3.4h0a7.24,7.24,0,0,0-9.2.3h0a7.15,7.15,0,0,1-11.4-2.7h0a7.16,7.16,0,0,0-8.1-4.3h0a7.18,7.18,0,0,1-8.6-8h0a7.2,7.2,0,0,0-4.9-7.8h0a7.14,7.14,0,0,1-3.4-11.2h0a7.24,7.24,0,0,0-.3-9.2h0a7.15,7.15,0,0,1,2.7-11.4h0a7.16,7.16,0,0,0,4.3-8.1h0a7.18,7.18,0,0,1,8-8.6h0a7.2,7.2,0,0,0,7.8-4.9h0a7.14,7.14,0,0,1,11.2-3.4h0A7.12,7.12,0,0,0,229.9,59.6Z"/><path data-cppathid="10114" fill="#fff" d="M230.9,60.7a5.71,5.71,0,0,1,8.7,1.6c1,1.9,1.8,3.5,3.7,4.7a8.71,8.71,0,0,0,5.9,1.2,6,6,0,0,1,5.2,1.1,5.6,5.6,0,0,1,2,5c-.3,4,1.5,8.1,5.6,9.5a7.11,7.11,0,0,1,2.4,1.3,5.13,5.13,0,0,1,1.5,2.3,5.78,5.78,0,0,1-1,5.5c.4-.2.9-.5,1.3-.7-1.2,0-1.9,1.5-2.3,2.5a7.89,7.89,0,0,0-.7,3.7,8.53,8.53,0,0,0,.8,3.5c.4.9,1.3,2.6,2.5,2.6-.4-.1-.7-.3-1.1-.4a5.86,5.86,0,0,1,1,5.7,5.33,5.33,0,0,1-1.6,2.3,13.34,13.34,0,0,1-2.8,1.6,8.47,8.47,0,0,0-4.1,5.8c-.4,2.3.6,4.5-.3,6.7a5.68,5.68,0,0,1-4.7,3.6c-1.1.1-2.2-.2-3.3-.1a7.71,7.71,0,0,0-3.6,1.2,9.56,9.56,0,0,0-2.6,2.3,20.59,20.59,0,0,0-1.7,3.3,5.65,5.65,0,0,1-4.8,3c-2.7.1-4.3-2.1-6.8-2.7a8.91,8.91,0,0,0-8.1,2c.4-.1.7-.3,1.1-.4-.9,0-1.6.9-2.3,1.3a5.34,5.34,0,0,1-2.5.5,5.64,5.64,0,0,1-4.5-2.2c-.6-.8-.8-1.7-1.3-2.5a8.81,8.81,0,0,0-2.2-2.5,8.47,8.47,0,0,0-5.9-1.8c-2.1.2-3.9.5-5.8-.9a6,6,0,0,1-2.3-4.8,10.48,10.48,0,0,0-.9-5.8c-.9-1.7-2.7-3.6-4.7-4l.3.3c-.1-.1-.2-.2-.3-.2a3.55,3.55,0,0,1-.9-.4,9.13,9.13,0,0,1-1.3-.8,5.33,5.33,0,0,1-1.6-2.3,6.06,6.06,0,0,1,.9-5.8c-.4.2-.9.5-1.3.7,1.2,0,1.9-1.5,2.3-2.5a7.89,7.89,0,0,0,.7-3.7,8.53,8.53,0,0,0-.8-3.5c-.4-.9-1.3-2.6-2.5-2.6.4.1.7.3,1.1.4a5.58,5.58,0,0,1-1-5.8,7,7,0,0,1,1.7-2.4c.4-.3.9-.5,1.3-.8,0,0-1,.4-.1,0a6.12,6.12,0,0,0,1.2-.5,8.7,8.7,0,0,0,4.3-5.9c.5-2.3-.6-4.4.3-6.7a5.66,5.66,0,0,1,4.9-3.6c1.2-.1,2.3.2,3.5,0a9.17,9.17,0,0,0,3.6-1.3,9.52,9.52,0,0,0,2.5-2.4c.7-1,1-2.3,1.6-3.3a5.61,5.61,0,0,1,5-2.7,6.82,6.82,0,0,1,3.3,1.1c.3.2.6.2.8.4.4,0,.3.1-.3,0,.2.1.4.3.6.4a11.92,11.92,0,0,0,2,.8,9.19,9.19,0,0,0,8.4-1.9c1.5-1.2-.7-3.4-2.1-2.1a6.36,6.36,0,0,1-3.5,1.4,6.45,6.45,0,0,1-2-.3,17.38,17.38,0,0,1-1.9-1c-.1-.1-.2-.1-.4-.2-.6-.1-.5-.1.1,0a2.51,2.51,0,0,0-.7-.4,11.11,11.11,0,0,0-1.6-.7,7.69,7.69,0,0,0-3.7-.3,8.55,8.55,0,0,0-5.8,3.4,13.69,13.69,0,0,0-1.6,3.2,5.65,5.65,0,0,1-2.8,2.7,7.31,7.31,0,0,1-3.6.4,9.08,9.08,0,0,0-4,.6,8.79,8.79,0,0,0-4.9,5.1,9.23,9.23,0,0,0-.5,3.7,9.22,9.22,0,0,1,0,3.7,5,5,0,0,1-2,2.9,4.7,4.7,0,0,0-.9.6c-.5.4-.1.2.1.1a10.72,10.72,0,0,0-2.2,1A8.78,8.78,0,0,0,183.7,95c.4,1,1.3,3,2.7,3-.4-.1-.7-.3-1.1-.4a5.87,5.87,0,0,1,.1,7.4c.4-.2.9-.5,1.3-.7-2.1.1-2.9,3.9-3,5.5a8.63,8.63,0,0,0,1.9,5.8,9.3,9.3,0,0,0,2.3,2.1,10.09,10.09,0,0,0,1.5.7c-.1,0-.9-.4,0,0,.3.1.7.3,1,.4a5.87,5.87,0,0,1,3.2,5.8,9.2,9.2,0,0,0,1.3,6.1,8.81,8.81,0,0,0,5.3,3.7c2.4.5,4.8-.6,7.1.4a5.78,5.78,0,0,1,2.3,1.8c.8,1,1.1,2.2,1.8,3.2a8.74,8.74,0,0,0,12.8,1.3c-.4.1-.7.3-1.1.4.7,0,1.1-.5,1.6-.9a4.59,4.59,0,0,1,1.6-.7,5.56,5.56,0,0,1,4,.3c1.1.5,2,1.4,3.2,1.9a7.41,7.41,0,0,0,3.6.6,9.08,9.08,0,0,0,6.2-3.1c1.6-2,1.8-4.6,4.2-6s5-.2,7.5-1a8.63,8.63,0,0,0,5.3-5.1,7.41,7.41,0,0,0,.6-3.6,11.38,11.38,0,0,1-.2-3.7,6.09,6.09,0,0,1,1.8-3.1c1-.9,2.1-1.1,3-1.7a8.74,8.74,0,0,0,3.9-6.7,8.65,8.65,0,0,0-.6-3.9c-.4-1-1.3-3-2.7-3,.4.1.7.3,1.1.4a5.87,5.87,0,0,1-.1-7.4c-.4.2-.9.5-1.3.7,2-.1,2.9-3.8,3-5.4a8.4,8.4,0,0,0-1.9-5.9,10.48,10.48,0,0,0-2.2-2c-1-.6-2-.8-2.9-1.3a5.94,5.94,0,0,1-2.9-5.6,9.24,9.24,0,0,0-1.4-6.3,9,9,0,0,0-5.5-3.6c-2.3-.4-4.6.6-6.8-.3a5.67,5.67,0,0,1-2.5-2.1c-.6-.9-.9-2-1.6-2.9a8.74,8.74,0,0,0-12.8-1.3C227.3,59.8,229.4,61.9,230.9,60.7Z"/><circle data-cppathid="10115" stroke-width="3" stroke-miterlimit="10" stroke="#fff" fill="none" r="31.8" cy="99.6" cx="226.6"/><path data-cppathid="10116" fill="#fff" d="M244,94.1l-21.9,20a4,4,0,0,1-3.1,1,4.3,4.3,0,0,1-2.3-1l-7-6.4a4,4,0,0,1,5.4-6l4.3,3.9,19.2-17.5a4,4,0,0,1,5.7.3A4.08,4.08,0,0,1,244,94.1Z"/></svg>