<?xml version="1.0" encoding="UTF-8"?>
<svg xmlns="http://www.w3.org/2000/svg" onmouseup="{ if(window.parent.document.onmouseup) window.parent.document.onmouseup(arguments[0]);}" viewBox="0 0 1156.8 1080" data-name="Layer 1" id="Layer_1"><g data-name="Layer 1" id="Layer_1-2"><rect data-cppathid="10000" fill="#333e48" height="1080" width="1156.8"/></g><line data-cppathid="10001" stroke-width="2" stroke-linejoin="round" stroke-linecap="round" stroke="#00ffd3" fill="none" y2="194.4" x2="1133.8" y1="194.4" x1="21.1"/><path data-cppathid="10002" fill="#00ffd3" d="M1103.4,22a30.39,30.39,0,0,1,30.4,30.4v975.2a30.39,30.39,0,0,1-30.4,30.4H51.4A30.39,30.39,0,0,1,21,1027.6V52.4A30.39,30.39,0,0,1,51.4,22h1052m0-2H51.4A32.39,32.39,0,0,0,19,52.4v975.2A32.39,32.39,0,0,0,51.4,1060h1052a32.39,32.39,0,0,0,32.4-32.4V52.4A32.39,32.39,0,0,0,1103.4,20Z"/><path data-cppathid="10003" fill="#f7a800" d="M36.2,230.9v90.2L147,210.3l-90-.2A20.72,20.72,0,0,0,36.2,230.9Z"/><path data-cppathid="10004" fill="#0099a8" d="M1118.4,1023.6V933.4l-110.8,110.8,90,.2A20.72,20.72,0,0,0,1118.4,1023.6Z"/><g style="isolation:isolate"><path data-cppathid="10005" fill="#f7a800" d="M323.61,117.76h-17.4v13.41H326.9v7.22H296.8V91.47h30v7.25H306.21v11.79h17.4Z"/><path data-cppathid="10006" fill="#f7a800" d="M358,126.14a5.49,5.49,0,0,0-1.89-4.35,18.93,18.93,0,0,0-6.62-3.09q-8.13-2.46-12.33-5.77a10.92,10.92,0,0,1-4.2-9.06,11.37,11.37,0,0,1,4.73-9.42q4.74-3.66,12.09-3.66,7.8,0,12.55,3.93A12.29,12.29,0,0,1,366.89,105l-.06.2h-9.12a6.84,6.84,0,0,0-2.13-5.4,8.66,8.66,0,0,0-6-1.89,7.85,7.85,0,0,0-5.38,1.68,5.46,5.46,0,0,0-1.9,4.29,4.66,4.66,0,0,0,2.06,3.91,27.59,27.59,0,0,0,7.12,3.24q7.74,2.19,11.8,5.72a11.74,11.74,0,0,1,4.06,9.3,11.17,11.17,0,0,1-4.71,9.5q-4.71,3.48-12.44,3.48a22.17,22.17,0,0,1-13-3.77q-5.43-3.76-5.27-11.24l.06-.2h9.12q0,4.17,2.45,6.13a10.34,10.34,0,0,0,6.64,2,9,9,0,0,0,5.75-1.58A5.1,5.1,0,0,0,358,126.14Z"/><path data-cppathid="10007" fill="#f7a800" d="M407,98.72h-13.4v39.67H384.2V98.72H371V91.47h36Z"/><path data-cppathid="10008" fill="#f7a800" d="M433.12,128.27H417.91l-3.16,10.12h-9.83l15.82-46.92h9.64l15.76,46.92h-9.83Zm-12.89-7.38h10.6l-5.19-16.53h-.19Zm7-42.64h10.48l.06.2-8.93,8.38h-8Z"/><path data-cppathid="10009" fill="#f7a800" d="M488.58,138.39h-9.41l-18.92-31.65-.19,0v31.62h-9.41V91.47h9.41L479,123.08l.19,0V91.47h9.41Z"/><path data-cppathid="10010" fill="#f7a800" d="M497.22,138.39V91.47h16.37A19.38,19.38,0,0,1,527.77,97a19,19,0,0,1,5.57,14.1v7.77a18.92,18.92,0,0,1-5.57,14.1,19.44,19.44,0,0,1-14.18,5.46Zm9.41-39.67v32.45h7a9.15,9.15,0,0,0,7.47-3.47,13.52,13.52,0,0,0,2.84-8.87V111a13.43,13.43,0,0,0-2.84-8.83,9.19,9.19,0,0,0-7.47-3.45Z"/><path data-cppathid="10011" fill="#f7a800" d="M564.67,128.27H549.46l-3.16,10.12h-9.83l15.82-46.92h9.64l15.76,46.92h-9.83Zm-12.89-7.38h10.6l-5.19-16.53H557Z"/><path data-cppathid="10012" fill="#f7a800" d="M591.61,119.63v18.76H582.2V91.47h16.24q8,0,12.55,3.65t4.53,10.2a10.28,10.28,0,0,1-1.92,6.24A13.42,13.42,0,0,1,608,115.8a10.07,10.07,0,0,1,6,4.09,13,13,0,0,1,1.82,7.09v3.45a17.3,17.3,0,0,0,.53,4.11,5.67,5.67,0,0,0,1.82,3.17v.68h-9.7A5.24,5.24,0,0,1,606.8,135a30.87,30.87,0,0,1-.37-4.61V127a7.49,7.49,0,0,0-1.91-5.46,7.29,7.29,0,0,0-5.44-2Zm0-7.25h6.67q4,0,5.9-1.67a6.23,6.23,0,0,0,1.93-5,6.82,6.82,0,0,0-2-5.12,7.87,7.87,0,0,0-5.72-1.9h-6.83Z"/><path data-cppathid="10013" fill="#f7a800" d="M651.07,117.76H633.66v13.41h20.69v7.22h-30.1V91.47h30v7.25H633.66v11.79h17.41Z"/><path data-cppathid="10014" fill="#f7a800" d="M685.42,126.14a5.52,5.52,0,0,0-1.88-4.35,19,19,0,0,0-6.63-3.09q-8.11-2.46-12.32-5.77a10.9,10.9,0,0,1-4.21-9.06,11.38,11.38,0,0,1,4.74-9.42q4.74-3.66,12.08-3.66,7.8,0,12.55,3.93a12.32,12.32,0,0,1,4.6,10.31l-.07.2h-9.12a6.87,6.87,0,0,0-2.12-5.4,8.69,8.69,0,0,0-6-1.89,7.86,7.86,0,0,0-5.38,1.68,5.46,5.46,0,0,0-1.9,4.29,4.68,4.68,0,0,0,2.06,3.91,27.76,27.76,0,0,0,7.12,3.24q7.74,2.19,11.8,5.72a11.7,11.7,0,0,1,4.06,9.3,11.17,11.17,0,0,1-4.71,9.5q-4.7,3.48-12.43,3.48a22.2,22.2,0,0,1-13-3.77q-5.43-3.76-5.27-11.24l.07-.2h9.12c0,2.78.81,4.82,2.45,6.13a10.3,10.3,0,0,0,6.64,2,9,9,0,0,0,5.75-1.58A5.12,5.12,0,0,0,685.42,126.14Z"/><path data-cppathid="10015" fill="#f7a800" d="M718.19,138.39V91.47h16.38A19.38,19.38,0,0,1,748.75,97a19,19,0,0,1,5.57,14.1v7.77a18.92,18.92,0,0,1-5.57,14.1,19.44,19.44,0,0,1-14.18,5.46Zm9.41-39.67v32.45h7A9.15,9.15,0,0,0,742,127.7a13.52,13.52,0,0,0,2.84-8.87V111a13.43,13.43,0,0,0-2.84-8.83,9.19,9.19,0,0,0-7.47-3.45Z"/><path data-cppathid="10016" fill="#f7a800" d="M788.67,117.76h-17.4v13.41H792v7.22h-30.1V91.47h30v7.25H771.27v11.79h17.4Z"/><path data-cppathid="10017" fill="#f7a800" d="M850.19,122.85l.07.2c.08,5-1.44,8.93-4.58,11.76s-7.46,4.25-13,4.25-10.18-1.8-13.64-5.43-5.18-8.29-5.18-14v-9.31q0-8.58,5-14a17.27,17.27,0,0,1,13.28-5.46q8.58,0,13.41,4.19t4.7,11.79l-.06.2h-9.15q0-4.52-2.18-6.72T832.21,98a7.58,7.58,0,0,0-6.59,3.4,15,15,0,0,0-2.37,8.78v9.38a14.63,14.63,0,0,0,2.5,8.83,8.12,8.12,0,0,0,7,3.42q4.21,0,6.3-2.21t2.07-6.79Z"/><path data-cppathid="10018" fill="#f7a800" d="M881.45,128.27H866.24l-3.16,10.12h-9.82l15.82-46.92h9.63l15.76,46.92h-9.83Zm-12.89-7.38h10.61L874,104.36h-.2Z"/><path data-cppathid="10019" fill="#f7a800" d="M908.4,131.17h21v7.22H899V91.47h9.41Z"/><path data-cppathid="10020" fill="#f7a800" d="M945.71,138.39H936.3V91.47h9.41Z"/><path data-cppathid="10021" fill="#f7a800" d="M955,138.39V91.47H971.4A19.38,19.38,0,0,1,985.58,97a19,19,0,0,1,5.57,14.1v7.77a18.92,18.92,0,0,1-5.57,14.1,19.44,19.44,0,0,1-14.18,5.46Zm9.41-39.67v32.45h7a9.19,9.19,0,0,0,7.48-3.47,13.52,13.52,0,0,0,2.83-8.87V111a13.42,13.42,0,0,0-2.83-8.83,9.23,9.23,0,0,0-7.48-3.45Z"/><path data-cppathid="10022" fill="#f7a800" d="M1022.48,128.27h-15.21l-3.16,10.12h-9.83l15.82-46.92h9.64l15.76,46.92h-9.83Zm-12.89-7.38h10.6L1015,104.36h-.19Z"/><path data-cppathid="10023" fill="#f7a800" d="M1040,138.39V91.47h16.37A19.37,19.37,0,0,1,1070.56,97a18.92,18.92,0,0,1,5.57,14.1v7.77q0,8.63-5.57,14.1a19.43,19.43,0,0,1-14.18,5.46Zm9.41-39.67v32.45h7a9.17,9.17,0,0,0,7.48-3.47,13.52,13.52,0,0,0,2.83-8.87V111a13.42,13.42,0,0,0-2.83-8.83,9.21,9.21,0,0,0-7.48-3.45Z"/></g><polygon data-cppathid="10024" fill="#00ffd3" points="69.9 112.4 69.9 89.3 89.9 100.9 109.9 112.4 89.9 124 69.9 135.6 69.9 112.4"/><path data-cppathid="10025" stroke-width="3" stroke-miterlimit="10" stroke="#fff" fill="#333e48" d="M226.3,170.9H151.8a8.92,8.92,0,0,1-8.9-8.9V60a8.92,8.92,0,0,1,8.9-8.9h74.5a8.92,8.92,0,0,1,8.9,8.9V162.1A8.9,8.9,0,0,1,226.3,170.9Z"/><g style="isolation:isolate"><path data-cppathid="10026" fill="#fff" d="M162.56,93h-5.22V71.44h-5.4v-4l10.62-.93Z"/><path data-cppathid="10027" fill="#fff" d="M188.74,83.56a10.28,10.28,0,0,1-2.41,7.21,9.18,9.18,0,0,1-12.84,0,10.2,10.2,0,0,1-2.43-7.21v-7.2a10.27,10.27,0,0,1,2.42-7.21,9.11,9.11,0,0,1,12.83,0,10.23,10.23,0,0,1,2.43,7.21Zm-5.22-7.74a6.76,6.76,0,0,0-1-3.89,3.07,3.07,0,0,0-2.67-1.38,3,3,0,0,0-2.66,1.38,6.84,6.84,0,0,0-.94,3.89v8.24a6.85,6.85,0,0,0,1,3.94,3.09,3.09,0,0,0,2.69,1.37A3.05,3.05,0,0,0,182.58,88a7,7,0,0,0,.94-3.94Z"/><path data-cppathid="10028" fill="#fff" d="M209.82,83.56a10.23,10.23,0,0,1-2.41,7.21,9.18,9.18,0,0,1-12.84,0,10.24,10.24,0,0,1-2.42-7.21v-7.2a10.27,10.27,0,0,1,2.41-7.21,9.11,9.11,0,0,1,12.83,0,10.23,10.23,0,0,1,2.43,7.21Zm-5.22-7.74a6.76,6.76,0,0,0-1-3.89,3.26,3.26,0,0,0-5.33,0,6.84,6.84,0,0,0-.94,3.89v8.24a6.93,6.93,0,0,0,.95,3.94A3.1,3.1,0,0,0,201,89.37,3,3,0,0,0,203.66,88a6.93,6.93,0,0,0,.94-3.94Z"/><path data-cppathid="10029" fill="#fff" d="M225.81,93h-5.22V71.44h-5.4v-4l10.62-.93Z"/></g><g style="isolation:isolate"><path data-cppathid="10030" fill="#fff" d="M167.66,116a10.25,10.25,0,0,1-2.42,7.22,8.31,8.31,0,0,1-6.4,2.62,8.39,8.39,0,0,1-6.44-2.62A10.25,10.25,0,0,1,150,116v-7.19a10.34,10.34,0,0,1,2.41-7.22,9.14,9.14,0,0,1,12.83,0,10.26,10.26,0,0,1,2.44,7.22Zm-5.23-7.73a6.79,6.79,0,0,0-1-3.9,3.26,3.26,0,0,0-5.33,0,7,7,0,0,0-.94,3.9v8.23a6.88,6.88,0,0,0,1,3.94,3.08,3.08,0,0,0,2.69,1.38,3,3,0,0,0,2.65-1.38,6.89,6.89,0,0,0,.94-3.94Z"/><path data-cppathid="10031" fill="#fff" d="M183.64,125.49h-5.22V103.92H173v-4L183.64,99Z"/><path data-cppathid="10032" fill="#fff" d="M209.82,116a10.24,10.24,0,0,1-2.41,7.22,9.18,9.18,0,0,1-12.84,0,10.25,10.25,0,0,1-2.42-7.22v-7.19a10.29,10.29,0,0,1,2.41-7.22,9.14,9.14,0,0,1,12.83,0,10.26,10.26,0,0,1,2.43,7.22Zm-5.22-7.73a6.79,6.79,0,0,0-1-3.9,3.26,3.26,0,0,0-5.33,0,6.88,6.88,0,0,0-.94,3.9v8.23a6.88,6.88,0,0,0,.95,3.94,3.08,3.08,0,0,0,2.69,1.38,3,3,0,0,0,2.65-1.38,6.89,6.89,0,0,0,.94-3.94Z"/><path data-cppathid="10033" fill="#fff" d="M225.81,125.49h-5.22V103.92h-5.4v-4L225.81,99Z"/></g><g style="isolation:isolate"><path data-cppathid="10034" fill="#fff" d="M162.56,158h-5.22V136.4h-5.4v-4l10.62-.93Z"/><path data-cppathid="10035" fill="#fff" d="M188.74,148.51a10.26,10.26,0,0,1-2.41,7.21,9.18,9.18,0,0,1-12.84,0,10.18,10.18,0,0,1-2.43-7.21v-7.2a10.27,10.27,0,0,1,2.42-7.21,9.11,9.11,0,0,1,12.83,0,10.23,10.23,0,0,1,2.43,7.21Zm-5.22-7.74a6.76,6.76,0,0,0-1-3.89,3.07,3.07,0,0,0-2.67-1.38,3,3,0,0,0-2.66,1.38,6.84,6.84,0,0,0-.94,3.89V149a6.85,6.85,0,0,0,1,3.94,3.09,3.09,0,0,0,2.69,1.37,3.05,3.05,0,0,0,2.65-1.37,7,7,0,0,0,.94-3.94Z"/><path data-cppathid="10036" fill="#fff" d="M204.73,158H199.5V136.4h-5.4v-4l10.63-.93Z"/><path data-cppathid="10037" fill="#fff" d="M225.81,158h-5.22V136.4h-5.4v-4l10.62-.93Z"/></g><polygon data-cppathid="10038" stroke-width="3" stroke-linejoin="round" stroke-linecap="round" stroke="#fff" fill="#333e48" points="263.9 163.9 251.3 158.8 245.8 171.3 232.8 138.4 240.8 139 244.2 134.9 250.9 130.7 263.9 163.9"/><polygon data-cppathid="10039" stroke-width="3" stroke-linejoin="round" stroke-linecap="round" stroke="#fff" fill="#333e48" points="194.6 166.2 206.9 160.3 213.3 172.4 225.4 137.5 217.3 141.1 206.4 131.6 194.6 166.2"/><path data-cppathid="10040" fill="#333e48" d="M229.9,59.6h0a7.15,7.15,0,0,1,11.4,2.7h0a7.16,7.16,0,0,0,8.1,4.3h0a7.18,7.18,0,0,1,8.6,8h0a7.2,7.2,0,0,0,4.9,7.8h0a7.14,7.14,0,0,1,3.4,11.2h0a7.24,7.24,0,0,0,.3,9.2h0a7.15,7.15,0,0,1-2.7,11.4h0a7.16,7.16,0,0,0-4.3,8.1h0a7.18,7.18,0,0,1-8,8.6h0a7.2,7.2,0,0,0-7.8,4.9h0a7.14,7.14,0,0,1-11.2,3.4h0a7.24,7.24,0,0,0-9.2.3h0a7.15,7.15,0,0,1-11.4-2.7h0a7.16,7.16,0,0,0-8.1-4.3h0a7.18,7.18,0,0,1-8.6-8h0a7.2,7.2,0,0,0-4.9-7.8h0a7.14,7.14,0,0,1-3.4-11.2h0a7.24,7.24,0,0,0-.3-9.2h0a7.15,7.15,0,0,1,2.7-11.4h0a7.16,7.16,0,0,0,4.3-8.1h0a7.18,7.18,0,0,1,8-8.6h0a7.2,7.2,0,0,0,7.8-4.9h0a7.14,7.14,0,0,1,11.2-3.4h0A7.12,7.12,0,0,0,229.9,59.6Z"/><path data-cppathid="10041" fill="#fff" d="M230.9,60.7a5.71,5.71,0,0,1,8.7,1.6c1,1.9,1.8,3.5,3.7,4.7a8.71,8.71,0,0,0,5.9,1.2,6,6,0,0,1,5.2,1.1,5.6,5.6,0,0,1,2,5c-.3,4,1.5,8.1,5.6,9.5a7.11,7.11,0,0,1,2.4,1.3,5.13,5.13,0,0,1,1.5,2.3,5.78,5.78,0,0,1-1,5.5c.4-.2.9-.5,1.3-.7-1.2,0-1.9,1.5-2.3,2.5a7.89,7.89,0,0,0-.7,3.7,8.53,8.53,0,0,0,.8,3.5c.4.9,1.3,2.6,2.5,2.6-.4-.1-.7-.3-1.1-.4a5.86,5.86,0,0,1,1,5.7,5.33,5.33,0,0,1-1.6,2.3,13.34,13.34,0,0,1-2.8,1.6,8.47,8.47,0,0,0-4.1,5.8c-.4,2.3.6,4.5-.3,6.7a5.68,5.68,0,0,1-4.7,3.6c-1.1.1-2.2-.2-3.3-.1a7.71,7.71,0,0,0-3.6,1.2,9.56,9.56,0,0,0-2.6,2.3,20.59,20.59,0,0,0-1.7,3.3,5.65,5.65,0,0,1-4.8,3c-2.7.1-4.3-2.1-6.8-2.7a8.91,8.91,0,0,0-8.1,2c.4-.1.7-.3,1.1-.4-.9,0-1.6.9-2.3,1.3a5.34,5.34,0,0,1-2.5.5,5.64,5.64,0,0,1-4.5-2.2c-.6-.8-.8-1.7-1.3-2.5a8.81,8.81,0,0,0-2.2-2.5,8.47,8.47,0,0,0-5.9-1.8c-2.1.2-3.9.5-5.8-.9a6,6,0,0,1-2.3-4.8,10.48,10.48,0,0,0-.9-5.8c-.9-1.7-2.7-3.6-4.7-4l.3.3c-.1-.1-.2-.2-.3-.2a3.55,3.55,0,0,1-.9-.4,9.13,9.13,0,0,1-1.3-.8,5.33,5.33,0,0,1-1.6-2.3,6.06,6.06,0,0,1,.9-5.8c-.4.2-.9.5-1.3.7,1.2,0,1.9-1.5,2.3-2.5a7.89,7.89,0,0,0,.7-3.7,8.53,8.53,0,0,0-.8-3.5c-.4-.9-1.3-2.6-2.5-2.6.4.1.7.3,1.1.4a5.58,5.58,0,0,1-1-5.8,7,7,0,0,1,1.7-2.4c.4-.3.9-.5,1.3-.8,0,0-1,.4-.1,0a6.12,6.12,0,0,0,1.2-.5,8.7,8.7,0,0,0,4.3-5.9c.5-2.3-.6-4.4.3-6.7a5.66,5.66,0,0,1,4.9-3.6c1.2-.1,2.3.2,3.5,0a9.17,9.17,0,0,0,3.6-1.3,9.52,9.52,0,0,0,2.5-2.4c.7-1,1-2.3,1.6-3.3a5.61,5.61,0,0,1,5-2.7,6.82,6.82,0,0,1,3.3,1.1c.3.2.6.2.8.4.4,0,.3.1-.3,0,.2.1.4.3.6.4a11.92,11.92,0,0,0,2,.8,9.19,9.19,0,0,0,8.4-1.9c1.5-1.2-.7-3.4-2.1-2.1a6.36,6.36,0,0,1-3.5,1.4,6.45,6.45,0,0,1-2-.3,17.38,17.38,0,0,1-1.9-1c-.1-.1-.2-.1-.4-.2-.6-.1-.5-.1.1,0a2.51,2.51,0,0,0-.7-.4,11.11,11.11,0,0,0-1.6-.7,7.69,7.69,0,0,0-3.7-.3,8.55,8.55,0,0,0-5.8,3.4,13.69,13.69,0,0,0-1.6,3.2,5.65,5.65,0,0,1-2.8,2.7,7.31,7.31,0,0,1-3.6.4,9.08,9.08,0,0,0-4,.6,8.79,8.79,0,0,0-4.9,5.1,9.23,9.23,0,0,0-.5,3.7,9.22,9.22,0,0,1,0,3.7,5,5,0,0,1-2,2.9,4.7,4.7,0,0,0-.9.6c-.5.4-.1.2.1.1a10.72,10.72,0,0,0-2.2,1A8.78,8.78,0,0,0,183.7,95c.4,1,1.3,3,2.7,3-.4-.1-.7-.3-1.1-.4a5.87,5.87,0,0,1,.1,7.4c.4-.2.9-.5,1.3-.7-2.1.1-2.9,3.9-3,5.5a8.63,8.63,0,0,0,1.9,5.8,9.3,9.3,0,0,0,2.3,2.1,10.09,10.09,0,0,0,1.5.7c-.1,0-.9-.4,0,0,.3.1.7.3,1,.4a5.87,5.87,0,0,1,3.2,5.8,9.2,9.2,0,0,0,1.3,6.1,8.81,8.81,0,0,0,5.3,3.7c2.4.5,4.8-.6,7.1.4a5.78,5.78,0,0,1,2.3,1.8c.8,1,1.1,2.2,1.8,3.2a8.74,8.74,0,0,0,12.8,1.3c-.4.1-.7.3-1.1.4.7,0,1.1-.5,1.6-.9a4.59,4.59,0,0,1,1.6-.7,5.56,5.56,0,0,1,4,.3c1.1.5,2,1.4,3.2,1.9a7.41,7.41,0,0,0,3.6.6,9.08,9.08,0,0,0,6.2-3.1c1.6-2,1.8-4.6,4.2-6s5-.2,7.5-1a8.63,8.63,0,0,0,5.3-5.1,7.41,7.41,0,0,0,.6-3.6,11.38,11.38,0,0,1-.2-3.7,6.09,6.09,0,0,1,1.8-3.1c1-.9,2.1-1.1,3-1.7a8.74,8.74,0,0,0,3.9-6.7,8.65,8.65,0,0,0-.6-3.9c-.4-1-1.3-3-2.7-3,.4.1.7.3,1.1.4a5.87,5.87,0,0,1-.1-7.4c-.4.2-.9.5-1.3.7,2-.1,2.9-3.8,3-5.4a8.4,8.4,0,0,0-1.9-5.9,10.48,10.48,0,0,0-2.2-2c-1-.6-2-.8-2.9-1.3a5.94,5.94,0,0,1-2.9-5.6,9.24,9.24,0,0,0-1.4-6.3,9,9,0,0,0-5.5-3.6c-2.3-.4-4.6.6-6.8-.3a5.67,5.67,0,0,1-2.5-2.1c-.6-.9-.9-2-1.6-2.9a8.74,8.74,0,0,0-12.8-1.3C227.3,59.8,229.4,61.9,230.9,60.7Z"/><circle data-cppathid="10042" stroke-width="3" stroke-miterlimit="10" stroke="#fff" fill="none" r="31.8" cy="99.6" cx="226.6"/><path data-cppathid="10043" fill="#fff" d="M244,94.1l-21.9,20a4,4,0,0,1-3.1,1,4.3,4.3,0,0,1-2.3-1l-7-6.4a4,4,0,0,1,5.4-6l4.3,3.9,19.2-17.5a4,4,0,0,1,5.7.3A4.08,4.08,0,0,1,244,94.1Z"/><g style="isolation:isolate"><path data-cppathid="10044" fill="#fff" d="M221,513.72H194.25l-6.13,16.36H185.9l20.45-54.75h2.48l20.49,54.75h-2.21Zm-26-2h25.23l-11.47-30.64-1-3.2h-.23l-1,3.2Z"/><path data-cppathid="10045" fill="#fff" d="M262,520.11a8,8,0,0,0-2.77-5.88q-2.76-2.65-9.64-4.16c-4.84-1-8.34-2.35-10.51-4s-3.25-4-3.25-7.2a9.05,9.05,0,0,1,3.68-7.32q3.69-2.94,9.93-2.95,6.74,0,10.6,3.16a9.65,9.65,0,0,1,3.69,8.23l-.08.23h-1.73a8.55,8.55,0,0,0-3.36-6.79c-2.25-1.86-5.29-2.8-9.12-2.8s-6.69.82-8.65,2.47a7.29,7.29,0,0,0-2.93,5.69,7.11,7.11,0,0,0,2.48,5.45q2.47,2.27,9.85,4,6.81,1.57,10.32,4.31a9.08,9.08,0,0,1,3.52,7.61,9.31,9.31,0,0,1-3.91,7.75q-3.92,3-10.38,3-7.11,0-11.15-3.17a8.86,8.86,0,0,1-3.78-7.73l.08-.22h1.65a8,8,0,0,0,4.14,7,18.29,18.29,0,0,0,9.06,2.15q5.64,0,8.95-2.64A7.67,7.67,0,0,0,262,520.11Z"/><path data-cppathid="10046" fill="#fff" d="M289.63,530.86a15.57,15.57,0,0,1-12.12-5.56,20.31,20.31,0,0,1-4.95-14v-2.41q0-8.83,4.91-14.53a15.61,15.61,0,0,1,12.35-5.7,13.82,13.82,0,0,1,10.79,4.46q4,4.45,4,12.16v3.12h-30v2.9a18.92,18.92,0,0,0,4.21,12.5,13.47,13.47,0,0,0,10.83,5.06,18.65,18.65,0,0,0,7-1.36,14.81,14.81,0,0,0,5.47-3.61l1.09,1.58a16.35,16.35,0,0,1-5.52,3.89A19.44,19.44,0,0,1,289.63,530.86Zm.19-40.19a13.46,13.46,0,0,0-10.36,4.38,17.88,17.88,0,0,0-4.57,11.08l.12.22H302.6v-1.24a15.59,15.59,0,0,0-3.42-10.36A11.56,11.56,0,0,0,289.82,490.67Z"/><path data-cppathid="10047" fill="#fff" d="M312.57,509.7q0-9.66,4.06-15.36a13.06,13.06,0,0,1,11.28-5.7,15.34,15.34,0,0,1,8.21,2.15,15.65,15.65,0,0,1,5.55,5.86l.3-7.25h1.73V502s0,0,0,0v16.58a.3.3,0,0,0,0,.11V530.3q0,7.74-4.08,12t-11.3,4.22a32.23,32.23,0,0,1-6.19-.62,25,25,0,0,1-5.62-1.71l.6-2a29.14,29.14,0,0,0,5.31,1.79,26.17,26.17,0,0,0,5.82.58q6.58,0,10-3.66t3.4-10.55v-6.43A14.77,14.77,0,0,1,336,529a17.18,17.18,0,0,1-8.21,1.87,13.13,13.13,0,0,1-11.22-5.48q-4-5.49-4-14.89Zm2.06.79q0,8.41,3.35,13.38a11.08,11.08,0,0,0,9.81,5,15.31,15.31,0,0,0,8.73-2.36,13.62,13.62,0,0,0,5.11-6.29V500.71a16.94,16.94,0,0,0-4.76-7.14q-3.25-2.9-9-2.9A11,11,0,0,0,318,496q-3.39,5.28-3.39,13.74Z"/><path data-cppathid="10048" fill="#fff" d="M383.85,522.93a14.07,14.07,0,0,1-5.45,5.85,16.59,16.59,0,0,1-8.57,2.08,11.89,11.89,0,0,1-9.84-4.45q-3.54-4.45-3.55-13.82V489.4h2v23.27q0,8.26,3,12.22a9.85,9.85,0,0,0,8.23,4q6.21,0,9.61-3a14.15,14.15,0,0,0,4.42-8V489.4h2.06v24h.08c0,.32,0,.63,0,.93s0,.66,0,1.06v14.74h-1.69Z"/><path data-cppathid="10049" fill="#fff" d="M416.67,490.86l-2.63-.22a11.78,11.78,0,0,0-8.85,3.51,17.25,17.25,0,0,0-4.42,9.27v26.66h-2V489.4h1.65l.38,7.06v1.39a14.74,14.74,0,0,1,5-6.78,13.62,13.62,0,0,1,8.23-2.43,9.87,9.87,0,0,1,1.6.13c.49.09.91.19,1.26.29Z"/><path data-cppathid="10050" fill="#fff" d="M450,522.56a15.81,15.81,0,0,1-6.28,6,20.58,20.58,0,0,1-10.11,2.31q-5.69,0-8.91-3.1a11,11,0,0,1-3.23-8.36q0-5.11,4.83-8.57a20.2,20.2,0,0,1,12.08-3.46H450v-5.94a9.94,9.94,0,0,0-3.25-7.92q-3.25-2.83-9.15-2.84a13.92,13.92,0,0,0-8.9,2.67,8.4,8.4,0,0,0-3.36,6.88l-1.69-.07-.08-.19a9.49,9.49,0,0,1,3.69-8q3.9-3.29,10.34-3.29T448.1,492q4,3.32,3.95,9.55v20.38a33.37,33.37,0,0,0,.25,4.17,25.46,25.46,0,0,0,.81,4h-2.26c-.33-1.78-.55-3.12-.66-4a23.49,23.49,0,0,1-.17-2.88Zm-16.39,6.31a18.71,18.71,0,0,0,10.25-2.67,15.47,15.47,0,0,0,6.14-7.63v-9.13h-11.5a18.71,18.71,0,0,0-10.66,2.91c-2.9,1.94-4.34,4.34-4.34,7.2a8.83,8.83,0,0,0,2.76,6.71A10.26,10.26,0,0,0,433.63,528.87Z"/><path data-cppathid="10051" fill="#fff" d="M481.68,509.7q0-9.66,4.06-15.36a13.08,13.08,0,0,1,11.28-5.7,15,15,0,0,1,13.76,8l.19-7.21h1.84V502a0,0,0,0,0,0,0v16.58a.21.21,0,0,0,0,.11v27h-2V523.83a14.93,14.93,0,0,1-5.6,5.14,17.22,17.22,0,0,1-8.24,1.89,13.16,13.16,0,0,1-11.22-5.48q-4-5.49-4-14.89Zm2.11.79q0,8.41,3.32,13.38a11.05,11.05,0,0,0,9.8,5,15.25,15.25,0,0,0,8.79-2.39,13.54,13.54,0,0,0,5.08-6.38V500.82a17,17,0,0,0-4.76-7.23c-2.16-1.94-5.18-2.92-9-2.92a10.92,10.92,0,0,0-9.83,5.29q-3.36,5.28-3.36,13.74Z"/><path data-cppathid="10052" fill="#fff" d="M553,522.93a13.94,13.94,0,0,1-5.45,5.85,16.56,16.56,0,0,1-8.57,2.08,11.87,11.87,0,0,1-9.83-4.45q-3.55-4.45-3.55-13.82V489.4h2v23.27q0,8.26,3,12.22a9.87,9.87,0,0,0,8.24,4q6.2,0,9.6-3a14.15,14.15,0,0,0,4.42-8V489.4H555v24H555q0,.48,0,.93c0,.31,0,.66,0,1.06v14.74h-1.69Z"/><path data-cppathid="10053" fill="#fff" d="M582.1,530.86A15.59,15.59,0,0,1,570,525.3a20.31,20.31,0,0,1-5-14v-2.41q0-8.83,4.91-14.53a15.61,15.61,0,0,1,12.35-5.7,13.82,13.82,0,0,1,10.79,4.46q4,4.45,4,12.16v3.12h-30v2.9a18.92,18.92,0,0,0,4.21,12.5,13.47,13.47,0,0,0,10.83,5.06,18.74,18.74,0,0,0,7-1.36,14.85,14.85,0,0,0,5.46-3.61l1.1,1.58a16.4,16.4,0,0,1-5.53,3.89A19.44,19.44,0,0,1,582.1,530.86Zm.19-40.19a13.48,13.48,0,0,0-10.36,4.38,17.94,17.94,0,0,0-4.57,11.08l.12.22h27.59v-1.24a15.59,15.59,0,0,0-3.42-10.36A11.56,11.56,0,0,0,582.29,490.67Z"/><path data-cppathid="10054" fill="#fff" d="M627.86,530.08h-2V471.42h2Z"/><path data-cppathid="10055" fill="#fff" d="M666.74,522.56a15.94,15.94,0,0,1-6.28,6,20.65,20.65,0,0,1-10.12,2.31q-5.67,0-8.91-3.1a11,11,0,0,1-3.23-8.36q0-5.11,4.83-8.57a20.21,20.21,0,0,1,12.09-3.46h11.62v-5.94a10,10,0,0,0-3.26-7.92q-3.26-2.83-9.15-2.84a13.87,13.87,0,0,0-8.89,2.67,8.39,8.39,0,0,0-3.37,6.88l-1.69-.07-.08-.19a9.49,9.49,0,0,1,3.69-8q3.9-3.29,10.34-3.29T664.82,492q3.95,3.32,3.95,9.55v20.38a35.41,35.41,0,0,0,.24,4.17,25.46,25.46,0,0,0,.81,4h-2.26c-.32-1.78-.54-3.12-.66-4a23.58,23.58,0,0,1-.16-2.88Zm-16.4,6.31a18.71,18.71,0,0,0,10.25-2.67,15.54,15.54,0,0,0,6.15-7.63v-9.13H655.23a18.73,18.73,0,0,0-10.66,2.91q-4.34,2.91-4.34,7.2a8.83,8.83,0,0,0,2.76,6.71A10.26,10.26,0,0,0,650.34,528.87Z"/><path data-cppathid="10056" fill="#fff" d="M706.78,520.11a8,8,0,0,0-2.77-5.88q-2.76-2.65-9.64-4.16c-4.84-1-8.34-2.35-10.51-4s-3.25-4-3.25-7.2a9.05,9.05,0,0,1,3.68-7.32q3.69-2.94,9.93-2.95,6.74,0,10.6,3.16a9.65,9.65,0,0,1,3.69,8.23l-.08.23H706.7a8.55,8.55,0,0,0-3.36-6.79c-2.25-1.86-5.29-2.8-9.12-2.8s-6.69.82-8.65,2.47a7.29,7.29,0,0,0-2.93,5.69,7.11,7.11,0,0,0,2.48,5.45q2.48,2.27,9.85,4,6.81,1.57,10.32,4.31a9.08,9.08,0,0,1,3.52,7.61,9.31,9.31,0,0,1-3.91,7.75q-3.92,3-10.38,3-7.11,0-11.15-3.17a8.86,8.86,0,0,1-3.78-7.73l.08-.22h1.65a8,8,0,0,0,4.14,7,18.29,18.29,0,0,0,9.06,2.15q5.64,0,9-2.64A7.67,7.67,0,0,0,706.78,520.11Z"/></g><g style="isolation:isolate"><path data-cppathid="10057" fill="#fff" d="M759.87,530.08a23.67,23.67,0,0,1-1-2.94,21.8,21.8,0,0,1-.62-3.16,14.89,14.89,0,0,1-4.47,4.93,11.25,11.25,0,0,1-6.62,2q-6.39,0-9.85-3.28a11.83,11.83,0,0,1-3.46-9,10.73,10.73,0,0,1,4.61-9.27q4.61-3.29,13.44-3.29H758v-3.23a6.32,6.32,0,0,0-1.55-4.55,6,6,0,0,0-4.58-1.62,6,6,0,0,0-4.12,1.3,4.54,4.54,0,0,0-1.45,3.55H735.77l-.08-.22q-.26-5.16,4.5-8.9t12.42-3.74q7.33,0,11.86,3.69c3,2.45,4.53,6,4.53,10.56V519.7a31.67,31.67,0,0,0,.44,5.38,26.39,26.39,0,0,0,1.37,5Zm-10-7.34a9.36,9.36,0,0,0,5.11-1.42A7.79,7.79,0,0,0,758,518v-5.76h-6.17a7.32,7.32,0,0,0-5.28,1.73,5.7,5.7,0,0,0-1.79,4.25,4.24,4.24,0,0,0,1.34,3.29A5.24,5.24,0,0,0,749.83,522.74Z"/><path data-cppathid="10058" fill="#fff" d="M788.78,530.08h-11V471.42h11Z"/><path data-cppathid="10059" fill="#fff" d="M815.44,530.86q-9.11,0-14.21-5.58t-5.12-14.38v-1.5q0-9.13,5-15t13.64-5.79q8.21,0,12.58,5t4.38,13.52v5.68H807.43l-.11.22a11,11,0,0,0,2.53,6.77q2.28,2.6,6.75,2.59a22.58,22.58,0,0,0,6.26-.75,25.27,25.27,0,0,0,5.32-2.29l3,6.77a20.48,20.48,0,0,1-6.61,3.34A29.48,29.48,0,0,1,815.44,530.86Zm-.72-33.76a6.09,6.09,0,0,0-5.09,2.28,11.39,11.39,0,0,0-2.16,6l.07.19h13.39v-.83a9.49,9.49,0,0,0-1.47-5.62A5.45,5.45,0,0,0,814.72,497.1Z"/><path data-cppathid="10060" fill="#fff" d="M859.46,498.83l-4-.11a7.35,7.35,0,0,0-4,1,6.46,6.46,0,0,0-2.41,2.86v27.49H838.07V489.4h10.19l.49,6a12.86,12.86,0,0,1,3.7-5,8.28,8.28,0,0,1,5.25-1.79,8.88,8.88,0,0,1,1.52.13c.46.09.93.2,1.41.32Z"/><path data-cppathid="10061" fill="#fff" d="M879,479.43v10h6.88v7.7H879v20.72a4.72,4.72,0,0,0,1,3.38,3.51,3.51,0,0,0,2.62,1,9.4,9.4,0,0,0,1.5-.1,12,12,0,0,0,1.47-.32l.9,7.94a21.78,21.78,0,0,1-3.21.84,19.05,19.05,0,0,1-3.41.28c-3.78,0-6.7-1-8.74-3.12s-3.06-5.37-3.06-9.88V497.1H862.1v-7.7H868v-10Z"/><path data-cppathid="10062" fill="#fff" d="M916.61,530.08a23.65,23.65,0,0,1-1-2.94A19.41,19.41,0,0,1,915,524a14.92,14.92,0,0,1-4.48,4.93,11.22,11.22,0,0,1-6.61,2q-6.39,0-9.85-3.28a11.8,11.8,0,0,1-3.46-9,10.72,10.72,0,0,1,4.6-9.27q4.61-3.29,13.45-3.29h6.16v-3.23a6.32,6.32,0,0,0-1.54-4.55,6.05,6.05,0,0,0-4.59-1.62,5.91,5.91,0,0,0-4.11,1.3,4.51,4.51,0,0,0-1.45,3.55H892.51l-.07-.22q-.27-5.16,4.49-8.9t12.43-3.74q7.32,0,11.86,3.69c3,2.45,4.53,6,4.53,10.56V519.7a31.7,31.7,0,0,0,.43,5.38,28,28,0,0,0,1.37,5Zm-10-7.34a9.39,9.39,0,0,0,5.12-1.42,7.76,7.76,0,0,0,3.08-3.31v-5.76h-6.16a7.33,7.33,0,0,0-5.29,1.73,5.69,5.69,0,0,0-1.78,4.25,4.23,4.23,0,0,0,1.33,3.29A5.26,5.26,0,0,0,906.57,522.74Z"/><path data-cppathid="10063" fill="#fff" d="M956,518.8a3.79,3.79,0,0,0-1.75-3.11q-1.76-1.29-6.49-2.27Q940.6,512,936.9,509.1a9.45,9.45,0,0,1-3.71-7.86,11.19,11.19,0,0,1,4.44-8.91q4.44-3.69,11.81-3.69,7.69,0,12.35,3.69a10.75,10.75,0,0,1,4.45,9.17l-.07.23H955.56a5.34,5.34,0,0,0-1.57-4,7.39,7.39,0,0,0-8.73-.22,4.07,4.07,0,0,0-1.54,3.23,3.64,3.64,0,0,0,1.6,3.06c1.06.79,3.23,1.5,6.48,2.13q7.49,1.5,11.15,4.42a9.66,9.66,0,0,1,3.67,8,10.75,10.75,0,0,1-4.7,9q-4.7,3.5-12.41,3.49-8.12,0-12.84-4.11t-4.49-9.38l.07-.23h10a5.71,5.71,0,0,0,2.15,4.74,8.82,8.82,0,0,0,5.3,1.47,7.5,7.5,0,0,0,4.64-1.23A3.94,3.94,0,0,0,956,518.8Z"/></g><g style="isolation:isolate"><path data-cppathid="10064" fill="#00ffd3" d="M229.56,606.33H201.09v21.93h33.85v11.82H185.69V563.29h49.15v11.87H201.09v19.3h28.47Z"/><path data-cppathid="10065" fill="#00ffd3" d="M285.46,619.88h.32l19.72-56.59h20.09v76.79h-15.4V587.66l-.31-.06-19,52.48H280.45l-19-52.58-.32,0v52.53h-15.4V563.29H266Z"/><path data-cppathid="10066" fill="#00ffd3" d="M356.18,640.08h-15.4V563.29h15.4Z"/><path data-cppathid="10067" fill="#00ffd3" d="M423.41,575.16H401.48v64.92h-15.4V575.16H364.46V563.29h59Z"/><path data-cppathid="10068" fill="#00ffd3" d="M448.3,640.08H432.91V563.29H448.3Z"/><path data-cppathid="10069" fill="#00ffd3" d="M463.54,640.08V563.29h26.79q14.09,0,23.21,9t9.12,23.07v12.71q0,14.13-9.12,23.07t-23.21,8.94Zm15.4-64.92v53.1h11.39a15,15,0,0,0,12.24-5.67q4.64-5.65,4.64-14.52V595.25q0-8.81-4.64-14.45a15.07,15.07,0,0,0-12.24-5.64Z"/><path data-cppathid="10070" fill="#00ffd3" d="M573.92,623.52H549l-5.17,16.56H527.77l25.9-76.79h15.77l25.78,76.79H579.14Zm-21.1-12.08h17.35l-8.49-27.05h-.31Z"/><path data-cppathid="10071" fill="#00ffd3" d="M642.63,620a9,9,0,0,0-3.09-7.12c-2-1.8-5.66-3.48-10.83-5.07q-13.29-4-20.17-9.43t-6.88-14.82a18.63,18.63,0,0,1,7.75-15.43q7.76-6,19.77-6,12.77,0,20.54,6.43a20.13,20.13,0,0,1,7.52,16.88l-.11.31H642.21q0-5.74-3.48-8.83T629,573.89q-5.7,0-8.8,2.75a8.9,8.9,0,0,0-3.12,7,7.67,7.67,0,0,0,3.38,6.41q3.38,2.51,11.65,5.3,12.66,3.58,19.3,9.36A19.18,19.18,0,0,1,658,619.93a18.33,18.33,0,0,1-7.7,15.56q-7.7,5.68-20.36,5.69-12.39,0-21.27-6.17t-8.63-18.4l.11-.32H615.1q0,6.81,4,10T630,629.53c4.12,0,7.25-.86,9.42-2.59A8.37,8.37,0,0,0,642.63,620Z"/><path data-cppathid="10072" fill="#00ffd3" d="M736.29,620a9,9,0,0,0-3.09-7.12c-2.06-1.8-5.67-3.48-10.84-5.07q-13.29-4-20.17-9.43t-6.88-14.82a18.65,18.65,0,0,1,7.75-15.43q7.76-6,19.78-6,12.76,0,20.54,6.43a20.13,20.13,0,0,1,7.51,16.88l-.1.31H735.86q0-5.74-3.48-8.83t-9.75-3.09c-3.8,0-6.73.92-8.81,2.75a8.92,8.92,0,0,0-3.11,7,7.66,7.66,0,0,0,3.37,6.41q3.38,2.51,11.66,5.3,12.66,3.58,19.3,9.36t6.64,15.21A18.33,18.33,0,0,1,744,635.49q-7.71,5.68-20.36,5.69-12.39,0-21.28-6.17t-8.62-18.4l.1-.32h14.93q0,6.81,4,10t10.86,3.22q6.17,0,9.41-2.59A8.35,8.35,0,0,0,736.29,620Z"/><path data-cppathid="10073" fill="#00ffd3" d="M806.9,606.33H778.42v21.93h33.86v11.82H763V563.29h49.15v11.87H778.42v19.3H806.9Z"/><path data-cppathid="10074" fill="#00ffd3" d="M863.11,623.52H838.22l-5.17,16.56H817l25.89-76.79h15.77l25.79,76.79H868.33ZM842,611.44h17.35l-8.49-27.05h-.32Z"/><path data-cppathid="10075" fill="#00ffd3" d="M953.87,640.08h-15.4l-31-51.79-.31.05v51.74H891.8V563.29h15.4L938.15,615l.32-.06V563.29h15.4Z"/></g><g style="isolation:isolate"><path data-cppathid="10076" fill="#f7a800" d="M205.66,718.13v37H187.13V662.65h32q15.81,0,24.72,7.21T252.76,690A20.25,20.25,0,0,1,249,702.23a26.24,26.24,0,0,1-11,8.35q8.19,2.42,11.78,8.06t3.58,14v6.8a33.48,33.48,0,0,0,1,8.09,11.09,11.09,0,0,0,3.59,6.25v1.34H238.86q-2.54-2-3.27-6.73a58.72,58.72,0,0,1-.73-9.08v-6.54q0-6.91-3.78-10.76t-10.69-3.84Zm0-14.28H218.8q7.81,0,11.62-3.3t3.81-9.78q0-6.35-3.84-10.09t-11.27-3.74H205.66Z"/><path data-cppathid="10077" fill="#f7a800" d="M322.78,714.45H288.5v26.41h40.75v14.22H270V662.65h59.16v14.29H288.5v23.23h34.28Z"/><path data-cppathid="10078" fill="#f7a800" d="M360.8,740.86h41.39v14.22H342.26V662.65H360.8Z"/><path data-cppathid="10079" fill="#f7a800" d="M467.31,714.45H433v26.41h40.76v14.22H414.5V662.65h59.16v14.29H433v23.23h34.28Z"/><path data-cppathid="10080" fill="#f7a800" d="M518.28,730l1.15,5.08h.38l1.08-4.89L541,662.65h19.55l-31.42,92.43h-19l-31.36-92.43h19.55Z"/><path data-cppathid="10081" fill="#f7a800" d="M612.93,735.14H583l-6.22,19.94H557.39l31.16-92.43h19l31,92.43H619.21Zm-25.39-14.53h20.88L598.2,688h-.38Z"/><path data-cppathid="10082" fill="#f7a800" d="M722.17,755.08H703.63l-37.26-62.34-.38.06v62.28H647.46V662.65H666l37.26,62.27.38-.06V662.65h18.54Z"/><path data-cppathid="10083" fill="#f7a800" d="M801.77,676.94H775.36v78.14H756.83V676.94h-26V662.65h71Z"/><path data-cppathid="10084" fill="#f7a800" d="M864.74,714.45H830.46v26.41h40.75v14.22H811.93V662.65h59.16v14.29H830.46v23.23h34.28Z"/><path data-cppathid="10085" fill="#f7a800" d="M932.4,731a10.8,10.8,0,0,0-3.71-8.57q-3.71-3.23-13-6.09-16-4.81-24.28-11.36t-8.29-17.84q0-11.36,9.33-18.57t23.81-7.2q15.36,0,24.72,7.74t9,20.32l-.13.38h-18q0-6.91-4.19-10.63T916,675.41q-6.86,0-10.6,3.3a10.78,10.78,0,0,0-3.74,8.45,9.21,9.21,0,0,0,4.06,7.71q4.07,3,14,6.38,15.24,4.31,23.23,11.26t8,18.32q0,11.86-9.27,18.72t-24.5,6.86q-14.91,0-25.61-7.43t-10.38-22.15l.13-.38h18q0,8.19,4.82,12.06t13.08,3.87q7.43,0,11.33-3.11A10.1,10.1,0,0,0,932.4,731Z"/></g></svg>