<?xml version="1.0" encoding="UTF-8"?>
<svg xmlns="http://www.w3.org/2000/svg" onmouseup="{ if(window.parent.document.onmouseup) window.parent.document.onmouseup(arguments[0]);}" xml:space="preserve" style="enable-background:new 0 0 512 478;" viewBox="0 0 512 478" y="0px" x="0px" id="Layer_1" version="1.1" xmlns:xlink="http://www.w3.org/1999/xlink"><style type="text/css">
	.st0{fill:#333E48;}
	.st1{clip-path:url(#SVGID_00000101089683126301597910000010669439498033883574_);}
	.st2{fill:none;stroke:#00FFD3;stroke-width:1.4;stroke-linecap:round;stroke-linejoin:round;}
	.st3{fill:#00FFD3;}
	.st4{fill:#0A5D67;}
	.st5{fill:#E3FBFC;}
	.st6{fill:#0099A8;}
	.st7{fill:#A9E8EF;}
	.st8{fill:#97CBD2;}
	.st9{fill:#78CACE;}
	.st10{fill:#FECC2F;}
	.st11{fill:#FCB237;}
	.st12{fill:#E75300;}
	.st13{fill:#FFFFFF;}
	.st14{fill:none;stroke:#97CBD2;stroke-width:2;stroke-linecap:round;stroke-linejoin:round;}
	.st15{fill:none;stroke:#E75300;stroke-width:2;stroke-linecap:round;stroke-linejoin:round;}
	.st16{fill:none;stroke:#0099A8;stroke-width:2;stroke-linecap:round;stroke-linejoin:round;}
	.st17{fill:none;stroke:#F7A800;stroke-linecap:round;stroke-linejoin:round;}
	.st18{fill:none;stroke:#97CBD2;stroke-width:3;stroke-linecap:round;stroke-linejoin:round;}
	.st19{fill:none;stroke:#97CBD2;stroke-width:3;stroke-linecap:round;stroke-linejoin:round;stroke-dasharray:0,8.91;}
	.st20{fill:#FFAE73;}
	.st21{fill:#CE8606;}
	.st22{fill:#050505;}
	.st23{fill:#0069A7;}
	.st24{fill:#035984;}
	.st25{fill:#F7A800;}
	.st26{fill:#FFA05E;}
	.st27{opacity:0.2;}
	.st28{fill:#00ECE1;}
	.st29{fill:none;stroke:#F7A800;stroke-width:2;stroke-linecap:round;stroke-linejoin:round;}
	.st30{fill:#7E94A3;}
	.st31{fill:#191919;}
	.st32{fill:#005884;}
	.st33{fill:#FFA47C;}
	.st34{fill:#B5CCF9;}
	.st35{fill:#FFBD95;}
	.st36{fill:#CEE0FF;}
	.st37{fill:#8D3B26;}
	.st38{fill:#B8D1FF;}
	.st39{fill:#E0F2FF;}
	.st40{fill:#CC8200;}
	.st41{fill:#99A2A9;}
	.st42{fill:#E5E0E4;}
</style><rect data-cppathid="10000" height="478" width="512" class="st0"/><g><defs><path data-cppathid="10001" d="M488.8,469.1H23.2c-7.9,0-14.3-6.4-14.3-14.3l0,0V23.2c0-7.9,6.4-14.3,14.3-14.3h465.6    c7.9,0,14.3,6.4,14.3,14.3c0,0,0,0,0,0v431.6C503.1,462.7,496.7,469.1,488.8,469.1z" id="SVGID_1_"/></defs><clipPath id="SVGID_00000092454457653960741700000004045925259251967113_"><use style="overflow:visible;" xlink:href="#SVGID_1_"/></clipPath><g style="clip-path:url(#SVGID_00000092454457653960741700000004045925259251967113_);"><line data-cppathid="10002" y2="109.8" x2="75.8" y1="109.8" x1="-48.2" class="st2"/><line data-cppathid="10003" y2="142.6" x2="75.8" y1="109.8" x1="75.8" class="st2"/><line data-cppathid="10004" y2="142.6" x2="122.1" y1="142.6" x1="75.8" class="st2"/><path data-cppathid="10005" d="M122.1,145c1.3,0,2.3-1,2.3-2.3s-1-2.3-2.3-2.3c-1.3,0-2.3,1-2.3,2.3c0,0,0,0,0,0    C119.7,143.9,120.8,145,122.1,145z" class="st3"/><line data-cppathid="10006" y2="126.2" x2="56.4" y1="126.2" x1="-48.2" class="st2"/><line data-cppathid="10007" y2="164.8" x2="56.4" y1="126.2" x1="56.4" class="st2"/><line data-cppathid="10008" y2="164.8" x2="106.9" y1="164.8" x1="56.4" class="st2"/><path data-cppathid="10009" d="M106.9,167.1c1.3,0,2.3-1,2.3-2.3c0-1.3-1-2.3-2.3-2.3c-1.3,0-2.3,1-2.3,2.3l0,0    C104.5,166.1,105.6,167.1,106.9,167.1z" class="st3"/><line data-cppathid="10010" y2="198.9" x2="94.1" y1="198.9" x1="-48.2" class="st2"/><path data-cppathid="10011" d="M94.1,201.2c1.3,0,2.3-1,2.3-2.3c0-1.3-1-2.3-2.3-2.3c-1.3,0-2.3,1-2.3,2.3l0,0    C91.7,200.2,92.8,201.2,94.1,201.2z" class="st3"/><line data-cppathid="10012" y2="208.4" x2="68.5" y1="208.4" x1="-48.2" class="st2"/><line data-cppathid="10013" y2="242.1" x2="68.5" y1="208.4" x1="68.5" class="st2"/><line data-cppathid="10014" y2="242.1" x2="84.3" y1="242.1" x1="68.5" class="st2"/><path data-cppathid="10015" d="M84.3,244.5c1.3,0,2.3-1,2.3-2.3c0-1.3-1-2.3-2.3-2.3c-1.3,0-2.3,1-2.3,2.3S83.1,244.5,84.3,244.5    C84.3,244.5,84.3,244.5,84.3,244.5z" class="st3"/><line data-cppathid="10016" y2="179.5" x2="75.8" y1="179.5" x1="-48.2" class="st2"/><path data-cppathid="10017" d="M75.8,181.8c1.3,0,2.3-1,2.3-2.3c0-1.3-1-2.3-2.3-2.3c-1.3,0-2.3,1-2.3,2.3l0,0    C73.5,180.8,74.5,181.8,75.8,181.8z" class="st3"/><line data-cppathid="10018" y2="225.2" x2="38.1" y1="225.2" x1="-48.2" class="st2"/><path data-cppathid="10019" d="M38.1,227.6c1.3,0,2.3-1,2.3-2.3c0-1.3-1-2.3-2.3-2.3c-1.3,0-2.3,1-2.3,2.3l0,0    C35.8,226.5,36.8,227.6,38.1,227.6z" class="st3"/><line data-cppathid="10020" y2="242.1" x2="49.1" y1="242.1" x1="-48.2" class="st2"/><line data-cppathid="10021" y2="261.6" x2="49.1" y1="242.1" x1="49.1" class="st2"/><line data-cppathid="10022" y2="261.6" x2="76.7" y1="261.6" x1="49.1" class="st2"/><path data-cppathid="10023" d="M76.7,263.9c1.3,0,2.3-1,2.3-2.3c0-1.3-1-2.3-2.3-2.3c-1.3,0-2.3,1-2.3,2.3S75.5,263.9,76.7,263.9    C76.7,263.9,76.7,263.9,76.7,263.9z" class="st3"/><line data-cppathid="10024" y2="278.6" x2="91.6" y1="278.6" x1="-48.2" class="st2"/><path data-cppathid="10025" d="M91.6,280.9c1.3,0,2.3-1,2.3-2.3c0-1.3-1-2.3-2.3-2.3c-1.3,0-2.3,1-2.3,2.3S90.4,280.9,91.6,280.9    C91.6,280.9,91.6,280.9,91.6,280.9z" class="st3"/><line data-cppathid="10026" y2="150.5" x2="38.1" y1="150.5" x1="-48.2" class="st2"/><path data-cppathid="10027" d="M38.1,152.9c1.3,0,2.3-1,2.3-2.3s-1-2.3-2.3-2.3c-1.3,0-2.3,1-2.3,2.3l0,0C35.8,151.8,36.8,152.9,38.1,152.9z    " class="st3"/><line data-cppathid="10028" y2="296.6" x2="62.9" y1="296.6" x1="-48.2" class="st2"/><line data-cppathid="10029" y2="320.1" x2="62.9" y1="296.6" x1="62.9" class="st2"/><line data-cppathid="10030" y2="320.1" x2="97.1" y1="320.1" x1="62.9" class="st2"/><path data-cppathid="10031" d="M97.1,322.4c1.3,0,2.3-1,2.3-2.3c0-1.3-1-2.3-2.3-2.3c-1.3,0-2.3,1-2.3,2.3S95.8,322.4,97.1,322.4    C97.1,322.4,97.1,322.4,97.1,322.4z" class="st3"/><line data-cppathid="10032" y2="337.1" x2="115.5" y1="337.1" x1="-48.2" class="st2"/><ellipse data-cppathid="10033" ry="2.3" rx="2.3" cy="337.1" cx="115.5" class="st3" transform="matrix(0.1397 -0.9902 0.9902 0.1397 -234.43 404.3561)"/><line data-cppathid="10034" y2="261.6" x2="21.7" y1="261.6" x1="-48.2" class="st2"/><path data-cppathid="10035" d="M21.7,263.9c1.3,0,2.3-1,2.3-2.3c0-1.3-1-2.3-2.3-2.3c-1.3,0-2.3,1-2.3,2.3C19.4,262.9,20.4,263.9,21.7,263.9    C21.7,263.9,21.7,263.9,21.7,263.9z" class="st3"/><line data-cppathid="10036" y2="350.4" x2="80" y1="350.4" x1="-48.2" class="st2"/><line data-cppathid="10037" y2="376" x2="80" y1="350.4" x1="80" class="st2"/><line data-cppathid="10038" y2="376" x2="135.4" y1="376" x1="80" class="st2"/><path data-cppathid="10039" d="M135.4,378.3c1.3,0,2.3-1,2.3-2.3c0-1.3-1-2.3-2.3-2.3s-2.3,1-2.3,2.3S134.1,378.3,135.4,378.3L135.4,378.3z" class="st3"/><line data-cppathid="10040" y2="376" x2="49.1" y1="376" x1="-48.2" class="st2"/><path data-cppathid="10041" d="M49.1,378.3c1.3,0,2.3-1,2.3-2.3c0-1.3-1-2.3-2.3-2.3s-2.3,1-2.3,2.3S47.8,378.3,49.1,378.3    C49.1,378.3,49.1,378.3,49.1,378.3z" class="st3"/><line data-cppathid="10042" y2="94.8" x2="167.1" y1="94.8" x1="-48.2" class="st2"/><path data-cppathid="10043" d="M167.1,97.1c1.3,0,2.3-1,2.3-2.3s-1-2.3-2.3-2.3c-1.3,0-2.3,1-2.3,2.3l0,0C164.7,96,165.8,97.1,167.1,97.1z" class="st3"/><line data-cppathid="10044" y2="364.5" x2="435.3" y1="364.5" x1="559.4" class="st2"/><line data-cppathid="10045" y2="331.7" x2="435.3" y1="364.5" x1="435.3" class="st2"/><line data-cppathid="10046" y2="331.7" x2="400" y1="331.7" x1="435.3" class="st2"/><path data-cppathid="10047" d="M400,329.4c-1.3,0-2.3,1-2.3,2.3c0,1.3,1,2.3,2.3,2.3c1.3,0,2.3-1,2.3-2.3S401.3,329.4,400,329.4    C400,329.4,400,329.4,400,329.4z" class="st3"/><line data-cppathid="10048" y2="353" x2="454.7" y1="353" x1="559.4" class="st2"/><line data-cppathid="10049" y2="314.4" x2="454.7" y1="353" x1="454.7" class="st2"/><line data-cppathid="10050" y2="314.4" x2="414" y1="314.4" x1="454.7" class="st2"/><path data-cppathid="10051" d="M414,312.1c-1.3,0-2.3,1-2.3,2.3c0,1.3,1,2.3,2.3,2.3c1.3,0,2.3-1,2.3-2.3S415.3,312.1,414,312.1    C414,312.1,414,312.1,414,312.1z" class="st3"/><line data-cppathid="10052" y2="274.3" x2="426.8" y1="274.3" x1="559.4" class="st2"/><path data-cppathid="10053" d="M426.8,271.9c-1.3,0-2.3,1-2.3,2.3c0,1.3,1,2.3,2.3,2.3c1.3,0,2.3-1,2.3-2.3S428.1,271.9,426.8,271.9    C426.8,271.9,426.8,271.9,426.8,271.9z" class="st3"/><line data-cppathid="10054" y2="262.3" x2="442.6" y1="262.3" x1="559.4" class="st2"/><line data-cppathid="10055" y2="228.6" x2="442.6" y1="262.3" x1="442.6" class="st2"/><line data-cppathid="10056" y2="228.6" x2="423.1" y1="228.6" x1="442.6" class="st2"/><path data-cppathid="10057" d="M423.1,226.3c-1.3,0-2.3,1-2.3,2.3c0,1.3,1,2.3,2.3,2.3s2.3-1,2.3-2.3S424.4,226.3,423.1,226.3L423.1,226.3z" class="st3"/><line data-cppathid="10058" y2="296.1" x2="435.3" y1="296.1" x1="559.4" class="st2"/><path data-cppathid="10059" d="M435.3,293.7c-1.3,0-2.3,1-2.3,2.3c0,1.3,1,2.3,2.3,2.3c1.3,0,2.3-1,2.3-2.3S436.6,293.7,435.3,293.7    C435.3,293.7,435.3,293.7,435.3,293.7z" class="st3"/><line data-cppathid="10060" y2="245.5" x2="473" y1="245.5" x1="559.4" class="st2"/><path data-cppathid="10061" d="M473,243.1c-1.3,0-2.3,1-2.3,2.3s1,2.3,2.3,2.3c1.3,0,2.3-1,2.3-2.3S474.3,243.1,473,243.1L473,243.1z" class="st3"/><line data-cppathid="10062" y2="228.6" x2="462" y1="228.6" x1="559.4" class="st2"/><line data-cppathid="10063" y2="209.1" x2="462" y1="228.6" x1="462" class="st2"/><line data-cppathid="10064" y2="209.1" x2="434.4" y1="209.1" x1="462" class="st2"/><path data-cppathid="10065" d="M434.4,206.8c-1.3,0-2.3,1-2.3,2.3c0,1.3,1,2.3,2.3,2.3c1.3,0,2.3-1,2.3-2.3S435.7,206.8,434.4,206.8    L434.4,206.8z" class="st3"/><line data-cppathid="10066" y2="186" x2="426.8" y1="186" x1="559.4" class="st2"/><path data-cppathid="10067" d="M426.8,183.7c-1.3,0-2.3,1-2.3,2.3c0,1.3,1,2.3,2.3,2.3c1.3,0,2.3-1,2.3-2.3S428.1,183.7,426.8,183.7    L426.8,183.7z" class="st3"/><line data-cppathid="10068" y2="320.2" x2="473" y1="320.2" x1="559.4" class="st2"/><path data-cppathid="10069" d="M473,317.8c-1.3,0-2.3,1-2.3,2.3s1,2.3,2.3,2.3c1.3,0,2.3-1,2.3-2.3S474.3,317.8,473,317.8L473,317.8z" class="st3"/><line data-cppathid="10070" y2="174.1" x2="448.2" y1="174.1" x1="559.4" class="st2"/><line data-cppathid="10071" y2="150.7" x2="448.2" y1="174.1" x1="448.2" class="st2"/><line data-cppathid="10072" y2="150.7" x2="414" y1="150.7" x1="448.2" class="st2"/><path data-cppathid="10073" d="M414,148.3c-1.3,0-2.3,1-2.3,2.3c0,1.3,1,2.3,2.3,2.3c1.3,0,2.3-1,2.3-2.3S415.3,148.3,414,148.3L414,148.3z" class="st3"/><line data-cppathid="10074" y2="133.6" x2="404.1" y1="133.6" x1="559.4" class="st2"/><path data-cppathid="10075" d="M404.1,131.3c-1.3,0-2.3,1-2.3,2.3c0,1.3,1,2.3,2.3,2.3c1.3,0,2.3-1,2.3-2.3S405.4,131.3,404.1,131.3    L404.1,131.3z" class="st3"/><line data-cppathid="10076" y2="209.1" x2="489.4" y1="209.1" x1="559.4" class="st2"/><path data-cppathid="10077" d="M489.4,206.8c-1.3,0-2.3,1-2.3,2.3c0,1.3,1,2.3,2.3,2.3c1.3,0,2.3-1,2.3-2.3S490.7,206.8,489.4,206.8    L489.4,206.8z" class="st3"/><line data-cppathid="10078" y2="120.3" x2="431.1" y1="120.3" x1="559.4" class="st2"/><line data-cppathid="10079" y2="94.8" x2="431.1" y1="120.3" x1="431.1" class="st2"/><line data-cppathid="10080" y2="94.8" x2="356.2" y1="94.8" x1="431.1" class="st2"/><path data-cppathid="10081" d="M356.2,92.4c-1.3,0-2.3,1-2.3,2.3c0,1.3,1,2.3,2.3,2.3c1.3,0,2.3-1,2.3-2.3C358.5,93.5,357.5,92.4,356.2,92.4    L356.2,92.4z" class="st3"/><line data-cppathid="10082" y2="94.8" x2="462" y1="94.8" x1="559.4" class="st2"/><path data-cppathid="10083" d="M462.1,92.4c-1.3,0-2.3,1-2.3,2.3c0,1.3,1,2.3,2.3,2.3c1.3,0,2.3-1,2.3-2.3C464.4,93.5,463.4,92.4,462.1,92.4    L462.1,92.4z" class="st3"/><line data-cppathid="10084" y2="378.4" x2="361.1" y1="378.4" x1="559.4" class="st2"/><path data-cppathid="10085" d="M361.1,376.1c-1.3,0-2.3,1-2.3,2.3c0,1.3,1,2.3,2.3,2.3c1.3,0,2.3-1,2.3-2.3S362.4,376.1,361.1,376.1    C361.1,376.1,361.1,376.1,361.1,376.1z" class="st3"/></g></g><path data-cppathid="10086" d="M488.8,9.7c7.4,0,13.4,6,13.5,13.5v431.6c0,7.4-6,13.4-13.5,13.5H23.2c-7.4,0-13.4-6-13.5-13.5V23.2  c0-7.4,6-13.4,13.5-13.5H488.8 M488.8,8.9H23.2c-7.9,0-14.3,6.4-14.3,14.3v431.6c0,7.9,6.4,14.3,14.3,14.3h465.6  c7.9,0,14.3-6.4,14.3-14.3l0,0V23.2C503.1,15.3,496.7,8.9,488.8,8.9L488.8,8.9z" class="st3"/><rect data-cppathid="10087" height="4.2" width="4.2" class="st3" y="18.4" x="74.7"/><rect data-cppathid="10088" height="4.2" width="4.2" class="st3" y="18.4" x="66.6"/><rect data-cppathid="10089" height="4.2" width="4.2" class="st3" y="18.4" x="58.5"/><rect data-cppathid="10090" height="4.2" width="4.2" class="st3" y="18.4" x="50.4"/><rect data-cppathid="10091" height="4.2" width="4.2" class="st3" y="18.4" x="42.3"/><rect data-cppathid="10092" height="4.2" width="4.2" class="st3" y="18.4" x="34.2"/><rect data-cppathid="10093" height="4.2" width="4.2" class="st3" y="26.5" x="34.2"/><rect data-cppathid="10094" height="4.2" width="4.2" class="st3" y="26.5" x="42.3"/><rect data-cppathid="10095" height="4.2" width="4.2" class="st3" y="34.6" x="34.2"/><rect data-cppathid="10096" height="4.2" width="4.2" class="st3" y="18.4" x="26.1"/><rect data-cppathid="10097" height="4.2" width="4.2" class="st3" y="18.4" x="18"/><rect data-cppathid="10098" height="4.2" width="4.2" class="st3" y="75.1" x="18"/><rect data-cppathid="10099" height="4.2" width="4.2" class="st3" y="67" x="18"/><rect data-cppathid="10100" height="4.2" width="4.2" class="st3" y="58.9" x="18"/><rect data-cppathid="10101" height="4.2" width="4.2" class="st3" y="50.8" x="18"/><rect data-cppathid="10102" height="4.2" width="4.2" class="st3" y="42.7" x="18"/><rect data-cppathid="10103" height="4.2" width="4.2" class="st3" y="34.6" x="18"/><rect data-cppathid="10104" height="4.2" width="4.2" class="st3" y="34.6" x="26.3"/><rect data-cppathid="10105" height="4.2" width="4.2" class="st3" y="42.7" x="26.3"/><rect data-cppathid="10106" height="4.2" width="4.2" class="st3" y="26.5" x="18"/><rect data-cppathid="10107" height="4.2" width="4.2" class="st3" y="26.5" x="26.1"/><rect data-cppathid="10108" height="4.2" width="4.2" class="st3" y="455.4" x="432.2"/><rect data-cppathid="10109" height="4.2" width="4.2" class="st3" y="455.4" x="440.3"/><rect data-cppathid="10110" height="4.2" width="4.2" class="st3" y="455.4" x="448.4"/><rect data-cppathid="10111" height="4.2" width="4.2" class="st3" y="455.4" x="456.5"/><rect data-cppathid="10112" height="4.2" width="4.2" class="st3" y="455.4" x="464.6"/><rect data-cppathid="10113" height="4.2" width="4.2" class="st3" y="455.4" x="472.7"/><rect data-cppathid="10114" height="4.2" width="4.2" class="st3" y="447.3" x="472.7"/><rect data-cppathid="10115" height="4.2" width="4.2" class="st3" y="447.3" x="464.6"/><rect data-cppathid="10116" height="4.2" width="4.2" class="st3" y="439.2" x="472.7"/><rect data-cppathid="10117" height="4.2" width="4.2" class="st3" y="455.4" x="480.8"/><rect data-cppathid="10118" height="4.2" width="4.2" class="st3" y="455.4" x="488.9"/><rect data-cppathid="10119" height="4.2" width="4.2" class="st3" y="398.6" x="488.9"/><rect data-cppathid="10120" height="4.2" width="4.2" class="st3" y="406.7" x="488.9"/><rect data-cppathid="10121" height="4.2" width="4.2" class="st3" y="414.9" x="488.9"/><rect data-cppathid="10122" height="4.2" width="4.2" class="st3" y="423" x="488.9"/><rect data-cppathid="10123" height="4.2" width="4.2" class="st3" y="431.1" x="488.9"/><rect data-cppathid="10124" height="4.2" width="4.2" class="st3" y="439.2" x="488.9"/><rect data-cppathid="10125" height="4.2" width="4.2" class="st3" y="439.2" x="480.6"/><rect data-cppathid="10126" height="4.2" width="4.2" class="st3" y="431.1" x="480.6"/><rect data-cppathid="10127" height="4.2" width="4.2" class="st3" y="447.3" x="488.9"/><rect data-cppathid="10128" height="4.2" width="4.2" class="st3" y="447.3" x="480.8"/><path data-cppathid="10129" d="M355.8,108.4h-193c-7,0-12.7-5.7-12.7-12.7l0,0l0,0c0-7,5.7-12.7,12.7-12.7l0,0h193c7,0,12.7,5.7,12.7,12.7l0,0  l0,0C368.5,102.7,362.8,108.4,355.8,108.4L355.8,108.4z" class="st3"/><g><path data-cppathid="10130" d="M284.9,98.4L284.9,98.4c0,1.5-0.4,2.6-1.2,3.3c-0.8,0.7-2,1.1-3.5,1.1c-2.7,0.2-5-1.9-5.2-4.6   c0-0.2,0-0.4,0-0.6v-2.6c-0.1-1.4,0.4-2.7,1.4-3.7c0.9-1,2.3-1.5,3.6-1.4c1.6,0,2.8,0.4,3.7,1.1c0.9,0.7,1.3,1.8,1.3,3.2l0,0H282   c0.1-0.6-0.1-1.2-0.5-1.7c-0.5-0.4-1-0.6-1.6-0.5c-0.6,0-1.2,0.3-1.5,0.8c-0.4,0.6-0.6,1.4-0.5,2.1v2.7c0,0.8,0.2,1.5,0.6,2.1   c0.4,0.5,1,0.8,1.7,0.8c0.5,0,1.1-0.1,1.4-0.5c0.3-0.5,0.5-1.1,0.4-1.7L284.9,98.4z" class="st4"/><path data-cppathid="10131" d="M289.4,97.8v4.8h-2.9V90.1h4.4c1.2-0.1,2.5,0.3,3.5,1c0.8,0.7,1.3,1.7,1.3,2.8c0,0.6-0.2,1.2-0.5,1.7   c-0.4,0.5-0.9,0.9-1.5,1.1c0.7,0.2,1.3,0.5,1.7,1.1c0.4,0.6,0.5,1.2,0.5,1.9v0.8c0,0.4,0.1,0.8,0.1,1.1c0.1,0.3,0.2,0.7,0.5,0.9   v0.2h-3c-0.3-0.2-0.4-0.6-0.4-0.9c-0.1-0.4-0.1-0.8-0.1-1.3v-0.8c0-0.5-0.1-1-0.5-1.4c-0.4-0.3-0.9-0.5-1.4-0.5L289.4,97.8z    M289.4,95.6h1.5c0.5,0,0.9-0.1,1.3-0.4c0.3-0.3,0.5-0.7,0.5-1.2c0-0.5-0.2-0.9-0.5-1.2c-0.4-0.3-0.8-0.5-1.3-0.5h-1.5L289.4,95.6z   " class="st4"/><path data-cppathid="10132" d="M300.9,102.7H298V90.1h2.9V102.7z M299.8,86.5h3.2v0l-2.4,2.2H298L299.8,86.5z" class="st4"/><path data-cppathid="10133" d="M311.6,92.3h-3.3v10.4h-2.9V92.3h-3.3v-2.2h9.5V92.3z" class="st4"/><path data-cppathid="10134" d="M315.9,102.7h-2.9V90.1h2.9V102.7z" class="st4"/><path data-cppathid="10135" d="M327.7,98.4L327.7,98.4c0,1.5-0.4,2.6-1.2,3.3s-2,1.1-3.5,1.1c-2.7,0.2-5-1.9-5.2-4.6c0-0.2,0-0.4,0-0.6v-2.6   c-0.1-1.4,0.4-2.7,1.4-3.7c0.9-1,2.3-1.5,3.6-1.4c1.6,0,2.8,0.4,3.7,1.1c0.9,0.7,1.3,1.8,1.3,3.2l0,0h-2.8c0.1-0.6-0.1-1.2-0.5-1.7   c-0.5-0.4-1-0.6-1.6-0.5c-0.6,0-1.2,0.3-1.5,0.8c-0.4,0.6-0.6,1.4-0.5,2.1v2.7c0,0.8,0.2,1.5,0.6,2.1c0.4,0.5,1,0.8,1.7,0.8   c0.5,0,1.1-0.1,1.4-0.5c0.3-0.5,0.5-1.1,0.4-1.7H327.7z" class="st4"/><path data-cppathid="10136" d="M335.9,100.2h-3.7l-0.7,2.5h-3.1l4.1-12.6h1.6l0,0h1.6l4.1,12.6h-3.1L335.9,100.2z M332.9,98h2.4l-1.2-3.9h0   L332.9,98z" class="st4"/><path data-cppathid="10137" d="M347.1,99.3c0-0.4-0.1-0.8-0.4-1c-0.5-0.3-1-0.6-1.6-0.8c-1.2-0.4-2.4-0.9-3.5-1.6c-0.8-0.6-1.2-1.5-1.1-2.5   c0-1,0.5-2,1.3-2.6c2.1-1.3,4.8-1.3,6.8,0c0.9,0.7,1.4,1.7,1.3,2.8v0.1h-2.8c0-0.5-0.2-1-0.5-1.3c-0.4-0.3-0.9-0.4-1.5-0.4   c-0.5,0-0.9,0.1-1.3,0.4c-0.3,0.2-0.4,0.6-0.4,1c0,0.4,0.2,0.7,0.5,0.9c0.6,0.3,1.2,0.6,1.8,0.8c1.2,0.3,2.3,0.8,3.3,1.6   c0.8,0.6,1.2,1.6,1.1,2.6c0,1-0.5,2-1.3,2.6c-1,0.7-2.2,1-3.4,0.9c-1.3,0-2.5-0.3-3.6-1c-1-0.7-1.5-1.7-1.4-3.2v-0.1h2.8   c-0.1,0.6,0.1,1.1,0.5,1.6c0.5,0.3,1.1,0.5,1.7,0.4c0.5,0,1-0.1,1.4-0.4C347,100,347.1,99.7,347.1,99.3z" class="st4"/></g><rect data-cppathid="10138" height="172.7" width="248.7" class="st5" y="113" x="134.9"/><rect data-cppathid="10139" height="22.1" width="248.7" class="st6" y="113" x="134.9"/><path data-cppathid="10140" d="M155,124.8c0,2.8-2.1,5.1-4.8,5.1s-4.8-2.3-4.8-5.1c0-2.8,2.1-5.1,4.8-5.1S155,122,155,124.8z" class="st7"/><path data-cppathid="10141" d="M169.3,124.8c0,2.8-2.1,5.1-4.8,5.1s-4.8-2.3-4.8-5.1s2.1-5.1,4.8-5.1S169.3,122,169.3,124.8z" class="st7"/><path data-cppathid="10142" d="M183.6,124.8c0,2.8-2.1,5.1-4.8,5.1c-2.6,0-4.8-2.3-4.8-5.1c0-2.8,2.1-5.1,4.8-5.1S183.6,122,183.6,124.8z" class="st7"/><rect data-cppathid="10143" height="39" width="225.5" class="st8" y="150.2" x="145.5"/><rect data-cppathid="10144" height="34.6" width="107.8" class="st8" y="195.9" x="145.5"/><rect data-cppathid="10145" height="34.6" width="107.8" class="st8" y="236.5" x="145.5"/><rect data-cppathid="10146" height="75.2" width="99.9" class="st9" y="195.9" x="271.1"/><rect data-cppathid="10147" height="44.3" width="75.3" class="st10" y="141.3" x="353.2"/><polygon data-cppathid="10148" points="353.2,141.3 390.9,163.4 428.5,141.3 " class="st11"/><rect data-cppathid="10149" height="44.3" width="75.3" class="st10" y="240.4" x="141.7"/><polygon data-cppathid="10150" points="141.7,240.4 179.4,262.6 217,240.4 " class="st11"/><rect data-cppathid="10151" height="28.9" width="5.9" class="st12" transform="matrix(0.6355 -0.7721 0.7721 0.6355 -61.8926 158.8525)" y="130.5" x="134.4"/><polygon data-cppathid="10152" points="145.8,132.9 149.9,137.2 128.8,157 124.7,152.7 " class="st12"/><rect data-cppathid="10153" height="182.3" width="262.7" class="st5" y="164" x="127.6"/><rect data-cppathid="10154" height="23.3" width="262.7" class="st6" y="164" x="127.6"/><path data-cppathid="10155" d="M148.8,176.5c0,3-2.3,5.4-5,5.4c-2.8,0-5-2.4-5-5.4c0-3,2.2-5.4,5-5.4C146.6,171.1,148.8,173.6,148.8,176.5z" class="st7"/><path data-cppathid="10156" d="M163.9,176.5c0,3-2.3,5.4-5,5.4c-2.8,0-5-2.4-5-5.4c0-3,2.3-5.4,5-5.4C161.7,171.1,163.9,173.6,163.9,176.5z" class="st7"/><path data-cppathid="10157" d="M179.1,176.5c0,3-2.3,5.4-5,5.4c-2.8,0-5-2.4-5-5.4c0-3,2.3-5.4,5-5.4C176.8,171.1,179.1,173.6,179.1,176.5z" class="st7"/><path data-cppathid="10158" d="M375.4,338.3h-233c-3.7,0-6.7-3-6.7-6.7V201.5c0-3.7,3-6.7,6.7-6.7h233c3.7,0,6.7,3,6.7,6.7v130.1  C382.1,335.3,379.1,338.3,375.4,338.3C375.4,338.3,375.4,338.3,375.4,338.3z" class="st8"/><rect data-cppathid="10159" height="131.2" width="176.6" class="st13" y="201.3" x="141"/><path data-cppathid="10160" d="M244.9,212.7H152c-1.9,0-3.5-1.6-3.5-3.5v-0.9c0-1.9,1.6-3.5,3.5-3.5h92.9c1.9,0,3.5,1.6,3.5,3.5v0.9  C248.4,211.1,246.8,212.7,244.9,212.7z" class="st6"/><rect data-cppathid="10161" height="42.3" width="57.7" class="st3" y="201.3" x="319.2"/><rect data-cppathid="10162" height="42.3" width="57.7" class="st3" y="245.8" x="319.2"/><rect data-cppathid="10163" height="42.3" width="57.7" class="st3" y="290.2" x="319.2"/><polyline data-cppathid="10164" points="167.9,217.3 167.9,316 311.1,316 " class="st14"/><line data-cppathid="10165" y2="230.2" x2="311.1" y1="230.2" x1="168.9" class="st15"/><line data-cppathid="10166" y2="315.3" x2="311.1" y1="315.3" x1="168.9" class="st16"/><polyline data-cppathid="10167" points="168.8,314.1 189.4,314.1 192.7,312.3 192.7,261 194.2,265.1 195.7,253.8 196.4,259 197.3,253.8   198.8,273.3 199.9,253.6 201,260.8 204.6,221.4 207.4,260 209.4,241.2 211.8,285.7 212.7,253.8 213.4,261.5 214.9,246.1 216,258.4   216.9,249.2 218.5,275.2 219.8,261 221.3,313.9 221.8,257.2 223.7,249.4 224.2,236.8 225.1,268.2 225.8,242.8 228,275.7   229.9,264.4 230.6,288.3 232.1,241 234.1,253.6 235,235.3 236.1,251.8 237,245.8 237.6,264.4 239.8,249.6 240.7,261 243,250.2   245.3,259.8 247.1,246.6 248,253.6 248.7,241.2 249.5,245.6 250.6,225.3 251.3,246.9 252.6,239.7 252.9,250.7 254,242 254.8,254.1   255.1,227.1 256.2,236.8 257.7,224.2 258.4,237.4 259.3,225.5 260.8,266.4 263,244.8 263.7,270.3 265.2,245.1 266.3,261   267.4,247.4 269.8,276.9 270.5,261.3 271.6,266.9 272.3,247.6 274.5,293.7 276.4,234.3 277.8,270.5 278.7,243.8 279.5,251.5   280.6,240.4 281.1,247.4 282,240.2 282.4,246.1 283.7,229.4 284.6,241 286.1,235.6 287,286.7 289.5,221.4 291,278.2 292.1,256.4   295,275.4 296.7,252 297.8,256.1 298.1,248.7 299.2,256.6 301.2,238.9 302.5,261.8 304.2,243.3 306.4,277.5 307.1,237.6   309.7,255.4 310.9,231.2 " class="st17"/><line data-cppathid="10168" y2="272.8" x2="169.2" y1="272.8" x1="169.2" class="st18"/><line data-cppathid="10169" y2="272.8" x2="309.1" y1="272.8" x1="173.1" class="st19"/><line data-cppathid="10170" y2="272.8" x2="311.1" y1="272.8" x1="311.1" class="st18"/><path data-cppathid="10171" d="M164.3,232.1h-8.2c-0.9,0-1.6-0.7-1.7-1.7V230c0-0.9,0.7-1.6,1.7-1.7h8.2c0.9,0,1.6,0.7,1.7,1.7v0.4  C165.9,231.3,165.2,232.1,164.3,232.1z" class="st8"/><path data-cppathid="10172" d="M164.3,274.6h-8.2c-0.9,0-1.6-0.7-1.7-1.7v-0.4c0-0.9,0.7-1.6,1.7-1.7h8.2c0.9,0,1.6,0.7,1.7,1.7v0.4  C165.9,273.9,165.2,274.6,164.3,274.6z" class="st8"/><path data-cppathid="10173" d="M164.3,317.2h-8.2c-0.9,0-1.6-0.7-1.7-1.7v-0.4c0-0.9,0.7-1.6,1.7-1.7h8.2c0.9,0,1.7,0.7,1.7,1.6c0,0,0,0,0,0  v0.4C166,316.5,165.2,317.2,164.3,317.2z" class="st8"/><path data-cppathid="10174" d="M208.6,322.1h-12.1c-0.9,0-1.7-0.7-1.7-1.6V320c0-0.9,0.7-1.6,1.7-1.7h12.1c0.9,0,1.6,0.7,1.7,1.7v0.4  C210.2,321.3,209.5,322.1,208.6,322.1z" class="st8"/><path data-cppathid="10175" d="M246.1,322.1h-12.2c-0.9,0-1.6-0.7-1.7-1.7V320c0-0.9,0.7-1.6,1.7-1.7h12.2c0.9,0,1.6,0.7,1.7,1.7v0.4  C247.7,321.3,247,322.1,246.1,322.1z" class="st8"/><path data-cppathid="10176" d="M283.6,322.1h-12.1c-0.9,0-1.6-0.7-1.7-1.7V320c0-0.9,0.7-1.6,1.7-1.7h12.1c0.9,0,1.7,0.7,1.7,1.7c0,0,0,0,0,0  v0.4C285.2,321.3,284.5,322.1,283.6,322.1z" class="st8"/><path data-cppathid="10177" d="M254.2,327.7h-28.4c-0.8,0-1.4-0.6-1.4-1.4V326c0-0.8,0.6-1.4,1.4-1.4h28.4c0.8,0,1.4,0.6,1.4,1.4v0.4  C255.6,327.1,255,327.7,254.2,327.7L254.2,327.7z" class="st8"/><g><path data-cppathid="10178" d="M148.3,303.6h0.6c-0.2-0.1-0.4-0.2-0.5-0.4c-0.1-0.2-0.2-0.4-0.2-0.7c0-0.2,0.1-0.5,0.2-0.7c0.2-0.2,0.4-0.3,0.6-0.4   c-0.2-0.1-0.5-0.2-0.6-0.4c-0.2-0.2-0.2-0.5-0.2-0.7c0-0.3,0.1-0.6,0.3-0.8c0.3-0.2,0.7-0.3,1.1-0.3h1.8v0.2h-1.8   c-0.3,0-0.7,0.1-1,0.2c-0.2,0.2-0.3,0.4-0.3,0.7c0,0.3,0.1,0.6,0.3,0.7c0.2,0.2,0.5,0.3,0.7,0.3h2v0.2h-1.6l0,0h-0.1h-0.1   c-0.3,0-0.7,0.1-1,0.3c-0.2,0.2-0.3,0.4-0.3,0.7c0,0.3,0.1,0.5,0.3,0.7c0.2,0.2,0.5,0.3,0.7,0.3h2.1v0.2h-3.2V303.6z"/><path data-cppathid="10179" d="M147.3,298.1v0.2h-0.4v-0.2H147.3z M151.5,298.1v0.2h-3.2v-0.2H151.5z"/><path data-cppathid="10180" d="M148.3,296.9h0.6c-0.2-0.1-0.4-0.2-0.5-0.4c-0.1-0.2-0.2-0.4-0.2-0.7c0-0.3,0.1-0.6,0.3-0.8c0.3-0.2,0.7-0.3,1.1-0.2h1.9   v0.2h-1.9c-0.3,0-0.7,0.1-0.9,0.2c-0.2,0.2-0.3,0.4-0.3,0.6c0,0.3,0.1,0.6,0.3,0.8c0.2,0.2,0.5,0.3,0.8,0.3h2v0.2h-1.6l0,0h-0.1   h-0.1h-1.3L148.3,296.9z"/><path data-cppathid="10181" d="M147.3,293.5v0.2h-0.4v-0.2H147.3z M151.5,293.5v0.2h-3.2v-0.2H151.5z"/><path data-cppathid="10182" d="M148.3,292.4h0.6c-0.2-0.1-0.4-0.2-0.5-0.4c-0.1-0.2-0.2-0.4-0.2-0.7c0-0.2,0.1-0.5,0.2-0.7c0.2-0.2,0.4-0.3,0.6-0.4   c-0.2-0.1-0.5-0.2-0.6-0.4c-0.2-0.2-0.2-0.5-0.2-0.7c0-0.3,0.1-0.6,0.3-0.8c0.3-0.2,0.7-0.3,1.1-0.3h1.8v0.2h-1.8   c-0.3,0-0.7,0.1-1,0.2c-0.2,0.2-0.3,0.4-0.3,0.7c0,0.3,0.1,0.6,0.3,0.7c0.2,0.2,0.5,0.3,0.7,0.3h2v0.2h-1.6l0,0h-0.2   c-0.3,0-0.7,0.1-1,0.3c-0.2,0.2-0.3,0.4-0.3,0.7c0,0.3,0.1,0.5,0.3,0.7c0.2,0.2,0.5,0.3,0.7,0.3h2.1v0.2h-3.2V292.4z"/><path data-cppathid="10183" d="M149.8,287.4c-0.4,0-0.8-0.1-1.1-0.4c-0.6-0.5-0.6-1.4-0.1-1.9c0,0,0.1-0.1,0.1-0.1c0.3-0.3,0.7-0.4,1.1-0.4h0.1   c0.4,0,0.8,0.1,1.1,0.4c0.6,0.5,0.6,1.3,0.1,1.9c0,0-0.1,0.1-0.1,0.1c-0.3,0.3-0.7,0.4-1.1,0.4L149.8,287.4z M149.9,287.2   c0.4,0,0.7-0.1,1-0.3c0.5-0.4,0.6-1.2,0.1-1.7c0,0-0.1-0.1-0.1-0.1c-0.3-0.2-0.6-0.3-1-0.3h-0.1c-0.4,0-0.7,0.1-1,0.3   c-0.5,0.4-0.6,1.1-0.2,1.6c0,0.1,0.1,0.1,0.2,0.2c0.3,0.2,0.6,0.3,1,0.3H149.9z"/><path data-cppathid="10184" d="M151.5,283.6l0.7,0.2v0.2l-0.7-0.2H151v-0.2H151.5z"/><path data-cppathid="10185" d="M149.9,278.8c0.4,0,0.8,0.1,1.2,0.3c0.3,0.2,0.5,0.5,0.4,0.9c0,0.2,0,0.4-0.1,0.6c-0.1,0.2-0.2,0.3-0.4,0.4h1.7v0.2h-4.4   v-0.1l0.6,0c-0.2-0.1-0.3-0.3-0.4-0.4c-0.1-0.2-0.2-0.4-0.2-0.6c0-0.4,0.2-0.7,0.4-0.9C149,278.9,149.4,278.8,149.9,278.8   L149.9,278.8z M149.9,279c-0.4,0-0.8,0.1-1.1,0.3c-0.3,0.2-0.4,0.5-0.4,0.8c0,0.3,0.1,0.5,0.2,0.7c0.2,0.2,0.3,0.3,0.6,0.4h1.5   c0.2-0.1,0.4-0.2,0.5-0.4c0.1-0.2,0.2-0.4,0.2-0.7c0-0.3-0.1-0.6-0.4-0.8C150.7,279.1,150.3,279,149.9,279L149.9,279z"/><path data-cppathid="10186" d="M148.4,276.5v0.2c0,0.3,0.1,0.5,0.3,0.7c0.2,0.2,0.5,0.3,0.7,0.3h2.1v0.2h-3.2v-0.1l0.6,0h0.1c-0.2-0.1-0.4-0.2-0.5-0.4   c-0.1-0.2-0.2-0.4-0.2-0.6c0,0,0-0.1,0-0.1c0,0,0-0.1,0-0.1L148.4,276.5z"/><path data-cppathid="10187" d="M149.8,276.2c-0.4,0-0.8-0.1-1.1-0.4c-0.6-0.5-0.6-1.4-0.1-1.9c0,0,0.1-0.1,0.1-0.1c0.3-0.3,0.7-0.4,1.1-0.4h0.1   c0.4,0,0.8,0.1,1.1,0.4c0.6,0.5,0.6,1.4,0.1,1.9c0,0-0.1,0.1-0.1,0.1c-0.3,0.3-0.7,0.4-1.1,0.4H149.8z M149.9,276.1   c0.4,0,0.7-0.1,1-0.3c0.3-0.2,0.4-0.5,0.4-0.9c0-0.3-0.1-0.7-0.4-0.9c-0.3-0.2-0.7-0.3-1-0.3h-0.1c-0.4,0-0.7,0.1-1,0.3   c-0.5,0.4-0.5,1.2-0.1,1.6c0,0,0.1,0.1,0.1,0.1c0.3,0.2,0.6,0.3,1,0.3L149.9,276.1z"/><path data-cppathid="10188" d="M148.3,272.6h0.6c-0.2-0.1-0.4-0.2-0.5-0.4c-0.1-0.2-0.2-0.4-0.2-0.7c0-0.2,0.1-0.5,0.2-0.7c0.2-0.2,0.4-0.3,0.6-0.4   c-0.2-0.1-0.5-0.2-0.6-0.4c-0.2-0.2-0.2-0.5-0.2-0.7c0-0.3,0.1-0.6,0.3-0.8c0.3-0.2,0.7-0.3,1.1-0.3h1.8v0.2h-1.8   c-0.3,0-0.7,0.1-1,0.2c-0.2,0.2-0.3,0.4-0.3,0.7c0,0.3,0.1,0.6,0.3,0.7c0.2,0.2,0.5,0.3,0.7,0.3h0.1h1.9v0.2h-1.6l0,0h-0.1h-0.1   c-0.3,0-0.7,0.1-1,0.3c-0.2,0.2-0.3,0.4-0.3,0.7c0,0.3,0.1,0.5,0.3,0.7c0.2,0.2,0.5,0.3,0.7,0.3h2.1v0.2h-3.2V272.6z"/><path data-cppathid="10189" d="M151.5,266.2c0,0.4-0.2,0.7-0.4,0.9c-0.3,0.3-0.7,0.4-1.1,0.4h-0.2c-0.4,0-0.8-0.1-1.1-0.4c-0.3-0.2-0.5-0.6-0.4-1   c0-0.3,0.1-0.6,0.3-0.8c0.3-0.2,0.6-0.3,0.9-0.3h0.2v2.3h0.2c0.4,0,0.7-0.1,1-0.3c0.3-0.2,0.4-0.5,0.4-0.8c0-0.2,0-0.4-0.1-0.5   c-0.1-0.2-0.2-0.3-0.3-0.4l0.1-0.1c0.1,0.1,0.2,0.3,0.3,0.4C151.5,265.8,151.5,266,151.5,266.2z M148.4,266.2   c0,0.3,0.1,0.6,0.3,0.8c0.2,0.2,0.6,0.3,0.9,0.4l0,0v-2.2h-0.1c-0.3,0-0.6,0.1-0.8,0.3C148.5,265.6,148.4,265.9,148.4,266.2   L148.4,266.2z"/><path data-cppathid="10190" d="M149.9,264.4c-0.4,0-0.8-0.1-1.2-0.3c-0.3-0.2-0.5-0.5-0.4-0.9c0-0.2,0.1-0.5,0.2-0.6c0.1-0.2,0.3-0.3,0.4-0.4h-2V262h4.6   v0.2H151c0.2,0.1,0.3,0.3,0.4,0.4c0.1,0.2,0.2,0.4,0.2,0.6c0,0.4-0.2,0.7-0.4,0.9C150.7,264.3,150.3,264.4,149.9,264.4L149.9,264.4   z M149.9,264.2c0.4,0,0.7-0.1,1-0.3c0.3-0.2,0.4-0.5,0.4-0.8c0-0.2-0.1-0.5-0.2-0.7c-0.1-0.2-0.3-0.3-0.5-0.4h-1.5   c-0.2,0.1-0.4,0.2-0.6,0.4c-0.2,0.2-0.2,0.5-0.2,0.7c0,0.3,0.1,0.6,0.4,0.8C149.1,264.2,149.5,264.2,149.9,264.2L149.9,264.2z"/><path data-cppathid="10191" d="M147.3,260.8v0.2h-0.4v-0.2H147.3z M151.5,260.8v0.2h-3.2v-0.2H151.5z"/><path data-cppathid="10192" d="M149.8,260c-0.4,0-0.8-0.1-1.1-0.4c-0.6-0.5-0.6-1.4-0.1-1.9c0,0,0.1-0.1,0.1-0.1c0.3-0.3,0.7-0.4,1.1-0.4h0.1   c0.4,0,0.8,0.1,1.1,0.4c0.6,0.5,0.6,1.4,0.1,1.9c0,0-0.1,0.1-0.1,0.1c-0.3,0.3-0.7,0.4-1.1,0.4H149.8z M149.9,259.8   c0.4,0,0.7-0.1,1-0.3c0.5-0.4,0.5-1.2,0.1-1.7c0,0-0.1-0.1-0.1-0.1c-0.3-0.2-0.6-0.3-1-0.3h-0.1c-0.4,0-0.7,0.1-1,0.3   c-0.3,0.2-0.4,0.5-0.4,0.9c0,0.3,0.2,0.7,0.4,0.9c0.3,0.2,0.6,0.3,1,0.3H149.9z"/><path data-cppathid="10193" d="M150.9,254.1l0.3-0.1l0,0h0l-2.9-1.1v-0.2l3.7,1.4c0.2,0.1,0.4,0.2,0.5,0.3c0.1,0.1,0.2,0.3,0.2,0.5c0,0,0,0.1,0,0.1l0,0.1   l-0.2,0c0,0,0-0.1,0-0.1c0,0,0-0.1,0-0.1c0-0.2,0-0.3-0.2-0.4c-0.1-0.1-0.3-0.2-0.5-0.3l-0.5-0.2l-3.2,1.3v-0.2L150.9,254.1z"/><path data-cppathid="10194" d="M148.3,250.6h0.6c-0.2-0.1-0.4-0.2-0.5-0.4c-0.1-0.2-0.2-0.4-0.2-0.7c0-0.2,0.1-0.5,0.2-0.7c0.2-0.2,0.4-0.3,0.6-0.4   c-0.2-0.1-0.5-0.2-0.6-0.4c-0.2-0.2-0.2-0.5-0.2-0.7c0-0.3,0.1-0.6,0.3-0.8c0.3-0.2,0.7-0.3,1.1-0.3h1.8v0.2h-1.8   c-0.3,0-0.7,0.1-1,0.2c-0.2,0.2-0.3,0.4-0.3,0.7c0,0.3,0.1,0.6,0.3,0.7c0.2,0.2,0.5,0.3,0.7,0.3h0.1h1.9v0.2h-1.6l0,0h-0.1h-0.1   c-0.3,0-0.7,0.1-1,0.3c-0.2,0.2-0.3,0.4-0.3,0.7c0,0.3,0.1,0.5,0.3,0.7c0.2,0.2,0.5,0.3,0.7,0.3h2.1v0.2h-3.2V250.6z"/><path data-cppathid="10195" d="M146.9,243.7v-0.2l0,0l0.8,0.7v0.2l0,0L146.9,243.7z M150.9,243.3c0.2,0.1,0.4,0.3,0.5,0.5c0.1,0.2,0.2,0.5,0.2,0.8   c0,0.3-0.1,0.5-0.2,0.7c-0.2,0.2-0.4,0.3-0.7,0.3c-0.3,0-0.5-0.1-0.7-0.4c-0.2-0.3-0.3-0.6-0.3-0.9v-0.9h-0.5   c-0.2,0-0.5,0.1-0.6,0.3c-0.2,0.2-0.2,0.5-0.2,0.7c0,0.2,0.1,0.5,0.2,0.7c0.1,0.2,0.3,0.3,0.6,0.3v0.1l0,0c-0.2,0-0.5-0.1-0.6-0.3   c-0.2-0.2-0.3-0.5-0.3-0.8c0-0.3,0.1-0.6,0.3-0.8c0.2-0.2,0.5-0.3,0.7-0.3h1.6c0.1,0,0.2,0,0.3,0c0.1,0,0.2,0,0.3-0.1v0.2l-0.3,0   C151.1,243.3,151,243.3,150.9,243.3L150.9,243.3z M151.4,244.5c0-0.3-0.1-0.6-0.2-0.8c-0.1-0.2-0.3-0.4-0.6-0.5h-0.7v0.9   c0,0.3,0.1,0.6,0.2,0.8c0.1,0.2,0.3,0.3,0.6,0.3c0.2,0,0.4-0.1,0.5-0.2C151.3,244.9,151.4,244.8,151.4,244.5L151.4,244.5z"/><path data-cppathid="10196" d="M149.7,241.2l-1.4-1v-0.2l1.5,1.1l1.6-1.2v0.2l-1.5,1.1l1.5,1.1v0.2l-1.6-1.2l-1.5,1.1v-0.2L149.7,241.2z"/><path data-cppathid="10197" d="M147.3,239v0.2h-0.4V239H147.3z M151.5,239v0.2h-3.2V239H151.5z"/><path data-cppathid="10198" d="M148.3,237.9h0.6c-0.2-0.1-0.4-0.2-0.5-0.4c-0.1-0.2-0.2-0.4-0.2-0.7c0-0.2,0.1-0.5,0.2-0.7c0.2-0.2,0.4-0.3,0.6-0.4   c-0.2-0.1-0.5-0.2-0.6-0.4c-0.2-0.2-0.2-0.5-0.2-0.7c0-0.3,0.1-0.6,0.3-0.8c0.3-0.2,0.7-0.3,1.1-0.3h1.8v0.2h-1.8   c-0.3,0-0.7,0.1-1,0.2c-0.2,0.2-0.3,0.4-0.3,0.7c0,0.3,0.1,0.6,0.3,0.7c0.2,0.2,0.5,0.3,0.7,0.3h2v0.2h-1.6l0,0h-0.1h-0.1   c-0.3,0-0.7,0.1-1,0.3c-0.2,0.2-0.3,0.4-0.3,0.7c0,0.3,0.1,0.5,0.3,0.7c0.2,0.2,0.5,0.3,0.7,0.3h2.1v0.2h-3.2V237.9z"/><path data-cppathid="10199" d="M149.8,232.8c-0.4,0-0.8-0.1-1.1-0.4c-0.6-0.5-0.6-1.4-0.1-1.9c0,0,0.1-0.1,0.1-0.1c0.3-0.3,0.7-0.4,1.1-0.4h0.1   c0.4,0,0.8,0.1,1.1,0.4c0.6,0.5,0.6,1.4,0.1,1.9c0,0-0.1,0.1-0.1,0.1c-0.3,0.3-0.7,0.4-1.1,0.4H149.8z M149.9,232.7   c0.4,0,0.7-0.1,1-0.3c0.3-0.2,0.4-0.5,0.4-0.9c0-0.3-0.1-0.7-0.4-0.9c-0.3-0.2-0.6-0.3-1-0.3h-0.1c-0.4,0-0.7,0.1-1,0.3   c-0.5,0.4-0.6,1.1-0.2,1.6c0,0.1,0.1,0.1,0.2,0.2c0.3,0.2,0.6,0.3,1,0.3L149.9,232.7z"/></g><g><path data-cppathid="10200" d="M333.2,319.1c0-0.2,0.1-0.5,0.2-0.6c0.2-0.2,0.4-0.3,0.7-0.3c0.2,0,0.5,0.1,0.7,0.3c0.2,0.2,0.2,0.4,0.2,0.7   v0.2c0,0.2-0.1,0.5-0.2,0.6c-0.2,0.2-0.4,0.3-0.7,0.3c-0.2,0-0.5-0.1-0.7-0.3c-0.2-0.2-0.3-0.4-0.2-0.6L333.2,319.1z M333.7,319.3   c0,0.1,0,0.3,0.1,0.4c0.2,0.2,0.5,0.2,0.7,0c0,0,0,0,0,0c0.1-0.1,0.1-0.2,0.1-0.4v-0.2c0-0.1,0-0.3-0.1-0.4   c-0.1-0.1-0.2-0.2-0.3-0.2c-0.1,0-0.3,0.1-0.3,0.2c-0.1,0.1-0.1,0.2-0.1,0.4V319.3z M334.3,322.3l-0.3-0.2l2.2-3.4l0.3,0.2   L334.3,322.3z M335.4,321.6c0-0.2,0.1-0.5,0.3-0.6c0.4-0.4,1-0.4,1.3,0c0.2,0.2,0.3,0.4,0.3,0.6v0.2c0,0.2-0.1,0.5-0.2,0.7   c-0.2,0.2-0.4,0.3-0.7,0.3c-0.5,0-0.9-0.4-0.9-0.8c0,0,0,0,0-0.1L335.4,321.6z M335.8,321.8c0,0.1,0,0.3,0.1,0.4   c0.1,0.1,0.2,0.2,0.4,0.2c0.1,0,0.3,0,0.3-0.2c0.1-0.1,0.1-0.2,0.1-0.4v-0.2c0-0.1,0-0.3-0.1-0.4c-0.2-0.2-0.4-0.2-0.6-0.1   c0,0-0.1,0-0.1,0.1c-0.1,0.1-0.1,0.2-0.1,0.4V321.8z" class="st4"/><path data-cppathid="10201" d="M340.8,322.8c-0.4,0-0.8-0.1-1.1-0.4c-0.3-0.3-0.4-0.8-0.4-1.2V321c0-0.4,0.1-0.8,0.4-1.2   c0.3-0.3,0.6-0.4,1-0.4c0.4,0,0.7,0.1,1,0.4c0.2,0.3,0.3,0.7,0.3,1.1v0.3h-2.1l0,0c0,0.3,0.1,0.6,0.2,0.8c0.2,0.2,0.4,0.3,0.7,0.3   c0.2,0,0.4,0,0.5-0.1c0.1-0.1,0.3-0.1,0.4-0.2l0.2,0.4c-0.1,0.1-0.3,0.2-0.5,0.3C341.3,322.7,341,322.8,340.8,322.8z M340.7,319.8   c-0.2,0-0.4,0.1-0.5,0.2c-0.1,0.2-0.2,0.4-0.2,0.6l0,0h1.5v0c0-0.2-0.1-0.4-0.2-0.6C341.1,319.9,340.9,319.8,340.7,319.8   L340.7,319.8z" class="st4"/><path data-cppathid="10202" d="M343.2,319.4l0,0.5c0.1-0.2,0.2-0.3,0.4-0.4c0.2-0.1,0.4-0.1,0.6-0.1c0.3,0,0.6,0.1,0.8,0.3   c0.2,0.3,0.3,0.6,0.3,1v2.1h-0.6v-2.1c0-0.2,0-0.4-0.2-0.6c-0.1-0.1-0.3-0.2-0.5-0.2c-0.2,0-0.3,0-0.5,0.1   c-0.1,0.1-0.2,0.2-0.3,0.3v2.4h-0.6v-3.3L343.2,319.4z" class="st4"/><path data-cppathid="10203" d="M349.3,319.9H349c-0.1,0-0.3,0-0.4,0.1c-0.1,0.1-0.2,0.2-0.2,0.3v2.3h-0.6v-3.3h0.5l0.1,0.5   c0.1-0.2,0.2-0.3,0.3-0.4c0.1-0.1,0.3-0.1,0.5-0.1h0.1h0.1L349.3,319.9z" class="st4"/><path data-cppathid="10204" d="M351.9,322.7c0-0.1,0-0.2,0-0.3c0-0.1,0-0.2,0-0.2c-0.1,0.2-0.3,0.3-0.4,0.4c-0.2,0.1-0.4,0.2-0.6,0.2   c-0.3,0-0.6-0.1-0.8-0.3c-0.2-0.2-0.3-0.5-0.3-0.7c0-0.3,0.1-0.6,0.4-0.7c0.3-0.2,0.7-0.3,1-0.3h0.6v-0.3c0-0.2-0.1-0.3-0.2-0.4   c-0.1-0.1-0.3-0.2-0.5-0.2c-0.2,0-0.3,0-0.5,0.1c-0.1,0.1-0.2,0.2-0.2,0.3H350l0,0c0-0.3,0.1-0.5,0.3-0.7c0.3-0.2,0.6-0.3,0.9-0.3   c0.3,0,0.6,0.1,0.9,0.3c0.2,0.2,0.4,0.5,0.3,0.8v1.6c0,0.1,0,0.2,0,0.3c0,0.1,0,0.2,0.1,0.3L351.9,322.7z M350.9,322.2   c0.2,0,0.4-0.1,0.6-0.2c0.2-0.1,0.3-0.2,0.3-0.4v-0.5h-0.7c-0.2,0-0.4,0.1-0.6,0.2c-0.1,0.1-0.2,0.3-0.2,0.4c0,0.1,0,0.3,0.1,0.3   C350.6,322.2,350.8,322.3,350.9,322.2L350.9,322.2z" class="st4"/><path data-cppathid="10205" d="M353.9,319.4l0,0.5c0.1-0.2,0.2-0.3,0.4-0.4c0.2-0.1,0.4-0.1,0.6-0.1c0.3,0,0.6,0.1,0.8,0.3   c0.2,0.3,0.3,0.6,0.3,1v2.1h-0.6v-2.1c0-0.2,0-0.4-0.2-0.6c-0.1-0.1-0.3-0.2-0.5-0.2c-0.2,0-0.3,0-0.4,0.1   c-0.1,0.1-0.2,0.2-0.3,0.3v2.4h-0.6v-3.3L353.9,319.4z" class="st4"/><path data-cppathid="10206" d="M356.7,321.1c0-0.4,0.1-0.9,0.3-1.3c0.2-0.3,0.6-0.5,0.9-0.5c0.2,0,0.4,0,0.5,0.1c0.2,0.1,0.3,0.2,0.4,0.4   l0.1-0.4h0.5v3.3c0,0.4-0.1,0.7-0.4,1c-0.3,0.2-0.7,0.4-1.1,0.3c-0.2,0-0.3,0-0.5-0.1c-0.2,0-0.3-0.1-0.5-0.2l0.1-0.4   c0.1,0.1,0.3,0.1,0.4,0.1c0.2,0,0.3,0.1,0.5,0.1c0.2,0,0.5-0.1,0.6-0.2c0.1-0.2,0.2-0.4,0.2-0.6v-0.4c-0.1,0.1-0.2,0.2-0.4,0.3   c-0.2,0.1-0.3,0.1-0.5,0.1c-0.4,0-0.7-0.2-0.9-0.4C356.8,322,356.7,321.6,356.7,321.1L356.7,321.1z M357.3,321.2   c0,0.3,0.1,0.6,0.2,0.8c0.1,0.2,0.4,0.3,0.6,0.3c0.2,0,0.3,0,0.4-0.1c0.1-0.1,0.2-0.2,0.3-0.3v-1.5c-0.1-0.1-0.2-0.2-0.3-0.3   c-0.1-0.1-0.3-0.1-0.4-0.1c-0.3,0-0.5,0.1-0.6,0.4C357.4,320.5,357.3,320.8,357.3,321.2L357.3,321.2z" class="st4"/><path data-cppathid="10207" d="M360.2,321c0-0.4,0.1-0.9,0.4-1.2c0.5-0.6,1.5-0.6,2.1-0.1c0,0,0.1,0.1,0.1,0.1c0.3,0.3,0.4,0.8,0.4,1.2v0.1   c0,0.4-0.1,0.9-0.4,1.2c-0.5,0.6-1.5,0.6-2.1,0.1c0,0-0.1-0.1-0.1-0.1C360.4,321.9,360.2,321.5,360.2,321L360.2,321z M360.8,321.1   c0,0.3,0.1,0.6,0.2,0.9c0.3,0.4,0.8,0.4,1.1,0.2c0.1-0.1,0.1-0.1,0.2-0.2c0.2-0.3,0.2-0.6,0.2-0.9V321c0-0.3-0.1-0.6-0.2-0.9   c-0.2-0.4-0.7-0.4-1.1-0.2c-0.1,0.1-0.1,0.1-0.2,0.2C360.9,320.4,360.8,320.7,360.8,321.1L360.8,321.1z" class="st4"/></g><g><path data-cppathid="10208" d="M330.7,300.9c0.5,0,1.1,0.1,1.6,0.2c0.4,0.1,0.9,0.2,1.3,0.4l-0.4,1.4c-0.4-0.2-0.7-0.3-1.1-0.4   c-0.4-0.1-0.9-0.2-1.4-0.1c-0.8,0-1.6,0.4-2.1,1.1c-0.6,0.8-0.8,1.8-0.8,2.8v1.1c0.4-0.4,0.8-0.7,1.3-0.9c0.5-0.2,1.1-0.3,1.7-0.3   c1.1,0,2.1,0.4,2.8,1.2c0.7,0.9,1.1,2,1,3.1c0.1,1.2-0.3,2.4-1.1,3.3c-0.8,0.8-1.9,1.3-3.1,1.2c-1.2,0-2.4-0.5-3.1-1.4   c-0.8-1-1.3-2.3-1.3-3.9v-3.1c-0.1-1.4,0.4-2.8,1.4-3.9C328.2,301.5,329.4,300.9,330.7,300.9z M330.3,307.4c-0.5,0-1,0.1-1.5,0.4   c-0.4,0.2-0.7,0.6-0.9,1v0.9c-0.1,1,0.2,1.9,0.7,2.7c0.4,0.6,1.1,1,1.8,1c0.7,0,1.4-0.3,1.8-0.9c0.4-0.7,0.7-1.5,0.6-2.3   c0-0.8-0.2-1.5-0.7-2.1C331.7,307.6,331,307.3,330.3,307.4L330.3,307.4z" class="st4"/><path data-cppathid="10209" d="M337.1,308.6l0.8-7.5h6.8v1.6h-5.2l-0.4,3.9c0.3-0.2,0.6-0.4,1-0.5c0.4-0.1,0.8-0.2,1.2-0.2   c1.1-0.1,2.2,0.4,2.9,1.2c1.4,2,1.4,4.6,0,6.6c-0.7,0.8-1.8,1.2-3.2,1.2c-1,0-2.1-0.3-2.9-0.9c-0.8-0.7-1.2-1.7-1.1-2.8v-0.1h1.7   c0,0.6,0.2,1.3,0.6,1.7c0.4,0.4,1,0.6,1.7,0.6c0.7,0,1.4-0.3,1.8-0.8c0.5-0.7,0.7-1.4,0.6-2.2c0-0.8-0.2-1.5-0.6-2.1   c-0.4-0.5-1.1-0.8-1.8-0.8c-0.5,0-1.1,0.1-1.6,0.3c-0.3,0.2-0.6,0.6-0.7,1L337.1,308.6z" class="st4"/><path data-cppathid="10210" d="M349.2,314.2l-1.4,2.9h-1.1l0.7-2.9v-1.5h1.8V314.2z" class="st4"/><path data-cppathid="10211" d="M359.4,304.6c0,0.7-0.2,1.3-0.6,1.9c-0.4,0.5-1,1-1.6,1.2c0.7,0.2,1.4,0.7,1.9,1.3c0.5,0.6,0.7,1.3,0.7,2   c0.1,1.1-0.4,2.2-1.2,2.9c-0.9,0.7-2,1.1-3.1,1c-1.2,0.1-2.3-0.3-3.3-1c-0.9-0.7-1.3-1.8-1.3-2.9c0-0.7,0.2-1.5,0.7-2   c0.5-0.6,1.2-1,1.9-1.3c-0.7-0.2-1.2-0.6-1.6-1.2c-0.4-0.5-0.6-1.2-0.6-1.9c-0.1-1,0.4-2,1.1-2.7c0.8-0.7,1.9-1,3-0.9   c1,0,2,0.3,2.8,0.9C359,302.5,359.4,303.5,359.4,304.6z M357.9,310.9c0-1.4-1-2.5-2.4-2.5c0,0-0.1,0-0.1,0c-0.7,0-1.4,0.2-1.9,0.7   c-0.5,0.5-0.8,1.1-0.8,1.8c0,0.7,0.2,1.4,0.7,1.8c0.5,0.5,1.2,0.7,1.9,0.7c1.3,0,2.4-1,2.5-2.3C357.9,311,357.9,311,357.9,310.9z    M357.6,304.6c0-0.6-0.2-1.2-0.6-1.6c-0.4-0.4-0.9-0.6-1.5-0.6c-0.6,0-1.2,0.2-1.6,0.6c-0.4,0.4-0.7,1-0.6,1.6   c-0.1,1.2,0.9,2.3,2.1,2.3c0.1,0,0.1,0,0.2,0c0.6,0,1.1-0.2,1.5-0.6C357.4,305.8,357.6,305.2,357.6,304.6L357.6,304.6z" class="st4"/><path data-cppathid="10212" d="M362.3,308.6l0.8-7.5h6.8v1.6h-5.2l-0.4,3.9c0.3-0.2,0.6-0.4,1-0.5c0.4-0.1,0.8-0.2,1.2-0.2   c1.1-0.1,2.2,0.4,2.9,1.2c1.4,2,1.4,4.6,0,6.6c-0.7,0.8-1.8,1.2-3.2,1.2c-1,0-2.1-0.3-2.9-0.9c-0.8-0.7-1.2-1.7-1.1-2.8v-0.1h1.7   c0,0.6,0.2,1.3,0.6,1.7c0.4,0.4,1,0.6,1.7,0.6c0.7,0,1.4-0.3,1.8-0.8c0.5-0.7,0.7-1.4,0.6-2.2c0-0.8-0.2-1.5-0.6-2.1   c-0.4-0.5-1.1-0.8-1.8-0.8c-0.5,0-1.1,0.1-1.6,0.3c-0.3,0.2-0.6,0.6-0.7,1L362.3,308.6z" class="st4"/></g><g><path data-cppathid="10213" d="M337.6,274.7c0-0.2,0.1-0.5,0.2-0.6c0.4-0.4,1-0.4,1.3,0c0.2,0.2,0.3,0.4,0.2,0.7v0.2c0,0.2-0.1,0.5-0.2,0.6   c-0.4,0.3-1,0.3-1.3,0c-0.2-0.2-0.3-0.4-0.3-0.6V274.7z M338.1,274.9c0,0.1,0,0.3,0.1,0.4c0.1,0.1,0.2,0.2,0.4,0.2   c0.1,0,0.3,0,0.3-0.2c0.1-0.1,0.1-0.2,0.1-0.4v-0.2c0-0.1,0-0.3-0.1-0.4c-0.1-0.1-0.2-0.2-0.3-0.2c-0.1,0-0.3,0.1-0.3,0.2   c-0.1,0.1-0.1,0.2-0.1,0.4V274.9z M338.7,277.9l-0.3-0.2l2.2-3.4l0.3,0.2L338.7,277.9z M339.8,277.2c0-0.2,0.1-0.5,0.2-0.6   c0.2-0.2,0.4-0.3,0.7-0.3c0.2,0,0.5,0.1,0.7,0.3c0.2,0.2,0.3,0.4,0.2,0.6v0.2c0,0.2-0.1,0.5-0.2,0.7c-0.2,0.2-0.4,0.3-0.7,0.3   c-0.2,0-0.5-0.1-0.7-0.3c-0.2-0.2-0.3-0.4-0.2-0.7V277.2z M340.2,277.4c0,0.1,0,0.3,0.1,0.4c0.1,0.1,0.2,0.2,0.3,0.2   c0.1,0,0.3,0,0.3-0.2c0.1-0.1,0.1-0.2,0.1-0.4v-0.2c0-0.1,0-0.3-0.1-0.4c-0.1-0.1-0.2-0.2-0.3-0.2c-0.1,0-0.3,0.1-0.3,0.2   c-0.1,0.1-0.1,0.2-0.1,0.4L340.2,277.4z" class="st4"/><path data-cppathid="10214" d="M345.1,277.9c0.2,0,0.4-0.1,0.5-0.2c0.1-0.1,0.2-0.3,0.2-0.4h0.5l0,0c0,0.3-0.1,0.6-0.4,0.8   c-0.2,0.2-0.6,0.3-0.9,0.3c-0.4,0-0.8-0.2-1.1-0.5c-0.3-0.3-0.4-0.7-0.4-1.2v-0.1c0-0.4,0.1-0.8,0.4-1.2c0.3-0.3,0.7-0.5,1.1-0.5   c0.3,0,0.6,0.1,0.9,0.3c0.2,0.2,0.4,0.5,0.3,0.8l0,0h-0.5c0-0.2-0.1-0.4-0.2-0.5c-0.1-0.1-0.3-0.2-0.5-0.2c-0.3,0-0.5,0.1-0.6,0.3   c-0.1,0.3-0.2,0.5-0.2,0.8v0.1c0,0.3,0.1,0.6,0.2,0.8C344.6,277.7,344.8,277.9,345.1,277.9z" class="st4"/><path data-cppathid="10215" d="M348.4,278.3c-0.4,0-0.8-0.1-1.1-0.4c-0.3-0.3-0.4-0.8-0.4-1.2v-0.1c0-0.4,0.1-0.8,0.4-1.2   c0.2-0.3,0.6-0.5,1-0.4c0.4,0,0.7,0.1,1,0.4c0.2,0.3,0.4,0.7,0.3,1.1v0.3h-2.1l0,0c0,0.3,0.1,0.6,0.2,0.8c0.2,0.2,0.4,0.3,0.7,0.3   c0.2,0,0.4,0,0.5-0.1c0.1-0.1,0.3-0.1,0.4-0.2l0.2,0.4c-0.1,0.1-0.3,0.2-0.4,0.3C348.9,278.3,348.7,278.3,348.4,278.3z    M348.3,275.4c-0.2,0-0.4,0.1-0.5,0.2c-0.1,0.2-0.2,0.4-0.3,0.6l0,0h1.5v0c0-0.2-0.1-0.4-0.2-0.6   C348.7,275.5,348.5,275.4,348.3,275.4L348.3,275.4z" class="st4"/><path data-cppathid="10216" d="M351.9,275.5h-0.3c-0.1,0-0.3,0-0.4,0.1c-0.1,0.1-0.2,0.2-0.2,0.3v2.3h-0.6V275h0.5l0.1,0.5   c0.1-0.2,0.2-0.3,0.3-0.4c0.1-0.1,0.3-0.1,0.5-0.1h0.1h0.1L351.9,275.5z" class="st4"/><path data-cppathid="10217" d="M352.3,276.6c0-0.4,0.1-0.9,0.4-1.2c0.3-0.3,0.7-0.5,1.1-0.5c0.4,0,0.8,0.2,1.1,0.5c0.3,0.3,0.4,0.8,0.4,1.2   v0.1c0,0.4-0.1,0.9-0.4,1.2c-0.3,0.3-0.7,0.5-1.1,0.5c-0.4,0-0.8-0.2-1.1-0.5C352.4,277.5,352.3,277.1,352.3,276.6L352.3,276.6z    M352.9,276.7c0,0.3,0.1,0.6,0.2,0.9c0.3,0.4,0.8,0.4,1.1,0.2c0.1-0.1,0.1-0.1,0.2-0.2c0.2-0.3,0.2-0.6,0.2-0.9v-0.1   c0-0.3-0.1-0.6-0.2-0.9c-0.1-0.2-0.4-0.4-0.7-0.3c-0.3,0-0.5,0.1-0.6,0.3C353,276,352.9,276.3,352.9,276.7L352.9,276.7z" class="st4"/><path data-cppathid="10218" d="M357.9,277.4c0-0.1-0.1-0.2-0.2-0.3c-0.2-0.1-0.4-0.2-0.6-0.2c-0.3-0.1-0.6-0.2-0.9-0.3   c-0.2-0.1-0.3-0.4-0.3-0.6c0-0.3,0.1-0.5,0.3-0.7c0.5-0.4,1.2-0.4,1.8,0c0.2,0.2,0.3,0.4,0.3,0.7l0,0h-0.6c0-0.1-0.1-0.3-0.2-0.4   c-0.1-0.1-0.3-0.2-0.5-0.2c-0.2,0-0.3,0-0.5,0.1c-0.1,0.1-0.2,0.2-0.2,0.3c0,0.1,0,0.2,0.1,0.3c0.2,0.1,0.4,0.2,0.6,0.2   c0.3,0.1,0.6,0.2,0.9,0.4c0.2,0.1,0.3,0.4,0.3,0.6c0,0.3-0.1,0.5-0.4,0.7c-0.6,0.4-1.3,0.4-1.9,0c-0.2-0.2-0.4-0.5-0.3-0.7l0,0h0.6   c0,0.2,0.1,0.3,0.2,0.4c0.2,0.1,0.3,0.1,0.5,0.1c0.2,0,0.4,0,0.5-0.1C357.8,277.6,357.8,277.5,357.9,277.4z" class="st4"/></g><g><path data-cppathid="10219" d="M338.4,265.7h1.9v1.4h-1.9v3.1h-1.8v-3.1h-5.8v-1l5.7-9.4h1.9V265.7z M332.7,265.7h3.9v-6.4h-0.1l-0.2,0.4   L332.7,265.7z" class="st4"/><path data-cppathid="10220" d="M343.8,269.8l-1.4,2.9h-1.1l0.7-2.9v-1.5h1.8V269.8z" class="st4"/><path data-cppathid="10221" d="M354,260.1c0,0.7-0.2,1.3-0.6,1.9c-0.4,0.5-1,1-1.6,1.2c0.7,0.2,1.4,0.7,1.9,1.3c0.5,0.6,0.7,1.3,0.7,2   c0.1,1.1-0.4,2.2-1.2,2.9c-0.9,0.7-2,1.1-3.1,1c-1.2,0-2.3-0.3-3.3-1c-0.8-0.7-1.3-1.8-1.3-2.9c0-0.7,0.2-1.5,0.7-2   c0.5-0.6,1.2-1,1.9-1.3c-0.6-0.2-1.2-0.6-1.6-1.2c-0.4-0.5-0.6-1.2-0.6-1.9c-0.1-1,0.4-2,1.1-2.7c0.8-0.7,1.9-1,3-0.9   c1,0,2,0.3,2.8,0.9C353.7,258.1,354.1,259.1,354,260.1z M352.5,266.5c0-1.4-1-2.5-2.4-2.5c0,0-0.1,0-0.1,0c-0.7,0-1.4,0.2-1.9,0.7   c-0.5,0.5-0.8,1.1-0.8,1.8c0,0.7,0.2,1.4,0.7,1.8c0.5,0.5,1.2,0.7,1.9,0.7c1.3,0,2.4-1,2.5-2.3   C352.6,266.6,352.6,266.5,352.5,266.5z M352.2,260.2c0-0.6-0.2-1.2-0.6-1.6c-0.4-0.4-0.9-0.6-1.5-0.6c-0.6,0-1.2,0.2-1.6,0.6   c-0.4,0.4-0.7,1-0.6,1.6c-0.1,1.2,0.9,2.3,2.1,2.3c0.1,0,0.1,0,0.2,0c0.6,0,1.1-0.2,1.5-0.6C352,261.4,352.2,260.8,352.2,260.2z" class="st4"/><path data-cppathid="10222" d="M363.6,265.7h1.9v1.4h-1.9v3.1h-1.8v-3.1H356v-1l5.7-9.4h1.9V265.7z M358,265.7h3.9v-6.4h-0.1l-0.2,0.4   L358,265.7z" class="st4"/></g><g><path data-cppathid="10223" d="M337.8,230.3c0-0.2,0.1-0.5,0.3-0.6c0.2-0.2,0.4-0.3,0.7-0.3c0.2,0,0.5,0.1,0.7,0.3c0.2,0.2,0.3,0.4,0.2,0.7   v0.2c0,0.2-0.1,0.5-0.2,0.6c-0.2,0.2-0.4,0.3-0.7,0.3c-0.5,0-0.9-0.4-0.9-0.8c0,0,0,0,0,0V230.3z M338.2,230.5c0,0.1,0,0.3,0.1,0.4   c0.1,0.1,0.2,0.2,0.4,0.2c0.1,0,0.3,0,0.3-0.2c0.1-0.1,0.1-0.2,0.1-0.4v-0.2c0-0.1,0-0.3-0.1-0.4c-0.1-0.1-0.2-0.2-0.3-0.2   c-0.1,0-0.3,0.1-0.3,0.2c-0.1,0.1-0.1,0.2-0.1,0.4V230.5z M338.8,233.5l-0.3-0.2l2.2-3.4l0.3,0.2L338.8,233.5z M339.9,232.8   c0-0.2,0.1-0.5,0.2-0.6c0.4-0.3,1-0.3,1.3,0c0.2,0.2,0.3,0.4,0.2,0.6v0.2c0,0.2-0.1,0.5-0.2,0.7c-0.2,0.2-0.4,0.3-0.7,0.3   c-0.2,0-0.5-0.1-0.7-0.3c-0.2-0.2-0.3-0.4-0.3-0.7V232.8z M340.3,233c0,0.1,0,0.3,0.1,0.4c0.1,0.1,0.2,0.2,0.4,0.2   c0.1,0,0.3,0,0.3-0.2c0.1-0.1,0.1-0.2,0.1-0.4v-0.2c0-0.1,0-0.3-0.1-0.4c-0.1-0.1-0.2-0.2-0.3-0.2c-0.1,0-0.3,0.1-0.3,0.2   c-0.1,0.1-0.1,0.2-0.1,0.4L340.3,233z" class="st4"/><path data-cppathid="10224" d="M344.5,230.6l0,0.5c0.1-0.2,0.2-0.3,0.4-0.4c0.2-0.1,0.4-0.1,0.6-0.1c0.3,0,0.6,0.1,0.8,0.3   c0.2,0.3,0.3,0.6,0.3,1v2.1H346v-2.1c0-0.2,0-0.4-0.2-0.6c-0.1-0.1-0.3-0.2-0.5-0.2c-0.2,0-0.3,0-0.5,0.1c-0.1,0.1-0.2,0.2-0.3,0.3   v2.4H344v-3.3H344.5z" class="st4"/><path data-cppathid="10225" d="M349.6,233.4c-0.1,0.2-0.2,0.3-0.4,0.4c-0.2,0.1-0.4,0.1-0.6,0.1c-0.3,0-0.6-0.1-0.8-0.3   c-0.2-0.3-0.3-0.7-0.3-1.1v-1.9h0.6v1.9c0,0.3,0,0.5,0.2,0.7c0.1,0.1,0.3,0.2,0.5,0.2c0.2,0,0.4,0,0.5-0.1c0.1-0.1,0.2-0.2,0.3-0.4   v-2.4h0.6v3.3h-0.5L349.6,233.4z" class="st4"/><path data-cppathid="10226" d="M351.7,233.9h-0.6v-4.7h0.6V233.9z" class="st4"/><path data-cppathid="10227" d="M352.4,232.2c0-0.4,0.1-0.9,0.4-1.2c0.5-0.6,1.5-0.6,2.1-0.1c0,0,0.1,0.1,0.1,0.1c0.3,0.3,0.4,0.8,0.4,1.2v0.1   c0,0.4-0.1,0.9-0.4,1.2c-0.3,0.3-0.7,0.5-1.1,0.5c-0.4,0-0.8-0.2-1.1-0.5C352.6,233.1,352.4,232.7,352.4,232.2L352.4,232.2z    M353,232.3c0,0.3,0.1,0.6,0.2,0.9c0.2,0.4,0.7,0.5,1.1,0.2c0.1-0.1,0.2-0.1,0.2-0.2c0.2-0.3,0.2-0.6,0.2-0.9v-0.1   c0-0.3-0.1-0.6-0.2-0.9c-0.2-0.4-0.7-0.4-1.1-0.2c-0.1,0.1-0.1,0.1-0.2,0.2C353.1,231.6,353,231.9,353,232.3L353,232.3z" class="st4"/><path data-cppathid="10228" d="M358,233c0-0.1-0.1-0.2-0.2-0.3c-0.2-0.1-0.4-0.2-0.6-0.2c-0.3-0.1-0.6-0.2-0.9-0.3c-0.2-0.1-0.3-0.4-0.3-0.6   c0-0.3,0.1-0.5,0.3-0.7c0.5-0.4,1.2-0.4,1.8,0c0.2,0.2,0.3,0.4,0.3,0.7l0,0H358c0-0.1-0.1-0.3-0.2-0.4c-0.1-0.1-0.3-0.2-0.5-0.2   c-0.2,0-0.3,0-0.5,0.1c-0.1,0.1-0.2,0.2-0.2,0.3c0,0.1,0,0.2,0.1,0.3c0.2,0.1,0.4,0.2,0.6,0.2c0.3,0.1,0.6,0.2,0.9,0.4   c0.2,0.1,0.3,0.4,0.3,0.6c0,0.3-0.1,0.5-0.4,0.7c-0.3,0.2-0.6,0.3-0.9,0.3c-0.4,0-0.7-0.1-1-0.3c-0.2-0.2-0.4-0.5-0.3-0.7l0,0h0.6   c0,0.2,0.1,0.3,0.2,0.4c0.2,0.1,0.3,0.2,0.5,0.1c0.2,0,0.3,0,0.5-0.1C357.9,233.2,358,233.1,358,233z" class="st4"/></g><g><path data-cppathid="10229" d="M339.8,221c0.1,1.3-0.3,2.6-1.2,3.6c-1.7,1.7-4.4,1.8-6.2,0.1c0,0-0.1-0.1-0.1-0.1c-0.8-0.9-1.2-2.1-1.2-3.6   v-4c-0.1-1.3,0.3-2.6,1.2-3.6c1.6-1.7,4.4-1.8,6.1-0.2c0.1,0.1,0.1,0.1,0.2,0.2c0.8,1,1.3,2.3,1.2,3.6V221z M338,216.7   c0-0.8-0.2-1.6-0.7-2.3c-0.4-0.6-1.1-0.9-1.8-0.8c-0.7,0-1.4,0.3-1.8,0.8c-0.5,0.7-0.7,1.5-0.6,2.3v4.7c0,0.8,0.2,1.6,0.7,2.3   c0.9,1,2.4,1.1,3.4,0.3c0.1-0.1,0.2-0.2,0.3-0.3c0.5-0.7,0.7-1.5,0.6-2.3V216.7z" class="st4"/><path data-cppathid="10230" d="M343.8,225.4l-1.4,2.9h-1.1l0.7-2.9v-1.5h1.8V225.4z" class="st4"/><path data-cppathid="10231" d="M354.3,221c0.1,1.3-0.3,2.6-1.2,3.6c-1.7,1.7-4.4,1.8-6.1,0.1c0,0-0.1-0.1-0.1-0.1c-0.8-0.9-1.2-2.1-1.2-3.6   v-4c-0.1-1.3,0.3-2.6,1.2-3.6c0.8-0.9,1.9-1.4,3.1-1.3c1.2,0,2.4,0.4,3.2,1.3c0.8,1,1.2,2.3,1.2,3.6V221z M352.4,216.7   c0-0.8-0.2-1.6-0.7-2.3c-0.4-0.6-1.1-0.9-1.8-0.8c-0.7,0-1.4,0.3-1.8,0.8c-0.5,0.7-0.7,1.5-0.6,2.3v4.7c0,0.8,0.2,1.6,0.7,2.3   c0.9,1,2.4,1.1,3.4,0.3c0.1-0.1,0.2-0.2,0.3-0.3c0.5-0.7,0.7-1.5,0.6-2.3V216.7z" class="st4"/><path data-cppathid="10232" d="M365,221c0.1,1.3-0.3,2.6-1.2,3.6c-1.7,1.7-4.4,1.8-6.2,0.1c0,0-0.1-0.1-0.1-0.1c-0.8-0.9-1.2-2.1-1.2-3.6v-4   c-0.1-1.3,0.3-2.6,1.2-3.6c1.6-1.7,4.4-1.8,6.1-0.2c0.1,0.1,0.1,0.1,0.2,0.2c0.8,1,1.3,2.3,1.2,3.6V221z M363.2,216.7   c0-0.8-0.2-1.6-0.7-2.3c-0.4-0.6-1.1-0.9-1.8-0.8c-0.7,0-1.4,0.3-1.8,0.8c-0.5,0.7-0.7,1.5-0.6,2.3v4.7c0,0.8,0.2,1.6,0.7,2.3   c0.9,1,2.4,1.1,3.4,0.3c0.1-0.1,0.2-0.2,0.3-0.3c0.5-0.7,0.7-1.5,0.6-2.3L363.2,216.7z" class="st4"/></g><path data-cppathid="10233" d="M340.1,261.6c0,0-1.1-1.1-1.7-1.6s-2.9-1.7-3-1.2c-0.1,0.5-0.2,3.7,0.7,4.3c0.9,0.6,0.7,2.2,4,1.9L340.1,261.6  z" class="st20"/><path data-cppathid="10234" d="M369.5,241.5c0,0-10.4,17.9-16.6,18.8c-4.9,0.8-12.9,1.1-12.9,1.1s-1.2,2.5,0.1,4.5c0,0,12.3,5.3,18.9,3  c10.2-3.6,13.2-10.5,13.2-10.5L369.5,241.5z" class="st21"/><path data-cppathid="10235" d="M406,381.2c0,0-0.4,7.4-1.9,7.5c-0.2,0-7.3,0-7.3,0l-9,0c0,0,0.1-2.2,2.7-2.7s7.1-2.3,8.7-5.8  C400.8,376.6,406,381.2,406,381.2z" class="st22"/><path data-cppathid="10236" d="M406.5,381.8c0,0-2.8,0.9-4.9,0.9c-1.5,0-3.1-0.2-4.6-0.7c0,0-0.5-5-3.4-16.1c-1.5-5.8-3.6-13.3-6.7-22.5  c-8.4-25.6-11-40.6-11.2-42c0-0.1,0-0.1,0-0.1h0l25.9-11.4c0,0-3.2,35.3,0.9,48.8c0.6,2.1,1.1,4.3,1.5,6.5  C406.5,360,406.5,381.8,406.5,381.8z" class="st23"/><path data-cppathid="10237" d="M393.6,365.9c-1.5-5.8-3.6-13.3-6.7-22.5c-8.4-25.6-11-40.6-11.2-42c0,0,0-0.1,0-0.1l25.9-11.4  c0,0-3.2,35.3,0.9,48.8C403.1,340.7,393.6,365.9,393.6,365.9z" class="st24"/><path data-cppathid="10238" d="M385.8,381.2c0,0-0.4,7.4-1.9,7.5c-0.2,0-7.3,0-7.3,0l-9.1-0.1c0,0,0.1-2.2,2.7-2.7s7.1-2.3,8.7-5.8  C380.6,376.6,385.8,381.2,385.8,381.2z" class="st22"/><path data-cppathid="10239" d="M372.6,290.6c0,0-1.9,23,2.1,51.1c4,28.1,2.6,40,2.6,40s2.7,0.9,3.8,1c1.9,0.1,3.8-0.1,5.7-0.7  c0,0,5.7-28.1,4-42.1c-1.6-14.1,7.8-48.2,7.8-48.2L372.6,290.6z" class="st23"/><path data-cppathid="10240" d="M379.6,239.6l-4.4,4.2l-4.8-0.4c-1-1-1.7-3.3-2-5.2c-0.2-1.2-0.4-2.4-0.5-3.6l6.2-4.2l2.3-1.6  c0,0,0.2,2.1,0.2,2.4C377.1,236.3,379.6,239.6,379.6,239.6z" class="st20"/><path data-cppathid="10241" d="M372.1,301.7c7.3,4.9,30.5-0.4,30.7-7.2c0.3-6.8-11.7-55.7-22.8-56.9c-2.3-0.2-13.3,5.7-13.3,5.7  c-0.7,3.8-1,7.6-1.1,11.5c0,1.2,1.6,14,3.2,25.9c0.8,5.6,1.5,11,2.1,14.9C371.5,299.2,371.9,301.6,372.1,301.7z" class="st25"/><path data-cppathid="10242" d="M376.2,231.2c-0.9,2.5-5.4,5.4-7.7,6.8c-0.2-1.2-0.4-2.4-0.5-3.6l6.2-4.2C375.6,229.9,376.6,230.1,376.2,231.2  z" class="st26"/><path data-cppathid="10243" d="M365.4,234.4c0,0,11.4,1.4,12.2-5.7s2.8-11.7-4.5-12.9c-7.2-1.2-9,1.4-9.8,3.7  C362.4,221.7,362.4,233.9,365.4,234.4z" class="st20"/><path data-cppathid="10244" d="M363.6,218.7c0,0,2.1,7.7,3.7,7.1s3.2-1.7,3.4,0.7c0.2,2.4,2.7,6.2,5.1,5.7c5-0.9,8.2-14.8,6.3-17  C376.8,208.9,356.3,211.1,363.6,218.7z" class="st22"/><path data-cppathid="10245" d="M369,239.8c0.1-0.1,7.4-5.1,8.4-4.9s2.7,2.8,2.7,2.8l-13.3,5.7C366.7,243.3,367.4,240.8,369,239.8z" class="st21"/><path data-cppathid="10246" d="M283.9,248.8l58.4,20.2c1.1,0.4,2.3,0.2,2.5-0.5l0.7-2.1c0.2-0.7-0.5-1.5-1.7-1.9l-58.4-20.2  c-1.1-0.4-2.3-0.2-2.5,0.5l-0.7,2.1C282,247.5,282.7,248.4,283.9,248.8z" class="st4"/><path data-cppathid="10247" d="M316.7,260.1l25.6,8.9c1.1,0.4,2.3,0.2,2.5-0.5l0.7-2.1c0.2-0.7-0.5-1.5-1.7-1.9l-25.6-8.9L316.7,260.1z" class="st4"/><path data-cppathid="10248" d="M265.3,201.8c-18-7.5-38.6,1.1-46.1,19c0,0,0,0,0,0c-0.1,0.2-0.2,0.5-0.3,0.7c-7.1,18.2,1.9,38.6,20,45.7  s38.6-1.9,45.7-20C291.6,229.3,283,209.2,265.3,201.8L265.3,201.8z M281.8,246.8c-6.9,16.6-25.9,24.4-42.5,17.5  c-16.6-6.9-24.4-25.9-17.5-42.5c6.9-16.6,25.9-24.4,42.5-17.5C280.8,211.2,288.7,230.2,281.8,246.8  C281.8,246.8,281.8,246.8,281.8,246.8z" class="st4"/><g class="st27"><path data-cppathid="10249" d="M239.3,264.4c16.6,6.9,35.6-1,42.5-17.6c6.9-16.6-1-35.6-17.6-42.5c-16.6-6.9-35.6,1-42.5,17.5   c-6.9,16.5,0.9,35.5,17.4,42.4C239.2,264.3,239.2,264.4,239.3,264.4z" class="st28"/></g><path data-cppathid="10250" d="M368.8,279.6c21.3-21.8,17.2-28.7,17.2-28.7c-8,6.6-16.5,7.5-18.8,17.9C367.9,274.3,368.2,275.7,368.8,279.6z" class="st21"/><path data-cppathid="10251" d="M327.7,263.2c-0.9-0.9-1.5-2-1.8-3.3c0,0-0.7-0.3-0.7,1.5c0,0.2,0,0.5,0,0.8c0,0.1-0.1,0.1-0.2,0.1  c0,0,0,0-0.1,0c-0.9-0.4-1.6-1.3-3.5-1.9c-0.3-0.1-0.6,0.4-0.8,0.7c-0.3,0.5-0.5,1.1-0.4,1.7c0.1,0.5,0.6,1.3,1.9,3  c0.5,0.6,2.5,1.5,4.5,1.8l1.7,0.1l1-2.8l-0.4-0.1C328.5,264.7,328.2,263.6,327.7,263.2z" class="st20"/><path data-cppathid="10252" d="M383.7,243.9c0,0,17.4,14.6-23.6,28.7c-6.5,2.3-31.6-4.1-31.6-4.1s-1.2-3.1,0.8-4c0,0,21.1-2.5,25.3-2.4  c1.9,0.1,15.5-14.1,20.1-16.8C377.5,243.8,380.7,243.3,383.7,243.9z" class="st25"/><path data-cppathid="10253" d="M339.7,262.2c-0.6-0.5-1.1-1.1-1.5-1.7c-0.4-0.6-2-2.3-2.5-2.6c-0.2-0.1-0.6,0.3-0.4,0.9  c0.2,0.5,0.5,0.9,0.8,1.2c0.7,0.8,1.1,2.1,1.4,2.5C338.2,263.4,339.7,262.2,339.7,262.2z" class="st20"/><circle data-cppathid="10254" r="1.6" cy="219.1" cx="258.9" class="st25"/><line data-cppathid="10255" y2="219.6" x2="258.9" y1="178.2" x1="258.9" class="st29"/><path data-cppathid="10256" d="M258.9,92.3c-1.1,0-2,0.6-2.6,1.5l-46.5,80.5c-0.8,1.4-0.3,3.2,1.1,4c0.4,0.3,1,0.4,1.5,0.4h92.9  c1.6,0,3-1.3,3-3c0-0.5-0.1-1-0.4-1.5l-46.5-80.5C261,92.9,260,92.3,258.9,92.3L258.9,92.3z" class="st0"/><path data-cppathid="10257" d="M258.9,94.8c0.2,0,0.3,0.1,0.4,0.2l46.5,80.5c0.1,0.1,0.1,0.3,0,0.4c-0.1,0.1-0.2,0.2-0.4,0.2h-92.9  c-0.2,0-0.3-0.1-0.4-0.2c-0.1-0.1-0.1-0.3,0-0.4l46.5-80.5C258.6,94.9,258.8,94.8,258.9,94.8L258.9,94.8z M258.9,92.3  c-1.1,0-2,0.6-2.6,1.5l-46.5,80.5c-0.8,1.4-0.3,3.2,1.1,4c0.4,0.3,1,0.4,1.5,0.4h92.9c1.6,0,3-1.3,3-3c0-0.5-0.1-1-0.4-1.5  l-46.5-80.5C261,92.9,260,92.3,258.9,92.3L258.9,92.3z" class="st25"/><path data-cppathid="10258" d="M253.3,162.8c0-1.8,0.5-3.1,1.4-4.1c1-0.9,2.4-1.4,4.2-1.4c1.8,0,3.1,0.5,4.1,1.4c1,0.9,1.4,2.3,1.5,4  c0,1.7-0.5,3-1.5,4c-1,1-2.3,1.5-4.1,1.5c-1.8,0-3.2-0.5-4.2-1.4C253.8,165.8,253.3,164.5,253.3,162.8z M262.9,151.8h-7.8l-1.6-31.2  h11.1L262.9,151.8z" class="st13"/><path data-cppathid="10259" d="M163.8,291.4l0.2-1c0-0.2-0.1-0.4-0.3-0.4l0,0c-0.2,0-0.4,0.1-0.4,0.3l-0.2,1c0,0.2,0.1,0.4,0.3,0.4l0,0  C163.6,291.7,163.8,291.6,163.8,291.4z" class="st30"/><path data-cppathid="10260" d="M160.7,305.5L160.7,305.5c0.4,0.1,1-1.6,1.1-2l2.2-11.9c0.1-0.4-0.2-0.7-0.6-0.8l0,0c-0.4-0.1-0.7,0.2-0.8,0.6  l-2.2,11.9C160.3,303.7,160.3,305.5,160.7,305.5z" class="st22"/><rect data-cppathid="10261" height="1.5" width="0.7" class="st30" transform="matrix(0.2088 -0.978 0.978 0.2088 -157.0578 391.0437)" y="291.8" x="162.8"/><path data-cppathid="10262" d="M162.3,296.2L162.3,296.2c0.1,0,0.2-0.1,0.3-0.2l0.8-3.9c0-0.1-0.1-0.2-0.2-0.3l0,0c-0.1,0-0.2,0.1-0.3,0.2  l-0.8,3.9C162.1,296.1,162.2,296.2,162.3,296.2z" class="st30"/><path data-cppathid="10263" d="M145.4,374c-0.9,1.2-1.4,3.6-1.5,4.7c-0.1,1.3,0.7,4.1,1.5,4.1c2.7,0,5.3,0.1,8,0.4c2.6,0.3,3.5,1.8,10,1.8  c1.9,0,5.4-0.1,5.3-0.9c-0.1-0.8-6.3-2.2-8.3-4.1c-5-4.7-8.4-5.8-8.4-5.8S145.5,373.8,145.4,374z" class="st22"/><rect data-cppathid="10264" height="1.2" width="6.6" class="st31" y="382.7" x="145.1"/><path data-cppathid="10265" d="M122.3,322.3c0,0,24.6,8,25.6,9.2c1,1.2,7.9,44.6,7.9,44.6s-1.7,1.6-6.2,1.9c-4.4,0.3-6,0-6,0  s-6.8-27.9-6.6-31.6c0.2-3.7-1.2-9.2-1.2-9.2s-28.6-1.4-30.5-3.1c-11.2-9.6,1.1-15.2,1.1-15.2l15.9,1.1L122.3,322.3z" class="st32"/><path data-cppathid="10266" d="M140.8,278.4c-0.6-1.1-1.1-2.3-1.5-3.6c-0.3-1.5,0-3.3-1-3.7c-1-0.5-6.3-2.7-5.6-0.1  c0.7,2.6,5.4,10.8,5.4,10.8L140.8,278.4z" class="st33"/><path data-cppathid="10267" d="M128.2,282.1c-3.1,2.5-1.9,5.9,0.8,8.7c2.7,2.9,18.4,14.9,20.8,14.6c1.3-0.2,5-3,4.4-4.7s-13.5-13.8-16.2-15.8  C135.5,283,131.9,279.1,128.2,282.1z" class="st34"/><path data-cppathid="10268" d="M120.5,261.3c0,0-4,10.6-4.6,11.3c-2,2-7.3,2.3-9.5,4.8c-2.7,3-1.3,19.5-1.6,25.1c-0.4,5.6-3.8,16.3-6.1,21.2  c-2.3,4.9,10.5,12.5,11.1,12.6c0.6,0.2,8.5-2.9,10-4.2s3.2-15,4.2-18.4c1-3.4,5.3-14.8,5.7-15.6c2.5-4.8,2.4-9.3,2.6-10.4  s0.7-2.9,0.4-3.8c-0.7-1.7-6.1-5.3-6-6s2.2-10.6,2.2-10.6L120.5,261.3z" class="st35"/><rect data-cppathid="10269" height="1.3" width="6.6" class="st31" y="387.8" x="130.6"/><path data-cppathid="10270" d="M130.9,378.8c-0.9,1.3-1.4,3.7-1.5,4.8c-0.1,1.3,0.7,4.2,1.5,4.2c2.7,0,5.3,0.1,8,0.4c2.6,0.4,3.5,1.9,10,1.9  c1.9,0,5.4-0.1,5.3-0.9c-0.1-0.8-6.3-2.3-8.3-4.2c-5-4.9-8.4-6-8.4-6S131,378.5,130.9,378.8z" class="st22"/><path data-cppathid="10271" d="M116,272.6l8.5,9.5l2-4.2c0,0,5.7,2.8,6.1,4.4s-0.2,6.4-0.2,7.6c-0.1,1.2-1.4,6.4-3.2,10.7  c-1,2.5-2,6-3.7,10.3c-1.5,3.7-3.4,12.3-3.4,12.3s-4.3,1.3-9.9-0.7c-6.4-2.3-13.2-3.5-13.5-3.8c-0.9-1.4,3.9-9.6,4.7-15.1  c0.2-1.2,1-22,1.6-24.5c0.6-2.6,2.4-3.8,4.6-4.2C111.8,274.4,116,272.6,116,272.6z" class="st36"/><path data-cppathid="10272" d="M117.9,290.5c-1.7-11.3-7.2-15.3-7.2-15.3l-0.8-0.5c-0.1,0-0.2,0-0.3,0.1c-2.2,0.4-4,1.7-4.6,4.2  s-1.4,23.3-1.6,24.5c-0.8,5.4-5.6,13.7-4.7,15.1c0.2,0.3,5.7,1.3,11.5,3.1l10.6,1.6c0.4-0.1,0.8-0.1,1.2-0.2c0,0,1.9-8.6,3.4-12.3  c1-2.4,1.7-4.5,2.3-6.3l0,0C127.8,304.5,119.5,301.8,117.9,290.5z" class="st34"/><path data-cppathid="10273" d="M98.7,318.7c0,0-1.7,5.6-1.1,10.3c0.6,4.7,1.8,9.9,12.7,10.9c10.9,1,17.7,1.6,18.1,1.6c0.3,0-0.8,9.4-0.4,15.9  c0.4,6.5,1.2,23.8,1.2,23.8s2.4,0.7,6.7,0.8c4.3,0.1,5.8-1.4,5.8-1.4s3-40.9,1.9-44.3c-1.8-5.8-20.1-10.4-20.8-11.4  c-0.6-0.8-0.4-4.7-0.4-4.7L98.7,318.7z" class="st23"/><polygon data-cppathid="10274" points="121,263.7 128.1,270 127.2,274 119.1,273.1 117,270.7 120,263.1 " class="st33"/><path data-cppathid="10275" d="M133.1,251.1c-2.4-2.7-9.8-5.8-14.1-1s-3.1,10.1-1.4,13.5c1.3,2.7,2.8,4.2,5.7,5.9c0.6,0.4,6.1,2,7.3,1.7  c0.8-0.2,2-5.9,2.2-5.9c0.4,0,0.8-0.3,1-0.7c0.1-0.7-0.2-4.9,0-5.3C134,258.9,135.8,254.3,133.1,251.1z" class="st35"/><path data-cppathid="10276" d="M134.4,253.9c0,0-4.1-3-9.9,1.5c-1.3,1,0.5,5.8,0.1,6.2s-3.9-3.8-3.8-3.3c1,5.5-1,8.2-1.4,8.2  c-1.4-0.1-5.1-8-2.3-13.9c2.8-5.8,9.2-5.8,10.7-5.3S133.8,248.6,134.4,253.9z" class="st37"/><path data-cppathid="10277" d="M123.3,259.7c0.3,1.8,0.3,4.1-0.6,4.2c-0.9,0.2-1.9-1.1-2.3-2.8c-0.3-1.7,0.1-3.3,1.1-3.5  C122.4,257.4,122.9,258,123.3,259.7z" class="st35"/><polygon data-cppathid="10278" points="124.6,279.7 124.5,282.1 122.5,279.9 " class="st38"/><path data-cppathid="10279" d="M151.4,304.9c4.1-1.5,0.4-9.7-1.7-13.6s-9.1-14.7-9.1-14.7l-4.4,1.9c0,0,8.3,21.5,8.9,22.6  C145.6,302.3,147.2,306.4,151.4,304.9z" class="st34"/><polygon data-cppathid="10280" points="124.5,282.1 125.4,279.8 125.9,281.1 " class="st38"/><polygon data-cppathid="10281" points="98.7,318.6 98,321.1 122.5,322.9 122.4,320.2 " class="st22"/><path data-cppathid="10282" d="M121,322.9h-0.7c-0.8,0-1.5-0.7-1.5-1.5l0,0c0-0.8,0.7-1.5,1.5-1.5h0.7c0.8,0,1.5,0.7,1.5,1.5l0,0  C122.5,322.2,121.8,322.9,121,322.9z" class="st22"/><polygon data-cppathid="10283" points="123.2,281 126.2,281.1 125.6,283.9 124,283.9 " class="st25"/><path data-cppathid="10284" d="M124,283.9c0,0,0.5,7.8-0.3,13.5c-0.8,5.7-1.4,23.3-1.4,23.3l1.9,4.4l2.4-4c0,0-0.8-17.3-0.6-23.7  c0.1-4.5,0-9.1-0.4-13.6L124,283.9z" class="st25"/><polygon data-cppathid="10285" points="114.9,272.7 117,270.7 124.6,279.7 122.9,282.2 " class="st39"/><polygon data-cppathid="10286" points="125.4,279.8 126.7,276.6 127.8,278.4 126.2,282.1 " class="st39"/><path data-cppathid="10287" d="M138.8,271.4c-0.9-0.7-1.9-1.3-3-1.8c-0.2-0.1-0.4-0.3-0.6-0.4c-0.2-0.1-0.5-0.1-0.6-0.2s-0.2-0.2-0.4-0.3  c-0.1-0.1-0.5,0-0.7-0.1s-0.4-0.3-0.5-0.3c-0.5-0.3-0.7,0.1-0.8,0c-0.2-0.1-0.5-0.2-0.8-0.3c-0.5-0.1-2.5,1-2.8,1.3  c-0.3,0.3-2.1,1.4-2,1.6c0.1,0.2,0.8,0.6,1.9,0.1c1.1-0.5,2.4-1,2.2-0.9c-0.5,0.6-0.9,1.2-1.2,1.9c-0.1,0.4,0.2,0.6,0.5,0.7  c0.2,0,1.1-0.6,1.1-0.6s0.1,0.8,0.3,0.8c0.6,0.2,1.1-0.5,1.3-0.6c0.2-0.2,0,0.8,0.3,0.8c0.9,0.2,1.8-1.4,2.5-2  S138,272.5,138.8,271.4z" class="st35"/><rect data-cppathid="10288" height="4.3" width="5.9" class="st36" transform="matrix(0.9167 -0.3995 0.3995 0.9167 -99.8456 78.8743)" y="276.8" x="136.3"/><path data-cppathid="10289" d="M107.7,276.5c-3.5,2-2.8,5.6-0.4,9c2.3,3.4,17.6,18.5,18.9,18.6s6.6-3.5,6.2-5.4c-0.4-1.9-12.7-15-15.1-17.5  S111.8,274.2,107.7,276.5z" class="st36"/><path data-cppathid="10290" d="M123.7,300.9c-0.6,4.3,8.4,4.9,12.8,4.9s17.3-1.1,17.3-1.1l0.3-4.8c0,0-22.9-2.7-24.1-2.8  C128.7,297,124.3,296.5,123.7,300.9z" class="st36"/><path data-cppathid="10291" d="M163.7,304.5L163.7,304.5c0-0.4-0.3-0.8-0.7-0.8l-3.1-0.2c-0.4,0-0.8,0.3-0.8,0.7c0,0,0,0,0,0l0,0  c0,0.4,0.3,0.7,0.7,0.8l3.1,0.2C163.3,305.2,163.6,304.9,163.7,304.5z" class="st33"/><path data-cppathid="10292" d="M163.9,303.1L163.9,303.1c0-0.4-0.3-0.8-0.7-0.8l-3.1-0.2c-0.4,0-0.8,0.3-0.8,0.7c0,0,0,0,0,0l0,0  c0,0.4,0.3,0.7,0.7,0.8l3.1,0.2C163.5,303.9,163.9,303.6,163.9,303.1C163.9,303.1,163.9,303.1,163.9,303.1z" class="st33"/><path data-cppathid="10293" d="M164,301.8L164,301.8c0-0.4-0.3-0.8-0.7-0.8l-3.1-0.2c-0.4,0-0.8,0.3-0.8,0.7c0,0,0,0,0,0l0,0  c0,0.4,0.3,0.7,0.7,0.8l3.1,0.2C163.6,302.5,164,302.2,164,301.8z" class="st33"/><path data-cppathid="10294" d="M164,300.5L164,300.5c0-0.4-0.3-0.8-0.7-0.8c0,0,0,0,0,0l-3.1-0.2c-0.4,0-0.8,0.3-0.8,0.7c0,0,0,0,0,0l0,0  c0,0.4,0.3,0.7,0.7,0.8l3.1,0.2C163.6,301.2,164,300.9,164,300.5z" class="st33"/><path data-cppathid="10295" d="M152.9,300.8c0,0,4.9-1.8,5.9-1.9c1-0.1,4.9,0.9,4.9,0.9s-1.3,1.2-1.2,2.2c0.1,0.9,0.5,3.2,0.5,3.2  s-3.4,0.7-5,0.5c-1.1-0.1-2.1-0.4-3.1-0.8L152.9,300.8z" class="st33"/><rect data-cppathid="10296" height="4.3" width="5.9" class="st39" transform="matrix(4.030615e-02 -0.9992 0.9992 4.030615e-02 -155.2557 442.8764)" y="300.1" x="150"/><path data-cppathid="10297" d="M121.3,254.5c0,0-2,2.3-3.3,2.7c-0.8,0.3-1.6,0.4-2.4,0.3l0.1,1.3c0.9,0.1,1.8-0.1,2.7-0.4  c1.4-0.6,3.4-2.3,4.4-3.4C123.6,253.8,121.3,254.5,121.3,254.5z" class="st13"/><path data-cppathid="10298" d="M135.4,253.6c0,0-1-7.2-7.5-9c-4.6-1.3-8.5,1.1-10,3.2c-1.1,1.7-1.8,3.5-2.3,5.4c0,0,5.9,1.7,8,1.8  C125.7,255.2,133.1,255.1,135.4,253.6z" class="st25"/><path data-cppathid="10299" d="M137.7,254.8c-0.1,0.4-2.2,1.3-13,0.5c-9.1-0.6-9.9-1.4-9.9-1.7s0.2-0.4,0.7-0.3c0.5,0.1,8.1,1.8,13.4,1.5  s6.3-1.9,6.3-1.9S137.9,254,137.7,254.8z" class="st40"/><path data-cppathid="10300" d="M120.5,248.5c1-2.3,3-3.9,5.4-4.3c-4.1-0.3-6.7,1.7-8.1,3.6c-1.1,1.7-1.8,3.5-2.3,5.4c0,0,1.7,1.2,8.7,1.6  C121.2,253.7,119.6,250.8,120.5,248.5z" class="st25"/><path data-cppathid="10301" d="M118.1,254.2c0,0,0.3-4,4-4s5.6,4.6,5.6,4.6C124.5,255,121.3,254.8,118.1,254.2z" class="st40"/><path data-cppathid="10302" d="M133,254.1c0,0-1-4.7-2.5-6.6c-1.5-1.9-2.3-1.9-2.3-1.9c1,0.8,1.8,1.8,2.4,2.9c0.8,1.5,1.9,5.8,1.9,5.8  L133,254.1z" class="st40"/><path data-cppathid="10303" d="M133,254.1c0,0,2.6-0.6,2.3-1.3c-0.2-0.7-1.5-5.9-6.4-7.9l-0.8,0.7c1.2,0.8,2.3,1.8,3,3.1  C132.3,250.9,133,254.1,133,254.1z" class="st25"/><path data-cppathid="10304" d="M126.6,254.8l-7.8-0.9c0,0,0.2-4.1,4.1-3.4c2.4,0.5,4.2,2.8,4.8,4.3L126.6,254.8z" class="st40"/><path data-cppathid="10305" d="M118.8,253.9c0,0,0.6-3.2,3.1-3.2c2.5,0,4.7,4,4.7,4S120.9,254.4,118.8,253.9z" class="st25"/><rect data-cppathid="10306" height="41.9" width="5.9" class="st41" y="340.9" x="105.4"/><rect data-cppathid="10307" height="11.7" width="3.3" class="st41" y="329.7" x="91.1"/><path data-cppathid="10308" d="M95.3,345h30.4c2.3,0,4.2-1.9,4.2-4.2l0,0c0-2.3-1.9-4.2-4.2-4.2H95.3c-2.3,0-4.2,1.9-4.2,4.2l0,0  C91.1,343.1,93,345,95.3,345z" class="st13"/><path data-cppathid="10309" d="M86.2,281.7L86.2,281.7c1.7-0.2,3.2,1,3.4,2.7l5.4,45.5c0.2,1.7-1,3.2-2.7,3.4l0,0c-1.7,0.2-3.2-1-3.4-2.7  l-5.4-45.5C83.3,283.4,84.5,281.9,86.2,281.7z" class="st13"/><path data-cppathid="10310" d="M87.4,283.2L87.4,283.2c0.5-0.1,1,0.3,1.1,0.9c0,0,0,0,0,0l5.4,45.9c0.1,0.5-0.3,1-0.9,1.1c0,0,0,0,0,0l0,0  c-0.5,0.1-1-0.3-1.1-0.9c0,0,0,0,0,0l-5.4-45.9C86.4,283.7,86.8,283.2,87.4,283.2z" class="st13"/><path data-cppathid="10311" d="M120.1,387.7c0,1.9,1.5,3.4,3.4,3.4s3.4-1.5,3.4-3.4c0-1.9-1.5-3.4-3.4-3.4S120.1,385.8,120.1,387.7  L120.1,387.7z" class="st13"/><path data-cppathid="10312" d="M89,387.7c0,1.9,1.5,3.4,3.4,3.4s3.4-1.5,3.4-3.4c0-1.9-1.5-3.4-3.4-3.4C90.5,384.3,89,385.8,89,387.7  L89,387.7z" class="st13"/><path data-cppathid="10313" d="M87.9,385.7h41c0-1.6-1.3-2.9-2.9-2.9l0,0H90.8C89.2,382.9,87.9,384.1,87.9,385.7  C87.9,385.7,87.9,385.7,87.9,385.7z" class="st41"/><polygon data-cppathid="10314" points="169,303.4 167.8,303.5 167.8,304 169.3,303.9 " class="st0"/><polygon data-cppathid="10315" points="170.8,303.2 169.6,303.3 169.6,303.9 171.1,303.7 " class="st0"/><polygon data-cppathid="10316" points="172.6,303 171.4,303.2 171.3,303.7 172.9,303.6 " class="st0"/><polygon data-cppathid="10317" points="174.4,302.9 173.2,303 173.1,303.6 174.7,303.4 " class="st0"/><polygon data-cppathid="10318" points="176.2,302.7 175,302.8 174.9,303.4 176.5,303.3 " class="st0"/><polygon data-cppathid="10319" points="178,304.8 167,305.8 166.7,303.9 177.7,302.9 " class="st0"/><polygon data-cppathid="10320" points="177.5,305.8 176.2,305.8 174.7,305.1 177.3,304.8 " class="st0"/><rect data-cppathid="10321" height="32.5" width="2.5" class="st0" y="271.7" x="188.5"/><rect data-cppathid="10322" height="1.4" width="8.5" class="st0" y="304.2" x="185.5"/><polygon data-cppathid="10323" points="188.5,284.6 187.1,284.6 188,271.7 188.5,271.7 " class="st0"/><polygon data-cppathid="10324" points="186.7,294.9 184.5,294.8 186.9,254.7 189.1,254.8 " class="st0"/><rect data-cppathid="10325" height="66.3" width="6" class="st30" y="327.9" x="195.7"/><rect data-cppathid="10326" height="66.3" width="6" class="st30" y="327.9" x="128.3"/><rect data-cppathid="10327" height="3.7" width="77" class="st41" y="305.6" x="126.4"/><rect data-cppathid="10328" height="19.6" width="73.4" class="st30" y="309.3" x="128.3"/><polygon data-cppathid="10329" points="128.3,309.3 201.7,309.3 201.7,328.3 128.3,317.2 " class="st42"/><path data-cppathid="10330" d="M194.3,395.1h8.9c0.1,0,0.2-0.1,0.2-0.2v-1.3c0-0.1-0.1-0.2-0.2-0.2h-8.9c-0.1,0-0.2,0.1-0.2,0.2v1.3  C194,395,194.1,395.1,194.3,395.1z" class="st41"/><path data-cppathid="10331" d="M126.9,395h8.9c0.1,0,0.2-0.1,0.2-0.2v-1.3c0-0.1-0.1-0.2-0.2-0.2h-8.9c-0.1,0-0.2,0.1-0.2,0.2v1.3  C126.6,394.9,126.7,395,126.9,395z" class="st41"/><g><path data-cppathid="10332" d="M168.5,98.5l0.1,0.4h0l0.1-0.4l2.1-7.8h2.6l-3.5,10.7h-2.7l-3.5-10.7h2.6L168.5,98.5z" class="st4"/><path data-cppathid="10333" d="M179.3,99.4h-3.2l-0.6,2.1h-2.6l3.5-10.7h1.3l0,0h1.3l3.5,10.7h-2.6L179.3,99.4z M176.7,97.5h2l-1-3.3h0   L176.7,97.5z" class="st4"/><path data-cppathid="10334" d="M185.8,97.3v4.1h-2.5V90.7h3.7c1.1-0.1,2.1,0.2,2.9,0.9c0.7,0.6,1.1,1.4,1.1,2.4c0,0.5-0.1,1-0.4,1.4   c-0.3,0.4-0.8,0.8-1.3,1c0.6,0.1,1.1,0.5,1.4,0.9c0.3,0.5,0.5,1,0.4,1.6v0.7c0,0.3,0,0.6,0.1,1c0,0.3,0.2,0.6,0.4,0.8v0.1h-2.6   c-0.2-0.2-0.4-0.5-0.4-0.8c-0.1-0.4-0.1-0.7-0.1-1.1v-0.6c0.1-0.8-0.5-1.5-1.2-1.6c-0.1,0-0.2,0-0.4,0L185.8,97.3z M185.8,95.4h1.3   c0.4,0,0.8-0.1,1.1-0.3c0.3-0.3,0.4-0.6,0.4-1c0-0.4-0.1-0.8-0.4-1.1c-0.3-0.3-0.7-0.4-1.2-0.4h-1.2V95.4z" class="st4"/><path data-cppathid="10335" d="M195.6,101.4h-2.5V90.7h2.5V101.4z" class="st4"/><path data-cppathid="10336" d="M203.2,99.4H200l-0.6,2.1h-2.6l3.5-10.7h1.3l0,0h1.3l3.5,10.7h-2.6L203.2,99.4z M200.5,97.5h2l-1-3.3h0   L200.5,97.5z" class="st4"/><path data-cppathid="10337" d="M207.2,101.4V90.7h3.5c1.1-0.1,2.2,0.2,3.1,0.7c0.7,0.5,1.2,1.3,1.1,2.2c0,0.5-0.1,0.9-0.4,1.4   c-0.3,0.4-0.6,0.7-1.1,0.9c0.6,0.1,1.1,0.4,1.4,0.9c0.3,0.4,0.5,1,0.4,1.5c0.1,0.9-0.3,1.8-1,2.4c-0.7,0.5-1.7,0.8-3,0.8   L207.2,101.4z M209.6,95.2h1c0.5,0,0.9-0.1,1.3-0.3c0.3-0.2,0.5-0.6,0.4-0.9c0-0.4-0.1-0.8-0.4-1c-0.4-0.2-0.8-0.3-1.3-0.3h-1   L209.6,95.2z M209.6,96.9v2.7h1.6c0.4,0,0.8-0.1,1.2-0.3c0.3-0.2,0.4-0.6,0.4-1c0-0.4-0.1-0.7-0.3-1c-0.3-0.3-0.7-0.4-1.2-0.4   H209.6z" class="st4"/><path data-cppathid="10338" d="M219.2,99.5h4.6v1.9h-7.1V90.7h2.5L219.2,99.5z" class="st4"/><path data-cppathid="10339" d="M231.4,96.9h-3.8v2.7h4.5v1.9h-7V90.7h7v1.9h-4.5v2.3h3.8V96.9z" class="st4"/><path data-cppathid="10340" d="M239.1,98.6c0-0.3-0.1-0.7-0.4-0.9c-0.4-0.3-0.9-0.5-1.4-0.7c-1.1-0.3-2.1-0.8-3-1.4c-0.7-0.5-1-1.3-1-2.1   c0-0.9,0.4-1.7,1.1-2.2c1.8-1.1,4-1.1,5.8,0c0.7,0.6,1.1,1.5,1.1,2.4v0H239c0-0.4-0.1-0.8-0.4-1.1c-0.4-0.3-0.8-0.4-1.2-0.3   c-0.4,0-0.8,0.1-1.1,0.3c-0.2,0.2-0.4,0.5-0.4,0.8c0,0.3,0.1,0.6,0.4,0.8c0.5,0.3,1,0.5,1.5,0.7c1,0.3,2,0.7,2.8,1.3   c0.6,0.5,1,1.3,1,2.2c0,0.9-0.4,1.7-1.1,2.2c-0.9,0.6-1.9,0.8-2.9,0.8c-1.1,0-2.2-0.3-3.1-0.9c-0.8-0.6-1.2-1.5-1.2-2.7v0h2.4   c-0.1,0.5,0.1,1,0.4,1.3c0.4,0.3,0.9,0.4,1.4,0.4c0.4,0,0.8-0.1,1.2-0.3C238.9,99.2,239.1,98.9,239.1,98.6z" class="st4"/></g></svg>