<?xml version="1.0" encoding="UTF-8"?>
<svg xmlns="http://www.w3.org/2000/svg" onmouseup="{ if(window.parent.document.onmouseup) window.parent.document.onmouseup(arguments[0]);}" xml:space="preserve" style="enable-background:new 0 0 1156.82 1080;" viewBox="0 0 1156.82 1080" y="0px" x="0px" id="Layer_1" version="1.1" xmlns:xlink="http://www.w3.org/1999/xlink"><style type="text/css">
	.st0{fill:#333E48;}
	.st1{clip-path:url(#SVGID_00000034794047007155322190000004767201315044777915_);}
	.st2{fill:none;stroke:#00FFD3;stroke-width:1.4007;stroke-linecap:round;stroke-linejoin:round;stroke-miterlimit:10;}
	.st3{fill:none;stroke:#00FFD3;stroke-width:1.4007;stroke-linecap:round;stroke-linejoin:round;}
	.st4{fill:#00FFD3;}
	.st5{fill:#0099A8;}
	.st6{fill:#FFD255;}
	.st7{fill:#F7A800;}
	.st8{fill:#FFFFFF;}
	.st9{fill:#F7C0AA;}
	.st10{fill:#0069A7;}
	.st11{fill:#E5A691;}
	.st12{fill:#B27200;}
	.st13{fill:#7E9EA8;}
	.st14{fill:#C1D9E0;}
	.st15{fill:#39D8EE;}
	.st16{fill:#1C5C92;}
	.st17{fill:#FFA47C;}
	.st18{fill:#002D56;}
	.st19{fill:#C33A32;}
	.st20{fill:#4AAFFF;}
	.st21{fill:#1A598C;}
	.st22{fill:#2273B5;}
	.st23{fill:#C5CCD1;}
	.st24{fill:#323657;}
	.st25{fill:#202338;}
	.st26{fill:#EEA886;}
	.st27{fill:#C4BA98;}
	.st28{fill:#1D3B54;}
	.st29{fill:#D6C5BE;}
	.st30{fill:#EEA987;}
	.st31{fill:#A77860;}
	.st32{fill:#EDB14F;}
	.st33{fill:#CF8C6C;}
	.st34{fill:#FFBF41;}
	.st35{fill:#FF8132;}
	.st36{fill:#EE6A26;}
	.st37{fill:#EEAD40;}
	.st38{clip-path:url(#SVGID_00000146463577682646322390000000651477344441105056_);}
	.st39{fill:#D8D9DA;}
	.st40{fill:#97CBD2;}
	.st41{fill:#ECECED;}
	.st42{font-family:'Roboto-Bold';}
	.st43{font-size:23.6709px;}
	.st44{fill:#B8D1FF;}
	.st45{fill:#FFBD95;}
	.st46{fill:#E0F2FF;}
	.st47{fill:#CEE0FF;}
	.st48{fill:#191919;}
	.st49{fill:#303030;}
	.st50{fill:#00747A;}
	.st51{fill:#8D3B26;}
	.st52{fill:#A09577;}
	.st53{fill:#0F3960;}
</style><g><g><g><rect data-cppathid="10000" height="1080" width="1156.82" class="st0"/></g></g></g><g><g><defs><path data-cppathid="10001" d="M1104.43,1060H52.39C34.5,1060,20,1045.5,20,1027.61V52.38C20,34.5,34.5,20,52.39,20h1052.04     c17.89,0,32.39,14.5,32.39,32.39v975.23C1136.82,1045.5,1122.32,1060,1104.43,1060z" id="SVGID_1_"/></defs><clipPath id="SVGID_00000076571141434964426630000006633021126359209631_"><use style="overflow:visible;" xlink:href="#SVGID_1_"/></clipPath><g style="clip-path:url(#SVGID_00000076571141434964426630000006633021126359209631_);"><g><g><line data-cppathid="10002" y2="989.1" x2="304.88" y1="1269.44" x1="304.88" class="st2"/><line data-cppathid="10003" y2="989.1" x2="379.01" y1="989.1" x1="304.88" class="st2"/><g><g><line data-cppathid="10004" y2="884.66" x2="379.01" y1="989.1" x1="379.01" class="st3"/><g><path data-cppathid="10005" d="M384.28,884.66c0-2.91-2.36-5.27-5.27-5.27c-2.91,0-5.27,2.36-5.27,5.27c0,2.91,2.36,5.27,5.27,5.27          C381.92,889.93,384.28,887.57,384.28,884.66z" class="st4"/></g></g></g><line data-cppathid="10006" y2="1033.08" x2="341.95" y1="1269.44" x1="341.95" class="st2"/><line data-cppathid="10007" y2="1033.08" x2="429.08" y1="1033.08" x1="341.95" class="st2"/><g><g><line data-cppathid="10008" y2="919.02" x2="429.08" y1="1033.08" x1="429.08" class="st3"/><g><path data-cppathid="10009" d="M434.35,919.02c0-2.91-2.36-5.27-5.27-5.27s-5.27,2.36-5.27,5.27c0,2.91,2.36,5.27,5.27,5.27          S434.35,921.93,434.35,919.02z" class="st4"/></g></g></g><g><g><line data-cppathid="10010" y2="947.88" x2="506.09" y1="1269.44" x1="506.09" class="st3"/><g><circle data-cppathid="10011" r="5.27" cy="947.88" cx="506.09" class="st4"/></g></g></g><line data-cppathid="10012" y2="1005.59" x2="527.56" y1="1269.44" x1="527.56" class="st2"/><line data-cppathid="10013" y2="1005.59" x2="603.79" y1="1005.59" x1="527.56" class="st2"/><g><g><line data-cppathid="10014" y2="969.86" x2="603.79" y1="1005.59" x1="603.79" class="st3"/><g><path data-cppathid="10015" d="M609.06,969.86c0-2.91-2.36-5.27-5.27-5.27s-5.27,2.36-5.27,5.27c0,2.91,2.36,5.27,5.27,5.27          S609.06,972.77,609.06,969.86z" class="st4"/></g></g></g><g><g><line data-cppathid="10016" y2="989.1" x2="462.3" y1="1269.44" x1="462.3" class="st3"/><g><path data-cppathid="10017" d="M467.57,989.1c0-2.91-2.36-5.27-5.27-5.27s-5.27,2.36-5.27,5.27c0,2.91,2.36,5.27,5.27,5.27          S467.57,992.01,467.57,989.1z" class="st4"/></g></g></g><g><g><line data-cppathid="10018" y2="1074.3" x2="565.67" y1="1269.44" x1="565.67" class="st3"/><g><circle data-cppathid="10019" r="5.27" cy="1074.3" cx="565.67" class="st4"/></g></g></g><line data-cppathid="10020" y2="1049.57" x2="603.79" y1="1269.44" x1="603.79" class="st2"/><line data-cppathid="10021" y2="1049.57" x2="647.84" y1="1049.57" x1="603.79" class="st2"/><g><g><line data-cppathid="10022" y2="987.04" x2="647.84" y1="1049.57" x1="647.84" class="st3"/><g><path data-cppathid="10023" d="M653.11,987.04c0-2.91-2.36-5.27-5.27-5.27s-5.27,2.36-5.27,5.27c0,2.91,2.36,5.27,5.27,5.27          S653.11,989.95,653.11,987.04z" class="st4"/></g></g></g><g><g><line data-cppathid="10024" y2="953.37" x2="686.25" y1="1269.44" x1="686.25" class="st3"/><g><path data-cppathid="10025" d="M691.51,953.37c0-2.91-2.36-5.27-5.27-5.27s-5.27,2.36-5.27,5.27c0,2.91,2.36,5.27,5.27,5.27          S691.51,956.28,691.51,953.37z" class="st4"/></g></g></g><g><g><line data-cppathid="10026" y2="1074.3" x2="396.86" y1="1269.44" x1="396.86" class="st3"/><g><path data-cppathid="10027" d="M402.13,1074.3c0-2.91-2.36-5.27-5.27-5.27c-2.91,0-5.27,2.36-5.27,5.27c0,2.91,2.36,5.27,5.27,5.27          C399.77,1079.57,402.13,1077.21,402.13,1074.3z" class="st4"/></g></g></g><line data-cppathid="10028" y2="1018.3" x2="726.86" y1="1269.44" x1="726.86" class="st2"/><line data-cppathid="10029" y2="1018.3" x2="779.88" y1="1018.3" x1="726.86" class="st2"/><g><g><line data-cppathid="10030" y2="941.01" x2="779.88" y1="1018.3" x1="779.88" class="st3"/><g><path data-cppathid="10031" d="M785.14,941.01c0-2.91-2.36-5.27-5.27-5.27s-5.27,2.36-5.27,5.27c0,2.91,2.36,5.27,5.27,5.27          S785.14,943.92,785.14,941.01z" class="st4"/></g></g></g><g><g><line data-cppathid="10032" y2="1000.85" x2="818.31" y1="1269.44" x1="818.31" class="st3"/><g><path data-cppathid="10033" d="M823.58,1000.85c0-2.91-2.36-5.27-5.27-5.27c-2.91,0-5.27,2.36-5.27,5.27s2.36,5.27,5.27,5.27          C821.22,1006.12,823.58,1003.76,823.58,1000.85z" class="st4"/></g></g></g><g><g><line data-cppathid="10034" y2="1111.41" x2="647.84" y1="1269.44" x1="647.84" class="st3"/><g><path data-cppathid="10035" d="M653.11,1111.41c0-2.91-2.36-5.27-5.27-5.27s-5.27,2.36-5.27,5.27c0,2.91,2.36,5.27,5.27,5.27          S653.11,1114.31,653.11,1111.41z" class="st4"/></g></g></g><line data-cppathid="10036" y2="979.66" x2="848.52" y1="1269.44" x1="848.52" class="st2"/><line data-cppathid="10037" y2="979.66" x2="906.17" y1="979.66" x1="848.52" class="st2"/><g><g><line data-cppathid="10038" y2="938.08" x2="906.17" y1="979.66" x1="906.17" class="st3"/><g><path data-cppathid="10039" d="M911.44,938.08c0-2.91-2.36-5.27-5.27-5.27s-5.27,2.36-5.27,5.27c0,2.91,2.36,5.27,5.27,5.27          S911.44,940.99,911.44,938.08z" class="st4"/></g></g></g><g><g><line data-cppathid="10040" y2="1021.21" x2="906.17" y1="1269.44" x1="906.17" class="st3"/><g><path data-cppathid="10041" d="M911.44,1021.21c0-2.91-2.36-5.27-5.27-5.27s-5.27,2.36-5.27,5.27c0,2.91,2.36,5.27,5.27,5.27          S911.44,1024.12,911.44,1021.21z" class="st4"/></g></g></g><g><g><line data-cppathid="10042" y2="945.42" x2="270.84" y1="1269.44" x1="270.84" class="st3"/><g><path data-cppathid="10043" d="M276.1,945.42c0-2.91-2.36-5.27-5.27-5.27s-5.27,2.36-5.27,5.27c0,2.91,2.36,5.27,5.27,5.27          S276.1,948.33,276.1,945.42z" class="st4"/></g></g></g></g></g><g><g><line data-cppathid="10044" y2="128.44" x2="877.62" y1="-151.9" x1="877.62" class="st2"/><line data-cppathid="10045" y2="128.44" x2="803.49" y1="128.44" x1="877.62" class="st2"/><g><g><line data-cppathid="10046" y2="208.14" x2="803.49" y1="128.44" x1="803.49" class="st3"/><g><path data-cppathid="10047" d="M798.22,208.14c0,2.91,2.36,5.27,5.27,5.27c2.91,0,5.27-2.36,5.27-5.27c0-2.91-2.36-5.27-5.27-5.27          C800.58,202.87,798.22,205.23,798.22,208.14z" class="st4"/></g></g></g><line data-cppathid="10048" y2="84.46" x2="851.54" y1="-151.9" x1="851.54" class="st2"/><line data-cppathid="10049" y2="84.46" x2="764.4" y1="84.46" x1="851.54" class="st2"/><g><g><line data-cppathid="10050" y2="275.59" x2="764.4" y1="84.46" x1="764.4" class="st3"/><g><path data-cppathid="10051" d="M759.14,275.59c0,2.91,2.36,5.27,5.27,5.27s5.27-2.36,5.27-5.27c0-2.91-2.36-5.27-5.27-5.27          S759.14,272.68,759.14,275.59z" class="st4"/></g></g></g><g><g><line data-cppathid="10052" y2="147.68" x2="673.67" y1="-151.9" x1="673.67" class="st3"/><g><path data-cppathid="10053" d="M668.41,147.68c0,2.91,2.36,5.27,5.27,5.27s5.27-2.36,5.27-5.27c0-2.91-2.36-5.27-5.27-5.27          S668.41,144.77,668.41,147.68z" class="st4"/></g></g></g><line data-cppathid="10054" y2="111.94" x2="646.71" y1="-151.9" x1="646.71" class="st2"/><line data-cppathid="10055" y2="111.94" x2="570.47" y1="111.94" x1="646.71" class="st2"/><g><g><line data-cppathid="10056" y2="155.92" x2="570.47" y1="111.94" x1="570.47" class="st3"/><g><path data-cppathid="10057" d="M565.21,155.92c0,2.91,2.36,5.27,5.27,5.27s5.27-2.36,5.27-5.27c0-2.91-2.36-5.27-5.27-5.27          S565.21,153.01,565.21,155.92z" class="st4"/></g></g></g><g><g><line data-cppathid="10058" y2="128.44" x2="722.95" y1="-151.9" x1="722.95" class="st3"/><g><path data-cppathid="10059" d="M717.68,128.44c0,2.91,2.36,5.27,5.27,5.27c2.91,0,5.27-2.36,5.27-5.27s-2.36-5.27-5.27-5.27          C720.04,123.17,717.68,125.53,717.68,128.44z" class="st4"/></g></g></g><g><g><line data-cppathid="10060" y2="43.24" x2="608.59" y1="-151.9" x1="608.59" class="st3"/><g><path data-cppathid="10061" d="M603.33,43.24c0,2.91,2.36,5.27,5.27,5.27s5.27-2.36,5.27-5.27s-2.36-5.27-5.27-5.27          S603.33,40.33,603.33,43.24z" class="st4"/></g></g></g><line data-cppathid="10062" y2="67.97" x2="570.47" y1="-151.9" x1="570.47" class="st2"/><line data-cppathid="10063" y2="67.97" x2="526.43" y1="67.97" x1="570.47" class="st2"/><g><g><line data-cppathid="10064" y2="130.5" x2="526.43" y1="67.97" x1="526.43" class="st3"/><g><path data-cppathid="10065" d="M521.16,130.5c0,2.91,2.36,5.27,5.27,5.27c2.91,0,5.27-2.36,5.27-5.27s-2.36-5.27-5.27-5.27          C523.52,125.23,521.16,127.59,521.16,130.5z" class="st4"/></g></g></g><g><g><line data-cppathid="10066" y2="147.68" x2="474.29" y1="-151.9" x1="474.29" class="st3"/><g><path data-cppathid="10067" d="M469.02,147.68c0,2.91,2.36,5.27,5.27,5.27c2.91,0,5.27-2.36,5.27-5.27c0-2.91-2.36-5.27-5.27-5.27          C471.38,142.41,469.02,144.77,469.02,147.68z" class="st4"/></g></g></g><g><g><line data-cppathid="10068" y2="43.24" x2="777.41" y1="-151.9" x1="777.41" class="st3"/><g><path data-cppathid="10069" d="M772.14,43.24c0,2.91,2.36,5.27,5.27,5.27s5.27-2.36,5.27-5.27s-2.36-5.27-5.27-5.27          S772.14,40.33,772.14,43.24z" class="st4"/></g></g></g><line data-cppathid="10070" y2="99.24" x2="447.41" y1="-151.9" x1="447.41" class="st2"/><line data-cppathid="10071" y2="99.24" x2="394.39" y1="99.24" x1="447.41" class="st2"/><g><g><line data-cppathid="10072" y2="176.53" x2="394.39" y1="99.24" x1="394.39" class="st3"/><g><path data-cppathid="10073" d="M389.13,176.53c0,2.91,2.36,5.27,5.27,5.27s5.27-2.36,5.27-5.27c0-2.91-2.36-5.27-5.27-5.27          S389.13,173.62,389.13,176.53z" class="st4"/></g></g></g><g><g><line data-cppathid="10074" y2="66.37" x2="355.95" y1="-151.9" x1="355.95" class="st3"/><g><path data-cppathid="10075" d="M350.69,66.37c0,2.91,2.36,5.27,5.27,5.27c2.91,0,5.27-2.36,5.27-5.27s-2.36-5.27-5.27-5.27          C353.04,61.11,350.69,63.46,350.69,66.37z" class="st4"/></g></g></g><g><g><line data-cppathid="10076" y2="6.13" x2="526.43" y1="-151.9" x1="526.43" class="st3"/><g><path data-cppathid="10077" d="M521.16,6.13c0,2.91,2.36,5.27,5.27,5.27c2.91,0,5.27-2.36,5.27-5.27s-2.36-5.27-5.27-5.27          C523.52,0.87,521.16,3.23,521.16,6.13z" class="st4"/></g></g></g><line data-cppathid="10078" y2="137.88" x2="325.75" y1="-151.9" x1="325.75" class="st2"/><line data-cppathid="10079" y2="137.88" x2="268.09" y1="137.88" x1="325.75" class="st2"/><g><g><line data-cppathid="10080" y2="215.41" x2="268.09" y1="137.88" x1="268.09" class="st3"/><g><path data-cppathid="10081" d="M262.83,215.41c0,2.91,2.36,5.27,5.27,5.27s5.27-2.36,5.27-5.27c0-2.91-2.36-5.27-5.27-5.27          S262.83,212.5,262.83,215.41z" class="st4"/></g></g></g><g><g><line data-cppathid="10082" y2="67.97" x2="268.09" y1="-151.9" x1="268.09" class="st3"/><g><path data-cppathid="10083" d="M262.83,67.97c0,2.91,2.36,5.27,5.27,5.27s5.27-2.36,5.27-5.27s-2.36-5.27-5.27-5.27          S262.83,65.06,262.83,67.97z" class="st4"/></g></g></g><g><g><line data-cppathid="10084" y2="296.09" x2="908.92" y1="-151.9" x1="908.92" class="st3"/><g><path data-cppathid="10085" d="M903.65,296.09c0,2.91,2.36,5.27,5.27,5.27s5.27-2.36,5.27-5.27c0-2.91-2.36-5.27-5.27-5.27          S903.65,293.18,903.65,296.09z" class="st4"/></g></g></g></g></g></g></g><g><g><g><path data-cppathid="10086" d="M476.52,636.14v-3.47c35.07,0,66.17-21.03,79.23-53.57l3.22,1.29      C545.38,614.26,513.02,636.14,476.52,636.14z" class="st4"/></g><g><path data-cppathid="10087" d="M476.52,661.01v-3.47c25.87,0,50.23-8.47,70.46-24.49l2.16,2.72C528.29,652.28,503.18,661.01,476.52,661.01      z" class="st4"/></g><g><path data-cppathid="10088" d="M559.37,666.78l-1.94-2.88c22.73-15.36,40.58-36.71,51.6-61.74l3.18,1.4      C600.91,629.2,582.64,651.06,559.37,666.78z" class="st4"/></g><g><rect data-cppathid="10089" height="88.05" width="3.47" class="st4" transform="matrix(0.7406 -0.672 0.672 0.7406 -0.396 613.3264)" y="263.15" x="792.38"/></g><path data-cppathid="10090" d="M666.83,514.01l-5.88-34.84l-32.51-1.03c-6.22-13.95-14.41-27.16-24.48-39.15l13.25-29.67l-57.58-40.97     l-23.69,22.23c-5.98-2.29-12.05-4.21-18.17-5.77l-14.64,78.79c8.23,2.65,16.21,6.6,23.62,11.88c28.33,20.15,40.88,54.21,35,86.28     l77.53,19.1c1.44-6.76,2.45-13.58,3.04-20.4l30.37-11.62L666.83,514.01z M405.95,495.85c6.73-9.46,15.02-17.16,24.26-23     l-39.56-69.34c-7.4,4.45-14.48,9.49-21.19,15.14l-29.67-13.25l-20.48,28.78l-20.48,28.78l22.23,23.7     c-5.6,14.63-9.01,29.78-10.31,45l-30.38,11.63l5.88,34.84l5.87,34.84l32.51,1.03c6.23,13.95,14.4,27.15,24.49,39.14l-13.25,29.67     l28.78,20.5l28.79,20.48l23.69-22.23c6.85,2.61,13.81,4.76,20.85,6.41l14.87-78.54c-9.27-2.62-18.25-6.86-26.54-12.76     C387.32,588.91,378.21,534.82,405.95,495.85z" class="st5"/><path data-cppathid="10091" d="M390.03,327.01c2.28-5.95,3.67-12.12,4.2-18.32l12.36-4.73l-2.39-14.18l-2.39-14.18l-13.23-0.42     c-2.53-5.68-5.87-11.05-9.97-15.93l5.39-12.08l-11.72-8.34l-11.72-8.34l-9.65,9.05c-5.95-2.28-12.12-3.67-18.32-4.2l-4.73-12.37     l-14.18,2.39l-14.18,2.39l-0.42,13.23c-5.68,2.53-11.05,5.87-15.93,9.97l-12.08-5.39l-8.34,11.72L254.39,269l9.05,9.65     c-2.28,5.95-3.67,12.12-4.2,18.32l-12.37,4.73l2.39,14.18l2.39,14.18l13.23,0.42c2.53,5.68,5.87,11.05,9.97,15.93l-5.39,12.08     l11.72,8.34l11.72,8.34l9.65-9.05c5.95,2.28,12.12,3.67,18.32,4.2l4.73,12.37l14.18-2.39l14.18-2.39l0.42-13.23     c5.68-2.53,11.05-5.87,15.93-9.97l12.08,5.39l8.34-11.72l8.34-11.72L390.03,327.01z M306.29,331.56     c-15.87-11.29-19.58-33.31-8.29-49.18c11.29-15.87,33.31-19.58,49.18-8.29c15.87,11.29,19.58,33.31,8.29,49.18     C344.18,339.15,322.16,342.86,306.29,331.56z" class="st4"/><g><polygon data-cppathid="10092" points="706.74,340.94 704.17,338.61 764.53,271.98 766.91,274.13     " class="st4"/></g><path data-cppathid="10093" d="M864.3,404.88c6.9-5.18,13.34-10.86,19.26-16.95l-55.45-57.46c-8.31,9.03-18.68,16.44-30.78,21.43     c-34.83,14.34-73.61,4.32-97.43-22.17l-54.42,58.56c5.74,5.87,11.89,11.26,18.37,16.15l-6.33,31.9l32.61,13.59l32.61,13.58     l18.18-26.96c15.13,2.16,30.66,2.26,46.17,0.12l18.06,27.01l32.67-13.46l32.67-13.46L864.3,404.88z" class="st5"/><g><g><path data-cppathid="10094" d="M543.67,329.86c-2.76-0.8-5.15-2.39-6.8-4.54c-1.87-2.44-2.58-5.32-1.99-8.1       c0.76-5.56,0.24-11.57-0.35-15.74c-5.58-6.75-7.46-15.76-5.02-24.17c4.05-13.97,18.72-22.04,32.69-17.99       c13.97,4.05,22.04,18.72,17.99,32.69c-2.21,7.61-7.63,13.74-14.9,16.87c-3.02,4.83-5.19,9.39-6.43,13.54       c-1.26,5.67-7.62,9.12-14.22,7.69C544.32,330.03,543.99,329.95,543.67,329.86z M561.6,261.39       c-12.83-3.72-26.29,3.69-30.01,16.51c-2.27,7.81-0.48,16.19,4.79,22.42l0.2,0.24l0.04,0.31c0.63,4.33,1.21,10.74,0.39,16.69       l-0.01,0.08c-0.47,2.16,0.09,4.42,1.58,6.37c1.53,2,3.84,3.42,6.51,3.99c5.45,1.18,10.68-1.55,11.66-6.08l0.01-0.04l0.01-0.04       c1.32-4.43,3.63-9.27,6.86-14.39l0.18-0.29l0.32-0.13c6.83-2.84,11.92-8.53,13.98-15.62       C581.84,278.58,574.43,265.11,561.6,261.39z" class="st6"/></g><g><polygon data-cppathid="10095" points="540.73,320.05 543.25,291.2 548.1,297.29 552.59,294.01 554.94,298.46 561.39,294.96        552.15,322.45 550.1,321.76 557.6,299.47 554.05,301.39 551.84,297.23 547.7,300.25 544.93,296.77 542.88,320.24      " class="st7"/></g><g><rect data-cppathid="10096" height="7.54" width="18.71" class="st6" transform="matrix(0.9773 0.2118 -0.2118 0.9773 82.4912 -107.7763)" y="327.44" x="535.03"/></g><g><rect data-cppathid="10097" height="12.14" width="24.73" class="st7" transform="matrix(0.9773 0.2118 -0.2118 0.9773 81.3958 -108.1354)" y="319.86" x="533.17"/></g></g><g><g><g><g><polygon data-cppathid="10098" points="208.54,515.98 207.24,515.54 218.17,483.7 242.6,476.94 251.01,442.04 269.82,433.48          273.75,406.37 275.11,406.57 271.08,434.42 252.19,443.02 243.75,478.05 219.24,484.84        " class="st8"/></g></g></g><g><g><path data-cppathid="10099" d="M246,475.13c1.3,1.56,1.1,3.88-0.46,5.18c-1.56,1.3-3.88,1.1-5.18-0.46c-1.3-1.56-1.1-3.88,0.46-5.18        C242.38,473.37,244.69,473.58,246,475.13z" class="st8"/></g></g><g><g><g><path data-cppathid="10100" d="M245.98,480.84c-1.85,1.55-4.61,1.3-6.15-0.55c-1.55-1.85-1.3-4.61,0.55-6.15         c1.85-1.55,4.61-1.3,6.15,0.55C248.07,476.54,247.83,479.3,245.98,480.84z M241.26,475.2c-1.26,1.06-1.43,2.95-0.37,4.21         c1.06,1.26,2.95,1.43,4.21,0.37c1.26-1.06,1.43-2.95,0.37-4.21C244.41,474.31,242.52,474.14,241.26,475.2z" class="st7"/></g></g></g><g><g><path data-cppathid="10101" d="M254.52,440.38c1.3,1.56,1.1,3.88-0.46,5.18c-1.56,1.3-3.88,1.1-5.18-0.46c-1.3-1.56-1.1-3.88,0.46-5.18        C250.9,438.61,253.22,438.82,254.52,440.38z" class="st8"/></g></g><g><g><path data-cppathid="10102" d="M254.5,446.09c-1.85,1.55-4.61,1.3-6.15-0.55c-1.55-1.85-1.3-4.61,0.55-6.15        c1.85-1.55,4.61-1.3,6.15,0.55C256.6,441.78,256.35,444.54,254.5,446.09z M249.78,440.45c-1.26,1.06-1.43,2.95-0.37,4.21        c1.06,1.26,2.95,1.43,4.21,0.37c1.26-1.06,1.43-2.95,0.37-4.21C252.94,439.56,251.05,439.39,249.78,440.45z" class="st7"/></g></g><g><g><path data-cppathid="10103" d="M273.04,431.58c1.3,1.56,1.1,3.88-0.46,5.18s-3.88,1.1-5.18-0.46c-1.3-1.56-1.1-3.88,0.46-5.18        C269.42,429.81,271.74,430.02,273.04,431.58z" class="st8"/></g></g><g><g><g><path data-cppathid="10104" d="M273.03,437.29c-1.85,1.55-4.61,1.3-6.15-0.55c-1.55-1.85-1.3-4.61,0.55-6.15         c1.85-1.55,4.61-1.3,6.15,0.55C275.12,432.98,274.87,435.74,273.03,437.29z M268.3,431.65c-1.26,1.06-1.43,2.95-0.37,4.21         c1.06,1.26,2.95,1.43,4.21,0.37c1.26-1.06,1.43-2.95,0.37-4.21C271.46,430.76,269.57,430.59,268.3,431.65z" class="st7"/></g></g></g><g><g><path data-cppathid="10105" d="M221.67,482.22c1.3,1.56,1.1,3.88-0.46,5.18c-1.56,1.3-3.88,1.1-5.18-0.46c-1.3-1.56-1.1-3.88,0.46-5.18        C218.04,480.46,220.36,480.66,221.67,482.22z" class="st8"/></g></g><g><g><g><path data-cppathid="10106" d="M221.65,487.93c-1.85,1.55-4.61,1.3-6.15-0.55c-1.55-1.85-1.3-4.61,0.55-6.15         c1.85-1.55,4.61-1.3,6.15,0.55C223.74,483.63,223.5,486.39,221.65,487.93z M216.93,482.29c-1.26,1.06-1.43,2.95-0.37,4.21         c1.06,1.26,2.95,1.43,4.21,0.37c1.26-1.06,1.43-2.95,0.37-4.21C220.08,481.4,218.19,481.23,216.93,482.29z" class="st7"/></g></g></g></g><rect data-cppathid="10107" height="4.15" width="59.18" class="st8" transform="matrix(-1 -1.224647e-16 1.224647e-16 -1 1900.6016 851.7787)" y="423.82" x="920.71"/><rect data-cppathid="10108" height="17.44" width="59.18" class="st8" transform="matrix(-1 -1.224647e-16 1.224647e-16 -1 1900.6016 880.7087)" y="431.63" x="920.71"/><rect data-cppathid="10109" height="2.61" width="34.91" class="st8" transform="matrix(-1 -1.224647e-16 1.224647e-16 -1 1820.7329 912.4844)" y="454.94" x="892.91"/><rect data-cppathid="10110" height="7.06" width="34.91" class="st8" transform="matrix(-1 -1.224647e-16 1.224647e-16 -1 1820.7329 924.4301)" y="458.69" x="892.91"/><rect data-cppathid="10111" height="48.87" width="2.61" class="st8" transform="matrix(-1 -1.224647e-16 1.224647e-16 -1 1981.8264 851.7787)" y="401.46" x="989.61"/><g><path data-cppathid="10112" d="M289.76,298.88c0,0-2.48,2.17-4.7,5.51c-2.23,3.34-8.13,3.51-8.38,8.07c-0.25,4.56,8.03,4.7,12.38,3.21      c4.35-1.48,5.01-5.93,7.64-7.05c2.63-1.11,4-2.01,3.79-4.18c-0.2-2.17-1.66-5.7-1.66-5.7s-1.63,0.52-2.59,0.63      C295.27,299.47,292.04,299.51,289.76,298.88z"/><path data-cppathid="10113" d="M319.57,175.44c0,0-1.67,9.91-3.01,16.46c0,0,0,0,0,0c-0.55,2.65-1.04,4.76-1.34,5.42      c-0.38,0.83-3.51,4.19-7.34,8.13c-6.72,6.92-15.6,15.63-15.6,15.63l-3.47-6.59c0,0,7.88-9.24,13.23-15.41      c2.47-2.85,4.4-5.05,4.76-5.37c1.12-1,2.41-10.85,4.24-18.97c1.82-8.12,5.48-12.6,5.48-12.6L319.57,175.44z" class="st7"/><path data-cppathid="10114" d="M307.88,205.46c-6.72,6.92-15.6,15.63-15.6,15.63l-3.47-6.59c0,0,7.88-9.24,13.23-15.41      C303.68,199.89,306.69,201.8,307.88,205.46z" class="st9"/><g><path data-cppathid="10115" d="M350.96,296.16c0,0,2.28,2.52,3.63,4.05c1.35,1.53,6.52,4.26,6.55,8.81c0.03,4.93-3.81,4.49-7.23,4.31       c-3.42-0.18-6.2-2.54-7.64-5.33c-1.44-2.79-5.27-3.52-5.54-5.77c-0.27-2.25,1.78-6.3,1.78-6.3L350.96,296.16z"/></g><g><path data-cppathid="10116" d="M342.95,291.74l-0.44,4.19c0,0,7.14,3.11,8.46,0.23l-0.31-3.73L342.95,291.74z" class="st8"/></g><g><path data-cppathid="10117" d="M290.15,295.84l-0.39,3.04c0,0,4.31,1.52,9.06-0.14l0.1-2.7L290.15,295.84z" class="st8"/></g><path data-cppathid="10118" d="M351.37,219.74c0.25,0.88-45.67,0-45.67,0s12.7-9.25,13.53-11.72c0.82-2.47-3.23-17.29-3.76-22.11      c-0.42-3.86-1.48-21.12,1.06-23.76c2.66-2.76,12.23-5.65,12.23-5.65l13.96,0.52c0,0,2.3,0.48,3.95,1.25      c1.65,0.76,11.06,4.12,12.59,8.82c1.53,4.7-9.4,19.83-9.4,19.83s-0.02,0.68-0.05,1.79c0,0,0,0,0,0      c-0.04,1.49-0.1,3.74-0.16,6.19c-0.07,3.17-0.14,6.66-0.14,9.22C349.5,210.13,351.12,218.86,351.37,219.74z" class="st7"/><path data-cppathid="10119" d="M351.37,219.74c0,0,6.25,9.17,6.33,15.44c0.09,6.26-2.31,23.63-2.49,27.07      c-0.18,3.44-3.41,32.11-3.41,32.11s-2.5,2.32-10-0.59c0,0-1.66-27.19-1.83-30.1c-0.18-2.91-0.18-16.32-1.85-18.26      c-1.68-1.94-11.82-8.03-13.14-9.17c-1.32-1.15-24.37,4.36-26.79,4.98c-6.25,1.62-3.4,12.5-2.02,17.38      c2.32,8.16,4.34,37.64,4.34,37.64s-4.45,1.9-11.92,0.29c0,0-14.65-53.22-15.12-58.52c-0.47-5.29-0.7-14.02,35.41-20.65      L351.37,219.74z" class="st10"/><path data-cppathid="10120" d="M332.58,126.18c0,0-12.12-2.73-9.35,12.51c2.77,15.25,5.68,16.45,12.99,13.29      c7.31-3.16,6.66-12.92,7.02-17.72C343.61,129.48,336.44,126.35,332.58,126.18z" class="st9"/><path data-cppathid="10121" d="M329.37,160.42c0,0,5.37,5.69,13.85,0.52c0,0-1.9-12.33-0.9-18.33c1-6-11.06,9.3-11.06,9.3      c0.16,0.08,0.26,0.66,0.29,1.47c0.02,0.69-0.02,1.56-0.13,2.44C331.17,157.82,330.55,159.93,329.37,160.42z" class="st9"/><path data-cppathid="10122" d="M339.08,136.67c0.16-1.35,2.82-1.84,3.03,0.18c0.21,2.02-1.21,5.56-2.22,5.21      C338.88,141.71,338.85,138.53,339.08,136.67z" class="st9"/><path data-cppathid="10123" d="M342.65,142.1c0,0-0.31-4.8-2.07-4.95c-1.75-0.15-2.02,1.78-2.02,1.78l-1.77,0.33c0,0,0.56-4.21-1.19-4.95      c-1.75-0.74-11.35,2.32-12.76,1.08c-1.41-1.24-0.74-9.78,1.8-10.95c2.54-1.17,9.57-3.79,14.72-0.3c0,0,4.01-0.46,4.61,2.78      C344.55,130.16,343.74,139.69,342.65,142.1z"/><path data-cppathid="10124" d="M331.42,155.83c8.75-2.7,9.41-7.97,9.42-8.05c-2.88,4.95-9.29,5.6-9.29,5.6      C331.56,154.07,331.53,154.94,331.42,155.83z" class="st11"/><path data-cppathid="10125" d="M346.8,158.34c0,0-6.41,12.75-16.76,11.93c-10.35-0.82-1.76-13.64-1.29-13.76      C329.26,156.38,339.36,153.86,346.8,158.34z" class="st9"/><path data-cppathid="10126" d="M300.44,219.1c0,0,31.71,3.91,50.93,0.65l-36.71-4.59C314.65,215.15,314.44,216.09,300.44,219.1z" class="st7"/><path data-cppathid="10127" d="M324.16,213.71l-2.36,1.2c0,0,0.54,3.75,1.83,4.89l2.65-0.68C326.28,219.12,325.73,215,324.16,213.71z" class="st9"/><path data-cppathid="10128" d="M360.86,206.03c-0.47,0.55-6.71,3.05-13.75,5.77l0,0c-9.62,3.71-20.48,7.21-20.48,7.21l-2.47-5.3      c0,0,11.37-6.18,19.05-10.51c3.63-2.05,6.43-3.68,6.83-4.06c1.23-1.18,1.55-3.06,0.65-6.35c-0.91-3.29-3-18.41-3.23-20.17      c-0.24-1.76,0.59-6.47,5-6.7c4.41-0.24,6.66,1.01,6.66,1.01s1.11,0.46,1.93,11.16C361.86,188.79,361.98,204.73,360.86,206.03z" class="st7"/><path data-cppathid="10129" d="M349.8,188.72C349.8,188.72,349.8,188.72,349.8,188.72c-0.04,1.49-0.1,3.74-0.16,6.19      c-4.3-10.55-1.82-18.97-1.78-19.11C347.39,178.66,349.76,188.58,349.8,188.72z" class="st12"/><path data-cppathid="10130" d="M316.56,191.9C316.56,191.9,316.56,191.9,316.56,191.9c-0.55,2.66-1.04,4.76-1.34,5.42      c-1.47-7.12-0.15-16.23-0.15-16.23C315.27,185.45,316.56,191.9,316.56,191.9z" class="st12"/><path data-cppathid="10131" d="M347.11,211.79L347.11,211.79c-9.62,3.71-20.83,7.33-20.83,7.33l-2.12-5.41c0,0,11.37-6.18,19.05-10.51      C343.21,203.2,346,204.56,347.11,211.79z" class="st9"/><g><polygon data-cppathid="10132" points="323.48,219.43 278.4,218.77 301.16,230.33      " class="st13"/></g><g><polygon data-cppathid="10133" points="301.16,230.33 323.48,221.68 323.48,219.43 299.39,228.12      " class="st14"/></g><g><path data-cppathid="10134" d="M322.31,214.99c0,0-2.82-0.44-4.76-0.89c-1.51-0.35-5.25,0.13-6.2,1.1c-0.95,0.97-3.99,7.7-4.56,8.11       c-0.57,0.41,0.29,1.36,1.3,0.88c0,0,0.92,2.95,3.21,1.84c2.28-1.1,3.83-3.51,5.03-3.94c1.2-0.42,8.16-2.56,8.16-2.56       S324.1,214.27,322.31,214.99z" class="st9"/></g><g><path data-cppathid="10135" d="M312.03,214.76c0,0-1.81,0.87-2.28,1.26c-0.47,0.39-2.39,1.82-2.85,2.16c-0.46,0.34,0.7,1.3,4.12-0.19       C314.44,216.51,312.03,214.76,312.03,214.76z" class="st9"/></g><g><polygon data-cppathid="10136" points="301.16,230.33 287.75,193.72 244.53,194.43 257.3,228.16      " class="st8"/></g><path data-cppathid="10137" d="M273.92,209.91c1.32,2.64,0.92,5.51-0.89,6.41c-1.81,0.91-4.35-0.5-5.67-3.13s-0.92-5.51,0.89-6.41      S272.6,207.28,273.92,209.91z" class="st15"/></g><g><path data-cppathid="10138" d="M666.72,719.65c5.61,0.44,5.6-11.22,5.31-16.91s-2.82-22.16-2.82-22.16l-6.18-0.01      c0,0-3.12,14.55-3.48,30.59C659.44,715.71,661.01,719.21,666.72,719.65z" class="st16"/><path data-cppathid="10139" d="M696.56,691.45c3.69,3.69,1.74,7.84-2.12,11.24c-3.86,3.39-27.19,16.64-28.83,16.36      c-1.63-0.28-6.22-6.25-5.15-8.39c1.07-2.14,19.18-16.43,22.84-18.66C686.95,689.76,692.23,687.13,696.56,691.45z" class="st16"/><path data-cppathid="10140" d="M666.93,683.55c0,0-4.23-1.88-4.03-4.85s2.99-5.35,3.48-6.05c2.02-2.9,0.86-7.25,1.76-9.19      c0.9-1.94,2.2-1.61,2.12-0.82c-0.48,4.4,0.59,7.25,0.14,9.16c-0.45,1.91-0.15,9.38-0.15,9.38L666.93,683.55z" class="st17"/><path data-cppathid="10141" d="M664.08,681.04c0,0-1.79-2.81-1.65-4.75c0.14-1.94,2.27-3.4,2.61-5.01s1.04-0.85,1.22-0.63      c0.18,0.22-0.25,2.2-0.32,3.12C665.88,674.7,667.47,678.86,664.08,681.04z" class="st17"/><polygon data-cppathid="10142" points="661.52,680.81 661.72,686.33 670.05,686.37 670.32,680.7     " class="st18"/><path data-cppathid="10143" d="M617.63,625.3l-30.94-10.06l-34.66,61.57l24.63,21.24c-1.73,6.5-3.08,13.13-4.02,19.84l78.79,12.82      c2.96-25.37,17.1-48.43,38.66-62.52l-52.06-60.91C630.7,612.75,623.89,618.79,617.63,625.3z" class="st5"/></g><g><path data-cppathid="10144" d="M393.58,726.02l-59.89-42.62l13.38-29.98c-9.49-11.43-17.42-24.11-23.6-37.72l-32.85-1.04l-12.21-72.48      l30.7-11.75c1.37-14.87,4.71-29.45,9.93-43.37l-22.46-23.94l42.61-59.89l29.98,13.38c11.42-9.49,24.1-17.42,37.73-23.6      l1.04-32.84l72.48-12.22l11.74,30.7c14.88,1.37,29.46,4.71,43.38,9.93l23.94-22.46l59.89,42.61l-13.38,29.98      c9.5,11.44,17.43,24.12,23.6,37.73l32.84,1.04l12.21,72.48l-30.69,11.74c-0.6,6.54-1.6,13.1-2.97,19.53l-0.37,1.75l-80.86-19.92      l0.3-1.61c5.93-32.32-7.53-65.52-34.29-84.56c-38.14-27.14-91.25-18.19-118.39,19.95c-27.14,38.13-18.19,91.24,19.95,118.39      c7.97,5.67,16.72,9.88,26.01,12.51l1.53,0.43l-15.5,81.89l-1.77-0.42c-6.77-1.6-13.51-3.65-20.05-6.1L393.58,726.02z       M338.02,682.22l55.26,39.33l23.45-22l1.02,0.39c6.15,2.35,12.49,4.34,18.87,5.92l14.24-75.2c-9.1-2.76-17.69-6.99-25.55-12.58      c-39.69-28.26-49.01-83.54-20.76-123.23c28.25-39.7,83.53-49.01,123.23-20.76c27.41,19.5,41.42,53.27,35.97,86.4l74.21,18.28      c1.23-6.08,2.11-12.28,2.64-18.44l0.09-1.08l30.06-11.5l-11.27-66.87l-32.17-1.02l-0.44-0.99      c-6.25-14.01-14.4-27.05-24.23-38.73l-0.7-0.83l13.11-29.37l-55.26-39.32l-23.45,22l-1.02-0.39      c-14.25-5.46-29.24-8.89-44.54-10.2l-1.08-0.09l-11.5-30.07l-66.87,11.28l-1.02,32.17l-0.99,0.44      c-14.04,6.26-27.07,14.41-38.73,24.23l-0.83,0.7l-29.37-13.11l-39.32,55.26l22,23.45l-0.39,1.02      c-5.46,14.25-8.89,29.24-10.2,44.53l-0.09,1.08l-30.07,11.51l11.27,66.87l32.18,1.02l0.44,0.99      c6.25,14.02,14.41,27.05,24.23,38.72l0.7,0.83L338.02,682.22z" class="st4"/></g><path data-cppathid="10145" d="M508.2,760.83h-82.21c-11.14,0-20.18-9.03-20.18-20.18v-102c0-11.14,9.03-20.18,20.18-20.18h82.21     c11.14,0,20.18,9.03,20.18,20.18v102C528.38,751.79,519.34,760.83,508.2,760.83z" class="st8"/><g><g><path data-cppathid="10146" d="M480.21,677.52c-4.69-13.11-17.22-21.17-30.43-20.77c-3.2,0.1-6.43,0.69-9.61,1.82       c-9.62,3.44-16.52,11.1-19.35,20.16c-1.96,6.27-1.98,13.22,0.41,19.88c0.24,0.66,0.49,1.32,0.77,1.95       c1.25,2.89,2.9,5.5,4.86,7.8c8.2,9.64,21.8,13.71,34.42,9.2C477.56,711.73,486.04,693.81,480.21,677.52z M458.63,710.18       c-9.46,3.38-19.66,0.33-25.8-6.89c-1.46-1.72-2.7-3.68-3.64-5.85c-0.21-0.48-0.4-0.97-0.58-1.46c-1.79-5-1.78-10.2-0.31-14.91       c2.12-6.79,7.3-12.53,14.51-15.11c2.38-0.85,4.81-1.29,7.21-1.37c9.9-0.3,19.3,5.74,22.82,15.57       C477.2,692.37,470.84,705.81,458.63,710.18z" class="st19"/></g></g><g><g><g><path data-cppathid="10147" d="M428.3,681.06l-7.48-2.34c2.83-9.05,9.73-16.72,19.35-20.16c3.18-1.14,6.41-1.73,9.61-1.82l0.23,7.84        c-2.4,0.07-4.82,0.52-7.21,1.37C435.6,668.53,430.43,674.28,428.3,681.06z" class="st7"/></g></g></g><g><g><g><path data-cppathid="10148" d="M429.19,697.44l-7.19,3.13c-0.28-0.64-0.53-1.29-0.77-1.95c-2.38-6.67-2.37-13.61-0.41-19.88l7.48,2.34        c-1.47,4.7-1.48,9.91,0.31,14.91C428.79,696.47,428.98,696.96,429.19,697.44z" class="st5"/></g></g></g><g><g><path data-cppathid="10149" d="M426.85,708.36c-1.96-2.3-3.6-4.91-4.86-7.8l7.19-3.13c0.94,2.17,2.17,4.13,3.64,5.85L426.85,708.36z" class="st10"/></g></g><g><g><path data-cppathid="10150" d="M507.37,696.65c-5.21-2.46-11.23-1.15-14.98,2.83c-0.91,0.96-1.68,2.08-2.28,3.34       c-1.81,3.82-1.58,8.08,0.24,11.56c1.26,2.41,3.29,4.44,5.94,5.7c0.26,0.13,0.53,0.24,0.8,0.35c1.21,0.48,2.46,0.76,3.7,0.86       c5.22,0.42,10.39-2.37,12.76-7.38C516.6,707.44,513.84,699.71,507.37,696.65z M510.61,712.52c-1.78,3.76-5.65,5.85-9.56,5.53       c-0.93-0.08-1.87-0.29-2.77-0.65c-0.2-0.08-0.4-0.17-0.6-0.26c-1.99-0.94-3.5-2.46-4.45-4.27c-1.36-2.61-1.53-5.8-0.18-8.67       c0.45-0.95,1.03-1.79,1.71-2.51c2.81-2.98,7.32-3.97,11.23-2.12C510.84,701.88,512.91,707.67,510.61,712.52z" class="st20"/></g></g><g><g><path data-cppathid="10151" d="M493.23,712.87l-2.87,1.51c-1.82-3.48-2.04-7.74-0.24-11.56c0.6-1.26,1.37-2.38,2.28-3.34l2.36,2.22       c-0.68,0.72-1.26,1.56-1.71,2.51C491.7,707.07,491.86,710.27,493.23,712.87z" class="st21"/></g></g><g><g><path data-cppathid="10152" d="M498.27,717.4l-1.19,3.02c-0.27-0.11-0.53-0.22-0.8-0.35c-2.65-1.25-4.67-3.29-5.94-5.7l2.87-1.51       c0.94,1.81,2.46,3.33,4.45,4.27C497.87,717.24,498.07,717.32,498.27,717.4z" class="st22"/></g></g><g><g><path data-cppathid="10153" d="M513.54,674.45c2.46-5.21,1.15-11.23-2.83-14.98c-0.96-0.91-2.08-1.68-3.34-2.28       c-3.82-1.81-8.08-1.58-11.56,0.24c-2.41,1.26-4.44,3.29-5.7,5.94c-0.12,0.26-0.24,0.53-0.35,0.8c-0.48,1.21-0.76,2.46-0.86,3.7       c-0.42,5.22,2.37,10.39,7.38,12.76C502.76,683.68,510.48,680.92,513.54,674.45z M497.68,677.69c-3.76-1.78-5.85-5.65-5.53-9.56       c0.08-0.93,0.29-1.87,0.65-2.77c0.08-0.2,0.17-0.4,0.26-0.6c0.94-1.99,2.46-3.51,4.27-4.45c2.61-1.36,5.8-1.53,8.66-0.18       c0.95,0.45,1.79,1.03,2.51,1.71c2.98,2.81,3.97,7.32,2.12,11.23C508.32,677.91,502.53,679.98,497.68,677.69z" class="st7"/></g></g><g><g><path data-cppathid="10154" d="M497.32,660.3l-1.51-2.87c3.48-1.82,7.74-2.04,11.56-0.24c1.26,0.6,2.38,1.37,3.34,2.28l-2.22,2.36       c-0.72-0.68-1.56-1.26-2.51-1.71C503.12,658.77,499.93,658.94,497.32,660.3z" class="st7"/></g></g><g><g><path data-cppathid="10155" d="M492.79,665.35l-3.02-1.19c0.11-0.27,0.22-0.53,0.35-0.8c1.25-2.65,3.29-4.67,5.7-5.94l1.51,2.87       c-1.81,0.94-3.33,2.46-4.27,4.45C492.96,664.95,492.87,665.15,492.79,665.35z" class="st19"/></g></g><g><g><path data-cppathid="10156" d="M488.91,667.86c0.1-1.24,0.38-2.49,0.86-3.7l3.02,1.19c-0.36,0.91-0.57,1.84-0.65,2.77L488.91,667.86z" class="st5"/></g></g><polygon data-cppathid="10157" points="497.85,729.82 473.66,729.82 473.66,729.34 497.37,729.34 497.37,720.2 497.85,720.2    " class="st23"/><polygon data-cppathid="10158" points="452.29,729.82 420.82,729.82 420.82,729.34 451.81,729.34 451.81,714.38 452.29,714.38    " class="st23"/><rect data-cppathid="10159" height="2.89" width="21.65" class="st23" y="724.33" x="420.82"/><rect data-cppathid="10160" height="2.89" width="12.74" class="st23" y="724.33" x="473.66"/><rect data-cppathid="10161" height="2.21" width="10.36" class="st23" y="630.69" x="415.91"/><rect data-cppathid="10162" height="2.21" width="16.08" class="st23" y="639.03" x="459.12"/><rect data-cppathid="10163" height="2.21" width="9.82" class="st23" y="639.03" x="438.33"/><rect data-cppathid="10164" height="2.21" width="19.45" class="st23" y="639.03" x="415.91"/><rect data-cppathid="10165" height="2.21" width="15.36" class="st23" y="630.69" x="429.43"/><rect data-cppathid="10166" height="2.21" width="4.22" class="st23" y="639.03" x="451.21"/><rect data-cppathid="10167" height="2.21" width="11.47" class="st23" y="630.81" x="463.72"/><rect data-cppathid="10168" height="2.21" width="9.78" class="st23" y="639.03" x="479.29"/><rect data-cppathid="10169" height="2.21" width="12.16" class="st23" y="630.81" x="448.56"/><path data-cppathid="10170" d="M469.11,774.2h-4.04c-7.44,0-13.47-6.03-13.47-13.47v-4.04c0-7.44,6.03-13.47,13.47-13.47h4.04     c7.44,0,13.47,6.03,13.47,13.47v4.04C482.58,768.17,476.55,774.2,469.11,774.2z" class="st8"/><rect data-cppathid="10171" height="12.32" width="2.93" class="st23" y="752.55" x="465.63"/><rect data-cppathid="10172" height="12.32" width="2.93" class="st23" transform="matrix(-1.836970e-16 1 -1 -1.836970e-16 1225.8025 291.6216)" y="752.55" x="465.63"/><g><path data-cppathid="10173" d="M527.57,711.01c0,0,0.01,0,0.02,0C527.52,711.04,527.51,711.05,527.57,711.01z" class="st24"/></g><g><g><g><g><path data-cppathid="10174" d="M512.94,656.18c0,0,7.18,3.51,5.41,13.07c-1.78,9.56-2.56,10.85-0.58,14.58         c1.99,3.74,4.33,19.67,2.54,22.69c-1.79,3.02-22.14-13.27-24.96-26.94c-2.82-13.67,1.79-19.75,3.42-22.02         C500.41,655.3,506.6,652.96,512.94,656.18z" class="st25"/></g></g></g><g><path data-cppathid="10175" d="M514.93,690.69c0,0,3.66,0.74,5.71,3.77c1.43,2.1,1.54,6.77,1.75,7.65c0.21,0.88,2.93,10.84,2.93,10.84       l-7.62,5.11L514.93,690.69z" class="st10"/></g><g><path data-cppathid="10176" d="M543.08,860.94c0,0,4.97,6.69,4.29,7.75c-0.68,1.06-5.91,1.21-9.09,0c-3.18-1.21-3.26-9.06-4.7-12.43       c-0.6-1.41,0.69-5.58,2.5-5.88c1.81-0.3,3.79,0.59,3.79,0.59S537.98,855.72,543.08,860.94z" class="st25"/></g><g><g><path data-cppathid="10177" d="M539.9,850.92c0,0,1.05,2.85,1.43,5.57c0.32,2.26,3.54,7.05,3.39,7.65c-0.15,0.61-4.24,1.16-5.91-0.41        c-1.67-1.56-2.74-6.11-3.11-8.82c-0.34-2.53-0.77-3.78-0.77-3.78S538.31,849.25,539.9,850.92z" class="st26"/></g></g><g><path data-cppathid="10178" d="M499.81,861.05c0,0,4.79,6.58,4.11,7.64c-0.68,1.06-5.91,1.21-9.09,0c-3.18-1.21-3.26-9.06-4.7-12.43       c-0.6-1.41,0.69-5.58,2.5-5.88c1.81-0.3,3.94,0.65,3.94,0.65S494.71,855.83,499.81,861.05z" class="st25"/></g><g><g><path data-cppathid="10179" d="M496.57,851.04c0,0,0.38,3.11,0.98,5.3c0.61,2.2,3.86,7.2,3.71,7.8c-0.15,0.61-4.24,1.16-5.91-0.41        c-1.67-1.56-2.95-6.09-3.11-8.82c-0.15-2.74,0.38-4.52,0.38-4.52S494.98,849.37,496.57,851.04z" class="st26"/></g></g><g><g><path data-cppathid="10180" d="M520.52,742.09c0,0,4.27,19.84,5.25,24.84c0.98,5,3.72,29.19,4.02,33.31        c0.29,4.11,4.45,19.62,4.26,21.09c-0.2,1.47,6.16,30.99,6.16,30.99s-2.17,1.75-4.46,0.16c-1.18-0.82-13.95-27.64-13.95-34.98        c0-10.16-7.51-23.42-8.48-25.69c-9-21.11-7.23-27.56-8.41-28.93c-1.18-1.37-1.28,0.85-1.96,3.88        c-0.69,3.04-2.15,29.29-3.04,32.62c-0.88,3.33-0.2,14.6-0.69,20.28c-0.49,5.68-2.64,31.38-2.64,31.38s-1.67,2.61-4,0.07        c-0.5-0.55-4.03-28.63-4.13-35.39c-0.1-6.76-0.2-16.08-0.39-19.01c-1.82-28.01-6.28-32.01,0.75-51.84        C501.95,707.75,520.52,742.09,520.52,742.09z" class="st26"/></g></g><g><path data-cppathid="10181" d="M491.87,736.54c0,0-12.15,17.01-6.92,53.19c0,0,28.83,3.92,44.27-4.54c0,0-6.39-37.3-8.7-43.11       C518.2,736.28,491.87,736.54,491.87,736.54z" class="st27"/></g><g><polygon data-cppathid="10182" points="533.45,855.68 533.45,862.69 534.35,862.69 534.35,857.27      " class="st28"/></g><g><polygon data-cppathid="10183" points="490,855.68 490,862.69 490.91,862.69 490.91,857.27      " class="st28"/></g><g><path data-cppathid="10184" d="M508.18,688.21c0,0,4.48,2.11,6.03,2.43c1.55,0.31,7.59,8.15,8.64,11.01c1.06,2.86,0,7.15-2.18,12.19       c-2.18,5.04-0.12,6.72-1.12,11.75c-0.99,5.04-1.87,15.7-1.68,18.5c0.19,2.8-25.15,3.33-30.93-1.77c0,0,5.81-8.71,6.56-9.95       c0.75-1.24,0.12-8.02-0.56-9.76c-0.68-1.74-5.24-16.55-5.24-16.55s-3.72-11.37-0.36-13.98c2.92-2.27,10.89-3.08,12.32-3.58       S505.26,687.77,508.18,688.21z" class="st8"/></g><g><path data-cppathid="10185" d="M509.61,698.19l2.72-3.19l-2.36-8.39C509.97,686.62,509.17,691.29,509.61,698.19z" class="st29"/></g><g><path data-cppathid="10186" d="M510.32,683.04c0,0-0.12,1.12-0.27,2.67c-0.06,0.69-0.13,1.46-0.2,2.26c-0.18,2.26-0.33,4.71-0.24,5.95       c0,0-4.65,4.66-9.94-5.44c0,0,2.23-4.17,0.55-9.84C498.54,672.97,510.32,683.04,510.32,683.04z" class="st26"/></g><g><polygon data-cppathid="10187" points="509.61,693.93 509.61,698.19 504.25,694.19      " class="st26"/></g><g><polygon data-cppathid="10188" points="509.61,698.19 507.39,695.44 499.9,687.97 497.47,690.31      " class="st29"/></g><g><path data-cppathid="10189" d="M498.86,688.69c0,0,6.28,9.54,6.58,13.73c0.3,4.2-2.34,35.6-4.45,45.69       c-2.11,10.09-17.36-1.14-17.36-1.14s10.25-16.59,6.31-29.87c-3.93-13.28-5.36-18.59-5.36-18.59s1.35-7.4,6.15-8.44       C494.94,689.16,498.86,688.69,498.86,688.69z" class="st10"/></g><g><path data-cppathid="10190" d="M523.27,702.91c0,0,1.13,4.01-3.28,12.88c0,0,0.07,11.35,0.19,14.89c0.12,3.54,2.63,16.29,2.63,16.29       l-6.03,3.21c-0.88,0.52-1.97-0.2-1.85-1.21c1.24-10.2,5.26-48.89-3.43-59.29l3.49,1.03       C514.99,690.71,521.18,695.78,523.27,702.91z" class="st10"/></g><g><polygon data-cppathid="10191" points="512.33,695 515.76,695.95 509.97,686.62      " class="st8"/></g><g><polygon data-cppathid="10192" points="507.39,695.44 504.25,699.54 497.82,688.83 500.06,687.54      " class="st8"/></g><rect data-cppathid="10193" height="13.41" width="1.13" class="st25" transform="matrix(0.7842 -0.6205 0.6205 0.7842 -333.3999 475.2183)" y="710.24" x="515.96"/><path data-cppathid="10194" d="M511.4,721.36c0,0,0.79,0.02,1.32-0.38c0.9-0.68,1.23-2.36,2.82-2.23c1.59,0.12,2.33,5.12,1.93,6.06      c-0.4,0.95-2.61,1.42-5.88,0.77C508.33,724.92,511.4,721.36,511.4,721.36z" class="st26"/><path data-cppathid="10195" d="M514.99,718.78c0,0,2.29-0.78,4.93-1.35c2.32-0.5,5.09-0.67,5.36-0.26c0.3,0.45-2.26,0.83-4.53,1.48      c-2.09,0.59-1.59,0.81-1.59,0.81s-0.14-0.07,2.25-0.29c2.57-0.24,5.21-0.23,5.47,0.28c0.13,0.25,0.04,0.42-0.89,0.65      c0.56-0.02,0.63,0.12,0.66,0.34c0.11,1.16-3.63,2.08-5.12,2.44c1.14-0.27,2.01-0.36,1.6,0.42c-0.47,0.89-5.81,1.96-7.7,2.52      C513.37,726.43,514.99,718.78,514.99,718.78z" class="st26"/><path data-cppathid="10196" d="M491.62,690.24c-1.57-0.51-6.2,1.13-6.98,5.87c-0.78,4.74-1.09,10-1.82,12.55      c-0.73,2.55-2.59,13.86-1.02,14.8c1.56,0.94,4.52,1.79,8.67,1.79c4.29,0,20.9,0.75,20.9,0.75l1.04-5.9c0,0-6.31-0.33-9.58-0.82      c-2.91-0.44-6.95-1.68-11.7-2.2c0,0,1.01-7,1.74-8.98C493.6,706.11,498.71,692.54,491.62,690.24z" class="st10"/><polygon data-cppathid="10197" points="522.02,720.55 522.8,722.45 521.13,721.26     " class="st26"/><g><polygon data-cppathid="10198" points="512.86,730.45 529.6,727.13 542.02,700.57 524.15,702.45      " class="st7"/></g><g><g><path data-cppathid="10199" d="M531.69,722.63c0,0,0.92-0.85,1.73-2.04c0.82-1.19,3.49-5.75,3.25-6.03c-0.24-0.29-4.22-0.38-4.94,0.27        c-0.72,0.65,0.71,0.9,0.71,0.9s-2.17,0.22-2.02,0.84c0.15,0.61,1.46,0.44,1.46,0.44s-1.75,0.34-1.48,0.87        c0.26,0.54,1.11,0.53,1.11,0.53s-1.55,0.19-1.36,0.78c0.19,0.59,2.64,1.14,2.31,1.63        C532.14,721.3,531.69,722.63,531.69,722.63z" class="st9"/></g></g><g><g><g><path data-cppathid="10200" d="M511.9,657.24c0,0,10.43,3.28,4.77,21.28c-5.66,18-19.91-2.09-18.42-13.05         C499.74,654.49,511.9,657.24,511.9,657.24z" class="st30"/></g></g></g><g><g><g><path data-cppathid="10201" d="M517.74,667.74c0,0-5.18,5.09-13.86,5.72c0,0-3.33,3.91-3.59,5.44c0,0-7.74-13.19,1.77-21.1         C511.58,649.9,521.23,664.48,517.74,667.74z" class="st25"/></g></g></g><g><g><g><path data-cppathid="10202" d="M503.98,673.82c-0.07-1.31-0.87-4.29-2.82-3.46c-1.95,0.83,0.12,6.91,1.41,6.53         C502.57,676.9,504.14,676.92,503.98,673.82z" class="st30"/></g></g></g><path data-cppathid="10203" d="M510.05,685.72c-0.06,0.69-0.13,1.46-0.2,2.26h0c-6.03-2.98-6.96-7.27-6.98-7.41      C507.17,686.12,510.05,685.72,510.05,685.72z" class="st31"/></g><g><g><g><path data-cppathid="10204" d="M297.39,711.98c0,0-12.85,37.48-13.67,41.71c-0.9,4.63-10.94,37.94-10.94,37.94        s-21.09-20.65-27.67-25.89C238.52,760.5,288.3,710.88,297.39,711.98z" class="st32"/></g></g><g><g><path data-cppathid="10205" d="M304.07,857.25c0,0,4.26-1.73,6.01-2.47c1.75-0.74,2.01-2.36,2.75-1.28c0.74,1.08,4.39,4.41,6.36,4.83        c1.97,0.42,14.76,2.36,15.01,5.26c0.25,2.9-5.71,3.92-14.13,4.36c-8.41,0.44-8.62,2.61-14.23,1.18        C304.08,868.68,304.07,857.25,304.07,857.25z" class="st8"/></g></g><g><g><path data-cppathid="10206" d="M180,810.03c0,0,2.11,3.93,3.01,5.54c0.9,1.61,2.5,1.7,1.53,2.52c-0.97,0.82-3.81,4.7-4.01,6.65        c-0.2,1.95-0.75,14.53-3.52,15.07c-2.78,0.55-4.39-5.12-5.69-13.21c-1.3-8.09-3.43-8.07-2.62-13.64        C168.93,811.22,180,810.03,180,810.03z" class="st8"/></g></g><g><g><path data-cppathid="10207" d="M321.2,720.58c0,0,2.05-3.73,2.38-4.29c0.33-0.56,1.97-1.34,3.92-2.08c1.96-0.74,4.93-0.85,5.23-0.64        c0.29,0.21,0.69,0.29,0.99,1.16c0.31,0.87,0.08,1.78,0.08,1.78s0.88,0.9,0.52,2c0,0,0.79,0.89,0.18,2.06        c0,0,0.75,0.88,0.23,1.7c0,0-1.64,0.79-2.16,1.25c-0.52,0.47-4.04,1.87-7.63,2.7C324.95,726.23,321.03,727.3,321.2,720.58z" class="st9"/></g></g><g><g><path data-cppathid="10208" d="M327.07,719.1c0,0-0.21,2.13-0.57,2.69c-0.36,0.57,4.08,2.45,4.08,2.45S329.65,719.43,327.07,719.1z" class="st33"/></g></g><g><g><path data-cppathid="10209" d="M252.74,746.37c-3.48,2.63-8.16,12.91-11.43,20.94c-0.07,0.14-7.85,15.88-10.8,20.29        c-4.44,6.63-9.97,6.04-19.49,9.66c-7.74,2.94-32.21,11.78-32.21,11.78l5.73,11.4c0,0,37.04-8.49,48.9-13.41        c6.01-2.49,25.87-19.24,25.87-19.24l0,0c2.47-2.03,4.71-4,6.62-5.75l0,0c1.52-1.39,2.82-2.65,3.88-3.69        c1.89-1.86,2.97-3.03,2.97-3.03S255.66,744.17,252.74,746.37z" class="st10"/></g></g><g><g><g><path data-cppathid="10210" d="M282.85,697.1l10.5,26.53c0,0,0.52,3.68,8.18,1.19c7.82-2.53,20.36-5.87,20.36-5.87s4.43,9.31,3.51,9.85         c-2.68,1.56-24.25,9.6-33.25,12.05c-7.14,1.95-21.78-36.34-21.78-36.34L282.85,697.1z" class="st7"/></g></g></g><g><g><path data-cppathid="10211" d="M301.43,801.49c0.16-4.43-4.83-16.94-8.59-24.52l0,0c-5.89-12.12-11.88-24.73-11.88-24.73        s-34.21-0.02-34.15,3.65c0.11,6.95,16.86,22.57,19.51,25.64l1.12,1.22c0,0,6.34,6.09,8.91,10.76        c3.76,6.82,5.63,11.55,8.1,20.45c2.21,7.98,17.42,45.52,17.42,45.52l14.17-4.88C316.05,854.59,301.18,808.37,301.43,801.49z" class="st10"/></g></g><g><g><g><path data-cppathid="10212" d="M245.1,753.69c0,0,23.35-24.9,21.34-41c-0.16-1.3-0.24-2.59-0.25-3.86c-0.01-1.66,0.12-3.28,0.37-4.85         c1.46-9.43,7.15-17.22,14.23-21.09c0,0-0.07-2.06,9.76,7.39c0.54,0.52,6.02,10.16,6.77,20.64         c0.91,12.82-2.76,15.4-7.29,25.15c-3.31,7.13-8.07,13.33-9.08,16.18C280.96,752.24,278.33,756.44,245.1,753.69z" class="st5"/></g></g></g><g><g><path data-cppathid="10213" d="M291.17,682.08c0,0-0.12,0.52-0.29,1.33c-0.12,0.6-0.28,1.35-0.43,2.17c-0.41,2.21-0.83,4.88-0.72,6.14        c0.21,2.36-8.7-8.42-8.7-8.42s1.64-7.46,2.12-15.99C283.63,658.77,291.17,682.08,291.17,682.08z" class="st9"/></g></g><g><g><path data-cppathid="10214" d="M290.9,683.35c-0.12,0.6-0.29,1.41-0.44,2.23c-3.02-2.85-5.31-6.23-5.99-7.28        C285.78,680.07,290.9,683.35,290.9,683.35z" class="st11"/></g></g><g><g><g><path data-cppathid="10215" d="M287.94,721.29c-0.07,0.23-0.18,0.45-0.27,0.66c-0.32,0.75-1.17,1.7-1.99,3.11         c-6.95,11.94-14.37,28.27-17.33,39.7c-3.37,13.02-5.15,23.31-5.15,23.31l-26.08-23.81c0,0,9.06-19.41,18.55-30.97         c10.52-12.81,7.53-41.94,7.53-41.94l15.01-6.96l2.24-2.45l8.2,6.15l4.49,2.91C293.14,691,290.96,711.55,287.94,721.29z" class="st7"/></g></g></g><g><g><g><rect data-cppathid="10216" height="274.13" width="4.66" class="st8" transform="matrix(0.061 0.9981 -0.9981 0.061 940.1997 407.8485)" y="566.59" x="250.99"/></g></g></g><g><g><g><rect data-cppathid="10217" height="274.13" width="4.66" class="st8" transform="matrix(0.061 0.9981 -0.9981 0.061 987.3416 447.0575)" y="611.25" x="253.72"/></g></g></g><g><g><g><rect data-cppathid="10218" height="47.13" width="5.05" class="st8" transform="matrix(0.9981 -0.061 0.061 0.9981 -43.1447 23.7293)" y="695.1" x="364.64"/></g></g><g><g><rect data-cppathid="10219" height="47.13" width="5.05" class="st8" transform="matrix(0.9981 -0.0611 0.0611 0.9981 -43.4049 21.5133)" y="697.35" x="327.76"/></g></g><g><g><rect data-cppathid="10220" height="47.13" width="5.05" class="st8" transform="matrix(0.9981 -0.0611 0.0611 0.9981 -43.6175 19.2685)" y="699.61" x="290.88"/></g></g><g><g><rect data-cppathid="10221" height="47.13" width="5.05" class="st8" transform="matrix(0.9981 -0.0611 0.0611 0.9981 -43.8259 17.0213)" y="701.86" x="254"/></g></g><g><g><rect data-cppathid="10222" height="47.13" width="5.05" class="st8" transform="matrix(0.9981 -0.0611 0.0611 0.9981 -44.0306 14.7725)" y="704.11" x="217.12"/></g></g><g><g><rect data-cppathid="10223" height="47.13" width="5.05" class="st8" transform="matrix(0.9981 -0.0611 0.0611 0.9981 -44.2371 12.5245)" y="706.37" x="180.25"/></g></g><g><g><rect data-cppathid="10224" height="47.13" width="5.05" class="st8" transform="matrix(0.9981 -0.0611 0.0611 0.9981 -44.4437 10.2765)" y="708.62" x="143.37"/></g></g></g><g><g><g><g><g><g><path data-cppathid="10225" d="M254.51,754.12c0,0-0.81-0.7-1.01-1.18c0,0-0.31-0.9-0.56-1.53c-0.08-0.2-0.16-0.37-0.22-0.48            c-0.25-0.44-0.94-1.33-1.25-2.57c-0.31-1.23-0.28-6.87-0.28-6.87l3.06-0.85l2.75-1.2c0,0,5.5,5.47,5.92,6.59            c0.04,0.11,0.08,0.22,0.1,0.32c0.26,0.98,0.05,1.81,0.13,2.34c0.03,0.19,0.18,2.14-0.24,2.55            c-0.58,0.56-1.21,0.72-1.76,0.6c0,0-1.19,1.05-2.26,1.1c0,0-1.06,1.01-2.41,0.68C256.5,753.62,255.3,754.52,254.51,754.12            z" class="st9"/></g></g></g></g></g></g><g><g><g><path data-cppathid="10226" d="M279.73,699.72c0,0,5.95-0.38,2.99-9.4c-3.99-12.17-15.85,0.15-40.91,10.41c0,0-7.02,2.84-5.01,10.34         c2.01,7.5,10.9,31.33,11.49,33.72l10.04-5.52c0,0-4.57-11.83-5.79-18.02c-1.22-6.19-2.09-11.94-2.09-11.94L279.73,699.72z" class="st7"/></g></g></g><g><g><path data-cppathid="10227" d="M332.21,713.74c0,0-4.92,1.99-4.7,2.82c0.22,0.83,0.81,1,0.81,1l-1.65,1.74c0,0-0.45,1.77,1.61,1.74        c0,0-0.59,1.61,1.39,1.34c0,0,0.09,1.23,1.02,1.27c0.94,0.04,4.05-1.37,4.05-1.37s0.68-0.65-0.08-1.76        c0,0,0.62-1.04-0.22-2.01c0,0,0.38-0.98-0.53-2.01c0,0,0.57-2.18-1.19-2.92C332.73,713.56,332.42,713.65,332.21,713.74z" class="st11"/></g></g><g><g><path data-cppathid="10228" d="M323.73,716.21c0,0,3.62,0.33,5.53,1.37c0.43,0.24,0.8,0.54,0.75,1.03c-0.06,0.49-0.84,1.03-2.42,0.96        c-1.58-0.06-3.64,0.58-3.64,0.58S322.34,719.62,323.73,716.21z" class="st9"/></g></g><g><g><path data-cppathid="10229" d="M300.04,663.04c0,0,2.76,5.15,1.39,5.95c-1.14,0.66,1.32,5.72,1.64,6.54c0.32,0.83-2.06,1.42-2.57,1.95        c-0.51,0.53-2.02,7.06-3.99,7.25c-1.96,0.19-10.8-2.9-13.2-5.41c-2.4-2.51-4.35-13.82-2.73-18.59        C282.2,655.98,295.17,654.04,300.04,663.04z" class="st9"/></g></g><g><g><path data-cppathid="10230" d="M300.63,664.1c0,0,1.05-3.74-4.09-7.88c-5.14-4.14-12.97,0.84-13.95,1.6c-0.87,0.68-6.09,5.01-4.1,11.34        c3.33,10.58,3.29,10.14,3.29,10.14s1.44-6.38,3.37-6.83c2.09-0.48,4.96-0.82,4.96-0.82s-1.8-4.83,1.04-5.5        C293.98,665.48,297.76,663.03,300.63,664.1z" class="st25"/></g></g><g><g><path data-cppathid="10231" d="M288.88,672.01c-0.14-0.56-0.78-3.09-2.76-2.72c-1.98,0.37-1.32,3.48,0.21,5.3        C287.86,676.41,289.66,675.16,288.88,672.01z" class="st9"/></g></g><g><path data-cppathid="10232" d="M282.17,658.16c0,0-6.86,1.4-5.74,6.59c1.12,5.19,4.16,11.01,4.6,12.23       C281.47,678.2,282.17,658.16,282.17,658.16z" class="st25"/></g></g><g><path data-cppathid="10233" d="M254.8,619.97c-0.04-0.28-1.02-6.95-1.02-17.12c0-1.28,0.02-2.61,0.05-3.99l3.47,0.09      c-0.03,1.35-0.05,2.65-0.05,3.9c0,9.89,0.97,16.54,0.98,16.61L254.8,619.97z M259.28,578.46l-3.42-0.59      c1.25-7.25,3.07-14.12,5.41-20.43l3.26,1.21C262.26,564.75,260.5,571.42,259.28,578.46z M653.06,554.16      c-6.83-0.07-13.86-0.29-20.89-0.65l0.18-3.47c6.99,0.36,13.96,0.58,20.74,0.65L653.06,554.16z M673.97,553.89l-0.13-3.47      c6.94-0.25,13.9-0.67,20.7-1.25l0.29,3.46C687.99,553.21,680.96,553.64,673.97,553.89z M611.33,552.02      c-6.74-0.61-13.72-1.36-20.76-2.24l0.43-3.45c7,0.87,13.95,1.62,20.65,2.23L611.33,552.02z M715.63,550.33l-0.47-3.44      c6.83-0.93,13.72-2.06,20.46-3.34l0.65,3.41C729.47,548.25,722.52,549.39,715.63,550.33z M569.9,546.89      c-6.57-1.01-13.5-2.16-20.59-3.42l0.61-3.42c7.06,1.25,13.96,2.4,20.51,3.4L569.9,546.89z M756.7,542.54l-0.78-3.38      c6.9-1.59,13.79-3.03,20.47-4.26l0.63,3.41C770.38,539.54,763.55,540.96,756.7,542.54z M273.76,540.49l-2.87-1.95      c4.06-5.99,8.87-11.27,14.29-15.71l2.2,2.69C282.21,529.74,277.63,534.78,273.76,540.49z M528.81,539.64      c-6.32-1.24-13.01-2.59-20.43-4.14l0.71-3.4c7.41,1.54,14.08,2.9,20.39,4.13L528.81,539.64z M797.5,535.03l-0.46-3.44      c7.05-0.94,14.05-1.68,20.81-2.19l0.26,3.46C811.41,533.37,804.48,534.1,797.5,535.03z M487.99,531.18l-20.36-4.37l0.73-3.39      l20.36,4.37L487.99,531.18z M447.26,522.51c-7.44-1.54-14.11-2.87-20.4-4.08l0.66-3.41c6.3,1.21,12.99,2.55,20.44,4.09      L447.26,522.51z M304.72,515.1l-1.36-3.2c6.2-2.63,13.04-4.6,20.32-5.86l0.59,3.42C317.26,510.68,310.68,512.57,304.72,515.1z       M406.42,514.72c-7.1-1.21-14.01-2.28-20.52-3.19l0.48-3.44c6.55,0.92,13.49,1.99,20.62,3.21L406.42,514.72z M365.29,509.02      c-1.99-0.2-3.97-0.39-5.96-0.57c-4.93-0.44-9.76-0.66-14.35-0.66l-0.29-3.47l0.14,0c4.84,0,9.77,0.23,14.8,0.67      c2,0.18,4,0.37,6,0.57L365.29,509.02z" class="st8"/></g></g></g><g><g><path data-cppathid="10234" d="M790.16,567.53c0,1.82,1.48,3.3,3.3,3.3h82.83c1.82,0,3.3-1.48,3.3-3.3v-51.1h-89.43V567.53z" class="st34"/><polygon data-cppathid="10235" points="790.16,516.43 834.87,482.65 879.58,516.43    " class="st35"/><polygon data-cppathid="10236" points="879.58,516.43 790.16,516.43 821.95,540.45 847.79,540.45    " class="st36"/><path data-cppathid="10237" d="M793.45,570.83h82.83c1.82,0,3.3-1.48,3.3-3.3l-31.8-27.08h-25.83l-31.8,27.08     C790.16,569.35,791.63,570.83,793.45,570.83z" class="st37"/><g><defs><polygon data-cppathid="10238" points="790.16,477.33 790.16,516.43 821.95,540.45        847.79,540.45 879.58,516.43 879.58,477.33      " id="SVGID_00000021812288484493767090000010695606815825420206_"/></defs><clipPath id="SVGID_00000008852864565304059550000016757139553480594846_"><use style="overflow:visible;" xlink:href="#SVGID_00000021812288484493767090000010695606815825420206_"/></clipPath><g style="clip-path:url(#SVGID_00000008852864565304059550000016757139553480594846_);"><polygon data-cppathid="10239" points="860.03,492.06 799.07,492.06 799.07,523.16 821.95,540.45 847.79,540.45 870.67,523.16        870.67,502.69 860.03,502.69      " class="st8"/><polygon data-cppathid="10240" points="860.03,502.69 870.67,502.69 860.03,492.06      " class="st39"/><rect data-cppathid="10241" height="2.49" width="23.37" class="st40" y="505.6" x="809.7"/><rect data-cppathid="10242" height="2.49" width="34.33" class="st40" y="513.13" x="809.7"/><rect data-cppathid="10243" height="2.49" width="50.33" class="st40" y="520.66" x="809.7"/><rect data-cppathid="10244" height="2.49" width="50.33" class="st40" y="528.19" x="809.7"/><rect data-cppathid="10245" height="2.49" width="50.33" class="st40" y="535.72" x="809.7"/><polygon data-cppathid="10246" points="860.03,492.06 835.59,492.06 835.59,540.45 847.79,540.45 870.67,523.16 870.67,502.69        860.03,502.69      " class="st41"/></g></g></g><circle data-cppathid="10247" r="16.26" cy="515.47" cx="791.7" class="st19"/><text data-cppathid="10248" class="st8 st42 st43" transform="matrix(1 0 0 1 788.0212 523.7834)">!</text></g></g><g><path data-cppathid="10249" d="M1104.43,22c16.75,0,30.39,13.63,30.39,30.39v975.23c0,16.75-13.63,30.39-30.39,30.39H52.39   c-16.75,0-30.39-13.63-30.39-30.39V52.39C22,35.63,35.63,22,52.39,22H1104.43 M1104.43,20H52.39C34.5,20,20,34.5,20,52.39v975.23   c0,17.89,14.5,32.39,32.39,32.39h1052.04c17.89,0,32.39-14.5,32.39-32.39V52.39C1136.82,34.5,1122.32,20,1104.43,20L1104.43,20z" class="st4"/></g><g><g><g><rect data-cppathid="10250" height="9.53" width="9.53" class="st4" transform="matrix(-1 -1.224647e-16 1.224647e-16 -1 347.2278 92.5796)" y="41.53" x="168.85"/><rect data-cppathid="10251" height="9.53" width="9.53" class="st4" transform="matrix(-1 -1.224647e-16 1.224647e-16 -1 310.5811 92.5796)" y="41.53" x="150.53"/><rect data-cppathid="10252" height="9.53" width="9.53" class="st4" transform="matrix(-1 -1.224647e-16 1.224647e-16 -1 273.9343 92.5796)" y="41.53" x="132.2"/><rect data-cppathid="10253" height="9.53" width="9.53" class="st4" transform="matrix(-1 -1.224647e-16 1.224647e-16 -1 237.2873 92.5796)" y="41.53" x="113.88"/><rect data-cppathid="10254" height="9.53" width="9.53" class="st4" transform="matrix(-1 -1.224647e-16 1.224647e-16 -1 200.6405 92.5796)" y="41.53" x="95.56"/><rect data-cppathid="10255" height="9.53" width="9.53" class="st4" transform="matrix(-1 -1.224647e-16 1.224647e-16 -1 163.9937 92.5796)" y="41.53" x="77.23"/><rect data-cppathid="10256" height="9.53" width="9.53" class="st4" transform="matrix(-1 -1.224647e-16 1.224647e-16 -1 163.9937 129.2264)" y="59.85" x="77.23"/><rect data-cppathid="10257" height="9.53" width="9.53" class="st4" transform="matrix(-1 -1.224647e-16 1.224647e-16 -1 200.6405 129.2264)" y="59.85" x="95.56"/><rect data-cppathid="10258" height="9.53" width="9.53" class="st4" transform="matrix(-1 -1.224647e-16 1.224647e-16 -1 163.9937 165.8732)" y="78.17" x="77.23"/><rect data-cppathid="10259" height="9.53" width="9.53" class="st4" transform="matrix(-1 -1.224647e-16 1.224647e-16 -1 127.3469 92.5796)" y="41.53" x="58.91"/><rect data-cppathid="10260" height="9.53" width="9.53" class="st4" transform="matrix(-1 -1.224647e-16 1.224647e-16 -1 90.7001 92.5796)" y="41.53" x="40.59"/><rect data-cppathid="10261" height="9.53" width="9.53" class="st4" transform="matrix(6.123234e-17 -1 1 6.123234e-17 -129.2037 219.9038)" y="169.79" x="40.59"/><rect data-cppathid="10262" height="9.53" width="9.53" class="st4" transform="matrix(6.123234e-17 -1 1 6.123234e-17 -110.8802 201.5803)" y="151.47" x="40.59"/><rect data-cppathid="10263" height="9.53" width="9.53" class="st4" transform="matrix(6.123234e-17 -1 1 6.123234e-17 -92.5569 183.2569)" y="133.14" x="40.59"/><rect data-cppathid="10264" height="9.53" width="9.53" class="st4" transform="matrix(6.123234e-17 -1 1 6.123234e-17 -74.2334 164.9335)" y="114.82" x="40.59"/><rect data-cppathid="10265" height="9.53" width="9.53" class="st4" transform="matrix(6.123234e-17 -1 1 6.123234e-17 -55.91 146.61)" y="96.5" x="40.59"/><rect data-cppathid="10266" height="9.53" width="9.53" class="st4" transform="matrix(6.123234e-17 -1 1 6.123234e-17 -37.5866 128.2866)" y="78.17" x="40.59"/><rect data-cppathid="10267" height="9.53" width="9.53" class="st4" transform="matrix(6.123234e-17 -1 1 6.123234e-17 -18.6714 147.2017)" y="78.17" x="59.5"/><rect data-cppathid="10268" height="9.53" width="9.53" class="st4" transform="matrix(6.123234e-17 -1 1 6.123234e-17 -36.9948 165.5251)" y="96.5" x="59.5"/><rect data-cppathid="10269" height="9.53" width="9.53" class="st4" transform="matrix(6.123234e-17 -1 1 6.123234e-17 -19.2632 109.9632)" y="59.85" x="40.59"/><rect data-cppathid="10270" height="9.53" width="9.53" class="st4" transform="matrix(6.123234e-17 -1 1 6.123234e-17 -0.9398 128.2867)" y="59.85" x="58.91"/></g></g><g><g><rect data-cppathid="10271" height="9.53" width="9.53" class="st4" y="1028.95" x="976.45"/><rect data-cppathid="10272" height="9.53" width="9.53" class="st4" y="1028.95" x="994.77"/><rect data-cppathid="10273" height="9.53" width="9.53" class="st4" y="1028.95" x="1013.09"/><rect data-cppathid="10274" height="9.53" width="9.53" class="st4" y="1028.95" x="1031.42"/><rect data-cppathid="10275" height="9.53" width="9.53" class="st4" y="1028.95" x="1049.74"/><rect data-cppathid="10276" height="9.53" width="9.53" class="st4" y="1028.95" x="1068.06"/><rect data-cppathid="10277" height="9.53" width="9.53" class="st4" y="1010.63" x="1068.06"/><rect data-cppathid="10278" height="9.53" width="9.53" class="st4" y="1010.63" x="1049.74"/><rect data-cppathid="10279" height="9.53" width="9.53" class="st4" y="992.31" x="1068.06"/><rect data-cppathid="10280" height="9.53" width="9.53" class="st4" y="1028.95" x="1086.39"/><rect data-cppathid="10281" height="9.53" width="9.53" class="st4" y="1028.95" x="1104.71"/><rect data-cppathid="10282" height="9.53" width="9.53" class="st4" transform="matrix(-1.836970e-16 1 -1 -1.836970e-16 2014.9265 -204.0224)" y="900.69" x="1104.71"/><rect data-cppathid="10283" height="9.53" width="9.53" class="st4" transform="matrix(-1.836970e-16 1 -1 -1.836970e-16 2033.25 -185.699)" y="919.01" x="1104.71"/><rect data-cppathid="10284" height="9.53" width="9.53" class="st4" transform="matrix(-1.836970e-16 1 -1 -1.836970e-16 2051.5732 -167.3756)" y="937.34" x="1104.71"/><rect data-cppathid="10285" height="9.53" width="9.53" class="st4" transform="matrix(-1.836970e-16 1 -1 -1.836970e-16 2069.8967 -149.0522)" y="955.66" x="1104.71"/><rect data-cppathid="10286" height="9.53" width="9.53" class="st4" transform="matrix(-1.836970e-16 1 -1 -1.836970e-16 2088.2202 -130.7287)" y="973.98" x="1104.71"/><rect data-cppathid="10287" height="9.53" width="9.53" class="st4" transform="matrix(-1.836970e-16 1 -1 -1.836970e-16 2106.5437 -112.4053)" y="992.31" x="1104.71"/><rect data-cppathid="10288" height="9.53" width="9.53" class="st4" transform="matrix(-1.836970e-16 1 -1 -1.836970e-16 2087.6284 -93.4902)" y="992.31" x="1085.8"/><rect data-cppathid="10289" height="9.53" width="9.53" class="st4" transform="matrix(-1.836970e-16 1 -1 -1.836970e-16 2069.3052 -111.8136)" y="973.98" x="1085.8"/><rect data-cppathid="10290" height="9.53" width="9.53" class="st4" transform="matrix(-1.836970e-16 1 -1 -1.836970e-16 2124.8669 -94.0819)" y="1010.63" x="1104.71"/><rect data-cppathid="10291" height="9.53" width="9.53" class="st4" transform="matrix(-1.836970e-16 1 -1 -1.836970e-16 2106.5437 -75.7585)" y="1010.63" x="1086.39"/></g></g></g><g><g><polygon data-cppathid="10292" points="869.72,738.57 890.17,741.71 884.14,703.49 863.69,700.35   "/><path data-cppathid="10293" d="M871.61,691.18c4.34-3.13-2.83-11.58-6.54-15.53S849.4,661.3,849.4,661.3l-4.49,3.79    c0,0,6.63,12.92,16.27,24.34C862.17,690.61,867.19,694.37,871.61,691.18z" class="st44"/><path data-cppathid="10294" d="M851.13,666.46c0,0-1.39-2.68-1.28-3.8c0.11-1.12-0.45-4.89-1.67-6.29c-1.22-1.4-2.09-4.54-2.17-5.11    c-0.08-0.58-1.12-0.14-1.37,0.95c-0.25,1.09,1.69,4.41,1.22,4.8c-0.47,0.39-7.52-7.52-8.23-7.18c-1.07,0.52,3.99,5.82,3.7,6.18    c-0.64,0.77-5.52-5-6.33-4.47c-1.04,0.68,4.9,6.12,4.55,6.43c-0.35,0.31-6.11-3.65-6.69-2.89c-0.73,0.95,5.66,4.23,5.31,4.77    c-0.21,0.32-4.37-1.05-4.53-0.28c-0.09,0.45,4.31,2.13,5.01,2.5c0.7,0.36,5.71,4.38,6.53,4.18c0.82-0.2,3.22,1.59,3.22,1.59    L851.13,666.46z" class="st45"/><polygon data-cppathid="10295" points="843.96,666.18 847.51,670.07 853.58,664.97 850.29,660.69   " class="st46"/><path data-cppathid="10296" d="M903.08,696.38c-0.31,4.95-4.51,6.17-9.36,5.54c-4.85-0.63-28.97-8.96-29.79-10.31    c-0.83-1.34,0.56-8.37,2.75-8.95c2.2-0.58,23.77,3.38,27.67,4.58C898.26,688.46,903.45,690.57,903.08,696.38z" class="st44"/><path data-cppathid="10297" d="M918.69,666.55c0,0,0.73,14.72,1.59,15.42c2.68,2.2,12.36,4.02,14.19,7.87c2.22,4.67-9.67,25.76-11.2,32.72    c-1.53,6.96,1.79,17.7,2.89,24.51c1.09,6.81-20.29,15.19-21.07,15.19c-0.79,0-7.73-6.4-9.05-8.62c-1.33-2.22-0.14-19.7-0.17-24.15    c-0.03-4.46-1.16-20.07-1.37-21.09c-1.38-6.81,0.34-12.2,0.59-13.65c0.25-1.44,0.16-3.85,0.88-4.78c1.43-1.84,9.43-4.32,9.55-5.24    c0.13-0.92,1.13-13.7,1.13-13.7L918.69,666.55z" class="st45"/><path data-cppathid="10298" d="M920.28,681.97l-12.87,7.79l-1.88-5.02c0,0-8.47,3.39-9.55,5.24c-1.09,1.84-1.59,5.82-1.94,7.3    c-0.35,1.48-0.52,8.3,0.09,14.21c0.36,3.46,0.3,8.03,0.86,13.92c0.48,5.04-1.38,14.57,0.49,17.55c0.33,0.53,4.33,0.22,11.79-0.19    c8.64-0.47,18.31-0.52,18.69-0.85c1.66-1.38-1.68-16.08-1.39-17.56c0.29-1.48,10.76-27.19,10.91-30.55    c0.15-3.36-1.59-5.57-4.14-6.82C928.8,685.75,920.28,681.97,920.28,681.97z" class="st47"/><path data-cppathid="10299" d="M930.22,687.76c0,0-5.26-1.79-9.45,3.15c-8.73,10.31,3.48,25.79-19.9,23.49c-7-0.69-4.94,5.35-5.81,17.27    c-0.79,10.73,1.13,11.35,1.13,11.35l29.07-0.74c3.47,0.66-0.63-18.04,0.66-21.64c1.3-3.6,7.44-21.69,7.5-24.39    S930.22,687.76,930.22,687.76z" class="st44"/><polygon data-cppathid="10300" points="906.22,676.58 906.66,671.04 919.26,671.8 919.62,679.53 915.6,682   " class="st17"/><path data-cppathid="10301" d="M910.29,650.46c4.03-1.9,14.09-1.65,16.72,5.83c2.63,7.49-1.22,12.86-4.83,15.81    c-2.81,2.3-5.17,3.32-9.36,3.83c-0.85,0.1-8.01-0.84-9.23-1.73c-0.83-0.61,0.57-7.59,0.29-7.65c-0.28-0.06-0.91-0.7-0.77-1.26    c0.19-0.82,2.57-5.41,2.54-5.98C905.61,658.74,905.67,652.64,910.29,650.46z" class="st45"/><path data-cppathid="10302" d="M907.47,652.89c0,0,6.08-1.3,10.69,6.58c0.99,1.7-3.3,6.25-3.1,6.84c0.21,0.63,6.34-2.34,5.96-1.79    c-3.81,5.64-2.84,9.7-2.28,9.91c1.69,0.65,9.73-6.47,9.31-14.38c-0.42-7.92-7.8-11-9.74-11.19    C916.37,648.67,910.75,647.36,907.47,652.89z"/><path data-cppathid="10303" d="M917.56,664.96c-1.22,1.79-2.34,4.37-1.37,5.03c0.97,0.65,2.75-0.27,3.98-2.06s1.43-3.77,0.45-4.42    C919.65,662.85,918.78,663.17,917.56,664.96z" class="st45"/><g><rect data-cppathid="10304" height="1.56" width="8.36" class="st48" transform="matrix(-1 -1.224647e-16 1.224647e-16 -1 1821.2043 1734.9714)" y="866.71" x="906.42"/><path data-cppathid="10305" d="M914.45,855.72c1.09,1.53,1.84,4.5,1.94,5.87c0.13,1.65-0.85,5.12-1.93,5.12c-3.16,0-6.94,0.13-10.2,0.57     c-3.26,0.44-4.48,2.31-12.81,2.29c-2.43-0.01-6.85-0.16-6.72-1.15c0.13-0.99,8-2.78,10.53-5.12c6.42-5.92,10.7-7.35,10.7-7.35     S914.23,855.4,914.45,855.72z"/></g><path data-cppathid="10306" d="M921.07,749.58c0,0,0.55,3.39,1.05,8.24c0.51,4.85-4.18,20.38-5.84,32.59c-1.66,12.21-2.69,14.68-2.27,17.57    c0.41,2.88,4.04,14.57,3.58,22.34c-0.46,7.77-2.02,28.1-2.02,28.1s-2.3,1.04-6.3,1.43c-4,0.39-6.78-3.06-6.78-3.06    s-3.22-45.41-3.73-50.2c-0.33-3.1-2.87-24.49-3.64-41.94c-0.25-5.61,0.39-18.59,0.39-20.91    C895.5,742.12,921.07,749.58,921.07,749.58z" class="st48"/><g><polygon data-cppathid="10307" points="917.63,871.14 925.98,870.62 925.87,869.01 917.53,869.54    "/><path data-cppathid="10308" d="M924.82,857.71c1.19,1.51,2.13,4.52,2.33,5.93c0.24,1.69-0.51,5.33-1.59,5.4c-3.15,0.2-6.92,0.57-10.14,1.22     c-3.22,0.66-4.32,2.66-12.64,3.17c-2.43,0.15-6.85,0.26-6.79-0.76c0.06-1.03,7.8-3.37,10.17-5.94c6.01-6.5,10.19-8.24,10.19-8.24     S924.57,857.4,924.82,857.71z"/></g><path data-cppathid="10309" d="M926.26,741.67c0,0,2.77,7.26,2.69,13.27c-0.07,4.88-1.47,13.83-3.13,26.04    c-1.66,12.21-1.82,23.57-1.4,26.45c0.41,2.88,4.27,15.11,3.81,22.88c-0.46,7.77-2.57,26.95-2.57,26.95s-2.44,2.13-6.44,2.52    c-4,0.39-6.37-1.32-6.37-1.32s-4.67-45.49-6.48-49.97c-2.88-7.14-2.88-29.43-4.87-44.77c-0.18-1.4-0.84-5.91-1.15-7.81    c-1.04-6.5-2.38-11.85-2.38-11.85L926.26,741.67z" class="st49"/><polygon data-cppathid="10310" points="907.96,686.7 907.41,689.76 914.19,685.7   " class="st44"/><polygon data-cppathid="10311" points="907.41,689.76 906.31,685.97 904.68,687.26   " class="st44"/><polygon data-cppathid="10312" points="906.31,685.97 903.55,689.17 903.1,685.77 905.41,683.53   " class="st46"/><path data-cppathid="10313" d="M926.39,741.49c0,0-8.63,0.58-17.19,0.91c-8.56,0.33-13.72,0.56-13.72,0.56l-0.05,3.39c0,0,8.78,0.2,17.81-0.35    c8.92-0.54,14-1.33,14-1.33L926.39,741.49z"/><path data-cppathid="10314" d="M900.26,746.38h-3.64c-0.34,0-0.61-0.27-0.61-0.61v-2.4c0-0.34,0.27-0.61,0.61-0.61h3.64c0.34,0,0.61,0.27,0.61,0.61v2.4    C900.87,746.1,900.6,746.38,900.26,746.38z"/><polygon data-cppathid="10315" points="908.87,688.85 904.91,687.89 904.68,691.78 906.8,692.37   " class="st7"/><path data-cppathid="10316" d="M906.8,692.37c0,0-3.29,10.11-4.15,17.96c-0.86,7.85-0.29,31.69-0.29,31.69l-4.05,5.12l-2.13-5.47    c0,0,1.54-23.67,3.34-32.13c1.8-8.46,5.16-17.76,5.16-17.76L906.8,692.37z" class="st7"/><polygon data-cppathid="10317" points="922.06,682.75 919.62,679.53 907.96,686.7 909.84,690.86   " class="st46"/><path data-cppathid="10318" d="M928.09,687.6c4.99-1.15,7.39,3.08,8.17,8.59c0.78,5.51-0.54,34.5-1.63,35.81    c-1.09,1.31-8.43,1.92-9.64-0.31s-3.49-27.11-3.42-31.75C921.65,695.29,922.25,688.95,928.09,687.6z" class="st47"/><path data-cppathid="10319" d="M934.64,732.45c0.19,5.55-11.98,4.93-17.9,4.35c-5.92-0.59-23-3.94-23-3.94l0.28-6.09    c0,0,15.68-2.63,32.09-1.83C927.8,725.01,934.45,726.8,934.64,732.45z" class="st47"/><g><path data-cppathid="10320" d="M882.29,733.53L882.29,733.53c-0.08-0.59,0.36-1.14,0.97-1.22l4.83-0.63c0.62-0.08,1.2,0.34,1.29,0.93     l0,0.01c0.08,0.59-0.36,1.13-0.98,1.21l-4.83,0.63C882.95,734.54,882.37,734.12,882.29,733.53z" class="st17"/><path data-cppathid="10321" d="M881.8,731.56L881.8,731.56c-0.08-0.59,0.36-1.14,0.97-1.22l4.83-0.63c0.62-0.08,1.2,0.34,1.29,0.93l0,0.01     c0.08,0.59-0.36,1.13-0.98,1.21l-4.83,0.63C882.46,732.56,881.88,732.15,881.8,731.56z" class="st17"/><path data-cppathid="10322" d="M881.45,729.61L881.45,729.61c-0.08-0.59,0.36-1.14,0.97-1.22l4.83-0.63c0.62-0.08,1.2,0.34,1.29,0.93     l0,0.01c0.08,0.59-0.36,1.13-0.98,1.21l-4.83,0.63C882.11,730.61,881.53,730.2,881.45,729.61z" class="st17"/><path data-cppathid="10323" d="M881.29,727.7L881.29,727.7c-0.08-0.59,0.36-1.14,0.97-1.22l4.83-0.63c0.62-0.08,1.2,0.34,1.29,0.93l0,0.01     c0.08,0.59-0.36,1.13-0.98,1.21l-4.83,0.63C881.96,728.71,881.38,728.29,881.29,727.7z" class="st17"/><path data-cppathid="10324" d="M898.54,726.87c0,0-7.76-2.12-9.33-2.1c-1.57,0.02-7.41,1.89-7.41,1.89s2.13,1.68,2.12,3.02     c0,1.33-0.35,4.78-0.35,4.78s5.31,0.63,7.75,0.16c2.44-0.46,4.73-1.45,4.73-1.45L898.54,726.87z" class="st17"/></g><polygon data-cppathid="10325" points="894.1,734.15 900.03,734.31 900.28,725.81 894.35,725.66   " class="st46"/><path data-cppathid="10326" d="M922.06,660.69c0,0,0.81,3.84,1.98,5.18c1.17,1.33,2.54,1.86,2.54,1.86l-0.93,1.4c0,0-1.52-0.7-2.67-2.24    c-1.15-1.54-2.35-4.82-2.67-6.67C919.99,658.37,922.06,660.69,922.06,660.69z" class="st8"/><path data-cppathid="10327" d="M907.6,650.38c0,0,5.72-7.38,14.3-5.21c5.95,1.5,8.76,6.69,9.06,10.09c0.32,3.64-0.96,7.51-0.96,7.51    s-7.61-1.95-10.11-3.16C917.4,658.4,909.16,653.51,907.6,650.38z" class="st8"/><path data-cppathid="10328" d="M904.25,650.11c-0.19,0.56,1.67,2.89,14.19,9.02c10.59,5.19,11.93,4.85,12.15,4.47    c0.21-0.38,0.06-0.65-0.58-0.82c-0.64-0.17-10.24-3.25-16.01-7.02c-5.78-3.78-5.78-6.17-5.78-6.17S904.58,649.16,904.25,650.11z" class="st8"/><path data-cppathid="10329" d="M927.56,654.33c0.33-2.2-0.2-5.59-3.31-8.3c4.73,2.3,6.45,6.27,6.71,9.23c0.32,3.64-0.96,7.51-0.96,7.51    s-2.7,0.21-10.74-3.87C923.38,659.71,927.09,657.48,927.56,654.33z" class="st8"/></g><g><g><polygon data-cppathid="10330" points="1006.12,872.98 1014.08,870.93 1013.69,869.4 1005.72,871.45    "/><path data-cppathid="10331" d="M1010.58,858.67c1.43,1.24,2.89,3.98,3.35,5.3c0.54,1.59,0.49,5.24-0.54,5.51c-3.01,0.77-6.58,1.82-9.57,3.05     c-2.99,1.23-3.43,5.39-11.63,5.39c-2.99,0-6.44-0.14-6.44-1.15c0-6.85,6.66-3.03,8.48-5.95c4.61-7.39,8.32-9.84,8.32-9.84     S1010.28,858.42,1010.58,858.67z"/></g><path data-cppathid="10332" d="M945.51,680.62c2.95,4.81,12.41-2.05,16.86-5.63c4.45-3.58,16.35-15.33,16.35-15.33l-3.63-5.03    c0,0-13.66,6.02-26.9,15.16C944.43,672.39,942.51,675.72,945.51,680.62z" class="st5"/><g><path data-cppathid="10333" d="M982.21,648.8L982.21,648.8c0.39,0.42,0.36,1.08-0.05,1.46l-3.27,3c-0.42,0.39-1.09,0.36-1.48-0.06l0,0     c-0.39-0.42-0.36-1.08,0.06-1.46l3.27-3C981.16,648.35,981.82,648.38,982.21,648.8z" class="st17"/><path data-cppathid="10334" d="M983.68,650.1L983.68,650.1c0.39,0.42,0.37,1.08-0.05,1.47l-3.27,3c-0.42,0.39-1.09,0.36-1.48-0.06l0,0     c-0.39-0.42-0.36-1.08,0.06-1.46l3.27-3C982.62,649.65,983.29,649.68,983.68,650.1z" class="st17"/><path data-cppathid="10335" d="M985.02,651.45L985.02,651.45c0.39,0.42,0.37,1.08-0.05,1.47l-3.27,3c-0.42,0.39-1.09,0.36-1.48-0.06l0,0     c-0.39-0.42-0.36-1.08,0.06-1.46l3.27-3C983.97,651,984.63,651.03,985.02,651.45z" class="st17"/><path data-cppathid="10336" d="M986.2,652.88L986.2,652.88c0.39,0.42,0.37,1.08-0.05,1.47l-3.27,3c-0.42,0.39-1.09,0.36-1.48-0.06l0,0     c-0.39-0.42-0.36-1.08,0.06-1.46l3.27-3C985.15,652.43,985.81,652.46,986.2,652.88z" class="st17"/><path data-cppathid="10337" d="M973.75,662.49c0,0,6.98-2.36,8.15-3.19s4.5-5.34,4.5-5.34s-2.53-0.22-3.27-1.28     c-0.74-1.05-2.39-3.95-2.39-3.95s-4.32,2.26-5.89,3.9c-1.57,1.63-2.74,3.6-2.74,3.6L973.75,662.49z" class="st17"/></g><polygon data-cppathid="10338" points="974.01,653.55 969.64,656.97 974.51,663.76 979.28,660.64   " class="st50"/><path data-cppathid="10339" d="M980.31,702.07c-2.54,4.58-7.08,3.85-11.42,1.06c-4.34-2.78-23.56-21.62-23.74-23.27    c-0.18-1.65,4.31-7.73,6.66-7.29c2.36,0.44,21.14,13.95,24.31,16.86C979.28,692.34,983.28,696.7,980.31,702.07z" class="st5"/><path data-cppathid="10340" d="M998.81,670.76c0,0-0.06,15.1,0.78,15.87c2.62,2.4,12.43,4.79,14.09,8.83c2.02,4.9-11.31,25.84-13.26,32.88    c-1.95,7.04,0.86,18.21,1.61,25.24c0.74,7.03-21.6,14.43-22.41,14.39c-0.81-0.04-7.56-6.98-8.79-9.32    c-1.23-2.34,0.94-20.17,1.16-24.73c0.22-4.56-0.08-20.6-0.24-21.66c-1.04-7.05,1.02-12.47,1.36-13.94    c0.34-1.46,0.38-3.94,1.16-4.85c1.56-1.81,9.89-3.9,10.07-4.83c0.18-0.93,1.91-13.96,1.91-13.96L998.81,670.76z" class="st45"/><path data-cppathid="10341" d="M999.59,686.63l-13.6,7.27l-1.65-5.25c0,0-7.16,0.69-8.38,2.51c-1.21,1.82-3.64,8.19-4.08,9.69    c-0.44,1.5-0.99,8.47-0.69,14.55c0.18,3.56-0.13,8.24,0.12,14.3c0.22,5.19-0.96,18.02-0.96,18.02s4.92,0.44,12.58,0.43    c8.87-0.01,19.2-0.72,19.61-1.03c1.77-1.32-1.27-15.36-0.89-16.86c0.38-1.5,12.5-27.24,12.84-30.67c0.34-3.43-1.32-5.78-3.86-7.2    C1008.1,690.97,999.59,686.63,999.59,686.63z" class="st5"/><path data-cppathid="10342" d="M1008.77,691.67c0,0,3.06,7.78,0.13,11.41s-13.2,17.89-16.58,18.74c-12.05,3.05-3.14,12.7-5.05,19.9    c-0.71,2.69-12.48,5.98-12.48,5.98l27.15-0.62c3.51,0.87-0.23-16.95,1.3-20.56c1.52-3.61,9.45-19.29,9.02-24.55    C1012.03,699.22,1008.77,691.67,1008.77,691.67z" class="st50"/><polygon data-cppathid="10343" points="985.49,680.33 999.1,676.17 999.05,684.1 994.8,686.4   " class="st17"/><path data-cppathid="10344" d="M989.44,654.86c4.18-1.83,14.48-1.31,16.98,6.43c2.49,7.74-1.6,13.15-5.38,16.07    c-2.94,2.28-5.38,3.26-9.69,3.67c-0.88,0.08-8.19-1.08-9.41-2.02c-0.83-0.64,0.79-7.77,0.5-7.83c-0.28-0.07-0.91-0.74-0.76-1.31    c0.22-0.83,2.78-5.47,2.76-6.06C984.42,663.21,984.64,656.96,989.44,654.86z" class="st45"/><path data-cppathid="10345" d="M986.48,657.27c0,0,6.27-1.17,10.78,7.03c0.97,1.76-3.55,6.32-3.36,6.92c0.2,0.65,6.56-2.22,6.16-1.67    c-4.05,5.67-3.17,9.86-2.61,10.1c1.71,0.72,10.14-6.36,9.93-14.49c-0.21-8.12-7.69-11.48-9.68-11.73    C995.72,653.19,989.99,651.7,986.48,657.27z" class="st51"/><path data-cppathid="10346" d="M996.49,669.91c-1.3,1.8-2.52,4.42-1.54,5.11c0.98,0.69,2.83-0.2,4.13-2c1.3-1.8,1.56-3.83,0.59-4.52    C998.7,667.8,997.8,668.11,996.49,669.91z" class="st45"/><g><rect data-cppathid="10347" height="1.53" width="8.22" transform="matrix(-0.999 0.0444 -0.0444 -0.999 1996.3837 1699.1211)" y="870.98" x="975.2"/><path data-cppathid="10348" d="M982.58,860.01c1.14,1.46,2,4.34,2.17,5.68c0.2,1.61-0.61,5.07-1.68,5.12c-3.11,0.14-6.81,0.43-10,1     c-3.18,0.57-4.3,2.47-12.5,2.81c-2.39,0.1-6.66-0.67-6.66-1.65c0-6.92,9.02-3.52,11.41-5.93c6.05-6.1,8.91-6.44,8.91-6.44     S982.35,859.71,982.58,860.01z"/></g><path data-cppathid="10349" d="M995.67,748.88c0,0-0.48,11.98-0.27,16.78c0.21,4.8-5.31,19.77-7.67,31.66c-2.35,11.9-3.51,14.26-3.27,17.12    c0.24,2.86,2.28,13.96,2.17,21.62c-0.12,7.66-1.85,26.68-1.85,26.68s-3.16,1.73-7.11,1.55c-3.98-0.19-7.54-1.77-7.54-1.77    s-2.62-44.75-2.84-49.49c-0.14-3.06,0.01-25.07,0.28-42.24c0.09-5.53,1.37-21.37,1.51-23.65L995.67,748.88z" class="st16"/><path data-cppathid="10350" d="M1004.66,751.65c0,0,0.36,1.95,0.69,7.94c0.27,4.86-0.5,13.85-1.3,26.1c-0.8,12.25-3.91,22.64-2.97,25.38    c0.94,2.75,6.96,14.01,7.96,21.71c1.01,7.7,3.34,26.9,3.34,26.9s-2.74,2.51-6.53,3.63c-3.8,1.12-7.55,0.99-7.55,0.99    s-11.88-44.8-14.46-48.85c-4.12-6.47-2.75-29.41-5.76-44.54c-0.67-3.4-0.21-3.49-1.03-10.15c-0.92-7.47,1.84-17.42,1.84-17.42    L1004.66,751.65z" class="st10"/><polygon data-cppathid="10351" points="986.72,690.79 985.99,693.9 993.15,690.11   " class="st5"/><polygon data-cppathid="10352" points="985.99,693.9 985.07,689.96 983.33,691.18   " class="st5"/><path data-cppathid="10353" d="M983.08,688.96c0,0-5.03,0.17-6.45,1.29c-3.59,2.82-6.58,11.58-7.07,17.68c-0.49,6.1-3.94,46.85-3.94,46.85    l6.83,1.21l0.72-12.58l6.57-31.97c0,0-0.14-8.03,1.06-14.74C981.32,693.84,983.08,688.96,983.08,688.96z" class="st7"/><path data-cppathid="10354" d="M1000.64,665.56c0,0,0.91,3.86,2.12,5.17c1.21,1.31,2.6,1.8,2.6,1.8l-0.9,1.44c0,0-1.55-0.67-2.74-2.18    c-1.19-1.52-2.49-4.8-2.86-6.65C998.5,663.28,1000.64,665.56,1000.64,665.56z" class="st8"/><path data-cppathid="10355" d="M985.82,655.57c0,0,5.29-8.55,14.88-6.33c6.85,1.59,8.38,7.17,8.76,10.59c0.41,3.66-0.77,7.61-0.77,7.61    s-7.71-1.75-10.26-2.9C995.89,663.38,987.47,658.68,985.82,655.57z" class="st8"/><path data-cppathid="10356" d="M982.61,654.25c-0.18,0.57,1.26,4.42,14.01,10.26c10.79,4.94,12.46,4.14,12.67,3.74    c0.2-0.39,0.04-0.66-0.61-0.81c-0.65-0.15-10.39-2.99-16.3-6.63c-5.91-3.65-5.98-6.06-5.98-6.06S982.92,653.28,982.61,654.25z" class="st8"/><path data-cppathid="10357" d="M1006.02,658.99c0.28-2.23,0.27-6.3-2.93-8.95c4.83,2.19,6.04,6.8,6.37,9.79c0.41,3.66-0.77,7.61-0.77,7.61    s-2.71,0.29-10.91-3.6C1001.95,664.54,1005.62,662.18,1006.02,658.99z" class="st8"/><polygon data-cppathid="10358" points="1001.37,687.53 999.05,684.1 986.72,690.79 988.42,695.15   " class="st50"/><polygon data-cppathid="10359" points="985.07,689.96 982.07,693.08 982.07,688.96 984.29,687.41   " class="st50"/><path data-cppathid="10360" d="M1004.72,694.01c3.32-4.06,7.88-2.2,11.9,1.69c4.03,3.9,20.84,27.8,20.77,29.53    c-0.07,1.73-5.63,6.84-7.99,5.82c-2.35-1.02-19.55-19.38-22.35-23.12C1004.25,704.19,1000.83,698.77,1004.72,694.01z" class="st5"/><path data-cppathid="10361" d="M1010.92,692.58l-8.82-4.68c0,0-7.24,5.02-11.15,9.03c-6.91,7.06-11.2,14.51-11.2,14.51l-6.57,31.97    l-0.72,12.58c0,0,7.83,0.96,14.08,1.16c12.11,0.39,20.61-0.57,20.61-0.57s-1.2-22.09-0.96-28.49c0.09-2.36,2.36-13.37,2.36-13.37    s-3.48-3.32-2.36-10.15C1007.14,698.71,1010.92,692.58,1010.92,692.58z" class="st7"/><path data-cppathid="10362" d="M1006.56,744.29c0,0-12.1,1.07-25.07,0.37c-12.97-0.7-14.87-1.63-14.87-1.63l-0.37,4.36    c0,0,4.28,1.02,18.97,1.68c14.69,0.66,21.52-0.6,21.52-0.6L1006.56,744.29z" class="st8"/><path data-cppathid="10363" d="M1006.33,735.94c0,0-12.1,1.07-25.07,0.37c-12.97-0.7-13.95-1.38-13.95-1.38l-0.44,4.27    c0,0,3.43,0.86,18.12,1.52c14.69,0.66,21.52-0.6,21.52-0.6L1006.33,735.94z" class="st8"/><path data-cppathid="10364" d="M1037.29,724.96c3.7,4.33-5.91,11.19-10.76,14.31c-4.86,3.11-19.93,10.75-19.93,10.75l-3.68-5.05    c0,0,10.18-11.59,23.12-20.88C1027.35,723.14,1033.53,720.55,1037.29,724.96z" class="st5"/><g><path data-cppathid="10365" d="M998.36,757.48L998.36,757.48c-0.44-0.42-0.46-1.12-0.04-1.56l3.26-3.42c0.42-0.44,1.12-0.46,1.57-0.04l0,0     c0.44,0.42,0.45,1.12,0.04,1.56l-3.26,3.42C999.5,757.89,998.8,757.91,998.36,757.48z" class="st45"/><path data-cppathid="10366" d="M996.72,756.2L996.72,756.2c-0.44-0.42-0.46-1.12-0.04-1.56l3.26-3.42c0.42-0.44,1.12-0.46,1.57-0.04l0,0     c0.44,0.42,0.45,1.12,0.04,1.56l-3.26,3.42C997.87,756.61,997.16,756.62,996.72,756.2z" class="st45"/><path data-cppathid="10367" d="M995.21,754.85L995.21,754.85c-0.44-0.42-0.46-1.12-0.04-1.56l3.26-3.42c0.42-0.44,1.12-0.46,1.57-0.04l0,0     c0.44,0.42,0.45,1.12,0.04,1.56l-3.26,3.42C996.36,755.26,995.65,755.28,995.21,754.85z" class="st45"/><path data-cppathid="10368" d="M993.87,753.42L993.87,753.42c-0.44-0.42-0.46-1.12-0.04-1.56l3.26-3.42c0.42-0.44,1.12-0.46,1.57-0.04l0,0     c0.44,0.42,0.45,1.12,0.04,1.56l-3.26,3.42C995.02,753.82,994.31,753.84,993.87,753.42z" class="st45"/><path data-cppathid="10369" d="M1006.39,742.33c0,0-7.22,2.99-8.4,3.96c-1.18,0.97-4.4,5.99-4.4,5.99s2.69,0.06,3.54,1.13     c0.85,1.07,2.79,4.04,2.79,4.04s4.42-2.71,5.97-4.56c1.55-1.85,2.66-4.02,2.66-4.02L1006.39,742.33z" class="st45"/></g><rect data-cppathid="10370" height="8.71" width="5.74" class="st50" transform="matrix(-0.7983 0.6023 -0.6023 -0.7983 2260.6096 734.0958)" y="741.28" x="1004.49"/></g></g><g><g><g><polygon data-cppathid="10371" points="744.43,865.51 751.75,861.81 751.03,860.4 743.71,864.1    "/><path data-cppathid="10372" d="M745.7,850.62c1.66,0.9,3.67,3.25,4.39,4.44c0.87,1.43,1.6,5,0.65,5.48c-2.77,1.4-6.01,3.19-8.67,5.03     c-2.65,1.84-4.95,7.18-8.43,7.36c-2.38,0.13-8.99-0.34-9.06-1.34c-0.39-6.08,7.04-3.49,8.18-6.73     c2.91-8.19,5.59-10.26,5.59-10.26S745.36,850.44,745.7,850.62z"/></g><g><rect data-cppathid="10373" height="1.53" width="8.2" transform="matrix(-0.9998 0.0216 -0.0216 -0.9998 1371.5063 1721.1271)" y="867.2" x="672.36"/><path data-cppathid="10374" d="M679.99,856.34c1.11,1.48,1.9,4.38,2.03,5.71c0.16,1.61-0.73,5.04-1.79,5.06c-3.1,0.07-6.8,0.27-9.99,0.77     c-3.19,0.5-3.54,1.77-11.71,1.92c-2.39,0.05-5.71-0.02-5.71-0.99c0-6.96,8.57-4.21,11.01-6.56c6.17-5.94,7.83-5.51,7.83-5.51     S679.76,856.04,679.99,856.34z"/></g><path data-cppathid="10375" d="M709.1,750.08c0,0-2.13,11.77-2.59,16.53c-0.46,4.76-7.99,18.78-11.96,30.2    c-3.97,11.42-5.44,13.59-5.6,16.45c-0.16,2.85,0.32,14.1-0.86,21.64c-1.18,7.55-6.47,25.82-6.47,25.82s-2.34,0.8-6.29,0.81    c-3.95,0-6.34-3.62-6.34-3.62s2.75-43.72,3.19-48.43c0.29-3.04,4.62-24.62,7.27-41.54c0.85-5.44,4.04-19.09,4.49-21.32    L709.1,750.08z" class="st52"/><path data-cppathid="10376" d="M715.77,743.63c0,0,3.17,3.51,3.96,9.36c0.86,6.38,0.86,16.34,1.78,28.48c0.91,12.06,2.88,21.54,4.36,23.97    c1.49,2.44,9.7,11.97,12.29,19.15c2.59,7.19,9.57,25.1,9.57,25.1s-2.82,3.05-6.28,4.95c-3.46,1.9-8,1.61-8,1.61    s-20.07-39.53-23.43-42.87c-5.36-5.32-8.84-27.69-14.92-41.59c-1.37-3.12-0.94-3.31-3.13-9.54c-2.46-6.98-1.86-17.15-1.86-17.15    L715.77,743.63z" class="st27"/><path data-cppathid="10377" d="M702.3,668.61c0,0,1.87,14.94,2.8,15.6c2.9,2.04,12.9,3.15,15.06,6.93c2.62,4.59-7.88,27-8.9,34.21    c-1.02,7.21,3.19,17.9,4.82,24.75c1.64,6.86-18.38-0.44-19.18-0.37c-0.8,0.07-9.29,7.57-10.81,5.41    c-1.52-2.16-1.85-16.09-2.23-20.63c-0.37-4.54-2.72-20.36-3.01-21.38c-1.93-6.84-0.59-12.46-0.44-13.95    c0.15-1.49-0.13-3.94,0.53-4.94c1.32-1.99,9.28-5.12,9.34-6.07c0.06-0.95,0.11-14.05,0.11-14.05L702.3,668.61z" class="st45"/><path data-cppathid="10378" d="M705.44,684.13l-12.73,9.1l-2.35-5.06c0,0-7.12,1.63-8.1,3.63c-0.98,2-2.58,8.72-2.83,10.28    c-0.25,1.56,0.11,8.65,1.22,14.73c0.65,3.56,0.95,8.31,1.99,14.37c0.9,5.19,1.4,18.25,1.4,18.25s5.01-0.2,12.72-1.22    c8.92-1.17,19.22-3.24,19.6-3.61c1.61-1.56-3.29-15.29-3.1-16.85c0.19-1.56,9.01-29.05,8.9-32.54c-0.11-3.5-2.08-5.65-4.83-6.74    C714.56,687.38,705.44,684.13,705.44,684.13z" class="st10"/><path data-cppathid="10379" d="M689.13,688.63c0,0-5.03,0.83-6.32,2.14c-3.24,3.31-5.11,12.51-4.79,18.72c0.31,6.21,2.18,47.65,2.18,47.65    l7.03,0.32l-0.93-12.75l2.41-33.02c0,0-1.2-8.06-0.86-14.97C688,693.78,689.13,688.63,689.13,688.63z" class="st7"/><polygon data-cppathid="10380" points="691.27,689.38 688.65,692.91 688.11,688.77 690.14,686.92   " class="st53"/><path data-cppathid="10381" d="M717.61,688.63l-9.49-3.56c0,0-6.62,6-10.04,10.55c-6.03,8.01-9.37,16.07-9.37,16.07l-2.41,33.02l0.93,12.75    c0,0,8-0.06,14.32-0.68c12.23-1.2,20.66-3.28,20.66-3.28s-4.1-22.07-4.7-28.54c-0.22-2.39,0.62-13.76,0.62-13.76    s-3.93-2.89-3.71-9.9C714.61,695.3,717.61,688.63,717.61,688.63z" class="st7"/><path data-cppathid="10382" d="M720.01,741.23c0,0-12.03,2.67-25.18,3.66c-13.14,0.99-15.17,0.31-15.17,0.31l0.2,4.43    c0,0,4.44,0.47,19.3-0.8c14.86-1.27,21.58-3.43,21.58-3.43L720.01,741.23z" class="st8"/><path data-cppathid="10383" d="M718.68,732.86c0,0-12.03,2.67-25.18,3.66c-13.14,0.99-14.22,0.44-14.22,0.44l0.12,4.35    c0,0,3.56,0.42,18.43-0.85c14.86-1.27,21.58-3.43,21.58-3.43L718.68,732.86z" class="st8"/><polygon data-cppathid="10384" points="690.36,679.78 703.28,673.92 704.52,682.61 701.42,686.59   " class="st17"/><path data-cppathid="10385" d="M690.99,654.09c3.9-2.35,14.15-3.15,17.61,4.18c3.46,7.34,0.1,13.21-3.26,16.58    c-2.62,2.63-4.91,3.92-9.11,4.87c-0.86,0.19-8.23-0.02-9.56-0.79c-0.91-0.53-0.22-7.78-0.51-7.81c-0.29-0.03-0.99-0.61-0.92-1.2    c0.11-0.85,2.05-5.77,1.96-6.35C687.1,662.99,686.52,656.78,690.99,654.09z" class="st45"/><path data-cppathid="10386" d="M688.38,656.85c0,0,6.05-1.96,11.56,5.57c1.19,1.62-2.7,6.7-2.44,7.28c0.28,0.62,6.2-3.04,5.87-2.44    c-3.28,6.13-1.87,10.16-1.29,10.32c1.78,0.49,9.22-7.59,7.97-15.6c-1.25-8.01-9.08-10.37-11.07-10.36    C696.99,651.63,691.14,650.89,688.38,656.85z" class="st51"/><path data-cppathid="10387" d="M699.9,668.07c-1.06,1.95-1.92,4.69-0.86,5.25c1.06,0.56,2.77-0.56,3.83-2.51c1.06-1.95,1.06-3.98,0-4.55    C701.81,665.7,700.96,666.12,699.9,668.07z" class="st45"/><path data-cppathid="10388" d="M703.45,663.23c0,0,1.39,3.7,2.76,4.84c1.37,1.14,2.8,1.45,2.8,1.45l-0.7,1.54c0,0-1.62-0.46-2.99-1.81    c-1.37-1.35-3.08-4.43-3.68-6.21C701.04,661.25,703.45,663.23,703.45,663.23z" class="st8"/><path data-cppathid="10389" d="M687.51,655.25c0,0,4.13-9.13,13.9-8.16c6.97,0.69,9.2,6.01,10.02,9.35c0.88,3.57,0.21,7.62,0.21,7.62    s-7.85-0.74-10.51-1.56C698.47,661.69,689.54,658.12,687.51,655.25z" class="st8"/><path data-cppathid="10390" d="M684.17,654.36c-0.11,0.59,1.81,4.21,15.17,8.35c11.3,3.5,12.85,2.49,13.01,2.08    c0.15-0.41-0.04-0.66-0.71-0.73c-0.66-0.07-10.65-1.62-16.97-4.47s-6.69-5.23-6.69-5.23S684.35,653.36,684.17,654.36z" class="st8"/><path data-cppathid="10391" d="M707.92,656.05c-0.01-2.24-0.54-6.26-4.05-8.47c5.05,1.55,6.84,5.95,7.55,8.86c0.88,3.57,0.21,7.62,0.21,7.62    s-2.65,0.64-11.25-2.17C704.6,662.06,707.93,659.26,707.92,656.05z" class="st8"/><path data-cppathid="10392" d="M659.32,716.58c0,0-4.62,0.18-5.75-2.58c-1.13-2.76,0.33-6.12,0.46-6.96c0.53-3.49-2.43-6.89-2.47-9.03    c-0.05-2.14,1.27-2.41,1.54-1.67c1.51,4.16,3.73,6.24,4.16,8.16c0.44,1.92,4,8.49,4,8.49L659.32,716.58z" class="st45"/><path data-cppathid="10393" d="M721.11,689.03c4.38,2.84,3.34,7.31,0.27,11.43c-3.07,4.12-23.53,23.26-27.68,22.47    c-1.63-0.31-4.49-5.26-3.89-7.58c0.6-2.31,15.33-20.06,18.44-23.02C711.37,689.38,715.98,685.71,721.11,689.03z" class="st10"/><path data-cppathid="10394" d="M697.4,719.48c-0.4,5.66-12.02,3.83-17.66,2.64c-5.63-1.18-21.68-6.29-21.68-6.29l0.91-6.17    c0,0,15.34-1.12,31.03,1.32C691.61,711.24,697.81,713.72,697.4,719.48z" class="st10"/><rect data-cppathid="10395" height="8.68" width="5.73" class="st53" transform="matrix(-0.9915 -0.1303 0.1303 -0.9915 1223.8997 1506.5043)" y="708.86" x="658.38"/></g></g><polygon data-cppathid="10396" points="707.35,684.8 704.56,681.65 693.03,690.01 695.31,694.17 " class="st53"/></svg>