<?xml version="1.0" encoding="UTF-8"?>
<svg xmlns="http://www.w3.org/2000/svg" onmouseup="{ if(window.parent.document.onmouseup) window.parent.document.onmouseup(arguments[0]);}" viewBox="0 0 1156.8 1080" data-name="Layer 1" id="Layer_1"><g data-name="Layer 1" id="Layer_1-2"><rect data-cppathid="10000" fill="#333e48" height="1080" width="1156.8"/></g><line data-cppathid="10001" stroke-width="2" stroke-linejoin="round" stroke-linecap="round" stroke="#00ffd3" fill="none" y2="194.4" x2="1133.8" y1="194.4" x1="21.1"/><path data-cppathid="10002" fill="#00ffd3" d="M1103.4,22a30.39,30.39,0,0,1,30.4,30.4v975.2a30.39,30.39,0,0,1-30.4,30.4H51.4A30.39,30.39,0,0,1,21,1027.6V52.4A30.39,30.39,0,0,1,51.4,22h1052m0-2H51.4A32.39,32.39,0,0,0,19,52.4v975.2A32.39,32.39,0,0,0,51.4,1060h1052a32.39,32.39,0,0,0,32.4-32.4V52.4A32.39,32.39,0,0,0,1103.4,20Z"/><path data-cppathid="10003" fill="#f7a800" d="M36.2,230.9v90.2L147,210.3l-90-.2A20.72,20.72,0,0,0,36.2,230.9Z"/><path data-cppathid="10004" fill="#0099a8" d="M1118.4,1023.6V933.4l-110.8,110.8,90,.2A20.72,20.72,0,0,0,1118.4,1023.6Z"/><g style="isolation:isolate"><path data-cppathid="10005" fill="#f7a800" d="M323.61,117.76h-17.4v13.41H326.9v7.22H296.8V91.47h30v7.25H306.21v11.79h17.4Z"/><path data-cppathid="10006" fill="#f7a800" d="M358,126.14a5.49,5.49,0,0,0-1.89-4.35,18.93,18.93,0,0,0-6.62-3.09q-8.13-2.46-12.33-5.77a10.92,10.92,0,0,1-4.2-9.06,11.37,11.37,0,0,1,4.73-9.42q4.74-3.66,12.09-3.66,7.8,0,12.55,3.93A12.29,12.29,0,0,1,366.89,105l-.06.2h-9.12a6.84,6.84,0,0,0-2.13-5.4,8.66,8.66,0,0,0-6-1.89,7.85,7.85,0,0,0-5.38,1.68,5.46,5.46,0,0,0-1.9,4.29,4.66,4.66,0,0,0,2.06,3.91,27.59,27.59,0,0,0,7.12,3.24q7.74,2.19,11.8,5.72a11.74,11.74,0,0,1,4.06,9.3,11.17,11.17,0,0,1-4.71,9.5q-4.71,3.48-12.44,3.48a22.17,22.17,0,0,1-13-3.77q-5.43-3.76-5.27-11.24l.06-.2h9.12q0,4.17,2.45,6.13a10.34,10.34,0,0,0,6.64,2,9,9,0,0,0,5.75-1.58A5.1,5.1,0,0,0,358,126.14Z"/><path data-cppathid="10007" fill="#f7a800" d="M407,98.72h-13.4v39.67H384.2V98.72H371V91.47h36Z"/><path data-cppathid="10008" fill="#f7a800" d="M433.12,128.27H417.91l-3.16,10.12h-9.83l15.82-46.92h9.64l15.76,46.92h-9.83Zm-12.89-7.38h10.6l-5.19-16.53h-.19Zm7-42.64h10.48l.06.2-8.93,8.38h-8Z"/><path data-cppathid="10009" fill="#f7a800" d="M488.58,138.39h-9.41l-18.92-31.65-.19,0v31.62h-9.41V91.47h9.41L479,123.08l.19,0V91.47h9.41Z"/><path data-cppathid="10010" fill="#f7a800" d="M497.22,138.39V91.47h16.37A19.38,19.38,0,0,1,527.77,97a19,19,0,0,1,5.57,14.1v7.77a18.92,18.92,0,0,1-5.57,14.1,19.44,19.44,0,0,1-14.18,5.46Zm9.41-39.67v32.45h7a9.15,9.15,0,0,0,7.47-3.47,13.52,13.52,0,0,0,2.84-8.87V111a13.43,13.43,0,0,0-2.84-8.83,9.19,9.19,0,0,0-7.47-3.45Z"/><path data-cppathid="10011" fill="#f7a800" d="M564.67,128.27H549.46l-3.16,10.12h-9.83l15.82-46.92h9.64l15.76,46.92h-9.83Zm-12.89-7.38h10.6l-5.19-16.53H557Z"/><path data-cppathid="10012" fill="#f7a800" d="M591.61,119.63v18.76H582.2V91.47h16.24q8,0,12.55,3.65t4.53,10.2a10.28,10.28,0,0,1-1.92,6.24A13.42,13.42,0,0,1,608,115.8a10.07,10.07,0,0,1,6,4.09,13,13,0,0,1,1.82,7.09v3.45a17.3,17.3,0,0,0,.53,4.11,5.67,5.67,0,0,0,1.82,3.17v.68h-9.7A5.24,5.24,0,0,1,606.8,135a30.87,30.87,0,0,1-.37-4.61V127a7.49,7.49,0,0,0-1.91-5.46,7.29,7.29,0,0,0-5.44-2Zm0-7.25h6.67q4,0,5.9-1.67a6.23,6.23,0,0,0,1.93-5,6.82,6.82,0,0,0-2-5.12,7.87,7.87,0,0,0-5.72-1.9h-6.83Z"/><path data-cppathid="10013" fill="#f7a800" d="M651.07,117.76H633.66v13.41h20.69v7.22h-30.1V91.47h30v7.25H633.66v11.79h17.41Z"/><path data-cppathid="10014" fill="#f7a800" d="M685.42,126.14a5.52,5.52,0,0,0-1.88-4.35,19,19,0,0,0-6.63-3.09q-8.11-2.46-12.32-5.77a10.9,10.9,0,0,1-4.21-9.06,11.38,11.38,0,0,1,4.74-9.42q4.74-3.66,12.08-3.66,7.8,0,12.55,3.93a12.32,12.32,0,0,1,4.6,10.31l-.07.2h-9.12a6.87,6.87,0,0,0-2.12-5.4,8.69,8.69,0,0,0-6-1.89,7.86,7.86,0,0,0-5.38,1.68,5.46,5.46,0,0,0-1.9,4.29,4.68,4.68,0,0,0,2.06,3.91,27.76,27.76,0,0,0,7.12,3.24q7.74,2.19,11.8,5.72a11.7,11.7,0,0,1,4.06,9.3,11.17,11.17,0,0,1-4.71,9.5q-4.7,3.48-12.43,3.48a22.2,22.2,0,0,1-13-3.77q-5.43-3.76-5.27-11.24l.07-.2h9.12c0,2.78.81,4.82,2.45,6.13a10.3,10.3,0,0,0,6.64,2,9,9,0,0,0,5.75-1.58A5.12,5.12,0,0,0,685.42,126.14Z"/><path data-cppathid="10015" fill="#f7a800" d="M718.19,138.39V91.47h16.38A19.38,19.38,0,0,1,748.75,97a19,19,0,0,1,5.57,14.1v7.77a18.92,18.92,0,0,1-5.57,14.1,19.44,19.44,0,0,1-14.18,5.46Zm9.41-39.67v32.45h7A9.15,9.15,0,0,0,742,127.7a13.52,13.52,0,0,0,2.84-8.87V111a13.43,13.43,0,0,0-2.84-8.83,9.19,9.19,0,0,0-7.47-3.45Z"/><path data-cppathid="10016" fill="#f7a800" d="M788.67,117.76h-17.4v13.41H792v7.22h-30.1V91.47h30v7.25H771.27v11.79h17.4Z"/><path data-cppathid="10017" fill="#f7a800" d="M850.19,122.85l.07.2c.08,5-1.44,8.93-4.58,11.76s-7.46,4.25-13,4.25-10.18-1.8-13.64-5.43-5.18-8.29-5.18-14v-9.31q0-8.58,5-14a17.27,17.27,0,0,1,13.28-5.46q8.58,0,13.41,4.19t4.7,11.79l-.06.2h-9.15q0-4.52-2.18-6.72T832.21,98a7.58,7.58,0,0,0-6.59,3.4,15,15,0,0,0-2.37,8.78v9.38a14.63,14.63,0,0,0,2.5,8.83,8.12,8.12,0,0,0,7,3.42q4.21,0,6.3-2.21t2.07-6.79Z"/><path data-cppathid="10018" fill="#f7a800" d="M881.45,128.27H866.24l-3.16,10.12h-9.82l15.82-46.92h9.63l15.76,46.92h-9.83Zm-12.89-7.38h10.61L874,104.36h-.2Z"/><path data-cppathid="10019" fill="#f7a800" d="M908.4,131.17h21v7.22H899V91.47h9.41Z"/><path data-cppathid="10020" fill="#f7a800" d="M945.71,138.39H936.3V91.47h9.41Z"/><path data-cppathid="10021" fill="#f7a800" d="M955,138.39V91.47H971.4A19.38,19.38,0,0,1,985.58,97a19,19,0,0,1,5.57,14.1v7.77a18.92,18.92,0,0,1-5.57,14.1,19.44,19.44,0,0,1-14.18,5.46Zm9.41-39.67v32.45h7a9.19,9.19,0,0,0,7.48-3.47,13.52,13.52,0,0,0,2.83-8.87V111a13.42,13.42,0,0,0-2.83-8.83,9.23,9.23,0,0,0-7.48-3.45Z"/><path data-cppathid="10022" fill="#f7a800" d="M1022.48,128.27h-15.21l-3.16,10.12h-9.83l15.82-46.92h9.64l15.76,46.92h-9.83Zm-12.89-7.38h10.6L1015,104.36h-.19Z"/><path data-cppathid="10023" fill="#f7a800" d="M1040,138.39V91.47h16.37A19.37,19.37,0,0,1,1070.56,97a18.92,18.92,0,0,1,5.57,14.1v7.77q0,8.63-5.57,14.1a19.43,19.43,0,0,1-14.18,5.46Zm9.41-39.67v32.45h7a9.17,9.17,0,0,0,7.48-3.47,13.52,13.52,0,0,0,2.83-8.87V111a13.42,13.42,0,0,0-2.83-8.83,9.21,9.21,0,0,0-7.48-3.45Z"/></g><polygon data-cppathid="10024" fill="#00ffd3" points="69.9 112.4 69.9 89.3 89.9 100.9 109.9 112.4 89.9 124 69.9 135.6 69.9 112.4"/><path data-cppathid="10025" stroke-width="3" stroke-miterlimit="10" stroke="#fff" fill="#333e48" d="M226.3,170.9H151.8a8.92,8.92,0,0,1-8.9-8.9V60a8.92,8.92,0,0,1,8.9-8.9h74.5a8.92,8.92,0,0,1,8.9,8.9V162.1A8.9,8.9,0,0,1,226.3,170.9Z"/><g style="isolation:isolate"><path data-cppathid="10026" fill="#fff" d="M162.56,93h-5.22V71.44h-5.4v-4l10.62-.93Z"/><path data-cppathid="10027" fill="#fff" d="M188.74,83.56a10.28,10.28,0,0,1-2.41,7.21,9.18,9.18,0,0,1-12.84,0,10.2,10.2,0,0,1-2.43-7.21v-7.2a10.27,10.27,0,0,1,2.42-7.21,9.11,9.11,0,0,1,12.83,0,10.23,10.23,0,0,1,2.43,7.21Zm-5.22-7.74a6.76,6.76,0,0,0-1-3.89,3.07,3.07,0,0,0-2.67-1.38,3,3,0,0,0-2.66,1.38,6.84,6.84,0,0,0-.94,3.89v8.24a6.85,6.85,0,0,0,1,3.94,3.09,3.09,0,0,0,2.69,1.37A3.05,3.05,0,0,0,182.58,88a7,7,0,0,0,.94-3.94Z"/><path data-cppathid="10028" fill="#fff" d="M209.82,83.56a10.23,10.23,0,0,1-2.41,7.21,9.18,9.18,0,0,1-12.84,0,10.24,10.24,0,0,1-2.42-7.21v-7.2a10.27,10.27,0,0,1,2.41-7.21,9.11,9.11,0,0,1,12.83,0,10.23,10.23,0,0,1,2.43,7.21Zm-5.22-7.74a6.76,6.76,0,0,0-1-3.89,3.26,3.26,0,0,0-5.33,0,6.84,6.84,0,0,0-.94,3.89v8.24a6.93,6.93,0,0,0,.95,3.94A3.1,3.1,0,0,0,201,89.37,3,3,0,0,0,203.66,88a6.93,6.93,0,0,0,.94-3.94Z"/><path data-cppathid="10029" fill="#fff" d="M225.81,93h-5.22V71.44h-5.4v-4l10.62-.93Z"/></g><g style="isolation:isolate"><path data-cppathid="10030" fill="#fff" d="M167.66,116a10.25,10.25,0,0,1-2.42,7.22,8.31,8.31,0,0,1-6.4,2.62,8.39,8.39,0,0,1-6.44-2.62A10.25,10.25,0,0,1,150,116v-7.19a10.34,10.34,0,0,1,2.41-7.22,9.14,9.14,0,0,1,12.83,0,10.26,10.26,0,0,1,2.44,7.22Zm-5.23-7.73a6.79,6.79,0,0,0-1-3.9,3.26,3.26,0,0,0-5.33,0,7,7,0,0,0-.94,3.9v8.23a6.88,6.88,0,0,0,1,3.94,3.08,3.08,0,0,0,2.69,1.38,3,3,0,0,0,2.65-1.38,6.89,6.89,0,0,0,.94-3.94Z"/><path data-cppathid="10031" fill="#fff" d="M183.64,125.49h-5.22V103.92H173v-4L183.64,99Z"/><path data-cppathid="10032" fill="#fff" d="M209.82,116a10.24,10.24,0,0,1-2.41,7.22,9.18,9.18,0,0,1-12.84,0,10.25,10.25,0,0,1-2.42-7.22v-7.19a10.29,10.29,0,0,1,2.41-7.22,9.14,9.14,0,0,1,12.83,0,10.26,10.26,0,0,1,2.43,7.22Zm-5.22-7.73a6.79,6.79,0,0,0-1-3.9,3.26,3.26,0,0,0-5.33,0,6.88,6.88,0,0,0-.94,3.9v8.23a6.88,6.88,0,0,0,.95,3.94,3.08,3.08,0,0,0,2.69,1.38,3,3,0,0,0,2.65-1.38,6.89,6.89,0,0,0,.94-3.94Z"/><path data-cppathid="10033" fill="#fff" d="M225.81,125.49h-5.22V103.92h-5.4v-4L225.81,99Z"/></g><g style="isolation:isolate"><path data-cppathid="10034" fill="#fff" d="M162.56,158h-5.22V136.4h-5.4v-4l10.62-.93Z"/><path data-cppathid="10035" fill="#fff" d="M188.74,148.51a10.26,10.26,0,0,1-2.41,7.21,9.18,9.18,0,0,1-12.84,0,10.18,10.18,0,0,1-2.43-7.21v-7.2a10.27,10.27,0,0,1,2.42-7.21,9.11,9.11,0,0,1,12.83,0,10.23,10.23,0,0,1,2.43,7.21Zm-5.22-7.74a6.76,6.76,0,0,0-1-3.89,3.07,3.07,0,0,0-2.67-1.38,3,3,0,0,0-2.66,1.38,6.84,6.84,0,0,0-.94,3.89V149a6.85,6.85,0,0,0,1,3.94,3.09,3.09,0,0,0,2.69,1.37,3.05,3.05,0,0,0,2.65-1.37,7,7,0,0,0,.94-3.94Z"/><path data-cppathid="10036" fill="#fff" d="M204.73,158H199.5V136.4h-5.4v-4l10.63-.93Z"/><path data-cppathid="10037" fill="#fff" d="M225.81,158h-5.22V136.4h-5.4v-4l10.62-.93Z"/></g><polygon data-cppathid="10038" stroke-width="3" stroke-linejoin="round" stroke-linecap="round" stroke="#fff" fill="#333e48" points="263.9 163.9 251.3 158.8 245.8 171.3 232.8 138.4 240.8 139 244.2 134.9 250.9 130.7 263.9 163.9"/><polygon data-cppathid="10039" stroke-width="3" stroke-linejoin="round" stroke-linecap="round" stroke="#fff" fill="#333e48" points="194.6 166.2 206.9 160.3 213.3 172.4 225.4 137.5 217.3 141.1 206.4 131.6 194.6 166.2"/><path data-cppathid="10040" fill="#333e48" d="M229.9,59.6h0a7.15,7.15,0,0,1,11.4,2.7h0a7.16,7.16,0,0,0,8.1,4.3h0a7.18,7.18,0,0,1,8.6,8h0a7.2,7.2,0,0,0,4.9,7.8h0a7.14,7.14,0,0,1,3.4,11.2h0a7.24,7.24,0,0,0,.3,9.2h0a7.15,7.15,0,0,1-2.7,11.4h0a7.16,7.16,0,0,0-4.3,8.1h0a7.18,7.18,0,0,1-8,8.6h0a7.2,7.2,0,0,0-7.8,4.9h0a7.14,7.14,0,0,1-11.2,3.4h0a7.24,7.24,0,0,0-9.2.3h0a7.15,7.15,0,0,1-11.4-2.7h0a7.16,7.16,0,0,0-8.1-4.3h0a7.18,7.18,0,0,1-8.6-8h0a7.2,7.2,0,0,0-4.9-7.8h0a7.14,7.14,0,0,1-3.4-11.2h0a7.24,7.24,0,0,0-.3-9.2h0a7.15,7.15,0,0,1,2.7-11.4h0a7.16,7.16,0,0,0,4.3-8.1h0a7.18,7.18,0,0,1,8-8.6h0a7.2,7.2,0,0,0,7.8-4.9h0a7.14,7.14,0,0,1,11.2-3.4h0A7.12,7.12,0,0,0,229.9,59.6Z"/><path data-cppathid="10041" fill="#fff" d="M230.9,60.7a5.71,5.71,0,0,1,8.7,1.6c1,1.9,1.8,3.5,3.7,4.7a8.71,8.71,0,0,0,5.9,1.2,6,6,0,0,1,5.2,1.1,5.6,5.6,0,0,1,2,5c-.3,4,1.5,8.1,5.6,9.5a7.11,7.11,0,0,1,2.4,1.3,5.13,5.13,0,0,1,1.5,2.3,5.78,5.78,0,0,1-1,5.5c.4-.2.9-.5,1.3-.7-1.2,0-1.9,1.5-2.3,2.5a7.89,7.89,0,0,0-.7,3.7,8.53,8.53,0,0,0,.8,3.5c.4.9,1.3,2.6,2.5,2.6-.4-.1-.7-.3-1.1-.4a5.86,5.86,0,0,1,1,5.7,5.33,5.33,0,0,1-1.6,2.3,13.34,13.34,0,0,1-2.8,1.6,8.47,8.47,0,0,0-4.1,5.8c-.4,2.3.6,4.5-.3,6.7a5.68,5.68,0,0,1-4.7,3.6c-1.1.1-2.2-.2-3.3-.1a7.71,7.71,0,0,0-3.6,1.2,9.56,9.56,0,0,0-2.6,2.3,20.59,20.59,0,0,0-1.7,3.3,5.65,5.65,0,0,1-4.8,3c-2.7.1-4.3-2.1-6.8-2.7a8.91,8.91,0,0,0-8.1,2c.4-.1.7-.3,1.1-.4-.9,0-1.6.9-2.3,1.3a5.34,5.34,0,0,1-2.5.5,5.64,5.64,0,0,1-4.5-2.2c-.6-.8-.8-1.7-1.3-2.5a8.81,8.81,0,0,0-2.2-2.5,8.47,8.47,0,0,0-5.9-1.8c-2.1.2-3.9.5-5.8-.9a6,6,0,0,1-2.3-4.8,10.48,10.48,0,0,0-.9-5.8c-.9-1.7-2.7-3.6-4.7-4l.3.3c-.1-.1-.2-.2-.3-.2a3.55,3.55,0,0,1-.9-.4,9.13,9.13,0,0,1-1.3-.8,5.33,5.33,0,0,1-1.6-2.3,6.06,6.06,0,0,1,.9-5.8c-.4.2-.9.5-1.3.7,1.2,0,1.9-1.5,2.3-2.5a7.89,7.89,0,0,0,.7-3.7,8.53,8.53,0,0,0-.8-3.5c-.4-.9-1.3-2.6-2.5-2.6.4.1.7.3,1.1.4a5.58,5.58,0,0,1-1-5.8,7,7,0,0,1,1.7-2.4c.4-.3.9-.5,1.3-.8,0,0-1,.4-.1,0a6.12,6.12,0,0,0,1.2-.5,8.7,8.7,0,0,0,4.3-5.9c.5-2.3-.6-4.4.3-6.7a5.66,5.66,0,0,1,4.9-3.6c1.2-.1,2.3.2,3.5,0a9.17,9.17,0,0,0,3.6-1.3,9.52,9.52,0,0,0,2.5-2.4c.7-1,1-2.3,1.6-3.3a5.61,5.61,0,0,1,5-2.7,6.82,6.82,0,0,1,3.3,1.1c.3.2.6.2.8.4.4,0,.3.1-.3,0,.2.1.4.3.6.4a11.92,11.92,0,0,0,2,.8,9.19,9.19,0,0,0,8.4-1.9c1.5-1.2-.7-3.4-2.1-2.1a6.36,6.36,0,0,1-3.5,1.4,6.45,6.45,0,0,1-2-.3,17.38,17.38,0,0,1-1.9-1c-.1-.1-.2-.1-.4-.2-.6-.1-.5-.1.1,0a2.51,2.51,0,0,0-.7-.4,11.11,11.11,0,0,0-1.6-.7,7.69,7.69,0,0,0-3.7-.3,8.55,8.55,0,0,0-5.8,3.4,13.69,13.69,0,0,0-1.6,3.2,5.65,5.65,0,0,1-2.8,2.7,7.31,7.31,0,0,1-3.6.4,9.08,9.08,0,0,0-4,.6,8.79,8.79,0,0,0-4.9,5.1,9.23,9.23,0,0,0-.5,3.7,9.22,9.22,0,0,1,0,3.7,5,5,0,0,1-2,2.9,4.7,4.7,0,0,0-.9.6c-.5.4-.1.2.1.1a10.72,10.72,0,0,0-2.2,1A8.78,8.78,0,0,0,183.7,95c.4,1,1.3,3,2.7,3-.4-.1-.7-.3-1.1-.4a5.87,5.87,0,0,1,.1,7.4c.4-.2.9-.5,1.3-.7-2.1.1-2.9,3.9-3,5.5a8.63,8.63,0,0,0,1.9,5.8,9.3,9.3,0,0,0,2.3,2.1,10.09,10.09,0,0,0,1.5.7c-.1,0-.9-.4,0,0,.3.1.7.3,1,.4a5.87,5.87,0,0,1,3.2,5.8,9.2,9.2,0,0,0,1.3,6.1,8.81,8.81,0,0,0,5.3,3.7c2.4.5,4.8-.6,7.1.4a5.78,5.78,0,0,1,2.3,1.8c.8,1,1.1,2.2,1.8,3.2a8.74,8.74,0,0,0,12.8,1.3c-.4.1-.7.3-1.1.4.7,0,1.1-.5,1.6-.9a4.59,4.59,0,0,1,1.6-.7,5.56,5.56,0,0,1,4,.3c1.1.5,2,1.4,3.2,1.9a7.41,7.41,0,0,0,3.6.6,9.08,9.08,0,0,0,6.2-3.1c1.6-2,1.8-4.6,4.2-6s5-.2,7.5-1a8.63,8.63,0,0,0,5.3-5.1,7.41,7.41,0,0,0,.6-3.6,11.38,11.38,0,0,1-.2-3.7,6.09,6.09,0,0,1,1.8-3.1c1-.9,2.1-1.1,3-1.7a8.74,8.74,0,0,0,3.9-6.7,8.65,8.65,0,0,0-.6-3.9c-.4-1-1.3-3-2.7-3,.4.1.7.3,1.1.4a5.87,5.87,0,0,1-.1-7.4c-.4.2-.9.5-1.3.7,2-.1,2.9-3.8,3-5.4a8.4,8.4,0,0,0-1.9-5.9,10.48,10.48,0,0,0-2.2-2c-1-.6-2-.8-2.9-1.3a5.94,5.94,0,0,1-2.9-5.6,9.24,9.24,0,0,0-1.4-6.3,9,9,0,0,0-5.5-3.6c-2.3-.4-4.6.6-6.8-.3a5.67,5.67,0,0,1-2.5-2.1c-.6-.9-.9-2-1.6-2.9a8.74,8.74,0,0,0-12.8-1.3C227.3,59.8,229.4,61.9,230.9,60.7Z"/><circle data-cppathid="10042" stroke-width="3" stroke-miterlimit="10" stroke="#fff" fill="none" r="31.8" cy="99.6" cx="226.6"/><path data-cppathid="10043" fill="#fff" d="M244,94.1l-21.9,20a4,4,0,0,1-3.1,1,4.3,4.3,0,0,1-2.3-1l-7-6.4a4,4,0,0,1,5.4-6l4.3,3.9,19.2-17.5a4,4,0,0,1,5.7.3A4.08,4.08,0,0,1,244,94.1Z"/><g style="isolation:isolate"><path data-cppathid="10044" fill="#fff" d="M187.75,536.85V490.64h13.74A18.13,18.13,0,0,1,215,496.35q5.56,5.72,5.56,14.57v5.65q0,8.88-5.56,14.58a18.16,18.16,0,0,1-13.52,5.7Zm1.71-44.5v42.78h12a16.45,16.45,0,0,0,12.29-5.26,18.43,18.43,0,0,0,5.07-13.3v-5.75a18.27,18.27,0,0,0-5.07-13.2,16.46,16.46,0,0,0-12.29-5.27Z"/><path data-cppathid="10045" fill="#fff" d="M242.37,537.51a13.16,13.16,0,0,1-10.23-4.69A17.13,17.13,0,0,1,228,521v-2a18.15,18.15,0,0,1,4.14-12.27,13.22,13.22,0,0,1,10.43-4.81,11.69,11.69,0,0,1,9.11,3.76Q255,509.4,255,515.9v2.64H229.68V521a15.91,15.91,0,0,0,3.55,10.55,11.35,11.35,0,0,0,9.14,4.27,15.75,15.75,0,0,0,5.92-1.14,12.72,12.72,0,0,0,4.62-3l.92,1.33a13.8,13.8,0,0,1-4.67,3.29A16.36,16.36,0,0,1,242.37,537.51Zm.16-33.92a11.37,11.37,0,0,0-8.74,3.69,15.11,15.11,0,0,0-3.86,9.35l.1.19h23.29v-1.05a13.12,13.12,0,0,0-2.89-8.74A9.77,9.77,0,0,0,242.53,503.59Z"/><path data-cppathid="10046" fill="#fff" d="M265.92,536.85v-32.6h-6v-1.74h6v-5q0-5.17,2.72-8a9.91,9.91,0,0,1,7.53-2.83,21.68,21.68,0,0,1,4.29.43,18.28,18.28,0,0,1,4.22,1.38l-.26,1.65a22.13,22.13,0,0,0-3.85-1.33,19.2,19.2,0,0,0-4.36-.42,8.24,8.24,0,0,0-6.29,2.42,9.34,9.34,0,0,0-2.28,6.69v5h9.07v1.74h-9.07v32.6Zm20,0H284.2V502.51h1.72Z"/><path data-cppathid="10047" fill="#fff" d="M298.64,502.51l.23,6.92a12.57,12.57,0,0,1,4.57-5.57,12.86,12.86,0,0,1,7.33-2q5.61,0,8.42,3.54T322,516.63v20.22h-1.71V516.57q0-7.14-2.56-10.06a8.72,8.72,0,0,0-6.93-2.92c-3.6,0-6.35,1-8.25,3.14a15.26,15.26,0,0,0-3.65,8.09v22h-1.72V519.27h-.09c0-.41,0-.81,0-1.23s0-.83.08-1.25V502.51Z"/><path data-cppathid="10048" fill="#fff" d="M344.79,537.51a13.16,13.16,0,0,1-10.23-4.69A17.13,17.13,0,0,1,330.38,521v-2a18.15,18.15,0,0,1,4.14-12.27A13.22,13.22,0,0,1,345,501.87a11.7,11.7,0,0,1,9.11,3.76q3.39,3.76,3.4,10.27v2.64H332.1V521a15.91,15.91,0,0,0,3.55,10.55,11.35,11.35,0,0,0,9.14,4.27,15.75,15.75,0,0,0,5.92-1.14,12.72,12.72,0,0,0,4.62-3l.92,1.33a13.8,13.8,0,0,1-4.67,3.29A16.36,16.36,0,0,1,344.79,537.51Zm.16-33.92a11.37,11.37,0,0,0-8.74,3.69,15.11,15.11,0,0,0-3.86,9.35l.1.19h23.29v-1.05a13.12,13.12,0,0,0-2.89-8.74A9.77,9.77,0,0,0,345,503.59Z"/><path data-cppathid="10049" fill="#fff" d="M367.2,502.51l.22,6.92a12.63,12.63,0,0,1,4.57-5.57,12.89,12.89,0,0,1,7.33-2q5.63,0,8.43,3.54t2.81,11.22v20.22h-1.72V516.57q0-7.14-2.55-10.06a8.74,8.74,0,0,0-6.94-2.92c-3.59,0-6.34,1-8.25,3.14a15.33,15.33,0,0,0-3.65,8.09v22h-1.71V519.27h-.1c0-.41,0-.81,0-1.23s0-.83.08-1.25V502.51Z"/><path data-cppathid="10050" fill="#fff" d="M439.88,530.82a11.84,11.84,0,0,1-4.6,4.93,14,14,0,0,1-7.24,1.76,10,10,0,0,1-8.3-3.76q-3-3.75-3-11.66V502.51h1.72v19.64q0,7,2.57,10.32a8.31,8.31,0,0,0,7,3.33q5.24,0,8.11-2.55a12.06,12.06,0,0,0,3.73-6.75v-24h1.74v20.22h.06c0,.27,0,.53,0,.79s0,.55,0,.89v12.44h-1.43Z"/><path data-cppathid="10051" fill="#fff" d="M453.91,502.51l.22,6.92a12.63,12.63,0,0,1,4.57-5.57,12.89,12.89,0,0,1,7.33-2c3.75,0,6.55,1.18,8.43,3.54s2.81,6.1,2.81,11.22v20.22h-1.72V516.57q0-7.14-2.55-10.06a8.75,8.75,0,0,0-6.94-2.92c-3.59,0-6.34,1-8.25,3.14a15.33,15.33,0,0,0-3.65,8.09v22h-1.71V519.27h-.1c0-.41,0-.81,0-1.23s0-.83.08-1.25V502.51Z"/></g><g style="isolation:isolate"><path data-cppathid="10052" fill="#fff" d="M499.36,519.36q0-7.68,4.2-12.58t11.51-4.91q7.39,0,11.6,4.91t4.2,12.58V520q0,7.74-4.2,12.61t-11.54,4.87q-7.36,0-11.57-4.88t-4.2-12.6Zm7.71.67a15.28,15.28,0,0,0,2,8.19,7.42,7.42,0,0,0,12.14,0,15,15,0,0,0,2-8.17v-.67a15,15,0,0,0-2-8.11,6.74,6.74,0,0,0-6.11-3.19,6.61,6.61,0,0,0-6,3.19,15.16,15.16,0,0,0-2,8.11Z"/><path data-cppathid="10053" fill="#fff" d="M554.71,509.46l-3.3-.13a7,7,0,0,0-3.76.95,6.31,6.31,0,0,0-2.34,2.7v23.87H537.6V502.51h7l.51,5a11,11,0,0,1,3.34-4.13,7.85,7.85,0,0,1,4.72-1.49,7.59,7.59,0,0,1,1.3.11q.6.12,1.11.27Z"/><path data-cppathid="10054" fill="#fff" d="M558.39,520.15q0-8.22,3.52-13.25a11.41,11.41,0,0,1,9.91-5,10.82,10.82,0,0,1,5,1.13,11.4,11.4,0,0,1,3.83,3.22V487.34h7.71v49.51H582.1l-.92-4.35a11.53,11.53,0,0,1-4,3.73,11.12,11.12,0,0,1-5.43,1.28,11.68,11.68,0,0,1-9.84-4.6c-2.35-3.06-3.52-7.1-3.52-12.09Zm7.71.67a13.82,13.82,0,0,0,1.83,7.59,6.38,6.38,0,0,0,5.79,2.82,7.72,7.72,0,0,0,4.14-1.05,7.93,7.93,0,0,0,2.78-3v-15a8.15,8.15,0,0,0-2.79-3,7.57,7.57,0,0,0-4.07-1.06,6.19,6.19,0,0,0-5.8,3.32,17.45,17.45,0,0,0-1.88,8.64Z"/><path data-cppathid="10055" fill="#fff" d="M611.2,537.51q-7.51,0-11.76-4.74t-4.23-12.3V519.2a18.37,18.37,0,0,1,4.23-12.45,13.71,13.71,0,0,1,10.94-4.88q6.92,0,10.47,4.27t3.56,11.41v4.16H603.17l-.06.16a11.18,11.18,0,0,0,2.22,6.85c1.4,1.76,3.5,2.64,6.32,2.64a17.59,17.59,0,0,0,5.44-.76,15.7,15.7,0,0,0,4.27-2.19l2.51,5a16.44,16.44,0,0,1-5.21,2.89A21.88,21.88,0,0,1,611.2,537.51Zm-.82-29.45a6,6,0,0,0-4.83,2.18,10.83,10.83,0,0,0-2.25,5.66l.06.16h13.43v-.6a8.64,8.64,0,0,0-1.54-5.35A5.69,5.69,0,0,0,610.38,508.06Z"/><path data-cppathid="10056" fill="#fff" d="M637.64,502.51l.44,4.95a12.32,12.32,0,0,1,4.24-4.11,11.38,11.38,0,0,1,5.76-1.48q5.37,0,8.37,3.3c2,2.21,3,5.64,3,10.32v21.36h-7.72v-21.3c0-2.66-.52-4.56-1.55-5.68a6.12,6.12,0,0,0-4.7-1.68,9.22,9.22,0,0,0-4.28.93,7.54,7.54,0,0,0-2.89,2.59v25.14h-7.72V502.51Z"/><path data-cppathid="10057" fill="#fff" d="M692.23,502.51v36.34q0,5.68-3,8.77t-8.22,3.1a14.29,14.29,0,0,1-2.06-.13,13.77,13.77,0,0,1-1.94-.41l.44-6.16a8.51,8.51,0,0,0,1.34.27,9.68,9.68,0,0,0,1.46.11,3.81,3.81,0,0,0,3.09-1.35,6.49,6.49,0,0,0,1.13-4.2V502.51ZM692,494h-7.71v-6.66H692Z"/><path data-cppathid="10058" fill="#fff" d="M715.27,537.51q-7.51,0-11.76-4.74t-4.23-12.3V519.2a18.37,18.37,0,0,1,4.23-12.45,13.71,13.71,0,0,1,10.94-4.88q6.91,0,10.47,4.27t3.56,11.41v4.16H707.24l-.06.16a11.18,11.18,0,0,0,2.22,6.85c1.4,1.76,3.5,2.64,6.32,2.64a17.64,17.64,0,0,0,5.44-.76,15.7,15.7,0,0,0,4.27-2.19l2.51,5a16.44,16.44,0,0,1-5.21,2.89A21.88,21.88,0,0,1,715.27,537.51Zm-.82-29.45a6,6,0,0,0-4.83,2.18,10.83,10.83,0,0,0-2.25,5.66l.06.16h13.43v-.6a8.64,8.64,0,0,0-1.54-5.35A5.69,5.69,0,0,0,714.45,508.06Z"/><path data-cppathid="10059" fill="#fff" d="M751.83,509.46l-3.3-.13a7,7,0,0,0-3.76.95,6.36,6.36,0,0,0-2.33,2.7v23.87h-7.71V502.51h7l.51,5a11.11,11.11,0,0,1,3.35-4.13,7.82,7.82,0,0,1,4.71-1.49,7.5,7.5,0,0,1,1.3.11c.41.08.78.17,1.12.27Z"/><path data-cppathid="10060" fill="#fff" d="M778.24,536.85c-.27-.87-.5-1.72-.68-2.54a19.28,19.28,0,0,1-.37-2.48,13.17,13.17,0,0,1-4.15,4,10.7,10.7,0,0,1-5.81,1.63c-3.58,0-6.32-.92-8.24-2.76a10,10,0,0,1-2.87-7.58,9,9,0,0,1,3.93-7.76q3.94-2.77,11.08-2.78h6v-3a5.58,5.58,0,0,0-1.57-4.22,6.28,6.28,0,0,0-4.56-1.53,6.49,6.49,0,0,0-4.18,1.25,4,4,0,0,0-1.56,3.26l-7.43,0,0-.19c-.15-2.71,1.07-5.11,3.64-7.21a15.42,15.42,0,0,1,10-3.14q6,0,9.68,3.05t3.68,8.76V529a28.15,28.15,0,0,0,.29,4.07,21,21,0,0,0,.92,3.83Zm-9.43-5.52a9.7,9.7,0,0,0,5.23-1.46,7.42,7.42,0,0,0,3.09-3.34v-5.07H771a7.72,7.72,0,0,0-5.26,1.66,5.07,5.07,0,0,0-1.91,3.92,4,4,0,0,0,1.29,3.13A5.33,5.33,0,0,0,768.81,531.33Zm4.61-43.45h8.72l.07.19-8.67,8.25h-6.18Z"/><path data-cppathid="10061" fill="#fff" d="M810,509.46l-3.3-.13a7,7,0,0,0-3.76.95,6.29,6.29,0,0,0-2.33,2.7v23.87H792.9V502.51H800l.51,5a11,11,0,0,1,3.35-4.13,7.8,7.8,0,0,1,4.71-1.49,7.59,7.59,0,0,1,1.3.11q.6.12,1.11.27Z"/><path data-cppathid="10062" fill="#fff" d="M813.69,520.15q0-8.22,3.53-13.25a11.39,11.39,0,0,1,9.9-5,11,11,0,0,1,5.27,1.24,11.37,11.37,0,0,1,3.9,3.56l.89-4.16h6.25v47.54h-7.71V533.61a10.33,10.33,0,0,1-3.75,2.92,12.81,12.81,0,0,1-14.75-3.62c-2.35-3.06-3.53-7.1-3.53-12.09Zm7.72.67a14.13,14.13,0,0,0,1.82,7.65,6.34,6.34,0,0,0,5.79,2.89,7.85,7.85,0,0,0,4-.94,7.56,7.56,0,0,0,2.71-2.71v-16A8,8,0,0,0,833,509a7.53,7.53,0,0,0-3.9-1,6.2,6.2,0,0,0-5.81,3.38,17.88,17.88,0,0,0-1.87,8.71Z"/><path data-cppathid="10063" fill="#fff" d="M873.36,531.77a11.51,11.51,0,0,1-4.08,4.25,10.94,10.94,0,0,1-5.76,1.49,10.75,10.75,0,0,1-8.63-3.63q-3.1-3.63-3.11-11.28V502.51h7.68v20.15q0,4.92,1.43,6.75a5.3,5.3,0,0,0,4.44,1.82,9.88,9.88,0,0,0,4.68-1,7.27,7.27,0,0,0,3-2.9V502.51h7.71v34.34h-6.63Z"/><path data-cppathid="10064" fill="#fff" d="M897,494.1h-7.71v-6.76H897Zm0,42.75h-7.71V502.51H897Z"/><path data-cppathid="10065" fill="#fff" d="M919.6,531.36a6.39,6.39,0,0,0,4.46-1.65,5.4,5.4,0,0,0,1.83-4.19h7l.06.19a10.33,10.33,0,0,1-3.82,8.31,13.86,13.86,0,0,1-9.51,3.49q-7.43,0-11.45-4.9a18.81,18.81,0,0,1-4-12.36v-1.11a18.84,18.84,0,0,1,4-12.35q4-4.92,11.42-4.92a13.46,13.46,0,0,1,9.75,3.61,11.75,11.75,0,0,1,3.61,9.15l-.06.19h-7a6.94,6.94,0,0,0-1.75-4.79,5.81,5.81,0,0,0-4.57-2,6.27,6.27,0,0,0-5.93,3.19,15.77,15.77,0,0,0-1.81,7.89v1.11a16,16,0,0,0,1.79,8Q915.42,531.36,919.6,531.36Z"/><path data-cppathid="10066" fill="#fff" d="M938,519.36q0-7.68,4.21-12.58t11.5-4.91q7.39,0,11.6,4.91t4.21,12.58V520q0,7.74-4.21,12.61t-11.54,4.87q-7.37,0-11.56-4.88T938,520Zm7.71.67a15.28,15.28,0,0,0,2,8.19,7.42,7.42,0,0,0,12.14,0,15,15,0,0,0,2-8.17v-.67a15,15,0,0,0-2-8.11,6.73,6.73,0,0,0-6.11-3.19,6.59,6.59,0,0,0-6,3.19,15.07,15.07,0,0,0-2,8.11Z"/></g><g style="isolation:isolate"><path data-cppathid="10067" fill="#f7a800" d="M185.72,622.85V563.13h20.83q11,0,18,7t7.1,18V598q0,11-7.1,17.95t-18,7Zm12-50.49v41.3h8.85a11.7,11.7,0,0,0,9.52-4.41q3.62-4.41,3.61-11.3V588q0-6.86-3.61-11.24a11.71,11.71,0,0,0-9.52-4.39Z"/><path data-cppathid="10068" fill="#f7a800" d="M275.42,596.6H253.27v17.06H279.6v9.19H241.29V563.13h38.23v9.23H253.27v15h22.15Z"/><path data-cppathid="10069" fill="#f7a800" d="M357.21,622.85h-12l-24.08-40.28-.24,0v40.24h-12V563.13h12L345,603.37l.25,0v-40.2h12Z"/><path data-cppathid="10070" fill="#f7a800" d="M416.51,598.36q0,11-6.93,18.19t-18,7.16q-11.09,0-18-7.18t-6.89-18.17V587.62q0-10.95,6.87-18.15t17.9-7.2q11.12,0,18.09,7.2t7,18.15Zm-11.93-10.83q0-7-3.49-11.44a11.54,11.54,0,0,0-9.64-4.47,11.17,11.17,0,0,0-9.45,4.47q-3.39,4.47-3.38,11.44v10.83q0,7.1,3.4,11.57a11.28,11.28,0,0,0,9.52,4.47,11.41,11.41,0,0,0,9.59-4.47q3.45-4.47,3.45-11.57Z"/><path data-cppathid="10071" fill="#f7a800" d="M466.51,572.36H449.45v50.49h-12V572.36H420.66v-9.23h45.85Z"/><path data-cppathid="10072" fill="#f7a800" d="M485.87,622.85h-12V563.13h12Z"/><path data-cppathid="10073" fill="#f7a800" d="M532.63,598H509.7v24.82h-12V563.13h39.09v9.23H509.7v16.45h22.93Z"/><path data-cppathid="10074" fill="#f7a800" d="M557.24,622.85h-12V563.13h12Z"/><path data-cppathid="10075" fill="#f7a800" d="M613.88,603.08l.08.25q.16,9.55-5.82,15t-16.53,5.41q-10.74,0-17.35-6.91t-6.6-17.86V587.08q0-10.91,6.44-17.86t16.89-7q10.92,0,17.07,5.33t6,15l-.08.25H602.31q0-5.75-2.76-8.55c-1.85-1.88-4.7-2.81-8.56-2.81a9.65,9.65,0,0,0-8.38,4.32q-3,4.33-3,11.18v11.94q0,6.88,3.18,11.23a10.34,10.34,0,0,0,8.84,4.35c3.58,0,6.25-.93,8-2.81s2.64-4.75,2.64-8.63Z"/><path data-cppathid="10076" fill="#f7a800" d="M653.67,610H634.31l-4,12.88H617.78l20.14-59.72h12.26l20.06,59.72H657.73Zm-16.41-9.39h13.49l-6.6-21h-.25Z"/><path data-cppathid="10077" fill="#f7a800" d="M720.32,603.08l.08.25q.17,9.55-5.83,15T698,623.71q-10.74,0-17.34-6.91t-6.61-17.86V587.08q0-10.91,6.44-17.86t16.9-7q10.91,0,17.06,5.33t6,15l-.08.25H708.75q0-5.75-2.77-8.55c-1.84-1.88-4.69-2.81-8.55-2.81a9.67,9.67,0,0,0-8.39,4.32q-3,4.33-3,11.18v11.94q0,6.88,3.18,11.23a10.31,10.31,0,0,0,8.83,4.35c3.59,0,6.26-.93,8-2.81s2.65-4.75,2.65-8.63Z"/><path data-cppathid="10078" fill="#f7a800" d="M741.77,622.85h-12V563.13h12Z"/><path data-cppathid="10079" fill="#f7a800" d="M801.94,598.36q0,11-6.93,18.19t-18,7.16q-11.07,0-18-7.18t-6.89-18.17V587.62q0-10.95,6.87-18.15t17.91-7.2q11.11,0,18.08,7.2t7,18.15ZM790,587.53q0-7-3.48-11.44a11.56,11.56,0,0,0-9.64-4.47,11.19,11.19,0,0,0-9.46,4.47Q764,580.56,764,587.53v10.83q0,7.1,3.4,11.57A11.28,11.28,0,0,0,777,614.4a11.44,11.44,0,0,0,9.6-4.47q3.44-4.47,3.44-11.57Z"/><path data-cppathid="10080" fill="#f7a800" d="M859.69,622.85h-12l-24.08-40.28-.24,0v40.24h-12V563.13h12l24.07,40.24.25,0v-40.2h12Z"/><path data-cppathid="10081" fill="#f7a800" d="M904.8,596.6H882.66v17.06H909v9.19H870.68V563.13h38.23v9.23H882.66v15H904.8Z"/><path data-cppathid="10082" fill="#f7a800" d="M948.53,607.26a7,7,0,0,0-2.4-5.53q-2.4-2.1-8.43-3.94-10.34-3.12-15.69-7.34a13.9,13.9,0,0,1-5.35-11.53,14.51,14.51,0,0,1,6-12q6-4.65,15.38-4.65,9.93,0,16,5a15.64,15.64,0,0,1,5.85,13.13l-.08.24H948.2a8.68,8.68,0,0,0-2.71-6.87q-2.7-2.4-7.59-2.4-4.42,0-6.85,2.14a7,7,0,0,0-2.42,5.45,6,6,0,0,0,2.63,5q2.63,1.93,9.06,4.12,9.85,2.79,15,7.28a14.92,14.92,0,0,1,5.16,11.83,14.24,14.24,0,0,1-6,12.1q-6,4.43-15.84,4.43a28.3,28.3,0,0,1-16.55-4.8q-6.9-4.8-6.7-14.31l.08-.25h11.61q0,5.29,3.11,7.79t8.45,2.51q4.8,0,7.32-2A6.52,6.52,0,0,0,948.53,607.26Z"/></g><g style="isolation:isolate"><path data-cppathid="10083" fill="#fff" d="M198.31,689.54a13.57,13.57,0,0,1-10.55-4.85,17.66,17.66,0,0,1-4.3-12.2V670.4q0-7.7,4.27-12.65a13.57,13.57,0,0,1,10.74-5,12,12,0,0,1,9.39,3.87q3.49,3.89,3.5,10.59V670H185.22v2.52a16.39,16.39,0,0,0,3.67,10.88,11.71,11.71,0,0,0,9.42,4.4,16.12,16.12,0,0,0,6.1-1.18,13,13,0,0,0,4.76-3.14l1,1.38a14.27,14.27,0,0,1-4.81,3.38A17,17,0,0,1,198.31,689.54Zm.16-35a11.68,11.68,0,0,0-9,3.82,15.53,15.53,0,0,0-4,9.63l.1.2h24v-1.08a13.58,13.58,0,0,0-3-9A10.1,10.1,0,0,0,198.47,654.56Z"/><path data-cppathid="10084" fill="#fff" d="M221.41,653.45l.22,7.13a13,13,0,0,1,4.72-5.74,13.34,13.34,0,0,1,7.55-2q5.79,0,8.69,3.64T245.48,668v20.84h-1.76V667.94q0-7.35-2.64-10.37a9,9,0,0,0-7.14-3q-5.56,0-8.51,3.24a15.77,15.77,0,0,0-3.76,8.34v22.71H219.9V670.72h-.1c0-.41,0-.83,0-1.26s0-.85.08-1.29V653.45Z"/><path data-cppathid="10085" fill="#fff" d="M275.29,688.85v-33.6h-6.15v-1.8h6.15v-5.82c0-3.34.81-5.92,2.43-7.76a8.65,8.65,0,0,1,6.82-2.74,17.12,17.12,0,0,1,2.15.13,12.09,12.09,0,0,1,2,.42l-.26,1.7a17.72,17.72,0,0,0-1.85-.37,14.13,14.13,0,0,0-2-.12,6.9,6.9,0,0,0-5.53,2.33,9.5,9.5,0,0,0-2,6.41v5.82h9.36v1.8h-9.36v33.6Z"/><path data-cppathid="10086" fill="#fff" d="M317.42,682.63a12.21,12.21,0,0,1-4.74,5.09,14.44,14.44,0,0,1-7.46,1.82,10.34,10.34,0,0,1-8.55-3.88q-3.1-3.88-3.1-12V653.45h1.77V673.7q0,7.2,2.65,10.63a8.59,8.59,0,0,0,7.17,3.44c3.59,0,6.38-.88,8.35-2.63a12.31,12.31,0,0,0,3.85-7V653.45h1.8v20.84h.06c0,.28,0,.56,0,.82s0,.57,0,.91v12.83h-1.47Z"/><path data-cppathid="10087" fill="#fff" d="M331.88,653.45l.23,7.13a13.08,13.08,0,0,1,4.71-5.74,13.38,13.38,0,0,1,7.56-2q5.79,0,8.69,3.64T356,668v20.84h-1.77V667.94q0-7.35-2.63-10.37a9,9,0,0,0-7.15-3c-3.7,0-6.54,1.08-8.5,3.24a15.7,15.7,0,0,0-3.76,8.34v22.71h-1.77V670.72h-.1c0-.41,0-.83,0-1.26s0-.85.08-1.29V653.45Z"/><path data-cppathid="10088" fill="#fff" d="M379.06,687.77a13.31,13.31,0,0,0,7.92-2.45c2.29-1.64,3.43-4.09,3.43-7.37h1.51l.06.2a9.64,9.64,0,0,1-3.81,8.29,14.37,14.37,0,0,1-9.11,3.1,12.77,12.77,0,0,1-10.62-4.88q-3.84-4.87-3.84-12.82v-1.38q0-7.9,3.83-12.79A12.68,12.68,0,0,1,379,652.8,13.91,13.91,0,0,1,388.3,656q3.81,3.22,3.68,9.08l-.06.19h-1.51c0-3.46-1.11-6.12-3.34-8a12.27,12.27,0,0,0-8.08-2.77q-6.21,0-9.42,4.45t-3.21,11.45v1.38q0,7.06,3.21,11.5T379.06,687.77Z"/><path data-cppathid="10089" fill="#fff" d="M403.23,642.33h-1.76v-4.52h1.76Zm0,46.52h-1.76v-35.4h1.76Z"/><path data-cppathid="10090" fill="#fff" d="M412.07,670.46q0-7.79,4.3-12.72a15.14,15.14,0,0,1,22.38,0q4.29,4.93,4.3,12.72v1.38q0,7.81-4.3,12.76a15.12,15.12,0,0,1-22.36,0q-4.32-5-4.32-12.76Zm1.76,1.38a17.48,17.48,0,0,0,3.73,11.3,12.23,12.23,0,0,0,10.05,4.63,12.09,12.09,0,0,0,9.94-4.65,17.42,17.42,0,0,0,3.73-11.28v-1.38a17.34,17.34,0,0,0-3.76-11.2,12.95,12.95,0,0,0-20,0,17.49,17.49,0,0,0-3.73,11.2Zm20.09-33.37h2.55l.07.16L429,647.17h-2.19l-.07-.16Z"/><path data-cppathid="10091" fill="#fff" d="M453,653.45l.23,7.13a13.08,13.08,0,0,1,4.71-5.74,13.36,13.36,0,0,1,7.55-2q5.79,0,8.69,3.64T477.1,668v20.84h-1.76V667.94q0-7.35-2.64-10.37a9,9,0,0,0-7.14-3q-5.56,0-8.51,3.24a15.77,15.77,0,0,0-3.76,8.34v22.71h-1.77V670.72h-.1c0-.41,0-.83,0-1.26s0-.85.08-1.29V653.45Z"/><path data-cppathid="10092" fill="#fff" d="M502.59,671.12q0-8.42,3.53-13.37a11.4,11.4,0,0,1,9.82-5,13.38,13.38,0,0,1,7.15,1.85,13.6,13.6,0,0,1,4.82,5.05V637.81h1.77v26.63s0,0,0,0V678.9a.33.33,0,0,0,0,.1v9.85H528l-.07-5.46a12.63,12.63,0,0,1-4.84,4.49,15,15,0,0,1-7.2,1.66,11.45,11.45,0,0,1-9.76-4.78q-3.53-4.77-3.52-13Zm1.83.68q0,7.34,2.9,11.65a9.6,9.6,0,0,0,8.52,4.32,13.21,13.21,0,0,0,7.65-2.08,11.84,11.84,0,0,0,4.42-5.54V663.4a14.78,14.78,0,0,0-4.14-6.3c-1.88-1.69-4.51-2.54-7.87-2.54a9.52,9.52,0,0,0-8.55,4.6q-2.93,4.59-2.93,12Z"/><path data-cppathid="10093" fill="#fff" d="M553.3,689.54a13.56,13.56,0,0,1-10.55-4.85,17.66,17.66,0,0,1-4.31-12.2V670.4q0-7.7,4.27-12.65a13.6,13.6,0,0,1,10.75-5,12,12,0,0,1,9.39,3.87q3.49,3.89,3.5,10.59V670H540.21v2.52a16.39,16.39,0,0,0,3.67,10.88,11.71,11.71,0,0,0,9.42,4.4,16.12,16.12,0,0,0,6.1-1.18,13,13,0,0,0,4.76-3.14l1,1.38a14.37,14.37,0,0,1-4.81,3.38A17,17,0,0,1,553.3,689.54Zm.16-35a11.68,11.68,0,0,0-9,3.82,15.53,15.53,0,0,0-4,9.63l.1.2h24v-1.08a13.58,13.58,0,0,0-3-9A10.1,10.1,0,0,0,553.46,654.56Z"/><path data-cppathid="10094" fill="#fff" d="M593.11,688.85h-1.77v-51h1.77Z"/><path data-cppathid="10095" fill="#fff" d="M626.94,682.31a13.77,13.77,0,0,1-5.47,5.21,17.81,17.81,0,0,1-8.8,2,10.74,10.74,0,0,1-7.75-2.7,9.6,9.6,0,0,1-2.81-7.28c0-3,1.4-5.45,4.2-7.46a17.59,17.59,0,0,1,10.52-3h10.11v-5.17a8.7,8.7,0,0,0-2.83-6.89c-1.89-1.64-4.54-2.47-8-2.47a12.07,12.07,0,0,0-7.73,2.33,7.27,7.27,0,0,0-2.93,6l-1.48-.06-.06-.17a8.25,8.25,0,0,1,3.21-7,13.47,13.47,0,0,1,9-2.86q5.7,0,9.13,2.88t3.44,8.31v17.73a30.79,30.79,0,0,0,.21,3.63,22.36,22.36,0,0,0,.7,3.5h-2c-.29-1.55-.48-2.71-.58-3.49a21.5,21.5,0,0,1-.14-2.5Zm-14.27,5.49a16.25,16.25,0,0,0,8.92-2.32,13.52,13.52,0,0,0,5.35-6.64v-8h-10a16.28,16.28,0,0,0-9.28,2.53q-3.78,2.54-3.78,6.27a7.7,7.7,0,0,0,2.41,5.84A8.93,8.93,0,0,0,612.67,687.8Z"/></g><g style="isolation:isolate"><path data-cppathid="10096" fill="#00ffd3" d="M652.42,671.44q0-8.37,3.62-13.51a11.75,11.75,0,0,1,10.19-5.13,10,10,0,0,1,4.78,1.14,11.75,11.75,0,0,1,3.73,3.27v-19.4h9.58v51h-8.14l-.82-4.35a11.81,11.81,0,0,1-4,3.74,10.48,10.48,0,0,1-5.23,1.3A12,12,0,0,1,656,684.76q-3.62-4.77-3.62-12.63Zm9.52.69a14.46,14.46,0,0,0,1.57,7.31,5.47,5.47,0,0,0,5.11,2.67,7.53,7.53,0,0,0,3.6-.83,6.76,6.76,0,0,0,2.52-2.44V663.76a7.29,7.29,0,0,0-2.51-2.6,6.56,6.56,0,0,0-3.55-.94,5.4,5.4,0,0,0-5.12,3.11,17.56,17.56,0,0,0-1.62,8.11Z"/><path data-cppathid="10097" fill="#00ffd3" d="M707.06,689.54q-7.92,0-12.37-4.86t-4.45-12.52v-1.3q0-8,4.32-13t11.88-5q7.13,0,10.94,4.36t3.81,11.76v5h-21.1l-.1.19A9.54,9.54,0,0,0,702.2,680a7.38,7.38,0,0,0,5.87,2.26,19.48,19.48,0,0,0,5.45-.66,22.13,22.13,0,0,0,4.63-2l2.58,5.89a17.83,17.83,0,0,1-5.75,2.91A25.74,25.74,0,0,1,707.06,689.54Zm-.62-29.38a5.32,5.32,0,0,0-4.44,2,10,10,0,0,0-1.88,5.25l.07.16h11.64v-.72a8.28,8.28,0,0,0-1.27-4.89A4.72,4.72,0,0,0,706.44,660.16Z"/><path data-cppathid="10098" fill="#00ffd3" d="M745.89,679a3.33,3.33,0,0,0-1.52-2.7,15.4,15.4,0,0,0-5.64-2q-6.22-1.25-9.44-3.77a8.18,8.18,0,0,1-3.22-6.83,9.75,9.75,0,0,1,3.86-7.76q3.86-3.19,10.27-3.2,6.7,0,10.75,3.2a9.38,9.38,0,0,1,3.87,8l-.06.19h-9.23a4.66,4.66,0,0,0-1.37-3.47,5.47,5.47,0,0,0-4-1.34,5.36,5.36,0,0,0-3.63,1.15,3.53,3.53,0,0,0-1.34,2.81,3.18,3.18,0,0,0,1.39,2.67q1.38,1,5.64,1.85,6.51,1.3,9.7,3.84a8.42,8.42,0,0,1,3.19,7,9.33,9.33,0,0,1-4.09,7.82q-4.09,3-10.8,3-7.07,0-11.17-3.59c-2.74-2.38-4-5.11-3.91-8.16l.07-.2H734a5,5,0,0,0,1.87,4.13,7.69,7.69,0,0,0,4.61,1.27,6.55,6.55,0,0,0,4-1.06A3.44,3.44,0,0,0,745.89,679Z"/><path data-cppathid="10099" fill="#00ffd3" d="M774.09,675.67l.62,3.27h.2l.65-3.27,5.83-22.22h10l-12,35.4H770.2l-12-35.4h10Z"/><path data-cppathid="10100" fill="#00ffd3" d="M805.56,645H796v-7.17h9.55Zm0,43.87H796v-35.4h9.55Z"/><path data-cppathid="10101" fill="#00ffd3" d="M834.29,688.85a20.18,20.18,0,0,1-.9-2.55,18.07,18.07,0,0,1-.54-2.75,13,13,0,0,1-3.9,4.28,9.7,9.7,0,0,1-5.75,1.71q-5.57,0-8.58-2.87a10.28,10.28,0,0,1-3-7.8,9.31,9.31,0,0,1,4-8.06q4-2.87,11.7-2.87h5.36v-2.81a5.49,5.49,0,0,0-1.34-4,6.3,6.3,0,0,0-7.57-.28,4,4,0,0,0-1.26,3.1h-9.19l-.07-.2q-.22-4.49,3.91-7.74T828,652.8q6.39,0,10.32,3.2t4,9.2v14.62a27.75,27.75,0,0,0,.37,4.68,23.1,23.1,0,0,0,1.2,4.35Zm-8.74-6.38a8.13,8.13,0,0,0,4.45-1.24,6.69,6.69,0,0,0,2.68-2.88v-5h-5.36a6.34,6.34,0,0,0-4.6,1.51,5,5,0,0,0-1.55,3.69,3.69,3.69,0,0,0,1.16,2.87A4.58,4.58,0,0,0,825.55,682.47Z"/><path data-cppathid="10102" fill="#00ffd3" d="M864.19,682.21a5.34,5.34,0,0,0,4-1.49,5.41,5.41,0,0,0,1.47-4h8.7l.07.2a11.1,11.1,0,0,1-4,9,14.91,14.91,0,0,1-10.2,3.62q-7.86,0-12.14-5t-4.29-12.84v-1q0-7.79,4.27-12.84t12.09-5.05q6.48,0,10.44,3.73a12.46,12.46,0,0,1,3.83,9.81l-.07.2h-8.7a7.09,7.09,0,0,0-1.46-4.57,4.89,4.89,0,0,0-4-1.81,5.45,5.45,0,0,0-5.25,3,16.18,16.18,0,0,0-1.55,7.57v1a16.16,16.16,0,0,0,1.55,7.63A5.53,5.53,0,0,0,864.19,682.21Z"/><path data-cppathid="10103" fill="#00ffd3" d="M894,645h-9.55v-7.17H894Zm0,43.87h-9.55v-35.4H894Z"/><path data-cppathid="10104" fill="#00ffd3" d="M900.37,670.82q0-7.92,4.42-13T917,652.8q7.86,0,12.3,5t4.45,13v.69q0,8-4.43,13t-12.25,5q-7.86,0-12.29-5t-4.43-13Zm9.52.69a15.43,15.43,0,0,0,1.7,7.77,5.89,5.89,0,0,0,5.5,2.93,5.8,5.8,0,0,0,5.41-3,15.21,15.21,0,0,0,1.72-7.75v-.69a15.23,15.23,0,0,0-1.73-7.69,5.88,5.88,0,0,0-5.47-3,5.79,5.79,0,0,0-5.41,3,15.23,15.23,0,0,0-1.72,7.67ZM919,638.34h10.63l.07.19L920.59,647h-8.15Z"/><path data-cppathid="10105" fill="#00ffd3" d="M948.4,653.45l.42,5.07a13.06,13.06,0,0,1,4.35-4.22,11.33,11.33,0,0,1,5.79-1.5,10.54,10.54,0,0,1,8.38,3.45q3,3.45,3,10.91v21.69h-9.59V667.19q0-3.8-1.32-5.38a4.89,4.89,0,0,0-4-1.59,8.37,8.37,0,0,0-3.74.8,7.48,7.48,0,0,0-2.67,2.21v25.62H939.5v-35.4Z"/></g><g style="isolation:isolate"><path data-cppathid="10106" fill="#00ffd3" d="M329.49,739.76l.4,2h.2L337,718.91h10.43l-14.58,41.31a19,19,0,0,1-4.15,6.49q-2.62,2.64-7.87,2.64a12.29,12.29,0,0,1-2.27-.2c-.7-.13-1.55-.32-2.54-.57l1.13-7.07.93.14a7.51,7.51,0,0,0,.89.06,5.28,5.28,0,0,0,3.69-1.18,7.66,7.66,0,0,0,2-2.94l1.13-2.78L313,718.91h10.42Z"/><path data-cppathid="10107" fill="#00ffd3" d="M379.83,710.11v8.8h6.07v6.81h-6.07V744a4.14,4.14,0,0,0,.88,3,3.06,3.06,0,0,0,2.3.9,10.1,10.1,0,0,0,1.33-.08,10.88,10.88,0,0,0,1.3-.29l.79,7a20.53,20.53,0,0,1-2.83.75,17.62,17.62,0,0,1-3,.25c-3.34,0-5.92-.92-7.72-2.76s-2.71-4.75-2.71-8.73V725.72h-5.24v-6.81h5.24v-8.8Z"/><path data-cppathid="10108" fill="#00ffd3" d="M402.07,710.31h-9.69V703h9.69Zm0,44.53h-9.69V718.91h9.69Z"/><path data-cppathid="10109" fill="#00ffd3" d="M425.61,755.54q-8,0-12.55-4.93t-4.51-12.7v-1.33q0-8.07,4.38-13.22T425,718.25q7.25,0,11.11,4.43T440,734.62v5H418.54l-.1.2a9.74,9.74,0,0,0,2.24,6,7.54,7.54,0,0,0,6,2.29,19.68,19.68,0,0,0,5.53-.67,22.27,22.27,0,0,0,4.7-2l2.62,6a18.08,18.08,0,0,1-5.84,3A25.87,25.87,0,0,1,425.61,755.54ZM425,725.72a5.39,5.39,0,0,0-4.5,2,10.15,10.15,0,0,0-1.91,5.33l.07.16h11.82v-.73a8.42,8.42,0,0,0-1.29-5A4.8,4.8,0,0,0,425,725.72Z"/><path data-cppathid="10110" fill="#00ffd3" d="M454.6,718.91l.4,4.75a12,12,0,0,1,4.33-4,12.49,12.49,0,0,1,6-1.41,11,11,0,0,1,5.91,1.53,9.35,9.35,0,0,1,3.72,4.61,12.38,12.38,0,0,1,4.31-4.51,11.67,11.67,0,0,1,6.25-1.63,10.24,10.24,0,0,1,8.38,3.77q3.07,3.76,3.07,11.5v21.32h-9.69V733.49c0-2.88-.45-4.88-1.33-6a4.72,4.72,0,0,0-4-1.69,6.48,6.48,0,0,0-6,3.45q0,.63,0,1.08c0,.3,0,.6,0,.91v23.61h-9.67V733.49q0-4.22-1.32-6a4.71,4.71,0,0,0-4-1.74,7.64,7.64,0,0,0-3.44.74,6.69,6.69,0,0,0-2.44,2.11v26.2H445.6V718.91Z"/><path data-cppathid="10111" fill="#00ffd3" d="M536.84,737.87q0,8-3.68,12.82a12.2,12.2,0,0,1-10.29,4.85,11.47,11.47,0,0,1-5-1,10.32,10.32,0,0,1-3.75-3.07v17.23h-9.66V718.91h8.73l.56,4.25a11.61,11.61,0,0,1,3.84-3.63,10.39,10.39,0,0,1,5.23-1.28,12,12,0,0,1,10.36,5.21q3.69,5.22,3.68,13.71Zm-9.69-.7a17.48,17.48,0,0,0-1.69-8.23,5.53,5.53,0,0,0-5.18-3.15,7.29,7.29,0,0,0-3.74.89,6.41,6.41,0,0,0-2.44,2.56V745a5.92,5.92,0,0,0,2.44,2.32,8.25,8.25,0,0,0,3.8.8,5.59,5.59,0,0,0,5.17-2.76,14.57,14.57,0,0,0,1.64-7.47Z"/><path data-cppathid="10112" fill="#00ffd3" d="M541.33,736.54q0-8,4.48-13.16t12.42-5.13q8,0,12.48,5.11t4.52,13.18v.7q0,8.1-4.5,13.2t-12.44,5.1q-8,0-12.46-5.1t-4.5-13.2Zm9.66.7a15.54,15.54,0,0,0,1.73,7.89,6.63,6.63,0,0,0,11.07,0,15.53,15.53,0,0,0,1.74-7.87v-.7a15.42,15.42,0,0,0-1.76-7.8,6,6,0,0,0-5.54-3,5.88,5.88,0,0,0-5.5,3,15.5,15.5,0,0,0-1.74,7.78Z"/><path data-cppathid="10113" fill="#00ffd3" d="M600.63,744.88a3.35,3.35,0,0,0-1.55-2.74,15.86,15.86,0,0,0-5.72-2q-6.32-1.26-9.58-3.82a8.34,8.34,0,0,1-3.27-6.94,9.91,9.91,0,0,1,3.91-7.87q3.93-3.25,10.43-3.25,6.81,0,10.91,3.25a9.51,9.51,0,0,1,3.93,8.1l-.07.2h-9.36a4.72,4.72,0,0,0-1.39-3.52,6.54,6.54,0,0,0-7.71-.2,3.65,3.65,0,0,0-1.36,2.86,3.23,3.23,0,0,0,1.41,2.71c.94.69,2.85,1.32,5.73,1.87q6.62,1.34,9.85,3.9a8.58,8.58,0,0,1,3.23,7.09,9.47,9.47,0,0,1-4.15,7.94c-2.76,2.06-6.42,3.09-11,3.09-4.79,0-8.56-1.22-11.34-3.64s-4.1-5.18-4-8.28l.07-.2h8.86a5.06,5.06,0,0,0,1.89,4.18,7.87,7.87,0,0,0,4.69,1.3,6.66,6.66,0,0,0,4.1-1.08A3.51,3.51,0,0,0,600.63,744.88Z"/></g><g style="isolation:isolate"><path data-cppathid="10114" fill="#fff" d="M632.54,736.84q0-8.54,3.59-13.56a11.56,11.56,0,0,1,10-5,13.7,13.7,0,0,1,7.25,1.87,14,14,0,0,1,4.9,5.13V703H660v27a0,0,0,0,0,0,0v14.65a.23.23,0,0,0,0,.09v10h-1.73l-.07-5.55a12.73,12.73,0,0,1-4.91,4.57,15.2,15.2,0,0,1-7.31,1.68,11.63,11.63,0,0,1-9.91-4.85q-3.57-4.85-3.57-13.15Zm1.86.7q0,7.44,2.94,11.82a9.75,9.75,0,0,0,8.65,4.38,13.45,13.45,0,0,0,7.77-2.11,12,12,0,0,0,4.48-5.62V729a14.9,14.9,0,0,0-4.2-6.39q-2.87-2.58-8-2.58a9.68,9.68,0,0,0-8.69,4.67q-3,4.66-3,12.13Z"/><path data-cppathid="10115" fill="#fff" d="M684,755.54a13.77,13.77,0,0,1-10.71-4.92,17.94,17.94,0,0,1-4.37-12.38v-2.13q0-7.8,4.34-12.83a13.79,13.79,0,0,1,10.9-5,12.21,12.21,0,0,1,9.53,3.93q3.56,3.95,3.56,10.74v2.76H670.73v2.56a16.68,16.68,0,0,0,3.72,11,11.87,11.87,0,0,0,9.56,4.46,16.54,16.54,0,0,0,6.19-1.19,13.27,13.27,0,0,0,4.83-3.19l1,1.39a14.36,14.36,0,0,1-4.88,3.44A17.13,17.13,0,0,1,684,755.54Zm.16-35.5a11.89,11.89,0,0,0-9.14,3.87,15.78,15.78,0,0,0-4,9.78l.1.2h24.37v-1.1a13.75,13.75,0,0,0-3-9.15A10.22,10.22,0,0,0,684.17,720Z"/><path data-cppathid="10116" fill="#fff" d="M734.78,755.54a13.77,13.77,0,0,1-10.71-4.92,17.94,17.94,0,0,1-4.37-12.38v-2.13q0-7.8,4.33-12.83a13.81,13.81,0,0,1,10.91-5,12.21,12.21,0,0,1,9.53,3.93q3.56,3.95,3.55,10.74v2.76H721.49v2.56a16.68,16.68,0,0,0,3.72,11,11.91,11.91,0,0,0,9.57,4.46,16.58,16.58,0,0,0,6.19-1.19,13.27,13.27,0,0,0,4.83-3.19l1,1.39a14.46,14.46,0,0,1-4.88,3.44A17.13,17.13,0,0,1,734.78,755.54Zm.16-35.5a11.89,11.89,0,0,0-9.15,3.87,15.78,15.78,0,0,0-4,9.78l.1.2h24.37v-1.1a13.8,13.8,0,0,0-3-9.15A10.23,10.23,0,0,0,734.94,720Zm5.78-16.37h2.59l.07.17-7.67,8.66h-2.23l-.07-.16Z"/><path data-cppathid="10117" fill="#fff" d="M778.7,746a7.08,7.08,0,0,0-2.44-5.2q-2.43-2.34-8.51-3.67-6.42-1.35-9.28-3.5a7.43,7.43,0,0,1-2.88-6.36,8,8,0,0,1,3.26-6.45q3.25-2.61,8.76-2.61,6,0,9.37,2.79a8.49,8.49,0,0,1,3.25,7.27l-.07.2h-1.52a7.53,7.53,0,0,0-3-6,12.23,12.23,0,0,0-8.06-2.48c-3.36,0-5.91.73-7.63,2.18a6.42,6.42,0,0,0-2.59,5,6.27,6.27,0,0,0,2.19,4.81q2.19,2,8.7,3.49a23.8,23.8,0,0,1,9.11,3.8,8,8,0,0,1,3.11,6.72,8.2,8.2,0,0,1-3.46,6.84q-3.45,2.63-9.16,2.63-6.27,0-9.85-2.81a7.76,7.76,0,0,1-3.33-6.82l.06-.2h1.46a7.06,7.06,0,0,0,3.66,6.14,16.13,16.13,0,0,0,8,1.89,12.34,12.34,0,0,0,7.9-2.32A6.76,6.76,0,0,0,778.7,746Z"/><path data-cppathid="10118" fill="#fff" d="M794.24,709.22v9.69h8.83v1.83h-8.83v24.84q0,4.41,1.5,6.29a4.79,4.79,0,0,0,4,1.87q.9,0,1.59-.06c.47,0,1.11-.12,1.93-.24l.33,1.63a8.86,8.86,0,0,1-1.73.37,20.2,20.2,0,0,1-2,.1,6.61,6.61,0,0,1-5.5-2.36c-1.25-1.57-1.87-4.11-1.87-7.6V720.74h-6.64v-1.83h6.64v-9.69Z"/><path data-cppathid="10119" fill="#fff" d="M834.09,748.2a14,14,0,0,1-5.55,5.29,18.08,18.08,0,0,1-8.93,2,10.92,10.92,0,0,1-7.87-2.74,9.78,9.78,0,0,1-2.86-7.39c0-3,1.43-5.53,4.27-7.57a17.86,17.86,0,0,1,10.68-3.06h10.26v-5.24a8.77,8.77,0,0,0-2.88-7c-1.91-1.67-4.61-2.51-8.08-2.51a12.28,12.28,0,0,0-7.85,2.36,7.4,7.4,0,0,0-3,6.08l-1.49-.07-.07-.17a8.4,8.4,0,0,1,3.26-7.09,13.73,13.73,0,0,1,9.13-2.9q5.77,0,9.26,2.92t3.49,8.43v18a31.82,31.82,0,0,0,.21,3.69,24.28,24.28,0,0,0,.72,3.55h-2c-.29-1.57-.49-2.75-.58-3.54a20.07,20.07,0,0,1-.15-2.54Zm-14.48,5.58a16.54,16.54,0,0,0,9-2.36,13.77,13.77,0,0,0,5.43-6.74v-8.07H823.93a16.58,16.58,0,0,0-9.42,2.57q-3.82,2.58-3.83,6.36a7.78,7.78,0,0,0,2.44,5.93A9.06,9.06,0,0,0,819.61,753.78Z"/></g></svg>