<?xml version="1.0" encoding="UTF-8"?>
<svg xmlns="http://www.w3.org/2000/svg" onmouseup="{ if(window.parent.document.onmouseup) window.parent.document.onmouseup(arguments[0]);}" xml:space="preserve" style="enable-background:new 0 0 1156.82 1080;" viewBox="0 0 1156.82 1080" y="0px" x="0px" id="Layer_1" version="1.1" xmlns:xlink="http://www.w3.org/1999/xlink"><style type="text/css">
	.st0{fill:#333E48;}
	.st1{opacity:0.1;}
	.st2{clip-path:url(#SVGID_00000118398741939117189340000004049588285271955870_);}
	.st3{fill:none;stroke:#00FFD3;stroke-width:1.4007;stroke-linecap:round;stroke-linejoin:round;stroke-miterlimit:10;}
	.st4{fill:none;stroke:#00FFD3;stroke-width:1.4007;stroke-linecap:round;stroke-linejoin:round;}
	.st5{fill:#00FFD3;}
	.st6{fill:#E9E9FF;}
	.st7{fill:#323266;}
	.st8{fill:#B0B0E0;}
	.st9{fill:#FFFFFF;}
	.st10{fill:#ABBEC6;}
	.st11{fill:#D9E3E8;}
	.st12{fill:#E75300;}
	.st13{fill:#4C4CA2;}
	.st14{opacity:0.3962;fill:none;stroke:#000000;stroke-width:0.1323;enable-background:new    ;}
	.st15{opacity:0.3538;fill:#C20118;enable-background:new    ;}
	.st16{fill:#F7A800;}
	.st17{fill:#E3FBFC;}
	.st18{fill:#C33A32;}
	.st19{fill:#A9E8EF;}
	.st20{fill:#97CBD2;}
	.st21{fill:none;stroke:#00FFD3;stroke-width:4;stroke-linecap:round;stroke-linejoin:round;}
	.st22{fill:none;stroke:#00FFD3;stroke-width:4;stroke-linecap:round;stroke-linejoin:round;stroke-dasharray:0,10.0211;}
	.st23{fill:none;stroke:#00FFD3;stroke-width:4;stroke-linecap:round;stroke-linejoin:round;stroke-dasharray:0,9.7539;}
	.st24{fill:none;stroke:#00FFD3;stroke-width:4;stroke-linecap:round;stroke-linejoin:round;stroke-dasharray:0,10.0357;}
	.st25{fill:#FFBF41;}
	.st26{fill:#FF8132;}
	.st27{fill:#EE6A26;}
	.st28{fill:#EEAD40;}
	.st29{clip-path:url(#SVGID_00000068675320162500570090000016362182270255808130_);}
	.st30{fill:#D8D9DA;}
	.st31{fill:#ECECED;}
	.st32{font-family:'Roboto-Bold';}
	.st33{font-size:55.8708px;}
	.st34{fill:#FECC2F;}
	.st35{fill:#FCB237;}
	.st36{fill:#0099A8;}
	.st37{font-size:42.3746px;}
	.st38{fill:#E2A896;}
	.st39{fill:#EFBBA8;}
	.st40{fill:#0069A7;}
	.st41{fill:#FFAE73;}
	.st42{fill:#1E3865;}
	.st43{fill:#F9924F;}
	.st44{fill:#D3D3D3;}
	.st45{fill:#DBA18F;}
	.st46{fill:#E8BB95;}
	.st47{fill:#F9CFB3;}
	.st48{fill:#D5A378;}
	.st49{fill:#BAD1DD;}
	.st50{fill:#9AB9CA;}
	.st51{fill:#4B616C;}
	.st52{fill:#C1DAEC;}
	.st53{fill:#E4F4FF;}
	.st54{fill:#025C89;}
	.st55{fill:#ECBB1A;}
	.st56{fill:#F2F3F4;}
</style><g><g><g><rect data-cppathid="10000" height="1080" width="1156.82" class="st0"/></g></g></g><g><g><path data-cppathid="10001" d="M1130.84,754.7c0,27.11-169.2,49.09-377.94,49.09c-208.73,0-377.95-21.98-377.95-49.09    c0-27.1,169.22-49.1,377.95-49.1C961.64,705.6,1130.84,727.6,1130.84,754.7z" class="st1"/></g><g><defs><path data-cppathid="10002" d="M1104.43,1060H52.39C34.5,1060,20,1045.5,20,1027.61V52.38C20,34.5,34.5,20,52.39,20h1052.04     c17.89,0,32.39,14.5,32.39,32.39v975.23C1136.82,1045.5,1122.32,1060,1104.43,1060z" id="SVGID_1_"/></defs><clipPath id="SVGID_00000029039736132002319420000011790495822900682624_"><use style="overflow:visible;" xlink:href="#SVGID_1_"/></clipPath><g style="clip-path:url(#SVGID_00000029039736132002319420000011790495822900682624_);"><g><g><line data-cppathid="10003" y2="940.58" x2="99.88" y1="1220.92" x1="99.88" class="st3"/><line data-cppathid="10004" y2="940.58" x2="174.01" y1="940.58" x1="99.88" class="st3"/><g><g><line data-cppathid="10005" y2="836.14" x2="174.01" y1="940.58" x1="174.01" class="st4"/><g><path data-cppathid="10006" d="M179.28,836.14c0-2.91-2.36-5.27-5.27-5.27c-2.91,0-5.27,2.36-5.27,5.27s2.36,5.27,5.27,5.27          C176.92,841.41,179.28,839.05,179.28,836.14z" class="st5"/></g></g></g><line data-cppathid="10007" y2="984.56" x2="136.95" y1="1220.92" x1="136.95" class="st3"/><line data-cppathid="10008" y2="984.56" x2="224.08" y1="984.56" x1="136.95" class="st3"/><g><g><line data-cppathid="10009" y2="870.5" x2="224.08" y1="984.56" x1="224.08" class="st4"/><g><path data-cppathid="10010" d="M229.35,870.5c0-2.91-2.36-5.27-5.27-5.27s-5.27,2.36-5.27,5.27c0,2.91,2.36,5.27,5.27,5.27          S229.35,873.4,229.35,870.5z" class="st5"/></g></g></g><g><g><line data-cppathid="10011" y2="899.36" x2="301.08" y1="1220.92" x1="301.08" class="st4"/><g><path data-cppathid="10012" d="M306.35,899.36c0-2.91-2.36-5.27-5.27-5.27c-2.91,0-5.27,2.36-5.27,5.27c0,2.91,2.36,5.27,5.27,5.27          C303.99,904.62,306.35,902.26,306.35,899.36z" class="st5"/></g></g></g><line data-cppathid="10013" y2="957.07" x2="322.56" y1="1220.92" x1="322.56" class="st3"/><line data-cppathid="10014" y2="957.07" x2="398.79" y1="957.07" x1="322.56" class="st3"/><g><g><line data-cppathid="10015" y2="921.34" x2="398.79" y1="957.07" x1="398.79" class="st4"/><g><path data-cppathid="10016" d="M404.06,921.34c0-2.91-2.36-5.27-5.27-5.27s-5.27,2.36-5.27,5.27c0,2.91,2.36,5.27,5.27,5.27          S404.06,924.25,404.06,921.34z" class="st5"/></g></g></g><g><g><line data-cppathid="10017" y2="940.58" x2="257.3" y1="1220.92" x1="257.3" class="st4"/><g><path data-cppathid="10018" d="M262.57,940.58c0-2.91-2.36-5.27-5.27-5.27c-2.91,0-5.27,2.36-5.27,5.27s2.36,5.27,5.27,5.27          C260.21,945.85,262.57,943.49,262.57,940.58z" class="st5"/></g></g></g><g><g><line data-cppathid="10019" y2="1025.78" x2="360.67" y1="1220.92" x1="360.67" class="st4"/><g><path data-cppathid="10020" d="M365.94,1025.78c0-2.91-2.36-5.27-5.27-5.27c-2.91,0-5.27,2.36-5.27,5.27c0,2.91,2.36,5.27,5.27,5.27          C363.58,1031.05,365.94,1028.69,365.94,1025.78z" class="st5"/></g></g></g><line data-cppathid="10021" y2="1001.05" x2="398.79" y1="1220.92" x1="398.79" class="st3"/><line data-cppathid="10022" y2="1001.05" x2="442.84" y1="1001.05" x1="398.79" class="st3"/><g><g><line data-cppathid="10023" y2="938.52" x2="442.84" y1="1001.05" x1="442.84" class="st4"/><g><path data-cppathid="10024" d="M448.11,938.52c0-2.91-2.36-5.27-5.27-5.27s-5.27,2.36-5.27,5.27c0,2.91,2.36,5.27,5.27,5.27          S448.11,941.43,448.11,938.52z" class="st5"/></g></g></g><g><g><line data-cppathid="10025" y2="904.85" x2="481.25" y1="1220.92" x1="481.25" class="st4"/><g><path data-cppathid="10026" d="M486.51,904.85c0-2.91-2.36-5.27-5.27-5.27c-2.91,0-5.27,2.36-5.27,5.27s2.36,5.27,5.27,5.27          C484.15,910.12,486.51,907.76,486.51,904.85z" class="st5"/></g></g></g><g><g><line data-cppathid="10027" y2="1025.78" x2="191.86" y1="1220.92" x1="191.86" class="st4"/><g><path data-cppathid="10028" d="M197.13,1025.78c0-2.91-2.36-5.27-5.27-5.27s-5.27,2.36-5.27,5.27c0,2.91,2.36,5.27,5.27,5.27          S197.13,1028.69,197.13,1025.78z" class="st5"/></g></g></g><line data-cppathid="10029" y2="969.78" x2="521.86" y1="1220.92" x1="521.86" class="st3"/><line data-cppathid="10030" y2="969.78" x2="574.87" y1="969.78" x1="521.86" class="st3"/><g><g><line data-cppathid="10031" y2="892.49" x2="574.87" y1="969.78" x1="574.87" class="st4"/><g><path data-cppathid="10032" d="M580.14,892.49c0-2.91-2.36-5.27-5.27-5.27s-5.27,2.36-5.27,5.27s2.36,5.27,5.27,5.27          S580.14,895.39,580.14,892.49z" class="st5"/></g></g></g><g><g><line data-cppathid="10033" y2="850.98" x2="613.31" y1="1220.92" x1="613.31" class="st4"/><g><path data-cppathid="10034" d="M618.58,850.98c0-2.91-2.36-5.27-5.27-5.27c-2.91,0-5.27,2.36-5.27,5.27c0,2.91,2.36,5.27,5.27,5.27          C616.22,856.25,618.58,853.89,618.58,850.98z" class="st5"/></g></g></g><g><g><line data-cppathid="10035" y2="1062.88" x2="442.84" y1="1220.92" x1="442.84" class="st4"/><g><path data-cppathid="10036" d="M448.11,1062.88c0-2.91-2.36-5.27-5.27-5.27s-5.27,2.36-5.27,5.27c0,2.91,2.36,5.27,5.27,5.27          S448.11,1065.79,448.11,1062.88z" class="st5"/></g></g></g><line data-cppathid="10037" y2="931.13" x2="643.52" y1="1220.92" x1="643.52" class="st3"/><line data-cppathid="10038" y2="931.13" x2="701.17" y1="931.13" x1="643.52" class="st3"/><g><g><line data-cppathid="10039" y2="805.91" x2="701.17" y1="931.13" x1="701.17" class="st4"/><g><path data-cppathid="10040" d="M706.44,805.91c0-2.91-2.36-5.27-5.27-5.27s-5.27,2.36-5.27,5.27c0,2.91,2.36,5.27,5.27,5.27          S706.44,808.82,706.44,805.91z" class="st5"/></g></g></g><g><g><line data-cppathid="10041" y2="1001.05" x2="701.17" y1="1220.92" x1="701.17" class="st4"/><g><path data-cppathid="10042" d="M706.44,1001.05c0-2.91-2.36-5.27-5.27-5.27s-5.27,2.36-5.27,5.27c0,2.91,2.36,5.27,5.27,5.27          S706.44,1003.95,706.44,1001.05z" class="st5"/></g></g></g><g><g><line data-cppathid="10043" y2="734.45" x2="65.84" y1="1220.92" x1="65.84" class="st4"/><g><path data-cppathid="10044" d="M71.1,734.45c0-2.91-2.36-5.27-5.27-5.27c-2.91,0-5.27,2.36-5.27,5.27s2.36,5.27,5.27,5.27          C68.75,739.72,71.1,737.36,71.1,734.45z" class="st5"/></g></g></g></g></g><g><g><line data-cppathid="10045" y2="128.44" x2="1082.62" y1="-151.9" x1="1082.62" class="st3"/><line data-cppathid="10046" y2="128.44" x2="1008.49" y1="128.44" x1="1082.62" class="st3"/><g><g><line data-cppathid="10047" y2="208.14" x2="1008.49" y1="128.44" x1="1008.49" class="st4"/><g><path data-cppathid="10048" d="M1003.22,208.14c0,2.91,2.36,5.27,5.27,5.27s5.27-2.36,5.27-5.27c0-2.91-2.36-5.27-5.27-5.27          S1003.22,205.23,1003.22,208.14z" class="st5"/></g></g></g><line data-cppathid="10049" y2="84.46" x2="1056.54" y1="-151.9" x1="1056.54" class="st3"/><line data-cppathid="10050" y2="84.46" x2="969.4" y1="84.46" x1="1056.54" class="st3"/><g><g><line data-cppathid="10051" y2="176.53" x2="969.4" y1="84.46" x1="969.4" class="st4"/><g><path data-cppathid="10052" d="M964.14,176.53c0,2.91,2.36,5.27,5.27,5.27s5.27-2.36,5.27-5.27c0-2.91-2.36-5.27-5.27-5.27          S964.14,173.62,964.14,176.53z" class="st5"/></g></g></g><g><g><line data-cppathid="10053" y2="147.68" x2="878.67" y1="-151.9" x1="878.67" class="st4"/><g><path data-cppathid="10054" d="M873.41,147.68c0,2.91,2.36,5.27,5.27,5.27s5.27-2.36,5.27-5.27s-2.36-5.27-5.27-5.27          S873.41,144.77,873.41,147.68z" class="st5"/></g></g></g><line data-cppathid="10055" y2="111.94" x2="851.71" y1="-151.9" x1="851.71" class="st3"/><line data-cppathid="10056" y2="111.94" x2="775.47" y1="111.94" x1="851.71" class="st3"/><g><g><line data-cppathid="10057" y2="155.92" x2="775.47" y1="111.94" x1="775.47" class="st4"/><g><path data-cppathid="10058" d="M770.21,155.92c0,2.91,2.36,5.27,5.27,5.27c2.91,0,5.27-2.36,5.27-5.27c0-2.91-2.36-5.27-5.27-5.27          C772.57,150.65,770.21,153.01,770.21,155.92z" class="st5"/></g></g></g><g><g><line data-cppathid="10059" y2="128.44" x2="927.95" y1="-151.9" x1="927.95" class="st4"/><g><path data-cppathid="10060" d="M922.68,128.44c0,2.91,2.36,5.27,5.27,5.27c2.91,0,5.27-2.36,5.27-5.27c0-2.91-2.36-5.27-5.27-5.27          C925.04,123.17,922.68,125.53,922.68,128.44z" class="st5"/></g></g></g><g><g><line data-cppathid="10061" y2="43.24" x2="813.59" y1="-151.9" x1="813.59" class="st4"/><g><path data-cppathid="10062" d="M808.33,43.24c0,2.91,2.36,5.27,5.27,5.27c2.91,0,5.27-2.36,5.27-5.27s-2.36-5.27-5.27-5.27          C810.69,37.97,808.33,40.33,808.33,43.24z" class="st5"/></g></g></g><line data-cppathid="10063" y2="67.97" x2="775.47" y1="-151.9" x1="775.47" class="st3"/><line data-cppathid="10064" y2="67.97" x2="731.43" y1="67.97" x1="775.47" class="st3"/><g><g><line data-cppathid="10065" y2="130.5" x2="731.43" y1="67.97" x1="731.43" class="st4"/><g><circle data-cppathid="10066" r="5.27" cy="130.5" cx="731.43" class="st5"/></g></g></g><g><g><line data-cppathid="10067" y2="147.68" x2="679.29" y1="-151.9" x1="679.29" class="st4"/><g><path data-cppathid="10068" d="M674.03,147.68c0,2.91,2.36,5.27,5.27,5.27s5.27-2.36,5.27-5.27s-2.36-5.27-5.27-5.27          S674.03,144.77,674.03,147.68z" class="st5"/></g></g></g><g><g><line data-cppathid="10069" y2="43.24" x2="982.41" y1="-151.9" x1="982.41" class="st4"/><g><path data-cppathid="10070" d="M977.14,43.24c0,2.91,2.36,5.27,5.27,5.27s5.27-2.36,5.27-5.27s-2.36-5.27-5.27-5.27          S977.14,40.33,977.14,43.24z" class="st5"/></g></g></g><line data-cppathid="10071" y2="99.24" x2="652.41" y1="-151.9" x1="652.41" class="st3"/><line data-cppathid="10072" y2="99.24" x2="599.39" y1="99.24" x1="652.41" class="st3"/><g><g><line data-cppathid="10073" y2="176.53" x2="599.39" y1="99.24" x1="599.39" class="st4"/><g><path data-cppathid="10074" d="M594.13,176.53c0,2.91,2.36,5.27,5.27,5.27c2.91,0,5.27-2.36,5.27-5.27c0-2.91-2.36-5.27-5.27-5.27          C596.48,171.27,594.13,173.62,594.13,176.53z" class="st5"/></g></g></g><g><g><line data-cppathid="10075" y2="198.8" x2="560.95" y1="-151.9" x1="560.95" class="st4"/><g><path data-cppathid="10076" d="M555.69,198.8c0,2.91,2.36,5.27,5.27,5.27s5.27-2.36,5.27-5.27s-2.36-5.27-5.27-5.27          S555.69,195.89,555.69,198.8z" class="st5"/></g></g></g><g><g><line data-cppathid="10077" y2="6.13" x2="731.43" y1="-151.9" x1="731.43" class="st4"/><g><path data-cppathid="10078" d="M726.16,6.13c0,2.91,2.36,5.27,5.27,5.27s5.27-2.36,5.27-5.27s-2.36-5.27-5.27-5.27          S726.16,3.23,726.16,6.13z" class="st5"/></g></g></g><line data-cppathid="10079" y2="137.88" x2="530.75" y1="-151.9" x1="530.75" class="st3"/><line data-cppathid="10080" y2="137.88" x2="473.09" y1="137.88" x1="530.75" class="st3"/><g><g><line data-cppathid="10081" y2="307.08" x2="473.09" y1="137.88" x1="473.09" class="st4"/><g><path data-cppathid="10082" d="M467.83,307.08c0,2.91,2.36,5.27,5.27,5.27c2.91,0,5.27-2.36,5.27-5.27s-2.36-5.27-5.27-5.27          C470.19,301.81,467.83,304.17,467.83,307.08z" class="st5"/></g></g></g><g><g><line data-cppathid="10083" y2="67.97" x2="473.09" y1="-151.9" x1="473.09" class="st4"/><g><path data-cppathid="10084" d="M467.83,67.97c0,2.91,2.36,5.27,5.27,5.27c2.91,0,5.27-2.36,5.27-5.27s-2.36-5.27-5.27-5.27          C470.19,62.71,467.83,65.06,467.83,67.97z" class="st5"/></g></g></g><g><g><line data-cppathid="10085" y2="296.09" x2="1113.92" y1="-151.9" x1="1113.92" class="st4"/><g><path data-cppathid="10086" d="M1108.66,296.09c0,2.91,2.36,5.27,5.27,5.27c2.91,0,5.27-2.36,5.27-5.27s-2.36-5.27-5.27-5.27          C1111.01,290.82,1108.66,293.18,1108.66,296.09z" class="st5"/></g></g></g></g></g></g></g><g><g id="g1622_00000132082928407191587620000006589241340415990698_"><path data-cppathid="10087" d="M811.16,694.38l244.42-2.91v13.99     l-244.42,0.84V694.38z" class="st6" id="path15589_00000157270652801985118420000016632976270058560173_"/><path data-cppathid="10088" d="M686.44,714.5v12.97l124.73-21.17     v-11.92L686.44,714.5z" class="st7" id="path15591_00000155829678440872426050000001720760953443701155_"/><path data-cppathid="10089" d="M686.44,727.47l246.08,3.14     l123.06-25.15l-244.42,0.84L686.44,727.47z" class="st8" id="path15593_00000047742928210401733690000009347322570002309282_"/><path data-cppathid="10090" d="M686.44,714.5l246.08,0.65     l123.06-23.68l-244.42,2.91L686.44,714.5z" class="st9" id="path15595_00000000921215396359049620000000098951580326465942_"/><path data-cppathid="10091" d="M932.52,715.15v15.46l123.06-25.15     v-13.99L932.52,715.15z" class="st10" id="path15597_00000098914896669398380710000018422218974879622066_"/><path data-cppathid="10092" d="M686.44,714.5l246.08,0.65v15.46     l-246.08-3.14V714.5z" class="st11" id="path15599_00000011022048649181760140000007107642013155825799_"/><path data-cppathid="10093" d="M819.51,562.03h111.26     c1.34,0,2.42,1.08,2.42,2.42V701.5c0,1.34-1.08,2.42-2.42,2.42H819.51c-1.34,0-2.42-1.08-2.42-2.42V564.45     C817.1,563.11,818.17,562.03,819.51,562.03z" class="st10" id="rect14478_00000059995073029325535700000008617437987175151550_"/><path data-cppathid="10094" d="M808.22,562.03h111.26     c1.34,0,2.42,1.08,2.42,2.42V701.5c0,1.34-1.08,2.42-2.42,2.42H808.22c-1.34,0-2.42-1.08-2.42-2.42V564.45     C805.8,563.11,806.88,562.03,808.22,562.03z" class="st11" id="rect14396_00000036252639740075587820000017037754584843384475_"/><path data-cppathid="10095" d="M1068.03,336.03l-2.33,6.23     c-0.53-0.07-1.06-0.1-1.6-0.11H704.15c-9.78,0-18.36,6.52-20.99,15.94l-71.23,255.58l-5.93-0.65l6.44,11.38     c0.16,0.32,0.34,0.64,0.54,0.95l0.39,0.68l0.12-0.01c2.33,3.26,6.08,5.2,10.08,5.25h359.95c9.78,0,18.36-6.52,20.99-15.94     l71.7-257.24c0.82-2.95,0.53-6.1-0.81-8.86l0.01-0.01l-0.04-0.07c-0.08-0.16-0.17-0.32-0.26-0.47L1068.03,336.03z" class="st9" id="path13450_00000016042777791033104940000006680192716161508531_"/><path data-cppathid="10096" d="M697.36,330.02h359.96     c6.94,0,12.56,5.63,12.56,12.56c0,1.14-0.16,2.28-0.46,3.37l-71.7,257.24c-2.63,9.42-11.21,15.94-20.99,15.94H616.78     c-6.94,0-12.56-5.62-12.56-12.56c0-1.14,0.16-2.27,0.46-3.37l71.7-257.24C678.99,336.54,687.58,330.02,697.36,330.02z" class="st11" id="rect12547_00000072252082356305074020000010594210570500545458_"/><path data-cppathid="10097" d="M697.36,337.66     c-6.13,0-11.99,4.44-13.64,10.34l-71.7,257.25c-0.81,2.91,1.72,6.24,4.74,6.24h359.96c6.13,0,11.98-4.44,13.63-10.34     l71.69-257.25c0.81-2.91-1.72-6.24-4.74-6.24H697.36z" class="st12" id="path13456_00000006669770071221484040000012537931636902014893_"/></g><g id="g1492_00000087381162239413030230000004690107474090122406_"><path data-cppathid="10098" d="M608.7,733.6l374.41,7v11.75     l-374.41-9.79V733.6z" class="st6" id="path15549_00000060730158239696760220000015594207455223216786_"/><path data-cppathid="10099" d="M496.95,752.07v9.57l111.75-19.09     v-8.96L496.95,752.07z" class="st7" id="path15551_00000131367467889820233040000015749279421720770985_"/><path data-cppathid="10100" d="M496.95,761.65l371,17.2l115.15-26.5     l-374.41-9.79L496.95,761.65z" class="st8" id="path15553_00000080927423618651919950000016908570231284105909_"/><path data-cppathid="10101" d="M496.95,752.07l371,13.94     l115.15-25.41l-374.41-7L496.95,752.07z" class="st13" id="path15555_00000138571140930099913610000013973679761475163799_"/><path data-cppathid="10102" d="M867.96,766.01v12.83l115.15-26.5     V740.6L867.96,766.01z" class="st10" id="path15557_00000094620132295518443470000009932459799176253828_"/><path data-cppathid="10103" d="M496.95,752.07l371,13.94v12.83     l-371-17.2V752.07z" class="st11" id="path15559_00000000938690972752072160000010852481313708803728_"/><path data-cppathid="10104" d="M610.01,733.62l370.85,6.93     c1.25,0.03,1.53,0.2,0.64,0.4l-111.62,24.63c-1.06,0.23-2.94,0.38-4.2,0.34l-367.45-13.8c-0.71-0.02-0.46-0.18,0.55-0.35     l108.33-17.91C607.99,733.72,609.29,733.61,610.01,733.62L610.01,733.62z" class="st9" id="rect15888_00000021077112535569624220000013695234163359298183_"/><g id="g3697_00000035493964747624123740000003743889651965604273_"><g transform="matrix(0.95319746,0,0,0.89283218,-1.8429594,0.297119)" id="g16301_00000055686612434768934850000017031967563388446848_"><path data-cppathid="10105" d="M823.04,848.13l17.22,0.62       c1.06,0.04,1.18,0.23,0.25,0.44l-15.76,3.45c-0.95,0.21-2.57,0.34-3.64,0.3l-17.21-0.68c-1.04-0.04-1.11-0.24-0.16-0.44       l15.75-3.39C820.42,848.22,822,848.09,823.04,848.13L823.04,848.13z" class="st10" id="rect16291_00000155106808902423048590000000589818917544554893_"/><path data-cppathid="10106" d="M844.73,843.45l17.23,0.56       c1.07,0.03,1.2,0.22,0.3,0.42l-15.3,3.35c-0.92,0.2-2.52,0.33-3.59,0.3l-17.22-0.61c-1.04-0.04-1.13-0.23-0.21-0.42l15.3-3.29       C842.13,843.55,843.69,843.42,844.73,843.45L844.73,843.45z" class="st10" id="rect16293_00000068654813444414711210000006427636479987007930_"/><path data-cppathid="10107" d="M865.82,838.91l17.23,0.5       c1.07,0.03,1.22,0.21,0.34,0.4l-14.87,3.25c-0.89,0.2-2.47,0.33-3.54,0.29l-17.23-0.55c-1.04-0.04-1.16-0.21-0.26-0.41       l14.87-3.2C863.24,839.01,864.78,838.88,865.82,838.91L865.82,838.91z" class="st10" id="rect16295_00000009550217532351551470000009219954281883438004_"/><path data-cppathid="10108" d="M886.31,834.5l17.22,0.44       c1.06,0.03,1.24,0.2,0.39,0.39l-14.45,3.16c-0.87,0.19-2.43,0.32-3.49,0.29l-17.23-0.49c-1.04-0.03-1.17-0.2-0.31-0.39       l14.46-3.11C883.75,834.6,885.27,834.47,886.31,834.5L886.31,834.5z" class="st10" id="rect16297_00000154385298370604036680000007539917726214928268_"/><path data-cppathid="10109" d="M906.24,830.2l17.2,0.38       c1.06,0.02,1.26,0.19,0.43,0.37l-14.05,3.07c-0.85,0.19-2.38,0.31-3.45,0.29l-17.22-0.43c-1.04-0.02-1.19-0.19-0.35-0.37       l14.06-3.03C903.7,830.3,905.2,830.18,906.24,830.2L906.24,830.2z" class="st10" id="rect16299_00000039093537566683937580000014585333425534737054_"/></g><g transform="matrix(0.95319746,0,0,0.89283218,3.8848514,0.297119)" id="g16313_00000173873696170150108370000007261206530279831471_"><path data-cppathid="10110" d="M842.07,849.03l17.83,0.64       c1.1,0.04,1.25,0.24,0.32,0.44l-15.77,3.52c-0.95,0.21-2.6,0.35-3.71,0.3l-17.82-0.7c-1.07-0.04-1.17-0.24-0.23-0.45       l15.76-3.46C839.38,849.12,840.99,848.99,842.07,849.03L842.07,849.03z" class="st10" id="rect16303_00000119833801935105460690000008731870963001803453_"/><path data-cppathid="10111" d="M863.77,844.26l17.82,0.57       c1.1,0.04,1.27,0.23,0.37,0.43l-15.3,3.41c-0.92,0.21-2.55,0.34-3.66,0.3l-17.83-0.63c-1.08-0.04-1.2-0.23-0.28-0.43l15.3-3.36       C861.1,844.36,862.69,844.23,863.77,844.26L863.77,844.26z" class="st10" id="rect16305_00000015331728060365672470000016848175266335830162_"/><path data-cppathid="10112" d="M884.85,839.63l17.81,0.51       c1.1,0.03,1.29,0.21,0.41,0.41l-14.86,3.31c-0.89,0.2-2.5,0.33-3.61,0.3l-17.82-0.57c-1.08-0.03-1.22-0.22-0.33-0.42       l14.87-3.26C882.2,839.73,883.77,839.6,884.85,839.63L884.85,839.63z" class="st10" id="rect16307_00000023988310310510295760000016367495556681416895_"/><path data-cppathid="10113" d="M905.33,835.13l17.8,0.45       c1.1,0.03,1.3,0.2,0.45,0.39l-14.43,3.22c-0.87,0.19-2.46,0.32-3.56,0.29l-17.81-0.5c-1.07-0.03-1.24-0.21-0.37-0.4l14.45-3.17       C902.71,835.23,904.25,835.11,905.33,835.13L905.33,835.13z" class="st10" id="rect16309_00000077319368303453265510000015785976907396266394_"/><path data-cppathid="10114" d="M925.24,830.76l17.77,0.4       c1.1,0.02,1.32,0.19,0.5,0.38l-14.02,3.13c-0.84,0.19-2.41,0.32-3.51,0.29l-17.79-0.44c-1.07-0.03-1.26-0.2-0.41-0.38       l14.04-3.08C922.64,830.86,924.17,830.74,925.24,830.76L925.24,830.76z" class="st10" id="rect16311_00000183967625914916213830000010218455930334914731_"/></g><g transform="matrix(0.95319746,0,0,0.89283218,9.6126614,0.297119)" id="g16325_00000142857063455169324690000011812200917965961891_"><path data-cppathid="10115" d="M861.98,849.96l18.47,0.66       c1.14,0.04,1.32,0.24,0.39,0.46l-15.76,3.59c-0.95,0.22-2.64,0.36-3.78,0.31l-18.47-0.73c-1.11-0.05-1.25-0.25-0.3-0.46       l15.76-3.53C859.22,850.06,860.87,849.92,861.98,849.96L861.98,849.96z" class="st10" id="rect16315_00000005970297680861992340000011081440336938611625_"/><path data-cppathid="10116" d="M883.67,845.1l18.45,0.6       c1.14,0.04,1.34,0.23,0.44,0.44l-15.29,3.48c-0.92,0.21-2.58,0.35-3.73,0.31l-18.47-0.66c-1.11-0.04-1.27-0.24-0.35-0.44       l15.3-3.42C880.94,845.2,882.56,845.06,883.67,845.1L883.67,845.1z" class="st10" id="rect16317_00000127766026352615246800000011317622054458298264_"/><path data-cppathid="10117" d="M904.73,840.38l18.43,0.53       c1.14,0.04,1.36,0.22,0.48,0.42l-14.84,3.38c-0.89,0.2-2.53,0.34-3.67,0.3l-18.45-0.59c-1.11-0.04-1.29-0.22-0.39-0.43       l14.85-3.32C902.02,840.48,903.62,840.35,904.73,840.38L904.73,840.38z" class="st10" id="rect16319_00000037685666413193796600000008806779302508551579_"/><path data-cppathid="10118" d="M925.19,835.79l18.41,0.47       c1.14,0.03,1.38,0.21,0.53,0.4l-14.4,3.28c-0.87,0.2-2.49,0.33-3.63,0.3l-18.43-0.52c-1.11-0.03-1.31-0.21-0.44-0.41       l14.43-3.23C922.5,835.89,924.08,835.76,925.19,835.79L925.19,835.79z" class="st10" id="rect16321_00000111878324145183054190000016089099714638269601_"/><path data-cppathid="10119" d="M945.06,831.34l18.37,0.41       c1.14,0.02,1.39,0.2,0.57,0.38l-13.99,3.19c-0.84,0.19-2.44,0.32-3.58,0.3l-18.4-0.46c-1.11-0.02-1.32-0.2-0.48-0.39       l14.02-3.14C942.4,831.44,943.96,831.31,945.06,831.34L945.06,831.34z" class="st10" id="rect16323_00000022533739652473962380000010254880857617797266_"/></g><g transform="matrix(0.95319746,0,0,0.89283218,15.340471,0.297119)" id="g16289_00000029753068500226185880000018320747855477302922_"><path data-cppathid="10120" d="M882.82,850.93l19.14,0.69       c1.19,0.04,1.4,0.25,0.47,0.47l-15.74,3.67c-0.95,0.22-2.67,0.36-3.86,0.31l-19.15-0.75c-1.15-0.05-1.32-0.26-0.37-0.47       l15.76-3.6C879.99,851.03,881.67,850.89,882.82,850.93L882.82,850.93z" class="st10" id="rect16174_00000155143934160566161270000012331949606312266628_"/><path data-cppathid="10121" d="M904.5,845.97l19.12,0.62       c1.18,0.04,1.41,0.24,0.52,0.45l-15.26,3.56c-0.92,0.21-2.62,0.35-3.8,0.31l-19.14-0.68c-1.15-0.04-1.34-0.24-0.42-0.45       l15.28-3.49C901.69,846.07,903.34,845.93,904.5,845.97L904.5,845.97z" class="st10" id="rect16176_00000045603216769391743780000009304344933631643023_"/><path data-cppathid="10122" d="M925.53,841.15l19.09,0.55       c1.18,0.04,1.43,0.22,0.56,0.43l-14.8,3.45c-0.89,0.21-2.56,0.34-3.75,0.31l-19.11-0.61c-1.15-0.04-1.36-0.23-0.47-0.44       l14.83-3.39C922.75,841.25,924.37,841.12,925.53,841.15L925.53,841.15z" class="st10" id="rect16178_00000040561949068477180220000004063498539278114737_"/><path data-cppathid="10123" d="M945.94,836.47l19.05,0.48       c1.18,0.03,1.45,0.21,0.6,0.41l-14.37,3.35c-0.86,0.2-2.51,0.34-3.7,0.3l-19.08-0.54c-1.15-0.03-1.38-0.22-0.51-0.42l14.4-3.29       C943.19,836.58,944.79,836.44,945.94,836.47L945.94,836.47z" class="st10" id="rect16180_00000013876268958390445360000002971511756300610724_"/><path data-cppathid="10124" d="M965.77,831.93l19.01,0.43       c1.18,0.02,1.46,0.2,0.64,0.39L971.47,836c-0.84,0.2-2.47,0.33-3.64,0.3l-19.04-0.48c-1.15-0.03-1.39-0.21-0.55-0.4l13.98-3.2       C963.04,832.04,964.62,831.91,965.77,831.93L965.77,831.93z" class="st10" id="rect16182_00000084532260250409294280000005268161381395484033_"/></g><path data-cppathid="10125" d="M873.93,739.41l7.7,0.15      c1.1,0.02,1.25,0.19,0.35,0.37l-1.41,0.29c-0.91,0.19-2.53,0.32-3.63,0.29l-7.7-0.15c-1.09-0.02-1.22-0.19-0.31-0.37l1.41-0.29      C871.24,739.52,872.84,739.39,873.93,739.41L873.93,739.41z" class="st10" id="rect16431_00000147186574457254943640000013655805742073438864_"/><path data-cppathid="10126" d="M892.27,739.77l7.89,0.15      c1.13,0.02,1.31,0.19,0.4,0.38l-1.41,0.29c-0.91,0.19-2.55,0.32-3.68,0.3l-7.89-0.16c-1.12-0.02-1.28-0.19-0.36-0.38l1.41-0.29      C889.53,739.88,891.15,739.74,892.27,739.77L892.27,739.77z" class="st10" id="rect16433_00000124124954716896684110000018269085336540374676_"/><path data-cppathid="10127" d="M911.07,740.13l8.09,0.16      c1.16,0.02,1.36,0.19,0.45,0.38l-1.41,0.29c-0.91,0.19-2.57,0.33-3.73,0.3l-8.1-0.16c-1.14-0.03-1.33-0.19-0.42-0.38l1.41-0.29      C908.28,740.24,909.93,740.11,911.07,740.13L911.07,740.13z" class="st10" id="rect16435_00000132793673113489844310000008554306281780575160_"/><path data-cppathid="10128" d="M930.36,740.5l8.3,0.16      c1.19,0.02,1.42,0.2,0.51,0.39l-1.41,0.3c-0.91,0.19-2.6,0.33-3.78,0.31l-8.3-0.17c-1.17-0.03-1.38-0.2-0.47-0.39l1.41-0.3      C927.52,740.61,929.19,740.48,930.36,740.5L930.36,740.5z" class="st10" id="rect16349_00000021836377022260889250000014388375759398062496_"/><g transform="matrix(1.0169246,0,0,1.0169766,-6.8103502,-19.66682)" id="g16616_00000087413474247244541600000003217005676809834651_"><path data-cppathid="10129" d="M605.16,741.86l8.12,0.16       c0.74,0.01,0.62,0.15-0.27,0.3l-9.24,1.54c-0.91,0.15-2.24,0.26-2.98,0.25l-8.1-0.18c-0.73-0.01-0.59-0.15,0.32-0.3l9.22-1.53       C603.12,741.95,604.42,741.85,605.16,741.86L605.16,741.86z" class="st10" id="rect16586_00000091736799656015509270000000202106701072204705_"/><path data-cppathid="10130" d="M619.12,742.13l8.32,0.16       c0.76,0.02,0.65,0.15-0.25,0.3l-9.27,1.56c-0.91,0.15-2.26,0.26-3.01,0.25l-8.3-0.18c-0.75-0.02-0.62-0.15,0.29-0.3l9.25-1.55       C617.05,742.23,618.37,742.12,619.12,742.13L619.12,742.13z" class="st10" id="rect16588_00000106842514742538932790000007159571829793133699_"/><path data-cppathid="10131" d="M633.42,742.41l8.52,0.17       c0.78,0.02,0.68,0.15-0.22,0.31l-9.29,1.59c-0.91,0.16-2.28,0.27-3.05,0.25l-8.5-0.18c-0.77-0.01-0.65-0.15,0.26-0.31       l9.28-1.57C631.31,742.51,632.65,742.4,633.42,742.41L633.42,742.41z" class="st10" id="rect16590_00000096743056734631323250000016994011576799010492_"/><path data-cppathid="10132" d="M648.07,742.7l8.73,0.17       c0.8,0.02,0.71,0.15-0.19,0.31l-9.32,1.61c-0.92,0.16-2.29,0.27-3.09,0.25l-8.71-0.19c-0.78-0.02-0.68-0.16,0.23-0.31l9.3-1.59       C645.92,742.8,647.28,742.69,648.07,742.7L648.07,742.7z" class="st10" id="rect16592_00000066508590356446663870000015555545347353747595_"/><path data-cppathid="10133" d="M663.07,743l8.94,0.18       c0.82,0.02,0.75,0.16-0.16,0.31l-9.34,1.63c-0.92,0.16-2.32,0.27-3.13,0.26l-8.92-0.19c-0.8-0.02-0.71-0.16,0.2-0.32l9.32-1.61       C660.89,743.1,662.27,742.98,663.07,743L663.07,743z" class="st10" id="rect16594_00000130647481299596224050000016175157185002065039_"/><path data-cppathid="10134" d="M678.45,743.3l9.17,0.18       c0.84,0.02,0.78,0.16-0.12,0.32l-9.36,1.65c-0.92,0.16-2.34,0.28-3.17,0.26l-9.15-0.2c-0.82-0.02-0.75-0.16,0.17-0.32       l9.35-1.63C676.23,743.4,677.62,743.29,678.45,743.3L678.45,743.3z" class="st10" id="rect16596_00000170998148575848360390000006941876785139322538_"/><path data-cppathid="10135" d="M694.21,743.61l9.4,0.18       c0.86,0.02,0.82,0.16-0.09,0.32l-9.38,1.67c-0.92,0.17-2.36,0.28-3.22,0.26l-9.38-0.2c-0.85-0.02-0.78-0.16,0.14-0.33       l9.37-1.66C691.95,743.71,693.37,743.6,694.21,743.61L694.21,743.61z" class="st10" id="rect16598_00000008848164241743246480000005676587368702908824_"/><path data-cppathid="10136" d="M710.37,743.93l9.64,0.19       c0.88,0.02,0.86,0.16-0.05,0.33l-9.4,1.7c-0.92,0.17-2.38,0.28-3.26,0.27l-9.63-0.21c-0.87-0.02-0.82-0.17,0.1-0.33l9.38-1.68       C708.08,744.03,709.51,743.91,710.37,743.93L710.37,743.93z" class="st10" id="rect16600_00000109014304699507770260000001080745349017897090_"/><path data-cppathid="10137" d="M726.96,744.26l9.89,0.19       c0.91,0.02,0.9,0.17-0.01,0.33l-9.41,1.72c-0.92,0.17-2.4,0.29-3.3,0.27l-9.88-0.21c-0.89-0.02-0.86-0.17,0.06-0.34l9.4-1.7       C724.62,744.36,726.07,744.24,726.96,744.26L726.96,744.26z" class="st10" id="rect16602_00000026151602821923667320000015089370878452585113_"/><path data-cppathid="10138" d="M743.97,744.59l10.15,0.2       c0.93,0.02,0.94,0.17,0.03,0.34l-9.42,1.75c-0.93,0.17-2.42,0.29-3.35,0.27l-10.14-0.22c-0.91-0.02-0.9-0.17,0.02-0.34       l9.42-1.73C741.59,744.69,743.05,744.58,743.97,744.59L743.97,744.59z" class="st10" id="rect16604_00000176039730147736414830000001816927836590467208_"/><path data-cppathid="10139" d="M761.43,744.94l10.42,0.21       c0.95,0.02,0.99,0.17,0.07,0.34l-9.43,1.77c-0.93,0.17-2.44,0.3-3.4,0.28l-10.42-0.23c-0.94-0.02-0.94-0.17-0.02-0.35       l9.43-1.75C759.01,745.04,760.49,744.92,761.43,744.94L761.43,744.94z" class="st10" id="rect16606_00000124859024556226084680000010219821167778810761_"/><path data-cppathid="10140" d="M779.36,745.29l10.71,0.21       c0.98,0.02,1.03,0.18,0.12,0.35l-9.44,1.8c-0.93,0.18-2.47,0.3-3.45,0.28l-10.7-0.23c-0.96-0.02-0.99-0.18-0.06-0.35l9.43-1.78       C776.89,745.39,778.4,745.27,779.36,745.29L779.36,745.29z" class="st10" id="rect16608_00000162344022646839547480000005669868128302946704_"/><path data-cppathid="10141" d="M797.78,745.65l11,0.22       c1.01,0.02,1.08,0.18,0.17,0.36l-9.44,1.83c-0.93,0.18-2.49,0.31-3.5,0.29l-11-0.24c-0.99-0.02-1.04-0.18-0.11-0.36l9.44-1.81       C795.26,745.76,796.79,745.63,797.78,745.65L797.78,745.65z" class="st10" id="rect16610_00000031926026691664146950000007047293195423309710_"/><path data-cppathid="10142" d="M816.71,746.02l11.31,0.22       c1.04,0.02,1.13,0.18,0.22,0.36l-9.44,1.86c-0.93,0.18-2.51,0.31-3.55,0.29l-11.31-0.24c-1.02-0.02-1.09-0.18-0.16-0.37       l9.44-1.83C814.14,746.13,815.69,746,816.71,746.02L816.71,746.02z" class="st10" id="rect16612_00000098939075144100556480000003084787110881271481_"/><path data-cppathid="10143" d="M836.16,746.41l11.63,0.23       c1.06,0.02,1.19,0.18,0.27,0.37l-9.44,1.89c-0.93,0.18-2.53,0.32-3.6,0.29l-11.63-0.25c-1.05-0.02-1.14-0.19-0.21-0.37       l9.44-1.86C833.54,746.51,835.12,746.39,836.16,746.41L836.16,746.41z" class="st10" id="rect16614_00000053536216879014608660000009193017977558617229_"/></g><g transform="matrix(1.0169246,0,0,1.0169766,-6.8103502,-14.883103)" id="g16648_00000028311743495002783910000000165792559619863188_"><path data-cppathid="10144" d="M589.16,739.81l8.09,0.18       c0.74,0.02,0.6,0.15-0.31,0.31l-9.43,1.58c-0.93,0.16-2.27,0.27-3.01,0.25l-8.07-0.2c-0.73-0.02-0.57-0.15,0.36-0.31l9.41-1.56       C587.11,739.9,588.43,739.8,589.16,739.81L589.16,739.81z" class="st10" id="rect16618_00000054229101568439563440000015088065202037123714_"/><path data-cppathid="10145" d="M603.08,740.12l8.29,0.18       c0.76,0.02,0.63,0.16-0.29,0.31l-9.46,1.6c-0.93,0.16-2.29,0.27-3.04,0.25l-8.27-0.2c-0.74-0.02-0.6-0.16,0.33-0.31l9.44-1.58       C601,740.21,602.33,740.1,603.08,740.12L603.08,740.12z" class="st10" id="rect16620_00000182527103496138351030000003559800570761036211_"/><path data-cppathid="10146" d="M617.33,740.44l8.49,0.19       c0.78,0.01,0.66,0.16-0.26,0.31l-9.49,1.62c-0.93,0.16-2.31,0.27-3.08,0.25l-8.47-0.21c-0.76-0.02-0.63-0.16,0.3-0.32l9.47-1.6       C615.21,740.53,616.57,740.42,617.33,740.44L617.33,740.44z" class="st10" id="rect16622_00000119085784237211374190000015809523746598898820_"/><path data-cppathid="10147" d="M631.93,740.76l8.7,0.19       c0.8,0.02,0.7,0.16-0.23,0.32l-9.52,1.64c-0.94,0.16-2.33,0.28-3.12,0.26l-8.68-0.21c-0.78-0.02-0.66-0.16,0.27-0.32l9.5-1.62       C629.78,740.86,631.15,740.74,631.93,740.76L631.93,740.76z" class="st10" id="rect16624_00000170970979449189058010000016715627954595165074_"/><path data-cppathid="10148" d="M646.89,741.09l8.92,0.2       c0.82,0.02,0.73,0.16-0.19,0.32l-9.54,1.66c-0.94,0.16-2.35,0.28-3.16,0.26l-8.9-0.22c-0.8-0.02-0.69-0.17,0.24-0.33l9.52-1.65       C644.7,741.19,646.09,741.08,646.89,741.09L646.89,741.09z" class="st10" id="rect16626_00000001652244662722733700000000511570397349165992_"/><path data-cppathid="10149" d="M662.23,741.44l9.14,0.2       c0.84,0.02,0.77,0.17-0.16,0.33l-9.57,1.69c-0.94,0.17-2.37,0.28-3.21,0.26l-9.13-0.22c-0.82-0.02-0.73-0.17,0.21-0.33       l9.55-1.67C660,741.53,661.41,741.42,662.23,741.44L662.23,741.44z" class="st10" id="rect16628_00000093866406361397184360000015750378324715710866_"/><path data-cppathid="10150" d="M677.96,741.79l9.38,0.21       c0.86,0.02,0.8,0.17-0.13,0.33l-9.59,1.71c-0.94,0.17-2.39,0.29-3.25,0.27l-9.36-0.23c-0.84-0.02-0.76-0.17,0.18-0.34       l9.57-1.69C675.69,741.88,677.12,741.77,677.96,741.79L677.96,741.79z" class="st10" id="rect16630_00000168795413176952185010000007907802498483813556_"/><path data-cppathid="10151" d="M694.09,742.14l9.62,0.22       c0.88,0.02,0.84,0.17-0.09,0.34l-9.61,1.74c-0.94,0.17-2.41,0.29-3.29,0.27l-9.61-0.23c-0.86-0.02-0.8-0.17,0.14-0.34       l9.59-1.72C691.78,742.24,693.23,742.12,694.09,742.14L694.09,742.14z" class="st10" id="rect16632_00000100365087714979061470000000671663152018130834_"/><path data-cppathid="10152" d="M710.64,742.51l9.88,0.22       c0.9,0.02,0.88,0.17-0.05,0.35l-9.63,1.76c-0.95,0.17-2.44,0.29-3.34,0.27l-9.86-0.24c-0.89-0.02-0.84-0.18,0.1-0.35l9.61-1.74       C708.29,742.61,709.76,742.49,710.64,742.51L710.64,742.51z" class="st10" id="rect16634_00000041278515581348371440000017638964611119145902_"/><path data-cppathid="10153" d="M727.63,742.89l10.14,0.23       c0.93,0.02,0.92,0.18-0.01,0.35l-9.64,1.79c-0.95,0.18-2.46,0.3-3.39,0.28l-10.13-0.25c-0.91-0.02-0.88-0.18,0.06-0.35       l9.63-1.77C725.24,742.99,726.72,742.87,727.63,742.89L727.63,742.89z" class="st10" id="rect16636_00000170272051878291188250000018440050385546426814_"/><path data-cppathid="10154" d="M745.08,743.28l10.41,0.23       c0.95,0.02,0.97,0.18,0.04,0.36l-9.65,1.81c-0.95,0.18-2.48,0.3-3.43,0.28l-10.4-0.25c-0.94-0.02-0.92-0.18,0.02-0.36       l9.64-1.79C742.64,743.38,744.14,743.26,745.08,743.28L745.08,743.28z" class="st10" id="rect16638_00000152239054478125689580000011696031018358059181_"/><path data-cppathid="10155" d="M762.99,743.68l10.7,0.24       c0.98,0.02,1.02,0.18,0.08,0.36l-9.66,1.84c-0.95,0.18-2.51,0.31-3.48,0.28l-10.69-0.26c-0.96-0.03-0.97-0.19-0.02-0.37       l9.66-1.82C760.51,743.78,762.03,743.66,762.99,743.68L762.99,743.68z" class="st10" id="rect16640_00000142871600823495518190000017560457532707271056_"/><path data-cppathid="10156" d="M781.4,744.09l11,0.24       c1.01,0.02,1.07,0.19,0.13,0.37l-9.67,1.87c-0.95,0.18-2.53,0.31-3.54,0.29l-10.99-0.27c-0.99-0.03-1.02-0.19-0.07-0.37       l9.66-1.85C778.87,744.19,780.41,744.06,781.4,744.09L781.4,744.09z" class="st10" id="rect16642_00000087375625098445620440000002297905858005709698_"/><path data-cppathid="10157" d="M800.33,744.51l11.31,0.25       c1.04,0.03,1.12,0.19,0.18,0.37l-9.67,1.9c-0.95,0.19-2.55,0.32-3.59,0.29l-11.3-0.27c-1.02-0.03-1.07-0.19-0.12-0.38       l9.67-1.88C797.74,744.61,799.31,744.48,800.33,744.51L800.33,744.51z" class="st10" id="rect16644_00000011727519341627030760000007179441435901510318_"/><path data-cppathid="10158" d="M819.78,744.94l11.63,0.26       c1.06,0.03,1.17,0.19,0.23,0.38l-9.67,1.93c-0.95,0.19-2.58,0.32-3.64,0.3l-11.63-0.28c-1.05-0.03-1.12-0.2-0.17-0.38       l9.67-1.91C817.14,745.05,818.74,744.92,819.78,744.94L819.78,744.94z" class="st10" id="rect16646_00000052073721440826737540000008101019218377053374_"/></g><path data-cppathid="10159" d="M575.73,740.24l8.2,0.2      c0.75,0.02,0.59,0.16-0.36,0.32l-9.79,1.64c-0.96,0.16-2.34,0.27-3.09,0.25l-8.17-0.22c-0.74-0.02-0.56-0.16,0.4-0.32l9.76-1.62      C573.63,740.34,574.99,740.23,575.73,740.24L575.73,740.24z" class="st10" id="rect16650_00000039128588598084577300000008217653379008746384_"/><path data-cppathid="10160" d="M589.82,740.59l8.4,0.21      c0.77,0.02,0.62,0.16-0.33,0.32l-9.82,1.66c-0.97,0.16-2.36,0.28-3.13,0.26l-8.37-0.23c-0.75-0.02-0.59-0.17,0.38-0.33l9.8-1.64      C587.7,740.69,589.07,740.58,589.82,740.59L589.82,740.59z" class="st10" id="rect16652_00000021802226554681146910000008506959345989883044_"/><path data-cppathid="10161" d="M604.27,740.95l8.61,0.21      c0.79,0.02,0.65,0.17-0.3,0.33l-9.85,1.68c-0.97,0.17-2.38,0.28-3.17,0.26l-8.58-0.23c-0.77-0.02-0.62-0.17,0.35-0.33l9.83-1.66      C602.1,741.05,603.49,740.94,604.27,740.95L604.27,740.95z" class="st10" id="rect16654_00000151508313065735073220000007632280372960310419_"/><path data-cppathid="10162" d="M619.06,741.32l8.82,0.22      c0.81,0.02,0.69,0.17-0.27,0.33l-9.89,1.7c-0.97,0.17-2.4,0.28-3.21,0.26l-8.79-0.24c-0.79-0.02-0.65-0.17,0.32-0.34l9.86-1.69      C616.86,741.42,618.27,741.3,619.06,741.32L619.06,741.32z" class="st10" id="rect16656_00000074432006876490548510000014171610054081567653_"/><path data-cppathid="10163" d="M634.23,741.7l9.04,0.23      c0.83,0.02,0.72,0.17-0.24,0.34l-9.91,1.73c-0.97,0.17-2.42,0.29-3.25,0.27l-9.02-0.24c-0.81-0.02-0.68-0.18,0.29-0.34      l9.89-1.71C631.99,741.8,633.42,741.68,634.23,741.7L634.23,741.7z" class="st10" id="rect16658_00000145764817590147859510000001915554426253443511_"/><path data-cppathid="10164" d="M649.79,742.09l9.27,0.23      c0.85,0.02,0.76,0.17-0.2,0.34l-9.94,1.75c-0.98,0.17-2.45,0.29-3.29,0.27l-9.25-0.25c-0.83-0.02-0.72-0.18,0.26-0.35l9.92-1.73      C647.51,742.19,648.95,742.07,649.79,742.09L649.79,742.09z" class="st10" id="rect16660_00000171693000149540916010000003052917215473731260_"/><path data-cppathid="10165" d="M665.74,742.49l9.51,0.24      c0.87,0.02,0.8,0.18-0.17,0.35l-9.97,1.78c-0.98,0.17-2.47,0.3-3.34,0.27l-9.5-0.26c-0.85-0.02-0.75-0.18,0.22-0.35l9.95-1.76      C663.42,742.58,664.88,742.47,665.74,742.49L665.74,742.49z" class="st10" id="rect16662_00000001643875906399014450000014000751394675092918_"/><path data-cppathid="10166" d="M682.1,742.89l9.77,0.24      c0.89,0.02,0.84,0.18-0.13,0.36l-9.99,1.81c-0.98,0.18-2.49,0.3-3.39,0.28l-9.75-0.26c-0.88-0.03-0.79-0.19,0.19-0.36l9.97-1.78      C679.74,742.99,681.23,742.87,682.1,742.89L682.1,742.89z" class="st10" id="rect16664_00000038377572711892647860000003121358391499579324_"/><path data-cppathid="10167" d="M698.9,743.31l10.03,0.25      c0.92,0.02,0.88,0.18-0.09,0.36l-10.01,1.83c-0.98,0.18-2.52,0.31-3.43,0.28l-10.01-0.27c-0.9-0.03-0.83-0.19,0.15-0.37l10-1.81      C696.5,743.41,698,743.29,698.9,743.31L698.9,743.31z" class="st10" id="rect16666_00000068640131493206790970000001898975299686914493_"/><path data-cppathid="10168" d="M716.15,743.74l10.29,0.26      c0.94,0.03,0.92,0.19-0.05,0.37l-10.03,1.86c-0.99,0.18-2.54,0.31-3.48,0.28l-10.28-0.28c-0.93-0.02-0.88-0.19,0.11-0.37      l10.02-1.84C713.7,743.84,715.22,743.72,716.15,743.74L716.15,743.74z" class="st10" id="rect16668_00000015344329111153144740000012714163526487412374_"/><path data-cppathid="10169" d="M733.86,744.18l10.58,0.26      c0.97,0.02,0.97,0.19-0.01,0.37l-10.05,1.89c-0.99,0.19-2.56,0.31-3.53,0.29l-10.56-0.29c-0.95-0.02-0.92-0.19,0.07-0.38      l10.03-1.87C731.36,744.29,732.91,744.16,733.86,744.18L733.86,744.18z" class="st10" id="rect16670_00000055666549702324830940000001193921355706854839_"/><path data-cppathid="10170" d="M752.06,744.64l10.87,0.27      c1,0.02,1.01,0.19,0.04,0.38l-10.06,1.92c-0.99,0.19-2.59,0.32-3.58,0.29l-10.86-0.29c-0.98-0.02-0.97-0.2,0.02-0.38l10.05-1.9      C749.51,744.74,751.08,744.61,752.06,744.64L752.06,744.64z" class="st10" id="rect16672_00000121262562091920104670000006271943829634471868_"/><path data-cppathid="10171" d="M770.77,745.1l11.18,0.28      c1.02,0.03,1.06,0.2,0.09,0.39l-10.07,1.95c-0.99,0.19-2.61,0.32-3.64,0.29l-11.17-0.3c-1-0.03-1.01-0.2-0.03-0.39l10.06-1.93      C768.17,745.21,769.76,745.08,770.77,745.1L770.77,745.1z" class="st10" id="rect16674_00000131342863731300304130000009927749004329659318_"/><path data-cppathid="10172" d="M790,745.58l11.49,0.29      c1.05,0.02,1.12,0.2,0.14,0.39l-10.08,1.98c-0.99,0.2-2.64,0.33-3.69,0.3l-11.49-0.31c-1.03-0.03-1.07-0.21-0.08-0.4l10.07-1.96      C787.35,745.69,788.97,745.56,790,745.58L790,745.58z" class="st10" id="rect16676_00000104704096263255815590000006739874237368555711_"/><path data-cppathid="10173" d="M811.5,746.12      c-2.02-0.05-5.13,0.2-6.97,0.57l-14.15,2.79l-17.85-0.49c-1.03-0.03-2.67,0.1-3.67,0.3l-10.32,2c-1.01,0.2-1,0.38,0.03,0.41      l19.76,0.59l3.29,0.1l8.53,0.26c1.08,0.03,2.77-0.11,3.79-0.31l7.04-1.41l3.29-0.66l15.95-3.19c1.85-0.37,1.68-0.71-0.37-0.76      L811.5,746.12z" class="st10" id="rect16678_00000106836062134640140230000003152729028888187544_"/><path data-cppathid="10174" d="M558.79,743.06l8.16,0.23      c0.75,0.02,0.57,0.17-0.4,0.33l-9.99,1.67c-0.98,0.16-2.37,0.28-3.12,0.26l-8.13-0.25c-0.73-0.02-0.53-0.17,0.44-0.33l9.96-1.65      C556.69,743.15,558.06,743.04,558.79,743.06L558.79,743.06z" class="st10" id="rect16682_00000162319250918500583800000005689860967143232910_"/><path data-cppathid="10175" d="M572.83,743.44l8.36,0.23      c0.76,0.02,0.6,0.17-0.37,0.33l-10.03,1.69c-0.98,0.17-2.39,0.28-3.16,0.26l-8.33-0.25c-0.75-0.02-0.56-0.17,0.42-0.34l10-1.68      C570.69,743.54,572.07,743.42,572.83,743.44L572.83,743.44z" class="st10" id="rect16684_00000158712273787550405700000002080631531599603609_"/><path data-cppathid="10176" d="M587.21,743.84l8.57,0.24      c0.78,0.02,0.63,0.17-0.34,0.34l-10.06,1.72c-0.99,0.17-2.42,0.29-3.2,0.26l-8.54-0.26c-0.77-0.03-0.59-0.18,0.39-0.34      l10.04-1.7C585.04,743.94,586.44,743.82,587.21,743.84L587.21,743.84z" class="st10" id="rect16686_00000093140585728501555940000007502091905850803076_"/><path data-cppathid="10177" d="M601.95,744.25l8.79,0.24      c0.8,0.02,0.67,0.18-0.31,0.34l-10.1,1.74c-0.99,0.17-2.44,0.29-3.24,0.27l-8.76-0.26c-0.79-0.02-0.63-0.18,0.36-0.35      l10.07-1.72C599.74,744.35,601.16,744.23,601.95,744.25L601.95,744.25z" class="st10" id="rect16688_00000128475595115407863760000003815035037819331488_"/><path data-cppathid="10178" d="M617.07,744.67l9.01,0.25      c0.82,0.02,0.7,0.18-0.28,0.35l-10.13,1.77c-1,0.17-2.46,0.29-3.28,0.27l-8.99-0.27c-0.81-0.02-0.66-0.18,0.33-0.35l10.11-1.75      C614.82,744.77,616.26,744.65,617.07,744.67L617.07,744.67z" class="st10" id="rect16690_00000072245484755378586870000007217314755961883026_"/><path data-cppathid="10179" d="M632.57,745.1l9.25,0.26      c0.85,0.03,0.74,0.18-0.25,0.36l-10.16,1.79c-1,0.18-2.48,0.3-3.33,0.27l-9.22-0.28c-0.83-0.02-0.69-0.19,0.3-0.36l10.14-1.77      C630.28,745.2,631.74,745.08,632.57,745.1L632.57,745.1z" class="st10" id="rect16692_00000064321963589915357210000001733420787993431710_"/><path data-cppathid="10180" d="M648.48,745.54l9.49,0.26      c0.87,0.03,0.77,0.19-0.21,0.36l-10.19,1.82c-1,0.18-2.51,0.3-3.37,0.28l-9.47-0.28c-0.85-0.03-0.73-0.19,0.27-0.37l10.17-1.8      C646.14,745.64,647.62,745.52,648.48,745.54L648.48,745.54z" class="st10" id="rect16694_00000068657694662264404610000011636669008850630020_"/><path data-cppathid="10181" d="M664.8,746l9.74,0.27      c0.89,0.02,0.81,0.19-0.18,0.37l-10.22,1.85c-1,0.18-2.53,0.31-3.42,0.28l-9.72-0.29c-0.88-0.03-0.77-0.19,0.23-0.37l10.2-1.82      C662.42,746.09,663.92,745.97,664.8,746L664.8,746z" class="st10" id="rect16696_00000112623480486880118260000001262516509983036559_"/><path data-cppathid="10182" d="M681.56,746.46l10,0.28      c0.92,0.03,0.86,0.19-0.14,0.37l-10.24,1.87c-1.01,0.18-2.55,0.31-3.47,0.28l-9.98-0.3c-0.9-0.02-0.81-0.2,0.19-0.38l10.22-1.85      C679.14,746.56,680.66,746.43,681.56,746.46L681.56,746.46z" class="st10" id="rect16698_00000047031296686850392320000001716840051456147336_"/><path data-cppathid="10183" d="M698.77,746.94l10.28,0.28      c0.94,0.02,0.9,0.2-0.09,0.38l-10.26,1.9c-1.01,0.19-2.58,0.32-3.52,0.29l-10.26-0.31c-0.92-0.02-0.85-0.2,0.15-0.38l10.25-1.88      C696.3,747.04,697.84,746.91,698.77,746.94L698.77,746.94z" class="st10" id="rect16700_00000164498302598663901570000010761768545220949435_"/><path data-cppathid="10184" d="M716.45,747.43l10.56,0.29      c0.97,0.02,0.95,0.2-0.05,0.39l-10.29,1.93c-1.01,0.19-2.6,0.32-3.57,0.29l-10.55-0.32c-0.95-0.03-0.9-0.2,0.11-0.39l10.27-1.91      C713.94,747.53,715.5,747.4,716.45,747.43L716.45,747.43z" class="st10" id="rect16702_00000145036527167146040640000011078152087581861518_"/><path data-cppathid="10185" d="M734.62,747.93l10.86,0.3      c0.99,0.03,0.99,0.2,0,0.39l-10.3,1.96c-1.01,0.19-2.63,0.32-3.62,0.29l-10.84-0.33c-0.98-0.03-0.95-0.21,0.07-0.4l10.29-1.94      C732.06,748.03,733.65,747.9,734.62,747.93L734.62,747.93z" class="st10" id="rect16704_00000107570473505243812210000003165851979898843265_"/><path data-cppathid="10186" d="M753.31,748.45l11.17,0.31      c1.02,0.03,1.04,0.21,0.05,0.4l-10.31,2c-1.01,0.2-2.66,0.33-3.68,0.3l-11.16-0.33c-1-0.03-0.99-0.21,0.02-0.4l10.31-1.97      C750.69,748.55,752.3,748.42,753.31,748.45L753.31,748.45z" class="st10" id="rect16706_00000042014251942084941900000017824602092789716664_"/><g transform="matrix(1.0169246,0,0,1.0169766,-6.8103502,-0.531947)" id="g16744_00000165207459159428204230000004662446772425681296_"><path data-cppathid="10187" d="M539.19,734l7.99,0.24       c0.73,0.02,0.54,0.17-0.43,0.33l-10.03,1.68c-0.99,0.16-2.37,0.28-3.1,0.25l-7.96-0.26c-0.72-0.03-0.5-0.17,0.48-0.34l10-1.66       C537.11,734.09,538.47,733.98,539.19,734L539.19,734z" class="st10" id="rect16714_00000072242514667651063710000009274846496904527033_"/><path data-cppathid="10188" d="M552.93,734.42l8.19,0.25       c0.75,0.02,0.57,0.17-0.41,0.34l-10.07,1.7c-0.99,0.17-2.39,0.28-3.14,0.26l-8.16-0.27c-0.74-0.03-0.53-0.18,0.46-0.34       l10.04-1.68C550.82,734.51,552.19,734.4,552.93,734.42L552.93,734.42z" class="st10" id="rect16716_00000042702229501723146410000003968508408032562863_"/><path data-cppathid="10189" d="M567.01,734.85l8.39,0.26       c0.77,0.03,0.6,0.18-0.38,0.35l-10.11,1.73c-0.99,0.17-2.41,0.28-3.18,0.26l-8.36-0.28c-0.75-0.03-0.56-0.18,0.43-0.35       l10.08-1.71C564.86,734.94,566.25,734.83,567.01,734.85L567.01,734.85z" class="st10" id="rect16718_00000082363729273735055540000004010006345433995402_"/><path data-cppathid="10190" d="M581.45,735.29l8.61,0.26       c0.79,0.02,0.63,0.18-0.35,0.35l-10.15,1.75c-1,0.17-2.43,0.29-3.22,0.26l-8.58-0.28c-0.77-0.03-0.59-0.18,0.4-0.35l10.12-1.73       C579.26,735.38,580.67,735.27,581.45,735.29L581.45,735.29z" class="st10" id="rect16720_00000114775245491019459690000001097184223604214434_"/><path data-cppathid="10191" d="M596.25,735.75l8.83,0.27       c0.81,0.03,0.67,0.18-0.32,0.36l-10.18,1.78c-1,0.17-2.46,0.29-3.26,0.27l-8.8-0.29c-0.79-0.03-0.62-0.19,0.37-0.36l10.16-1.76       C594.03,735.84,595.46,735.72,596.25,735.75L596.25,735.75z" class="st10" id="rect16722_00000122684770740330208720000006285947654081492903_"/><path data-cppathid="10192" d="M611.44,736.21l9.06,0.28       c0.83,0.03,0.7,0.19-0.29,0.36l-10.22,1.8c-1,0.18-2.48,0.3-3.31,0.27l-9.03-0.3c-0.81-0.02-0.66-0.19,0.34-0.36l10.19-1.78       C609.18,736.31,610.63,736.19,611.44,736.21L611.44,736.21z" class="st10" id="rect16724_00000021102045908488862680000001692297593375402126_"/><path data-cppathid="10193" d="M627.03,736.69l9.3,0.28       c0.85,0.03,0.74,0.19-0.25,0.37l-10.25,1.83c-1.01,0.18-2.5,0.3-3.35,0.27l-9.28-0.31c-0.84-0.03-0.7-0.19,0.31-0.37       l10.22-1.81C624.72,736.79,626.19,736.67,627.03,736.69L627.03,736.69z" class="st10" id="rect16726_00000057140911015101196370000013057025585575374219_"/><path data-cppathid="10194" d="M643.03,737.18l9.55,0.29       c0.87,0.03,0.78,0.19-0.22,0.37l-10.28,1.86c-1.01,0.18-2.53,0.31-3.4,0.28l-9.53-0.31c-0.86-0.03-0.73-0.2,0.27-0.38       l10.26-1.84C640.68,737.28,642.17,737.16,643.03,737.18L643.03,737.18z" class="st10" id="rect16728_00000124864827827851038290000005874711704924220837_"/><path data-cppathid="10195" d="M659.47,737.69l9.81,0.3       c0.9,0.03,0.82,0.2-0.18,0.38l-10.31,1.89c-1.01,0.18-2.55,0.31-3.45,0.28l-9.79-0.32c-0.88-0.03-0.77-0.2,0.24-0.38       l10.29-1.86C657.07,737.78,658.58,737.66,659.47,737.69L659.47,737.69z" class="st10" id="rect16730_00000005974520757969180310000003405642616884447135_"/><path data-cppathid="10196" d="M676.35,738.2l10.08,0.31       c0.92,0.03,0.86,0.2-0.14,0.39l-10.33,1.92c-1.02,0.19-2.58,0.32-3.5,0.28l-10.06-0.33c-0.91-0.03-0.82-0.2,0.2-0.39       l10.31-1.89C673.91,738.3,675.44,738.18,676.35,738.2L676.35,738.2z" class="st10" id="rect16732_00000131350150464981627540000013416181705936819589_"/><path data-cppathid="10197" d="M693.7,738.74l10.37,0.32       c0.95,0.03,0.91,0.2-0.09,0.39l-10.36,1.95c-1.02,0.19-2.6,0.32-3.55,0.29l-10.35-0.34c-0.93-0.03-0.86-0.21,0.16-0.4       l10.34-1.92C691.21,738.84,692.77,738.71,693.7,738.74L693.7,738.74z" class="st10" id="rect16734_00000134971245536738557440000018355707161233451393_"/><path data-cppathid="10198" d="M711.54,739.28l10.66,0.33       c0.98,0.03,0.96,0.21-0.05,0.4l-10.38,1.98c-1.02,0.2-2.63,0.33-3.6,0.29l-10.64-0.35c-0.96-0.03-0.91-0.21,0.11-0.4       l10.36-1.95C709,739.38,710.58,739.25,711.54,739.28L711.54,739.28z" class="st10" id="rect16736_00000004530454726215599970000014421020591239289272_"/><path data-cppathid="10199" d="M729.88,739.85l10.97,0.34       c1,0.03,1.01,0.21,0,0.41l-10.39,2.01c-1.02,0.2-2.66,0.33-3.66,0.3l-10.95-0.36c-0.99-0.03-0.95-0.22,0.07-0.41l10.38-1.99       C727.29,739.95,728.9,739.82,729.88,739.85L729.88,739.85z" class="st10" id="rect16738_00000033336876970382076800000014440856046576705427_"/><path data-cppathid="10200" d="M748.76,740.43l11.29,0.35       c1.03,0.03,1.06,0.22,0.05,0.41l-10.41,2.05c-1.02,0.2-2.68,0.34-3.71,0.3l-11.28-0.37c-1.01-0.03-1-0.22,0.02-0.42l10.4-2.02       C746.12,740.53,747.74,740.39,748.76,740.43L748.76,740.43z" class="st10" id="rect16740_00000099641579595905113400000017683036004501082541_"/><path data-cppathid="10201" d="M768.19,741.02l11.62,0.36       c1.06,0.03,1.11,0.22,0.1,0.42l-10.42,2.08c-1.02,0.2-2.71,0.34-3.77,0.31l-11.62-0.38c-1.04-0.04-1.06-0.23-0.03-0.43       l10.41-2.05C765.49,741.12,767.14,740.99,768.19,741.02L768.19,741.02z" class="st10" id="rect16742_00000157297563246649745130000001692137667100516536_"/></g><path data-cppathid="10202" d="M523.86,748.86l8.08,0.27      c0.74,0.03,0.52,0.18-0.49,0.35l-10.42,1.74c-1.02,0.17-2.44,0.29-3.18,0.26l-8.05-0.29c-0.72-0.02-0.49-0.18,0.54-0.35      l10.38-1.72C521.73,748.95,523.13,748.83,523.86,748.86L523.86,748.86z" class="st10" id="rect16541_00000099639347767730901020000010974870475769938593_"/><path data-cppathid="10203" d="M537.76,749.33l8.29,0.28      c0.76,0.03,0.55,0.18-0.46,0.36l-10.46,1.77c-1.03,0.17-2.47,0.29-3.22,0.26l-8.25-0.3c-0.74-0.02-0.52-0.19,0.51-0.36      l10.43-1.75C535.6,749.42,537.01,749.3,537.76,749.33L537.76,749.33z" class="st10" id="rect16543_00000075869080216316035120000015810410216070901419_"/><path data-cppathid="10204" d="M552.01,749.81l8.5,0.29      c0.78,0.02,0.59,0.19-0.43,0.36l-10.51,1.79c-1.03,0.18-2.49,0.29-3.26,0.27l-8.46-0.31c-0.76-0.02-0.55-0.19,0.48-0.36      l10.47-1.77C549.81,749.9,551.24,749.78,552.01,749.81L552.01,749.81z" class="st10" id="rect16545_00000095313531807632522080000009136741178048976814_"/><path data-cppathid="10205" d="M566.62,750.3      c-0.78-0.03-2.23,0.09-3.25,0.27l-10.52,1.8c-1.03,0.18-1.24,0.34-0.46,0.37l113.43,4.12l3.14,0.11l7.35,0.27      c0.96,0.04,2.59-0.1,3.65-0.3l10.79-2.03c1.04-0.2,1.11-0.38,0.14-0.41l-7.37-0.25l-3.15-0.11L566.62,750.3z" class="st10" id="rect16547_00000067231268206376519050000016171034190142017673_"/><path data-cppathid="10206" d="M698.48,754.76l10.82,0.37      c0.99,0.04,0.95,0.22-0.1,0.42l-10.81,2.06c-1.06,0.2-2.72,0.34-3.71,0.3l-10.8-0.39c-0.97-0.04-0.9-0.22,0.16-0.42l10.79-2.04      C695.89,754.85,697.51,754.72,698.48,754.76L698.48,754.76z" class="st10" id="rect16563_00000060719459279781719190000009781366781698169243_"/><path data-cppathid="10207" d="M717.1,755.39l11.14,0.38      c1.02,0.04,1,0.23-0.05,0.43l-10.83,2.1c-1.07,0.21-2.75,0.34-3.76,0.31l-11.12-0.4c-1-0.04-0.95-0.23,0.12-0.43l10.82-2.07      C714.45,755.49,716.1,755.35,717.1,755.39L717.1,755.39z" class="st10" id="rect16565_00000127732867945457567390000000175468471106789266_"/><path data-cppathid="10208" d="M736.27,756.03l11.46,0.39      c1.05,0.04,1.05,0.23,0,0.44l-10.85,2.13c-1.07,0.21-2.77,0.35-3.82,0.31l-11.45-0.42c-1.03-0.04-1-0.23,0.07-0.44l10.84-2.11      C733.57,756.13,735.24,756,736.27,756.03L736.27,756.03z" class="st10" id="rect16567_00000027566519454149280150000015594740433691235495_"/><path data-cppathid="10209" d="M756.01,756.7l11.81,0.4      c1.08,0.04,1.11,0.23,0.06,0.44L757,759.71c-1.07,0.21-2.8,0.35-3.88,0.32l-11.8-0.43c-1.06-0.04-1.05-0.24,0.01-0.45      l10.86-2.14C753.25,756.8,754.94,756.66,756.01,756.7L756.01,756.7z" class="st10" id="rect16459_00000170276257588331401420000016650065405757677696_"/></g></g><g id="g1370_00000111905528176993860290000002179485052073974408_"><path data-cppathid="10210" d="M1069.62,734.28     c-9.78,0.02-21.21,1.61-34.42,5.1c-49.75,13.15-46.11,37.79-46.11,37.79h0c-0.91,1.92,6.36,3.59,20.33,4.2     c20.23,0.89,45.91-0.8,56.93-3.76l45.31-12.16c3.45-0.92,4.71-1.84,4.07-2.66C1111.06,746.14,1096.65,734.23,1069.62,734.28     L1069.62,734.28z" class="st9" id="path17985_00000039812757839782261620000004688342961660399541_"/><path data-cppathid="10211" d="M1093.01,737.69     c-11.05-3.19-24.04,3.2-26.58,3.3c-2.54,0.1-6.69-1.4-7.3-3.38c-0.62-1.98,8.25-5.91,15.37-6.51c7.12-0.59,11.43-0.57,15.37,1.6     C1093.81,734.87,1093.01,737.69,1093.01,737.69L1093.01,737.69z" class="st10" id="path18221_00000054259578920705298400000016276720158532012456_"/></g><g id="layer11_00000023995178705425423270000001285645101678810299_"><path data-cppathid="10212" d="M689.97,332.53     c-0.95,0.01-1.52,0.48-1.81,1.5l-76.96,273.32c-0.29,1.03,0.02,1.5,0.97,1.49l376.13-1.04c0.97,0,1.54-0.48,1.83-1.51     l76.43-274.98c0.29-1.03-0.02-1.5-0.99-1.49L689.97,332.53z" class="st14" id="rect1905_00000153680029044993881410000010574108075594167960_"/><path data-cppathid="10213" d="M683.68,348.51l-5.06,17.96l3.27-0.02     l15.5-18.04L683.68,348.51z M710.51,348.32L695,366.36l12.35-0.08l15.51-18.04L710.51,348.32z M735.99,348.14l-15.52,18.05     l12.36-0.08l15.52-18.05L735.99,348.14z M761.49,347.97l-15.52,18.05l12.37-0.08l15.52-18.06L761.49,347.97z M787,347.79     l-15.53,18.06l12.38-0.08l15.53-18.07L787,347.79z M812.54,347.61l-15.53,18.07l12.39-0.08l15.53-18.07L812.54,347.61z      M838.11,347.43l-15.54,18.08l12.4-0.08l15.54-18.08L838.11,347.43z M863.69,347.26l-15.55,18.08l12.41-0.08l15.55-18.09     L863.69,347.26z M889.29,347.08l-15.55,18.09l12.42-0.08l15.55-18.1L889.29,347.08z M914.91,346.9L899.36,365l12.43-0.08     l15.56-18.1L914.91,346.9z M940.56,346.72L925,364.83l12.44-0.08L953,346.63L940.56,346.72z M966.23,346.54l-15.57,18.11     l12.45-0.08l15.57-18.12L966.23,346.54z M991.91,346.36l-15.58,18.12l12.46-0.08l15.58-18.13L991.91,346.36z M1017.62,346.19     l-15.58,18.13l12.47-0.08l15.58-18.13L1017.62,346.19z M1043.35,346.01l-15.59,18.14l28.46-0.19l5.02-18.07L1043.35,346.01z" class="st9" id="path5933_00000125590032652206041340000012843389888918344120_"/><path data-cppathid="10214" d="M616.63,586.61l-5.08,18.05l3.27-0.01     l15.54-18.08L616.63,586.61z M643.5,586.52l-15.54,18.08l12.37-0.03l15.55-18.09L643.5,586.52z M669,586.44l-15.55,18.09     l12.38-0.04l15.55-18.09L669,586.44z M694.53,586.36l-15.56,18.1l12.39-0.03l15.56-18.1L694.53,586.36z M720.08,586.28     l-15.56,18.11l12.4-0.04l15.56-18.11L720.08,586.28z M745.65,586.2l-15.57,18.11l12.41-0.04l15.57-18.12L745.65,586.2z      M771.25,586.12l-15.58,18.12l12.42-0.03l15.58-18.12L771.25,586.12z M796.86,586.05l-15.58,18.13l12.43-0.04l15.58-18.13     L796.86,586.05z M822.49,585.97l-15.59,18.14l12.44-0.04l15.59-18.14L822.49,585.97z M848.15,585.89l-15.59,18.14l12.45-0.04     l15.59-18.15L848.15,585.89z M873.83,585.81l-15.6,18.15l12.46-0.03l15.6-18.16L873.83,585.81z M899.53,585.73l-15.61,18.16     l12.47-0.04l15.61-18.16L899.53,585.73z M925.24,585.65l-15.61,18.17l12.48-0.04l15.61-18.17L925.24,585.65z M950.99,585.57     l-15.62,18.17l12.49-0.04l15.62-18.18L950.99,585.57z M976.75,585.48l-15.63,18.18l28.49-0.08l5.05-18.16L976.75,585.48z" class="st9" id="rect5717_00000063632130615507596650000001560836349123541889_"/><path data-cppathid="10215" d="M886.62,277.92     c-3.63,0.03-7.79,1.97-10.94,5.83l-52.54,64.37c-6.29,7.71-3.8,17.28,4.48,17.22l69.27-0.45c8.31-0.05,16.18-9.71,14.17-17.37     l-16.73-63.92C893.34,279.78,890.24,277.89,886.62,277.92z" class="st15" id="path38767_00000122682822313648618850000008378178203952666008_"/><g transform="translate(-0.51596558,6.7836529)" id="g36464_00000048478983679423628170000009551719551565242022_"><path data-cppathid="10216" d="M890.81,342.82l-69.27,0.45      c-8.28,0.05-10.77-9.52-4.48-17.22l52.54-64.37c6.29-7.71,16.66-7.79,18.66-0.15l16.73,63.92      C906.99,333.11,899.12,342.77,890.81,342.82z" class="st16" id="path3683_00000010280152240522986440000005573451871270111104_"/><path data-cppathid="10217" d="M879.08,261.02      c-0.68-0.01-1.4,0.11-2.13,0.37c-1.44,0.52-2.85,1.54-3.9,2.82l0,0l-52.54,64.37l0,0c-1.58,1.93-2.28,4.45-1.78,6.37      c0.5,1.92,2.18,3.17,4.26,3.15l69.27-0.45c2.08-0.01,4.48-1.29,6.06-3.22c1.58-1.94,2.28-4.46,1.78-6.38l-16.73-63.92      C882.86,262.22,881.13,261.05,879.08,261.02z" class="st0" id="path4495_00000098198650796626113800000012093925898868893600_"/><path data-cppathid="10218" d="M866.83,327.35      c-1.1,3.94-4.98,7.16-8.67,7.18c-3.68,0.02-5.78-3.15-4.68-7.09c1.1-3.94,4.98-7.16,8.67-7.18      C865.83,320.23,867.93,323.4,866.83,327.35z" class="st9" id="path4740_00000069369465294321301490000013188504953631565733_"/><path data-cppathid="10219" d="M872.01,274.25l6.2-0.05      c1.94-0.02,2.99,1.73,2.28,3.8l-12.13,35.45c-0.74,2.16-2.88,3.84-4.9,3.86l-0.8,0.01c-2.02,0.01-3.23-1.65-2.76-3.8l7.68-35.42      C868.05,276.03,870.07,274.27,872.01,274.25L872.01,274.25z" class="st9" id="rect4874_00000163030376230783658110000017687637502963076753_"/></g></g></g><path data-cppathid="10220" d="M773.61,412.4   c-2.78,0-5.45,2.02-6.19,4.7l-32.56,116.83c-0.37,1.32,0.78,2.83,2.15,2.83h163.48c2.78,0,5.44-2.02,6.19-4.7l32.56-116.83   c0.37-1.32-0.78-2.83-2.15-2.83H773.61z" class="st9" id="path13456_00000042707095694057130030000018406302747995047562_"/><g><g><g><polygon data-cppathid="10221" points="954.35,571.68 670.77,571.68 725.46,374.84 1009.04,374.84     " class="st17"/></g><polygon data-cppathid="10222" points="1002.05,400 718.47,400 725.46,374.84 1009.04,374.84    " class="st18"/><g><path data-cppathid="10223" d="M744.65,388.33c-0.9,3.22-4.05,5.84-7.06,5.84c-3.01,0-4.71-2.61-3.82-5.84c0.89-3.21,4.05-5.83,7.06-5.83      C743.83,382.5,745.54,385.11,744.65,388.33z" class="st19"/></g><g><path data-cppathid="10224" d="M760.96,388.33c-0.9,3.22-4.06,5.84-7.07,5.84c-2.99,0-4.71-2.61-3.81-5.84c0.89-3.21,4.06-5.83,7.05-5.83      C760.14,382.5,761.85,385.11,760.96,388.33z" class="st19"/></g><g><path data-cppathid="10225" d="M777.27,388.33c-0.9,3.22-4.06,5.84-7.07,5.84c-2.99,0-4.7-2.61-3.8-5.84c0.89-3.21,4.05-5.83,7.04-5.83      C776.45,382.5,778.16,385.11,777.27,388.33z" class="st19"/></g><polygon data-cppathid="10226" points="970.42,461.74 713.37,461.74 725.73,417.25 982.78,417.25    " class="st20"/><polygon data-cppathid="10227" points="823.26,508.75 700.31,508.75 711.26,469.34 834.21,469.34    " class="st20"/><polygon data-cppathid="10228" points="810.39,555.06 687.45,555.06 698.4,515.65 821.34,515.65    " class="st20"/><polygon data-cppathid="10229" points="944.5,555.06 830.64,555.06 854.46,469.34 968.31,469.34    " class="st20"/></g></g><g><g><line data-cppathid="10230" y2="504.3" x2="27.8" y1="504.3" x1="27.8" class="st21"/><path data-cppathid="10231" d="M37.82,504.3h192.4c24.35,0,44.08-19.74,44.08-44.08c0-21.16,17.16-38.32,38.32-38.32h215.33     c18.56,0,33.61,15.05,33.61,33.61v36.41" class="st22"/><line data-cppathid="10232" y2="496.94" x2="561.56" y1="496.94" x1="561.56" class="st21"/><line data-cppathid="10233" y2="496.94" x2="654.22" y1="496.94" x1="571.31" class="st23"/><line data-cppathid="10234" y2="496.94" x2="659.1" y1="496.94" x1="659.1" class="st21"/></g></g><g><g><line data-cppathid="10235" y2="621.7" x2="27.8" y1="621.7" x1="27.8" class="st21"/><path data-cppathid="10236" d="M37.83,621.7h202.88c18.55,0,33.59,15.04,33.59,33.59c0,18.55,15.04,33.59,33.59,33.59h220.07     c18.56,0,33.61-15.05,33.61-33.61V508.89" class="st24"/><line data-cppathid="10237" y2="503.87" x2="561.56" y1="503.87" x1="561.56" class="st21"/></g></g><g><g><path data-cppathid="10238" d="M625.75,519.49c0,4.3,3.48,7.78,7.78,7.78h195.52c4.3,0,7.78-3.48,7.78-7.78V398.87H625.75V519.49z" class="st25"/><polygon data-cppathid="10239" points="625.75,398.87 731.29,319.14 836.83,398.87    " class="st26"/><polygon data-cppathid="10240" points="836.83,398.87 625.75,398.87 700.8,455.58 761.78,455.58    " class="st27"/><path data-cppathid="10241" d="M633.53,527.27h195.52c4.3,0,7.78-3.48,7.78-7.78l-75.05-63.91H700.8l-75.05,63.91     C625.75,523.79,629.24,527.27,633.53,527.27z" class="st28"/><g><defs><polygon data-cppathid="10242" points="625.75,306.58 625.75,398.87 700.8,455.58        761.78,455.58 836.83,398.87 836.83,306.58      " id="SVGID_00000044179806729314490390000015921728081724856736_"/></defs><clipPath id="SVGID_00000137819125106938188700000012690412788127143353_"><use style="overflow:visible;" xlink:href="#SVGID_00000044179806729314490390000015921728081724856736_"/></clipPath><g style="clip-path:url(#SVGID_00000137819125106938188700000012690412788127143353_);"><polygon data-cppathid="10243" points="790.69,341.35 646.78,341.35 646.78,414.76 700.8,455.58 761.78,455.58 815.8,414.76        815.8,366.44 790.69,366.44      " class="st9"/><polygon data-cppathid="10244" points="790.69,366.44 815.8,366.44 790.69,341.35      " class="st30"/><rect data-cppathid="10245" height="5.87" width="55.15" class="st20" y="373.32" x="671.9"/><rect data-cppathid="10246" height="5.87" width="81.03" class="st20" y="391.09" x="671.9"/><rect data-cppathid="10247" height="5.87" width="118.79" class="st20" y="408.87" x="671.9"/><rect data-cppathid="10248" height="5.87" width="118.79" class="st20" y="426.64" x="671.9"/><rect data-cppathid="10249" height="5.87" width="118.79" class="st20" y="444.42" x="671.9"/><polygon data-cppathid="10250" points="790.69,341.35 733,341.35 733,455.58 761.78,455.58 815.8,414.76 815.8,366.44 790.69,366.44             " class="st31"/></g></g></g><circle data-cppathid="10251" r="38.39" cy="396.61" cx="629.4" class="st18"/><text data-cppathid="10252" class="st9 st32 st33" transform="matrix(1 0 0 1 620.7151 416.2351)">!</text></g><g><g><g><rect data-cppathid="10253" height="93.03" width="158.22" class="st34" y="358.32" x="339.9"/><polygon data-cppathid="10254" points="339.9,358.32 419.02,404.84 498.12,358.32     " class="st35"/></g><g><circle data-cppathid="10255" r="38.39" cy="404.84" cx="419.01" class="st18"/><text data-cppathid="10256" class="st9 st32 st33" transform="matrix(1 0 0 1 410.3235 424.4612)">!</text></g></g><g><g><rect data-cppathid="10257" height="93.03" width="158.22" class="st34" y="660.49" x="339.9"/><polygon data-cppathid="10258" points="339.9,660.49 419.02,707.01 498.12,660.49     " class="st35"/></g><g><circle data-cppathid="10259" r="38.39" cy="707" cx="419.01" class="st36"/><text data-cppathid="10260" class="st9 st32 st33" transform="matrix(1 0 0 1 410.3235 726.6248)">!</text></g></g></g><g><g><rect data-cppathid="10261" height="70.56" width="120" class="st34" y="465.75" x="145.68"/><polygon data-cppathid="10262" points="145.68,465.75 205.69,501.03 265.68,465.75    " class="st35"/></g><g><circle data-cppathid="10263" r="29.12" cy="501.03" cx="205.68" class="st12"/><text data-cppathid="10264" class="st9 st32 st37" transform="matrix(1 0 0 1 199.092 515.908)">!</text></g></g><g><g><rect data-cppathid="10265" height="70.56" width="120" class="st34" y="569.24" x="145.68"/><polygon data-cppathid="10266" points="145.68,569.24 205.69,604.52 265.68,569.24    " class="st35"/></g><g><circle data-cppathid="10267" r="29.12" cy="604.52" cx="205.68" class="st36"/><text data-cppathid="10268" class="st9 st32 st37" transform="matrix(1 0 0 1 199.0911 619.3989)">!</text></g></g><g><g><g><g><rect data-cppathid="10269" height="48.67" width="4.5" class="st36" y="595.87" x="389.97"/></g><g><path data-cppathid="10270" d="M372.51,645.48h39.42v-1.21c0-0.95-0.77-1.72-1.72-1.72h-35.97c-0.95,0-1.72,0.77-1.72,1.72V645.48z" class="st36"/></g><g><path data-cppathid="10271" d="M366.66,594.18c0,2.66,2.18,4.84,4.84,4.84h39.88c2.66,0,4.84-2.18,4.84-4.84v-4.38       c0-2.66-2.18-4.84-4.84-4.84H371.5c-2.66,0-4.84,2.18-4.84,4.84V594.18z" class="st36"/></g></g></g><g><g><path data-cppathid="10272" d="M425.44,563.42c0,0,6.69,1.04,14.21,6.06c1.18,0.79,1.83,2.17,1.65,3.58c-0.9,7.13-4.6,30.21-16.81,52.76      c-0.64,1.19-0.83,2.57-0.54,3.89l2.12,9.87l3.93,3.69h-10.13l-6.74-18.25l2.88-0.91c2.24-0.71,3.77-2.76,3.81-5.11l0.34-19.58      c-0.29-8.72,5.35-14.74,5.35-14.74l-16.18-0.79L425.44,563.42z" class="st38"/></g><g><path data-cppathid="10273" d="M433.96,645.05c0.92,1.21-9.93,2.8-15.41,0.16c0,0-7.6-13.22-7.6-20.03c0,0,0.6-1.39,5.07-1.07      c0,0,2.55,15.66,5.25,17.41c2.69,1.75,7.54,0.18,7.54,0.18S432.6,643.27,433.96,645.05z"/></g><g><path data-cppathid="10274" d="M411.38,584.96c0.09-0.15,17.42-2.08,17.42-2.08s-0.57,5.27,1.21,12.52c1.77,7.25,27.22,38.68,27.22,38.68      l-2.67,8.46c8.25,2.87,16.36,3.33,24.35,1.46l-16.54-9.92c0,0-15.48-52.74-24.95-62.15l-17.37-6.01L411.38,584.96z" class="st39"/></g><path data-cppathid="10275" d="M372.51,554.28c0,0-9.99,14.85-10.8,21.63c-0.82,6.77,2.74,9.53,13.21,9.98     c10.48,0.45,38.45,0.45,38.45,0.45l23.87-20.4c0,0-17.4-6.21-21.92-7.96C410.79,556.21,372.51,554.28,372.51,554.28z" class="st16"/><g><path data-cppathid="10276" d="M455.56,639.7c0,0-2.87,2.78-0.93,5.88c0,0,22.76,4.03,28.93,2.2c0,0-1.28-2.93-8.24-6.26l0.51,0.39      c0.65,0.5,0.27,1.54-0.55,1.49C470.7,643.14,461.21,642.3,455.56,639.7z"/></g></g><g><g><path data-cppathid="10277" d="M412.91,483.75c0,1.37-12.31,51.97-12.31,51.97l-35.07,10.31c-6.76,1.99-14.02-0.76-17.78-6.72h0      c-9.33-14.82-4.87-34.4,9.95-43.72l4.97-3.12c10.59-6.66,19.73-15.37,26.88-25.63l1.87-2.68L412.91,483.75z"/></g><path data-cppathid="10278" d="M399.51,552.31c0,0,11.63-11.07,17.35-18.41c3.09-3.96,4.07-9.18,2.63-14c-2.61-8.8-7.26-17.92-7.68-19.34     c-0.65-2.18-13.69-2.08-13.69-2.08s-25.66,16.65-35.74,44.86l11.32,3.52c0,0,6.7-11.24,13.32-18.38c0,0-11.45,15.13-11.86,21.32     L399.51,552.31z" class="st16"/><g><path data-cppathid="10279" d="M413.4,488.4c-0.14,0.45-3.54,11.73-3.81,11.97c-0.27,0.23-7.46,0.62-10.85-1.69l5.75-12.03L413.4,488.4z" class="st39"/></g><g><path data-cppathid="10280" d="M407.81,464.71c0,0,6.14,2.59,10.32,11.47c4.18,8.88,1.06,12.98-2.86,13.54      c-3.92,0.56-9.78,0.48-15.98-5.26C393.09,478.73,399.82,461.63,407.81,464.71z" class="st39"/></g><g><path data-cppathid="10281" d="M403.46,479.72c0,0-4.64-12.99,6.88-13.14l2.71,1.89c0,0,4.22-7.2-2.71-10.64c-6.93-3.44-17.28-0.38-20.23,8.97      c-2.95,9.34-1.22,15.38,3.69,19.85c4.91,4.47,6.93-0.6,6.93-0.6s-2.67-4.18-1.59-6.42c1.09-2.24,3.6,0.46,3.6,0.46      L403.46,479.72z"/></g><g><path data-cppathid="10282" d="M402.17,481.17c0,0-2.34-6.69-5.47-4.03c-3.13,2.66,2.54,6.18,4.76,7.32L402.17,481.17z" class="st39"/></g><g><path data-cppathid="10283" d="M423.2,553.13l-8.54-8.23l-11.82,4.99c0,0-11.76,1.82-18.5,0c-6.73-1.82-6.73-1.82-6.73-1.82l-15.22-4.74      l-2.39,6.75c-0.61,1.71,0,3.62,1.49,4.67c1.32,0.94,2.86,1.96,3.84,2.39c2,0.88,49.39-0.61,49.39-0.61L423.2,553.13z" class="st39"/></g></g><g><path data-cppathid="10284" d="M390.87,557.02c0.04,0,0.08,0,0.11,0l49.56-0.05c1.23,0,2.22-1,2.22-2.22c0-1.23-1-2.24-2.22-2.22     l-49.56,0.05c-1.23,0-2.22,1-2.22,2.22C388.77,555.99,389.7,556.96,390.87,557.02z" class="st40"/><path data-cppathid="10285" d="M485.1,512.02h-41.27c-3.04,0-5.82,1.76-7.11,4.51l-19.08,40.46h51.29c1.96,0,3.72-1.2,4.45-3.02     l14.8-37.44C489.02,514.36,487.42,512.02,485.1,512.02z" class="st40"/><g><path data-cppathid="10286" d="M456.02,532.76c-0.89,2.78-0.23,5.48,1.48,6.03c1.71,0.55,3.82-1.26,4.71-4.04      c0.89-2.78,0.23-5.48-1.48-6.03C459.02,528.18,456.91,529.99,456.02,532.76z" class="st9"/></g></g><g><path data-cppathid="10287" d="M321.6,558.83c-0.12-0.56,0.04-1.14,0.43-1.58c0.39-0.44,0.97-0.7,1.58-0.7h206.81     c0.8,0,1.55,0.38,1.98,1.02c0.43,0.63,0.49,1.43,0.15,2.11l-2.24,4.55c-0.51,1.04-1.63,1.71-2.85,1.71H325.03     c-1.14,0-2.12-0.76-2.33-1.8L321.6,558.83z" class="st9"/><g><path data-cppathid="10288" d="M518.83,654.66c0.24,0,0.48-0.05,0.72-0.15c0.92-0.41,1.35-1.5,0.95-2.44l-38.06-90.53      c-0.4-0.94-1.46-1.38-2.38-0.97c-0.92,0.41-1.35,1.5-0.95,2.44l38.06,90.53C517.46,654.23,518.13,654.66,518.83,654.66z" class="st9"/><path data-cppathid="10289" d="M475.95,654.66c0.7,0,1.37-0.42,1.67-1.12L515.68,563c0.4-0.94-0.03-2.03-0.95-2.44      c-0.92-0.41-1.99,0.03-2.38,0.97l-38.06,90.53c-0.4,0.94,0.03,2.03,0.95,2.44C475.47,654.61,475.71,654.66,475.95,654.66z" class="st9"/><path data-cppathid="10290" d="M368.94,654.66c0.24,0,0.48-0.05,0.72-0.15c0.92-0.41,1.35-1.5,0.95-2.44l-38.06-90.53      c-0.4-0.94-1.46-1.38-2.38-0.97c-0.92,0.41-1.35,1.5-0.95,2.44l38.06,90.53C367.57,654.23,368.24,654.66,368.94,654.66z" class="st9"/><path data-cppathid="10291" d="M326.06,654.66c0.7,0,1.37-0.42,1.67-1.12L365.79,563c0.4-0.94-0.03-2.03-0.95-2.44      c-0.92-0.41-1.99,0.03-2.38,0.97l-38.06,90.53c-0.4,0.94,0.03,2.03,0.95,2.44C325.58,654.61,325.82,654.66,326.06,654.66z" class="st9"/></g></g></g><g id="P297LW_00000008832930778991599900000008268328280132931262_"><path data-cppathid="10292" d="M103.1,525.5c0,0,3.21,18.27,6.73,37.36c3.82,20.75,7.99,42.46,8.78,42.74c1.51,0.52,3.78-2.48,4.82-5    c0.83-2.03,2.49-17.69,1.65-28.51c-0.2-2.64-0.45-4.81-0.73-6.15c-1.45-6.85-1.65-31.02-6.16-34.87    C113.66,527.21,103.1,525.5,103.1,525.5z" class="st41"/><path data-cppathid="10293" d="M124.04,597.53c0,0-0.78,2.99,0.35,5.92c1.14,2.93,1.38,3.76-0.72,5.41c-2.1,1.64-4.37,3.95-5.95,3.27    c-1.58-0.68-0.6-14.09-0.6-14.09L124.04,597.53z" class="st41"/><path data-cppathid="10294" d="M117.65,715.27c-1.95-1.19-0.84-10.07-0.84-10.07s9.08-7.27,10.33-1.7c1.25,5.56,8.63,8.06,12.83,8.74    c2.9,0.47,3.8,2.08,4.08,3.03H117.65z"/><path data-cppathid="10295" d="M77.31,715.27c-1.95-1.19-0.84-10.07-0.84-10.07s9.09-7.27,10.33-1.7c1.25,5.56,8.63,8.06,12.83,8.74    c2.9,0.47,3.8,2.08,4.08,3.03H77.31z"/><path data-cppathid="10296" d="M89.94,612.23c3.23,13.66,7.31,29.26,8.9,38.06c0.19,1.02,0.34,1.95,0.45,2.77    c0.11,0.82,0.19,1.54,0.22,2.14c0.84,16.47,13.87,54.14,16.19,55.02c3.6,1.36,9.28-1.53,12.25-2.48c1.23-0.39,2.06-1.64,1.79-2.89    c-6.45-29.65-10.42-72.07-11.29-97.35c-0.43-12.73-1.01-21.79-1.01-21.79s-31.76-8.47-31.95,2.25    C85.41,592.11,87.42,601.58,89.94,612.23z" class="st40"/><path data-cppathid="10297" d="M89.94,612.23c3.23,13.66,7.31,29.26,8.9,38.06c0.19,1.02,1.16,9.66,1.27,10.48l5.56-63.17l-7.88,0.73    L89.94,612.23z" class="st42"/><path data-cppathid="10298" d="M99.61,509.73l-0.01,1.55c0,0,0.42,4.86-5.56,5.57c-5.99,0.71-10.52-1.9-10.36-5.65    c0.54-2.9,1.13-4.9,1.17-7.3c0.01-0.89-0.05-1.84-0.21-2.91l11.6-0.23l3.42,0.56L99.61,509.73z" class="st41"/><path data-cppathid="10299" d="M99.65,501.32l-0.04,8.41c-1.23,0.57-2.62,0.92-4.18,0.92c-5.33,0-8.78-3.91-10.58-6.75    c0.01-0.89-0.05-1.84-0.21-2.91l11.6-0.23L99.65,501.32z" class="st43"/><path data-cppathid="10300" d="M102.44,591.63L91.23,708.71c0,0-8.29,2.69-15.79,0.62c0,0-4.36-64.01-3.95-79.66    c0.41-15.65-3.53-41.87,0.9-44.76C76.82,582.02,102.44,591.63,102.44,591.63z" class="st40"/><path data-cppathid="10301" d="M100.33,505.41c0,0-14.86,3-16.58-6.28c-1.73-9.28-4.81-15.14,4.61-17.45c9.41-2.31,11.92,0.89,13.25,3.85    C102.93,488.48,104.15,504.39,100.33,505.41z" class="st41"/><path data-cppathid="10302" d="M84.43,501.19c0,0-5.17,1.16-5.65-8.24c-0.19-3.62-1.09-16.33,9.25-15.9c10.34,0.44,15.06,6.48,16,7.54    c7.06,7.97-10.12,2.04-12.4,3.89c-2.29,1.85-0.11,4.9-2.72,5.99c-2.61,1.09-4.68,1.09-4.25,3.48    C85.09,500.35,84.43,501.19,84.43,501.19z"/><path data-cppathid="10303" d="M105.41,484.78c0,0-5.54,1.93-7.47,2.07c-0.58,0.04-9.16,0.63-9.16,0.63l-12.54,2.21    c0,0-2.45-9.31,3.69-15.16l0,0c0.15-0.15,0.31-0.29,0.48-0.43c1.66-1.43,3.88-2.62,6.84-3.36    C102.23,466.97,105.35,484.24,105.41,484.78z" class="st9"/><g><g><path data-cppathid="10304" d="M98.1,486.59l-2.37,0.32c-1.85-2.45-8.71-10.95-15.94-12.21c0.04-0.07,0.08-0.12,0.12-0.16l0,0      c0.12-0.15,0.23-0.23,0.4-0.45c0.03,0.01,0.05,0.01,0.07,0.02C89.65,476.31,96.54,484.41,98.1,486.59z" class="st44"/></g></g><path data-cppathid="10305" d="M88.77,487.48c0,0-1.61,1.83-2.04,3.58c-0.42,1.76-8.57,2.81-9.13,1.9c-0.56-0.91-1.38-3.26-1.38-3.26    L88.77,487.48z" class="st9"/><path data-cppathid="10306" d="M88.77,487.48c0,0,15,0.28,21.86-3.33c0.52-0.27,0.43-1.05-0.14-1.19c-1.03-0.25-2.79-0.53-5.68-0.64    C104.82,482.32,99.45,486.78,88.77,487.48z" class="st44"/><path data-cppathid="10307" d="M57,535.28c0,0,5.71-15.1,10.09-18.31c2.53-1.85,7.67-3.34,11.57-4.27c1.24-0.29,2.34-0.53,3.21-0.71    c1.12-0.23,1.82-0.35,1.84-0.35c0,0,0,0,0,0c0,0,0,0,0,0c0,0,0.15,0.42,0.37,1.16c1.3,2,5.71,3.51,9.41,3.27    c3.7-0.24,6.11-3.06,6.11-4.58l0,0v0c0,0,0.3,0.09,0.83,0.25c0.77,0.25,2.05,0.67,3.6,1.24c4.61,1.72,9.07,2.68,12.09,7.56    c4.47,7.22,6.32,16.61,6.32,16.61s-4.1,3.58-8.51,5.29c-0.21,0.08-0.44,0.04-0.65,0.04c0.29,39.45,2.09,45.53,1.24,45.51    c0,0-4.75,5.23-17.18,5.08c-4.84-0.05-9.06-0.42-12.64-0.95c-9.97-1.48-12.79-3.53-12.75-4.57c0.03-0.93,0.81-25.9,0.66-27.23    c-0.65-6.01-0.56-9.8-1.05-19.2C62.27,538.84,57,535.28,57,535.28z" class="st16"/><path data-cppathid="10308" d="M117.43,585.71l-3.79-47.26c-0.22-2.72-2.55-4.78-5.28-4.66l-25.85,1.01c-2.13,0.08-3.85,1.77-3.96,3.9    c-0.32,6.21-1.5,18.27-5.94,21.63l-2.34,34.21l28.88,26.15c0,0,3.28-19.16,7.79-24.49C109.48,593.22,117.43,585.71,117.43,585.71z    " class="st40"/><g><path data-cppathid="10309" d="M78.66,512.7l3.39,23.79l3.24-0.46L81.87,512C81,512.17,79.89,512.41,78.66,512.7z" class="st40"/></g><g><path data-cppathid="10310" d="M100.43,511.74l4.47,21.89l0.34,1.65l0.36-0.07l2.85-0.58l-4.42-21.64     C102.48,512.41,101.21,511.99,100.43,511.74z" class="st40"/></g><path data-cppathid="10311" d="M55.14,564.2c0,0,17.36,9.9,31.18,12.1c0,0,2.75-3.57,1.9-5.11c-0.63-1.16-20.17-13.73-20.27-14.12    c-0.26-0.96,3.99-10.48,5.87-17.21c-5.81-0.5-13.26-2.71-16.05-4.1C55.36,544.2,52.03,557.49,55.14,564.2z" class="st41"/><path data-cppathid="10312" d="M89.16,569.07c0,0,2.08-1.59,3.68-1.83c1.6-0.24,4.29-1.25,3.85-0.31c-0.44,0.95-3.38,2.44-3.38,2.44    L89.16,569.07z" class="st41"/><g><path data-cppathid="10313" d="M93.15,579.58l8.13,0.99c0.9,0.11,1.75-0.44,2.01-1.31l5.56-18.44c0.33-1.11-0.41-2.24-1.56-2.38l-8.13-0.99     c-0.9-0.11-1.75,0.44-2.01,1.31l-5.56,18.44C91.26,578.3,92,579.44,93.15,579.58z"/><path data-cppathid="10314" d="M96.03,579.93l8.13,0.99c0.9,0.11,1.75-0.44,2.01-1.31l5.56-18.44c0.33-1.11-0.41-2.24-1.56-2.38l-8.13-0.99     c-0.9-0.11-1.75,0.44-2.01,1.31l-5.56,18.44C94.14,578.65,94.88,579.79,96.03,579.93z"/></g><path data-cppathid="10315" d="M85.09,568.75c0,0,1.45,0.9,2.48,0.62c0.85-0.22,1.6-0.3,2.58-0.97c1.04-0.71,3.33,0.23,4,0.68    c1.9,1.26,8.3,1.21,8.3,2.48c0,1.26-2.78,4.82-6.15,5.87c-3.37,1.05-9.97-1.12-9.97-1.12L85.09,568.75z" class="st41"/></g><g><g><path data-cppathid="10316" d="M883.94,509.85l2.06,2.05c-0.27-0.3-0.54-0.59-0.81-0.89C884.81,510.59,884.38,510.22,883.94,509.85z" class="st45"/><path data-cppathid="10317" d="M892.24,517.19c-1.18-0.6-2.17-1.36-3.11-2.18l9.59,9.55V518C896.45,518.12,894,518.1,892.24,517.19z" class="st46"/><path data-cppathid="10318" d="M881.12,507.78c0.96,0.67,1.93,1.33,2.83,2.07l-2.83-2.81V507.78z" class="st47"/><path data-cppathid="10319" d="M889.12,515.02L886,511.9C887,513,888.02,514.05,889.12,515.02z" class="st47"/><g><path data-cppathid="10320" d="M928.71,471.63c-0.75,0.55-0.38,1.92-1.08,2.37c-0.02,0.02-0.04,0.01-0.06,0.03      c-0.2,0.67-0.41,1.33-0.59,1.94h-2.36c-0.12-2.03,0.37-5.11,0.38-5.68c0.03-1.01,0.06-2.02,0.08-3.02      c-10.67,1.31-19.33,1.65-26.36,1.42V518c0.01,0,0.02,0,0.03,0c2.27,0.11,4.74,0.09,6.51-0.81c2.94-1.51,4.91-3.84,7.05-6.18      c1.47-1.6,3.42-2.71,5.16-4.02c0.96-0.73,1.86-1.52,2.58-2.5c0.93-1.28,1.62-2.76,2.08-4.37c0.67-2.37,0.37-6.11,2.17-8.01      c1.62-1.72,3.24-2.39,4.4-4.77c2.01-4.09,2.66-9.03,2.42-13.55C931.04,472.54,930.36,470.41,928.71,471.63z" class="st47"/><path data-cppathid="10321" d="M872.31,469.54c-0.09,1.73-0.15,3.1-0.06,4.84c0.02,0.37,0.05,0.97,0.02,1.6h-3.02      c-0.01-0.52,0.02-1.01,0.03-1.32c0.03-0.74,0.02-1.41,0-2.07c-0.08-0.37-0.19-0.73-0.49-0.95c-1.65-1.22-2.33,0.91-2.4,2.18      c-0.23,4.52,0.42,9.45,2.42,13.55c1.16,2.37,2.78,3.05,4.4,4.77c1.8,1.9,1.5,5.63,2.17,8.01c0.45,1.61,1.15,3.09,2.08,4.37      c0.97,1.34,2.3,2.33,3.66,3.29v-0.75l2.83,2.81l0,0c0.44,0.36,0.86,0.74,1.25,1.16c0.27,0.3,0.54,0.59,0.81,0.89v0l3.12,3.11      l0,0c0.94,0.81,1.94,1.57,3.11,2.18c1.76,0.91,4.22,0.93,6.48,0.81v-49.32c-15.99-0.53-23.47-4.04-26.36-5.93      C872.17,464.99,872.42,467.29,872.31,469.54z" class="st47"/><path data-cppathid="10322" d="M883.92,451.77c-5.76,0.45-10.94,4.72-11.54,10.77c-0.01,0.07-0.01,0.14-0.01,0.21      c2.89,1.89,10.37,5.4,26.36,5.93v-16.53c-0.65,0.1-1.34,0.16-2.1,0.16C892.38,452.31,888.14,451.44,883.92,451.77z" class="st46"/><path data-cppathid="10323" d="M912.3,448.37c-0.65-0.4-1.61-1.42-2.36-1.61c-1.15-0.29-0.49-0.21-1.6,0.48      c-3.53,2.19-5.78,4.34-9.62,4.91v16.53c7.03,0.23,15.69-0.1,26.36-1.42c0.05-3.04-0.01-6.07-0.68-9.06      C923.27,453.14,916.22,450.77,912.3,448.37z" class="st48"/><g><path data-cppathid="10324" d="M909.73,427.17c-0.23,0.03-2.97,0.28-2.63,0.59c-1.44-1.3-3.97-1.39-5.76-1.82c-0.85-0.2-1.74-0.32-2.62-0.4v26.61       c3.84-0.57,6.09-2.72,9.62-4.91c1.11-0.69,0.45-0.77,1.6-0.48c0.75,0.19,1.71,1.21,2.36,1.61c3.92,2.4,10.97,4.78,12.1,9.84       c0.67,2.99,0.73,6.02,0.68,9.06c-0.02,1.01-0.05,2.02-0.08,3.02c-0.01,0.57-0.5,3.65-0.38,5.68h2.36       c0.19-0.61,0.39-1.27,0.59-1.94c0.62-2.03,1.23-4.14,1.42-5.1c0.99-5.14,0.76-7.39,1-9.58c0.85-7.75,1.28-15.17-3.5-21.67       C921.36,430.72,913.78,426.65,909.73,427.17z"/></g><g><path data-cppathid="10325" d="M872.9,435.89c-7.29,6.66-6.22,15.23-5.39,23.46c0.29,2.87,0.26,6.05,1.06,8.79c0.47,1.63,0.66,2.98,0.71,4.44       c0.02,0.66,0.02,1.33,0,2.07c-0.01,0.32-0.04,0.8-0.03,1.32h3.02c0.03-0.63,0-1.23-0.02-1.6c-0.09-1.73-0.03-3.11,0.06-4.84       c0.12-2.24-0.14-4.55,0.05-6.78c0.01-0.07,0-0.14,0.01-0.21c0.61-6.05,5.79-10.32,11.54-10.77c4.23-0.33,8.47,0.54,12.7,0.55       c0.76,0,1.45-0.06,2.1-0.16v-26.61C889.71,424.76,879.18,430.15,872.9,435.89z"/></g></g><g><path data-cppathid="10326" d="M886,511.9l-2.06-2.05c-0.89-0.74-1.87-1.4-2.83-2.07v8.85l17.6,15.86v-7.93l-9.59-9.55      C888.02,514.05,887,513,886,511.9z" class="st46"/><path data-cppathid="10327" d="M898.72,532.5l0.06,0.06c0.27,0.25,0.69,0.25,0.96,0l3.67-3.3l-4.7-4.68V532.5z" class="st46"/><path data-cppathid="10328" d="M905.25,517.19c-1.77,0.91-4.24,0.93-6.51,0.81c-0.01,0-0.02,0-0.03,0v6.56l4.7,4.68l14.05-12.66v-9.6      c-1.74,1.31-3.69,2.42-5.16,4.02C910.16,513.35,908.19,515.68,905.25,517.19z" class="st46"/><path data-cppathid="10329" d="M893.95,540.59l-7.26,10.2l2.96,8.77l2.04,6.69l4.37-19.82c0.19-0.85,0.07-1.75-0.34-2.52L893.95,540.59z" class="st49"/><path data-cppathid="10330" d="M902.81,543.91c-0.41,0.77-0.53,1.66-0.35,2.52l4.28,19.39l2.13-6.26l2.76-8.2l0.18-0.6l-7.24-10.17      L902.81,543.91z" class="st50"/><path data-cppathid="10331" d="M902.81,543.91l1.77-3.32l-1.8-2.53l-2.85-4h-1.21v4.09v51.16l0.01,0.03l8.01-23.53l-4.28-19.39      C902.27,545.58,902.4,544.68,902.81,543.91z" class="st16"/><path data-cppathid="10332" d="M898.72,533.91c-0.01,0.02-0.03,0.02-0.04,0.04l-0.08,0.11l-1.71,2.41l-2.93,4.12l1.77,3.32      c0.41,0.77,0.53,1.66,0.34,2.52l-4.37,19.82l7.03,23.06v-51.16v-4.09h1.21l-0.08-0.11      C899.58,533.57,899.02,533.56,898.72,533.91z" class="st16"/><path data-cppathid="10333" d="M866.53,546.26l9.43-3.98l-10.85-5.33c0.53-1.65,1.71-5.01,3.11-8.04c-12.99,3.93-33.39,9.93-33.8,10.44      c-12.28,15.23-14.23,48.52-14.23,72.12h78.97l-0.44-3.38L866.53,546.26z" class="st40"/><path data-cppathid="10334" d="M930.3,528.91c1.41,3.04,2.57,6.39,3.11,8.04l-10.85,5.33l9.44,3.98l-32.99,62.39l-0.3-0.57v1.17      c0.02,0,0.02,0.85,0.03,2.21h80c0-26.55-0.84-59.47-14.64-72.12C963.62,538.9,943.3,532.84,930.3,528.91z" class="st40"/><polygon data-cppathid="10335" points="911.63,551.36 911.83,550.78 911.82,550.76     " class="st51"/><path data-cppathid="10336" d="M917.46,516.59l-14.05,12.66l-3.67,3.3c-0.27,0.25-0.69,0.25-0.96,0l-0.06-0.06v0.93      c0.08-0.07,0.15-0.15,0.24-0.22c0.63-0.42,1.18,0.28,1.5,0.86h-0.53l2.85,4l1.8,2.53l7.24,10.17l0.01,0.02l1.08-3.2l7.32-21.7      c0.22,0.07,0.52,0.16,0.85,0.26l-3.35-9.8L917.46,516.59z" class="st52"/><path data-cppathid="10337" d="M898.96,533.21c-0.1,0.06-0.16,0.14-0.24,0.22v-0.93l-17.6-15.86l-0.33-0.3l-3.35,9.8      c0.33-0.1,0.63-0.19,0.86-0.26l6.32,18.77l1.1,3.27l0.96,2.86l7.26-10.2l2.93-4.12l1.71-2.41l0.08-0.11      c0.01-0.02,0.03-0.02,0.04-0.04c0.3-0.36,0.86-0.35,1.13,0.04l0.08,0.11h0.53C900.14,533.49,899.59,532.79,898.96,533.21z" class="st53"/><path data-cppathid="10338" d="M889.65,559.56l-2.96-8.77l-0.96-2.86l-1.1-3.27l-6.32-18.77c-0.22,0.07-0.52,0.16-0.86,0.26      c-1.81,0.54-5.15,1.55-9.23,2.77c-1.4,3.04-2.57,6.39-3.11,8.04l10.85,5.33l-9.43,3.98l32.19,61.82v-12.05v-0.88v-3.77v-2.07      l-7.03-23.06L889.65,559.56z" class="st54"/><path data-cppathid="10339" d="M930.3,528.91c-4.07-1.23-7.41-2.23-9.22-2.77c-0.33-0.1-0.63-0.19-0.85-0.26l-7.32,21.7l-1.08,3.2      l-0.2,0.58l-2.76,8.2l-2.13,6.26l-8.01,23.53l-0.01-0.03v2.07v3.77v0.88v12.05l0.3,0.57L932,546.26l-9.44-3.98l10.85-5.33      C932.88,535.3,931.71,531.95,930.3,528.91z" class="st54"/></g></g><g><path data-cppathid="10340" d="M918.97,426.42l0.04-0.06c0,0-0.1-0.12-0.29-0.34C918.87,426.24,918.94,426.36,918.97,426.42z" class="st55"/><path data-cppathid="10341" d="M920.88,430.01c-0.88-0.65-1.83-1.23-2.79-1.81l-0.28,0.52c1.03,0.83,2.05,1.69,3,2.63     c-4.87,7.52-9.36,16.92-13.31,24.69c4.84-14.07,8.9-24.13,10.48-27.92c-0.05-0.03-0.09-0.06-0.14-0.09l0.44-0.62     c0.25-0.59,0.4-0.93,0.4-0.93s0.01-0.17,0.05-0.46c-1.26-1.25-6.72-6.06-19.99-6.79c-0.01,0-0.01,0-0.02,0v42.88     c12.25,0,24.53-0.89,36.82-2.63c0-0.09,0.02-0.18,0.02-0.26C936.1,447.53,930.41,436.74,920.88,430.01z" class="st9"/><path data-cppathid="10342" d="M936.78,459.3c-12.7,1.85-25.41,2.81-38.06,2.81v1.21v1.28v1.76v1.44c7.95,0,15.92-0.25,23.87-0.76     c3.88-0.25,7.34-1.3,9.53-2.75c-0.28,0.33-0.55,0.66-0.84,0.98c-0.94,1.09-2.29,2.02-3.83,2.76c-1.78,0.85-3.84,1.45-6.03,1.65     c-7.57,0.7-15.14,1.04-22.7,1.04v0.3v2.95c7.09,0,14.18-0.3,21.28-0.91c3.58-0.3,6.93-1.68,9.51-3.81     c1.34-0.15,2.69-0.28,4.03-0.45c2.81-0.36,4.89-2.64,4.62-5.03c-0.14-1.26-0.29-2.52-0.43-3.79     C937.35,459.71,937.15,459.56,936.78,459.3z" class="st44"/><path data-cppathid="10343" d="M859.72,459.98c-0.14,1.27-0.29,2.53-0.43,3.79c-0.27,2.39,1.81,4.67,4.62,5.03     c1.31,0.17,2.61,0.29,3.92,0.44c2.57,2.13,5.9,3.51,9.47,3.81c7.14,0.61,14.29,0.92,21.42,0.92v-2.95v-0.3     c-7.62,0-15.26-0.35-22.89-1.06c-2.19-0.2-4.27-0.78-6.04-1.63c-1.66-0.79-3.05-1.82-4.01-3c-0.15-0.19-0.3-0.38-0.45-0.56     c2.2,1.36,5.59,2.33,9.31,2.56c8.02,0.52,16.05,0.78,24.07,0.78v-1.44v-1.76v-1.28v-1.21c-12.65,0-25.36-0.95-38.06-2.81     C860.29,459.56,860.08,459.71,859.72,459.98z" class="st44"/><path data-cppathid="10344" d="M898.72,467.8v0.23v2.69c7.56,0,15.13-0.34,22.7-1.04c2.2-0.2,4.26-0.8,6.03-1.65     c1.55-0.74,2.89-1.67,3.83-2.76c0.28-0.33,0.56-0.66,0.84-0.98c-2.19,1.45-5.65,2.51-9.53,2.75     C914.63,467.55,906.67,467.8,898.72,467.8z" class="st9"/><path data-cppathid="10345" d="M898.72,419.23c-13.36,0.74-18.82,5.6-20.01,6.82c-0.16,0.22-0.25,0.31-0.25,0.31l0.04,0.06     c0.04-0.05,0.1-0.15,0.21-0.36c0.04,0.25,0.05,0.42,0.05,0.42s0.16,0.35,0.42,0.95l0.41,0.6c-0.04,0.02-0.08,0.05-0.11,0.07     c1.87,4.32,6.92,16.3,10.48,27.94c-3.98-7.78-8.44-17.17-13.34-24.69c0.95-0.94,1.97-1.81,3-2.63l-0.27-0.53     c-0.96,0.57-1.91,1.16-2.79,1.81c-9.53,6.73-15.22,17.52-14.64,29.21c-0.01,0.09,0.01,0.18,0.01,0.27     c12.28,1.73,24.56,2.63,36.8,2.63l28.78-1.62l-28.78-1.54V419.23z" class="st9"/><path data-cppathid="10346" d="M865.33,464.46c0.15,0.19,0.3,0.38,0.45,0.56c0.96,1.19,2.36,2.21,4.01,3c1.77,0.85,3.84,1.43,6.04,1.63     c7.63,0.71,15.27,1.06,22.89,1.06v-2.69v-0.23c-8.02,0-16.05-0.26-24.07-0.78C870.91,466.78,867.53,465.82,865.33,464.46z" class="st9"/><path data-cppathid="10347" d="M879.18,427.44c-0.26-0.6-0.42-0.95-0.42-0.95s-0.01-0.17-0.05-0.42c-0.11,0.21-0.18,0.31-0.21,0.36     c-0.01,0.02-0.04,0.05-0.04,0.05l0.89,1.72l0.27,0.53c-1.03,0.83-2.05,1.69-3,2.63c4.91,7.52,9.37,16.92,13.34,24.69     c-3.56-11.64-8.61-23.62-10.48-27.94C879.36,427.85,879.26,427.64,879.18,427.44z" class="st44"/><path data-cppathid="10348" d="M918.1,428.2l0.91-1.72c0,0-0.02-0.04-0.04-0.06c-0.04-0.06-0.1-0.18-0.25-0.4     c-0.05,0.29-0.05,0.46-0.05,0.46s-0.15,0.34-0.4,0.93c-0.09,0.2-0.18,0.44-0.3,0.71c-1.57,3.79-5.64,13.85-10.48,27.92     c3.95-7.78,8.44-17.17,13.31-24.69c-0.95-0.94-1.97-1.81-3-2.63L918.1,428.2z" class="st44"/></g><g><path data-cppathid="10349" d="M942.49,572.82v1.77c0,2.04-1.66,3.71-3.7,3.71h-1.21c-2.05,0-3.7-1.67-3.7-3.71v-1.77h-7.34     c-0.99,0.77-1.64,1.96-1.64,3.32v6.9c0,2.35,1.89,4.24,4.23,4.24h18.13c2.34,0,4.23-1.89,4.23-4.24v-6.9     c0-1.36-0.65-2.55-1.64-3.32H942.49z M948.19,583.78h-20.04v-1.13h20.04V583.78z M948.19,581.18h-20.04v-1.12h20.04V581.18z" class="st56"/><path data-cppathid="10350" d="M938.78,569.1h-1.21c-1.29,0-2.32,0.88-2.32,1.96v1.66v2.25c0,1.08,1.04,1.96,2.32,1.96h1.21     c1.29,0,2.32-0.88,2.32-1.96v-2.25v-1.66C941.1,569.98,940.07,569.1,938.78,569.1z" class="st56"/></g></g><path data-cppathid="10351" d="M416.84,465.67c0,0-5.18,3.56-7.14,4.26c-0.59,0.21-9.29,3.25-9.29,3.25l-12.34,5.84c0,0-5.17-8.93-0.49-16.72   l0,0c0.12-0.2,0.24-0.39,0.37-0.58c1.31-1.95,3.27-3.81,6.12-5.41C408.51,448.15,416.62,465.12,416.84,465.67z" class="st9"/><g><g><path data-cppathid="10352" d="M409.8,469.6l-2.36,1c-2.61-2.01-12.11-8.85-19.94-8.1c0.03-0.08,0.05-0.15,0.08-0.2l0,0     c0.09-0.19,0.17-0.3,0.29-0.58c0.03,0,0.05,0,0.08,0C398.14,461.38,407.56,467.8,409.8,469.6z" class="st44"/></g></g><path data-cppathid="10353" d="M400.41,473.18c0,0,15.59-3.96,21.66-9.64c0.46-0.43,0.15-1.21-0.48-1.19c-1.14,0.03-3.03,0.24-6.05,0.95   C415.53,463.29,411.24,469.42,400.41,473.18z" class="st44"/></g><g><path data-cppathid="10354" d="M1104.43,22c16.75,0,30.39,13.63,30.39,30.39v975.23c0,16.75-13.63,30.39-30.39,30.39H52.39   c-16.75,0-30.39-13.63-30.39-30.39V52.39C22,35.63,35.63,22,52.39,22H1104.43 M1104.43,20H52.39C34.5,20,20,34.5,20,52.39v975.23   c0,17.89,14.5,32.39,32.39,32.39h1052.04c17.89,0,32.39-14.5,32.39-32.39V52.39C1136.82,34.5,1122.32,20,1104.43,20L1104.43,20z" class="st5"/></g><g><g><g><rect data-cppathid="10355" height="9.53" width="9.53" class="st5" transform="matrix(-1 -1.224647e-16 1.224647e-16 -1 347.2278 92.5796)" y="41.53" x="168.85"/><rect data-cppathid="10356" height="9.53" width="9.53" class="st5" transform="matrix(-1 -1.224647e-16 1.224647e-16 -1 310.5811 92.5796)" y="41.53" x="150.53"/><rect data-cppathid="10357" height="9.53" width="9.53" class="st5" transform="matrix(-1 -1.224647e-16 1.224647e-16 -1 273.9343 92.5796)" y="41.53" x="132.2"/><rect data-cppathid="10358" height="9.53" width="9.53" class="st5" transform="matrix(-1 -1.224647e-16 1.224647e-16 -1 237.2873 92.5796)" y="41.53" x="113.88"/><rect data-cppathid="10359" height="9.53" width="9.53" class="st5" transform="matrix(-1 -1.224647e-16 1.224647e-16 -1 200.6405 92.5796)" y="41.53" x="95.56"/><rect data-cppathid="10360" height="9.53" width="9.53" class="st5" transform="matrix(-1 -1.224647e-16 1.224647e-16 -1 163.9937 92.5796)" y="41.53" x="77.23"/><rect data-cppathid="10361" height="9.53" width="9.53" class="st5" transform="matrix(-1 -1.224647e-16 1.224647e-16 -1 163.9937 129.2264)" y="59.85" x="77.23"/><rect data-cppathid="10362" height="9.53" width="9.53" class="st5" transform="matrix(-1 -1.224647e-16 1.224647e-16 -1 200.6405 129.2264)" y="59.85" x="95.56"/><rect data-cppathid="10363" height="9.53" width="9.53" class="st5" transform="matrix(-1 -1.224647e-16 1.224647e-16 -1 163.9937 165.8732)" y="78.17" x="77.23"/><rect data-cppathid="10364" height="9.53" width="9.53" class="st5" transform="matrix(-1 -1.224647e-16 1.224647e-16 -1 127.3469 92.5796)" y="41.53" x="58.91"/><rect data-cppathid="10365" height="9.53" width="9.53" class="st5" transform="matrix(-1 -1.224647e-16 1.224647e-16 -1 90.7001 92.5796)" y="41.53" x="40.59"/><rect data-cppathid="10366" height="9.53" width="9.53" class="st5" transform="matrix(6.123234e-17 -1 1 6.123234e-17 -129.2037 219.9038)" y="169.79" x="40.59"/><rect data-cppathid="10367" height="9.53" width="9.53" class="st5" transform="matrix(6.123234e-17 -1 1 6.123234e-17 -110.8802 201.5803)" y="151.47" x="40.59"/><rect data-cppathid="10368" height="9.53" width="9.53" class="st5" transform="matrix(6.123234e-17 -1 1 6.123234e-17 -92.5569 183.2569)" y="133.14" x="40.59"/><rect data-cppathid="10369" height="9.53" width="9.53" class="st5" transform="matrix(6.123234e-17 -1 1 6.123234e-17 -74.2334 164.9335)" y="114.82" x="40.59"/><rect data-cppathid="10370" height="9.53" width="9.53" class="st5" transform="matrix(6.123234e-17 -1 1 6.123234e-17 -55.91 146.61)" y="96.5" x="40.59"/><rect data-cppathid="10371" height="9.53" width="9.53" class="st5" transform="matrix(6.123234e-17 -1 1 6.123234e-17 -37.5866 128.2866)" y="78.17" x="40.59"/><rect data-cppathid="10372" height="9.53" width="9.53" class="st5" transform="matrix(6.123234e-17 -1 1 6.123234e-17 -18.6714 147.2017)" y="78.17" x="59.5"/><rect data-cppathid="10373" height="9.53" width="9.53" class="st5" transform="matrix(6.123234e-17 -1 1 6.123234e-17 -36.9948 165.5251)" y="96.5" x="59.5"/><rect data-cppathid="10374" height="9.53" width="9.53" class="st5" transform="matrix(6.123234e-17 -1 1 6.123234e-17 -19.2632 109.9632)" y="59.85" x="40.59"/><rect data-cppathid="10375" height="9.53" width="9.53" class="st5" transform="matrix(6.123234e-17 -1 1 6.123234e-17 -0.9398 128.2867)" y="59.85" x="58.91"/></g></g><g><g><rect data-cppathid="10376" height="9.53" width="9.53" class="st5" y="1028.95" x="976.45"/><rect data-cppathid="10377" height="9.53" width="9.53" class="st5" y="1028.95" x="994.77"/><rect data-cppathid="10378" height="9.53" width="9.53" class="st5" y="1028.95" x="1013.09"/><rect data-cppathid="10379" height="9.53" width="9.53" class="st5" y="1028.95" x="1031.42"/><rect data-cppathid="10380" height="9.53" width="9.53" class="st5" y="1028.95" x="1049.74"/><rect data-cppathid="10381" height="9.53" width="9.53" class="st5" y="1028.95" x="1068.06"/><rect data-cppathid="10382" height="9.53" width="9.53" class="st5" y="1010.63" x="1068.06"/><rect data-cppathid="10383" height="9.53" width="9.53" class="st5" y="1010.63" x="1049.74"/><rect data-cppathid="10384" height="9.53" width="9.53" class="st5" y="992.31" x="1068.06"/><rect data-cppathid="10385" height="9.53" width="9.53" class="st5" y="1028.95" x="1086.39"/><rect data-cppathid="10386" height="9.53" width="9.53" class="st5" y="1028.95" x="1104.71"/><rect data-cppathid="10387" height="9.53" width="9.53" class="st5" transform="matrix(-1.836970e-16 1 -1 -1.836970e-16 2014.9265 -204.0224)" y="900.69" x="1104.71"/><rect data-cppathid="10388" height="9.53" width="9.53" class="st5" transform="matrix(-1.836970e-16 1 -1 -1.836970e-16 2033.25 -185.699)" y="919.01" x="1104.71"/><rect data-cppathid="10389" height="9.53" width="9.53" class="st5" transform="matrix(-1.836970e-16 1 -1 -1.836970e-16 2051.5732 -167.3756)" y="937.34" x="1104.71"/><rect data-cppathid="10390" height="9.53" width="9.53" class="st5" transform="matrix(-1.836970e-16 1 -1 -1.836970e-16 2069.8967 -149.0522)" y="955.66" x="1104.71"/><rect data-cppathid="10391" height="9.53" width="9.53" class="st5" transform="matrix(-1.836970e-16 1 -1 -1.836970e-16 2088.2202 -130.7287)" y="973.98" x="1104.71"/><rect data-cppathid="10392" height="9.53" width="9.53" class="st5" transform="matrix(-1.836970e-16 1 -1 -1.836970e-16 2106.5437 -112.4053)" y="992.31" x="1104.71"/><rect data-cppathid="10393" height="9.53" width="9.53" class="st5" transform="matrix(-1.836970e-16 1 -1 -1.836970e-16 2087.6284 -93.4902)" y="992.31" x="1085.8"/><rect data-cppathid="10394" height="9.53" width="9.53" class="st5" transform="matrix(-1.836970e-16 1 -1 -1.836970e-16 2069.3052 -111.8136)" y="973.98" x="1085.8"/><rect data-cppathid="10395" height="9.53" width="9.53" class="st5" transform="matrix(-1.836970e-16 1 -1 -1.836970e-16 2124.8669 -94.0819)" y="1010.63" x="1104.71"/><rect data-cppathid="10396" height="9.53" width="9.53" class="st5" transform="matrix(-1.836970e-16 1 -1 -1.836970e-16 2106.5437 -75.7585)" y="1010.63" x="1086.39"/></g></g></g></svg>