<?xml version="1.0" encoding="UTF-8"?>
<svg xmlns="http://www.w3.org/2000/svg" onmouseup="{ if(window.parent.document.onmouseup) window.parent.document.onmouseup(arguments[0]);}" viewBox="0 0 1156.8 1080" data-name="Layer 1" id="Layer_1"><g data-name="Layer 1" id="Layer_1-2"><rect data-cppathid="10000" fill="#333e48" height="1080" width="1156.8"/></g><line data-cppathid="10001" stroke-width="2" stroke-linejoin="round" stroke-linecap="round" stroke="#00ffd3" fill="none" y2="194.4" x2="1133.8" y1="194.4" x1="21.1"/><path data-cppathid="10002" fill="#00ffd3" d="M1103.4,22a30.39,30.39,0,0,1,30.4,30.4v975.2a30.39,30.39,0,0,1-30.4,30.4H51.4A30.39,30.39,0,0,1,21,1027.6V52.4A30.39,30.39,0,0,1,51.4,22h1052m0-2H51.4A32.39,32.39,0,0,0,19,52.4v975.2A32.39,32.39,0,0,0,51.4,1060h1052a32.39,32.39,0,0,0,32.4-32.4V52.4A32.39,32.39,0,0,0,1103.4,20Z"/><path data-cppathid="10003" fill="#f7a800" d="M36.2,230.9v90.2L147,210.3l-90-.2A20.72,20.72,0,0,0,36.2,230.9Z"/><path data-cppathid="10004" fill="#0099a8" d="M1118.4,1023.6V933.4l-110.8,110.8,90,.2A20.72,20.72,0,0,0,1118.4,1023.6Z"/><g style="isolation:isolate"><path data-cppathid="10005" fill="#f7a800" d="M323.61,117.76h-17.4v13.41H326.9v7.22H296.8V91.47h30v7.25H306.21v11.79h17.4Z"/><path data-cppathid="10006" fill="#f7a800" d="M358,126.14a5.49,5.49,0,0,0-1.89-4.35,18.93,18.93,0,0,0-6.62-3.09q-8.13-2.46-12.33-5.77a10.92,10.92,0,0,1-4.2-9.06,11.37,11.37,0,0,1,4.73-9.42q4.74-3.66,12.09-3.66,7.8,0,12.55,3.93A12.29,12.29,0,0,1,366.89,105l-.06.2h-9.12a6.84,6.84,0,0,0-2.13-5.4,8.66,8.66,0,0,0-6-1.89,7.85,7.85,0,0,0-5.38,1.68,5.46,5.46,0,0,0-1.9,4.29,4.66,4.66,0,0,0,2.06,3.91,27.59,27.59,0,0,0,7.12,3.24q7.74,2.19,11.8,5.72a11.74,11.74,0,0,1,4.06,9.3,11.17,11.17,0,0,1-4.71,9.5q-4.71,3.48-12.44,3.48a22.17,22.17,0,0,1-13-3.77q-5.43-3.76-5.27-11.24l.06-.2h9.12q0,4.17,2.45,6.13a10.34,10.34,0,0,0,6.64,2,9,9,0,0,0,5.75-1.58A5.1,5.1,0,0,0,358,126.14Z"/><path data-cppathid="10007" fill="#f7a800" d="M407,98.72h-13.4v39.67H384.2V98.72H371V91.47h36Z"/><path data-cppathid="10008" fill="#f7a800" d="M433.12,128.27H417.91l-3.16,10.12h-9.83l15.82-46.92h9.64l15.76,46.92h-9.83Zm-12.89-7.38h10.6l-5.19-16.53h-.19Zm7-42.64h10.48l.06.2-8.93,8.38h-8Z"/><path data-cppathid="10009" fill="#f7a800" d="M488.58,138.39h-9.41l-18.92-31.65-.19,0v31.62h-9.41V91.47h9.41L479,123.08l.19,0V91.47h9.41Z"/><path data-cppathid="10010" fill="#f7a800" d="M497.22,138.39V91.47h16.37A19.38,19.38,0,0,1,527.77,97a19,19,0,0,1,5.57,14.1v7.77a18.92,18.92,0,0,1-5.57,14.1,19.44,19.44,0,0,1-14.18,5.46Zm9.41-39.67v32.45h7a9.15,9.15,0,0,0,7.47-3.47,13.52,13.52,0,0,0,2.84-8.87V111a13.43,13.43,0,0,0-2.84-8.83,9.19,9.19,0,0,0-7.47-3.45Z"/><path data-cppathid="10011" fill="#f7a800" d="M564.67,128.27H549.46l-3.16,10.12h-9.83l15.82-46.92h9.64l15.76,46.92h-9.83Zm-12.89-7.38h10.6l-5.19-16.53H557Z"/><path data-cppathid="10012" fill="#f7a800" d="M591.61,119.63v18.76H582.2V91.47h16.24q8,0,12.55,3.65t4.53,10.2a10.28,10.28,0,0,1-1.92,6.24A13.42,13.42,0,0,1,608,115.8a10.07,10.07,0,0,1,6,4.09,13,13,0,0,1,1.82,7.09v3.45a17.3,17.3,0,0,0,.53,4.11,5.67,5.67,0,0,0,1.82,3.17v.68h-9.7A5.24,5.24,0,0,1,606.8,135a30.87,30.87,0,0,1-.37-4.61V127a7.49,7.49,0,0,0-1.91-5.46,7.29,7.29,0,0,0-5.44-2Zm0-7.25h6.67q4,0,5.9-1.67a6.23,6.23,0,0,0,1.93-5,6.82,6.82,0,0,0-2-5.12,7.87,7.87,0,0,0-5.72-1.9h-6.83Z"/><path data-cppathid="10013" fill="#f7a800" d="M651.07,117.76H633.66v13.41h20.69v7.22h-30.1V91.47h30v7.25H633.66v11.79h17.41Z"/><path data-cppathid="10014" fill="#f7a800" d="M685.42,126.14a5.52,5.52,0,0,0-1.88-4.35,19,19,0,0,0-6.63-3.09q-8.11-2.46-12.32-5.77a10.9,10.9,0,0,1-4.21-9.06,11.38,11.38,0,0,1,4.74-9.42q4.74-3.66,12.08-3.66,7.8,0,12.55,3.93a12.32,12.32,0,0,1,4.6,10.31l-.07.2h-9.12a6.87,6.87,0,0,0-2.12-5.4,8.69,8.69,0,0,0-6-1.89,7.86,7.86,0,0,0-5.38,1.68,5.46,5.46,0,0,0-1.9,4.29,4.68,4.68,0,0,0,2.06,3.91,27.76,27.76,0,0,0,7.12,3.24q7.74,2.19,11.8,5.72a11.7,11.7,0,0,1,4.06,9.3,11.17,11.17,0,0,1-4.71,9.5q-4.7,3.48-12.43,3.48a22.2,22.2,0,0,1-13-3.77q-5.43-3.76-5.27-11.24l.07-.2h9.12c0,2.78.81,4.82,2.45,6.13a10.3,10.3,0,0,0,6.64,2,9,9,0,0,0,5.75-1.58A5.12,5.12,0,0,0,685.42,126.14Z"/><path data-cppathid="10015" fill="#f7a800" d="M718.19,138.39V91.47h16.38A19.38,19.38,0,0,1,748.75,97a19,19,0,0,1,5.57,14.1v7.77a18.92,18.92,0,0,1-5.57,14.1,19.44,19.44,0,0,1-14.18,5.46Zm9.41-39.67v32.45h7A9.15,9.15,0,0,0,742,127.7a13.52,13.52,0,0,0,2.84-8.87V111a13.43,13.43,0,0,0-2.84-8.83,9.19,9.19,0,0,0-7.47-3.45Z"/><path data-cppathid="10016" fill="#f7a800" d="M788.67,117.76h-17.4v13.41H792v7.22h-30.1V91.47h30v7.25H771.27v11.79h17.4Z"/><path data-cppathid="10017" fill="#f7a800" d="M850.19,122.85l.07.2c.08,5-1.44,8.93-4.58,11.76s-7.46,4.25-13,4.25-10.18-1.8-13.64-5.43-5.18-8.29-5.18-14v-9.31q0-8.58,5-14a17.27,17.27,0,0,1,13.28-5.46q8.58,0,13.41,4.19t4.7,11.79l-.06.2h-9.15q0-4.52-2.18-6.72T832.21,98a7.58,7.58,0,0,0-6.59,3.4,15,15,0,0,0-2.37,8.78v9.38a14.63,14.63,0,0,0,2.5,8.83,8.12,8.12,0,0,0,7,3.42q4.21,0,6.3-2.21t2.07-6.79Z"/><path data-cppathid="10018" fill="#f7a800" d="M881.45,128.27H866.24l-3.16,10.12h-9.82l15.82-46.92h9.63l15.76,46.92h-9.83Zm-12.89-7.38h10.61L874,104.36h-.2Z"/><path data-cppathid="10019" fill="#f7a800" d="M908.4,131.17h21v7.22H899V91.47h9.41Z"/><path data-cppathid="10020" fill="#f7a800" d="M945.71,138.39H936.3V91.47h9.41Z"/><path data-cppathid="10021" fill="#f7a800" d="M955,138.39V91.47H971.4A19.38,19.38,0,0,1,985.58,97a19,19,0,0,1,5.57,14.1v7.77a18.92,18.92,0,0,1-5.57,14.1,19.44,19.44,0,0,1-14.18,5.46Zm9.41-39.67v32.45h7a9.19,9.19,0,0,0,7.48-3.47,13.52,13.52,0,0,0,2.83-8.87V111a13.42,13.42,0,0,0-2.83-8.83,9.23,9.23,0,0,0-7.48-3.45Z"/><path data-cppathid="10022" fill="#f7a800" d="M1022.48,128.27h-15.21l-3.16,10.12h-9.83l15.82-46.92h9.64l15.76,46.92h-9.83Zm-12.89-7.38h10.6L1015,104.36h-.19Z"/><path data-cppathid="10023" fill="#f7a800" d="M1040,138.39V91.47h16.37A19.37,19.37,0,0,1,1070.56,97a18.92,18.92,0,0,1,5.57,14.1v7.77q0,8.63-5.57,14.1a19.43,19.43,0,0,1-14.18,5.46Zm9.41-39.67v32.45h7a9.17,9.17,0,0,0,7.48-3.47,13.52,13.52,0,0,0,2.83-8.87V111a13.42,13.42,0,0,0-2.83-8.83,9.21,9.21,0,0,0-7.48-3.45Z"/></g><polygon data-cppathid="10024" fill="#00ffd3" points="69.9 112.4 69.9 89.3 89.9 100.9 109.9 112.4 89.9 124 69.9 135.6 69.9 112.4"/><path data-cppathid="10025" stroke-width="3" stroke-miterlimit="10" stroke="#fff" fill="#333e48" d="M226.3,170.9H151.8a8.92,8.92,0,0,1-8.9-8.9V60a8.92,8.92,0,0,1,8.9-8.9h74.5a8.92,8.92,0,0,1,8.9,8.9V162.1A8.9,8.9,0,0,1,226.3,170.9Z"/><g style="isolation:isolate"><path data-cppathid="10026" fill="#fff" d="M162.56,93h-5.22V71.44h-5.4v-4l10.62-.93Z"/><path data-cppathid="10027" fill="#fff" d="M188.74,83.56a10.28,10.28,0,0,1-2.41,7.21,9.18,9.18,0,0,1-12.84,0,10.2,10.2,0,0,1-2.43-7.21v-7.2a10.27,10.27,0,0,1,2.42-7.21,9.11,9.11,0,0,1,12.83,0,10.23,10.23,0,0,1,2.43,7.21Zm-5.22-7.74a6.76,6.76,0,0,0-1-3.89,3.07,3.07,0,0,0-2.67-1.38,3,3,0,0,0-2.66,1.38,6.84,6.84,0,0,0-.94,3.89v8.24a6.85,6.85,0,0,0,1,3.94,3.09,3.09,0,0,0,2.69,1.37A3.05,3.05,0,0,0,182.58,88a7,7,0,0,0,.94-3.94Z"/><path data-cppathid="10028" fill="#fff" d="M209.82,83.56a10.23,10.23,0,0,1-2.41,7.21,9.18,9.18,0,0,1-12.84,0,10.24,10.24,0,0,1-2.42-7.21v-7.2a10.27,10.27,0,0,1,2.41-7.21,9.11,9.11,0,0,1,12.83,0,10.23,10.23,0,0,1,2.43,7.21Zm-5.22-7.74a6.76,6.76,0,0,0-1-3.89,3.26,3.26,0,0,0-5.33,0,6.84,6.84,0,0,0-.94,3.89v8.24a6.93,6.93,0,0,0,.95,3.94A3.1,3.1,0,0,0,201,89.37,3,3,0,0,0,203.66,88a6.93,6.93,0,0,0,.94-3.94Z"/><path data-cppathid="10029" fill="#fff" d="M225.81,93h-5.22V71.44h-5.4v-4l10.62-.93Z"/></g><g style="isolation:isolate"><path data-cppathid="10030" fill="#fff" d="M167.66,116a10.25,10.25,0,0,1-2.42,7.22,8.31,8.31,0,0,1-6.4,2.62,8.39,8.39,0,0,1-6.44-2.62A10.25,10.25,0,0,1,150,116v-7.19a10.34,10.34,0,0,1,2.41-7.22,9.14,9.14,0,0,1,12.83,0,10.26,10.26,0,0,1,2.44,7.22Zm-5.23-7.73a6.79,6.79,0,0,0-1-3.9,3.26,3.26,0,0,0-5.33,0,7,7,0,0,0-.94,3.9v8.23a6.88,6.88,0,0,0,1,3.94,3.08,3.08,0,0,0,2.69,1.38,3,3,0,0,0,2.65-1.38,6.89,6.89,0,0,0,.94-3.94Z"/><path data-cppathid="10031" fill="#fff" d="M183.64,125.49h-5.22V103.92H173v-4L183.64,99Z"/><path data-cppathid="10032" fill="#fff" d="M209.82,116a10.24,10.24,0,0,1-2.41,7.22,9.18,9.18,0,0,1-12.84,0,10.25,10.25,0,0,1-2.42-7.22v-7.19a10.29,10.29,0,0,1,2.41-7.22,9.14,9.14,0,0,1,12.83,0,10.26,10.26,0,0,1,2.43,7.22Zm-5.22-7.73a6.79,6.79,0,0,0-1-3.9,3.26,3.26,0,0,0-5.33,0,6.88,6.88,0,0,0-.94,3.9v8.23a6.88,6.88,0,0,0,.95,3.94,3.08,3.08,0,0,0,2.69,1.38,3,3,0,0,0,2.65-1.38,6.89,6.89,0,0,0,.94-3.94Z"/><path data-cppathid="10033" fill="#fff" d="M225.81,125.49h-5.22V103.92h-5.4v-4L225.81,99Z"/></g><g style="isolation:isolate"><path data-cppathid="10034" fill="#fff" d="M162.56,158h-5.22V136.4h-5.4v-4l10.62-.93Z"/><path data-cppathid="10035" fill="#fff" d="M188.74,148.51a10.26,10.26,0,0,1-2.41,7.21,9.18,9.18,0,0,1-12.84,0,10.18,10.18,0,0,1-2.43-7.21v-7.2a10.27,10.27,0,0,1,2.42-7.21,9.11,9.11,0,0,1,12.83,0,10.23,10.23,0,0,1,2.43,7.21Zm-5.22-7.74a6.76,6.76,0,0,0-1-3.89,3.07,3.07,0,0,0-2.67-1.38,3,3,0,0,0-2.66,1.38,6.84,6.84,0,0,0-.94,3.89V149a6.85,6.85,0,0,0,1,3.94,3.09,3.09,0,0,0,2.69,1.37,3.05,3.05,0,0,0,2.65-1.37,7,7,0,0,0,.94-3.94Z"/><path data-cppathid="10036" fill="#fff" d="M204.73,158H199.5V136.4h-5.4v-4l10.63-.93Z"/><path data-cppathid="10037" fill="#fff" d="M225.81,158h-5.22V136.4h-5.4v-4l10.62-.93Z"/></g><polygon data-cppathid="10038" stroke-width="3" stroke-linejoin="round" stroke-linecap="round" stroke="#fff" fill="#333e48" points="263.9 163.9 251.3 158.8 245.8 171.3 232.8 138.4 240.8 139 244.2 134.9 250.9 130.7 263.9 163.9"/><polygon data-cppathid="10039" stroke-width="3" stroke-linejoin="round" stroke-linecap="round" stroke="#fff" fill="#333e48" points="194.6 166.2 206.9 160.3 213.3 172.4 225.4 137.5 217.3 141.1 206.4 131.6 194.6 166.2"/><path data-cppathid="10040" fill="#333e48" d="M229.9,59.6h0a7.15,7.15,0,0,1,11.4,2.7h0a7.16,7.16,0,0,0,8.1,4.3h0a7.18,7.18,0,0,1,8.6,8h0a7.2,7.2,0,0,0,4.9,7.8h0a7.14,7.14,0,0,1,3.4,11.2h0a7.24,7.24,0,0,0,.3,9.2h0a7.15,7.15,0,0,1-2.7,11.4h0a7.16,7.16,0,0,0-4.3,8.1h0a7.18,7.18,0,0,1-8,8.6h0a7.2,7.2,0,0,0-7.8,4.9h0a7.14,7.14,0,0,1-11.2,3.4h0a7.24,7.24,0,0,0-9.2.3h0a7.15,7.15,0,0,1-11.4-2.7h0a7.16,7.16,0,0,0-8.1-4.3h0a7.18,7.18,0,0,1-8.6-8h0a7.2,7.2,0,0,0-4.9-7.8h0a7.14,7.14,0,0,1-3.4-11.2h0a7.24,7.24,0,0,0-.3-9.2h0a7.15,7.15,0,0,1,2.7-11.4h0a7.16,7.16,0,0,0,4.3-8.1h0a7.18,7.18,0,0,1,8-8.6h0a7.2,7.2,0,0,0,7.8-4.9h0a7.14,7.14,0,0,1,11.2-3.4h0A7.12,7.12,0,0,0,229.9,59.6Z"/><path data-cppathid="10041" fill="#fff" d="M230.9,60.7a5.71,5.71,0,0,1,8.7,1.6c1,1.9,1.8,3.5,3.7,4.7a8.71,8.71,0,0,0,5.9,1.2,6,6,0,0,1,5.2,1.1,5.6,5.6,0,0,1,2,5c-.3,4,1.5,8.1,5.6,9.5a7.11,7.11,0,0,1,2.4,1.3,5.13,5.13,0,0,1,1.5,2.3,5.78,5.78,0,0,1-1,5.5c.4-.2.9-.5,1.3-.7-1.2,0-1.9,1.5-2.3,2.5a7.89,7.89,0,0,0-.7,3.7,8.53,8.53,0,0,0,.8,3.5c.4.9,1.3,2.6,2.5,2.6-.4-.1-.7-.3-1.1-.4a5.86,5.86,0,0,1,1,5.7,5.33,5.33,0,0,1-1.6,2.3,13.34,13.34,0,0,1-2.8,1.6,8.47,8.47,0,0,0-4.1,5.8c-.4,2.3.6,4.5-.3,6.7a5.68,5.68,0,0,1-4.7,3.6c-1.1.1-2.2-.2-3.3-.1a7.71,7.71,0,0,0-3.6,1.2,9.56,9.56,0,0,0-2.6,2.3,20.59,20.59,0,0,0-1.7,3.3,5.65,5.65,0,0,1-4.8,3c-2.7.1-4.3-2.1-6.8-2.7a8.91,8.91,0,0,0-8.1,2c.4-.1.7-.3,1.1-.4-.9,0-1.6.9-2.3,1.3a5.34,5.34,0,0,1-2.5.5,5.64,5.64,0,0,1-4.5-2.2c-.6-.8-.8-1.7-1.3-2.5a8.81,8.81,0,0,0-2.2-2.5,8.47,8.47,0,0,0-5.9-1.8c-2.1.2-3.9.5-5.8-.9a6,6,0,0,1-2.3-4.8,10.48,10.48,0,0,0-.9-5.8c-.9-1.7-2.7-3.6-4.7-4l.3.3c-.1-.1-.2-.2-.3-.2a3.55,3.55,0,0,1-.9-.4,9.13,9.13,0,0,1-1.3-.8,5.33,5.33,0,0,1-1.6-2.3,6.06,6.06,0,0,1,.9-5.8c-.4.2-.9.5-1.3.7,1.2,0,1.9-1.5,2.3-2.5a7.89,7.89,0,0,0,.7-3.7,8.53,8.53,0,0,0-.8-3.5c-.4-.9-1.3-2.6-2.5-2.6.4.1.7.3,1.1.4a5.58,5.58,0,0,1-1-5.8,7,7,0,0,1,1.7-2.4c.4-.3.9-.5,1.3-.8,0,0-1,.4-.1,0a6.12,6.12,0,0,0,1.2-.5,8.7,8.7,0,0,0,4.3-5.9c.5-2.3-.6-4.4.3-6.7a5.66,5.66,0,0,1,4.9-3.6c1.2-.1,2.3.2,3.5,0a9.17,9.17,0,0,0,3.6-1.3,9.52,9.52,0,0,0,2.5-2.4c.7-1,1-2.3,1.6-3.3a5.61,5.61,0,0,1,5-2.7,6.82,6.82,0,0,1,3.3,1.1c.3.2.6.2.8.4.4,0,.3.1-.3,0,.2.1.4.3.6.4a11.92,11.92,0,0,0,2,.8,9.19,9.19,0,0,0,8.4-1.9c1.5-1.2-.7-3.4-2.1-2.1a6.36,6.36,0,0,1-3.5,1.4,6.45,6.45,0,0,1-2-.3,17.38,17.38,0,0,1-1.9-1c-.1-.1-.2-.1-.4-.2-.6-.1-.5-.1.1,0a2.51,2.51,0,0,0-.7-.4,11.11,11.11,0,0,0-1.6-.7,7.69,7.69,0,0,0-3.7-.3,8.55,8.55,0,0,0-5.8,3.4,13.69,13.69,0,0,0-1.6,3.2,5.65,5.65,0,0,1-2.8,2.7,7.31,7.31,0,0,1-3.6.4,9.08,9.08,0,0,0-4,.6,8.79,8.79,0,0,0-4.9,5.1,9.23,9.23,0,0,0-.5,3.7,9.22,9.22,0,0,1,0,3.7,5,5,0,0,1-2,2.9,4.7,4.7,0,0,0-.9.6c-.5.4-.1.2.1.1a10.72,10.72,0,0,0-2.2,1A8.78,8.78,0,0,0,183.7,95c.4,1,1.3,3,2.7,3-.4-.1-.7-.3-1.1-.4a5.87,5.87,0,0,1,.1,7.4c.4-.2.9-.5,1.3-.7-2.1.1-2.9,3.9-3,5.5a8.63,8.63,0,0,0,1.9,5.8,9.3,9.3,0,0,0,2.3,2.1,10.09,10.09,0,0,0,1.5.7c-.1,0-.9-.4,0,0,.3.1.7.3,1,.4a5.87,5.87,0,0,1,3.2,5.8,9.2,9.2,0,0,0,1.3,6.1,8.81,8.81,0,0,0,5.3,3.7c2.4.5,4.8-.6,7.1.4a5.78,5.78,0,0,1,2.3,1.8c.8,1,1.1,2.2,1.8,3.2a8.74,8.74,0,0,0,12.8,1.3c-.4.1-.7.3-1.1.4.7,0,1.1-.5,1.6-.9a4.59,4.59,0,0,1,1.6-.7,5.56,5.56,0,0,1,4,.3c1.1.5,2,1.4,3.2,1.9a7.41,7.41,0,0,0,3.6.6,9.08,9.08,0,0,0,6.2-3.1c1.6-2,1.8-4.6,4.2-6s5-.2,7.5-1a8.63,8.63,0,0,0,5.3-5.1,7.41,7.41,0,0,0,.6-3.6,11.38,11.38,0,0,1-.2-3.7,6.09,6.09,0,0,1,1.8-3.1c1-.9,2.1-1.1,3-1.7a8.74,8.74,0,0,0,3.9-6.7,8.65,8.65,0,0,0-.6-3.9c-.4-1-1.3-3-2.7-3,.4.1.7.3,1.1.4a5.87,5.87,0,0,1-.1-7.4c-.4.2-.9.5-1.3.7,2-.1,2.9-3.8,3-5.4a8.4,8.4,0,0,0-1.9-5.9,10.48,10.48,0,0,0-2.2-2c-1-.6-2-.8-2.9-1.3a5.94,5.94,0,0,1-2.9-5.6,9.24,9.24,0,0,0-1.4-6.3,9,9,0,0,0-5.5-3.6c-2.3-.4-4.6.6-6.8-.3a5.67,5.67,0,0,1-2.5-2.1c-.6-.9-.9-2-1.6-2.9a8.74,8.74,0,0,0-12.8-1.3C227.3,59.8,229.4,61.9,230.9,60.7Z"/><circle data-cppathid="10042" stroke-width="3" stroke-miterlimit="10" stroke="#fff" fill="none" r="31.8" cy="99.6" cx="226.6"/><path data-cppathid="10043" fill="#fff" d="M244,94.1l-21.9,20a4,4,0,0,1-3.1,1,4.3,4.3,0,0,1-2.3-1l-7-6.4a4,4,0,0,1,5.4-6l4.3,3.9,19.2-17.5a4,4,0,0,1,5.7.3A4.08,4.08,0,0,1,244,94.1Z"/><g style="isolation:isolate"><path data-cppathid="10044" fill="#fff" d="M196.79,419.34v32H194V376.73h23.33q11.6,0,17.84,5.82T241.45,398q0,9.74-6.23,15.53t-17.87,5.8Zm0-2.77h20.56q10.62,0,16-5.28a17.77,17.77,0,0,0,5.36-13.18,18,18,0,0,0-5.33-13.36q-5.34-5.25-16-5.25H196.79Z"/><path data-cppathid="10045" fill="#fff" d="M274.42,452.46a21.29,21.29,0,0,1-16.54-7.59q-6.74-7.59-6.74-19.13v-3.28q0-12,6.69-19.81a21.28,21.28,0,0,1,16.84-7.77q9.22,0,14.72,6.08t5.48,16.58v4.26h-41v3.94q0,10.15,5.74,17.05a18.34,18.34,0,0,0,14.77,6.9,25.42,25.42,0,0,0,9.56-1.85,20.5,20.5,0,0,0,7.46-4.92l1.48,2.15a22.17,22.17,0,0,1-7.53,5.31A26.67,26.67,0,0,1,274.42,452.46Zm.25-54.81a18.35,18.35,0,0,0-14.12,6,24.34,24.34,0,0,0-6.23,15.1l.15.31H292.1v-1.69q0-8.56-4.66-14.13T274.67,397.65Z"/><path data-cppathid="10046" fill="#fff" d="M332.71,397.9l-3.59-.3a16.05,16.05,0,0,0-12.07,4.79A23.49,23.49,0,0,0,311,415v36.35h-2.77V395.91h2.26l.51,9.63v1.9a20,20,0,0,1,6.87-9.25,18.6,18.6,0,0,1,11.23-3.31,12.33,12.33,0,0,1,2.18.18c.67.12,1.24.25,1.72.38Z"/><path data-cppathid="10047" fill="#fff" d="M345.32,395.91l.36,11.17a20.87,20.87,0,0,1,7.23-9,19.65,19.65,0,0,1,11.38-3.2q7.08,0,11.54,3.56t6.2,11.05a22.19,22.19,0,0,1,7.26-10.79,19.37,19.37,0,0,1,12.33-3.87q9.17,0,13.94,6t4.77,18.86v31.64h-2.82V419.59q0-12-4.31-17a14.44,14.44,0,0,0-11.48-5q-8.57,0-13.05,5a25,25,0,0,0-5.77,13c0,.69.07,1.38.1,2.08s.06,1.41.06,2.13v31.53h-2.82V423h-.16q0-1,0-2c0-.65.06-1.28.13-1.9q-.17-11.79-4.41-16.64a14.46,14.46,0,0,0-11.44-4.84q-8.46,0-12.89,4.89a24.63,24.63,0,0,0-5.77,12.69v36.15h-2.82V423h-.1c0-.48,0-1,0-1.44s.05-1.08.08-1.79V395.91Z"/><path data-cppathid="10048" fill="#fff" d="M440.94,378.47h-2.77V371.4h2.77Zm0,72.91h-2.77V395.91h2.77Z"/><path data-cppathid="10049" fill="#fff" d="M464.88,380.93v15h13.64v2.81H464.88v38.35q0,6.82,2.31,9.72a7.42,7.42,0,0,0,6.1,2.9c.92,0,1.74,0,2.46-.11s1.71-.18,3-.35l.52,2.51a13.92,13.92,0,0,1-2.67.56,29,29,0,0,1-3.13.16q-5.58,0-8.48-3.64t-2.9-11.75V398.72H451.81v-2.81h10.25v-15Z"/><path data-cppathid="10050" fill="#fff" d="M511,452.46a21.27,21.27,0,0,1-16.53-7.59q-6.74-7.59-6.74-19.13v-3.28q0-12,6.69-19.81a21.28,21.28,0,0,1,16.84-7.77q9.22,0,14.72,6.08t5.48,16.58v4.26h-41v3.94q0,10.15,5.74,17.05a18.34,18.34,0,0,0,14.76,6.9,25.43,25.43,0,0,0,9.57-1.85,20.58,20.58,0,0,0,7.46-4.92l1.48,2.15a22.27,22.27,0,0,1-7.53,5.31A26.69,26.69,0,0,1,511,452.46Zm.26-54.81a18.35,18.35,0,0,0-14.12,6,24.28,24.28,0,0,0-6.23,15.1l.15.31h37.63v-1.69q0-8.56-4.66-14.13T511.28,397.65Z"/></g><g style="isolation:isolate"><path data-cppathid="10051" fill="#fff" d="M572.49,451.38V405.13H564v-9.22h8.46v-6.46q0-9.18,5-14.16t14-5a25.35,25.35,0,0,1,3.65.28c1.23.19,2.61.46,4.15.8L598,381c-.69-.14-1.45-.26-2.29-.36a22.5,22.5,0,0,0-2.69-.16q-4,0-6.07,2.31c-1.35,1.54-2,3.74-2,6.62v6.46h10.31v9.22H585v46.25Z"/><path data-cppathid="10052" fill="#fff" d="M601.67,423.13q0-12.4,6.79-20.33T627,394.88q12,0,18.74,7.92t6.8,20.33v1.08q0,12.51-6.8,20.38t-18.63,7.87q-11.89,0-18.69-7.9t-6.79-20.35Zm12.45,1.08q0,8.15,3.18,13.22t9.85,5.08a10.81,10.81,0,0,0,9.76-5.1q3.26-5.1,3.26-13.2v-1.08q0-8-3.26-13.1T627,404.88q-6.51,0-9.71,5.15t-3.21,13.1Z"/><path data-cppathid="10053" fill="#fff" d="M686.06,442.51a10.35,10.35,0,0,0,7.2-2.67,8.72,8.72,0,0,0,3-6.76h11.28l.1.3q.21,7.8-6.18,13.44a22.37,22.37,0,0,1-15.35,5.64q-12,0-18.51-7.93t-6.51-20v-1.79q0-12,6.51-19.94T686,394.88q9.69,0,15.74,5.82a19,19,0,0,1,5.85,14.79l-.1.31H696.21a11.25,11.25,0,0,0-2.82-7.74,9.4,9.4,0,0,0-7.39-3.18q-6.66,0-9.58,5.15a25.46,25.46,0,0,0-2.92,12.74v1.79q0,7.76,2.89,12.85T686.06,442.51Z"/><path data-cppathid="10054" fill="#fff" d="M751.48,451.38c-.45-1.4-.82-2.77-1.11-4.1a30.89,30.89,0,0,1-.59-4,21.3,21.3,0,0,1-6.71,6.54,17.3,17.3,0,0,1-9.38,2.64q-8.67,0-13.31-4.46t-4.64-12.26a14.47,14.47,0,0,1,6.36-12.53q6.36-4.48,17.89-4.49h9.69v-4.87a9.07,9.07,0,0,0-2.54-6.82q-2.53-2.46-7.35-2.46a10.52,10.52,0,0,0-6.77,2,6.45,6.45,0,0,0-2.51,5.26l-12,0,0-.31Q718.1,405,724.33,400t16.23-5.08q9.69,0,15.63,4.92T762.14,414v24.66a45.15,45.15,0,0,0,.46,6.59,34.78,34.78,0,0,0,1.49,6.18Zm-15.23-8.92a15.57,15.57,0,0,0,8.43-2.36,11.9,11.9,0,0,0,5-5.38v-8.21h-9.89c-3.63,0-6.46.9-8.51,2.7a8.14,8.14,0,0,0-3.08,6.33,6.45,6.45,0,0,0,2.08,5A8.65,8.65,0,0,0,736.25,442.46Z"/><path data-cppathid="10055" fill="#fff" d="M788.44,451.38H776v-80h12.46Z"/><path data-cppathid="10056" fill="#fff" d="M815.67,382.32H803.21V371.4h12.46Zm0,69.06H803.21V395.91h12.46Z"/><path data-cppathid="10057" fill="#fff" d="M842.84,441.43h29.63v9.95H827.41v-8.15l28-37.28H828v-10h43.17v7.89Z"/><path data-cppathid="10058" fill="#fff" d="M916.26,451.38c-.45-1.4-.82-2.77-1.11-4.1a30.89,30.89,0,0,1-.59-4,21.3,21.3,0,0,1-6.71,6.54,17.3,17.3,0,0,1-9.38,2.64q-8.67,0-13.31-4.46t-4.64-12.26a14.47,14.47,0,0,1,6.36-12.53q6.36-4.48,17.89-4.49h9.69v-4.87a9,9,0,0,0-2.54-6.82q-2.53-2.46-7.35-2.46a10.52,10.52,0,0,0-6.77,2,6.45,6.45,0,0,0-2.51,5.26l-12,0,0-.31q-.36-6.55,5.87-11.63t16.23-5.08q9.69,0,15.63,4.92T926.92,414v24.66a45.15,45.15,0,0,0,.46,6.59,34.78,34.78,0,0,0,1.49,6.18ZM901,442.46a15.57,15.57,0,0,0,8.43-2.36,11.9,11.9,0,0,0,5-5.38v-8.21h-9.89c-3.63,0-6.46.9-8.51,2.7a8.14,8.14,0,0,0-3.08,6.33,6.45,6.45,0,0,0,2.08,5A8.65,8.65,0,0,0,901,442.46Z"/><path data-cppathid="10059" fill="#fff" d="M967.58,407.13l-5.33-.2a11.13,11.13,0,0,0-6.08,1.54,10.17,10.17,0,0,0-3.77,4.35v38.56H939.94V395.91h11.38l.82,8a17.94,17.94,0,0,1,5.41-6.67,12.6,12.6,0,0,1,7.62-2.41,11.57,11.57,0,0,1,2.1.18,13.4,13.4,0,0,1,1.79.44Z"/></g><g style="isolation:isolate"><path data-cppathid="10060" fill="#f7a800" d="M249.56,536.38h-38v29.25h45.14v15.75H191.06V479h65.53v15.82h-45v25.74h38Z"/><path data-cppathid="10061" fill="#f7a800" d="M324.52,554.66a12,12,0,0,0-4.12-9.49q-4.11-3.58-14.45-6.75-17.71-5.34-26.89-12.59t-9.18-19.76q0-12.58,10.34-20.56t26.37-8q17,0,27.38,8.58t10,22.5l-.14.42H324q0-7.66-4.64-11.78t-13-4.11q-7.59,0-11.74,3.65a11.94,11.94,0,0,0-4.15,9.35,10.23,10.23,0,0,0,4.5,8.55q4.5,3.33,15.54,7.06,16.88,4.79,25.74,12.48t8.86,20.29q0,13.15-10.27,20.74t-27.14,7.6q-16.53,0-28.37-8.23t-11.5-24.54l.14-.42h19.9q0,9.06,5.35,13.36t14.48,4.29q8.22,0,12.55-3.45A11.18,11.18,0,0,0,324.52,554.66Z"/><path data-cppathid="10062" fill="#f7a800" d="M420,538.84H380.7v42.54H360.16V479h67v15.82H380.7V523H420Z"/><path data-cppathid="10063" fill="#f7a800" d="M521.39,479v67q0,17.29-11.46,27.07t-29.74,9.78q-18.21,0-29.57-9.78T439.27,546V479h20.6v67q0,10.28,5.48,15.68t14.84,5.42q9.49,0,15-5.42T500.79,546V479Z"/><path data-cppathid="10064" fill="#f7a800" d="M597.68,536.38h-38v29.25h45.14v15.75H539.18V479h65.53v15.82h-45v25.74h38Z"/><path data-cppathid="10065" fill="#f7a800" d="M639.8,540.46v40.92H619.27V479H654.7q17.52,0,27.39,8T692,509.24a22.49,22.49,0,0,1-4.18,13.6,29.07,29.07,0,0,1-12.2,9.25q9.06,2.67,13,8.93t4,15.47V564a37.44,37.44,0,0,0,1.16,9,12.4,12.4,0,0,0,4,6.92v1.48H676.57q-2.8-2.25-3.62-7.45a65.39,65.39,0,0,1-.81-10.06v-7.24q0-7.67-4.18-11.92t-11.85-4.25Zm0-15.82h14.55q8.65,0,12.87-3.66t4.22-10.83q0-7-4.26-11.18t-12.48-4.15H639.8Z"/><path data-cppathid="10066" fill="#f7a800" d="M731.2,565.63h47v15.75H707V570.69l45.56-75.87H707.09V479H777v10.27Z"/><path data-cppathid="10067" fill="#f7a800" d="M873.8,539.4q0,18.92-11.89,31.19T831,582.86q-19,0-30.8-12.31T788.37,539.4V521q0-18.78,11.77-31.11t30.7-12.34q19,0,31,12.34t12,31.11Zm-20.46-18.56q0-12-6-19.62t-16.52-7.66q-10.41,0-16.21,7.66t-5.8,19.62V539.4q0,12.17,5.83,19.83T831,566.89q10.54,0,16.45-7.66t5.91-19.83Z"/><path data-cppathid="10068" fill="#f7a800" d="M943.41,554.66a12,12,0,0,0-4.12-9.49q-4.11-3.58-14.45-6.75-17.72-5.34-26.89-12.59t-9.18-19.76q0-12.58,10.34-20.56t26.37-8q17,0,27.38,8.58t10,22.5l-.14.42h-19.9q0-7.66-4.64-11.78t-13-4.11q-7.61,0-11.75,3.65a11.94,11.94,0,0,0-4.15,9.35,10.23,10.23,0,0,0,4.5,8.55q4.5,3.33,15.54,7.06,16.88,4.79,25.74,12.48t8.86,20.29q0,13.15-10.27,20.74t-27.14,7.6q-16.51,0-28.37-8.23t-11.5-24.54l.14-.42h19.9q0,9.06,5.35,13.36t14.48,4.29q8.24,0,12.55-3.45A11.18,11.18,0,0,0,943.41,554.66Z"/></g><g style="isolation:isolate"><path data-cppathid="10069" fill="#0099a8" d="M224.46,654.4h.39l20.65-43.58h20.79l-32.41,61.31v33.25h-19V671.15L183,610.82h20.78Z"/><path data-cppathid="10070" fill="#0099a8" d="M327.78,667.58v37.8h-19V610.82h32.73q16.17,0,25.3,7.38T376,638.75a20.78,20.78,0,0,1-3.86,12.57,27,27,0,0,1-11.27,8.54q8.37,2.46,12.05,8.24t3.67,14.29v7a34.1,34.1,0,0,0,1.07,8.28,11.34,11.34,0,0,0,3.67,6.4v1.36H361.75q-2.6-2.08-3.35-6.88a61.53,61.53,0,0,1-.74-9.29v-6.69q0-7.08-3.87-11t-10.94-3.93Zm0-14.61h13.45q8,0,11.88-3.38t3.9-10q0-6.5-3.93-10.32t-11.53-3.83H327.78Z"/><path data-cppathid="10071" fill="#0099a8" d="M447.6,663.82H412.53v27h41.7v14.55H393.57V610.82H454.1v14.62H412.53v23.77H447.6Z"/><path data-cppathid="10072" fill="#0099a8" d="M538.45,674.08l.13.39q.27,15.12-9.22,23.7t-26.17,8.57q-17,0-27.47-10.94t-10.45-28.28V648.75q0-17.28,10.19-28.28t26.76-11q17.26,0,27,8.44t9.48,23.77l-.13.39H520.14q0-9.09-4.38-13.54t-13.54-4.45a15.29,15.29,0,0,0-13.28,6.85q-4.79,6.86-4.78,17.7v18.9q0,10.9,5,17.79a16.35,16.35,0,0,0,14,6.89q8.51,0,12.7-4.45t4.19-13.67Z"/><path data-cppathid="10073" fill="#0099a8" d="M627.1,610.82v61.89q0,16-10.59,25t-27.47,9q-16.81,0-27.3-9t-10.49-25V610.82h19v61.89q0,9.49,5.06,14.49t13.7,5q8.78,0,13.9-5t5.13-14.49V610.82Z"/><path data-cppathid="10074" fill="#0099a8" d="M662.49,667.58v37.8h-19V610.82h32.73q16.17,0,25.29,7.38t9.13,20.55a20.72,20.72,0,0,1-3.87,12.57,27,27,0,0,1-11.26,8.54q8.37,2.46,12,8.24t3.67,14.29v7a34.6,34.6,0,0,0,1.07,8.28A11.45,11.45,0,0,0,716,704v1.36H696.46c-1.74-1.39-2.85-3.68-3.35-6.88a60.26,60.26,0,0,1-.74-9.29v-6.69q0-7.08-3.87-11t-10.94-3.93Zm0-14.61h13.45q8,0,11.88-3.38t3.9-10q0-6.5-3.93-10.32t-11.53-3.83H662.49Z"/><path data-cppathid="10075" fill="#0099a8" d="M777.57,680.7a11.07,11.07,0,0,0-3.8-8.77q-3.79-3.3-13.35-6.23-16.36-4.94-24.84-11.62t-8.47-18.25q0-11.62,9.55-19T761,609.46q15.72,0,25.29,7.92t9.26,20.78l-.13.39H777.05q0-7.06-4.29-10.87t-12-3.8q-7,0-10.85,3.37a11,11,0,0,0-3.83,8.64,9.42,9.42,0,0,0,4.16,7.89q4.15,3.09,14.35,6.53,15.58,4.41,23.77,11.53t8.18,18.73q0,12.15-9.48,19.16t-25.07,7q-15.26,0-26.2-7.6t-10.62-22.66l.13-.39h18.38q0,8.38,4.93,12.34t13.38,4q7.6,0,11.6-3.18A10.33,10.33,0,0,0,777.57,680.7Z"/><path data-cppathid="10076" fill="#0099a8" d="M887,666.61q0,17.48-11,28.8t-28.57,11.33q-17.54,0-28.45-11.36t-10.91-28.77v-17q0-17.33,10.88-28.73t28.35-11.4q17.59,0,28.64,11.4t11,28.73Zm-18.9-17.15q0-11-5.52-18.11t-15.26-7.08q-9.62,0-15,7.08T827,649.46v17.15q0,11.24,5.39,18.31T847.45,692q9.74,0,15.19-7.08t5.46-18.31Z"/><path data-cppathid="10077" fill="#0099a8" d="M951.29,680.7a11.07,11.07,0,0,0-3.8-8.77q-3.79-3.3-13.35-6.23-16.36-4.94-24.84-11.62t-8.47-18.25q0-11.62,9.54-19t24.36-7.37q15.71,0,25.29,7.92t9.26,20.78l-.13.39H950.77q0-7.06-4.29-10.87t-12-3.8q-7,0-10.85,3.37a11,11,0,0,0-3.83,8.64,9.42,9.42,0,0,0,4.16,7.89q4.15,3.09,14.35,6.53,15.59,4.41,23.77,11.53t8.18,18.73q0,12.15-9.48,19.16t-25.07,7q-15.26,0-26.2-7.6t-10.62-22.66l.13-.39h18.38q0,8.38,4.93,12.34t13.38,4q7.6,0,11.59-3.18A10.31,10.31,0,0,0,951.29,680.7Z"/></g><g style="isolation:isolate"><path data-cppathid="10078" fill="#fff" d="M222,775.88a17.86,17.86,0,0,1-7.09,6.78,23.32,23.32,0,0,1-11.43,2.61q-6.42,0-10.07-3.5a12.52,12.52,0,0,1-3.65-9.46q0-5.77,5.46-9.68t13.66-3.91H222V752q0-5.73-3.67-8.94T208,739.86q-6.24,0-10,3a9.47,9.47,0,0,0-3.81,7.77l-1.91-.09-.08-.21a10.73,10.73,0,0,1,4.16-9.07q4.43-3.72,11.68-3.71t11.85,3.73q4.47,3.75,4.47,10.79v23a40.29,40.29,0,0,0,.27,4.71,31.06,31.06,0,0,0,.91,4.55H223q-.56-3-.75-4.53a27.18,27.18,0,0,1-.19-3.24ZM203.5,783a21.15,21.15,0,0,0,11.58-3,17.5,17.5,0,0,0,6.94-8.62V761.06H209a21.14,21.14,0,0,0-12,3.29c-3.27,2.19-4.91,4.91-4.91,8.13a10,10,0,0,0,3.12,7.59A11.6,11.6,0,0,0,203.5,783Z"/><path data-cppathid="10079" fill="#fff" d="M241.05,738.42l.3,9.26a17,17,0,0,1,6.12-7.46,17.32,17.32,0,0,1,9.81-2.65q7.52,0,11.28,4.73t3.76,15v27.06H270V757.23q0-9.56-3.42-13.46a11.68,11.68,0,0,0-9.28-3.91q-7.22,0-11,4.2a20.55,20.55,0,0,0-4.89,10.84v29.48H239.1V760.84H239c0-.53,0-1.08,0-1.63s0-1.11.11-1.68V738.42Z"/><path data-cppathid="10080" fill="#fff" d="M291.48,726v12.41h11.3v2.33h-11.3v31.78c0,3.76.63,6.45,1.91,8.05a6.14,6.14,0,0,0,5.05,2.4,20.4,20.4,0,0,0,2-.09c.6,0,1.42-.15,2.47-.3l.42,2.09a11.4,11.4,0,0,1-2.21.46,22.38,22.38,0,0,1-2.59.13c-3.09,0-5.43-1-7-3s-2.4-5.25-2.4-9.72V740.75h-8.5v-2.33h8.5V726Z"/><path data-cppathid="10081" fill="#fff" d="M329.71,785.27A17.6,17.6,0,0,1,316,779q-5.58-6.29-5.59-15.84v-2.72q0-10,5.55-16.42a17.62,17.62,0,0,1,13.95-6.43q7.65,0,12.19,5t4.55,13.74v3.53H312.72v3.27a21.26,21.26,0,0,0,4.76,14.12A15.18,15.18,0,0,0,329.71,783a21,21,0,0,0,7.92-1.53,16.85,16.85,0,0,0,6.18-4.08l1.23,1.78a18.42,18.42,0,0,1-6.24,4.4A22,22,0,0,1,329.71,785.27Zm.21-45.41a15.19,15.19,0,0,0-11.7,4.95,20.11,20.11,0,0,0-5.16,12.51l.12.25h31.19v-1.4a17.56,17.56,0,0,0-3.87-11.7A13.08,13.08,0,0,0,329.92,739.86Z"/><path data-cppathid="10082" fill="#fff" d="M376.44,761.35q0-10.9,4.59-17.35a14.75,14.75,0,0,1,12.74-6.43,17.45,17.45,0,0,1,9.28,2.4,17.65,17.65,0,0,1,6.27,6.56V718.11h2.29v34.58a0,0,0,0,0,0,0v18.73a.58.58,0,0,0,0,.13v12.79H409.4l-.08-7.09a16.4,16.4,0,0,1-6.29,5.84,19.45,19.45,0,0,1-9.34,2.14,14.89,14.89,0,0,1-12.69-6.2q-4.56-6.21-4.56-16.82Zm2.38.9q0,9.51,3.76,15.12T393.64,783a17.2,17.2,0,0,0,9.94-2.7,15.37,15.37,0,0,0,5.74-7.2V751.33a19.27,19.27,0,0,0-5.38-8.18q-3.68-3.28-10.21-3.29a12.36,12.36,0,0,0-11.11,6q-3.81,6-3.8,15.52Z"/><path data-cppathid="10083" fill="#fff" d="M442.28,785.27a17.61,17.61,0,0,1-13.7-6.29Q423,772.7,423,763.14v-2.72q0-10,5.54-16.42a17.65,17.65,0,0,1,14-6.43q7.63,0,12.19,5t4.54,13.74v3.53H425.29v3.27a21.31,21.31,0,0,0,4.76,14.12A15.2,15.2,0,0,0,442.28,783a21.07,21.07,0,0,0,7.93-1.53,17,17,0,0,0,6.18-4.08l1.23,1.78a18.57,18.57,0,0,1-6.25,4.4A22,22,0,0,1,442.28,785.27Zm.22-45.41a15.23,15.23,0,0,0-11.71,4.95,20.23,20.23,0,0,0-5.16,12.51l.13.25h31.18v-1.4a17.56,17.56,0,0,0-3.87-11.7A13.06,13.06,0,0,0,442.5,739.86Z"/><path data-cppathid="10084" fill="#fff" d="M498.48,773.12a9.07,9.07,0,0,0-3.12-6.65q-3.12-3-10.89-4.69-8.21-1.74-11.88-4.48t-3.67-8.14a10.21,10.21,0,0,1,4.16-8.26c2.78-2.22,6.51-3.33,11.22-3.33q7.6,0,12,3.56a10.9,10.9,0,0,1,4.16,9.31l-.09.25h-2a9.67,9.67,0,0,0-3.8-7.67q-3.81-3.15-10.3-3.16t-9.77,2.78a8.25,8.25,0,0,0-3.32,6.44,8,8,0,0,0,2.81,6.16q2.79,2.55,11.13,4.46,7.68,1.78,11.66,4.86a10.29,10.29,0,0,1,4,8.6,10.49,10.49,0,0,1-4.42,8.76q-4.42,3.35-11.72,3.35-8,0-12.6-3.59T467.77,773l.09-.25h1.87a9,9,0,0,0,4.67,7.86A20.7,20.7,0,0,0,484.64,783q6.36,0,10.11-3T498.48,773.12Z"/><path data-cppathid="10085" fill="#fff" d="M524.78,774.65l2.17,6.2h.25l2.21-6.2,14.15-36.23H546l-17.88,45.92,0,0H526l-17.84-46h2.46Z"/><path data-cppathid="10086" fill="#fff" d="M558,724h-2.29v-5.86H558Zm0,60.41h-2.29v-46H558Z"/><path data-cppathid="10087" fill="#fff" d="M601.92,775.88a17.86,17.86,0,0,1-7.09,6.78,23.27,23.27,0,0,1-11.43,2.61q-6.4,0-10.07-3.5a12.52,12.52,0,0,1-3.65-9.46q0-5.77,5.46-9.68t13.66-3.91h13.12V752q0-5.73-3.67-8.94t-10.34-3.21q-6.25,0-10,3a9.46,9.46,0,0,0-3.8,7.77l-1.91-.09-.09-.21a10.73,10.73,0,0,1,4.16-9.07q4.42-3.72,11.69-3.71t11.85,3.73q4.46,3.75,4.46,10.79v23a40.29,40.29,0,0,0,.27,4.71,29.83,29.83,0,0,0,.92,4.55h-2.55c-.37-2-.62-3.52-.74-4.53a25.15,25.15,0,0,1-.2-3.24ZM583.4,783A21.15,21.15,0,0,0,595,780a17.44,17.44,0,0,0,6.94-8.62V761.06h-13a21.18,21.18,0,0,0-12,3.29c-3.27,2.19-4.9,4.91-4.9,8.13a10,10,0,0,0,3.12,7.59A11.58,11.58,0,0,0,583.4,783Z"/><path data-cppathid="10088" fill="#fff" d="M634.59,783a17.19,17.19,0,0,0,10.28-3.19q4.47-3.18,4.46-9.56h2l.08.26a12.57,12.57,0,0,1-5,10.77,18.65,18.65,0,0,1-11.83,4q-8.79,0-13.78-6.33t-5-16.65V760.5q0-10.28,5-16.61t13.72-6.32a18.08,18.08,0,0,1,12.08,4.18q4.95,4.18,4.78,11.79l-.08.25h-2q0-6.75-4.33-10.34a15.93,15.93,0,0,0-10.49-3.59q-8.07,0-12.24,5.78t-4.16,14.86v1.79q0,9.18,4.16,14.93T634.59,783Z"/><path data-cppathid="10089" fill="#fff" d="M666,724h-2.3v-5.86H666Zm0,60.41h-2.3v-46H666Z"/><path data-cppathid="10090" fill="#fff" d="M677.46,760.5q0-10.11,5.58-16.52a19.67,19.67,0,0,1,29.06,0q5.58,6.42,5.58,16.52v1.79q0,10.15-5.58,16.57a19.65,19.65,0,0,1-29,0q-5.61-6.42-5.6-16.57Zm2.29,1.79A22.65,22.65,0,0,0,684.59,777a15.9,15.9,0,0,0,13,6,15.74,15.74,0,0,0,12.92-6,22.69,22.69,0,0,0,4.84-14.66V760.5A22.51,22.51,0,0,0,710.5,746a16.81,16.81,0,0,0-25.91,0,22.64,22.64,0,0,0-4.84,14.54Z"/><path data-cppathid="10091" fill="#fff" d="M730.64,738.42l.3,9.26a16.89,16.89,0,0,1,6.11-7.46,17.37,17.37,0,0,1,9.82-2.65q7.51,0,11.28,4.73t3.76,15v27.06h-2.3V757.23q0-9.56-3.42-13.46a11.68,11.68,0,0,0-9.28-3.91c-4.81,0-8.5,1.4-11,4.2A20.55,20.55,0,0,0,731,754.9v29.48h-2.29V760.84h-.13c0-.53,0-1.08,0-1.63s0-1.11.11-1.68V738.42Z"/><path data-cppathid="10092" fill="#fff" d="M792.41,785.27a17.6,17.6,0,0,1-13.7-6.29q-5.6-6.29-5.59-15.84v-2.72q0-10,5.54-16.42a17.65,17.65,0,0,1,14-6.43q7.65,0,12.19,5t4.55,13.74v3.53H775.42v3.27a21.3,21.3,0,0,0,4.75,14.12A15.2,15.2,0,0,0,792.41,783a21.06,21.06,0,0,0,7.92-1.53,17,17,0,0,0,6.18-4.08l1.23,1.78a18.42,18.42,0,0,1-6.24,4.4A22,22,0,0,1,792.41,785.27Zm.21-45.41a15.19,15.19,0,0,0-11.7,4.95,20.18,20.18,0,0,0-5.17,12.51l.13.25h31.18v-1.4a17.61,17.61,0,0,0-3.86-11.7A13.1,13.1,0,0,0,792.62,739.86Z"/><path data-cppathid="10093" fill="#fff" d="M848.61,773.12a9.07,9.07,0,0,0-3.12-6.65q-3.12-3-10.9-4.69-8.21-1.74-11.87-4.48T819,749.16a10.19,10.19,0,0,1,4.17-8.26q4.15-3.33,11.21-3.33,7.61,0,12,3.56a10.87,10.87,0,0,1,4.16,9.31l-.08.25h-2a9.64,9.64,0,0,0-3.8-7.67q-3.79-3.15-10.3-3.16t-9.77,2.78a8.23,8.23,0,0,0-3.31,6.44,8,8,0,0,0,2.8,6.16q2.8,2.55,11.13,4.46,7.69,1.78,11.66,4.86a10.27,10.27,0,0,1,4,8.6,10.49,10.49,0,0,1-4.42,8.76q-4.41,3.35-11.72,3.35-8,0-12.59-3.59T817.9,773l.08-.25h1.87a9,9,0,0,0,4.67,7.86A20.7,20.7,0,0,0,834.76,783q6.38,0,10.11-3T848.61,773.12Z"/><path data-cppathid="10094" fill="#fff" d="M882.42,761.35q0-10.9,4.59-17.35a14.78,14.78,0,0,1,12.74-6.43,17,17,0,0,1,15.55,9V718.11h2.3v34.58s0,0,0,0v18.73a.3.3,0,0,0,0,.13v12.79h-2.21l-.09-7.09a16.37,16.37,0,0,1-6.28,5.84,19.49,19.49,0,0,1-9.35,2.14,14.86,14.86,0,0,1-12.68-6.2q-4.56-6.21-4.57-16.82Zm2.38.9q0,9.51,3.76,15.12T899.63,783a17.25,17.25,0,0,0,9.94-2.7,15.41,15.41,0,0,0,5.73-7.2V751.33a19.25,19.25,0,0,0-5.37-8.18q-3.67-3.28-10.22-3.29a12.37,12.37,0,0,0-11.11,6q-3.79,6-3.8,15.52Z"/><path data-cppathid="10095" fill="#fff" d="M948.27,785.27a17.6,17.6,0,0,1-13.7-6.29Q929,772.7,929,763.14v-2.72q0-10,5.55-16.42a17.62,17.62,0,0,1,14-6.43q7.65,0,12.19,5t4.55,13.74v3.53H931.28v3.27A21.3,21.3,0,0,0,936,777.26,15.22,15.22,0,0,0,948.27,783a21,21,0,0,0,7.92-1.53,16.93,16.93,0,0,0,6.18-4.08l1.23,1.78a18.42,18.42,0,0,1-6.24,4.4A22,22,0,0,1,948.27,785.27Zm.21-45.41a15.19,15.19,0,0,0-11.7,4.95,20.11,20.11,0,0,0-5.16,12.51l.12.25h31.18v-1.4a17.61,17.61,0,0,0-3.86-11.7A13.08,13.08,0,0,0,948.48,739.86Z"/></g><g style="isolation:isolate"><path data-cppathid="10096" fill="#00ffd3" d="M239.63,869.38h-12.4V803.11h12.4Z"/><path data-cppathid="10097" fill="#00ffd3" d="M276.93,869.38a24.39,24.39,0,0,1-1.17-3.31,22.76,22.76,0,0,1-.7-3.57,17.06,17.06,0,0,1-5.06,5.56,12.65,12.65,0,0,1-7.47,2.21q-7.23,0-11.13-3.72t-3.91-10.13a12.12,12.12,0,0,1,5.2-10.47q5.21-3.72,15.19-3.72h7v-3.65a7.12,7.12,0,0,0-1.75-5.14,6.81,6.81,0,0,0-5.18-1.83,6.72,6.72,0,0,0-4.65,1.47,5.11,5.11,0,0,0-1.64,4H249.7l-.09-.25q-.29-5.82,5.08-10.05t14-4.22q8.28,0,13.4,4.16t5.12,11.94v19a35.49,35.49,0,0,0,.49,6.08,29.86,29.86,0,0,0,1.55,5.65Zm-11.34-8.28a10.52,10.52,0,0,0,5.77-1.62,8.69,8.69,0,0,0,3.49-3.74v-6.5h-7q-3.94,0-6,2a6.43,6.43,0,0,0-2,4.8,4.79,4.79,0,0,0,1.51,3.71A6,6,0,0,0,265.59,861.1Z"/><path data-cppathid="10098" fill="#00ffd3" d="M337.42,860.76a6.9,6.9,0,0,0,5.14-1.94,7,7,0,0,0,1.91-5.16h11.3l.09.26a14.4,14.4,0,0,1-5.19,11.66,19.35,19.35,0,0,1-13.25,4.69q-10.2,0-15.76-6.52t-5.57-16.67V845.8q0-10.11,5.55-16.67t15.69-6.56q8.42,0,13.56,4.84t5,12.74l-.09.26h-11.3a9.18,9.18,0,0,0-1.89-5.93,6.36,6.36,0,0,0-5.25-2.36c-3.2,0-5.47,1.29-6.81,3.85a21,21,0,0,0-2,9.83v1.28a20.93,20.93,0,0,0,2,9.89Q332.53,860.77,337.42,860.76Z"/><path data-cppathid="10099" fill="#00ffd3" d="M390.18,869.38a27.45,27.45,0,0,1-1.17-3.31,24,24,0,0,1-.7-3.57,17,17,0,0,1-5.05,5.56,12.71,12.71,0,0,1-7.48,2.21c-4.82,0-8.52-1.24-11.13-3.72s-3.91-5.85-3.91-10.13A12.13,12.13,0,0,1,366,846q5.21-3.72,15.18-3.72h7v-3.65a7.16,7.16,0,0,0-1.74-5.14,6.84,6.84,0,0,0-5.19-1.83,6.72,6.72,0,0,0-4.65,1.47,5.11,5.11,0,0,0-1.63,4H363l-.08-.25q-.3-5.82,5.07-10.05t14-4.22q8.28,0,13.4,4.16t5.12,11.94v19a36.53,36.53,0,0,0,.49,6.08,30.63,30.63,0,0,0,1.55,5.65Zm-11.34-8.28a10.56,10.56,0,0,0,5.78-1.62,8.61,8.61,0,0,0,3.48-3.74v-6.5h-7q-3.94,0-6,2a6.43,6.43,0,0,0-2,4.8,4.79,4.79,0,0,0,1.5,3.71A6,6,0,0,0,378.84,861.1Z"/><path data-cppathid="10100" fill="#00ffd3" d="M422.85,869.38H410.44V803.11h12.41Z"/><path data-cppathid="10101" fill="#00ffd3" d="M446.08,812.41h-12.4v-9.3h12.4Zm0,57h-12.4v-46h12.4Z"/><path data-cppathid="10102" fill="#00ffd3" d="M454.37,846.78q0-10.87,4.69-17.55a15.25,15.25,0,0,1,13.24-6.66,12.88,12.88,0,0,1,6.2,1.48,15,15,0,0,1,4.84,4.25V803.11h12.45v66.27H485.21l-1.06-5.65a15.48,15.48,0,0,1-5.14,4.86,13.58,13.58,0,0,1-6.8,1.68q-8.44,0-13.15-6.2t-4.69-16.4Zm12.36.89q0,6,2,9.5c1.36,2.3,3.57,3.46,6.63,3.46a9.56,9.56,0,0,0,4.67-1.09,8.6,8.6,0,0,0,3.27-3.16V836.8a9.51,9.51,0,0,0-3.25-3.38,8.62,8.62,0,0,0-4.61-1.21,7,7,0,0,0-6.65,4,22.86,22.86,0,0,0-2.1,10.54Z"/><path data-cppathid="10103" fill="#00ffd3" d="M532.49,869.38a27.45,27.45,0,0,1-1.17-3.31,24,24,0,0,1-.7-3.57,17,17,0,0,1-5,5.56,12.71,12.71,0,0,1-7.48,2.21c-4.82,0-8.52-1.24-11.13-3.72s-3.91-5.85-3.91-10.13a12.14,12.14,0,0,1,5.2-10.47q5.21-3.72,15.19-3.72h7v-3.65a7.16,7.16,0,0,0-1.74-5.14,6.84,6.84,0,0,0-5.19-1.83,6.72,6.72,0,0,0-4.65,1.47,5.11,5.11,0,0,0-1.63,4H505.26l-.08-.25q-.3-5.82,5.07-10.05t14-4.22q8.28,0,13.4,4.16t5.12,11.94v19a36.53,36.53,0,0,0,.49,6.08,30.63,30.63,0,0,0,1.55,5.65Zm-11.34-8.28a10.56,10.56,0,0,0,5.78-1.62,8.67,8.67,0,0,0,3.48-3.74v-6.5h-7q-3.95,0-6,2a6.43,6.43,0,0,0-2,4.8,4.79,4.79,0,0,0,1.5,3.71A6,6,0,0,0,521.15,861.1Z"/><path data-cppathid="10104" fill="#00ffd3" d="M550.21,846.78q0-10.87,4.69-17.55a15.25,15.25,0,0,1,13.23-6.66,12.85,12.85,0,0,1,6.2,1.48,15,15,0,0,1,4.85,4.25V803.11h12.44v66.27H581.05L580,863.73a15.3,15.3,0,0,1-5.14,4.86,13.54,13.54,0,0,1-6.79,1.68q-8.46,0-13.15-6.2t-4.69-16.4Zm12.36.89q0,6,2,9.5c1.35,2.3,3.56,3.46,6.62,3.46a9.6,9.6,0,0,0,4.68-1.09,8.6,8.6,0,0,0,3.27-3.16V836.8a9.6,9.6,0,0,0-3.25-3.38,8.64,8.64,0,0,0-4.61-1.21,7,7,0,0,0-6.65,4,22.86,22.86,0,0,0-2.1,10.54Z"/><path data-cppathid="10105" fill="#00ffd3" d="M621,846.78q0-10.87,4.69-17.55a15.25,15.25,0,0,1,13.23-6.66,12.92,12.92,0,0,1,6.21,1.48A15,15,0,0,1,650,828.3V803.11H662.4v66.27H651.82l-1.06-5.65a15.48,15.48,0,0,1-5.14,4.86,13.61,13.61,0,0,1-6.8,1.68q-8.46,0-13.15-6.2T621,847.67Zm12.36.89q0,6,2,9.5c1.36,2.3,3.57,3.46,6.62,3.46a9.58,9.58,0,0,0,4.68-1.09,8.6,8.6,0,0,0,3.27-3.16V836.8a9.51,9.51,0,0,0-3.25-3.38,8.62,8.62,0,0,0-4.61-1.21,7,7,0,0,0-6.65,4,22.86,22.86,0,0,0-2.1,10.54Z"/><path data-cppathid="10106" fill="#00ffd3" d="M691.92,870.27q-10.27,0-16.06-6.31t-5.78-16.25V846q0-10.32,5.61-16.9t15.42-6.54q9.27,0,14.21,5.67t4.95,15.27v6.41h-27.4l-.13.26a12.43,12.43,0,0,0,2.87,7.64c1.71,2,4.26,2.94,7.63,2.94a25.76,25.76,0,0,0,7.07-.85,28.69,28.69,0,0,0,6-2.6l3.36,7.65a23.21,23.21,0,0,1-7.48,3.78A33.12,33.12,0,0,1,691.92,870.27Zm-.81-38.15a6.88,6.88,0,0,0-5.75,2.57,13,13,0,0,0-2.45,6.82l.09.21h15.12v-.93a10.69,10.69,0,0,0-1.66-6.35C695.36,832.9,693.58,832.12,691.11,832.12Z"/><path data-cppathid="10107" fill="#00ffd3" d="M730.53,869.38h-12.4V803.11h12.4Z"/><path data-cppathid="10108" fill="#00ffd3" d="M760.48,846.78q0-10.87,4.7-17.55a15.25,15.25,0,0,1,13.23-6.66,12.88,12.88,0,0,1,6.2,1.48,15,15,0,0,1,4.85,4.25V803.11H801.9v66.27H791.32l-1.06-5.65a15.39,15.39,0,0,1-5.14,4.86,13.57,13.57,0,0,1-6.79,1.68q-8.46,0-13.15-6.2t-4.7-16.4Zm12.36.89q0,6,2,9.5c1.36,2.3,3.57,3.46,6.63,3.46a9.56,9.56,0,0,0,4.67-1.09,8.63,8.63,0,0,0,3.28-3.16V836.8a9.6,9.6,0,0,0-3.25-3.38,8.64,8.64,0,0,0-4.61-1.21,7,7,0,0,0-6.65,4,22.85,22.85,0,0,0-2.11,10.54Z"/><path data-cppathid="10109" fill="#00ffd3" d="M838.6,869.38a25.8,25.8,0,0,1-1.16-3.31,22.76,22.76,0,0,1-.7-3.57,17.06,17.06,0,0,1-5.06,5.56,12.71,12.71,0,0,1-7.48,2.21q-7.22,0-11.13-3.72t-3.9-10.13a12.12,12.12,0,0,1,5.2-10.47q5.21-3.72,15.19-3.72h7v-3.65a7.16,7.16,0,0,0-1.74-5.14,6.83,6.83,0,0,0-5.18-1.83,6.72,6.72,0,0,0-4.65,1.47,5.11,5.11,0,0,0-1.64,4H811.38l-.09-.25q-.3-5.82,5.08-10.05t14-4.22q8.28,0,13.4,4.16t5.12,11.94v19a35.49,35.49,0,0,0,.49,6.08,29.86,29.86,0,0,0,1.55,5.65Zm-11.34-8.28a10.56,10.56,0,0,0,5.78-1.62,8.61,8.61,0,0,0,3.48-3.74v-6.5h-7q-4,0-6,2a6.4,6.4,0,0,0-2,4.8,4.76,4.76,0,0,0,1.51,3.71A6,6,0,0,0,827.26,861.1Z"/><path data-cppathid="10110" fill="#00ffd3" d="M873.1,812.16v11.26h7.77v8.7H873.1v23.41a5.33,5.33,0,0,0,1.12,3.82,4,4,0,0,0,3,1.15,12,12,0,0,0,1.7-.11,14,14,0,0,0,1.65-.36l1,9a25,25,0,0,1-3.63,1,20.93,20.93,0,0,1-3.84.32q-6.42,0-9.88-3.52t-3.46-11.18V832.12H854v-8.7h6.71V812.16Z"/><path data-cppathid="10111" fill="#00ffd3" d="M886.61,846q0-10.28,5.73-16.84t15.89-6.56q10.2,0,16,6.54T930,846v.89q0,10.36-5.76,16.89t-15.9,6.52q-10.2,0-16-6.52t-5.75-16.89Zm12.36.89q0,6.3,2.21,10.09t7.14,3.81a7.56,7.56,0,0,0,7-3.83,19.93,19.93,0,0,0,2.23-10.07V846a19.56,19.56,0,0,0-2.26-10,8.36,8.36,0,0,0-14.12,0A19.79,19.79,0,0,0,899,846Z"/></g></svg>