<?xml version="1.0" encoding="UTF-8"?>
<svg xmlns="http://www.w3.org/2000/svg" onmouseup="{ if(window.parent.document.onmouseup) window.parent.document.onmouseup(arguments[0]);}" viewBox="0 0 212.82 213.7" id="Return"><ellipse data-cppathid="10000" stroke-width="10" stroke="#fff" fill="none" ry="101.85" rx="101.41" cy="106.85" cx="106.41"/><path data-cppathid="10001" fill="#fff" d="M77.91,89.43c4,4,7.78,7.69,11.35,11.59a12,12,0,0,1,2.85,5A7.81,7.81,0,0,1,88,114.74a8.11,8.11,0,0,1-9.56-1.22c-1-.92-2-1.93-2.94-2.9l-23-23c-4.23-4.26-4.23-8.91,0-13.11Q65,61.84,77.63,49.27c3.71-3.7,8.82-3.93,12.2-.65s3.27,8.56-.5,12.39-7.49,7.52-11.71,11.73h3.27c12,0,24.09-.06,36.13,0a47.82,47.82,0,0,1,48,47.65c0,.78,0,1.57,0,2.35-.78,24.22-20.88,44.71-45.1,45.66-9.63.37-19.27.17-28.91.12-4.94,0-8.51-3.53-8.55-8.11s3.51-8.28,8.63-8.34c8.6-.1,17.21,0,25.81-.06,12.09-.12,21.38-5.42,27.45-15.82,11.91-20.45-2.78-46.45-26.38-46.85-12.73-.19-25.47,0-38.2,0A12.81,12.81,0,0,0,77.91,89.43Z"/></svg>