<?xml version="1.0" encoding="UTF-8"?>
<svg xmlns="http://www.w3.org/2000/svg" onmouseup="{ if(window.parent.document.onmouseup) window.parent.document.onmouseup(arguments[0]);}" xml:space="preserve" style="enable-background:new 0 0 426.2 432.5;" viewBox="0 0 426.2 432.5" y="0px" x="0px" id="Capa_1" version="1.1" xmlns:xlink="http://www.w3.org/1999/xlink"><style type="text/css">
	.st0{fill:#E0E0E0;}
	.st1{fill:#EBEBEB;}
	.st2{fill:#F5F5F5;}
	.st3{fill:#FAFAFA;}
	.st4{fill:#263238;}
	.st5{fill:#3C6B9C;}
	.st6{fill:#6BFFFF;}
	.st7{fill:#DEA52A;}
	.st8{fill:#455A64;}
	.st9{fill:#C8561C;}
	.st10{fill:#FF725E;}
	.st11{fill:#9F3D36;}
	.st12{fill:#0097A6;}
	.st13{fill:#365A62;}
	.st14{opacity:0.6;}
	.st15{fill:#FFFFFF;}
	.st16{fill:#FFBE9D;}
	.st17{fill:#EB996E;}
	.st18{fill:#00FFD3;}
	.st19{opacity:0.3;}
	.st20{fill:none;stroke:#FDFDFD;stroke-miterlimit:10;}
</style><g id="Background_Complete"><rect data-cppathid="10000" height="97.5" width="8.1" class="st0" y="316" x="285.3"/><path data-cppathid="10001" d="M231.8,320.4h116.4c0-7-5.7-12.6-12.6-12.6l0,0h-91.1C237.4,307.8,231.8,313.4,231.8,320.4L231.8,320.4z" class="st1"/><path data-cppathid="10002" d="M348.6,320.9H231.3v-0.5c0-7.2,5.9-13.1,13.1-13.1h91.1c7.2,0,13.1,5.9,13.1,13.1L348.6,320.9z M232.2,319.9   h115.4c-0.3-6.5-5.6-11.7-12.1-11.7h-91.1C237.9,308.2,232.5,313.4,232.2,319.9L232.2,319.9z" class="st0"/><path data-cppathid="10003" d="M281.4,320.6c0,0.2,3.2,0.3,7.1,0.3s7.1-0.1,7.1-0.3c-2.4-0.3-4.8-0.4-7.1-0.3   C286.2,320.3,283.8,320.4,281.4,320.6z" class="st0"/><path data-cppathid="10004" d="M253.7,422.3h1.1c-0.3-19.1,14.9-34.9,34-35.2c19.1-0.3,34.9,14.9,35.2,34c0,0.4,0,0.8,0,1.2h1.1   c0.3-19.8-15.4-36-35.2-36.4c-19.8-0.3-36,15.4-36.4,35.2C253.7,421.5,253.7,421.9,253.7,422.3L253.7,422.3z" class="st1"/><path data-cppathid="10005" d="M319.4,424.1c0,3,2.4,5.4,5.4,5.4s5.4-2.4,5.4-5.4c0-3-2.4-5.4-5.4-5.4c0,0,0,0,0,0   C321.8,418.7,319.4,421.1,319.4,424.1C319.4,424.1,319.4,424.1,319.4,424.1z" class="st0"/><path data-cppathid="10006" d="M248.7,423.3c0,3,2.4,5.4,5.4,5.4s5.4-2.4,5.4-5.4c0-3-2.4-5.4-5.4-5.4c0,0,0,0,0,0   C251.1,418,248.7,420.4,248.7,423.3z" class="st0"/><path data-cppathid="10007" d="M254.1,413.5c0,0.2,15.6,0.3,34.8,0.3s34.8-0.1,34.8-0.3s-15.6-0.3-34.8-0.3S254.1,413.3,254.1,413.5z" class="st1"/><path data-cppathid="10008" d="M351.6,219.5v71.8c0,9.4-7.6,17-16.9,17c0,0,0,0-0.1,0h-55.4l7.5-88.8c0-4.2,3.4-7.6,7.6-7.6c0,0,0,0,0,0H344   C348.2,211.9,351.6,215.3,351.6,219.5L351.6,219.5z" class="st1"/><path data-cppathid="10009" d="M332,307.8c0-0.1,0.1-0.1,0.1-0.2l0.4-0.6c0.4-0.5,0.9-1.3,1.5-2.3c1.8-2.9,3.2-5.9,4.1-9.1   c0.7-2.2,1.1-4.5,1.4-6.8c0.2-2.7,0.3-5.3,0.2-8c0-5.6,0-11.8,0-18.4c0-13,0.1-24.7,0.1-33.3c0-4.2,0.1-7.7,0.1-10.1   c0-1.1,0-2.1,0-2.8c0-0.3,0-0.6,0.1-0.9c0,0.3,0.1,0.6,0.1,0.9c0,0.7,0,1.6,0,2.8c0,2.4,0.1,5.9,0.1,10.1c0,8.6,0.1,20.3,0.1,33.3   c0,6.5,0,12.7,0,18.4c0.1,2.7,0,5.3-0.3,8c-0.3,2.3-0.7,4.6-1.5,6.9c-1,3.2-2.5,6.3-4.3,9.1c-0.7,1-1.2,1.7-1.6,2.2   C332.5,307.3,332.3,307.5,332,307.8z" class="st0"/><path data-cppathid="10010" d="M301.9,307.8c0.6-0.1,1.2-0.1,1.8-0.1l4.8-0.1c4,0,9.6,0,15.8,0c3.1,0,6,0,8.7,0.1c2.4,0,4.8,0.2,7.1,0.8   c1.6,0.4,3,1.2,4.3,2.2c0.3,0.3,0.6,0.6,0.9,0.9c0.2,0.2,0.3,0.4,0.3,0.4s-0.5-0.5-1.4-1.1c-1.3-0.9-2.7-1.6-4.2-2   c-2.3-0.5-4.6-0.7-7-0.6l-8.7-0.1c-6.2,0-11.8-0.1-15.8-0.2l-4.8-0.1C303.1,307.9,302.5,307.9,301.9,307.8z" class="st0"/><rect data-cppathid="10011" height="10.9" width="309.5" class="st0" y="266.9" x="104.8"/><polygon data-cppathid="10012" points="120.1,276.4 89.5,429.5 94.7,429.5 130.9,277.8  " class="st0"/><polygon data-cppathid="10013" points="377.8,276.1 408.4,429.5 403.2,429.5 367,277.8  " class="st0"/><path data-cppathid="10014" d="M164.5,233.3v19h-3.2v2h3.2V267h59.2v-11.6h-4.4v-2.5h4.4v-3.8h2v-1.7h-2.3v-14.1H164.5z" class="st2"/><polygon data-cppathid="10015" points="208,233.3 208,266.8 223.7,266.8 223.7,255.2 219.4,255.2 219.4,252.9 223.7,253 223.7,249.2    225.7,249.2 225.7,247.3 223.4,247.2 223.4,233.2  " class="st0"/><path data-cppathid="10016" d="M209.1,254c0,0.1-10.7,0.2-23.9,0.2s-23.9-0.1-23.9-0.2s10.7-0.2,23.9-0.2S209.1,253.9,209.1,254z" class="st0"/><path data-cppathid="10017" d="M209.1,252.1c0,0.1-10.7,0.2-23.9,0.2s-23.9-0.1-23.9-0.2s10.7-0.2,23.9-0.2S209.1,252,209.1,252.1z" class="st0"/><path data-cppathid="10018" d="M212.2,246.9c0,0.1-10.7,0.2-24,0.2s-23.9-0.1-23.9-0.2s10.7-0.2,23.9-0.2S212.2,246.8,212.2,246.9z" class="st0"/><path data-cppathid="10019" d="M212.5,261c0,0.1-10.7,0.2-23.9,0.2s-23.9-0.1-23.9-0.2s10.7-0.2,23.9-0.2S212.5,260.9,212.5,261z" class="st0"/><rect data-cppathid="10020" height="88.4" width="98.8" class="st3" y="0.3" x="0.3"/><path data-cppathid="10021" d="M99.1,88.7c0,0,0-0.6,0-1.6c0-1.1,0-2.7,0-4.7c0-4.2,0-10.2-0.1-18c0-15.5-0.1-37.5-0.1-64.1l0.2,0.2H0.3l0,0   l0.3-0.3c0,32.2,0,62.4,0,88.4l-0.2-0.2l71.5,0.1L92,88.6h5.3h1.4h0.5h-1.8h-5.3L72,88.6L0.3,88.7H0.1v-0.2c0-26,0-56.3,0-88.4V0   h0.3h98.8h0.2v0.3c0,26.6-0.1,48.8-0.1,64.2c0,7.7,0,13.8-0.1,17.9c0,2,0,3.6,0,4.7C99.3,88.2,99.1,88.7,99.1,88.7z" class="st0"/><path data-cppathid="10022" d="M38.2,16c0,0.1-5.2,0.3-11.6,0.3S14.9,16.1,14.9,16s5.2-0.3,11.6-0.3S38.2,15.8,38.2,16z" class="st0"/><path data-cppathid="10023" d="M80.1,22.6c0,0.1-14.3,0.3-31.9,0.3s-31.9-0.1-31.9-0.3s14.3-0.3,31.9-0.3S80.1,22.5,80.1,22.6z" class="st0"/><rect data-cppathid="10024" height="4.2" width="4.2" class="st0" y="33.9" x="15.1"/><rect data-cppathid="10025" height="4.2" width="4.2" class="st0" y="33.9" x="25.4"/><rect data-cppathid="10026" height="4.2" width="4.2" class="st0" y="33.7" x="35.8"/><rect data-cppathid="10027" height="4.2" width="4.2" class="st0" y="33.9" x="45.8"/><rect data-cppathid="10028" height="4.2" width="4.2" class="st0" y="33.9" x="56.1"/><rect data-cppathid="10029" height="4.2" width="4.2" class="st0" y="33.9" x="66.3"/><rect data-cppathid="10030" height="4.2" width="4.2" class="st1" y="33.9" x="76.6"/><rect data-cppathid="10031" height="4.2" width="4.2" class="st1" y="42.7" x="15.1"/><rect data-cppathid="10032" height="4.2" width="4.2" class="st0" y="42.7" x="25.4"/><rect data-cppathid="10033" height="4.2" width="4.2" class="st1" y="42.7" x="35.6"/><rect data-cppathid="10034" height="4.2" width="4.2" class="st0" y="42.7" x="45.8"/><rect data-cppathid="10035" height="4.2" width="4.2" class="st0" y="42.7" x="56.1"/><rect data-cppathid="10036" height="4.2" width="4.2" class="st0" y="42.5" x="66.5"/><rect data-cppathid="10037" height="4.2" width="4.2" class="st0" y="42.7" x="76.6"/><rect data-cppathid="10038" height="4.2" width="4.2" class="st0" y="51.6" x="15.1"/><rect data-cppathid="10039" height="4.2" width="4.2" class="st0" y="51.4" x="25.5"/><rect data-cppathid="10040" height="4.2" width="4.2" class="st0" y="51.6" x="35.6"/><rect data-cppathid="10041" height="4.2" width="4.2" class="st1" y="51.6" x="45.8"/><rect data-cppathid="10042" height="4.2" width="4.2" class="st0" y="51.6" x="56.1"/><rect data-cppathid="10043" height="4.2" width="4.2" class="st0" y="51.6" x="66.3"/><rect data-cppathid="10044" height="4.2" width="4.2" class="st0" y="51.6" x="76.6"/><rect data-cppathid="10045" height="4.2" width="4.2" class="st0" y="60.4" x="15.1"/><rect data-cppathid="10046" height="4.2" width="4.2" class="st0" y="60.4" x="25.4"/><rect data-cppathid="10047" height="4.2" width="4.2" class="st0" y="60.4" x="35.6"/><rect data-cppathid="10048" height="4.2" width="4.2" class="st0" y="60.2" x="46"/><rect data-cppathid="10049" height="4.2" width="4.2" class="st0" y="60.4" x="56.1"/><rect data-cppathid="10050" height="4.2" width="4.2" class="st1" y="60.4" x="66.3"/><rect data-cppathid="10051" height="4.2" width="4.2" class="st0" y="60.4" x="76.6"/><rect data-cppathid="10052" height="4.2" width="4.2" class="st0" y="69.3" x="15.1"/><rect data-cppathid="10053" height="4.2" width="4.2" class="st1" y="69.3" x="25.4"/><rect data-cppathid="10054" height="4.2" width="4.2" class="st0" y="69.3" x="35.6"/><rect data-cppathid="10055" height="4.2" width="4.2" class="st0" y="69.3" x="45.8"/><rect data-cppathid="10056" height="4.2" width="4.2" class="st0" y="69.3" x="56.1"/><rect data-cppathid="10057" height="4.2" width="4.2" class="st0" y="69.1" x="66.5"/><rect data-cppathid="10058" height="4.2" width="4.2" class="st0" y="69.3" x="76.6"/><rect data-cppathid="10059" height="12.9" width="48.6" class="st1" y="11.8" x="363.6"/><path data-cppathid="10060" d="M391.7,38.2c0-0.1,0-0.2,0-0.2v-0.7c0-0.6,0-1.4,0-2.5c0-2.2,0-5.4-0.1-9.5l0.1,0.2l-48.6,0.1   c0.1-0.1-0.2,0.2,0.2-0.2l0,0v12.9l-0.2-0.2l34.7,0.1l10.2,0.1h2.8h0.7L391.7,38.2l-0.2-0.1h-0.7h-2.7l-10.3,0.2L343,38.5h-0.2   V25.4l0,0c0.5-0.5,0.1-0.1,0.2-0.2l48.6,0.1h0.1v0.2c0,4.1-0.1,7.3-0.1,9.5c0,1.1,0,1.9,0,2.5c0,0.3,0,0.5,0,0.6   C391.7,38.1,391.7,38.2,391.7,38.2z" class="st0"/><rect data-cppathid="10061" height="12.9" width="48.7" class="st1" y="327.7" x="147.9"/><path data-cppathid="10062" d="M175.9,354.1c0-0.1,0-0.2,0-0.2v-0.7c0-0.6,0-1.5,0-2.5c0-2.2-0.1-5.4-0.1-9.4l0.1,0.1l-48.7,0.1l0.2-0.2l0,0   v12.9l-0.2-0.2L162,354l10.2,0.1h2.8h0.7L175.9,354.1l-0.2-0.1h-0.7h-2.7l-10.2,0.1l-34.8,0.1h-0.2v-12.9l0,0l0.2-0.2l48.6,0.1h0.1   v0.1c0,4.1-0.1,7.3-0.1,9.5c0,1.1,0,1.9,0,2.5c0,0.3,0,0.5,0,0.6C176,354,176,354.1,175.9,354.1z" class="st0"/><path data-cppathid="10063" d="M411.8,191.8c0-0.1,0-0.2,0-0.2v-0.7c0-0.6,0-1.4,0-2.5c0-2.2,0-5.4-0.1-9.4l0.1,0.1l-48.6,0.1   c0.1-0.1-0.2,0.2,0.2-0.2l0,0v12.9l-0.2-0.2l34.7,0.1l10.2,0.1h2.8h0.7L411.8,191.8c0-0.1-0.1-0.1-0.2-0.1h-0.7h-2.7l-10.2,0.1   l-34.9,0.1h-0.3v-13l0,0c0.5-0.5,0.1-0.1,0.2-0.2l48.6,0.1h0.1v0.1c0,4.1-0.1,7.3-0.1,9.5c0,1.1,0,1.9,0,2.5v0.6   C411.8,191.7,411.8,191.8,411.8,191.8z" class="st0"/><path data-cppathid="10064" d="M418.4,179c0,0,0-0.1,0-0.2s0-0.4,0-0.7c0-0.6,0-1.5,0-2.6c0-2.3,0-5.4-0.1-9.4l0.2,0.2l-29.2,0.1l0.2-0.2l0,0   v6.6c0,2.2,0,4.2,0,6.2l-0.2-0.2l20.9,0.1l6.1,0.1h1.6L418.4,179c-0.1-0.1-0.3-0.1-0.5-0.1h-1.6l-6,0.1l-21.1,0.1H389v-0.2   c0-2,0-4.1,0-6.2c0-1.1,0-2.2,0-3.3V166l0,0l0.2-0.2l29.2,0.1h0.2v0.2c0,4-0.1,7.2-0.1,9.5c0,1.1,0,1.9,0,2.5   C418.5,178.3,418.5,178.6,418.4,179z" class="st0"/><path data-cppathid="10065" d="M49.5,179.2c0-0.1,0-0.2,0-0.2v-0.7c0-0.6,0-1.4,0-2.5c0-2.2,0-5.4-0.1-9.4l0.2,0.1l-48.6,0.1   c0.1-0.1-0.2,0.2,0.2-0.2l0,0v6.5c0,2.2,0,4.3,0,6.3l-0.2-0.2l34.7,0.1l10.2,0.1h2.8h0.7L49.5,179.2c0-0.1-0.1-0.1-0.1-0.1h-0.7   l-2.8,0.2H35.7l-34.9,0.1H0.6v-6.6c0-1.1,0-2.2,0-3.2v-3.3l0,0c0.5-0.5,0.1-0.1,0.3-0.2l48.6,0.1h0.2v0.1c0,4.1-0.1,7.3-0.1,9.5   c0,1.1,0,1.9,0,2.5v0.6C49.6,179,49.5,179.1,49.5,179.2z" class="st0"/><path data-cppathid="10066" d="M56.1,166.3c0,0,0-0.1,0-0.2s0-0.4,0-0.7c0-0.6,0-1.5,0-2.6c0-2.2-0.1-5.4-0.1-9.4l0.2,0.2l-29.3,0.1   c-0.2,0.2,0.3-0.3,0.2-0.2l0,0v3.3c0,1.1,0,2.2,0,3.3v6.2l-0.2-0.2l21,0.1l6,0.1h1.6H56.1c-0.2,0-0.4,0-0.6,0H54l-6,0.1l-21.1,0.2   h-0.2v-0.3c0-2,0-4.1,0-6.2v-6.6l0,0l0.2-0.2l29.2,0.1h0.2v0.2c0,4-0.1,7.2-0.1,9.5c0,1.1,0,1.9,0,2.5   C56.2,165.7,56.2,166,56.1,166.3z" class="st0"/></g><g id="Floor"><path data-cppathid="10067" d="M426.2,429.5c0,0.1-91.5,0.3-204.4,0.3s-204.4-0.1-204.4-0.3s91.5-0.3,204.4-0.3S426.2,429.4,426.2,429.5z" class="st4"/></g><g id="Chart_"><rect data-cppathid="10068" height="124.2" width="163.9" class="st2" y="79.7" x="165.9"/><path data-cppathid="10069" d="M329.8,203.8c0,0,0-0.8,0-2.3s0-3.7,0-6.6c0-5.8,0-14.3-0.1-25.1c0-21.6-0.1-52.6-0.1-90.2l0.2,0.2H166l0,0   l0.3-0.3c0,44.7,0,86.9,0,124.1l-0.2-0.2l118.3,0.1l33.6,0.1h8.9h2.3h0.8h-3h-8.9l-33.5,0.1l-118.5,0.1h-0.2v-0.2   c0-37.2,0-79.5,0-124.2v-0.3h0.3H330h0.2v0.2c0,37.6-0.1,68.6-0.1,90.3c0,10.8,0,19.3-0.1,25v6.6   C329.8,203.1,329.8,203.8,329.8,203.8z" class="st4"/><rect data-cppathid="10070" height="29.9" width="11.1" class="st5" y="137.8" x="214.3"/><rect data-cppathid="10071" height="29.9" width="11.1" class="st5" y="137.8" x="261.3"/><rect data-cppathid="10072" height="47.5" width="11.1" class="st5" y="120.2" x="276.9"/><rect data-cppathid="10073" height="10.1" width="11.1" class="st5" y="158.3" x="200"/><rect data-cppathid="10074" height="16.4" width="11.1" class="st5" y="151.4" x="230"/><rect data-cppathid="10075" height="20.2" width="11.1" class="st5" y="147.6" x="245.6"/><circle data-cppathid="10076" r="2.4" cy="126.5" cx="208.1" class="st5"/><path data-cppathid="10077" d="M244.8,134.6V85.8" class="st2"/><path data-cppathid="10078" d="M244.8,85.8c0.1,0,0.3,10.9,0.3,24.4s-0.1,24.4-0.3,24.4s-0.3-10.9-0.3-24.4S244.6,85.8,244.8,85.8z" class="st4"/><path data-cppathid="10079" d="M318.3,103.6c-0.6,0.1-1.1,0.1-1.7,0.1l-4.7,0.1c-4,0.1-9.5,0.1-15.5,0.1h-8.5c-0.6,0-1.3,0-1.9,0.1   c-0.6,0.1-1.1,0.3-1.6,0.7c-0.9,0.6-1.4,1.5-1.6,2.5c-0.1,0.5-0.1,0.9-0.1,1.4c0,0.4,0,0.9,0,1.3c0,0.8,0,1.4,0,2   c0,0.6,0,1.2-0.1,1.7c-0.1-0.6-0.1-1.2-0.1-1.7c0-0.6,0-1.3,0-2c0-0.4,0-0.8,0-1.3c0-0.5,0-1,0-1.4c0.2-1.1,0.8-2.2,1.8-2.8   c0.5-0.4,1.1-0.6,1.7-0.8c0.7-0.1,1.3-0.1,2-0.1h8.5c6.1,0,11.5,0,15.5,0.1l4.7,0.1C317.2,103.5,317.8,103.6,318.3,103.6z" class="st4"/><path data-cppathid="10080" d="M296.4,118c-0.1,0-0.2,0-0.3-0.1l-0.8-0.3c-0.3-0.1-0.8-0.3-1.3-0.4l-1.7-0.5c-9.4-2.4-19.4-0.4-27.2,5.3   c-2.6,2.1-5.1,4.4-7.3,7c-2.4,2.6-5,5.3-8.5,6.9c-1.7,0.8-3.6,1.2-5.5,1.1c-1.8-0.1-3.6-0.4-5.3-1.1c-3.1-1.4-6.1-3.1-8.9-5.1   c-2.5-1.7-5.2-3.2-8-4.3c-2.5-1-5.1-1.4-7.8-1.2c-3.8,0.2-7.6,1.3-11,3.1c-0.9,0.5-1.8,1.1-2.6,1.7l-0.7,0.5   c-0.1,0.1-0.1,0.1-0.2,0.1c1-1,2.2-1.8,3.4-2.5c3.4-1.9,7.2-3,11.1-3.3c2.7-0.2,5.4,0.2,7.9,1.2c2.9,1.2,5.6,2.6,8.1,4.3   c2.7,2,5.7,3.7,8.8,5c1.6,0.6,3.4,1,5.2,1.1c1.8,0,3.6-0.4,5.3-1.1c3.4-1.5,5.9-4.2,8.3-6.8c2.2-2.6,4.7-4.9,7.4-7.1   c4.7-3.4,10.2-5.5,16-6.1c3.9-0.4,7.8,0,11.5,1l1.7,0.6c0.5,0.2,0.9,0.4,1.2,0.5l0.8,0.3C296.4,117.9,296.4,118,296.4,118z" class="st6"/><circle data-cppathid="10081" r="2.4" cy="136.2" cx="244.8" class="st5"/><circle data-cppathid="10082" r="2.4" cy="115.5" cx="282.8" class="st5"/><path data-cppathid="10083" d="M211.1,172.4c-1.9,0.3-3.7,0.4-5.6,0.3c-1.9,0.1-3.7,0-5.6-0.3c1.8-0.3,3.7-0.3,5.6-0.3   C207.3,172,209.2,172.1,211.1,172.4z" class="st4"/><path data-cppathid="10084" d="M225.6,172.4c-1.9,0.3-3.7,0.3-5.6,0.3c-1.9,0.1-3.7,0-5.6-0.3c1.9-0.3,3.7-0.3,5.6-0.3   C221.9,172,223.7,172.1,225.6,172.4z" class="st4"/><path data-cppathid="10085" d="M241.8,172.4c-1.9,0.3-3.7,0.4-5.6,0.3c-1.9,0.1-3.7,0-5.6-0.3c1.9-0.3,3.7-0.3,5.6-0.3   C238.1,172,239.9,172.1,241.8,172.4z" class="st4"/><path data-cppathid="10086" d="M257.2,172.4c-3.7,0.3-7.5,0.3-11.2,0C249.8,172,253.5,172,257.2,172.4z" class="st4"/><path data-cppathid="10087" d="M272.3,172.4c-3.7,0.3-7.5,0.3-11.2,0C264.8,172,268.6,172,272.3,172.4z" class="st4"/><path data-cppathid="10088" d="M287.3,172.4c-3.7,0.3-7.5,0.3-11.2,0C279.9,172,283.6,172,287.3,172.4z" class="st4"/><path data-cppathid="10089" d="M206.3,125.9c-0.2,0-0.4,0.1-0.6,0.1h-1.6l-5.8,0.1h-8.6h-5.1c-0.9,0-1.8,0-2.7-0.1c-0.9-0.2-1.9-0.5-2.7-1   c-1.6-0.9-2.9-2.5-3.5-4.2c-0.3-0.8-0.5-1.7-0.5-2.6v-2.5c0-3.2,0-6.1,0.1-8.6s0.1-4.4,0.1-5.8c0-0.6,0-1.2,0.1-1.6   c0-0.2,0-0.4,0.1-0.6c0,0.2,0,0.4,0,0.6c0,0.4,0,0.9,0.1,1.6c0,1.4,0,3.4,0.1,5.8s0,5.4,0,8.6c0.1,1.6-0.2,3.3,0.5,4.9   c0.6,1.7,1.8,3.1,3.3,4c0.8,0.4,1.6,0.7,2.5,0.9c0.9,0.1,1.8,0.2,2.6,0.1h5.1l8.6,0.1l5.8,0.1l1.6,0.1   C205.9,125.8,206.1,125.9,206.3,125.9z" class="st4"/><polygon data-cppathid="10090" points="317.7,83.4 317.7,157.1 326.6,157.1 338.9,157.1 396.1,157.1 396.1,83.4  " class="st3"/><path data-cppathid="10091" d="M317.7,83.4h1.4h4.2l15.9-0.1l56.9-0.1h0.2v0.2c0,21.6,0,46.8,0,73.7l0,0v0.2h-0.3h-78.4h-0.2v-0.2   c0-22.2,0.1-40.6,0.1-53.5c0-6.4,0-11.5,0.1-14.9c0-1.7,0-3,0-3.9S317.6,83.4,317.7,83.4c-0.1,0-0.1,0.5-0.1,1.4s0,2.2,0,4   c0,3.5,0,8.5,0.1,15c0,12.9,0.1,31.3,0.1,53.4l-0.2-0.2H396l-0.3,0.3l0,0c0-26.9,0-52.1,0-73.7l0.2,0.2l-56.7-0.1h-16H319h-1.1   L317.7,83.4z" class="st4"/><path data-cppathid="10092" d="M356.5,91.7c-13.4,0-24.2,10.8-24.2,24.2s10.8,24.2,24.2,24.2c13.4,0,24.2-10.8,24.2-24.2   C380.7,102.6,369.9,91.7,356.5,91.7L356.5,91.7z M356.9,130.4c-8.2,0-14.9-6.7-14.9-14.9s6.7-14.9,14.9-14.9   c8.2,0,14.9,6.7,14.9,14.9v0C371.8,123.8,365.1,130.4,356.9,130.4z" class="st7"/><path data-cppathid="10093" d="M342,115.6c0-5.9,3.4-11.2,8.8-13.6l-3.7-8.4c-9,3.8-14.8,12.6-14.8,22.3c0,0.3,0,0.7,0,1h9.7   C342.1,116.5,342,116.1,342,115.6z" class="st0"/><path data-cppathid="10094" d="M376.6,146.2c0,0.1-9,0.2-20,0.2s-20-0.1-20-0.2s9-0.2,20-0.2S376.6,146.1,376.6,146.2z" class="st4"/><path data-cppathid="10095" d="M367.6,149.9c0,0.1-5,0.2-11.1,0.2s-11.1-0.1-11.1-0.2s5-0.2,11.1-0.2S367.6,149.8,367.6,149.9z" class="st4"/><path data-cppathid="10096" d="M354.8,112.4v1l-2,4.6h-1.7l1.9-4.3h-1.5v0.9h-1.3v-2.1L354.8,112.4z" class="st4"/><path data-cppathid="10097" d="M359.5,116.2c0,1-0.8,1.9-2.4,1.9c-0.8,0-1.5-0.2-2.2-0.6l0.6-1.2c0.5,0.3,1,0.5,1.5,0.5   c0.5,0,0.9-0.2,0.9-0.6s-0.2-0.6-1.1-0.6h-1.5l0.3-3.3h3.6v1.2h-2.2l-0.1,0.8h0.4C358.9,114.5,359.5,115.2,359.5,116.2z" class="st4"/><path data-cppathid="10098" d="M359.8,113.9c0.1-0.8,0.8-1.4,1.5-1.3c0.8,0.1,1.4,0.8,1.3,1.5c-0.1,0.7-0.7,1.3-1.4,1.3   c-0.8,0-1.4-0.6-1.4-1.4C359.8,114,359.8,114,359.8,113.9z M364.6,112.4h1.1l-3.9,5.6h-1.1L364.6,112.4z M361.7,113.9   c0-0.6-0.2-0.8-0.5-0.8s-0.5,0.2-0.5,0.8s0.2,0.8,0.5,0.8S361.7,114.5,361.7,113.9L361.7,113.9z M363.7,116.5   c-0.1-0.8,0.5-1.4,1.2-1.5c0.1,0,0.1,0,0.2,0c0.9-0.1,1.6,0.6,1.7,1.4c0.1,0.9-0.6,1.6-1.4,1.7s-1.6-0.6-1.7-1.4   C363.7,116.6,363.7,116.6,363.7,116.5z M365.6,116.5c0-0.6-0.2-0.8-0.5-0.8s-0.5,0.2-0.5,0.8s0.2,0.8,0.5,0.8   S365.6,117.1,365.6,116.5L365.6,116.5z" class="st4"/><polygon data-cppathid="10099" points="219,2.1 219,85.5 229.1,85.5 242.9,85.5 307.7,85.5 307.7,2.1  " class="st3"/><path data-cppathid="10100" d="M219,2.1h0.4h1.2h4.7l18-0.1L307.7,2h0.2v0.2c0,24.4,0,53,0,83.4l0,0v0.3h-0.3h-88.7h-0.2v-0.2   c0-25.1,0.1-46,0.1-60.6c0-7.3,0-13,0.1-16.9c0-1.9,0-3.4,0-4.4s0-1.5,0-1.5s0,0.5,0,1.5s0,2.5,0,4.5c0,3.9,0,9.7,0.1,16.9   c0,14.6,0.1,35.4,0.1,60.4l-0.2-0.2h88.7l-0.3,0.3l0,0c0-30.4,0-59,0-83.4l0.2,0.2l-64-0.2l-18.1-0.1h-4.8L219,2.1L219,2.1z" class="st4"/><path data-cppathid="10101" d="M262.9,11.6c-15.1,0-27.4,12.3-27.4,27.4c0,15.1,12.3,27.4,27.4,27.4c15.1,0,27.4-12.3,27.4-27.4c0,0,0,0,0,0   C290.3,23.9,278.1,11.6,262.9,11.6C262.9,11.6,262.9,11.6,262.9,11.6z M263.3,55.4c-9.3,0-16.8-7.5-16.8-16.8   c0-9.3,7.5-16.8,16.8-16.8c9.3,0,16.8,7.5,16.8,16.8S272.6,55.4,263.3,55.4L263.3,55.4z" class="st0"/><path data-cppathid="10102" d="M263.4,11.6v10.1c9.3,0,16.8,7.6,16.8,16.8c0,1.7-0.3,3.4-0.8,5.1l9.9,2.7c4.1-14.5-4.4-29.6-18.9-33.7   C268.1,12,265.7,11.6,263.4,11.6L263.4,11.6z" class="st0"/><path data-cppathid="10103" d="M246.5,38.6c0-6.6,3.9-12.7,10-15.4l-4.2-9.5C242.2,18,235.6,28,235.6,39c0,0.4,0,0.8,0,1.2h11   C246.5,39.6,246.5,39.1,246.5,38.6z" class="st8"/><path data-cppathid="10104" d="M263.3,55.4c-1.2,0-2.3-0.1-3.5-0.4c-0.4,2.4-1.2,7.2-1.9,10.9c13.9,2.6,27.5-5.9,31.4-19.5l-9.9-2.7   C277.2,50.7,270.7,55.4,263.3,55.4z" class="st1"/><path data-cppathid="10105" d="M285.6,73.3c0,0.1-10.1,0.3-22.7,0.3s-22.6-0.1-22.6-0.3s10.1-0.3,22.6-0.3S285.6,73.1,285.6,73.3z" class="st4"/><path data-cppathid="10106" d="M275.5,77.4c0,0.1-5.6,0.3-12.6,0.3s-12.6-0.1-12.6-0.3s5.6-0.3,12.6-0.3S275.5,77.3,275.5,77.4z" class="st4"/><path data-cppathid="10107" d="M261.1,39.4c0,1-0.8,1.9-2.4,1.9c-0.8,0-1.5-0.2-2.2-0.6l0.6-1.2c0.5,0.3,1,0.5,1.5,0.5c0.5,0,0.9-0.2,0.9-0.6   s-0.2-0.5-0.9-0.5H258v-1l1-1.1h-2.2v-1.2h4v1l-1.1,1.2C260.4,37.9,261.1,38.6,261.1,39.4z" class="st4"/><path data-cppathid="10108" d="M265.8,39.4c0,1-0.8,1.9-2.4,1.9c-0.8,0-1.5-0.2-2.2-0.6l0.6-1.2c0.5,0.3,1,0.5,1.5,0.5c0.5,0,0.9-0.2,0.9-0.6   s-0.2-0.6-1.1-0.6h-1.5l0.3-3.3h3.5v1.2h-2.2l-0.1,0.8h0.4C265.2,37.6,265.8,38.4,265.8,39.4z" class="st4"/><path data-cppathid="10109" d="M266.1,37c0.1-0.8,0.8-1.4,1.5-1.3c0.8,0.1,1.4,0.8,1.3,1.5c-0.1,0.7-0.7,1.3-1.4,1.3c-0.8,0-1.4-0.6-1.4-1.4   C266.1,37.2,266.1,37.1,266.1,37z M270.8,35.6h1.1l-3.8,5.6H267L270.8,35.6z M268,37c0-0.6-0.2-0.8-0.5-0.8s-0.5,0.2-0.5,0.8   s0.2,0.8,0.5,0.8S268,37.6,268,37L268,37z M270,39.7c-0.1-0.8,0.5-1.4,1.2-1.5c0.1,0,0.1,0,0.2,0c0.9-0.1,1.6,0.6,1.7,1.4   c0.1,0.9-0.6,1.6-1.4,1.7s-1.6-0.6-1.7-1.4C270,39.8,270,39.7,270,39.7z M271.9,39.7c0-0.6-0.2-0.8-0.5-0.8s-0.5,0.2-0.5,0.8   s0.2,0.8,0.5,0.8S272,40.3,271.9,39.7L271.9,39.7z" class="st4"/><polygon data-cppathid="10110" points="120.4,25.2 120.4,98.9 129.3,98.9 141.6,98.9 198.8,98.9 198.8,25.2  " class="st3"/><path data-cppathid="10111" d="M120.4,25.3h0.4h1.1h4.2H142l56.9-0.3h0.2v0.3c0,21.5,0,46.8,0,73.7l0,0v0.3h-0.2h-78.4h-0.2V99   c0.1-22.2,0.1-40.6,0.1-53.5c0-6.4,0-11.5,0.1-14.9c0-1.7,0-3,0-3.9S120.4,25.3,120.4,25.3c0,0,0,0.5,0,1.4s0,2.2,0,4   c0,3.5,0,8.5,0.1,15c0,12.9,0.1,31.3,0.1,53.4l-0.2-0.2h78.4l-0.3,0.3l0,0c0-26.9,0-52.1,0-73.7l0.2,0.2L142,25.5l-16-0.1l-4.1-0.2   H120.4L120.4,25.3z" class="st4"/><path data-cppathid="10112" d="M159.3,33.6c-13.4,0-24.2,10.8-24.2,24.2S145.9,82,159.2,82c13.4,0,24.2-10.8,24.2-24.2c0,0,0,0,0,0   C183.5,44.4,172.6,33.6,159.3,33.6L159.3,33.6z M159.6,72.3c-8.2,0-14.9-6.7-14.9-14.9c0-8.2,6.7-14.9,14.9-14.9   s14.9,6.7,14.9,14.9C174.5,65.6,167.8,72.3,159.6,72.3L159.6,72.3z" class="st0"/><path data-cppathid="10113" d="M159.6,33.6v9c8.2,0,14.9,6.6,14.9,14.8c0,1.5-0.2,3.1-0.7,4.5l8.8,2.4c3.6-12.9-3.9-26.2-16.8-29.8   C163.8,33.9,161.8,33.6,159.6,33.6L159.6,33.6z" class="st9"/><path data-cppathid="10114" d="M144.8,57.4c0-5.9,3.5-11.2,8.8-13.6l-3.7-8.3c-9,3.8-14.8,12.6-14.8,22.3c0,0.3,0,0.7,0,1h9.8   C144.8,58.4,144.8,57.9,144.8,57.4z" class="st1"/><path data-cppathid="10115" d="M159.6,72.3c-1.1,0-2.1-0.1-3.1-0.3c-0.4,2.2-1.1,6.3-1.6,9.6c1.5,0.3,2.9,0.4,4.4,0.4   c10.9,0,20.4-7.2,23.3-17.7l-8.7-2.4C171.9,68.1,166.1,72.3,159.6,72.3z" class="st10"/><path data-cppathid="10116" d="M159.6,72.3c-1.1,0-2.1-0.1-3.1-0.3c-0.4,2.2-1.1,6.3-1.6,9.6c1.5,0.3,2.9,0.4,4.4,0.4   c10.9,0,20.4-7.2,23.3-17.7l-8.7-2.4C171.9,68.1,166.1,72.3,159.6,72.3z" class="st11"/><path data-cppathid="10117" d="M179.3,88.1c0,0.1-9,0.2-20,0.2s-20-0.1-20-0.2s9-0.2,20-0.2S179.3,88,179.3,88.1z" class="st4"/><path data-cppathid="10118" d="M170.4,91.8c0,0.1-5,0.2-11.1,0.2s-11.1-0.1-11.1-0.2c0-0.1,5-0.2,11.1-0.2S170.4,91.6,170.4,91.8z" class="st4"/><path data-cppathid="10119" d="M156.4,58.1c-0.1,1.1-1,2-2.1,1.9c0,0-0.1,0-0.1,0c-1.3,0.1-2.5-0.9-2.6-2.3c0-0.2,0-0.3,0-0.5   c-0.1-1.5,1-2.9,2.6-3c0.1,0,0.3,0,0.4,0c0.6,0,1.1,0.1,1.6,0.4l-0.6,1.1c-0.3-0.2-0.6-0.3-1-0.3c-0.7,0-1.4,0.5-1.4,1.2   c0,0,0,0,0,0.1c0.4-0.3,0.8-0.4,1.3-0.4C155.5,56.3,156.3,57.1,156.4,58.1z M154.8,58.2c0-0.4-0.3-0.7-0.7-0.7c0,0-0.1,0-0.1,0   c-0.4,0-0.7,0.2-0.8,0.6c0,0.4,0.2,0.7,0.6,0.8c0.1,0,0.1,0,0.2,0C154.5,58.9,154.8,58.6,154.8,58.2   C154.8,58.2,154.8,58.2,154.8,58.2z" class="st4"/><path data-cppathid="10120" d="M156.8,57.1c0-1.8,1-2.9,2.5-2.9s2.4,1.1,2.4,2.9s-1,2.9-2.4,2.9S156.8,58.9,156.8,57.1z M160.1,57.1   c0-1.2-0.4-1.6-0.9-1.6s-0.9,0.4-0.9,1.6s0.4,1.6,0.9,1.6S160.1,58.3,160.1,57.1z" class="st4"/><path data-cppathid="10121" d="M162.1,55.8c0-0.8,0.7-1.4,1.5-1.3c0.8,0,1.4,0.7,1.3,1.5c0,0.8-0.7,1.3-1.4,1.3c-0.8,0-1.4-0.6-1.4-1.4   C162.1,55.9,162.1,55.8,162.1,55.8z M166.8,54.3h1.1l-3.8,5.6H163L166.8,54.3z M164,55.8c0-0.6-0.2-0.8-0.5-0.8s-0.5,0.2-0.5,0.8   s0.2,0.8,0.5,0.8S164,56.3,164,55.8z M166,58.4c0.1-0.8,0.7-1.4,1.5-1.3c0.8,0.1,1.4,0.7,1.3,1.5c-0.1,0.7-0.7,1.3-1.4,1.3   c-0.8,0-1.4-0.6-1.4-1.4C166,58.5,166,58.5,166,58.4L166,58.4z M167.9,58.4c0-0.6-0.2-0.8-0.5-0.8s-0.5,0.2-0.5,0.8   s0.2,0.8,0.5,0.8S167.9,59,167.9,58.4L167.9,58.4z" class="st4"/></g><g id="Plant"><rect data-cppathid="10122" height="9.2" width="66.7" class="st4" y="373.5" x="329.5"/><path data-cppathid="10123" d="M396.2,382.8h-66.9v-9.4h66.9V382.8z M329.6,382.5H396v-8.9h-66.4V382.5z" class="st4"/><polygon data-cppathid="10124" points="335.7,379.6 345.3,426.9 380.8,426.9 390,382.6  " class="st4"/><polygon data-cppathid="10125" points="335.7,422.5 340.8,429.5 383.9,429.5 390,422.5  " class="st8"/><path data-cppathid="10126" d="M360.3,381c-0.1,0-0.3-21.9-0.4-49s0-49,0.1-49s0.3,21.9,0.4,49S360.4,381,360.3,381z" class="st4"/><path data-cppathid="10127" d="M375.2,326.1c0,0.2-0.1,0.3-0.2,0.5c-0.2,0.4-0.4,0.8-0.6,1.4l-0.4,1l-0.5,1.2l-0.5,1.4   c-0.2,0.5-0.3,1.1-0.5,1.6c-0.8,2.7-1.4,5.4-1.9,8.2c-0.5,3.4-0.8,6.8-1,10.2c-0.2,6.2-0.1,12.4,0.5,18.6c0.2,2.4,0.4,4.3,0.6,5.6   c0.1,0.6,0.1,1.1,0.2,1.5c0,0.2,0,0.4,0,0.5c-0.1-0.2-0.1-0.3-0.1-0.5c-0.1-0.4-0.1-0.9-0.3-1.5c-0.2-1.3-0.5-3.2-0.7-5.6   c-0.7-6.2-0.9-12.5-0.7-18.7c0.2-3.4,0.5-6.9,1.1-10.3c0.5-2.8,1.1-5.5,2-8.2c0.2-0.6,0.3-1.1,0.5-1.6s0.4-1,0.5-1.4   s0.3-0.9,0.5-1.2s0.3-0.7,0.5-1l0.7-1.4C375,326.4,375.1,326.3,375.2,326.1z" class="st4"/><path data-cppathid="10128" d="M373.4,308.4c0,0.2-0.1,0.5-0.2,0.7l-0.7,2c-0.2,0.4-0.3,0.9-0.5,1.5l-0.5,1.8c-0.4,1.3-0.8,2.7-1.2,4.3   c-0.2,0.8-0.4,1.7-0.7,2.5s-0.4,1.8-0.6,2.8c-0.5,1.9-0.8,4-1.2,6.1c-0.7,4.4-1.4,9.2-1.8,14.2s-0.6,9.9-0.7,14.4s0,8.4,0.2,11.7   c0.1,1.7,0.2,3.2,0.2,4.5s0.2,2.5,0.2,3.4s0.1,1.6,0.2,2.1c0,0.3,0,0.5,0,0.8c0,0,0-0.3-0.1-0.8s-0.1-1.2-0.2-2.1s-0.2-2.1-0.3-3.4   s-0.2-2.8-0.3-4.5c-0.2-3.3-0.3-7.3-0.3-11.8s0.2-9.3,0.6-14.4s1.1-9.9,1.9-14.3c0.4-2.2,0.8-4.2,1.3-6.2c0.2-1,0.4-1.9,0.6-2.8   s0.5-1.7,0.7-2.5c0.4-1.6,0.9-3.1,1.3-4.3c0.2-0.6,0.4-1.2,0.6-1.8s0.4-1,0.5-1.5c0.3-0.8,0.6-1.5,0.8-2   C373.2,308.8,373.3,308.6,373.4,308.4z" class="st4"/><path data-cppathid="10129" d="M356.1,384.9c0-0.1,0-0.2,0-0.3c0-0.2,0-0.4-0.1-0.8c0-0.7-0.1-1.7-0.2-2.9c-0.2-2.5-0.4-6.2-0.7-10.7   c-0.6-9-1.4-21.5-2.9-35.2c-0.8-6.9-1.7-13.4-2.6-19.2c-0.5-3-0.9-5.8-1.5-8.4s-1-5-1.4-7.2s-0.9-4.2-1.3-6s-0.8-3.2-1.1-4.5   s-0.5-2.1-0.7-2.8c-0.1-0.3-0.1-0.5-0.2-0.7c0-0.1,0-0.2,0-0.3c0,0.1,0.1,0.2,0.1,0.2l0.2,0.7c0.2,0.7,0.4,1.6,0.8,2.8   s0.7,2.7,1.1,4.5s0.9,3.7,1.4,5.9s1,4.6,1.5,7.2s1,5.4,1.5,8.4c1,5.9,1.9,12.4,2.6,19.3c1.5,13.7,2.3,26.2,2.8,35.2   c0.2,4.5,0.4,8.2,0.5,10.7c0,1.2,0.1,2.2,0.1,2.9v0.8C356.2,384.7,356.1,384.8,356.1,384.9z" class="st4"/><path data-cppathid="10130" d="M359.8,293.6c-0.3-3.1-3.4-5.5-6.5-5.5c-3.2,0.1-6.1,1.7-7.9,4.3c-1.8,2.6-3.1,5.4-3.8,8.5   c-2.1,7.3-3.2,15-2.4,22.6s4,15,9.4,20.3c0.9,0.9,2,1.7,3.2,1.5c0.7-0.2,1.2-0.6,1.7-1c10.8-9.8,16.7-23.8,16.4-38.4   c-0.1-2.9-0.5-5.9-2-8.3S362.5,292.6,359.8,293.6" class="st12"/><path data-cppathid="10131" d="M336.5,268.7l-4.4,8c-0.1,0.2-0.2,0.4-0.5,0.4s-0.4-0.2-0.5-0.4l-11.6-17.8l2.7-1.5L336.5,268.7z" class="st10"/><path data-cppathid="10132" d="M336.5,268.7l-4.4,8c-0.1,0.2-0.2,0.4-0.5,0.4s-0.4-0.2-0.5-0.4l-11.6-17.8l2.7-1.5L336.5,268.7z" class="st13"/><path data-cppathid="10133" d="M360,283l-39.6-23.4c-0.4-0.2-0.8-0.5-1-1s0.3-1.1,0.7-1.6c5.5-5.7,13.2-8.8,21.2-8.3c8,0.6,15.1,5,19.1,11.9   C364.2,267.5,364.4,276.5,360,283" class="st12"/><path data-cppathid="10134" d="M326.1,252.2c0.2,0,0.3-0.1,0.5-0.1c0.3,0,0.9-0.1,1.5-0.1c1.8,0,3.7,0.1,5.5,0.4   c12.3,2.1,22.3,11.1,25.6,23.2c0.5,1.8,0.8,3.6,1,5.4c0,0.4,0.1,0.8,0.1,1.1c0,0.3-0.1,0.6-0.3,0.9c0.1-0.7,0.1-1.3,0.1-2   c-0.2-1.8-0.6-3.6-1.1-5.4c-4.1-13.7-16.5-23.2-30.8-23.5C326.8,252.2,326.1,252.2,326.1,252.2z" class="st4"/><path data-cppathid="10135" d="M354.7,266.9c-0.6,0.4-1.3,0.7-2,0.9c-1.3,0.5-3,1.1-5,1.8s-3.8,1.1-5.1,1.5c-0.7,0.2-1.4,0.4-2.2,0.4   c0.7-0.3,1.4-0.6,2.1-0.7l5-1.6l5-1.6C353.2,267.2,353.9,267,354.7,266.9z" class="st4"/><path data-cppathid="10136" d="M348.4,250.1c0.3,1.4,0.5,2.9,0.5,4.4c0.1,1.5,0,3-0.2,4.4c-0.2-1.5-0.3-2.9-0.2-4.4   C348.3,253.1,348.3,251.6,348.4,250.1z" class="st4"/><path data-cppathid="10137" d="M320.1,259.2c0.9-0.4,1.9-0.8,2.9-1c1.8-0.6,4.3-1.3,7.1-1.9c2.8-0.7,5.4-1.2,7.2-1.5c1-0.2,2-0.4,3-0.4   c-1,0.3-2,0.6-3,0.7c-1.8,0.4-4.4,1-7.2,1.6s-5.3,1.3-7.1,1.8C322,258.8,321,259,320.1,259.2z" class="st4"/><path data-cppathid="10138" d="M343.3,286.8c-3.4-2.6-7-3.1-11.3-2.9c-4.3,0.3-8.5,1.4-12.4,3.2c-6.7,2.9-13,7.2-17,13.4s-5.4,14.2-2.4,20.8   c0.2,0.7,0.7,1.3,1.4,1.6c0.7,0.2,1.5,0.2,2.2-0.2c7.6-2.5,15.2-5,22.2-8.9s13.4-9.3,17.1-16.3c1-1.7,1.6-3.5,1.8-5.4   C345.2,290.2,344.6,288.3,343.3,286.8" class="st12"/><path data-cppathid="10139" d="M343.4,286c-0.2,0.1-0.4,0.2-0.5,0.2l-1.6,0.5l-1.1,0.4c-0.4,0.1-0.9,0.3-1.4,0.5c-1,0.4-2.1,0.8-3.2,1.3   l-1.9,0.9c-0.6,0.3-1.3,0.7-2,1c-1.4,0.7-2.8,1.5-4.2,2.4c-6.4,4-12,8.9-16.8,14.8c-1.1,1.4-2.1,2.6-2.9,3.9   c-0.4,0.6-0.9,1.2-1.3,1.8l-1.1,1.7c-0.7,1.1-1.2,2.1-1.8,3c-0.2,0.5-0.5,0.9-0.7,1.3l-0.5,1.1c-0.3,0.6-0.5,1.1-0.8,1.5   c-0.1,0.2-0.2,0.4-0.3,0.5c0.1-0.2,0.1-0.4,0.2-0.5l0.7-1.5l0.5-1.1c0.2-0.4,0.4-0.8,0.7-1.3c0.5-0.9,1-2,1.7-3.1l1.1-1.8   c0.4-0.6,0.8-1.2,1.2-1.9c0.8-1.3,1.9-2.6,2.9-4c2.4-2.9,5-5.7,7.8-8.2c2.9-2.5,5.9-4.7,9.1-6.7c1.5-0.9,2.9-1.7,4.3-2.4   c0.7-0.4,1.3-0.7,2-1l1.9-0.8c1.2-0.6,2.3-0.9,3.3-1.3c0.5-0.2,0.9-0.4,1.4-0.5l1.2-0.4l1.6-0.5C343,286.1,343.2,286,343.4,286z" class="st4"/><path data-cppathid="10140" d="M316.8,300.4c-2.7,1-5.5,1.9-8.3,2.7c-2.8,0.9-5.6,1.6-8.4,2.2c2.7-1,5.5-1.9,8.3-2.7   C311.1,301.8,313.9,301,316.8,300.4z" class="st4"/><path data-cppathid="10141" d="M316.4,318.8c-0.1-0.9-0.2-1.7-0.2-2.6c0-1.6,0-3.8,0-6.2s0.2-4.6,0.3-6.2c0-0.9,0.1-1.7,0.3-2.6   c0.1,0.9,0.1,1.7,0,2.6c-0.1,1.8-0.1,3.9-0.2,6.2s-0.1,4.5-0.1,6.2C316.6,317,316.5,317.9,316.4,318.8z" class="st4"/><path data-cppathid="10142" d="M332.1,310.8c-0.1,0-0.5-4.5-0.9-10s-0.6-10-0.5-10.1s0.5,4.5,0.9,10S332.2,310.8,332.1,310.8z" class="st4"/><path data-cppathid="10143" d="M312.6,290.3c0.9-0.1,1.8-0.1,2.7-0.1c1.6,0,3.9,0.1,6.4,0.1s4.8,0.2,6.4,0.3c0.9,0,1.8,0.1,2.6,0.3   c-0.9,0.1-1.8,0.1-2.6,0.1c-1.6,0-3.9-0.1-6.4-0.1s-4.8-0.2-6.4-0.3C314.3,290.6,313.4,290.5,312.6,290.3z" class="st4"/><path data-cppathid="10144" d="M350.2,344.8c0-0.2-0.1-0.4-0.1-0.5c0-0.4,0-0.9-0.1-1.5c-0.1-1.3-0.1-3.2,0-5.6s0.2-5.2,0.5-8.3   s0.8-6.5,1.4-10.1s1.5-6.9,2.3-10s1.7-5.7,2.5-8s1.5-4,2-5.2c0.2-0.6,0.5-1,0.6-1.4c0.1-0.2,0.1-0.3,0.2-0.5c0,0.2-0.1,0.3-0.1,0.5   c-0.1,0.4-0.3,0.9-0.5,1.4c-0.5,1.2-1.1,3-1.9,5.3s-1.6,5-2.4,8s-1.6,6.4-2.2,9.9s-1.1,7-1.4,10.1s-0.5,5.9-0.6,8.3   s-0.1,4.3-0.1,5.6c0,0.6,0,1.1,0,1.5C350.3,344.5,350.2,344.7,350.2,344.8z" class="st4"/><path data-cppathid="10145" d="M352.3,318.9c-0.5,0.6-1,1.2-1.6,1.7c-1,1-2.5,2.4-4.1,3.9s-3.2,2.7-4.4,3.6c-0.6,0.5-1.2,1-1.9,1.3   c0.5-0.6,1.1-1.1,1.7-1.6l4.3-3.7l4.2-3.7C351,319.8,351.6,319.3,352.3,318.9z" class="st4"/><path data-cppathid="10146" d="M364.8,329c-0.6-0.7-1.2-1.5-1.7-2.3l-3.9-5.7c-1.5-2.1-2.9-4.1-4-5.7c-0.6-0.8-1.1-1.6-1.6-2.4   c0.7,0.7,1.3,1.4,1.9,2.2c1.1,1.4,2.6,3.4,4.1,5.6s2.9,4.3,3.8,5.8C364,327.3,364.5,328.1,364.8,329z" class="st4"/><path data-cppathid="10147" d="M358.3,297.2c0.1,0.1-4.1,2.9-9.3,6.3s-9.5,6-9.6,5.9s4.1-2.9,9.3-6.3S358.2,297.1,358.3,297.2z" class="st4"/><path data-cppathid="10148" d="M370,309.9c-2.2-1.8-4.3-3.8-6.3-5.8c-2.1-1.9-4.1-4-6-6.2c2.2,1.8,4.3,3.8,6.3,5.8   C366.1,305.7,368.1,307.7,370,309.9z" class="st4"/><path data-cppathid="10149" d="M373,309.6l3.6-0.3c2.5-0.2,5-1,7.2-2.2c1.1-0.6,2.2-1.2,3.4-1.7c4.4-1.8,9.4-1.5,14.1-1.7   c7.8-0.4,15.4-2.4,22.5-5.7c0.4-0.2,0.8-0.5,1-0.9c0.7-1.3-0.6-2.5-1.8-3.3c-6-3.7-12.2-7.5-19-9.3s-14.6-1.5-20.4,2.5   C376.6,291.7,374.1,301.4,373,309.6" class="st12"/><path data-cppathid="10150" d="M424.8,296.7l-0.6-0.3l-1.7-0.9c-1.5-0.8-3.6-1.9-6.3-3.2c-3.1-1.5-6.4-2.8-9.7-3.7c-4.1-1.2-8.4-1.5-12.6-1   c-4.2,0.5-8.2,2.2-11.5,4.9c-2.6,2.4-4.6,5.2-6,8.4c-1,2.1-1.8,4.3-2.6,6.5c-0.3,0.8-0.5,1.4-0.6,1.8c-0.1,0.2-0.1,0.4-0.2,0.6   c0-0.2,0.1-0.4,0.2-0.6c0.1-0.5,0.3-1.1,0.6-1.8c0.7-2.3,1.5-4.5,2.5-6.6c1.4-3.2,3.4-6.2,6-8.6c3.3-2.8,7.4-4.6,11.7-5.1   c4.3-0.5,8.6-0.2,12.7,1.1c3.4,1,6.6,2.3,9.7,3.9c2.7,1.3,4.8,2.5,6.2,3.3l1.6,1C424.4,296.4,424.6,296.6,424.8,296.7z" class="st4"/><path data-cppathid="10151" d="M416.2,301.3c-0.1,0.1-4.8-2.9-10.5-6.8s-10.2-7-10.2-7.1s4.8,2.9,10.5,6.8S416.2,301.2,416.2,301.3z" class="st4"/><path data-cppathid="10152" d="M411.2,287.1c-1.1,0.4-2.2,0.6-3.4,0.6c-1.2,0.2-2.3,0.2-3.5,0c1.1-0.2,2.3-0.3,3.4-0.4   C408.9,287.2,410,287.1,411.2,287.1z" class="st4"/><path data-cppathid="10153" d="M390.7,284.5c-0.4,0.9-0.9,1.7-1.5,2.4c-0.5,0.8-1.2,1.6-2,2.2c0.4-0.9,0.9-1.7,1.5-2.4   C389.3,285.9,389.9,285.1,390.7,284.5z" class="st4"/><path data-cppathid="10154" d="M394.9,304.1c-0.8-0.3-1.5-0.7-2.2-1.2c-1.4-0.8-3.2-2-5.1-3.4s-3.7-2.8-4.9-3.7c-0.7-0.5-1.4-1-2-1.7   c0.8,0.4,1.5,0.9,2.1,1.4l5,3.6c2,1.4,3.7,2.6,5,3.5C393.5,303,394.2,303.5,394.9,304.1z" class="st4"/><path data-cppathid="10155" d="M378.2,324.8c-3.4-0.9-7.5,2.4-8.2,5.9s0.6,7,2.1,10.2c3.3,7.1,8.1,13.4,14.1,18.5c6.1,5,13.7,7.8,21.6,7.9   c-1.4-6.7,0.4-13.7-0.4-20.5c-1.5-12.3-11.2-22-23.6-23.4C381.7,323.2,379.1,322.8,378.2,324.8" class="st12"/><path data-cppathid="10156" d="M407.8,367.3c-0.2-0.1-0.3-0.1-0.5-0.2c-0.4-0.2-0.9-0.5-1.3-0.9c-1.4-1.2-2.6-2.8-3.4-4.5   c-0.5-1.1-1.1-2.2-1.7-3.5l-1.8-4.1c-0.7-1.5-1.4-2.9-2.2-4.3c-0.9-1.5-2-2.9-3.1-4.2c-2.3-2.7-4.8-5.1-7-7.4c-2-2-3.8-4.1-5.4-6.4   c-1.1-1.6-1.9-3.2-2.6-5c-0.2-0.6-0.4-1.1-0.5-1.5c-0.1-0.2-0.1-0.3-0.1-0.5c0,0,0.2,0.7,0.7,1.9c0.7,1.7,1.6,3.4,2.7,4.9   c1.6,2.2,3.4,4.4,5.4,6.3c2.2,2.2,4.7,4.6,7.1,7.4c1.2,1.3,2.2,2.8,3.1,4.3c0.8,1.4,1.6,2.9,2.3,4.4l1.8,4.1   c0.6,1.3,1.2,2.4,1.7,3.5c0.7,1.7,1.8,3.2,3.2,4.5C407.2,366.9,407.8,367.3,407.8,367.3z" class="st4"/><path data-cppathid="10157" d="M390.2,361.7c0-0.8,0.1-1.5,0.3-2.3c0.3-1.4,0.7-3.3,1.3-5.4s1.2-4,1.7-5.3c0.2-0.7,0.5-1.4,0.9-2.1   c-0.1,0.8-0.3,1.5-0.6,2.2c-0.4,1.4-1,3.2-1.6,5.3s-1.1,4-1.4,5.4C390.7,360.3,390.5,361,390.2,361.7z" class="st4"/><path data-cppathid="10158" d="M407.2,345.3c-0.8-0.1-1.6-0.3-2.4-0.6c-1.5-0.4-3.5-0.9-5.8-1.4s-4.3-0.9-5.8-1.2c-0.8-0.1-1.6-0.3-2.4-0.5   c0.8,0,1.7,0,2.5,0.2c1.5,0.2,3.6,0.5,5.9,1s4.3,1.1,5.8,1.6C405.7,344.6,406.5,344.9,407.2,345.3z" class="st4"/><path data-cppathid="10159" d="M377.5,350.1c0-0.9,0.2-1.8,0.4-2.6c0.3-1.6,0.8-3.9,1.4-6.3s1.3-4.6,1.9-6.2c0.3-0.9,0.6-1.7,1-2.5   c-0.1,0.9-0.4,1.8-0.6,2.6c-0.5,1.6-1.1,3.8-1.7,6.2s-1.2,4.7-1.5,6.3C378.1,348.4,377.9,349.2,377.5,350.1z" class="st4"/><path data-cppathid="10160" d="M399.4,331c-3.2-0.1-6.4-0.4-9.5-0.8c-3.2-0.3-6.3-0.7-9.5-1.2c0-0.1,4.3,0.2,9.5,0.8S399.4,330.8,399.4,331z" class="st4"/><path data-cppathid="10161" d="M396.2,382.6c0,0.1-15,0.2-33.4,0.2s-33.4-0.1-33.4-0.2s15-0.2,33.4-0.2S396.2,382.5,396.2,382.6z" class="st8"/><path data-cppathid="10162" d="M385.8,401.9c0,0.1-10.1,0.2-22.5,0.2s-22.5-0.1-22.5-0.2s10.1-0.2,22.5-0.2S385.8,401.8,385.8,401.9z" class="st8"/><path data-cppathid="10163" d="M385.4,404.6c0,0.1-9.9,0.2-22.1,0.2s-22.1-0.1-22.1-0.2s9.9-0.2,22.1-0.2S385.4,404.5,385.4,404.6z" class="st8"/><path data-cppathid="10164" d="M386.2,399.6c0,0.1-10.4,0.2-23.3,0.2s-23.3-0.1-23.3-0.2s10.4-0.2,23.3-0.2S386.2,399.5,386.2,399.6z" class="st8"/></g><g id="Character"><path data-cppathid="10165" d="M70,376.3l-27.1,22.2l27.5,33.9c3.1-2.8-4.6-25.6-4.6-25.6l17.9-13.5L70,376.3z" class="st8"/><g class="st14"><path data-cppathid="10166" d="M58.7,395.1c-0.8-0.5-1.8-0.4-2.4,0.3c-0.5,0.7-0.4,1.8,0.3,2.3c0.8,0.5,1.9,0.4,2.5-0.4    c0.5-0.8,0.2-1.9-0.6-2.4" class="st15"/></g><g class="st14"><path data-cppathid="10167" d="M43,398.4l2.7-2.3l25.2,33.6c0,0,0.6,2-0.6,2.7L43,398.4z" class="st15"/></g><path data-cppathid="10168" d="M66.4,407.2c-0.2,0.1-0.9-0.6-2.1-1c-1.2-0.4-2.2-0.2-2.3-0.5s1.1-0.7,2.5-0.2C65.9,406,66.5,407.1,66.4,407.2   z" class="st4"/><path data-cppathid="10169" d="M67.8,411.9c-0.1,0.2-1-0.3-2.2-0.3c-1.1,0-2,0.4-2.1,0.3s0.7-1,2.2-1S67.9,411.8,67.8,411.9z" class="st4"/><path data-cppathid="10170" d="M65.2,417.4c-0.2-0.1,0.5-1,1.7-1.3s2.2,0.2,2.2,0.4c-0.1,0.2-1,0.1-2,0.4S65.3,417.5,65.2,417.4z" class="st4"/><path data-cppathid="10171" d="M70.1,403.6c-0.2,0-0.6-0.9-1.4-1.8c-0.8-0.9-1.7-1.4-1.6-1.6c0.1-0.2,1.2,0,2.2,1.1   C70.2,402.4,70.3,403.6,70.1,403.6z" class="st4"/><path data-cppathid="10172" d="M73.5,399.6c-0.1,0.1-0.7-0.5-1.4-1.7c-0.6-1.1-1-2.3-1.2-3.6c0-0.3,0-0.6,0-0.8c0.1-0.4,0.4-0.7,0.8-0.8   c0.4,0,0.8,0.1,1,0.4c0.2,0.2,0.3,0.5,0.4,0.7c0.2,0.4,0.4,0.9,0.5,1.4c0.2,0.8,0.3,1.6,0.2,2.4c0,0.7-0.2,1.5-0.6,2.1   c-0.1,0,0.1-0.8,0-2.1c0-0.7-0.2-1.5-0.4-2.2c-0.1-0.4-0.3-0.8-0.5-1.2c-0.2-0.4-0.4-0.7-0.7-0.7c-0.2,0-0.1,0-0.2,0.2   c0,0.2,0,0.4,0,0.6c0.1,0.4,0.1,0.9,0.2,1.3c0.2,0.7,0.4,1.5,0.7,2.1C72.9,398.3,73.2,398.9,73.5,399.6z" class="st4"/><path data-cppathid="10173" d="M73.1,399.5c-0.1,0,0.2-0.9,1.3-1.8c0.6-0.5,1.3-1,2.1-1.3c0.4-0.2,0.9-0.3,1.4-0.4c0.6-0.2,1.3,0,1.7,0.4   c0.2,0.3,0.3,0.7,0.1,1.1c-0.1,0.2-0.3,0.5-0.5,0.7c-0.3,0.4-0.7,0.7-1.1,0.9c-0.7,0.4-1.5,0.7-2.3,0.7c-0.8,0.1-1.5-0.1-2.1-0.5   c0.7,0,1.4,0,2.1,0c0.7-0.1,1.4-0.4,2-0.8c0.4-0.2,0.7-0.5,1-0.8c0.3-0.3,0.5-0.7,0.4-0.8c-0.3-0.2-0.7-0.2-1-0.1   c-0.4,0.1-0.9,0.2-1.3,0.3c-0.7,0.2-1.4,0.6-2,1C73.6,398.9,73.2,399.6,73.1,399.5z" class="st4"/><path data-cppathid="10174" d="M57.7,394.4l0.3,35l43.6-0.2c-0.3-4.2-22.9-12.4-22.9-12.4l0.7-22.5L57.7,394.4z" class="st8"/><g class="st14"><path data-cppathid="10175" d="M65.3,415c-0.8,0.3-1.4,1.1-1.2,2c0.2,0.9,1.1,1.4,2,1.2c0.9-0.3,1.5-1.2,1.3-2.2c-0.3-0.9-1.3-1.4-2.2-1" class="st15"/></g><g class="st14"><path data-cppathid="10176" d="M58,429.4v-3.5l42,1.4c0,0,1.9,0.9,1.7,2.2L58,429.4z" class="st15"/></g><path data-cppathid="10177" d="M79.5,416.7c0,0.2-1.1,0.3-2.1,1c-1,0.7-1.6,1.6-1.8,1.5c-0.2-0.1,0.1-1.3,1.4-2.1S79.6,416.5,79.5,416.7z" class="st4"/><path data-cppathid="10178" d="M84.1,418.5c0,0.2-0.9,0.6-1.6,1.5c-0.7,0.9-0.9,1.9-1.1,1.9c-0.2,0-0.3-1.2,0.6-2.3   C82.8,418.4,84.1,418.3,84.1,418.5z" class="st4"/><path data-cppathid="10179" d="M86.7,424c-0.2,0-0.5-1,0-2.2s1.5-1.6,1.6-1.5s-0.5,0.8-1,1.8C86.9,423.1,86.9,424,86.7,424z" class="st4"/><path data-cppathid="10180" d="M79.1,411.5c-0.1,0.2-1.1-0.1-2.3,0s-2.1,0.5-2.2,0.3s0.8-1,2.2-1S79.2,411.3,79.1,411.5z" class="st4"/><path data-cppathid="10181" d="M78,406.3c-0.7,0.2-1.5,0.2-2.2,0c-0.8-0.1-1.6-0.4-2.3-0.7c-0.4-0.2-0.8-0.4-1.2-0.7   c-0.2-0.1-0.5-0.3-0.7-0.5c-0.3-0.3-0.3-0.8-0.1-1.1c0.2-0.3,0.6-0.5,0.9-0.5c0.3,0,0.6,0,0.8,0.1c0.5,0.1,0.9,0.3,1.4,0.5   c0.7,0.3,1.4,0.8,2,1.3c1,0.9,1.4,1.7,1.3,1.8c-0.1,0-0.6-0.6-1.6-1.4c-0.6-0.5-1.3-0.8-2-1.1c-0.4-0.2-0.8-0.3-1.3-0.4   c-0.5-0.1-0.9-0.1-1,0.1c-0.2,0.2,0,0.1,0.1,0.2c0.1,0.1,0.3,0.3,0.5,0.4c0.4,0.2,0.8,0.5,1.2,0.6c0.7,0.3,1.4,0.6,2.1,0.8   C76.6,405.9,77.3,406.1,78,406.3z" class="st4"/><path data-cppathid="10182" d="M77.8,406.6c-0.4-0.6-0.6-1.4-0.6-2.1c0-0.8,0-1.6,0.3-2.4c0.1-0.5,0.3-0.9,0.6-1.3c0.2-0.6,0.8-1,1.4-1.1   c0.4,0,0.8,0.2,0.9,0.6c0.1,0.3,0.2,0.5,0.2,0.8c0.1,0.5,0.1,1,0,1.5c-0.1,0.8-0.4,1.6-0.9,2.3c-0.9,1.1-1.7,1.4-1.8,1.3   c0-0.1,0.7-0.5,1.3-1.6c0.4-0.6,0.6-1.3,0.7-2c0-0.4,0-0.8,0-1.2c-0.1-0.5-0.2-0.8-0.4-0.8s-0.6,0.4-0.8,0.7   c-0.2,0.4-0.4,0.8-0.5,1.2c-0.2,0.7-0.4,1.4-0.4,2.2C77.6,405.8,77.8,406.6,77.8,406.6z" class="st4"/><path data-cppathid="10183" d="M61.5,191.4c0,0-6.1,6.5-9.1,12.8s-4.9,21.2-4.9,21.2s-8.4,18.8-7.2,28.4c1.3,9.6,9.9,75.4,9.9,75.4   s-0.4,63.9,5.7,75.3l1.4,6.2l24.6-4.4l0,0l-0.2-3.7l5.8-125.4l14.8-85.3L61.5,191.4z" class="st4"/><path data-cppathid="10184" d="M115.7,210.1c0,0,14.7,80.9,16,95S83,393.2,83,393.2l-22.9-23.9l32.8-61l-10.7-61.5l14.8-54.4l15.6,0.5   L115.7,210.1z" class="st4"/><path data-cppathid="10185" d="M52,384.7c0,0.6,0.1,1.2,0.2,1.8c0.2,1.2,0.4,2.9,0.8,5.1c0.8,4.5,2.2,10.9,3.9,19v0.2h0.2l24.6-4.3h0.2v-0.2   c0.7-16.9,1.5-37,2.4-58.7c0.9-23.3,1.8-44.9,2.4-62.5l0,0c1.8-14.2,3.4-26,4.4-34.2c0.5-4.1,0.9-7.3,1.2-9.5l0.3-2.5   c0.1-0.6,0.1-0.9,0.1-0.9s-0.1,0.3-0.1,0.9s-0.2,1.4-0.4,2.5c-0.3,2.2-0.8,5.4-1.3,9.5c-1.1,8.2-2.7,20-4.6,34.2l0,0   c-0.7,17.7-1.6,39.3-2.5,62.5c-0.8,21.6-1.6,41.8-2.3,58.7l0.2-0.2l-24.6,4.4l0.2,0.1c-1.8-8-3.2-14.5-4.1-18.9   c-0.4-2.2-0.8-3.9-0.9-5.1c-0.1-0.6-0.2-1-0.2-1.3C52,385,52,384.9,52,384.7z" class="st8"/><path data-cppathid="10186" d="M96.1,54.9c0.7-4.3-2.5-8.6-6.7-9.9s-8.8,0-12.4,2.5c-2.7,1.8-4.9,4.3-7.7,5.9c-2.6,1.5-5.5,2.1-8,3.7   c-4,2.5-6.5,6.8-6.6,11.5c-0.1,3.2,1,6.6-0.5,9.5c-1.6,3.1-5.5,4.4-7.3,7.4c-1.6,2.7-1.1,6.1-0.3,9.2c0.8,3.1,1.7,6.3,0.8,9.3   c-0.8,2.8-3,4.9-4.3,7.5c-2.4,5.4-0.3,11.8,4.8,14.8l26.4-10.7L96.1,54.9z" class="st4"/><path data-cppathid="10187" d="M96.4,53.2c4.1-0.4,7.8,2.8,9.3,6.6s1.5,8,1.6,12.1s0.3,8.3,2.3,11.9c1.1,1.9,2.6,3.4,3.8,5.2   c1.4,1.7,2,3.8,1.9,6c-0.5,3.9-4.7,6.2-5.8,10c-0.9,3,0.5,6.3-0.2,9.4c-0.7,2.4-2.2,4.4-4.3,5.6c-2.1,1.2-4.4,2.1-6.8,2.7L85,112.5   l3.2-60.1L96.4,53.2z" class="st4"/><path data-cppathid="10188" d="M67.3,73.6l1.6,42.7c0.3,7,6.1,12.5,13.2,12.2c0.2,0,0.4,0,0.6,0l0,0c6.6-0.6,11.6-6.3,11.2-13   c-0.1-3.2-0.1-7,0-7.3c0,0,10.7-2.4,11.1-13.2c0.2-5.2,0.1-14-0.5-23.7c-0.6-10.5-9.1-18.8-19.6-19h-1   C72.5,52.7,66.6,62.4,67.3,73.6z" class="st16"/><path data-cppathid="10189" d="M93.8,108.1c-5,0-9.9-1.5-14-4.3c0,0,3.1,7.8,13.9,7.1L93.8,108.1z" class="st17"/><path data-cppathid="10190" d="M101.8,80.8c0,0.8-0.7,1.5-1.5,1.5c-0.8,0-1.5-0.6-1.5-1.4c0,0,0,0,0,0c0-0.8,0.7-1.5,1.5-1.5   C101,79.3,101.7,79.9,101.8,80.8C101.7,80.7,101.7,80.8,101.8,80.8z" class="st4"/><path data-cppathid="10191" d="M102,77.1c-0.2,0.2-1.3-0.7-3-0.7c-1.7,0-2.9,0.8-3.1,0.6c-0.2-0.2,0.1-0.4,0.6-0.8c0.7-0.5,1.6-0.7,2.5-0.7   c0.9,0,1.7,0.3,2.4,0.8C101.9,76.7,102.1,77.1,102,77.1z" class="st4"/><path data-cppathid="10192" d="M86.1,80.8c0,0.8-0.7,1.5-1.5,1.5c-0.8,0-1.5-0.6-1.5-1.4c0,0,0,0,0,0c0-0.8,0.7-1.5,1.5-1.5   C85.3,79.3,86,79.9,86.1,80.8C86,80.7,86,80.8,86.1,80.8z" class="st4"/><path data-cppathid="10193" d="M86.1,77.4c-0.2,0.2-1.3-0.7-3-0.7s-2.9,0.8-3.1,0.6c-0.2-0.2,0.1-0.4,0.7-0.8c0.7-0.5,1.6-0.7,2.5-0.7   c0.9,0,1.7,0.3,2.4,0.8C86.1,76.9,86.2,77.3,86.1,77.4z" class="st4"/><path data-cppathid="10194" d="M91.3,88.8c0.9-0.2,1.8-0.4,2.7-0.4c0.4,0,0.8-0.1,0.9-0.4c0-0.4,0-0.9-0.3-1.3c-0.4-1-0.8-2.1-1.2-3.2   c-1.6-4.6-2.8-8.4-2.6-8.5c0.2-0.1,1.7,3.6,3.3,8.3c0.4,1.1,0.8,2.2,1.1,3.3c0.3,0.5,0.3,1.1,0.2,1.7c-0.1,0.3-0.4,0.5-0.7,0.6   c-0.2,0.1-0.5,0.1-0.7,0.1C93.2,89,92.2,88.9,91.3,88.8z" class="st4"/><path data-cppathid="10195" d="M85.6,70.9c-0.2,0.4-1.8,0.1-3.8,0.3s-3.6,0.6-3.8,0.2c-0.1-0.2,0.2-0.6,0.9-1c0.9-0.6,1.9-0.8,3-0.8   c0.9-0.1,1.9,0,2.8,0.4C85.4,70.3,85.7,70.7,85.6,70.9z" class="st4"/><path data-cppathid="10196" d="M102.6,70.8c-0.3,0.4-1.7,0-3.3-0.1c-1.6-0.1-3,0.2-3.3-0.2c-0.1-0.2,0.1-0.6,0.7-0.9c1.7-0.9,3.7-0.8,5.3,0.2   C102.6,70.2,102.8,70.6,102.6,70.8z" class="st4"/><path data-cppathid="10197" d="M91.8,94.1c-0.1-0.3-0.2-0.7-0.3-1c-0.4-0.7-1.1-1.1-1.9-1.2c-0.8,0-1.5,0.2-2.1,0.8   c-0.5,0.4-0.8,1.1-0.8,1.8c0,0.2,0.1,0.4,0.1,0.5c0.4,0.9,1.2,1.6,2.2,1.9c1,0.2,2-0.2,2.6-1.1c0.2-0.2,0.3-0.5,0.3-0.8   C92,94.7,91.9,94.4,91.8,94.1z" class="st17"/><path data-cppathid="10198" d="M68.9,88c-0.1,0-0.1,0-0.1,0.1c0,0.1,0.1,0.1,0.1,0.1c0,0,0,0,0,0C69,88.1,69,88.1,68.9,88   C69,88,69,88,68.9,88C68.9,88,68.9,88,68.9,88" class="st4"/><path data-cppathid="10199" d="M69.1,87.6c-0.1,0-0.1,0-0.1,0.1c0,0,0,0,0,0c0,0.1,0.1,0.1,0.1,0.1c0,0,0,0,0,0   C69.2,87.7,69.2,87.6,69.1,87.6C69.1,87.6,69.1,87.6,69.1,87.6C69.1,87.5,69,87.5,69.1,87.6" class="st4"/><path data-cppathid="10200" d="M93.3,94.8c0,0.1-0.4,0.4-1.2,0.5c-1.1,0.2-2.2,0-3.1-0.5c-1-0.5-1.8-1.3-2.2-2.3c-0.3-0.7-0.4-1.2-0.2-1.3   c0.3-0.1,1,1.7,2.9,2.7c0.8,0.4,1.7,0.6,2.6,0.7C92.8,94.7,93.2,94.7,93.3,94.8z" class="st4"/><path data-cppathid="10201" d="M63.2,83c-2.5-8.7-1.2-18.6,4.3-25.8s15.6-10.8,24.1-7.9c1.2,0.4,2.4,1,3.3,1.9c0.9,0.9,1.3,2.2,1,3.5   c-0.6,1.9-2.9,2.7-4.9,2.8s-4.2-0.2-5.9,0.9c-3.1,1.8-3,6.3-5.2,9.1c-1.1,1.4-2.7,2.3-3.6,3.8c-2.6,3.9-0.5,6.3-2.1,10.7   c-0.5,1.2-2.6,2.3-3.9,2.5c-1.3,0.2-0.3,0.2-3-0.1l0,0L63.2,83z" class="st4"/><path data-cppathid="10202" d="M71.1,84.4c-0.2-0.1-7.2-2.6-7.4,4.8s7.2,6,7.2,5.8C70.9,94.7,71.1,84.4,71.1,84.4z" class="st16"/><path data-cppathid="10203" d="M68.7,92.1c0,0-0.1,0.1-0.4,0.2c-0.3,0.1-0.7,0.1-1,0C66.6,92,66,90.8,66,89.5c0-0.6,0.1-1.2,0.4-1.8   c0.1-0.5,0.5-0.9,1-1c0.3-0.1,0.6,0.1,0.8,0.4c0.1,0.2,0,0.3,0.1,0.4s0.2-0.1,0.1-0.4c0-0.2-0.1-0.3-0.3-0.5   c-0.2-0.2-0.4-0.2-0.7-0.2c-0.6,0.1-1.1,0.5-1.4,1.1c-0.3,0.6-0.5,1.3-0.5,2c0,1.5,0.7,2.9,1.8,3.2c0.4,0.1,0.8,0.1,1.2-0.2   C68.7,92.3,68.8,92.2,68.7,92.1z" class="st17"/><path data-cppathid="10204" d="M54.9,70.1c1.6,0.7,3.2,1.1,4.9,1.2c1.8,0,3.7-0.2,5.4-0.8c2.1-0.8,4.1-1.8,6-3.1c2-1.4,3.8-2.8,5.4-4.1   c1.6-1.3,3.1-2.5,4.5-3.3c1-0.7,2.1-1.3,3.3-1.9c0.4-0.2,0.8-0.4,1.3-0.5c0,0-0.4,0.2-1.2,0.7c-1.1,0.6-2.1,1.3-3.1,2   c-1.3,0.9-2.8,2.1-4.4,3.4c-1.6,1.3-3.4,2.8-5.4,4.2c-1.9,1.3-4,2.4-6.1,3.1c-1.8,0.6-3.7,0.8-5.6,0.8c-1.3-0.1-2.5-0.3-3.7-0.8   c-0.3-0.1-0.6-0.3-0.9-0.5C55,70.2,54.9,70.2,54.9,70.1z" class="st8"/><path data-cppathid="10205" d="M54.3,70.8c0-0.1,1,0.5,2.8,1.3c2.2,1,4.5,1.8,6.9,2.3c2.4,0.5,4.8,0.7,7.3,0.7c1.9,0,3-0.2,3.1-0.1   c-0.3,0.1-0.5,0.2-0.8,0.2c-0.7,0.1-1.5,0.2-2.2,0.3c-5,0.3-10-0.7-14.4-3c-0.7-0.3-1.3-0.7-1.9-1.2C54.5,71.1,54.3,70.9,54.3,70.8   z" class="st8"/><path data-cppathid="10206" d="M107.1,66.4c-2.5-0.4-4.6-2.2-5.5-4.6c0.8,0.9,1.6,1.8,2.4,2.7C105,65.2,106,65.8,107.1,66.4z" class="st8"/><path data-cppathid="10207" d="M106.8,73.5c0.1,0.1-0.3,0.5-1,0.8s-1.2,0.1-1.2,0c0-0.1,0.5-0.3,1.1-0.5C106.2,73.6,106.7,73.4,106.8,73.5z" class="st8"/><path data-cppathid="10208" d="M147.7,162.3c-0.1-2.2,0.5-4.5,1.7-6.4c1.9-2.6,6-3.8,6.3-5.6s3.5-5.4,5-4.6s2.2,2.8,0,5.1   c-1.4,1.5-2.7,3.1-3.9,4.8c0,0,19.4-3.4,20.9-3.1s2.8,0.5,2.9,1.7s-3.8,1.5-3.8,1.5l-6.3,4.4c-1.5,2-3.2,3.8-5.1,5.3   c-2.2,1.3-4.6,2.2-7.1,2.5l-6.7,4.3C151.6,172.2,144.9,167.4,147.7,162.3z" class="st16"/><path data-cppathid="10209" d="M176.4,155.9c0,0-0.1-0.1-0.3-0.4c-0.3-0.3-0.7-0.5-1.1-0.5c-1.4,0-2.9,0.4-4.1,1.2c-1.2,0.8-2.4,1.8-3.4,2.8   c-0.4,0.5-0.9,0.9-1.4,1.3c0.3-0.5,0.7-1.1,1.1-1.5c1-1.2,2.1-2.2,3.4-3c1.3-0.9,2.8-1.3,4.4-1.1c0.5,0.1,0.9,0.3,1.2,0.7   C176.4,155.7,176.4,155.9,176.4,155.9z" class="st17"/><path data-cppathid="10210" d="M169.6,156.1c-1.9,0.7-3.9,1.2-5.9,1.3C165.5,156.6,167.5,156.2,169.6,156.1z" class="st17"/><path data-cppathid="10211" d="M159.6,157c2.1-0.1,3.9,1.3,4.5,3.3c-0.6-0.7-1.3-1.4-2-2C161.3,157.8,160.4,157.4,159.6,157z" class="st17"/><path data-cppathid="10212" d="M110.2,119.2c0,0,9.6,4.9,11.9,11.3c1.2,3.4,8.4,39.2,8.4,39.2l14.5-9.9l9.8,14.8l-23.2,18.1   c-4.5,1.2-9.3,0.8-13.7-1c-1.6-0.7-2.9-1.4-3.2-2.3C113.8,186.9,110.2,119.2,110.2,119.2z" class="st18"/><g class="st19"><path data-cppathid="10213" d="M124.3,175.6c-1.6,2.4-2.3,5.6-1.2,8.2c0.1,0.2,0.2,0.5,0.4,0.6c0.5,0.3,1.1,0,1.4-0.5c0.2-0.5,0.4-1.1,0.3-1.6    c0.3-4.7,2.1-9.1,5.2-12.6v-0.1C128.2,171.2,126.1,173.3,124.3,175.6z"/></g><path data-cppathid="10214" d="M42.7,124l27.6-8.9c5.4,14.2,22.6,11.8,23.5,0.4l16.4,3.9c0,0,5.5,34.8,4.2,42c-2.1,11.6,3.2,49.4,6.1,63   c2.5,11.8-4.7,18.8-8.4,22c-18.4,16.3-28,14.1-41.5,5.6c-9.5-5.7-19.4-10.6-29.8-14.6c1.3-15.8,10.1-32.1,15.7-43.9l0,0l-2.6-27.5   L42.7,124z" class="st18"/><path data-cppathid="10215" d="M119.9,220.2c-0.1-0.3-0.2-0.5-0.2-0.8c-0.1-0.5-0.3-1.3-0.6-2.3c-0.5-2-1.1-5-1.7-8.7s-1.2-8.1-1.7-13   s-0.7-10.3-0.8-16s-0.2-11.1-0.5-16c-0.3-4.3-0.9-8.7-1.8-12.9c-0.6-2.9-1.5-5.7-2.6-8.4c-0.4-1-0.7-1.7-0.9-2.2   c-0.1-0.3-0.2-0.5-0.3-0.8c0.2,0.2,0.3,0.5,0.4,0.7c0.2,0.5,0.6,1.2,1,2.2c1.2,2.7,2.1,5.5,2.8,8.4c1,4.3,1.7,8.6,2,12.9   c0.4,4.9,0.5,10.4,0.6,16s0.3,11.1,0.8,16s1,9.3,1.6,13s1.1,6.6,1.6,8.7c0.2,1,0.4,1.8,0.5,2.4   C119.9,219.6,119.9,219.9,119.9,220.2z" class="st4"/><g class="st19"><path data-cppathid="10216" d="M82.6,198.5c-5.8-0.3-11.8-0.5-17.2,1.5c-8.3,3.1-13.8,10.8-21.1,15.8l0.7,0.2c6.8,3.8,15.2,3.3,21.6-1.3    c3-2.3,5.4-5.4,8.9-6.8c1.5-0.6,3.2-0.8,4.6-1.6C82.8,204.7,83.9,201.4,82.6,198.5z"/></g><path data-cppathid="10217" d="M42.7,124.1c-3.1,1.8-5.6,4.6-7,7.9c-1.9,4.5-7,65.8-6.1,69.7s5,9.8,11.8,12.8c5.7,2.6,20.5-3.7,26.5-5.9   c0.2-0.1-1.3-2.4-2-3.9l-5.1-16.1l-8.1,0.9l3-30.4L42.7,124.1z" class="st18"/><path data-cppathid="10218" d="M51.7,144.7c0.2,0.6,0.3,1.1,0.4,1.7c0.2,1.1,0.5,2.7,0.7,4.7c0.5,4,1,9.6,1.4,15.7l1.1,15.7   c0.2,1.9,0.3,3.5,0.4,4.8c0.1,0.6,0.1,1.2,0.1,1.7c-0.2-0.6-0.3-1.1-0.3-1.7c-0.2-1.1-0.4-2.7-0.6-4.7c-0.4-4-0.8-9.6-1.3-15.7   s-0.9-11.7-1.3-15.7c-0.2-2-0.4-3.6-0.6-4.7C51.8,145.8,51.8,145.2,51.7,144.7z" class="st4"/><path data-cppathid="10219" d="M62,188c-0.9,0.2-1.7,0.4-2.6,0.6c-1.7,0.3-4,0.7-6.8,1.1h-0.1h-0.1c-1.5-0.7-3-1-4.6-1.1   c-1.8-0.1-3.7,0.2-5.4,0.9c-1.4,0.6-2.7,1.4-3.8,2.4c-1,1-1.9,2.1-2.6,3.2c0.1-0.4,0.3-0.7,0.5-1c0.5-0.9,1.2-1.7,1.9-2.5   c1.1-1.1,2.4-2,3.8-2.6c1.8-0.8,3.7-1.1,5.6-1c1.7,0.1,3.3,0.5,4.8,1.2h-0.1c2.8-0.4,5.1-0.7,6.8-0.9C60.2,188.2,61.1,188.1,62,188   z" class="st4"/><path data-cppathid="10220" d="M66,204.8c0.2,0.3,0.5,0.6,0.6,1l1.5,2.7l0.1,0.2l-0.2,0.1c-2.8,1.1-6.8,2.6-11.4,4.3l-3.9,1.4l-0.1-0.5l0,0   l0.1,0.5h-0.1l-0.1-0.5h0.1l0.1,0.5c-2.8,0.9-5.7,1.2-8.6,0.8c-0.8-0.1-1.7-0.3-2.5-0.5c-0.3-0.1-0.6-0.2-0.9-0.3   c0-0.1,1.2,0.3,3.4,0.5c2.8,0.3,5.7,0,8.4-0.9l0.1,0.5l0,0l0,0l-0.1-0.5h0.1l0.1,0.5l0,0l-0.2-0.5l3.9-1.4   c4.5-1.7,8.6-3.1,11.4-4.1l-0.1,0.2l-1.4-2.8C66.3,205.6,66.1,205.2,66,204.8z" class="st4"/><path data-cppathid="10221" d="M130.7,169.5c-1,1.2-1.9,2.4-2.8,3.7c-1.3,2.2-1.8,4.2-1.9,4.2c0.1-1.6,0.6-3.1,1.5-4.4   C128.2,171.5,129.3,170.3,130.7,169.5z" class="st4"/><path data-cppathid="10222" d="M97,58.1c0,0.1,0,0.1,0,0.2l0,0V58.1z" class="st4"/><path data-cppathid="10223" d="M77.1,202c-0.7-1.6-1.1-3.3-1.2-5.1c-0.3-1.7-0.4-3.5-0.1-5.2c0.3,1.7,0.6,3.4,0.7,5.1   C76.8,199.6,77.2,201.9,77.1,202z" class="st8"/><path data-cppathid="10224" d="M67.4,94.9l-24.5,25.2c3.2,5.4,3.4,12,0.5,17.6l20.5,0.7l0.1-5.5c0.7,2.3,2.5,4.2,4.9,4.8   c3.1,0.9,6.4,0.1,9.6-0.8C73.2,123.4,69.5,109.3,67.4,94.9z" class="st4"/><path data-cppathid="10225" d="M72.9,147.7c0,0.7-0.1,45.6-0.1,45.6l38,1.3l1.9-45.4L72.9,147.7z" class="st1"/><path data-cppathid="10226" d="M76.8,144.4c0,0.9-5.3,54.6-5.3,54.6l41.3-1l6.9-53.6L76.8,144.4z" class="st2"/><path data-cppathid="10227" d="M114.3,155.2c0,0.1-7.1,0.3-15.8,0.3s-15.8-0.1-15.8-0.3s7.1-0.3,15.8-0.3S114.3,155.1,114.3,155.2z" class="st4"/><path data-cppathid="10228" d="M113.9,158.7c0,0.1-7.1,0.3-15.8,0.3s-15.8-0.1-15.8-0.3s7.1-0.3,15.8-0.3   C106.9,158.5,113.9,158.6,113.9,158.7z" class="st4"/><path data-cppathid="10229" d="M113.2,163.2c0,0.1-7.1,0.3-15.8,0.3s-15.8-0.1-15.8-0.3s7.1-0.3,15.8-0.3S113.2,163.1,113.2,163.2z" class="st4"/><path data-cppathid="10230" d="M112.5,167.2c0,0.1-7.1,0.3-15.8,0.3s-15.8-0.1-15.8-0.3s7.1-0.3,15.8-0.3S112.5,167.1,112.5,167.2z" class="st4"/><path data-cppathid="10231" d="M112.5,171.2c0,0.1-7.1,0.3-15.8,0.3s-15.8-0.1-15.8-0.3s7.1-0.3,15.8-0.3S112.5,171.1,112.5,171.2z" class="st4"/><path data-cppathid="10232" d="M112.1,175.4c0,0.1-7.1,0.3-15.8,0.3s-15.8-0.1-15.8-0.3s7.1-0.3,15.8-0.3S112.1,175.3,112.1,175.4z" class="st4"/><path data-cppathid="10233" d="M111.7,179.6c0,0.1-7.1,0.3-15.8,0.3s-15.8-0.1-15.8-0.3s7.1-0.3,15.8-0.3S111.7,179.5,111.7,179.6z" class="st4"/><path data-cppathid="10234" d="M111.3,183.8c0,0.1-7.1,0.3-15.8,0.3s-15.8-0.1-15.8-0.3s7.1-0.3,15.8-0.3   C104.3,183.6,111.3,183.7,111.3,183.8z" class="st4"/><path data-cppathid="10235" d="M111,188c0,0.1-7.1,0.3-15.8,0.3s-15.8-0.1-15.8-0.3s7.1-0.3,15.8-0.3S111,187.9,111,188z" class="st4"/><path data-cppathid="10236" d="M110.6,192.2c0,0.1-7.1,0.3-15.8,0.3S79,192.4,79,192.2s7.1-0.3,15.8-0.3S110.6,192.1,110.6,192.2z" class="st4"/><path data-cppathid="10237" d="M59.6,193.2c0,0,3.3-7.3,4-7.7c0.7-0.4,12.4-1.8,14.8-1.8c2.5,0,6.4,0.1,7.1,1.3c0.5,0.9,0,2.2-1.9,2.5   c0,0,2.6-0.1,2.3,1.5c-0.3,1.6-6.2,4.6-6.2,4.6s1.1,1.2-1.1,3.6l-1,1.2c0,0,0.4,2.2-0.8,3.1c-1.2,1-9,3.7-9,3.7l-3-0.9l-1.9,0.9   C62.9,205.4,56.7,199.3,59.6,193.2z" class="st16"/><path data-cppathid="10238" d="M84.5,187.3c-0.8,0.4-1.7,0.7-2.6,0.9c-1.7,0.5-3.9,1.1-6.5,1.7s-4.9,1-6.6,1.2c-0.9,0.2-1.8,0.3-2.8,0.3   c0.9-0.3,1.8-0.5,2.7-0.6c1.7-0.3,4-0.8,6.6-1.4s4.8-1.1,6.5-1.5C82.7,187.6,83.6,187.4,84.5,187.3z" class="st17"/><path data-cppathid="10239" d="M79.5,194c-1.7,0.9-3.6,1.5-5.5,1.9c-1.9,0.5-3.8,0.7-5.8,0.6c0-0.1,2.6-0.4,5.7-1.1S79.5,193.9,79.5,194z" class="st17"/><path data-cppathid="10240" d="M77.6,198.5c-1,0.9-2.3,1.6-3.6,1.9c-1.3,0.5-2.7,0.7-4.1,0.5c0-0.1,1.8-0.3,3.9-1   C75.9,199.3,77.5,198.4,77.6,198.5z" class="st17"/><path data-cppathid="10241" d="M65.8,201.3c0,0-0.6,0.1-1.4-0.5c-0.4-0.3-0.8-0.8-1-1.2c-0.3-0.6-0.4-1.3-0.3-1.9c0-0.3,0-0.6-0.1-0.8   c-0.2-0.2-0.3-0.4-0.6-0.6c-0.4-0.4-0.6-0.9-0.7-1.5c-0.1-0.9,0.2-1.4,0.3-1.4c0,0.5,0,0.9,0.1,1.4c0.1,0.5,0.3,0.9,0.7,1.2   c0.2,0.2,0.5,0.5,0.6,0.7c0.2,0.3,0.3,0.7,0.2,1.1c-0.2,1.1,0.2,2.2,1,2.9C65.3,201.1,65.8,201.2,65.8,201.3z" class="st17"/><path data-cppathid="10242" d="M67.8,204.6c0,0.1-0.9,0.1-1.5-0.6s-0.5-1.6-0.3-1.6s0.2,0.7,0.7,1.3S67.8,204.5,67.8,204.6z" class="st17"/><path data-cppathid="10243" d="M30.8,428.1" class="st20"/></g></svg>