<?xml version="1.0" encoding="UTF-8"?>
<svg xmlns="http://www.w3.org/2000/svg" onmouseup="{ if(window.parent.document.onmouseup) window.parent.document.onmouseup(arguments[0]);}" xml:space="preserve" style="enable-background:new 0 0 414.5 468.1;" viewBox="0 0 414.5 468.1" y="0px" x="0px" id="Capa_2" version="1.1" xmlns:xlink="http://www.w3.org/1999/xlink"><style type="text/css">
	.st0{fill:#E1E1E1;}
	.st1{fill:#ECECEC;}
	.st2{fill:#F5F5F5;}
	.st3{fill:#006B9E;}
	.st4{opacity:0.8;}
	.st5{fill:#FFFFFF;}
	.st6{fill:#7D7D7D;}
	.st7{opacity:0.3;}
	.st8{fill:#727272;}
	.st9{fill:#0097A7;}
	.st10{fill:#FFBF9D;}
	.st11{fill:#FF9A6C;}
	.st12{opacity:0.6;}
	.st13{fill:#1A2E35;}
	.st14{fill:#375A64;}
	.st15{fill:#00EDFF;}
	.st16{fill:#FFCE00;}
	.st17{fill:#FF5400;}
	.st18{fill:#C0C0C0;}
</style><g><g><path data-cppathid="10000" d="M89.6,343.5c-2-2.1-5-2.9-7.7-3.9c-12-4.4-21.6-14.7-25.2-26.9s-1.2-26.1,6.4-36.3l-0.4-2.1    c-0.9-9.9-12.8-16.9-21.9-13c-9.1,3.9-12.2,17.4-5.7,24.9c-10.7,0.9-17.7,13-16.2,23.7c1.5,10.6,9.3,19.3,17.9,25.6    c14.2,10.4,31.7,16.2,49.2,16.3c1.2,0,2.5,0,3.5-0.6C91.9,349.6,91.6,345.6,89.6,343.5z" class="st0"/></g></g><g><g><path data-cppathid="10001" d="M386.9,300.4c2.5-4,2.8-9.3,0.3-13.3c-2.5-4-8-6-12.2-4c2.4-4,1-9.7-2.9-12.2c-3.9-2.4-9.7-1.2-12.2,2.7    c-2.8,4.4-1.3,10.3,1.1,14.9c2.4,4.6,5.8,9,6.6,14.1c0.8,5.3-1.2,10.7-4.4,15c-3.2,4.3-7.4,7.7-11.5,11l-0.8,0.8    c7.5,2.6,16,1.9,23-2c3.9-2.2,7.6-5.8,7.8-10.2c0.1-2.5-0.8-5-0.4-7.5C381.8,306.1,385,303.5,386.9,300.4z" class="st0"/></g></g><g><g><path data-cppathid="10002" d="M171.9,463.9c-3.9-0.5-7.8-2.2-10.1-5.4c-1.5-2-2.2-4.5-3.4-6.7c-1.3-2.2-3.5-4.1-6-3.9    c-3.9,0.4-6.5,5.7-10.2,4.8c-2.3-0.6-3.3-3.2-3.4-5.6c0-2.3,0.7-4.7,0.4-7c-0.8-6.5-9.2-9.7-15.4-7.7c-6.2,2-15.7,9.6-19.8,14.7    c4.3,7.1,13,9.9,21.1,11.9c13.5,3.4,27.1,6.3,40.9,8.6c3.2,0.6,6.5,1.1,9.7,0.6c3.2-0.5,6.4-2.2,7.9-5.1    C179.7,463.7,175.7,464.3,171.9,463.9z" class="st0"/></g></g><g><g><path data-cppathid="10003" d="M326.7,413.7c-1-5.6-6.5-10.5-12-9.2c4.6-3.8,4.6-11.3,1-16c-3.6-4.7-9.9-6.7-15.8-6.5    c-5.9,0.2-11.6,2.3-17.1,4.5c2.7-3.4-1.2-8.8-5.6-9c-4.3-0.3-8.2,2.5-11.8,5c-3.5,2.6-7.6,5.2-11.9,4.5l4,1.6    c9.6,1.5,19.4,3.7,27.7,8.8c8.4,5,15.2,13.3,16.7,22.9c1.4,9.7-3.6,20.5-12.8,23.8c12.3,0.8,24.9-4.9,32.5-14.7    C325.2,424.9,327.7,419.3,326.7,413.7z" class="st0"/></g></g><g><g><g><g><path data-cppathid="10004" d="M9.6,269.5c-0.1,0-0.3-4.2-0.3-9.3c0-5.1,0.1-9.3,0.3-9.3s0.3,4.2,0.3,9.3C9.9,265.3,9.8,269.5,9.6,269.5z" class="st0"/></g></g></g><g><g><g><path data-cppathid="10005" d="M19.3,260.2c0,0.1-4.3,0.3-9.6,0.3c-5.3,0-9.6-0.1-9.6-0.3s4.3-0.3,9.6-0.3C15,259.9,19.3,260.1,19.3,260.2      z" class="st0"/></g></g></g></g><g><g><g><g><path data-cppathid="10006" d="M381.1,365.2c-0.1,0-0.3-4.2-0.3-9.3c0-5.1,0.1-9.3,0.3-9.3s0.3,4.2,0.3,9.3      C381.4,361.1,381.3,365.2,381.1,365.2z" class="st0"/></g></g></g><g><g><g><path data-cppathid="10007" d="M390.8,355.9c0,0.1-4.3,0.3-9.6,0.3c-5.3,0-9.6-0.1-9.6-0.3c0-0.1,4.3-0.3,9.6-0.3      C386.4,355.7,390.8,355.8,390.8,355.9z" class="st0"/></g></g></g></g><g><g><g><g><path data-cppathid="10008" d="M324.6,45.6c-0.1,0-0.3-4.2-0.3-9.3c0-5.1,0.1-9.3,0.3-9.3c0.1,0,0.3,4.2,0.3,9.3      C324.9,41.4,324.8,45.6,324.6,45.6z" class="st0"/></g></g></g><g><g><g><path data-cppathid="10009" d="M334.2,36.3c0,0.1-4.3,0.3-9.6,0.3c-5.3,0-9.6-0.1-9.6-0.3c0-0.1,4.3-0.3,9.6-0.3      C329.9,36,334.2,36.2,334.2,36.3z" class="st0"/></g></g></g></g><g><g><circle data-cppathid="10010" r="5.7" cy="182" cx="20.4" class="st0"/></g></g><g><g><path data-cppathid="10011" d="M247.5,424.4c0,3.1-2.5,5.7-5.7,5.7s-5.7-2.5-5.7-5.7c0-3.1,2.5-5.7,5.7-5.7S247.5,421.3,247.5,424.4z" class="st0"/></g></g><g><g><path data-cppathid="10012" d="M300.4,316.8c0,3.1-2.5,5.7-5.7,5.7c-3.1,0-5.7-2.5-5.7-5.7c0-3.1,2.5-5.7,5.7-5.7    C297.9,311.1,300.4,313.7,300.4,316.8z" class="st0"/></g></g><g><g><path data-cppathid="10013" d="M131.3,33.4c0,3.1-2.5,5.7-5.7,5.7c-3.1,0-5.7-2.5-5.7-5.7s2.5-5.7,5.7-5.7C128.8,27.7,131.3,30.3,131.3,33.4    z" class="st0"/></g></g><g><g><circle data-cppathid="10014" r="2.8" cy="370.1" cx="155.4" class="st0"/></g></g><g><g><path data-cppathid="10015" d="M89.6,355.9c0,1.6-1.3,2.8-2.8,2.8s-2.8-1.3-2.8-2.8c0-1.6,1.3-2.8,2.8-2.8S89.6,354.4,89.6,355.9z" class="st0"/></g></g><g><g><path data-cppathid="10016" d="M159.8,39.1c0,1.6-1.3,2.8-2.8,2.8s-2.8-1.3-2.8-2.8c0-1.6,1.3-2.8,2.8-2.8S159.8,37.5,159.8,39.1z" class="st0"/></g></g><g><g><path data-cppathid="10017" d="M285.1,193.1c0,1.6-1.3,2.8-2.8,2.8c-1.6,0-2.8-1.3-2.8-2.8s1.3-2.8,2.8-2.8    C283.9,190.3,285.1,191.5,285.1,193.1z" class="st0"/></g></g><g><g><g><g><path data-cppathid="10018" d="M11.8,30.7c0,0-6.3,3.3,2.5,16.5c8.9,13.3,14.7,19.7,14.7,19.7s1.7,3.1-1,4c-2.7,0.8-8.9,0.6-9.7,4.1      c-0.9,3.7,2.1,6.7,7.6,8.9c5.5,2.3,17.4,7.7,18.4,8.2c1.1,0.5,2.2,1.9,0.5,2.8c-1.7,0.9-15.3,3.9-13.4,10.2      c1.8,6.3,18.2,10.2,20,10.6c1.8,0.5,2.3,1.1,2.2,2.1c0,1-4.7,1.5-8.5,2.6c-3.8,1-8,2.9-6.7,6.4c1.4,3.6,11.6,10.2,34.4,9.7      l10.6-0.9l4.7-9.6c8.8-21.1,6.3-33,3.5-35.6c-2.8-2.6-6.1,0.7-8.4,3.9c-2.3,3.2-4.6,7.3-5.5,6.9c-0.9-0.3-1.3-1-1.1-2.9      C76.9,96.6,79.3,80,74,76c-5.2-4-13,7.5-14.4,8.8c-1.4,1.3-2.3-0.3-2.4-1.4c-0.1-1.2-0.8-14.2-0.9-20.2c-0.1-6-1.8-9.8-5.6-10.3      c-3.6-0.5-5.6,5.3-7.4,7.6c-1.8,2.2-4.1-0.5-4.1-0.5s-3.8-7.8-13-20.9c-9.1-13.1-14.6-8.3-14.6-8.3" class="st1"/></g></g></g><g><g><g><g><path data-cppathid="10019" d="M84.3,138.1c-6.7-9.7-18.2-27-28.2-41.9c-10-14.8-19-28.3-25.7-38c-3.3-4.8-6-8.7-7.8-11.5       c-0.9-1.3-1.6-2.4-2.1-3.1c-0.2-0.4-0.4-0.6-0.5-0.8c-0.1-0.2-0.2-0.3-0.2-0.3s0.1,0.1,0.2,0.3c0.1,0.2,0.3,0.5,0.6,0.8       c0.5,0.7,1.2,1.8,2.2,3.1c1.9,2.7,4.6,6.6,7.9,11.4c6.7,9.7,15.7,23.1,25.7,37.9c10,14.9,21.5,32.2,28.1,41.9" class="st0"/></g></g></g></g><g><g><g><g><path data-cppathid="10020" d="M27,75.7c0,0,0.3,0,0.8,0.1c0.5,0.1,1.2,0.3,2,0.5c1.7,0.4,4.1,1,6.7,1.8c2.5,0.7,4.9,1.4,6.6,1.9       c0.8,0.2,1.5,0.4,2,0.6c0.5,0.1,0.7,0.2,0.7,0.2c0,0-0.3,0-0.8-0.1c-0.5-0.1-1.2-0.3-2-0.5c-1.7-0.4-4.1-1.1-6.6-1.8       c-2.6-0.7-4.9-1.4-6.6-1.9c-0.8-0.2-1.5-0.4-2-0.6C27.2,75.8,27,75.7,27,75.7z" class="st0"/></g></g></g></g><g><g><g><g><path data-cppathid="10021" d="M46.4,80c-0.1,0,1-4.9,2.4-11c1.4-6,2.6-10.9,2.7-10.9c0.1,0-1,4.9-2.4,11C47.7,75.1,46.5,80,46.4,80z" class="st0"/></g></g></g></g><g><g><g><g><path data-cppathid="10022" d="M60.7,103.5c0,0,0.1-0.3,0.4-0.7c0.3-0.5,0.6-1.1,1-1.9c0.9-1.6,2.1-3.7,3.3-6.2c1.3-2.4,2.3-4.7,3.1-6.3       c0.4-0.8,0.7-1.4,0.9-1.9c0.2-0.5,0.3-0.7,0.4-0.7c0,0-0.1,0.3-0.2,0.7c-0.2,0.5-0.4,1.1-0.8,2c-0.7,1.7-1.7,3.9-3,6.4       c-1.2,2.4-2.5,4.6-3.4,6.1c-0.5,0.8-0.9,1.4-1.1,1.8C60.9,103.2,60.7,103.5,60.7,103.5z" class="st0"/></g></g></g></g><g><g><g><g><path data-cppathid="10023" d="M42.3,103.4c0,0,0.3,0,0.7-0.1c0.5,0,1.2,0,2-0.1c1.7,0,4-0.1,6.5-0.1c2.5,0,4.8,0,6.5,0c0.8,0,1.4,0,2,0       c0.5,0,0.7,0,0.7,0.1c0,0-0.3,0-0.7,0.1c-0.5,0-1.2,0-2,0.1c-1.7,0-4,0.1-6.5,0.1c-2.5,0-4.8,0-6.5,0c-0.8,0-1.4,0-2,0       C42.5,103.5,42.3,103.5,42.3,103.4z" class="st0"/></g></g></g></g><g><g><g><g><path data-cppathid="10024" d="M52.3,125.8c0,0,0.3-0.1,0.9-0.1c0.7,0,1.5-0.1,2.5-0.1c2.1-0.1,5.1-0.2,8.3-0.2c3.3-0.1,6.2-0.1,8.3-0.1       c1,0,1.9,0,2.5,0c0.6,0,0.9,0,0.9,0c0,0-0.3,0.1-0.9,0.1c-0.7,0-1.5,0.1-2.5,0.1c-2.1,0.1-5.1,0.2-8.3,0.2       c-3.2,0.1-6.2,0.1-8.3,0.1c-1,0-1.9,0-2.5,0C52.6,125.8,52.3,125.8,52.3,125.8z" class="st0"/></g></g></g></g><g><g><g><g><path data-cppathid="10025" d="M75.3,125.1c0,0,0.1-0.3,0.4-0.9c0.3-0.6,0.7-1.4,1.2-2.4c1-2,2.5-4.8,4-8c1.5-3.1,2.8-6,3.7-8.1       c0.4-1,0.8-1.8,1.1-2.5c0.3-0.6,0.4-0.9,0.4-0.9c0,0-0.1,0.3-0.3,0.9c-0.2,0.6-0.6,1.5-1,2.5c-0.9,2.1-2.1,5-3.6,8.2       c-1.5,3.1-3,5.9-4.1,7.9c-0.6,1-1,1.8-1.3,2.4C75.5,124.9,75.3,125.2,75.3,125.1z" class="st0"/></g></g></g></g></g><g><g><g><g><g><g><g><path data-cppathid="10026" d="M355.2,221.1c-11.3-9.8-12.3-25.9-10.3-40.1c0.3-2.4,0.3-4.9,1.7-6.9c1.4-2,4.1-3.1,6.2-1.9         c1.7,1,2.2,3.2,3,5c1.1,2.4,2.8,4.5,5,5.9c1.4,0.9,3.2,1.6,4.8,1c2.2-0.9,2.7-3.7,3-6.1c0.4-4.4,0.9-8.8,1.3-13.2         c0.2-2.4,0.5-4.8,1.5-6.9c1-2.2,2.8-4.1,5.1-4.5c2.3-0.4,4.9,1.2,5.2,3.6c0.1,1-0.2,2-0.2,2.9c0,1,0.3,2.1,1.2,2.5         c0.9,0.4,1.9-0.2,2.7-0.8c2.7-2.1,4.7-5,6.5-7.9c1.9-2.9,3.7-5.8,6.2-8.2s5.8-4.1,9.2-3.9c3.4,0.2,6.8,2.6,7.3,6.1         c0.5,3.4-1.8,6.6-4.2,9c-3.6,3.7-7.7,6.8-12.1,9.3c-0.8,0.4-1.7,0.9-2,1.8c-0.7,1.5,0.6,3.2,2.1,3.9c1.7,0.8,3.6,0.8,5.4,1.2         c1.8,0.4,3.7,1.4,4.2,3.3c0.7,2.5-1.6,4.8-3.7,6.3c-4.3,2.9-9.2,5-14.2,6.3c-1.8,0.4-3.7,0.8-5.2,1.9         c-1.5,1.1-2.6,3.1-1.9,4.9c0.7,1.8,2.8,2.5,4.6,2.4c1.9-0.1,3.6-1,5.4-1.4c3.4-0.9,7.5-0.2,9.3,2.8c1.2,2,1,4.6,0.1,6.7         c-0.9,2.1-2.5,3.9-4.2,5.4c-5.9,5.5-13,9.7-20.8,11.5C369.4,224.7,362.4,224.7,355.2,221.1" class="st2"/></g></g></g></g></g></g><g><g><g><g><g><g><g><path data-cppathid="10027" d="M359.8,212.6c2.9-6.9,6.6-14.3,10.8-21.9c1.1-1.9,2.1-3.7,3.1-5.6c1-1.8,2.1-3.6,3.2-5.4          c2.2-3.4,4.6-6.6,7-9.5c2.4-2.9,4.7-5.6,6.9-8.1c2.2-2.5,4.3-4.8,6.3-6.7c4-4,7.6-6.8,10.2-8.7c1.3-0.9,2.3-1.6,3-2.1          c0.3-0.2,0.6-0.4,0.8-0.5c0.2-0.1,0.3-0.2,0.3-0.2c0,0-0.1,0.1-0.3,0.2c-0.2,0.1-0.4,0.3-0.8,0.5c-0.7,0.5-1.7,1.2-2.9,2.1          c-2.5,1.9-6.1,4.7-10.1,8.8c-2,2-4.1,4.3-6.3,6.8c-2.2,2.5-4.5,5.2-6.9,8.1c-2.3,2.9-4.7,6-6.9,9.5          c-1.1,1.7-2.1,3.5-3.2,5.3c-1,1.8-2.1,3.7-3.1,5.6c-4.2,7.6-8,14.9-10.9,21.8" class="st0"/></g></g></g></g></g></g></g><g><g><g><g><g><g><g><path data-cppathid="10028" d="M377.1,179.8c0,0-0.1-0.4-0.1-1c-0.1-0.7-0.1-1.6-0.1-2.8c-0.1-2.4-0.1-5.7-0.1-9.3          c0-3.6,0-6.9-0.1-9.3c-0.1-1.2-0.1-2.2-0.2-2.8c0-0.7-0.1-1,0-1c0,0,0.1,0.4,0.2,1c0.1,0.7,0.2,1.6,0.3,2.8          c0.2,2.4,0.3,5.7,0.3,9.3c0,3.6,0,6.8-0.1,9.3c0,1.1,0,2.1,0,2.8C377.2,179.5,377.1,179.8,377.1,179.8z" class="st0"/></g></g></g></g></g></g></g><g><g><g><g><g><g><g><path data-cppathid="10029" d="M408.1,177.4c0,0-0.4,0-1.2,0c-0.8,0-1.9,0-3.3,0c-2.8,0-6.7,0.1-11,0.5c-4.3,0.3-8.1,0.8-10.9,1.2          c-1.4,0.2-2.5,0.4-3.3,0.5c-0.8,0.1-1.2,0.2-1.2,0.2c0,0,0.4-0.1,1.2-0.3c0.8-0.2,1.9-0.4,3.3-0.7c2.8-0.5,6.6-1,10.9-1.4          c4.3-0.3,8.2-0.4,11-0.3c1.4,0,2.5,0.1,3.3,0.2C407.6,177.3,408.1,177.4,408.1,177.4z" class="st0"/></g></g></g></g></g></g></g><g><g><g><g><g><g><g><path data-cppathid="10030" d="M360.3,212.1c0,0-0.1-0.1-0.2-0.4c-0.1-0.3-0.2-0.7-0.4-1.2c-0.3-1-0.8-2.5-1.3-4.3          c-1.1-3.6-2.4-8.7-3.8-14.3c-1.4-5.6-2.7-10.7-3.7-14.3c-0.5-1.8-0.9-3.2-1.2-4.3c-0.1-0.5-0.2-0.9-0.3-1.2          c-0.1-0.3-0.1-0.4-0.1-0.4c0,0,0.1,0.1,0.2,0.4c0.1,0.3,0.2,0.7,0.4,1.2c0.3,1,0.8,2.5,1.3,4.3c1.1,3.6,2.4,8.7,3.8,14.3          c1.4,5.6,2.7,10.7,3.7,14.3c0.5,1.8,0.9,3.2,1.2,4.3c0.1,0.5,0.2,0.9,0.3,1.2C360.3,212,360.3,212.1,360.3,212.1z" class="st0"/></g></g></g></g></g></g></g><g><g><g><g><g><g><g><path data-cppathid="10031" d="M402,203.5c0,0-0.1,0.1-0.4,0.1c-0.3,0.1-0.7,0.2-1.2,0.3c-1.1,0.2-2.6,0.6-4.5,0.9          c-3.8,0.8-9,1.9-14.7,3.2c-5.7,1.3-11,2.4-14.7,3.1c-1.9,0.4-3.4,0.6-4.5,0.8c-0.5,0.1-0.9,0.1-1.2,0.2c-0.3,0-0.4,0-0.4,0          c0,0,0.1-0.1,0.4-0.1c0.3-0.1,0.7-0.2,1.2-0.3c1.1-0.2,2.6-0.5,4.5-0.9c3.8-0.8,9-1.9,14.7-3.2c5.7-1.3,11-2.4,14.7-3.1          c1.9-0.4,3.4-0.6,4.5-0.8c0.5-0.1,0.9-0.1,1.2-0.2C401.8,203.5,402,203.5,402,203.5z" class="st0"/></g></g></g></g></g></g></g></g><g><g><path data-cppathid="10032" d="M268.3,52.2c1.8-10.4,6.8-25.6,12.7-34.4c5.9-8.7,15.1-15.7,25.6-17.1s22,3.5,26.7,12.9    c2.5,5.1,3,10.9,4.8,16.3c1.8,5.4,5.9,10.7,11.5,11.1c5,0.4,9.8-3.2,14.7-2.3c6.4,1.2,8.9,9.2,8.9,15.7s-0.9,13.8,3.1,18.9    c3.3,4.2,8.9,5.7,13.4,8.5c9.8,6.1,14,18.8,13,30.3c-1,11.5-6.3,22.2-11.9,32.3c-4.7-16.6-11.1-32.6-19.1-47.9    c-4.5-8.7-12.9-16.1-20.2-22.7c-11.3-10-36.1-14.8-51-16.6C285.8,55.4,283.2,55,268.3,52.2" class="st0"/></g></g><g><g><g><g><g><path data-cppathid="10033" d="M168.4,64.5c-37.1,2.7-77.6,7.6-107.2,19l9.4,63.4c0,0,57.5-20.6,104.3-19.2L168.4,64.5z" class="st3"/></g></g></g><g class="st4"><g><g><path data-cppathid="10034" d="M168.4,64.5c-37.1,2.7-77.6,7.6-107.2,19l9.4,63.4c0,0,57.5-20.6,104.3-19.2L168.4,64.5z" class="st5"/></g></g></g></g><g><g><g><path data-cppathid="10035" d="M165.7,119.4c0,0-0.1,0-0.4,0.1c-0.3,0-0.6,0.1-1.1,0.1c-1,0.1-2.3,0.3-4,0.5c-1.8,0.2-3.9,0.5-6.4,0.8      c-2.5,0.4-5.3,0.7-8.5,1.2c-12.5,1.9-29.7,5.1-48.4,10c-6.5,1.7-12.8,3.4-18.5,5.2l-0.3,0.1l0-0.3c-2-14.5-3.9-27.1-5.4-36      c-0.8-4.4-1.4-8-1.8-10.4c-0.2-1.2-0.4-2.1-0.5-2.8c0-0.3-0.1-0.5-0.1-0.7c0-0.2,0-0.2,0-0.2c0,0,0,0.1,0.1,0.2      c0,0.2,0.1,0.4,0.2,0.7c0.1,0.7,0.3,1.6,0.6,2.8c0.5,2.4,1.1,5.9,1.9,10.4c1.6,8.9,3.6,21.4,5.6,36l-0.3-0.2      c5.8-1.8,12-3.6,18.5-5.2c18.7-4.8,36-8,48.5-9.8c3.1-0.5,6-0.8,8.5-1.2c2.5-0.3,4.6-0.6,6.4-0.7c1.7-0.2,3.1-0.3,4.1-0.4      c0.4,0,0.8-0.1,1.1-0.1C165.6,119.4,165.7,119.3,165.7,119.4z" class="st3"/></g></g></g><g><g><g><path data-cppathid="10036" d="M167,103.9c0,0-0.1-0.4-0.4-1.3c-0.3-0.8-0.9-2-1.9-3.3c-1-1.3-2.5-2.7-4.5-3.9c-0.5-0.3-1.1-0.6-1.6-0.9      c-0.6-0.2-1.2-0.5-1.8-0.7c-1.3-0.4-2.7-0.6-4.1-0.4c-1.4,0.2-2.9,0.7-4.2,1.7c-1.3,0.9-2.4,2.2-3.4,3.7      c-2,2.9-3.2,6.4-4.7,10.1c-0.8,1.8-1.8,3.7-3.5,5c-0.8,0.7-1.8,1.2-2.9,1.4c-1.1,0.2-2.2,0-3.3-0.4c-4.2-1.7-6.1-6.5-10.4-8      c-2.1-0.7-4.4-0.4-6.3,0.5c-1,0.5-1.8,1.1-2.5,1.9c-0.7,0.8-1.2,1.7-1.7,2.7c-1,1.9-1.7,4-3.3,5.4c-0.8,0.7-1.8,1.2-2.9,1.3      c-1.1,0.1-2.1-0.2-3-0.6c-1.8-0.9-3.2-2.5-4.1-4.1c-1-1.6-1.5-3.4-2.2-5c-0.6-1.6-1.3-3.2-2.2-4.5c-0.9-1.3-2-2.4-3.3-3.1      c-2.6-1.4-5.5-1.2-7.6-0.2c-2.2,0.9-3.8,2.2-4.8,3.5c-1.1,1.3-1.6,2.5-1.8,3.3c-0.3,0.8-0.3,1.3-0.3,1.3c0,0,0-0.5,0.2-1.3      c0.2-0.8,0.7-2.1,1.8-3.4c1-1.3,2.7-2.7,4.9-3.6c2.1-1,5.2-1.3,7.9,0.2c1.4,0.7,2.6,1.8,3.5,3.2c0.9,1.4,1.6,3,2.2,4.6      c0.7,1.6,1.3,3.3,2.2,4.9c1,1.5,2.3,3,4,3.9c0.8,0.4,1.8,0.7,2.7,0.6c1-0.1,1.9-0.5,2.6-1.2c1.5-1.3,2.2-3.4,3.2-5.3      c0.5-1,1-1.9,1.7-2.8c0.7-0.9,1.6-1.6,2.7-2.1c2-1,4.5-1.3,6.7-0.5c2.3,0.7,3.9,2.5,5.4,4.1c1.5,1.6,3,3.2,5,4      c1,0.4,2,0.5,3,0.4c1-0.2,1.9-0.7,2.7-1.3c1.6-1.2,2.6-3,3.4-4.8c1.5-3.6,2.8-7.2,4.8-10.1c1-1.5,2.1-2.8,3.5-3.7      c1.3-1,2.9-1.5,4.4-1.7c1.5-0.2,3,0,4.3,0.4c0.7,0.2,1.3,0.5,1.8,0.7c0.6,0.3,1.1,0.5,1.6,0.9c2,1.3,3.5,2.7,4.5,4.1      c1,1.3,1.6,2.5,1.8,3.4c0.1,0.4,0.2,0.7,0.3,1C167,103.8,167,103.9,167,103.9z" class="st3"/></g></g></g><g><g><g><path data-cppathid="10037" d="M68.8,95.6c0,0.1-0.5,0.4-1.1,0.5c-0.6,0.1-1.1,0.1-1.2,0c0-0.1,0.5-0.4,1.1-0.5      C68.2,95.5,68.7,95.5,68.8,95.6z" class="st3"/></g></g></g><g><g><g><path data-cppathid="10038" d="M70.4,107.2c0.1,0.1-0.3,0.4-0.8,0.7c-0.5,0.2-1,0.3-1,0.2c-0.1-0.1,0.3-0.4,0.8-0.7      C69.9,107.2,70.3,107.1,70.4,107.2z" class="st3"/></g></g></g><g><g><g><path data-cppathid="10039" d="M72.4,119.9c0,0.1-0.3,0.4-0.8,0.6c-0.5,0.2-1,0.2-1,0.1c0-0.1,0.3-0.4,0.8-0.6      C71.9,119.8,72.4,119.7,72.4,119.9z" class="st3"/></g></g></g><g><g><g><path data-cppathid="10040" d="M74.9,132.3c0,0.1-0.4,0.4-0.9,0.6c-0.6,0.2-1.1,0.2-1.1,0.1c0-0.1,0.4-0.4,0.9-0.6      C74.4,132.2,74.9,132.2,74.9,132.3z" class="st3"/></g></g></g><g><g><g><g><path data-cppathid="10041" d="M144.8,72.5c0,0,0.4-0.2,1.2-0.3c0.8-0.1,2-0.3,3.4-0.5c3-0.4,7.2-1,12.3-1.6l0.2,0l0,0.2       c0.4,4.3,0.8,9.2,1.3,14.4l0,0.2l0,0.3l-0.2,0c-6.1,0.7-11.8,1.4-16.6,2l-0.2,0l0-0.2c-0.5-4.3-0.9-8-1.1-10.6       c-0.1-1.2-0.2-2.2-0.3-2.9C144.8,72.9,144.8,72.5,144.8,72.5c0,0,0.1,0.4,0.2,1.1c0.1,0.7,0.2,1.7,0.4,2.9       c0.3,2.6,0.8,6.2,1.3,10.5l-0.2-0.2c4.8-0.6,10.5-1.3,16.6-2.1l-0.2,0.3l0-0.2c-0.5-5.2-0.9-10.1-1.3-14.4l0.3,0.2       C152.3,71.7,146.7,72.3,144.8,72.5z" class="st3"/></g></g></g><g><g><g><path data-cppathid="10042" d="M160.2,75c0,0.2-2.9,0.2-6.3,0.5c-3.5,0.4-6.3,1-6.3,0.8c0-0.1,2.7-1,6.2-1.3       C157.4,74.7,160.2,74.9,160.2,75z" class="st3"/></g></g></g><g><g><g><path data-cppathid="10043" d="M160.4,78.8c0,0.2-2.7,0.3-5.9,0.6c-3.3,0.3-5.9,0.7-5.9,0.6c0-0.1,2.6-0.8,5.9-1.1       C157.7,78.5,160.4,78.6,160.4,78.8z" class="st3"/></g></g></g><g><g><g><path data-cppathid="10044" d="M156.4,82c0,0.1-1.5,0.5-3.4,0.7c-1.9,0.2-3.4,0.3-3.4,0.2c0-0.1,1.5-0.5,3.4-0.7       C154.9,81.9,156.4,81.9,156.4,82z" class="st3"/></g></g></g></g></g><g><g><g><g><g><path data-cppathid="10045" d="M349.1,83.1c-36.3-11.1-66.9-20.5-108-20.2l-6.3,64.6c42.7,3.8,57,6.6,96.4,20.8L349.1,83.1z" class="st6"/></g></g></g><g class="st4"><g><g><path data-cppathid="10046" d="M349.1,83.1c-36.3-11.1-66.9-20.5-108-20.2l-6.3,64.6c42.7,3.8,57,6.6,96.4,20.8L349.1,83.1z" class="st5"/></g></g></g></g><g><g><g><g><g><g><g><path data-cppathid="10047" d="M267,94.2l1.6-13.7c-3.8-0.4-7.9,0.7-11.2,3.1c-3.9,2.9-6.8,7.5-6.9,13.6c0,0.7,0,1.3,0.1,2          c0,0,0,0,0,0l0,0l16-1.8L267,94.2z" class="st6"/></g></g></g></g><g><g><g><g><path data-cppathid="10048" d="M283.5,92c-1.6-5.1-5.4-9.5-11.4-10.9c-0.2,0-0.3-0.1-0.5-0.1c-0.1,0-0.2,0-0.3-0.1          c-0.3-0.1-0.6-0.1-0.9-0.1c0,0,0,0,0,0c0,0,0,0,0,0c0,0,0,0,0,0l0,0v0l-1.6,13.7l-0.4,3.2l15.1,5.5l0,0v0          c0.4-1.1,0.6-2.3,0.8-3.5C284.5,97.2,284.3,94.5,283.5,92z" class="st6"/></g></g></g></g><g class="st7"><g><g><g><path data-cppathid="10049" d="M283.5,92c-1.6-5.1-5.4-9.5-11.4-10.9c-0.2,0-0.3-0.1-0.5-0.1c-0.1,0-0.2,0-0.3-0.1c-0.3-0.1-0.6-0.1-0.9-0.1          c0,0,0,0,0,0c0,0,0,0,0,0c0,0,0,0,0,0l0,0v0l-1.6,13.7l-0.4,3.2l15.1,5.5l0,0v0c0.4-1.1,0.6-2.3,0.8-3.5          C284.5,97.2,284.3,94.5,283.5,92z"/></g></g></g></g></g><g><g><g><g><path data-cppathid="10050" d="M267.2,99.3l-16,1.8c0.7,7.8,6.3,14.2,13.9,15.1c7.6,0.9,14.7-4,17.2-11.4L267.2,99.3" class="st8"/></g></g></g></g></g></g><g><g><g><path data-cppathid="10051" d="M335.1,95.4c0,0-0.5-0.2-1.4-0.6c-0.9-0.4-2.2-1-3.8-1.6c-3.2-1.4-7.8-3.1-12.9-4.5      c-5.1-1.5-9.9-2.4-13.3-3c-1.7-0.3-3.1-0.5-4.1-0.6c-1-0.1-1.5-0.2-1.5-0.3c0,0,0.5,0,1.5,0.1c1,0.1,2.4,0.2,4.1,0.4      c3.5,0.5,8.3,1.3,13.4,2.8c5.2,1.5,9.7,3.2,12.9,4.7c1.6,0.7,2.9,1.3,3.7,1.8C334.7,95.1,335.1,95.4,335.1,95.4z" class="st6"/></g></g></g><g><g><g><path data-cppathid="10052" d="M334,102.2c0,0-0.5-0.2-1.4-0.6c-0.9-0.4-2.2-1-3.8-1.6c-3.2-1.4-7.8-3.1-12.9-4.5c-5.1-1.5-9.9-2.4-13.3-3      c-1.7-0.3-3.1-0.5-4.1-0.6c-1-0.1-1.5-0.2-1.5-0.3c0,0,0.5,0,1.5,0.1c1,0.1,2.4,0.2,4.1,0.4c3.5,0.5,8.3,1.3,13.4,2.8      c5.2,1.5,9.7,3.2,12.9,4.7c1.6,0.7,2.9,1.3,3.7,1.8C333.6,101.9,334,102.2,334,102.2z" class="st6"/></g></g></g><g><g><g><path data-cppathid="10053" d="M332.9,108.9c0,0-0.5-0.2-1.4-0.6c-0.9-0.4-2.2-1-3.8-1.6c-3.2-1.4-7.8-3.1-12.9-4.5      c-5.1-1.5-9.9-2.4-13.3-3c-1.7-0.3-3.1-0.5-4.1-0.6c-1-0.1-1.5-0.2-1.5-0.3c0,0,0.5,0,1.5,0.1c1,0.1,2.4,0.2,4.1,0.4      c3.5,0.5,8.3,1.3,13.4,2.8c5.2,1.5,9.7,3.2,12.9,4.7c1.6,0.7,2.9,1.3,3.7,1.8C332.5,108.6,332.9,108.9,332.9,108.9z" class="st6"/></g></g></g><g><g><g><path data-cppathid="10054" d="M330.7,115.7c0,0-0.5-0.2-1.4-0.6c-0.9-0.4-2.1-1-3.7-1.6c-3.1-1.3-7.5-3.1-12.5-4.5c-5-1.5-9.6-2.4-13-3      c-1.7-0.3-3-0.5-4-0.6c-0.9-0.1-1.5-0.2-1.5-0.3c0,0,0.5,0,1.5,0.1c1,0.1,2.3,0.2,4,0.4c3.4,0.5,8,1.4,13,2.8      c5,1.5,9.4,3.2,12.5,4.7c1.5,0.7,2.8,1.3,3.6,1.8C330.3,115.4,330.7,115.6,330.7,115.7z" class="st6"/></g></g></g><g><g><g><path data-cppathid="10055" d="M325.9,121.1c0,0-0.5-0.1-1.2-0.5c-0.9-0.4-2-0.9-3.3-1.5c-2.8-1.2-6.7-2.8-11.2-4.1      c-4.5-1.3-8.6-2-11.7-2.4c-1.4-0.2-2.6-0.4-3.6-0.5c-0.8-0.1-1.3-0.2-1.3-0.2c0,0,0.5,0,1.3,0c0.9,0,2.1,0.2,3.6,0.3      c3,0.4,7.2,1,11.8,2.3c4.5,1.3,8.4,3,11.2,4.3c1.4,0.7,2.5,1.2,3.2,1.6C325.5,120.8,325.9,121,325.9,121.1z" class="st6"/></g></g></g><g><g><g><path data-cppathid="10056" d="M309.8,121.8c0,0.1-1-0.2-2.6-0.5c-1.6-0.4-3.8-0.8-6.2-1.3c-2.4-0.4-4.7-0.7-6.3-1      c-1.6-0.2-2.6-0.4-2.6-0.5c0-0.1,1,0,2.6,0.1c1.6,0.1,3.9,0.4,6.3,0.8c2.5,0.4,4.7,1,6.2,1.4      C308.9,121.4,309.8,121.8,309.8,121.8z" class="st6"/></g></g></g><g><g><g><path data-cppathid="10057" d="M247.4,70.5c0,0,0.3,0,0.8,0c0.6,0,1.4,0,2.5-0.1c2.2-0.1,5.4,0,9.5,0.2c8.1,0.5,19.8,1.9,33.3,6l0.2,0.1      l0,0.2c-2.5,14.3-5.5,31.4-8.7,49.6c-0.1,0.7-0.3,1.5-0.4,2.2l0,0.3l-0.3-0.1c-7.6-2-15.1-3.5-22.2-4.6      c-7.2-1.1-14-1.9-20.4-2.3l-0.2,0l0-0.2c1.8-15.3,3.2-28.1,4.2-37.1c0.5-4.5,0.9-8,1.2-10.4c0.1-1.2,0.3-2.1,0.3-2.7      c0-0.3,0.1-0.5,0.1-0.7C247.4,70.6,247.4,70.5,247.4,70.5c0,0,0,0.1,0,0.3c0,0.2,0,0.4-0.1,0.7c-0.1,0.7-0.2,1.6-0.3,2.8      c-0.3,2.4-0.6,6-1.1,10.5c-1,9-2.4,21.8-4,37l-0.2-0.3c6.4,0.4,13.2,1.2,20.4,2.2c7.2,1.1,14.7,2.6,22.3,4.6l-0.3,0.2      c0.1-0.7,0.3-1.5,0.4-2.2c3.2-18.2,6.2-35.2,8.7-49.6l0.1,0.2c-13.4-4.1-25.1-5.5-33.2-6.1c-4.1-0.3-7.3-0.3-9.4-0.3      c-1.1,0-1.9,0-2.5,0C247.7,70.5,247.4,70.5,247.4,70.5z" class="st6"/></g></g></g></g><g><g><g><polyline data-cppathid="10058" points="207.8,202.6 243.2,210.4 248.6,202.6 247.7,192.5 242.3,187.6 223.8,187.6 206.4,203.2    " class="st9"/></g></g><g class="st7"><g><polyline data-cppathid="10059" points="207.8,202.6 243.2,210.4 248.6,202.6 247.7,192.5 242.3,187.6 223.8,187.6 206.4,203.2    "/></g></g><g><g><g><g><g><g><g><g><g><g><g><path data-cppathid="10060" d="M261.7,129.7l44.7-6l7-2c0,0,16.1-3.5,17.6-4.1c1.7-0.6,2.5,0.1,2.6,0.7c0.3,1-0.7,2.2-2.2,2.7              c-0.5,0.2-8.7,3-8.7,3s0.8,0.1,2.8,0.8c2,0.7,3.8,3.2,4.8,6.1c0.9,2.9,0.9,3.8-0.2,4.3c-0.5,0.2-0.9,0-1.3-0.2              c-0.6-0.4-1.1-1-1.3-1.7c-1.6-4.7-4.5-5.1-4.5-5.1l-0.9,0.3c0,0,3,2.1,3,4.7c0,0.4-0.1,0.8-0.2,1.1              c0.4,1.2,0.2,2.7-0.6,3.7c-0.9,1.1-2.3,1.6-3.7,1.4c-0.6-0.1-1.3-0.5-1.4-1.1c0-0.3,0.1-0.7,0.2-1              c0.1-0.2,0.1-0.3,0.2-0.5l-2.7,0.4c0,0-6.1,0.5-8.7,1l-41.8,12.6c-5.8,1.7-11.9-1.6-13.6-7.4l0,0              C251,137,255.2,130.6,261.7,129.7z" class="st10"/></g></g></g></g></g></g></g></g></g><g><g><g><g><g><g><g><g><g><g><path data-cppathid="10061" d="M307.5,124.8c0.1,0.9,1,1.6,1.9,1.8c0.9,0.2,1.9,0.1,2.8,0.2c2.8,0.4,4.9,2.9,7.7,3.1               c0.4,0,0.9,0,1-0.4c0.1-0.3-0.2-0.7-0.5-0.9c-2.3-2.1-4.6-4.1-7-6.2" class="st10"/></g></g></g></g></g></g></g></g></g><g><g><g><g><g><g><g><g><g><g><path data-cppathid="10062" d="M313.5,122.4c0,0,0.3,0.2,0.8,0.6c0.5,0.4,1.2,1,2.1,1.8c0.9,0.8,2,1.7,3.1,2.7                c0.3,0.3,0.6,0.5,0.9,0.8c0.3,0.3,0.7,0.5,0.8,1.1c0,0.3-0.2,0.6-0.5,0.7c-0.3,0.1-0.5,0.1-0.8,0.1                c-0.5,0-0.9-0.1-1.3-0.3c-1.8-0.6-3.1-1.6-4.5-2.3c-0.7-0.3-1.3-0.6-2-0.7c-0.6-0.1-1.3-0.1-1.9-0.1                c-1.2,0-2.2-0.5-2.5-1.1c-0.4-0.6-0.3-1-0.3-1c0.1,0,0,0.4,0.5,0.8c0.4,0.5,1.3,0.9,2.4,0.9c0.6,0,1.2,0,1.9,0.1                c0.7,0.1,1.4,0.3,2.1,0.7c1.4,0.6,2.8,1.7,4.4,2.2c0.4,0.1,0.8,0.2,1.2,0.2c0.4,0,0.7-0.1,0.7-0.3                c0-0.2-0.3-0.5-0.6-0.8c-0.3-0.3-0.6-0.5-0.9-0.8c-1.1-1-2.1-1.9-3-2.7c-0.9-0.8-1.5-1.4-2-1.9                C313.7,122.7,313.5,122.5,313.5,122.4z" class="st11"/></g></g></g></g></g></g></g></g></g></g></g><g><g><g><g><g><g><g><g><g><g><path data-cppathid="10063" d="M322.1,128.6c0,0.1,0.7-0.3,1.8,0c0.5,0.1,1.1,0.5,1.5,1.1c0.5,0.6,0.8,1.3,1.1,2.1               c0.3,0.8,0.6,1.6,1,2.2c0.4,0.6,0.9,1.1,1.5,1.4c0.5,0.3,1.1,0.2,1.4,0c0.3-0.2,0.4-0.3,0.4-0.3c0,0-0.2,0.1-0.4,0.2               c-0.3,0.1-0.7,0.1-1.2-0.1c-0.5-0.3-0.9-0.7-1.3-1.4c-0.4-0.6-0.7-1.4-1-2.2c-0.3-0.8-0.7-1.6-1.2-2.2               c-0.5-0.6-1.1-1-1.7-1.1c-0.6-0.1-1.1,0-1.4,0C322.2,128.4,322.1,128.5,322.1,128.6z" class="st11"/></g></g></g></g></g></g></g></g></g></g><g><g><g><g><g><g><g><g><g><g><path data-cppathid="10064" d="M332.1,120.9c0,0-0.6,0.2-1.6,0.6c-1.1,0.4-2.4,0.9-3.9,1.4c-1.5,0.5-2.8,1-3.9,1.4               c-1,0.3-1.6,0.6-1.6,0.6c0,0,0.7-0.1,1.7-0.4c1-0.3,2.4-0.7,3.9-1.3c1.5-0.5,2.9-1.1,3.9-1.5               C331.5,121.2,332.1,120.9,332.1,120.9z" class="st11"/></g></g></g></g></g></g></g></g></g></g><g><g><g><g><g><g><g><g><g><g><path data-cppathid="10065" d="M320.9,131c0,0,0.1,0.2,0.4,0.4c0.2,0.2,0.6,0.7,0.5,1.2c0,0.3-0.2,0.5-0.5,0.7               c-0.3,0.2-0.7,0.2-1.1,0.3c-0.4,0.1-0.9,0.2-1.2,0.6c-0.3,0.4-0.4,1-0.2,1.5c0.2,0.5,0.6,0.9,1,1.1               c0.4,0.2,0.9,0.3,1.3,0.2c0.8-0.2,1.5-0.5,2.1-0.8c0.6-0.3,1-0.6,1.2-0.9c0.2-0.3,0.3-0.5,0.3-0.5c0,0-0.1,0.2-0.4,0.4               c-0.2,0.2-0.7,0.5-1.2,0.8c-0.5,0.3-1.2,0.5-2,0.7c-0.7,0.1-1.7-0.3-2-1.1c-0.1-0.4-0.1-0.9,0.1-1.2               c0.2-0.3,0.6-0.4,1-0.5c0.4-0.1,0.8-0.2,1.1-0.4c0.4-0.2,0.6-0.5,0.6-0.9c0-0.7-0.4-1.1-0.7-1.4               C321.1,131.1,320.9,131,320.9,131z" class="st11"/></g></g></g></g></g></g></g></g></g></g><g><g><g><g><g><g><g><g><g><g><path data-cppathid="10066" d="M319.9,136.6c0,0-0.2,0-0.4,0.2c-0.2,0.2-0.5,0.6-0.5,1.2c0,0.6,0.5,1.3,1.2,1.6               c0.7,0.3,1.6,0.3,2.4,0c0.8-0.3,1.5-0.8,1.9-1.5c0.4-0.6,0.6-1.3,0.6-1.9c0-0.6-0.1-1-0.1-1.3               c-0.1-0.3-0.2-0.4-0.2-0.4c-0.1,0,0.2,0.7,0.1,1.7c-0.1,0.5-0.3,1.1-0.7,1.7c-0.4,0.6-1,1.1-1.8,1.3               c-0.8,0.3-1.6,0.3-2.2,0c-0.6-0.3-1-0.8-1.1-1.3c-0.1-0.5,0.2-0.9,0.4-1.1C319.8,136.7,319.9,136.6,319.9,136.6z" class="st11"/></g></g></g></g></g></g></g></g></g></g><g><g><g><g><g><g><g><g><g><g><path data-cppathid="10067" d="M312.5,132.9c0,0,0-0.3-0.3-0.8c-0.3-0.4-0.8-1-1.6-1.3l0,0.3c0.3-0.2,0.7-0.3,1-0.6               c1.9-1.2,2.9-2.9,2.8-2.9c-0.1-0.1-1.1,1.4-3,2.6c-0.3,0.2-0.7,0.4-1,0.6l-0.3,0.2l0.4,0.1c0.7,0.3,1.3,0.8,1.6,1.1               C312.3,132.7,312.4,133,312.5,132.9z" class="st11"/></g></g></g></g></g></g></g></g></g></g><g><g><g><g><g><g><g><g><g><g><path data-cppathid="10068" d="M326.4,128.2c-0.1-0.1-0.5,0.5-0.6,1.3c-0.1,0.8,0.3,1.4,0.4,1.4c0.1,0-0.1-0.6-0.1-1.3               C326.2,128.8,326.5,128.2,326.4,128.2z" class="st11"/></g></g></g></g></g></g></g></g></g></g></g></g><g><g><g><g><g><path data-cppathid="10069" d="M117.9,143.7c0,0-6.5-10.6-7.7-11.5c-1.2-0.9-11.5-4.7-12.4-4.4c-0.9,0.3-13.4,2.4-12,3.9        c1.4,1.5,10.2-0.1,10.2-0.1l1.2,0.6c0,0-7.5,1.2-9.1,2.1c-1.5,0.8-1,2.6,0.4,2.5c1.4-0.1,7.9-1.4,8.3-1.1        c0.4,0.3-7.1,1.8-7.9,2.2c-1.1,0.6-1.2,2.6,0.2,2.5c0.8-0.1,7.9-1.9,7.9-1.9s-5.6,2.2-6.1,2.7c-0.8,0.8-0.2,2,1,1.8        c0.8-0.2,4.8-2.1,5.9-2.3c0,0,1,0.3,2,2.4c0.4,1,2.5,7.2,6.2,7.1c3.3-0.1,6.5,2.6,6.5,2.6L117.9,143.7z" class="st10"/></g></g></g><g><g><g><g><path data-cppathid="10070" d="M85.9,131.8c0,0.1,0.8,0.4,2.3,0.6c0.7,0.1,1.6,0.2,2.6,0.1c1-0.1,2-0.3,3.1-0.4         c0.8-0.1,1.6-0.2,2.3-0.3l-0.1,0c3.1,1.1,5.4,1.8,5.4,1.7c0-0.1-2.1-1.1-5.2-2.2l-0.1,0l-0.1,0c-0.7,0.1-1.5,0.2-2.3,0.3         c-1.1,0.2-2.1,0.3-3.1,0.4c-0.9,0.1-1.8,0.1-2.5,0C86.8,131.9,85.9,131.7,85.9,131.8z" class="st11"/></g></g></g></g></g><g><g><g><g><g><path data-cppathid="10071" d="M113,142.5c-0.8,0.7-2,0.5-2.9,0c-0.9-0.5-1.6-1.4-2.4-2c-2.5-1.8-6.2-1.4-8.7-3.3         c-0.3-0.3-0.7-0.7-0.5-1.1c0.2-0.4,0.7-0.4,1.1-0.4c3.4,0.1,6.9,0.2,10.3,0.2" class="st10"/></g></g></g><g><g><g><g><path data-cppathid="10072" d="M109.9,136c0,0-0.4-0.1-1.1-0.1c-0.7-0.1-1.8-0.1-3-0.2c-1.3-0.1-2.9-0.1-4.5-0.2c-0.4,0-0.9,0-1.3,0          c-0.4,0-1-0.1-1.5,0.3c-0.3,0.2-0.3,0.7-0.2,1c0.1,0.3,0.3,0.5,0.5,0.7c0.4,0.3,0.8,0.6,1.3,0.8c1.9,0.9,3.8,1,5.3,1.5          c0.8,0.2,1.5,0.6,2.1,1c0.6,0.4,1.1,0.9,1.6,1.3c1,0.9,2.2,1.2,2.9,1c0.8-0.1,1-0.6,1-0.6c0-0.1-0.3,0.3-1,0.3          c-0.7,0.1-1.7-0.2-2.6-1.1c-0.5-0.4-1-0.9-1.6-1.4c-0.6-0.5-1.4-0.8-2.2-1.1c-1.6-0.6-3.5-0.7-5.3-1.5          c-0.4-0.2-0.8-0.5-1.2-0.7c-0.3-0.3-0.5-0.6-0.3-0.8c0.2-0.2,0.6-0.2,1.1-0.2c0.4,0,0.9,0,1.3,0c1.7,0,3.2,0,4.5,0          c1.3,0,2.3,0,3,0C109.5,136,109.9,136,109.9,136z" class="st11"/></g></g></g></g></g></g></g><g><g><g><g><g><path data-cppathid="10073" d="M168.7,377.9l-2.4,26.2l-7.9,20.2c-0.6,1.5,0.2,3.1,1.7,3.6l0,0c0.8,0.3,1.7,0.1,2.4-0.4        c4.4-3.4,20.7-15.9,20.7-17.8c0.1-2.2,4.4-27.5,4.4-27.5L168.7,377.9z" class="st9"/></g></g></g></g><g class="st12"><g><g><g><path data-cppathid="10074" d="M160.2,427.9l23.4-20l-0.1,1.1c-0.1,1-0.6,1.8-1.3,2.5c-1.9,1.8-7.2,6.5-19.5,16        C162,428.1,161,428.2,160.2,427.9L160.2,427.9z" class="st5"/></g></g></g></g><g class="st12"><g><g><g><g><path data-cppathid="10075" d="M179.1,398.9c-0.7,0.4-1,1.3-0.7,2.1c0.3,0.7,1.3,1.1,2,0.7c0.7-0.4,1.1-1.5,0.7-2.2         c-0.4-0.7-1.6-1-2.2-0.5" class="st5"/></g></g></g></g></g><g><g><g><g><g><path data-cppathid="10076" d="M167.5,417.2c-0.2,0.1-0.6-1.4-2.1-2.3c-1.4-1-2.9-0.8-2.9-0.9c0-0.1,0.3-0.2,1-0.2         c0.6,0,1.5,0.2,2.3,0.7c0.8,0.5,1.3,1.2,1.6,1.8C167.5,416.8,167.5,417.2,167.5,417.2z" class="st13"/></g></g></g></g></g><g><g><g><g><g><path data-cppathid="10077" d="M165.2,420.5c-0.1,0.1-0.9-0.8-2.2-1.4c-1.3-0.6-2.5-0.5-2.5-0.6c-0.1-0.1,1.3-0.6,2.7,0.1         C164.7,419.2,165.3,420.4,165.2,420.5z" class="st13"/></g></g></g></g></g><g><g><g><g><g><path data-cppathid="10078" d="M171.4,413.1c-0.1,0.1-1.3-1.4-3.2-2.4c-1.9-1.1-3.8-1.2-3.8-1.3c0-0.1,2-0.3,4.1,0.8         C170.6,411.3,171.6,413,171.4,413.1z" class="st13"/></g></g></g></g></g><g><g><g><g><g><path data-cppathid="10079" d="M172.8,405.2c-0.1,0.1-1.5-0.6-3.3-0.9c-1.9-0.3-3.4,0-3.5-0.2c-0.1-0.1,1.5-0.7,3.5-0.4         C171.6,404,172.9,405.1,172.8,405.2z" class="st13"/></g></g></g></g></g><g><g><g><g><g><path data-cppathid="10080" d="M173.7,397.5c-0.1,0.1-1.5-0.9-3.4-1c-2-0.2-3.5,0.6-3.6,0.5c0-0.1,0.3-0.4,0.9-0.6         c0.6-0.3,1.6-0.5,2.7-0.4c1.1,0.1,2,0.5,2.6,0.8C173.5,397.1,173.8,397.4,173.7,397.5z" class="st13"/></g></g></g></g></g><g><g><g><g><g><path data-cppathid="10081" d="M170.5,395c0,0-0.1-0.4,0.1-1c0.1-0.6,0.4-1.5,1.1-2.5c0.3-0.5,0.7-1,1.5-1.3c0.4-0.1,0.9,0,1.2,0.4         c0.3,0.4,0.3,0.8,0.3,1.2c-0.2,1.7-1.8,3.1-3.7,3.1c-1.9,0-3.5-1.3-4.1-2.8c-0.1-0.4-0.2-0.9,0.1-1.3         c0.3-0.4,0.8-0.5,1.2-0.4c0.8,0.2,1.2,0.7,1.6,1.1c0.8,0.8,1.3,1.7,1.6,2.2c0.3,0.6,0.3,0.9,0.3,1c-0.1,0.1-0.5-1.4-2.1-2.9         c-0.4-0.4-0.9-0.8-1.4-0.9c-0.3-0.1-0.5,0-0.6,0.2c-0.1,0.2-0.1,0.5,0,0.8c0.5,1.2,1.9,2.4,3.5,2.4c1.6,0,3-1.3,3.2-2.6         c0-0.3,0-0.7-0.2-0.9c-0.1-0.2-0.4-0.3-0.7-0.2c-0.5,0.1-0.9,0.7-1.3,1.1C170.7,393.5,170.6,395,170.5,395z" class="st13"/></g></g></g></g></g></g><g><g><g><path data-cppathid="10082" d="M192.8,393.3l19.6-155.5l-6.3-36.1l-37,2l-4.6,186.8c0,1.4,0.9,2.6,2.3,2.9l21.6,3.3      C190.6,397,192.6,395.5,192.8,393.3z" class="st13"/></g></g><g><g><path data-cppathid="10083" d="M211.9,243.1l35.7,35.3l-51.4,12.5l3.7,25.9l69.5-9.5c5.9-0.8,11.3-4,14.8-8.9v0      c5.4-7.5,5.5-17.5,0.3-25.1l-54.2-79.5l-24.2,7.9L211.9,243.1z" class="st13"/></g></g><g><g><g><path data-cppathid="10084" d="M209.9,234.1c0.1,0,0.7,2,1.2,4.4c0.5,2.5,0.9,4.5,0.7,4.6c-0.1,0-0.7-2-1.2-4.4       C210.1,236.2,209.8,234.1,209.9,234.1z" class="st14"/></g></g></g><g><g><g><path data-cppathid="10085" d="M204.7,294.2c0,0,0.3-0.1,0.8-0.3c0.6-0.2,1.4-0.4,2.5-0.8c2.2-0.7,5.4-1.7,9.6-2.9       c8.3-2.5,20.3-6.1,34.9-10.5l-0.1,0.3c-12.1-12.9-26.8-28.5-42.9-45.6l0.4-0.1c-0.8,7.2-1.7,14.7-2.6,22.3       c-4.4,37-8.6,70.5-11.8,94.7c-1.6,12.1-3,21.9-4,28.7c-0.6,3.4-0.9,6-1.3,7.8c-0.2,0.9-0.3,1.5-0.4,2c-0.1,0.4-0.2,0.7-0.2,0.7       s0-0.2,0.1-0.7c0.1-0.5,0.2-1.1,0.4-2c0.4-1.8,0.7-4.4,1.2-7.8c1-6.8,2.3-16.6,3.9-28.7c3.1-24.2,7.2-57.7,11.6-94.8       c0.9-7.6,1.8-15.1,2.6-22.3l0.1-0.5l0.4,0.4c16.1,17.2,30.7,32.8,42.8,45.7l0.2,0.2l-0.3,0.1c-14.6,4.3-26.6,7.9-34.9,10.3       c-4.1,1.2-7.4,2.2-9.6,2.8c-1.1,0.3-1.9,0.6-2.5,0.7C205,294.1,204.7,294.2,204.7,294.2z" class="st14"/></g></g></g><g><g><g><path data-cppathid="10086" d="M193.2,390.4c-0.1,0,3.9-33,9.1-73.7c5.2-40.7,9.5-73.6,9.6-73.6c0.1,0-3.9,33-9.1,73.7       C197.6,357.5,193.3,390.4,193.2,390.4z" class="st14"/></g></g></g><g><g><g><path data-cppathid="10087" d="M206.1,217.6c0.1,0,0.4,0.9,0.8,2.4c0.4,1.5,1,3.6,1.5,6c0.5,2.3,0.9,4.5,1.1,6c0.2,1.6,0.3,2.5,0.3,2.5       c-0.1,0-0.3-0.9-0.6-2.5c-0.4-1.7-0.8-3.7-1.3-6c-0.5-2.2-1-4.3-1.3-6C206.2,218.6,206,217.7,206.1,217.6z" class="st14"/></g></g></g><g><g><g><path data-cppathid="10088" d="M208.4,214.6c-0.1,0,0.5-0.5,1.5-0.2c0.4,0.2,1,0.6,1.1,1.3c0.1,0.6-0.1,1.5-0.8,1.9       c-0.7,0.4-1.5,0.2-2.1-0.2c-0.5-0.4-0.6-1.2-0.5-1.6c0.1-0.5,0.4-0.8,0.7-0.9c0.2-0.1,0.4-0.1,0.4-0.1c0,0.1-0.5,0.3-0.7,1.1       c-0.1,0.4,0,0.9,0.4,1.2c0.4,0.3,1,0.4,1.5,0.1c0.5-0.3,0.7-0.9,0.6-1.4c-0.1-0.5-0.4-0.8-0.8-1       C209,214.4,208.4,214.7,208.4,214.6z" class="st14"/></g></g></g><g><g><g><path data-cppathid="10089" d="M258.1,284.5c-0.1,0.1-2.1-1.7-5-3.4c-2.9-1.7-5.5-2.5-5.4-2.7c0-0.1,2.7,0.5,5.7,2.2       C256.3,282.3,258.2,284.4,258.1,284.5z" class="st14"/></g></g></g></g><g><g><g><path data-cppathid="10090" d="M181,95.8l-20.5,9.9l8.8,61.7l-3.5,27.7c-0.4,3.6,0.9,7.1,3.6,9.5l0,0l33.1-0.7l23.2-12.7l10.6-1.8      l-4.4-21.1l2-29.9l24.2,12.9c1.9,1,4,1.3,6.1,0.7l44.4-11.5l-2.3-17.1l-40.2,4.5l-30.6-27.1l-22.8-5.1l-4.1-6.7h-23.3l-1.6,1.2      c-0.8,0.6-1.4,1.4-1.7,2.3L181,95.8z" class="st9"/></g></g><g><g><g><path data-cppathid="10091" d="M160.5,105.7c0,0-6.7,4.3-9.2,12c-2.3,7.3-7.6,36.7-7.6,36.7L120.3,140l-13.4,14.1l31.1,27.4       c4.8,4.2,11.6,5.1,17.3,2.4h0c4.8-2.3,8.1-6.8,8.8-12.1l3.8-27.9L160.5,105.7z" class="st9"/></g></g><g><g><polygon data-cppathid="10092" points="230.4,193.9 229,191.7 213.6,194.6 210.8,201.1      " class="st10"/></g></g><g><g><path data-cppathid="10093" d="M169.4,204.5c13.7,5.5,28.3,3.5,41.4-3.4c3.9-2.1,7.6-4.7,11.5-6.7c4-2.1,8.3-3.6,12.8-3.3       c4.4,0.3,8.9,2.8,10.7,6.9c1.8,4.1,0,9.7-4.2,11.2c0.5,0.4,1,0.9,1.5,1.3c6.2-2.9,9.1-11.1,6.1-17.2       c-2.3-4.7-7.1-7.4-10.7-11.3c-5.2-5.6-5.8-16.4-5.8-24.9" class="st9"/></g></g><g><g><g><path data-cppathid="10094" d="M199.5,107.7c0,0-0.4,0-1,0.1c-0.6,0.1-1.6,0.2-2.4,1.1c-0.8,0.9-1.2,2.3-1.2,3.9c0,1.6,0.3,3.5,1.1,5.2        l0.4,0.9l-0.8-0.6c-1.7-1.3-3.5-2.8-5.2-4.6c-4-4.1-6.6-8.7-7.9-12.2c-0.7-1.7-1.1-3.2-1.3-4.2c-0.2-1-0.3-1.6-0.2-1.6        c0.1,0,0.4,2.3,1.9,5.7c1.4,3.4,4.1,7.9,8,11.9c1.7,1.7,3.4,3.3,5.1,4.5l-0.4,0.3c-0.4-0.9-0.7-1.9-0.9-2.8        c-0.2-0.9-0.3-1.8-0.2-2.7c0-1.7,0.5-3.2,1.4-4.1c0.9-0.9,2-1,2.6-1.1C199.1,107.6,199.5,107.7,199.5,107.7z" class="st13"/></g></g></g><g><g><g><path data-cppathid="10095" d="M200.7,107.7c1.7-0.7,4.2,0.3,5.4,1.7c0.8,0.9,1.3,2.2,2.3,2.8c1.1,0.6,4.4,1.1,5.4,0.3        c0,0,0.6-2.8,0.9-4c1.2-4.7,1.8-8.9,2.3-13.7c-3.2-1.6-2.3-3.6-8.1-3.2c0,0,1.5,4.3,0.2,8.2" class="st9"/></g></g><g><g><g><path data-cppathid="10096" d="M209,99.8c-0.1,0,0.2-0.8,0.3-2.2c0.1-1.4,0-3.5-0.7-5.9l-0.1-0.2l0.2,0c1.3-0.1,2.8-0.2,4.3,0.4         c0.8,0.3,1.4,0.9,2,1.4c0.6,0.5,1.2,1,2,1.4l0.2,0.1l0,0.2c-0.3,2.4-0.6,5.1-1,7.8c-0.3,1.8-0.7,3.5-1.1,5.2         c-0.4,1.7-0.7,3.2-1.1,4.7l0,0.1l-0.1,0c-0.6,0.4-1.2,0.4-1.7,0.4c-0.6,0-1.1,0-1.6-0.1c-0.5-0.1-1-0.2-1.5-0.3         c-0.5-0.1-1-0.4-1.3-0.7c-0.7-0.7-1.1-1.5-1.5-2.1c-0.5-0.6-1-1.1-1.6-1.4c-1.1-0.7-2.2-0.9-2.9-0.9c-0.7,0-1.1,0.2-1.1,0.2         c0,0,0.3-0.2,1.1-0.3c0.7-0.1,1.8,0.1,3,0.8c0.6,0.3,1.2,0.8,1.7,1.5c0.5,0.6,0.9,1.4,1.5,2c0.6,0.6,1.6,0.7,2.6,0.9         c0.5,0.1,1,0.1,1.5,0.1c0.5,0,1.1-0.1,1.4-0.3l-0.1,0.1c0.3-1.5,0.7-3.1,1.1-4.8c0.4-1.6,0.8-3.4,1.1-5.1         c0.5-2.7,0.8-5.4,1-7.8l0.1,0.2c-0.8-0.4-1.5-0.9-2.1-1.5c-0.6-0.6-1.2-1.1-1.8-1.4c-1.4-0.5-2.8-0.5-4.1-0.4l0.2-0.3         c0.7,2.5,0.7,4.6,0.6,6.1c-0.1,0.7-0.2,1.3-0.3,1.6C209.1,99.6,209,99.8,209,99.8z" class="st13"/></g></g></g></g><g><g><g><path data-cppathid="10097" d="M243.2,194.2c0,0,0-0.4,0-1.1c-0.1-0.7-0.3-1.9-1-3.1c-0.7-1.2-1.9-2.5-3.7-3.6c-1.7-1-4-1.6-6.6-1.8        c-2.5-0.2-5.4-0.1-8.4-0.3c-3-0.2-6.3-0.7-9.5-2c-3.2-1.3-6.3-3.4-8.5-6.4c-1.1-1.5-2-3.3-2.5-5.1c-0.5-1.9-0.6-3.9-0.6-5.8        c0.2-4,1.1-7.7,1.6-11.3c0.6-3.6,0.9-7.2,1-10.6c0.2-6.8-0.4-12.9-1.3-17.9c-0.9-5-2.1-9-2.9-11.8c-0.4-1.4-0.8-2.4-1.1-3.1        c-0.1-0.3-0.2-0.6-0.3-0.8c-0.1-0.2-0.1-0.3-0.1-0.3c0,0,0.1,0.1,0.1,0.3c0.1,0.2,0.2,0.5,0.3,0.8c0.3,0.7,0.7,1.7,1.2,3.1        c0.9,2.7,2.2,6.7,3.1,11.8c1,5.1,1.6,11.2,1.4,18c-0.1,3.4-0.4,7-1,10.6c-0.5,3.7-1.4,7.4-1.6,11.3c-0.2,3.9,0.7,7.7,2.9,10.6        c2.2,2.9,5.2,5,8.3,6.2c3.1,1.3,6.3,1.8,9.3,2c3,0.2,5.8,0.1,8.4,0.4c2.6,0.2,4.9,0.8,6.7,1.9c1.8,1.1,3,2.4,3.7,3.7        c0.7,1.3,0.9,2.4,0.9,3.2c0,0.4,0,0.7,0,0.9C243.2,194.1,243.2,194.2,243.2,194.2z" class="st13"/></g></g></g><g><g><g><path data-cppathid="10098" d="M228.2,176c0,0-0.4,0.4-1.2,1.2c-0.4,0.4-0.9,0.8-1.4,1.3c-0.6,0.5-1.2,1.1-2,1.6        c-1.5,1.2-3.4,2.5-5.5,3.8c-2.2,1.3-4.7,2.6-7.3,3.7c-2.7,1.1-5.4,2-7.8,2.6c-2.5,0.6-4.7,1-6.6,1.3c-0.9,0.1-1.8,0.2-2.6,0.3        c-0.8,0.1-1.4,0.1-1.9,0.1c-1.1,0-1.7,0-1.7,0c0,0,0.6-0.1,1.6-0.2c0.5,0,1.2-0.1,1.9-0.2c0.8-0.1,1.6-0.2,2.5-0.3        c1.9-0.3,4.1-0.7,6.5-1.4c2.4-0.7,5.1-1.5,7.7-2.6c2.7-1.1,5.1-2.4,7.3-3.7c2.2-1.3,4-2.6,5.6-3.7c0.8-0.5,1.4-1.1,2-1.6        c0.6-0.5,1.1-0.9,1.5-1.2C227.7,176.3,228.2,175.9,228.2,176z" class="st13"/></g></g></g><g><g><g><path data-cppathid="10099" d="M221.8,143.1c0,0,0,0.2-0.1,0.6c-0.1,0.4-0.2,0.9-0.3,1.6c-0.1,0.7-0.4,1.5-0.7,2.4        c-0.3,0.9-0.6,2-1.1,3.2c-0.2,0.6-0.5,1.2-0.7,1.8c-0.2,0.6-0.6,1.3-0.9,1.9c-0.6,1.3-1.3,2.7-2.1,4.2        c-1.6,2.9-3.7,5.9-6.1,8.8c-2.5,2.9-5.1,5.4-7.6,7.5c-1.3,1-2.5,2-3.7,2.8c-0.6,0.4-1.2,0.8-1.8,1.2c-0.6,0.3-1.1,0.7-1.7,1        c-1.1,0.7-2.1,1.1-2.9,1.6c-0.9,0.5-1.6,0.8-2.3,1.1c-0.6,0.2-1.1,0.5-1.5,0.6c-0.3,0.1-0.5,0.2-0.5,0.2c0,0,0.2-0.1,0.5-0.3        c0.4-0.2,0.9-0.4,1.4-0.7c0.6-0.3,1.4-0.7,2.2-1.2c0.9-0.5,1.9-1,2.9-1.7c0.5-0.3,1.1-0.7,1.6-1c0.6-0.4,1.1-0.8,1.7-1.2        c1.2-0.8,2.4-1.8,3.7-2.8c2.5-2.1,5.1-4.6,7.5-7.5c2.4-2.9,4.4-5.9,6.1-8.7c0.8-1.4,1.5-2.8,2.1-4.1c0.3-0.7,0.6-1.3,0.9-1.9        c0.3-0.6,0.5-1.2,0.7-1.8c0.5-1.1,0.8-2.2,1.1-3.1c0.3-0.9,0.6-1.7,0.7-2.4c0.2-0.6,0.3-1.1,0.4-1.5        C221.7,143.3,221.8,143.1,221.8,143.1z" class="st13"/></g></g></g><g><g><g><path data-cppathid="10100" d="M179.6,209.5c0,0-0.8-0.4-1.8-1.4c-1-1-2.2-2.5-3.1-4.5c-0.8-2-1.1-4-1.1-5.4c0-1.4,0.3-2.3,0.3-2.3        c0.1,0,0,0.9,0.1,2.2c0.1,1.4,0.4,3.3,1.2,5.2c0.8,1.9,1.9,3.5,2.9,4.5C179,208.9,179.7,209.5,179.6,209.5z" class="st13"/></g></g></g><g><g><g><path data-cppathid="10101" d="M178.9,201.8c0.1,0-0.1,1.3,0,2.9c0.1,1.6,0.6,2.8,0.5,2.9c-0.1,0.1-0.9-1.1-1-2.8        C178.2,203,178.8,201.7,178.9,201.8z" class="st13"/></g></g></g><g><g><g><path data-cppathid="10102" d="M169,166c0,0-0.1-0.2-0.1-0.5c-0.1-0.4-0.1-0.8-0.2-1.4c-0.2-1.3-0.5-3-0.8-5        c-0.7-4.2-1.7-10.1-2.9-16.5c-1.2-6.4-2.4-12.2-3.2-16.4c-0.4-2-0.8-3.7-1-5c-0.1-0.5-0.2-1-0.3-1.4c-0.1-0.3-0.1-0.5-0.1-0.5        c0,0,0.1,0.2,0.2,0.5c0.1,0.4,0.2,0.8,0.4,1.3c0.3,1.2,0.7,2.9,1.2,4.9c1,4.2,2.2,10,3.4,16.4c1.2,6.4,2.1,12.3,2.7,16.5        c0.3,2.1,0.5,3.8,0.7,5c0.1,0.5,0.1,1,0.2,1.4C169,165.8,169,165.9,169,166z" class="st13"/></g></g></g><g><g><g><path data-cppathid="10103" d="M233,166c0,0,0-0.2-0.1-0.5c0-0.4,0-0.9,0-1.4c0-1.2,0-3,0-5.2c0-4.4,0.2-10.5,0.7-17.2        c0.5-6.7,1.2-12.8,1.7-17.1c0.3-2.1,0.5-3.9,0.7-5.2c0.1-0.6,0.2-1,0.2-1.4c0.1-0.3,0.1-0.5,0.1-0.5c0,0,0,0.2,0,0.5        c0,0.4-0.1,0.9-0.1,1.4c-0.1,1.3-0.3,3.1-0.5,5.2c-0.4,4.4-1,10.4-1.6,17.1c-0.5,6.7-0.8,12.8-0.9,17.2        c-0.1,2.1-0.1,3.9-0.1,5.2c0,0.6,0,1-0.1,1.4C233.1,165.8,233,166,233,166z" class="st13"/></g></g></g><g><g><g><path data-cppathid="10104" d="M153.1,168.5c-0.2,0.1-1.5-3.6-4-7.5c-2.6-4-5.5-6.5-5.4-6.6c0,0,0.8,0.5,2,1.6c1.1,1.1,2.6,2.7,3.9,4.7        c1.3,2,2.2,4,2.8,5.4C152.8,167.6,153.1,168.5,153.1,168.5z" class="st13"/></g></g></g><g><g><g><path data-cppathid="10105" d="M154.8,164.2c-0.1,0-0.4-0.8-1.1-1.9c-0.7-1.2-1.8-2.7-3.5-4c-1.6-1.3-3.3-2.2-4.6-2.8        c-1.3-0.6-2.1-0.9-2-1c0-0.1,0.9,0.1,2.2,0.6c1.3,0.5,3.1,1.4,4.8,2.7c1.7,1.4,2.8,3,3.4,4.3        C154.6,163.3,154.8,164.2,154.8,164.2z" class="st13"/></g></g></g><g><g><g><path data-cppathid="10106" d="M165.1,140.1c0,0,0,0.2-0.2,0.4c-0.2,0.3-0.5,0.7-0.9,1.1c-0.9,0.8-2.7,1.7-4.9,1.3c-2.2-0.3-4.6-1.9-6.2-4.4        c-0.8-1.2-1.5-2.6-2-4c-0.3-0.7-0.6-1.5-0.8-2.3c-0.2-0.8-0.4-1.6-0.3-2.5c0.1-0.9,0.5-1.7,1.2-2.3c0.7-0.6,1.7-0.6,2.5-0.4        c1.6,0.4,2.8,1.7,3.3,3.1c0.5,1.4,0.3,3-0.4,4.1c-0.7,1.1-1.8,1.9-2.9,2.2c-1.1,0.3-2.1,0.2-3-0.1c-0.8-0.3-1.4-0.8-1.8-1.3        c-0.4-0.5-0.7-0.9-0.8-1.2c-0.1-0.3-0.2-0.5-0.1-0.5c0.1,0,0.2,0.7,1.1,1.5c0.4,0.4,1,0.8,1.8,1.1c0.8,0.3,1.8,0.4,2.8,0.1        c1-0.3,2-1,2.6-2.1c0.6-1,0.8-2.4,0.3-3.7c-0.5-1.3-1.5-2.4-3-2.8c-0.7-0.2-1.5-0.1-2,0.4c-0.6,0.4-0.9,1.2-1,1.9        c-0.2,1.5,0.5,3.1,1,4.5c0.6,1.4,1.2,2.8,2,4c1.5,2.4,3.7,3.9,5.8,4.3c2.1,0.4,3.8-0.4,4.7-1.1        C164.8,140.7,165,140.1,165.1,140.1z"/></g></g></g><g><g><g><path data-cppathid="10107" d="M204.4,155.5c0,0-0.1,0.1-0.3,0.2c-0.2,0.2-0.5,0.4-0.8,0.6c-0.7,0.5-1.9,1.4-3.4,2.2c-0.8,0.4-1.7,0.7-2.8,0.9        c-1.1,0.2-2.3,0.2-3.5-0.2c-2.5-0.8-4.7-2.9-6.3-5.6c-1.7-2.7-2.8-6.1-2.9-9.9c-0.1-3.7,0.8-7.8,3.1-11.4        c1.1-1.8,2.6-3.5,4.7-4.4c1-0.4,2.2-0.6,3.4-0.4c1.1,0.2,2.3,0.7,3,1.7c0.7,1,1,2.2,0.9,3.4c-0.1,1.2-0.5,2.4-1.1,3.4        c-1.2,2.1-3.3,3.6-5.6,4.5c-2.3,0.9-4.8,1.1-7.1,0.7c-2.4-0.3-4.6-1.3-6.4-2.7c-3.8-2.7-6.2-6.7-7.6-10.6        c-0.7-2-1.2-4-0.9-6.1c0.2-1,0.5-2,1.2-2.8c0.6-0.8,1.5-1.4,2.4-1.6c1.9-0.4,3.9,0.4,5,1.7c1.2,1.4,1.5,3.2,1.2,4.8        c-0.3,1.6-1,3-2.1,4c-1,1-2.2,1.7-3.4,2.2c-2.4,0.9-4.6,1-6.4,1c-1.8-0.1-3.1-0.3-4-0.4c-0.4-0.1-0.8-0.1-1-0.2        c-0.2,0-0.4-0.1-0.4-0.1c0,0,0.1,0,0.4,0c0.3,0,0.6,0.1,1,0.1c0.9,0.1,2.3,0.3,4,0.3c1.7,0,3.9-0.1,6.2-1        c1.1-0.5,2.3-1.2,3.3-2.2c1-1,1.7-2.4,1.9-3.9c0.2-1.5,0-3.2-1.2-4.5c-1.1-1.2-2.9-2-4.6-1.6c-1.8,0.4-3,2.1-3.3,4        c-0.3,1.9,0.2,3.9,0.9,5.8c1.4,3.9,3.8,7.7,7.4,10.3c1.8,1.3,3.9,2.3,6.2,2.6c2.3,0.4,4.7,0.1,6.9-0.7        c2.2-0.8,4.1-2.3,5.3-4.3c0.6-1,0.9-2.1,1-3.2c0.1-1.1-0.2-2.2-0.8-3.1c-0.6-0.9-1.7-1.4-2.7-1.5c-1-0.2-2.1,0-3.1,0.4        c-1.9,0.8-3.4,2.5-4.5,4.2c-2.2,3.5-3.1,7.4-3,11.1c0.1,3.7,1.2,7,2.8,9.7c1.6,2.7,3.8,4.7,6.1,5.5c2.4,0.8,4.6,0.1,6.1-0.6        c1.6-0.7,2.7-1.5,3.5-2.1c0.4-0.3,0.6-0.5,0.9-0.6C204.3,155.5,204.4,155.5,204.4,155.5z"/></g></g></g><g><g><g><path data-cppathid="10108" d="M176.8,99.4c0,0-0.1,0.3-0.3,0.9c-0.2,0.6-0.7,1.3-1.3,2.2c-1.2,1.8-3.4,4.1-6.5,5.5c-3.1,1.5-6.2,1.7-8.4,1.6        c-1.1-0.1-2-0.3-2.6-0.4c-0.6-0.2-0.9-0.3-0.9-0.3c0-0.1,1.3,0.3,3.5,0.4c2.1,0.1,5.2-0.3,8.1-1.7c3-1.4,5.1-3.5,6.4-5.3        C176.2,100.6,176.7,99.3,176.8,99.4z"/></g></g></g><g><g><g><path data-cppathid="10109" d="M191.6,103.6c0,0.2-1.5,0.2-2.8,1.4c-1.4,1.1-1.7,2.6-1.8,2.6c-0.1,0-0.1-0.4,0.1-1c0.2-0.6,0.6-1.4,1.4-2        c0.7-0.6,1.6-0.9,2.2-1C191.2,103.5,191.6,103.6,191.6,103.6z"/></g></g></g><g><g><g><path data-cppathid="10110" d="M212.7,109.5c0,0-0.3-0.1-0.8-0.4c-0.5-0.3-1.2-0.9-1.9-1.7c-0.6-0.9-1.3-2.1-1.4-3.5c0-0.7,0.1-1.6,0.6-2.2        c0.5-0.7,1.4-1.2,2.3-1c0.9,0.2,1.6,1,1.8,1.7c0.3,0.8,0,1.7-0.5,2.3c-1,1.2-2.6,1.4-3.6,1c-1.1-0.4-1.7-1.1-2-1.6        c-0.3-0.5-0.4-0.9-0.4-0.9c0,0,0.2,0.3,0.5,0.7c0.4,0.4,1,1.1,1.9,1.4c0.9,0.3,2.3,0.1,3.1-0.9c0.4-0.5,0.6-1.2,0.3-1.8        c-0.2-0.6-0.8-1.2-1.4-1.4c-0.7-0.2-1.4,0.2-1.8,0.8c-0.4,0.6-0.6,1.3-0.5,1.9c0.1,1.3,0.6,2.5,1.2,3.4        C211.5,108.9,212.8,109.4,212.7,109.5z"/></g></g></g><g><g><g><path data-cppathid="10111" d="M216.7,97.8c-0.1,0.1-1.2-1.5-3.3-2.3c-2.1-0.9-4-0.5-4-0.7c0-0.1,0.4-0.2,1.2-0.3c0.8-0.1,1.9,0,3,0.5        c1.1,0.5,2,1.1,2.5,1.7C216.6,97.4,216.8,97.8,216.7,97.8z"/></g></g></g><g><g><g><path data-cppathid="10112" d="M244.2,109.5c0,0-0.1,0-0.2,0.1c-0.2,0.1-0.4,0.2-0.6,0.3c-0.5,0.3-1.3,0.6-2.4,1c-2.1,0.8-5.3,1.7-9.4,1.8        c-1,0-2.1-0.1-3.2-0.3c-1.1-0.2-2.2-0.7-3.2-1.5c-0.9-0.8-1.5-2.1-1.5-3.4c0-1.3,0.4-2.7,1.3-3.8c1.8-2.2,5.1-2.9,8-2        c2.9,0.8,5.5,3.1,6.4,6.2c0.9,3,0.1,6.5-1.9,8.7c-2,2.3-4.8,3.4-7.4,4c-2.6,0.6-5.2,0.7-7.6,0.8c-2.4,0.1-4.6,0.2-6.5,0.6        c-3.9,0.8-6.7,2.8-8.1,4.6c-1.4,1.8-1.5,3.1-1.5,3.1c0,0,0-0.1,0-0.2c0-0.1,0.1-0.4,0.2-0.7c0.2-0.6,0.5-1.4,1.2-2.3        c1.3-1.9,4.1-4,8.1-4.8c2-0.4,4.2-0.6,6.6-0.7c2.4-0.1,4.9-0.2,7.5-0.8c2.5-0.6,5.2-1.7,7.1-3.9c1.9-2.1,2.6-5.3,1.8-8.2        c-0.8-2.9-3.3-5.1-6-5.8c-2.7-0.8-5.8-0.1-7.5,1.9c-0.8,1-1.3,2.2-1.2,3.4c0,1.2,0.5,2.3,1.4,3.1c0.8,0.8,1.9,1.2,3,1.5        c1.1,0.3,2.1,0.3,3.1,0.3c4,0,7.2-0.9,9.4-1.6c1.1-0.4,1.9-0.7,2.4-0.9C243.9,109.6,244.2,109.5,244.2,109.5z"/></g></g></g><g><g><g><path data-cppathid="10113" d="M219.3,148.7c-0.1,0-0.4-0.8-1.3-2c-0.9-1.2-2.5-2.6-4.6-3.4c-2.1-0.8-4.2-0.7-5.7-0.5c-1.5,0.3-2.3,0.7-2.3,0.6        c0,0,0.8-0.6,2.3-1c1.5-0.4,3.7-0.5,5.9,0.3c2.2,0.8,3.8,2.4,4.7,3.7C219.1,147.8,219.3,148.7,219.3,148.7z"/></g></g></g><g><g><g><path data-cppathid="10114" d="M230.9,156.3c0,0-0.3,0.9-1.4,2c-1,1.1-2.9,2.3-5.3,2.5c-2.4,0.2-4.4-0.7-5.6-1.6c-1.2-0.9-1.7-1.8-1.7-1.8        c0.1-0.1,0.6,0.7,1.9,1.5c1.2,0.8,3.2,1.6,5.4,1.4c2.2-0.2,4-1.3,5.1-2.2C230.4,157.1,230.9,156.3,230.9,156.3z"/></g></g></g><g><g><g><path data-cppathid="10115" d="M234,136.4c0,0.1-0.6-0.3-1.7-0.6c-1.1-0.3-2.6-0.4-4.2,0.1c-1.6,0.5-2.8,1.5-3.5,2.4c-0.7,0.8-1,1.5-1.1,1.5        c-0.1,0,0.1-0.7,0.8-1.7c0.6-0.9,1.9-2.1,3.6-2.6c1.7-0.5,3.4-0.3,4.5,0.1C233.5,135.9,234,136.4,234,136.4z"/></g></g></g><g><g><g><path data-cppathid="10116" d="M271.2,127.2c0,0,0.1,0.3,0.2,0.7c0.1,0.2,0.1,0.6,0.1,0.9c0,0.4,0.1,0.8,0,1.3c0,1.9-0.7,4.7-2.9,7.5        c-1.1,1.3-2.5,2.6-4.3,3.6c-1.8,0.9-4,1.4-6.2,1.4c-4.5,0-9.6-2.2-12.8-6.4c-0.8-1-1.5-2.2-1.8-3.5c-0.3-1.3-0.3-2.6,0.1-3.8        c0.4-1.2,1.2-2.3,2.3-2.9c1.1-0.6,2.4-0.6,3.5-0.4c1.1,0.2,2.2,0.8,3,1.6c0.8,0.8,1.3,1.7,1.6,2.7c0.6,2,0.5,3.9,0,5.6        c-0.5,1.6-1.4,3-2.4,4c-0.9,1-1.9,1.7-2.8,2.1c-0.8,0.5-1.6,0.7-2,0.8c-0.5,0.1-0.7,0.2-0.8,0.1c0-0.1,1-0.2,2.7-1.1        c1.6-0.9,3.8-2.8,4.9-6c0.5-1.6,0.6-3.5,0-5.3c-0.3-0.9-0.8-1.8-1.5-2.5c-0.7-0.7-1.7-1.2-2.7-1.4c-1.1-0.2-2.2-0.1-3.2,0.4        c-1,0.5-1.7,1.5-2.1,2.6c-0.4,1.1-0.4,2.4,0,3.5c0.3,1.2,0.9,2.3,1.7,3.3c3.2,4,8,6.2,12.4,6.2c2.2,0,4.3-0.4,6-1.3        c1.8-0.9,3.2-2.1,4.2-3.4c2.1-2.6,2.9-5.4,2.9-7.2C271.5,128.3,271.2,127.2,271.2,127.2z"/></g></g></g><g><g><g><path data-cppathid="10117" d="M279,147.9c0,0-0.3-0.2-0.6-0.7c-0.3-0.5-0.8-1.2-1.1-2.3c-0.3-1-0.4-2.3-0.2-3.7c0.2-1.4,0.6-2.9,1-4.4        c1-3.1,2.5-5.6,3.6-7.4c0.6-0.9,1-1.6,1.4-2.1c0.3-0.5,0.5-0.7,0.6-0.7c0.1,0-0.6,1.2-1.6,3c-1,1.8-2.5,4.3-3.4,7.3        c-0.4,1.5-0.8,3-1,4.3c-0.2,1.3-0.2,2.6,0,3.6C278.1,146.9,279.1,147.9,279,147.9z"/></g></g></g><g><g><g><path data-cppathid="10118" d="M297.9,124.9c0,0,0.1,0.2,0.3,0.7c0.2,0.5,0.3,1.2,0.5,2.1c0.3,1.8,0.4,4.3-0.2,7c-0.6,2.7-1.7,4.9-2.8,6.4        c-0.5,0.7-1,1.3-1.3,1.7c-0.3,0.4-0.5,0.5-0.6,0.5c-0.1-0.1,0.7-0.9,1.6-2.4c0.9-1.5,2-3.7,2.6-6.3c0.6-2.6,0.5-5.1,0.3-6.8        C298.1,126,297.8,124.9,297.9,124.9z"/></g></g></g><g><g><g><path data-cppathid="10119" d="M232.5,171.7c0,0-0.2-0.1-0.4-0.2c-0.3-0.2-0.7-0.4-1.2-0.7c-1.1-0.5-2.7-1.2-4.9-1.4c-2.1-0.2-4.8,0-7.3,1.2        c-1.3,0.6-2.6,1.4-3.7,2.4c-0.6,0.5-1.1,1.1-1.4,1.8c-0.4,0.7-0.6,1.4-0.5,2.2c0.1,0.8,0.5,1.5,1.1,1.9c0.6,0.4,1.4,0.4,2,0.1        c1.4-0.6,1.9-2.2,1.9-3.5c-0.1-2.8-1.9-5.1-3.7-6c-1.9-1-3.7-0.9-4.9-0.6c-1.2,0.3-1.8,0.6-1.8,0.6c0,0,0.1-0.1,0.4-0.3        c0.3-0.1,0.7-0.3,1.3-0.5c1.2-0.3,3.1-0.5,5.1,0.5c2,1,3.9,3.3,4,6.3c0,0.7-0.1,1.5-0.4,2.3c-0.3,0.7-0.9,1.4-1.7,1.7        c-0.8,0.4-1.8,0.4-2.5-0.1c-0.8-0.5-1.2-1.4-1.3-2.2c-0.1-0.9,0.2-1.8,0.6-2.5c0.4-0.7,1-1.4,1.5-1.9c1.2-1.1,2.5-1.9,3.8-2.5        c2.7-1.2,5.4-1.4,7.6-1.1c2.2,0.3,3.9,1,4.9,1.6c0.5,0.3,0.9,0.6,1.2,0.8C232.3,171.6,232.5,171.7,232.5,171.7z"/></g></g></g><g><g><g><path data-cppathid="10120" d="M236.1,179.9c0.1,0.1-0.4,1.1-1.2,2.3c-0.8,1.2-1.5,2.1-1.6,2c-0.1-0.1,0.4-1.1,1.2-2.3        C235.2,180.8,236,179.9,236.1,179.9z"/></g></g></g><g><g><g><path data-cppathid="10121" d="M248.8,194.3c-0.1,0-0.2-0.4-0.6-0.9c-0.3-0.5-0.9-1.2-1.8-1.6c-0.8-0.5-1.7-0.6-2.3-0.7c-0.6,0-1,0.1-1,0        c0-0.1,0.4-0.3,1-0.3c0.7-0.1,1.6,0.1,2.6,0.6c0.9,0.5,1.5,1.3,1.8,1.9C248.8,193.8,248.8,194.3,248.8,194.3z"/></g></g></g><g><g><g><path data-cppathid="10122" d="M207.5,189.2c0,0.1-1.2,0.7-3.1,1.8c-1.9,1.1-4.6,2.7-6.8,5.3c-2.2,2.5-3.4,5.5-3.6,7.6c-0.3,2.2,0.2,3.5,0.1,3.6        c0,0-0.2-0.3-0.3-0.9c-0.1-0.6-0.2-1.5-0.1-2.7c0.1-2.3,1.3-5.4,3.6-7.9c2.3-2.6,5-4.2,7-5.2c1-0.5,1.8-0.9,2.4-1.1        C207.1,189.3,207.5,189.1,207.5,189.2z"/></g></g></g><g><g><g><path data-cppathid="10123" d="M222.2,194c0,0-0.6-0.3-1.1-1.2c-0.5-0.9-1-2.3-0.8-3.8c0.1-1.6,0.8-2.9,1.5-3.6c0.7-0.8,1.2-1,1.3-1        c0.1,0.1-0.4,0.4-1,1.2c-0.6,0.8-1.1,2-1.2,3.5c-0.1,1.5,0.2,2.8,0.6,3.6C221.8,193.5,222.2,194,222.2,194z"/></g></g></g><g><g><g><path data-cppathid="10124" d="M199.2,175.9c0,0-0.2-0.2-0.6-0.6c-0.4-0.3-1.1-0.8-2.1-0.9c-1-0.1-2.3,0-3.5,0.7c-1.2,0.7-2.3,2-3.3,3.5        c-1,1.5-1.8,3.3-3.1,5.1c-1.2,1.8-3.2,3.4-5.5,4.1c-2.3,0.8-5.1,0.7-7.6-0.4c-2.4-1.1-4.6-3.2-5.6-5.9        c-0.5-1.3-0.6-2.9-0.2-4.2c0.4-1.4,1.4-2.5,2.6-3.2c1.2-0.7,2.5-1,3.9-0.9c1.3,0.2,2.5,0.8,3.4,1.6c1.9,1.7,2.8,4.1,2.7,6.3        c0,2.2-0.8,4.2-1.9,5.7c-1,1.5-2.4,2.6-3.6,3.4c-1.3,0.8-2.4,1.2-3.4,1.5c-1,0.3-1.8,0.4-2.3,0.5c-0.3,0-0.5,0.1-0.6,0.1        c-0.1,0-0.2,0-0.2,0c0,0,0.3-0.1,0.8-0.2c0.5-0.1,1.3-0.3,2.3-0.6c1-0.3,2.1-0.8,3.3-1.5c1.2-0.8,2.5-1.9,3.5-3.4        c1-1.5,1.7-3.4,1.7-5.5c0-2.1-0.8-4.4-2.6-5.9c-0.9-0.8-2-1.3-3.2-1.5c-1.2-0.1-2.5,0.2-3.5,0.8c-1.1,0.7-2,1.7-2.4,2.9        c-0.4,1.2-0.3,2.6,0.2,3.9c0.9,2.6,3,4.6,5.3,5.6c2.3,1.1,5,1.2,7.2,0.4c2.3-0.7,4.1-2.2,5.3-3.9c1.2-1.7,2.1-3.5,3.1-5.1        c1-1.5,2.2-2.8,3.5-3.5c1.3-0.8,2.7-0.9,3.7-0.7c1,0.2,1.7,0.7,2.1,1C199.1,175.7,199.2,175.9,199.2,175.9z"/></g></g></g><g><g><g><path data-cppathid="10125" d="M199.5,191.5c0,0-0.7-0.3-1.6-1.3c-0.9-0.9-1.9-2.4-2.5-4.3c-0.6-1.9-0.5-3.7-0.3-5c0.2-1.3,0.6-2,0.7-2        c0.1,0-0.2,0.8-0.3,2c-0.1,1.2-0.1,3,0.4,4.8c0.5,1.8,1.4,3.3,2.2,4.2C199,191,199.6,191.4,199.5,191.5z"/></g></g></g><g><g><g><path data-cppathid="10126" d="M203.2,168.5c0,0.1-0.7-0.3-2-0.8c-1.3-0.5-3.2-1.2-5.7-1.5c-2.5-0.3-5.5-0.3-8.7,0.4c-1.6,0.4-3.3,0.9-4.8,1.8        c-0.7,0.4-1.4,1.1-1.6,1.9c-0.2,0.8,0.3,1.8,1,2c0.4,0.1,0.8,0,1.1-0.3c0.3-0.3,0.5-0.7,0.6-1.1c0.2-0.8,0.3-1.8,0.2-2.7        c-0.1-1.8-0.5-3.5-1.3-4.9c-0.7-1.5-1.7-2.7-2.8-3.6c-1.1-0.9-2.3-1.6-3.5-2c-2.3-0.8-4.4-0.8-5.8-0.6        c-1.4,0.2-2.1,0.5-2.1,0.5c0,0,0.2-0.1,0.5-0.2c0.3-0.1,0.9-0.3,1.6-0.4c1.4-0.3,3.5-0.4,6,0.4c1.2,0.4,2.5,1.1,3.6,2        c1.2,1,2.2,2.2,3,3.7c0.8,1.5,1.3,3.3,1.4,5.1c0,0.9,0,1.9-0.2,2.8c-0.1,0.5-0.3,1-0.7,1.3c-0.4,0.4-1,0.6-1.6,0.4        c-0.6-0.2-1-0.6-1.2-1.1c-0.2-0.5-0.3-1-0.2-1.5c0.2-1.1,1-1.8,1.8-2.2c1.6-0.9,3.3-1.4,5-1.8c3.3-0.8,6.4-0.7,8.9-0.3        c2.5,0.4,4.4,1.1,5.7,1.7c0.6,0.3,1.1,0.5,1.5,0.7C203.1,168.3,203.2,168.4,203.2,168.5z"/></g></g></g><g><g><g><path data-cppathid="10127" d="M125.3,171.3c0,0,0.6-0.5,1.6-1.5c1-1,2.3-2.6,3.1-5c0.9-2.3,1.2-5.5-0.3-8.5c-0.7-1.5-1.8-2.9-3.2-3.9        c-1.4-1.1-3.2-1.8-5-1.9c-0.9,0-1.8,0.2-2.6,0.6c-0.8,0.4-1.5,1-1.8,1.8c-0.3,0.8-0.1,1.7,0.4,2.3c0.5,0.7,1.2,1.2,1.9,1.4        c1.5,0.5,3.1,0,4.3-0.7c1.2-0.8,2.1-1.9,2.6-3c1.1-2.3,1.1-4.4,1.3-5.7c0-0.7,0.1-1.2,0.1-1.6c0-0.4,0-0.6,0-0.6        c0,0,0,0.2,0.1,0.6c0,0.4,0,0.9,0,1.6c0,1.4-0.1,3.5-1.1,5.9c-0.5,1.2-1.4,2.3-2.7,3.2c-1.3,0.8-3,1.4-4.7,0.8        c-0.8-0.3-1.6-0.8-2.2-1.6c-0.5-0.8-0.8-1.8-0.4-2.8c0.3-1,1.1-1.7,2-2.1c0.9-0.4,1.9-0.6,2.9-0.6c2,0.1,3.9,0.9,5.3,2        c1.5,1.1,2.6,2.6,3.3,4.1c0.7,1.5,1,3.2,1,4.7c0,1.5-0.4,2.9-0.8,4.1c-0.9,2.4-2.3,4-3.3,5c-0.5,0.5-1,0.8-1.3,1        C125.5,171.2,125.3,171.4,125.3,171.3z"/></g></g></g><g><g><g><path data-cppathid="10128" d="M146,186.2c0,0-0.3-0.3-0.8-0.8c-0.5-0.6-1.1-1.4-1.7-2.6c-1.3-2.3-2.4-5.9-2.2-10c0.3-4.1,1.9-7.5,3.5-9.6        c0.8-1.1,1.5-1.9,2-2.4c0.5-0.5,0.9-0.7,0.9-0.7c0.1,0.1-1.2,1.1-2.6,3.3c-1.4,2.1-3,5.5-3.2,9.4c-0.3,3.9,0.8,7.5,2,9.8        C145,184.9,146.1,186.2,146,186.2z"/></g></g></g><g><g><g><path data-cppathid="10129" d="M165.6,164.5c-0.1,0-0.5-1.5-1.7-3.7c-1.2-2.2-3.4-5-6.6-7.2c-3.2-2.1-6.7-3-9.2-3.3c-2.5-0.3-4.1-0.1-4.1-0.2        c0,0,0.4-0.1,1.1-0.2c0.7-0.1,1.8-0.1,3,0c2.6,0.2,6.1,1,9.4,3.2c3.3,2.2,5.5,5.1,6.7,7.4c0.6,1.1,1,2.1,1.2,2.8        C165.5,164.1,165.6,164.5,165.6,164.5z"/></g></g></g><g class="st7"><g><g><path data-cppathid="10130" d="M192.9,192.5c-1,0.4-0.9,1.9-0.1,2.6c0.8,0.7,1.9,0.7,3,0.6c11.7-0.6,23-6.9,29.6-16.6c-9,7.4-20.9,10.2-32.3,12.8"/></g></g></g><g class="st7"><g><g><path data-cppathid="10131" d="M191.1,182.3c-1-1.5-0.3-3.6,0.9-4.9c1.3-1.3,3-2,4.6-2.8c5.9-2.9,10.7-7.9,13.5-13.8c1.8-3.9,3.2-8.8,7.2-10.4        c-2.1,13.9-12.4,26.2-25.7,30.7"/></g></g></g><g class="st7"><g><g><path data-cppathid="10132" d="M162.7,130.4c1,10.9,0.2,22-2.3,32.7c-0.5,2.3-1.2,4.6-1.1,6.9c0,2.3,1.5,5,3.3,6.5c1.7-3.8,1.7-7.5,2.4-11.6        c0.6-3.7,1.7-12.4,1.7-12.5c0.1-7.6-1.6-14.1-4.6-20.9"/></g></g></g><g class="st7"><g><g><path data-cppathid="10133" d="M181.6,97.6c1.5,8,5.5,15.5,11.3,21.2c2.2,2.2,5,4.1,8,4c-1.8-3.6-2.3-7.8-1.5-11.8c2.6,1.7,5.3,3.3,8.2,4.5        c2.9,1.1,6.1,1.7,9.2,1c0.6-5.5,1.3-11.1,1.9-16.6c0.1-0.6,0.1-1.3-0.2-1.9c-0.3-0.6-1.2-0.8-1.6-0.4        c-0.2,0.2-0.3,0.5-0.3,0.7c-1.1,4.9-1.8,9.2-2.9,14.1c-0.8,0.8-3.3,0.5-4.9-0.1c-1.4-0.5-2-1.7-2.9-2.9        c-0.9-1.2-0.8-1-2.2-1.6c-2.6-1.1-7.5-0.2-8.6,2.1c-1.1,2.3-0.3,5.4,0.5,7.6c-7.1-4.6-12.5-12-14.6-20.2"/></g></g></g><g class="st7"><g><path data-cppathid="10134" d="M236.1,121c-0.2,0.4,6.2,22.1,6.2,22.1l-8.3-4.7L236.1,121z"/></g></g></g></g><g><g><g><g><g><g><g><g><g><g><g><g><g><g><g><path data-cppathid="10135" d="M184.3,58.1l0,34.5c0,2,0.7,3.9,2,5.4l0,0c1.9,2.3,4.3,4.3,6.9,5.7l7,3.9l5.8-5.1                  c1.7-1.5,2.7-3.6,2.8-5.9c0.1-2.5,0.1-5,0.1-5s9.8-0.7,10.7-10.3c0.4-4.5,0.6-13.8,0.6-22.4                  c0-9.8-7.5-17.9-17.2-18.7l-0.3,0C192.6,39.9,184.3,48.1,184.3,58.1z" class="st10"/></g></g></g></g></g></g></g></g></g></g><g><g><g><g><g><g><g><g><g><g><path data-cppathid="10136" d="M208.8,91.6c0,0-6.1-0.1-12.2-4.7c0,0,2.5,7.3,12.2,7.2L208.8,91.6z" class="st11"/></g></g></g></g></g></g></g></g></g></g></g></g></g><g><g><g><g><g><g><g><g><g><g><g><g><g><g><g><g><path data-cppathid="10137" d="M217.2,65.1c0,0.7-0.7,1.3-1.4,1.3c-0.8,0-1.3-0.6-1.3-1.4c0-0.7,0.7-1.3,1.4-1.3                     C216.7,63.8,217.3,64.4,217.2,65.1z" class="st13"/></g></g></g></g></g></g></g></g></g></g><g><g><g><g><g><g><g><g><g><g><g><path data-cppathid="10138" d="M217.6,62.8c-0.2,0.2-1.2-0.7-2.6-0.8c-1.5-0.1-2.6,0.5-2.8,0.3c-0.1-0.1,0.1-0.4,0.6-0.7                      c0.5-0.3,1.3-0.6,2.2-0.5c0.9,0.1,1.7,0.5,2.1,0.9C217.6,62.4,217.7,62.7,217.6,62.8z" class="st13"/></g></g></g></g></g></g></g></g></g></g></g></g><g><g><g><g><g><g><g><g><g><g><g><path data-cppathid="10139" d="M203.3,64.4c0,0.7-0.7,1.3-1.4,1.3c-0.8,0-1.3-0.6-1.3-1.4c0-0.7,0.7-1.3,1.4-1.3                     C202.7,63.1,203.3,63.7,203.3,64.4z" class="st13"/></g></g></g></g></g></g></g></g></g></g><g><g><g><g><g><g><g><g><g><g><g><path data-cppathid="10140" d="M203.1,61.9c-0.2,0.2-1.2-0.7-2.6-0.8c-1.5-0.1-2.6,0.5-2.8,0.3c-0.1-0.1,0.1-0.4,0.6-0.7                      c0.5-0.3,1.3-0.6,2.2-0.5c0.9,0.1,1.7,0.5,2.1,0.9C203,61.4,203.1,61.8,203.1,61.9z" class="st13"/></g></g></g></g></g></g></g></g></g></g></g></g><g><g><g><g><g><g><g><g><g><g><g><path data-cppathid="10141" d="M207.5,73.3c0-0.1,0.9-0.2,2.4-0.2c0.4,0,0.7-0.1,0.8-0.3c0.1-0.3,0-0.7-0.2-1.1                     c-0.3-0.9-0.6-1.9-0.9-3c-1.2-4.2-2.1-7.7-1.9-7.7c0.2,0,1.3,3.3,2.5,7.6c0.3,1,0.6,2,0.8,3                     c0.1,0.4,0.3,0.9,0.1,1.5c-0.1,0.3-0.4,0.5-0.7,0.5c-0.2,0.1-0.5,0-0.6,0C208.5,73.4,207.5,73.4,207.5,73.3z" class="st13"/></g></g></g></g></g></g></g></g></g></g></g><g><g><g><g><g><g><g><g><g><g><g><path data-cppathid="10142" d="M203.1,73.9c0.2,0,0.1,1.6,1.4,2.9c1.3,1.3,3,1.2,3,1.4c0,0.1-0.4,0.3-1.1,0.2                     c-0.7,0-1.7-0.3-2.5-1.1c-0.8-0.8-1.1-1.7-1.1-2.4C202.8,74.3,203,73.9,203.1,73.9z" class="st13"/></g></g></g></g></g></g></g></g></g></g></g></g></g></g><g><g><g><g><g><g><g><g><g><g><path data-cppathid="10143" d="M203.9,56.1c-0.2,0.4-1.6,0.1-3.4,0.1c-1.8,0-3.2,0.4-3.4,0c-0.1-0.2,0.2-0.5,0.8-0.9                 c0.6-0.3,1.5-0.6,2.6-0.7c1.1,0,2,0.2,2.6,0.5C203.7,55.6,204,55.9,203.9,56.1z" class="st13"/></g></g></g></g></g></g></g></g></g></g><g><g><g><g><g><g><g><g><g><g><path data-cppathid="10144" d="M217.4,58.5c-0.3,0.3-1.3-0.1-2.5-0.2c-1.2-0.2-2.3,0-2.5-0.3c-0.1-0.2,0.1-0.5,0.6-0.8                 c0.5-0.3,1.2-0.5,2.1-0.4c0.8,0.1,1.5,0.5,1.9,0.8C217.5,57.9,217.6,58.3,217.4,58.5z" class="st13"/></g></g></g></g></g></g></g></g></g></g></g></g><g><g><g><g><path data-cppathid="10145" d="M195.6,48.4C195.6,48.4,195.6,48.5,195.6,48.4c-1.7,1.1-2.8,2.8-3.3,4.7c0,0.1,0,0.1,0,0.2         c-0.6,2.7-0.8,5.5-1.4,8.2c-0.6,2.7-0.5,4.8-3.2,5.4c-1.7,0.4-3.2-0.6-3.8-1.5c-0.2-0.4-0.2-0.8-0.2-1.3         c0-6.7-1.3-9.3-0.7-16.2c0.2-1.9,1.2-3.6,2.8-4.6c1.5-0.9,3.4-1.9,5-1c1.6,0.9,3.4,4.1,4.5,5.5" class="st13"/></g></g></g></g><g><g><g><g><g><g><g><g><g><g><g><path data-cppathid="10146" d="M187.2,62.8c-0.2-0.1-6.5-2.5-6.8,4.1c-0.3,6.6,6.4,5.6,6.4,5.4                C186.8,72.1,187.2,62.8,187.2,62.8z" class="st10"/></g></g></g></g></g></g></g></g></g></g><g><g><g><g><g><g><g><g><g><g><g><path data-cppathid="10147" d="M184.9,69.6c0,0-0.1,0.1-0.3,0.2c-0.2,0.1-0.5,0.1-0.9,0c-0.7-0.3-1.2-1.4-1.2-2.6                 c0-0.6,0.2-1.2,0.4-1.6c0.2-0.5,0.6-0.8,0.9-0.8c0.4-0.1,0.6,0.2,0.7,0.3c0.1,0.2,0,0.3,0.1,0.3c0,0,0.1-0.1,0.1-0.4                 c0-0.1-0.1-0.3-0.2-0.4c-0.2-0.1-0.4-0.2-0.6-0.2c-0.5,0-1,0.5-1.3,1c-0.3,0.5-0.5,1.1-0.5,1.8                 c0,1.3,0.6,2.6,1.5,2.9c0.5,0.1,0.9,0,1.1-0.1C184.9,69.8,184.9,69.6,184.9,69.6z" class="st11"/></g></g></g></g></g></g></g></g></g></g></g></g><g><g><g><g><path data-cppathid="10148" d="M190.4,43.4c-1.4-2.8,3.4-6.2,6.7-6.9c3.3-0.8,7.5,1.2,10.6,2.5c2,0.8,3.9,2,6.1,2         c1.4,0.1,2.9-0.4,4.3-0.7c1.4-0.4,2.9-0.7,4.3-0.5c1.4,0.2,2.8,1.1,3.3,2.5c0.4,1.4-0.5,3.1-1.9,3.2c1.9-0.9,4.4,0.7,4.6,2.8         c0.1,2.1-2.2,3.9-4.2,3.3c1-0.6,2.3,0.7,2.1,1.8c-0.2,1.2-1.3,1.9-2.5,2.3c-2.8,1-6,0.3-8.8-0.9c-2.8-1.2-5.3-2.9-8-4.2         c-2.7-1.3-7.3-3.5-10.2-2.7c-2.1,0.6-3.8,3-4.9,2.3c-1.1-0.6-1.7-1.9-1.8-3.1C189.9,45.9,190.1,44.6,190.4,43.4" class="st13"/></g></g></g></g><g><g><g><g><g><path data-cppathid="10149" d="M224.5,45.4c-0.1,0-0.4,0.5-1.2,1.2c-0.8,0.7-2,1.6-3.9,2.1c-1.8,0.5-4.1,0.5-6.3-0.8          c-2.2-1.2-3.9-3.4-6-5.4c-2-2.1-4.5-3.7-7.1-4.2c-2.6-0.5-5,0.3-6.5,1.7c-1.5,1.4-1.9,3.1-1.8,4.1c0,0.5,0.1,1,0.2,1.2          c0.1,0.3,0.2,0.4,0.2,0.4c0.1,0-0.2-0.6-0.1-1.6c0.1-1,0.5-2.6,1.9-3.8c1.4-1.2,3.7-1.9,6.1-1.4c2.4,0.5,4.8,2,6.8,4          c2,2,3.8,4.3,6.1,5.5c2.3,1.3,4.8,1.2,6.7,0.7c1.9-0.5,3.2-1.5,3.9-2.3c0.4-0.4,0.6-0.7,0.8-1          C224.5,45.6,224.6,45.4,224.5,45.4z" class="st14"/></g></g></g></g></g><g><g><g><g><g><path data-cppathid="10150" d="M185.5,62.3c0,0,0.3-0.2,0.6-0.7c0.3-0.5,0.6-1.3,0.5-2.4c0-2.1-1.7-4.6-1.7-7.5          c0-1.5,0.3-2.9,1.1-3.9c0.7-1,1.7-1.6,2.6-1.9c0.9-0.3,1.7-0.2,2.2-0.1c0.5,0.1,0.8,0.3,0.8,0.2c0,0-0.2-0.3-0.8-0.5          c-0.5-0.2-1.4-0.3-2.4-0.1c-1,0.2-2.2,0.9-3,2c-0.8,1.1-1.2,2.7-1.2,4.2c0,1.6,0.5,3,0.9,4.3c0.5,1.2,0.8,2.3,0.9,3.3          C186.4,61.3,185.5,62.3,185.5,62.3z" class="st14"/></g></g></g></g></g></g></g></g><g><g><g><g><path data-cppathid="10151" d="M212.7,253c0,0-0.5,0-1.5,0c-1,0-2.5,0-4.4,0.1c-3.8,0.1-9.5,0.2-16.8,0.6c-7.3,0.4-16.2,1-26.5,2.2      c-5.1,0.6-10.6,1.3-16.4,2.3c-5.8,0.9-11.9,2.1-18.2,3.5c-6.4,1.4-13,3.2-19.7,5.4c-6.7,2.2-13.7,4.9-20.4,8.4      c-3.4,1.8-6.7,3.8-9.8,6.3c-3.1,2.4-6,5.3-8,8.8c-0.2,0.4-0.5,0.9-0.7,1.3l-0.6,1.4l-0.3,0.7c-0.1,0.2-0.1,0.5-0.2,0.7l-0.4,1.5      c-0.2,2-0.3,4.1,0.3,6.1c1,4.1,3.7,7.5,6.7,10.5c6.3,5.9,14.3,10,22.5,13.4c8.3,3.4,17.2,6.1,26.3,8.3c18.2,4.4,37.5,7,57.3,8.4      c19.8,1.4,39.3,1.3,58,0.2c18.7-1.1,36.7-3.4,53.6-7c8.4-1.8,16.5-4,24.3-6.5c7.7-2.6,15.1-5.7,21.7-9.5      c3.3-1.9,6.4-4.1,9.2-6.5c2.7-2.4,5.1-5.2,6.6-8.4l0.5-1.2c0.2-0.4,0.3-0.8,0.4-1.2l0.3-1.3c0-0.2,0.1-0.4,0.1-0.6l0.1-0.6      c0.2-1.7,0.1-3.4-0.4-5c-0.5-1.6-1.3-3.1-2.1-4.5c-0.9-1.4-2-2.7-3.1-3.8c-2.3-2.3-4.8-4.3-7.3-6c-2.6-1.7-5.2-3.3-7.8-4.6      c-5.2-2.8-10.3-4.9-15.1-6.7c-9.7-3.7-18.3-6-25.4-7.8c-7.1-1.8-12.6-2.9-16.4-3.6c-1.9-0.4-3.3-0.6-4.3-0.8      c-1-0.2-1.5-0.3-1.5-0.3s2,0.3,5.8,1c3.8,0.7,9.3,1.8,16.4,3.5c7.1,1.7,15.7,4.1,25.4,7.7c4.8,1.8,10,4,15.2,6.7      c2.6,1.4,5.2,2.9,7.8,4.6c2.6,1.7,5.1,3.7,7.4,6.1c1.2,1.2,2.2,2.5,3.1,3.9c0.9,1.4,1.7,2.9,2.2,4.6c0.5,1.7,0.6,3.4,0.4,5.2      l-0.1,0.7c0,0.2-0.1,0.4-0.1,0.6l-0.3,1.3c-0.1,0.4-0.3,0.8-0.4,1.3l-0.5,1.2c-1.5,3.3-3.9,6.1-6.7,8.6      c-2.8,2.5-5.9,4.6-9.2,6.6c-6.7,3.8-14,6.9-21.8,9.5c-7.8,2.6-15.9,4.8-24.3,6.6c-16.9,3.6-34.9,5.9-53.6,7      c-18.7,1.1-38.2,1.1-58.1-0.2c-19.8-1.4-39.2-4-57.4-8.5c-9.1-2.2-18-4.9-26.3-8.3c-8.3-3.5-16.3-7.6-22.7-13.5      c-3.1-3-5.8-6.5-6.8-10.7c-0.6-2.1-0.5-4.2-0.3-6.3l0.4-1.5c0.1-0.3,0.1-0.5,0.2-0.8l0.3-0.7l0.6-1.4c0.2-0.5,0.5-0.9,0.8-1.4      c2.1-3.6,5-6.5,8.2-8.9c3.1-2.4,6.5-4.5,9.9-6.3c6.8-3.6,13.8-6.2,20.5-8.4c6.8-2.2,13.4-3.9,19.8-5.4      c6.4-1.4,12.5-2.6,18.3-3.5c5.8-1,11.3-1.6,16.4-2.2c10.3-1.1,19.2-1.8,26.5-2.1c7.3-0.3,12.9-0.4,16.8-0.5c1.9,0,3.4,0,4.4,0      C212.2,253,212.7,253,212.7,253z" class="st15"/></g></g></g><g><g><g><path data-cppathid="10152" d="M131,177.3c0,0-0.6,0.1-1.7,0.3c-1.1,0.2-2.8,0.5-4.9,1c-4.3,0.9-10.7,2.3-18.8,4.5      c-8.1,2.3-18,5.3-28.9,10.2c-2.7,1.2-5.5,2.6-8.3,4.2c-2.8,1.6-5.6,3.3-8.3,5.3c-2.7,2-5.4,4.3-7.7,7c-2.3,2.7-4.3,5.9-5.2,9.5      c-1,3.6-0.7,7.6,0.8,11.2c1.5,3.6,4,6.9,6.9,9.7c5.9,5.7,13.4,10,21.4,13.7c16.1,7.3,34.5,12.2,54,15.9      c19.6,3.6,40.4,5.9,62,6.8c21.6,1,44.1,0.7,66.9-1.2c22.9-1.9,45.1-5.3,66.1-10.8c10.5-2.8,20.6-6.1,30.1-10.3      c4.7-2.1,9.3-4.5,13.6-7.3c4.3-2.8,8.2-5.9,11.5-9.7c3.2-3.7,5.5-8.3,5.7-13.1c0.1-0.6,0-1.2-0.1-1.8c-0.1-0.6,0-1.2-0.2-1.8      l-0.4-1.7c-0.1-0.6-0.4-1.1-0.6-1.7c-0.8-2.2-2.1-4.2-3.4-6.1c-2.9-3.7-6.4-6.7-10.1-9.4c-3.7-2.6-7.7-4.8-11.6-6.8      c-7.9-3.9-16-6.9-23.8-9.3c-7.8-2.5-15.5-4.4-22.8-6c-29.4-6.3-53.8-8.1-70.6-9c-8.4-0.4-14.9-0.5-19.4-0.6      c-2.2,0-3.9-0.1-5-0.1c-1.1,0-1.7-0.1-1.7-0.1s0.6,0,1.7,0c1.1,0,2.8,0,5,0.1c4.4,0.1,11,0.1,19.4,0.5      c16.8,0.9,41.2,2.5,70.7,8.8c7.4,1.6,15,3.6,22.9,6c7.8,2.4,15.9,5.4,23.9,9.3c4,2,7.9,4.2,11.7,6.8c3.7,2.6,7.3,5.7,10.3,9.5      c1.4,1.9,2.7,4,3.5,6.2c0.2,0.6,0.5,1.1,0.6,1.7l0.4,1.8c0.2,0.6,0.1,1.2,0.2,1.8c0,0.6,0.1,1.2,0.1,1.8      c-0.1,2.5-0.7,4.9-1.7,7.2c-1,2.3-2.4,4.4-4,6.3c-3.2,3.8-7.3,7-11.6,9.8c-4.3,2.8-8.9,5.1-13.7,7.3      c-9.5,4.3-19.7,7.6-30.2,10.4c-21,5.5-43.2,8.9-66.1,10.8c-22.9,1.9-45.4,2.1-67,1.2c-21.6-1-42.5-3.2-62-6.9      c-19.5-3.7-38-8.6-54.1-16c-8-3.7-15.6-8-21.5-13.8c-3-2.9-5.5-6.1-7-9.8c-1.5-3.7-1.8-7.8-0.8-11.4c0.9-3.7,3-6.9,5.3-9.6      c2.3-2.8,5-5,7.7-7.1c2.7-2,5.5-3.8,8.3-5.3c2.8-1.6,5.6-2.9,8.3-4.2c10.9-4.9,20.8-7.9,28.9-10.1c8.1-2.2,14.5-3.5,18.9-4.4      C128.7,177.7,131,177.3,131,177.3z" class="st15"/></g></g></g><g><g><g><path data-cppathid="10153" d="M166,328.2c-0.3,0.1-1.8,0.3-5,0.8c-3.3,0.5-8.1,1.4-14.2,2.7c-6.1,1.4-13.6,3.2-22,6.2      c-4.2,1.5-8.6,3.3-13.1,5.7c-2.2,1.2-4.5,2.5-6.6,4.1c-2.2,1.6-4.3,3.3-6.1,5.4c-0.9,1.1-1.7,2.2-2.4,3.5      c-0.7,1.2-1.2,2.6-1.5,4c-0.1,0.4-0.1,0.7-0.2,1.1l-0.1,1.1c0,0.7,0.1,1.5,0.2,2.2c0.2,0.7,0.3,1.5,0.6,2.2l0.4,1.1l0.2,0.5      l0.3,0.5c1.4,2.7,3.6,5,6,7.1c2.4,2.1,5.2,3.8,8.1,5.4c5.8,3.2,12.2,5.7,18.9,7.9c6.7,2.2,13.7,3.9,21,5.4      c14.6,2.9,30.1,4.7,46.3,5.5c16.2,0.8,32.9,0.6,50-0.9c17.1-1.5,33.7-4.1,49.3-8.5c7.8-2.2,15.3-4.9,22.2-8.5      c3.4-1.8,6.7-3.8,9.7-6.2c0.8-0.6,1.4-1.3,2.1-1.9c0.7-0.6,1.3-1.4,1.9-2.1c1.1-1.5,2.2-3,2.8-4.8c1.5-3.4,1.1-7.3-0.4-10.5      c-1.6-3.2-4.2-5.8-6.9-8c-5.5-4.4-11.8-7.3-17.9-9.8c-6.1-2.4-12.3-4.3-18.2-5.8c-5.9-1.5-11.7-2.7-17.2-3.7      c-22.2-3.9-40.4-4.6-53-4.8c-12.5-0.1-18.8-0.1-19.5-0.1c0,0,7-0.1,19.5,0c12.6,0.2,30.8,0.9,53,4.8c5.5,1,11.3,2.2,17.3,3.7      c5.9,1.5,12.1,3.4,18.2,5.8c6.1,2.5,12.4,5.4,18,9.8c2.7,2.2,5.3,4.8,7,8.1c1.6,3.3,2,7.3,0.5,10.8c-0.6,1.8-1.7,3.3-2.9,4.8      c-0.6,0.7-1.2,1.4-1.9,2.1c-0.7,0.6-1.4,1.3-2.1,1.9c-2.9,2.4-6.3,4.5-9.7,6.3c-6.9,3.6-14.5,6.2-22.2,8.5      c-15.6,4.4-32.2,7-49.3,8.5c-17.1,1.5-33.9,1.6-50.1,0.9c-16.2-0.8-31.7-2.6-46.3-5.6c-7.3-1.5-14.3-3.2-21-5.4      c-6.7-2.2-13.1-4.7-18.9-7.9c-2.9-1.6-5.7-3.4-8.1-5.4c-2.4-2.1-4.6-4.4-6.1-7.2l-0.3-0.5l-0.2-0.5l-0.4-1.1      c-0.3-0.7-0.4-1.5-0.6-2.2c-0.1-0.8-0.2-1.5-0.2-2.3l0.1-1.1c0-0.4,0.1-0.7,0.2-1.1c0.3-1.5,0.8-2.8,1.5-4.1      c0.7-1.3,1.5-2.4,2.4-3.5c1.9-2.1,4-3.9,6.2-5.5c2.2-1.6,4.4-2.9,6.7-4.1c4.5-2.4,8.9-4.2,13.1-5.7c8.4-3,15.9-4.8,22.1-6.2      c6.1-1.3,11-2.1,14.2-2.6C164.3,328.4,166,328.2,166,328.2z" class="st15"/></g></g></g><g><g><g><path data-cppathid="10154" d="M296.6,419.6c-0.1,0,0.1-1.4-0.8-3.6c-0.9-2.3-3.4-5.1-7.3-7.7c-7.9-5.2-21-9.5-37.5-12.2      c-8.3-1.3-17.4-2.3-27.3-2.7c-9.9-0.4-20.4-0.3-31.5,0.6c-5.5,0.4-11.2,1.1-16.9,2c-5.7,0.9-11.6,2.1-17.4,3.7      c-2.9,0.8-5.8,1.7-8.7,2.7c-2.9,1.1-5.7,2.3-8.5,3.7c-2.7,1.5-5.4,3.2-7.7,5.3c-2.3,2.1-4.1,5-4.2,8.2c0,3.2,1.9,6.1,4.2,8.2      c2.3,2.2,4.9,3.9,7.7,5.3c2.8,1.4,5.6,2.6,8.5,3.7c2.9,1.1,5.8,2,8.7,2.7c5.8,1.6,11.6,2.7,17.4,3.7c5.7,0.9,11.4,1.5,16.9,2      c11.1,0.9,21.6,1,31.5,0.6c9.9-0.4,19-1.3,27.3-2.7c16.5-2.7,29.7-7,37.5-12.2c3.9-2.6,6.4-5.4,7.3-7.7      C296.8,421,296.5,419.6,296.6,419.6c0,0.2,0,0.4-0.1,1c0,0.3-0.1,0.7-0.2,1.2c-0.1,0.5-0.3,1-0.5,1.5c-0.9,2.3-3.4,5.2-7.3,7.8      c-7.9,5.2-21,9.6-37.5,12.2c-8.3,1.4-17.4,2.3-27.3,2.7c-9.9,0.4-20.4,0.3-31.5-0.6c-5.5-0.4-11.2-1.1-16.9-2      c-5.7-0.9-11.6-2.1-17.4-3.7c-2.9-0.8-5.8-1.7-8.7-2.8c-2.9-1.1-5.7-2.3-8.5-3.7c-2.8-1.5-5.4-3.2-7.7-5.4      c-1.1-1.1-2.2-2.3-2.9-3.7c-0.8-1.4-1.3-3-1.3-4.6c0-1.6,0.5-3.2,1.3-4.6c0.8-1.4,1.8-2.6,3-3.7c2.3-2.2,5-3.9,7.7-5.4      c2.8-1.5,5.6-2.7,8.5-3.7c2.9-1.1,5.8-2,8.7-2.8c5.8-1.6,11.7-2.7,17.4-3.7c5.7-0.9,11.4-1.5,16.9-2c11.1-0.9,21.6-1,31.5-0.6      c9.9,0.4,19,1.3,27.3,2.7c16.5,2.7,29.7,7,37.5,12.2c3.9,2.6,6.4,5.5,7.3,7.8c0.2,0.6,0.4,1.1,0.5,1.5c0.1,0.5,0.2,0.8,0.2,1.2      C296.6,419.2,296.6,419.5,296.6,419.6z" class="st15"/></g></g></g><g><g><path data-cppathid="10155" d="M75.7,264.5c0,1.8-1.4,3.2-3.2,3.2c-1.8,0-3.2-1.4-3.2-3.2c0-1.8,1.4-3.2,3.2-3.2     C74.3,261.3,75.7,262.8,75.7,264.5z" class="st15"/></g></g><g><g><circle data-cppathid="10156" r="3.2" cy="266.7" cx="361.2" class="st15"/></g></g><g><g><path data-cppathid="10157" d="M234.2,384.3c0,1.8-1.4,3.2-3.2,3.2s-3.2-1.4-3.2-3.2c0-1.8,1.4-3.2,3.2-3.2S234.2,382.6,234.2,384.3z" class="st15"/></g></g><g><g><path data-cppathid="10158" d="M137.3,302.3c0,0.9-0.7,1.6-1.6,1.6c-0.9,0-1.6-0.7-1.6-1.6s0.7-1.6,1.6-1.6     C136.5,300.7,137.3,301.4,137.3,302.3z" class="st15"/></g></g><g><g><path data-cppathid="10159" d="M335.8,341c0,0.9-0.7,1.6-1.6,1.6s-1.6-0.7-1.6-1.6c0-0.9,0.7-1.6,1.6-1.6S335.8,340.1,335.8,341z" class="st15"/></g></g><g><g><path data-cppathid="10160" d="M209.8,414.8c0,0.9-0.7,1.6-1.6,1.6c-0.9,0-1.6-0.7-1.6-1.6c0-0.9,0.7-1.6,1.6-1.6     C209,413.2,209.8,413.9,209.8,414.8z" class="st15"/></g></g></g><g><g><circle data-cppathid="10161" r="0.8" cy="135.3" cx="126.4" class="st15"/></g></g><g><g><g><path data-cppathid="10162" d="M270.4,258.1c-38.8,10.3-76.1,9.5-116.9,0l-4.8-74.5c42.1,8.2,84.3,7.2,121.6-1.8V258.1z" class="st16"/></g></g><g><g class="st4"><g><path data-cppathid="10163" d="M270.4,258.1c-38.8,10.3-76.1,9.5-116.9,0l-4.8-74.5c42.1,8.2,84.3,7.2,121.6-1.8V258.1z" class="st5"/></g></g><g><g><g><path data-cppathid="10164" d="M264.3,246.8c0,0-0.1,0-0.2,0.1c-0.2,0.1-0.4,0.2-0.7,0.3c-0.6,0.3-1.6,0.7-2.8,1.1       c-2.5,0.9-6.1,2.2-10.7,3.4c-9.2,2.4-22.3,4.4-36.8,4.2c-14.5-0.2-27.5-2.2-36.9-3.9c-4.7-0.9-8.4-1.7-11-2.3       c-1.3-0.3-2.3-0.5-3-0.7c-0.3-0.1-0.6-0.1-0.8-0.2c-0.2,0-0.3-0.1-0.3-0.1c0,0,0.1,0,0.3,0c0.2,0,0.5,0.1,0.8,0.1       c0.7,0.1,1.7,0.4,3,0.6c2.6,0.5,6.4,1.3,11,2.1c9.3,1.7,22.3,3.6,36.8,3.8c14.5,0.2,27.5-1.7,36.7-4c4.6-1.2,8.3-2.3,10.8-3.2       c1.3-0.4,2.2-0.8,2.9-1c0.3-0.1,0.6-0.2,0.8-0.3C264.3,246.8,264.3,246.8,264.3,246.8z" class="st17"/></g></g></g><g><g><path data-cppathid="10165" d="M207.4,249.8c-4.9,1.4-9.9,1.1-14.9-0.5v-26.5c5-1,10-1,14.9,0V249.8z" class="st3"/></g></g><g><g><g><path data-cppathid="10166" d="M231.5,248.3c0,0,0-0.1,0-0.2c0-0.2,0-0.3,0-0.6c0-0.5,0-1.3-0.1-2.2c0-2-0.1-4.7-0.2-8.2       c-0.1-7-0.3-16.9-0.4-28.3l0.2,0.2c-4.8-1-10.1-1-15.4,0l0.2-0.3c0,0.2,0,0.3,0,0.5c0.2,15.7,0.3,29.8,0.4,39.9L216,249       c2.4,0.5,4.6,0.8,6.5,0.8c1.9,0,3.6-0.2,4.9-0.4c1.3-0.3,2.3-0.6,3-0.8c0.3-0.1,0.6-0.2,0.8-0.3       C231.4,248.3,231.5,248.3,231.5,248.3c0,0-0.1,0-0.2,0.1c-0.2,0.1-0.4,0.2-0.8,0.3c-0.7,0.2-1.7,0.6-3,0.9       c-1.3,0.3-3,0.5-5,0.5c-1.9,0-4.2-0.2-6.6-0.7l-0.1,0l0-0.1c-0.1-10.1-0.3-24.2-0.6-39.9c0-0.2,0-0.4,0-0.5l0-0.2l0.2,0       c5.4-1,10.8-1,15.6,0l0.2,0l0,0.2c0.1,11.5,0.2,21.3,0.2,28.4c0,3.5,0,6.2,0,8.2c0,0.9,0,1.6,0,2.2c0,0.2,0,0.4,0,0.6       C231.5,248.2,231.5,248.3,231.5,248.3z" class="st17"/></g></g></g><g><g><path data-cppathid="10167" d="M254.4,245.1c-4,2.2-9.3,2.5-14.9,2.1v-43.8c5.1-1.1,10.1-1.3,14.9,0V245.1z" class="st16"/></g></g><g><g><g><path data-cppathid="10168" d="M183.7,247.7c0,0,0-0.4-0.1-1.1c0-0.8,0-1.8-0.1-3.1c0-2.7-0.1-6.4-0.1-10.7l0.1,0.2       c-4-1.5-9-2.9-14.4-2.4l0,0l0.2-0.3c0,5.5,0,10.6,0,14.9l-0.1-0.2c2,0.9,4,1.3,5.8,1.6c1.8,0.3,3.3,0.5,4.6,0.6       c1.2,0.1,2.2,0.2,3,0.3C183.3,247.6,183.7,247.7,183.7,247.7c0,0-0.3,0-1.1,0c-0.7,0-1.7,0-3-0.1c-1.3-0.1-2.9-0.2-4.6-0.5       c-1.8-0.3-3.8-0.7-5.9-1.6l-0.1-0.1l0-0.2c0-4.4,0-9.5,0-14.9l0-0.2l0.2,0l0,0c5.5-0.5,10.6,1,14.6,2.5l0.1,0.1l0,0.2       c0,4.5-0.1,8.2-0.1,10.9c0,1.2,0,2.3-0.1,3C183.7,247.3,183.7,247.7,183.7,247.7z" class="st17"/></g></g></g><g><g><g><g><path data-cppathid="10169" d="M190.7,209c0,0.1-1.1,0.2-2.9,0.2c-1.8,0-4.3,0-7.1-0.2c-2.8-0.2-5.2-0.4-7-0.7        c-1.8-0.2-2.9-0.5-2.9-0.5c0-0.1,1.1,0,2.9,0.2c1.8,0.1,4.3,0.3,7,0.5c2.7,0.2,5.2,0.3,7,0.3        C189.6,208.8,190.7,208.9,190.7,209z" class="st17"/></g></g></g><g><g><g><path data-cppathid="10170" d="M188.5,212.2c0,0.1-1,0.1-2.6,0c-1.6-0.1-3.8-0.2-6.2-0.4c-2.4-0.2-4.6-0.4-6.2-0.5        c-1.6-0.2-2.5-0.3-2.5-0.4c0-0.1,1-0.1,2.6,0c1.6,0.1,3.8,0.2,6.2,0.4c2.4,0.2,4.6,0.4,6.2,0.5        C187.5,212,188.5,212.1,188.5,212.2z" class="st17"/></g></g></g><g><g><g><path data-cppathid="10171" d="M193.9,216.5c0,0,0-0.3,0-0.9c0-0.6,0.1-1.5,0.1-2.6c0.1-2.3,0.3-5.4,0.4-9.3l0.2,0.2        c-7.2,0.1-17-0.2-27.6-1.5c-0.3,0.2,0.4-0.3,0.3-0.2l0,0l0,0l0,0l0,0l0,0.1l0,0.1l0,0.2l0,0.4l0,0.8c0,0.6-0.1,1.1-0.1,1.7        c-0.1,1.1-0.1,2.2-0.2,3.3c-0.1,2.1-0.3,4.2-0.4,6.2l-0.2-0.3c8,1,14.9,1.4,19.8,1.6c2.4,0.1,4.3,0.1,5.7,0.2        c0.6,0,1.1,0,1.5,0C193.7,216.5,193.9,216.5,193.9,216.5c0,0-0.2,0-0.5,0c-0.3,0-0.9,0-1.6,0c-1.3,0-3.3,0-5.7,0        c-4.9-0.1-11.8-0.5-19.8-1.4l-0.2,0l0-0.2c0.1-2,0.2-4.1,0.4-6.2c0.1-1.1,0.1-2.2,0.2-3.3c0-0.6,0.1-1.1,0.1-1.7l0-0.8l0-0.4        l0-0.2l0-0.1l0-0.1l0,0l0,0l0,0l0,0c-0.1,0.1,0.6-0.5,0.3-0.2c10.6,1.3,20.4,1.7,27.6,1.7l0.2,0l0,0.2        c-0.3,3.9-0.5,7.2-0.6,9.4c-0.1,1.1-0.1,1.9-0.2,2.5C194,216.2,194,216.5,193.9,216.5z" class="st17"/></g></g></g></g><g><g><g><path data-cppathid="10172" d="M197.3,222.1c-0.1,0.1-1-1.1-1.9-2.7c-1-1.5-1.6-2.9-1.5-2.9c0.1-0.1,1,1.1,1.9,2.7       C196.8,220.7,197.5,222,197.3,222.1z" class="st17"/></g></g></g></g></g><g><g><g><path data-cppathid="10173" d="M35.3,125.1L48,201.8c0,0,19.3,36.2,70.7,44.4l-8.3-68.4C110.5,177.8,62.9,163.1,35.3,125.1z" class="st18"/></g></g><g class="st4"><g><path data-cppathid="10174" d="M35.3,125.1L48,201.8c0,0,19.3,36.2,70.7,44.4l-8.3-68.4C110.5,177.8,62.9,163.1,35.3,125.1z" class="st5"/></g></g><g><g><g><path data-cppathid="10175" d="M112.1,240.7c0,0-0.1,0-0.3-0.1c-0.2-0.1-0.6-0.2-0.9-0.3c-0.9-0.3-2.1-0.6-3.6-1.1      c-1.6-0.5-3.5-1-5.7-1.9c-1.1-0.4-2.3-0.9-3.5-1.3c-1.2-0.5-2.6-1-3.9-1.6c-2.7-1.2-5.6-2.5-8.7-4.2c-3.1-1.6-6.2-3.5-9.5-5.6      c-6.5-4.3-13.2-9.8-19.1-16.6c-2.6-3.1-5-6.2-6.9-9.6l0,0l0,0c-2.3-14.9-4.3-28.1-5.8-37.5c-0.7-4.7-1.3-8.4-1.7-11.1      c-0.2-1.3-0.3-2.3-0.4-3c0-0.3-0.1-0.6-0.1-0.8c0-0.2,0-0.3,0-0.3c0,0,0,0.1,0.1,0.3c0,0.2,0.1,0.4,0.1,0.8      c0.1,0.7,0.3,1.7,0.5,3c0.4,2.6,1,6.4,1.8,11c1.5,9.4,3.6,22.5,6,37.5l0-0.1c1.8,3.3,4.2,6.5,6.8,9.5c5.9,6.7,12.5,12.2,19,16.5      c3.3,2.1,6.4,4.1,9.5,5.6c3,1.7,6,3,8.6,4.2c1.3,0.6,2.6,1.2,3.9,1.6c1.2,0.5,2.4,0.9,3.5,1.4c2.2,0.9,4.1,1.5,5.6,2      c1.5,0.5,2.7,0.9,3.6,1.2c0.4,0.1,0.7,0.2,0.9,0.3C112,240.7,112.1,240.7,112.1,240.7z" class="st18"/></g></g></g><g><g><g><path data-cppathid="10176" d="M107.6,218.5c0,0-0.1,0.1-0.2,0.2c-0.1,0.1-0.3,0.3-0.5,0.4c-0.5,0.4-1.2,1-2.1,1.7      c-1.9,1.5-4.6,3.6-8.1,6.2l-0.1,0.1l-0.1-0.1c-2.7-3.8-6.1-8.4-9.9-13.7l0.3,0.1c-2.4,1.7-4.9,3.5-7.6,5.4l-0.3,0.2l-0.1-0.3      c-3-8-6.3-17-9.8-26.5c-0.5-1.3-0.9-2.6-1.4-3.8l0.5,0c-2.1,4.2-4.2,8.3-6.2,12.2l-0.3,0.5l-0.2-0.6      c-5.4-15.5-9.9-28.6-12.9-37.1l0.3,0c-0.8,3.4-1.4,6.1-1.9,8c-0.2,0.9-0.4,1.6-0.5,2.1c-0.1,0.2-0.1,0.4-0.1,0.5      c0,0.1-0.1,0.2-0.1,0.2c0,0,0-0.1,0-0.2c0-0.1,0.1-0.3,0.1-0.5c0.1-0.5,0.3-1.2,0.4-2.1c0.4-1.9,1-4.6,1.8-8l0.1-0.5l0.2,0.5      c3,8.5,7.6,21.6,13.1,37.1l-0.5,0c2-3.9,4-8,6.2-12.2l0.3-0.5l0.2,0.6c0.5,1.3,0.9,2.5,1.4,3.8c3.5,9.5,6.8,18.5,9.7,26.5      l-0.4-0.1c2.7-1.9,5.2-3.7,7.6-5.4l0.2-0.1l0.1,0.2c3.8,5.3,7.1,10,9.8,13.7l-0.2,0c3.5-2.6,6.2-4.6,8.2-6.1      c0.9-0.7,1.7-1.2,2.2-1.6c0.2-0.2,0.4-0.3,0.6-0.4C107.6,218.5,107.6,218.5,107.6,218.5z" class="st18"/></g></g></g><g><g><g><path data-cppathid="10177" d="M105.9,181.7c0,0-0.4-0.1-1.1-0.2c-0.7-0.2-1.7-0.5-2.9-0.9c-2.4-0.8-5.7-2-9.2-3.6      c-3.5-1.6-6.6-3.3-8.8-4.5c-1.1-0.6-2-1.2-2.6-1.6c-0.6-0.4-0.9-0.6-0.9-0.6c0,0,0.4,0.1,1,0.5c0.7,0.4,1.6,0.9,2.6,1.4      c2.2,1.2,5.3,2.8,8.9,4.4c3.5,1.6,6.8,2.9,9.1,3.7c1.1,0.4,2,0.8,2.8,1C105.5,181.5,105.9,181.7,105.9,181.7z" class="st18"/></g></g></g><g><g><g><path data-cppathid="10178" d="M107.9,184.9c0,0.1-1-0.1-2.5-0.4c-1.5-0.4-3.6-0.9-5.8-1.7c-2.2-0.8-4.2-1.7-5.6-2.3      c-1.4-0.7-2.2-1.2-2.2-1.2c0-0.1,0.9,0.3,2.3,0.9c1.4,0.6,3.4,1.4,5.6,2.2c2.2,0.8,4.3,1.4,5.7,1.9      C107,184.5,107.9,184.8,107.9,184.9z" class="st18"/></g></g></g><g><g><path data-cppathid="10179" d="M87.6,213.3c0,0.6-0.4,1.1-0.9,1.1s-0.9-0.5-0.9-1.1c0-0.6,0.4-1.1,0.9-1.1S87.6,212.6,87.6,213.3z" class="st18"/></g></g><g><g><ellipse data-cppathid="10180" ry="1.1" rx="0.9" cy="189" cx="68" class="st18"/></g></g><g><g><path data-cppathid="10181" d="M49.8,163.7c0,0.6-0.4,1.1-0.9,1.1c-0.5,0-0.9-0.5-0.9-1.1s0.4-1.1,0.9-1.1     C49.5,162.6,49.8,163.1,49.8,163.7z" class="st18"/></g></g></g><g><g><g><path data-cppathid="10182" d="M370.7,138.8l-6.4,77.9c0,0-18.5,33.3-69.6,34.6l6.3-78.4C301,172.9,345.6,171,370.7,138.8z" class="st15"/></g></g><g><g><path data-cppathid="10183" d="M369.7,134.7c-1.7-5.4-5.7-13.1-15.3-14.7l-11.4,104.8c0,0,21.3-4.3,21.9-15.9c0-1,4.3-53.1,5.4-66     C370.6,140.1,370.6,137.4,369.7,134.7z" class="st15"/></g></g><g class="st4"><g><path data-cppathid="10184" d="M370.7,138.8l-6.4,77.9c0,0-18.5,33.3-69.6,34.6l6.3-78.4C301,172.9,345.6,171,370.7,138.8z" class="st5"/></g></g><g><g><path data-cppathid="10185" d="M369.2,158.7c-5.1,7.4-8,16.2-8.1,25.2c-0.1,2.6,0.1,5.3-0.9,7.7c-1,2.4-3.5,4.4-6,3.7     c-2.6-0.7-3.8-3.8-6.1-5.2c-2-1.3-4.8-1.1-6.8,0.1c-2.1,1.2-3.5,3.3-4.5,5.5c-1.9,4.3-2,9.1-3.3,13.5c-1.4,4.5-4.7,8.9-9.4,9.1     c-1.7,0.1-3.4-0.4-5.1-0.4c-3.6,0.1-6.7,2.8-8.4,6c-1.7,3.2-2.2,6.8-2.7,10.4c0,0,27.2,2.6,57.8-33.5L369.2,158.7z" class="st15"/></g></g><g><g><path data-cppathid="10186" d="M325.9,205.9c0,1-0.5,1.7-1.1,1.7c-0.6,0-1.1-0.8-1.1-1.7s0.5-1.7,1.1-1.7     C325.4,204.2,325.9,204.9,325.9,205.9z" class="st15"/></g></g><g><g><path data-cppathid="10187" d="M338.7,173.5c0,1-0.5,1.7-1.1,1.7s-1.1-0.8-1.1-1.7s0.5-1.7,1.1-1.7S338.7,172.6,338.7,173.5z" class="st15"/></g></g><g><g><g><path data-cppathid="10188" d="M368.6,162.4c0,0,0,0.2-0.2,0.4c-0.1,0.3-0.3,0.7-0.6,1.3c-0.5,1.1-1.3,2.7-2.2,4.8      c-2,4.1-4.8,9.9-8.1,16.9l-0.1,0.2l-0.2-0.1c-5.7-3.6-12.2-7.7-19.3-12.2l0.4-0.1c-0.3,0.6-0.5,1.3-0.8,2      c-4.8,11.7-9.1,22.3-12.4,30.4l-0.1,0.2l-0.2-0.1c-4.8-2.7-8.7-4.9-11.4-6.3c-1.4-0.7-2.4-1.3-3.2-1.7c-0.3-0.2-0.6-0.3-0.8-0.4      c-0.2-0.1-0.3-0.1-0.3-0.1c0-0.1,1.6,0.6,4.4,2c2.8,1.4,6.7,3.5,11.5,6.2l-0.3,0.1c3.3-8.1,7.6-18.8,12.3-30.5      c0.3-0.7,0.5-1.3,0.8-2l0.1-0.3l0.3,0.2c7,4.5,13.6,8.6,19.2,12.2l-0.3,0.1c3.4-6.9,6.3-12.7,8.3-16.8c1-2,1.8-3.6,2.4-4.7      c0.3-0.5,0.5-0.9,0.6-1.2C368.5,162.6,368.5,162.4,368.6,162.4z" class="st15"/></g></g></g></g></svg>