<?xml version="1.0" encoding="UTF-8"?>
<svg xmlns="http://www.w3.org/2000/svg" onmouseup="{ if(window.parent.document.onmouseup) window.parent.document.onmouseup(arguments[0]);}" viewBox="0 0 512 479"><defs><style>.cls-1{fill:#333e48;}.cls-2{isolation:isolate;}.cls-3{fill:#6d6d6d;}.cls-4{fill:#5d5d5d;}.cls-5{fill:#494949;}.cls-6{fill:#fff;}.cls-7{fill:#ffc600;}.cls-8{fill:#f7a800;}.cls-9{fill:#d88b03;}.cls-10{fill:#767676;}.cls-11{fill:#858585;}.cls-12{fill:#313131;}</style></defs><g id="BG"><rect data-cppathid="10000" height="479" width="512" class="cls-1"/></g><g id="Piramide"><g class="cls-2"><polygon data-cppathid="10001" points="411.87 240.32 489.42 330.02 256.76 465.23 256.76 330.46 411.87 240.32" class="cls-3"/><polygon data-cppathid="10002" points="256.76 330.46 256.76 465.23 22.58 330.02 100.64 240.33 256.76 330.46" class="cls-4"/><polygon data-cppathid="10003" points="411.87 240.32 256.76 330.46 100.64 240.33 255.75 150.19 411.87 240.32" class="cls-5"/></g><path data-cppathid="10004" transform="translate(0 -1)" d="M132.77,334.5c-3.09,12.39,1.72,27.42,10.75,33.57s18.86,1.1,22-11.29-1.72-27.42-10.75-33.57S135.86,322.11,132.77,334.5Z" class="cls-6"/><path data-cppathid="10005" transform="translate(0 -1)" d="M134.44,335.65c-2.78,11.12,1.54,24.6,9.65,30.12s16.93,1,19.7-10.13-1.54-24.6-9.65-30.12S137.22,324.53,134.44,335.65Z" class="cls-3"/><g class="cls-2"><path data-cppathid="10006" transform="translate(0 -1)" d="M146.91,347.64q0,3.9-1.15,5.58a2.16,2.16,0,0,1-3.08.7,7,7,0,0,1-3.09-3.83,17.92,17.92,0,0,1-1.16-6.75v-6.55q0-3.87,1.15-5.57a2.13,2.13,0,0,1,3.08-.72,6.94,6.94,0,0,1,3.09,3.84,17.8,17.8,0,0,1,1.16,6.75Zm-2-8a14.05,14.05,0,0,0-.58-4.35,3.65,3.65,0,0,0-1.63-2.31q-1-.54-1.62.66a9,9,0,0,0-.58,3.77v7.43a14.28,14.28,0,0,0,.59,4.38,3.74,3.74,0,0,0,1.63,2.33c.7.35,1.24.13,1.62-.67a9.41,9.41,0,0,0,.57-3.8Z" class="cls-6"/><path data-cppathid="10007" transform="translate(0 -1)" d="M153.07,346c.73.37,1.26.29,1.61-.24a5,5,0,0,0,.51-2.58,8.39,8.39,0,0,0-.52-3.06,3.26,3.26,0,0,0-1.52-1.85,1.1,1.1,0,0,0-1.52.3A3.94,3.94,0,0,0,151,341l-2-1,0-.1a5.07,5.07,0,0,1,1.14-3.82,2.34,2.34,0,0,1,3-.27,6.82,6.82,0,0,1,3,3.16,11.55,11.55,0,0,1,1.1,5.25,6.08,6.08,0,0,1-.52,2.69,2.32,2.32,0,0,1-1.45,1.31,8.43,8.43,0,0,1,1.62,2.88,11.71,11.71,0,0,1,.56,3.69c0,2.07-.4,3.48-1.2,4.24a2.49,2.49,0,0,1-3.1.19,7.45,7.45,0,0,1-3-3.22,10.39,10.39,0,0,1-1.25-5.3l0-.08,2,1a8.17,8.17,0,0,0,.64,3.21,3.78,3.78,0,0,0,1.64,2,1.17,1.17,0,0,0,1.66-.31,4.64,4.64,0,0,0,.61-2.71,8.87,8.87,0,0,0-.59-3.49,3.79,3.79,0,0,0-1.76-1.93l-1.38-.71v-2.39Z" class="cls-6"/></g><g class="cls-2"><polygon data-cppathid="10008" points="334.06 126.55 411.61 216.24 256.51 306.38 256.51 171.62 334.06 126.55" class="cls-7"/><polygon data-cppathid="10009" points="256.51 171.62 256.51 306.38 100.39 216.25 178.45 126.55 256.51 171.62" class="cls-8"/><polygon data-cppathid="10010" points="334.06 126.55 256.51 171.62 178.45 126.55 256 81.48 334.06 126.55" class="cls-9"/></g><path data-cppathid="10011" transform="translate(0 -1)" d="M309.73,187.62c-9,6.15-13.85,21.18-10.75,33.57s12.92,17.44,22,11.29,13.85-21.18,10.75-33.57S318.76,181.47,309.73,187.62Z" class="cls-6"/><path data-cppathid="10012" transform="translate(0 -1)" d="M310.3,189.92c-8.11,5.52-12.43,19-9.65,30.12s11.6,15.65,19.7,10.13,12.43-19,9.65-30.12S318.41,184.4,310.3,189.92Z" class="cls-8"/><g class="cls-2"><path data-cppathid="10013" transform="translate(0 -1)" d="M314.39,213.1a16.76,16.76,0,0,1-1,6,6.63,6.63,0,0,1-2.6,3.51,1.73,1.73,0,0,1-2.61-.43c-.65-.93-1-2.53-1-4.81v-5.73a17,17,0,0,1,1-6,6.72,6.72,0,0,1,2.6-3.54,1.74,1.74,0,0,1,2.61.44c.65.94,1,2.55,1,4.82ZM312.67,208a8.07,8.07,0,0,0-.49-3.26c-.33-.68-.79-.84-1.38-.49a3.57,3.57,0,0,0-1.37,2.12,13.31,13.31,0,0,0-.48,3.84v6.51a8,8,0,0,0,.49,3.27c.33.68.79.85,1.38.5a3.53,3.53,0,0,0,1.37-2.12,13.51,13.51,0,0,0,.48-3.86Z" class="cls-6"/><path data-cppathid="10014" transform="translate(0 -1)" d="M323.33,214.88l-7,4.17V217.2l3.44-9.41c.56-1.61,1-2.89,1.18-3.84a11.54,11.54,0,0,0,.33-2.58,4.37,4.37,0,0,0-.41-2.18c-.27-.44-.67-.5-1.19-.19a3.4,3.4,0,0,0-1.36,1.91,9.74,9.74,0,0,0-.47,3.1l-1.67,1,0-.06a12,12,0,0,1,.93-4.79,6.57,6.57,0,0,1,2.59-3.28c1-.61,1.85-.6,2.44,0a5.13,5.13,0,0,1,.88,3.45,13.5,13.5,0,0,1-.53,3.58q-.54,1.89-1.63,4.82l-2.37,6.92,4.89-2.9Z" class="cls-6"/></g><g class="cls-2"><polygon data-cppathid="10015" points="256.25 12.77 256.25 147.53 178.19 102.46 256.25 12.77" class="cls-10"/><polygon data-cppathid="10016" points="256.25 12.77 333.8 102.46 256.25 147.53 256.25 12.77" class="cls-11"/><polygon data-cppathid="10017" points="256.28 12.78 256.28 12.78 256.28 12.78 256.28 12.78" class="cls-12"/></g><path data-cppathid="10018" transform="translate(0 -1)" d="M214.31,80.46c-2.58,10.33,1.44,22.86,9,28s15.73.92,18.31-9.41-1.44-22.86-9-28S216.89,70.13,214.31,80.46Z" class="cls-6"/><path data-cppathid="10019" transform="translate(0 -1)" d="M215.71,81.41c-2.31,9.27,1.29,20.52,8,25.12s14.12.82,16.43-8.45S238.9,77.56,232.14,73,218,72.14,215.71,81.41Z" class="cls-11"/><g class="cls-2"><path data-cppathid="10020" transform="translate(0 -1)" d="M227.19,92.6a7.59,7.59,0,0,1-.87,4.18,1.61,1.61,0,0,1-2.3.52,5.23,5.23,0,0,1-2.32-2.87,13.36,13.36,0,0,1-.87-5.06V84.46a7.7,7.7,0,0,1,.86-4.17,1.61,1.61,0,0,1,2.31-.54,5.22,5.22,0,0,1,2.32,2.88,13.43,13.43,0,0,1,.87,5.06Zm-1.53-6a10.91,10.91,0,0,0-.43-3.26A2.79,2.79,0,0,0,224,81.57c-.52-.26-.93-.1-1.21.5a6.88,6.88,0,0,0-.43,2.83v5.57a10.78,10.78,0,0,0,.43,3.28A2.79,2.79,0,0,0,224,95.5c.52.26.93.1,1.21-.51a6.93,6.93,0,0,0,.43-2.84Z" class="cls-6"/><path data-cppathid="10021" transform="translate(0 -1)" d="M232.93,101.58l-1.52-.77v-15l-2.1-.86V83.14l3.62,1.14Z" class="cls-6"/></g></g></svg>