<?xml version="1.0" encoding="UTF-8"?>
<svg xmlns="http://www.w3.org/2000/svg" onmouseup="{ if(window.parent.document.onmouseup) window.parent.document.onmouseup(arguments[0]);}" viewBox="0 0 618.84 856.15"><defs><style>.cls-1{fill:#4c4c4c;}.cls-2{fill:#343e48;stroke:#00ffd3;stroke-miterlimit:10;stroke-width:10px;}.cls-3{fill:#fda800;}.cls-4{fill:#303030;}.cls-5{fill:#fff;}.cls-6{fill:#fa0;}.cls-7{fill:#00ffd3;}.cls-8{fill:#0099a8;}</style></defs><g id="SD"><path data-cppathid="10000" transform="translate(-0.05 -0.81)" d="M578.69,857H39.07c-.18-.79-.86-.69-1.43-.81C18.16,852.1,6,840.39,1,821.17c-.17-.65,0-1.52-.95-1.76V386.56c4.13.8,8.32,0,12.43.43,3.42.38,4-1,4-4.09q-.15-71.34-.07-142.69c0-9.93-.11-19.86.07-29.79,0-2.84-.84-3.53-3.53-3.41-4.28.19-8.57,0-12.86-.06V25.12c1.24-.87,1.09-2.34,1.49-3.55C5.29,10.09,16.07,1.24,28.08,1,44.26.61,60.45,1,76.64,1V30.24q0,54.24-.08,108.46c0,2.64.53,3.57,3.39,3.54q21.33-.24,42.65,0c2.86,0,3.4-.9,3.39-3.54q-.13-54.22-.08-108.46V1h14.78q0,14.68.05,29.35,0,54.09,0,108.19c0,2.85.7,3.75,3.66,3.72,13.86-.16,27.72-.19,41.58,0,3.48.06,4.53-.74,4.52-4.38-.15-34.59-.09-69.18-.1-103.78,0-1.33.25-2.7-.39-4L190,1h15.51l0,29.2q-.06,54.64-.16,109.29c0,2.46,1.07,2.74,3.09,2.73,14-.06,28-.17,41.95.06,3.63.06,4.42-1,4.41-4.48-.12-35.82,0-71.63,0-107.45q0-14.67.05-29.35h14.78V30.24q0,54.24-.08,108.46c0,2.64.53,3.57,3.39,3.54q21.33-.24,42.65,0c2.86,0,3.4-.9,3.39-3.54q-.14-54.22-.08-108.46V1H334.3l0,29.13a21.85,21.85,0,0,0-.38,2.88c0,35.28,0,70.57-.08,105.86,0,2.9,1,3.39,3.62,3.37,13.85-.11,27.7-.2,41.54.05,3.68.06,4.39-1.09,4.37-4.52-.12-34.55-.07-69.11-.08-103.66,0-1.33.25-2.7-.39-4l0-29.13h15.51l0,29.2q-.06,54.64-.16,109.29c0,2.46,1.07,2.74,3.09,2.73,14-.06,28-.17,41.95.06,3.63.06,4.42-1,4.41-4.48-.12-35.82-.05-71.63,0-107.45q0-14.67.05-29.35H462.4V30.25q0,54.23-.08,108.45c0,2.64.53,3.57,3.39,3.54q21.33-.24,42.65,0c2.86,0,3.4-.9,3.39-3.54q-.13-54.22-.08-108.45V1.69C517.33,2.76,522.41,5,526.53,9.1q0,37,0,73.92c.06,1.47.18,2.94.18,4.4,0,34.35.06,68.71-.08,103.06,0,3.62,1,4.49,4.54,4.44q20.24-.3,40.48,0c3.5.05,4.56-.82,4.54-4.45-.14-34.35-.09-68.7-.07-103,0-1.46.11-2.93.17-4.4q.07-11.59.13-23.19c1.26.11,1.77,1.22,2.5,2,9.21,9.35,18.17,18.94,27.63,28,8.61,8.27,12.39,18,12.3,29.89-.23,29.93-.07,59.85-.07,89.78,0,15.45-.1,30.9.07,46.35,0,3.15-.93,3.93-3.93,3.81-6-.22-12,0-18-.11-2.31-.06-2.86.7-2.84,2.92.1,13.86.12,27.72,0,41.57,0,2.6.95,3,3.19,3,5.64-.13,11.28-.07,16.92,0,5.16,0,4.61-.74,4.61,4.77q0,204.75,0,409.5,0,44.7,0,89.4c0,21.49-12.81,38.65-32.85,44.47C583.54,855.79,580.92,855.61,578.69,857Z" class="cls-1"/><path data-cppathid="10001" transform="translate(-0.05 -0.81)" d="M55.88,504v235.9A66.32,66.32,0,0,0,101.3,802.6c11,3.67,22.19,3.45,33.48,3.45q180.9,0,361.8,0a66.63,66.63,0,0,0,66.53-66.48V267a48.74,48.74,0,0,0-49-49.12q-204.63,0-409.28,0c-27.46,0-48.93,21.63-48.93,49.09Z" class="cls-1"/><rect data-cppathid="10002" rx="55.23" height="575.3" width="494.44" y="223.55" x="61.69" class="cls-2"/><path data-cppathid="10003" transform="translate(-0.05 -0.81)" d="M576.33,83c-.06,1.47-.17,2.94-.17,4.4,0,34.35-.07,68.7.07,103.05,0,3.63-1,4.5-4.54,4.45q-20.24-.3-40.48,0c-3.5.05-4.56-.82-4.54-4.44.14-34.35.09-68.71.08-103.06,0-1.46-.12-2.93-.18-4.4,1.45-.12,2.9-.34,4.35-.34q18.69,0,37.39,0C571,82.7,573.69,82.29,576.33,83Z" class="cls-3"/><path data-cppathid="10004" transform="translate(-0.05 -0.81)" d="M190,30.11c.64,1.28.39,2.65.39,4,0,34.6,0,69.19.1,103.78,0,3.64-1,4.44-4.52,4.38-13.86-.2-27.72-.17-41.58,0-3,0-3.67-.87-3.66-3.72q.12-54.09,0-108.19Z" class="cls-3"/><path data-cppathid="10005" transform="translate(-0.05 -0.81)" d="M382.87,30.11c.64,1.28.39,2.65.39,4,0,34.55,0,69.11.08,103.66,0,3.43-.69,4.58-4.37,4.52-13.84-.25-27.69-.16-41.54-.05-2.59,0-3.63-.47-3.62-3.37.1-35.29.06-70.58.08-105.86a21.85,21.85,0,0,1,.38-2.88Z" class="cls-3"/><path data-cppathid="10006" transform="translate(-0.05 -0.81)" d="M125.91,30.24q0,54.24.08,108.46c0,2.64-.53,3.57-3.39,3.54q-21.33-.24-42.65,0c-2.86,0-3.4-.9-3.39-3.54q.14-54.22.08-108.45Z" class="cls-3"/><path data-cppathid="10007" transform="translate(-0.05 -0.81)" d="M254.69,30.33c0,35.82-.08,71.63,0,107.45,0,3.5-.78,4.54-4.41,4.48-14-.23-28-.12-41.95-.06-2,0-3.1-.27-3.09-2.73q.15-54.64.16-109.29Z" class="cls-3"/><path data-cppathid="10008" transform="translate(-0.05 -0.81)" d="M318.79,30.24q0,54.24.08,108.46c0,2.64-.53,3.57-3.39,3.54q-21.33-.24-42.65,0c-2.86,0-3.4-.9-3.39-3.54q.13-54.22.08-108.45Z" class="cls-3"/><path data-cppathid="10009" transform="translate(-0.05 -0.81)" d="M447.57,30.33c0,35.82-.08,71.63,0,107.45,0,3.5-.78,4.54-4.41,4.48-14-.23-28-.12-41.95-.06-2,0-3.1-.27-3.09-2.73q.15-54.64.16-109.29Z" class="cls-3"/><path data-cppathid="10010" transform="translate(-0.05 -0.81)" d="M511.67,30.25q0,54.23.08,108.45c0,2.64-.53,3.57-3.39,3.54q-21.33-.24-42.65,0c-2.86,0-3.4-.9-3.39-3.54q.14-54.22.08-108.45Z" class="cls-3"/><path data-cppathid="10011" transform="translate(-0.05 -0.81)" d="M576.33,83c-2.64-.73-5.35-.32-8-.34q-18.69-.08-37.39,0c-1.45,0-2.9.22-4.35.34q0-37,0-73.92c6.59,5.52,12.2,12,18.27,18.07,9.65,9.59,19.1,19.39,28.61,29.12,1.09,1.11,2,2.35,3.05,3.54Q576.4,71.43,576.33,83Z" class="cls-4"/><path data-cppathid="10012" transform="translate(-0.05 -0.81)" d="M125.91,30.24H76.64V1h49.27Z" class="cls-4"/><path data-cppathid="10013" transform="translate(-0.05 -0.81)" d="M190,30.11l-49.25.22q0-14.67-.05-29.35H190Z" class="cls-4"/><path data-cppathid="10014" transform="translate(-0.05 -0.81)" d="M254.69,30.33l-49.25-.15,0-29.2h49.27Q254.72,15.67,254.69,30.33Z" class="cls-4"/><path data-cppathid="10015" transform="translate(-0.05 -0.81)" d="M318.79,30.24H269.52V1h49.27Z" class="cls-4"/><path data-cppathid="10016" transform="translate(-0.05 -0.81)" d="M447.57,30.33l-49.25-.15,0-29.2h49.27Q447.61,15.67,447.57,30.33Z" class="cls-4"/><path data-cppathid="10017" transform="translate(-0.05 -0.81)" d="M511.67,30.25H462.4V1C477,1,491.64.89,506.26.92a37.09,37.09,0,0,1,5.41.77Z" class="cls-4"/><path data-cppathid="10018" transform="translate(-0.05 -0.81)" d="M382.87,30.11h-48.6L334.3,1h48.54Z" class="cls-4"/><path data-cppathid="10019" transform="translate(-0.05 -0.81)" d="M133.32,365.43h-1.45v-39.1h1.45Z" class="cls-5"/><path data-cppathid="10020" transform="translate(-0.05 -0.81)" d="M145.62,336.37l.19,5.86a10.71,10.71,0,0,1,3.87-4.71,10.94,10.94,0,0,1,6.2-1.68q4.76,0,7.13,3c1.59,2,2.38,5.16,2.38,9.5v17.1h-1.45V348.27c0-4-.72-6.86-2.16-8.51a7.39,7.39,0,0,0-5.87-2.47c-3,0-5.37.88-7,2.66a13,13,0,0,0-3.09,6.84v18.64h-1.45V350.55h-.08c0-.34,0-.68,0-1s0-.7.07-1.06V336.37Z" class="cls-5"/><path data-cppathid="10021" transform="translate(-0.05 -0.81)" d="M181.56,359.28l1.37,3.92h.16l1.39-3.92,9-22.91H195l-11.3,29,0,0h-1.39L171,336.37h1.56Z" class="cls-5"/><path data-cppathid="10022" transform="translate(-0.05 -0.81)" d="M210.59,366a11.14,11.14,0,0,1-8.66-4,14.51,14.51,0,0,1-3.54-10v-1.71a15.31,15.31,0,0,1,3.51-10.38,11.14,11.14,0,0,1,8.82-4.07,9.89,9.89,0,0,1,7.71,3.18q2.87,3.18,2.87,8.69v2.23H199.84V352a13.49,13.49,0,0,0,3,8.93,9.63,9.63,0,0,0,7.74,3.62,13.45,13.45,0,0,0,5-1,10.68,10.68,0,0,0,3.9-2.58l.78,1.13a11.67,11.67,0,0,1-3.95,2.78A14,14,0,0,1,210.59,366Zm.13-28.71a9.61,9.61,0,0,0-7.4,3.13,12.76,12.76,0,0,0-3.26,7.91l.08.16h19.71v-.89a11.11,11.11,0,0,0-2.44-7.4A8.27,8.27,0,0,0,210.72,337.29Z" class="cls-5"/><path data-cppathid="10023" transform="translate(-0.05 -0.81)" d="M246.12,358.32a5.73,5.73,0,0,0-2-4.21q-2-1.89-6.89-3c-3.45-.74-5.95-1.68-7.5-2.84a6,6,0,0,1-2.32-5.14,6.41,6.41,0,0,1,2.63-5.22,11,11,0,0,1,7.09-2.11,11.66,11.66,0,0,1,7.57,2.25,6.89,6.89,0,0,1,2.63,5.88l0,.17h-1.24a6.1,6.1,0,0,0-2.4-4.85,9.82,9.82,0,0,0-6.51-2c-2.72,0-4.78.58-6.18,1.76a5.19,5.19,0,0,0-2.09,4.07,5.07,5.07,0,0,0,1.77,3.89q1.77,1.61,7,2.82a19.35,19.35,0,0,1,7.38,3.07,6.52,6.52,0,0,1,2.51,5.44,6.6,6.6,0,0,1-2.8,5.53,11.9,11.9,0,0,1-7.41,2.13c-3.38,0-6-.76-8-2.27a6.3,6.3,0,0,1-2.7-5.52l.05-.16h1.19a5.7,5.7,0,0,0,2.95,5,13.06,13.06,0,0,0,6.47,1.53,10,10,0,0,0,6.39-1.88A5.49,5.49,0,0,0,246.12,358.32Z" class="cls-5"/><path data-cppathid="10024" transform="translate(-0.05 -0.81)" d="M258.69,328.53v7.84h7.14v1.48h-7.14v20.09q0,3.57,1.2,5.09a3.9,3.9,0,0,0,3.2,1.52,12.43,12.43,0,0,0,1.29-.06c.37,0,.89-.1,1.56-.19l.26,1.32a7.8,7.8,0,0,1-1.39.3,16.07,16.07,0,0,1-1.64.08,5.34,5.34,0,0,1-4.44-1.91c-1-1.27-1.52-3.32-1.52-6.15V337.85h-5.37v-1.48h5.37v-7.84Z" class="cls-5"/><path data-cppathid="10025" transform="translate(-0.05 -0.81)" d="M274.48,327.24H273v-3.7h1.45Zm0,38.19H273V336.37h1.45Z" class="cls-5"/><path data-cppathid="10026" transform="translate(-0.05 -0.81)" d="M282.67,350.88q0-6.9,2.9-11a9.32,9.32,0,0,1,8.05-4.07,11,11,0,0,1,5.87,1.53,11.16,11.16,0,0,1,4,4.19l.22-5.19h1.23v9s0,0,0,0v11.85a.16.16,0,0,0,0,.08v8.24q0,5.54-2.91,8.56a10.69,10.69,0,0,1-8.07,3,23.72,23.72,0,0,1-4.42-.44,18.07,18.07,0,0,1-4-1.23l.43-1.45a20.82,20.82,0,0,0,3.78,1.28,18.76,18.76,0,0,0,4.17.41q4.69,0,7.13-2.61t2.43-7.54V361a10.56,10.56,0,0,1-4,3.65,12.23,12.23,0,0,1-5.87,1.35,9.42,9.42,0,0,1-8-3.92q-2.88-3.93-2.88-10.64Zm1.47.56q0,6,2.39,9.56a7.94,7.94,0,0,0,7,3.55,10.9,10.9,0,0,0,6.23-1.68,9.74,9.74,0,0,0,3.66-4.5V344.46a12.11,12.11,0,0,0-3.4-5.1,9.33,9.33,0,0,0-6.43-2.07,7.86,7.86,0,0,0-7,3.77,18,18,0,0,0-2.42,9.82Z" class="cls-5"/><path data-cppathid="10027" transform="translate(-0.05 -0.81)" d="M332.35,360.06a11.26,11.26,0,0,1-4.49,4.28,14.57,14.57,0,0,1-7.22,1.66,8.8,8.8,0,0,1-6.36-2.22,7.89,7.89,0,0,1-2.31-6,7.33,7.33,0,0,1,3.45-6.13,14.5,14.5,0,0,1,8.63-2.47h8.3V345a7.09,7.09,0,0,0-2.32-5.65,9.59,9.59,0,0,0-6.54-2,9.92,9.92,0,0,0-6.35,1.9,6,6,0,0,0-2.41,4.92l-1.21-.05,0-.14a6.76,6.76,0,0,1,2.63-5.73,11.08,11.08,0,0,1,7.39-2.35A11.31,11.31,0,0,1,331,338.2,8.4,8.4,0,0,1,333.8,345v14.56a26.38,26.38,0,0,0,.17,3,19,19,0,0,0,.58,2.87h-1.61c-.23-1.27-.39-2.22-.47-2.86a16.4,16.4,0,0,1-.12-2.05Zm-11.71,4.51a13.38,13.38,0,0,0,7.32-1.9,11,11,0,0,0,4.39-5.46v-6.52h-8.22a13.32,13.32,0,0,0-7.61,2.08,6.07,6.07,0,0,0-3.1,5.14,6.31,6.31,0,0,0,2,4.8A7.36,7.36,0,0,0,320.64,364.57Z" class="cls-5"/><path data-cppathid="10028" transform="translate(-0.05 -0.81)" d="M353,364.55a10.93,10.93,0,0,0,6.5-2,6.94,6.94,0,0,0,2.82-6h1.24l.05.16a7.93,7.93,0,0,1-3.13,6.81A11.8,11.8,0,0,1,353,366a10.48,10.48,0,0,1-8.71-4q-3.17-4-3.16-10.52v-1.13q0-6.49,3.14-10.5a10.43,10.43,0,0,1,8.68-4,11.45,11.45,0,0,1,7.64,2.64,9,9,0,0,1,3,7.46l-.05.16h-1.24a8,8,0,0,0-2.74-6.54,10,10,0,0,0-6.63-2.27,9,9,0,0,0-7.74,3.65,15.74,15.74,0,0,0-2.63,9.4v1.13a15.78,15.78,0,0,0,2.63,9.44A9,9,0,0,0,353,364.55Z" class="cls-5"/><path data-cppathid="10029" transform="translate(-0.05 -0.81)" d="M372.85,327.24H371.4v-3.7h1.45Zm0,38.19H371.4V336.37h1.45Z" class="cls-5"/><path data-cppathid="10030" transform="translate(-0.05 -0.81)" d="M380.1,350.34a15.37,15.37,0,0,1,3.53-10.45,12.44,12.44,0,0,1,18.37,0,15.37,15.37,0,0,1,3.53,10.45v1.13A15.37,15.37,0,0,1,402,361.94a12.41,12.41,0,0,1-18.36,0,15.33,15.33,0,0,1-3.54-10.47Zm1.45,1.13a14.34,14.34,0,0,0,3.06,9.28,10,10,0,0,0,8.24,3.8,9.92,9.92,0,0,0,8.17-3.82,14.33,14.33,0,0,0,3.06-9.26v-1.13a14.26,14.26,0,0,0-3.09-9.2,10.64,10.64,0,0,0-16.38,0,14.35,14.35,0,0,0-3.06,9.2Z" class="cls-5"/><path data-cppathid="10031" transform="translate(-0.05 -0.81)" d="M413.72,336.37l.19,5.86a10.64,10.64,0,0,1,3.87-4.71,10.94,10.94,0,0,1,6.2-1.68q4.75,0,7.13,3c1.59,2,2.38,5.16,2.38,9.5v17.1H432V348.27c0-4-.72-6.86-2.16-8.51a7.41,7.41,0,0,0-5.87-2.47c-3.05,0-5.37.88-7,2.66a12.81,12.81,0,0,0-3.09,6.84v18.64h-1.45V350.55h-.08c0-.34,0-.68,0-1s0-.7.07-1.06V336.37Z" class="cls-5"/><path data-cppathid="10032" transform="translate(-0.05 -0.81)" d="M452.77,366a11.14,11.14,0,0,1-8.66-4,14.55,14.55,0,0,1-3.53-10v-1.71a15.36,15.36,0,0,1,3.5-10.38,11.14,11.14,0,0,1,8.82-4.07,9.86,9.86,0,0,1,7.71,3.18q2.88,3.18,2.88,8.69v2.23H442V352a13.44,13.44,0,0,0,3,8.93,9.6,9.6,0,0,0,7.73,3.62,13.38,13.38,0,0,0,5-1,10.81,10.81,0,0,0,3.91-2.58l.78,1.13a11.87,11.87,0,0,1-4,2.78A14,14,0,0,1,452.77,366Zm.13-28.71a9.59,9.59,0,0,0-7.39,3.13,12.71,12.71,0,0,0-3.27,7.91l.08.16H462v-.89a11.12,11.12,0,0,0-2.45-7.4A8.27,8.27,0,0,0,452.9,337.29Z" class="cls-5"/><path data-cppathid="10033" transform="translate(-0.05 -0.81)" d="M488.3,358.32a5.75,5.75,0,0,0-2-4.21q-2-1.89-6.89-3c-3.46-.74-6-1.68-7.51-2.84a6,6,0,0,1-2.32-5.14,6.44,6.44,0,0,1,2.63-5.22,11,11,0,0,1,7.09-2.11,11.66,11.66,0,0,1,7.57,2.25,6.9,6.9,0,0,1,2.64,5.88l-.06.17h-1.23a6.11,6.11,0,0,0-2.41-4.85,9.82,9.82,0,0,0-6.51-2c-2.72,0-4.78.58-6.18,1.76a5.22,5.22,0,0,0-2.09,4.07,5.07,5.07,0,0,0,1.77,3.89q1.77,1.61,7,2.82a19.3,19.3,0,0,1,7.37,3.07,6.52,6.52,0,0,1,2.51,5.44,6.62,6.62,0,0,1-2.79,5.53,11.92,11.92,0,0,1-7.41,2.13c-3.39,0-6-.76-8-2.27a6.34,6.34,0,0,1-2.7-5.52l.06-.16h1.18a5.72,5.72,0,0,0,2.95,5,13.1,13.1,0,0,0,6.48,1.53,10,10,0,0,0,6.39-1.88A5.5,5.5,0,0,0,488.3,358.32Z" class="cls-5"/><path data-cppathid="10034" transform="translate(-0.05 -0.81)" d="M141.86,434.07v20.36H130.6V398.27h21.48q9.69,0,15.24,4.94a18,18,0,0,1,0,26q-5.55,4.89-15.24,4.9Zm0-8.68h10.22q4.71,0,7.14-2.57a9.13,9.13,0,0,0,2.43-6.54,9.53,9.53,0,0,0-2.41-6.69c-1.61-1.76-4-2.64-7.16-2.64H141.86Z" class="cls-6"/><path data-cppathid="10035" transform="translate(-0.05 -0.81)" d="M203.35,442.32H185.14l-3.78,12.11H169.6l18.94-56.16h11.53l18.86,56.16H207.17Zm-15.43-8.83h12.69L194.4,413.7h-.23Z" class="cls-6"/><path data-cppathid="10036" transform="translate(-0.05 -0.81)" d="M260.05,407H244v47.48H232.74V407H216.93v-8.68h43.12Z" class="cls-6"/><path data-cppathid="10037" transform="translate(-0.05 -0.81)" d="M298.32,429.74H277.49v16.05h24.76v8.64h-36V398.27h36V407H277.49v14.12h20.83Z" class="cls-6"/><path data-cppathid="10038" transform="translate(-0.05 -0.81)" d="M355.56,454.43H344.3l-22.64-37.88-.24,0v37.84H310.16V398.27h11.26l22.65,37.84.23,0v-37.8h11.26Z" class="cls-6"/><path data-cppathid="10039" transform="translate(-0.05 -0.81)" d="M403.94,407H387.89v47.48H376.62V407H360.81v-8.68h43.13Z" class="cls-6"/><path data-cppathid="10040" transform="translate(-0.05 -0.81)" d="M442.2,429.74H421.37v16.05h24.77v8.64h-36V398.27h35.95V407H421.37v14.12H442.2Z" class="cls-6"/><path data-cppathid="10041" transform="translate(-0.05 -0.81)" d="M483.32,439.77a6.54,6.54,0,0,0-2.26-5.2q-2.25-2-7.92-3.71-9.72-2.92-14.76-6.9a13.08,13.08,0,0,1-5-10.84A13.63,13.63,0,0,1,459,401.84q5.67-4.38,14.46-4.38,9.34,0,15,4.7a14.77,14.77,0,0,1,5.5,12.35l-.08.23H483a8.2,8.2,0,0,0-2.54-6.46q-2.55-2.26-7.14-2.26a9.39,9.39,0,0,0-6.44,2,6.51,6.51,0,0,0-2.28,5.13,5.58,5.58,0,0,0,2.47,4.68,32.7,32.7,0,0,0,8.53,3.88q9.25,2.63,14.11,6.85a14,14,0,0,1,4.86,11.13A13.38,13.38,0,0,1,489,451.08q-5.62,4.16-14.89,4.16a26.58,26.58,0,0,1-15.56-4.51q-6.51-4.51-6.31-13.46l.08-.23h10.91c0,3.31,1,5.76,2.94,7.32a12.31,12.31,0,0,0,7.94,2.36q4.51,0,6.89-1.89A6.14,6.14,0,0,0,483.32,439.77Z" class="cls-6"/><path data-cppathid="10042" transform="translate(-0.05 -0.81)" d="M145.63,542.75q-8,0-12.43-5.09t-4.46-13.4v-1.51a19.2,19.2,0,0,1,4.6-13.17,14.41,14.41,0,0,1,11.23-5.21q7.41,0,11.12,4.61t3.71,12.27v3.56H135.75l-.1.17a15.31,15.31,0,0,0,2.46,9q2.46,3.47,7.52,3.47a16.92,16.92,0,0,0,6-1,13.35,13.35,0,0,0,4.42-2.68l2.64,4.37a16.14,16.14,0,0,1-5.23,3.23A20.82,20.82,0,0,1,145.63,542.75Zm-1.06-33.09a7.33,7.33,0,0,0-5.83,2.72,12.82,12.82,0,0,0-2.82,7l.07.17h16.68V519a10.75,10.75,0,0,0-2-6.66Q148.71,509.66,144.57,509.66Z" class="cls-7"/><path data-cppathid="10043" transform="translate(-0.05 -0.81)" d="M173,505.05l.48,5.5a13.36,13.36,0,0,1,4.63-4.56,12.38,12.38,0,0,1,6.34-1.62q6,0,9.27,3.5T197,518.69V542h-6.74V518.82c0-3.25-.64-5.57-1.93-6.93s-3.25-2.06-5.89-2.06a10.48,10.48,0,0,0-5.29,1.25,9,9,0,0,0-3.43,3.51V542H167v-37Z" class="cls-7"/><path data-cppathid="10044" transform="translate(-0.05 -0.81)" d="M233.5,496.13v8.92h7v5h-7V532.5a5,5,0,0,0,1.08,3.65,3.89,3.89,0,0,0,2.86,1.06,6.32,6.32,0,0,0,1.29-.15,8.31,8.31,0,0,0,1.2-.33l.92,4.62a6.06,6.06,0,0,1-2.22,1,11.29,11.29,0,0,1-2.9.39,8.73,8.73,0,0,1-6.53-2.48q-2.43-2.47-2.43-7.77V510h-5.88v-5h5.88v-8.92Z" class="cls-7"/><path data-cppathid="10045" transform="translate(-0.05 -0.81)" d="M265.22,511l-3.45-.21a7.64,7.64,0,0,0-4.49,1.27,8.05,8.05,0,0,0-2.82,3.55V542h-6.74v-37h6l.65,5.4a12.87,12.87,0,0,1,3.88-4.48,9.07,9.07,0,0,1,5.31-1.6,8.39,8.39,0,0,1,1.44.12,10.5,10.5,0,0,1,1.13.25Z" class="cls-7"/><path data-cppathid="10046" transform="translate(-0.05 -0.81)" d="M295,542c-.23-1.11-.41-2.1-.53-3a20.1,20.1,0,0,1-.22-2.58A15.8,15.8,0,0,1,289.3,541a12.56,12.56,0,0,1-6.51,1.79q-5.78,0-8.8-3c-2-2-3-4.68-3-8.15a9.55,9.55,0,0,1,4.28-8.29q4.29-3,11.64-3h7.32V516.7a6.79,6.79,0,0,0-2-5.14,7.84,7.84,0,0,0-5.61-1.9,8.17,8.17,0,0,0-5.3,1.64,4.94,4.94,0,0,0-2,3.93l-6.4.07-.06-.2c-.16-2.69,1.09-5.15,3.77-7.38A15.64,15.64,0,0,1,287,504.37q6.28,0,10.11,3.19t3.83,9.21v17.81a33.91,33.91,0,0,0,.21,3.83,18.63,18.63,0,0,0,.75,3.62Zm-11.18-4.92a12,12,0,0,0,6.6-1.88,9,9,0,0,0,3.83-4.31v-6h-7.56a9.78,9.78,0,0,0-6.51,2.05,6.13,6.13,0,0,0-2.44,4.82,5,5,0,0,0,1.54,3.89A6.41,6.41,0,0,0,283.78,537.11Zm5.78-47.75h7.86l.07.21-9.2,8.88h-5.05Z" class="cls-7"/><path data-cppathid="10047" transform="translate(-0.05 -0.81)" d="M316.73,505.05l.48,4.85a12.61,12.61,0,0,1,4.6-4.08,13.75,13.75,0,0,1,6.47-1.45,11.48,11.48,0,0,1,6.34,1.7,10.34,10.34,0,0,1,4,5.13,13.82,13.82,0,0,1,4.63-5,12.18,12.18,0,0,1,6.68-1.82,11.06,11.06,0,0,1,8.92,3.88q3.29,3.87,3.28,11.67V542h-6.73V519.85q0-5.48-1.88-7.74a6.84,6.84,0,0,0-5.61-2.28,7.1,7.1,0,0,0-5.58,2.4,10.36,10.36,0,0,0-2.52,6V542H333V519.85q0-5.19-1.94-7.61a6.7,6.7,0,0,0-5.55-2.41,9.28,9.28,0,0,0-5.06,1.27,8.21,8.21,0,0,0-3,3.55V542h-6.73v-37Z" class="cls-7"/><path data-cppathid="10048" transform="translate(-0.05 -0.81)" d="M379.18,495.58h-6.74v-6.87h6.74Zm0,46.45h-6.74v-37h6.74Z" class="cls-7"/><path data-cppathid="10049" transform="translate(-0.05 -0.81)" d="M398.9,496.13v8.92h7v5h-7V532.5a5,5,0,0,0,1.08,3.65,3.85,3.85,0,0,0,2.85,1.06,6.41,6.41,0,0,0,1.3-.15,8.31,8.31,0,0,0,1.2-.33l.92,4.62a6.06,6.06,0,0,1-2.22,1,11.31,11.31,0,0,1-2.91.39,8.74,8.74,0,0,1-6.53-2.48q-2.41-2.47-2.42-7.77V510h-5.88v-5h5.88v-8.92Z" class="cls-7"/><path data-cppathid="10050" transform="translate(-0.05 -0.81)" d="M428.43,542.75q-8,0-12.42-5.09t-4.46-13.4v-1.51a19.2,19.2,0,0,1,4.59-13.17,14.41,14.41,0,0,1,11.23-5.21c4.95,0,8.65,1.53,11.13,4.61s3.71,7.17,3.71,12.27v3.56H418.55l-.1.17a15.31,15.31,0,0,0,2.46,9q2.46,3.47,7.52,3.47a16.92,16.92,0,0,0,6-1,13.4,13.4,0,0,0,4.43-2.68l2.63,4.37a16,16,0,0,1-5.23,3.23A20.82,20.82,0,0,1,428.43,542.75Zm-1.06-33.09a7.33,7.33,0,0,0-5.83,2.72,13,13,0,0,0-2.82,7l.07.17h16.68V519a10.75,10.75,0,0,0-2-6.66Q431.51,509.66,427.37,509.66Z" class="cls-7"/><path data-cppathid="10051" transform="translate(-0.05 -0.81)" d="M465.73,522.39q0-8.55,4.63-14.1t12.58-5.54q8,0,12.67,5.53t4.66,14.11v.79q0,8.63-4.64,14.11T483,542.78q-8,0-12.63-5.51t-4.65-14.09Zm7,.79a18.32,18.32,0,0,0,2.58,10.12,9.34,9.34,0,0,0,15.31,0,18.16,18.16,0,0,0,2.6-10.12v-.79a18.13,18.13,0,0,0-2.62-10.09,8.58,8.58,0,0,0-7.68-4,8.48,8.48,0,0,0-7.61,4,18.38,18.38,0,0,0-2.58,10.09Z" class="cls-5"/><path data-cppathid="10052" transform="translate(-0.05 -0.81)" d="M143.38,584.92l-2.82-.08a5.17,5.17,0,0,0-2.82.71,4.58,4.58,0,0,0-1.69,2v19.27h-7.67V578.3h7.15l.34,4.22a8.94,8.94,0,0,1,2.6-3.49,5.75,5.75,0,0,1,3.67-1.25,5.85,5.85,0,0,1,1.07.09c.33.06.66.13,1,.22Z" class="cls-8"/><path data-cppathid="10053" transform="translate(-0.05 -0.81)" d="M159.26,607.39q-6.39,0-10-3.92a14.36,14.36,0,0,1-3.59-10.09v-1a15.56,15.56,0,0,1,3.49-10.49,11.81,11.81,0,0,1,9.57-4.06q5.75,0,8.82,3.51t3.07,9.48v4h-17l-.08.15a7.72,7.72,0,0,0,1.78,4.75,6,6,0,0,0,4.73,1.82,15.83,15.83,0,0,0,4.39-.53,18,18,0,0,0,3.74-1.61l2.08,4.75a14.45,14.45,0,0,1-4.64,2.35A20.67,20.67,0,0,1,159.26,607.39Zm-.5-23.68a4.3,4.3,0,0,0-3.58,1.59,8,8,0,0,0-1.51,4.23l.05.14h9.39v-.58a6.74,6.74,0,0,0-1-4A3.82,3.82,0,0,0,158.76,583.71Z" class="cls-8"/><path data-cppathid="10054" transform="translate(-0.05 -0.81)" d="M183.23,606.83h-7.7V565.7h7.7Z" class="cls-8"/><path data-cppathid="10055" transform="translate(-0.05 -0.81)" d="M201.92,607.39q-6.37,0-10-3.92a14.35,14.35,0,0,1-3.58-10.09v-1a15.6,15.6,0,0,1,3.48-10.49,11.81,11.81,0,0,1,9.57-4.06q5.75,0,8.82,3.51t3.07,9.48v4h-17l-.08.15a7.78,7.78,0,0,0,1.78,4.75,6,6,0,0,0,4.74,1.82,15.93,15.93,0,0,0,4.39-.53,18.12,18.12,0,0,0,3.73-1.61l2.08,4.75a14.45,14.45,0,0,1-4.64,2.35A20.67,20.67,0,0,1,201.92,607.39Zm-.5-23.68a4.27,4.27,0,0,0-3.57,1.59,8,8,0,0,0-1.52,4.23l0,.14h9.39v-.58a6.66,6.66,0,0,0-1-4A3.81,3.81,0,0,0,201.42,583.71Z" class="cls-8"/><path data-cppathid="10056" transform="translate(-0.05 -0.81)" d="M227.76,596.21l.5,2.63h.16l.53-2.63,4.69-17.91h8L232,606.83h-7.36l-9.7-28.53h8Z" class="cls-8"/><path data-cppathid="10057" transform="translate(-0.05 -0.81)" d="M261.46,606.83a16,16,0,0,1-.73-2.05,13.82,13.82,0,0,1-.43-2.22,10.49,10.49,0,0,1-3.14,3.45,7.83,7.83,0,0,1-4.64,1.38q-4.49,0-6.91-2.31a8.27,8.27,0,0,1-2.43-6.29,7.53,7.53,0,0,1,3.23-6.5q3.24-2.31,9.43-2.31h4.32v-2.26a4.42,4.42,0,0,0-1.08-3.19,4.22,4.22,0,0,0-3.21-1.14,4.17,4.17,0,0,0-2.89.91,3.18,3.18,0,0,0-1,2.49h-7.4l-.06-.16a7.25,7.25,0,0,1,3.15-6.23,13.7,13.7,0,0,1,8.72-2.62,12.79,12.79,0,0,1,8.32,2.58,9,9,0,0,1,3.17,7.41v11.78a21.39,21.39,0,0,0,.31,3.77,18.68,18.68,0,0,0,1,3.51Zm-7-5.14a6.52,6.52,0,0,0,3.58-1,5.32,5.32,0,0,0,2.16-2.32v-4h-4.32a5.11,5.11,0,0,0-3.7,1.22,4,4,0,0,0-1.26,3,3,3,0,0,0,.94,2.3A3.71,3.71,0,0,0,254.42,601.69Z" class="cls-8"/><path data-cppathid="10058" transform="translate(-0.05 -0.81)" d="M280.68,578.3l.34,4.09a10.44,10.44,0,0,1,3.51-3.4,9.07,9.07,0,0,1,4.66-1.21,8.44,8.44,0,0,1,6.75,2.78q2.43,2.78,2.43,8.79v17.48h-7.73V589.38c0-2-.35-3.49-1.06-4.34a4,4,0,0,0-3.21-1.28,6.74,6.74,0,0,0-3,.65,5.8,5.8,0,0,0-2.14,1.78v20.64h-7.7V578.3Z" class="cls-8"/><path data-cppathid="10059" transform="translate(-0.05 -0.81)" d="M313.35,571.32v7h4.82v5.41h-4.82v14.53a3.31,3.31,0,0,0,.7,2.37,2.45,2.45,0,0,0,1.83.71,8,8,0,0,0,1.05-.06,9.49,9.49,0,0,0,1-.23l.63,5.56a14.48,14.48,0,0,1-2.25.6,13.67,13.67,0,0,1-2.39.2,8.22,8.22,0,0,1-6.13-2.19q-2.15-2.19-2.15-6.94V583.71h-4.16V578.3h4.16v-7Z" class="cls-8"/><path data-cppathid="10060" transform="translate(-0.05 -0.81)" d="M335.28,607.39q-6.37,0-10-3.92a14.36,14.36,0,0,1-3.59-10.09v-1a15.6,15.6,0,0,1,3.48-10.49,11.81,11.81,0,0,1,9.57-4.06q5.76,0,8.82,3.51t3.08,9.48v4h-17l-.08.15a7.72,7.72,0,0,0,1.78,4.75,6,6,0,0,0,4.73,1.82,15.88,15.88,0,0,0,4.39-.53,17.67,17.67,0,0,0,3.73-1.61l2.09,4.75a14.56,14.56,0,0,1-4.64,2.35A20.73,20.73,0,0,1,335.28,607.39Zm-.5-23.68a4.29,4.29,0,0,0-3.57,1.59,8.12,8.12,0,0,0-1.52,4.23l.06.14h9.38v-.58a6.74,6.74,0,0,0-1-4A3.84,3.84,0,0,0,334.78,583.71Z" class="cls-8"/><path data-cppathid="10061" transform="translate(-0.05 -0.81)" d="M366.58,598.92a2.66,2.66,0,0,0-1.22-2.17,12.49,12.49,0,0,0-4.55-1.6,18.22,18.22,0,0,1-7.61-3,6.62,6.62,0,0,1-2.6-5.51,7.84,7.84,0,0,1,3.12-6.25,12.53,12.53,0,0,1,8.27-2.58,13.58,13.58,0,0,1,8.67,2.58,7.54,7.54,0,0,1,3.12,6.43l0,.16h-7.44a3.75,3.75,0,0,0-1.1-2.79,4.41,4.41,0,0,0-3.2-1.09,4.32,4.32,0,0,0-2.92.93,2.86,2.86,0,0,0-1.08,2.27,2.54,2.54,0,0,0,1.12,2.14,12.29,12.29,0,0,0,4.55,1.49,18.61,18.61,0,0,1,7.81,3.1,6.78,6.78,0,0,1,2.57,5.63,7.5,7.5,0,0,1-3.29,6.3,14.2,14.2,0,0,1-8.7,2.46c-3.8,0-6.8-1-9-2.89a8.11,8.11,0,0,1-3.15-6.58l.05-.16h7a4,4,0,0,0,1.51,3.32,6.18,6.18,0,0,0,3.72,1,5.29,5.29,0,0,0,3.25-.85A2.79,2.79,0,0,0,366.58,598.92Z" class="cls-8"/><path data-cppathid="10062" transform="translate(-0.05 -0.81)" d="M417.55,593.65q0,6.17-2.95,10a9.78,9.78,0,0,1-8.15,3.79,11.31,11.31,0,0,1-4.63-.89,8.89,8.89,0,0,1-3.39-2.65V617.8h-5.19V578.3h4L398,582a9.38,9.38,0,0,1,3.48-3.13,10.41,10.41,0,0,1,4.85-1.08,9.49,9.49,0,0,1,8.24,4.2q2.94,4.2,2.94,11.11Zm-5.19-.56a15,15,0,0,0-1.92-8,6.18,6.18,0,0,0-5.63-3.13,6.92,6.92,0,0,0-3.82,1,7.64,7.64,0,0,0-2.56,2.78v13.79a7.42,7.42,0,0,0,2.56,2.76,7.19,7.19,0,0,0,3.88,1,6.4,6.4,0,0,0,5.59-2.7,11.89,11.89,0,0,0,1.9-7Z" class="cls-5"/><path data-cppathid="10063" transform="translate(-0.05 -0.81)" d="M441.47,606.83c-.18-.86-.32-1.62-.41-2.28a14.71,14.71,0,0,1-.17-2A12.1,12.1,0,0,1,437.1,606a9.69,9.69,0,0,1-5,1.39c-3,0-5.24-.76-6.79-2.28a8.39,8.39,0,0,1-2.33-6.29,7.38,7.38,0,0,1,3.3-6.4q3.32-2.31,9-2.31h5.65v-2.82a5.2,5.2,0,0,0-1.53-4,6,6,0,0,0-4.33-1.47,6.25,6.25,0,0,0-4.09,1.27,3.8,3.8,0,0,0-1.55,3l-4.93.05,0-.16q-.2-3.1,2.91-5.69a12.07,12.07,0,0,1,8-2.58,11.8,11.8,0,0,1,7.81,2.46,8.72,8.72,0,0,1,2.95,7.11v13.73a25.79,25.79,0,0,0,.16,3,14.72,14.72,0,0,0,.58,2.79Zm-8.63-3.8a9.22,9.22,0,0,0,5.09-1.45,6.89,6.89,0,0,0,3-3.32v-4.64h-5.83a7.57,7.57,0,0,0-5,1.58,4.74,4.74,0,0,0-1.89,3.72,3.92,3.92,0,0,0,1.19,3A5,5,0,0,0,432.84,603Z" class="cls-5"/><path data-cppathid="10064" transform="translate(-0.05 -0.81)" d="M467.12,582.89l-2.66-.16a6,6,0,0,0-3.47,1,6.25,6.25,0,0,0-2.18,2.74v20.38h-5.19V578.3h4.64l.5,4.17a10,10,0,0,1,3-3.46,7.06,7.06,0,0,1,4.1-1.23,6.57,6.57,0,0,1,1.11.09,5.69,5.69,0,0,1,.87.2Z" class="cls-5"/><path data-cppathid="10065" transform="translate(-0.05 -0.81)" d="M490.06,606.83c-.18-.86-.31-1.62-.41-2.28a16.52,16.52,0,0,1-.17-2A12.17,12.17,0,0,1,485.7,606a9.73,9.73,0,0,1-5,1.39q-4.46,0-6.79-2.28a8.43,8.43,0,0,1-2.33-6.29,7.37,7.37,0,0,1,3.31-6.4c2.2-1.54,5.2-2.31,9-2.31h5.64v-2.82a5.2,5.2,0,0,0-1.53-4,6,6,0,0,0-4.32-1.47,6.25,6.25,0,0,0-4.09,1.27,3.78,3.78,0,0,0-1.56,3l-4.93.05-.05-.16q-.18-3.1,2.91-5.69a12.12,12.12,0,0,1,8-2.58,11.79,11.79,0,0,1,7.8,2.46,8.72,8.72,0,0,1,2.95,7.11v13.73a28.28,28.28,0,0,0,.16,3,15.54,15.54,0,0,0,.58,2.79Zm-8.62-3.8a9.22,9.22,0,0,0,5.09-1.45,6.87,6.87,0,0,0,3-3.32v-4.64h-5.83a7.58,7.58,0,0,0-5,1.58,4.74,4.74,0,0,0-1.89,3.72,3.92,3.92,0,0,0,1.19,3A5,5,0,0,0,481.44,603Z" class="cls-5"/><path data-cppathid="10066" transform="translate(-0.05 -0.81)" d="M137.7,671.18h18.78v6.45H129.29V635.69h8.41Z" class="cls-5"/><path data-cppathid="10067" transform="translate(-0.05 -0.81)" d="M171.06,677.63h-8.41V635.69h8.41Z" class="cls-5"/><path data-cppathid="10068" transform="translate(-0.05 -0.81)" d="M210.85,663.75l.05.17q.12,6.71-4.09,10.51t-11.61,3.81A16.06,16.06,0,0,1,183,673.38c-3.1-3.23-4.64-7.42-4.64-12.54v-8.33A17.77,17.77,0,0,1,182.9,640a15.44,15.44,0,0,1,11.87-4.88q7.66,0,12,3.75T211,649.37l-.06.17h-8.18q0-4-1.94-6t-6-2a6.79,6.79,0,0,0-5.89,3,13.48,13.48,0,0,0-2.12,7.85v8.39a13.11,13.11,0,0,0,2.23,7.89,7.25,7.25,0,0,0,6.21,3c2.52,0,4.4-.65,5.63-2s1.86-3.34,1.86-6.06Z" class="cls-5"/><path data-cppathid="10069" transform="translate(-0.05 -0.81)" d="M225.91,677.63H217.5V635.69h8.41Z" class="cls-5"/><path data-cppathid="10070" transform="translate(-0.05 -0.81)" d="M262.64,642.17h-12v35.46h-8.41V642.17H230.44v-6.48h32.2Z" class="cls-5"/><path data-cppathid="10071" transform="translate(-0.05 -0.81)" d="M286,668.59h-13.6l-2.82,9h-8.79l14.15-41.94h8.61l14.09,41.94h-8.79ZM274.46,662h9.47l-4.64-14.78h-.17Z" class="cls-5"/><path data-cppathid="10072" transform="translate(-0.05 -0.81)" d="M332.79,663.75l.06.17q.12,6.71-4.09,10.51c-2.8,2.54-6.68,3.81-11.61,3.81A16.1,16.1,0,0,1,305,673.38c-3.09-3.23-4.63-7.42-4.63-12.54v-8.33q0-7.66,4.52-12.55a15.43,15.43,0,0,1,11.87-4.88q7.66,0,12,3.75t4.21,10.54l-.06.17h-8.18q0-4-1.95-6t-6-2a6.79,6.79,0,0,0-5.89,3,13.4,13.4,0,0,0-2.12,7.85v8.39a13,13,0,0,0,2.23,7.89,7.25,7.25,0,0,0,6.21,3c2.52,0,4.39-.65,5.63-2s1.86-3.34,1.86-6.06Z" class="cls-5"/><path data-cppathid="10073" transform="translate(-0.05 -0.81)" d="M347.86,677.63h-8.41V635.69h8.41Z" class="cls-5"/><path data-cppathid="10074" transform="translate(-0.05 -0.81)" d="M390.12,660.43a17.6,17.6,0,0,1-4.87,12.78,16.85,16.85,0,0,1-12.67,5,16.68,16.68,0,0,1-12.62-5,17.66,17.66,0,0,1-4.84-12.76v-7.54a17.75,17.75,0,0,1,4.82-12.75,16.61,16.61,0,0,1,12.58-5.06,16.89,16.89,0,0,1,12.7,5.06,17.56,17.56,0,0,1,4.9,12.75Zm-8.38-7.6a12.69,12.69,0,0,0-2.45-8,8.11,8.11,0,0,0-6.77-3.14,7.86,7.86,0,0,0-6.64,3.14,12.91,12.91,0,0,0-2.38,8v7.6a13.08,13.08,0,0,0,2.39,8.13,8,8,0,0,0,6.69,3.14,8,8,0,0,0,6.74-3.14,13,13,0,0,0,2.42-8.13Z" class="cls-5"/><path data-cppathid="10075" transform="translate(-0.05 -0.81)" d="M430.68,677.63h-8.41l-16.91-28.29-.17,0v28.26h-8.41V635.69h8.41L422.1,664l.17,0V635.69h8.41Z" class="cls-5"/><path data-cppathid="10076" transform="translate(-0.05 -0.81)" d="M462.37,659.19H446.82v12h18.49v6.45h-26.9V635.69h26.85v6.48H446.82v10.54h15.55Z" class="cls-5"/><path data-cppathid="10077" transform="translate(-0.05 -0.81)" d="M493.08,666.68a4.89,4.89,0,0,0-1.68-3.88,16.93,16.93,0,0,0-5.92-2.77q-7.26-2.19-11-5.16a9.73,9.73,0,0,1-3.76-8.09,10.19,10.19,0,0,1,4.23-8.43,17.19,17.19,0,0,1,10.81-3.27q7,0,11.22,3.52a11,11,0,0,1,4.1,9.22L501,648h-8.16a6.11,6.11,0,0,0-1.9-4.83,7.78,7.78,0,0,0-5.33-1.68,7,7,0,0,0-4.81,1.5,4.87,4.87,0,0,0-1.7,3.83,4.2,4.2,0,0,0,1.85,3.5,24.71,24.71,0,0,0,6.36,2.89q6.92,2,10.55,5.12a10.47,10.47,0,0,1,3.63,8.31,10,10,0,0,1-4.21,8.5q-4.2,3.11-11.12,3.11a19.9,19.9,0,0,1-11.62-3.37q-4.86-3.37-4.71-10.06l.05-.17h8.16q0,3.72,2.18,5.47a9.24,9.24,0,0,0,5.94,1.76,8.09,8.09,0,0,0,5.14-1.41A4.58,4.58,0,0,0,493.08,666.68Z" class="cls-5"/></g></svg>