<?xml version="1.0" encoding="UTF-8"?>
<svg xmlns="http://www.w3.org/2000/svg" onmouseup="{ if(window.parent.document.onmouseup) window.parent.document.onmouseup(arguments[0]);}" viewBox="0 0 618.84 856.15"><defs><style>.cls-1{fill:#4c4c4c;}.cls-2{fill:#343e48;stroke:#00ffd3;stroke-miterlimit:10;stroke-width:10px;}.cls-3{fill:#fda800;}.cls-4{fill:#303030;}.cls-5{fill:#fff;}.cls-6{fill:#32edff;}.cls-7{fill:#fa0;}.cls-8{fill:#00ffd3;}</style></defs><g id="SD"><path data-cppathid="10000" transform="translate(-0.05 -0.81)" d="M578.69,857H39.07c-.18-.79-.86-.69-1.43-.81C18.16,852.1,6,840.39,1,821.17c-.17-.65,0-1.52-.95-1.76V386.56c4.13.8,8.32,0,12.43.43,3.42.38,4-1,4-4.09q-.15-71.34-.07-142.69c0-9.93-.11-19.86.07-29.79,0-2.84-.84-3.53-3.53-3.41-4.28.19-8.57,0-12.86-.06V25.12c1.24-.87,1.09-2.34,1.49-3.55C5.29,10.09,16.07,1.24,28.08,1,44.26.61,60.45,1,76.64,1V30.24q0,54.24-.08,108.46c0,2.64.53,3.57,3.39,3.54q21.33-.24,42.65,0c2.86,0,3.4-.9,3.39-3.54q-.13-54.22-.08-108.46V1h14.78q0,14.68.05,29.35,0,54.09,0,108.19c0,2.85.7,3.75,3.66,3.72,13.86-.16,27.72-.19,41.58,0,3.48.06,4.53-.74,4.52-4.38-.15-34.59-.09-69.18-.1-103.78,0-1.33.25-2.7-.39-4L190,1h15.51l0,29.2q-.06,54.64-.16,109.29c0,2.46,1.07,2.74,3.09,2.73,14-.06,28-.17,41.95.06,3.63.06,4.42-1,4.41-4.48-.12-35.82,0-71.63,0-107.45q0-14.67.05-29.35h14.78V30.24q0,54.24-.08,108.46c0,2.64.53,3.57,3.39,3.54q21.33-.24,42.65,0c2.86,0,3.4-.9,3.39-3.54q-.14-54.22-.08-108.46V1H334.3l0,29.13a21.85,21.85,0,0,0-.38,2.88c0,35.28,0,70.57-.08,105.86,0,2.9,1,3.39,3.62,3.37,13.85-.11,27.7-.2,41.54.05,3.68.06,4.39-1.09,4.37-4.52-.12-34.55-.07-69.11-.08-103.66,0-1.33.25-2.7-.39-4l0-29.13h15.51l0,29.2q-.06,54.64-.16,109.29c0,2.46,1.07,2.74,3.09,2.73,14-.06,28-.17,41.95.06,3.63.06,4.42-1,4.41-4.48-.12-35.82-.05-71.63,0-107.45q0-14.67.05-29.35H462.4V30.25q0,54.23-.08,108.45c0,2.64.53,3.57,3.39,3.54q21.33-.24,42.65,0c2.86,0,3.4-.9,3.39-3.54q-.13-54.22-.08-108.45V1.69C517.33,2.76,522.41,5,526.53,9.1q0,37,0,73.92c.06,1.47.18,2.94.18,4.4,0,34.35.06,68.71-.08,103.06,0,3.62,1,4.49,4.54,4.44q20.24-.3,40.48,0c3.5.05,4.56-.82,4.54-4.45-.14-34.35-.09-68.7-.07-103,0-1.46.11-2.93.17-4.4q.07-11.59.13-23.19c1.26.11,1.77,1.22,2.5,2,9.21,9.35,18.17,18.94,27.63,28,8.61,8.27,12.39,18,12.3,29.89-.23,29.93-.07,59.85-.07,89.78,0,15.45-.1,30.9.07,46.35,0,3.15-.93,3.93-3.93,3.81-6-.22-12,0-18-.11-2.31-.06-2.86.7-2.84,2.92.1,13.86.12,27.72,0,41.57,0,2.6.95,3,3.19,3,5.64-.13,11.28-.07,16.92,0,5.16,0,4.61-.74,4.61,4.77q0,204.75,0,409.5,0,44.7,0,89.4c0,21.49-12.81,38.65-32.85,44.47C583.54,855.79,580.92,855.61,578.69,857Z" class="cls-1"/><path data-cppathid="10001" transform="translate(-0.05 -0.81)" d="M55.88,504v235.9A66.32,66.32,0,0,0,101.3,802.6c11,3.67,22.19,3.45,33.48,3.45q180.9,0,361.8,0a66.63,66.63,0,0,0,66.53-66.48V267a48.74,48.74,0,0,0-49-49.12q-204.63,0-409.28,0c-27.46,0-48.93,21.63-48.93,49.09Z" class="cls-1"/><rect data-cppathid="10002" rx="55.23" height="575.3" width="494.44" y="223.55" x="61.69" class="cls-2"/><path data-cppathid="10003" transform="translate(-0.05 -0.81)" d="M576.33,83c-.06,1.47-.17,2.94-.17,4.4,0,34.35-.07,68.7.07,103.05,0,3.63-1,4.5-4.54,4.45q-20.24-.3-40.48,0c-3.5.05-4.56-.82-4.54-4.44.14-34.35.09-68.71.08-103.06,0-1.46-.12-2.93-.18-4.4,1.45-.12,2.9-.34,4.35-.34q18.69,0,37.39,0C571,82.7,573.69,82.29,576.33,83Z" class="cls-3"/><path data-cppathid="10004" transform="translate(-0.05 -0.81)" d="M190,30.11c.64,1.28.39,2.65.39,4,0,34.6,0,69.19.1,103.78,0,3.64-1,4.44-4.52,4.38-13.86-.2-27.72-.17-41.58,0-3,0-3.67-.87-3.66-3.72q.12-54.09,0-108.19Z" class="cls-3"/><path data-cppathid="10005" transform="translate(-0.05 -0.81)" d="M382.87,30.11c.64,1.28.39,2.65.39,4,0,34.55,0,69.11.08,103.66,0,3.43-.69,4.58-4.37,4.52-13.84-.25-27.69-.16-41.54-.05-2.59,0-3.63-.47-3.62-3.37.1-35.29.06-70.58.08-105.86a21.85,21.85,0,0,1,.38-2.88Z" class="cls-3"/><path data-cppathid="10006" transform="translate(-0.05 -0.81)" d="M125.91,30.24q0,54.24.08,108.46c0,2.64-.53,3.57-3.39,3.54q-21.33-.24-42.65,0c-2.86,0-3.4-.9-3.39-3.54q.14-54.22.08-108.45Z" class="cls-3"/><path data-cppathid="10007" transform="translate(-0.05 -0.81)" d="M254.69,30.33c0,35.82-.08,71.63,0,107.45,0,3.5-.78,4.54-4.41,4.48-14-.23-28-.12-41.95-.06-2,0-3.1-.27-3.09-2.73q.15-54.64.16-109.29Z" class="cls-3"/><path data-cppathid="10008" transform="translate(-0.05 -0.81)" d="M318.79,30.24q0,54.24.08,108.46c0,2.64-.53,3.57-3.39,3.54q-21.33-.24-42.65,0c-2.86,0-3.4-.9-3.39-3.54q.13-54.22.08-108.45Z" class="cls-3"/><path data-cppathid="10009" transform="translate(-0.05 -0.81)" d="M447.57,30.33c0,35.82-.08,71.63,0,107.45,0,3.5-.78,4.54-4.41,4.48-14-.23-28-.12-41.95-.06-2,0-3.1-.27-3.09-2.73q.15-54.64.16-109.29Z" class="cls-3"/><path data-cppathid="10010" transform="translate(-0.05 -0.81)" d="M511.67,30.25q0,54.23.08,108.45c0,2.64-.53,3.57-3.39,3.54q-21.33-.24-42.65,0c-2.86,0-3.4-.9-3.39-3.54q.14-54.22.08-108.45Z" class="cls-3"/><path data-cppathid="10011" transform="translate(-0.05 -0.81)" d="M576.33,83c-2.64-.73-5.35-.32-8-.34q-18.69-.08-37.39,0c-1.45,0-2.9.22-4.35.34q0-37,0-73.92c6.59,5.52,12.2,12,18.27,18.07,9.65,9.59,19.1,19.39,28.61,29.12,1.09,1.11,2,2.35,3.05,3.54Q576.4,71.43,576.33,83Z" class="cls-4"/><path data-cppathid="10012" transform="translate(-0.05 -0.81)" d="M125.91,30.24H76.64V1h49.27Z" class="cls-4"/><path data-cppathid="10013" transform="translate(-0.05 -0.81)" d="M190,30.11l-49.25.22q0-14.67-.05-29.35H190Z" class="cls-4"/><path data-cppathid="10014" transform="translate(-0.05 -0.81)" d="M254.69,30.33l-49.25-.15,0-29.2h49.27Q254.72,15.67,254.69,30.33Z" class="cls-4"/><path data-cppathid="10015" transform="translate(-0.05 -0.81)" d="M318.79,30.24H269.52V1h49.27Z" class="cls-4"/><path data-cppathid="10016" transform="translate(-0.05 -0.81)" d="M447.57,30.33l-49.25-.15,0-29.2h49.27Q447.61,15.67,447.57,30.33Z" class="cls-4"/><path data-cppathid="10017" transform="translate(-0.05 -0.81)" d="M511.67,30.25H462.4V1C477,1,491.64.89,506.26.92a37.09,37.09,0,0,1,5.41.77Z" class="cls-4"/><path data-cppathid="10018" transform="translate(-0.05 -0.81)" d="M382.87,30.11h-48.6L334.3,1h48.54Z" class="cls-4"/></g><g id="TXT"><path data-cppathid="10019" transform="translate(-0.05 -0.81)" d="M149.9,436a18.43,18.43,0,0,0,11-3.41q4.77-3.4,4.77-10.21h2.09l.09.27a13.41,13.41,0,0,1-5.29,11.51,19.92,19.92,0,0,1-12.65,4.29q-9.39,0-14.73-6.76t-5.34-17.8V412q0-11,5.32-17.76t14.66-6.76A19.32,19.32,0,0,1,162.73,392q5.29,4.47,5.11,12.6l-.09.27h-2.09q0-7.21-4.63-11.05a17,17,0,0,0-11.22-3.84q-8.62,0-13.07,6.17T132.29,412v1.91q0,9.79,4.45,16T149.9,436Z" class="cls-5"/><path data-cppathid="10020" transform="translate(-0.05 -0.81)" d="M176.56,412q0-10.81,6-17.67a21,21,0,0,1,31.06,0q6,6.86,6,17.67v1.91q0,10.84-6,17.71a21,21,0,0,1-31,0q-6-6.87-6-17.71Zm2.45,1.91a24.2,24.2,0,0,0,5.18,15.68,18.16,18.16,0,0,0,27.74,0,24.18,24.18,0,0,0,5.18-15.66V412a24.08,24.08,0,0,0-5.22-15.55,18,18,0,0,0-27.7,0A24.22,24.22,0,0,0,179,412Z" class="cls-5"/><path data-cppathid="10021" transform="translate(-0.05 -0.81)" d="M233.41,388.39l.32,9.9a18.15,18.15,0,0,1,6.54-8,18.55,18.55,0,0,1,10.49-2.83q8,0,12.06,5.06t4,16.05v28.93h-2.46v-29q0-10.22-3.65-14.39a12.51,12.51,0,0,0-9.92-4.18q-7.73,0-11.81,4.49A21.84,21.84,0,0,0,233.78,406v31.52h-2.46V412.37h-.13c0-.57,0-1.16,0-1.75s0-1.18.11-1.79V388.39Z" class="cls-5"/><path data-cppathid="10022" transform="translate(-0.05 -0.81)" d="M287.32,375.13v13.26h12.07v2.5H287.32v34c0,4,.68,6.89,2,8.6a6.56,6.56,0,0,0,5.4,2.57c.82,0,1.55,0,2.18-.09s1.52-.17,2.64-.32l.45,2.23a12.22,12.22,0,0,1-2.36.5,25.64,25.64,0,0,1-2.77.13q-4.95,0-7.52-3.22t-2.56-10.4v-34h-9.08v-2.5h9.08V375.13Z" class="cls-5"/><path data-cppathid="10023" transform="translate(-0.05 -0.81)" d="M332.63,390.17l-3.17-.28a14.24,14.24,0,0,0-10.7,4.25,20.78,20.78,0,0,0-5.33,11.19v32.2H311V388.39h2l.46,8.54v1.68a17.72,17.72,0,0,1,6.08-8.19,16.46,16.46,0,0,1,9.95-2.93,10.61,10.61,0,0,1,1.93.16,14.78,14.78,0,0,1,1.52.34Z" class="cls-5"/><path data-cppathid="10024" transform="translate(-0.05 -0.81)" d="M337.31,412q0-10.81,6-17.67a21,21,0,0,1,31.06,0q6,6.86,6,17.67v1.91q0,10.84-6,17.71a21,21,0,0,1-31,0q-6-6.87-6-17.71Zm2.45,1.91a24.2,24.2,0,0,0,5.18,15.68,18.17,18.17,0,0,0,27.75,0,24.23,24.23,0,0,0,5.17-15.66V412a24.08,24.08,0,0,0-5.22-15.55,18,18,0,0,0-27.7,0A24.22,24.22,0,0,0,339.76,412Z" class="cls-5"/><path data-cppathid="10025" transform="translate(-0.05 -0.81)" d="M395.12,437.53h-2.45V366.69h2.45Z" class="cls-5"/><path data-cppathid="10026" transform="translate(-0.05 -0.81)" d="M428.45,438.48a18.84,18.84,0,0,1-14.64-6.72q-6-6.72-6-16.94v-2.9q0-10.68,5.93-17.55a18.84,18.84,0,0,1,14.92-6.88q8.18,0,13,5.38t4.86,14.69v3.77H410.29v3.49a22.79,22.79,0,0,0,5.08,15.1A16.25,16.25,0,0,0,428.45,436a22.67,22.67,0,0,0,8.47-1.63,18.25,18.25,0,0,0,6.61-4.36l1.31,1.9a19.65,19.65,0,0,1-6.67,4.7A23.51,23.51,0,0,1,428.45,438.48Zm.23-48.54a16.24,16.24,0,0,0-12.51,5.29,21.52,21.52,0,0,0-5.52,13.37l.14.27h33.33v-1.49q0-7.59-4.14-12.51T428.68,389.94Z" class="cls-5"/><path data-cppathid="10027" transform="translate(-0.05 -0.81)" d="M488.53,425.49a9.65,9.65,0,0,0-3.34-7.1q-3.33-3.21-11.65-5-8.76-1.86-12.69-4.79t-3.93-8.7a10.93,10.93,0,0,1,4.45-8.83q4.45-3.57,12-3.56,8.13,0,12.81,3.81a11.62,11.62,0,0,1,4.45,9.95l-.09.27h-2.09a10.33,10.33,0,0,0-4.07-8.2q-4.06-3.37-11-3.38t-10.44,3a8.82,8.82,0,0,0-3.54,6.88,8.61,8.61,0,0,0,3,6.59q3,2.72,11.9,4.77,8.22,1.91,12.47,5.19a11,11,0,0,1,4.24,9.2,11.2,11.2,0,0,1-4.72,9.35q-4.72,3.6-12.53,3.59c-5.73,0-10.21-1.28-13.47-3.84s-4.77-5.66-4.56-9.33l.09-.27h2q.36,5.82,5,8.4a22.06,22.06,0,0,0,11,2.59q6.81,0,10.8-3.18T488.53,425.49Z" class="cls-5"/><path data-cppathid="10028" transform="translate(-0.05 -0.81)" d="M131.45,533.53V468.12h21.43q11.53,0,18,4.52t6.47,13.41a13.88,13.88,0,0,1-9.17,13.38,14.09,14.09,0,0,1,9.21,5.3,15.91,15.91,0,0,1,3.1,9.75q0,9.39-6.2,14.22t-17.56,4.83Zm13.11-38h8.76c3.51,0,6.2-.71,8.09-2.15a7.42,7.42,0,0,0,2.83-6.29q0-4.54-2.85-6.69t-8.51-2.16h-8.32Zm0,9.08v18.87h12.18q5.2,0,7.95-2.27t2.74-6.72q0-4.75-2.7-7.32t-8.13-2.56Z" class="cls-6"/><path data-cppathid="10029" transform="translate(-0.05 -0.81)" d="M224.17,519.42H203l-4.4,14.11h-13.7l22.06-65.41h13.43l22,65.41h-13.7Zm-18-10.28H221l-7.24-23.05h-.26ZM216,449.7h14.6l.09.27-12.44,11.68H207.05Z" class="cls-6"/><path data-cppathid="10030" transform="translate(-0.05 -0.81)" d="M282.7,516.46a7.67,7.67,0,0,0-2.63-6.07q-2.62-2.28-9.23-4.31-11.32-3.4-17.18-8a15.2,15.2,0,0,1-5.86-12.62,15.88,15.88,0,0,1,6.6-13.14q6.6-5.1,16.84-5.1,10.88,0,17.5,5.48a17.12,17.12,0,0,1,6.4,14.37l-.09.27H282.34q0-4.89-3-7.52t-8.32-2.63q-4.85,0-7.5,2.34a7.62,7.62,0,0,0-2.65,6,6.52,6.52,0,0,0,2.88,5.46q2.86,2.13,9.93,4.51,10.77,3.06,16.44,8a16.35,16.35,0,0,1,5.66,13,15.6,15.6,0,0,1-6.56,13.25q-6.56,4.85-17.34,4.85a31,31,0,0,1-18.13-5.25q-7.56-5.26-7.34-15.68l.09-.27h12.71c0,3.86,1.14,6.71,3.41,8.53s5.36,2.74,9.26,2.74c3.5,0,6.18-.73,8-2.2A7.13,7.13,0,0,0,282.7,516.46Z" class="cls-6"/><path data-cppathid="10031" transform="translate(-0.05 -0.81)" d="M319.49,533.53H306.37V468.12h13.12Z" class="cls-6"/><path data-cppathid="10032" transform="translate(-0.05 -0.81)" d="M381.53,511.88l.09.27q.18,10.46-6.38,16.39t-18.1,5.93q-11.77,0-19-7.57t-7.23-19.56v-13q0-12,7.05-19.57t18.51-7.61q12,0,18.69,5.84t6.56,16.44l-.09.27H368.86q0-6.28-3-9.37t-9.37-3.07a10.59,10.59,0,0,0-9.19,4.74q-3.3,4.74-3.3,12.24v13.07q0,7.55,3.48,12.31a11.33,11.33,0,0,0,9.69,4.76q5.88,0,8.78-3.08t2.89-9.45Z" class="cls-6"/><path data-cppathid="10033" transform="translate(-0.05 -0.81)" d="M443.92,506.71q0,12.09-7.59,19.92t-19.76,7.84q-12.13,0-19.68-7.86t-7.55-19.9V494.94q0-12,7.53-19.88t19.61-7.88q12.16,0,19.81,7.88t7.63,19.88Zm-13.07-11.86q0-7.64-3.82-12.53a12.61,12.61,0,0,0-10.55-4.9,12.24,12.24,0,0,0-10.36,4.9q-3.71,4.89-3.7,12.53v11.86q0,7.77,3.72,12.67a12.37,12.37,0,0,0,10.43,4.89,12.53,12.53,0,0,0,10.51-4.89q3.76-4.9,3.77-12.67Z" class="cls-6"/><path data-cppathid="10034" transform="translate(-0.05 -0.81)" d="M488.4,516.46a7.67,7.67,0,0,0-2.63-6.07q-2.62-2.28-9.23-4.31-11.32-3.4-17.19-8a15.22,15.22,0,0,1-5.86-12.62,15.86,15.86,0,0,1,6.61-13.14q6.6-5.1,16.84-5.1,10.88,0,17.5,5.48a17.12,17.12,0,0,1,6.4,14.37l-.09.27H488q0-4.89-3-7.52t-8.31-2.63q-4.85,0-7.5,2.34a7.59,7.59,0,0,0-2.65,6,6.53,6.53,0,0,0,2.87,5.46q2.88,2.13,9.93,4.51,10.79,3.06,16.44,8a16.32,16.32,0,0,1,5.66,13A15.59,15.59,0,0,1,495,529.62q-6.57,4.85-17.34,4.85a31,31,0,0,1-18.13-5.25q-7.58-5.26-7.35-15.68l.09-.27H465c0,3.86,1.14,6.71,3.41,8.53s5.36,2.74,9.26,2.74q5.25,0,8-2.2A7.11,7.11,0,0,0,488.4,516.46Z" class="cls-6"/><path data-cppathid="10035" transform="translate(-0.05 -0.81)" d="M131.19,592.53V550.58h12.47a16.48,16.48,0,0,1,12.28,5.19A18.18,18.18,0,0,1,161,569v5.13a18.18,18.18,0,0,1-5,13.24,16.54,16.54,0,0,1-12.28,5.17Zm1.56-40.39V591h10.91a14.9,14.9,0,0,0,11.15-4.78,16.66,16.66,0,0,0,4.61-12.07V568.9a16.55,16.55,0,0,0-4.61-12,14.9,14.9,0,0,0-11.15-4.78Z" class="cls-7"/><path data-cppathid="10036" transform="translate(-0.05 -0.81)" d="M192.38,571.44H172.21V591h23.11v1.56H170.66V550.58h24.66v1.56H172.21v17.74h20.17Z" class="cls-7"/><path data-cppathid="10037" transform="translate(-0.05 -0.81)" d="M218.85,574.52v18H217.3V550.58h13.11q6.51,0,10,3.27a12.56,12.56,0,0,1,0,17.42q-3.51,3.26-10,3.25Zm0-1.55h11.56q6,0,9-3a10,10,0,0,0,3-7.4,10.09,10.09,0,0,0-3-7.51c-2-2-5-3-9-3H218.85Z" class="cls-7"/><path data-cppathid="10038" transform="translate(-0.05 -0.81)" d="M254.14,572.85v19.71h-1.55V550.61h13.65q6.63,0,10.2,2.87c2.38,1.91,3.58,4.7,3.58,8.37a10.21,10.21,0,0,1-2.27,6.44,10.37,10.37,0,0,1-6.18,3.76c3,.51,5.18,1.62,6.49,3.31a10.33,10.33,0,0,1,2,6.48v3.95a11.93,11.93,0,0,0,.47,3.51,5.52,5.52,0,0,0,1.57,2.54v.72h-1.53a7.67,7.67,0,0,1-1.55-2.93,13.49,13.49,0,0,1-.52-3.9V581.9a8.17,8.17,0,0,0-2.92-6.66q-2.93-2.38-8.34-2.39Zm0-1.55H266q6.42,0,9.46-2.71a9.46,9.46,0,0,0,0-13.93q-3.06-2.49-9.15-2.49h-12.1Z" class="cls-7"/><path data-cppathid="10039" transform="translate(-0.05 -0.81)" d="M321.73,574.7q0,8.49-4.21,13.46t-11.58,5q-7.4,0-11.62-5T290.1,574.7v-6.29q0-8.46,4.19-13.45t11.6-5q7.37,0,11.61,5t4.23,13.45Zm-1.56-6.34q0-7.73-3.71-12.28t-10.57-4.55q-6.84,0-10.52,4.55t-3.69,12.28v6.34q0,7.77,3.7,12.33t10.56,4.55q6.85,0,10.55-4.54t3.68-12.34Z" class="cls-7"/><path data-cppathid="10040" transform="translate(-0.05 -0.81)" d="M359.33,579.68l.05.17q.12,6.45-3.9,9.87t-10.59,3.41a13.5,13.5,0,0,1-11-5.08q-4.16-5.09-4.15-13.35v-6.29q0-8.24,4.15-13.33a13.49,13.49,0,0,1,11-5.1q6.57,0,10.59,3.43t3.9,9.79l-.05.17H358q0-5.67-3.53-8.75t-9.58-3.09a12.09,12.09,0,0,0-9.88,4.64q-3.75,4.64-3.74,12.19v6.34q0,7.62,3.74,12.25a12.08,12.08,0,0,0,9.88,4.63q6.06,0,9.58-3t3.53-8.93Z" class="cls-7"/><path data-cppathid="10041" transform="translate(-0.05 -0.81)" d="M391.27,571.44H371.11V591h23.1v1.56H369.55V550.58h24.66v1.56h-23.1v17.74h20.16Z" class="cls-7"/><path data-cppathid="10042" transform="translate(-0.05 -0.81)" d="M426.85,582.65a6.91,6.91,0,0,0-3-5.81q-3-2.21-10.07-4.54-7.08-2.16-10.44-4.58a8.26,8.26,0,0,1-3.36-7.17A9.1,9.1,0,0,1,404,552.9,16.3,16.3,0,0,1,414,550q6.27,0,10.09,3.22t3.71,9l-.06.17h-1.33a10,10,0,0,0-3.45-7.77,13,13,0,0,0-9-3.09c-3.79,0-6.79.89-9,2.67a7.86,7.86,0,0,0-3.34,6.29,7.33,7.33,0,0,0,2.69,5.89q2.7,2.26,10,4.43A40.6,40.6,0,0,1,425,575.47a8.14,8.14,0,0,1,3.49,7.12,8.93,8.93,0,0,1-4.12,7.66,17.33,17.33,0,0,1-10.17,2.88,19.48,19.48,0,0,1-10.86-3q-4.56-3-4.41-9.29l.06-.17h1.29q0,5.7,4.21,8.28a18.18,18.18,0,0,0,9.71,2.58,15.36,15.36,0,0,0,9.1-2.55A7.59,7.59,0,0,0,426.85,582.65Z" class="cls-7"/><path data-cppathid="10043" transform="translate(-0.05 -0.81)" d="M467,574.7q0,8.49-4.2,13.46t-11.58,5q-7.41,0-11.63-5t-4.22-13.46v-6.29q0-8.46,4.19-13.45t11.6-5q7.36,0,11.61,5T467,568.41Zm-1.55-6.34q0-7.73-3.72-12.28t-10.57-4.55q-6.82,0-10.52,4.55T437,568.36v6.34q0,7.77,3.7,12.33c2.47,3,6,4.55,10.56,4.55s8.08-1.51,10.54-4.54,3.69-7.14,3.69-12.34Z" class="cls-7"/><path data-cppathid="10044" transform="translate(-0.05 -0.81)" d="M501.38,582.65a6.91,6.91,0,0,0-2.95-5.81q-3-2.21-10.07-4.54c-4.72-1.44-8.21-3-10.44-4.58a8.26,8.26,0,0,1-3.36-7.17,9.1,9.1,0,0,1,3.93-7.65,16.28,16.28,0,0,1,10-2.92q6.27,0,10.09,3.22t3.7,9l0,.17h-1.33a9.94,9.94,0,0,0-3.46-7.77,12.92,12.92,0,0,0-8.95-3.09c-3.79,0-6.79.89-9,2.67a7.86,7.86,0,0,0-3.34,6.29,7.3,7.3,0,0,0,2.69,5.89q2.69,2.26,10,4.43a40.6,40.6,0,0,1,10.63,4.66,8.14,8.14,0,0,1,3.49,7.12,8.93,8.93,0,0,1-4.12,7.66,17.33,17.33,0,0,1-10.17,2.88,19.48,19.48,0,0,1-10.86-3q-4.56-3-4.41-9.29l.06-.17h1.29q0,5.7,4.21,8.28a18.18,18.18,0,0,0,9.71,2.58,15.36,15.36,0,0,0,9.1-2.55A7.59,7.59,0,0,0,501.38,582.65Z" class="cls-7"/><path data-cppathid="10045" transform="translate(-0.05 -0.81)" d="M146.64,657.29q-8.56,0-13.39-5.4t-4.82-14v-1.44q0-8.6,4.82-14.18a15.59,15.59,0,0,1,12.45-5.55q7.88,0,11.92,4.86t4,13v4.73H137.5l-.08.18a12.84,12.84,0,0,0,2.53,7.81q2.38,3,7.19,3a19.74,19.74,0,0,0,6.2-.87,17.74,17.74,0,0,0,4.86-2.49l2.86,5.74a18.66,18.66,0,0,1-5.93,3.29A24.88,24.88,0,0,1,146.64,657.29Zm-.94-33.53a6.77,6.77,0,0,0-5.49,2.47,12.24,12.24,0,0,0-2.57,6.45l.07.18H153v-.69a9.9,9.9,0,0,0-1.75-6.08C150.08,624.53,148.23,623.76,145.7,623.76Z" class="cls-8"/><path data-cppathid="10046" transform="translate(-0.05 -0.81)" d="M190.76,645.83a4.06,4.06,0,0,0-1.72-3.34c-1.14-.88-3.31-1.67-6.49-2.37q-6.9-1.41-10.55-4.15a8.76,8.76,0,0,1-3.65-7.37,10.61,10.61,0,0,1,4.16-8.4q4.16-3.5,11-3.49,7,0,11.29,3.6a10.42,10.42,0,0,1,4.1,8.65l-.07.22h-8.42a5.5,5.5,0,0,0-1.88-4.14,7.06,7.06,0,0,0-5-1.75,7.17,7.17,0,0,0-4.84,1.44,4.52,4.52,0,0,0-1.67,3.54,3.79,3.79,0,0,0,1.56,3.18q1.55,1.2,6.39,2.13,7.2,1.45,10.84,4.25a9,9,0,0,1,3.65,7.5,10.38,10.38,0,0,1-4.35,8.61q-4.35,3.34-11.47,3.35-7.63,0-12-3.91t-4.19-9l.07-.21h8.17a5.88,5.88,0,0,0,2.46,4.95,9.91,9.91,0,0,0,5.63,1.55,8.82,8.82,0,0,0,5.23-1.34A4.15,4.15,0,0,0,190.76,645.83Z" class="cls-8"/><path data-cppathid="10047" transform="translate(-0.05 -0.81)" d="M241.52,638.28q0,8.54-4,13.77a13.26,13.26,0,0,1-11.16,5.24,13.74,13.74,0,0,1-5.89-1.2,12.09,12.09,0,0,1-4.41-3.5v19h-8.78V617.43h7.41l.86,4.92a13.22,13.22,0,0,1,4.54-4.2,12.71,12.71,0,0,1,6.16-1.44,13,13,0,0,1,11.25,5.73q4,5.71,4,15.08Zm-8.74-.76a19,19,0,0,0-2.26-9.81,7.35,7.35,0,0,0-6.74-3.81,8.25,8.25,0,0,0-7.73,4.44V646a8.05,8.05,0,0,0,3.07,3.16,9.33,9.33,0,0,0,4.73,1.11,7.55,7.55,0,0,0,6.71-3.31,15.32,15.32,0,0,0,2.22-8.69Z" class="cls-8"/><path data-cppathid="10048" transform="translate(-0.05 -0.81)" d="M265.77,657.29q-8.56,0-13.39-5.4t-4.82-14v-1.44q0-8.6,4.82-14.18a15.59,15.59,0,0,1,12.45-5.55q7.88,0,11.92,4.86t4.05,13v4.73H256.63l-.08.18a12.84,12.84,0,0,0,2.53,7.81q2.39,3,7.19,3a19.74,19.74,0,0,0,6.2-.87,17.74,17.74,0,0,0,4.86-2.49l2.86,5.74a18.66,18.66,0,0,1-5.93,3.29A24.88,24.88,0,0,1,265.77,657.29Zm-.94-33.53a6.77,6.77,0,0,0-5.49,2.47,12.24,12.24,0,0,0-2.57,6.45l.07.18h15.29v-.69a9.84,9.84,0,0,0-1.76-6.08C269.21,624.53,267.36,623.76,264.83,623.76Z" class="cls-8"/><path data-cppathid="10049" transform="translate(-0.05 -0.81)" d="M303.85,650.28a7.32,7.32,0,0,0,5.08-1.88,6.16,6.16,0,0,0,2.08-4.77H319l.07.22a11.8,11.8,0,0,1-4.36,9.46,15.78,15.78,0,0,1-10.82,4q-8.44,0-13-5.59t-4.59-14.07v-1.26q0-8.46,4.59-14.06t13-5.6a15.34,15.34,0,0,1,11.09,4.1A13.41,13.41,0,0,1,319,631.23l-.07.22H311a7.94,7.94,0,0,0-2-5.45,6.61,6.61,0,0,0-5.2-2.24q-4.71,0-6.76,3.63a18,18,0,0,0-2.06,9v1.26a18.14,18.14,0,0,0,2,9Q299.08,650.28,303.85,650.28Z" class="cls-8"/><path data-cppathid="10050" transform="translate(-0.05 -0.81)" d="M335.72,656.53h-8.78v-39.1h8.78Zm-1.59-55h9.94l.07.22-9.86,9.4h-7Z" class="cls-8"/><path data-cppathid="10051" transform="translate(-0.05 -0.81)" d="M348,656.53V623.94h-6v-6.51h6v-3.32q0-7.05,4.16-10.88t11.63-3.83A24.36,24.36,0,0,1,369,600c1.71.38,3.67.91,5.89,1.61l-1.34,7.26a43.08,43.08,0,0,0-4.41-1.24,21,21,0,0,0-4.69-.49q-3.94,0-5.78,1.75a6.93,6.93,0,0,0-1.85,5.26v3.32h7.7v6.51h-7.7v32.59Zm31,0h-8.78v-39.1H379Z" class="cls-8"/><path data-cppathid="10052" transform="translate(-0.05 -0.81)" d="M404.84,650.28a7.31,7.31,0,0,0,5.08-1.88,6.13,6.13,0,0,0,2.08-4.77H420l.07.22a11.77,11.77,0,0,1-4.36,9.46,15.76,15.76,0,0,1-10.82,4q-8.44,0-13-5.59t-4.59-14.07v-1.26q0-8.46,4.59-14.06t13-5.6a15.34,15.34,0,0,1,11.09,4.1A13.38,13.38,0,0,1,420,631.23l-.07.22H412a7.94,7.94,0,0,0-2-5.45,6.59,6.59,0,0,0-5.2-2.24c-3.13,0-5.39,1.21-6.76,3.63a18,18,0,0,0-2.06,9v1.26a18.14,18.14,0,0,0,2,9Q400.07,650.28,404.84,650.28Z" class="cls-8"/><path data-cppathid="10053" transform="translate(-0.05 -0.81)" d="M425.77,636.62q0-8.75,4.78-14.33t13.1-5.58q8.42,0,13.21,5.58t4.78,14.33v.76q0,8.82-4.78,14.36t-13.14,5.55q-8.39,0-13.17-5.57t-4.78-14.34Zm8.78.76a17.26,17.26,0,0,0,2.24,9.32,8.45,8.45,0,0,0,13.82,0,17,17,0,0,0,2.29-9.3v-.76a17,17,0,0,0-2.29-9.23,7.68,7.68,0,0,0-7-3.63,7.53,7.53,0,0,0-6.85,3.63,17.27,17.27,0,0,0-2.25,9.23Z" class="cls-8"/><path data-cppathid="10054" transform="translate(-0.05 -0.81)" d="M491.27,645.83a4,4,0,0,0-1.71-3.34q-1.72-1.32-6.49-2.37-6.9-1.41-10.55-4.15a8.76,8.76,0,0,1-3.65-7.37,10.61,10.61,0,0,1,4.16-8.4q4.16-3.5,11-3.49,7,0,11.29,3.6a10.42,10.42,0,0,1,4.1,8.65l-.07.22h-8.42A5.5,5.5,0,0,0,489,625a7.07,7.07,0,0,0-5-1.75,7.2,7.2,0,0,0-4.85,1.44,4.51,4.51,0,0,0-1.66,3.54,3.81,3.81,0,0,0,1.55,3.18q1.56,1.2,6.4,2.13,7.18,1.45,10.84,4.25a9,9,0,0,1,3.65,7.5,10.38,10.38,0,0,1-4.35,8.61q-4.37,3.34-11.48,3.35-7.62,0-12-3.91t-4.19-9l.07-.21h8.17a5.83,5.83,0,0,0,2.46,4.95,9.91,9.91,0,0,0,5.63,1.55,8.76,8.76,0,0,0,5.22-1.34A4.15,4.15,0,0,0,491.27,645.83Z" class="cls-8"/></g></svg>