<?xml version="1.0" encoding="UTF-8"?>
<svg xmlns="http://www.w3.org/2000/svg" onmouseup="{ if(window.parent.document.onmouseup) window.parent.document.onmouseup(arguments[0]);}" viewBox="0 0 618.84 856.15"><defs><style>.cls-1{fill:#4c4c4c;}.cls-2{fill:#343e48;stroke:#00ffd3;stroke-miterlimit:10;stroke-width:10px;}.cls-3{fill:#fda800;}.cls-4{fill:#303030;}.cls-5{fill:#fff;}.cls-6{fill:#fa0;}.cls-7{fill:#00ffd3;}.cls-8{fill:#e6550e;}</style></defs><g id="SD"><path data-cppathid="10000" transform="translate(-0.05 -0.81)" d="M578.69,857H39.07c-.18-.79-.86-.69-1.43-.81C18.16,852.1,6,840.39,1,821.17c-.17-.65,0-1.52-.95-1.76V386.56c4.13.8,8.32,0,12.43.43,3.42.38,4-1,4-4.09q-.15-71.34-.07-142.69c0-9.93-.11-19.86.07-29.79,0-2.84-.84-3.53-3.53-3.41-4.28.19-8.57,0-12.86-.06V25.12c1.24-.87,1.09-2.34,1.49-3.55C5.29,10.09,16.07,1.24,28.08,1,44.26.61,60.45,1,76.64,1V30.24q0,54.24-.08,108.46c0,2.64.53,3.57,3.39,3.54q21.33-.24,42.65,0c2.86,0,3.4-.9,3.39-3.54q-.13-54.22-.08-108.46V1h14.78q0,14.68.05,29.35,0,54.09,0,108.19c0,2.85.7,3.75,3.66,3.72,13.86-.16,27.72-.19,41.58,0,3.48.06,4.53-.74,4.52-4.38-.15-34.59-.09-69.18-.1-103.78,0-1.33.25-2.7-.39-4L190,1h15.51l0,29.2q-.06,54.64-.16,109.29c0,2.46,1.07,2.74,3.09,2.73,14-.06,28-.17,41.95.06,3.63.06,4.42-1,4.41-4.48-.12-35.82,0-71.63,0-107.45q0-14.67.05-29.35h14.78V30.24q0,54.24-.08,108.46c0,2.64.53,3.57,3.39,3.54q21.33-.24,42.65,0c2.86,0,3.4-.9,3.39-3.54q-.14-54.22-.08-108.46V1H334.3l0,29.13a21.85,21.85,0,0,0-.38,2.88c0,35.28,0,70.57-.08,105.86,0,2.9,1,3.39,3.62,3.37,13.85-.11,27.7-.2,41.54.05,3.68.06,4.39-1.09,4.37-4.52-.12-34.55-.07-69.11-.08-103.66,0-1.33.25-2.7-.39-4l0-29.13h15.51l0,29.2q-.06,54.64-.16,109.29c0,2.46,1.07,2.74,3.09,2.73,14-.06,28-.17,41.95.06,3.63.06,4.42-1,4.41-4.48-.12-35.82-.05-71.63,0-107.45q0-14.67.05-29.35H462.4V30.25q0,54.23-.08,108.45c0,2.64.53,3.57,3.39,3.54q21.33-.24,42.65,0c2.86,0,3.4-.9,3.39-3.54q-.13-54.22-.08-108.45V1.69C517.33,2.76,522.41,5,526.53,9.1q0,37,0,73.92c.06,1.47.18,2.94.18,4.4,0,34.35.06,68.71-.08,103.06,0,3.62,1,4.49,4.54,4.44q20.24-.3,40.48,0c3.5.05,4.56-.82,4.54-4.45-.14-34.35-.09-68.7-.07-103,0-1.46.11-2.93.17-4.4q.07-11.59.13-23.19c1.26.11,1.77,1.22,2.5,2,9.21,9.35,18.17,18.94,27.63,28,8.61,8.27,12.39,18,12.3,29.89-.23,29.93-.07,59.85-.07,89.78,0,15.45-.1,30.9.07,46.35,0,3.15-.93,3.93-3.93,3.81-6-.22-12,0-18-.11-2.31-.06-2.86.7-2.84,2.92.1,13.86.12,27.72,0,41.57,0,2.6.95,3,3.19,3,5.64-.13,11.28-.07,16.92,0,5.16,0,4.61-.74,4.61,4.77q0,204.75,0,409.5,0,44.7,0,89.4c0,21.49-12.81,38.65-32.85,44.47C583.54,855.79,580.92,855.61,578.69,857Z" class="cls-1"/><path data-cppathid="10001" transform="translate(-0.05 -0.81)" d="M55.88,504v235.9A66.32,66.32,0,0,0,101.3,802.6c11,3.67,22.19,3.45,33.48,3.45q180.9,0,361.8,0a66.63,66.63,0,0,0,66.53-66.48V267a48.74,48.74,0,0,0-49-49.12q-204.63,0-409.28,0c-27.46,0-48.93,21.63-48.93,49.09Z" class="cls-1"/><rect data-cppathid="10002" rx="55.23" height="575.3" width="494.44" y="223.55" x="61.69" class="cls-2"/><path data-cppathid="10003" transform="translate(-0.05 -0.81)" d="M576.33,83c-.06,1.47-.17,2.94-.17,4.4,0,34.35-.07,68.7.07,103.05,0,3.63-1,4.5-4.54,4.45q-20.24-.3-40.48,0c-3.5.05-4.56-.82-4.54-4.44.14-34.35.09-68.71.08-103.06,0-1.46-.12-2.93-.18-4.4,1.45-.12,2.9-.34,4.35-.34q18.69,0,37.39,0C571,82.7,573.69,82.29,576.33,83Z" class="cls-3"/><path data-cppathid="10004" transform="translate(-0.05 -0.81)" d="M190,30.11c.64,1.28.39,2.65.39,4,0,34.6,0,69.19.1,103.78,0,3.64-1,4.44-4.52,4.38-13.86-.2-27.72-.17-41.58,0-3,0-3.67-.87-3.66-3.72q.12-54.09,0-108.19Z" class="cls-3"/><path data-cppathid="10005" transform="translate(-0.05 -0.81)" d="M382.87,30.11c.64,1.28.39,2.65.39,4,0,34.55,0,69.11.08,103.66,0,3.43-.69,4.58-4.37,4.52-13.84-.25-27.69-.16-41.54-.05-2.59,0-3.63-.47-3.62-3.37.1-35.29.06-70.58.08-105.86a21.85,21.85,0,0,1,.38-2.88Z" class="cls-3"/><path data-cppathid="10006" transform="translate(-0.05 -0.81)" d="M125.91,30.24q0,54.24.08,108.46c0,2.64-.53,3.57-3.39,3.54q-21.33-.24-42.65,0c-2.86,0-3.4-.9-3.39-3.54q.14-54.22.08-108.45Z" class="cls-3"/><path data-cppathid="10007" transform="translate(-0.05 -0.81)" d="M254.69,30.33c0,35.82-.08,71.63,0,107.45,0,3.5-.78,4.54-4.41,4.48-14-.23-28-.12-41.95-.06-2,0-3.1-.27-3.09-2.73q.15-54.64.16-109.29Z" class="cls-3"/><path data-cppathid="10008" transform="translate(-0.05 -0.81)" d="M318.79,30.24q0,54.24.08,108.46c0,2.64-.53,3.57-3.39,3.54q-21.33-.24-42.65,0c-2.86,0-3.4-.9-3.39-3.54q.13-54.22.08-108.45Z" class="cls-3"/><path data-cppathid="10009" transform="translate(-0.05 -0.81)" d="M447.57,30.33c0,35.82-.08,71.63,0,107.45,0,3.5-.78,4.54-4.41,4.48-14-.23-28-.12-41.95-.06-2,0-3.1-.27-3.09-2.73q.15-54.64.16-109.29Z" class="cls-3"/><path data-cppathid="10010" transform="translate(-0.05 -0.81)" d="M511.67,30.25q0,54.23.08,108.45c0,2.64-.53,3.57-3.39,3.54q-21.33-.24-42.65,0c-2.86,0-3.4-.9-3.39-3.54q.14-54.22.08-108.45Z" class="cls-3"/><path data-cppathid="10011" transform="translate(-0.05 -0.81)" d="M576.33,83c-2.64-.73-5.35-.32-8-.34q-18.69-.08-37.39,0c-1.45,0-2.9.22-4.35.34q0-37,0-73.92c6.59,5.52,12.2,12,18.27,18.07,9.65,9.59,19.1,19.39,28.61,29.12,1.09,1.11,2,2.35,3.05,3.54Q576.4,71.43,576.33,83Z" class="cls-4"/><path data-cppathid="10012" transform="translate(-0.05 -0.81)" d="M125.91,30.24H76.64V1h49.27Z" class="cls-4"/><path data-cppathid="10013" transform="translate(-0.05 -0.81)" d="M190,30.11l-49.25.22q0-14.67-.05-29.35H190Z" class="cls-4"/><path data-cppathid="10014" transform="translate(-0.05 -0.81)" d="M254.69,30.33l-49.25-.15,0-29.2h49.27Q254.72,15.67,254.69,30.33Z" class="cls-4"/><path data-cppathid="10015" transform="translate(-0.05 -0.81)" d="M318.79,30.24H269.52V1h49.27Z" class="cls-4"/><path data-cppathid="10016" transform="translate(-0.05 -0.81)" d="M447.57,30.33l-49.25-.15,0-29.2h49.27Q447.61,15.67,447.57,30.33Z" class="cls-4"/><path data-cppathid="10017" transform="translate(-0.05 -0.81)" d="M511.67,30.25H462.4V1C477,1,491.64.89,506.26.92a37.09,37.09,0,0,1,5.41.77Z" class="cls-4"/><path data-cppathid="10018" transform="translate(-0.05 -0.81)" d="M382.87,30.11h-48.6L334.3,1h48.54Z" class="cls-4"/></g><g id="TXT"><path data-cppathid="10019" transform="translate(-0.05 -0.81)" d="M146.24,338.17l2.44,7H149l2.49-7,15.93-40.81h2.78L150,349.09l0,0h-2.49l-20.09-51.77h2.77Z" class="cls-5"/><path data-cppathid="10020" transform="translate(-0.05 -0.81)" d="M212.23,339.56a20.17,20.17,0,0,1-8,7.63,26.11,26.11,0,0,1-12.87,2.95q-7.23,0-11.34-3.95t-4.12-10.65q0-6.5,6.15-10.91t15.38-4.4h14.79v-7.56q0-6.46-4.14-10.07T196.44,299q-7,0-11.32,3.4a10.71,10.71,0,0,0-4.28,8.76l-2.15-.1-.1-.24a12.05,12.05,0,0,1,4.69-10.21q5-4.18,13.16-4.19t13.35,4.21q5,4.22,5,12.16V338.7a43.78,43.78,0,0,0,.32,5.31,33.38,33.38,0,0,0,1,5.12h-2.87c-.41-2.26-.69-4-.83-5.09a28.13,28.13,0,0,1-.22-3.66Zm-20.86,8a23.77,23.77,0,0,0,13-3.4,19.72,19.72,0,0,0,7.82-9.71V322.86H197.59A23.84,23.84,0,0,0,184,326.57q-5.52,3.71-5.52,9.16a11.26,11.26,0,0,0,3.51,8.55A13.11,13.11,0,0,0,191.37,347.6Z" class="cls-5"/><path data-cppathid="10021" transform="translate(-0.05 -0.81)" d="M254.29,299.22l-3.35-.28a15,15,0,0,0-11.27,4.47,22,22,0,0,0-5.62,11.8v33.92h-2.58V297.36h2.1l.48,9v1.77a18.65,18.65,0,0,1,6.41-8.63,17.39,17.39,0,0,1,10.48-3.09,11.77,11.77,0,0,1,2,.17,15.7,15.7,0,0,1,1.6.36Z" class="cls-5"/><path data-cppathid="10022" transform="translate(-0.05 -0.81)" d="M267.45,281.09h-2.58v-6.61h2.58Zm0,68h-2.58V297.36h2.58Z" class="cls-5"/><path data-cppathid="10023" transform="translate(-0.05 -0.81)" d="M316.93,339.56a20.17,20.17,0,0,1-8,7.63,26.11,26.11,0,0,1-12.87,2.95q-7.23,0-11.34-3.95t-4.12-10.65q0-6.5,6.15-10.91t15.38-4.4h14.79v-7.56q0-6.46-4.14-10.07T301.14,299q-7,0-11.32,3.4a10.71,10.71,0,0,0-4.28,8.76l-2.15-.1-.1-.24A12.05,12.05,0,0,1,288,300.59q5-4.18,13.16-4.19t13.35,4.21q5,4.22,5,12.16V338.7a43.78,43.78,0,0,0,.32,5.31,33.38,33.38,0,0,0,1,5.12H318c-.41-2.26-.69-4-.83-5.09a28.13,28.13,0,0,1-.22-3.66Zm-20.86,8a23.77,23.77,0,0,0,13-3.4,19.72,19.72,0,0,0,7.82-9.71V322.86H302.29a23.84,23.84,0,0,0-13.57,3.71q-5.52,3.71-5.53,9.16a11.27,11.27,0,0,0,3.52,8.55A13.09,13.09,0,0,0,296.07,347.6Z" class="cls-5"/><path data-cppathid="10024" transform="translate(-0.05 -0.81)" d="M375.74,324.2q0,12-5.17,18.95a16.75,16.75,0,0,1-14.26,7,22.09,22.09,0,0,1-10.6-2.44,18.4,18.4,0,0,1-7.06-6.56l-.33,8h-2.15V335c0-.1-.06-.18-.08-.24a1.37,1.37,0,0,1,0-.19V313.41a2.5,2.5,0,0,1,.1-.31V274.48h2.58v32a19.37,19.37,0,0,1,7-7.37,19.7,19.7,0,0,1,10.48-2.68,16.67,16.67,0,0,1,14.33,7.25q5.19,7.25,5.19,19.55Zm-2.68-1q0-10.77-4.31-17.49A13.94,13.94,0,0,0,356.26,299q-7.36,0-11.5,3.69a21.22,21.22,0,0,0-6,9.09v24.79a16.81,16.81,0,0,0,6.41,8,19.61,19.61,0,0,0,11.2,3q8.17,0,12.44-6.31t4.26-17Z" class="cls-5"/><path data-cppathid="10025" transform="translate(-0.05 -0.81)" d="M393,349.13h-2.58V274.48H393Z" class="cls-5"/><path data-cppathid="10026" transform="translate(-0.05 -0.81)" d="M428.14,350.14a19.87,19.87,0,0,1-15.44-7.08q-6.29-7.08-6.29-17.85v-3.07q0-11.24,6.25-18.49a19.87,19.87,0,0,1,15.72-7.25q8.61,0,13.73,5.67t5.12,15.48v4H409v3.69q0,9.46,5.36,15.91a17.1,17.1,0,0,0,13.78,6.43,23.64,23.64,0,0,0,8.92-1.72,19,19,0,0,0,7-4.59l1.39,2a20.84,20.84,0,0,1-7,4.95A24.85,24.85,0,0,1,428.14,350.14Zm.24-51.16a17.14,17.14,0,0,0-13.19,5.58,22.74,22.74,0,0,0-5.81,14.09l.14.29h35.13v-1.58q0-8-4.36-13.18T428.38,299Z" class="cls-5"/><path data-cppathid="10027" transform="translate(-0.05 -0.81)" d="M491.44,336.45a10.22,10.22,0,0,0-3.51-7.49q-3.53-3.37-12.28-5.28-9.22-2-13.37-5.05t-4.14-9.17a11.46,11.46,0,0,1,4.69-9.3q4.69-3.77,12.63-3.76,8.57,0,13.5,4a12.26,12.26,0,0,1,4.69,10.48l-.1.29h-2.2a10.89,10.89,0,0,0-4.28-8.64Q482.78,299,475.46,299t-11,3.14a9.28,9.28,0,0,0-3.74,7.25,9.08,9.08,0,0,0,3.16,6.94q3.17,2.87,12.54,5,8.65,2,13.14,5.48A11.56,11.56,0,0,1,494,336.5a11.82,11.82,0,0,1-5,9.86q-5,3.78-13.2,3.78-9,0-14.19-4.05t-4.81-9.83l.09-.29h2.11q.38,6.13,5.26,8.86a23.39,23.39,0,0,0,11.54,2.72q7.17,0,11.38-3.35T491.44,336.45Z" class="cls-5"/><path data-cppathid="10028" transform="translate(-0.05 -0.81)" d="M177.51,417.66l.08.25q.18,9.9-6,15.51T154.44,439q-11.13,0-18-7.16t-6.84-18.5V401.09q0-11.29,6.67-18.5t17.51-7.2q11.3,0,17.67,5.52t6.2,15.55l-.09.25H165.53q0-5.94-2.87-8.85T153.81,385a10,10,0,0,0-8.69,4.48Q142,393.92,142,401v12.36c0,4.75,1.09,8.64,3.29,11.64a10.69,10.69,0,0,0,9.15,4.5q5.56,0,8.31-2.91c1.82-1.94,2.74-4.92,2.74-8.94Z" class="cls-6"/><path data-cppathid="10029" transform="translate(-0.05 -0.81)" d="M198.88,413.41v24.72H186.47V376.28h21.41q10.58,0,16.55,4.82t6,13.45a13.6,13.6,0,0,1-2.53,8.22,17.55,17.55,0,0,1-7.37,5.58q5.48,1.62,7.88,5.4a17.08,17.08,0,0,1,2.4,9.34v4.55a22.4,22.4,0,0,0,.7,5.42,7.49,7.49,0,0,0,2.4,4.18v.89H221.09a6.82,6.82,0,0,1-2.18-4.5,39.05,39.05,0,0,1-.49-6.07v-4.38q0-4.64-2.53-7.2t-7.16-2.57Zm0-9.56h8.79c3.48,0,6.08-.74,7.77-2.21S218,398,218,395.1a9,9,0,0,0-2.57-6.75c-1.71-1.68-4.22-2.51-7.54-2.51h-9Z" class="cls-6"/><path data-cppathid="10030" transform="translate(-0.05 -0.81)" d="M255.16,438.13h-12.4V376.28h12.4Zm-3.73-79.27h13.8l.09.26-11.77,11H243Z" class="cls-6"/><path data-cppathid="10031" transform="translate(-0.05 -0.81)" d="M309.33,385.84H291.65v52.29h-12.4V385.84H261.83v-9.56h47.5Z" class="cls-6"/><path data-cppathid="10032" transform="translate(-0.05 -0.81)" d="M329.38,438.13H317V376.28h12.41Z" class="cls-6"/><path data-cppathid="10033" transform="translate(-0.05 -0.81)" d="M388,417.66l.09.25q.17,9.9-6,15.51T365,439q-11.13,0-18-7.16t-6.84-18.5V401.09q0-11.29,6.67-18.5t17.5-7.2q11.3,0,17.67,5.52t6.2,15.55l-.08.25H376.06q0-5.94-2.86-8.85T364.34,385a10,10,0,0,0-8.69,4.48q-3.12,4.49-3.12,11.58v12.36c0,4.75,1.1,8.64,3.29,11.64a10.72,10.72,0,0,0,9.16,4.5c3.71,0,6.47-1,8.3-2.91s2.74-4.92,2.74-8.94Z" class="cls-6"/><path data-cppathid="10034" transform="translate(-0.05 -0.81)" d="M429.25,424.79H409.2L405,438.13H392.08l20.86-61.85h12.7l20.77,61.85h-13Zm-17-9.72h14l-6.84-21.8h-.25Z" class="cls-6"/><path data-cppathid="10035" transform="translate(-0.05 -0.81)" d="M484.6,422a7.23,7.23,0,0,0-2.48-5.73q-2.49-2.17-8.73-4.08-10.71-3.23-16.25-7.61a14.36,14.36,0,0,1-5.55-11.93,15,15,0,0,1,6.25-12.43q6.24-4.81,15.93-4.82,10.28,0,16.54,5.18a16.23,16.23,0,0,1,6.06,13.6l-.09.25h-12q0-4.64-2.8-7.12t-7.86-2.48c-3.06,0-5.42.74-7.1,2.21a7.18,7.18,0,0,0-2.5,5.65,6.14,6.14,0,0,0,2.72,5.16q2.71,2,9.39,4.27,10.18,2.89,15.54,7.54A15.45,15.45,0,0,1,497,421.91a14.75,14.75,0,0,1-6.21,12.53Q484.61,439,474.41,439a29.24,29.24,0,0,1-17.14-5q-7.17-5-6.95-14.82l.08-.26h12q0,5.49,3.22,8.08c2.16,1.72,5.07,2.59,8.76,2.59,3.31,0,5.84-.7,7.58-2.08A6.77,6.77,0,0,0,484.6,422Z" class="cls-6"/><path data-cppathid="10036" transform="translate(-0.05 -0.81)" d="M127.82,474.41q0-6.36,2.72-10.28a8.78,8.78,0,0,1,7.63-3.9,9.34,9.34,0,0,1,4.23.91,8.78,8.78,0,0,1,3.12,2.65l.68-3.07h3.69v36.57h-4.81V484.64a8.3,8.3,0,0,1-3,2.25,9.92,9.92,0,0,1-4,.76,9,9,0,0,1-7.56-3.51,14.51,14.51,0,0,1-2.74-9.21Zm4.81.52a11.49,11.49,0,0,0,1.65,6.48,5.67,5.67,0,0,0,5.06,2.48,6.33,6.33,0,0,0,3.39-.88,7.25,7.25,0,0,0,2.35-2.47V467.21a7.29,7.29,0,0,0-2.35-2.34,6.31,6.31,0,0,0-3.34-.86,5.5,5.5,0,0,0-5.1,2.92,15,15,0,0,0-1.66,7.48Z" class="cls-7"/><path data-cppathid="10037" transform="translate(-0.05 -0.81)" d="M174.11,483.23a9,9,0,0,1-3.2,3.27,8.8,8.8,0,0,1-4.52,1.15,8.47,8.47,0,0,1-6.73-2.76q-2.41-2.76-2.42-8.6V460.72h4.81v15.62c0,2.82.41,4.75,1.24,5.81a4.64,4.64,0,0,0,3.89,1.59,7.89,7.89,0,0,0,4.23-1,6.45,6.45,0,0,0,2.53-2.94v-19h4.81v26.41h-4.32Z" class="cls-7"/><path data-cppathid="10038" transform="translate(-0.05 -0.81)" d="M196.69,487.65q-5.69,0-8.87-3.64a14,14,0,0,1-3.19-9.57v-1.08a13.7,13.7,0,0,1,3.29-9.41,10.28,10.28,0,0,1,8-3.72q5.3,0,7.94,3.29a13.57,13.57,0,0,1,2.65,8.77v2.54H189.64l-.08.12a10.94,10.94,0,0,0,1.76,6.46,6.14,6.14,0,0,0,5.37,2.48,12.21,12.21,0,0,0,4.29-.7,9.4,9.4,0,0,0,3.16-1.92L206,484.4a11.7,11.7,0,0,1-3.74,2.31A15,15,0,0,1,196.69,487.65ZM195.94,464a5.25,5.25,0,0,0-4.17,1.94,9.16,9.16,0,0,0-2,5l.05.12h11.91v-.39a7.73,7.73,0,0,0-1.41-4.76A5.13,5.13,0,0,0,195.94,464Z" class="cls-7"/><path data-cppathid="10039" transform="translate(-0.05 -0.81)" d="M228.65,460.72l.34,3.93a9.55,9.55,0,0,1,3.31-3.26,8.88,8.88,0,0,1,4.53-1.16,8.63,8.63,0,0,1,6.62,2.5q2.34,2.5,2.34,7.73v16.67H241V470.56q0-3.49-1.38-5a5.51,5.51,0,0,0-4.21-1.47,7.38,7.38,0,0,0-3.77.9,6.43,6.43,0,0,0-2.46,2.5v19.6h-4.81V460.72Z" class="cls-7"/><path data-cppathid="10040" transform="translate(-0.05 -0.81)" d="M251.65,473.68a14.55,14.55,0,0,1,3.17-9.65,10.63,10.63,0,0,1,8.62-3.8,10.75,10.75,0,0,1,8.68,3.78,14.54,14.54,0,0,1,3.19,9.67v.54a14.46,14.46,0,0,1-3.18,9.67,11.81,11.81,0,0,1-17.3,0,14.45,14.45,0,0,1-3.18-9.65Zm4.81.54a12.51,12.51,0,0,0,1.77,6.93,6.38,6.38,0,0,0,10.48,0,12.43,12.43,0,0,0,1.79-6.93v-.54a12.39,12.39,0,0,0-1.8-6.91,5.87,5.87,0,0,0-5.26-2.76,5.8,5.8,0,0,0-5.21,2.76,12.55,12.55,0,0,0-1.77,6.91Z" class="cls-7"/><path data-cppathid="10041" transform="translate(-0.05 -0.81)" d="M298.82,454H294v-4.9h4.81Zm0,33.18H294V460.72h4.81Z" class="cls-7"/><path data-cppathid="10042" transform="translate(-0.05 -0.81)" d="M310.51,460.72l.34,3.46a9,9,0,0,1,3.29-2.91,9.75,9.75,0,0,1,4.62-1,8.2,8.2,0,0,1,4.53,1.22,7.4,7.4,0,0,1,2.85,3.66,9.91,9.91,0,0,1,3.3-3.58,8.67,8.67,0,0,1,4.78-1.3,7.9,7.9,0,0,1,6.37,2.77q2.34,2.78,2.34,8.34v15.79h-4.81V471.29c0-2.61-.44-4.45-1.34-5.53a4.9,4.9,0,0,0-4-1.63,5.07,5.07,0,0,0-4,1.71,7.44,7.44,0,0,0-1.8,4.33v17h-4.83V471.29q0-3.72-1.38-5.43a4.79,4.79,0,0,0-4-1.73,6.62,6.62,0,0,0-3.61.91,5.84,5.84,0,0,0-2.18,2.54v19.55h-4.81V460.72Z" class="cls-7"/><path data-cppathid="10043" transform="translate(-0.05 -0.81)" d="M372.43,474.93a14.57,14.57,0,0,1-2.74,9.21,9,9,0,0,1-7.54,3.51,10.59,10.59,0,0,1-4.29-.82,8.21,8.21,0,0,1-3.13-2.46v12.92h-4.81V460.72h3.68l.76,3.41a8.83,8.83,0,0,1,3.22-2.9,9.59,9.59,0,0,1,4.49-1,8.77,8.77,0,0,1,7.63,3.89q2.73,3.9,2.73,10.29Zm-4.81-.52a14,14,0,0,0-1.77-7.38,5.75,5.75,0,0,0-5.22-2.9,6.49,6.49,0,0,0-3.54.94,7.09,7.09,0,0,0-2.36,2.58v12.77a6.84,6.84,0,0,0,2.36,2.55,6.67,6.67,0,0,0,3.59.92,5.93,5.93,0,0,0,5.18-2.51,11,11,0,0,0,1.76-6.45Z" class="cls-7"/><path data-cppathid="10044" transform="translate(-0.05 -0.81)" d="M394.57,487.13c-.16-.79-.29-1.5-.38-2.11a16.12,16.12,0,0,1-.16-1.84,11.07,11.07,0,0,1-3.5,3.18,8.91,8.91,0,0,1-4.65,1.29q-4.12,0-6.29-2.12a7.74,7.74,0,0,1-2.16-5.82,6.82,6.82,0,0,1,3.06-5.92,14.38,14.38,0,0,1,8.32-2.14H394V469a4.85,4.85,0,0,0-1.41-3.67,5.55,5.55,0,0,0-4-1.36,5.81,5.81,0,0,0-3.78,1.17,3.53,3.53,0,0,0-1.44,2.81l-4.57.05-.05-.15c-.11-1.92.79-3.67,2.7-5.27a11.2,11.2,0,0,1,7.41-2.39,10.93,10.93,0,0,1,7.23,2.28,8.1,8.1,0,0,1,2.73,6.58v12.72a24,24,0,0,0,.15,2.73,13.4,13.4,0,0,0,.54,2.59Zm-8-3.51a8.52,8.52,0,0,0,4.71-1.35A6.34,6.34,0,0,0,394,479.2v-4.3h-5.39a7,7,0,0,0-4.65,1.47,4.35,4.35,0,0,0-1.75,3.44,3.62,3.62,0,0,0,1.1,2.78A4.56,4.56,0,0,0,386.59,483.62Z" class="cls-7"/><path data-cppathid="10045" transform="translate(-0.05 -0.81)" d="M416.32,483.89a5.67,5.67,0,0,0,3.88-1.48,4.66,4.66,0,0,0,1.66-3.63h4.35l.07.15a7.58,7.58,0,0,1-2.93,6.07,11.18,11.18,0,0,1-15.62-1.14,14.58,14.58,0,0,1-3-9.42v-1a14.51,14.51,0,0,1,3-9.38,10.35,10.35,0,0,1,8.58-3.8,10,10,0,0,1,7.24,2.73,8.66,8.66,0,0,1,2.72,6.72l0,.14h-4.37a5.82,5.82,0,0,0-1.57-4.11,5.19,5.19,0,0,0-4-1.7,5.55,5.55,0,0,0-5.16,2.75,12.88,12.88,0,0,0-1.63,6.65v1a13.15,13.15,0,0,0,1.6,6.71A5.57,5.57,0,0,0,416.32,483.89Z" class="cls-7"/><path data-cppathid="10046" transform="translate(-0.05 -0.81)" d="M438.69,454.34v6.38h5v3.56h-5v16a3.59,3.59,0,0,0,.76,2.61,2.79,2.79,0,0,0,2,.76,4.68,4.68,0,0,0,.93-.11,6.25,6.25,0,0,0,.85-.23l.66,3.29a4,4,0,0,1-1.58.72,7.9,7.9,0,0,1-2.08.29,6.22,6.22,0,0,1-4.66-1.77c-1.16-1.18-1.73-3-1.73-5.56v-16h-4.2v-3.56h4.2v-6.38Z" class="cls-7"/><path data-cppathid="10047" transform="translate(-0.05 -0.81)" d="M465.08,487.13c-.17-.79-.29-1.5-.38-2.11a16.12,16.12,0,0,1-.16-1.84,11.18,11.18,0,0,1-3.5,3.18,8.91,8.91,0,0,1-4.65,1.29c-2.76,0-4.85-.71-6.29-2.12a7.74,7.74,0,0,1-2.16-5.82,6.82,6.82,0,0,1,3.06-5.92,14.32,14.32,0,0,1,8.31-2.14h5.23V469a4.82,4.82,0,0,0-1.42-3.67,5.53,5.53,0,0,0-4-1.36,5.81,5.81,0,0,0-3.78,1.17,3.52,3.52,0,0,0-1.45,2.81l-4.56.05-.05-.15c-.11-1.92.79-3.67,2.7-5.27a11.2,11.2,0,0,1,7.41-2.39,10.9,10.9,0,0,1,7.22,2.28,8.07,8.07,0,0,1,2.74,6.58v12.72a24,24,0,0,0,.15,2.73,13.38,13.38,0,0,0,.53,2.59Zm-8-3.51a8.58,8.58,0,0,0,4.72-1.35,6.4,6.4,0,0,0,2.73-3.07v-4.3h-5.4a7,7,0,0,0-4.65,1.47,4.37,4.37,0,0,0-1.74,3.44,3.59,3.59,0,0,0,1.1,2.78A4.55,4.55,0,0,0,457.09,483.62Z" class="cls-7"/><path data-cppathid="10048" transform="translate(-0.05 -0.81)" d="M480.63,460.72l.34,3.93a9.55,9.55,0,0,1,3.31-3.26,8.83,8.83,0,0,1,4.53-1.16,8.61,8.61,0,0,1,6.61,2.5q2.35,2.5,2.35,7.73v16.67H493V470.56q0-3.49-1.38-5a5.52,5.52,0,0,0-4.21-1.47,7.45,7.45,0,0,0-3.78.9,6.4,6.4,0,0,0-2.45,2.5v19.6h-4.81V460.72Z" class="cls-7"/><path data-cppathid="10049" transform="translate(-0.05 -0.81)" d="M137,539.17a8.7,8.7,0,0,1-6.77-3.1,11.4,11.4,0,0,1-2.77-7.84v-1.34a12,12,0,0,1,2.74-8.11,8.71,8.71,0,0,1,6.9-3.19,7.73,7.73,0,0,1,6,2.49,9.76,9.76,0,0,1,2.24,6.79v1.75H128.6v1.61a10.55,10.55,0,0,0,2.35,7A7.52,7.52,0,0,0,137,538a10.27,10.27,0,0,0,3.91-.76,8.33,8.33,0,0,0,3.06-2l.61.88a9.12,9.12,0,0,1-3.09,2.17A10.84,10.84,0,0,1,137,539.17Zm.1-22.44a7.5,7.5,0,0,0-5.78,2.44,10,10,0,0,0-2.55,6.19l.06.12h15.41v-.69a8.7,8.7,0,0,0-1.91-5.78A6.46,6.46,0,0,0,137.1,516.73Z" class="cls-5"/><path data-cppathid="10050" transform="translate(-0.05 -0.81)" d="M151.82,516l.15,4.58a8.3,8.3,0,0,1,3-3.68,8.53,8.53,0,0,1,4.85-1.32,6.67,6.67,0,0,1,5.58,2.35q1.85,2.34,1.85,7.42v13.37h-1.13V525.32q0-4.73-1.69-6.66a5.79,5.79,0,0,0-4.59-1.93,7,7,0,0,0-5.46,2.08,10.11,10.11,0,0,0-2.41,5.35v14.57h-1.14V527.1h-.06c0-.27,0-.53,0-.81s0-.55,0-.83V516Z" class="cls-5"/><path data-cppathid="10051" transform="translate(-0.05 -0.81)" d="M186.09,538.73H185V506h1.14Z" class="cls-5"/><path data-cppathid="10052" transform="translate(-0.05 -0.81)" d="M207.8,534.53a8.94,8.94,0,0,1-3.51,3.35,11.51,11.51,0,0,1-5.65,1.29,6.85,6.85,0,0,1-5-1.73,6.14,6.14,0,0,1-1.81-4.67,5.74,5.74,0,0,1,2.7-4.79,11.29,11.29,0,0,1,6.75-1.93h6.49v-3.32a5.57,5.57,0,0,0-1.82-4.42,7.57,7.57,0,0,0-5.11-1.58,7.78,7.78,0,0,0-5,1.49,4.68,4.68,0,0,0-1.88,3.84l-.94,0,0-.11a5.29,5.29,0,0,1,2.05-4.48,8.71,8.71,0,0,1,5.78-1.84,8.85,8.85,0,0,1,5.86,1.85,6.6,6.6,0,0,1,2.2,5.34v11.37a19.88,19.88,0,0,0,.14,2.34,14.57,14.57,0,0,0,.45,2.24h-1.26c-.18-1-.31-1.74-.37-2.23a13.58,13.58,0,0,1-.09-1.61Zm-9.16,3.53a10.47,10.47,0,0,0,5.72-1.49,8.69,8.69,0,0,0,3.44-4.26V527.2h-6.43a10.48,10.48,0,0,0-6,1.63,4.76,4.76,0,0,0-2.43,4,4.92,4.92,0,0,0,1.55,3.75A5.73,5.73,0,0,0,198.64,538.06Z" class="cls-5"/><path data-cppathid="10053" transform="translate(-0.05 -0.81)" d="M234.48,539.17a8.71,8.71,0,0,1-6.77-3.1,11.39,11.39,0,0,1-2.76-7.84v-1.34a12,12,0,0,1,2.74-8.11,8.71,8.71,0,0,1,6.9-3.19,7.71,7.71,0,0,1,6,2.49,9.76,9.76,0,0,1,2.25,6.79v1.75H226.08v1.61a10.56,10.56,0,0,0,2.36,7,7.5,7.5,0,0,0,6,2.82,10.32,10.32,0,0,0,3.92-.76,8.29,8.29,0,0,0,3-2l.61.88a9.17,9.17,0,0,1-3.08,2.17A10.85,10.85,0,0,1,234.48,539.17Zm.11-22.44a7.54,7.54,0,0,0-5.79,2.44,10.07,10.07,0,0,0-2.55,6.19l.06.12h15.42v-.69a8.65,8.65,0,0,0-1.92-5.78A6.44,6.44,0,0,0,234.59,516.73Z" class="cls-5"/><path data-cppathid="10054" transform="translate(-0.05 -0.81)" d="M250.06,538.73V517.17h-3.95V516h3.95V512.7a7.31,7.31,0,0,1,1.8-5.29,6.54,6.54,0,0,1,5-1.87,14.47,14.47,0,0,1,2.84.28,12.47,12.47,0,0,1,2.79.91l-.17,1.1a15,15,0,0,0-2.55-.89,13.08,13.08,0,0,0-2.89-.27,5.41,5.41,0,0,0-4.15,1.6,6.17,6.17,0,0,0-1.52,4.43V516h6v1.16h-6v21.56Zm13.23,0h-1.14V516h1.14Z" class="cls-5"/><path data-cppathid="10055" transform="translate(-0.05 -0.81)" d="M278.45,538a8.51,8.51,0,0,0,5.08-1.58,5.41,5.41,0,0,0,2.2-4.72h1l0,.13a6.18,6.18,0,0,1-2.45,5.32,9.19,9.19,0,0,1-5.84,2,8.2,8.2,0,0,1-6.82-3.13,12.91,12.91,0,0,1-2.46-8.23v-.88a13,13,0,0,1,2.45-8.21,8.17,8.17,0,0,1,6.79-3.13,8.93,8.93,0,0,1,6,2.07,7,7,0,0,1,2.36,5.83l0,.12h-1a6.27,6.27,0,0,0-2.14-5.11,7.86,7.86,0,0,0-5.18-1.77,7,7,0,0,0-6.05,2.85,12.31,12.31,0,0,0-2.06,7.35v.88a12.28,12.28,0,0,0,2.06,7.38A7,7,0,0,0,278.45,538Z" class="cls-5"/><path data-cppathid="10056" transform="translate(-0.05 -0.81)" d="M294,508.88h-1.13V506H294Zm0,29.85h-1.13V516H294Z" class="cls-5"/><path data-cppathid="10057" transform="translate(-0.05 -0.81)" d="M309.37,539.17a8.71,8.71,0,0,1-6.77-3.1,11.39,11.39,0,0,1-2.76-7.84v-1.34a12,12,0,0,1,2.74-8.11,8.71,8.71,0,0,1,6.9-3.19,7.73,7.73,0,0,1,6,2.49,9.81,9.81,0,0,1,2.24,6.79v1.75H301v1.61a10.55,10.55,0,0,0,2.35,7,7.51,7.51,0,0,0,6,2.82,10.29,10.29,0,0,0,3.92-.76,8.41,8.41,0,0,0,3.06-2l.6.88a9,9,0,0,1-3.08,2.17A10.85,10.85,0,0,1,309.37,539.17Zm.11-22.44a7.5,7.5,0,0,0-5.78,2.44,10,10,0,0,0-2.56,6.19l.07.12h15.41v-.69a8.7,8.7,0,0,0-1.91-5.78A6.47,6.47,0,0,0,309.48,516.73Z" class="cls-5"/><path data-cppathid="10058" transform="translate(-0.05 -0.81)" d="M324.2,516l.15,4.58a8.23,8.23,0,0,1,3-3.68,8.51,8.51,0,0,1,4.85-1.32,6.65,6.65,0,0,1,5.57,2.35q1.86,2.34,1.86,7.42v13.37h-1.13V525.32c0-3.15-.57-5.37-1.69-6.66a5.79,5.79,0,0,0-4.59-1.93,7,7,0,0,0-5.46,2.08,10.11,10.11,0,0,0-2.41,5.35v14.57h-1.14V527.1h-.06c0-.27,0-.53,0-.81s0-.55.05-.83V516Z" class="cls-5"/><path data-cppathid="10059" transform="translate(-0.05 -0.81)" d="M354.47,538a8.54,8.54,0,0,0,5.09-1.58,5.41,5.41,0,0,0,2.2-4.72h1l0,.13a6.21,6.21,0,0,1-2.45,5.32,9.2,9.2,0,0,1-5.85,2,8.2,8.2,0,0,1-6.81-3.13,12.91,12.91,0,0,1-2.47-8.23v-.88a12.9,12.9,0,0,1,2.46-8.21,8.17,8.17,0,0,1,6.78-3.13,9,9,0,0,1,6,2.07,7,7,0,0,1,2.36,5.83l0,.12h-1a6.27,6.27,0,0,0-2.14-5.11,7.89,7.89,0,0,0-5.19-1.77,7,7,0,0,0-6,2.85,12.24,12.24,0,0,0-2.06,7.35v.88a12.21,12.21,0,0,0,2.06,7.38A7,7,0,0,0,354.47,538Z" class="cls-5"/><path data-cppathid="10060" transform="translate(-0.05 -0.81)" d="M370,508.88h-1.13V506H370Zm0,29.85h-1.13V516H370Z" class="cls-5"/><path data-cppathid="10061" transform="translate(-0.05 -0.81)" d="M391.7,534.53a8.81,8.81,0,0,1-3.51,3.35,11.47,11.47,0,0,1-5.64,1.29,6.86,6.86,0,0,1-5-1.73,6.18,6.18,0,0,1-1.81-4.67,5.74,5.74,0,0,1,2.7-4.79,11.29,11.29,0,0,1,6.75-1.93h6.49v-3.32a5.56,5.56,0,0,0-1.81-4.42,7.59,7.59,0,0,0-5.12-1.58,7.75,7.75,0,0,0-5,1.49,4.65,4.65,0,0,0-1.88,3.84l-.95,0,0-.11a5.3,5.3,0,0,1,2.06-4.48,8.68,8.68,0,0,1,5.77-1.84,8.83,8.83,0,0,1,5.86,1.85,6.57,6.57,0,0,1,2.2,5.34v11.37a19.88,19.88,0,0,0,.14,2.34,14.57,14.57,0,0,0,.45,2.24h-1.26c-.18-1-.3-1.74-.36-2.23a11.69,11.69,0,0,1-.1-1.61Zm-9.15,3.53a10.47,10.47,0,0,0,5.72-1.49,8.67,8.67,0,0,0,3.43-4.26V527.2h-6.42a10.49,10.49,0,0,0-6,1.63,4.77,4.77,0,0,0-2.42,4,4.92,4.92,0,0,0,1.54,3.75A5.75,5.75,0,0,0,382.55,538.06Z" class="cls-5"/><path data-cppathid="10062" transform="translate(-0.05 -0.81)" d="M409.38,527.35c0-3.6.76-6.45,2.27-8.57a7.29,7.29,0,0,1,6.3-3.19,8.42,8.42,0,0,1,7.68,4.44V506h1.14v17.09s0,0,0,0v9.26a.1.1,0,0,0,0,.06v6.32h-1.1l0-3.5a8,8,0,0,1-3.11,2.88,9.55,9.55,0,0,1-4.62,1.06,7.34,7.34,0,0,1-6.26-3.06q-2.26-3.08-2.26-8.32Zm1.18.44a13.33,13.33,0,0,0,1.85,7.48,6.19,6.19,0,0,0,5.47,2.77,8.54,8.54,0,0,0,4.92-1.33,7.64,7.64,0,0,0,2.83-3.56V522.4a9.48,9.48,0,0,0-2.65-4,7.3,7.3,0,0,0-5.05-1.63,6.1,6.1,0,0,0-5.49,2.95,14,14,0,0,0-1.88,7.67Z" class="cls-5"/><path data-cppathid="10063" transform="translate(-0.05 -0.81)" d="M441.92,539.17a8.71,8.71,0,0,1-6.77-3.1,11.39,11.39,0,0,1-2.76-7.84v-1.34a12,12,0,0,1,2.74-8.11,8.71,8.71,0,0,1,6.9-3.19,7.73,7.73,0,0,1,6,2.49,9.81,9.81,0,0,1,2.24,6.79v1.75H433.53v1.61a10.55,10.55,0,0,0,2.35,7,7.51,7.51,0,0,0,6,2.82,10.29,10.29,0,0,0,3.92-.76,8.29,8.29,0,0,0,3.05-2l.61.88a9,9,0,0,1-3.08,2.17A10.85,10.85,0,0,1,441.92,539.17Zm.11-22.44a7.5,7.5,0,0,0-5.78,2.44,10,10,0,0,0-2.56,6.19l.07.12h15.41v-.69a8.7,8.7,0,0,0-1.91-5.78A6.47,6.47,0,0,0,442,516.73Z" class="cls-5"/><path data-cppathid="10064" transform="translate(-0.05 -0.81)" d="M467.48,538.73h-1.14V506h1.14Z" class="cls-5"/><path data-cppathid="10065" transform="translate(-0.05 -0.81)" d="M489.19,534.53a8.94,8.94,0,0,1-3.51,3.35,11.51,11.51,0,0,1-5.65,1.29,6.85,6.85,0,0,1-5-1.73,6.14,6.14,0,0,1-1.81-4.67A5.74,5.74,0,0,1,476,528a11.29,11.29,0,0,1,6.75-1.93h6.49v-3.32a5.57,5.57,0,0,0-1.82-4.42,7.55,7.55,0,0,0-5.11-1.58,7.78,7.78,0,0,0-5,1.49,4.68,4.68,0,0,0-1.88,3.84l-.94,0,0-.11a5.29,5.29,0,0,1,2.05-4.48,8.71,8.71,0,0,1,5.78-1.84,8.85,8.85,0,0,1,5.86,1.85,6.57,6.57,0,0,1,2.2,5.34v11.37a19.88,19.88,0,0,0,.14,2.34,14.57,14.57,0,0,0,.45,2.24h-1.26c-.18-1-.31-1.74-.37-2.23a13.58,13.58,0,0,1-.09-1.61ZM480,538.06a10.45,10.45,0,0,0,5.72-1.49,8.69,8.69,0,0,0,3.44-4.26V527.2h-6.43a10.48,10.48,0,0,0-5.95,1.63,4.76,4.76,0,0,0-2.43,4,4.92,4.92,0,0,0,1.55,3.75A5.73,5.73,0,0,0,480,538.06Z" class="cls-5"/><path data-cppathid="10066" transform="translate(-0.05 -0.81)" d="M159.12,600.55a14,14,0,0,1-5.24,4.14,20.6,20.6,0,0,1-9.28,1.82A15.7,15.7,0,0,1,133,602a15.9,15.9,0,0,1-4.55-11.77v-8.31a16.2,16.2,0,0,1,4.4-11.77,15,15,0,0,1,11.32-4.55q6.94,0,10.83,3.5a11.38,11.38,0,0,1,3.77,9.13l-.08.16h-6.32a7.26,7.26,0,0,0-2.09-5.41,9.18,9.18,0,0,0-12.66,1,12,12,0,0,0-2.53,7.85v8.36a11.8,11.8,0,0,0,2.64,7.92,8.59,8.59,0,0,0,6.88,3.1,14.31,14.31,0,0,0,5.05-.72,7.47,7.47,0,0,0,2.82-1.77v-8.23h-8.34v-5h15Z" class="cls-5"/><path data-cppathid="10067" transform="translate(-0.05 -0.81)" d="M173.88,600.63h18.65v5.3H167.24V566.12h6.64Z" class="cls-5"/><path data-cppathid="10068" transform="translate(-0.05 -0.81)" d="M228.76,589.61a16.84,16.84,0,0,1-4.58,12.1,15.71,15.71,0,0,1-11.91,4.8,15.17,15.17,0,0,1-11.62-4.8,17,17,0,0,1-4.48-12.1v-7.17a17.07,17.07,0,0,1,4.47-12.08,15.14,15.14,0,0,1,11.63-4.81,15.72,15.72,0,0,1,11.9,4.81,16.82,16.82,0,0,1,4.59,12.08Zm-6.64-7.22a12.4,12.4,0,0,0-2.66-8.18,8.85,8.85,0,0,0-7.19-3.2,8.37,8.37,0,0,0-6.93,3.2,12.78,12.78,0,0,0-2.53,8.18v7.22a12.9,12.9,0,0,0,2.54,8.24,8.37,8.37,0,0,0,6.92,3.22,8.85,8.85,0,0,0,7.21-3.2,12.57,12.57,0,0,0,2.64-8.26Z" class="cls-5"/><path data-cppathid="10069" transform="translate(-0.05 -0.81)" d="M235.81,605.93V566.12h13.05q6.58,0,10.31,2.72c2.48,1.81,3.72,4.53,3.72,8.14a8,8,0,0,1-1.5,4.73,9.16,9.16,0,0,1-4.14,3.19,9,9,0,0,1,5.89,3.31,10,10,0,0,1,2.07,6.29q0,5.61-3.66,8.52t-10.12,2.91Zm6.65-23h7.11a7.51,7.51,0,0,0,4.88-1.46,5.07,5.07,0,0,0,1.79-4.14,5.15,5.15,0,0,0-1.89-4.39,8.92,8.92,0,0,0-5.49-1.44h-6.4Zm0,5v12.8h9a8,8,0,0,0,5.3-1.57,5.64,5.64,0,0,0,1.86-4.56,6.35,6.35,0,0,0-1.83-4.78,7.4,7.4,0,0,0-5.14-1.89h-9.16Z" class="cls-5"/><path data-cppathid="10070" transform="translate(-0.05 -0.81)" d="M292.2,596.64H278.09L275,605.93h-6.87l13.89-39.81h6.32l13.73,39.81h-6.87Zm-12.28-5.56h10.47l-5.11-15.69h-.16Z" class="cls-5"/><path data-cppathid="10071" transform="translate(-0.05 -0.81)" d="M313.66,600.63h18.65v5.3H307V566.12h6.64Z" class="cls-5"/><path data-cppathid="10072" transform="translate(-0.05 -0.81)" d="M351.89,605.93V566.12H365a16.7,16.7,0,0,1,12.32,4.73A16.45,16.45,0,0,1,382.1,583v6a16.4,16.4,0,0,1-4.74,12.17,16.76,16.76,0,0,1-12.32,4.7Zm6.64-34.48v29.18H365a9.54,9.54,0,0,0,7.6-3.24,12.23,12.23,0,0,0,2.82-8.33V583a12.15,12.15,0,0,0-2.82-8.27,9.54,9.54,0,0,0-7.6-3.24Z" class="cls-5"/><path data-cppathid="10073" transform="translate(-0.05 -0.81)" d="M411.64,588H396.05v12.61h18.37v5.3h-25V566.12h24.83v5.33H396.05v11.24h15.59Z" class="cls-5"/><path data-cppathid="10074" transform="translate(-0.05 -0.81)" d="M441,600.63h18.65v5.3H434.36V566.12H441Z" class="cls-5"/><path data-cppathid="10075" transform="translate(-0.05 -0.81)" d="M486.53,596.64H472.42l-3.06,9.29h-6.87l13.9-39.81h6.31l13.73,39.81h-6.87Zm-12.28-5.56h10.48l-5.12-15.69h-.16Z" class="cls-5"/><path data-cppathid="10076" transform="translate(-0.05 -0.81)" d="M170.33,666.28l.07.22q.15,8.54-5.2,13.37t-14.76,4.83q-9.6,0-15.49-6.17t-5.9-15.95V652q0-9.75,5.75-16t15.09-6.21q9.75,0,15.24,4.76T170.47,648l-.07.22H160c0-3.42-.83-6-2.47-7.64s-4.2-2.51-7.64-2.51A8.62,8.62,0,0,0,142.4,642a17.1,17.1,0,0,0-2.69,10v10.65a16.62,16.62,0,0,0,2.84,10,9.24,9.24,0,0,0,7.89,3.88c3.2,0,5.58-.84,7.16-2.51s2.36-4.24,2.36-7.71Z" class="cls-8"/><path data-cppathid="10077" transform="translate(-0.05 -0.81)" d="M221.19,662.07q0,9.85-6.19,16.24t-16.11,6.39q-9.88,0-16-6.41t-6.15-16.22v-9.59q0-9.78,6.13-16.21t16-6.43q9.92,0,16.15,6.43t6.22,16.21Zm-10.65-9.67a16.12,16.12,0,0,0-3.12-10.22,10.29,10.29,0,0,0-8.6-4,10,10,0,0,0-8.44,4,16.46,16.46,0,0,0-3,10.22v9.67a16.63,16.63,0,0,0,3,10.33,10.08,10.08,0,0,0,8.5,4,10.21,10.21,0,0,0,8.57-4,16.46,16.46,0,0,0,3.08-10.33Z" class="cls-8"/><path data-cppathid="10078" transform="translate(-0.05 -0.81)" d="M257.23,669.91h.22l13.69-39.3h14v53.32H274.4v-36.4l-.22,0L261,683.93h-7.25l-13.19-36.51-.21,0v36.47h-10.7V630.61h14Z" class="cls-8"/><path data-cppathid="10079" transform="translate(-0.05 -0.81)" d="M305.6,664.6v19.33H294.91V630.61h20.4q9.19,0,14.46,4.69a17,17,0,0,1,0,24.65q-5.26,4.65-14.46,4.65Zm0-8.24h9.71q4.47,0,6.77-2.44a8.65,8.65,0,0,0,2.31-6.21,9,9,0,0,0-2.29-6.35c-1.52-1.67-3.79-2.51-6.79-2.51H305.6Z" class="cls-8"/><path data-cppathid="10080" transform="translate(-0.05 -0.81)" d="M364,672.43H346.69l-3.59,11.5H331.93l18-53.32h10.95l17.9,53.32H367.6Zm-14.65-8.38h12.05l-5.9-18.79h-.22Z" class="cls-8"/><path data-cppathid="10081" transform="translate(-0.05 -0.81)" d="M427,683.93H416.31l-21.5-36-.22,0v35.92H383.9V630.61h10.69l21.5,35.93.22,0V630.61H427Zm-7.87-68a8.75,8.75,0,0,1-2.18,6,7,7,0,0,1-5.51,2.47,13.41,13.41,0,0,1-5.8-1.59,12.72,12.72,0,0,0-5.15-1.59,2.63,2.63,0,0,0-2.2,1.19,4.68,4.68,0,0,0-.88,2.84l-5.71-1.54a8.93,8.93,0,0,1,2.18-6,6.9,6.9,0,0,1,5.47-2.55,14.68,14.68,0,0,1,5.57,1.6,14.54,14.54,0,0,0,5.42,1.59,2.8,2.8,0,0,0,2.2-1.17,4.47,4.47,0,0,0,.95-2.89Z" class="cls-8"/><path data-cppathid="10082" transform="translate(-0.05 -0.81)" d="M448.24,683.93H437.55V630.61h10.69ZM445,615.6h11.9l.08.22-10.15,9.52h-9.12Z" class="cls-8"/><path data-cppathid="10083" transform="translate(-0.05 -0.81)" d="M487.28,672.43H470l-3.59,11.5H455.24l18-53.32h10.95l17.91,53.32H490.91Zm-14.65-8.38h12.05l-5.89-18.79h-.23Z" class="cls-8"/></g></svg>