<?xml version="1.0" encoding="UTF-8"?>
<svg xmlns="http://www.w3.org/2000/svg" onmouseup="{ if(window.parent.document.onmouseup) window.parent.document.onmouseup(arguments[0]);}" viewBox="0 0 380.16 89.67" id="normal"><defs><style>.cls-1{fill:none;stroke:#00ffd3;stroke-miterlimit:10;stroke-width:3px;}.cls-2{fill:#fff;}</style></defs><rect data-cppathid="10000" rx="43.33" height="86.67" width="377.16" y="1.5" x="1.5" class="cls-1"/><path data-cppathid="10001" d="M85.07,50.05l.05.14a10.5,10.5,0,0,1-3.35,8.33q-3.45,3.18-9.31,3.18a12.52,12.52,0,0,1-9.65-4,14.58,14.58,0,0,1-3.7-10.28V40.91a14.73,14.73,0,0,1,3.65-10.28,12.28,12.28,0,0,1,9.54-4q6,0,9.48,3.07a10.37,10.37,0,0,1,3.36,8.41l0,.15H79.59A7,7,0,0,0,77.74,33a7.48,7.48,0,0,0-5.44-1.82,6.5,6.5,0,0,0-5.5,2.75,11.44,11.44,0,0,0-2,7V47.4a11.34,11.34,0,0,0,2.06,7,6.63,6.63,0,0,0,5.62,2.75,7.16,7.16,0,0,0,5.31-1.83,7.14,7.14,0,0,0,1.82-5.27Z" class="cls-2"/><path data-cppathid="10002" d="M117.42,47.22a14.43,14.43,0,0,1-3.93,10.37,13.46,13.46,0,0,1-10.2,4.11,13,13,0,0,1-10-4.11,14.62,14.62,0,0,1-3.84-10.37V41.07a14.64,14.64,0,0,1,3.83-10.35,13,13,0,0,1,10-4.13,13.45,13.45,0,0,1,10.19,4.13,14.38,14.38,0,0,1,3.94,10.35ZM111.72,41a10.64,10.64,0,0,0-2.27-7,7.58,7.58,0,0,0-6.16-2.74,7.17,7.17,0,0,0-6,2.74,11,11,0,0,0-2.16,7v6.19a11,11,0,0,0,2.18,7.06A7.15,7.15,0,0,0,103.29,57a7.58,7.58,0,0,0,6.17-2.75,10.71,10.71,0,0,0,2.26-7.07Z" class="cls-2"/><path data-cppathid="10003" d="M150.11,61.21h-5.69L129.3,36.62l-.14.05V61.21h-5.7V27.08h5.7l15.12,24.59.14-.05V27.08h5.69Z" class="cls-2"/><path data-cppathid="10004" d="M180.44,31.65H169.89V61.21H164.2V31.65H153.82V27.08h26.62Z" class="cls-2"/><path data-cppathid="10005" d="M190.94,61.21h-5.69V27.08h5.69Z" class="cls-2"/><path data-cppathid="10006" d="M225.23,61.21h-5.69L204.42,36.62l-.14.05V61.21h-5.7V27.08h5.7l15.11,24.59.15-.05V27.08h5.69Z" class="cls-2"/><path data-cppathid="10007" d="M258.46,27.08V49.56a11.15,11.15,0,0,1-3.73,8.92,14.26,14.26,0,0,1-9.65,3.22,13.8,13.8,0,0,1-9.47-3.22A11.29,11.29,0,0,1,232,49.56V27.08h5.69V49.56a6.95,6.95,0,0,0,7.43,7.59,7.83,7.83,0,0,0,5.58-2,7.31,7.31,0,0,0,2.11-5.61V27.08Z" class="cls-2"/><path data-cppathid="10008" d="M282.37,53.24H270.28l-2.63,8h-5.88l11.91-34.13h5.41l11.77,34.13H285Zm-10.52-4.76h9L276.44,35h-.14Z" class="cls-2"/><path data-cppathid="10009" d="M300.77,47.05V61.21h-5.7V27.08h11.75q5.69,0,8.81,2.58A9,9,0,0,1,318.75,37a7.62,7.62,0,0,1-1.37,4.56,9.52,9.52,0,0,1-4,3.06,7.23,7.23,0,0,1,4.16,3,9.57,9.57,0,0,1,1.28,5.11v2.84a11.48,11.48,0,0,0,.37,2.93,4.26,4.26,0,0,0,1.24,2.18v.54h-5.86a3.77,3.77,0,0,1-1.19-2.42,21.23,21.23,0,0,1-.26-3.28V52.77a5.7,5.7,0,0,0-1.51-4.17,5.5,5.5,0,0,0-4.11-1.55Zm0-4.57h5.74c2.28,0,3.95-.44,5-1.31a4.92,4.92,0,0,0,1.57-4,5.28,5.28,0,0,0-1.54-4,6.61,6.61,0,0,0-4.71-1.47h-6.05Z" class="cls-2"/></svg>