<?xml version="1.0" encoding="UTF-8"?>
<svg xmlns="http://www.w3.org/2000/svg" onmouseup="{ if(window.parent.document.onmouseup) window.parent.document.onmouseup(arguments[0]);}" viewBox="0 0 380.16 89.67" id="normal"><defs><style>.cls-1{fill:none;stroke:#fa0;stroke-miterlimit:10;stroke-width:3px;}.cls-2{fill:#fff;}</style></defs><rect data-cppathid="10000" rx="43.33" height="86.67" width="377.16" y="1.5" x="1.5" class="cls-1"/><path data-cppathid="10001" d="M67.67,47.05V61.21H62V27.08H73.72c3.8,0,6.73.86,8.81,2.58A9,9,0,0,1,85.65,37a7.62,7.62,0,0,1-1.37,4.56,9.52,9.52,0,0,1-4,3.06,7.23,7.23,0,0,1,4.16,3,9.57,9.57,0,0,1,1.28,5.11v2.84a11.48,11.48,0,0,0,.37,2.93,4.2,4.2,0,0,0,1.25,2.18v.54H81.48a3.73,3.73,0,0,1-1.2-2.42A21.23,21.23,0,0,1,80,55.51V52.77a5.7,5.7,0,0,0-1.51-4.17,5.5,5.5,0,0,0-4.11-1.55Zm0-4.57h5.74c2.29,0,4-.44,5-1.31a5,5,0,0,0,1.57-4,5.29,5.29,0,0,0-1.55-4,6.61,6.61,0,0,0-4.71-1.47h-6Z" class="cls-2"/><path data-cppathid="10002" d="M111.57,45.86H98.21v10.8H114v4.55H92.52V27.08H113.8v4.57H98.21v9.64h13.36Z" class="cls-2"/><path data-cppathid="10003" d="M138.55,46.65H124.79V61.21h-5.7V27.08h21.85v4.57H124.79V42.08h13.76Z" class="cls-2"/><path data-cppathid="10004" d="M151.37,47.05V61.21h-5.7V27.08h11.74q5.7,0,8.82,2.58A9,9,0,0,1,169.34,37,7.56,7.56,0,0,1,168,41.58a9.43,9.43,0,0,1-4,3.06,7.23,7.23,0,0,1,4.16,3,9.56,9.56,0,0,1,1.27,5.11v2.84a11.49,11.49,0,0,0,.38,2.93A4.19,4.19,0,0,0,171,60.67v.54h-5.86A3.77,3.77,0,0,1,164,58.79a20.06,20.06,0,0,1-.26-3.28V52.77a5.74,5.74,0,0,0-1.51-4.17,5.5,5.5,0,0,0-4.12-1.55Zm0-4.57h5.74q3.42,0,5-1.31a4.92,4.92,0,0,0,1.57-4,5.28,5.28,0,0,0-1.54-4,6.66,6.66,0,0,0-4.72-1.47h-6Z" class="cls-2"/><path data-cppathid="10005" d="M195.27,45.86H181.91v10.8h15.75v4.55H176.21V27.08h21.28v4.57H181.91v9.64h13.36Z" class="cls-2"/><path data-cppathid="10006" d="M220.77,52.44A4.49,4.49,0,0,0,219.25,49a13.8,13.8,0,0,0-5.35-2.44,22.9,22.9,0,0,1-8.5-4,8,8,0,0,1-3-6.46,8.39,8.39,0,0,1,3.29-6.8,12.92,12.92,0,0,1,8.43-2.67,12.77,12.77,0,0,1,8.85,3,9.06,9.06,0,0,1,3.2,7.32l-.05.14h-5.48a5.46,5.46,0,0,0-1.79-4.29,6.94,6.94,0,0,0-4.77-1.59,6.54,6.54,0,0,0-4.45,1.36A4.45,4.45,0,0,0,208.09,36a3.9,3.9,0,0,0,1.71,3.25,18.49,18.49,0,0,0,5.67,2.42,19.93,19.93,0,0,1,8.18,4.09,8.64,8.64,0,0,1,2.81,6.63,8.08,8.08,0,0,1-3.33,6.77,14,14,0,0,1-8.74,2.53,15.15,15.15,0,0,1-9.07-2.77,8.74,8.74,0,0,1-3.75-7.8l.05-.14h5.48a5.39,5.39,0,0,0,2.12,4.63,8.5,8.5,0,0,0,5.17,1.56,7.61,7.61,0,0,0,4.7-1.28A4.11,4.11,0,0,0,220.77,52.44Z" class="cls-2"/><path data-cppathid="10007" d="M257.23,50.05l0,.14a10.5,10.5,0,0,1-3.35,8.33q-3.45,3.18-9.3,3.18a12.53,12.53,0,0,1-9.66-4,14.58,14.58,0,0,1-3.7-10.28V40.91a14.73,14.73,0,0,1,3.65-10.28,12.28,12.28,0,0,1,9.54-4q6,0,9.48,3.07a10.37,10.37,0,0,1,3.36,8.41l0,.15h-5.51A7,7,0,0,0,249.9,33a7.48,7.48,0,0,0-5.44-1.82,6.5,6.5,0,0,0-5.5,2.75,11.44,11.44,0,0,0-2,7V47.4a11.4,11.4,0,0,0,2.06,7,6.65,6.65,0,0,0,5.63,2.75,7.15,7.15,0,0,0,5.3-1.83,7.14,7.14,0,0,0,1.82-5.27Z" class="cls-2"/><path data-cppathid="10008" d="M280.53,53.24H268.44l-2.63,8h-5.88l11.91-34.13h5.41L289,61.21h-5.89ZM270,48.48h9L274.6,35h-.14Z" class="cls-2"/><path data-cppathid="10009" d="M298.93,47.05V61.21h-5.7V27.08H305q5.68,0,8.81,2.58A9,9,0,0,1,316.91,37a7.62,7.62,0,0,1-1.37,4.56,9.52,9.52,0,0,1-4,3.06,7.23,7.23,0,0,1,4.16,3A9.57,9.57,0,0,1,317,52.72v2.84a11.48,11.48,0,0,0,.37,2.93,4.26,4.26,0,0,0,1.24,2.18v.54h-5.86a3.77,3.77,0,0,1-1.19-2.42,21.23,21.23,0,0,1-.26-3.28V52.77a5.7,5.7,0,0,0-1.51-4.17,5.5,5.5,0,0,0-4.11-1.55Zm0-4.57h5.74c2.28,0,3.95-.44,5-1.31a4.92,4.92,0,0,0,1.57-4,5.28,5.28,0,0,0-1.54-4A6.61,6.61,0,0,0,305,31.65h-6.05Z" class="cls-2"/></svg>