<?xml version="1.0" encoding="UTF-8"?>
<svg xmlns="http://www.w3.org/2000/svg" onmouseup="{ if(window.parent.document.onmouseup) window.parent.document.onmouseup(arguments[0]);}" xml:space="preserve" enable-background="new 0 0 377.2 86.7" viewBox="0 0 377.2 86.7" y="0px" x="0px" id="over" version="1.1" xmlns:xlink="http://www.w3.org/1999/xlink"><path data-cppathid="10000" d="M43.3,0h290.5c23.9,0,43.3,19.4,43.3,43.3v0c0,23.9-19.4,43.3-43.3,43.3H43.3C19.4,86.7,0,67.3,0,43.3v0  C0,19.4,19.4,0,43.3,0z" fill="#FFAA00"/><path data-cppathid="10001" d="M66.2,45.5v14.2h-5.7V25.6h11.7c3.8,0,6.7,0.9,8.8,2.6c2.1,1.8,3.3,4.5,3.1,7.3c0,1.6-0.4,3.2-1.4,4.6  c-1,1.4-2.4,2.4-4,3.1c1.7,0.5,3.2,1.5,4.2,3c0.9,1.6,1.3,3.3,1.3,5.1v2.8c0,1,0.1,2,0.4,2.9c0.2,0.8,0.6,1.6,1.2,2.2v0.5H80  c-0.7-0.6-1.1-1.5-1.2-2.4c-0.2-1.1-0.3-2.2-0.3-3.3v-2.7c0.1-1.5-0.5-3-1.5-4.2c-1.1-1.1-2.6-1.6-4.1-1.5H66.2z M66.2,41h5.7  c2.3,0,4-0.4,5-1.3c1.1-1,1.7-2.5,1.6-4c0.1-1.5-0.5-2.9-1.6-4c-1.3-1.1-3-1.6-4.7-1.5h-6L66.2,41z" fill="#333E48"/><path data-cppathid="10002" d="M110.1,44.4H96.7v10.8h15.8v4.5H91V25.6h21.3v4.6H96.7v9.6h13.4V44.4z" fill="#333E48"/><path data-cppathid="10003" d="M137.1,45.2h-13.8v14.6h-5.7V25.6h21.8v4.6h-16.2v10.4h13.8V45.2z" fill="#333E48"/><path data-cppathid="10004" d="M149.9,45.5v14.2h-5.7V25.6h11.7c3.8,0,6.7,0.9,8.8,2.6c2.1,1.8,3.3,4.5,3.1,7.3c0.1,1.6-0.4,3.2-1.3,4.6  c-1,1.4-2.4,2.4-4,3.1c1.7,0.5,3.2,1.5,4.2,3c0.9,1.6,1.3,3.3,1.3,5.1v2.8c0,1,0.1,2,0.4,2.9c0.2,0.8,0.6,1.6,1.2,2.1v0.5h-5.9  c-0.7-0.6-1.1-1.5-1.1-2.4c-0.2-1.1-0.3-2.2-0.3-3.3v-2.7c0.1-1.5-0.5-3-1.5-4.2c-1.1-1.1-2.6-1.6-4.1-1.5H149.9z M149.9,41h5.7  c2.3,0,3.9-0.4,5-1.3c1.1-1,1.7-2.5,1.6-4c0.1-1.5-0.5-2.9-1.5-4c-1.3-1.1-3-1.6-4.7-1.5h-6L149.9,41z" fill="#333E48"/><path data-cppathid="10005" d="M193.8,44.4h-13.4v10.8h15.8v4.5h-21.4V25.6H196v4.6h-15.6v9.6h13.4V44.4z" fill="#333E48"/><path data-cppathid="10006" d="M219.3,50.9c0-1.3-0.5-2.6-1.5-3.4c-1.6-1.2-3.4-2-5.4-2.4c-3.1-0.7-6-2.1-8.5-4c-2-1.6-3.1-4-3-6.5  c0-2.7,1.2-5.2,3.3-6.8c2.4-1.9,5.4-2.8,8.4-2.7c3.2-0.2,6.4,0.9,8.9,3c2.1,1.8,3.3,4.5,3.2,7.3l-0.1,0.1h-5.5  c0.1-1.6-0.6-3.2-1.8-4.3c-1.3-1.1-3-1.7-4.8-1.6c-1.6-0.1-3.2,0.4-4.4,1.4c-1,0.9-1.6,2.1-1.5,3.4c0,1.3,0.6,2.5,1.7,3.2  c1.7,1.1,3.7,1.9,5.7,2.4c3,0.7,5.8,2.1,8.2,4.1c1.9,1.7,2.9,4.1,2.8,6.6c0.1,2.7-1.2,5.2-3.3,6.8c-2.6,1.8-5.6,2.7-8.7,2.5  c-3.2,0.1-6.4-0.9-9.1-2.8c-2.5-1.8-4-4.7-3.8-7.8l0.1-0.1h5.5c-0.1,1.8,0.7,3.5,2.1,4.6c1.5,1.1,3.3,1.6,5.2,1.6  c1.7,0.1,3.3-0.3,4.7-1.3C218.7,53.6,219.3,52.3,219.3,50.9z" fill="#333E48"/><path data-cppathid="10007" d="M255.7,48.5v0.1c0.2,3.1-1,6.2-3.4,8.3c-2.3,2.1-5.4,3.2-9.3,3.2c-3.6,0.1-7.2-1.3-9.7-4  c-2.5-2.8-3.8-6.5-3.7-10.3v-6.5c-0.1-3.8,1.2-7.4,3.6-10.3c2.4-2.7,5.9-4.1,9.5-4c4,0,7.2,1,9.5,3.1c2.3,2.1,3.6,5.2,3.4,8.4v0.2  h-5.5c0.1-1.9-0.5-3.8-1.8-5.3c-1.5-1.3-3.5-2-5.4-1.8c-2.2-0.1-4.2,1-5.5,2.8c-1.4,2.1-2.1,4.5-2,7v6.5c-0.1,2.5,0.6,5,2.1,7  c1.3,1.8,3.4,2.8,5.6,2.8c1.9,0.1,3.9-0.5,5.3-1.8c1.3-1.4,2-3.3,1.8-5.3H255.7z" fill="#333E48"/><path data-cppathid="10008" d="M279,51.7h-12.1l-2.6,8h-5.9l11.9-34.1h5.4l11.8,34.1h-5.9L279,51.7z M268.5,47h9l-4.4-13.5H273L268.5,47z" fill="#333E48"/><path data-cppathid="10009" d="M297.4,45.5v14.2h-5.7V25.6h11.8c3.8,0,6.7,0.9,8.8,2.6c2.1,1.8,3.3,4.5,3.1,7.3c0,1.6-0.4,3.2-1.4,4.6  c-1,1.4-2.4,2.4-4,3.1c1.7,0.5,3.2,1.5,4.2,3c0.9,1.5,1.4,3.3,1.3,5.1v2.8c0,1,0.1,2,0.4,2.9c0.2,0.8,0.6,1.6,1.2,2.2v0.5h-5.9  c-0.7-0.6-1.1-1.5-1.2-2.4c-0.2-1.1-0.3-2.2-0.3-3.3v-2.7c0.1-1.5-0.5-3-1.5-4.2c-1.1-1.1-2.6-1.6-4.1-1.5H297.4z M297.4,41h5.7  c2.3,0,4-0.4,5-1.3c1.1-1,1.7-2.5,1.6-4c0.1-1.5-0.5-2.9-1.5-4c-1.3-1.1-3-1.6-4.7-1.5h-6L297.4,41z" fill="#333E48"/></svg>