<?xml version="1.0" encoding="UTF-8"?>
<svg xmlns="http://www.w3.org/2000/svg" onmouseup="{ if(window.parent.document.onmouseup) window.parent.document.onmouseup(arguments[0]);}" viewBox="0 0 248.5 270.15"><defs><style>.cls-1{fill:#333e48;}.cls-2{fill:#00ffd3;}.cls-3{fill:#fff;}</style></defs><g data-name="Capa 6" id="Capa_6"><rect data-cppathid="10000" rx="34.15" height="267.15" width="245.5" y="1.5" x="1.5" class="cls-1"/><path data-cppathid="10001" transform="translate(0 0)" d="M212.85,3A32.65,32.65,0,0,1,245.5,35.66V234.5a32.65,32.65,0,0,1-32.65,32.65H35.65A32.65,32.65,0,0,1,3,234.5V35.66A32.65,32.65,0,0,1,35.65,3h177.2m0-3H35.65A35.7,35.7,0,0,0,0,35.66V234.5a35.69,35.69,0,0,0,35.65,35.65h177.2A35.69,35.69,0,0,0,248.5,234.5V35.66A35.7,35.7,0,0,0,212.85,0Z" class="cls-2"/></g><g id="Confidencial"><path data-cppathid="10002" transform="translate(0 0)" d="M54.12,231.36l0,.09a6.83,6.83,0,0,1-2.25,5.36A8.59,8.59,0,0,1,45.79,239a8,8,0,0,1-6.29-2.73,10.08,10.08,0,0,1-2.43-6.94v-4.05a10.06,10.06,0,0,1,2.43-6.94,8,8,0,0,1,6.29-2.75,8.84,8.84,0,0,1,6.14,2.06,6.79,6.79,0,0,1,2.22,5.44l0,.1h-3a5.08,5.08,0,0,0-1.4-3.78,5.39,5.39,0,0,0-4-1.39,4.85,4.85,0,0,0-4.11,2.07,8.48,8.48,0,0,0-1.53,5.16v4.08a8.54,8.54,0,0,0,1.53,5.19,4.85,4.85,0,0,0,4.11,2.07,5.43,5.43,0,0,0,4-1.38,5.13,5.13,0,0,0,1.4-3.82Z" class="cls-3"/><path data-cppathid="10003" transform="translate(0 0)" d="M57,230a9.28,9.28,0,0,1,2-6.18,6.8,6.8,0,0,1,5.51-2.43,6.87,6.87,0,0,1,5.56,2.43,9.25,9.25,0,0,1,2,6.18v.35a9.26,9.26,0,0,1-2,6.18,7.56,7.56,0,0,1-11.07,0,9.25,9.25,0,0,1-2-6.18Zm3.08.35a7.94,7.94,0,0,0,1.13,4.43,4.09,4.09,0,0,0,6.71,0,7.94,7.94,0,0,0,1.14-4.43V230a7.92,7.92,0,0,0-1.15-4.42,3.75,3.75,0,0,0-3.37-1.76,3.7,3.7,0,0,0-3.33,1.76A8,8,0,0,0,60.09,230Z" class="cls-3"/><path data-cppathid="10004" transform="translate(0 0)" d="M78.66,221.74l.22,2.51A6.11,6.11,0,0,1,81,222.17a5.59,5.59,0,0,1,2.9-.75A5.51,5.51,0,0,1,88.13,223a7,7,0,0,1,1.5,4.94v10.67H86.55V228a4.57,4.57,0,0,0-.88-3.17,3.56,3.56,0,0,0-2.69-.94,4.79,4.79,0,0,0-2.42.57A4.19,4.19,0,0,0,79,226.1v12.54H75.91v-16.9Z" class="cls-3"/><path data-cppathid="10005" transform="translate(0 0)" d="M95,238.64V224H92.3v-2.28H95v-1.83a5.78,5.78,0,0,1,1.66-4.41,6.49,6.49,0,0,1,4.62-1.56,8.86,8.86,0,0,1,2.06.24c.68.16,1.48.4,2.39.71l-.53,2.5a14.51,14.51,0,0,0-1.76-.56,7.76,7.76,0,0,0-1.92-.23,3.63,3.63,0,0,0-2.64.81,3.44,3.44,0,0,0-.8,2.5v1.83h3.36V224H98v14.62Zm12.23,0H104.1v-16.9h3.09Z" class="cls-3"/><path data-cppathid="10006" transform="translate(0 0)" d="M111.21,230.5a11.3,11.3,0,0,1,1.74-6.58,5.63,5.63,0,0,1,4.89-2.5,6.15,6.15,0,0,1,2.63.55,5.56,5.56,0,0,1,2,1.59v-9.29h3.08v24.37h-2.36l-.47-2.14a5.57,5.57,0,0,1-2.05,1.85,6.18,6.18,0,0,1-2.83.62,5.81,5.81,0,0,1-4.84-2.24,9.31,9.31,0,0,1-1.75-5.9Zm3.08.33a7.14,7.14,0,0,0,1,4.1,3.64,3.64,0,0,0,3.25,1.54,4.15,4.15,0,0,0,2.31-.62,4.77,4.77,0,0,0,1.53-1.75v-7.9a4.83,4.83,0,0,0-1.54-1.66,4.08,4.08,0,0,0-2.27-.62,3.53,3.53,0,0,0-3.28,1.83,9.47,9.47,0,0,0-1,4.75Z" class="cls-3"/><path data-cppathid="10007" transform="translate(0 0)" d="M137.1,239a7.13,7.13,0,0,1-5.68-2.33,8.94,8.94,0,0,1-2-6.12v-.69a8.76,8.76,0,0,1,2.1-6,6.61,6.61,0,0,1,5.14-2.39,6.14,6.14,0,0,1,5.08,2.11,8.71,8.71,0,0,1,1.7,5.61v1.63H132.59l-.05.08a7,7,0,0,0,1.12,4.13,3.93,3.93,0,0,0,3.44,1.58,7.65,7.65,0,0,0,2.74-.44,6.27,6.27,0,0,0,2-1.23l1.2,2a7.22,7.22,0,0,1-2.39,1.48A9.54,9.54,0,0,1,137.1,239Zm-.48-15.12a3.35,3.35,0,0,0-2.67,1.24,5.94,5.94,0,0,0-1.29,3.18l0,.08h7.62v-.25a4.89,4.89,0,0,0-.91-3A3.26,3.26,0,0,0,136.62,223.85Z" class="cls-3"/><path data-cppathid="10008" transform="translate(0 0)" d="M149.6,221.74l.22,2.51a6.11,6.11,0,0,1,2.12-2.08,5.59,5.59,0,0,1,2.9-.75,5.51,5.51,0,0,1,4.23,1.61,7,7,0,0,1,1.5,4.94v10.67h-3.08V228a4.57,4.57,0,0,0-.88-3.17,3.57,3.57,0,0,0-2.7-.94,4.77,4.77,0,0,0-2.41.57,4.12,4.12,0,0,0-1.57,1.61v12.54h-3.08v-16.9Z" class="cls-3"/><path data-cppathid="10009" transform="translate(0 0)" d="M171.76,236.56a3.6,3.6,0,0,0,2.48-.94,3,3,0,0,0,1.06-2.32h2.79l0,.09a4.87,4.87,0,0,1-1.87,3.89,7.17,7.17,0,0,1-10-.73,9.38,9.38,0,0,1-1.94-6v-.66a9.31,9.31,0,0,1,2-6,6.61,6.61,0,0,1,5.49-2.43,6.4,6.4,0,0,1,4.63,1.75,5.57,5.57,0,0,1,1.74,4.3l0,.09h-2.8a3.74,3.74,0,0,0-1-2.63,3.33,3.33,0,0,0-2.54-1.08,3.57,3.57,0,0,0-3.31,1.75,8.3,8.3,0,0,0-1,4.26v.66a8.26,8.26,0,0,0,1,4.29A3.54,3.54,0,0,0,171.76,236.56Z" class="cls-3"/><path data-cppathid="10010" transform="translate(0 0)" d="M185.12,217.41H182v-3.14h3.08Zm0,21.23H182v-16.9h3.08Z" class="cls-3"/><path data-cppathid="10011" transform="translate(0 0)" d="M200.24,238.64q-.15-.76-.24-1.35a9.24,9.24,0,0,1-.1-1.18,7.23,7.23,0,0,1-2.24,2,5.74,5.74,0,0,1-3,.82,5.52,5.52,0,0,1-4-1.35,4.94,4.94,0,0,1-1.39-3.73,4.4,4.4,0,0,1,2-3.79,9.17,9.17,0,0,1,5.32-1.36h3.35v-1.68a3.1,3.1,0,0,0-.91-2.35,3.54,3.54,0,0,0-2.56-.86,3.7,3.7,0,0,0-2.42.75,2.23,2.23,0,0,0-.92,1.79l-2.93,0,0-.09a4.06,4.06,0,0,1,1.73-3.38,7.14,7.14,0,0,1,4.74-1.53,7,7,0,0,1,4.63,1.46A5.21,5.21,0,0,1,203,227.1v8.14a16.66,16.66,0,0,0,.09,1.75,9.3,9.3,0,0,0,.34,1.65Zm-5.11-2.25a5.43,5.43,0,0,0,3-.86,4.1,4.1,0,0,0,1.75-2v-2.75h-3.45a4.51,4.51,0,0,0-3,.94,2.8,2.8,0,0,0-1.12,2.2,2.37,2.37,0,0,0,.7,1.79A3,3,0,0,0,195.13,236.39Z" class="cls-3"/><path data-cppathid="10012" transform="translate(0 0)" d="M210.77,238.64H207.7V214.27h3.07Z" class="cls-3"/><path data-cppathid="10013" transform="translate(0 0)" d="M124.29,190.12a3.65,3.65,0,0,1-2.41-.93c-10.25-9.29-19-16.93-26.47-23.45C51,127,50.6,126,51.22,58.43c.08-8.9.17-19,.17-30.51a3.59,3.59,0,0,1,1.29-2.75,3.63,3.63,0,0,1,2.94-.77c24.4,4.52,46.78.08,66.68-13.2a3.57,3.57,0,0,1,4.3.24c15.27,12.94,36.85,17.15,66.06,12.94a3.7,3.7,0,0,1,2.86.83,3.6,3.6,0,0,1,1.23,2.71c0,14.6.22,26.82.4,37.2,1,59.75.62,60.7-45.83,102-7.06,6.27-15.21,13.52-24.63,22.1A3.56,3.56,0,0,1,124.29,190.12Zm-65.75-158c0,9.82-.09,18.55-.17,26.37-.59,64.89-.59,64.89,41.75,101.85,6.9,6,14.9,13,24.15,21.36,8.44-7.66,15.83-14.22,22.3-20C191,122.27,191,122.27,190,65.25c-.17-9.44-.36-20.38-.4-33.26-27.93,3.38-49.67-1.12-65.55-13.41C104.31,31.05,82.4,35.64,58.54,32.13Z" class="cls-3"/><path data-cppathid="10014" transform="translate(0 0)" d="M131.46,95.23A14.49,14.49,0,1,0,116,94.61l-5,24.87a5.29,5.29,0,0,0,5.18,6.34h15.84a5.3,5.3,0,0,0,5.15-6.52Z" class="cls-3"/></g></svg>