<?xml version="1.0" encoding="UTF-8"?>
<svg xmlns="http://www.w3.org/2000/svg" onmouseup="{ if(window.parent.document.onmouseup) window.parent.document.onmouseup(arguments[0]);}" xml:space="preserve" style="enable-background:new 0 0 248.5 270.1;" viewBox="0 0 248.5 270.1" y="0px" x="0px" id="Capa_1" version="1.1" xmlns:xlink="http://www.w3.org/1999/xlink"><style type="text/css">
	.st0{fill:#333E48;}
	.st1{fill:#00FFD3;}
	.st2{fill:#FFFFFF;}
	.st3{fill:#FFFFFF;fill-opacity:0;}
	.st4{fill-rule:evenodd;clip-rule:evenodd;fill:#FFFFFF;}
	.st5{fill:#00FF0C;}
	.st6{fill:#03E503;}
</style><g id="Capa_6"><path data-cppathid="10000" d="M35.7,1.5h177.2c18.9,0,34.1,15.3,34.1,34.2v198.9c0,18.9-15.3,34.1-34.1,34.1H35.7   c-18.9,0-34.2-15.3-34.2-34.1V35.7C1.5,16.8,16.8,1.5,35.7,1.5z" class="st0"/><path data-cppathid="10001" d="M212.9,3c18,0,32.6,14.6,32.6,32.7c0,0,0,0,0,0v198.8c0,18-14.6,32.6-32.6,32.6H35.7   c-18,0-32.6-14.6-32.7-32.6V35.7C3,17.6,17.6,3,35.6,3c0,0,0,0,0,0H212.9 M212.9,0H35.7C16,0,0,16,0,35.7v198.8   c0,19.7,16,35.6,35.7,35.6h177.2c19.7,0,35.6-16,35.6-35.6V35.7C248.5,16,232.5,0,212.9,0z" class="st1"/></g><g id="AG"><path data-cppathid="10002" d="M86,213.6h-8.6l-2,5.9h-3.2l8.2-22.8h2.6l8,22.8H88L86,213.6z M78.3,211h6.8l-3.3-9.8h-0.1L78.3,211z" class="st2"/><path data-cppathid="10003" d="M100.7,217.4c0.9,0,1.8-0.3,2.5-0.9c0.7-0.6,1.1-1.4,1.1-2.3h2.8v0.1c0,1.5-0.7,3-1.9,3.9   c-3,2.5-7.4,2.2-10-0.7c-1.3-1.7-2-3.8-1.9-6v-0.7c-0.1-2.2,0.6-4.3,1.9-6c1.3-1.6,3.4-2.5,5.5-2.4c1.7-0.1,3.4,0.6,4.6,1.8   c1.2,1.1,1.8,2.7,1.7,4.3v0.1h-2.8c0-1-0.3-1.9-1-2.6c-0.7-0.7-1.6-1.1-2.5-1.1c-1.3-0.1-2.6,0.6-3.3,1.8c-0.7,1.3-1.1,2.8-1,4.3   v0.7c-0.1,1.5,0.3,3,1,4.3C98.1,216.8,99.4,217.5,100.7,217.4z" class="st2"/><path data-cppathid="10004" d="M117.5,217.4c0.9,0,1.8-0.3,2.5-0.9c0.7-0.6,1-1.4,1-2.3h2.8v0.1c0,1.5-0.7,3-1.9,3.9c-3,2.5-7.4,2.2-10-0.7   c-1.3-1.7-2-3.8-1.9-6v-0.7c-0.1-2.2,0.6-4.3,1.9-6c1.3-1.6,3.4-2.5,5.5-2.4c1.7-0.1,3.4,0.6,4.6,1.8c1.2,1.1,1.8,2.7,1.7,4.3v0.1   H121c0-1-0.3-1.9-1-2.6c-0.7-0.7-1.6-1.1-2.5-1.1c-1.3-0.1-2.6,0.6-3.3,1.8c-0.7,1.3-1.1,2.8-1,4.3v0.7c-0.1,1.5,0.3,3,1,4.3   C114.9,216.8,116.1,217.5,117.5,217.4z" class="st2"/><path data-cppathid="10005" d="M134.5,219.8c-2.1,0.1-4.2-0.7-5.7-2.3c-1.4-1.7-2.1-3.9-2-6.1v-0.7c-0.1-2.2,0.7-4.3,2.1-6   c1.3-1.5,3.1-2.4,5.1-2.4c1.9-0.1,3.8,0.6,5.1,2.1c1.2,1.6,1.8,3.6,1.7,5.6v1.6H130l-0.1,0.1c-0.1,1.5,0.3,2.9,1.1,4.1   c0.8,1.1,2.1,1.7,3.4,1.6c0.9,0,1.9-0.1,2.8-0.4c0.7-0.3,1.4-0.7,2-1.2l1.2,2c-0.7,0.6-1.5,1.1-2.4,1.5   C136.9,219.6,135.7,219.8,134.5,219.8z M134,204.6c-1,0-2,0.4-2.7,1.2c-0.7,0.9-1.2,2-1.3,3.2v0.1h7.6v-0.2c0-1.1-0.3-2.2-0.9-3.1   C136.1,205,135.1,204.6,134,204.6z" class="st2"/><path data-cppathid="10006" d="M154.1,214.9c0-0.6-0.3-1.3-0.8-1.7c-0.9-0.6-1.9-1-2.9-1.1c-1.6-0.3-3.2-0.9-4.6-1.8c-1-0.7-1.6-1.9-1.6-3.1   c0-1.4,0.7-2.7,1.8-3.5c1.3-1,2.9-1.5,4.6-1.5c1.7-0.1,3.4,0.5,4.7,1.6c1.1,0.9,1.7,2.2,1.7,3.6v0.1h-2.9c0-0.8-0.4-1.5-1-2   c-0.7-0.6-1.5-0.9-2.4-0.9c-0.9-0.1-1.7,0.2-2.4,0.7c-0.5,0.4-0.8,1.1-0.8,1.8c0,0.6,0.2,1.2,0.7,1.6c0.9,0.5,1.9,0.9,2.9,1   c1.7,0.3,3.3,0.9,4.7,1.9c1,0.7,1.6,1.9,1.6,3.1c0,1.4-0.7,2.8-1.8,3.7c-3,2-6.9,1.9-9.9-0.2c-1.2-0.9-1.8-2.3-1.8-3.8v-0.1h2.9   c0,1,0.4,1.9,1.2,2.4c0.8,0.5,1.7,0.8,2.7,0.8c0.9,0.1,1.8-0.2,2.6-0.7C153.7,216.3,154.1,215.6,154.1,214.9z" class="st2"/><path data-cppathid="10007" d="M160.3,210.8c-0.1-2.2,0.6-4.4,2-6.2c2.8-3.1,7.6-3.3,10.6-0.4c0.2,0.1,0.3,0.3,0.4,0.4c1.4,1.8,2.1,3.9,2,6.2   v0.4c0.1,2.2-0.6,4.4-2,6.2c-2.8,3.1-7.6,3.2-10.7,0.4c-0.1-0.1-0.3-0.3-0.4-0.4c-1.4-1.8-2.1-3.9-2-6.2V210.8z M163.4,211.2   c-0.1,1.6,0.3,3.1,1.1,4.4c1.3,1.9,3.8,2.3,5.7,1c0.4-0.3,0.7-0.6,1-1c0.8-1.3,1.2-2.9,1.1-4.4v-0.4c0.1-1.6-0.3-3.1-1.1-4.4   c-1.3-1.9-3.8-2.3-5.7-1c-0.4,0.3-0.8,0.6-1,1c-0.8,1.3-1.2,2.9-1.1,4.4L163.4,211.2z" class="st2"/><path data-cppathid="10008" d="M88.2,254.8c-0.7,1-1.7,1.8-2.8,2.3c-1.6,0.8-3.4,1.1-5.2,1.1c-2.4,0.1-4.8-0.9-6.5-2.6   c-1.8-1.8-2.7-4.2-2.6-6.7v-4.7c-0.1-2.5,0.8-4.9,2.5-6.8c3.4-3.2,8.7-3.5,12.4-0.6c1.5,1.3,2.2,3.2,2.1,5.1v0.1h-3   c0-1.3-0.5-2.5-1.3-3.5c-1-1-2.4-1.5-3.8-1.4c-1.6-0.1-3.2,0.7-4.2,1.9c-1.1,1.4-1.7,3.2-1.6,5v4.7c-0.1,1.8,0.5,3.6,1.7,5   c1.1,1.3,2.6,2,4.3,2c1.1,0,2.2-0.1,3.2-0.5c0.7-0.3,1.3-0.8,1.8-1.3v-5.1h-5.2v-2.4h8.2L88.2,254.8z" class="st2"/><path data-cppathid="10009" d="M100.1,258.2c-2.1,0.1-4.2-0.7-5.7-2.3c-1.4-1.7-2.1-3.9-2-6.1V249c-0.1-2.2,0.7-4.3,2.1-6   c1.3-1.5,3.1-2.4,5.1-2.4c1.9-0.1,3.8,0.6,5.1,2.1c1.2,1.6,1.8,3.6,1.7,5.6v1.7H95.5v0.1c-0.1,1.5,0.3,2.9,1.1,4.1   c0.8,1.1,2.1,1.7,3.4,1.6c0.9,0,1.9-0.1,2.7-0.4c0.7-0.3,1.4-0.7,2-1.2l1.2,2c-0.7,0.6-1.5,1.1-2.4,1.5   C102.5,258,101.3,258.2,100.1,258.2z M99.6,243.1c-1,0-2,0.4-2.7,1.2c-0.7,0.9-1.2,2-1.3,3.2v0.1h7.6v-0.2c0-1.1-0.3-2.2-0.9-3.1   C101.7,243.4,100.6,243,99.6,243.1L99.6,243.1z" class="st2"/><path data-cppathid="10010" d="M112.6,240.9l0.2,2.5c0.5-0.9,1.3-1.6,2.1-2.1c0.9-0.5,1.9-0.8,2.9-0.8c1.6-0.1,3.1,0.5,4.2,1.6   c1.1,1.4,1.6,3.2,1.5,4.9v10.7h-3.1v-10.6c0.1-1.1-0.2-2.3-0.9-3.2c-0.7-0.7-1.7-1-2.7-0.9c-0.8,0-1.7,0.2-2.4,0.6   c-0.7,0.4-1.2,0.9-1.6,1.6v12.5h-3.1v-16.9H112.6z" class="st2"/><path data-cppathid="10011" d="M135,258.2c-2.1,0.1-4.2-0.7-5.7-2.3c-1.4-1.7-2.1-3.9-2-6.1V249c-0.1-2.2,0.7-4.3,2.1-6   c1.3-1.5,3.1-2.4,5.1-2.4c1.9-0.1,3.8,0.6,5.1,2.1c1.2,1.6,1.8,3.6,1.7,5.6v1.7h-10.9l-0.1,0.1c-0.1,1.5,0.3,2.9,1.1,4.1   c0.8,1.1,2.1,1.7,3.4,1.6c0.9,0,1.9-0.1,2.8-0.4c0.7-0.3,1.4-0.7,2-1.2l1.2,2c-0.7,0.6-1.5,1.1-2.4,1.5   C137.4,258,136.2,258.2,135,258.2z M134.5,243.1c-1,0-2,0.4-2.7,1.2c-0.7,0.9-1.2,2-1.3,3.2v0.1h7.6v-0.2c0-1.1-0.3-2.2-0.9-3.1   C136.6,243.4,135.6,243,134.5,243.1L134.5,243.1z" class="st2"/><path data-cppathid="10012" d="M152.7,243.7l-1.6-0.1c-0.7,0-1.5,0.2-2.1,0.6c-0.6,0.4-1,1-1.3,1.6v12.1h-3.1v-16.9h2.8l0.3,2.5   c0.4-0.8,1-1.5,1.8-2c0.7-0.5,1.6-0.8,2.4-0.7c0.2,0,0.4,0,0.7,0.1c0.2,0,0.3,0.1,0.5,0.1L152.7,243.7z" class="st2"/><path data-cppathid="10013" d="M166.3,257.8c-0.1-0.5-0.2-1-0.2-1.4c-0.1-0.4-0.1-0.8-0.1-1.2c-0.6,0.8-1.4,1.5-2.2,2c-0.9,0.5-1.9,0.8-3,0.8   c-1.5,0.1-2.9-0.4-4-1.4c-1-1-1.5-2.3-1.4-3.7c0-1.5,0.7-3,2-3.8c1.6-1,3.4-1.5,5.3-1.4h3.3v-1.7c0-0.9-0.3-1.7-0.9-2.4   c-0.7-0.6-1.6-0.9-2.6-0.9c-0.9,0-1.7,0.2-2.4,0.8c-0.6,0.4-0.9,1.1-0.9,1.8h-2.9v-0.1c0-1.3,0.6-2.6,1.7-3.4   c1.3-1.1,3-1.6,4.8-1.5c1.7-0.1,3.3,0.4,4.6,1.5c1.2,1.1,1.9,2.6,1.8,4.2v8.1c0,0.6,0,1.2,0.1,1.8c0.1,0.6,0.2,1.1,0.3,1.6   L166.3,257.8z M161.2,255.6c1.1,0,2.1-0.3,3-0.9c0.8-0.4,1.4-1.2,1.8-2V250h-3.4c-1.1-0.1-2.1,0.3-3,0.9c-0.7,0.5-1.1,1.3-1.1,2.2   c0,0.7,0.2,1.3,0.7,1.8C159.7,255.4,160.5,255.6,161.2,255.6z" class="st2"/><path data-cppathid="10014" d="M176.9,257.8h-3.1v-24.4h3.1V257.8z" class="st2"/><rect data-cppathid="10015" height="237.2" width="240.4" class="st3" y="7.4" x="4"/><path data-cppathid="10016" d="M122.8,153h-0.2C93.5,152.9,70,129.3,70,100.2v-0.2c0.1-29,23.6-52.4,52.5-52.5h0.5   c29,0.1,52.5,23.6,52.6,52.6v0.2c0,29.1-23.5,52.7-52.6,52.8H122.8z M122.8,147.4h0.2c26-0.1,47-21.2,47-47.2V100   c-0.1-25.9-21.1-46.9-47-47h-0.4c-25.9,0.1-46.9,21.1-47,47l0,0v0.2c0,26,21,47.1,47,47.2L122.8,147.4L122.8,147.4z" class="st4"/><path data-cppathid="10017" d="M122.8,125.2h-0.2c-12.5,0-24.6-2.1-34-5.8c-4.9-1.8-9.3-4.5-13.2-8c-3.5-3.4-5.4-7.3-5.4-11.3V100   c0-3.9,1.9-7.8,5.4-11.2c3.8-3.5,8.3-6.2,13.2-7.9c9.4-3.7,21.5-5.8,34-5.8h0.4c12.5,0,24.6,2.1,34,5.8c4.9,1.8,9.3,4.5,13.2,7.9   c3.5,3.4,5.4,7.3,5.4,11.2v0.1c0,4-1.9,7.9-5.4,11.3c-3.8,3.5-8.3,6.2-13.2,8c-9.4,3.7-21.5,5.8-34,5.8L122.8,125.2z M75.6,100.1   L75.6,100.1c0,2.4,1.2,4.9,3.7,7.2c3.3,3,7.2,5.3,11.3,6.8c8.8,3.5,20.1,5.4,32,5.4h0.4c11.8,0,23.2-1.9,32-5.4   c4.2-1.5,8-3.8,11.3-6.8c2.4-2.4,3.7-4.8,3.7-7.2v-0.1c0-2.4-1.3-4.9-3.7-7.2c-3.3-2.9-7.1-5.2-11.3-6.7c-8.8-3.5-20.1-5.4-32-5.4   h-0.4c-11.8,0-23.2,1.9-32,5.4c-4.2,1.5-8,3.8-11.3,6.7C76.9,95.2,75.6,97.6,75.6,100.1L75.6,100.1z" class="st4"/><path data-cppathid="10018" d="M122.8,153h-0.1c-7.2-0.1-14-5-19.2-14c-3-5.4-5.2-11.3-6.5-17.3c-1.6-7-2.4-14.3-2.4-21.5V100   c0-7.2,0.8-14.4,2.4-21.4c1.3-6,3.5-11.8,6.5-17.2c5.1-9,11.9-14,19.2-14h0.3c7.2,0.1,14,5,19.2,14c3,5.4,5.2,11.2,6.5,17.2   c1.6,7,2.4,14.2,2.4,21.4v0.2c0,7.2-0.7,14.4-2.3,21.5c-1.3,6.1-3.5,11.9-6.5,17.3c-5.1,9-11.9,14-19.2,14L122.8,153z M122.8,53   L122.8,53c-5.2,0-10.2,4-14.3,11.2c-5.2,9-8.1,22.1-8.2,35.8v0.2c0,13.8,3,26.9,8.2,36c4.1,7.2,9.2,11.1,14.3,11.2h0.2   c5.2,0,10.2-4,14.3-11.2c5.2-9.1,8.2-22.2,8.2-36V100c0-13.7-3-26.8-8.2-35.8C133.2,57,128.1,53,122.9,53H122.8z" class="st4"/><path data-cppathid="10019" d="M172.8,102.8h-100c-1.6,0-2.8-1.3-2.8-2.8c0-1.6,1.3-2.8,2.8-2.8h100c1.6,0,2.8,1.3,2.8,2.8   C175.6,101.5,174.3,102.8,172.8,102.8z" class="st4"/><path data-cppathid="10020" d="M123,153c-1.6,0-2.8-1.3-2.8-2.8v-100c0-1.6,1.3-2.8,2.8-2.8c1.6,0,2.8,1.3,2.8,2.8l0,0v100   C125.8,151.7,124.6,153,123,153L123,153z" class="st4"/><path data-cppathid="10021" d="M178.5,55.7c-6.2,0-11.2-5.1-11.2-11.3s5.1-11.2,11.3-11.2c6.2,0,11.2,5.1,11.2,11.3c0,3.2-1.4,6.2-3.8,8.4   C183.9,54.7,181.3,55.7,178.5,55.7z M178.5,38.9c-3.1,0-5.6,2.5-5.6,5.6s2.5,5.6,5.6,5.6c3.1,0,5.6-2.5,5.6-5.6l0,0   C184.1,41.4,181.6,38.9,178.5,38.9C178.5,38.9,178.5,38.9,178.5,38.9z" class="st4"/><path data-cppathid="10022" d="M122.8,32.7c-6,0-10.9-4.7-11.2-10.6v-0.6c0.2-6.2,5.3-11,11.5-10.9c5.9,0.2,10.7,4.9,10.9,10.9V22   C133.7,28,128.7,32.7,122.8,32.7z M122.8,15.9c-3.1,0-5.6,2.5-5.6,5.6v0.3c0.2,3.1,2.8,5.4,5.9,5.2c2.8-0.2,5.1-2.4,5.2-5.2v-0.3   C128.4,18.4,125.9,15.9,122.8,15.9C122.8,15.9,122.8,15.9,122.8,15.9L122.8,15.9L122.8,15.9z" class="st4"/><path data-cppathid="10023" d="M67.1,55.7c-6.2,0-11.1-5-11.1-11.2s5-11.1,11.2-11.1s11.1,5,11.1,11.2C78.3,50.7,73.3,55.6,67.1,55.7   L67.1,55.7z M67.1,38.9c-3.1,0-5.6,2.5-5.6,5.6c0,3.1,2.5,5.6,5.6,5.6c3.1,0,5.6-2.5,5.6-5.6c0-1.4-0.5-2.7-1.4-3.7   C70.2,39.6,68.7,38.9,67.1,38.9z" class="st4"/><path data-cppathid="10024" d="M67.1,167.1c-6.2,0-11.2-5-11.2-11.2s5-11.2,11.2-11.2c6.2,0,11.2,5,11.2,11.2c0,2.7-1,5.4-2.8,7.4   C73.4,165.7,70.3,167,67.1,167.1z M67.1,150.3c-3.1,0-5.5,2.5-5.5,5.6c0,3.1,2.5,5.5,5.6,5.5s5.5-2.5,5.5-5.6   C72.7,152.7,70.2,150.3,67.1,150.3L67.1,150.3z" class="st4"/><path data-cppathid="10025" d="M178.4,167.1c-6.2,0-11.2-5-11.2-11.2s5-11.2,11.2-11.2c6.2,0,11.2,5,11.2,11.2   C189.6,162,184.6,167.1,178.4,167.1z M178.4,150.3c-3.1,0-5.6,2.5-5.6,5.6c0,3.1,2.5,5.6,5.6,5.6c3.1,0,5.6-2.5,5.6-5.6   c0-1.6-0.7-3.1-1.8-4.1C181.1,150.8,179.8,150.3,178.4,150.3z" class="st4"/><path data-cppathid="10026" d="M122.8,190.1c-6.2,0-11.2-5-11.2-11.2v-0.6c0.3-6.2,5.6-10.9,11.8-10.6c5.7,0.3,10.3,4.9,10.6,10.6v0.6   C133.9,185.1,128.9,190.1,122.8,190.1L122.8,190.1z M122.8,173.3c-3,0-5.4,2.3-5.6,5.3v0.3c-0.1,3.1,2.2,5.7,5.3,5.8   c3.1,0.1,5.7-2.2,5.8-5.3l0,0c0-0.2,0-0.3,0-0.5c0-0.1,0-0.2,0-0.3C128.2,175.6,125.8,173.3,122.8,173.3L122.8,173.3z" class="st4"/><path data-cppathid="10027" d="M201.5,111.4H201c-6.2-0.2-11-5.3-10.9-11.5c0.2-5.9,4.9-10.7,10.9-10.9h0.6c6.2,0.2,11,5.3,10.9,11.5   C212.3,106.5,207.5,111.2,201.5,111.4L201.5,111.4z M201.5,94.6h-0.3c-3.1,0.2-5.4,2.8-5.2,5.9c0.2,2.8,2.4,5.1,5.2,5.2h0.3   c3.1-0.1,5.5-2.7,5.3-5.8C206.8,97.1,204.4,94.7,201.5,94.6L201.5,94.6z" class="st4"/><path data-cppathid="10028" d="M44.1,111.4c-6.2,0.2-11.3-4.7-11.5-10.9c-0.2-6.2,4.7-11.3,10.9-11.5h1.3c6.2,0.3,10.9,5.6,10.6,11.8   c-0.3,5.7-4.9,10.3-10.6,10.6L44.1,111.4z M44.1,94.6c-3.1-0.1-5.7,2.3-5.8,5.4c-0.1,3.1,2.3,5.6,5.3,5.8h0.8   c3.1-0.2,5.4-2.8,5.2-5.9c-0.2-2.8-2.4-5.1-5.2-5.2L44.1,94.6z" class="st4"/><path data-cppathid="10029" d="M114.4,180.8H114c-15.4-1.6-30-7.7-42-17.4c-1.2-1-1.4-2.8-0.4-4c0.9-1.1,2.6-1.4,3.8-0.5l0.1,0.1   c11.2,9.1,24.8,14.7,39.1,16.2c1.5,0.1,2.7,1.5,2.6,3C117.1,179.7,115.8,180.9,114.4,180.8L114.4,180.8z" class="st4"/><path data-cppathid="10030" d="M45,94.5h-0.3c-1.5-0.2-2.6-1.5-2.5-3.1l0,0c1.6-15.4,7.6-30,17.4-42.1c1.1-1.1,2.8-1.2,4-0.1   c1,0.9,1.2,2.4,0.4,3.5c0,0-0.1,0.1-0.1,0.1c-9,11.2-14.7,24.7-16.2,39C47.6,93.4,46.4,94.5,45,94.5z" class="st4"/><path data-cppathid="10031" d="M171.9,42c-0.6,0-1.3-0.2-1.8-0.6c-11.2-9.1-24.8-14.8-39.1-16.2c-1.5-0.2-2.7-1.5-2.5-3.1s1.5-2.7,3.1-2.5   l0,0c15.4,1.6,30,7.7,42,17.4c1.2,1,1.4,2.7,0.4,4C173.5,41.6,172.7,42,171.9,42L171.9,42z" class="st4"/><path data-cppathid="10032" d="M183.8,152.1c-1.6,0-2.8-1.3-2.8-2.8l0,0c0-0.6,0.2-1.2,0.6-1.7c9.1-11.2,14.7-24.8,16.2-39.2   c0.2-1.5,1.5-2.7,3.1-2.5s2.7,1.5,2.5,3.1l0,0c-1.6,15.4-7.7,30.1-17.4,42.1C185.5,151.7,184.6,152.1,183.8,152.1z" class="st4"/><path data-cppathid="10033" d="M131.4,180.8c-1.6,0-2.8-1.2-2.9-2.7c0-1.5,1.1-2.8,2.6-2.9c14.3-1.5,27.8-7.1,39-16.2c1.2-1,3-0.7,3.9,0.5   c0.9,1.2,0.7,2.9-0.4,3.9c-12,9.7-26.5,15.8-41.9,17.4L131.4,180.8z" class="st4"/><path data-cppathid="10034" d="M200.6,94.4c-1.4,0-2.6-1.1-2.8-2.5c-1.5-14.3-7.1-27.8-16.2-39c-1-1.2-0.9-3,0.3-4c1.2-1,3-0.9,4,0.3l0.1,0.1   c9.8,12,15.8,26.6,17.4,42c0.2,1.5-1,2.9-2.5,3.1L200.6,94.4z" class="st4"/><path data-cppathid="10035" d="M73.8,42c-1.6,0-2.8-1.2-2.8-2.8c0-0.9,0.4-1.7,1-2.2c12-9.8,26.6-15.8,42-17.4c1.5-0.2,2.9,1,3.1,2.5   c0.2,1.5-1,2.9-2.5,3.1l0,0c-14.3,1.5-27.9,7.1-39,16.2C75.1,41.8,74.4,42,73.8,42z" class="st4"/><path data-cppathid="10036" d="M61.8,152c-0.8,0-1.6-0.4-2.2-1c-9.7-12-15.8-26.6-17.4-42c-0.2-1.5,1-2.9,2.5-3.1c1.5-0.2,2.9,1,3.1,2.5l0,0   c1.5,14.3,7.2,27.9,16.2,39.1c1,1.2,0.8,2.9-0.3,3.9c0,0,0,0-0.1,0.1l0,0C63.1,151.9,62.4,152,61.8,152z" class="st4"/></g><g id="Capa_15"><g id="Capa_2_00000083088531806757058040000010175568480236353182_"><path data-cppathid="10037" d="M171.8,91.4l-2.1-2.2c-1.8-2-4.9-2.2-6.9-0.3l-0.3,0.3l-45,48.4l-20-21.7c-1.8-2-4.9-2.2-6.9-0.4l-0.4,0.4    l-2.5,2.7l29.4,31.9L171.8,91.4z" class="st5"/><path data-cppathid="10038" d="M171.8,91.4L117,150.5l-29.4-31.9l-2.7,2.9c-2,2.2-2,5.6,0,7.9l28.8,31.2c1.7,1.9,4.5,2.2,6.5,0.7    c0.3-0.2,0.6-0.5,0.9-0.8l53.7-57.8c2-2.2,2-5.6,0-7.9L171.8,91.4z" class="st6"/></g></g></svg>