<?xml version="1.0" encoding="UTF-8"?>
<svg xmlns="http://www.w3.org/2000/svg" onmouseup="{ if(window.parent.document.onmouseup) window.parent.document.onmouseup(arguments[0]);}" viewBox="0 0 248.5 270.15" data-name="Capa 1" id="Capa_1"><defs><style>.cls-1{fill:#333e48;}.cls-2{fill:#00ffd3;}.cls-3,.cls-4{fill:#fff;}.cls-4{fill-rule:evenodd;}.cls-5{fill:#00ff0c;}.cls-6{fill:#03e503;}</style></defs><g data-name="Capa 6" id="Capa_6"><rect data-cppathid="10000" rx="34.15" height="267.15" width="245.5" y="1.5" x="1.5" class="cls-1"/><path data-cppathid="10001" d="M212.85,3A32.65,32.65,0,0,1,245.5,35.65h0V234.5a32.65,32.65,0,0,1-32.65,32.65H35.65A32.65,32.65,0,0,1,3,234.5V35.66A32.65,32.65,0,0,1,35.64,3H212.85m0-3H35.65A35.7,35.7,0,0,0,0,35.66V234.5a35.69,35.69,0,0,0,35.65,35.65h177.2A35.69,35.69,0,0,0,248.5,234.5V35.66A35.7,35.7,0,0,0,212.85,0Z" class="cls-2"/></g><g data-name="Uso interno" id="Uso_interno"><path data-cppathid="10002" d="M60.74,214v15.11A7.33,7.33,0,0,1,58.3,235a9.22,9.22,0,0,1-6.3,2.14A8.7,8.7,0,0,1,46,235a7.44,7.44,0,0,1-2.4-5.85V214h3.08v15.11a5.52,5.52,0,0,0,1.49,4.09A5.23,5.23,0,0,0,52,234.64a5.65,5.65,0,0,0,4.07-1.47,5.34,5.34,0,0,0,1.59-4.09V214Z" class="cls-3"/><path data-cppathid="10003" d="M75,232.18a2.06,2.06,0,0,0-.77-1.66,7.55,7.55,0,0,0-2.93-1.13,12.23,12.23,0,0,1-4.59-1.79,3.66,3.66,0,0,1-1.6-3.1,4.49,4.49,0,0,1,1.76-3.5,7.73,7.73,0,0,1,9.21.1,4.44,4.44,0,0,1,1.7,3.64v.09H74.84a2.66,2.66,0,0,0-1-2,3.45,3.45,0,0,0-2.43-.89,3.49,3.49,0,0,0-2.43.73,2.31,2.31,0,0,0-.8,1.75,1.86,1.86,0,0,0,.7,1.55,7.69,7.69,0,0,0,2.86,1,11.86,11.86,0,0,1,4.72,1.86A3.74,3.74,0,0,1,78.07,232a4.46,4.46,0,0,1-1.82,3.67,8.54,8.54,0,0,1-9.82-.17,4.71,4.71,0,0,1-1.77-3.83v-.09H67.6a2.87,2.87,0,0,0,1.22,2.4,4.78,4.78,0,0,0,2.67.75,4.25,4.25,0,0,0,2.57-.69A2.13,2.13,0,0,0,75,232.18Z" class="cls-3"/><path data-cppathid="10004" d="M81.21,228.08a9.28,9.28,0,0,1,2-6.18,7.51,7.51,0,0,1,10.61-.46l0,0c.15.14.3.29.44.44a9.28,9.28,0,0,1,2,6.18v.35a9.28,9.28,0,0,1-2,6.18A7.56,7.56,0,0,1,83.6,235l-.39-.39a9.28,9.28,0,0,1-2-6.18Zm3.08.35a8,8,0,0,0,1.13,4.43,4.09,4.09,0,0,0,6.71,0,7.92,7.92,0,0,0,1.14-4.43v-.35a7.92,7.92,0,0,0-1.15-4.42,4.07,4.07,0,0,0-5.66-1,4,4,0,0,0-1,1,8.07,8.07,0,0,0-1.13,4.42Z" class="cls-3"/><path data-cppathid="10005" d="M111.4,215.49h-3.08v-3.14h3.08Zm0,21.23h-3.08v-16.9h3.08Z" class="cls-3"/><path data-cppathid="10006" d="M118.88,219.82l.22,2.51a6,6,0,0,1,2.12-2.08,6.2,6.2,0,0,1,7.13.86,7,7,0,0,1,1.5,4.94v10.67h-3.08V226.08a4.55,4.55,0,0,0-.88-3.17,3.54,3.54,0,0,0-2.7-.94,4.71,4.71,0,0,0-2.41.57,4.19,4.19,0,0,0-1.57,1.61v12.54h-3.08v-16.9Z" class="cls-3"/><path data-cppathid="10007" d="M138.6,215.74v4.08h3.2v2.26h-3.2v10.26a2.24,2.24,0,0,0,.49,1.67,1.76,1.76,0,0,0,1.31.49,2.32,2.32,0,0,0,.59-.07l.55-.15.42,2.11a2.68,2.68,0,0,1-1,.46,4.89,4.89,0,0,1-1.32.18,4,4,0,0,1-3-1.13,4.94,4.94,0,0,1-1.11-3.56V222.08h-2.68V219.8h2.68v-4.08Z" class="cls-3"/><path data-cppathid="10008" d="M152.1,237.08a7.13,7.13,0,0,1-5.68-2.33,8.94,8.94,0,0,1-2-6.12v-.69a8.73,8.73,0,0,1,2.1-6,6.59,6.59,0,0,1,5.14-2.39,6.15,6.15,0,0,1,5.08,2.11,8.69,8.69,0,0,1,1.7,5.61v1.63H147.59l-.05.08a7,7,0,0,0,1.12,4.13,3.92,3.92,0,0,0,3.44,1.58,7.75,7.75,0,0,0,2.74-.44,6.25,6.25,0,0,0,2-1.23l1.2,2a7.31,7.31,0,0,1-2.39,1.48A9.56,9.56,0,0,1,152.1,237.08ZM151.62,222a3.38,3.38,0,0,0-2.62,1.2,6,6,0,0,0-1.29,3.18v.08h7.63v-.25a4.94,4.94,0,0,0-.91-3,3.23,3.23,0,0,0-2.76-1.28Z" class="cls-3"/><path data-cppathid="10009" d="M169.85,222.53l-1.58-.09a3.47,3.47,0,0,0-2.05.58,3.79,3.79,0,0,0-1.29,1.62v12.08h-3.08v-16.9h2.75l.3,2.46a6.06,6.06,0,0,1,1.77-2,4.06,4.06,0,0,1,2.43-.74,4.2,4.2,0,0,1,1.17.18Z" class="cls-3"/><path data-cppathid="10010" d="M175.8,219.82l.22,2.51a6.29,6.29,0,0,1,2.12-2.08,6.2,6.2,0,0,1,7.13.86,7,7,0,0,1,1.5,4.94v10.67h-3.08V226.08a4.55,4.55,0,0,0-.88-3.17,3.6,3.6,0,0,0-2.69-.94,4.75,4.75,0,0,0-2.42.57,4.19,4.19,0,0,0-1.57,1.61v12.54h-3.08v-16.9Z" class="cls-3"/><path data-cppathid="10011" d="M190.52,228.08a9.28,9.28,0,0,1,2-6.18,7.51,7.51,0,0,1,10.61-.46l0,0c.15.14.3.29.44.44a9.28,9.28,0,0,1,2,6.18v.35a9.16,9.16,0,0,1-2,6.18,7.56,7.56,0,0,1-10.68.39q-.21-.19-.39-.39a9.28,9.28,0,0,1-2-6.18Zm3.08.35a8,8,0,0,0,1.13,4.43,4.09,4.09,0,0,0,6.71,0,7.93,7.93,0,0,0,1.15-4.43v-.35a8.08,8.08,0,0,0-1.15-4.42,3.76,3.76,0,0,0-3.37-1.76,3.71,3.71,0,0,0-3.34,1.76,8.07,8.07,0,0,0-1.13,4.42Z" class="cls-3"/><path data-cppathid="10012" d="M125.78,94.28H41.37A4.41,4.41,0,0,1,37,89.89h0v-49a4.42,4.42,0,0,1,4.39-4.39h84.4a4.39,4.39,0,0,1,4.38,4.39v49a4.36,4.36,0,0,1-4.36,4.36h0ZM42.6,88.66h81.9V42.19H42.6Z" class="cls-4"/><path data-cppathid="10013" d="M92.42,106.85H74.73A2.84,2.84,0,0,1,71.89,104h0V91.52a2.84,2.84,0,0,1,2.84-2.84H92.37a2.84,2.84,0,0,1,2.84,2.84V104a2.81,2.81,0,0,1-2.81,2.81h0Zm-14.88-5.62h12V94.36h-12Z" class="cls-4"/><path data-cppathid="10014" d="M99.37,106.85H68a3,3,0,0,1-3-2.69,2.82,2.82,0,0,1,2.69-2.93H99.22a2.81,2.81,0,0,1,1,5.48h0A2.7,2.7,0,0,1,99.37,106.85Z" class="cls-4"/><path data-cppathid="10015" d="M212.43,175.63H128a4.41,4.41,0,0,1-4.39-4.39h0v-49a4.39,4.39,0,0,1,4.37-4.39h84.38a4.37,4.37,0,0,1,4.39,4.35h0v49a4.37,4.37,0,0,1-4.36,4.37ZM129.27,170h81.88V123.57H129.27Z" class="cls-4"/><path data-cppathid="10016" d="M179.06,188.17H161.37a2.86,2.86,0,0,1-2.83-2.84V172.85a2.83,2.83,0,0,1,2.83-2.83H179a2.83,2.83,0,0,1,2.83,2.83h0v12.52a2.81,2.81,0,0,1-2.81,2.81h0Zm-14.88-5.62h12v-6.87h-12Z" class="cls-4"/><path data-cppathid="10017" d="M186,188.17H154.53a2.86,2.86,0,0,1-2.78-1.92,2.83,2.83,0,0,1,1.8-3.56h0a2.89,2.89,0,0,1,.88-.14H185.8a2.92,2.92,0,0,1,3,2.68,2.82,2.82,0,0,1-2.68,2.94Z" class="cls-4"/><path data-cppathid="10018" d="M169.37,111.28a2.86,2.86,0,0,1-1.92-2.78V68.25H145.37l4,4a3,3,0,0,1,.21,4,2.8,2.8,0,0,1-3.94.29l-.06-.06h0l-.08-.07-8.9-8.9a3,3,0,0,1-.92-2.27,2.84,2.84,0,0,1,2.81-2.62h31.66A2.84,2.84,0,0,1,173,65.39h0v43.17a2.81,2.81,0,0,1-2.78,2.84h0A2.43,2.43,0,0,1,169.37,111.28Z" class="cls-4"/><path data-cppathid="10019" d="M106.12,171.49a2.8,2.8,0,0,1-2.11-1,2.94,2.94,0,0,1,.25-4l4.15-4.15H83.6a2.84,2.84,0,0,1-2.84-2.84v-43a2.94,2.94,0,0,1,2.68-3,2.81,2.81,0,0,1,2.94,2.67h0v40.48h28.74a2.91,2.91,0,0,1,2.08.79,2.84,2.84,0,0,1,0,4l-9.12,9.12A2.79,2.79,0,0,1,106.12,171.49Z" class="cls-4"/><path data-cppathid="10020" d="M138.52,68.22a2.8,2.8,0,0,1-2.12-1,2.94,2.94,0,0,1,.26-4l8.8-8.8a2.94,2.94,0,0,1,4-.21,2.8,2.8,0,0,1,.26,3.95v.05h0l-.1.1-9,9A2.79,2.79,0,0,1,138.52,68.22Z" class="cls-4"/><path data-cppathid="10021" d="M115.24,162.37a2.78,2.78,0,0,1-2-.82l-9-9a2.93,2.93,0,0,1-.22-4,2.8,2.8,0,0,1,4-.28l0,0h0l.1.1,9,9a2.94,2.94,0,0,1,.25,4A2.8,2.8,0,0,1,115.24,162.37Z" class="cls-4"/></g><g data-name="Capa 15" id="Capa_15"><g data-name="Capa 2" id="Capa_2"><path data-cppathid="10022" d="M166.11,101.64,164,99.39a4.92,4.92,0,0,0-6.94-.34l-.34.34-45,48.38-20-21.68a4.89,4.89,0,0,0-6.92-.36l-.36.36-2.53,2.72,29.42,31.93Z" class="cls-5"/><path data-cppathid="10023" d="M166.11,101.64l-54.75,59.08L82,128.79l-2.69,2.89a5.91,5.91,0,0,0,0,7.85l28.84,31.22a4.88,4.88,0,0,0,6.48.71,5.78,5.78,0,0,0,.92-.77l53.72-57.81a5.91,5.91,0,0,0,0-7.85Z" class="cls-6"/></g></g></svg>