<?xml version="1.0" encoding="UTF-8"?>
<svg xmlns="http://www.w3.org/2000/svg" onmouseup="{ if(window.parent.document.onmouseup) window.parent.document.onmouseup(arguments[0]);}" xml:space="preserve" style="enable-background:new 0 0 248.5 270.1;" viewBox="0 0 248.5 270.1" y="0px" x="0px" id="Capa_1" version="1.1" xmlns:xlink="http://www.w3.org/1999/xlink"><style type="text/css">
	.st0{fill:#333E48;}
	.st1{fill:#00FFD3;}
	.st2{fill:#FFFFFF;}
	.st3{fill:#00FF0C;}
	.st4{fill:#03E503;}
</style><g id="Capa_6"><path data-cppathid="10000" d="M35.7,1.5h177.2c18.9,0,34.1,15.3,34.1,34.2v198.9c0,18.9-15.3,34.1-34.1,34.1H35.7   c-18.9,0-34.2-15.3-34.2-34.1V35.7C1.5,16.8,16.8,1.5,35.7,1.5z" class="st0"/><path data-cppathid="10001" d="M212.9,3c18,0,32.6,14.6,32.6,32.7c0,0,0,0,0,0v198.8c0,18-14.6,32.6-32.6,32.6H35.7   c-18,0-32.6-14.6-32.7-32.6V35.7C3,17.6,17.6,3,35.6,3c0,0,0,0,0,0H212.9 M212.9,0H35.7C16,0,0,16,0,35.7v198.8   c0,19.7,16,35.6,35.7,35.6h177.2c19.7,0,35.6-16,35.6-35.6V35.7C248.5,16,232.5,0,212.9,0z" class="st1"/></g><g id="Confidencial"><path data-cppathid="10002" d="M54.1,231.4L54.1,231.4c0.1,2.1-0.7,4.1-2.2,5.4c-1.7,1.5-3.8,2.3-6.1,2.2c-2.4,0.1-4.7-0.9-6.3-2.7   c-1.7-1.9-2.5-4.4-2.4-6.9v-4.1c-0.1-2.5,0.8-5,2.4-6.9c1.6-1.8,3.9-2.8,6.3-2.8c2.2-0.1,4.4,0.6,6.1,2.1c1.5,1.4,2.3,3.4,2.2,5.4   v0.1h-3c0.1-1.4-0.4-2.8-1.4-3.8c-1.1-1-2.5-1.5-4-1.4c-1.6,0-3.2,0.7-4.1,2.1c-1.1,1.5-1.6,3.3-1.5,5.2v4.1   c-0.1,1.9,0.5,3.7,1.5,5.2c0.9,1.3,2.5,2.1,4.1,2.1c1.5,0.1,2.9-0.4,4-1.4c1-1,1.5-2.4,1.4-3.8L54.1,231.4z" class="st2"/><path data-cppathid="10003" d="M57,230c-0.1-2.2,0.6-4.4,2-6.2c1.4-1.6,3.4-2.5,5.5-2.4c2.1-0.1,4.2,0.8,5.6,2.4c1.4,1.8,2.1,3.9,2,6.2v0.4   c0.1,2.2-0.6,4.4-2,6.2c-2.8,3.1-7.6,3.2-10.7,0.4c-0.1-0.1-0.3-0.3-0.4-0.4c-1.4-1.8-2.1-3.9-2-6.2V230z M60.1,230.4   c-0.1,1.6,0.3,3.1,1.1,4.4c1.3,1.9,3.8,2.3,5.7,1c0.4-0.3,0.7-0.6,1-1c0.8-1.3,1.2-2.9,1.1-4.4V230c0.1-1.6-0.3-3.1-1.2-4.4   c-0.7-1.2-2-1.8-3.4-1.8c-1.3-0.1-2.6,0.6-3.3,1.8c-0.8,1.3-1.2,2.9-1.1,4.4L60.1,230.4z" class="st2"/><path data-cppathid="10004" d="M78.7,221.7l0.2,2.5c0.5-0.9,1.3-1.6,2.1-2.1c0.9-0.5,1.9-0.8,2.9-0.8c1.6-0.1,3.1,0.5,4.2,1.6   c1.1,1.4,1.6,3.2,1.5,4.9v10.7h-3.1V228c0.1-1.1-0.2-2.3-0.9-3.2c-0.7-0.7-1.7-1-2.7-0.9c-0.8,0-1.7,0.2-2.4,0.6   c-0.7,0.4-1.2,1-1.6,1.6v12.5h-3.1v-16.9H78.7z" class="st2"/><path data-cppathid="10005" d="M95,238.6V224h-2.7v-2.3H95v-1.8c-0.1-1.6,0.5-3.2,1.7-4.4c1.3-1.1,2.9-1.7,4.6-1.6c0.7,0,1.4,0.1,2.1,0.2   c0.7,0.2,1.5,0.4,2.4,0.7l-0.5,2.5c-0.6-0.2-1.2-0.4-1.8-0.6c-0.6-0.2-1.3-0.2-1.9-0.2c-1-0.1-1.9,0.2-2.6,0.8   c-0.6,0.7-0.9,1.6-0.8,2.5v1.8h3.4v2.3H98v14.6L95,238.6z M107.2,238.6h-3.1v-16.9h3.1L107.2,238.6z" class="st2"/><path data-cppathid="10006" d="M111.2,230.5c-0.1-2.3,0.5-4.6,1.7-6.6c1.1-1.6,2.9-2.6,4.9-2.5c0.9,0,1.8,0.2,2.6,0.6c0.8,0.4,1.5,0.9,2,1.6   v-9.3h3.1v24.4h-2.4l-0.5-2.1c-0.5,0.8-1.2,1.4-2.1,1.9c-0.9,0.4-1.9,0.6-2.8,0.6c-1.9,0.1-3.7-0.8-4.8-2.2   c-1.2-1.7-1.9-3.8-1.8-5.9L111.2,230.5z M114.3,230.8c-0.1,1.4,0.3,2.9,1,4.1c0.7,1.1,2,1.6,3.2,1.5c0.8,0,1.6-0.2,2.3-0.6   c0.6-0.4,1.2-1,1.5-1.8v-7.9c-0.4-0.7-0.9-1.2-1.5-1.7c-0.7-0.4-1.5-0.6-2.3-0.6c-1.4-0.1-2.6,0.6-3.3,1.8c-0.7,1.5-1.1,3.1-1,4.8   V230.8z" class="st2"/><path data-cppathid="10007" d="M137.1,239c-2.1,0.1-4.2-0.7-5.7-2.3c-1.4-1.7-2.1-3.9-2-6.1v-0.7c-0.1-2.2,0.7-4.3,2.1-6   c1.3-1.5,3.2-2.4,5.1-2.4c1.9-0.1,3.8,0.6,5.1,2.1c1.2,1.6,1.8,3.6,1.7,5.6v1.6h-10.9l-0.1,0.1c-0.1,1.5,0.3,2.9,1.1,4.1   c0.8,1.1,2.1,1.7,3.4,1.6c0.9,0,1.9-0.1,2.7-0.4c0.7-0.3,1.4-0.7,2-1.2l1.2,2c-0.7,0.6-1.5,1.1-2.4,1.5   C139.5,238.8,138.3,239,137.1,239z M136.6,223.9c-1,0-2,0.4-2.7,1.2c-0.7,0.9-1.2,2-1.3,3.2v0.1h7.6v-0.2c0-1.1-0.3-2.1-0.9-3   C138.7,224.3,137.7,223.8,136.6,223.9L136.6,223.9z" class="st2"/><path data-cppathid="10008" d="M149.6,221.7l0.2,2.5c0.5-0.9,1.3-1.6,2.1-2.1c0.9-0.5,1.9-0.8,2.9-0.8c1.6-0.1,3.1,0.5,4.2,1.6   c1.1,1.4,1.6,3.2,1.5,4.9v10.7h-3.1V228c0.1-1.1-0.2-2.3-0.9-3.2c-0.7-0.7-1.7-1-2.7-0.9c-0.8,0-1.7,0.2-2.4,0.6   c-0.7,0.4-1.2,0.9-1.6,1.6v12.5h-3.1v-16.9L149.6,221.7z" class="st2"/><path data-cppathid="10009" d="M171.8,236.6c0.9,0,1.8-0.3,2.5-0.9c0.7-0.6,1.1-1.4,1.1-2.3h2.8v0.1c0,1.5-0.7,3-1.9,3.9   c-3,2.5-7.4,2.2-10-0.7c-1.3-1.7-2-3.8-1.9-6v-0.7c-0.1-2.2,0.7-4.3,2-6c1.3-1.6,3.4-2.5,5.5-2.4c1.7-0.1,3.4,0.6,4.6,1.8   c1.2,1.1,1.8,2.7,1.7,4.3v0.1h-2.8c0-1-0.3-1.9-1-2.6c-0.7-0.7-1.6-1.1-2.5-1.1c-1.3-0.1-2.6,0.6-3.3,1.8c-0.7,1.3-1.1,2.8-1,4.3   v0.7c-0.1,1.5,0.3,3,1,4.3C169.2,236,170.4,236.6,171.8,236.6z" class="st2"/><path data-cppathid="10010" d="M185.1,217.4H182v-3.1h3.1L185.1,217.4z M185.1,238.6H182v-16.9h3.1L185.1,238.6z" class="st2"/><path data-cppathid="10011" d="M200.2,238.6c-0.1-0.5-0.2-1-0.2-1.4c-0.1-0.4-0.1-0.8-0.1-1.2c-0.6,0.8-1.4,1.5-2.2,2c-0.9,0.5-1.9,0.8-3,0.8   c-1.5,0.1-2.9-0.4-4-1.4c-1-1-1.5-2.3-1.4-3.7c0-1.5,0.7-3,2-3.8c1.6-1,3.4-1.5,5.3-1.4h3.4V227c0-0.9-0.3-1.7-0.9-2.4   c-0.7-0.6-1.6-0.9-2.6-0.9c-0.9,0-1.7,0.2-2.4,0.8c-0.6,0.4-0.9,1.1-0.9,1.8h-2.9v-0.1c0-1.3,0.6-2.6,1.7-3.4   c1.3-1.1,3-1.6,4.7-1.5c1.7-0.1,3.3,0.4,4.6,1.5c1.2,1.1,1.8,2.7,1.7,4.3v8.1c0,0.6,0,1.2,0.1,1.8c0.1,0.6,0.2,1.1,0.3,1.6H200.2z    M195.1,236.4c1.1,0,2.1-0.3,3-0.9c0.8-0.5,1.4-1.2,1.8-2v-2.8h-3.4c-1.1-0.1-2.1,0.3-3,0.9c-0.7,0.5-1.1,1.3-1.1,2.2   c0,0.7,0.2,1.3,0.7,1.8C193.6,236.2,194.4,236.4,195.1,236.4z" class="st2"/><path data-cppathid="10012" d="M210.8,238.6h-3.1v-24.4h3.1V238.6z" class="st2"/><path data-cppathid="10013" d="M124.3,190.1c-0.9,0-1.7-0.3-2.4-0.9c-10.2-9.3-19-16.9-26.5-23.4C51,127,50.6,126,51.2,58.4   c0.1-8.9,0.2-19,0.2-30.5c0-1.1,0.5-2.1,1.3-2.8c0.8-0.7,1.9-1,2.9-0.8c24.4,4.5,46.8,0.1,66.7-13.2c1.3-0.9,3.1-0.8,4.3,0.2   c15.3,12.9,36.9,17.2,66.1,12.9c1-0.1,2.1,0.2,2.9,0.8c0.8,0.7,1.2,1.7,1.2,2.7c0,14.6,0.2,26.8,0.4,37.2c1,59.8,0.6,60.7-45.8,102   c-7.1,6.3-15.2,13.5-24.6,22.1C126,189.8,125.2,190.1,124.3,190.1z M58.5,32.1c0,9.8-0.1,18.5-0.2,26.4   c-0.6,64.9-0.6,64.9,41.8,101.8c6.9,6,14.9,13,24.2,21.4c8.4-7.7,15.8-14.2,22.3-20C191,122.3,191,122.3,190,65.2   c-0.2-9.4-0.4-20.4-0.4-33.3c-27.9,3.4-49.7-1.1-65.6-13.4C104.3,31,82.4,35.6,58.5,32.1L58.5,32.1z" class="st2"/><path data-cppathid="10014" d="M131.5,95.2c6.9-4,9.3-12.9,5.3-19.8s-12.9-9.3-19.8-5.3s-9.3,12.9-5.3,19.8c1.1,1.9,2.6,3.5,4.3,4.7l-5,24.9   c-0.6,2.9,1.3,5.7,4.1,6.2c0.3,0.1,0.7,0.1,1,0.1H132c2.9,0,5.3-2.4,5.3-5.3c0-0.4,0-0.8-0.1-1.2L131.5,95.2z" class="st2"/></g><g id="Capa_15"><g id="Capa_2_00000047021906993055362650000017659765725723699084_"><path data-cppathid="10015" d="M171.8,101.6l-2.1-2.2c-1.8-2-4.9-2.2-6.9-0.3l-0.3,0.3l-45,48.4l-20-21.7c-1.8-2-4.9-2.2-6.9-0.4l-0.4,0.4    l-2.5,2.7l29.4,31.9L171.8,101.6z" class="st3"/><path data-cppathid="10016" d="M171.8,101.6L117,160.7l-29.4-31.9l-2.7,2.9c-2,2.2-2,5.6,0,7.9l28.8,31.2c1.7,1.9,4.5,2.2,6.5,0.7    c0.3-0.2,0.6-0.5,0.9-0.8l53.7-57.8c2-2.2,2-5.6,0-7.9L171.8,101.6z" class="st4"/></g></g></svg>