<?xml version="1.0" encoding="UTF-8"?>
<svg xmlns="http://www.w3.org/2000/svg" onmouseup="{ if(window.parent.document.onmouseup) window.parent.document.onmouseup(arguments[0]);}" xml:space="preserve" style="enable-background:new 0 0 512 478;" viewBox="0 0 512 478" y="0px" x="0px" id="Layer_1" version="1.1" xmlns:xlink="http://www.w3.org/1999/xlink"><style type="text/css">
	.st0{fill:#333E48;}
	.st1{fill:none;stroke:#00FFD3;stroke-width:3;stroke-linecap:round;stroke-linejoin:round;stroke-miterlimit:10;}
	.st2{fill:#0069A7;}
	.st3{fill:#232323;}
	.st4{fill:#004F77;}
	.st5{fill:#FFFFFF;}
	.st6{fill:#F7A800;}
	.st7{fill:#FFAD97;}
	.st8{fill:#FFC5B3;}
	.st9{fill:#B0E0F7;}
	.st10{fill:#96D2EA;}
	.st11{fill:#5FB5C9;}
	.st12{fill:#E8B470;}
	.st13{fill:#AFC7CE;}
	.st14{opacity:0.2;}
	.st15{fill:#C3D8E0;}
	.st16{fill:#00FFFF;}
	.st17{fill:url(#SVGID_1_);}
	.st18{fill:#48B4BE;}
	.st19{fill:#00797F;}
	.st20{fill:#0099A8;}
	.st21{fill:#00BAB5;}
	.st22{opacity:0.8182;fill:url(#SVGID_00000098196976672990069900000012509100625295153040_);enable-background:new    ;}
	.st23{fill:#BCBEC0;}
	.st24{fill:#DCEAEF;}
	.st25{fill:#8770B8;}
	.st26{fill:#87A7AF;}
	.st27{opacity:0.2;fill:#00FFFF;enable-background:new    ;}
	.st28{fill:#2672AB;}
	.st29{fill:#EFC130;}
	.st30{fill:#24126A;}
	.st31{fill:#00767C;}
	.st32{fill:url(#SVGID_00000015318748811378366720000010821878639523765432_);}
	.st33{fill:#015B5B;}
	.st34{fill:#515151;}
	.st35{fill:#2D2D2D;}
	.st36{fill:#160A5B;}
	.st37{fill:#C47E02;}
	.st38{fill:#FCD1C5;}
	.st39{fill:#F0F6FF;}
	.st40{fill:#E2B1A6;}
	.st41{fill:#263649;}
	.st42{clip-path:url(#SVGID_00000060013088841261116560000002838319711993184949_);fill:#334659;}
	.st43{clip-path:url(#SVGID_00000095307707472182437090000007681244397706750887_);fill:#263649;}
	.st44{fill:#5E838C;}
	.st45{opacity:0.5;fill:url(#SVGID_00000135676492982770246320000010086957256708523904_);enable-background:new    ;}
	.st46{opacity:0.63;fill:#2D2D2D;enable-background:new    ;}
	.st47{fill:#00537C;}
	.st48{fill:#40AAD3;}
	.st49{fill:#0F8ECE;}
	.st50{opacity:0.5;fill:#03336E;enable-background:new    ;}
	.st51{fill:#F9BE79;}
	.st52{fill:#FAD2AA;}
	.st53{fill:#0FBAB8;}
	.st54{fill:#97CBD2;}
	.st55{fill:url(#SVGID_00000037663511857147202210000016666689247279959708_);}
	.st56{fill:#F2EEE7;}
	.st57{fill:url(#SVGID_00000024695213867729221830000001932683699829939339_);}
	.st58{fill:#45108A;}
	.st59{opacity:0.8;fill:url(#SVGID_00000053525589833156311190000010254681744057579964_);enable-background:new    ;}
	.st60{fill:#FFCC71;}
</style><g><rect data-cppathid="10000" height="478" width="512" class="st0"/></g><g><g><g><path data-cppathid="10001" d="M229.6,431.7L26.2,314.2c-9.8-5.7-9.8-19.8,0-25.4l210.5-121.5c12-6.9,26.7-6.9,38.7,0l210.5,121.5     c9.8,5.7,9.8,19.8,0,25.4L282.4,431.7C266.1,441.1,246,441.1,229.6,431.7z" class="st1"/><g><path data-cppathid="10002" d="M226.5,156.9c-3.5-8.8-5.4-19.1-5.4-19.1l-1.4-3.8c0,0,5.5-1.9,8.9,6.1c1.5,3.5,2.7,11.7,3.4,14.7      c2.6,0.4,8.6,0.4,9.3,1.2c1.1,1.4-1.1,5.5-1,6.1c-1.8,0.9-9.6,2.5-12.4,1C226.6,162.4,227.8,158.5,226.5,156.9z" class="st2"/><path data-cppathid="10003" d="M231.2,237.3c0,0,1.6,1.7,3.7,3.8c2,1.9,2.6,2.5,4.4,4.2c1.1,1,0.2,2-1.8,1.9c-1.8-0.1-5.8-0.9-8.1-1.7      c-1.6-0.6-4.5-2.2-6-3.1c-1.5-0.9-1.8-2.3-1.8-2.3v-3.2L231.2,237.3z" class="st3"/><path data-cppathid="10004" d="M209.2,248.2c0,0,0.4,3.3,0.6,7.4c0.2,4.1-0.4,7.7-1.6,8.2c-1.3,0.5-4.8,0.4-6.9-5.3      c-2-5.7-0.8-11.2-0.8-11.2L209.2,248.2z" class="st3"/><path data-cppathid="10005" d="M202,186.3c-0.8-11.7,5.7-17.8,5.7-17.8c-0.5-3.9,17.8,1.6,17.8,1.6s3.9,21.2,5.6,32.3      c1.9,12.7,2.2,34.6,2.2,34.6s-1.3,3.5-6.1,3.4c-3.6,0-6.6-3-6.6-3l-0.4-26.4l-4.9-18.1c0,0,0.1,18-2,25.3      c-3.1,10.9-2.1,31.8-2.1,31.8s-6.1,2.2-10.3,0.1c-4.2-2.1-3.4-4.4-3.4-4.4s-1.4-17.9,4-30.1C201.9,206.4,202.3,191.6,202,186.3z      " class="st4"/><path data-cppathid="10006" d="M221.9,135.5c0,0,6.3,5.1,7.1,12.3c0.4,3.6-0.7,15.6-0.8,23.5c0,4.4,1.7,16.8,1.7,16.8s-2.2,1.5-5.8,3.2      c0-3.1-1.2-8.1-1.2-8.1s-0.4,5.5-0.4,8.6c-1.9,0.6-4.1,1-6.4,0.9c-5.8,0-14.5-4-14.5-4s-1.1-7.7,2.6-20.7      c2.2-7.8-2.7-21-2.4-23.1c0.5-3.5,8.5-7.4,8.5-7.4S216,133.1,221.9,135.5z" class="st2"/><path data-cppathid="10007" d="M219.2,134.8c0,0,3.4,2.7,5.9,6.1c1.4,2,1.9,3.3,1.9,3.3l-1.9,1.8l2.6,1.3c0,0,1.5,9.9-0.5,13.3      s-4.4,11.7-4.4,11.7s-2.8-8.6-4-10.8c-1.2-2.1-5.8-8.1-5.8-8.1l2.3-3.5l-3.8-1.2c0,0-5.3-6.7-4.8-8.7c1-3.8,4.6-4.5,4.6-4.5      L219.2,134.8z" class="st4"/><path data-cppathid="10008" d="M222.6,141.6c0,0,1.5,4.5,2.3,8.6c0.8,4.1-2.2,17.8-2.2,17.8s-1.3-13.3-4-17.1c-3.2-4.5-7.3-8.8-7.3-8.8      S219.9,140.6,222.6,141.6z" class="st5"/><path data-cppathid="10009" d="M221.1,142.5l0.4,3.5c0,0,2.1,2,2.5,4.4s0,11.3,0,11.3l-1.2,6.3l-0.5-4.2c0,0-0.9-5.4-1.8-8.8      c-0.1-1.5-0.2-2.7-0.4-3c-0.6-1.7-0.7-5.1-0.7-5.1l-2.2-2.6l2.1-2.4L221.1,142.5z" class="st6"/><g><path data-cppathid="10010" d="M219.7,135.2l0.4,5.5c0,0-0.7,1.1-2.6,2.7c-2-0.6-6.6-4.9-6.6-4.9l1.5-8.6L219.7,135.2z" class="st7"/><path data-cppathid="10011" d="M211.6,131.3c2,3.2,6.5,5.1,8.5,5.4c3.6,0.6,7.5-9.3,3.4-15.4c-3.9-5.8-9.9-3.5-12-0.9       C209.9,122.5,209.4,127.7,211.6,131.3z" class="st8"/></g><path data-cppathid="10012" d="M219.8,137.4l-0.5,4.5l3.7,1.5C223,143.4,223.4,138.6,219.8,137.4z" class="st9"/><path data-cppathid="10013" d="M211.1,136.7c0,0,1.1,2.1,3.8,3.6c1.3,0.8,4.5,1.5,4.5,1.5L218,146c0,0-4.3-1.8-6.5-3.5      C211.5,142.5,208.6,139.2,211.1,136.7z" class="st9"/><path data-cppathid="10014" d="M199.3,163.9c0,0,6.8,3.1,14.2,8.5c7.5,5.3,9.4,8.3,9.3,9.9c-0.1,1.6-5.7,8.3-7.7,7.5      c-1.2-1.5-4-9.2-7.4-12.3c-3.4-3.1-15.4-8.3-17.4-8.9c-2-0.5-5.4-1.9-3-5.7C189.7,159,192.3,160.1,199.3,163.9z" class="st9"/><path data-cppathid="10015" d="M222.8,181.6c0.8,1.9-0.3,5.3-3.5,7.5c-3.2,2.2-5.8,1.2-4.2-2.9C216.8,182,221.9,179.2,222.8,181.6z" class="st10"/><g><path data-cppathid="10016" d="M223.2,170.7c0,0-4.5-5.3-11.9-8c-7.4-2.7-14.3-4.3-14.3-4.3s-2.3,1-1.9,4.3c0.4,3.3,1,2.8,1,2.8       s4.8,0.6,9.8,3c5,2.4,8.9,6.1,11.8,9.4C220.4,177.4,223.6,174.5,223.2,170.7z" class="st10"/><path data-cppathid="10017" d="M223.2,170.7c1.2,1.5,0.6,3.9-1.8,5.8c-2.4,1.9-3.2,2.5-3.8,1.4c-0.6-1.2,0.1-3.7,1.3-5.2       C220.1,171.2,222,169.2,223.2,170.7z" class="st11"/></g><path data-cppathid="10018" d="M201.5,166.8c-1.5,2.5-1.9,7-5.5,6.5c-2.2-0.3-3.9-4.8-3.6-7c0.6-5.5,2.1-9.5,3.8-14.3      c2.4-6.6,4.3-10.2,8-10.1c1.5,1.2,2.7,6.6,1.6,11.8C205,157.1,201.5,166.8,201.5,166.8z" class="st2"/><path data-cppathid="10019" d="M208.7,178.7c0,0,2.4,2.4,1.4,5.7c-1.1,3.4-3.6,3.6-4.9,3.9c-1.4,0.3-1.4-0.6-0.8-1.1      c0.6-0.6,1.8-0.9,1.8-0.9s-1.8-2.2-1.6-4.9C204.8,179.7,208.7,178.7,208.7,178.7z" class="st8"/><path data-cppathid="10020" d="M200.6,163.8c0,0,2.5,4.8,4.2,7.3c1.7,2.4,5.1,6.9,5.1,6.9s0,1.8-1.7,3.8c-1.9,2.1-4.3,1.9-4.3,1.9      s-7.8-7.7-9.6-11.3C192.6,168.6,200.6,163.8,200.6,163.8z" class="st2"/><path data-cppathid="10021" d="M215.4,116.3c2.9-0.4,5.1,0.2,6.7,1.3l0,0c0,0,0,0,0,0c0.4,0.3,2,1.5,3.1,3.6c1,2-1,5.1-1,5.1      s-2.3-0.3-5.9-1.6c-0.1,0-0.1,0-0.1,0c-0.7,3.2-3.9,4.8-4.2,4.7c-0.4-1.4-1-1.7-1.6-1.1c-0.8,0.7-0.7,3.2-0.7,3.2      s-2.9-2.5-2.9-6.7C208.7,122.1,210.7,116.9,215.4,116.3z" class="st3"/><g><path data-cppathid="10022" d="M229.2,168.4l9.7-16.7c0.6-1,1.9-2.2,2.9-2.6l8.9-5.2c0.4-0.2,0.7-0.2,0.9-0.1l0,0l0.9,0.5l-0.8,0.7       l-0.2-0.2c0,0,0,0.1-0.1,0.1l-9.7,16.7c-0.6,1-1.9,2.2-2.9,2.6l-8.4,4.9l-0.4,0.9l-1-0.5l0,0       C228.8,169.4,228.9,169,229.2,168.4z" class="st12"/><path data-cppathid="10023" d="M252.4,145.5l-9.7,16.7c-0.6,1-1.9,2.2-2.9,2.6l-8.9,5.2c-1,0.4-1.3,0-0.8-1l9.7-16.7       c0.6-1,1.9-2.2,2.9-2.6l8.9-5.2C252.6,144,252.9,144.5,252.4,145.5z" class="st6"/></g><path data-cppathid="10024" d="M247,154.8c-1.8-0.4-4.3,2.7-3.9,4.6c0.4,1.9,3.2,1,4-0.9C248,156.3,248.6,155.1,247,154.8z" class="st8"/><g><path data-cppathid="10025" d="M212,120.3c-3.8,1.5-4.7,4.5-1.9,6.7c2.8,2.2,8.1,2.8,12,1.3c3.8-1.5,4.7-4.5,1.9-6.7       S215.8,118.8,212,120.3z" class="st5"/><path data-cppathid="10026" d="M225.6,124.8c0,0,1.6-9.8-6.9-11.1c-9.9-1.5-10.2,10.2-10.2,10.2L225.6,124.8z" class="st5"/><path data-cppathid="10027" d="M225.7,123.4c0,0,4.1,3.9-0.9,6c-8.5,3.7-15.4-3.1-15.4-3.1s9,2.1,13.6,0.1       C226.1,125.1,225.7,123.4,225.7,123.4z" class="st13"/><path data-cppathid="10028" d="M217.4,114.3c1.3,0.8,1.9,1.6,2.6,3.5c0.8,1.8,0.1,3.6-1.7,4.6c-1.8,1.1-3.1,2.9-3.1,2.9       s-0.3-2.1,1.3-3.4c1.6-1.3,3-2,2.1-4.1c-1.1-2.6-4.8-3.6-4.8-3.6S215.2,113.1,217.4,114.3z" class="st13"/><path data-cppathid="10029" d="M218.7,113.8c0,0,2.4,1,3.4,2.5c0.5,0.7,0.4,3.3,0.9,3.9c0.4,0.6,2.7,2.4,2.7,2.4s0.7-0.6-0.2-1.8       c-0.9-1.2-1.9-1.3-2-3C223.5,116.7,224.1,114.1,218.7,113.8z" class="st13"/></g></g><g class="st14"><path data-cppathid="10030" d="M272.6,433.3l-75.9-43.8c-2.5-1.4-2.2-3.9,0.7-5.6l34.9-20.1c2.9-1.7,7.2-1.8,9.7-0.4l75.9,43.8      c2.5,1.4,2.2,3.9-0.7,5.6l-34.9,20.1C279.4,434.6,275.1,434.8,272.6,433.3z"/></g><g><g><g><g class="st14"><path data-cppathid="10031" d="M99.8,337.6l-73-42c-1.3-0.7-1.1-2,0.4-2.9l76.3-44.2c1.5-0.8,3.7-0.9,5-0.2l73,42c1.3,0.7,1.1,2-0.4,2.9l-76.3,44.2         C103.3,338.2,101,338.3,99.8,337.6z"/></g><path data-cppathid="10032" d="M182.3,267.5l-51.5-21.7l-22.4-12.9c-1.3-0.7-3.5-0.6-5,0.2l-63.6,36.9l-13.9,0.3v5.2h0        c0,0.5,0.3,0.9,0.8,1.3l73,42c1.3,0.7,3.5,0.6,5-0.2l76.3-44.2c0.8-0.4,1.2-1,1.2-1.5h0L182.3,267.5L182.3,267.5z" class="st15"/><path data-cppathid="10033" d="M181.1,268.3l-76.3,44.2c-1.5,0.8-3.7,0.9-5,0.2l-73-42c-0.4-0.2-0.7-0.5-0.8-0.9c-0.2,0.6,0,1.2,0.8,1.6        l73,42c1.3,0.7,3.5,0.6,5-0.2l76.3-44.2c1-0.6,1.4-1.3,1.1-2C182.1,267.5,181.7,267.9,181.1,268.3z" class="st5"/><g><path data-cppathid="10034" d="M99.8,313.5l-73-42c-1.3-0.7-1.1-2,0.4-2.9l76.3-44.2c1.5-0.8,3.7-0.9,5-0.2l73,42         c1.3,0.7,1.1,2-0.4,2.9l-76.3,44.2C103.3,314.1,101,314.2,99.8,313.5z" class="st5"/></g></g></g><path data-cppathid="10035" d="M173.4,331.5c-1.7,0-3.5-0.5-5-1.5l-14.1-9.5c-2.4-1.6-3.9-4.4-3.9-7.3v-13.5c0-2.6-1.4-5.1-3.6-6.4      l-36.2-21.7c-0.3-0.2-0.4-0.6-0.2-0.9c0.2-0.3,0.6-0.4,0.9-0.2l36.2,21.7c2.6,1.6,4.3,4.5,4.3,7.5v13.5c0,2.5,1.2,4.8,3.3,6.2      l14.1,9.5c2.5,1.7,5.8,1.7,8.3,0.1l43.9-25.2c3.1-2,7.1-2.1,10.3-0.2l81.4,46.2c1.1,0.6,2.5,0.6,3.6-0.1l106.2-64.9      c1.1-0.7,1.8-2,1.8-3.3v-10.2c0-1.4-0.8-2.7-2-3.4l-12.3-6.9c-0.3-0.2-0.4-0.6-0.3-0.9s0.6-0.4,0.9-0.3l12.3,6.9      c1.7,0.9,2.7,2.7,2.7,4.6v10.2c0,1.8-0.9,3.4-2.4,4.4l-106.2,64.9c-1.5,1-3.4,1.1-5,0.2L231,304.8c-2.8-1.6-6.2-1.5-9,0.2      l-43.9,25.2C176.7,331.1,175.1,331.5,173.4,331.5z" class="st6"/><g><g><g><g><g><g class="st14"><path data-cppathid="10036" d="M98.9,299.5l-48.7-28.1c-1.8-1-1.6-2.8,0.5-4l51.7-29.9c2.1-1.2,5.2-1.3,7-0.3l48.7,28.1c1.8,1,1.6,2.8-0.5,4            l-51.7,29.9C103.8,300.4,100.7,300.5,98.9,299.5z"/></g><path data-cppathid="10037" d="M159.2,177.9l-18.5,0.4l-31.5-18.2c-1.8-1-4.9-0.9-7,0.3L68.6,180L49,180.4v66.4h0           c0,0.7,0.4,1.3,1.2,1.8l48.7,28.1c1.8,1,4.9,0.9,7-0.3l51.7-29.9c1.1-0.6,1.6-1.4,1.7-2.1h0V177.9L159.2,177.9z" class="st15"/><path data-cppathid="10038" d="M98.9,210.3l-48.7-28.1c-1.8-1-1.6-2.8,0.5-4l51.7-29.9c2.1-1.2,5.2-1.3,7-0.3l48.7,28.1           c1.8,1,1.6,2.8-0.5,4L105.9,210C103.8,211.2,100.7,211.3,98.9,210.3z" class="st5"/><path data-cppathid="10039" d="M102.6,202.4c-0.9,0-1.8-0.2-2.5-0.6l-34.6-20c-0.8-0.4-1.2-1.1-1.2-1.8c0-0.8,0.6-1.6,1.5-2.2           l36.6-21.2c1.7-1,4.1-1.1,5.6-0.2l34.6,20c0.8,0.4,1.2,1.1,1.2,1.8c0,0.8-0.6,1.6-1.5,2.2l-36.6,21.2           C104.8,202.1,103.6,202.4,102.6,202.4z M105.6,157.2c-0.9,0-1.8,0.2-2.5,0.6L66.5,179c-0.5,0.3-0.9,0.7-0.9,1           c0,0.3,0.3,0.6,0.5,0.7l34.6,20c1.1,0.6,3,0.5,4.3-0.2l36.6-21.2c0.5-0.3,0.9-0.7,0.9-1c0-0.3-0.3-0.6-0.5-0.7l-34.6-20           C107,157.3,106.3,157.2,105.6,157.2z" class="st16"/></g></g><linearGradient gradientTransform="matrix(1 0 0 -1 0 478)" y2="238.6419" x2="91.7008" y1="266.6224" x1="42.0937" gradientUnits="userSpaceOnUse" id="SVGID_1_"><stop style="stop-color:#3919BB" offset="0"/><stop style="stop-color:#6507FA" offset="1"/></linearGradient><path data-cppathid="10040" d="M56,238.9L55.9,199c0-1.5,1.2-2,2.6-1.1L95.3,219c1.5,0.8,2.7,2.7,2.7,4.2l0.1,39.9         c0,1.5-1.2,2-2.6,1.1l-36.7-21.1C57.2,242.3,56,240.4,56,238.9z" class="st17"/><path data-cppathid="10041" d="M56,238.9L55.9,199c0-1.5,1.2-2,2.6-1.1L95.3,219c1.5,0.8,2.7,2.7,2.7,4.2l0.1,39.9c0,1.5-1.2,2-2.6,1.1         l-36.7-21.1C57.2,242.3,56,240.4,56,238.9z" class="st2"/><path data-cppathid="10042" d="M61.4,241.2c-1.5-0.8-2.7-2.7-2.7-4.2l-0.1-39.1l-0.1,0c-1.5-0.8-2.6-0.3-2.6,1.1l0.1,39.9         c0,1.5,1.2,3.3,2.7,4.2l36.7,21.1c1.5,0.8,2.6,0.3,2.6-1.1v-0.8L61.4,241.2z" class="st4"/></g><g><path data-cppathid="10043" d="M66.8,227.8c-0.6-0.3-1-0.1-1,0.6v3.8c0,0.6,0.4,1.4,1,1.7c0.6,0.3,1,0.1,1-0.6v-3.8         C67.7,228.8,67.3,228.1,66.8,227.8z" class="st6"/><path data-cppathid="10044" d="M71,230.7c-0.6-0.3-1-0.1-1,0.6v3.3c0,0.6,0.4,1.4,1,1.7c0.6,0.3,1,0.1,1-0.6v-3.3         C72,231.8,71.6,231,71,230.7z" class="st16"/><path data-cppathid="10045" d="M75.3,229.5c-0.6-0.3-1-0.1-1,0.6v7c0,0.6,0.4,1.4,1,1.7c0.6,0.3,1,0.1,1-0.6v-7         C76.3,230.6,75.8,229.8,75.3,229.5z" class="st6"/><path data-cppathid="10046" d="M79.6,227.9c-0.6-0.3-1-0.1-1,0.6v11c0,0.6,0.4,1.4,1,1.7c0.6,0.3,1,0.1,1-0.6v-11         C80.6,229,80.1,228.3,79.6,227.9z" class="st16"/><path data-cppathid="10047" d="M83.8,231.6c-0.6-0.3-1-0.1-1,0.6v9.8c0,0.6,0.4,1.4,1,1.7c0.6,0.3,1,0.1,1-0.6v-9.8         C84.8,232.6,84.4,231.9,83.8,231.6z" class="st6"/><path data-cppathid="10048" d="M88.1,226.7c-0.6-0.3-1-0.1-1,0.6v17.1c0,0.6,0.4,1.4,1,1.7c0.6,0.3,1,0.1,1-0.6v-17.1         C89.1,227.8,88.6,227,88.1,226.7z" class="st16"/></g><path data-cppathid="10049" d="M67.7,225.9c0,0.6-0.4,0.9-1,0.6c-0.5-0.3-1-1.1-1-1.7c0-0.6,0.4-0.9,1-0.6        C67.3,224.5,67.7,225.2,67.7,225.9z" class="st6"/><ellipse data-cppathid="10050" ry="1.4" rx="0.8" cy="221.8" cx="66.8" class="st5" transform="matrix(0.866 -0.5001 0.5001 0.866 -101.9491 63.1075)"/></g><g><g><path data-cppathid="10051" d="M149.1,242.9l-33.9,19.6c-1.1,0.6-2,0-2-1.5v-41.4c0-1.5,0.9-3.2,2-3.8l33.9-19.6c1.1-0.6,2,0,2,1.5         v41.4C151.1,240.5,150.2,242.2,149.1,242.9z" class="st2"/><path data-cppathid="10052" d="M149.1,196.2l-0.5,0.3v41.2c0,1.5-0.9,3.2-2,3.8l-33.4,19.3v0.2c0,1.5,0.9,2.1,2,1.5l33.9-19.6         c1.1-0.6,2-2.3,2-3.8v-41.4C151.1,196.2,150.2,195.6,149.1,196.2z" class="st4"/></g><g><g><g><g><g><g><path data-cppathid="10053" d="M142,224.4c0,6.5-4.6,14.4-10.2,17.6c-5.6,3.2-10.2,0.6-10.2-5.9c0-6.5,4.6-14.4,10.2-17.6              C137.4,215.3,142,217.9,142,224.4z" class="st18"/><g><path data-cppathid="10054" d="M132.9,242.3l3.6-5.9c1.2-1.4,2.2-3.1,2.9-4.8l3.9-6.5l-4.9-2.8l0,0c-1.3-0.9-3.1-0.8-5.2,0.4               c-3.9,2.3-7.1,7.8-7.1,12.4c0,2.2,0.8,3.8,2,4.6l0,0l0,0c0,0,0,0,0,0L132.9,242.3z" class="st19"/><path data-cppathid="10055" d="M145.1,229.5c0,4.5-3.2,10.1-7.1,12.4c-3.9,2.3-7.1,0.4-7.1-4.1s3.2-10.1,7.1-12.4               C141.9,223.1,145.1,225,145.1,229.5z" class="st20"/><path data-cppathid="10056" d="M142.7,230.9c0,3-2.1,6.6-4.7,8.1c-2.6,1.5-4.7,0.3-4.7-2.7s2.1-6.6,4.7-8.1               C140.6,226.7,142.7,227.9,142.7,230.9z" class="st16"/><path data-cppathid="10057" d="M140.1,227.6c0.4,0.6,0.6,1.4,0.6,2.3c0,3-2.1,6.6-4.7,8.1c-0.7,0.4-1.4,0.6-2.1,0.6               c0.8,1.2,2.3,1.4,4.1,0.4c2.6-1.5,4.7-5.1,4.7-8.1C142.7,228.8,141.6,227.6,140.1,227.6z" class="st21"/></g></g></g></g></g></g></g></g></g></g><g><g><linearGradient gradientTransform="matrix(1 0 0 -1 0 478)" y2="238.455" x2="367.4291" y1="219.6787" x1="356.2304" gradientUnits="userSpaceOnUse" id="SVGID_00000178917740692353201660000012167219549505089715_"><stop style="stop-color:#FFFFFF" offset="0"/><stop style="stop-color:#000000" offset="1"/></linearGradient><path data-cppathid="10058" d="       M404.3,251.7l-42.6-25c-3.8-2.2-10.5-1.9-14.9,0.6l-28,10.8c0.3,0.2,0.5,0.4,0.9,0.6l63.4,36.8c0.9,0.5,1.9,0.9,3,1.1       l17.2-16.4C407.6,257.7,408.1,253.9,404.3,251.7z" style="opacity:0.8182;fill:url(#SVGID_00000178917740692353201660000012167219549505089715_);enable-background:new    ;"/></g><g><path data-cppathid="10059" d="M430,290.5l-155.6-89.9c-8-4.6-14.4-16.9-14.4-27.5V54c0-10.6,6.4-15.5,14.4-10.9L430,133.1       c8,4.6,14.4,16.9,14.4,27.5v119C444.4,290.2,438,295.1,430,290.5z" class="st2"/><path data-cppathid="10060" d="M431.9,282.2l-153.4-88.6c-6.4-4.1-10.4-12.2-10.4-20.5V53.3c0-2,2.1-3.2,3.8-2.2       c0.2,0.1,0.4,0.2,0.5,0.3L426,140.1c7.6,4.4,10.4,12.2,10.4,20.5V280c0,2.1-2.3,3.4-4.1,2.4C432.1,282.3,432,282.3,431.9,282.2       z" class="st20"/><path data-cppathid="10061" d="M426,140.1L272.4,51.3c-0.1-0.1-0.3-0.1-0.5-0.3c-1.7-1-3.8,0.2-3.8,2.2v119.8c0,8.3,4,16.5,10.4,20.5       l153.4,88.6c0.1,0,0.2,0.1,0.3,0.2c1.8,1,4.1-0.3,4.1-2.4V160.6C436.3,152.3,433.6,144.5,426,140.1z M434.7,280       c0,0.7-0.6,1.1-1.1,1.1c-0.2,0-0.4-0.1-0.6-0.2l-153.8-88.8c-5.8-3.7-9.6-11.2-9.6-19.1V53.3c0-0.6,0.5-0.9,0.9-0.9       c0.2,0,0.3,0,0.5,0.1l154.1,89c7.9,4.6,9.6,12.9,9.6,19.1L434.7,280L434.7,280z" class="st23"/><path data-cppathid="10062" d="M434.1,130.9L278.5,41c-3.1-1.8-6.1-2.2-8.4-1.2c-0.3,0.1-4.3,2.3-4.6,2.4c0,0,0,0,0,0c2.5-1.2,5.6-1,9,1       L430,133.1c8,4.6,14.4,16.9,14.4,27.5v119c0,6.6-2.5,11-6.3,12.3c0.3,0,0.7-0.1,1.3-0.4c0.2-0.1,4.5-2.6,4.7-2.7       c2.7-1.9,4.4-5.9,4.4-11.3v-119C448.5,147.8,442.1,135.5,434.1,130.9z" class="st5"/></g></g><g><g><g class="st14"><g><g><polygon data-cppathid="10063" points="297.9,333.2 192.1,272.1 302.5,209 408.2,270.1         "/></g></g></g><path data-cppathid="10064" d="M302,91.8c0,1.2,0,85-0.1,86.2c-1.7,43.7-26.1,45.1-45.4,55.8c0,0,75.8,44,91.6,53.1l-0.1,0       c0,3.5,0.9,6.2,2.5,8c2.7,3,7.1,3.3,12.2,0.4c21.7-12,40.2-21,41.6-51.5c0-0.6,0-92.2,0-92.8L302,91.8z" class="st24"/><path data-cppathid="10065" d="M302.8,212.4c-0.7,1.2-1.4,2.2-2.1,3.3l21.8,12.4c0.8-1,1.4-2.1,2.1-3.3L302.8,212.4z" class="st20"/><path data-cppathid="10066" d="M290,226.7c-1.2,0.9-2.4,1.7-3.6,2.5l44,25.4c1.3-0.8,2.5-1.6,3.7-2.4L290,226.7z" class="st20"/><path data-cppathid="10067" d="M311,265.2l4.4-2.2l-44.8-25.8c-1.6,0.7-3.3,1.5-4.6,2.1L311,265.2z" class="st20"/><path data-cppathid="10068" d="M311.3,174c0,2,0,3.4,0,4.3l41.3,23.8c0-1.3,0-2.8,0-4.3L311.3,174z" class="st20"/><path data-cppathid="10069" d="M311.3,152.6c0,2,0,3.4,0,4.3l25.2,14.5c0-1.3,0-2.8,0-4.3L311.3,152.6z" class="st20"/><path data-cppathid="10070" d="M309.3,194.5c-0.3,1.3-0.6,2.6-0.9,3.9l28,16.2c0.2-1.3,0.3-2.7,0.3-4.2L309.3,194.5z" class="st20"/><path data-cppathid="10071" d="M311.2,178.2L311.2,178.2C311.2,178.2,311.2,178.2,311.2,178.2z" class="st25"/><path data-cppathid="10072" d="M334.6,286.8l4.9-2.1c-0.1-0.1-0.2-0.1-0.3-0.2L334.6,286.8z" class="st5"/><g><path data-cppathid="10073" d="M350.5,291L350.5,291c0-3.5-1.2-5.9-3.1-7.2l-104.8-60.4c-2.4-1.7-5.4-2-9.1,0.2l11.6,6.7        c0,3.1,1.2,5.1,3.1,5.9l104.6,60.5l-0.1-0.1C351.3,295.5,350.5,293.6,350.5,291z" class="st26"/><path data-cppathid="10074" d="M346.9,283.5l-104.2-60.1c-2.4-1.7-5.4-2-9.1,0.2c-0.9,0.5-1.8,1.2-2.7,1.9        c-14.7,11.1-21.9,35.8-34.1,42.6c0,0,86.7,50.2,96.4,55.8l-0.1,0c0,2.2,0.6,3.8,1.6,4.9c1.6,1.8,4.4,2.1,7.5,0.2        c13.6-7.6,22.7-39.5,39.3-45.6l0,0C343.5,282.6,345.4,282.7,346.9,283.5z" class="st15"/></g><path data-cppathid="10075" d="M293,323.7c0-1.9,0.4-3.8,1.2-5.8l-104.1-60.1l-1.4-0.8c-0.7,1.9-1.1,3.9-1.1,5.7c0,3.1,1.8,5.3,3.3,6.1       l104.6,60.5l-0.2-0.2C293.9,328.3,293,326.4,293,323.7z" class="st13"/><g><polygon data-cppathid="10076" points="346.8,150.9 346.8,160.6 385.5,182.9 385.5,173.1       " class="st5"/></g><g><polygon data-cppathid="10077" points="346.8,143.9 346.8,148.3 374.6,164.3 374.6,159.9       " class="st20"/></g><path data-cppathid="10078" d="M259.7,277.9l9.5,5.5c1.7-2.7,3.3-5.5,5.1-8.2l-9.5-5.5C263.1,272.4,261.4,275.2,259.7,277.9z M265.5,249       l-9.2-5.3c-2.1,2-4.1,4.4-6.1,7l9.1,5.2C261.3,253.4,263.3,251,265.5,249z M296.2,266.7c-2.1,2-4.1,4.4-6,7l9.5,5.5       c1.9-2.5,3.9-4.9,6.1-6.9L296.2,266.7z M279.9,289.5l9.4,5.4c1.7-2.7,3.3-5.5,5.1-8.2l-9.4-5.4       C283.3,284.1,281.6,286.8,279.9,289.5z M239.9,266.5l9.1,5.2c1.7-2.7,3.3-5.5,5.1-8.2l-9-5.2       C243.3,261,241.6,263.8,239.9,266.5z M285.7,260.6l-9.6-5.6c-2.1,2-4.1,4.4-6,7l9.5,5.5C281.4,265,283.5,262.7,285.7,260.6z        M219,254.4l10.2,5.9c1.7-2.7,3.3-5.5,5.1-8.2l-9.8-5.7C222.7,249.1,220.8,251.8,219,254.4z M245.8,237.6l-8.9-5.1c0,0,0,0,0,0       l-0.2,0.2l-0.2,0.2c-2,1.5-4.1,3.7-6.3,6.3l9.4,5.4C241.5,242,243.6,239.7,245.8,237.6z" class="st5"/><g><path data-cppathid="10079" d="M288.6,258.2c0.4-0.3,0.8-0.6,1.2-0.9l-9.6-5.5c-1.1,0.7-2.2,1.5-3.2,2.4l9.7,5.6        C287.3,259.2,287.9,258.7,288.6,258.2z" class="st20"/><path data-cppathid="10080" d="M225.7,244.9l9.8,5.6c0.7-1.1,1.4-2.1,2.1-3.1l-9.6-5.5C227.2,242.8,226.5,243.8,225.7,244.9z" class="st20"/><path data-cppathid="10081" d="M248.5,235.3c0.5-0.4,0.9-0.8,1.4-1.1l-9.2-5.3c-0.5,0.4-1.9,1.7-2.9,2.6l8.9,5.2        C247.4,236.3,247.9,235.8,248.5,235.3z" class="st20"/><path data-cppathid="10082" d="M288.2,276.5c-0.7,1-1.4,2.1-2.1,3.2l9.4,5.4c0.7-1.1,1.4-2.1,2.1-3.1L288.2,276.5z" class="st20"/><path data-cppathid="10083" d="M308.8,269.7c0.4-0.3,0.7-0.6,1.1-0.9l-9.4-5.4c-1.1,0.7-2.2,1.5-3.2,2.4l9.6,5.5        C307.4,270.7,308.1,270.2,308.8,269.7z" class="st20"/><path data-cppathid="10084" d="M246.1,256.6l9,5.2c0.7-1.1,1.4-2.1,2.1-3.1l-9.1-5.2C247.5,254.5,246.8,255.6,246.1,256.6z" class="st20"/><path data-cppathid="10085" d="M277.5,270.3l-9.5-5.5c-0.7,1-1.4,2.1-2.1,3.2l9.5,5.5C276,272.4,276.8,271.4,277.5,270.3z" class="st20"/><path data-cppathid="10086" d="M268.4,246.5c0.4-0.3,0.8-0.6,1.2-0.9l-9-5.2c-1.1,0.7-2.2,1.5-3.2,2.4l9.2,5.3        C267.1,247.5,267.8,247,268.4,246.5z" class="st20"/></g><path data-cppathid="10087" d="M357.3,186l-46-27c0,4.5,0,8,0,10.8l46,26.5V186z M277.4,234.2c0,0-0.2,0.1-0.5,0.2l75.4,43.5       c2.7-1.5,5.2-2.9,7.6-4.3l-75.1-43.3C282.3,231.7,279.8,233,277.4,234.2z M361.1,188.2v10.3l22.3,12.9c0-3,0-6.4,0-10.1       L361.1,188.2z M310.1,190.2l73.3,42.3c0-2.6,0-6.1,0-10.6l-72.3-41.7C310.9,183.8,310.6,187.1,310.1,190.2z M348.5,245.3       l-48.8-28.2c-1.7,2.3-3.6,4.3-5.5,6.1l48.9,28.2C345,249.6,346.9,247.5,348.5,245.3z M346.7,253.6l23,13.2       c2.2-1.8,4.2-3.8,5.9-5.9l-23.3-13.4C350.5,249.6,348.7,251.7,346.7,253.6z M357.3,238.6l23.3,13.4c1-2.6,1.8-5.5,2.2-8.7       l-22.9-13.2C359.2,233.2,358.4,236,357.3,238.6z M356.1,227.9l-48.2-27.8c-0.9,3-1.9,5.7-3.1,8.2l48.6,28       C354.6,233.8,355.4,231,356.1,227.9z" class="st5"/><polygon data-cppathid="10088" points="374.6,189 361.1,181.3 361.1,185.5 374.6,193.3      " class="st20"/><path data-cppathid="10089" d="M355.2,243.1c-0.6,1.2-1.3,2.3-2,3.3l16.5,9.4c0.8-1,1.4-2.1,2.1-3.3L355.2,243.1z" class="st20"/><path data-cppathid="10090" d="M360.6,224.3c-0.1,1.4-0.3,2.8-0.5,4.1l14.3,8.3c0.2-1.3,0.3-2.7,0.3-4.2L360.6,224.3z" class="st20"/><polygon data-cppathid="10091" points="380.2,200.3 378.2,202.2 382.3,204.6      " class="st20"/><polygon data-cppathid="10092" points="380.2,207.6 382.3,205.7 378.2,203.3      " class="st20"/></g><g><ellipse data-cppathid="10093" ry="19.7" rx="11.4" cy="138.4" cx="325.8" class="st13" transform="matrix(0.8633 -0.5047 0.5047 0.8633 -25.2995 183.3575)"/><path data-cppathid="10094" d="M331,145.9c-0.8-0.7-1.5-1.5-2.1-2.3l0,0h0c0,0,0,0,0,0c0,0,0,0,0,0l0,0c0,0,0,0,0,0       c-0.2-0.3-0.4-0.6-0.6-0.9c-0.5-0.8-0.5-1.6,0-1.9c0.6-0.3,1.1-0.9,1.4-1.6c0.5,0.1,0.8-0.2,0.9-0.8c0.1-0.9-0.1-1.3-0.5-1.7       c0,0,0-1.2,0-2.8c0-1.6-1.7-5.5-5.4-6.2c-3.7-0.7-3.5,0-3.5,4c-0.4-0.1-0.7,0.2-0.5,1.1c0.1,0.7,0.4,1.4,0.9,1.9       c0.3,1.1,0.8,2.2,1.4,3.2c0.4,0.8,0.5,1.6,0,1.8c-0.2,0.1-0.4,0.2-0.6,0.2l0,0l0,0c-0.6,0.2-1.4,0.1-2.1-0.1       c-1.1-0.3-2,0.1-2.3,1.2c1.9,3.6,4.7,6.7,7.8,8.5c3,1.7,5.7,1.9,7.6,0.7C333.1,148.6,332.2,146.9,331,145.9z" class="st20"/></g><polygon data-cppathid="10095" points="315.4,164.5 315.4,169.2 353.3,191.6 353.3,186.6     " class="st13"/><polygon data-cppathid="10096" points="349.2,155.1 349.2,159.9 383,179.6 383,174.6     " class="st13"/><polygon data-cppathid="10097" points="312.8,183.9 312.4,188.9 377.9,226.7 377.9,221.7     " class="st13"/><polygon data-cppathid="10098" points="363.8,192.6 363.8,197.3 375.5,204.4 375.5,199.5     " class="st13"/><polygon data-cppathid="10099" points="362.3,234.6 361.1,238.6 374,246.4 375.4,242.3     " class="st13"/><polygon data-cppathid="10100" points="309.4,203.5 307.9,207.6 350.3,232.4 352.1,228     " class="st13"/><polygon data-cppathid="10101" points="301,220 298,223.6 340.5,248.1 343.2,244.2     " class="st13"/></g><g><ellipse data-cppathid="10102" ry="45.6" rx="25" cy="178.3" cx="334.8" class="st27" transform="matrix(0.8288 -0.5596 0.5596 0.8288 -42.4531 217.8915)"/><g><path data-cppathid="10103" d="M393.2,267.3c1.7,3.1,0.5,6.9-2.6,8.6c-3.1,1.7-6.9,0.5-8.6-2.6c-1.7-3.1-0.5-6.9,2.6-8.6       C387.7,263.1,391.5,264.2,393.2,267.3z" class="st4"/><path data-cppathid="10104" d="M373.1,227.4l-13.7,7.4l20.5,37.8h0c0,0,0,0,0,0.1c1.2,2.2,5.2,2.3,9,0.3c3.8-2,5.9-5.5,4.7-7.7       c0,0,0,0,0-0.1h0L373.1,227.4z" class="st2"/><path data-cppathid="10105" d="M373.1,227.4c1.2,2.2-0.9,5.7-4.7,7.7c-3.8,2-7.8,1.9-9-0.3c-1.2-2.2,0.9-5.7,4.7-7.7       C367.9,225.1,372,225.2,373.1,227.4z" class="st28"/><path data-cppathid="10106" d="M364.1,217.4l-8.2,4.4l5.8,10.8l0,0c0,0,0,0,0,0c0.7,1.3,3.1,1.4,5.4,0.2s3.5-3.3,2.8-4.6c0,0,0,0,0,0l0,0       L364.1,217.4z" class="st4"/></g><g><g><path data-cppathid="10107" d="M341.1,130.8c-10.2-5.9-19.4-6.5-26.1-2.9c-0.2,0.1-9.9,5.5-10.2,6c6.9-5.2,17-5.1,28.4,1.4        c20.7,11.9,37.4,40.9,37.4,64.6c0,12.1-4.4,20.5-11.4,24.3c0.5-0.1,1.1-0.4,1.8-0.8c0.2-0.1,6.8-4.1,7-4.2        c6.5-4,10.5-12.2,10.5-23.8C378.5,171.6,361.8,142.7,341.1,130.8z" class="st6"/></g></g><path data-cppathid="10108" d="M333.1,135.3c-20.7-11.9-37.4-2.4-37.4,21.3s16.8,52.6,37.4,64.6c20.7,11.9,37.4,2.4,37.4-21.3      S353.8,147.2,333.1,135.3z M332.6,215.6c-17.5-10.1-31.8-34.7-31.8-54.8s14.2-28.2,31.8-18.1c17.5,10.1,31.8,34.7,31.8,54.8      S350.1,225.7,332.6,215.6z" class="st29"/><path data-cppathid="10109" d="M339.2,211.9c-17.5-10.1-31.8-34.7-31.8-54.8c0-8.2,2.4-14.4,6.4-18.2c-7.8,2.1-12.9,9.8-12.9,21.9      c0,20.1,14.2,44.7,31.8,54.8c10.4,6,19.6,5.6,25.4,0.1C352.7,217.1,346.2,216,339.2,211.9z" class="st6"/><path data-cppathid="10110" d="M334.9,134.4c-9.9-5.7-18.9-6.5-25.6-3.1c6.2-1.7,15.4-0.8,23.8,4c20.7,11.9,37.4,40.9,37.4,64.6      c0,12.4-6,21.2-13.3,24.9c9.1-2.6,15.1-11.7,15.1-25.7C372.4,175.2,355.6,146.3,334.9,134.4z" class="st5"/></g><g><g><g><path data-cppathid="10111" d="M276.8,411.1c0,1.3-1.1,2.4-2.4,2.4s-2.4-1.1-2.4-2.4s1.1-2.4,2.4-2.4        C275.8,408.8,276.8,409.8,276.8,411.1z" class="st5"/><path data-cppathid="10112" d="M300,384.8c0,1.3-1.1,2.4-2.4,2.4s-2.4-1.1-2.4-2.4s1.1-2.4,2.4-2.4S300,383.5,300,384.8z" class="st5"/><circle data-cppathid="10113" r="2.4" cy="402.8" cx="302.7" class="st5"/><g><circle data-cppathid="10114" r="2.4" cy="398.4" cx="251.8" class="st5"/><path data-cppathid="10115" d="M268.7,382.4c0,1.3-1.1,2.4-2.4,2.4s-2.4-1.1-2.4-2.4s1.1-2.4,2.4-2.4         C267.7,380.1,268.7,381.1,268.7,382.4z" class="st30"/><g><path data-cppathid="10116" d="M277.8,391.2l-25.9,5c-0.1,0-0.2,0-0.3,0.1l0-0.2l-1.2-0.3v1.5h0c0,0.1,0,0.1,0,0.2          c0.2,0.6,1.1,1,2.1,0.9l25.9-5L277.8,391.2z" class="st31"/><path data-cppathid="10117" d="M299.5,382.3l-0.8,0.7c-0.7-0.3-1.7-0.2-2.4,0.2l-18.5,8l2.6,1.5l18.5-8c0.4-0.3,0.6-0.6,0.6-0.9l0,0          V382.3z" class="st31"/><linearGradient gradientTransform="matrix(1 0 0 -1 0 478)" y2="102.2381" x2="261.4534" y1="91.5572" x1="272.5031" gradientUnits="userSpaceOnUse" id="SVGID_00000159468088480978767170000000014321297987486094_"><stop style="stop-color:#5761D7" offset="0"/><stop style="stop-color:#5C66D9" offset="0.1779"/><stop style="stop-color:#6A73DF" offset="0.3876"/><stop style="stop-color:#8289E8" offset="0.6134"/><stop style="stop-color:#A3A7F5" offset="0.849"/><stop style="stop-color:#BCBEFF" offset="1"/></linearGradient><path data-cppathid="10118" d="M268.1,380.5          c-0.5-0.5-1.6-0.7-2.5-0.5l0,0c-0.1,0-0.2,0.1-0.3,0.1c0-0.1-0.1-0.1-0.2-0.2c-0.2-0.2-0.5-0.4-0.5-0.4v1.5c0,0,0,0,0,0          c0,0.2,0.1,0.3,0.2,0.4l11.9,10.9l3.3-1L268.1,380.5z" style="fill:url(#SVGID_00000159468088480978767170000000014321297987486094_);"/><path data-cppathid="10119" d="M304.4,400.3l-0.4,0.2l-0.3,0.5c-0.1,0-0.2-0.1-0.3-0.1l-23.4-9.5l-1.7,1.9l23.4,9.5          c0.9,0.3,2,0.1,2.5-0.5l0,0c0.1-0.2,0.2-0.3,0.2-0.5l0,0L304.4,400.3z" class="st31"/><path data-cppathid="10120" d="M276.8,392.3l-3.8,16.4l-0.3-0.1v1.5l0,0c0.1,0.5,0.7,0.9,1.5,1c1,0.1,1.9-0.3,2.1-0.9l4.1-17.6          L276.8,392.3z" class="st31"/><path data-cppathid="10121" d="M303.4,399.4l-21.7-8.8l17.1-7.4c0.8-0.4,0.9-1.1,0.2-1.5l-0.2-0.1c-0.7-0.4-1.8-0.3-2.6,0.1          l-17.1,7.4L268.1,379c-0.5-0.5-1.6-0.7-2.5-0.5l0,0c-0.9,0.3-1.3,0.9-0.8,1.4l11,10.1l-24,4.6c-1,0.1-1.7,0.6-1.5,1.2          c0.2,0.6,1.1,1,2.1,0.9l24-4.6l-3.8,16.3c-0.2,0.6,0.5,1.1,1.5,1.2c1,0.1,1.9-0.3,2.1-0.9l3.8-16.3l21.7,8.8          c0.9,0.3,2,0.1,2.5-0.5C304.7,400.3,304.3,399.7,303.4,399.4z M279.4,390.6l-0.4,0.5l-0.9-0.1l-0.1-0.5l0.8-0.2L279.4,390.6          z" class="st20"/></g><path data-cppathid="10122" d="M278.7,392L278.7,392c-1,0-1.9-0.8-1.9-1.9v-21.9h3.8v21.9C280.6,391.1,279.7,392,278.7,392z" class="st33"/></g></g><g><path data-cppathid="10123" d="M268.6,342.2L268.6,342.2c-0.1-0.5-0.4-1-1-1.3l-0.4-0.2c-1.5-0.8-4-0.7-5.7,0.2l-12,6.9        c-0.9,0.5-1.4,1.2-1.4,1.8l0,0v2.1h0c0,0.5,0.3,1.1,1,1.4l0.4,0.2c1.5,0.8,4,0.7,5.7-0.2l12-6.9c0.9-0.5,1.3-1.1,1.4-1.8l0,0        L268.6,342.2L268.6,342.2z" class="st33"/><path data-cppathid="10124" d="M249.6,351.3l-0.4-0.2c-1.5-0.8-1.3-2.3,0.4-3.3l12-6.9c1.7-1,4.3-1.1,5.7-0.2l0.4,0.2        c1.5,0.8,1.3,2.3-0.4,3.3l-12,6.9C253.6,352.1,251,352.2,249.6,351.3z" class="st20"/></g><g><path data-cppathid="10125" d="M274.9,360.9l-25,14.4c-1.2,0.7-2.2,0-2.2-1.7l0,0c0-1.7,1-3.6,2.2-4.3l28.7-16.5v1.1        C278.5,356.7,276.9,359.8,274.9,360.9z" class="st34"/><g><path data-cppathid="10126" d="M276.7,299.3L276.7,299.3c-0.9-0.5-2-0.4-3.2,0.3l-0.7,0.4c-2.8,1.6-5,5.9-5,9.6v49.5l6.6-3.8v1.6         l-8,6.5l-18.1,12.1l25.5,14.4l14.6-11.3l8.3-7.1l5.2-57.9L276.7,299.3z" class="st20"/></g></g><path data-cppathid="10127" d="M258,381c0,0-0.7-1.8,0.7-3.1s8.4-4.3,8.9-4.6c0.5-0.3,3-2.2,3-2.2l0.8-1.7c0,0-14.3,1.4-14.5,1.6       c-0.2,0.2-6.7,6.1-6.5,6.3c0.2,0.3,4.5,1.3,4.5,1.3l0.8,1.1L258,381z" class="st35"/><path data-cppathid="10128" d="M298.8,313.9l-0.7,0.4c-2.8,1.6-5,5.9-5,9.6v49.5l-17.9,10.3c-1.2,0.7-2.2,2.6-2.2,4.3l0,0       c0,1.7,1,2.4,2.2,1.7l25-14.4c2-1.2,3.6-4.3,3.6-7v-1.1v-49.5C303.9,314,301.6,312.3,298.8,313.9z" class="st31"/><g><g><g><path data-cppathid="10129" d="M251.3,391.7c0,0-3.7,2.4-4.9,3.8c-1.2,1.4-3.7,4.2-2.7,5.6s4.4,2.1,8.1-1.3c3.7-3.4,2.6-3.6,5.8-5.3          c3.1-1.7,4-3.5,3.6-4.6c-0.4-1-1.9-2.9-2.8-2.5C257.6,387.8,251.3,391.7,251.3,391.7z"/></g><g><path data-cppathid="10130" d="M269.2,401.6c0,0-1.3,2.9-2,3.9s-4,6.5-2.3,7.8c1.7,1.3,5,0.9,7.6-1.9c2.6-2.8,3.2-6.2,3.8-7.4          c0.6-1.1,2.2-4.1,1.5-5.8s-0.9-2-0.9-2L269.2,401.6z"/></g><path data-cppathid="10131" d="M255.8,360.1c0,0-11,10.8-12.8,16.2c0,0-0.8,2.9,1.4,5.2c2.1,2.3,6.6,9.8,6.6,9.8s3.4,4.1,7.7,0.8         c0,0,2-3.1,0.8-5.2c-1.2-2.1-4.4-8.7-4.4-8.7s7-4.8,10.5-6.1c3.5-1.2,5.3-2.2,5.3-2.2s-0.6,3.3-3.2,6.5         c-2.5,3.2-6.8,8.3-5.4,11.9s2.2,4.7,3.6,6.7c1.3,2.1,2.6,6.3,3.7,6.8c1.1,0.4,6.4,1,7.2-2.5c0.9-3.4-1.8-10-3-12.3         c0,0,14.2-16.4,15.5-18.1C290.8,367.3,260.2,357.4,255.8,360.1z" class="st2"/><path data-cppathid="10132" d="M259.5,387c-1.2-2.1-4.4-8.7-4.4-8.7s7-4.8,10.5-6.1c3.5-1.2,5.3-2.2,5.3-2.2c0.7-0.9,2.8-4.4,3.8-7.2         c-8-2.3-16.7-4.1-18.9-2.7c0.8,1.9,4.8,1.9,4.8,1.9s1.5,3.7,2.5,4.2c1,0.5,3.4,0,3.4,0s-0.4,0.6-2.1,1.9         c-1.7,1.2-12.5,10.1-12.5,10.1s0.6,0.4,3.5,5.5c2.9,5.2,3.2,8.6,3.2,8.6S260.7,389.1,259.5,387z" class="st36"/><path data-cppathid="10133" d="M244.7,331.3l1.7-1.3c0,0,9.1-5,12.1-6.7c1.6-0.9,3.3-2.5,4.6-3.7c1.2-1.2,2.8-1.9,4.5-1.9l15.9-0.1         c0,0,1.9,3,2.5,3.6c0.5,0.4,4.8,4.1,7.9,7c1.7,1.6,3,3.7,3.6,6c1.8,6.3,1.7,18.8,2,27.9c0,0-1.1,0.4-3.8,1         c-2.7,0.6-2.4,0.2-2.4,0.2s-4.1,9.1-9.6,10c-5.5,0.9-12.9-1.7-14.3-10.3c0,0-10.7-1.6-13.7-2.8c-0.3-0.1-0.4-0.4-0.2-0.7         c1.3-1.7,6.1-8.4,6.6-12.8c0.5-5,0.4-12.3,0-14.3c0,0-8.1,3.1-10.7,3.6c0,0-9.9,10.8-14,13.8c0,0,1.4-2.2-1.4-3.7         L244.7,331.3z" class="st6"/><path data-cppathid="10134" d="M295.7,363c0.4-0.1,0.8-0.2,1.1-0.3l-0.6-1.1l-14.9-1.6l-8.7,0.5l-3,2.9c0.2,0.9,0.4,1.8,0.7,2.6         c0,0,3.7,0.5,5.4,0.2c1.7-0.4,15,1.6,15,1.6c1.5-2.2,2.4-4.2,2.6-4.4C293.3,363.4,293.5,363.5,295.7,363z" class="st37"/><path data-cppathid="10135" d="M275.5,357.8c0-0.1-0.1-0.1-0.1-0.1c-0.7,0-5.4-0.2-7.2-0.8c-1.9-0.7-3.9-0.5-4-0.4         c-0.1,0.1-3.3,1.5-3.5,2c-0.2,0.5-0.5,2.2-0.1,2.8c0.4,0.6,0.6,1,0.6,1l0.3,0c0,0,0.4,0.8,0.7,1.1c0.1,0.1,0.2,0.3,0.3,0.4         c0.2,0.4,0.6,1.2,0.7,1.2c0.2,0,1.2,0.2,1.5,0.2c0.2-0.1,0.4-0.7,0.3-1c0-0.1,0-0.1,0.1-0.2c0.5-0.1,1.7-0.2,3.4-0.1         c2.1,0.2,5-1.2,5.3-1.3c0,0,0,0,0,0l2.9-0.3c0.1,0,0.1-0.1,0.1-0.2L275.5,357.8z" class="st38"/><path data-cppathid="10136" d="M272,327c0,0-2.5,9.2,0.1,18.6c0,0,9.6-17.9,10.6-20.8c1-2.9,1.4-5,0.4-6s-9.6,4.3-9.6,4.3L272,327z" class="st39"/><g class="st14"><path data-cppathid="10137" d="M274.5,341.4c0,0,1.8-5.6,1.5-7.4c-0.3-1.8-0.8-3.1-0.8-3.1l1.6-1.5l0.7,1.5c0,0,3.6-2.7,3.9-3.2c0,0-2.9,2-3.8,2.3          c0,0-0.4-0.7-1-1s-2,1.7-2,1.7l-0.3,3.4l-1.4,7.9l0.5,1.2L274.5,341.4z"/></g><path data-cppathid="10138" d="M276.6,329c0,0-1.6-2.9-3.7-2c0,0-0.3,3.5-0.1,3.9c-0.5,0.6-1.7,2.3-1.9,4.2c-0.6,5.3,1.2,10.5,1.2,10.5         l1.4-2.7c0,0,0.4-3.2,1.3-6.7c0.7-2.6,0.3-4.6,0.1-5.5C275.6,330.3,276.6,329,276.6,329z" class="st2"/><path data-cppathid="10139" d="M267.5,312.3c0,0-0.4,2.2-0.3,2.7c0.2,0.4,0.7,0.7,0.6,1.6c-0.1,0.9,0.4,3.5,0.6,4.3         c0,0-0.2,0.9,0.1,1.2c0.3,0.3,0.6,0.3,0.8,0.7c0.2,0.4,0.3,2.7,1.2,3.4c0.9,0.8,2.1,0.9,2.7,0.7c0.6-0.2,1.2-0.6,1.2-0.6         l1.4,0.6c0,0,7.1-2,6.9-7l0-0.5c0,0,0.5-0.7,0.7-1.2c0.1-0.5,1.3-2.5,0.7-3.4c0,0,2.8-10.9-5.8-11.6         C269.9,302.5,268.6,308.5,267.5,312.3z" class="st38"/><path data-cppathid="10140" d="M282.8,319.9L282.8,319.9c-0.4-0.3-0.7-0.4-1-0.4c-1,0.2-0.8-1.9-0.8-1.9s-0.2,0.4-0.7,3         c-0.5,2.6-5.9,5.7-5.9,5.7l1.4,0.6C275.9,327,283.1,324.9,282.8,319.9z" class="st40"/><g><path data-cppathid="10141" d="M267.6,307.6c-0.8,1.8-1.2,3.9,0.5,5.3c0,0,1.5,0.4,4.2-0.9c1.9-0.9,3.8-0.5,4.8-0.1c0.5,0.2,0.8,0.6,0.8,1.1l0,1.6          c0,0.4,0.2,0.8,0.6,0.9l1.3,0.6l0.3,1.5c0.1,0.4,0.5,0.7,1,0.6l0.3-0.1c0,0,0.2-3.4,3-3.2c0,0,2.2-4.9-0.1-9.3          s-8.6-4.1-9.9-3.6c-1.8,0.7-1.5,0.6-2.5,1.2C269.9,304.1,268.4,305.7,267.6,307.6z"/></g><path data-cppathid="10142" d="M290.2,341.8c0,0-1.3,9.5-1.8,12.2l-4.2,2.2l7.4-0.5L290.2,341.8z" class="st37"/><path data-cppathid="10143" d="M286.1,323.1c0,0-2.2,7.6-2.7,9l-1.8-0.2l0.3,2.4l-9.6,12.6l10.6-12.2l-0.4-2.1l1.6,0.2L286.1,323.1z" class="st37"/><path data-cppathid="10144" d="M276.7,364.3c0,0,22.4-0.7,23-1.1c0.6-0.4,0.7-6.2,0.6-9.5c0-2.3,0-11.5-2-18c1.6,5.5,0.7,24.7,0,25.7         c-0.7,1-22.1,1.5-22.1,1.5l0,0C276.5,363.8,276.7,364.3,276.7,364.3z" class="st41"/><path data-cppathid="10145" d="M232.6,346.4c0,0-0.1,0.6-1.1,1.1c-1,0.6-3.5,1.8-3.9,2.1c-0.4,0.4-2.2,1.9-2.3,2.1         c-0.1,0.2-0.6,2-0.6,2.1c0,0.1,0.2,0.9,0.2,0.9l-0.6,2.6c0,0-0.7,1,0.1,1.3c0.8,0.3,1.2-0.5,1.2-0.6c0,0,1.2-0.6,2-1.2         s4.3-3.4,4.8-3.2c0.6,0.2,0,1.2-0.2,1.3c-0.3,0.2-2.1,1.9-1.3,3.2c0.8,1.2,1.2-0.7,1.7-1.1c0.5-0.4,1.6-1.9,2.2-2.1         c0.7-0.2,1.9-2.7,2-3.8c0.2-1.1,0.9-1.8,1.2-2.2c0.3-0.4-0.6-3.1-0.6-3.1l-3.4-1l-1.2,0.8L232.6,346.4z" class="st38"/></g></g><g><g><defs><path data-cppathid="10146" d="M283.8,371l-0.4-0.2c-1.5-0.8-1.3-2.3,0.4-3.3          l12-6.9c1.7-1,4.3-1.1,5.7-0.2l0.4,0.2c1.5,0.8,1.3,2.3-0.4,3.3l-12,6.9C287.9,371.7,285.3,371.8,283.8,371z" id="SVGID_00000165196893603441843120000006890094860870081920_"/></defs><clipPath id="SVGID_00000137850827423488593670000006215346030330656439_"><use style="overflow:visible;" xlink:href="#SVGID_00000165196893603441843120000006890094860870081920_"/></clipPath><path data-cppathid="10147" d="M296.6,331.9         c-0.7-1.1-1-0.3-2,0.6c-1.3,1.2-2.9,3.2-3.7,5.6c-1.5,4.4-1,15.5-0.5,17.1c0,0-14.1,2.3-15,2.3c-1,0,1.2,6.9,1.2,6.9         s22.4-0.7,23-1.1c0.6-0.4,0.7-6.2,0.6-9.5C300.3,350.8,300.3,337.7,296.6,331.9z" style="clip-path:url(#SVGID_00000137850827423488593670000006215346030330656439_);fill:#334659;"/></g><g><defs><path data-cppathid="10148" d="M283.8,371l-0.4-0.2c-1.5-0.8-1.3-2.3,0.4-3.3          l12-6.9c1.7-1,4.3-1.1,5.7-0.2l0.4,0.2c1.5,0.8,1.3,2.3-0.4,3.3l-12,6.9C287.9,371.7,285.3,371.8,283.8,371z" id="SVGID_00000062181333501855192560000015003574923515950484_"/></defs><clipPath id="SVGID_00000030448992761086250180000005294315168561175187_"><use style="overflow:visible;" xlink:href="#SVGID_00000062181333501855192560000015003574923515950484_"/></clipPath><path data-cppathid="10149" d="M276.7,364.3         c0,0,22.4-0.7,23-1.1c0.6-0.4,0.7-6.2,0.6-9.5c0-2.3,0-11.5-2-18c1.6,5.5,0.7,24.7,0,25.7c-0.7,1-22.1,1.5-22.1,1.5l0,0         C276.5,363.8,276.7,364.3,276.7,364.3z" style="clip-path:url(#SVGID_00000030448992761086250180000005294315168561175187_);fill:#263649;"/></g></g><g><path data-cppathid="10150" d="M302.9,361.9L302.9,361.9c-0.1-0.5-0.4-1-1-1.3l-0.4-0.2c-1.5-0.8-4-0.7-5.7,0.2l-12,6.9        c-0.9,0.5-1.4,1.2-1.4,1.8l0,0v2.1h0c0,0.5,0.3,1.1,1,1.4l0.4,0.2c1.5,0.8,4,0.7,5.7-0.2l12-6.9c0.9-0.5,1.3-1.1,1.4-1.8l0,0        L302.9,361.9L302.9,361.9z" class="st33"/><path data-cppathid="10151" d="M283.8,371l-0.4-0.2c-1.5-0.8-1.3-2.3,0.4-3.3l12-6.9c1.7-1,4.3-1.1,5.7-0.2l0.4,0.2        c1.5,0.8,1.3,2.3-0.4,3.3l-12,6.9C287.9,371.7,285.3,371.8,283.8,371z" class="st20"/></g><path data-cppathid="10152" d="M262.2,429.8c-0.5,0-0.9-0.1-1.3-0.4c-0.9-0.5-1.5-1.6-1.5-3.1v-32.2h1.4v32.2c0,0.9,0.3,1.6,0.8,1.9       c0.5,0.3,1.2,0.2,2-0.3l26.8-15.5c1.9-1.1,3.5-3.8,3.5-6v-32.2h1.4v32.2c0,2.7-1.8,5.8-4.2,7.2l-26.8,15.5       C263.6,429.6,262.9,429.8,262.2,429.8z" class="st44"/><path data-cppathid="10153" d="M193.7,391.7c-0.5,0-0.9-0.1-1.3-0.4c-0.9-0.5-1.5-1.6-1.5-3.1v-32.2h1.4v32.2c0,0.9,0.3,1.6,0.8,1.9       c0.5,0.3,1.2,0.2,2-0.3l26.8-15.5c1.9-1.1,3.5-3.8,3.5-6v-32.2h1.4v32.2c0,2.7-1.8,5.8-4.2,7.2l-26.8,15.5       C195,391.5,194.3,391.7,193.7,391.7z" class="st44"/><rect data-cppathid="10154" height="78.8" width="1.4" class="st44" transform="matrix(0.4933 -0.8699 0.8699 0.4933 -222.7344 392.8925)" y="348.2" x="225.2"/><g><linearGradient gradientTransform="matrix(1 0 0 -1 0 478)" y2="109.1413" x2="299.5997" y1="109.1413" x1="187.1857" gradientUnits="userSpaceOnUse" id="SVGID_00000029004826765654850340000013269870781381020088_"><stop style="stop-color:#42E8E0" offset="0"/><stop style="stop-color:#43E3E0" offset="0.1507"/><stop style="stop-color:#45D5DF" offset="0.3285"/><stop style="stop-color:#49BDDD" offset="0.5199"/><stop style="stop-color:#4E9CDB" offset="0.7209"/><stop style="stop-color:#5472D8" offset="0.9274"/><stop style="stop-color:#5761D7" offset="1"/></linearGradient><polygon data-cppathid="10155" points="        260.3,401.3 187.2,359.1 226.5,336.4 299.6,378.6       " style="opacity:0.5;fill:url(#SVGID_00000029004826765654850340000013269870781381020088_);enable-background:new    ;"/><polygon data-cppathid="10156" points="187.2,355.6 187.2,359.1 260.3,401.3 299.6,378.6 299.6,375.1 260.3,397.8       " class="st15"/><polygon data-cppathid="10157" points="260.3,397.8 187.2,355.6 226.5,332.9 299.6,375.1       " class="st5"/></g><g class="st14"><path data-cppathid="10158" d="M264.6,364.9c0,0,2.8,1,5,0.6c2.1-0.4,12.5-0.6,12.5-0.6l-1.6-0.9l-3.6-2.5l-9,0.6l-3.5,1.2L264.6,364.9z"/></g><path data-cppathid="10159" d="M275.5,357.8c0-0.1-0.1-0.1-0.1-0.1c-0.7,0-5.4-0.2-7.2-0.8c-1.9-0.7-3.9-0.5-4-0.4       c-0.1,0.1-3.3,1.5-3.5,2c-0.2,0.5-0.5,2.2-0.1,2.8c0.4,0.6,0.6,1,0.6,1l0.3,0c0,0,0.4,0.8,0.7,1.1c0.1,0.1,0.2,0.3,0.3,0.4       c0.2,0.4,0.6,1.2,0.7,1.2c0.2,0,1.2,0.2,1.5,0.2c0.2-0.1,0.4-0.7,0.3-1c0-0.1,0-0.1,0.1-0.2c0.5-0.1,1.7-0.2,3.4-0.1       c2.1,0.2,5-1.2,5.3-1.3c0,0,0,0,0,0l2.9-0.3c0.1,0,0.1-0.1,0.1-0.2L275.5,357.8z" class="st38"/><path data-cppathid="10160" d="M296.6,331.9c-0.7-1.1-1-0.3-2,0.6c-1.3,1.2-2.9,3.2-3.7,5.6c-1.5,4.4-1,15.5-0.5,17.1       c0,0-14.1,2.3-15,2.3c-1,0,1.2,6.9,1.2,6.9s22.4-0.7,23-1.1c0.6-0.4,0.7-6.2,0.6-9.5C300.3,350.8,300.3,337.7,296.6,331.9z" class="st6"/><g class="st14"><path data-cppathid="10161" d="M236.5,352.8c0,0,8-6.3,9.2-6.9c1.1-0.6,1.6-1.1,1.6-1.1l-2.7-1.6l-4.5,1.9l-5.7,5.7l-8.8,6.2v1.4        c0,0,7.3-3.1,8.1-3.7C234.4,354.4,236.5,352.8,236.5,352.8z"/></g><path data-cppathid="10162" d="M231.7,358.5c0,0,1.7-1.5,2.8-2c1.1-0.5,2.9-1.9,3.1-2.9c0.2-1,2-3.3,2-3.3l-2.9,1.7l-4.2,2.4l-7,4.1       c0,0,0.4,0.5,1.3,0.2c0.9-0.3,2.6-1.4,3.3-1.5c0.8-0.1,2.1-0.3,2.1-0.3L231.7,358.5z" class="st46"/><path data-cppathid="10163" d="M232.6,346.4c0,0-0.1,0.6-1.1,1.1c-1,0.6-3.5,1.8-3.9,2.1c-0.4,0.4-2.2,1.9-2.3,2.1       c-0.1,0.2-0.6,2-0.6,2.1c0,0.1,0.2,0.9,0.2,0.9l-0.6,2.6c0,0-0.7,1,0.1,1.3c0.8,0.3,1.2-0.5,1.2-0.6c0,0,1.2-0.6,2-1.2       s4.3-3.4,4.8-3.2c0.6,0.2,0,1.2-0.2,1.3c-0.3,0.2-2.1,1.9-1.3,3.2c0.8,1.2,1.2-0.7,1.7-1.1c0.5-0.4,1.6-1.9,2.2-2.1       c0.7-0.2,1.9-2.7,2-3.8c0.2-1.1,0.9-1.8,1.2-2.2c0.3-0.4-0.6-3.1-0.6-3.1l-3.4-1l-1.2,0.8L232.6,346.4z" class="st38"/><g><g><path data-cppathid="10164" d="M263,327.9c0,0-0.1-5,0.7-8.9c-0.2,0.2-0.5,0.4-0.7,0.6c-1.2,1.3-2.9,2.8-4.6,3.7         c-3,1.6-12.1,6.7-12.1,6.7l-1.7,1.3c-5.3,4.2-11.3,13.3-12.1,15.1c0.4-0.6,1.5-1.5,3.5-0.4c2.8,1.5,1.5,3.8,1.5,3.8         c4.1-2.9,13.9-13.8,13.9-13.8c2.4-0.5,9.7-3.2,10.6-3.6C262.7,330.9,263,329.4,263,327.9z" class="st6"/></g></g></g><g class="st14"><path data-cppathid="10165" d="M219.3,364.4l29.4,17c0.3,0.2,0.8,0.2,1.1,0l17.5-10.1c0.3-0.2,0.2-0.4-0.1-0.6l-29.4-17c-0.3-0.2-0.8-0.2-1.1,0       l-17.5,10.1C218.9,363.9,218.9,364.2,219.3,364.4z"/></g><g><g><g><g><g><g><path data-cppathid="10166" d="M218,362.2l1.6,0.8l16.2-9.4c0.3-0.2,0.7-0.1,1.1,0l28,16.2c0.3-0.2,1.5-0.7,1.5-0.7l-0.6,1.5            c0,0,0,0,0,0c0,0.1-0.1,0.1-0.2,0.2l-17.1,9.9c-0.3,0.2-0.7,0.1-1.1,0l-28.7-16.5c-0.1-0.1-0.2-0.2-0.2-0.3h0L218,362.2z" class="st47"/><path data-cppathid="10167" d="M218.2,362.5l29.4,17c0.3,0.2,0.8,0.2,1.1,0l17.5-10.1c0.3-0.2,0.2-0.4-0.1-0.6l-29.4-17            c-0.3-0.2-0.8-0.2-1.1,0l-17.5,10.1C217.8,362,217.9,362.3,218.2,362.5z" class="st48"/><g><g><polygon data-cppathid="10168" points="228.4,360.2 248.3,371.7 249.2,371.1 229.4,359.6             " class="st30"/><polygon data-cppathid="10169" points="226.9,361 250.3,374.6 251.3,374 227.8,360.5             " class="st47"/><polygon data-cppathid="10170" points="225.4,361.9 248.8,375.4 249.8,374.9 226.3,361.4             " class="st47"/><polygon data-cppathid="10171" points="223.9,362.8 247.3,376.3 248.2,375.8 224.8,362.2             " class="st30"/><polygon data-cppathid="10172" points="254.3,371.4 231.7,358.3 230.7,358.8 253.2,371.8 254.1,372.4 255.1,371.8                           " class="st47"/><polygon data-cppathid="10173" points="247.2,371 251.8,373.7 252.8,373.2 248.1,370.4             " class="st47"/></g></g></g></g></g></g></g><g><path data-cppathid="10174" d="M218,361.8l3.7-22l-0.3-0.1l0.5-0.3v0c0.1-0.1,0.2-0.1,0.3,0l29.7,17.1c0.2,0.1,0.4,0.5,0.4,0.8        l-3.7,22.2c0,0.1-0.1,0.2-0.2,0.2l0,0l-0.4,0.3l-0.1-0.4l0,0l-29.5-17C218.1,362.4,218,362,218,361.8z" class="st49"/><path data-cppathid="10175" d="M251.7,357.1l0.5-0.2c0.1,0.1,0.1,0.3,0.1,0.4l-3.7,22.2c0,0.1-0.1,0.2-0.2,0.2l0,0l-0.4,0.3l-0.1-0.4        l0,0l-1.5-0.9L251.7,357.1z" class="st49"/><path data-cppathid="10176" d="M217.9,362.8l29.7,17.1c0.2,0.1,0.4,0.1,0.5-0.2l3.7-22.2c0-0.3-0.1-0.6-0.4-0.8l-29.7-17.1        c-0.2-0.1-0.4-0.1-0.5,0.2l-3.7,22.2C217.5,362.3,217.7,362.7,217.9,362.8z" class="st2"/></g></g></g><g><path data-cppathid="10177" d="M395.1,348.4c0.8,0.5,1.6,0.9,2.5,1.2l-1.8,4.3c2.3,0.8,4.7,1.3,7.1,1.7l4-3.8c2.2,0.2,4.4,0.2,6.5,0      l4,3.8c2.5-0.4,4.9-0.9,7.1-1.7l-1.8-4.3c0.9-0.4,1.7-0.8,2.5-1.2c0.8-0.5,1.5-0.9,2.1-1.5l7.4,1c1.3-1.3,2.3-2.7,3-4.1      l-6.5-2.3c0.3-1.3,0.4-2.5,0-3.8l6.5-2.3c-0.6-1.4-1.6-2.8-2.9-4.1l-7.5,1c-0.6-0.5-1.3-1-2.1-1.4c-0.8-0.5-1.6-0.9-2.5-1.2      l1.8-4.3c-2.3-0.8-4.7-1.3-7.1-1.7l-4,3.8c-2.2-0.2-4.4-0.2-6.5,0l-4-3.8c-2.5,0.4-4.9,0.9-7.1,1.7l1.8,4.3      c-0.9,0.4-1.7,0.8-2.5,1.2c-0.8,0.5-1.5,0.9-2.1,1.4l-7.4-1c-1.3,1.3-2.3,2.7-3,4.1l6.5,2.3c-0.3,1.3-0.4,2.5,0,3.8l-6.5,2.3      c0.6,1.4,1.6,2.8,2.9,4.1l7.5-1C393.6,347.5,394.3,348,395.1,348.4z M398.9,333.3c6.3-3.6,16.6-3.6,22.9,0      c6.3,3.6,6.2,9.5-0.1,13.2c-6.3,3.6-16.6,3.6-22.9,0C392.6,342.8,392.6,336.9,398.9,333.3z" class="st50"/><path data-cppathid="10178" d="M398.9,332.2c6.3-3.6,16.6-3.6,22.9,0c2.3,1.4,3.8,3,4.4,4.8c1.5-3.1,0.2-6.6-4.1-9.1      c-6.3-3.6-16.5-3.6-22.9,0c-4,2.3-5.5,5.5-4.5,8.4C395.5,334.8,396.8,333.4,398.9,332.2z" class="st51"/><path data-cppathid="10179" d="M395.4,343.1c0.8,0.5,1.6,0.9,2.5,1.2l-1.8,4.3c2.3,0.8,4.7,1.3,7.1,1.7l4-3.8c2.2,0.2,4.4,0.2,6.5,0l4,3.8      c2.5-0.4,4.9-0.9,7.1-1.7l-1.8-4.3c0.9-0.4,1.7-0.8,2.5-1.2c0.8-0.5,1.5-0.9,2.1-1.5l7.4,1c1.3-1.3,2.3-2.7,3-4.1l-6.5-2.3      c0.3-1.3,0.4-2.5,0-3.8l6.5-2.3c-0.6-1.4-1.6-2.8-2.9-4.1l-7.5,1c-0.6-0.5-1.3-1-2.1-1.4c-0.8-0.5-1.6-0.9-2.5-1.2l1.8-4.3      c-2.3-0.8-4.7-1.3-7.1-1.7l-4,3.8c-2.2-0.2-4.4-0.2-6.5,0l-4-3.8c-2.5,0.4-4.9,0.9-7.1,1.7l1.8,4.3c-0.9,0.4-1.7,0.8-2.5,1.2      c-0.8,0.5-1.5,0.9-2.1,1.4l-7.4-1c-1.3,1.3-2.3,2.7-3,4.1l6.5,2.3c-0.3,1.3-0.4,2.5,0,3.8l-6.5,2.3c0.6,1.4,1.6,2.8,2.9,4.1      l7.5-1C393.9,342.1,394.6,342.6,395.4,343.1z M399.2,327.9c6.3-3.6,16.6-3.6,22.9,0c6.3,3.6,6.2,9.5-0.1,13.2      c-6.3,3.6-16.6,3.6-22.9,0C392.8,337.4,392.9,331.5,399.2,327.9z" class="st6"/><polygon data-cppathid="10180" points="427.8,346.7 435.2,347.8 435.2,342.6 427.8,341.6     " class="st51"/><path data-cppathid="10181" d="M427.8,341.6c-0.6,0.5-1.3,1-2.1,1.5c-0.8,0.5-1.6,0.9-2.5,1.2l1.8,4.3l0,0c0,0,0.5-0.3,0.7-0.4      c0.8-0.5,1.5-0.9,2.1-1.5L427.8,341.6z" class="st52"/><path data-cppathid="10182" d="M435.2,347.8c1.3-1.3,2.3-2.7,3-4.1l0-5.1c-0.7,1.4-1.6,2.8-3,4.1L435.2,347.8z" class="st52"/><path data-cppathid="10183" d="M417.7,355.4c2.5-0.4,4.9-0.9,7.1-1.7l0-5.1c-2.3,0.8-4.7,1.3-7.1,1.7L417.7,355.4z" class="st52"/><polygon data-cppathid="10184" points="417.7,350.3 413.8,346.5 413.7,351.6 417.7,355.4     " class="st51"/><path data-cppathid="10185" d="M413.8,346.5c-2.2,0.2-4.4,0.2-6.5,0l0,5.1c2.2,0.2,4.4,0.2,6.5,0L413.8,346.5z" class="st51"/><polygon data-cppathid="10186" points="407.2,346.5 403.2,350.3 403.2,355.4 407.2,351.6     " class="st52"/><path data-cppathid="10187" d="M403.2,350.3c-2.5-0.4-4.9-0.9-7.1-1.7l0,5.1c2.3,0.8,4.7,1.3,7.1,1.7L403.2,350.3z" class="st51"/><path data-cppathid="10188" d="M431.7,336.2l1.9,0.7l4.7-1.6l0-5.1l-6.5,2.3C432,333.7,432,334.9,431.7,336.2z" class="st51"/><path data-cppathid="10189" d="M385.8,342.6c-1.3-1.3-2.3-2.7-2.9-4.1l0,5.1c0.6,1.4,1.6,2.8,2.9,4.1L385.8,342.6z" class="st51"/><path data-cppathid="10190" d="M393.2,346.7c0.6,0.5,1.3,1,2.1,1.4c0.2,0.1,0.5,0.3,0.7,0.4l1.8-4.3c-0.9-0.4-1.7-0.8-2.5-1.2      c-0.8-0.5-1.5-0.9-2.1-1.4L393.2,346.7z" class="st51"/><polygon data-cppathid="10191" points="393.3,341.6 385.8,342.6 385.8,347.8 393.2,346.7     " class="st52"/><path data-cppathid="10192" d="M389.4,336.2c-0.3-1.3-0.3-2.5,0-3.8l-6.5-2.3l0,5.1l4.6,1.6L389.4,336.2z" class="st51"/><path data-cppathid="10193" d="M425.1,325.2l0-5.2l-1.8,4.3C423.9,324.6,424.5,324.9,425.1,325.2z" class="st52"/><path data-cppathid="10194" d="M398,324.4l-1.8-4.3l0,5.1C396.8,324.9,397.4,324.6,398,324.4z" class="st51"/></g><g><path data-cppathid="10195" d="M412.1,369.4c0.4-1.1,1.3-2.2,2.9-3.1c4.1-2.3,10.7-2.3,14.7,0c4,2.3,4,6.1-0.1,8.5      c-1.5,0.9-3.4,1.4-5.4,1.7l6.1,3.5c0.4-0.1,0.8-0.2,1.2-0.4l-1.1-2.8c0.6-0.2,1.1-0.5,1.6-0.8c0.5-0.3,1-0.6,1.4-0.9l4.8,0.7      c0.9-0.8,1.5-1.7,1.9-2.7l-4.2-1.5c0.2-0.8,0.2-1.6,0-2.4l4.2-1.5c-0.4-0.9-1-1.8-1.9-2.7l-4.8,0.7c-0.4-0.3-0.9-0.6-1.4-0.9      c-0.5-0.3-1.1-0.6-1.6-0.8l1.2-2.8c-1.5-0.5-3-0.9-4.6-1.1l-2.6,2.4c-1.4-0.1-2.8-0.1-4.2,0l-2.6-2.4c-1.6,0.2-3.1,0.6-4.6,1.1      l1.1,2.8c-0.6,0.2-1.1,0.5-1.6,0.8c-0.5,0.3-1,0.6-1.4,0.9l-4.8-0.7c-0.2,0.2-0.4,0.5-0.6,0.7L412.1,369.4z" class="st50"/><path data-cppathid="10196" d="M415.1,365.7c4.1-2.3,10.7-2.3,14.7,0c1.5,0.9,2.4,1.9,2.8,3.1c1-2,0.1-4.3-2.6-5.8      c-4-2.3-10.6-2.3-14.7,0c-2.6,1.5-3.5,3.5-2.9,5.4C412.9,367.4,413.8,366.5,415.1,365.7z" class="st53"/><path data-cppathid="10197" d="M412.8,372.7c0.5,0.3,1.1,0.6,1.6,0.8l-1.2,2.8c1.5,0.5,3,0.9,4.6,1.1l2.6-2.4c1.4,0.1,2.8,0.1,4.2,0      l2.6,2.4c1.6-0.2,3.1-0.6,4.6-1.1l-1.1-2.8c0.6-0.2,1.1-0.5,1.6-0.8s1-0.6,1.4-0.9l4.8,0.7c0.9-0.8,1.5-1.7,1.9-2.7l-4.2-1.5      c0.2-0.8,0.2-1.6,0-2.4l4.2-1.5c-0.4-0.9-1-1.8-1.9-2.7l-4.8,0.7c-0.4-0.3-0.9-0.6-1.4-0.9c-0.5-0.3-1.1-0.6-1.6-0.8l1.2-2.8      c-1.5-0.5-3-0.9-4.6-1.1l-2.6,2.4c-1.4-0.1-2.8-0.1-4.2,0l-2.6-2.4c-1.6,0.2-3.1,0.6-4.6,1.1l1.1,2.8c-0.6,0.2-1.1,0.5-1.6,0.8      s-1,0.6-1.4,0.9l-4.8-0.7c-0.9,0.8-1.5,1.7-1.9,2.7l4.2,1.5c-0.2,0.8-0.2,1.6,0,2.4l-4.2,1.5c0.4,0.9,1,1.8,1.9,2.7l4.8-0.7      C411.9,372.1,412.3,372.4,412.8,372.7z M415.3,362.9c4.1-2.3,10.7-2.3,14.7,0c4,2.3,4,6.1-0.1,8.5s-10.7,2.3-14.7,0      C411.2,369.1,411.2,365.3,415.3,362.9z" class="st20"/><polygon data-cppathid="10198" points="433.7,375.1 438.5,375.7 438.5,372.4 433.7,371.8     " class="st53"/><path data-cppathid="10199" d="M433.7,371.8c-0.4,0.3-0.9,0.6-1.4,0.9c-0.5,0.3-1.1,0.6-1.6,0.8l1.1,2.8l0,0c0,0,0.3-0.2,0.5-0.3      c0.5-0.3,1-0.6,1.4-0.9L433.7,371.8z" class="st54"/><path data-cppathid="10200" d="M438.5,375.7c0.9-0.8,1.5-1.7,1.9-2.7l0-3.3c-0.4,0.9-1.1,1.8-1.9,2.7L438.5,375.7z" class="st54"/><path data-cppathid="10201" d="M427.2,380.7c1.6-0.2,3.1-0.6,4.6-1.1l0-3.3c-1.5,0.5-3,0.9-4.6,1.1L427.2,380.7z" class="st54"/><polygon data-cppathid="10202" points="427.2,377.4 424.6,374.9 424.6,378.2 427.2,380.7     " class="st53"/><path data-cppathid="10203" d="M424.6,374.9c-1.4,0.1-2.8,0.1-4.2,0l0,3.3c1.4,0.1,2.8,0.1,4.2,0L424.6,374.9z" class="st53"/><polygon data-cppathid="10204" points="420.4,374.9 417.8,377.4 417.8,380.7 420.4,378.2     " class="st54"/><path data-cppathid="10205" d="M417.8,377.4c-1.6-0.2-3.1-0.6-4.6-1.1l0,3.3c1.5,0.5,3,0.9,4.6,1.1L417.8,377.4z" class="st53"/><path data-cppathid="10206" d="M436.2,368.3l1.2,0.4l3-1.1l0-3.3l-4.2,1.5C436.4,366.7,436.4,367.5,436.2,368.3z" class="st53"/><path data-cppathid="10207" d="M406.6,372.4c-0.8-0.8-1.5-1.7-1.9-2.7l0,3.3c0.4,0.9,1,1.8,1.9,2.7L406.6,372.4z" class="st53"/><path data-cppathid="10208" d="M411.4,375.1c0.4,0.3,0.9,0.6,1.4,0.9c0.2,0.1,0.3,0.2,0.5,0.2l1.2-2.8c-0.6-0.2-1.1-0.5-1.6-0.8      c-0.5-0.3-0.9-0.6-1.4-0.9L411.4,375.1z" class="st53"/><polygon data-cppathid="10209" points="411.5,371.8 406.6,372.4 406.6,375.7 411.4,375.1     " class="st54"/><path data-cppathid="10210" d="M409,368.3c-0.2-0.8-0.2-1.6,0-2.4l-4.2-1.5l0,3.3l3,1.1L409,368.3z" class="st53"/><path data-cppathid="10211" d="M432,361.2l0-3.3l-1.2,2.8C431.2,360.8,431.6,361,432,361.2z" class="st54"/><path data-cppathid="10212" d="M414.5,360.7l-1.1-2.8l0,3.3C413.7,361,414.1,360.8,414.5,360.7z" class="st53"/></g><g class="st14"><path data-cppathid="10213" d="M103.1,194.2c-0.6,0-1.2-0.1-1.6-0.4l-22.5-13c-0.5-0.3-0.8-0.7-0.8-1.2c0-0.5,0.4-1.1,1-1.4l23.8-13.8      c1.1-0.6,2.7-0.7,3.6-0.1l22.5,13c0.5,0.3,0.8,0.7,0.8,1.2c0,0.5-0.4,1.1-1,1.4l-23.8,13.8C104.5,194.1,103.8,194.2,103.1,194.2      z"/></g><g><path data-cppathid="10214" d="M103.3,113.2v4l27.1-15.6c1-0.6,2.2,0.1,2.2,1.2v49.8l-51.7,30c-1.2,0.7-2.7,0.7-3.9-0.1l-1.1-0.7      c-1-0.6-1.6-1.7-1.6-2.9v-49.3c0-1.4,0.7-2.7,2-3.4l25-14.4C102.2,111.5,103.3,112.1,103.3,113.2z" class="st6"/><g><radialGradient gradientUnits="userSpaceOnUse" gradientTransform="matrix(-0.4172 0 0 -0.4172 3861.9529 338.7068)" r="27.7573" cy="549.1378" cx="8974.042" id="SVGID_00000042731385318544217920000005534750416763629486_"><stop style="stop-color:#FFFFFF" offset="0"/><stop style="stop-color:#000000" offset="1"/></radialGradient><path data-cppathid="10215" d="M131,102.1l-27.1,15.6v-0.8l26.5-15.3       c0.7-0.4,1.5-0.1,1.9,0.4C131.9,101.9,131.5,101.9,131,102.1z" style="fill:url(#SVGID_00000042731385318544217920000005534750416763629486_);"/></g><polygon data-cppathid="10216" points="135.3,148.3 76.9,182 76.9,137.7 135.3,104     " class="st56"/><g><path data-cppathid="10217" d="M86.4,101l40.1-23.1c0.4-0.2,0.9,0.1,0.9,0.5v72.1c0,0.4-0.2,0.8-0.6,1l-40.1,23.1       c-0.4,0.2-0.9-0.1-0.9-0.5V102C85.8,101.6,86.1,101.2,86.4,101z" class="st5"/><radialGradient gradientUnits="userSpaceOnUse" gradientTransform="matrix(-0.4172 0 0 -0.4172 3861.9529 338.7068)" r="89.3224" cy="591.6696" cx="9022.2656" id="SVGID_00000032610637990127547930000005964796812355051169_"><stop style="stop-color:#FFFFFF" offset="0"/><stop style="stop-color:#C2C1C1" offset="0.2771"/><stop style="stop-color:#000000" offset="1"/></radialGradient><path data-cppathid="10218" d="M86.4,101l40.1-23.1       c0.3-0.2,0.7,0,0.8,0.2c-0.2-0.1-0.4-0.1-0.6,0l-40.1,23.1c-0.4,0.2-0.6,0.6-0.6,1v72.1c0,0.1,0,0.2,0.1,0.3       c-0.2-0.1-0.3-0.3-0.3-0.5V102C85.8,101.6,86.1,101.2,86.4,101z" style="fill:url(#SVGID_00000032610637990127547930000005964796812355051169_);"/><path data-cppathid="10219" d="M107.3,102.3l-2.7,1.6v1.1l2.7-1.6V102.3z M100.4,107.4l3.5-2v-1.1l-3.5,2V107.4z M102,110.4l-6.1,3.5       v1.1l6.1-3.5V110.4z M97.2,110.6v1.1l3.3-1.9v-1.1L97.2,110.6z M93.3,114l3.1-1.8v-1.1l-3.1,1.8V114z M117.1,107.8l4.5-2.6       v-1.1l-4.5,2.6V107.8z M119.5,101.4l2.1-1.2v-1.1l-2.1,1.2V101.4z M118.6,104.4l3-1.7v-1.1l-3,1.7V104.4z M120.6,98.2l1-0.6       v-1.1l-1,0.6L120.6,98.2L120.6,98.2z M119.8,96.2l1.8-1.1V94l-1.8,1.1L119.8,96.2L119.8,96.2z M98.1,108.7l1.5-0.9v-1.1       l-1.5,0.9V108.7z M116.3,97.1l-2.5,1.5v1.1l2.5-1.5V97.1z M113.8,101.1l-1.2,0.7v1.1l1.2-0.7V101.1z M112.9,99l-4.8,2.8v1.1       l4.8-2.8V99z M116.1,103.3l2.5-1.5v-1.1l-2.5,1.5V103.3z M111.8,102.2l-4.1,2.3v1.1l4.1-2.3V102.2z M114.4,109.4l1.9-1.1v-1.1       l-1.9,1.1V109.4z M112.6,107.9l5.3-3.1v-1.1l-5.3,3.1V107.9z M110.3,110.7l-4.8,2.8v1.1l4.8-2.8V110.7z M98.8,114.8l-4.3,2.5       v1.1l4.3-2.5V114.8z M98.3,117.6l-4.5,2.6v1.1l4.5-2.6V117.6z M110.4,105.5l-3.4,2v1.1l3.4-2V105.5z M105,111.2l-3.3,1.9v1.1       l3.3-1.9V111.2z M109.8,108.4l-4.1,2.3v1.1l4.1-2.3V108.4z M107,105l-3.3,1.9v1.1l3.3-1.9V105z M103.3,114.7v1.1l1.3-0.7v-1.1       L103.3,114.7z M117.1,96.6v1.1l1.9-1.1v-1.1L117.1,96.6z M111.2,106.1l4.1-2.4v-1.1l-4.1,2.4V106.1z M102.6,115.1l-3.5,2v1.1       l3.5-2V115.1z M101.3,109.3l1.5-0.9v-1.1l-1.5,0.9V109.3z M99.6,114.3v1.1l1.3-0.8v-1.1L99.6,114.3z M110.6,109l1.2-0.7v-1.1       l-1.2,0.7V109z M106.2,107.9l-3.5,2v1.1l3.5-2V107.9z M91.7,113.8v1.1l1-0.6v-1.1L91.7,113.8z M95,114.4l-3.3,1.9v1.1l3.3-1.9       V114.4z M93,120.6l-1.3,0.8v1.1l1.3-0.8V120.6z M91.7,119.9l2-1.1v-1.1l-2,1.1V119.9z M91.7,112.3l5.7-3.3V108l-5.7,3.3V112.3z        M119.9,97.5l-5.3,3.1v1.1l5.3-3.1V97.5z M113.6,108.8l-2.5,1.5v1.1l2.5-1.5V108.8z M98.8,131.6l-4.3,2.5v1.1l4.3-2.5V131.6z        M99.1,135.1l3.5-2V132l-3.5,2V135.1z M104.9,116.3l-3.3,1.9v1.1l3.3-1.9V116.3z M112.9,118.4l-4.8,2.8v1.1l4.8-2.8V118.4z        M100.6,128.1l-3.3,1.9v1.1l3.3-1.9V128.1z M103.8,123.7l-3.5,2v1.1l3.5-2V123.7z M110.4,115.6l-3.4,2v1.1l3.4-2V115.6z        M109.8,125.3l-4.1,2.3v1.1l4.1-2.3V125.3z M107.3,121.7l-2.7,1.6v1.1l2.7-1.6V121.7z M107.8,125l4.1-2.3v-1.1l-4.1,2.3V125z        M102.9,126.8l-1.5,0.9v1.1l1.5-0.9V126.8z M100.8,130.4l-1.3,0.8v1.1l1.3-0.8V130.4z M117.8,108.8l-5.3,3.1v1.1l5.3-3.1V108.8       z M94.4,123.4l4.1-2.3V120l-4.1,2.3V123.4z M104.6,131.9v-1.1l-1.3,0.7v1.1L104.6,131.9z M112.6,122.2l1.2-0.7v-1.1l-1.2,0.7       V122.2z M110.5,114.1l1.2-0.7v-1.1l-1.2,0.7V114.1z M99.6,126.1l-1.5,0.9v1.1l1.5-0.9V126.1z M113.7,119l2.5-1.5v-1.1l-2.5,1.5       V119z M105.7,116.9l4.1-2.3v-1.1l-4.1,2.3V116.9z M105.4,131.4l4.8-2.8v-1.1l-4.8,2.8V131.4z M103.6,127.4l3.3-1.9v-1.1       l-3.3,1.9V127.4z M101.6,131.1l3.3-1.9v-1.1l-3.3,1.9V131.1z M110.6,125.9l1.2-0.7v-1.1l-1.2,0.7V125.9z M115.3,112.8l-4.1,2.4       v1.1l4.1-2.4V112.8z M113.6,125.6l-2.5,1.5v1.1l2.5-1.5V125.6z M99.3,120.6l1.5-0.9v-1.1l-1.5,0.9V120.6z M119.8,115.6l1.8-1.1       v-1.1l-1.8,1.1L119.8,115.6L119.8,115.6z M119.5,111.5l2.1-1.2v-1.1l-2.1,1.2V111.5z M120.6,117.6l1-0.6v-1.1l-1,0.6       L120.6,117.6L120.6,117.6z M119,114.9l-1.9,1.1v1.1l1.9-1.1V114.9z M118.6,121.3l3-1.7v-1.1l-3,1.7V121.3z M93.7,134.6l-2,1.1       v1.1l2-1.1V134.6z M96.4,130.5l-3.1,1.8v1.1l3.1-1.8V130.5z M91.7,131.7l5.7-3.3v-1.1l-5.7,3.3V131.7z M118.6,109.5l3-1.7v-1.1       l-3,1.7V109.5z M92.7,132.6l-1,0.6v1.1l1-0.6V132.6z M116.1,113.4l2.5-1.5v-1.1l-2.5,1.5V113.4z M93.6,122.8l-2,1.1v1.1l2-1.1       V122.8z M114.4,126.3l1.9-1.1v-1.1l-1.9,1.1V126.3z M119.9,116.9l-5.3,3.1v1.1l5.3-3.1V116.9z M112.6,124.8l5.3-3.1v-1.1       l-5.3,3.1V124.8z M117.1,124.7l4.5-2.6V121l-4.5,2.6V124.7z M120.6,132l1-0.6v-1.1l-1,0.6L120.6,132L120.6,132z M113.6,142.5       L111,144v1.1l2.5-1.5V142.5z M121.6,137.9l-4.5,2.6v1.1l4.5-2.6V137.9z M118.6,138.2l3-1.7v-1.1l-3,1.7V138.2z M111.8,141       l-1.2,0.7v1.1l1.2-0.7V141z M119.5,135.2l2.1-1.2v-1.1l-2.1,1.2V135.2z M116.3,141l-1.9,1.1v1.1l1.9-1.1V141z M93.7,151.5       l-2,1.1v1.1l2-1.1V151.5z M121.7,145l-4,2.3v1.1l4-2.3V145z M92.7,147l-1,0.6v1.1l1-0.6V147z M98.8,148.6l-4.3,2.5v1.1l4.3-2.5       V148.6z M100.8,148.4v-1.1l-1.3,0.8v1.1L100.8,148.4z M93.6,141.4l-2,1.1v1.1l2-1.1V141.4z M95.9,148.8l6.1-3.5v-1.1l-6.1,3.5       V148.8z M102.6,148.9l-3.5,2v1.1l3.5-2V148.9z M113.7,133.4l2.5-1.5v-1.1l-2.5,1.5V133.4z M104.6,147.7l-1.3,0.7v1.1l1.3-0.7       V147.7z M108.1,136.7l4.8-2.8v-1.1l-4.8,2.8V136.7z M110.3,144.4l-4.8,2.8v1.1l4.8-2.8V144.4z M101.6,148l3.3-1.9V145l-3.3,1.9       V148z M107,142.4l3.4-2v-1.1l-3.4,2V142.4z M112.6,136.6l1.2-0.7v-1.1l-1.2,0.7V136.6z M95,148.2l-3.3,1.9v1.1l3.3-1.9V148.2z        M104.6,138.7l2.7-1.6V136l-2.7,1.6V138.7z M105.7,135.5l4.1-2.3v-1.1l-4.1,2.3V135.5z M107.8,139.4l4.1-2.3V136l-4.1,2.3       V139.4z M99.6,140.5l-1.5,0.9v1.1l1.5-0.9V140.5z M111.2,139.9l4.1-2.4v-1.1l-4.1,2.4V139.9z M94.4,142l4.1-2.3v-1.1l-4.1,2.3       V142z M119,129.3l-1.9,1.1v1.1l1.9-1.1V129.3z M112.6,141.7l5.3-3.1v-1.1l-5.3,3.1V141.7z M117.8,127.4l-5.3,3.1v1.1l5.3-3.1       V127.4z M97.2,145.5l3.3-1.9v-1.1l-3.3,1.9V145.5z M119.9,131.3l-5.3,3.1v1.1l5.3-3.1V131.3z M116.1,137.1l2.5-1.5v-1.1       l-2.5,1.5V137.1z M119.8,129.9l1.8-1.1v-1.1l-1.8,1.1L119.8,129.9L119.8,129.9z M93.3,147.7l3.1-1.8v-1.1l-3.1,1.8V147.7z        M91.7,146.1l5.7-3.3v-1.1l-5.7,3.3V146.1z M110.5,132.7l1.2-0.7V131l-1.2,0.7V132.7z M118.6,128.1l3-1.7v-1.1l-3,1.7V128.1z        M100.4,141.1l3.5-2V138l-3.5,2V141.1z M100.8,138.4v-1.1l-1.5,0.9v1.1L100.8,138.4z M101.3,143.1l1.5-0.9v-1.1l-1.5,0.9V143.1       z M101.6,137.9l3.3-1.9v-1.1l-3.3,1.9V137.9z M103.6,141.8l3.3-1.9v-1.1l-3.3,1.9V141.8z M102.8,144.8l3.5-2v-1.1l-3.5,2V144.8       z M109.8,142.2l-4.1,2.3v1.1l4.1-2.3V142.2z" class="st15"/><path data-cppathid="10220" d="M108.4,153.1c0,0.1,0.1,0.1,0.1,0.1c0.1,0,0.1,0,0.2-0.1c0.3-0.4,0.5-0.9,0.5-1.4       c0.1,0.1,0.3,0.2,0.4,0.3c0.1,0.1,0.2,0.1,0.2,0.2c0.4,0.3,0.6,0.6,0.8,1c-1.1,1.4-2.1,3.2-1.7,5.1c0,0.1,0.1,0.1,0.1,0.1       c0,0,0.1,0,0.1,0c0.4,0,0.7-0.3,0.9-0.7c0.5-0.9,1-1.9,1.1-2.9c0.1-0.6,0-1.1-0.2-1.6c0.2-0.2,0.3-0.4,0.5-0.6       c0.3-0.3,0.6-0.6,0.8-0.9c0.5-0.5,1-1.1,1.4-1.6c-0.1,0.6,0,1.2,0.1,1.7c0.2,0.8,0.5,1.5,1,2.1l0.2-0.3       c-0.4-0.5-0.8-1.2-0.9-1.9c-0.1-0.7-0.2-1.4,0-2.2c0.5-0.7,1-1.5,1.3-2.4c0-0.1,0-0.1,0-0.2s-0.1-0.1-0.2-0.1       c-0.9,0.2-1.1,1.1-1.2,1.4c-0.1,0.4-0.2,0.7-0.2,1.1c-0.5,0.7-1.1,1.4-1.7,2c-0.3,0.3-0.6,0.6-0.8,1c-0.1,0.2-0.3,0.3-0.4,0.5       c-0.2-0.4-0.5-0.7-0.8-1c-0.1-0.1-0.2-0.1-0.2-0.2c-0.3-0.2-0.5-0.4-0.6-0.6c0-0.1,0-0.2-0.1-0.4c0-0.1-0.1-0.1-0.2-0.1       c-0.1,0-0.1,0.1-0.2,0.1c0,0.2,0,0.3,0.1,0.5c0,0.4-0.1,0.9-0.3,1.3c-0.1-0.7-0.2-1.3-0.1-2c0.1-0.4,0.3-0.8,0.7-1.1l-0.2-0.3       c-0.4,0.3-0.7,0.8-0.9,1.3C108,151.4,108.2,152.3,108.4,153.1z M114.4,148.8c0-0.1,0.1-0.2,0.1-0.3c0.1-0.5,0.3-0.8,0.6-1       C114.9,148,114.6,148.4,114.4,148.8z M110.8,153.7c0.1,0.4,0.2,0.8,0.1,1.2c-0.1,1-0.6,1.9-1,2.8c-0.1,0.2-0.3,0.5-0.6,0.5       C109,156.6,109.9,154.9,110.8,153.7z" class="st58"/><linearGradient gradientTransform="matrix(-1 0 0 -1 8899.582 478)" y2="396.0145" x2="8726.2451" y1="296.5529" x1="8806.5488" gradientUnits="userSpaceOnUse" id="SVGID_00000119103058515855965250000010322729136896710333_"><stop style="stop-color:#45108A" offset="9.600000e-02"/><stop style="stop-color:#7C1DC9" offset="1"/></linearGradient><polygon data-cppathid="10221" points="       115.8,150.7 121.6,147.4 121.6,148.5 115.8,151.8      " style="opacity:0.8;fill:url(#SVGID_00000119103058515855965250000010322729136896710333_);enable-background:new    ;"/><polygon data-cppathid="10222" points="97.6,101 113.5,91.8 113.5,93.2 97.6,102.4      " class="st6"/><polygon data-cppathid="10223" points="100.9,101.8 110.3,96.3 110.3,97.7 100.9,103.2      " class="st6"/></g><g class="st14"><polygon data-cppathid="10224" points="135.3,149.8 78,182.8 78,141.4 135.3,108.4      "/></g><path data-cppathid="10225" d="M134.8,151.6l-54,31.2c-1.1,0.7-2.5,0.7-3.7,0.1l-0.4-0.2l0.4,0.1c0.9,0.3,1.8-0.3,1.8-1.3v-37.1      c0-1.4,0.7-2.7,2-3.4l54.2-31.3c1-0.6,2.2,0.1,2.2,1.2v36.2C137.3,149,136.4,150.7,134.8,151.6z" class="st6"/><path data-cppathid="10226" d="M77.2,182.7c0.9,0.3,1.8-0.3,1.8-1.3v-37.1c0-1.4,0.7-2.7,2-3.4l54.2-31.3c0.6-0.4,1.4-0.2,1.8,0.3      c-0.4-0.2-0.9-0.2-1.3,0.1l-54.2,31.3c-1.2,0.7-2,2-2,3.4v37.1c0,0.7-0.5,1.2-1.2,1.3C77.9,183.1,77.5,183,77.2,182.7l-0.4-0.1      L77.2,182.7z" class="st60"/></g></g></g></g></svg>