<?xml version="1.0" encoding="UTF-8"?>
<svg xmlns="http://www.w3.org/2000/svg" onmouseup="{ if(window.parent.document.onmouseup) window.parent.document.onmouseup(arguments[0]);}" viewBox="0 0 1156.82 1080" data-name="Layer 1" id="Layer_1"><defs><style>.cls-1{fill:#333e48;}.cls-2,.cls-3,.cls-4,.cls-6{fill:none;}.cls-2{stroke:#00ffd3;}.cls-2,.cls-3,.cls-6{stroke-miterlimit:10;stroke-width:2px;}.cls-3{stroke:#f7a800;}.cls-5{fill:#fff;}.cls-6{stroke:#fff;}.cls-7{isolation:isolate;}.cls-8{fill:#f7a800;}.cls-9{fill:#00ffd3;}</style></defs><rect data-cppathid="10000" height="1080" width="1156.82" class="cls-1"/><polygon data-cppathid="10001" points="76.7 829.69 76.7 964.88 944.93 964.88 1080.11 829.69 1080.11 250.31 1080.12 250.31 1080.12 115.12 211.89 115.12 76.7 250.31 76.7 829.69" class="cls-2"/><polyline data-cppathid="10002" points="1080.12 233.41 1063.22 233.41 1063.22 822.69 937.93 947.98 76.7 947.98" class="cls-3"/><polyline data-cppathid="10003" points="76.7 846.59 93.6 846.59 93.6 257.31 218.89 132.02 1080.12 132.02" class="cls-3"/><rect data-cppathid="10004" height="33.8" width="33.8" y="132.02" x="211.89" class="cls-4"/><circle data-cppathid="10005" r="2.11" cy="148.92" cx="228.79" class="cls-5"/><rect data-cppathid="10006" height="33.8" width="33.8" y="267.2" x="153.45" class="cls-4"/><rect data-cppathid="10007" height="33.8" width="33.8" y="267.2" x="966.14" class="cls-4"/><rect data-cppathid="10008" height="33.8" width="33.8" y="779" x="153.45" class="cls-4"/><rect data-cppathid="10009" height="33.8" width="33.8" y="779" x="966.14" class="cls-4"/><rect data-cppathid="10010" height="33.8" width="33.8" y="250.31" x="93.6" class="cls-4"/><circle data-cppathid="10011" r="2.11" cy="267.2" cx="110.5" class="cls-5"/><rect data-cppathid="10012" height="33.8" width="33.8" y="914.19" x="911.13" class="cls-4"/><circle data-cppathid="10013" r="2.11" cy="931.08" cx="928.03" class="cls-5"/><rect data-cppathid="10014" height="33.8" width="33.8" y="795.9" x="1029.42" class="cls-4"/><circle data-cppathid="10015" r="2.11" cy="812.8" cx="1046.32" class="cls-5"/><polygon data-cppathid="10016" points="154.35 757.23 154.35 868.26 893.16 868.26 1002.47 757.23 1002.47 322.77 1002.47 322.77 1002.47 211.74 263.65 211.74 154.35 322.77 154.35 757.23" class="cls-6"/><g class="cls-7"><g class="cls-7"><path data-cppathid="10017" d="M227.7,415.34h15v5.14H221V387.07h6.7Z" class="cls-8"/><path data-cppathid="10018" d="M254.28,420.48h-6.7V387.07h6.7Z" class="cls-8"/><path data-cppathid="10019" d="M278.19,411.69h.14l8.58-24.62h8.75v33.41H289V397.67l-.13,0-8.27,22.83H276l-8.26-22.88-.14,0v22.86h-6.7V387.07h8.79Z" class="cls-8"/><path data-cppathid="10020" d="M309,420.48h-6.71V387.07H309Z" class="cls-8"/><path data-cppathid="10021" d="M338.23,392.23h-9.55v28.25H322V392.23h-9.41v-5.16h25.66Z" class="cls-8"/><path data-cppathid="10022" d="M356.81,413.28H346l-2.25,7.2h-7L348,387.07h6.86l11.23,33.41h-7ZM347.64,408h7.55l-3.7-11.77h-.14Z" class="cls-8"/><path data-cppathid="10023" d="M408,420.48h-6.7L387.84,398l-.14,0v22.51H381V387.07h6.7l13.48,22.51.13,0V387.07H408Z" class="cls-8"/><path data-cppathid="10024" d="M440.65,387.07v21.87a11,11,0,0,1-3.74,8.83A14.44,14.44,0,0,1,427.2,421a14.26,14.26,0,0,1-9.65-3.19,11,11,0,0,1-3.71-8.83V387.07h6.73v21.87a6.87,6.87,0,0,0,1.79,5.12,6.58,6.58,0,0,0,4.84,1.76,6.71,6.71,0,0,0,4.91-1.76,6.83,6.83,0,0,0,1.81-5.12V387.07Z" class="cls-8"/><path data-cppathid="10025" d="M465.55,405.79H453.16v9.55h14.73v5.14H446.45V387.07h21.39v5.16H453.16v8.4h12.39Z" class="cls-8"/><path data-cppathid="10026" d="M490,411.76a3.93,3.93,0,0,0-1.34-3.1,13.59,13.59,0,0,0-4.72-2.2,26.6,26.6,0,0,1-8.77-4.11,7.75,7.75,0,0,1-3-6.45,8.14,8.14,0,0,1,3.37-6.71,13.72,13.72,0,0,1,8.61-2.6,13.57,13.57,0,0,1,8.94,2.8,8.72,8.72,0,0,1,3.27,7.34l-.05.14h-6.49a4.89,4.89,0,0,0-1.52-3.85,6.2,6.2,0,0,0-4.24-1.34,5.58,5.58,0,0,0-3.83,1.2,3.85,3.85,0,0,0-1.36,3.05,3.31,3.31,0,0,0,1.47,2.78,19.52,19.52,0,0,0,5.07,2.31,21.93,21.93,0,0,1,8.4,4.07,8.36,8.36,0,0,1,2.89,6.63,8,8,0,0,1-3.35,6.77A14.54,14.54,0,0,1,484.5,421a15.84,15.84,0,0,1-9.26-2.68q-3.86-2.68-3.75-8l.05-.14H478a5.23,5.23,0,0,0,1.75,4.36,7.29,7.29,0,0,0,4.72,1.4,6.46,6.46,0,0,0,4.1-1.12A3.65,3.65,0,0,0,490,411.76Z" class="cls-8"/><path data-cppathid="10027" d="M524.94,392.23h-9.55v28.25h-6.7V392.23h-9.41v-5.16h25.66Z" class="cls-8"/><path data-cppathid="10028" d="M535.31,407.13v13.35h-6.7V387.07h11.57q5.72,0,8.94,2.6a8.82,8.82,0,0,1,3.22,7.27,7.34,7.34,0,0,1-1.36,4.44,9.53,9.53,0,0,1-4,3,7.22,7.22,0,0,1,4.25,2.92,9.18,9.18,0,0,1,1.3,5.05v2.45a12.28,12.28,0,0,0,.38,2.93,4,4,0,0,0,1.29,2.26v.48h-6.9a3.7,3.7,0,0,1-1.19-2.43,22.14,22.14,0,0,1-.26-3.28V412.4a5.33,5.33,0,0,0-1.36-3.89,5.22,5.22,0,0,0-3.87-1.38Zm0-5.17h4.75a6.29,6.29,0,0,0,4.2-1.19,4.44,4.44,0,0,0,1.38-3.54,4.84,4.84,0,0,0-1.39-3.64,5.56,5.56,0,0,0-4.07-1.36h-4.87Z" class="cls-8"/><path data-cppathid="10029" d="M576,413.28H565.15l-2.25,7.2h-7l11.27-33.41H574l11.22,33.41h-7ZM566.8,408h7.55l-3.69-11.77h-.14Z" class="cls-8"/><path data-cppathid="10030" d="M625.23,409.42l0,.14a10.49,10.49,0,0,1-3.26,8.38q-3.36,3-9.25,3a12.8,12.8,0,0,1-9.71-3.86,13.89,13.89,0,0,1-3.69-10v-6.63a14.12,14.12,0,0,1,3.6-10,12.25,12.25,0,0,1,9.45-3.89q6.11,0,9.55,3c2.3,2,3.41,4.79,3.35,8.4l0,.14h-6.52a6.58,6.58,0,0,0-1.55-4.79,6.46,6.46,0,0,0-4.79-1.57,5.42,5.42,0,0,0-4.69,2.42,10.75,10.75,0,0,0-1.69,6.25v6.68a10.43,10.43,0,0,0,1.78,6.29,6.64,6.64,0,0,0,9.43.86,6.83,6.83,0,0,0,1.48-4.83Z" class="cls-8"/><path data-cppathid="10031" d="M647.49,413.28H636.66l-2.25,7.2h-7l11.27-33.41h6.86l11.22,33.41h-7ZM638.31,408h7.55l-3.69-11.77H642Z" class="cls-8"/><path data-cppathid="10032" d="M666.68,408.37v12.11H660V387.07h12.79q5.76,0,9.06,2.94a10.66,10.66,0,0,1,0,15.44c-2.2,1.94-5.22,2.92-9.06,2.92Zm0-5.17h6.08a5.59,5.59,0,0,0,4.24-1.52,5.42,5.42,0,0,0,1.45-3.89,5.69,5.69,0,0,0-1.44-4,5.48,5.48,0,0,0-4.25-1.57h-6.08Z" class="cls-8"/><path data-cppathid="10033" d="M703.26,413.28H692.42l-2.24,7.2h-7l11.26-33.41h6.87l11.22,33.41h-7ZM694.08,408h7.55l-3.7-11.77h-.14Z" class="cls-8"/><path data-cppathid="10034" d="M740.55,409.42l0,.14a10.45,10.45,0,0,1-3.25,8.38q-3.36,3-9.25,3a12.8,12.8,0,0,1-9.71-3.86,13.89,13.89,0,0,1-3.69-10v-6.63a14.12,14.12,0,0,1,3.6-10,12.25,12.25,0,0,1,9.45-3.89q6.1,0,9.55,3t3.35,8.4l0,.14h-6.51a6.58,6.58,0,0,0-1.55-4.79,6.46,6.46,0,0,0-4.79-1.57,5.41,5.41,0,0,0-4.69,2.42,10.75,10.75,0,0,0-1.69,6.25v6.68a10.43,10.43,0,0,0,1.78,6.29,6.64,6.64,0,0,0,9.43.86,6.83,6.83,0,0,0,1.48-4.83Z" class="cls-8"/><path data-cppathid="10035" d="M752.55,420.48h-6.7V387.07h6.7Z" class="cls-8"/><path data-cppathid="10036" d="M759.18,420.48V387.07h11.66a13.78,13.78,0,0,1,10.1,3.91,13.48,13.48,0,0,1,4,10v5.53a13.42,13.42,0,0,1-4,10,13.81,13.81,0,0,1-10.1,3.89Zm6.7-28.25v23.11h5a6.57,6.57,0,0,0,5.33-2.46,9.72,9.72,0,0,0,2-6.33V401a9.61,9.61,0,0,0-2-6.29,6.57,6.57,0,0,0-5.33-2.46Z" class="cls-8"/><path data-cppathid="10037" d="M807.22,413.28H796.38l-2.25,7.2h-7l11.26-33.41h6.87l11.22,33.41h-7ZM798,408h7.55l-3.7-11.77h-.14Z" class="cls-8"/><path data-cppathid="10038" d="M819.7,420.48V387.07h11.66a13.8,13.8,0,0,1,10.1,3.91,13.52,13.52,0,0,1,4,10v5.53a13.46,13.46,0,0,1-4,10,13.82,13.82,0,0,1-10.1,3.89Zm6.7-28.25v23.11h5a6.54,6.54,0,0,0,5.32-2.46,9.67,9.67,0,0,0,2-6.33V401a9.56,9.56,0,0,0-2-6.29,6.54,6.54,0,0,0-5.32-2.46Z" class="cls-8"/><path data-cppathid="10039" d="M862.5,420.48V387.07h11.66a13.8,13.8,0,0,1,10.1,3.91,13.52,13.52,0,0,1,4,10v5.53a13.46,13.46,0,0,1-4,10,13.82,13.82,0,0,1-10.1,3.89Zm6.7-28.25v23.11h5a6.54,6.54,0,0,0,5.32-2.46,9.67,9.67,0,0,0,2-6.33V401a9.56,9.56,0,0,0-2-6.29,6.54,6.54,0,0,0-5.32-2.46Z" class="cls-8"/><path data-cppathid="10040" d="M912.69,405.79H900.3v9.55H915v5.14H893.6V387.07H915v5.16H900.3v8.4h12.39Z" class="cls-8"/></g><g class="cls-7"><path data-cppathid="10041" d="M294.66,513.42h-44v33.91H303v18.25H226.85V446.91h76v18.34H250.65v29.83h44Z" class="cls-5"/><path data-cppathid="10042" d="M361.65,489l22.25-42.06h27.71l-35.2,58.85,37.24,59.82H384.88L362,522.79l-22.9,42.79h-27.8l36.11-59.82-35.21-58.85h27.55Z" class="cls-5"/><path data-cppathid="10043" d="M508.6,465.25H474.7V565.58H450.9V465.25H417.48V446.91H508.6Z" class="cls-5"/><path data-cppathid="10044" d="M545.44,518.15v47.43h-23.8V446.91h41.08q20.29,0,31.75,9.26T605.92,482a26,26,0,0,1-4.85,15.77q-4.86,6.64-14.14,10.72,10.52,3.09,15.11,10.35t4.61,17.93v8.72A42.92,42.92,0,0,0,608,555.84q1.34,5.43,4.6,8v1.71H588.07q-3.27-2.61-4.2-8.64a76.45,76.45,0,0,1-.94-11.65v-8.4q0-8.88-4.85-13.81t-13.73-4.93Zm0-18.34h16.87q10,0,14.92-4.24T582.12,483q0-8.14-4.93-13t-14.47-4.81H545.44Z" class="cls-5"/><path data-cppathid="10045" d="M689.86,540H651.39l-8,25.59H618.55l40-118.67h24.37l39.85,118.67H697.93Zm-32.6-18.66h26.82L671,479.52h-.49Z" class="cls-5"/><path data-cppathid="10046" d="M802,513.42H758v33.91h52.33v18.25H734.2V446.91h76v18.34H758v29.83h44Z" class="cls-5"/><path data-cppathid="10047" d="M850.83,518.15v47.43H827V446.91h41.08q20.29,0,31.75,9.26T911.31,482a26,26,0,0,1-4.85,15.77q-4.86,6.64-14.14,10.72,10.51,3.09,15.12,10.35t4.6,17.93v8.72a43.39,43.39,0,0,0,1.34,10.39q1.35,5.43,4.61,8v1.71H893.46q-3.27-2.61-4.2-8.64a75.19,75.19,0,0,1-.94-11.65v-8.4q0-8.88-4.85-13.81t-13.73-4.93Zm0-18.34H867.7q10,0,14.92-4.24T887.51,483q0-8.14-4.93-13t-14.47-4.81H850.83Z" class="cls-5"/></g><g class="cls-7"><path data-cppathid="10048" d="M240.9,670.93H225.76V595.4H240.9Z" class="cls-9"/><path data-cppathid="10049" d="M317,670.93H301.81L271.36,620l-.32,0v50.89H255.9V595.4H271l30.46,50.89.31,0V595.4H317Z" class="cls-9"/><path data-cppathid="10050" d="M375,639.55H346v31.38H330.86V595.4H380.3v11.67H346v20.8h29Z" class="cls-9"/><path data-cppathid="10051" d="M451.06,640q0,14-8.77,23t-22.82,9q-14,0-22.72-9.08T388,640V626.37q0-13.86,8.69-23t22.64-9.1q14.07,0,22.88,9.1t8.82,23ZM436,626.27q0-8.82-4.41-14.48t-12.2-5.65q-7.67,0-11.95,5.65t-4.28,14.48V640q0,9,4.3,14.63t12,5.66q7.78,0,12.14-5.66T436,640Z" class="cls-9"/><path data-cppathid="10052" d="M478.19,640.74v30.19H463.05V595.4h26.14q12.92,0,20.21,5.89t7.29,16.42a16.51,16.51,0,0,1-3.09,10,21.54,21.54,0,0,1-9,6.83q6.69,2,9.62,6.58a20.87,20.87,0,0,1,2.93,11.42v5.55a27.47,27.47,0,0,0,.86,6.61,9.09,9.09,0,0,0,2.93,5.11v1.09H505.33c-1.39-1.1-2.28-2.94-2.68-5.5a49.26,49.26,0,0,1-.59-7.42v-5.34q0-5.65-3.09-8.79t-8.74-3.14Zm0-11.67h10.74q6.39,0,9.5-2.7t3.11-8a11,11,0,0,0-3.14-8.25q-3.13-3.06-9.21-3.06h-11Z" class="cls-9"/><path data-cppathid="10053" d="M569.81,651.06h.31l19.41-55.66h19.76v75.53H594.14V619.37l-.31-.06-18.68,51.62H564.88l-18.67-51.72-.31,0v51.67H530.75V595.4h19.87Z" class="cls-9"/><path data-cppathid="10054" d="M663.5,654.64H639l-5.09,16.29H618.11l25.47-75.53h15.51l25.37,75.53H668.64Zm-20.75-11.88h17.07l-8.35-26.61h-.31Z" class="cls-9"/><path data-cppathid="10055" d="M747.81,645.93l.1.31q.21,12.09-7.37,18.93T719.64,672q-13.6,0-21.95-8.74t-8.35-22.59v-15q0-13.8,8.14-22.6t21.38-8.79q13.8,0,21.58,6.74T748,620l-.1.31H733.18q0-7.26-3.51-10.81T718.86,606a12.23,12.23,0,0,0-10.61,5.47q-3.81,5.47-3.81,14.14v15.1q0,8.71,4,14.21a13.05,13.05,0,0,0,11.18,5.5q6.79,0,10.14-3.55t3.34-10.92Z" class="cls-9"/><path data-cppathid="10056" d="M774.94,670.93H759.79V595.4h15.15Z" class="cls-9"/><path data-cppathid="10057" d="M851,640q0,14-8.76,23t-22.83,9q-14,0-22.72-9.08T788,640V626.37q0-13.86,8.69-23t22.65-9.1q14.05,0,22.87,9.1t8.82,23ZM836,626.27q0-8.82-4.41-14.48t-12.19-5.65q-7.68,0-12,5.65t-4.28,14.48V640q0,9,4.3,14.63t12,5.66q7.78,0,12.14-5.66T836,640ZM822.56,573h16.86l.11.31-14.37,13.49H812.24Z" class="cls-9"/><path data-cppathid="10058" d="M924.09,670.93H908.94L878.49,620l-.31,0v50.89H863V595.4h15.15l30.45,50.89.31,0V595.4h15.15Z" class="cls-9"/></g></g></svg>