<?xml version="1.0" encoding="UTF-8"?>
<svg xmlns="http://www.w3.org/2000/svg" onmouseup="{ if(window.parent.document.onmouseup) window.parent.document.onmouseup(arguments[0]);}" viewBox="0 0 1156.82 1080" data-name="Layer 1" id="Layer_1"><defs><style>.cls-1{fill:#333e48;}.cls-2,.cls-3,.cls-4,.cls-6{fill:none;}.cls-2{stroke:#00ffd3;}.cls-2,.cls-3,.cls-6{stroke-miterlimit:10;stroke-width:2px;}.cls-3{stroke:#f7a800;}.cls-5{fill:#fff;}.cls-6{stroke:#fff;}.cls-7{isolation:isolate;}.cls-8{fill:#f7a800;}.cls-9{fill:#00ffd3;}</style></defs><rect data-cppathid="10000" height="1080" width="1156.82" class="cls-1"/><polygon data-cppathid="10001" points="76.7 829.69 76.7 964.88 944.93 964.88 1080.11 829.69 1080.11 250.31 1080.12 250.31 1080.12 115.12 211.89 115.12 76.7 250.31 76.7 829.69" class="cls-2"/><polyline data-cppathid="10002" points="1080.12 233.41 1063.22 233.41 1063.22 822.69 937.93 947.98 76.7 947.98" class="cls-3"/><polyline data-cppathid="10003" points="76.7 846.59 93.6 846.59 93.6 257.31 218.89 132.02 1080.12 132.02" class="cls-3"/><rect data-cppathid="10004" height="33.8" width="33.8" y="132.02" x="211.89" class="cls-4"/><circle data-cppathid="10005" r="2.11" cy="148.92" cx="228.79" class="cls-5"/><rect data-cppathid="10006" height="33.8" width="33.8" y="267.2" x="153.45" class="cls-4"/><rect data-cppathid="10007" height="33.8" width="33.8" y="267.2" x="966.14" class="cls-4"/><rect data-cppathid="10008" height="33.8" width="33.8" y="779" x="153.45" class="cls-4"/><rect data-cppathid="10009" height="33.8" width="33.8" y="779" x="966.14" class="cls-4"/><rect data-cppathid="10010" height="33.8" width="33.8" y="250.31" x="93.6" class="cls-4"/><circle data-cppathid="10011" r="2.11" cy="267.2" cx="110.5" class="cls-5"/><rect data-cppathid="10012" height="33.8" width="33.8" y="914.19" x="911.13" class="cls-4"/><circle data-cppathid="10013" r="2.11" cy="931.08" cx="928.03" class="cls-5"/><rect data-cppathid="10014" height="33.8" width="33.8" y="795.9" x="1029.42" class="cls-4"/><circle data-cppathid="10015" r="2.11" cy="812.8" cx="1046.32" class="cls-5"/><polygon data-cppathid="10016" points="154.35 757.23 154.35 868.26 893.16 868.26 1002.47 757.23 1002.47 322.77 1002.47 322.77 1002.47 211.74 263.65 211.74 154.35 322.77 154.35 757.23" class="cls-6"/><g class="cls-7"><g class="cls-7"><path data-cppathid="10017" d="M244.43,471.61H227.37L223.83,483h-11l17.74-52.61h10.8L259,483H248ZM230,463.34h11.89L236,444.8h-.21Z" class="cls-8"/><path data-cppathid="10018" d="M300.43,468.69l.65,2.89h.22l.61-2.78,11.46-38.45H324.5L306.61,483H295.77l-17.85-52.61h11.13Z" class="cls-8"/><path data-cppathid="10019" d="M359.65,459.83H340.14v15h23.2V483H329.59V430.35h33.68v8.13H340.14v13.23h19.51Z" class="cls-8"/><path data-cppathid="10020" d="M410.2,465.54l.07.22q.15,8.42-5.13,13.19t-14.56,4.77q-9.46,0-15.28-6.09t-5.82-15.74V451.45q0-9.61,5.67-15.73T390,429.59q9.61,0,15,4.7t5.28,13.22l-.08.22H400q0-5.06-2.44-7.53T390,437.72a8.5,8.5,0,0,0-7.39,3.81,16.9,16.9,0,0,0-2.65,9.85v10.51a16.33,16.33,0,0,0,2.8,9.9,9.07,9.07,0,0,0,7.78,3.83c3.16,0,5.51-.82,7.07-2.47S400,469,400,465.54Z" class="cls-8"/><path data-cppathid="10021" d="M447.89,459.83H428.38v15h23.19V483H417.83V430.35H451.5v8.13H428.38v13.23h19.51Z" class="cls-8"/><path data-cppathid="10022" d="M486.41,469.23a6.17,6.17,0,0,0-2.12-4.88c-1.41-1.23-3.88-2.38-7.42-3.47q-9.11-2.75-13.82-6.46a12.25,12.25,0,0,1-4.72-10.16,12.78,12.78,0,0,1,5.31-10.57q5.31-4.1,13.55-4.1,8.74,0,14.08,4.41a13.8,13.8,0,0,1,5.15,11.56l-.08.22H486.12a7.65,7.65,0,0,0-2.39-6,9.74,9.74,0,0,0-6.68-2.12,8.88,8.88,0,0,0-6,1.88,6.14,6.14,0,0,0-2.13,4.81,5.26,5.26,0,0,0,2.31,4.39,31.43,31.43,0,0,0,8,3.63q8.67,2.46,13.22,6.41A13.15,13.15,0,0,1,497,469.16a12.56,12.56,0,0,1-5.28,10.66q-5.26,3.9-13.95,3.9a24.86,24.86,0,0,1-14.57-4.23q-6.09-4.23-5.91-12.61l.07-.22h10.23q0,4.66,2.74,6.87a11.55,11.55,0,0,0,7.44,2.2q4.23,0,6.45-1.77A5.71,5.71,0,0,0,486.41,469.23Z" class="cls-8"/><path data-cppathid="10023" d="M533.7,463.88V483H523.15V430.35h20.13q9.08,0,14.27,4.63a16.78,16.78,0,0,1,0,24.31q-5.2,4.59-14.27,4.59Zm0-8.13h9.58q4.41,0,6.68-2.4a8.53,8.53,0,0,0,2.28-6.13A8.92,8.92,0,0,0,550,441c-1.5-1.65-3.74-2.48-6.7-2.48H533.7Z" class="cls-8"/><path data-cppathid="10024" d="M580.86,461.93v21H570.31V430.35h18.21q9,0,14.07,4.1t5.08,11.44a11.54,11.54,0,0,1-2.15,7,15,15,0,0,1-6.27,4.75,11.34,11.34,0,0,1,6.7,4.59,14.54,14.54,0,0,1,2,7.95V474a19,19,0,0,0,.6,4.6,6.38,6.38,0,0,0,2,3.56V483H599.76a5.83,5.83,0,0,1-1.87-3.83,34.56,34.56,0,0,1-.41-5.17v-3.72a8.36,8.36,0,0,0-2.15-6.12,8.14,8.14,0,0,0-6.09-2.19Zm0-8.13h7.48q4.44,0,6.61-1.88a7,7,0,0,0,2.17-5.56,7.66,7.66,0,0,0-2.19-5.75c-1.46-1.42-3.59-2.13-6.41-2.13h-7.66Z" class="cls-8"/><path data-cppathid="10025" d="M647.52,459.83H628v15h23.2V483H617.46V430.35h33.68v8.13H628v13.23h19.51Z" class="cls-8"/><path data-cppathid="10026" d="M686,469.23a6.16,6.16,0,0,0-2.11-4.88c-1.41-1.23-3.89-2.38-7.43-3.47q-9.11-2.75-13.82-6.46A12.27,12.27,0,0,1,658,444.26a12.79,12.79,0,0,1,5.32-10.57q5.31-4.1,13.55-4.1,8.74,0,14.07,4.41a13.8,13.8,0,0,1,5.15,11.56l-.07.22H685.75a7.65,7.65,0,0,0-2.38-6,9.75,9.75,0,0,0-6.69-2.12,8.83,8.83,0,0,0-6,1.88,6.14,6.14,0,0,0-2.13,4.81,5.26,5.26,0,0,0,2.31,4.39,31.15,31.15,0,0,0,8,3.63q8.69,2.46,13.23,6.41a13.17,13.17,0,0,1,4.55,10.43,12.58,12.58,0,0,1-5.27,10.66q-5.28,3.9-14,3.9a24.92,24.92,0,0,1-14.58-4.23q-6.09-4.23-5.91-12.61l.07-.22h10.23c0,3.11.91,5.4,2.75,6.87a11.55,11.55,0,0,0,7.44,2.2q4.23,0,6.45-1.77A5.73,5.73,0,0,0,686,469.23Z" class="cls-8"/><path data-cppathid="10027" d="M734.42,459.83H714.91v15h23.2V483H704.36V430.35H738v8.13H714.91v13.23h19.51Z" class="cls-8"/><path data-cppathid="10028" d="M788,483H777.49l-21.21-35.48-.21,0V483H745.52V430.35h10.55l21.21,35.45.21,0V430.35H788Z" class="cls-8"/><path data-cppathid="10029" d="M833.35,438.48h-15V483H807.77V438.48H793v-8.13h40.39Z" class="cls-8"/><path data-cppathid="10030" d="M862.62,471.61h-17L842,483H831l17.74-52.61h10.8L877.22,483h-11Zm-14.45-8.27h11.89l-5.82-18.54H854Z" class="cls-8"/><path data-cppathid="10031" d="M924.81,483H914.26L893,447.48l-.21,0V483H882.28V430.35h10.55L914,465.8l.22,0V430.35h10.55Z" class="cls-8"/></g><g class="cls-7"><path data-cppathid="10032" d="M228.71,567.49H217.87v-54h10.84Z" class="cls-9"/><path data-cppathid="10033" d="M283.11,567.49H272.28l-21.79-36.44-.22,0v36.4H239.43v-54h10.84l21.78,36.4.23,0V513.46h10.83Z" class="cls-9"/><path data-cppathid="10034" d="M333.58,549.6l.07.23q.15,8.64-5.26,13.54t-15,4.9q-9.72,0-15.7-6.25t-6-16.16V535.13q0-9.87,5.82-16.16t15.29-6.29q9.87,0,15.44,4.82t5.42,13.59l-.08.22H323.12q0-5.19-2.51-7.74T312.87,521a8.74,8.74,0,0,0-7.59,3.91,17.4,17.4,0,0,0-2.72,10.12v10.8A16.83,16.83,0,0,0,305.43,556a9.35,9.35,0,0,0,8,3.94q4.86,0,7.26-2.54c1.59-1.7,2.39-4.3,2.39-7.82Z" class="cls-9"/><path data-cppathid="10035" d="M385.13,545.34q0,10-6.28,16.45t-16.32,6.48q-10,0-16.26-6.49T340,545.34v-9.73q0-9.9,6.21-16.42t16.2-6.51q10.07,0,16.37,6.51a22.67,22.67,0,0,1,6.31,16.42Zm-10.8-9.8a16.33,16.33,0,0,0-3.16-10.35,10.43,10.43,0,0,0-8.72-4.05,10.1,10.1,0,0,0-8.55,4.05,16.66,16.66,0,0,0-3.06,10.35v9.8q0,6.42,3.08,10.46a10.19,10.19,0,0,0,8.61,4.05,10.33,10.33,0,0,0,8.68-4.05q3.12-4,3.12-10.46Z" class="cls-9"/><path data-cppathid="10036" d="M437.38,567.49H426.54l-21.78-36.44-.23,0v36.4H393.7v-54h10.83l21.79,36.4.22,0V513.46h10.84Z" class="cls-9"/><path data-cppathid="10037" d="M475.49,553.39a6.34,6.34,0,0,0-2.17-5q-2.18-1.89-7.63-3.56-9.35-2.82-14.19-6.65a12.55,12.55,0,0,1-4.85-10.42,13.12,13.12,0,0,1,5.46-10.86q5.44-4.21,13.91-4.21,9,0,14.46,4.53a14.16,14.16,0,0,1,5.29,11.87l-.08.22h-10.5a7.88,7.88,0,0,0-2.45-6.21,10,10,0,0,0-6.86-2.17,9,9,0,0,0-6.2,1.93,6.27,6.27,0,0,0-2.19,4.93,5.39,5.39,0,0,0,2.37,4.51,31.73,31.73,0,0,0,8.2,3.73q8.91,2.52,13.59,6.59a13.51,13.51,0,0,1,4.67,10.7,12.87,12.87,0,0,1-5.42,11q-5.41,4-14.32,4a25.63,25.63,0,0,1-15-4.34q-6.25-4.35-6.07-12.95l.07-.23h10.51q0,4.8,2.82,7a11.85,11.85,0,0,0,7.64,2.27c2.9,0,5.1-.61,6.62-1.82A5.87,5.87,0,0,0,475.49,553.39Z" class="cls-9"/><path data-cppathid="10038" d="M505.88,567.49H495v-54h10.84Z" class="cls-9"/><path data-cppathid="10039" d="M544.77,553.39a6.31,6.31,0,0,0-2.17-5q-2.18-1.89-7.63-3.56-9.35-2.82-14.19-6.65a12.54,12.54,0,0,1-4.84-10.42,13.11,13.11,0,0,1,5.45-10.86q5.46-4.21,13.92-4.21,9,0,14.45,4.53a14.16,14.16,0,0,1,5.29,11.87l-.07.22H544.47a7.85,7.85,0,0,0-2.45-6.21,10,10,0,0,0-6.86-2.17,9.06,9.06,0,0,0-6.2,1.93,6.27,6.27,0,0,0-2.19,4.93,5.38,5.38,0,0,0,2.38,4.51,31.4,31.4,0,0,0,8.2,3.73q8.91,2.52,13.58,6.59a13.49,13.49,0,0,1,4.68,10.7,12.89,12.89,0,0,1-5.42,11q-5.41,4-14.33,4a25.63,25.63,0,0,1-15-4.34q-6.25-4.35-6.07-12.95l.08-.23h10.5q0,4.8,2.82,7a11.87,11.87,0,0,0,7.64,2.27q4.35,0,6.63-1.82A5.89,5.89,0,0,0,544.77,553.39Z" class="cls-9"/><path data-cppathid="10040" d="M601.25,521.81H585.81v45.68H575V521.81H559.76v-8.35h41.49Z" class="cls-9"/><path data-cppathid="10041" d="M638.06,543.74H618v15.44h23.83v8.31H607.19v-54h34.58v8.35H618v13.58h20Z" class="cls-9"/><path data-cppathid="10042" d="M693.13,567.49H682.3l-21.79-36.44-.22,0v36.4H649.46v-54h10.83l21.78,36.4.23,0V513.46h10.83Z" class="cls-9"/><path data-cppathid="10043" d="M743.6,549.6l.08.23q.15,8.64-5.27,13.54t-15,4.9q-9.72,0-15.7-6.25t-6-16.16V535.13q0-9.87,5.83-16.16t15.28-6.29q9.89,0,15.44,4.82t5.42,13.59l-.07.22H733.14q0-5.19-2.51-7.74T722.89,521a8.71,8.71,0,0,0-7.58,3.91,17.33,17.33,0,0,0-2.73,10.12v10.8A16.77,16.77,0,0,0,715.46,556a9.32,9.32,0,0,0,8,3.94q4.86,0,7.26-2.54c1.59-1.7,2.39-4.3,2.39-7.82Z" class="cls-9"/><path data-cppathid="10044" d="M763,567.49H752.17v-54H763Z" class="cls-9"/><path data-cppathid="10045" d="M802.57,555.84H785.05l-3.63,11.65H770.1l18.22-54h11.09l18.15,54H806.24Zm-14.85-8.5h12.21l-6-19h-.22Z" class="cls-9"/><path data-cppathid="10046" d="M850.92,553.39a6.31,6.31,0,0,0-2.17-5q-2.18-1.89-7.63-3.56-9.35-2.82-14.19-6.65a12.54,12.54,0,0,1-4.84-10.42,13.14,13.14,0,0,1,5.45-10.86q5.46-4.21,13.92-4.21,9,0,14.45,4.53a14.14,14.14,0,0,1,5.29,11.87l-.07.22H850.62a7.87,7.87,0,0,0-2.44-6.21,10,10,0,0,0-6.87-2.17,9.06,9.06,0,0,0-6.2,1.93,6.27,6.27,0,0,0-2.19,4.93,5.4,5.4,0,0,0,2.38,4.51,31.57,31.57,0,0,0,8.2,3.73q8.91,2.52,13.58,6.59a13.49,13.49,0,0,1,4.68,10.7,12.89,12.89,0,0,1-5.42,11q-5.42,4-14.32,4a25.64,25.64,0,0,1-15-4.34Q820.79,559.58,821,551l.08-.23h10.5q0,4.8,2.82,7a11.88,11.88,0,0,0,7.65,2.27q4.34,0,6.62-1.82A5.89,5.89,0,0,0,850.92,553.39Z" class="cls-9"/><path data-cppathid="10047" d="M932.38,545.34q0,10-6.27,16.45t-16.33,6.48q-10,0-16.26-6.49t-6.23-16.44v-9.73q0-9.9,6.22-16.42t16.19-6.51q10.06,0,16.37,6.51a22.67,22.67,0,0,1,6.31,16.42Zm-10.8-9.8a16.27,16.27,0,0,0-3.16-10.35,10.43,10.43,0,0,0-8.72-4.05,10.1,10.1,0,0,0-8.55,4.05,16.66,16.66,0,0,0-3.06,10.35v9.8a16.81,16.81,0,0,0,3.08,10.46,10.19,10.19,0,0,0,8.61,4.05,10.33,10.33,0,0,0,8.68-4.05q3.12-4,3.12-10.46Z" class="cls-9"/></g><g class="cls-7"><path data-cppathid="10048" d="M239.75,626.21H224.33v11.88h18.34v6.4H216V602.9h26.62v6.43H224.33v10.45h15.42Z" class="cls-5"/><path data-cppathid="10049" d="M270.2,633.64a4.85,4.85,0,0,0-1.67-3.86,16.65,16.65,0,0,0-5.87-2.74q-7.2-2.17-10.93-5.12a9.67,9.67,0,0,1-3.72-8,10.1,10.1,0,0,1,4.2-8.36,17,17,0,0,1,10.71-3.24q6.91,0,11.12,3.49a10.88,10.88,0,0,1,4.07,9.14l-.05.17H270a6.06,6.06,0,0,0-1.88-4.79,7.73,7.73,0,0,0-5.29-1.67,7,7,0,0,0-4.77,1.49,4.83,4.83,0,0,0-1.68,3.8,4.15,4.15,0,0,0,1.83,3.47,24.46,24.46,0,0,0,6.31,2.87q6.86,1.93,10.45,5.07a10.37,10.37,0,0,1,3.6,8.24,9.9,9.9,0,0,1-4.17,8.42q-4.17,3.09-11,3.09a19.69,19.69,0,0,1-11.53-3.34q-4.81-3.35-4.67-10l.06-.17h8.08q0,3.67,2.17,5.43a9.16,9.16,0,0,0,5.89,1.74,8.09,8.09,0,0,0,5.1-1.4A4.53,4.53,0,0,0,270.2,633.64Z" class="cls-5"/><path data-cppathid="10050" d="M313.68,609.33H301.79v35.16h-8.34V609.33H281.74V602.9h31.94Z" class="cls-5"/><path data-cppathid="10051" d="M336.81,635.52H323.33l-2.8,9h-8.71l14-41.59h8.54l14,41.59h-8.71ZM325.39,629h9.4l-4.6-14.65H330Zm6.23-37.79h9.28l.06.17L333,598.79h-7.11Z" class="cls-5"/><path data-cppathid="10052" d="M386,644.49h-8.34l-16.76-28-.18,0v28h-8.34V602.9h8.34l16.77,28,.17,0v-28H386Z" class="cls-5"/><path data-cppathid="10053" d="M408.2,644.49V602.9h14.51a17.17,17.17,0,0,1,12.57,4.87,16.81,16.81,0,0,1,4.94,12.5v6.88a16.76,16.76,0,0,1-4.94,12.5,17.22,17.22,0,0,1-12.57,4.84Zm8.34-35.16v28.76h6.17a8.12,8.12,0,0,0,6.62-3.07,12,12,0,0,0,2.52-7.87v-6.94a11.91,11.91,0,0,0-2.52-7.83,8.16,8.16,0,0,0-6.62-3Z" class="cls-5"/><path data-cppathid="10054" d="M470.67,626.21H455.24v11.88h18.34v6.4H446.9V602.9h26.62v6.43H455.24v10.45h15.43Z" class="cls-5"/><path data-cppathid="10055" d="M501.12,633.64a4.88,4.88,0,0,0-1.67-3.86,16.74,16.74,0,0,0-5.87-2.74q-7.2-2.17-10.93-5.12a9.68,9.68,0,0,1-3.73-8,10.1,10.1,0,0,1,4.2-8.36,17,17,0,0,1,10.71-3.24q6.92,0,11.13,3.49a10.91,10.91,0,0,1,4.07,9.14l-.06.17h-8.08a6.06,6.06,0,0,0-1.89-4.79,7.71,7.71,0,0,0-5.28-1.67,7,7,0,0,0-4.77,1.49,4.81,4.81,0,0,0-1.69,3.8,4.15,4.15,0,0,0,1.83,3.47,24.63,24.63,0,0,0,6.31,2.87q6.86,1.93,10.46,5.07a10.37,10.37,0,0,1,3.6,8.24,9.9,9.9,0,0,1-4.17,8.42q-4.17,3.09-11,3.09a19.66,19.66,0,0,1-11.52-3.34q-4.82-3.35-4.67-10l.05-.17h8.09q0,3.67,2.17,5.43a9.13,9.13,0,0,0,5.88,1.74,8,8,0,0,0,5.1-1.4A4.54,4.54,0,0,0,501.12,633.64Z" class="cls-5"/><path data-cppathid="10056" d="M537.28,635.52H523.8l-2.8,9h-8.71l14-41.59h8.54l14,41.59h-8.71ZM525.85,629h9.4l-4.6-14.65h-.17Z" class="cls-5"/><path data-cppathid="10057" d="M583.7,630.72l0,.17q.12,6.66-4,10.43t-11.51,3.77a16,16,0,0,1-12.09-4.81,17.3,17.3,0,0,1-4.6-12.44v-8.26A17.6,17.6,0,0,1,556,607.14a15.28,15.28,0,0,1,11.77-4.84q7.59,0,11.88,3.71t4.17,10.46l-.06.17h-8.11c0-2.67-.64-4.65-1.93-6s-3.27-1.95-6-1.95a6.71,6.71,0,0,0-5.84,3,13.33,13.33,0,0,0-2.1,7.79v8.31a12.87,12.87,0,0,0,2.21,7.82,7.2,7.2,0,0,0,6.16,3q3.73,0,5.58-2c1.23-1.31,1.84-3.31,1.84-6Z" class="cls-5"/><path data-cppathid="10058" d="M617.89,609.33H606v35.16h-8.35V609.33H586V602.9h31.94Z" class="cls-5"/><path data-cppathid="10059" d="M655.42,602.9v27.22q0,7-4.65,11t-12.09,4q-7.39,0-12-4t-4.61-11V602.9h8.37v27.22c0,2.78.74,4.91,2.23,6.37a8.17,8.17,0,0,0,6,2.2,8.4,8.4,0,0,0,6.12-2.2c1.5-1.46,2.25-3.59,2.25-6.37V602.9Z" class="cls-5"/><path data-cppathid="10060" d="M683.7,635.52H670.22l-2.8,9h-8.71l14-41.59h8.54l14,41.59h-8.71ZM672.28,629h9.39l-4.6-14.65h-.17Z" class="cls-5"/><path data-cppathid="10061" d="M707.58,638.09h18.63v6.4h-27V602.9h8.34Z" class="cls-5"/><path data-cppathid="10062" d="M740.66,644.49h-8.34V602.9h8.34Z" class="cls-5"/><path data-cppathid="10063" d="M757.11,638.09h19.08v6.4h-28.9v-4.34l18.5-30.82H747.31V602.9h28.4v4.17Z" class="cls-5"/><path data-cppathid="10064" d="M804.19,635.52H790.7l-2.8,9h-8.71l14-41.59h8.54l14,41.59H807ZM792.76,629h9.4l-4.6-14.65h-.17Z" class="cls-5"/><path data-cppathid="10065" d="M819.72,644.49V602.9h14.52a17.13,17.13,0,0,1,12.56,4.87,16.78,16.78,0,0,1,5,12.5v6.88a16.73,16.73,0,0,1-5,12.5,17.19,17.19,0,0,1-12.56,4.84Zm8.35-35.16v28.76h6.17a8.12,8.12,0,0,0,6.62-3.07,12,12,0,0,0,2.52-7.87v-6.94a11.91,11.91,0,0,0-2.52-7.83,8.16,8.16,0,0,0-6.62-3Z" class="cls-5"/><path data-cppathid="10066" d="M892.08,627.44a17.48,17.48,0,0,1-4.83,12.67,18.25,18.25,0,0,1-25.08,0,17.52,17.52,0,0,1-4.8-12.65V620a17.6,17.6,0,0,1,4.79-12.64,16.44,16.44,0,0,1,12.46-5,16.76,16.76,0,0,1,12.6,5A17.44,17.44,0,0,1,892.08,620Zm-8.31-7.54a12.55,12.55,0,0,0-2.43-8,8,8,0,0,0-6.72-3.12,7.78,7.78,0,0,0-6.58,3.12,12.83,12.83,0,0,0-2.35,8v7.54a12.85,12.85,0,0,0,2.37,8,7.84,7.84,0,0,0,6.62,3.12,8,8,0,0,0,6.69-3.12,12.8,12.8,0,0,0,2.4-8Z" class="cls-5"/><path data-cppathid="10067" d="M920.36,633.64a4.88,4.88,0,0,0-1.67-3.86,16.74,16.74,0,0,0-5.87-2.74q-7.2-2.17-10.93-5.12a9.68,9.68,0,0,1-3.73-8,10.1,10.1,0,0,1,4.2-8.36,17,17,0,0,1,10.71-3.24q6.91,0,11.13,3.49a10.88,10.88,0,0,1,4.07,9.14l-.06.17h-8.08a6.06,6.06,0,0,0-1.89-4.79,7.71,7.71,0,0,0-5.28-1.67,7,7,0,0,0-4.77,1.49,4.81,4.81,0,0,0-1.69,3.8,4.15,4.15,0,0,0,1.83,3.47,24.63,24.63,0,0,0,6.31,2.87q6.86,1.93,10.46,5.07a10.37,10.37,0,0,1,3.6,8.24,9.9,9.9,0,0,1-4.17,8.42q-4.17,3.09-11,3.09A19.66,19.66,0,0,1,902,641.75q-4.82-3.35-4.67-10l.05-.17h8.09q0,3.67,2.17,5.43a9.13,9.13,0,0,0,5.88,1.74,8,8,0,0,0,5.1-1.4A4.54,4.54,0,0,0,920.36,633.64Z" class="cls-5"/></g></g></svg>