<?xml version="1.0" encoding="UTF-8"?>
<svg xmlns="http://www.w3.org/2000/svg" onmouseup="{ if(window.parent.document.onmouseup) window.parent.document.onmouseup(arguments[0]);}" xml:space="preserve" style="enable-background:new 0 0 1156.8 1080;" viewBox="0 0 1156.8 1080" y="0px" x="0px" version="1.1" xmlns:xlink="http://www.w3.org/1999/xlink"><style type="text/css">
	.st0{fill:#333E48;}
	.st1{fill:none;stroke:#00FFD3;stroke-width:2;stroke-miterlimit:10;}
	.st2{fill:none;stroke:#F7A800;stroke-width:2;stroke-miterlimit:10;}
	.st3{fill:none;}
	.st4{fill:#FFFFFF;}
	.st5{fill:none;stroke:#FFFFFF;stroke-width:2;stroke-miterlimit:10;}
	.st6{fill:#F7A800;}
	.st7{fill:#0099A8;}
	.st8{fill:#00FFD3;}
</style><g id="Capa_2"><g><rect data-cppathid="10000" height="1080" width="1156.8" class="st0"/></g></g><g id="Layer_1"><polygon data-cppathid="10001" points="76.7,829.7 76.7,964.9 944.9,964.9 1080.1,829.7 1080.1,250.3 1080.1,250.3 1080.1,115.1 211.9,115.1    76.7,250.3  " class="st1"/><polyline data-cppathid="10002" points="1080.1,233.4 1063.2,233.4 1063.2,822.7 937.9,948 76.7,948  " class="st2"/><polyline data-cppathid="10003" points="76.7,846.6 93.6,846.6 93.6,257.3 218.9,132 1080.1,132  " class="st2"/><rect data-cppathid="10004" height="33.8" width="33.8" class="st3" y="132" x="211.9"/><circle data-cppathid="10005" r="2.1" cy="148.9" cx="228.8" class="st4"/><rect data-cppathid="10006" height="33.8" width="33.8" class="st3" y="267.2" x="153.4"/><rect data-cppathid="10007" height="33.8" width="33.8" class="st3" y="267.2" x="966.1"/><rect data-cppathid="10008" height="33.8" width="33.8" class="st3" y="779" x="153.4"/><rect data-cppathid="10009" height="33.8" width="33.8" class="st3" y="779" x="966.1"/><rect data-cppathid="10010" height="33.8" width="33.8" class="st3" y="250.3" x="93.6"/><circle data-cppathid="10011" r="2.1" cy="267.2" cx="110.5" class="st4"/><rect data-cppathid="10012" height="33.8" width="33.8" class="st3" y="914.2" x="911.1"/><circle data-cppathid="10013" r="2.1" cy="931.1" cx="928" class="st4"/><rect data-cppathid="10014" height="33.8" width="33.8" class="st3" y="795.9" x="1029.4"/><circle data-cppathid="10015" r="2.1" cy="812.8" cx="1046.3" class="st4"/><polygon data-cppathid="10016" points="154.3,757.2 154.3,868.3 893.2,868.3 1002.5,757.2 1002.5,322.8 1002.5,322.8 1002.5,211.7    263.6,211.7 154.3,322.8  " class="st5"/><g><g><path data-cppathid="10017" d="M250.8,390.3h-21.4v16.5h25.4v8.9h-36.9V358h36.9v8.9h-25.3v14.5h21.4V390.3z" class="st6"/><path data-cppathid="10018" d="M309.5,415.6h-11.5l-23.2-38.8h-0.2v38.8h-11.5V358h11.5l23.2,38.8h0.2V358h11.5V415.6z" class="st6"/><path data-cppathid="10019" d="M351.8,406.7h25.8v8.9h-37.3V358h11.5V406.7z" class="st6"/><path data-cppathid="10020" d="M416,403.2h-18.6l-3.9,12.4h-12.1l19.4-57.6h11.8l19.3,57.6h-12.1L416,403.2z M400.2,394.1h13l-6.4-20.3     h-0.2L400.2,394.1z" class="st6"/><path data-cppathid="10021" d="M487.7,403.2h-18.7l-3.9,12.4h-12.1l19.4-57.6h11.8l19.3,57.6h-12.1L487.7,403.2z M471.9,394.1h13l-6.4-20.3     h-0.2L471.9,394.1z" class="st6"/><path data-cppathid="10022" d="M552,396.5l0.1,0.2c0.1,6.1-1.8,11-5.6,14.4c-3.9,3.5-9.2,5.2-15.9,5.2c-6.9,0-12.5-2.2-16.7-6.7     c-4.3-4.4-6.4-10.2-6.4-17.2v-11.4c0-7,2.1-12.8,6.2-17.2s9.6-6.7,16.3-6.7c7,0,12.5,1.7,16.5,5.1c3.9,3.4,5.9,8.3,5.8,14.5     l-0.1,0.2h-11.2c0-3.7-0.9-6.4-2.7-8.2c-1.8-1.8-4.5-2.7-8.2-2.7c-3.2-0.1-6.3,1.5-8.1,4.2c-1.9,2.8-2.9,6.4-2.9,10.8v11.5     c0,4.4,1,8,3.1,10.8c2,2.7,5.2,4.3,8.5,4.2c3.5,0,6-0.9,7.7-2.7c1.7-1.8,2.5-4.6,2.5-8.3L552,396.5z" class="st6"/><path data-cppathid="10023" d="M599.3,366.9h-16.5v48.7h-11.5v-48.7h-16.2V358h44.2V366.9z" class="st6"/><path data-cppathid="10024" d="M651.3,358v37.7c0,6.5-2.1,11.6-6.4,15.2c-4.3,3.7-9.9,5.5-16.7,5.5c-6.8,0-12.4-1.8-16.6-5.5     c-4.3-3.7-6.4-8.7-6.4-15.2V358h11.6v37.7c0,3.9,1,6.8,3.1,8.8c2.3,2.1,5.3,3.2,8.3,3c3.1,0.2,6.2-0.9,8.5-3     c2.1-2,3.1-4.9,3.1-8.8V358H651.3z" class="st6"/><path data-cppathid="10025" d="M690.5,403.2h-18.7l-3.9,12.4h-12.1l19.4-57.6h11.8l19.3,57.6h-12.1L690.5,403.2z M674.6,394.1h13l-6.4-20.3     H681L674.6,394.1z" class="st6"/><path data-cppathid="10026" d="M723.5,406.7h25.8v8.9H712V358h11.5L723.5,406.7z" class="st6"/><path data-cppathid="10027" d="M769.3,415.6h-11.5V358h11.5V415.6z" class="st6"/><path data-cppathid="10028" d="M780.8,415.6V358h20.1c7,0,12.8,2.2,17.4,6.7s6.8,10.3,6.8,17.3v9.5c0,7.1-2.3,12.8-6.8,17.3     c-4.6,4.5-10.4,6.7-17.4,6.7L780.8,415.6z M792.3,366.9v39.8h8.5c3.6,0.1,7-1.5,9.2-4.2c2.4-3.1,3.6-7,3.5-10.9V382     c0.2-3.9-1.1-7.8-3.5-10.9c-2.2-2.8-5.6-4.3-9.2-4.2H792.3z" class="st6"/><path data-cppathid="10029" d="M863.5,403.2h-18.7l-3.9,12.4h-12.1l19.4-57.6h11.8l19.3,57.6h-12.1L863.5,403.2z M847.7,394.1h13l-6.4-20.3     h-0.2L847.7,394.1z" class="st6"/><path data-cppathid="10030" d="M885.1,415.6V358h20.1c7,0,12.8,2.2,17.4,6.7s6.8,10.3,6.8,17.3v9.5c0,7.1-2.3,12.8-6.8,17.3     c-4.6,4.5-10.4,6.7-17.4,6.7L885.1,415.6z M896.6,366.9v39.8h8.5c3.6,0.1,7-1.5,9.2-4.2c2.4-3.1,3.6-7,3.5-10.9V382     c0.2-3.9-1.1-7.8-3.5-10.8c-2.2-2.8-5.6-4.3-9.2-4.2L896.6,366.9z" class="st6"/></g><g><path data-cppathid="10031" d="M241.7,525.3h44.6v15.3h-64.5v-99.5h20L241.7,525.3z" class="st7"/><path data-cppathid="10032" d="M378.3,499.8c0,12.3-3.9,22.4-11.6,30.3c-7.7,7.9-17.7,11.9-30.1,11.9c-12.3,0-22.3-4-29.9-12     s-11.5-18.1-11.5-30.3v-17.8c0-12.2,3.8-22.2,11.5-30.2c7.6-8,17.6-12,29.8-12c12.4,0,22.4,4,30.1,12c7.7,8,11.6,18.1,11.6,30.2     V499.8z M358.5,481.7c0-7.7-1.9-14.1-5.8-19.1s-9.2-7.5-16.1-7.5c-6.7,0-12,2.5-15.8,7.5s-5.6,11.3-5.6,19.1v18     c0,7.9,1.9,14.3,5.7,19.3c3.8,5,9.1,7.5,15.9,7.5c6.8,0,12.2-2.5,16-7.5c3.8-5,5.8-11.4,5.8-19.3L358.5,481.7z" class="st7"/><path data-cppathid="10033" d="M446,514.6c0.1-3.5-1.3-6.9-4-9.2c-2.7-2.3-7.3-4.5-14-6.6c-11.5-3.5-20.2-7.5-26.2-12.2     c-5.9-4.7-8.9-11.1-8.9-19.2c0-8.1,3.3-14.8,10-20s15.2-7.8,25.6-7.8c11,0,19.9,2.8,26.6,8.3c6.7,5.6,10,12.9,9.8,21.9l-0.1,0.4     h-19.4c0-5-1.5-8.8-4.5-11.5c-3-2.7-7.2-4-12.6-4c-4.9,0-8.7,1.2-11.4,3.5c-2.6,2.3-4.1,5.6-4,9.1c0,3.3,1.6,6.4,4.4,8.3     c2.9,2.2,8,4.4,15.1,6.9c10.9,3.1,19.3,7.1,25,12.1c5.7,5,8.6,11.6,8.6,19.7c0,8.5-3.3,15.2-10,20.2c-6.7,4.9-15.5,7.4-26.4,7.4     c-10.7,0-19.9-2.7-27.6-8c-7.7-5.3-11.4-13.3-11.2-23.9l0.1-0.4h19.3c0,5.9,1.7,10.2,5.2,13s8.2,4.2,14.1,4.2     c5.3,0,9.4-1.1,12.2-3.3C444.6,521.4,446.1,518.1,446,514.6z" class="st7"/><path data-cppathid="10034" d="M515.5,540.6v-99.5h34.7c12.2,0,22.2,3.9,30.1,11.6s11.8,17.7,11.8,29.9v16.5c0,12.2-3.9,22.2-11.8,29.9     s-17.9,11.6-30.1,11.6H515.5z M535.5,456.4v68.8h14.8c6.1,0.2,12-2.5,15.9-7.3c4-4.9,6-11.2,6-18.8v-16.6c0-7.6-2-13.9-6-18.7     c-3.8-4.8-9.7-7.5-15.9-7.3H535.5z" class="st7"/><path data-cppathid="10035" d="M658.6,519.1h-32.3l-6.7,21.5h-20.8l33.6-99.5h20.4l33.4,99.5h-20.8L658.6,519.1z M631.3,503.5h22.5     l-11-35.1h-0.4L631.3,503.5z" class="st7"/><path data-cppathid="10036" d="M759.1,456.5h-28.4v84.1h-20v-84.1h-28v-15.4h76.4L759.1,456.5z" class="st7"/><path data-cppathid="10037" d="M848.7,499.8c0,12.3-3.8,22.4-11.5,30.3C829.4,538,819.4,542,807,542c-12.3,0-22.3-4-29.9-12     s-11.5-18.1-11.5-30.2v-17.9c0-12.2,3.8-22.2,11.5-30.2c7.6-8,17.6-12,29.8-12c12.3,0,22.4,4,30.2,12s11.6,18.1,11.6,30.2     L848.7,499.8z M828.8,481.7c0-7.7-1.9-14.1-5.8-19.1s-9.2-7.5-16.1-7.5c-6.7,0-12,2.5-15.8,7.5s-5.6,11.3-5.6,19.1v18     c0,7.9,1.9,14.3,5.7,19.3s9.1,7.5,15.8,7.5c6.8,0,12.2-2.5,16-7.5s5.7-11.4,5.7-19.3L828.8,481.7z" class="st7"/><path data-cppathid="10038" d="M916.3,514.6c0.1-3.5-1.3-6.9-4-9.2c-2.7-2.3-7.3-4.5-14-6.6c-11.5-3.5-20.2-7.5-26.2-12.2     c-5.9-4.7-8.9-11.1-8.9-19.2c0-8.1,3.3-14.8,10-20c6.7-5.2,15.2-7.8,25.6-7.8c11,0,19.9,2.8,26.6,8.3s10,12.8,9.7,21.9l-0.1,0.4     h-19.3c0-5-1.5-8.8-4.5-11.5c-3-2.7-7.2-4-12.7-4c-4.9,0-8.7,1.2-11.4,3.5c-2.6,2.3-4.1,5.6-4,9.1c0,3.3,1.6,6.4,4.4,8.3     c2.9,2.2,7.9,4.4,15.1,6.9c10.9,3.1,19.3,7.1,25,12.1c5.7,5,8.6,11.6,8.6,19.7c0,8.5-3.3,15.2-10,20.2     c-6.7,4.9-15.5,7.4-26.4,7.4c-10.7,0-19.9-2.7-27.6-8c-7.7-5.3-11.4-13.3-11.2-23.9l0.1-0.4h19.3c0,5.9,1.7,10.2,5.2,13     s8.2,4.2,14.1,4.2c5.3,0,9.4-1.1,12.2-3.3C914.9,521.4,916.4,518.1,916.3,514.6z" class="st7"/></g><g><path data-cppathid="10039" d="M246.1,599.2c-1.5,1.8-3.3,3.2-5.5,4.2c-2.9,1.3-6.1,1.9-9.3,1.8c-4.3,0.2-8.5-1.5-11.6-4.5     c-3-3.1-4.7-7.3-4.5-11.6V581c-0.2-4.3,1.4-8.5,4.4-11.6c3-3,7-4.6,11.2-4.5c4.8,0,8.5,1.1,11,3.4c2.6,2.3,3.9,5.6,3.7,9.1     l-0.1,0.2h-7.4c0.1-1.8-0.5-3.6-1.8-4.8c-1.4-1.2-3.3-1.9-5.2-1.7c-2.3-0.1-4.4,1-5.8,2.8c-1.5,2.1-2.3,4.6-2.2,7.2v8.2     c-0.1,2.6,0.7,5.2,2.3,7.2c1.4,1.8,3.7,2.9,6,2.8c1.5,0.1,3-0.1,4.4-0.6c0.9-0.3,1.8-0.8,2.5-1.4v-7.6h-7.5v-5.4h15.4     L246.1,599.2z" class="st8"/><path data-cppathid="10040" d="M275.1,587.4h-14.5v11.2h17.2v6h-25.1v-39.1h25v6h-17.2v9.8h14.5V587.4z" class="st8"/><path data-cppathid="10041" d="M315,604.6h-7.8l-15.8-26.4h-0.2v26.4h-7.9v-39.1h7.9l15.8,26.3h0.2v-26.3h7.8V604.6z" class="st8"/><path data-cppathid="10042" d="M344.5,587.4H330v11.2h17.2v6h-25v-39.1h25v6H330v9.8h14.5L344.5,587.4z" class="st8"/><path data-cppathid="10043" d="M360.6,589v15.6h-7.8v-39.1h13.5c4.5,0,7.9,1,10.5,3c2.5,2.1,3.9,5.2,3.8,8.5c0,1.9-0.5,3.7-1.6,5.2     c-1.2,1.6-2.8,2.8-4.7,3.5c2,0.5,3.8,1.7,5,3.4c1.1,1.8,1.6,3.8,1.5,5.9v3c0,1.2,0.2,2.3,0.4,3.4c0.2,1,0.7,2,1.5,2.6v0.6h-8.1     c-0.8-0.7-1.3-1.8-1.4-2.8c-0.2-1.3-0.3-2.6-0.3-3.8v-2.8c0.1-1.7-0.5-3.3-1.6-4.5c-1.2-1.1-2.9-1.7-4.5-1.6L360.6,589z      M360.6,583h5.6c1.8,0.1,3.5-0.4,4.9-1.4c1.1-1.1,1.7-2.6,1.6-4.1c0.1-1.6-0.5-3.1-1.6-4.3c-1.3-1.1-3-1.7-4.8-1.6h-5.7V583z" class="st8"/><path data-cppathid="10044" d="M408.2,596.2h-12.7l-2.6,8.4h-8.2l13.2-39.1h8l13.1,39.1h-8.2L408.2,596.2z M397.5,590h8.8l-4.3-13.8h-0.2     L397.5,590z" class="st8"/><path data-cppathid="10045" d="M422.8,604.6v-39.1h13.6c4.4-0.2,8.7,1.5,11.8,4.6c3.1,3.1,4.8,7.4,4.6,11.8v6.5c0.1,4.4-1.5,8.6-4.6,11.7     c-3.2,3.1-7.4,4.7-11.8,4.6L422.8,604.6z M430.7,571.5v27h5.8c2.4,0.1,4.7-1,6.2-2.9c1.6-2.1,2.5-4.7,2.4-7.4v-6.5     c0.1-2.7-0.7-5.3-2.4-7.4c-1.5-1.9-3.8-2.9-6.2-2.9L430.7,571.5z" class="st8"/><path data-cppathid="10046" d="M490.8,588.6c0.2,4.4-1.5,8.7-4.5,11.9c-6.6,6.3-17,6.3-23.6,0c-3-3.2-4.7-7.5-4.5-11.9v-7     c-0.1-4.4,1.5-8.7,4.5-11.9c3.1-3.2,7.3-4.9,11.7-4.7c4.4-0.2,8.7,1.5,11.8,4.7c3.1,3.2,4.7,7.5,4.6,11.9V588.6z M483,581.5     c0.1-2.7-0.7-5.3-2.3-7.5c-1.5-1.9-3.9-3-6.3-2.9c-2.4-0.1-4.7,1-6.2,2.9c-1.5,2.2-2.3,4.8-2.2,7.5v7.1c-0.1,2.7,0.7,5.4,2.2,7.6     c1.5,1.9,3.8,3,6.2,2.9c2.4,0.1,4.8-1,6.3-2.9c1.6-2.2,2.4-4.9,2.3-7.6V581.5z" class="st8"/><path data-cppathid="10047" d="M517.4,594.4c0.1-1.4-0.5-2.7-1.6-3.6c-1.7-1.2-3.5-2.1-5.5-2.6c-3.7-1-7.2-2.6-10.3-4.8     c-2.3-1.8-3.6-4.6-3.5-7.5c0-3.1,1.4-6,4-7.8c2.9-2.1,6.5-3.2,10.1-3c4.3,0,7.8,1.1,10.5,3.3c2.6,2.1,4,5.3,3.8,8.6l-0.1,0.2     h-7.6c0.1-1.7-0.5-3.3-1.8-4.5c-1.4-1.1-3.2-1.7-5-1.6c-1.6-0.1-3.2,0.4-4.5,1.4c-1,0.9-1.6,2.2-1.6,3.6c0,1.3,0.6,2.5,1.7,3.3     c1.8,1.2,3.8,2.1,5.9,2.7c3.6,0.9,6.9,2.5,9.8,4.8c2.2,1.9,3.5,4.8,3.4,7.8c0.1,3.1-1.4,6.1-3.9,7.9c-2.6,1.9-6.1,2.9-10.4,2.9     c-3.8,0.1-7.6-1-10.8-3.2c-3-2.1-4.5-5.2-4.4-9.4l0-0.2h7.6c-0.2,1.9,0.6,3.8,2,5.1c1.6,1.2,3.6,1.7,5.5,1.6     c1.7,0.1,3.4-0.3,4.8-1.3C516.8,597.1,517.5,595.8,517.4,594.4z" class="st8"/><path data-cppathid="10048" d="M558.6,583.5h0.2l8.5-18h8.6l-13.4,25.3v13.7h-7.8v-14.2l-13.2-24.9h8.6L558.6,583.5z" class="st8"/><path data-cppathid="10049" d="M622.8,591.7l0,0.2c0.1,4.2-1.2,7.4-3.8,9.8s-6.2,3.5-10.8,3.5c-4.3,0.2-8.4-1.5-11.4-4.5     c-2.9-3.2-4.5-7.4-4.3-11.7v-7.8c-0.2-4.3,1.3-8.5,4.2-11.7c2.9-3,6.9-4.7,11.1-4.5c4.8,0,8.5,1.2,11.2,3.5s4,5.6,3.9,9.8v0.2     h-7.6c0-2.5-0.6-4.4-1.8-5.6c-1.2-1.2-3.1-1.8-5.6-1.8c-2.2-0.1-4.3,1-5.5,2.8c-1.4,2.2-2.1,4.7-2,7.3v7.8     c-0.1,2.6,0.6,5.2,2.1,7.4c1.3,1.9,3.5,2.9,5.8,2.8c1.9,0.2,3.8-0.5,5.2-1.8c1.2-1.2,1.7-3.1,1.7-5.7L622.8,591.7z" class="st8"/><path data-cppathid="10050" d="M660.1,588.6c0.2,4.4-1.5,8.7-4.5,11.9c-6.6,6.3-17,6.3-23.6,0c-3-3.2-4.7-7.5-4.5-11.9v-7     c-0.1-4.4,1.5-8.7,4.5-11.9c3.1-3.2,7.3-4.9,11.7-4.7c4.4-0.2,8.7,1.5,11.8,4.7c3.1,3.2,4.7,7.5,4.6,11.9V588.6z M652.2,581.5     c0.1-2.7-0.7-5.3-2.2-7.5c-1.5-1.9-3.9-3-6.3-2.9c-2.4-0.1-4.7,1-6.2,2.9c-1.6,2.2-2.3,4.8-2.2,7.5v7.1c-0.1,2.7,0.7,5.4,2.2,7.6     c1.5,1.9,3.8,3,6.2,2.9c2.4,0.1,4.8-1,6.3-2.9c1.6-2.2,2.4-4.9,2.2-7.6L652.2,581.5z" class="st8"/><path data-cppathid="10051" d="M697.9,604.6H690l-15.8-26.4h-0.2v26.4h-7.8v-39.1h7.8l15.8,26.3h0.2v-26.3h7.8L697.9,604.6z" class="st8"/><path data-cppathid="10052" d="M725.5,594.4c0.1-1.4-0.5-2.7-1.6-3.6c-1.7-1.2-3.5-2.1-5.5-2.6c-3.7-1-7.2-2.6-10.3-4.8     c-2.3-1.8-3.6-4.6-3.5-7.5c-0.1-3.1,1.4-6,3.9-7.8c2.9-2.1,6.5-3.2,10.1-3c4.3,0,7.8,1.1,10.5,3.3c2.6,2.1,4,5.3,3.8,8.6v0.2     h-7.6c0.1-1.7-0.5-3.3-1.8-4.5c-1.4-1.1-3.2-1.7-5-1.6c-1.6-0.1-3.2,0.4-4.5,1.4c-1,0.9-1.6,2.2-1.6,3.6c0,1.3,0.6,2.5,1.7,3.3     c1.8,1.2,3.8,2.1,5.9,2.7c3.6,0.9,6.9,2.5,9.8,4.8c2.2,1.9,3.5,4.8,3.4,7.8c0.1,3.1-1.4,6.1-3.9,7.9c-2.6,1.9-6.1,2.9-10.4,2.9     c-3.9,0.1-7.6-1-10.9-3.2c-3-2.1-4.5-5.2-4.4-9.4l0-0.2h7.6c-0.2,1.9,0.6,3.8,2,5.1c1.6,1.2,3.6,1.7,5.5,1.6     c1.7,0.1,3.4-0.4,4.8-1.3C724.9,597.1,725.5,595.8,725.5,594.4z" class="st8"/><path data-cppathid="10053" d="M770.1,565.5v25.6c0,4.4-1.5,7.8-4.4,10.3c-2.9,2.5-6.7,3.7-11.4,3.7c-4.7,0-8.4-1.2-11.3-3.7     s-4.3-5.9-4.3-10.3v-25.6h7.9v25.6c-0.2,2.2,0.6,4.4,2.1,6c1.5,1.4,3.6,2.2,5.7,2.1c2.1,0.1,4.2-0.6,5.8-2.1     c1.5-1.6,2.3-3.8,2.1-6v-25.6H770.1z" class="st8"/><path data-cppathid="10054" d="M797.1,594.3h0.2l10-28.8h10.2v39.1h-7.8v-26.7h-0.2l-9.7,26.7h-5.3l-9.7-26.8h-0.2v26.8h-7.8v-39.1h10.3     L797.1,594.3z" class="st8"/><path data-cppathid="10055" d="M833.1,604.6h-7.8v-39.1h7.8V604.6z" class="st8"/><path data-cppathid="10056" d="M840.9,604.6v-39.1h13.6c4.4-0.2,8.7,1.5,11.8,4.6c3.1,3.1,4.8,7.4,4.7,11.8v6.5c0.1,4.4-1.6,8.6-4.7,11.7     c-3.2,3.1-7.4,4.7-11.8,4.6L840.9,604.6z M848.7,571.5v27h5.8c2.4,0.1,4.7-1,6.2-2.9c1.6-2.1,2.5-4.7,2.4-7.4v-6.5     c0.1-2.7-0.7-5.3-2.4-7.4c-1.5-1.9-3.8-2.9-6.2-2.9L848.7,571.5z" class="st8"/><path data-cppathid="10057" d="M908.9,588.6c0.2,4.4-1.5,8.7-4.5,11.9c-6.6,6.3-17,6.3-23.6,0c-3-3.2-4.7-7.5-4.5-11.9v-7     c-0.1-4.4,1.5-8.7,4.5-11.9c3.1-3.2,7.3-4.9,11.7-4.7c4.4-0.2,8.7,1.5,11.8,4.7c3.1,3.2,4.7,7.5,4.6,11.9L908.9,588.6z      M901.1,581.5c0.1-2.7-0.7-5.3-2.3-7.5c-1.5-1.9-3.9-3-6.3-2.9c-2.4-0.1-4.7,1-6.2,2.9c-1.6,2.2-2.3,4.8-2.2,7.5v7.1     c-0.1,2.7,0.7,5.4,2.2,7.6c1.5,1.9,3.8,3,6.2,2.9c2.4,0.1,4.8-1,6.3-2.9c1.6-2.2,2.4-4.9,2.3-7.6V581.5z" class="st8"/><path data-cppathid="10058" d="M935.5,594.4c0.1-1.4-0.5-2.7-1.6-3.6c-1.7-1.2-3.5-2.1-5.5-2.6c-3.7-1-7.2-2.6-10.3-4.8     c-2.3-1.8-3.6-4.6-3.5-7.5c-0.1-3.1,1.4-6,3.9-7.8c2.9-2.1,6.5-3.2,10.1-3c4.3,0,7.8,1.1,10.5,3.3c2.6,2.1,4,5.3,3.8,8.6v0.2     h-7.6c0.1-1.7-0.5-3.3-1.8-4.5c-1.4-1.1-3.2-1.7-5-1.6c-1.6-0.1-3.2,0.4-4.5,1.4c-1,0.9-1.6,2.2-1.6,3.6c0,1.3,0.6,2.5,1.7,3.3     c1.8,1.2,3.8,2.1,5.9,2.7c3.6,0.9,6.9,2.5,9.8,4.8c2.2,1.9,3.5,4.8,3.4,7.8c0.1,3.1-1.4,6.1-3.9,7.9c-2.6,1.9-6.1,2.9-10.4,2.9     c-3.9,0.1-7.6-1-10.8-3.2c-3-2.1-4.5-5.2-4.4-9.4l0-0.2h7.6c-0.2,1.9,0.6,3.8,2,5.1c1.6,1.2,3.6,1.7,5.5,1.6     c1.7,0.1,3.4-0.4,4.8-1.3C934.9,597.1,935.5,595.8,935.5,594.4z" class="st8"/><path data-cppathid="10059" d="M956.7,604.2l-4.3,8.5h-5.2l1.9-8.7v-6.1h7.6V604.2z" class="st8"/></g><g><path data-cppathid="10060" d="M217.9,633.2l0.2,5.3c0.7-1.7,1.9-3.2,3.5-4.3c1.7-1.1,3.6-1.6,5.6-1.5c2.9,0,5.1,0.9,6.5,2.7     c1.4,1.8,2.2,4.7,2.2,8.6v15.6h-1.3V644c0-3.7-0.7-6.2-2-7.7c-1.3-1.5-3.3-2.3-5.3-2.2c-2.4-0.2-4.7,0.7-6.4,2.4     c-1.5,1.8-2.5,3.9-2.8,6.2v17h-1.3v-13.6h-0.1c0-0.3,0-0.6,0-0.9s0-0.6,0.1-1v-11L217.9,633.2z" class="st4"/><path data-cppathid="10061" d="M242.1,645.9c-0.1-3.5,1-6.8,3.2-9.5c4.2-4.6,11.3-4.9,15.9-0.8c0.3,0.2,0.5,0.5,0.8,0.8     c2.2,2.7,3.4,6,3.2,9.5v1c0.1,3.5-1,6.9-3.2,9.5c-4.2,4.6-11.3,4.9-15.9,0.8c-0.3-0.2-0.5-0.5-0.8-0.8c-2.2-2.7-3.4-6.1-3.2-9.5     V645.9z M243.4,646.9c-0.1,3.1,0.9,6,2.8,8.4c1.8,2.3,4.6,3.6,7.5,3.5c2.9,0.1,5.6-1.2,7.4-3.5c1.9-2.4,2.9-5.4,2.8-8.4v-1     c0.1-3-0.9-6-2.8-8.4c-3.4-4.1-9.5-4.7-13.6-1.3c-0.5,0.4-0.9,0.8-1.3,1.3c-1.9,2.4-2.9,5.3-2.8,8.4L243.4,646.9z" class="st4"/><path data-cppathid="10062" d="M303.7,646.9c0,4.1-0.9,7.3-2.6,9.7c-1.7,2.3-4.4,3.7-7.3,3.6c-1.9,0-3.7-0.4-5.4-1.2     c-1.5-0.8-2.7-1.9-3.6-3.3v14.2h-1.3v-17.4v-0.1c0,0,0-0.1,0-0.1v-10.8c0-0.1,0-0.1,0-0.2v-8h1l0.3,4.7c0.8-1.6,2.1-2.9,3.6-3.8     c1.6-0.9,3.5-1.4,5.3-1.4c2.9-0.1,5.7,1.3,7.3,3.7c1.8,2.5,2.6,5.8,2.6,10L303.7,646.9z M302.3,646.4c0.1-3.1-0.6-6.2-2.2-8.9     c-1.3-2.2-3.8-3.5-6.4-3.4c-2.1-0.1-4.2,0.5-5.9,1.9c-1.4,1.3-2.5,2.9-3.1,4.6v12.6c0.6,1.7,1.8,3.1,3.3,4.1     c1.7,1.1,3.7,1.6,5.7,1.5c2.5,0.1,5-1.1,6.4-3.2c1.4-2.2,2.2-5,2.2-8.7L302.3,646.4z" class="st4"/><path data-cppathid="10063" d="M308.8,645.9c-0.1-3.5,1-6.8,3.2-9.5c4.2-4.6,11.3-4.9,15.9-0.8c0.3,0.2,0.5,0.5,0.8,0.8     c2.2,2.7,3.4,6,3.2,9.5v1c0.1,3.5-1,6.9-3.2,9.5c-4.2,4.6-11.3,4.9-15.9,0.8c-0.3-0.2-0.5-0.5-0.8-0.8c-2.2-2.7-3.4-6.1-3.2-9.5     V645.9z M310.1,646.9c-0.1,3.1,0.9,6,2.8,8.4c3.5,4.1,9.6,4.6,13.8,1.2c0.4-0.4,0.8-0.7,1.2-1.2c1.9-2.4,2.9-5.4,2.8-8.4v-1     c0.1-3-0.9-6-2.8-8.4c-3.4-4.1-9.5-4.7-13.6-1.3c-0.5,0.4-0.9,0.8-1.3,1.3c-1.9,2.4-2.9,5.3-2.8,8.4V646.9z" class="st4"/><path data-cppathid="10064" d="M354.4,653.1c0-1.5-0.7-2.9-1.8-3.8c-1.2-1.1-3.3-2-6.3-2.7c-2.4-0.4-4.7-1.3-6.8-2.6     c-1.4-1.1-2.2-2.9-2.1-4.7c0-1.9,0.9-3.6,2.4-4.8c1.9-1.4,4.1-2,6.4-1.9c2.5-0.2,4.9,0.6,6.9,2c1.6,1.3,2.5,3.3,2.4,5.3v0.2h-1.1     c0-1.7-0.8-3.4-2.2-4.4c-1.7-1.3-3.8-1.9-5.9-1.8c-2-0.1-4,0.4-5.6,1.6c-1.2,0.9-1.9,2.2-1.9,3.7c0,1.4,0.6,2.7,1.6,3.5     c1.1,1,3.2,1.8,6.4,2.6c2.4,0.5,4.7,1.4,6.7,2.8c1.5,1.2,2.4,3,2.3,4.9c0,2-0.9,3.9-2.5,5c-2,1.4-4.3,2.1-6.7,1.9     c-2.6,0.1-5.1-0.6-7.2-2.1c-1.6-1.1-2.6-3-2.5-5v-0.2h1.1c0,1.9,1,3.6,2.7,4.5c1.8,1,3.8,1.4,5.9,1.4c2.1,0.1,4.1-0.5,5.8-1.7     C353.5,656.1,354.3,654.7,354.4,653.1z" class="st4"/><path data-cppathid="10065" d="M372.3,660.1c-3,0-5.9-1.3-7.9-3.6c-2.2-2.5-3.3-5.8-3.2-9.1v-1.6c-0.1-3.4,1-6.8,3.2-9.4     c2-2.4,4.9-3.8,8-3.7c2.6-0.1,5.2,0.9,7,2.9c1.8,2.2,2.8,5,2.6,7.9v2h-19.5v1.9c-0.1,2.9,0.9,5.8,2.7,8.1c1.7,2.1,4.3,3.3,7,3.3     c1.6,0,3.1-0.3,4.6-0.9c1.3-0.5,2.6-1.3,3.5-2.3l0.7,1c-1,1.1-2.2,1.9-3.6,2.5C375.9,659.8,374.1,660.1,372.3,660.1z M372.5,634     c-2.5-0.1-5,1-6.7,2.8c-1.8,2-2.9,4.5-3,7.2l0.1,0.2h17.9v-0.8c0.1-2.4-0.7-4.8-2.2-6.7C377,634.9,374.8,633.9,372.5,634     L372.5,634z" class="st4"/><path data-cppathid="10066" d="M397.7,660.1c-3,0-5.9-1.3-7.9-3.6c-2.2-2.5-3.3-5.8-3.2-9.1v-1.6c-0.1-3.4,1-6.8,3.2-9.4     c2-2.4,4.9-3.8,8-3.7c2.6-0.1,5.2,0.9,7,2.9c1.8,2.2,2.8,5,2.6,7.9v2h-19.5v1.9c-0.1,2.9,0.9,5.8,2.7,8.1c1.7,2.1,4.3,3.3,7,3.3     c1.6,0,3.1-0.3,4.5-0.9c1.3-0.5,2.6-1.3,3.5-2.3l0.7,1c-1,1.1-2.2,1.9-3.6,2.5C401.3,659.8,399.5,660.1,397.7,660.1z M397.8,634     c-2.5-0.1-5,1-6.7,2.8c-1.8,2-2.9,4.5-3,7.2l0.1,0.2h17.9v-0.8c0.1-2.4-0.7-4.8-2.2-6.7C402.4,634.9,400.1,633.9,397.8,634     L397.8,634z" class="st4"/><path data-cppathid="10067" d="M414.9,633.2l0.2,5.3c0.7-1.7,1.9-3.2,3.5-4.3c1.7-1.1,3.6-1.6,5.6-1.5c2.9,0,5,0.9,6.5,2.7     c1.4,1.8,2.2,4.7,2.2,8.6v15.6h-1.3V644c0-3.7-0.7-6.2-2-7.7c-1.3-1.5-3.3-2.3-5.3-2.2c-2.4-0.2-4.7,0.7-6.3,2.4     c-1.5,1.7-2.5,3.9-2.8,6.2v17h-1.3v-13.6h-0.1c0-0.3,0-0.6,0-0.9s0-0.6,0.1-1v-11L414.9,633.2z" class="st4"/><path data-cppathid="10068" d="M469.7,654.7c-1,1.7-2.4,3-4.1,3.9c-2,1.1-4.3,1.6-6.6,1.5c-2.1,0.1-4.2-0.6-5.8-2c-1.4-1.4-2.2-3.4-2.1-5.4     c0-2.3,1.2-4.4,3.1-5.6c2.3-1.6,5.1-2.4,7.8-2.2h7.5V641c0.1-1.9-0.7-3.8-2.1-5.1c-1.7-1.3-3.8-2-6-1.8c-2.1-0.1-4.1,0.5-5.8,1.7     c-1.4,1.1-2.2,2.7-2.2,4.5l-1.1,0l0-0.1c-0.1-2,0.8-4,2.4-5.2c1.9-1.5,4.3-2.3,6.7-2.1c2.5-0.1,4.9,0.6,6.8,2.2     c1.8,1.6,2.7,3.8,2.6,6.2v13.2c0,0.9,0.1,1.8,0.2,2.7c0.1,0.9,0.3,1.8,0.5,2.6h-1.5c-0.2-1.2-0.4-2-0.4-2.6     c-0.1-0.6-0.1-1.2-0.1-1.9L469.7,654.7z M459.1,658.8c2.3,0.1,4.7-0.5,6.7-1.7c1.8-1.2,3.2-2.9,4-5v-5.9h-7.5     c-2.4-0.1-4.9,0.6-6.9,1.9c-1.7,1-2.8,2.7-2.8,4.7c-0.1,1.6,0.6,3.2,1.8,4.4C455.6,658.3,457.3,658.9,459.1,658.8L459.1,658.8z" class="st4"/><path data-cppathid="10069" d="M497.2,655c-0.8,1.6-2,2.9-3.5,3.8c-1.7,1-3.6,1.4-5.6,1.4c-2.5,0.1-4.8-1-6.4-2.9c-1.5-1.9-2.3-4.9-2.3-9     v-15.1h1.3v15.1c0,3.6,0.7,6.2,2,7.9c1.3,1.7,3.3,2.6,5.4,2.6c2.3,0.1,4.5-0.6,6.2-2c1.5-1.4,2.5-3.2,2.9-5.2v-18.4h1.3v15.5l0,0     c0,0.2,0,0.4,0,0.6c0,0.2,0,0.4,0,0.7v9.6h-1.1L497.2,655z M493.7,622.5h1.9l0,0.1L490,629h-1.6l0-0.1L493.7,622.5z" class="st4"/><path data-cppathid="10070" d="M508,633.2l0.2,5.3c0.7-1.7,1.9-3.2,3.5-4.3c1.7-1.1,3.6-1.6,5.6-1.5c2.9,0,5,0.9,6.5,2.7     c1.4,1.8,2.2,4.7,2.2,8.6v15.6h-1.3V644c0-3.7-0.7-6.2-2-7.7c-1.3-1.5-3.3-2.3-5.3-2.2c-2.4-0.2-4.7,0.7-6.4,2.4     c-1.5,1.7-2.5,3.9-2.8,6.2v17h-1.3v-13.6h-0.1c0-0.3,0-0.6,0-0.9s0-0.6,0.1-1v-11L508,633.2z" class="st4"/><path data-cppathid="10071" d="M549,626v7.1h6.5v1.3H549v18.3c0,2.2,0.4,3.7,1.1,4.6c0.7,0.9,1.8,1.4,2.9,1.4c0.4,0,0.8,0,1.2,0     c0.3,0,0.8-0.1,1.4-0.2l0.2,1.2c-0.4,0.1-0.8,0.2-1.3,0.3c-0.4,0-0.9,0.1-1.5,0.1c-1.5,0.1-3-0.6-4-1.7c-0.9-1.2-1.4-3-1.4-5.6     v-18.3h-4.9v-1.3h4.9V626H549z" class="st4"/><path data-cppathid="10072" d="M559.6,645.9c-0.1-3.5,1-6.8,3.2-9.5c4.2-4.6,11.3-4.9,15.9-0.8c0.3,0.2,0.5,0.5,0.8,0.8     c2.2,2.7,3.4,6,3.2,9.5v1c0.1,3.5-1,6.9-3.2,9.5c-4.2,4.6-11.3,4.9-15.9,0.8c-0.3-0.2-0.5-0.5-0.8-0.8c-2.2-2.7-3.4-6.1-3.2-9.5     L559.6,645.9z M560.9,646.9c-0.1,3.1,0.9,6,2.8,8.4c1.8,2.3,4.6,3.6,7.5,3.5c2.9,0.1,5.6-1.2,7.4-3.5c1.9-2.4,2.9-5.4,2.8-8.4v-1     c0.1-3-0.9-6-2.8-8.4c-3.4-4.1-9.5-4.7-13.6-1.3c-0.5,0.4-0.9,0.8-1.3,1.3c-1.9,2.4-2.8,5.3-2.8,8.4V646.9z" class="st4"/><path data-cppathid="10073" d="M587.8,646.4c0-4.2,0.9-7.5,2.6-10c1.6-2.4,4.4-3.8,7.3-3.7c3.7-0.1,7.2,1.9,8.9,5.2v-16.3h1.3v19.9l0,0     v10.8c0,0,0,0.1,0,0.1v7.3h-1.3v-4.1c-0.9,1.4-2.1,2.6-3.6,3.4c-1.7,0.9-3.5,1.3-5.4,1.2c-2.9,0.1-5.6-1.2-7.3-3.6     c-1.7-2.4-2.6-5.6-2.6-9.7L587.8,646.4z M589.2,646.9c0,3.6,0.7,6.5,2.2,8.7c1.4,2.1,3.8,3.4,6.4,3.2c2,0.1,4-0.5,5.7-1.5     c1.5-1,2.6-2.5,3.3-4.1v-12.5c-0.6-1.8-1.7-3.4-3.1-4.7c-1.6-1.3-3.7-2-5.9-1.9c-2.6-0.1-5,1.2-6.4,3.4c-1.6,2.7-2.3,5.8-2.2,8.9     L589.2,646.9z" class="st4"/><path data-cppathid="10074" d="M614.4,645.9c-0.1-3.5,1-6.8,3.2-9.5c4.2-4.6,11.3-4.9,15.9-0.8c0.3,0.2,0.5,0.5,0.8,0.8     c2.2,2.7,3.4,6,3.2,9.5v1c0.1,3.5-1,6.9-3.2,9.5c-4.2,4.6-11.3,4.9-15.9,0.8c-0.3-0.2-0.5-0.5-0.8-0.8c-2.2-2.7-3.4-6.1-3.2-9.5     L614.4,645.9z M615.7,646.9c-0.1,3.1,0.9,6,2.8,8.4c1.8,2.3,4.6,3.6,7.5,3.5c2.9,0.1,5.6-1.2,7.4-3.5c1.9-2.4,2.9-5.4,2.8-8.4v-1     c0.1-3-0.9-6-2.8-8.4c-3.4-4.1-9.5-4.7-13.6-1.3c-0.5,0.4-0.9,0.8-1.3,1.3c-1.9,2.4-2.9,5.3-2.8,8.4V646.9z" class="st4"/><path data-cppathid="10075" d="M660,653.1c0-1.5-0.7-2.9-1.8-3.8c-1.2-1.1-3.3-2-6.3-2.7c-2.4-0.4-4.7-1.3-6.8-2.6     c-1.4-1.1-2.2-2.9-2.1-4.7c0-1.9,0.9-3.6,2.4-4.8c1.9-1.4,4.1-2,6.4-1.9c2.5-0.2,4.9,0.6,6.9,2c1.6,1.3,2.5,3.3,2.4,5.3l0,0.2     h-1.1c0-1.7-0.8-3.4-2.2-4.4c-1.7-1.3-3.8-1.9-5.9-1.8c-2-0.1-4,0.4-5.6,1.6c-1.2,0.9-1.9,2.2-1.9,3.7c0,1.4,0.6,2.7,1.6,3.5     c1.1,1,3.2,1.8,6.4,2.6c2.4,0.5,4.7,1.4,6.7,2.8c1.5,1.2,2.4,3,2.3,4.9c0,2-0.9,3.9-2.5,5c-2,1.4-4.3,2.1-6.7,1.9     c-2.6,0.1-5.1-0.6-7.2-2.1c-1.6-1.1-2.6-3-2.5-5v-0.2h1.1c0,1.9,1,3.6,2.7,4.5c1.8,1,3.8,1.4,5.9,1.4c2.1,0.1,4.1-0.5,5.8-1.7     C659.1,656.1,659.9,654.7,660,653.1z" class="st4"/><path data-cppathid="10076" d="M682.3,659.6H681v-38.1h1.3L682.3,659.6z" class="st4"/><path data-cppathid="10077" d="M688.9,645.9c-0.1-3.5,1-6.8,3.2-9.5c4.2-4.6,11.3-4.9,15.9-0.8c0.3,0.2,0.5,0.5,0.8,0.8     c2.2,2.7,3.4,6,3.2,9.5v1c0.1,3.5-1,6.9-3.2,9.5c-4.2,4.6-11.3,4.9-15.9,0.8c-0.3-0.2-0.5-0.5-0.8-0.8c-2.2-2.7-3.4-6.1-3.2-9.5     L688.9,645.9z M690.2,646.9c-0.1,3.1,0.9,6,2.8,8.4c1.8,2.3,4.6,3.6,7.5,3.5c2.9,0.1,5.6-1.2,7.4-3.5c1.9-2.4,2.9-5.4,2.8-8.4v-1     c0.1-3-0.9-6-2.8-8.4c-3.4-4.1-9.5-4.7-13.6-1.3c-0.5,0.4-0.9,0.8-1.3,1.3c-1.9,2.4-2.8,5.3-2.8,8.4V646.9z" class="st4"/><path data-cppathid="10078" d="M734.5,653.1c0-1.5-0.7-2.9-1.8-3.8c-1.2-1.1-3.3-2-6.3-2.7c-2.4-0.4-4.7-1.3-6.8-2.6     c-1.4-1.1-2.2-2.9-2.1-4.7c0-1.9,0.9-3.6,2.4-4.8c1.9-1.4,4.1-2,6.5-1.9c2.5-0.1,4.9,0.6,6.9,2c1.6,1.3,2.5,3.3,2.4,5.3v0.2h-1.1     c0-1.7-0.8-3.4-2.2-4.4c-1.7-1.3-3.8-1.9-5.9-1.8c-2-0.1-4,0.4-5.6,1.6c-1.2,0.9-1.9,2.2-1.9,3.7c0,1.4,0.6,2.7,1.6,3.5     c1.1,1,3.2,1.8,6.4,2.6c2.4,0.5,4.7,1.4,6.7,2.8c1.5,1.2,2.4,3,2.3,4.9c0,2-0.9,3.9-2.5,5c-2,1.4-4.3,2.1-6.7,1.9     c-2.6,0.1-5.1-0.6-7.2-2.1c-1.6-1.1-2.6-3-2.5-5v-0.2h1.1c0,1.9,1,3.6,2.7,4.5c1.8,1,3.8,1.4,5.9,1.4c2.1,0.1,4.1-0.5,5.8-1.7     C733.6,656.1,734.4,654.7,734.5,653.1z" class="st4"/><path data-cppathid="10079" d="M771.7,654.7c-1,1.7-2.4,3-4.1,3.9c-2,1.1-4.3,1.6-6.6,1.5c-2.1,0.1-4.2-0.6-5.8-2c-1.4-1.4-2.2-3.4-2.1-5.4     c0-2.3,1.2-4.4,3.1-5.6c2.3-1.6,5.1-2.4,7.8-2.2h7.5V641c0.1-1.9-0.7-3.8-2.1-5.1c-1.7-1.3-3.8-2-6-1.8c-2.1-0.1-4.1,0.5-5.8,1.7     c-1.4,1.1-2.2,2.7-2.2,4.5l-1.1,0V640c-0.1-2,0.8-4,2.4-5.2c1.9-1.5,4.3-2.3,6.7-2.1c2.5-0.1,4.9,0.6,6.8,2.2     c1.8,1.6,2.7,3.8,2.6,6.2v13.2c0,0.9,0.1,1.8,0.2,2.7c0.1,0.9,0.3,1.8,0.5,2.6h-1.5c-0.2-1.2-0.3-2-0.4-2.6     c-0.1-0.6-0.1-1.2-0.1-1.9L771.7,654.7z M761.1,658.8c2.3,0.1,4.6-0.5,6.7-1.7c1.8-1.2,3.2-2.9,4-5v-5.9h-7.5     c-2.4-0.1-4.9,0.6-6.9,1.9c-1.7,1-2.8,2.7-2.8,4.7c-0.1,1.6,0.6,3.2,1.8,4.4C757.6,658.3,759.3,658.9,761.1,658.8L761.1,658.8z" class="st4"/><path data-cppathid="10080" d="M784.3,626v7.1h6.5v1.3h-6.5v18.3c0,2.2,0.4,3.7,1.1,4.6c0.7,0.9,1.8,1.4,2.9,1.4c0.4,0,0.8,0,1.2,0     c0.3,0,0.8-0.1,1.4-0.2l0.2,1.2c-0.4,0.1-0.8,0.2-1.3,0.3c-0.4,0-0.9,0.1-1.5,0.1c-1.5,0.1-3-0.6-4-1.7c-0.9-1.2-1.4-3-1.4-5.6     v-18.3h-4.9v-1.3h4.9V626H784.3z" class="st4"/><path data-cppathid="10081" d="M808.6,634.1l-1.7-0.1c-2.2-0.1-4.2,0.7-5.8,2.3c-1.5,1.7-2.5,3.8-2.9,6v17.3H797v-26.4h1.1l0.2,4.6v0.9     c0.6-1.8,1.8-3.3,3.3-4.4c1.6-1.1,3.4-1.6,5.3-1.6c0.3,0,0.7,0,1,0.1c0.3,0,0.5,0.1,0.8,0.2L808.6,634.1z" class="st4"/><path data-cppathid="10082" d="M815.4,624.9H814v-3.4h1.3L815.4,624.9z M815.4,659.6H814v-26.4h1.3L815.4,659.6z" class="st4"/><path data-cppathid="10083" d="M844.2,646.9c0,4.1-0.9,7.3-2.6,9.7c-1.7,2.3-4.4,3.7-7.3,3.6c-1.9,0-3.7-0.4-5.4-1.2     c-1.5-0.8-2.7-1.9-3.6-3.3l-0.2,4.1H824v-7.2c0,0,0-0.1,0-0.1c0,0,0-0.1,0-0.1v-10.8c0-0.1,0-0.1,0-0.2v-19.7h1.3v16.3     c0.8-1.5,2.1-2.8,3.6-3.8c1.6-0.9,3.5-1.4,5.3-1.4c2.9-0.1,5.7,1.3,7.3,3.7c1.8,2.5,2.6,5.8,2.7,10L844.2,646.9z M842.8,646.4     c0.1-3.1-0.6-6.2-2.2-8.9c-1.3-2.2-3.8-3.5-6.4-3.4c-2.1-0.1-4.2,0.5-5.9,1.9c-1.4,1.3-2.5,2.9-3.1,4.6v12.7     c0.6,1.7,1.8,3.1,3.3,4.1c1.7,1.1,3.7,1.6,5.7,1.5c2.5,0.1,5-1.1,6.3-3.2c1.6-2.6,2.3-5.6,2.2-8.7V646.4z" class="st4"/><path data-cppathid="10084" d="M869.1,655c-0.8,1.6-2,2.9-3.5,3.8c-1.7,1-3.6,1.4-5.6,1.4c-2.5,0.1-4.8-1-6.4-2.9c-1.5-1.9-2.3-4.9-2.3-9     v-15.1h1.3v15.1c0,3.6,0.7,6.2,2,7.9c1.3,1.7,3.3,2.6,5.3,2.6c2.3,0.1,4.5-0.6,6.2-2c1.5-1.4,2.5-3.2,2.9-5.2v-18.4h1.3v15.5h0     c0,0.2,0,0.4,0,0.6c0,0.2,0,0.4,0,0.7v9.6h-1.1L869.1,655z" class="st4"/><path data-cppathid="10085" d="M881.5,626v7.1h6.5v1.3h-6.5v18.3c0,2.2,0.4,3.7,1.1,4.6c0.7,0.9,1.8,1.4,2.9,1.4c0.4,0,0.8,0,1.2,0     c0.3,0,0.8-0.1,1.4-0.2l0.2,1.2c-0.4,0.1-0.8,0.2-1.3,0.3c-0.4,0-0.9,0.1-1.5,0.1c-1.5,0.1-3-0.6-4-1.7c-0.9-1.2-1.4-3-1.4-5.6     v-18.3h-4.9v-1.3h4.9V626H881.5z" class="st4"/><path data-cppathid="10086" d="M892.1,645.9c-0.1-3.5,1-6.8,3.2-9.5c4.2-4.6,11.3-4.9,15.9-0.8c0.3,0.2,0.5,0.5,0.8,0.8     c2.2,2.7,3.4,6,3.2,9.5v1c0.1,3.5-1,6.9-3.2,9.5c-4.2,4.6-11.3,4.9-15.9,0.8c-0.3-0.2-0.5-0.5-0.8-0.8c-2.2-2.7-3.4-6.1-3.2-9.5     L892.1,645.9z M893.5,646.9c-0.1,3.1,0.9,6,2.8,8.4c1.8,2.3,4.6,3.6,7.5,3.5c2.9,0.1,5.6-1.2,7.4-3.5c1.9-2.4,2.9-5.4,2.8-8.4v-1     c0.1-3-0.9-6-2.8-8.4c-3.4-4.1-9.5-4.7-13.6-1.3c-0.5,0.4-0.9,0.8-1.3,1.3c-1.9,2.4-2.8,5.3-2.8,8.4V646.9z" class="st4"/><path data-cppathid="10087" d="M937.8,653.1c0-1.5-0.7-2.9-1.8-3.8c-1.2-1.1-3.3-2-6.3-2.7c-2.4-0.4-4.7-1.3-6.8-2.6     c-1.4-1.1-2.2-2.9-2.1-4.7c0-1.9,0.9-3.6,2.4-4.8c1.9-1.4,4.1-2,6.5-1.9c2.5-0.2,4.9,0.6,6.9,2c1.6,1.3,2.5,3.3,2.4,5.3v0.2h-1.1     c0-1.7-0.8-3.4-2.2-4.4c-1.7-1.3-3.8-1.9-5.9-1.8c-2-0.1-4,0.4-5.6,1.6c-1.2,0.9-1.9,2.2-1.9,3.7c0,1.4,0.6,2.7,1.6,3.5     c1.1,1,3.2,1.8,6.4,2.6c2.4,0.5,4.7,1.4,6.7,2.8c1.5,1.2,2.4,3,2.3,4.9c0,2-0.9,3.9-2.5,5c-2,1.4-4.3,2.1-6.7,1.9     c-2.6,0.1-5.1-0.6-7.2-2.1c-1.6-1.1-2.6-3-2.5-5v-0.2h1.1c0,1.9,1,3.6,2.7,4.5c1.8,1,3.8,1.4,5.9,1.4c2.1,0.1,4.1-0.5,5.8-1.7     C936.9,656.1,937.7,654.7,937.8,653.1z" class="st4"/></g><g><path data-cppathid="10088" d="M217.6,741.6v-55.2h19.2c6.7,0,12.3,2.2,16.7,6.5c4.4,4.3,6.6,9.8,6.6,16.6v9.1c0,6.8-2.2,12.3-6.6,16.6     s-9.9,6.4-16.7,6.4H217.6z M228.7,695v38.2h8.2c3.4,0.1,6.7-1.4,8.8-4.1c2.3-3,3.5-6.7,3.3-10.5v-9.2c0.2-3.7-1-7.4-3.3-10.4     c-2.1-2.6-5.4-4.1-8.8-4H228.7z" class="st4"/><path data-cppathid="10089" d="M300.5,717.3H280v15.8h24.3v8.5H269v-55.2h35.3v8.6H280v13.9h20.5L300.5,717.3z" class="st4"/><path data-cppathid="10090" d="M376.1,741.6H365l-22.2-37.2h-0.2v37.2h-11.1v-55.2h11.1l22.2,37.2h0.2v-37.2h11.1V741.6z" class="st4"/><path data-cppathid="10091" d="M429.9,686.4v36.1c0,6.2-2.1,11.1-6.2,14.6c-4.1,3.5-9.4,5.3-16,5.3c-6.5,0-11.8-1.8-15.9-5.3     c-4.1-3.5-6.1-8.4-6.1-14.6v-36.1h11.1v36.1c0,3.7,1,6.5,3,8.5c2.2,2,5,3.1,8,2.9c3,0.2,5.9-0.9,8.1-2.9c2-2,3-4.8,3-8.5v-36.1     H429.9z" class="st4"/><path data-cppathid="10092" d="M471,717.3h-20.4v15.8h24.3v8.5h-35.4v-55.2h35.3v8.6h-24.2v13.9H471V717.3z" class="st4"/><path data-cppathid="10093" d="M511.4,727.2c0.1-2-0.7-3.8-2.2-5.1c-1.5-1.3-4.1-2.5-7.8-3.6c-6.4-1.9-11.2-4.2-14.5-6.8     c-3.3-2.6-5.1-6.5-4.9-10.7c-0.1-4.4,2-8.5,5.6-11.1c3.7-2.9,8.4-4.3,14.2-4.3c6.1,0,11,1.5,14.8,4.6c3.7,2.9,5.7,7.4,5.4,12.1     l-0.1,0.2h-10.7c0.2-2.4-0.8-4.7-2.5-6.3c-1.7-1.5-4-2.2-7-2.2c-2.3-0.1-4.5,0.6-6.3,2c-1.5,1.2-2.3,3.1-2.2,5     c0,1.8,0.9,3.6,2.4,4.6c2.6,1.7,5.4,2.9,8.4,3.8c6.1,1.7,10.7,4,13.9,6.7c3.2,2.7,4.9,6.8,4.8,10.9c0.2,4.4-1.9,8.6-5.5,11.2     c-3.7,2.7-8.6,4.1-14.6,4.1c-5.4,0.2-10.8-1.4-15.3-4.4c-4.3-3-6.3-7.4-6.2-13.2l0.1-0.2h10.7c0,3.3,1,5.7,2.9,7.2     c2.3,1.6,5,2.5,7.8,2.3c3,0,5.2-0.6,6.8-1.9C510.6,731,511.5,729.1,511.4,727.2z" class="st4"/><path data-cppathid="10094" d="M569.1,695h-15.8v46.6h-11.1V695h-15.5v-8.5h42.4L569.1,695z" class="st4"/><path data-cppathid="10095" d="M586.2,719.5v22h-11.1v-55.2h19.1c6.3,0,11.2,1.4,14.8,4.3s5.3,6.9,5.3,12c0.1,2.6-0.7,5.2-2.3,7.3     c-1.7,2.2-4,4-6.6,5c2.8,0.7,5.3,2.4,7,4.8c1.5,2.5,2.2,5.4,2.1,8.3v4.1c0,1.6,0.2,3.3,0.6,4.8c0.3,1.4,1,2.8,2.1,3.7v0.8H606     c-1.1-1-1.8-2.5-2-4c-0.3-1.8-0.4-3.6-0.4-5.4v-3.9c0.1-2.4-0.7-4.7-2.2-6.4c-1.7-1.6-4-2.4-6.4-2.3L586.2,719.5z M586.2,711h7.8     c3.1,0,5.4-0.7,6.9-2c1.6-1.5,2.4-3.6,2.3-5.8c0.1-2.2-0.7-4.4-2.3-6c-1.5-1.5-3.8-2.2-6.7-2.2h-8L586.2,711z" class="st4"/><path data-cppathid="10096" d="M653.3,729.7h-17.9l-3.7,11.9h-11.5l18.6-55.2h11.3l18.5,55.2h-11.6L653.3,729.7z M638.2,721h12.5l-6.1-19.4     h-0.2L638.2,721z" class="st4"/><path data-cppathid="10097" d="M712.1,726.6l0.7,3h0.2l0.7-2.9l12-40.3h11.7l-18.8,55.2h-11.4l-18.7-55.2h11.7L712.1,726.6z" class="st4"/><path data-cppathid="10098" d="M754.5,741.6h-11.1v-55.2h11.1V741.6z" class="st4"/><path data-cppathid="10099" d="M794.2,727.2c0.1-2-0.7-3.8-2.2-5.1c-1.5-1.3-4.1-2.5-7.8-3.6c-6.4-1.9-11.2-4.2-14.5-6.8     c-3.3-2.6-5.1-6.5-4.9-10.7c-0.1-4.4,2-8.5,5.6-11.1c3.7-2.9,8.4-4.3,14.2-4.3c6.1,0,11,1.5,14.8,4.6c3.7,2.9,5.7,7.4,5.4,12.1     l-0.1,0.2h-10.7c0.2-2.4-0.8-4.7-2.5-6.3c-1.7-1.5-4-2.2-7-2.2c-2.3-0.1-4.5,0.6-6.3,2c-1.5,1.2-2.3,3.1-2.2,5     c0,1.8,0.9,3.6,2.4,4.6c2.6,1.7,5.4,2.9,8.4,3.8c6.1,1.7,10.7,4,13.9,6.7c3.2,2.7,4.9,6.7,4.8,10.9c0.2,4.4-1.9,8.6-5.5,11.2     c-3.7,2.7-8.6,4.1-14.6,4.1c-5.4,0.2-10.8-1.4-15.3-4.4c-4.2-3-6.3-7.4-6.2-13.2l0.1-0.2h10.7c0,3.3,1,5.7,2.9,7.2     c2.3,1.6,5,2.5,7.8,2.3c3,0,5.2-0.6,6.8-1.9C793.4,731,794.3,729.1,794.2,727.2z" class="st4"/><path data-cppathid="10100" d="M825.2,741.6h-11.1v-55.2h11.1V741.6z" class="st4"/><path data-cppathid="10101" d="M880.8,719c0,6.8-2.1,12.4-6.4,16.8c-4.3,4.4-9.8,6.6-16.7,6.6c-6.8,0-12.3-2.2-16.6-6.6     c-4.2-4.4-6.4-10-6.4-16.8v-9.9c0-6.7,2.1-12.3,6.3-16.8c4.2-4.4,9.7-6.7,16.5-6.7c6.8,0,12.4,2.2,16.7,6.7s6.4,10,6.4,16.8     L880.8,719z M869.8,709c0.2-3.8-1-7.5-3.2-10.6c-2.1-2.7-5.4-4.3-8.9-4.1c-3.4-0.2-6.7,1.4-8.7,4.1c-2.2,3.1-3.3,6.8-3.1,10.6v10     c0,4.4,1,7.9,3.1,10.7c2.1,2.7,5.4,4.3,8.8,4.1c3.5,0.2,6.8-1.4,8.9-4.1c2.1-2.7,3.2-6.3,3.2-10.7L869.8,709z M860,670.1h12.3     l0.1,0.2l-10.5,9.8h-9.4L860,670.1z" class="st4"/><path data-cppathid="10102" d="M934.1,741.6h-11.1l-22.2-37.2h-0.2v37.2h-11.1v-55.2h11.1l22.2,37.2h0.2v-37.2h11.1L934.1,741.6z" class="st4"/></g></g></g></svg>