<?xml version="1.0" encoding="UTF-8"?>
<svg xmlns="http://www.w3.org/2000/svg" onmouseup="{ if(window.parent.document.onmouseup) window.parent.document.onmouseup(arguments[0]);}" viewBox="0 0 1156.82 1080" data-name="Layer 1" id="Layer_1"><defs><style>.cls-1{fill:#333e48;}.cls-2,.cls-3,.cls-4,.cls-6{fill:none;}.cls-2{stroke:#00ffd3;}.cls-2,.cls-3,.cls-6{stroke-miterlimit:10;stroke-width:2px;}.cls-3{stroke:#f7a800;}.cls-5{fill:#fff;}.cls-6{stroke:#fff;}.cls-7{isolation:isolate;}.cls-8{fill:#f7a800;}.cls-9{fill:#00ffd3;}.cls-10{fill:#e6550e;}</style></defs><rect data-cppathid="10000" height="1080" width="1156.82" class="cls-1"/><polygon data-cppathid="10001" points="76.7 829.69 76.7 964.88 944.93 964.88 1080.11 829.69 1080.11 250.31 1080.12 250.31 1080.12 115.12 211.89 115.12 76.7 250.31 76.7 829.69" class="cls-2"/><polyline data-cppathid="10002" points="1080.12 233.41 1063.22 233.41 1063.22 822.69 937.93 947.98 76.7 947.98" class="cls-3"/><polyline data-cppathid="10003" points="76.7 846.59 93.6 846.59 93.6 257.31 218.89 132.02 1080.12 132.02" class="cls-3"/><rect data-cppathid="10004" height="33.8" width="33.8" y="132.02" x="211.89" class="cls-4"/><circle data-cppathid="10005" r="2.11" cy="148.92" cx="228.79" class="cls-5"/><rect data-cppathid="10006" height="33.8" width="33.8" y="267.2" x="153.45" class="cls-4"/><rect data-cppathid="10007" height="33.8" width="33.8" y="267.2" x="966.14" class="cls-4"/><rect data-cppathid="10008" height="33.8" width="33.8" y="779" x="153.45" class="cls-4"/><rect data-cppathid="10009" height="33.8" width="33.8" y="779" x="966.14" class="cls-4"/><rect data-cppathid="10010" height="33.8" width="33.8" y="250.31" x="93.6" class="cls-4"/><circle data-cppathid="10011" r="2.11" cy="267.2" cx="110.5" class="cls-5"/><rect data-cppathid="10012" height="33.8" width="33.8" y="914.19" x="911.13" class="cls-4"/><circle data-cppathid="10013" r="2.11" cy="931.08" cx="928.03" class="cls-5"/><rect data-cppathid="10014" height="33.8" width="33.8" y="795.9" x="1029.42" class="cls-4"/><circle data-cppathid="10015" r="2.11" cy="812.8" cx="1046.32" class="cls-5"/><polygon data-cppathid="10016" points="154.35 757.23 154.35 868.26 893.16 868.26 1002.47 757.23 1002.47 322.77 1002.47 322.77 1002.47 211.74 263.65 211.74 154.35 322.77 154.35 757.23" class="cls-6"/><g class="cls-7"><g class="cls-7"><path data-cppathid="10017" d="M246.54,363.69l.05.17q.12,6.72-4.09,10.52t-11.61,3.8a16.09,16.09,0,0,1-12.18-4.85q-4.65-4.86-4.64-12.55v-8.33q0-7.67,4.52-12.54A15.42,15.42,0,0,1,230.46,335q7.66,0,12,3.75t4.2,10.54l-.06.18h-8.18c0-2.69-.65-4.7-1.94-6s-3.3-2-6-2a6.78,6.78,0,0,0-5.89,3,13.49,13.49,0,0,0-2.12,7.86v8.38a13.07,13.07,0,0,0,2.23,7.89,7.26,7.26,0,0,0,6.21,3.06q3.78,0,5.64-2t1.85-6.06Z" class="cls-8"/><path data-cppathid="10018" d="M274.48,368.53h-13.6l-2.82,9h-8.79l14.15-41.94H272l14.09,41.94h-8.79ZM263,361.93h9.48l-4.64-14.78h-.18Z" class="cls-8"/><path data-cppathid="10019" d="M290.15,377.57V335.63h14.64a17.3,17.3,0,0,1,12.67,4.91,16.92,16.92,0,0,1,5,12.6v6.95a16.84,16.84,0,0,1-5,12.6,17.32,17.32,0,0,1-12.67,4.88Zm8.41-35.46v29h6.23a8.2,8.2,0,0,0,6.68-3.1,12.11,12.11,0,0,0,2.54-7.93v-7a12,12,0,0,0-2.54-7.9,8.24,8.24,0,0,0-6.68-3.08Z" class="cls-8"/><path data-cppathid="10020" d="M350.45,368.53h-13.6l-2.82,9h-8.79l14.15-41.94H348l14.09,41.94H353.3Zm-11.52-6.6h9.47l-4.63-14.78h-.18Z" class="cls-8"/><path data-cppathid="10021" d="M414.06,335.63v27.45q0,7.1-4.7,11.09t-12.18,4q-7.47,0-12.12-4t-4.65-11.09V335.63h8.44v27.45q0,4.21,2.25,6.43a8.27,8.27,0,0,0,6.08,2.22,8.45,8.45,0,0,0,6.16-2.22q2.28-2.22,2.28-6.43V335.63Z" class="cls-8"/><path data-cppathid="10022" d="M455.25,377.57h-8.41l-16.91-28.29-.17,0v28.26h-8.41V335.63h8.41l16.91,28.26.17,0V335.63h8.41Z" class="cls-8"/><path data-cppathid="10023" d="M472,377.57h-8.41V335.63H472Z" class="cls-8"/><path data-cppathid="10024" d="M480.29,377.57V335.63h14.63a17.33,17.33,0,0,1,12.68,4.91,17,17,0,0,1,5,12.6v6.95a16.87,16.87,0,0,1-5,12.6,17.34,17.34,0,0,1-12.68,4.88Zm8.41-35.46v29h6.22a8.21,8.21,0,0,0,6.69-3.1,12.1,12.1,0,0,0,2.53-7.93v-7a12,12,0,0,0-2.53-7.9,8.25,8.25,0,0,0-6.69-3.08Z" class="cls-8"/><path data-cppathid="10025" d="M540.59,368.53H527l-2.83,9h-8.78l14.14-41.94h8.62l14.08,41.94h-8.78Zm-11.53-6.6h9.48l-4.64-14.78h-.17Z" class="cls-8"/><path data-cppathid="10026" d="M556.26,377.57V335.63h14.63a17.33,17.33,0,0,1,12.68,4.91,17,17,0,0,1,5,12.6v6.95a16.87,16.87,0,0,1-5,12.6,17.34,17.34,0,0,1-12.68,4.88Zm8.41-35.46v29h6.22a8.21,8.21,0,0,0,6.69-3.1,12.1,12.1,0,0,0,2.53-7.93v-7a12,12,0,0,0-2.53-7.9,8.25,8.25,0,0,0-6.69-3.08Z" class="cls-8"/><path data-cppathid="10027" d="M610,377.57V335.63h14.63a17.34,17.34,0,0,1,12.68,4.91,17,17,0,0,1,5,12.6v6.95a16.87,16.87,0,0,1-5,12.6,17.36,17.36,0,0,1-12.68,4.88Zm8.41-35.46v29h6.22a8.19,8.19,0,0,0,6.68-3.1,12.11,12.11,0,0,0,2.54-7.93v-7a12,12,0,0,0-2.54-7.9,8.23,8.23,0,0,0-6.68-3.08Z" class="cls-8"/><path data-cppathid="10028" d="M673,359.14H657.43v12h18.5v6.45H649V335.63h26.85v6.48H657.43v10.54H673Z" class="cls-8"/><path data-cppathid="10029" d="M730.43,377.57H722l-16.91-28.29-.17,0v28.26h-8.41V335.63h8.41l16.91,28.26.17,0V335.63h8.41Z" class="cls-8"/><path data-cppathid="10030" d="M762.12,359.14H746.57v12h18.49v6.45H738.15V335.63H765v6.48H746.57v10.54h15.55Z" class="cls-8"/><path data-cppathid="10031" d="M803.12,371.84a16,16,0,0,1-5.85,4.45,23,23,0,0,1-10,1.89,17,17,0,0,1-12.44-4.78A16.69,16.69,0,0,1,770,361v-8.76a16.94,16.94,0,0,1,4.7-12.4,16.14,16.14,0,0,1,12.07-4.8q7.68,0,11.78,3.65a12,12,0,0,1,4,9.72l-.06.17h-7.92a6.89,6.89,0,0,0-1.94-5.2,7.75,7.75,0,0,0-5.61-1.85,7.53,7.53,0,0,0-6.22,3,12,12,0,0,0-2.37,7.68V361a12,12,0,0,0,2.42,7.75,7.92,7.92,0,0,0,6.48,3,15,15,0,0,0,4.74-.61,7.13,7.13,0,0,0,2.7-1.53v-8.12h-8.07v-5.82h16.51Z" class="cls-8"/><path data-cppathid="10032" d="M844.2,360.38a17.59,17.59,0,0,1-4.87,12.77,16.87,16.87,0,0,1-12.68,5,16.68,16.68,0,0,1-12.61-5,17.67,17.67,0,0,1-4.84-12.76v-7.55A17.71,17.71,0,0,1,814,340.08,16.61,16.61,0,0,1,826.6,335a16.89,16.89,0,0,1,12.7,5.06,17.56,17.56,0,0,1,4.9,12.75Zm-8.38-7.61a12.71,12.71,0,0,0-2.45-8,8.13,8.13,0,0,0-6.77-3.14,7.85,7.85,0,0,0-6.64,3.14,12.93,12.93,0,0,0-2.38,8v7.61A13.05,13.05,0,0,0,820,368.5a7.92,7.92,0,0,0,6.68,3.14,8.05,8.05,0,0,0,6.75-3.14,12.94,12.94,0,0,0,2.42-8.12Z" class="cls-8"/><path data-cppathid="10033" d="M882.31,363.69l.06.17q.12,6.72-4.09,10.52t-11.61,3.8a16.12,16.12,0,0,1-12.19-4.85q-4.63-4.86-4.63-12.55v-8.33q0-7.67,4.52-12.54A15.4,15.4,0,0,1,866.24,335q7.66,0,12,3.75t4.21,10.54l-.06.18h-8.18c0-2.69-.65-4.7-2-6s-3.29-2-6-2a6.78,6.78,0,0,0-5.89,3,13.49,13.49,0,0,0-2.12,7.86v8.38a13,13,0,0,0,2.23,7.89,7.26,7.26,0,0,0,6.21,3.06c2.52,0,4.39-.66,5.63-2s1.86-3.33,1.86-6.06Z" class="cls-8"/><path data-cppathid="10034" d="M897.38,377.57H889V335.63h8.41Z" class="cls-8"/><path data-cppathid="10035" d="M939.64,360.38a17.59,17.59,0,0,1-4.87,12.77,18.4,18.4,0,0,1-25.29,0,17.67,17.67,0,0,1-4.84-12.76v-7.55a17.75,17.75,0,0,1,4.82-12.75A16.61,16.61,0,0,1,922,335a16.89,16.89,0,0,1,12.7,5.06,17.56,17.56,0,0,1,4.9,12.75Zm-8.38-7.61a12.71,12.71,0,0,0-2.45-8,8.11,8.11,0,0,0-6.77-3.14,7.86,7.86,0,0,0-6.64,3.14,12.93,12.93,0,0,0-2.38,8v7.61a13.05,13.05,0,0,0,2.39,8.12,8,8,0,0,0,6.69,3.14,8,8,0,0,0,6.74-3.14,12.94,12.94,0,0,0,2.42-8.12Z" class="cls-8"/></g><g class="cls-7"><path data-cppathid="10036" d="M227,394.48v14.26h13v2.69H227V448c0,4.33.74,7.42,2.2,9.25A7.06,7.06,0,0,0,235,460c.88,0,1.66,0,2.35-.09s1.62-.18,2.83-.35l.49,2.4a12.59,12.59,0,0,1-2.54.53,26.69,26.69,0,0,1-3,.15q-5.33,0-8.08-3.47T224.35,448V411.43h-9.77v-2.69h9.77V394.48Z" class="cls-5"/><path data-cppathid="10037" d="M255.75,392.14h-2.64V385.4h2.64Zm0,69.43h-2.64V408.74h2.64Z" class="cls-5"/><path data-cppathid="10038" d="M291.58,462.6a20.26,20.26,0,0,1-15.74-7.23q-6.42-7.22-6.42-18.21V434q0-11.48,6.37-18.88a20.27,20.27,0,0,1,16-7.39q8.79,0,14,5.78t5.23,15.8v4h-39v3.76q0,9.68,5.47,16.24A17.5,17.5,0,0,0,291.58,460a24.21,24.21,0,0,0,9.11-1.75,19.74,19.74,0,0,0,7.11-4.69l1.41,2.05a21.28,21.28,0,0,1-7.18,5.05A25.27,25.27,0,0,1,291.58,462.6Zm.25-52.2a17.49,17.49,0,0,0-13.45,5.69,23.23,23.23,0,0,0-5.94,14.38l.15.29h35.84v-1.61q0-8.14-4.44-13.45T291.83,410.4Z" class="cls-5"/><path data-cppathid="10039" d="M326.06,408.74l.34,10.65a19.42,19.42,0,0,1,7-8.57,19.88,19.88,0,0,1,11.28-3.05q8.64,0,13,5.44T362,430.47v31.1h-2.64v-31.2q0-11-3.93-15.48a13.47,13.47,0,0,0-10.67-4.49q-8.31,0-12.7,4.84a23.51,23.51,0,0,0-5.61,12.45v33.88h-2.64V434.52h-.14c0-.61,0-1.24,0-1.88s.06-1.27.12-1.93v-22Z" class="cls-5"/><path data-cppathid="10040" d="M397.05,462.6a20.26,20.26,0,0,1-15.74-7.23q-6.42-7.22-6.42-18.21V434q0-11.48,6.37-18.88a20.27,20.27,0,0,1,16-7.39q8.79,0,14,5.78t5.23,15.8v4h-39v3.76q0,9.68,5.47,16.24A17.49,17.49,0,0,0,397.05,460a24.21,24.21,0,0,0,9.11-1.75,19.61,19.61,0,0,0,7.1-4.69l1.42,2.05a21.28,21.28,0,0,1-7.18,5.05A25.27,25.27,0,0,1,397.05,462.6Zm.25-52.2a17.48,17.48,0,0,0-13.45,5.69,23.23,23.23,0,0,0-5.94,14.38l.15.29H413.9v-1.61q0-8.14-4.44-13.45T397.3,410.4Z" class="cls-5"/><path data-cppathid="10041" d="M485.58,448.63A10.44,10.44,0,0,0,482,441q-3.58-3.44-12.52-5.39-9.44-2-13.65-5.15t-4.23-9.35a11.72,11.72,0,0,1,4.79-9.5q4.78-3.84,12.89-3.83,8.75,0,13.77,4.1a12.51,12.51,0,0,1,4.79,10.69l-.1.29h-2.25a11.1,11.1,0,0,0-4.37-8.81q-4.37-3.63-11.84-3.64T458,413.6a9.46,9.46,0,0,0-3.81,7.4,9.26,9.26,0,0,0,3.22,7.08q3.23,2.93,12.8,5.13,8.83,2,13.4,5.59a11.8,11.8,0,0,1,4.57,9.88,12.06,12.06,0,0,1-5.08,10.06q-5.08,3.86-13.48,3.86-9.23,0-14.48-4.13t-4.9-10l.09-.29h2.15q.39,6.24,5.37,9A23.71,23.71,0,0,0,469.66,460q7.32,0,11.62-3.42T485.58,448.63Z" class="cls-5"/><path data-cppathid="10042" d="M538.36,452.3a18.28,18.28,0,0,1-7.08,7.59,21.5,21.5,0,0,1-11.13,2.71q-8.16,0-12.77-5.79t-4.61-17.94V408.74h2.63V439q0,10.74,4,15.87A12.81,12.81,0,0,0,520.05,460q8.06,0,12.48-3.93a18.34,18.34,0,0,0,5.73-10.37V408.74H541v31.11h.1c0,.42,0,.83,0,1.22s0,.84,0,1.36v19.14h-2.2Z" class="cls-5"/><path data-cppathid="10043" d="M590.07,448.63a10.4,10.4,0,0,0-3.59-7.64q-3.59-3.44-12.52-5.39-9.42-2-13.65-5.15t-4.22-9.35a11.71,11.71,0,0,1,4.78-9.5q4.78-3.84,12.89-3.83,8.75,0,13.77,4.1a12.51,12.51,0,0,1,4.79,10.69l-.1.29H590A11.07,11.07,0,0,0,585.6,414q-4.36-3.63-11.84-3.64t-11.23,3.2a9.46,9.46,0,0,0-3.81,7.4,9.23,9.23,0,0,0,3.23,7.08q3.21,2.93,12.79,5.13,8.84,2,13.4,5.59a11.77,11.77,0,0,1,4.57,9.88,12.06,12.06,0,0,1-5.08,10.06q-5.08,3.86-13.48,3.86-9.23,0-14.47-4.13t-4.91-10l.1-.29H557q.39,6.24,5.38,9A23.68,23.68,0,0,0,574.15,460q7.33,0,11.62-3.42T590.07,448.63Z" class="cls-5"/><path data-cppathid="10044" d="M671.76,436.13q0,12.21-5.27,19.34a17.12,17.12,0,0,1-14.55,7.13,22.35,22.35,0,0,1-10.72-2.44,18.69,18.69,0,0,1-7.2-6.64v28.37h-2.64V447.12c0-.1-.06-.18-.07-.24a.69.69,0,0,1,0-.2V425.12a2.5,2.5,0,0,1,.1-.31V408.74h2l.54,9.33a19.9,19.9,0,0,1,7.18-7.55,20.25,20.25,0,0,1,10.69-2.75,17,17,0,0,1,14.62,7.39q5.29,7.39,5.3,19.95Zm-2.68-1q0-11-4.42-17.85a14.3,14.3,0,0,0-12.77-6.86q-7.53,0-11.75,3.76a21.71,21.71,0,0,0-6.12,9.28v25.24a17,17,0,0,0,6.54,8.23A20,20,0,0,0,652,460q8.34,0,12.72-6.44t4.37-17.39Z" class="cls-5"/><path data-cppathid="10045" d="M709.41,410.65l-3.42-.3a15.31,15.31,0,0,0-11.5,4.57,22.36,22.36,0,0,0-5.74,12v34.61h-2.63V408.74h2.14l.49,9.18v1.81a19,19,0,0,1,6.55-8.81A17.71,17.71,0,0,1,706,407.77a11.12,11.12,0,0,1,2.07.17,16.08,16.08,0,0,1,1.64.36Z" class="cls-5"/><path data-cppathid="10046" d="M714.44,434.13q0-11.61,6.42-19a22.61,22.61,0,0,1,33.4,0q6.42,7.37,6.42,19v2.05q0,11.67-6.42,19.05a22.58,22.58,0,0,1-33.38,0q-6.45-7.38-6.44-19.05Zm2.63,2.05a26,26,0,0,0,5.57,16.87q5.57,6.92,15,6.91A18.07,18.07,0,0,0,752.47,453,26.07,26.07,0,0,0,758,436.18v-2.05a25.89,25.89,0,0,0-5.62-16.72,19.32,19.32,0,0,0-29.78,0,26.07,26.07,0,0,0-5.57,16.72Z" class="cls-5"/><path data-cppathid="10047" d="M813.7,436.13q0,12.21-5.27,19.34a17.1,17.1,0,0,1-14.55,7.13,22.41,22.41,0,0,1-10.72-2.44,18.83,18.83,0,0,1-7.2-6.64v28.37h-2.64V447.12l-.07-.24a.68.68,0,0,1,0-.2V425.12s0-.12.09-.31V408.74h2l.54,9.33a19.9,19.9,0,0,1,7.18-7.55,20.27,20.27,0,0,1,10.69-2.75,17,17,0,0,1,14.63,7.39q5.3,7.39,5.29,19.95Zm-2.68-1q0-11-4.42-17.85a14.29,14.29,0,0,0-12.77-6.86q-7.51,0-11.74,3.76a21.64,21.64,0,0,0-6.13,9.28v25.24a17.11,17.11,0,0,0,6.54,8.23,20,20,0,0,0,11.43,3q8.36,0,12.72-6.44T811,436.13Z" class="cls-5"/><path data-cppathid="10048" d="M831.33,392.14h-2.64V385.4h2.64Zm0,69.43h-2.64V408.74h2.64Z" class="cls-5"/><path data-cppathid="10049" d="M844.51,434.13q0-11.61,6.43-19a22.59,22.59,0,0,1,33.39,0q6.42,7.37,6.42,19v2.05q0,11.67-6.42,19.05a22.57,22.57,0,0,1-33.37,0q-6.45-7.38-6.45-19.05Zm2.64,2.05a26,26,0,0,0,5.57,16.87q5.56,6.92,15,6.91A18.07,18.07,0,0,0,882.55,453a26.07,26.07,0,0,0,5.57-16.85v-2.05a25.89,25.89,0,0,0-5.62-16.72,19.32,19.32,0,0,0-29.78,0,26.07,26.07,0,0,0-5.57,16.72Z" class="cls-5"/><path data-cppathid="10050" d="M935.77,448.63a10.42,10.42,0,0,0-3.58-7.64q-3.6-3.44-12.53-5.39-9.42-2-13.65-5.15t-4.22-9.35a11.7,11.7,0,0,1,4.79-9.5q4.77-3.84,12.89-3.83,8.73,0,13.77,4.1A12.5,12.5,0,0,1,938,422.56l-.1.29h-2.24a11.1,11.1,0,0,0-4.37-8.81q-4.38-3.63-11.84-3.64t-11.23,3.2a9.46,9.46,0,0,0-3.81,7.4,9.22,9.22,0,0,0,3.22,7.08q3.23,2.93,12.79,5.13,8.84,2,13.41,5.59a11.79,11.79,0,0,1,4.56,9.88,12,12,0,0,1-5.08,10.06q-5.07,3.86-13.47,3.86-9.24,0-14.48-4.13t-4.91-10l.1-.29h2.15q.39,6.24,5.37,9A23.69,23.69,0,0,0,919.86,460q7.32,0,11.62-3.42T935.77,448.63Z" class="cls-5"/></g><g class="cls-7"><path data-cppathid="10051" d="M264.52,541.07H232.88v24.38H270.5v13.12H215.77V493.26h54.61v13.19h-37.5v21.44h31.64Z" class="cls-9"/><path data-cppathid="10052" d="M327,556.31a10,10,0,0,0-3.43-7.91q-3.42-3-12-5.63-14.76-4.44-22.41-10.48t-7.65-16.47q0-10.49,8.62-17.14T312,492q14.18,0,22.82,7.15t8.35,18.75l-.12.35H326.51q0-6.39-3.87-9.81T311.8,505q-6.33,0-9.78,3a9.89,9.89,0,0,0-3.46,7.79,8.52,8.52,0,0,0,3.75,7.12q3.75,2.78,12.95,5.89,14.07,4,21.45,10.4t7.38,16.9q0,11-8.56,17.29t-22.61,6.32q-13.77,0-23.65-6.85t-9.58-20.45l.12-.35h16.58q0,7.56,4.46,11.13t12.07,3.58q6.85,0,10.46-2.88A9.3,9.3,0,0,0,327,556.31Z" class="cls-9"/><path data-cppathid="10053" d="M416.16,506.45H391.78v72.12H374.67V506.45h-24V493.26h65.51Z" class="cls-9"/><path data-cppathid="10054" d="M463.62,560.18H436l-5.74,18.39H412.35l28.77-85.31h17.52l28.65,85.31H469.42Zm-23.44-13.42h19.28L450,516.7h-.36ZM453,469.24h19l.12.35-16.23,15.23H441.3Z" class="cls-9"/><path data-cppathid="10055" d="M564.46,578.57H547.35L513,521l-.36.05v57.48H495.5V493.26h17.1L547,550.74l.35-.06V493.26h17.11Z" class="cls-9"/><path data-cppathid="10056" d="M580.16,578.57V493.26h29.77q15.65,0,25.78,10t10.14,25.64V543q0,15.71-10.14,25.63t-25.78,9.93Zm17.11-72.12v59h12.66a16.71,16.71,0,0,0,13.59-6.3q5.16-6.3,5.16-16.14V528.77q0-9.78-5.16-16.06a16.76,16.76,0,0,0-13.59-6.26Z" class="cls-9"/><path data-cppathid="10057" d="M702.8,560.18H675.14l-5.74,18.39H651.53l28.77-85.31h17.52l28.65,85.31H708.6Zm-23.44-13.42h19.28l-9.43-30.06h-.36Z" class="cls-9"/><path data-cppathid="10058" d="M751.78,544.47v34.1H734.67V493.26h29.54q14.58,0,22.82,6.65t8.23,18.55a18.65,18.65,0,0,1-3.49,11.33,24.19,24.19,0,0,1-10.16,7.71q7.56,2.24,10.87,7.44a23.65,23.65,0,0,1,3.31,12.89v6.27a31.25,31.25,0,0,0,1,7.47,10.26,10.26,0,0,0,3.32,5.77v1.23H782.43q-2.34-1.87-3-6.21a54.41,54.41,0,0,1-.67-8.38v-6q0-6.39-3.49-9.93c-2.32-2.37-5.62-3.55-9.87-3.55Zm0-13.18h12.13q7.22,0,10.73-3t3.51-9a12.44,12.44,0,0,0-3.54-9.32q-3.55-3.45-10.4-3.45H751.78Z" class="cls-9"/><path data-cppathid="10059" d="M859.89,541.07H828.25v24.38h37.62v13.12H811.14V493.26h54.61v13.19h-37.5v21.44h31.64Z" class="cls-9"/><path data-cppathid="10060" d="M922.35,556.31a10,10,0,0,0-3.43-7.91q-3.42-3-12-5.63-14.76-4.44-22.41-10.48t-7.65-16.47q0-10.49,8.62-17.14t22-6.65q14.18,0,22.82,7.15a22.37,22.37,0,0,1,8.35,18.75l-.12.35H921.88q0-6.39-3.87-9.81T907.17,505c-4.21,0-7.48,1-9.78,3a9.89,9.89,0,0,0-3.46,7.79,8.52,8.52,0,0,0,3.75,7.12q3.75,2.78,13,5.89,14.07,4,21.45,10.4t7.38,16.9q0,11-8.55,17.29t-22.62,6.32q-13.77,0-23.64-6.85t-9.58-20.45l.11-.35h16.58q0,7.56,4.46,11.13t12.07,3.58q6.86,0,10.46-2.88A9.3,9.3,0,0,0,922.35,556.31Z" class="cls-9"/></g><g class="cls-7"><path data-cppathid="10061" d="M242.89,630.51q0,8.67-3.74,13.73a12.13,12.13,0,0,1-10.34,5.06,15.93,15.93,0,0,1-7.6-1.73,13.33,13.33,0,0,1-5.12-4.72V663h-1.87V638.31c0-.07,0-.12-.05-.17a.68.68,0,0,1,0-.14V622.69a1.72,1.72,0,0,1,.07-.22V611.06h1.46l.38,6.63a14,14,0,0,1,5.09-5.36,14.31,14.31,0,0,1,7.6-2,12.08,12.08,0,0,1,10.38,5.25q3.76,5.25,3.76,14.16Zm-1.91-.73q0-7.8-3.13-12.67a10.17,10.17,0,0,0-9.07-4.87q-5.34,0-8.34,2.67a15.37,15.37,0,0,0-4.35,6.59v17.92a12.14,12.14,0,0,0,4.65,5.84,14.19,14.19,0,0,0,8.11,2.17,10.24,10.24,0,0,0,9-4.58q3.1-4.58,3.1-12.34Z" class="cls-5"/><path data-cppathid="10062" d="M276.62,641.64a14.52,14.52,0,0,1-5.79,5.53,19,19,0,0,1-9.32,2.13q-5.24,0-8.22-2.86a10.17,10.17,0,0,1-3-7.71q0-4.71,4.45-7.91a18.72,18.72,0,0,1,11.15-3.19h10.71v-5.47a9.17,9.17,0,0,0-3-7.3c-2-1.74-4.81-2.62-8.44-2.62a12.82,12.82,0,0,0-8.2,2.46,7.74,7.74,0,0,0-3.1,6.35l-1.56-.07-.07-.18a8.73,8.73,0,0,1,3.4-7.4q3.6-3,9.53-3t9.67,3q3.64,3.06,3.64,8.81V641a32.37,32.37,0,0,0,.23,3.85,25,25,0,0,0,.74,3.7h-2.08q-.45-2.46-.6-3.69a20,20,0,0,1-.16-2.65Zm-15.11,5.82A17.21,17.21,0,0,0,271,645a14.24,14.24,0,0,0,5.67-7v-8.43H266a17.21,17.21,0,0,0-9.82,2.69q-4,2.68-4,6.64a8.14,8.14,0,0,0,2.55,6.19A9.49,9.49,0,0,0,261.51,647.46Z" class="cls-5"/><path data-cppathid="10063" d="M307.1,612.42l-2.43-.21a10.88,10.88,0,0,0-8.17,3.24,15.89,15.89,0,0,0-4.07,8.54v24.58h-1.87V611.06h1.52l.35,6.52v1.28a13.51,13.51,0,0,1,4.65-6.25,12.57,12.57,0,0,1,7.59-2.24,8.41,8.41,0,0,1,1.47.12c.45.08.84.17,1.16.26Z" class="cls-5"/><path data-cppathid="10064" d="M337.85,641.64a14.66,14.66,0,0,1-5.79,5.53,19,19,0,0,1-9.33,2.13q-5.24,0-8.22-2.86a10.21,10.21,0,0,1-3-7.71q0-4.71,4.46-7.91a18.69,18.69,0,0,1,11.14-3.19h10.72v-5.47a9.17,9.17,0,0,0-3-7.3c-2-1.74-4.82-2.62-8.44-2.62a12.8,12.8,0,0,0-8.2,2.46,7.75,7.75,0,0,0-3.11,6.35l-1.56-.07-.07-.18a8.79,8.79,0,0,1,3.4-7.4q3.6-3,9.54-3t9.67,3q3.63,3.06,3.64,8.81V641a32.39,32.39,0,0,0,.22,3.85,23.79,23.79,0,0,0,.75,3.7h-2.08c-.3-1.64-.5-2.87-.61-3.69a21.9,21.9,0,0,1-.15-2.65Zm-15.12,5.82a17.26,17.26,0,0,0,9.45-2.46,14.35,14.35,0,0,0,5.67-7v-8.43H327.24a17.24,17.24,0,0,0-9.83,2.69q-4,2.68-4,6.64a8.14,8.14,0,0,0,2.55,6.19A9.49,9.49,0,0,0,322.73,647.46Z" class="cls-5"/><path data-cppathid="10065" d="M367,629.78q0-8.91,3.74-14.16a12.06,12.06,0,0,1,10.4-5.25,14.16,14.16,0,0,1,7.58,2,14.51,14.51,0,0,1,5.11,5.4l.28-6.69h1.59v11.65s0,0,0,0V638a.19.19,0,0,0,0,.1v10.64q0,7.14-3.76,11t-10.42,3.9a30.17,30.17,0,0,1-5.7-.57,22.6,22.6,0,0,1-5.18-1.58l.55-1.87a27.63,27.63,0,0,0,4.89,1.65,24.14,24.14,0,0,0,5.37.54c4.05,0,7.11-1.13,9.21-3.38s3.13-5.5,3.13-9.73v-5.93a13.6,13.6,0,0,1-5.14,4.72,15.94,15.94,0,0,1-7.58,1.73,12.13,12.13,0,0,1-10.35-5.06Q367,639.18,367,630.51Zm1.9.73q0,7.77,3.09,12.34a10.21,10.21,0,0,0,9.05,4.58,14.06,14.06,0,0,0,8-2.17,12.54,12.54,0,0,0,4.71-5.8v-18a15.61,15.61,0,0,0-4.38-6.59q-3-2.67-8.3-2.67a10.15,10.15,0,0,0-9.09,4.87q-3.12,4.88-3.12,12.67Z" class="cls-5"/><path data-cppathid="10066" d="M420.77,649.3a14.39,14.39,0,0,1-11.18-5.13A18.74,18.74,0,0,1,405,631.24V629q0-8.14,4.53-13.4a14.38,14.38,0,0,1,11.38-5.25,12.74,12.74,0,0,1,9.95,4.11q3.72,4.11,3.71,11.21v2.88H406.9v2.67a17.41,17.41,0,0,0,3.89,11.53,12.39,12.39,0,0,0,10,4.66,17.24,17.24,0,0,0,6.47-1.25,13.7,13.7,0,0,0,5-3.33l1,1.46a15.17,15.17,0,0,1-5.1,3.59A18.06,18.06,0,0,1,420.77,649.3Zm.17-37.06a12.43,12.43,0,0,0-9.55,4,16.48,16.48,0,0,0-4.21,10.21l.11.21h25.44v-1.15a14.39,14.39,0,0,0-3.15-9.55A10.7,10.7,0,0,0,420.94,612.24Z" class="cls-5"/><path data-cppathid="10067" d="M445.25,611.06l.24,7.56a13.82,13.82,0,0,1,5-6.08,14.09,14.09,0,0,1,8-2.17q6.13,0,9.2,3.87t3.07,12.25v22.08h-1.87V626.42q0-7.8-2.79-11a9.58,9.58,0,0,0-7.58-3.19q-5.88,0-9,3.43a16.78,16.78,0,0,0-4,8.84v24.06h-1.87v-19.2h-.1c0-.44,0-.89,0-1.34s0-.9.08-1.37v-15.6Z" class="cls-5"/><path data-cppathid="10068" d="M495.65,649.3a14.39,14.39,0,0,1-11.18-5.13,18.73,18.73,0,0,1-4.55-12.93V629q0-8.14,4.52-13.4a14.4,14.4,0,0,1,11.39-5.25,12.75,12.75,0,0,1,9.95,4.11q3.71,4.11,3.71,11.21v2.88h-27.7v2.67a17.4,17.4,0,0,0,3.88,11.53,12.4,12.4,0,0,0,10,4.66,17.21,17.21,0,0,0,6.47-1.25,13.7,13.7,0,0,0,5-3.33l1,1.46a15.17,15.17,0,0,1-5.1,3.59A18.06,18.06,0,0,1,495.65,649.3Zm.18-37.06a12.41,12.41,0,0,0-9.55,4,16.49,16.49,0,0,0-4.22,10.21l.11.21h25.44v-1.15a14.39,14.39,0,0,0-3.15-9.55A10.68,10.68,0,0,0,495.83,612.24Z" class="cls-5"/><path data-cppathid="10069" d="M535.07,612.42l-2.42-.21a10.85,10.85,0,0,0-8.17,3.24,15.89,15.89,0,0,0-4.07,8.54v24.58h-1.87V611.06h1.52l.35,6.52v1.28a13.56,13.56,0,0,1,4.64-6.25,12.62,12.62,0,0,1,7.6-2.24,8.41,8.41,0,0,1,1.47.12c.45.08.84.17,1.16.26Z" class="cls-5"/><path data-cppathid="10070" d="M565.82,641.64a14.52,14.52,0,0,1-5.79,5.53,19,19,0,0,1-9.32,2.13q-5.24,0-8.22-2.86a10.17,10.17,0,0,1-3-7.71q0-4.71,4.45-7.91a18.72,18.72,0,0,1,11.15-3.19h10.71v-5.47a9.17,9.17,0,0,0-3-7.3c-2-1.74-4.81-2.62-8.44-2.62a12.82,12.82,0,0,0-8.2,2.46,7.74,7.74,0,0,0-3.1,6.35l-1.56-.07-.07-.18a8.73,8.73,0,0,1,3.4-7.4q3.6-3,9.53-3t9.67,3q3.65,3.06,3.64,8.81V641a32.37,32.37,0,0,0,.23,3.85,23.79,23.79,0,0,0,.75,3.7h-2.09q-.45-2.46-.6-3.69a20,20,0,0,1-.16-2.65Zm-15.11,5.82a17.21,17.21,0,0,0,9.44-2.46,14.24,14.24,0,0,0,5.67-7v-8.43H555.21a17.23,17.23,0,0,0-9.82,2.69q-4,2.68-4,6.64a8.14,8.14,0,0,0,2.55,6.19A9.49,9.49,0,0,0,550.71,647.46Z" class="cls-5"/><path data-cppathid="10071" d="M596.29,612.42l-2.42-.21a10.88,10.88,0,0,0-8.17,3.24,15.89,15.89,0,0,0-4.07,8.54v24.58h-1.87V611.06h1.52l.35,6.52v1.28a13.51,13.51,0,0,1,4.65-6.25,12.57,12.57,0,0,1,7.59-2.24,8.41,8.41,0,0,1,1.47.12c.45.08.84.17,1.16.26Z" class="cls-5"/><path data-cppathid="10072" d="M601.43,648.85,599,657.52h-1.77l2.32-8.53v-5.93h1.88Z" class="cls-5"/><path data-cppathid="10073" d="M653.05,641.64a14.66,14.66,0,0,1-5.79,5.53,19,19,0,0,1-9.33,2.13q-5.23,0-8.22-2.86a10.21,10.21,0,0,1-3-7.71q0-4.71,4.46-7.91a18.69,18.69,0,0,1,11.14-3.19h10.72v-5.47a9.17,9.17,0,0,0-3-7.3c-2-1.74-4.82-2.62-8.44-2.62a12.82,12.82,0,0,0-8.2,2.46,7.75,7.75,0,0,0-3.11,6.35l-1.56-.07-.07-.18a8.79,8.79,0,0,1,3.4-7.4c2.41-2,5.58-3,9.54-3s7.24,1,9.67,3,3.64,5,3.64,8.81V641a32.39,32.39,0,0,0,.22,3.85,23.79,23.79,0,0,0,.75,3.7h-2.08c-.3-1.64-.5-2.87-.61-3.69a21.9,21.9,0,0,1-.15-2.65Zm-15.12,5.82a17.26,17.26,0,0,0,9.45-2.46,14.29,14.29,0,0,0,5.67-7v-8.43H642.44a17.26,17.26,0,0,0-9.83,2.69q-4,2.68-4,6.64a8.17,8.17,0,0,0,2.54,6.19A9.49,9.49,0,0,0,637.93,647.46Z" class="cls-5"/><path data-cppathid="10074" d="M669.31,648.57h-1.88V594.49h1.88Z" class="cls-5"/><path data-cppathid="10075" d="M682.93,611.06l.24,7.56a14.11,14.11,0,0,1,4.89-6.08,13.23,13.23,0,0,1,7.7-2.17,12.09,12.09,0,0,1,7.8,2.41,12.93,12.93,0,0,1,4.19,7.47,15,15,0,0,1,4.91-7.3,13.15,13.15,0,0,1,8.34-2.61q6.19,0,9.43,4t3.22,12.76v21.39h-1.91V627.08q0-8.15-2.91-11.51a9.76,9.76,0,0,0-7.76-3.36q-5.79,0-8.83,3.4a16.88,16.88,0,0,0-3.9,8.8c0,.46,0,.93.07,1.4s0,1,0,1.44v21.32h-1.91v-19.2h-.1c0-.44,0-.88,0-1.32s0-.87.09-1.28q-.1-8-3-11.25a9.76,9.76,0,0,0-7.73-3.28q-5.73,0-8.72,3.31a16.64,16.64,0,0,0-3.9,8.58v24.44H681.3v-19.2h-.07c0-.33,0-.65,0-1s0-.73,0-1.22V611.06Z" class="cls-5"/><path data-cppathid="10076" d="M768.8,641.64a14.52,14.52,0,0,1-5.79,5.53,19,19,0,0,1-9.32,2.13q-5.24,0-8.22-2.86a10.17,10.17,0,0,1-3-7.71q0-4.71,4.46-7.91a18.67,18.67,0,0,1,11.14-3.19H768.8v-5.47a9.17,9.17,0,0,0-3-7.3c-2-1.74-4.81-2.62-8.44-2.62a12.82,12.82,0,0,0-8.2,2.46,7.74,7.74,0,0,0-3.1,6.35L744.5,621l-.07-.18a8.73,8.73,0,0,1,3.4-7.4q3.6-3,9.53-3t9.68,3q3.63,3.06,3.63,8.81V641a32.37,32.37,0,0,0,.23,3.85,23.79,23.79,0,0,0,.75,3.7h-2.08c-.31-1.64-.51-2.87-.61-3.69a21.82,21.82,0,0,1-.16-2.65Zm-15.11,5.82a17.21,17.21,0,0,0,9.44-2.46,14.24,14.24,0,0,0,5.67-7v-8.43H758.19a17.23,17.23,0,0,0-9.82,2.69q-4,2.68-4,6.64a8.14,8.14,0,0,0,2.55,6.19A9.49,9.49,0,0,0,753.69,647.46Z" class="cls-5"/><path data-cppathid="10077" d="M795.46,647.43a14.07,14.07,0,0,0,8.39-2.6q3.64-2.6,3.64-7.8h1.6l.07.21a10.27,10.27,0,0,1-4,8.79,15.25,15.25,0,0,1-9.66,3.27,13.55,13.55,0,0,1-11.25-5.16q-4.07-5.17-4.07-13.59v-1.46q0-8.39,4.06-13.55a13.42,13.42,0,0,1,11.19-5.17,14.76,14.76,0,0,1,9.87,3.42q4,3.4,3.9,9.62l-.07.2h-1.6c0-3.67-1.18-6.49-3.53-8.44a13,13,0,0,0-8.57-2.93q-6.58,0-10,4.72T782,629.09v1.46q0,7.49,3.4,12.18C787.67,645.86,791,647.43,795.46,647.43Z" class="cls-5"/><path data-cppathid="10078" d="M831.9,649.3a14.38,14.38,0,0,1-11.18-5.13,18.74,18.74,0,0,1-4.56-12.93V629q0-8.14,4.52-13.4a14.42,14.42,0,0,1,11.39-5.25,12.74,12.74,0,0,1,9.95,4.11q3.71,4.11,3.71,11.21v2.88H818v2.67a17.46,17.46,0,0,0,3.88,11.53,12.41,12.41,0,0,0,10,4.66,17.16,17.16,0,0,0,6.46-1.25,13.83,13.83,0,0,0,5-3.33l1,1.46a15,15,0,0,1-5.09,3.59A18.09,18.09,0,0,1,831.9,649.3Zm.17-37.06a12.42,12.42,0,0,0-9.55,4,16.48,16.48,0,0,0-4.21,10.21l.1.21h25.45v-1.15A14.34,14.34,0,0,0,840.7,616,10.68,10.68,0,0,0,832.07,612.24Z" class="cls-5"/><path data-cppathid="10079" d="M856.37,611.06l.25,7.56a13.75,13.75,0,0,1,5-6.08,14.09,14.09,0,0,1,8-2.17q6.14,0,9.2,3.87t3.07,12.25v22.08H880V626.42q0-7.8-2.79-11a9.58,9.58,0,0,0-7.58-3.19q-5.89,0-9,3.43a16.78,16.78,0,0,0-4,8.84v24.06h-1.87v-19.2h-.1c0-.44,0-.89,0-1.34s0-.9.09-1.37v-15.6Z" class="cls-5"/><path data-cppathid="10080" d="M917.18,641.64a14.52,14.52,0,0,1-5.79,5.53,19,19,0,0,1-9.32,2.13q-5.24,0-8.22-2.86a10.17,10.17,0,0,1-3-7.71q0-4.71,4.45-7.91a18.72,18.72,0,0,1,11.15-3.19h10.71v-5.47a9.17,9.17,0,0,0-3-7.3c-2-1.74-4.81-2.62-8.44-2.62a12.82,12.82,0,0,0-8.2,2.46,7.74,7.74,0,0,0-3.1,6.35l-1.56-.07-.07-.18a8.73,8.73,0,0,1,3.4-7.4q3.6-3,9.53-3t9.67,3q3.65,3.06,3.64,8.81V641a32.37,32.37,0,0,0,.23,3.85,25,25,0,0,0,.74,3.7h-2.08q-.45-2.46-.6-3.69a20,20,0,0,1-.16-2.65Zm-15.11,5.82a17.21,17.21,0,0,0,9.44-2.46,14.24,14.24,0,0,0,5.67-7v-8.43H906.57a17.23,17.23,0,0,0-9.82,2.69q-4,2.68-4,6.64a8.14,8.14,0,0,0,2.55,6.19A9.49,9.49,0,0,0,902.07,647.46Z" class="cls-5"/><path data-cppathid="10081" d="M947.66,612.42l-2.43-.21a10.88,10.88,0,0,0-8.17,3.24A15.89,15.89,0,0,0,933,624v24.58h-1.87V611.06h1.52l.35,6.52v1.28a13.51,13.51,0,0,1,4.65-6.25,12.57,12.57,0,0,1,7.59-2.24,8.41,8.41,0,0,1,1.47.12c.45.08.84.17,1.16.26Z" class="cls-5"/></g><g class="cls-7"><path data-cppathid="10082" d="M238.74,705.18l12.85-25.93h9.93L243,713.93v18.64h-8.86V713.38L216,679.25h9.92Z" class="cls-10"/><path data-cppathid="10083" d="M325.86,715.14l.07.22a16.46,16.46,0,0,1-5.23,13q-5.38,5-14.54,5t-15.09-6.28q-5.79-6.27-5.79-16.06V700.86q0-9.74,5.72-16.06a19.13,19.13,0,0,1,14.9-6.32q9.41,0,14.81,4.8T326,696.43l-.07.22h-8.61c0-3.57-1-6.29-2.89-8.19s-4.76-2.83-8.5-2.83a10.11,10.11,0,0,0-8.59,4.3,17.85,17.85,0,0,0-3.16,10.86V711a17.75,17.75,0,0,0,3.22,10.94,10.42,10.42,0,0,0,8.79,4.3c3.63,0,6.4-1,8.29-2.86s2.84-4.65,2.84-8.24Z" class="cls-10"/><path data-cppathid="10084" d="M376.4,710.71q0,9.78-6.14,16.21t-15.95,6.42q-9.56,0-15.56-6.42t-6-16.21v-9.59q0-9.75,6-16.19t15.58-6.45q9.78,0,15.93,6.45a22.49,22.49,0,0,1,6.16,16.19ZM367.5,701a16.59,16.59,0,0,0-3.56-10.95,11.85,11.85,0,0,0-9.63-4.28,11.2,11.2,0,0,0-9.28,4.28A17.12,17.12,0,0,0,341.64,701v9.67a17.26,17.26,0,0,0,3.41,11,11.18,11.18,0,0,0,9.26,4.31,11.82,11.82,0,0,0,9.65-4.29q3.54-4.29,3.54-11.06Z" class="cls-10"/><path data-cppathid="10085" d="M412.83,720.27h.22l15.42-41h11.35v53.32h-8.9v-38.3l-.21,0L416,732.57H409.9L395,693.5l-.22.07v39h-8.9V679.25h11.69Z" class="cls-10"/><path data-cppathid="10086" d="M460,712.36v20.21h-8.9V679.25H471.5q8.82,0,13.83,4.56a17,17,0,0,1,0,24q-5,4.51-13.83,4.52Zm0-7.14H471.5c3.3,0,5.77-.88,7.44-2.64a9.37,9.37,0,0,0,2.49-6.7,9.61,9.61,0,0,0-2.49-6.77c-1.67-1.81-4.14-2.72-7.44-2.72H460Z" class="cls-10"/><path data-cppathid="10087" d="M520.06,720.12h-18.9l-4.1,12.45h-9.19l18.6-53.32h8.46l18.39,53.32h-9.19Zm-16.44-7.43h14l-6.84-21h-.22Z" class="cls-10"/><path data-cppathid="10088" d="M548.81,710.46v22.11h-8.9V679.25h18.35q8.9,0,13.77,4t4.87,11.5a11.87,11.87,0,0,1-2.15,7.12,14.61,14.61,0,0,1-6.24,4.78,11.3,11.3,0,0,1,6.5,4.65,14.92,14.92,0,0,1,2,8v4.43a18,18,0,0,0,.58,4.58,6.55,6.55,0,0,0,1.94,3.4v.84h-9.15a5.83,5.83,0,0,1-1.87-3.77,32.8,32.8,0,0,1-.4-5.12v-4.29a9,9,0,0,0-2.36-6.52,8.59,8.59,0,0,0-6.43-2.41Zm0-7.15h9q5.34,0,7.8-2c1.64-1.36,2.45-3.45,2.45-6.26a8.3,8.3,0,0,0-2.41-6.32c-1.61-1.52-4.07-2.29-7.36-2.29h-9.45Z" class="cls-10"/><path data-cppathid="10089" d="M623,686.39H606.56v46.18h-8.9V686.39H581.44v-7.14H623Z" class="cls-10"/><path data-cppathid="10090" d="M639.45,732.57h-8.9V679.25h8.9Z" class="cls-10"/><path data-cppathid="10091" d="M660.28,710.46v22.11h-8.9V679.25h18.35q8.89,0,13.77,4t4.87,11.5a11.87,11.87,0,0,1-2.14,7.12,14.65,14.65,0,0,1-6.25,4.78,11.27,11.27,0,0,1,6.5,4.65,14.83,14.83,0,0,1,2,8v4.43a18,18,0,0,0,.59,4.58,6.48,6.48,0,0,0,1.94,3.4v.84h-9.16A5.87,5.87,0,0,1,680,728.8a34.07,34.07,0,0,1-.4-5.12v-4.29a9,9,0,0,0-2.36-6.52,8.59,8.59,0,0,0-6.43-2.41Zm0-7.15h9q5.36,0,7.8-2t2.46-6.26a8.31,8.31,0,0,0-2.42-6.32c-1.61-1.52-4.06-2.29-7.36-2.29h-9.45Z" class="cls-10"/><path data-cppathid="10092" d="M717.78,732.57V679.25h17.61q10.14,0,16.5,6.34t6.35,16.3V710q0,10-6.35,16.3t-16.5,6.29Zm8.9-46.18v39.08h8.71a12.81,12.81,0,0,0,10.18-4.34A16.35,16.35,0,0,0,749.34,710v-8.17a16.27,16.27,0,0,0-3.77-11.08,12.81,12.81,0,0,0-10.18-4.34Z" class="cls-10"/><path data-cppathid="10093" d="M795,720.12H776.12L772,732.57h-9.19l18.6-53.32h8.46l18.39,53.32h-9.19Zm-16.44-7.43h14l-6.84-21h-.22Z" class="cls-10"/><path data-cppathid="10094" d="M848.84,686.39H832.37v46.18h-8.9V686.39H807.24v-7.14h41.6Z" class="cls-10"/><path data-cppathid="10095" d="M896.49,710.71q0,9.78-6.14,16.21t-15.94,6.42q-9.57,0-15.57-6.42t-6-16.21v-9.59q0-9.75,6-16.19t15.59-6.45q9.76,0,15.93,6.45a22.52,22.52,0,0,1,6.15,16.19Zm-8.9-9.67A16.59,16.59,0,0,0,884,690.09a11.87,11.87,0,0,0-9.63-4.28,11.21,11.21,0,0,0-9.29,4.28A17.12,17.12,0,0,0,861.74,701v9.67q0,6.74,3.4,11a11.19,11.19,0,0,0,9.27,4.31,11.85,11.85,0,0,0,9.65-4.29q3.53-4.29,3.53-11.06Z" class="cls-10"/><path data-cppathid="10096" d="M934,718.88a7,7,0,0,0-2.37-5.46q-2.35-2.11-8.37-3.81-8.6-2.37-13.27-6.24a12.49,12.49,0,0,1-4.67-10.09,13.1,13.1,0,0,1,5.13-10.62q5.13-4.17,13.18-4.18,8.64,0,13.83,4.64a14.17,14.17,0,0,1,5,11.44l-.07.22h-8.57a8.5,8.5,0,0,0-2.8-6.7,10.8,10.8,0,0,0-7.45-2.49q-4.51,0-6.94,2.12a7,7,0,0,0-2.44,5.5,6.07,6.07,0,0,0,2.68,5.07q2.67,2,8.86,3.79,8.38,2.34,12.78,6.39a13.44,13.44,0,0,1,4.39,10.34,12.63,12.63,0,0,1-5.2,10.59q-5.19,4-13.66,4A23.73,23.73,0,0,1,909.89,729q-6-4.32-5.86-12.19l.08-.22h8.56a8.39,8.39,0,0,0,3.32,7.23,13.28,13.28,0,0,0,8.07,2.44q4.73,0,7.35-2A6.45,6.45,0,0,0,934,718.88Z" class="cls-10"/></g></g></svg>