<?xml version="1.0" encoding="UTF-8"?>
<svg xmlns="http://www.w3.org/2000/svg" onmouseup="{ if(window.parent.document.onmouseup) window.parent.document.onmouseup(arguments[0]);}" viewBox="0 0 1156.8 1080" data-name="Layer 1" id="Layer_1"><defs><style>.cls-1{fill:#333e48;}.cls-2,.cls-3,.cls-4,.cls-6{fill:none;}.cls-2{stroke:#00ffd3;}.cls-2,.cls-3,.cls-6{stroke-miterlimit:10;stroke-width:2px;}.cls-3{stroke:#f7a800;}.cls-5{fill:#fff;}.cls-6{stroke:#fff;}.cls-7{isolation:isolate;}.cls-8{fill:#f7a800;}.cls-9{fill:#00ffd3;}</style></defs><rect data-cppathid="10000" height="1080" width="1156.8" class="cls-1"/><polygon data-cppathid="10001" points="76.7 829.7 76.7 964.9 944.9 964.9 1080.1 829.7 1080.1 250.3 1080.1 250.3 1080.1 115.1 211.9 115.1 76.7 250.3 76.7 829.7" class="cls-2"/><polyline data-cppathid="10002" points="1080.1 233.4 1063.2 233.4 1063.2 822.7 937.9 948 76.7 948" class="cls-3"/><polyline data-cppathid="10003" points="76.7 846.6 93.6 846.6 93.6 257.3 218.9 132 1080.1 132" class="cls-3"/><rect data-cppathid="10004" height="33.8" width="33.8" y="132" x="211.9" class="cls-4"/><circle data-cppathid="10005" r="2.1" cy="148.9" cx="228.8" class="cls-5"/><rect data-cppathid="10006" height="33.8" width="33.8" y="267.2" x="153.4" class="cls-4"/><rect data-cppathid="10007" height="33.8" width="33.8" y="267.2" x="966.1" class="cls-4"/><rect data-cppathid="10008" height="33.8" width="33.8" y="779" x="153.4" class="cls-4"/><rect data-cppathid="10009" height="33.8" width="33.8" y="779" x="966.1" class="cls-4"/><rect data-cppathid="10010" height="33.8" width="33.8" y="250.3" x="93.6" class="cls-4"/><circle data-cppathid="10011" r="2.1" cy="267.2" cx="110.5" class="cls-5"/><rect data-cppathid="10012" height="33.8" width="33.8" y="914.2" x="911.1" class="cls-4"/><circle data-cppathid="10013" r="2.1" cy="931.1" cx="928" class="cls-5"/><rect data-cppathid="10014" height="33.8" width="33.8" y="795.9" x="1029.4" class="cls-4"/><circle data-cppathid="10015" r="2.1" cy="812.8" cx="1046.3" class="cls-5"/><polygon data-cppathid="10016" points="154.4 757.2 154.4 868.3 893.2 868.3 1002.5 757.2 1002.5 322.8 1002.5 322.8 1002.5 211.7 263.6 211.7 154.4 322.8 154.4 757.2" class="cls-6"/><g class="cls-7"><path data-cppathid="10017" d="M238.82,408.58H279v13.8H220.83v-89.7h18Z" class="cls-8"/><path data-cppathid="10018" d="M362,385.6q0,16.57-10.41,27.32t-27.11,10.75q-16.63,0-27-10.78T287.12,385.6V369.46q0-16.45,10.32-27.26t26.89-10.81q16.69,0,27.16,10.81T362,369.46ZM344,369.34q0-10.47-5.24-17.19t-14.47-6.72q-9.12,0-14.2,6.72T305,369.34V385.6q0,10.66,5.12,17.37t14.29,6.72q9.24,0,14.42-6.72T344,385.6Z" class="cls-8"/><path data-cppathid="10019" d="M425.6,389.85v32.53h-18v-89.7h34.31q15.46,0,24.33,7.89t8.87,20.76q0,12.87-8.87,20.7t-24.33,7.82Zm0-13.86h16.33q7.51,0,11.4-4.1a14.6,14.6,0,0,0,3.88-10.44,15.3,15.3,0,0,0-3.85-10.69q-3.86-4.22-11.43-4.22H425.6Z" class="cls-8"/><path data-cppathid="10020" d="M506,386.52v35.86H488v-89.7h31q15.33,0,24,7t8.66,19.5A19.61,19.61,0,0,1,548,371.09a25.41,25.41,0,0,1-10.69,8.1q7.95,2.34,11.43,7.83t3.48,13.55v6.59a32.51,32.51,0,0,0,1,7.86,10.8,10.8,0,0,0,3.48,6.06v1.3H538.22c-1.65-1.32-2.7-3.49-3.18-6.53a57.67,57.67,0,0,1-.7-8.81v-6.35q0-6.7-3.67-10.44t-10.38-3.73Zm0-13.86h12.75q7.57,0,11.27-3.2t3.7-9.49q0-6.15-3.73-9.79t-10.93-3.64H506Z" class="cls-8"/><path data-cppathid="10021" d="M587.62,422.38h-18v-89.7h18Z" class="cls-8"/><path data-cppathid="10022" d="M651.82,398.78h.37l23-66.1H698.7v89.7h-18V361.14l-.37-.06-22.18,61.3H646L623.79,361l-.37.06v61.36h-18v-89.7H629Z" class="cls-8"/><path data-cppathid="10023" d="M766.46,383H733.2v25.63h39.55v13.8H715.21v-89.7h57.41v13.86H733.2v22.55h33.26Z" class="cls-8"/><path data-cppathid="10024" d="M803.36,386.52v35.86h-18v-89.7h31q15.35,0,24,7t8.65,19.5a19.67,19.67,0,0,1-3.66,11.92,25.54,25.54,0,0,1-10.69,8.1q7.95,2.34,11.43,7.83t3.48,13.55v6.59a33,33,0,0,0,1,7.86,10.8,10.8,0,0,0,3.48,6.06v1.3H835.58c-1.64-1.32-2.7-3.49-3.17-6.53a57.72,57.72,0,0,1-.71-8.81v-6.35q0-6.7-3.66-10.44t-10.39-3.73Zm0-13.86h12.76q7.57,0,11.27-3.2t3.69-9.49q0-6.15-3.72-9.79t-10.94-3.64H803.36Z" class="cls-8"/><path data-cppathid="10025" d="M938.34,385.6q0,16.57-10.41,27.32t-27.11,10.75q-16.64,0-27-10.78T863.49,385.6V369.46q0-16.45,10.32-27.26t26.89-10.81q16.69,0,27.17,10.81t10.47,27.26Zm-17.93-16.26q0-10.47-5.24-17.19t-14.47-6.72q-9.12,0-14.2,6.72t-5.08,17.19V385.6q0,10.66,5.11,17.37t14.29,6.72q9.24,0,14.42-6.72t5.17-17.37Z" class="cls-8"/></g><g class="cls-7"><path data-cppathid="10026" d="M235.08,506.51a17,17,0,0,1-13.17-6.05q-5.37-6-5.37-15.23v-2.61q0-9.6,5.33-15.78a16.93,16.93,0,0,1,13.41-6.19q7.35,0,11.72,4.84t4.37,13.21v3.39H218.74v3.14a20.51,20.51,0,0,0,4.58,13.58,14.59,14.59,0,0,0,11.76,5.49,20.21,20.21,0,0,0,7.61-1.47,16.26,16.26,0,0,0,5.94-3.92l1.19,1.72a17.85,17.85,0,0,1-6,4.22A21.18,21.18,0,0,1,235.08,506.51Zm.2-43.66A14.64,14.64,0,0,0,224,467.61a19.37,19.37,0,0,0-5,12l.12.24h30v-1.35a17,17,0,0,0-3.71-11.25A12.59,12.59,0,0,0,235.28,462.85Z" class="cls-5"/><path data-cppathid="10027" d="M289.1,494.83a8.71,8.71,0,0,0-3-6.39q-3-2.88-10.48-4.52-7.87-1.67-11.41-4.3t-3.53-7.82a9.81,9.81,0,0,1,4-7.95q4-3.19,10.78-3.2,7.31,0,11.52,3.43a10.48,10.48,0,0,1,4,8.94l-.08.25H289a9.25,9.25,0,0,0-3.66-7.37q-3.64-3-9.9-3t-9.39,2.68a7.92,7.92,0,0,0-3.19,6.19,7.72,7.72,0,0,0,2.7,5.92q2.7,2.44,10.7,4.28,7.38,1.72,11.21,4.68a9.87,9.87,0,0,1,3.81,8.27,10.07,10.07,0,0,1-4.24,8.41q-4.24,3.23-11.27,3.23-7.73,0-12.11-3.45t-4.1-8.4l.08-.24h1.79A8.67,8.67,0,0,0,266,502a19.84,19.84,0,0,0,9.84,2.33q6.12,0,9.72-2.86C287.9,499.54,289.1,497.33,289.1,494.83Z" class="cls-5"/><path data-cppathid="10028" d="M328.22,449.54v11.93h10.86v2.24H328.22v30.55q0,5.43,1.84,7.73a5.88,5.88,0,0,0,4.85,2.31c.74,0,1.39,0,2-.08s1.37-.15,2.37-.29l.41,2a10.65,10.65,0,0,1-2.12.45,23.16,23.16,0,0,1-2.49.13,8.13,8.13,0,0,1-6.76-2.9c-1.54-1.94-2.31-5.05-2.31-9.35V463.71h-8.16v-2.24H326V449.54Z" class="cls-5"/><path data-cppathid="10029" d="M346,482.7q0-9.72,5.37-15.89a18.91,18.91,0,0,1,27.93,0q5.37,6.18,5.37,15.89v1.71q0,9.76-5.37,15.93a18.87,18.87,0,0,1-27.91,0Q346,494.18,346,484.41Zm2.21,1.71a21.78,21.78,0,0,0,4.65,14.11,15.26,15.26,0,0,0,12.54,5.78,15.09,15.09,0,0,0,12.41-5.8,21.8,21.8,0,0,0,4.66-14.09V482.7a21.69,21.69,0,0,0-4.7-14,16.17,16.17,0,0,0-24.91,0,21.83,21.83,0,0,0-4.65,14Z" class="cls-5"/><path data-cppathid="10030" d="M396.82,461.47l.28,8.9a16.61,16.61,0,0,1,5.76-7.17,15.65,15.65,0,0,1,9.07-2.55,14.26,14.26,0,0,1,9.18,2.84q3.56,2.83,4.95,8.8a17.67,17.67,0,0,1,5.77-8.6,15.48,15.48,0,0,1,9.82-3.08q7.32,0,11.11,4.78t3.8,15v25.2h-2.25V480.33q0-9.6-3.43-13.56a11.47,11.47,0,0,0-9.14-4q-6.83,0-10.4,4a19.94,19.94,0,0,0-4.59,10.38c0,.54.05,1.09.08,1.65s0,1.12,0,1.69v25.12h-2.24V483h-.13c0-.52,0-1,0-1.56s.05-1,.11-1.51q-.13-9.39-3.52-13.25a11.51,11.51,0,0,0-9.1-3.86q-6.74,0-10.27,3.9a19.49,19.49,0,0,0-4.59,10.11v28.79H394.9V483h-.08c0-.38,0-.77,0-1.15s0-.86.06-1.43v-19Z" class="cls-5"/><path data-cppathid="10031" d="M498,497.48a17.13,17.13,0,0,1-6.81,6.51,22.35,22.35,0,0,1-11,2.52q-6.17,0-9.68-3.37a12,12,0,0,1-3.51-9.09q0-5.55,5.25-9.31T485.35,481H498v-6.45q0-5.5-3.53-8.59t-9.94-3.09q-6,0-9.66,2.9a9.15,9.15,0,0,0-3.65,7.48l-1.84-.09-.08-.2a10.28,10.28,0,0,1,4-8.72q4.25-3.57,11.23-3.57t11.39,3.59q4.29,3.6,4.29,10.37v22.14a37.25,37.25,0,0,0,.27,4.53,27.48,27.48,0,0,0,.87,4.37h-2.45c-.35-1.93-.59-3.38-.71-4.35a25.39,25.39,0,0,1-.19-3.12Zm-17.8,6.86a20.27,20.27,0,0,0,11.13-2.9,16.77,16.77,0,0,0,6.67-8.29v-9.92H485.47a20.34,20.34,0,0,0-11.58,3.17q-4.71,3.15-4.71,7.81a9.58,9.58,0,0,0,3,7.29A11.1,11.1,0,0,0,480.16,504.34Z" class="cls-5"/><path data-cppathid="10032" d="M533.86,463.06l-2.86-.25a12.82,12.82,0,0,0-9.62,3.82,18.82,18.82,0,0,0-4.8,10.07v28.95h-2.2V461.47h1.8l.4,7.67v1.51a16,16,0,0,1,5.48-7.37,14.85,14.85,0,0,1,8.94-2.63,10.36,10.36,0,0,1,1.73.14c.54.1,1,.2,1.37.31Z" class="cls-5"/><path data-cppathid="10033" d="M577.35,504.3a16.6,16.6,0,0,0,9.88-3.06q4.29-3.06,4.28-9.19h1.88l.08.25a12.07,12.07,0,0,1-4.75,10.35,17.92,17.92,0,0,1-11.37,3.86q-8.46,0-13.26-6.09t-4.79-16V482.7q0-9.88,4.77-16t13.19-6.08a17.38,17.38,0,0,1,11.62,4q4.75,4,4.59,11.33l-.08.25h-1.88q0-6.5-4.16-9.95a15.31,15.31,0,0,0-10.09-3.45q-7.75,0-11.76,5.56t-4,14.29v1.71q0,8.82,4,14.36T577.35,504.3Z" class="cls-5"/><path data-cppathid="10034" d="M601.32,482.7q0-9.72,5.37-15.89a18.91,18.91,0,0,1,27.93,0Q640,473,640,482.7v1.71q0,9.76-5.36,15.93a18.87,18.87,0,0,1-27.91,0q-5.4-6.16-5.39-15.93Zm2.2,1.71a21.73,21.73,0,0,0,4.66,14.11,15.26,15.26,0,0,0,12.53,5.78,15.09,15.09,0,0,0,12.41-5.8,21.75,21.75,0,0,0,4.66-14.09V482.7a21.69,21.69,0,0,0-4.7-14,16.16,16.16,0,0,0-24.9,0,21.78,21.78,0,0,0-4.66,14Z" class="cls-5"/><path data-cppathid="10035" d="M652.44,461.47l.28,8.9a16.31,16.31,0,0,1,5.89-7.17,16.64,16.64,0,0,1,9.43-2.55q7.23,0,10.84,4.55t3.61,14.44v26h-2.2V479.56q0-9.19-3.29-12.95a11.25,11.25,0,0,0-8.92-3.76q-6.95,0-10.62,4a19.66,19.66,0,0,0-4.69,10.41v28.34h-2.21V483h-.12c0-.52,0-1,0-1.58s0-1.06.1-1.61V461.47Z" class="cls-5"/><path data-cppathid="10036" d="M711.32,504.3a16.55,16.55,0,0,0,9.88-3.06q4.29-3.06,4.29-9.19h1.88l.08.25a12.08,12.08,0,0,1-4.76,10.35,17.92,17.92,0,0,1-11.37,3.86q-8.45,0-13.25-6.09t-4.8-16V482.7q0-9.88,4.78-16t13.19-6.08a17.4,17.4,0,0,1,11.62,4q4.75,4,4.59,11.33l-.08.25h-1.88q0-6.5-4.16-9.95a15.31,15.31,0,0,0-10.09-3.45q-7.75,0-11.76,5.56t-4,14.29v1.71q0,8.82,4,14.36T711.32,504.3Z" class="cls-5"/><path data-cppathid="10037" d="M741.5,447.58h-2.21V442h2.21Zm0,58.07h-2.21V461.47h2.21Z" class="cls-5"/><path data-cppathid="10038" d="M771.47,506.51a17,17,0,0,1-13.17-6.05q-5.37-6-5.37-15.23v-2.61q0-9.6,5.33-15.78a16.93,16.93,0,0,1,13.41-6.19q7.35,0,11.72,4.84t4.37,13.21v3.39H755.14v3.14a20.5,20.5,0,0,0,4.57,13.58,14.61,14.61,0,0,0,11.76,5.49,20.26,20.26,0,0,0,7.62-1.47,16.43,16.43,0,0,0,5.94-3.92l1.18,1.72a17.81,17.81,0,0,1-6,4.22A21.2,21.2,0,0,1,771.47,506.51Zm.2-43.66a14.64,14.64,0,0,0-11.25,4.76,19.43,19.43,0,0,0-5,12l.13.24h30v-1.35a16.92,16.92,0,0,0-3.72-11.25A12.57,12.57,0,0,0,771.67,462.85Z" class="cls-5"/><path data-cppathid="10039" d="M800.3,461.47l.28,8.9a16.36,16.36,0,0,1,5.88-7.17,16.7,16.7,0,0,1,9.44-2.55q7.23,0,10.84,4.55t3.61,14.44v26h-2.2V479.56q0-9.19-3.29-12.95a11.25,11.25,0,0,0-8.92-3.76q-6.95,0-10.62,4a19.74,19.74,0,0,0-4.7,10.41v28.34h-2.2V483h-.12c0-.52,0-1,0-1.58s0-1.06.1-1.61V461.47Z" class="cls-5"/><path data-cppathid="10040" d="M859.18,504.3a16.55,16.55,0,0,0,9.88-3.06q4.29-3.06,4.29-9.19h1.88l.08.25a12.08,12.08,0,0,1-4.76,10.35,17.92,17.92,0,0,1-11.37,3.86q-8.45,0-13.25-6.09t-4.8-16V482.7q0-9.88,4.78-16t13.19-6.08a17.42,17.42,0,0,1,11.62,4q4.75,4,4.59,11.33l-.08.25h-1.88q0-6.5-4.16-9.95a15.31,15.31,0,0,0-10.09-3.45q-7.76,0-11.76,5.56t-4,14.29v1.71q0,8.82,4,14.36T859.18,504.3Z" class="cls-5"/><path data-cppathid="10041" d="M889.36,447.58h-2.21V442h2.21Zm0,58.07h-2.21V461.47h2.21Z" class="cls-5"/><path data-cppathid="10042" d="M931.58,497.48a17.22,17.22,0,0,1-6.82,6.51,22.28,22.28,0,0,1-11,2.52q-6.16,0-9.68-3.37a12,12,0,0,1-3.51-9.09q0-5.55,5.24-9.31T919,481h12.62v-6.45a10.81,10.81,0,0,0-3.53-8.59q-3.54-3.09-9.94-3.09-6,0-9.66,2.9a9.13,9.13,0,0,0-3.66,7.48l-1.83-.09-.09-.2a10.29,10.29,0,0,1,4-8.72q4.25-3.57,11.23-3.57t11.39,3.59q4.29,3.6,4.29,10.37v22.14a37.27,37.27,0,0,0,.26,4.53,28.67,28.67,0,0,0,.88,4.37h-2.45c-.36-1.93-.59-3.38-.72-4.35a25.46,25.46,0,0,1-.18-3.12Zm-17.8,6.86a20.21,20.21,0,0,0,11.12-2.9,16.79,16.79,0,0,0,6.68-8.29v-9.92h-12.5a20.28,20.28,0,0,0-11.57,3.17q-4.72,3.15-4.72,7.81a9.58,9.58,0,0,0,3,7.29A11.13,11.13,0,0,0,913.78,504.34Z" class="cls-5"/></g><g class="cls-7"><path data-cppathid="10043" d="M217.05,564q0-9.42,4-15a12.75,12.75,0,0,1,11-5.56,15.07,15.07,0,0,1,8,2.08,15.25,15.25,0,0,1,5.41,5.66V526.69h2v29.83s0,0,0,0v16.17a.26.26,0,0,0,0,.1v11h-1.91l-.07-6.12a14.19,14.19,0,0,1-5.43,5,16.8,16.8,0,0,1-8.06,1.85A12.83,12.83,0,0,1,221,579.29q-3.94-5.35-3.94-14.52Zm2,.77c0,5.48,1.08,9.82,3.24,13.05a10.77,10.77,0,0,0,9.55,4.84,14.88,14.88,0,0,0,8.58-2.33,13.3,13.3,0,0,0,4.95-6.21V555.35a16.65,16.65,0,0,0-4.64-7.06q-3.17-2.84-8.81-2.84a10.67,10.67,0,0,0-9.59,5.15q-3.28,5.16-3.28,13.4Z" class="cls-5"/><path data-cppathid="10044" d="M273.86,584.64A15.19,15.19,0,0,1,262,579.21a19.82,19.82,0,0,1-4.82-13.67V563.2q0-8.62,4.78-14.17a15.25,15.25,0,0,1,12.05-5.56,13.49,13.49,0,0,1,10.52,4.35q3.92,4.33,3.92,11.86v3H259.2v2.82a18.4,18.4,0,0,0,4.11,12.19,13.08,13.08,0,0,0,10.55,4.93,18.18,18.18,0,0,0,6.84-1.32,14.56,14.56,0,0,0,5.33-3.52l1.07,1.54a16,16,0,0,1-5.39,3.79A19,19,0,0,1,273.86,584.64Zm.19-39.19a13.14,13.14,0,0,0-10.1,4.27,17.47,17.47,0,0,0-4.46,10.8l.11.22h26.91v-1.21a15.15,15.15,0,0,0-3.34-10.1A11.27,11.27,0,0,0,274.05,545.45Z" class="cls-5"/><path data-cppathid="10045" d="M318.47,583.87h-2V526.69h2Z" class="cls-5"/><path data-cppathid="10046" d="M356.37,576.54a15.48,15.48,0,0,1-6.12,5.84,20,20,0,0,1-9.86,2.26c-3.69,0-6.58-1-8.69-3a10.76,10.76,0,0,1-3.15-8.15q0-5,4.71-8.36a19.73,19.73,0,0,1,11.79-3.37h11.32v-5.79a9.73,9.73,0,0,0-3.17-7.72c-2.11-1.84-5.09-2.77-8.92-2.77a13.49,13.49,0,0,0-8.67,2.61,8.16,8.16,0,0,0-3.28,6.7l-1.65-.07-.08-.18a9.25,9.25,0,0,1,3.6-7.83q3.81-3.21,10.08-3.21t10.22,3.23q3.86,3.22,3.85,9.31v19.87a33.84,33.84,0,0,0,.24,4.07,25.44,25.44,0,0,0,.79,3.92h-2.2c-.32-1.74-.53-3-.64-3.91a22.17,22.17,0,0,1-.17-2.8Zm-16,6.16a18.21,18.21,0,0,0,10-2.61,15.07,15.07,0,0,0,6-7.44v-8.9H345.16a18.22,18.22,0,0,0-10.4,2.84q-4.23,2.83-4.23,7a8.6,8.6,0,0,0,2.7,6.55A10,10,0,0,0,340.39,582.7Z" class="cls-5"/><path data-cppathid="10047" d="M387.24,564q0-9.42,3.95-15a12.77,12.77,0,0,1,11-5.56,15.07,15.07,0,0,1,8,2.08,15.25,15.25,0,0,1,5.41,5.66V526.69h2v29.83s0,0,0,0v16.17a.26.26,0,0,0,0,.1v11h-1.91l-.07-6.12a14.19,14.19,0,0,1-5.43,5,16.83,16.83,0,0,1-8.06,1.85,12.83,12.83,0,0,1-10.94-5.35q-3.94-5.35-3.94-14.52Zm2.05.77c0,5.48,1.08,9.82,3.24,13.05a10.75,10.75,0,0,0,9.55,4.84,14.88,14.88,0,0,0,8.58-2.33,13.3,13.3,0,0,0,4.95-6.21V555.35a16.74,16.74,0,0,0-4.64-7.06q-3.17-2.84-8.82-2.84a10.67,10.67,0,0,0-9.58,5.15q-3.29,5.16-3.28,13.4Z" class="cls-5"/><path data-cppathid="10048" d="M432.61,531.75h-2v-5.06h2Zm0,52.12h-2V544.21h2Z" class="cls-5"/><path data-cppathid="10049" d="M469.93,574.15a7.79,7.79,0,0,0-2.7-5.73q-2.69-2.58-9.4-4-7.06-1.5-10.24-3.87a8.19,8.19,0,0,1-3.17-7,8.79,8.79,0,0,1,3.59-7.13q3.58-2.88,9.68-2.88,6.56,0,10.33,3.08a9.36,9.36,0,0,1,3.59,8l-.07.22h-1.69a8.34,8.34,0,0,0-3.28-6.62c-2.18-1.82-5.15-2.73-8.88-2.73s-6.53.8-8.43,2.4a7.12,7.12,0,0,0-2.86,5.56,6.88,6.88,0,0,0,2.42,5.31q2.42,2.21,9.6,3.85,6.63,1.54,10.06,4.2a8.84,8.84,0,0,1,3.43,7.42,9.05,9.05,0,0,1-3.81,7.55q-3.83,2.89-10.12,2.9-6.93,0-10.87-3.1a8.59,8.59,0,0,1-3.68-7.53l.07-.22h1.61a7.78,7.78,0,0,0,4,6.78,17.82,17.82,0,0,0,8.83,2.09q5.49,0,8.72-2.57A7.48,7.48,0,0,0,469.93,574.15Z" class="cls-5"/><path data-cppathid="10050" d="M487.08,533.5v10.71h9.75v2h-9.75v27.42q0,4.88,1.65,7a5.31,5.31,0,0,0,4.36,2.07c.66,0,1.25,0,1.76-.08s1.23-.13,2.13-.25l.37,1.79a9.41,9.41,0,0,1-1.91.41,21.37,21.37,0,0,1-2.24.11,7.29,7.29,0,0,1-6.06-2.6q-2.07-2.61-2.07-8.4V546.22h-7.33v-2h7.33V533.5Z" class="cls-5"/><path data-cppathid="10051" d="M531.07,576.54a15.48,15.48,0,0,1-6.12,5.84,20,20,0,0,1-9.86,2.26q-5.54,0-8.69-3a10.76,10.76,0,0,1-3.15-8.15q0-5,4.71-8.36a19.72,19.72,0,0,1,11.78-3.37h11.33v-5.79a9.73,9.73,0,0,0-3.17-7.72c-2.12-1.84-5.09-2.77-8.93-2.77a13.53,13.53,0,0,0-8.67,2.61,8.19,8.19,0,0,0-3.28,6.7l-1.65-.07-.07-.18a9.25,9.25,0,0,1,3.59-7.83q3.81-3.21,10.08-3.21t10.23,3.23q3.84,3.22,3.85,9.31v19.87a33.84,33.84,0,0,0,.24,4.07,25.41,25.41,0,0,0,.78,3.92h-2.2c-.31-1.74-.53-3-.64-3.91a22.25,22.25,0,0,1-.16-2.8Zm-16,6.16a18.21,18.21,0,0,0,10-2.61,15.07,15.07,0,0,0,6-7.44v-8.9H519.85a18.18,18.18,0,0,0-10.39,2.84q-4.23,2.83-4.23,7a8.6,8.6,0,0,0,2.69,6.55A10,10,0,0,0,515.09,582.7Z" class="cls-5"/><path data-cppathid="10052" d="M547.49,544.21l.26,8a14.57,14.57,0,0,1,5.27-6.43,15,15,0,0,1,8.47-2.3q6.5,0,9.73,4.09t3.25,13v23.35h-2V560.45q0-8.25-3-11.62a10.11,10.11,0,0,0-8-3.38q-6.24,0-9.53,3.63a17.7,17.7,0,0,0-4.22,9.35v25.44h-2V563.56h-.11c0-.46,0-.93,0-1.41s0-1,.09-1.45V544.21Z" class="cls-5"/><path data-cppathid="10053" d="M600.35,582.66a14.92,14.92,0,0,0,8.87-2.75q3.84-2.74,3.84-8.25h1.69l.07.22a10.79,10.79,0,0,1-4.27,9.29,16,16,0,0,1-10.2,3.47q-7.59,0-11.9-5.46t-4.31-14.37v-1.54q0-8.88,4.29-14.33a14.24,14.24,0,0,1,11.84-5.47,15.64,15.64,0,0,1,10.43,3.61q4.27,3.61,4.12,10.18l-.07.22h-1.69q0-5.84-3.73-8.93a13.77,13.77,0,0,0-9.06-3.1q-7,0-10.55,5t-3.6,12.83v1.54q0,7.92,3.6,12.88T600.35,582.66Z" class="cls-5"/><path data-cppathid="10054" d="M627.43,531.75h-2v-5.06h2Zm0,52.12h-2V544.21h2Z" class="cls-5"/><path data-cppathid="10055" d="M665.33,576.54a15.42,15.42,0,0,1-6.12,5.84,20,20,0,0,1-9.86,2.26q-5.54,0-8.68-3a10.73,10.73,0,0,1-3.16-8.15q0-5,4.71-8.36A19.73,19.73,0,0,1,654,561.73h11.32v-5.79a9.69,9.69,0,0,0-3.17-7.72c-2.11-1.84-5.09-2.77-8.92-2.77a13.53,13.53,0,0,0-8.67,2.61,8.16,8.16,0,0,0-3.28,6.7l-1.65-.07-.07-.18a9.25,9.25,0,0,1,3.59-7.83q3.81-3.21,10.08-3.21t10.22,3.23q3.85,3.22,3.85,9.31v19.87a33.84,33.84,0,0,0,.24,4.07,25.44,25.44,0,0,0,.79,3.92h-2.2c-.32-1.74-.53-3-.64-3.91a22.17,22.17,0,0,1-.17-2.8Zm-16,6.16a18.17,18.17,0,0,0,10-2.61,15,15,0,0,0,6-7.44v-8.9H654.12a18.16,18.16,0,0,0-10.39,2.84q-4.25,2.83-4.24,7a8.6,8.6,0,0,0,2.7,6.55A10,10,0,0,0,649.35,582.7Z" class="cls-5"/><path data-cppathid="10056" d="M722.92,576.54a15.48,15.48,0,0,1-6.12,5.84,20,20,0,0,1-9.86,2.26q-5.54,0-8.69-3a10.76,10.76,0,0,1-3.15-8.15q0-5,4.71-8.36a19.72,19.72,0,0,1,11.78-3.37h11.33v-5.79a9.73,9.73,0,0,0-3.17-7.72c-2.12-1.84-5.09-2.77-8.93-2.77a13.53,13.53,0,0,0-8.67,2.61,8.19,8.19,0,0,0-3.28,6.7l-1.65-.07-.07-.18a9.25,9.25,0,0,1,3.59-7.83q3.81-3.21,10.08-3.21t10.23,3.23q3.86,3.22,3.85,9.31v19.87a33.84,33.84,0,0,0,.24,4.07,25.41,25.41,0,0,0,.78,3.92h-2.2c-.31-1.74-.53-3-.64-3.91a22.25,22.25,0,0,1-.16-2.8Zm-16,6.16a18.21,18.21,0,0,0,10-2.61,15.07,15.07,0,0,0,6-7.44v-8.9H711.7a18.18,18.18,0,0,0-10.39,2.84q-4.23,2.83-4.23,7a8.6,8.6,0,0,0,2.69,6.55A10,10,0,0,0,706.94,582.7Z" class="cls-5"/><path data-cppathid="10057" d="M758.07,583.87h-2V526.69h2Z" class="cls-5"/><path data-cppathid="10058" d="M796,576.54a15.48,15.48,0,0,1-6.12,5.84,20,20,0,0,1-9.86,2.26q-5.54,0-8.69-3a10.76,10.76,0,0,1-3.15-8.15q0-5,4.71-8.36a19.72,19.72,0,0,1,11.78-3.37H796v-5.79a9.73,9.73,0,0,0-3.17-7.72c-2.11-1.84-5.09-2.77-8.92-2.77a13.49,13.49,0,0,0-8.67,2.61,8.16,8.16,0,0,0-3.28,6.7l-1.65-.07-.08-.18a9.27,9.27,0,0,1,3.59-7.83q3.83-3.21,10.09-3.21t10.22,3.23Q798,549.92,798,556v19.87a33.84,33.84,0,0,0,.24,4.07,25.44,25.44,0,0,0,.79,3.92h-2.2c-.32-1.74-.53-3-.64-3.91a22.17,22.17,0,0,1-.17-2.8Zm-16,6.16a18.21,18.21,0,0,0,10-2.61,15.07,15.07,0,0,0,6-7.44v-8.9H784.75a18.2,18.2,0,0,0-10.39,2.84q-4.23,2.83-4.23,7a8.63,8.63,0,0,0,2.69,6.55A10,10,0,0,0,780,582.7Z" class="cls-5"/><path data-cppathid="10059" d="M826.83,564q0-9.42,4-15a12.77,12.77,0,0,1,11-5.56,14.66,14.66,0,0,1,13.42,7.78l.18-7h1.79v12.31a0,0,0,0,0,0,0v16.17a.34.34,0,0,0,0,.1v26.29h-2V577.78a14.53,14.53,0,0,1-5.47,5,16.72,16.72,0,0,1-8,1.85,12.83,12.83,0,0,1-10.94-5.35q-3.94-5.35-3.95-14.52Zm2.06.77c0,5.48,1.08,9.82,3.24,13.05a10.75,10.75,0,0,0,9.55,4.84,14.93,14.93,0,0,0,8.58-2.33,13.3,13.3,0,0,0,5-6.21V555.35a16.74,16.74,0,0,0-4.64-7.06q-3.17-2.84-8.82-2.84a10.66,10.66,0,0,0-9.58,5.15q-3.28,5.16-3.28,13.4Z" class="cls-5"/><path data-cppathid="10060" d="M896.33,576.9a13.61,13.61,0,0,1-5.31,5.7,16.16,16.16,0,0,1-8.36,2,11.59,11.59,0,0,1-9.59-4.35q-3.45-4.34-3.46-13.47V544.21h2V566.9q0,8.05,3,11.91a9.59,9.59,0,0,0,8,3.85q6,0,9.36-2.95a13.83,13.83,0,0,0,4.31-7.79V544.21h2v23.35h.08a8.84,8.84,0,0,1,0,.91c0,.3,0,.64,0,1v14.37h-1.65Z" class="cls-5"/><path data-cppathid="10061" d="M924.74,584.64a15.19,15.19,0,0,1-11.82-5.43,19.82,19.82,0,0,1-4.82-13.67V563.2q0-8.62,4.78-14.17a15.23,15.23,0,0,1,12-5.56,13.46,13.46,0,0,1,10.52,4.35q3.93,4.33,3.92,11.86v3H910.08v2.82a18.45,18.45,0,0,0,4.1,12.19,13.12,13.12,0,0,0,10.56,4.93,18.18,18.18,0,0,0,6.84-1.32,14.64,14.64,0,0,0,5.33-3.52l1.06,1.54a16,16,0,0,1-5.39,3.79A19,19,0,0,1,924.74,584.64Zm.18-39.19a13.17,13.17,0,0,0-10.1,4.27,17.46,17.46,0,0,0-4.45,10.8l.11.22h26.9v-1.21a15.2,15.2,0,0,0-3.33-10.1A11.29,11.29,0,0,0,924.92,545.45Z" class="cls-5"/></g><g class="cls-7"><path data-cppathid="10062" d="M260.79,668.4H250.05l-21.59-36.12-.22,0V668.4H217.5V614.85h10.74l21.59,36.08.22,0v-36h10.74Z" class="cls-9"/><path data-cppathid="10063" d="M314,646.44q0,9.9-6.21,16.31t-16.18,6.42q-9.93,0-16.11-6.44t-6.18-16.29v-9.63q0-9.82,6.16-16.28t16.05-6.45q10,0,16.22,6.45T314,636.81Zm-10.7-9.71a16.15,16.15,0,0,0-3.13-10.26,10.34,10.34,0,0,0-8.64-4,10,10,0,0,0-8.48,4,16.54,16.54,0,0,0-3,10.26v9.71A16.68,16.68,0,0,0,283,656.81a10.11,10.11,0,0,0,8.54,4,10.23,10.23,0,0,0,8.6-4,16.5,16.5,0,0,0,3.09-10.37Z" class="cls-9"/><path data-cppathid="10064" d="M350.38,654.42a6.23,6.23,0,0,0-2.15-5q-2.14-1.87-7.56-3.53-9.27-2.8-14.06-6.59a12.45,12.45,0,0,1-4.8-10.33,13,13,0,0,1,5.4-10.76q5.42-4.17,13.79-4.17,8.91,0,14.33,4.48a14,14,0,0,1,5.24,11.77l-.07.22H350.09a7.8,7.8,0,0,0-2.43-6.16,9.94,9.94,0,0,0-6.8-2.15,9,9,0,0,0-6.14,1.91,6.23,6.23,0,0,0-2.17,4.89,5.33,5.33,0,0,0,2.35,4.47,31.33,31.33,0,0,0,8.13,3.7q8.82,2.5,13.46,6.53a13.36,13.36,0,0,1,4.63,10.61,12.78,12.78,0,0,1-5.37,10.85q-5.37,4-14.19,4a25.33,25.33,0,0,1-14.84-4.3q-6.21-4.3-6-12.84l.08-.22h10.4c0,3.16.94,5.49,2.8,7a11.8,11.8,0,0,0,7.58,2.24q4.29,0,6.56-1.8A5.84,5.84,0,0,0,350.38,654.42Z" class="cls-9"/><path data-cppathid="10065" d="M418.39,644.86H398.53v15.3h23.61v8.24H387.79V614.85h34.27v8.27H398.53v13.46h19.86Z" class="cls-9"/><path data-cppathid="10066" d="M473,668.4H462.22l-21.58-36.12-.22,0V668.4H429.68V614.85h10.74L462,650.93l.22,0v-36H473Z" class="cls-9"/><path data-cppathid="10067" d="M523,650.67l.07.22q.15,8.57-5.22,13.43T503,669.17q-9.63,0-15.56-6.2t-5.92-16V636.33q0-9.78,5.78-16t15.15-6.23q9.78,0,15.3,4.78t5.37,13.46l-.08.22H512.61q0-5.14-2.48-7.67c-1.66-1.68-4.21-2.52-7.67-2.52a8.67,8.67,0,0,0-7.52,3.88,17.19,17.19,0,0,0-2.71,10V647A16.64,16.64,0,0,0,495.09,657a9.25,9.25,0,0,0,7.92,3.9q4.82,0,7.19-2.52t2.37-7.74Z" class="cls-9"/><path data-cppathid="10068" d="M574.07,646.44q0,9.9-6.22,16.31t-16.18,6.42q-9.93,0-16.11-6.44t-6.18-16.29v-9.63q0-9.82,6.16-16.28t16.05-6.45q10,0,16.22,6.45a22.45,22.45,0,0,1,6.26,16.28Zm-10.71-9.71a16.2,16.2,0,0,0-3.12-10.26,10.38,10.38,0,0,0-8.65-4,10,10,0,0,0-8.47,4,16.48,16.48,0,0,0-3,10.26v9.71q0,6.36,3.06,10.37a10.07,10.07,0,0,0,8.53,4,10.22,10.22,0,0,0,8.6-4,16.5,16.5,0,0,0,3.09-10.37Z" class="cls-9"/><path data-cppathid="10069" d="M625.85,668.4H615.11l-21.59-36.12-.22,0V668.4H582.56V614.85H593.3l21.59,36.08.22,0v-36h10.74Z" class="cls-9"/><path data-cppathid="10070" d="M672,623.12h-15.3V668.4H645.93V623.12H630.85v-8.27H672Z" class="cls-9"/><path data-cppathid="10071" d="M688.59,647V668.4H677.85V614.85h18.54q9.15,0,14.32,4.17t5.17,11.64a11.74,11.74,0,0,1-2.19,7.12,15.24,15.24,0,0,1-6.38,4.84,11.51,11.51,0,0,1,6.82,4.67,14.76,14.76,0,0,1,2.08,8.09v3.93a19.18,19.18,0,0,0,.61,4.69,6.41,6.41,0,0,0,2.08,3.62v.78H707.83a6,6,0,0,1-1.9-3.9,34.57,34.57,0,0,1-.42-5.26v-3.79a8.5,8.5,0,0,0-2.19-6.23,8.27,8.27,0,0,0-6.2-2.23Zm0-8.27h7.62q4.51,0,6.73-1.91a7.11,7.11,0,0,0,2.2-5.67,7.82,7.82,0,0,0-2.22-5.85c-1.49-1.44-3.66-2.17-6.53-2.17h-7.8Z" class="cls-9"/><path data-cppathid="10072" d="M753.76,656.85H736.4l-3.6,11.55H721.58l18.06-53.55h11l18,53.55H757.4Zm-14.71-8.42h12.1l-5.92-18.87H745Z" class="cls-9"/><path data-cppathid="10073" d="M801.46,654.31h.22l13.76-39.46h14V668.4H818.71V631.84l-.22,0-13.24,36.6H798l-13.24-36.67-.22,0V668.4H773.77V614.85h14.09Z" class="cls-9"/><path data-cppathid="10074" d="M882.63,646.44q0,9.9-6.21,16.31t-16.19,6.42q-9.91,0-16.1-6.44T838,646.44v-9.63q0-9.82,6.16-16.28t16-6.45q10,0,16.22,6.45t6.25,16.28Zm-10.7-9.71a16.15,16.15,0,0,0-3.13-10.26,10.34,10.34,0,0,0-8.64-4,10,10,0,0,0-8.48,4,16.54,16.54,0,0,0-3,10.26v9.71a16.68,16.68,0,0,0,3.05,10.37,10.1,10.1,0,0,0,8.53,4,10.24,10.24,0,0,0,8.61-4,16.5,16.5,0,0,0,3.09-10.37Z" class="cls-9"/><path data-cppathid="10075" d="M919,654.42a6.23,6.23,0,0,0-2.15-5q-2.14-1.87-7.56-3.53-9.27-2.8-14.06-6.59a12.45,12.45,0,0,1-4.8-10.33,13,13,0,0,1,5.4-10.76q5.42-4.17,13.79-4.17,8.91,0,14.33,4.48a14,14,0,0,1,5.24,11.77l-.07.22H918.75a7.8,7.8,0,0,0-2.43-6.16,9.94,9.94,0,0,0-6.8-2.15,9,9,0,0,0-6.14,1.91,6.23,6.23,0,0,0-2.17,4.89,5.33,5.33,0,0,0,2.35,4.47,31.33,31.33,0,0,0,8.13,3.7q8.82,2.5,13.46,6.53a13.36,13.36,0,0,1,4.63,10.61,12.78,12.78,0,0,1-5.37,10.85q-5.37,4-14.19,4a25.33,25.33,0,0,1-14.84-4.3q-6.21-4.3-6-12.84l.08-.22h10.4c0,3.16.94,5.49,2.8,7a11.8,11.8,0,0,0,7.58,2.24q4.29,0,6.56-1.8A5.84,5.84,0,0,0,919,654.42Z" class="cls-9"/></g><g class="cls-7"><path data-cppathid="10076" d="M217.65,750.41V695.25H236.9q10.11,0,16.67,6.46t6.55,16.57v9.13q0,10.15-6.55,16.58t-16.67,6.42Zm11.07-46.64v38.15h8.18a10.81,10.81,0,0,0,8.79-4.07A16,16,0,0,0,249,727.41V718.2a15.84,15.84,0,0,0-3.33-10.38,10.82,10.82,0,0,0-8.79-4.05Z" class="cls-5"/><path data-cppathid="10077" d="M300.51,726.16H280.05v15.76h24.33v8.49H269V695.25H304.3v8.52H280.05v13.87h20.46Z" class="cls-5"/><path data-cppathid="10078" d="M376.06,750.41H365L342.75,713.2l-.22,0v37.17H331.46V695.25h11.07l22.24,37.16.22,0V695.25h11.07Z" class="cls-5"/><path data-cppathid="10079" d="M429.93,695.25v36.1q0,9.31-6.17,14.59t-16,5.26q-9.81,0-15.93-5.26t-6.12-14.59v-36.1h11.1v36.1q0,5.53,3,8.45a10.85,10.85,0,0,0,8,2.92,11.11,11.11,0,0,0,8.11-2.92q3-2.91,3-8.45v-36.1Z" class="cls-5"/><path data-cppathid="10080" d="M471,726.16H450.58v15.76H474.9v8.49H439.52V695.25h35.31v8.52H450.58v13.87H471Z" class="cls-5"/><path data-cppathid="10081" d="M511.43,736a6.43,6.43,0,0,0-2.22-5.11c-1.48-1.29-4.07-2.5-7.79-3.64q-9.54-2.88-14.49-6.78A12.85,12.85,0,0,1,482,709.83a13.4,13.4,0,0,1,5.57-11.08q5.56-4.31,14.21-4.3,9.17,0,14.75,4.62a14.44,14.44,0,0,1,5.4,12.13l-.07.22H511.12a8,8,0,0,0-2.5-6.34q-2.49-2.22-7-2.22a9.27,9.27,0,0,0-6.32,2,6.41,6.41,0,0,0-2.24,5,5.49,5.49,0,0,0,2.43,4.6,32.25,32.25,0,0,0,8.37,3.81q9.09,2.58,13.87,6.72a13.79,13.79,0,0,1,4.77,10.94A13.14,13.14,0,0,1,517,747.11q-5.54,4.1-14.63,4.09a26.07,26.07,0,0,1-15.28-4.43q-6.39-4.42-6.2-13.22l.08-.23h10.72q0,4.89,2.88,7.2a12.12,12.12,0,0,0,7.8,2.31c3,0,5.21-.62,6.77-1.86A6,6,0,0,0,511.43,736Z" class="cls-5"/><path data-cppathid="10082" d="M569.09,703.77H553.33v46.64H542.27V703.77H526.73v-8.52h42.36Z" class="cls-5"/><path data-cppathid="10083" d="M586.21,728.36v22H575.15V695.25h19.1q9.43,0,14.75,4.29t5.33,12a12,12,0,0,1-2.26,7.33,15.63,15.63,0,0,1-6.57,5,11.87,11.87,0,0,1,7,4.81,15.34,15.34,0,0,1,2.14,8.34v4a20.38,20.38,0,0,0,.62,4.83,6.66,6.66,0,0,0,2.14,3.73v.8H606a6.14,6.14,0,0,1-1.95-4,35.32,35.32,0,0,1-.44-5.42v-3.9a8.78,8.78,0,0,0-2.25-6.42,8.54,8.54,0,0,0-6.39-2.29Zm0-8.53h7.85c3.1,0,5.41-.65,6.93-2a7.27,7.27,0,0,0,2.27-5.83,8,8,0,0,0-2.29-6q-2.29-2.24-6.72-2.23h-8Z" class="cls-5"/><path data-cppathid="10084" d="M653.35,738.51H635.47l-3.72,11.9H620.2l18.6-55.16h11.33l18.53,55.16H657.1Zm-15.15-8.67h12.46l-6.1-19.44h-.23Z" class="cls-5"/><path data-cppathid="10085" d="M712.07,735.44l.69,3H713l.65-2.91,12-40.31h11.67l-18.76,55.16H707.19l-18.72-55.16h11.67Z" class="cls-5"/><path data-cppathid="10086" d="M754.47,750.41H743.41V695.25h11.06Z" class="cls-5"/><path data-cppathid="10087" d="M794.18,736A6.43,6.43,0,0,0,792,730.9c-1.48-1.29-4.07-2.5-7.79-3.64q-9.54-2.88-14.49-6.78a12.82,12.82,0,0,1-4.94-10.65,13.37,13.37,0,0,1,5.57-11.08q5.57-4.31,14.2-4.3,9.18,0,14.76,4.62a14.44,14.44,0,0,1,5.4,12.13l-.08.22H793.87a8,8,0,0,0-2.5-6.34q-2.49-2.22-7-2.22a9.25,9.25,0,0,0-6.32,2,6.38,6.38,0,0,0-2.24,5,5.51,5.51,0,0,0,2.42,4.6,32.52,32.52,0,0,0,8.38,3.81q9.09,2.58,13.86,6.72a13.77,13.77,0,0,1,4.78,10.94,13.17,13.17,0,0,1-5.53,11.17q-5.54,4.1-14.63,4.09a26.12,26.12,0,0,1-15.29-4.43q-6.37-4.42-6.19-13.22l.08-.23H774.4q0,4.89,2.88,7.2a12.12,12.12,0,0,0,7.8,2.31c3,0,5.21-.62,6.77-1.86A6,6,0,0,0,794.18,736Z" class="cls-5"/><path data-cppathid="10088" d="M825.21,750.41H814.14V695.25h11.07Z" class="cls-5"/><path data-cppathid="10089" d="M880.78,727.79q0,10.19-6.4,16.8t-16.67,6.61q-10.23,0-16.59-6.63t-6.37-16.78v-9.93q0-10.11,6.35-16.76t16.53-6.65q10.27,0,16.71,6.65t6.44,16.76Zm-11-10a16.64,16.64,0,0,0-3.22-10.57,10.66,10.66,0,0,0-8.91-4.13,10.32,10.32,0,0,0-8.73,4.13,17,17,0,0,0-3.12,10.57v10q0,6.56,3.14,10.68a10.41,10.41,0,0,0,8.79,4.13,10.55,10.55,0,0,0,8.87-4.13q3.18-4.12,3.18-10.68ZM860,678.92H872.3l.07.22L861.88,689h-9.43Z" class="cls-5"/><path data-cppathid="10090" d="M934.13,750.41H923.07L900.83,713.2l-.23,0v37.17H889.54V695.25H900.6l22.24,37.16.23,0V695.25h11.06Z" class="cls-5"/></g></svg>