<?xml version="1.0" encoding="UTF-8"?>
<svg xmlns="http://www.w3.org/2000/svg" onmouseup="{ if(window.parent.document.onmouseup) window.parent.document.onmouseup(arguments[0]);}" viewBox="0 0 934 918" xmlns:xlink="http://www.w3.org/1999/xlink"><defs><filter color-interpolation-filters="sRGB" filterUnits="userSpaceOnUse" height="792.74" width="792.74" y="62.63" x="70.63" id="luminosity-invert-noclip"><feColorMatrix result="invert" values="-1 0 0 0 1 0 -1 0 0 1 0 0 -1 0 1 0 0 0 1 0"/><feFlood result="bg" flood-color="#fff"/><feBlend in2="bg" in="invert"/></filter><mask maskUnits="userSpaceOnUse" height="792.74" width="792.74" y="62.63" x="70.63" id="mask"><circle data-cppathid="10000" filter="url(#luminosity-invert-noclip)" fill="#fff" r="149.69" cy="455.84" cx="466.62"/></mask><linearGradient gradientUnits="userSpaceOnUse" gradientTransform="translate(8.83 -6.25) rotate(1.65)" y2="571.86" x2="420.9" y1="350.31" x1="417.93" id="Degradado_sin_nombre_3"><stop stop-color="#008f92" offset="0"/><stop stop-color="#004057" offset="0.56"/><stop offset="1"/></linearGradient><linearGradient xlink:href="#Degradado_sin_nombre_3" gradientTransform="matrix(-1, 0.03, 0.03, 1, 434.99, -6.25)" y2="585.97" x2="-69.07" y1="364.43" x1="-72.04" id="Degradado_sin_nombre_3-2"/></defs><g style="isolation:isolate"><g id="fondo"><rect data-cppathid="10001" fill="#333e48" height="918" width="934"/></g><g id="activo_01"><g mask="url(#mask)"><path data-cppathid="10002" fill="#0099a8" d="M466.45,560.29h0a100.86,100.86,0,0,1-55.3-16.52l-168.68,242a395.25,395.25,0,0,0,447.88,0l-168.68-242a100.62,100.62,0,0,1-55.22,16.52"/><path data-cppathid="10003" fill="#0099a8" d="M365.37,462H70.63c1.06,132,66.5,248.58,166.63,319.9L405.93,540a101.21,101.21,0,0,1-40.56-78"/><path data-cppathid="10004" fill="#0099a8" d="M466.45,357.71a100.62,100.62,0,0,1,55.22,16.52l168.68-242a394.88,394.88,0,0,0-447.88,0l168.68,242a100.86,100.86,0,0,1,55.3-16.52"/><path data-cppathid="10005" fill="#0099a8" d="M568.7,456H863.37c-1.06-132-66.49-248.58-166.59-319.9L528.07,377.9A101.07,101.07,0,0,1,568.7,456"/><path data-cppathid="10006" fill="#f7a800" d="M405.93,377.9,237.26,136.1C137.13,207.42,71.69,324,70.63,456H365.37a101.24,101.24,0,0,1,40.56-78.1"/><path data-cppathid="10007" fill="#0099a8" d="M554.85,576.85l141.93,205C796.88,710.58,862.31,594,863.37,462l-247.64-.94c1.16,33.07-19.44,86.74-60.88,115.79"/></g><rect data-cppathid="10008" stroke-width="3" stroke-miterlimit="10" stroke="#fff" fill="#f7a800" rx="8.88" height="97.92" width="75.35" y="283.85" x="167.19"/><path data-cppathid="10009" fill="#fff" d="M183.23,318.09H179V300.47h-4.41V297.2l8.68-.77Z"/><path data-cppathid="10010" fill="#fff" d="M204.62,310.36a8.41,8.41,0,0,1-2,5.9,7.5,7.5,0,0,1-10.49,0,8.37,8.37,0,0,1-2-5.9v-5.88a8.37,8.37,0,0,1,2-5.89,7.44,7.44,0,0,1,10.48,0,8.34,8.34,0,0,1,2,5.89ZM200.35,304a5.53,5.53,0,0,0-.78-3.18,2.67,2.67,0,0,0-4.36,0,5.62,5.62,0,0,0-.77,3.18v6.73a5.61,5.61,0,0,0,.78,3.22,2.51,2.51,0,0,0,2.2,1.12,2.46,2.46,0,0,0,2.16-1.12,5.61,5.61,0,0,0,.77-3.22Z"/><path data-cppathid="10011" fill="#fff" d="M221.85,310.36a8.41,8.41,0,0,1-2,5.9,7.5,7.5,0,0,1-10.49,0,8.37,8.37,0,0,1-2-5.9v-5.88a8.37,8.37,0,0,1,2-5.89,7.44,7.44,0,0,1,10.48,0,8.34,8.34,0,0,1,2,5.89ZM217.58,304a5.53,5.53,0,0,0-.78-3.18,2.67,2.67,0,0,0-4.36,0,5.62,5.62,0,0,0-.77,3.18v6.73a5.61,5.61,0,0,0,.78,3.22,2.51,2.51,0,0,0,2.2,1.12,2.46,2.46,0,0,0,2.16-1.12,5.69,5.69,0,0,0,.77-3.22Z"/><path data-cppathid="10012" fill="#fff" d="M234.91,318.09h-4.26V300.47h-4.42V297.2l8.68-.77Z"/><path data-cppathid="10013" fill="#fff" d="M187.39,336.9a8.37,8.37,0,0,1-2,5.89,7.5,7.5,0,0,1-10.49,0,8.33,8.33,0,0,1-2-5.89V331a8.45,8.45,0,0,1,2-5.9,7.46,7.46,0,0,1,10.48,0,8.36,8.36,0,0,1,2,5.9Zm-4.27-6.32a5.53,5.53,0,0,0-.78-3.18,2.49,2.49,0,0,0-2.18-1.13A2.45,2.45,0,0,0,178,327.4a5.54,5.54,0,0,0-.77,3.18v6.73a5.61,5.61,0,0,0,.77,3.22,2.54,2.54,0,0,0,2.2,1.12,2.51,2.51,0,0,0,2.17-1.12,5.7,5.7,0,0,0,.76-3.22Z"/><path data-cppathid="10014" fill="#fff" d="M200.46,344.63h-4.27V327h-4.41v-3.27l8.68-.76Z"/><path data-cppathid="10015" fill="#fff" d="M221.85,336.9a8.37,8.37,0,0,1-2,5.89,7.5,7.5,0,0,1-10.49,0,8.33,8.33,0,0,1-2-5.89V331a8.4,8.4,0,0,1,2-5.9,7.46,7.46,0,0,1,10.48,0,8.36,8.36,0,0,1,2,5.9Zm-4.27-6.32a5.53,5.53,0,0,0-.78-3.18,2.67,2.67,0,0,0-4.36,0,5.62,5.62,0,0,0-.77,3.18v6.73a5.61,5.61,0,0,0,.78,3.22,2.54,2.54,0,0,0,2.2,1.12,2.48,2.48,0,0,0,2.16-1.12,5.69,5.69,0,0,0,.77-3.22Z"/><path data-cppathid="10016" fill="#fff" d="M234.91,344.63h-4.26V327h-4.42v-3.27l8.68-.76Z"/><path data-cppathid="10017" fill="#fff" d="M183.23,371.16H179V353.54h-4.41v-3.27l8.68-.76Z"/><path data-cppathid="10018" fill="#fff" d="M204.62,363.44a8.39,8.39,0,0,1-2,5.89,7.5,7.5,0,0,1-10.49,0,8.34,8.34,0,0,1-2-5.89v-5.88a8.38,8.38,0,0,1,2-5.9,7.46,7.46,0,0,1,10.48,0,8.35,8.35,0,0,1,2,5.9Zm-4.27-6.32a5.59,5.59,0,0,0-.78-3.19,2.68,2.68,0,0,0-4.36,0,5.68,5.68,0,0,0-.77,3.19v6.73a5.57,5.57,0,0,0,.78,3.21,2.52,2.52,0,0,0,2.2,1.13,2.47,2.47,0,0,0,2.16-1.13,5.58,5.58,0,0,0,.77-3.21Z"/><path data-cppathid="10019" fill="#fff" d="M217.68,371.16h-4.26V353.54H209v-3.27l8.68-.76Z"/><path data-cppathid="10020" fill="#fff" d="M234.91,371.16h-4.26V353.54h-4.42v-3.27l8.68-.76Z"/><polygon data-cppathid="10021" stroke-width="3" stroke-linejoin="round" stroke-linecap="round" stroke="#fff" fill="#f7a800" points="266.07 376 255.72 371.86 251.22 382.05 240.59 355.19 247.14 355.71 249.91 352.35 255.41 348.86 266.07 376"/><polygon data-cppathid="10022" stroke-width="3" stroke-linejoin="round" stroke-linecap="round" stroke="#fff" fill="#f7a800" points="209.44 377.86 219.49 373.05 224.65 382.92 234.55 354.42 227.99 357.38 219.07 349.62 209.44 377.86"/><path data-cppathid="10023" fill="#f7a800" d="M238.21,290.8h0a5.88,5.88,0,0,1,9.35,2.18h0a5.85,5.85,0,0,0,6.62,3.54h0a5.87,5.87,0,0,1,7,6.56h0a5.85,5.85,0,0,0,4,6.38h0a5.86,5.86,0,0,1,2.79,9.18h0a5.86,5.86,0,0,0,.25,7.51h0a5.87,5.87,0,0,1-2.18,9.34h0a5.86,5.86,0,0,0-3.54,6.63h0a5.87,5.87,0,0,1-6.56,7h0a5.87,5.87,0,0,0-6.38,4h0a5.87,5.87,0,0,1-9.18,2.79h0a5.86,5.86,0,0,0-7.51.24h0A5.86,5.86,0,0,1,223.5,354h0a5.88,5.88,0,0,0-6.63-3.55h0a5.85,5.85,0,0,1-7-6.55h0a5.86,5.86,0,0,0-4-6.38h0a5.87,5.87,0,0,1-2.79-9.18h0a5.88,5.88,0,0,0-.25-7.52h0a5.87,5.87,0,0,1,2.18-9.34h0a5.85,5.85,0,0,0,3.54-6.63h0a5.87,5.87,0,0,1,6.56-7h0a5.85,5.85,0,0,0,6.38-4h0a5.87,5.87,0,0,1,9.18-2.78h0A5.86,5.86,0,0,0,238.21,290.8Z"/><path data-cppathid="10024" fill="#fff" d="M239.27,291.86a4.43,4.43,0,0,1,6.79,1.43,8.57,8.57,0,0,0,3.11,3.78,7.45,7.45,0,0,0,5.05,1c3.28-.49,5.77,1.69,5.47,5.05a7.42,7.42,0,0,0,4.56,7.63c.23.09.48.14.71.22.56.22-.26-.13.18.13a7.06,7.06,0,0,1,1,.62,4.39,4.39,0,0,1,1.27,1.77,4.53,4.53,0,0,1-.75,4.43l1.3-.74c-2.06.07-2.79,3.72-2.74,5.3a7.7,7.7,0,0,0,.79,3.12c.4.82,1.14,2.13,2.2,2.09l-1.06-.44a4.42,4.42,0,0,1,.73,4.48c-.7,1.76-2.26,2.16-3.58,3a7.49,7.49,0,0,0-3.31,4.88c-.33,1.88.56,3.64-.22,5.45a4.44,4.44,0,0,1-4.14,2.65c-2.07,0-3.84-.08-5.65,1.16a7.57,7.57,0,0,0-2,2,24.07,24.07,0,0,0-1.23,2.56,4.38,4.38,0,0,1-3.86,2.26c-2.14,0-3.54-1.88-5.59-2.31a7.62,7.62,0,0,0-6.55,1.75l1.06-.44c-.75,0-1.19.61-1.8.95a4.17,4.17,0,0,1-2.13.54,4.41,4.41,0,0,1-3.45-1.7,21.89,21.89,0,0,1-1.08-2,7.41,7.41,0,0,0-6.79-3.58c-1.67.12-3.06.46-4.52-.63a4.47,4.47,0,0,1-1.74-4,8.16,8.16,0,0,0-.83-4.73c-.69-1.25-2.2-3-3.69-3.26-.66-.11.6.31,0,.08-.24-.09-.52-.25-.76-.36a4.81,4.81,0,0,1-1-.58,4.39,4.39,0,0,1-.63-6.31l-1.3.75c2.06-.07,2.79-3.73,2.74-5.3a7.66,7.66,0,0,0-.79-3.12c-.4-.82-1.14-2.13-2.2-2.1l1.07.44a4.38,4.38,0,0,1,.74-6.38c.17-.12.39-.2.54-.33s.82-.66-.17-.07c.43-.26,1.1-.32,1.57-.61a7.4,7.4,0,0,0,3.47-5c.33-1.88-.56-3.64.22-5.46a4.43,4.43,0,0,1,4.14-2.64c2.13,0,4,.06,5.78-1.26a7.88,7.88,0,0,0,2-2.14c.53-.85.71-1.86,1.28-2.68a4.45,4.45,0,0,1,4.07-1.85,8.73,8.73,0,0,1,2.54,1.1l.18.08c.48,0,.54.06.17.05s-.31,0,.08.21c.15.09.31.17.47.25a8.27,8.27,0,0,0,1.53.57,7.58,7.58,0,0,0,6.72-1.72c1.49-1.24-.65-3.35-2.12-2.12a4.41,4.41,0,0,1-2.82,1.05c-1.3,0-2.12-.67-3.23-1.19l-.4-.05h.5a3.4,3.4,0,0,0-.69-.41,7.5,7.5,0,0,0-1.35-.55,7.42,7.42,0,0,0-7.95,2.65c-1.25,1.66-1.38,3.82-3.5,4.75a5.8,5.8,0,0,1-2.92.26,7.4,7.4,0,0,0-7.49,5.14,7.21,7.21,0,0,0-.28,3.06,6.12,6.12,0,0,1-.1,3.11,5.59,5.59,0,0,1-2,2.25s-.87.58.1.11c-.17.08-.55.13-.76.21a6,6,0,0,0-1.52.9,7.45,7.45,0,0,0-2.88,5.67,7.35,7.35,0,0,0,.67,3.23c.4.89,1.18,2.37,2.31,2.33l-1.06-.43a4.49,4.49,0,0,1,0,5.69l1.29-.74c-1.76,0-2.54,2.92-2.69,4.32a7.35,7.35,0,0,0,3,6.78,5.85,5.85,0,0,0,1.08.63,3.75,3.75,0,0,0,.65.28c-.41-.31-.47-.37-.2-.16a1,1,0,0,0,.51.27,4.52,4.52,0,0,1,2.92,4.24c0,1.92-.11,3.59.94,5.31a7.47,7.47,0,0,0,4.42,3.32c1.91.51,3.84-.39,5.68.23,2.13.73,2.42,2.64,3.64,4.22a7.45,7.45,0,0,0,10.8.95l-1.06.44c.94,0,1.66-1,2.56-1.27a4.41,4.41,0,0,1,3.27.23c.93.46,1.67,1.16,2.65,1.54a7.15,7.15,0,0,0,3,.49,7.48,7.48,0,0,0,5.17-2.54c1.37-1.61,1.51-3.93,3.51-5s4.09-.09,6.1-.81a7.46,7.46,0,0,0,4.44-4.29,7.09,7.09,0,0,0,.5-3,10,10,0,0,1-.14-3c.51-2.46,2.6-2.86,4.2-4a7.44,7.44,0,0,0,3-5.63,7.29,7.29,0,0,0-.67-3.38c-.4-.89-1.18-2.38-2.31-2.34l1.06.44a4.49,4.49,0,0,1,0-5.69l-1.29.74c1.76-.06,2.54-2.92,2.69-4.33a7.31,7.31,0,0,0-1.25-4.95,7.59,7.59,0,0,0-1.79-1.83,13,13,0,0,0-2.38-1.1,4.6,4.6,0,0,1-2.57-4.33,8.38,8.38,0,0,0-.95-5.13,7.52,7.52,0,0,0-4.42-3.33c-2-.52-4,.43-5.85-.28-2-.78-2.35-2.77-3.59-4.32a7.45,7.45,0,0,0-10.68-.8C235.68,291,237.81,293.1,239.27,291.86Z"/><circle data-cppathid="10025" stroke-width="3" stroke-miterlimit="10" stroke="#fff" fill="none" r="25.97" cy="323.46" cx="235.53"/><path data-cppathid="10026" fill="#fff" d="M249.78,319l-17.9,16.31a3.31,3.31,0,0,1-4.43,0l-5.73-5.2a3.29,3.29,0,1,1,4.42-4.87l3.52,3.19,15.69-14.3a3.29,3.29,0,0,1,4.43,4.86Z"/><circle data-cppathid="10027" stroke-width="3" stroke-miterlimit="10" stroke="#fff" fill="#0099a8" r="38.29" cy="307.36" cx="469.68"/><path data-cppathid="10028" fill="#fff" d="M480.92,323.48H459.35v-3.22l10.91-13a32.61,32.61,0,0,0,3.95-5.62,9.38,9.38,0,0,0,1-4.21,5.62,5.62,0,0,0-1.41-3.95,5,5,0,0,0-3.89-1.54,5.82,5.82,0,0,0-4.69,1.89,7,7,0,0,0-1.61,4.7h-4.53l-.05-.14a9.39,9.39,0,0,1,2.84-7.2,10.9,10.9,0,0,1,8-2.95,10.09,10.09,0,0,1,7.32,2.58,8.82,8.82,0,0,1,2.68,6.66,10.63,10.63,0,0,1-1.52,5.37,59.64,59.64,0,0,1-4.62,6.58l-8.75,10.26.05.12h15.81Z"/><circle data-cppathid="10029" stroke-width="3" stroke-miterlimit="10" stroke="#fff" fill="#0099a8" r="38.29" cy="389.07" cx="326.95"/><path data-cppathid="10030" fill="#fff" d="M331.56,405.71h-4.72v-30.4l-7.57.07v-3.63l12.29-1.29Z"/><circle data-cppathid="10031" stroke-width="3" stroke-miterlimit="10" stroke="#fff" fill="#0099a8" r="38.29" cy="388.73" cx="596.75"/><path data-cppathid="10032" fill="#fff" d="M595.26,385.61c2.09,0,3.58-.52,4.45-1.57a6.68,6.68,0,0,0,1.3-4.37,6.21,6.21,0,0,0-1.42-4.24,5.34,5.34,0,0,0-4.22-1.61,6.27,6.27,0,0,0-4.49,1.68,5.55,5.55,0,0,0-1.78,4.21h-4.49l-.07-.14a8.31,8.31,0,0,1,3-6.68,11.31,11.31,0,0,1,7.87-2.77,11,11,0,0,1,7.59,2.45q2.74,2.44,2.75,7.19a8.13,8.13,0,0,1-1.28,4.44,8.59,8.59,0,0,1-3.57,3.13,8.25,8.25,0,0,1,4,3.18,9.4,9.4,0,0,1,1.37,5.17,9.55,9.55,0,0,1-3,7.48,11.31,11.31,0,0,1-7.84,2.71,12.43,12.43,0,0,1-7.81-2.62,8,8,0,0,1-3.26-6.91l.05-.14h4.49a5.61,5.61,0,0,0,1.82,4.26,6.59,6.59,0,0,0,4.71,1.73,5.82,5.82,0,0,0,4.51-1.78,6.54,6.54,0,0,0,1.65-4.64,6.89,6.89,0,0,0-1.52-4.89c-1-1.08-2.59-1.62-4.75-1.62h-3.87v-3.65Z"/><circle data-cppathid="10033" stroke-width="3" stroke-miterlimit="10" stroke="#fff" fill="#0099a8" r="38.29" cy="529.86" cx="596.94"/><path data-cppathid="10034" fill="#fff" d="M602.94,535.7h4.79v3.67h-4.79v8h-4.68v-8H583.35v-2.64L598,512.65h5Zm-14.56,0h9.88V519.4l-.14,0-.45,1.19Z"/><circle data-cppathid="10035" stroke-width="3" stroke-miterlimit="10" stroke="#fff" fill="#0099a8" r="38.29" cy="528.12" cx="331.02"/><path data-cppathid="10036" fill="#fff" d="M333.93,510.4a20.47,20.47,0,0,1,4.06.4,14.26,14.26,0,0,1,3.31,1l-1,3.6a17.49,17.49,0,0,0-2.86-1,15.12,15.12,0,0,0-3.51-.37,6.3,6.3,0,0,0-5.31,2.8,11.64,11.64,0,0,0-2,7.06v2.7a10.7,10.7,0,0,1,3.45-2.3,11.1,11.1,0,0,1,4.28-.83,8.91,8.91,0,0,1,7.1,3,11.59,11.59,0,0,1,2.61,7.89A12.1,12.1,0,0,1,341.1,543a10.16,10.16,0,0,1-7.88,3.19,10.34,10.34,0,0,1-8.07-3.66q-3.24-3.66-3.24-10v-8a14.78,14.78,0,0,1,3.47-10.09A10.88,10.88,0,0,1,333.93,510.4ZM332.81,527A7.32,7.32,0,0,0,329,528a6.42,6.42,0,0,0-2.42,2.54v2.41a11.41,11.41,0,0,0,1.92,7,5.71,5.71,0,0,0,4.72,2.56,5.22,5.22,0,0,0,4.52-2.23,9.76,9.76,0,0,0,1.58-5.81,8,8,0,0,0-1.7-5.39A6,6,0,0,0,332.81,527Z"/><circle data-cppathid="10037" stroke-width="3" stroke-miterlimit="10" stroke="#fff" fill="#0099a8" r="38.29" cy="604.71" cx="461.56"/><path data-cppathid="10038" fill="#fff" d="M453.56,607l2-19.31H473v4.18H459.52l-1.12,10a10.88,10.88,0,0,1,2.48-1.38,9,9,0,0,1,3.11-.56,9.48,9.48,0,0,1,7.55,3q2.73,3.08,2.73,8.41a12.25,12.25,0,0,1-2.8,8.4q-2.81,3.18-8.18,3.18a11.25,11.25,0,0,1-7.35-2.41q-2.93-2.41-2.81-7.09l.05-.14h4.24a5.8,5.8,0,0,0,1.64,4.4,5.88,5.88,0,0,0,4.23,1.56,5.55,5.55,0,0,0,4.63-2.1,9.08,9.08,0,0,0,1.65-5.75,8.26,8.26,0,0,0-1.66-5.37,5.6,5.6,0,0,0-4.62-2,7.47,7.47,0,0,0-4,.83,4.9,4.9,0,0,0-1.83,2.58Z"/><path data-cppathid="10039" fill-rule="evenodd" fill="#fff" d="M238.5,654.47a21.94,21.94,0,0,1-4.26-.44c-5-1-11.26-3.63-18.48-7.88a1.85,1.85,0,0,1,1.88-3.19c6.86,4,12.68,6.54,17.31,7.44,3.53.68,6.32.43,8.28-.77,3.82-2.31,3.72-7.8,3.66-8.88,0-.3,0-.6,0-.9a7.27,7.27,0,0,0-1.39-4.28l-1.55-2.14a6.38,6.38,0,0,1-.37-6.93l2.61-4.55a2.72,2.72,0,0,0,.25-2.07l-2-7.12a1.85,1.85,0,0,1,1.78-2.35h7.45a3.07,3.07,0,0,0,2.78-4.37l-6.68-14.2a30.76,30.76,0,0,1-2.89-13v-7.26c-.64-17.94-14.62-32-31.83-32h-16.2v8.53l8.26,8.25a1.85,1.85,0,1,1-2.62,2.62l-8.8-8.79a1.85,1.85,0,0,1-.54-1.31V537.77a1.85,1.85,0,0,1,1.85-1.85h18a34.68,34.68,0,0,1,24.71,10.41,37.42,37.42,0,0,1,10.83,25.19v7.35a26.71,26.71,0,0,0,2.54,11.39l6.67,14.2a6.77,6.77,0,0,1-6.13,9.65h-5l1.34,4.77a6.43,6.43,0,0,1-.61,4.91l-2.61,4.55a2.69,2.69,0,0,0,.16,2.92l1.55,2.14a10.92,10.92,0,0,1,2.09,6.45c0,.23,0,.47,0,.7a17.76,17.76,0,0,1-.55,5.35,11.19,11.19,0,0,1-4.88,6.9A12.69,12.69,0,0,1,238.5,654.47Z"/><path data-cppathid="10040" fill-rule="evenodd" fill="#fff" d="M209.38,568.06a6.75,6.75,0,1,1,4.77-11.52h0a6.75,6.75,0,0,1-4.77,11.52Zm0-9.79a3,3,0,1,0,2.15.89A3,3,0,0,0,209.38,558.27Z"/><path data-cppathid="10041" fill-rule="evenodd" fill="#fff" d="M193.58,581.34H186.1a1.85,1.85,0,0,1-1.31-.54l-5.29-5.29a1.85,1.85,0,0,1-.54-1.31v-7.48a1.85,1.85,0,0,1,.54-1.31l5.29-5.29a1.89,1.89,0,0,1,1.31-.54h7.48a1.89,1.89,0,0,1,1.31.54l5.29,5.29a1.85,1.85,0,0,1,.54,1.31v7.48a1.85,1.85,0,0,1-.54,1.31l-5.29,5.29a1.85,1.85,0,0,1-1.31.54Zm-6.71-3.7h5.94l4.21-4.21v-5.94l-4.21-4.2h-5.94l-4.21,4.2v5.94Z"/><path data-cppathid="10042" fill-rule="evenodd" fill="#fff" d="M173.25,559.63a1.81,1.81,0,0,1-1.31-.55,1.83,1.83,0,0,1,0-2.61l8.3-8.31v-8.53H164.13a1.86,1.86,0,0,1,0-3.71h18a1.85,1.85,0,0,1,1.86,1.85v11.16a1.86,1.86,0,0,1-.55,1.31l-8.84,8.84A1.84,1.84,0,0,1,173.25,559.63Z"/><path data-cppathid="10043" fill-rule="evenodd" fill="#fff" d="M169.71,568.06a6.75,6.75,0,0,1-4.77-11.52h0a6.75,6.75,0,1,1,4.77,11.52Zm-2.15-8.9a3,3,0,1,0,4.3,0,3,3,0,0,0-4.3,0Z"/><path data-cppathid="10044" fill-rule="evenodd" fill="#fff" d="M214.87,605.17h-18a1.85,1.85,0,0,1-1.86-1.85V592.17a1.86,1.86,0,0,1,.55-1.31l8.79-8.79a1.85,1.85,0,0,1,2.62,2.62l-8.25,8.25v8.53h15.29l15.74-17.17v-13a1.85,1.85,0,0,1,1.85-1.85h16.71a1.86,1.86,0,0,1,0,3.71H233.49V585a1.82,1.82,0,0,1-.49,1.25l-16.77,18.3A1.85,1.85,0,0,1,214.87,605.17Z"/><path data-cppathid="10045" fill-rule="evenodd" fill="#fff" d="M209.29,586.53a6.76,6.76,0,1,1,4.77-2h0a6.68,6.68,0,0,1-4.77,2Zm0-9.79a3,3,0,0,0-3,3,3,3,0,0,0,5.19,2.15h0a3,3,0,0,0,.89-2.15,3,3,0,0,0-3-3Z"/><path data-cppathid="10046" fill-rule="evenodd" fill="#fff" d="M182.09,605.17h-18a1.85,1.85,0,0,1,0-3.7h16.11v-8.53L172,584.68a1.85,1.85,0,1,1,2.62-2.62l8.8,8.8a1.86,1.86,0,0,1,.55,1.31v11.15A1.85,1.85,0,0,1,182.09,605.17Z"/><path data-cppathid="10047" fill-rule="evenodd" fill="#fff" d="M169.71,586.53a6.68,6.68,0,0,1-4.77-2,6.75,6.75,0,1,1,9.54,0,6.68,6.68,0,0,1-4.77,2Zm0-9.79a3,3,0,0,0-2.15,5.19,3,3,0,0,0,5.19-2.15,3,3,0,0,0-3-3Z"/><path data-cppathid="10048" fill-rule="evenodd" fill="#fff" d="M528.89,231.13h-51a1.84,1.84,0,0,1-1.84-1.84V215.61a22.74,22.74,0,0,1,19.87-22.54,1.88,1.88,0,0,1,1.64.64c1.77,2.1,3.83,3.26,5.8,3.26h0c2,0,4-1.17,5.79-3.26a1.82,1.82,0,0,1,1.63-.64,22.72,22.72,0,0,1,19.94,22.54v13.68a1.84,1.84,0,0,1-1.84,1.84Zm-49.17-3.69H527V215.61a19,19,0,0,0-15.76-18.74,11.16,11.16,0,0,1-7.86,3.79h-.07a11.19,11.19,0,0,1-7.93-3.78,19,19,0,0,0-15.7,18.73Z"/><path data-cppathid="10049" fill-rule="evenodd" fill="#fff" d="M503.35,192a9.88,9.88,0,0,1-5.41-1.68,15.22,15.22,0,0,1-4.09-4,19.09,19.09,0,0,1-3.67-10.68,13.18,13.18,0,0,1,13.17-13.16h0a13.14,13.14,0,0,1,13.13,13.16,19.15,19.15,0,0,1-3.66,10.68,15.4,15.4,0,0,1-4.1,4,9.85,9.85,0,0,1-5.4,1.68Zm0-25.84h0a9.49,9.49,0,0,0-9.48,9.47,15.58,15.58,0,0,0,3,8.53c1.9,2.64,4.27,4.15,6.51,4.15s4.61-1.51,6.5-4.15a15.58,15.58,0,0,0,3-8.53A9.48,9.48,0,0,0,503.38,166.12Z"/><path data-cppathid="10050" fill-rule="evenodd" fill="#fff" d="M477.51,217.72h-63a1.85,1.85,0,0,1-1.85-1.85V127a1.84,1.84,0,0,1,1.85-1.84h88.87a1.84,1.84,0,0,1,1.85,1.84v37.17a1.85,1.85,0,0,1-3.69,0V128.85H416.35V214h61.16a1.85,1.85,0,1,1,0,3.69Z"/><path data-cppathid="10051" fill-rule="evenodd" fill="#fff" d="M432,208.51h-5.75a1.84,1.84,0,0,1-1.84-1.85V185.09a1.84,1.84,0,0,1,1.84-1.85H432a1.84,1.84,0,0,1,1.84,1.85v21.57a1.84,1.84,0,0,1-1.84,1.85Zm-3.9-3.69h2.05V186.93h-2.05Z"/><path data-cppathid="10052" fill-rule="evenodd" fill="#fff" d="M445,208.51h-5.74a1.85,1.85,0,0,1-1.85-1.85V192.19a1.85,1.85,0,0,1,1.85-1.84H445a1.85,1.85,0,0,1,1.85,1.84v14.47a1.85,1.85,0,0,1-1.85,1.85Zm-3.9-3.69h2.06V194h-2.06Z"/><path data-cppathid="10053" fill-rule="evenodd" fill="#fff" d="M457.91,208.51h-5.75a1.84,1.84,0,0,1-1.84-1.85V177.77a1.84,1.84,0,0,1,1.84-1.85h5.75a1.84,1.84,0,0,1,1.84,1.85v28.89a1.84,1.84,0,0,1-1.84,1.85Zm-3.9-3.69h2.05V179.61H454Z"/><path data-cppathid="10054" fill-rule="evenodd" fill="#fff" d="M470.85,208.51h-5.74a1.85,1.85,0,0,1-1.85-1.85V185.09a1.85,1.85,0,0,1,1.85-1.85h5.74a1.85,1.85,0,0,1,1.85,1.85v21.57a1.85,1.85,0,0,1-1.85,1.85Zm-3.9-3.69H469V186.93H467v17.89Z"/><path data-cppathid="10055" fill-rule="evenodd" fill="#fff" d="M467.75,166.59a16.15,16.15,0,1,1,16.15-16.15,16.17,16.17,0,0,1-16.15,16.15Zm0-28.61a12.46,12.46,0,1,0,0,24.92h0a12.46,12.46,0,0,0,0-24.92Z"/><path data-cppathid="10056" fill-rule="evenodd" fill="#fff" d="M467.75,152.37a2,2,0,0,1-.71-.14,1.86,1.86,0,0,1-1.13-1.71V136.29a1.85,1.85,0,0,1,3.69,0v9.78l6.86-6.87a1.85,1.85,0,0,1,2.61,2.61l-10,10A1.84,1.84,0,0,1,467.75,152.37Z"/><path data-cppathid="10057" fill-rule="evenodd" fill="#fff" d="M443.78,140h-17.5a1.85,1.85,0,1,1,0-3.69h17.5a1.85,1.85,0,0,1,0,3.69Z"/><path data-cppathid="10058" fill-rule="evenodd" fill="#fff" d="M443.78,146.17h-17.5a1.85,1.85,0,1,1,0-3.69h17.5a1.85,1.85,0,0,1,0,3.69Z"/><path data-cppathid="10059" fill-rule="evenodd" fill="#fff" d="M443.78,152.32h-17.5a1.85,1.85,0,1,1,0-3.69h17.5a1.85,1.85,0,0,1,0,3.69Z"/><path data-cppathid="10060" fill-rule="evenodd" fill="#fff" d="M443.78,158.47h-17.5a1.85,1.85,0,1,1,0-3.69h17.5a1.85,1.85,0,0,1,0,3.69Z"/><path data-cppathid="10061" fill-rule="evenodd" fill="#fff" d="M443.78,164.62h-17.5a1.85,1.85,0,1,1,0-3.69h17.5a1.85,1.85,0,0,1,0,3.69Z"/><path data-cppathid="10062" fill-rule="evenodd" fill="#fff" d="M753.71,641.86H721.33a2.93,2.93,0,0,1-2.94-2.94v-15.2a1.54,1.54,0,0,1,1.55-1.55H755.1a1.54,1.54,0,0,1,1.55,1.55v15.2a2.94,2.94,0,0,1-2.94,2.94Zm-32.22-3.1h32.06V625.27H721.49Z"/><path data-cppathid="10063" fill-rule="evenodd" fill="#fff" d="M755.1,629.62a1.54,1.54,0,0,1-1.55-1.55v-7.56H738.16a3.74,3.74,0,0,1-2.23-.75l-2.47-1.85a.63.63,0,0,0-.37-.12h-11.6v10.28a1.55,1.55,0,1,1-3.1,0V616.24a1.54,1.54,0,0,1,1.55-1.55h13.15a3.75,3.75,0,0,1,2.23.74l2.47,1.85a.64.64,0,0,0,.37.13H755.1a1.54,1.54,0,0,1,1.55,1.55v9.11A1.54,1.54,0,0,1,755.1,629.62Z"/><path data-cppathid="10064" fill-rule="evenodd" fill="#fff" d="M717.56,569.78H685.18a2.94,2.94,0,0,1-2.94-2.94V551.63a1.55,1.55,0,0,1,1.55-1.55H719a1.55,1.55,0,0,1,1.55,1.55v15.21a2.94,2.94,0,0,1-2.94,2.94Zm-32.22-3.1H717.4V553.19H685.34Z"/><path data-cppathid="10065" fill-rule="evenodd" fill="#fff" d="M719,557.54A1.56,1.56,0,0,1,717.4,556v-7.57H702a3.76,3.76,0,0,1-2.24-.74l-2.47-1.85a.64.64,0,0,0-.37-.13h-11.6V556a1.55,1.55,0,0,1-3.1,0V544.15a1.55,1.55,0,0,1,1.55-1.55h13.15a3.74,3.74,0,0,1,2.23.75l2.47,1.85a.64.64,0,0,0,.38.12H719a1.55,1.55,0,0,1,1.55,1.55V556A1.55,1.55,0,0,1,719,557.54Z"/><path data-cppathid="10066" fill-rule="evenodd" fill="#fff" d="M770.1,569.78H737.71a2.94,2.94,0,0,1-2.94-2.94V551.63a1.56,1.56,0,0,1,1.55-1.55h35.17a1.56,1.56,0,0,1,1.55,1.55v15.21a2.94,2.94,0,0,1-2.94,2.94Zm-32.23-3.1h32.06V553.19H737.87Z"/><path data-cppathid="10067" fill-rule="evenodd" fill="#fff" d="M771.49,557.54a1.56,1.56,0,0,1-1.56-1.55v-7.57H754.55a3.73,3.73,0,0,1-2.23-.74l-2.48-1.85a.62.62,0,0,0-.37-.13h-11.6V556a1.55,1.55,0,1,1-3.1,0V544.15a1.56,1.56,0,0,1,1.55-1.55h13.15a3.74,3.74,0,0,1,2.23.75l2.48,1.85a.61.61,0,0,0,.37.12h16.94a1.56,1.56,0,0,1,1.55,1.55V556A1.56,1.56,0,0,1,771.49,557.54Z"/><path data-cppathid="10068" fill-rule="evenodd" fill="#fff" d="M723.38,594.45H706a1.55,1.55,0,0,1,0-3.1h17.37a1.55,1.55,0,0,1,0,3.1Z"/><path data-cppathid="10069" fill-rule="evenodd" fill="#fff" d="M770.92,594.45H757.6a1.55,1.55,0,0,1,0-3.1h13.32a1.55,1.55,0,0,1,0,3.1Z"/><path data-cppathid="10070" fill-rule="evenodd" fill="#fff" d="M749.52,594.45H731.64a1.55,1.55,0,0,1,0-3.1h17.88a1.55,1.55,0,0,1,0,3.1Z"/><path data-cppathid="10071" fill-rule="evenodd" fill="#fff" d="M697.75,594.45H684.37a1.55,1.55,0,0,1,0-3.1h13.38a1.55,1.55,0,0,1,0,3.1Z"/><path data-cppathid="10072" fill-rule="evenodd" fill="#fff" d="M731.44,598.25h-7.6a1.55,1.55,0,0,1-1.55-1.55v-7.6a1.55,1.55,0,0,1,1.55-1.55h7.6A1.56,1.56,0,0,1,733,589.1v7.6a1.56,1.56,0,0,1-1.55,1.55Zm-6.05-3.1h4.49v-4.5h-4.49Z"/><path data-cppathid="10073" fill-rule="evenodd" fill="#fff" d="M757.32,598.25h-7.6a1.56,1.56,0,0,1-1.55-1.55v-7.6a1.56,1.56,0,0,1,1.55-1.55h7.6a1.56,1.56,0,0,1,1.55,1.55v7.6a1.56,1.56,0,0,1-1.55,1.55Zm-6.05-3.1h4.5v-4.5h-4.5Z"/><path data-cppathid="10074" fill-rule="evenodd" fill="#fff" d="M705.55,598.25H698a1.55,1.55,0,0,1-1.55-1.55v-7.6a1.55,1.55,0,0,1,1.55-1.55h7.59a1.55,1.55,0,0,1,1.55,1.55v7.6a1.55,1.55,0,0,1-1.55,1.55Zm-6-3.1H704v-4.5h-4.49Z"/><path data-cppathid="10075" fill-rule="evenodd" fill="#fff" d="M701.69,590.52a1.54,1.54,0,0,1-1.55-1.53V568.34a1.55,1.55,0,0,1,3.1,0V589A1.55,1.55,0,0,1,701.69,590.52Z"/><path data-cppathid="10076" fill-rule="evenodd" fill="#fff" d="M753.52,590.55A1.54,1.54,0,0,1,752,589V568.32a1.55,1.55,0,0,1,3.1,0V589A1.55,1.55,0,0,1,753.52,590.55Z"/><path data-cppathid="10077" fill-rule="evenodd" fill="#fff" d="M727.64,617.73a1.54,1.54,0,0,1-1.55-1.54V596.75a1.55,1.55,0,0,1,3.1,0v19.44A1.55,1.55,0,0,1,727.64,617.73Z"/><path data-cppathid="10078" fill-rule="evenodd" fill="#fff" d="M490.61,782.46H419.46a1.65,1.65,0,0,1-1.65-1.65V685.37a1.65,1.65,0,0,1,1.65-1.65h76.06a1.65,1.65,0,0,1,1.65,1.65v90.72a1.65,1.65,0,1,1-3.3,0V687H421.11v92.15h69.5a1.65,1.65,0,0,1,0,3.3Z"/><path data-cppathid="10079" fill-rule="evenodd" fill="#fff" d="M474.61,764.28a21.35,21.35,0,0,0,3.85-4.52,21.07,21.07,0,1,0-22.38,9.3,20.71,20.71,0,0,0,4.57.5,21.08,21.08,0,0,0,14-5.28ZM444.79,767A24.37,24.37,0,0,1,470.14,726,24.36,24.36,0,0,1,485,748.49a24.39,24.39,0,0,1-19.09,23.79,25.27,25.27,0,0,1-5.28.58A24.37,24.37,0,0,1,444.79,767Z"/><path data-cppathid="10080" fill-rule="evenodd" fill="#fff" d="M499,789.19a4.66,4.66,0,0,1-3.31-1.37l-21.06-21.06a1.65,1.65,0,0,1,2.33-2.33L498,785.49a1.38,1.38,0,0,0,1,.4,1.39,1.39,0,0,0,1-.4l.24-.25a1.38,1.38,0,0,0,0-2L479,762.11c0-.05,0,0,0-.06a1.65,1.65,0,0,1,1.94-2.67,3.16,3.16,0,0,1,.42.4L502.54,781a4.67,4.67,0,0,1,0,6.61l-.24.25A4.68,4.68,0,0,1,499,789.19Z"/><path data-cppathid="10081" fill-rule="evenodd" fill="#fff" d="M472.86,758.21H448.41a1.65,1.65,0,0,1-1.42-2.47l12.22-21.17a1.65,1.65,0,0,1,2.85,0l12.22,21.17a1.65,1.65,0,0,1-1.42,2.47Zm-21.59-3.29H470l-9.37-16.23Z"/><path data-cppathid="10082" fill-rule="evenodd" fill="#fff" d="M460.63,750.36a1.65,1.65,0,0,1-1.65-1.65V744a1.65,1.65,0,1,1,3.3,0v4.76A1.65,1.65,0,0,1,460.63,750.36Z"/><path data-cppathid="10083" fill-rule="evenodd" fill="#fff" d="M460.63,754.37a1.64,1.64,0,0,1-1.65-1.64v-.06a1.65,1.65,0,0,1,3.3,0v.06A1.64,1.64,0,0,1,460.63,754.37Z"/><path data-cppathid="10084" fill-rule="evenodd" fill="#fff" d="M439.5,705.42H429.37a1.65,1.65,0,0,1-1.65-1.65V693.64a1.65,1.65,0,0,1,1.65-1.65H439.5a1.65,1.65,0,0,1,1.65,1.65v10.13a1.65,1.65,0,0,1-1.65,1.65ZM431,702.13h6.84v-6.84H431Z"/><path data-cppathid="10085" fill-rule="evenodd" fill="#fff" d="M485.62,700.36H448.86a1.65,1.65,0,0,1,0-3.3h36.76a1.65,1.65,0,0,1,0,3.3Z"/><path data-cppathid="10086" fill-rule="evenodd" fill="#fff" d="M439.53,722.81H429.4a1.65,1.65,0,0,1-1.65-1.65V711a1.65,1.65,0,0,1,1.65-1.65h10.13a1.65,1.65,0,0,1,1.65,1.65v10.14a1.65,1.65,0,0,1-1.65,1.65Zm-8.48-3.3h6.83v-6.84h-6.83Z"/><path data-cppathid="10087" fill-rule="evenodd" fill="#fff" d="M485.65,717.74H448.9a1.65,1.65,0,0,1,0-3.3h36.75a1.65,1.65,0,1,1,0,3.3Z"/><path data-cppathid="10088" style="mix-blend-mode:screen" fill="url(#Degradado_sin_nombre_3)" d="M464.15,507l-3.54-17.37,1.78-2.16a.68.68,0,0,0,.14-.41l0-20.87a.63.63,0,0,0-.14-.4l-4.61-5.61,5.06-10.59a.7.7,0,0,0,.05-.4l-3.27-16.52,3.76-8.78a.71.71,0,0,0,0-.41l-3.73-14.37,1.6-1a.67.67,0,0,0,.28-.36l3.26-11.06a.67.67,0,0,0,0-.42l-4.93-12.59a.62.62,0,0,0-.38-.36l-9.24-3.41a.63.63,0,0,0-.52,0s-7.1,4.31-7.1,4.53l-7-.43a.65.65,0,0,0-.57.38l-1.76,4L421,387.05a.62.62,0,0,0-.68.46l-4.48,16.34-11.3,2.32a.64.64,0,0,0-.25.11L393.75,414a.64.64,0,0,0-.22.75l2.83,7-9.21,4.36a.62.62,0,0,0-.34.42L384,437.36l-3.15-.36a.58.58,0,0,0-.55.22L371,448.17a.62.62,0,0,0-.05.76l2.86,4.38L365.34,462a.63.63,0,0,0-.18.54l2.19,13.81a.7.7,0,0,0,.19.36l2.77,2.63-5.87,14.47a.6.6,0,0,0,0,.49l7,15.86a.68.68,0,0,0,.22.26l14.5,10.19a.72.72,0,0,0,.2.09l-.1,5a.66.66,0,0,0,.19.46L398.19,538a.63.63,0,0,0,.43.19.67.67,0,0,0,.28-.06l9.5-4.36L429,536a.66.66,0,0,0,.55-.21l7.73-8.84,13.58-2.15a.68.68,0,0,0,.41-.25L464,507.46A.63.63,0,0,0,464.15,507Z"/><polyline data-cppathid="10089" style="mix-blend-mode:screen" stroke-width="2" stroke-linejoin="round" stroke-linecap="round" stroke="aqua" fill="none" points="453.96 411.86 460.93 407.52 464.19 396.46 459.25 383.87 450.01 380.46 442.16 384.54 435.65 384.64 431.57 393.85 437.78 403.83 429.23 408.54 429.83 422.71"/><polyline data-cppathid="10090" style="mix-blend-mode:screen" stroke-width="2" stroke-linejoin="round" stroke-linecap="round" stroke="aqua" fill="none" points="457.05 460.15 462.24 449.26 458.93 432.55 462.77 423.59 459.04 409.21"/><polyline data-cppathid="10091" style="mix-blend-mode:screen" stroke-width="2" stroke-linejoin="round" stroke-linecap="round" stroke="aqua" fill="none" points="416.37 482.14 426.71 473.26 423.52 461.43 440.05 450.18 450.91 452.77 461.87 466.14 461.89 487.01 457.82 491.96 442.79 470.52 448.52 464.09"/><polyline data-cppathid="10092" style="mix-blend-mode:screen" stroke-width="2" stroke-linejoin="round" stroke-linecap="round" stroke="aqua" fill="none" points="425.84 489.83 436.22 488.8 442.62 503.5 435.18 512.76 436.93 526.32 429.05 535.33 408.3 533.11 398.64 537.54 386.92 525.7 387.17 512.47"/><polyline data-cppathid="10093" style="mix-blend-mode:screen" stroke-width="2" stroke-linejoin="round" stroke-linecap="round" stroke="aqua" fill="none" points="459.96 489.61 463.53 507.07 450.74 524.13 436.93 526.32"/><line data-cppathid="10094" style="mix-blend-mode:screen" stroke-width="2" stroke-linejoin="round" stroke-linecap="round" stroke="aqua" fill="none" y2="497.61" x2="450.12" y1="503.5" x1="442.62"/><polyline data-cppathid="10095" style="mix-blend-mode:screen" stroke-width="2" stroke-linejoin="round" stroke-linecap="round" stroke="aqua" fill="none" points="371.09 479.17 365.02 494.02 372.04 509.88 386.54 520.07"/><polyline data-cppathid="10096" style="mix-blend-mode:screen" stroke-width="2" stroke-linejoin="round" stroke-linecap="round" stroke="aqua" fill="none" points="374.33 453.67 365.79 462.42 367.98 476.23 376.96 484.78 382.26 503.46 397.59 506.29 414.73 526.04"/><polyline data-cppathid="10097" style="mix-blend-mode:screen" stroke-width="2" stroke-linejoin="round" stroke-linecap="round" stroke="aqua" fill="none" points="405.26 514.1 418.25 510.3 426.93 515.92"/><polyline data-cppathid="10098" style="mix-blend-mode:screen" stroke-width="2" stroke-linejoin="round" stroke-linecap="round" stroke="aqua" fill="none" points="403.79 461.28 392.28 457.98 379.98 461.6 371.46 448.58 380.79 437.63 416.7 441.77 432.56 439.01 445.09 439.67 451.65 430.14"/><polyline data-cppathid="10099" style="mix-blend-mode:screen" stroke-width="2" stroke-linejoin="round" stroke-linecap="round" stroke="aqua" fill="none" points="414.25 505.37 410.3 495.07 396.04 488.93 389.8 475.36 388.41 459.13"/><polyline data-cppathid="10100" style="mix-blend-mode:screen" stroke-width="2" stroke-linejoin="round" stroke-linecap="round" stroke="aqua" fill="none" points="402.21 469.73 405.04 479.98 396.04 488.93"/><polyline data-cppathid="10101" style="mix-blend-mode:screen" stroke-width="2" stroke-linejoin="round" stroke-linecap="round" stroke="aqua" fill="none" points="412.34 452.08 425.75 448.98 423.48 441"/><polyline data-cppathid="10102" style="mix-blend-mode:screen" stroke-width="2" stroke-linejoin="round" stroke-linecap="round" stroke="aqua" fill="none" points="450 418.84 440.77 419.47 432.56 439.01"/><polyline data-cppathid="10103" style="mix-blend-mode:screen" stroke-width="2" stroke-linejoin="round" stroke-linecap="round" stroke="aqua" fill="none" points="384.61 437.61 387.42 426.76 396.78 422.32"/><line data-cppathid="10104" style="mix-blend-mode:screen" stroke-width="2" stroke-linejoin="round" stroke-linecap="round" stroke="aqua" fill="none" y2="415.95" x2="429.29" y1="428.02" x1="411.37"/><polyline data-cppathid="10105" style="mix-blend-mode:screen" stroke-width="2" stroke-linejoin="round" stroke-linecap="round" stroke="aqua" fill="none" points="433.4 389.01 420.9 387.68 416.35 404.26"/><polyline data-cppathid="10106" style="mix-blend-mode:screen" stroke-width="2" stroke-linejoin="round" stroke-linecap="round" stroke="aqua" fill="none" points="426.41 402.33 404.63 406.79 394.13 414.54 401.86 433.8"/><line data-cppathid="10107" style="mix-blend-mode:screen" stroke-width="2" stroke-linejoin="round" stroke-linecap="round" stroke="aqua" fill="none" y2="397.04" x2="451.12" y1="384.44" x1="443.04"/><path data-cppathid="10108" fill="#fff" d="M453.34,397.42a2,2,0,1,1-2-2.08A2,2,0,0,1,453.34,397.42Z"/><path data-cppathid="10109" fill="#fff" d="M428.37,490.11a2,2,0,1,1-2-2.07A2,2,0,0,1,428.37,490.11Z"/><path data-cppathid="10110" fill="#fff" d="M450.77,464.22a2,2,0,1,1-1.95-2.07A2,2,0,0,1,450.77,464.22Z"/><path data-cppathid="10111" fill="#fff" d="M404.33,469.89a2,2,0,1,1-2-2.08A2,2,0,0,1,404.33,469.89Z"/><path data-cppathid="10112" fill="#fff" d="M416.94,525.87a2,2,0,1,1-2-2.07A2,2,0,0,1,416.94,525.87Z"/><path data-cppathid="10113" fill="#fff" d="M432.41,423.56a2.44,2.44,0,1,1-2.37-2.5A2.44,2.44,0,0,1,432.41,423.56Z"/><path data-cppathid="10114" fill="#fff" d="M418.62,482.19a2.44,2.44,0,1,1-2.37-2.51A2.45,2.45,0,0,1,418.62,482.19Z"/><path data-cppathid="10115" fill="#fff" d="M429.33,515.83a2.44,2.44,0,1,1-2.37-2.51A2.46,2.46,0,0,1,429.33,515.83Z"/><path data-cppathid="10116" fill="#fff" d="M452.77,497.82a2.44,2.44,0,1,1-2.36-2.51A2.43,2.43,0,0,1,452.77,497.82Z"/><path data-cppathid="10117" fill="#fff" d="M454.09,430.13a2.44,2.44,0,1,1-2.37-2.51A2.44,2.44,0,0,1,454.09,430.13Z"/><path data-cppathid="10118" fill="#fff" d="M413.28,428.21a1.59,1.59,0,1,1-3.18-.09,1.57,1.57,0,0,1,1.63-1.54A1.59,1.59,0,0,1,413.28,428.21Z"/><path data-cppathid="10119" fill="#fff" d="M455.46,412.13a1.59,1.59,0,1,1-1.55-1.64A1.59,1.59,0,0,1,455.46,412.13Z"/><path data-cppathid="10120" fill="#fff" d="M415.2,505a1.59,1.59,0,0,1-3.18-.09,1.59,1.59,0,1,1,3.18.09Z"/><path data-cppathid="10121" fill="#fff" d="M388.77,512.43a1.59,1.59,0,1,1-1.55-1.64A1.59,1.59,0,0,1,388.77,512.43Z"/><path data-cppathid="10122" fill="#fff" d="M405.63,461.43a1.59,1.59,0,1,1-1.54-1.64A1.59,1.59,0,0,1,405.63,461.43Z"/><path data-cppathid="10123" fill="#fff" d="M403.75,433.88a2,2,0,1,1-1.94-2A2,2,0,0,1,403.75,433.88Z"/><path data-cppathid="10124" fill="#fff" d="M428.22,402.32a2,2,0,1,1-1.93-2.05A2,2,0,0,1,428.22,402.32Z"/><path data-cppathid="10125" fill="#fff" d="M414.17,452.34a2,2,0,1,1-1.93-2A2,2,0,0,1,414.17,452.34Z"/><path data-cppathid="10126" style="mix-blend-mode:screen" fill="url(#Degradado_sin_nombre_3-2)" d="M469.85,507l3.54-17.37-1.78-2.16a.68.68,0,0,1-.14-.41l0-20.87a.63.63,0,0,1,.14-.4l4.61-5.61-5.06-10.59a.7.7,0,0,1-.05-.4l3.27-16.52-3.76-8.78a.71.71,0,0,1,0-.41l3.73-14.37-1.6-1a.67.67,0,0,1-.28-.36l-3.26-11.06a.67.67,0,0,1,0-.42l4.93-12.59a.62.62,0,0,1,.38-.36l9.24-3.41a.63.63,0,0,1,.52,0s7.1,4.31,7.1,4.53l7-.43a.65.65,0,0,1,.57.38l1.76,4L513,387.05a.62.62,0,0,1,.68.46l4.48,16.34,11.3,2.32a.64.64,0,0,1,.25.11L540.25,414a.64.64,0,0,1,.22.75l-2.83,7,9.21,4.36a.62.62,0,0,1,.34.42l2.8,10.76,3.15-.36a.58.58,0,0,1,.55.22L563,448.17a.62.62,0,0,1,.05.76l-2.86,4.38,8.45,8.67a.63.63,0,0,1,.18.54l-2.19,13.81a.7.7,0,0,1-.19.36l-2.77,2.63,5.87,14.47a.6.6,0,0,1,0,.49l-7,15.86a.68.68,0,0,1-.22.26l-14.5,10.19a.72.72,0,0,1-.2.09l.1,5a.66.66,0,0,1-.19.46L535.81,538a.63.63,0,0,1-.43.19.67.67,0,0,1-.28-.06l-9.5-4.36L505,536a.66.66,0,0,1-.55-.21l-7.73-8.84-13.58-2.15a.68.68,0,0,1-.41-.25L470,507.46A.63.63,0,0,1,469.85,507Z"/><polyline data-cppathid="10127" style="mix-blend-mode:screen" stroke-width="2" stroke-linejoin="round" stroke-linecap="round" stroke="aqua" fill="none" points="480.04 411.86 473.07 407.52 469.81 396.46 474.75 383.87 483.99 380.46 491.84 384.54 498.35 384.64 502.43 393.85 496.22 403.83 504.77 408.54 504.17 422.71"/><polyline data-cppathid="10128" style="mix-blend-mode:screen" stroke-width="2" stroke-linejoin="round" stroke-linecap="round" stroke="aqua" fill="none" points="476.95 460.15 471.76 449.26 475.07 432.55 471.23 423.59 474.96 409.21"/><polyline data-cppathid="10129" style="mix-blend-mode:screen" stroke-width="2" stroke-linejoin="round" stroke-linecap="round" stroke="aqua" fill="none" points="517.63 482.14 507.29 473.26 510.48 461.43 493.95 450.18 483.09 452.77 472.13 466.14 472.11 487.01 476.18 491.96 491.21 470.52 485.48 464.09"/><polyline data-cppathid="10130" style="mix-blend-mode:screen" stroke-width="2" stroke-linejoin="round" stroke-linecap="round" stroke="aqua" fill="none" points="508.16 489.83 497.78 488.8 491.38 503.5 498.82 512.76 497.07 526.32 504.95 535.33 525.7 533.11 535.36 537.54 547.08 525.7 546.83 512.47"/><polyline data-cppathid="10131" style="mix-blend-mode:screen" stroke-width="2" stroke-linejoin="round" stroke-linecap="round" stroke="aqua" fill="none" points="474.04 489.61 470.47 507.07 483.26 524.13 497.07 526.32"/><line data-cppathid="10132" style="mix-blend-mode:screen" stroke-width="2" stroke-linejoin="round" stroke-linecap="round" stroke="aqua" fill="none" y2="497.61" x2="483.88" y1="503.5" x1="491.38"/><polyline data-cppathid="10133" style="mix-blend-mode:screen" stroke-width="2" stroke-linejoin="round" stroke-linecap="round" stroke="aqua" fill="none" points="562.91 479.17 568.98 494.02 561.96 509.88 547.46 520.07"/><polyline data-cppathid="10134" style="mix-blend-mode:screen" stroke-width="2" stroke-linejoin="round" stroke-linecap="round" stroke="aqua" fill="none" points="559.67 453.67 568.21 462.42 566.02 476.23 557.04 484.78 551.74 503.46 536.41 506.29 519.27 526.04"/><polyline data-cppathid="10135" style="mix-blend-mode:screen" stroke-width="2" stroke-linejoin="round" stroke-linecap="round" stroke="aqua" fill="none" points="528.74 514.1 515.75 510.3 507.07 515.92"/><polyline data-cppathid="10136" style="mix-blend-mode:screen" stroke-width="2" stroke-linejoin="round" stroke-linecap="round" stroke="aqua" fill="none" points="530.21 461.28 541.72 457.98 554.02 461.6 562.54 448.58 553.21 437.63 517.3 441.77 501.44 439.01 488.91 439.67 482.35 430.14"/><polyline data-cppathid="10137" style="mix-blend-mode:screen" stroke-width="2" stroke-linejoin="round" stroke-linecap="round" stroke="aqua" fill="none" points="519.75 505.37 523.7 495.07 537.96 488.93 544.2 475.36 545.59 459.13"/><polyline data-cppathid="10138" style="mix-blend-mode:screen" stroke-width="2" stroke-linejoin="round" stroke-linecap="round" stroke="aqua" fill="none" points="531.79 469.73 528.96 479.98 537.96 488.93"/><polyline data-cppathid="10139" style="mix-blend-mode:screen" stroke-width="2" stroke-linejoin="round" stroke-linecap="round" stroke="aqua" fill="none" points="521.66 452.08 508.25 448.98 510.52 441"/><polyline data-cppathid="10140" style="mix-blend-mode:screen" stroke-width="2" stroke-linejoin="round" stroke-linecap="round" stroke="aqua" fill="none" points="484 418.84 493.23 419.47 501.44 439.01"/><polyline data-cppathid="10141" style="mix-blend-mode:screen" stroke-width="2" stroke-linejoin="round" stroke-linecap="round" stroke="aqua" fill="none" points="549.39 437.61 546.58 426.76 537.22 422.32"/><line data-cppathid="10142" style="mix-blend-mode:screen" stroke-width="2" stroke-linejoin="round" stroke-linecap="round" stroke="aqua" fill="none" y2="415.95" x2="504.71" y1="428.02" x1="522.63"/><polyline data-cppathid="10143" style="mix-blend-mode:screen" stroke-width="2" stroke-linejoin="round" stroke-linecap="round" stroke="aqua" fill="none" points="500.6 389.01 513.1 387.68 517.65 404.26"/><polyline data-cppathid="10144" style="mix-blend-mode:screen" stroke-width="2" stroke-linejoin="round" stroke-linecap="round" stroke="aqua" fill="none" points="507.59 402.33 529.37 406.79 539.87 414.54 532.14 433.8"/><line data-cppathid="10145" style="mix-blend-mode:screen" stroke-width="2" stroke-linejoin="round" stroke-linecap="round" stroke="aqua" fill="none" y2="397.04" x2="482.88" y1="384.44" x1="490.96"/><path data-cppathid="10146" fill="#fff" d="M480.66,397.42a2,2,0,1,0,2-2.08A2,2,0,0,0,480.66,397.42Z"/><path data-cppathid="10147" fill="#fff" d="M505.63,490.11a2,2,0,1,0,2-2.07A2,2,0,0,0,505.63,490.11Z"/><path data-cppathid="10148" fill="#fff" d="M483.23,464.22a2,2,0,1,0,2-2.07A2,2,0,0,0,483.23,464.22Z"/><path data-cppathid="10149" fill="#fff" d="M529.67,469.89a2,2,0,1,0,2-2.08A2,2,0,0,0,529.67,469.89Z"/><path data-cppathid="10150" fill="#fff" d="M517.06,525.87a2,2,0,1,0,2-2.07A2,2,0,0,0,517.06,525.87Z"/><path data-cppathid="10151" fill="#fff" d="M501.59,423.56a2.44,2.44,0,1,0,2.37-2.5A2.44,2.44,0,0,0,501.59,423.56Z"/><path data-cppathid="10152" fill="#fff" d="M515.38,482.19a2.44,2.44,0,1,0,2.37-2.51A2.45,2.45,0,0,0,515.38,482.19Z"/><path data-cppathid="10153" fill="#fff" d="M504.67,515.83a2.44,2.44,0,1,0,2.37-2.51A2.46,2.46,0,0,0,504.67,515.83Z"/><path data-cppathid="10154" fill="#fff" d="M481.23,497.82a2.44,2.44,0,1,0,2.36-2.51A2.43,2.43,0,0,0,481.23,497.82Z"/><path data-cppathid="10155" fill="#fff" d="M479.91,430.13a2.44,2.44,0,1,0,2.37-2.51A2.44,2.44,0,0,0,479.91,430.13Z"/><path data-cppathid="10156" fill="#fff" d="M520.72,428.21a1.59,1.59,0,1,0,3.18-.09,1.57,1.57,0,0,0-1.63-1.54A1.59,1.59,0,0,0,520.72,428.21Z"/><path data-cppathid="10157" fill="#fff" d="M478.54,412.13a1.59,1.59,0,1,0,1.55-1.64A1.59,1.59,0,0,0,478.54,412.13Z"/><path data-cppathid="10158" fill="#fff" d="M518.8,505a1.59,1.59,0,0,0,3.18-.09,1.59,1.59,0,1,0-3.18.09Z"/><path data-cppathid="10159" fill="#fff" d="M545.23,512.43a1.59,1.59,0,1,0,1.55-1.64A1.59,1.59,0,0,0,545.23,512.43Z"/><path data-cppathid="10160" fill="#fff" d="M528.37,461.43a1.59,1.59,0,1,0,1.54-1.64A1.59,1.59,0,0,0,528.37,461.43Z"/><path data-cppathid="10161" fill="#fff" d="M530.25,433.88a2,2,0,1,0,1.94-2A2,2,0,0,0,530.25,433.88Z"/><path data-cppathid="10162" fill="#fff" d="M505.78,402.32a2,2,0,1,0,1.93-2.05A2,2,0,0,0,505.78,402.32Z"/><path data-cppathid="10163" fill="#fff" d="M519.83,452.34a2,2,0,1,0,1.93-2A2,2,0,0,0,519.83,452.34Z"/><rect data-cppathid="10164" stroke-width="2" stroke-linejoin="round" stroke-linecap="round" stroke="#00ffd3" fill="#333e48" rx="6.68" height="76.23" width="206.15" y="420.89" x="363.93"/><path data-cppathid="10165" fill="#fff" d="M388.23,449.79h.06l7-15.71h.7v16.69h-.62V435.6h-.07l-6.77,15.18H388l-6.92-15.51H381v15.5h-.61V434.08h.86Z"/><path data-cppathid="10166" fill="#fff" d="M399.26,444.33a6.51,6.51,0,0,1,1.51-4.46,5.31,5.31,0,0,1,7.84,0,6.51,6.51,0,0,1,1.51,4.46v.48a6.52,6.52,0,0,1-1.51,4.47,4.92,4.92,0,0,1-3.9,1.74,5,5,0,0,1-3.94-1.74,6.52,6.52,0,0,1-1.51-4.47Zm.62.48a6.06,6.06,0,0,0,1.31,4,4.57,4.57,0,0,0,7,0,6.15,6.15,0,0,0,1.31-4v-.48a6.1,6.1,0,0,0-1.32-3.93,4.53,4.53,0,0,0-7,0,6.09,6.09,0,0,0-1.31,3.93Z"/><path data-cppathid="10167" fill="#fff" d="M412.52,444.56a7.9,7.9,0,0,1,1.24-4.69,4,4,0,0,1,3.44-1.73,4.7,4.7,0,0,1,2.5.64,4.82,4.82,0,0,1,1.69,1.78v-7.68H422v9.34h0v5.06l0,0v3.45h-.59l0-1.91a4.44,4.44,0,0,1-1.69,1.58,5.34,5.34,0,0,1-2.53.58,4,4,0,0,1-3.42-1.68,7.52,7.52,0,0,1-1.23-4.54Zm.64.24a7.29,7.29,0,0,0,1,4.08,3.38,3.38,0,0,0,3,1.52,4.73,4.73,0,0,0,2.69-.73,4.17,4.17,0,0,0,1.54-1.95v-5.87a5.21,5.21,0,0,0-1.45-2.21,4,4,0,0,0-2.75-.89,3.32,3.32,0,0,0-3,1.62,7.63,7.63,0,0,0-1,4.19Z"/><path data-cppathid="10168" fill="#fff" d="M430.29,451a4.74,4.74,0,0,1-3.69-1.7,6.19,6.19,0,0,1-1.51-4.28v-.73a6.6,6.6,0,0,1,1.49-4.44,4.76,4.76,0,0,1,3.77-1.73,4.22,4.22,0,0,1,3.29,1.35,5.34,5.34,0,0,1,1.23,3.71v1h-9.16V445a5.72,5.72,0,0,0,1.28,3.81,4.11,4.11,0,0,0,3.3,1.55,5.55,5.55,0,0,0,2.14-.42,4.47,4.47,0,0,0,1.67-1.1l.33.48a4.8,4.8,0,0,1-1.68,1.19A6,6,0,0,1,430.29,451Zm.06-12.27a4.12,4.12,0,0,0-3.16,1.34,5.48,5.48,0,0,0-1.39,3.38l0,.07h8.42v-.38a4.77,4.77,0,0,0-1-3.16A3.54,3.54,0,0,0,430.35,438.75Z"/><path data-cppathid="10169" fill="#fff" d="M438.63,450.77H438V432.88h.62Z"/><path data-cppathid="10170" fill="#fff" d="M441.73,444.33a6.51,6.51,0,0,1,1.51-4.46,5.31,5.31,0,0,1,7.84,0,6.51,6.51,0,0,1,1.51,4.46v.48a6.52,6.52,0,0,1-1.51,4.47,4.92,4.92,0,0,1-3.9,1.74,5,5,0,0,1-3.94-1.74,6.52,6.52,0,0,1-1.51-4.47Zm.62.48a6.06,6.06,0,0,0,1.31,4,4.57,4.57,0,0,0,7,0,6.15,6.15,0,0,0,1.31-4v-.48a6.1,6.1,0,0,0-1.32-3.93,4.53,4.53,0,0,0-7,0,6.09,6.09,0,0,0-1.31,3.93Z"/><path data-cppathid="10171" fill="#fff" d="M473.33,443.67a8,8,0,0,1-1.68,5.37,6.38,6.38,0,0,1-9.24,0,8,8,0,0,1-1.68-5.37v-2.5a8.06,8.06,0,0,1,1.67-5.35,6.36,6.36,0,0,1,9.24,0,8,8,0,0,1,1.69,5.35Zm-.62-2.52a7.5,7.5,0,0,0-1.48-4.88,5.76,5.76,0,0,0-8.4,0,7.5,7.5,0,0,0-1.47,4.88v2.52a7.55,7.55,0,0,0,1.48,4.91,5.77,5.77,0,0,0,8.4,0,7.56,7.56,0,0,0,1.47-4.92Z"/><path data-cppathid="10172" fill="#fff" d="M486.31,444.8a7.46,7.46,0,0,1-1.24,4.54,4,4,0,0,1-3.42,1.68,5.26,5.26,0,0,1-2.51-.58,4.41,4.41,0,0,1-1.7-1.56v6.67h-.62v-8.17s0,0,0-.06a.06.06,0,0,1,0,0v-5.07l0-.07v-3.78h.49l.12,2.2a4.55,4.55,0,0,1,4.2-2.42,4,4,0,0,1,3.43,1.73,7.9,7.9,0,0,1,1.25,4.69Zm-.63-.24a7.63,7.63,0,0,0-1-4.19,3.35,3.35,0,0,0-3-1.62,4,4,0,0,0-2.76.89,5.09,5.09,0,0,0-1.44,2.18v5.93a4.08,4.08,0,0,0,1.54,1.93,4.7,4.7,0,0,0,2.68.72,3.38,3.38,0,0,0,3-1.52,7.13,7.13,0,0,0,1-4.08Z"/><path data-cppathid="10173" fill="#fff" d="M494,451a4.76,4.76,0,0,1-3.7-1.7,6.19,6.19,0,0,1-1.51-4.28v-.73a6.56,6.56,0,0,1,1.5-4.44,4.75,4.75,0,0,1,3.77-1.73,4.24,4.24,0,0,1,3.29,1.35,5.39,5.39,0,0,1,1.22,3.71v1h-9.16V445a5.77,5.77,0,0,0,1.28,3.81A4.12,4.12,0,0,0,494,450.4a5.63,5.63,0,0,0,2.14-.42,4.55,4.55,0,0,0,1.67-1.1l.33.48a4.94,4.94,0,0,1-1.69,1.19A5.92,5.92,0,0,1,494,451Zm.06-12.27a4.14,4.14,0,0,0-3.17,1.34,5.48,5.48,0,0,0-1.39,3.38l0,.07H498v-.38a4.72,4.72,0,0,0-1-3.16A3.52,3.52,0,0,0,494.09,438.75Z"/><path data-cppathid="10174" fill="#fff" d="M507.07,438.81l-.8-.07a3.61,3.61,0,0,0-2.71,1.08,5.19,5.19,0,0,0-1.34,2.82v8.13h-.62V438.36h.5l.12,2.16V441a4.41,4.41,0,0,1,1.53-2.07,4.13,4.13,0,0,1,2.52-.74,2.45,2.45,0,0,1,.48,0,3,3,0,0,1,.39.08Z"/><path data-cppathid="10175" fill="#fff" d="M517.24,448.48a4.89,4.89,0,0,1-1.91,1.83,6.3,6.3,0,0,1-3.09.71,3.79,3.79,0,0,1-2.72-.95,3.39,3.39,0,0,1-1-2.55A3.15,3.15,0,0,1,510,444.9a6.19,6.19,0,0,1,3.69-1h3.54V442a3,3,0,0,0-1-2.42,4.09,4.09,0,0,0-2.79-.87,4.28,4.28,0,0,0-2.72.82,2.56,2.56,0,0,0-1,2.1l-.52,0,0-.06a2.89,2.89,0,0,1,1.12-2.45,4.75,4.75,0,0,1,3.16-1,4.84,4.84,0,0,1,3.2,1,3.62,3.62,0,0,1,1.2,2.92v6.21a10.73,10.73,0,0,0,.08,1.28,8.49,8.49,0,0,0,.24,1.22h-.69c-.1-.54-.16-.95-.2-1.22a7.85,7.85,0,0,1,0-.87Zm-5,1.93a5.68,5.68,0,0,0,3.13-.82,4.73,4.73,0,0,0,1.87-2.33v-2.78h-3.51a5.65,5.65,0,0,0-3.25.89,2.59,2.59,0,0,0-1.32,2.19,2.69,2.69,0,0,0,.84,2.05A3.13,3.13,0,0,0,512.24,450.41Z"/><path data-cppathid="10176" fill="#fff" d="M523.14,435v3.34h3.05V439h-3.05v8.57a3.58,3.58,0,0,0,.51,2.18,1.68,1.68,0,0,0,1.37.65,4.56,4.56,0,0,0,.55,0l.66-.08.12.56a2.38,2.38,0,0,1-.6.13,7,7,0,0,1-.7,0,2.31,2.31,0,0,1-1.9-.82,4.25,4.25,0,0,1-.64-2.63V439h-2.3v-.64h2.3V435Z"/><path data-cppathid="10177" fill="#fff" d="M529.88,434.47h-.62v-1.59h.62Zm0,16.3h-.62V438.36h.62Z"/><path data-cppathid="10178" fill="#fff" d="M537,448.15l.58,1.67h.07l.6-1.67,3.82-9.79h.66l-4.82,12.4h-.59l-4.82-12.41h.67Z"/><path data-cppathid="10179" fill="#fff" d="M544,444.33a6.51,6.51,0,0,1,1.51-4.46,5.31,5.31,0,0,1,7.84,0,6.51,6.51,0,0,1,1.51,4.46v.48a6.52,6.52,0,0,1-1.51,4.47,4.91,4.91,0,0,1-3.9,1.74,5,5,0,0,1-3.93-1.74,6.53,6.53,0,0,1-1.52-4.47Zm.62.48a6.11,6.11,0,0,0,1.31,4,4.58,4.58,0,0,0,7,0,6.15,6.15,0,0,0,1.3-4v-.48a6.1,6.1,0,0,0-1.32-3.93,4.53,4.53,0,0,0-7,0,6.15,6.15,0,0,0-1.31,3.93Z"/><path data-cppathid="10180" fill="#00ffd3" d="M380.71,483.43V455.84h9.62a11.38,11.38,0,0,1,8.34,3.23,11.12,11.12,0,0,1,3.28,8.29v4.57a11.07,11.07,0,0,1-3.28,8.29,11.41,11.41,0,0,1-8.34,3.21Zm5.53-23.33v19.09h4.09a5.4,5.4,0,0,0,4.4-2,8,8,0,0,0,1.67-5.22v-4.61a7.91,7.91,0,0,0-1.67-5.19,5.42,5.42,0,0,0-4.4-2Z"/><path data-cppathid="10181" fill="#00ffd3" d="M422.16,471.3H411.92v7.89h12.17v4.24h-17.7V455.84h17.66v4.26H411.92V467h10.24Z"/><path data-cppathid="10182" fill="#00ffd3" d="M437.64,483.43V455.84h9.63a11.42,11.42,0,0,1,8.34,3.23,11.12,11.12,0,0,1,3.28,8.29v4.57a11.07,11.07,0,0,1-3.28,8.29,11.44,11.44,0,0,1-8.34,3.21Zm5.54-23.33v19.09h4.09a5.4,5.4,0,0,0,4.4-2,8,8,0,0,0,1.67-5.22v-4.61a7.91,7.91,0,0,0-1.67-5.19,5.42,5.42,0,0,0-4.4-2Z"/><path data-cppathid="10183" fill="#00ffd3" d="M477.31,477.48h-8.94l-1.86,5.95h-5.78l9.3-27.59h5.67L485,483.43h-5.78Zm-7.58-4.34H476l-3.06-9.72h-.11Z"/><path data-cppathid="10184" fill="#00ffd3" d="M505.17,460.1h-7.88v23.33h-5.54V460.1H484v-4.26h21.19Z"/><path data-cppathid="10185" fill="#00ffd3" d="M530,472.12a11.58,11.58,0,0,1-3.2,8.4,11.09,11.09,0,0,1-8.34,3.31,11,11,0,0,1-8.3-3.32,11.6,11.6,0,0,1-3.19-8.39v-5a11.63,11.63,0,0,1,3.18-8.38,10.89,10.89,0,0,1,8.27-3.33,11.13,11.13,0,0,1,8.36,3.33,11.53,11.53,0,0,1,3.22,8.38Zm-5.51-5a8.35,8.35,0,0,0-1.61-5.28,5.34,5.34,0,0,0-4.46-2.07,5.16,5.16,0,0,0-4.37,2.07,8.51,8.51,0,0,0-1.56,5.28v5a8.55,8.55,0,0,0,1.57,5.34,5.22,5.22,0,0,0,4.4,2.07,5.27,5.27,0,0,0,4.43-2.07,8.44,8.44,0,0,0,1.6-5.34Z"/><path data-cppathid="10186" fill="#00ffd3" d="M548.77,476.23a3.24,3.24,0,0,0-1.11-2.56,11.26,11.26,0,0,0-3.9-1.82,22.21,22.21,0,0,1-7.25-3.39,6.42,6.42,0,0,1-2.47-5.33,6.7,6.7,0,0,1,2.78-5.54,11.33,11.33,0,0,1,7.11-2.15,11.2,11.2,0,0,1,7.38,2.31,7.23,7.23,0,0,1,2.71,6.07l0,.11h-5.37a4,4,0,0,0-1.25-3.17,5.09,5.09,0,0,0-3.5-1.11,4.68,4.68,0,0,0-3.17,1,3.24,3.24,0,0,0-1.12,2.52,2.76,2.76,0,0,0,1.22,2.31,16.1,16.1,0,0,0,4.18,1.9,17.89,17.89,0,0,1,6.94,3.37,6.88,6.88,0,0,1,2.39,5.46,6.55,6.55,0,0,1-2.77,5.59,12,12,0,0,1-7.31,2.05,13.07,13.07,0,0,1-7.65-2.22,7.3,7.3,0,0,1-3.1-6.61l0-.11h5.36a4.34,4.34,0,0,0,1.44,3.6,6.07,6.07,0,0,0,3.91,1.15,5.34,5.34,0,0,0,3.38-.93A3,3,0,0,0,548.77,476.23Z"/><path data-cppathid="10187" stroke-dasharray="0 40.01" stroke-width="10" stroke-linejoin="round" stroke-linecap="round" stroke="#00ffd3" fill="none" d="M27.66,459C27.66,216.36,224.36,19.66,467,19.66c582.77,23.14,582.6,855.62,0,878.68C224.36,898.34,27.66,701.64,27.66,459Z"/><polygon data-cppathid="10188" stroke-width="3" stroke-linejoin="round" stroke-linecap="round" stroke="#fff" fill="#0099a8" points="726.94 283.68 705.35 321.31 748.54 321.31 726.94 283.68"/><polygon data-cppathid="10189" stroke-width="3" stroke-linejoin="round" stroke-linecap="round" stroke="#fff" fill="#0099a8" points="753.02 329.11 700.87 329.11 690.19 347.72 763.7 347.72 753.02 329.11"/><polygon data-cppathid="10190" stroke-width="3" stroke-linejoin="round" stroke-linecap="round" stroke="#fff" fill="#0099a8" points="685.71 355.52 674.1 375.75 779.79 375.75 768.18 355.52 685.71 355.52"/></g></g></svg>