<?xml version="1.0" encoding="UTF-8"?>
<svg xmlns="http://www.w3.org/2000/svg" onmouseup="{ if(window.parent.document.onmouseup) window.parent.document.onmouseup(arguments[0]);}" viewBox="0 0 211 211" data-name="Capa 28" id="Capa_28"><circle data-cppathid="10000" fill="#0099a8" r="105.5" cy="105.5" cx="105.5"/><path data-cppathid="10001" fill="#fff" d="M140.9,160.5H70.8V145.3l31.1-34.1a71.4,71.4,0,0,0,9.2-12.6c1.9-3.7,2.9-6.9,2.9-9.6,0-3.9-.9-7-2.6-9.3s-4.6-3.4-8.5-3.4a9.71,9.71,0,0,0-8.5,4.5,19.93,19.93,0,0,0-3,11.4h-23l-.1-.4a31.18,31.18,0,0,1,9.2-23.7c6.4-6.5,14.8-9.8,25.4-9.8,11.1,0,19.6,2.7,25.6,8.2s9,12.9,9,22.4a29.44,29.44,0,0,1-5,17c-3.3,4.9-9.4,12.2-18.3,21.8l-12.3,14.7.1.4h39Z"/></svg>