<?xml version="1.0" encoding="UTF-8"?>
<svg xmlns="http://www.w3.org/2000/svg" onmouseup="{ if(window.parent.document.onmouseup) window.parent.document.onmouseup(arguments[0]);}" viewBox="0 0 211 211" data-name="Capa 29" id="Capa_29"><circle data-cppathid="10000" fill="#0099a8" r="105.5" cy="105.5" cx="105.5"/><path data-cppathid="10001" fill="#fff" d="M103.8,100.2c4.2,0,7.4-1.1,9.7-3.4s3.4-5.4,3.4-9.4a10.6,10.6,0,0,0-3.5-8c-2.3-2.2-5.4-3.3-9.4-3.3a10.92,10.92,0,0,0-7.5,2.6,8.58,8.58,0,0,0-3.1,6.8H70.8l-.1-.4c-.3-8.1,2.9-14.6,9.5-19.6s14.6-7.5,24-7.5c10.9,0,19.7,2.5,26.3,7.5s9.9,12.1,9.9,21.3a21.19,21.19,0,0,1-4.2,12.6,27.88,27.88,0,0,1-11.3,9.1,26.52,26.52,0,0,1,12.6,9,23.75,23.75,0,0,1,4.4,14.6c0,9.3-3.6,16.5-10.6,21.8s-16.1,7.9-27.1,7.9c-9.5,0-17.8-2.5-24.8-7.4S69,142.2,69.2,132.8l.1-.4H92a10.94,10.94,0,0,0,3.4,8.2,12.15,12.15,0,0,0,8.7,3.3,15.35,15.35,0,0,0,10.3-3.5,11.15,11.15,0,0,0,4.1-8.7c0-4.9-1.3-8.5-3.8-10.7s-6.2-3.4-10.8-3.4H92.7V100.2Z"/></svg>