<?xml version="1.0" encoding="UTF-8"?>
<svg xmlns="http://www.w3.org/2000/svg" onmouseup="{ if(window.parent.document.onmouseup) window.parent.document.onmouseup(arguments[0]);}" xml:space="preserve" enable-background="new 0 0 211 211" viewBox="0 0 211 211" y="0px" x="0px" id="Capa_32" version="1.1" xmlns:xlink="http://www.w3.org/1999/xlink"><circle data-cppathid="10000" r="105.5" cy="105.5" cx="105.5" fill="#0099A8"/><path data-cppathid="10001" d="M111.1,58c3.5,0,7,0.3,10.4,1c3.5,0.8,6.9,1.9,10.2,3.2l-4,17.1c-3.2-1-6-1.7-8.4-2.2  c-2.7-0.5-5.4-0.8-8.1-0.7c-5.3-0.2-10.4,2.1-13.8,6.1c-3.5,4.1-5.2,10.2-5.2,18.2v1c2.7-2.6,5.9-4.6,9.4-5.9  c4-1.4,8.2-2.1,12.5-2.1c8.7,0,15.4,3.1,20.1,9.4s7.1,14.5,7.1,24.5c0,9.9-3.3,18.1-9.9,24.5c-6.6,6.4-15.1,9.6-25.4,9.6  c-11.1,0-20-3.6-26.9-10.9c-6.8-7.3-10.2-17.2-10.2-29.8v-20.3c0-13.3,3.9-23.8,11.8-31.4S98.7,58.1,111.1,58z M106.3,111.6  c-2.9-0.1-5.8,0.4-8.5,1.3c-2.1,0.7-4.1,2-5.6,3.7v4.5c0,7.3,1.2,12.9,3.6,16.8c2,3.7,5.9,5.9,10.1,5.9c3.5,0,6.7-1.7,8.6-4.7  c2.3-3.4,3.5-7.4,3.3-11.5c0-5.1-1.1-9-3.2-11.9C112.8,113.2,109.7,111.6,106.3,111.6z" fill="#FFFFFF"/></svg>