<?xml version="1.0" encoding="UTF-8"?>
<svg xmlns="http://www.w3.org/2000/svg" onmouseup="{ if(window.parent.document.onmouseup) window.parent.document.onmouseup(arguments[0]);}" viewBox="0 0 211 211" data-name="Capa 31" id="Capa_31"><circle data-cppathid="10000" fill="#0099a8" r="105.5" cy="105.5" cx="105.5"/><path data-cppathid="10001" fill="#fff" d="M72.1,116.1,78,59.5h59.1V77.7H97l-2.6,21a24.69,24.69,0,0,1,7.2-3.3,39.07,39.07,0,0,1,9.6-1.4c9.4-.2,16.6,2.7,21.7,8.6s7.6,14.4,7.6,25.3c0,9.8-2.8,17.9-8.5,24.3s-14.5,9.7-26.6,9.7c-9.6,0-18-2.5-25.1-7.6s-10.5-11.8-10.2-20.1l.1-.4,23-1.4a10.67,10.67,0,0,0,3.4,8.4,13.26,13.26,0,0,0,8.9,3.1c4.4,0,7.4-1.3,9.1-3.9s2.6-6.6,2.6-11.9c0-5.5-1-9.9-3-13.1s-5.1-4.8-9.4-4.8a13,13,0,0,0-7.5,2,10.68,10.68,0,0,0-4,5.1Z"/></svg>