<?xml version="1.0" encoding="UTF-8"?>
<svg xmlns="http://www.w3.org/2000/svg" onmouseup="{ if(window.parent.document.onmouseup) window.parent.document.onmouseup(arguments[0]);}" viewBox="0 0 54.59 71.48"><g id="TXT"><g data-name="Sponsor de Datos" id="Sponsor_de_Datos"><path data-cppathid="10000" fill="#fff" transform="translate(-0.01 0.01)" d="M17.94,57a1,1,0,0,0-.22-.65,2.07,2.07,0,0,0-.79-.46,3.22,3.22,0,0,1-1.23-.64,1.34,1.34,0,0,1-.43-1.05A1.46,1.46,0,0,1,15.74,53,1.75,1.75,0,0,1,17,52.61a1.71,1.71,0,0,1,1.27.48,1.64,1.64,0,0,1,.46,1.22v0h-.76a1.2,1.2,0,0,0-.27-.81.86.86,0,0,0-.7-.31.8.8,0,0,0-.65.27.93.93,0,0,0-.23.66.82.82,0,0,0,.24.61,2.24,2.24,0,0,0,.83.46,2.82,2.82,0,0,1,1.18.67,1.55,1.55,0,0,1-.07,2.17,1.88,1.88,0,0,1-1.25.41A2,2,0,0,1,15.69,58a1.46,1.46,0,0,1-.53-1.27v0h.77a1.13,1.13,0,0,0,.31.87,1.05,1.05,0,0,0,.76.28.93.93,0,0,0,.69-.25A.91.91,0,0,0,17.94,57Z"/><path data-cppathid="10001" fill="#fff" transform="translate(-0.01 0.01)" d="M22.54,56.4a2.69,2.69,0,0,1-.37,1.5,1.2,1.2,0,0,1-1,.56,1.15,1.15,0,0,1-1-.49v2h-.8V54.15h.68l.07.51a1.37,1.37,0,0,1,.42-.44,1.13,1.13,0,0,1,.59-.15,1.18,1.18,0,0,1,1,.61,3.12,3.12,0,0,1,.37,1.63Zm-.79-.09a2.78,2.78,0,0,0-.21-1.17.67.67,0,0,0-.63-.45.73.73,0,0,0-.45.14,1,1,0,0,0-.29.4v2.13a.91.91,0,0,0,.29.37.8.8,0,0,0,.45.13.69.69,0,0,0,.63-.4,2.3,2.3,0,0,0,.21-1.06Z"/><path data-cppathid="10002" fill="#fff" transform="translate(-0.01 0.01)" d="M23,56.22a2.59,2.59,0,0,1,.44-1.55,1.45,1.45,0,0,1,1.23-.6,1.44,1.44,0,0,1,1.22.6,2.52,2.52,0,0,1,.45,1.55v.1a2.49,2.49,0,0,1-.45,1.54,1.42,1.42,0,0,1-1.21.6,1.46,1.46,0,0,1-1.24-.6A2.55,2.55,0,0,1,23,56.32Zm.8.1A2.56,2.56,0,0,0,24,57.43a.73.73,0,0,0,.67.43.71.71,0,0,0,.65-.44,2.48,2.48,0,0,0,.21-1.1v-.1a2.37,2.37,0,0,0-.22-1.1.69.69,0,0,0-.65-.44.72.72,0,0,0-.66.44,2.51,2.51,0,0,0-.21,1.1Z"/><path data-cppathid="10003" fill="#fff" transform="translate(-0.01 0.01)" d="M27.65,54.15l0,.63a1.3,1.3,0,0,1,.46-.52,1.11,1.11,0,0,1,1.49.23A2.09,2.09,0,0,1,30,55.77v2.61h-.79v-2.6a1.62,1.62,0,0,0-.17-.85.57.57,0,0,0-.5-.24.79.79,0,0,0-.47.14,1,1,0,0,0-.31.39v3.16h-.8V54.15Z"/><path data-cppathid="10004" fill="#fff" transform="translate(-0.01 0.01)" d="M32.71,57.31a.57.57,0,0,0-.17-.41,2.33,2.33,0,0,0-.62-.38,3,3,0,0,1-1-.53.94.94,0,0,1-.33-.74,1.06,1.06,0,0,1,.4-.83,1.65,1.65,0,0,1,2.07,0,1.17,1.17,0,0,1,.38.91v0h-.76a.76.76,0,0,0-.18-.51.58.58,0,0,0-.48-.22.69.69,0,0,0-.48.17.54.54,0,0,0-.17.4.5.5,0,0,0,.15.38,2.62,2.62,0,0,0,.63.35,3,3,0,0,1,1,.55,1,1,0,0,1,.33.77,1.07,1.07,0,0,1-.41.86,1.6,1.6,0,0,1-1.06.33,1.5,1.5,0,0,1-1.11-.4,1.13,1.13,0,0,1-.39-.93v0h.74a.75.75,0,0,0,.24.59.8.8,0,0,0,.54.18.69.69,0,0,0,.49-.16A.52.52,0,0,0,32.71,57.31Z"/><path data-cppathid="10005" fill="#fff" transform="translate(-0.01 0.01)" d="M33.91,56.22a2.59,2.59,0,0,1,.44-1.55,1.55,1.55,0,0,1,2.45,0,2.52,2.52,0,0,1,.45,1.55v.1a2.49,2.49,0,0,1-.45,1.54,1.44,1.44,0,0,1-1.22.6,1.45,1.45,0,0,1-1.23-.6,2.55,2.55,0,0,1-.44-1.54Zm.79.1a2.55,2.55,0,0,0,.22,1.11.72.72,0,0,0,.66.43.69.69,0,0,0,.65-.44,2.34,2.34,0,0,0,.22-1.1v-.1a2.37,2.37,0,0,0-.22-1.1.69.69,0,0,0-.65-.44.71.71,0,0,0-.66.44,2.5,2.5,0,0,0-.22,1.1Z"/><path data-cppathid="10006" fill="#fff" transform="translate(-0.01 0.01)" d="M39.66,54.81l-.35,0a.59.59,0,0,0-.41.15,1,1,0,0,0-.26.42v3h-.8V54.15h.74l.05.62a1.23,1.23,0,0,1,.36-.51.71.71,0,0,1,.5-.19h.14l.12,0Z"/><path data-cppathid="10007" fill="#fff" transform="translate(-0.01 0.01)" d="M14.74,65.91a3.06,3.06,0,0,1,.37-1.62,1.15,1.15,0,0,1,1-.62,1.09,1.09,0,0,1,.54.14,1.26,1.26,0,0,1,.41.39V61.88h.79V68h-.65l-.09-.51a1.21,1.21,0,0,1-.43.44,1.09,1.09,0,0,1-.58.15,1.16,1.16,0,0,1-1-.57A2.63,2.63,0,0,1,14.74,66Zm.79.09a2.38,2.38,0,0,0,.19,1,.68.68,0,0,0,.63.4.72.72,0,0,0,.45-.15,1,1,0,0,0,.3-.39v-2a1.12,1.12,0,0,0-.31-.42.67.67,0,0,0-.44-.15.65.65,0,0,0-.62.45,2.8,2.8,0,0,0-.2,1.17Z"/><path data-cppathid="10008" fill="#fff" transform="translate(-0.01 0.01)" d="M20.19,68.06A1.47,1.47,0,0,1,19,67.48a2.39,2.39,0,0,1-.44-1.5v-.19A2.45,2.45,0,0,1,19,64.27a1.4,1.4,0,0,1,1.17-.6,1.27,1.27,0,0,1,1.09.51,2.22,2.22,0,0,1,.38,1.38V66H19.3a2.1,2.1,0,0,0,.23,1,.77.77,0,0,0,.71.41,1.43,1.43,0,0,0,.58-.11,1.52,1.52,0,0,0,.46-.3l.25.49a1.61,1.61,0,0,1-.55.37A2,2,0,0,1,20.19,68.06Zm-.07-3.78a.63.63,0,0,0-.55.32,1.89,1.89,0,0,0-.26.84h1.5v-.09a1.57,1.57,0,0,0-.17-.77A.56.56,0,0,0,20.12,64.28Z"/><path data-cppathid="10009" fill="#fff" transform="translate(-0.01 0.01)" d="M23.6,65.91A3.06,3.06,0,0,1,24,64.29a1.15,1.15,0,0,1,1-.62,1.09,1.09,0,0,1,.54.14,1.26,1.26,0,0,1,.41.39V61.88h.79V68H26.1L26,67.47a1.21,1.21,0,0,1-.43.44,1.09,1.09,0,0,1-.58.15,1.16,1.16,0,0,1-1-.57A2.63,2.63,0,0,1,23.6,66Zm.79.09a2.38,2.38,0,0,0,.19,1,.68.68,0,0,0,.63.4.72.72,0,0,0,.45-.15,1,1,0,0,0,.3-.39v-2a1.12,1.12,0,0,0-.31-.42.67.67,0,0,0-.44-.15.65.65,0,0,0-.62.45,2.8,2.8,0,0,0-.2,1.17Z"/><path data-cppathid="10010" fill="#fff" transform="translate(-0.01 0.01)" d="M29.72,68a2.85,2.85,0,0,1-.08-.35c0-.1,0-.2,0-.29a1.55,1.55,0,0,1-.44.51,1,1,0,0,1-.63.21,1.09,1.09,0,0,1-.87-.34,1.32,1.32,0,0,1-.3-.92,1.16,1.16,0,0,1,.42-.94A1.79,1.79,0,0,1,29,65.52h.65v-.43a.94.94,0,0,0-.18-.61.58.58,0,0,0-.49-.21.62.62,0,0,0-.46.18.72.72,0,0,0-.17.48h-.75v0a1.06,1.06,0,0,1,.38-.86A1.5,1.5,0,0,1,29,63.67,1.41,1.41,0,0,1,30,64a1.39,1.39,0,0,1,.39,1v2a3.75,3.75,0,0,0,0,.48c0,.15.06.3.1.45Zm-1-.53a.93.93,0,0,0,.58-.2,1,1,0,0,0,.33-.49V66h-.66a.75.75,0,0,0-.58.23.83.83,0,0,0-.21.56.73.73,0,0,0,.14.47A.49.49,0,0,0,28.69,67.45Z"/><path data-cppathid="10011" fill="#fff" transform="translate(-0.01 0.01)" d="M32.16,62.7v1h.66v.57h-.66v2.51a.8.8,0,0,0,.1.47.31.31,0,0,0,.26.14h.13l.13,0,.09.55-.26.09a1.27,1.27,0,0,1-.28,0,.87.87,0,0,1-.71-.3,1.38,1.38,0,0,1-.26-.93V64.32H30.8v-.57h.56v-1Z"/><path data-cppathid="10012" fill="#fff" transform="translate(-0.01 0.01)" d="M33.22,65.82a2.59,2.59,0,0,1,.44-1.55,1.55,1.55,0,0,1,2.45,0,2.52,2.52,0,0,1,.45,1.55v.1a2.47,2.47,0,0,1-.45,1.54,1.42,1.42,0,0,1-1.22.6,1.45,1.45,0,0,1-1.23-.6,2.53,2.53,0,0,1-.44-1.54Zm.79.1A2.55,2.55,0,0,0,34.23,67a.72.72,0,0,0,.66.43.7.7,0,0,0,.65-.43,2.41,2.41,0,0,0,.22-1.11v-.1a2.37,2.37,0,0,0-.22-1.1.69.69,0,0,0-.65-.44.71.71,0,0,0-.66.44,2.5,2.5,0,0,0-.22,1.1Z"/><path data-cppathid="10013" fill="#fff" transform="translate(-0.01 0.01)" d="M39.16,66.91A.6.6,0,0,0,39,66.5a2.26,2.26,0,0,0-.63-.38,3.14,3.14,0,0,1-1-.53.93.93,0,0,1-.32-.74,1.06,1.06,0,0,1,.39-.83,1.65,1.65,0,0,1,2.07,0,1.13,1.13,0,0,1,.38.91v0h-.77a.76.76,0,0,0-.18-.51.58.58,0,0,0-.48-.22.69.69,0,0,0-.48.17.56.56,0,0,0-.17.4.5.5,0,0,0,.15.38,2.62,2.62,0,0,0,.63.35,3,3,0,0,1,1,.55,1,1,0,0,1,.33.77,1.06,1.06,0,0,1-.4.86,1.64,1.64,0,0,1-1.06.33,1.51,1.51,0,0,1-1.12-.4,1.16,1.16,0,0,1-.39-.93v0h.73a.75.75,0,0,0,.24.59.8.8,0,0,0,.54.18.69.69,0,0,0,.49-.16A.52.52,0,0,0,39.16,66.91Z"/></g></g><g id="IMG"><g id="conference"><path data-cppathid="10014" fill="#fff" transform="translate(-0.01 0.01)" d="M31.44,25.77v4a5.89,5.89,0,0,1-4.31,2,5.93,5.93,0,0,1-4.32-2v-4a9.35,9.35,0,0,1-.87-.91v4.9a2.77,2.77,0,0,1,.27.67,6.47,6.47,0,0,0,9.1.74,6.79,6.79,0,0,0,.87-.91,2.72,2.72,0,0,1,.13-.37v-5A9.35,9.35,0,0,1,31.44,25.77Z"/><path data-cppathid="10015" fill="#fff" transform="translate(-0.01 0.01)" d="M34.9,17.86h0a.86.86,0,0,0-.86.82c-.24,4-3.78,8.26-6.91,8.26s-6.66-4.25-6.91-8.27a.87.87,0,0,0-.87-.81h0a.86.86,0,0,1-.86-.86v.87a.87.87,0,0,0,.86.87h0c.25,4.2,4,9.07,7.78,9.07s7.5-4.87,7.77-9.07h0a.86.86,0,0,0,.86-.87v-.95a.85.85,0,0,1-.78.94Z"/><path data-cppathid="10016" fill="#fff" transform="translate(-0.01 0.01)" d="M35.76,10.1c0-2.52-.43-6-3.45-6-1.26-1.47-3.46-1.72-6.05-1.72-6.47,0-7.77,3.88-7.77,7.77,0,.51.11,2.72.35,4.52A16.13,16.13,0,0,0,19.35,17c0-2.54.58-3.65.87-6.05.1-.82.18-1.09.42-1.09.48,0,1.59,1.09,4.76,1.09,3.76,0,5.77-2.28,7-2.28a.86.86,0,0,1,.8.56C34.9,12.26,34.9,14,34.9,17a20,20,0,0,0,.52-2.39C35.6,13.34,35.76,10.61,35.76,10.1Zm-.86.66a16.22,16.22,0,0,0-1-2,1.71,1.71,0,0,0-1.55-1,4.56,4.56,0,0,0-2.08.79,9.57,9.57,0,0,1-4.89,1.49,8.22,8.22,0,0,1-3.81-.8,2.3,2.3,0,0,0-1-.3c-1,0-1.19,1.1-1.28,1.83V10.1c0-4.78,2.13-6.91,6.91-6.91,2.5,0,4.38.24,5.39,1.43l.26.3h.4c.63,0,2.59,0,2.59,5.18,0,.22,0,.45,0,.66Z"/><path data-cppathid="10017" fill="#fff" transform="translate(-0.01 0.01)" d="M34.9,14.85h-1a.84.84,0,0,0-.68-.55l-1.31-.19a7.3,7.3,0,0,0-.94-.06,6.74,6.74,0,0,0-.77,0l-1.73.21a.76.76,0,0,0-.63.55H26.47a.76.76,0,0,0-.63-.55l-1.73-.21a6.51,6.51,0,0,0-.77,0,7.42,7.42,0,0,0-.94.06l-1.31.19a.84.84,0,0,0-.68.55h-1v.86h1l.21,1.52a1.09,1.09,0,0,0,1,.87l1.31.13a3.64,3.64,0,0,0,.66,0,6.2,6.2,0,0,0,1.05-.09L25,18a1.24,1.24,0,0,0,1-.79l.44-1.54a.61.61,0,0,1,.65-.43.6.6,0,0,1,.65.43l.44,1.54a1.33,1.33,0,0,0,1.05.86h.47a4.51,4.51,0,0,0,1,.06,4.89,4.89,0,0,0,.66-.05L32.75,18c.47-.07.91-.3,1-.77l.21-1.52h1Zm-8.84.3-.44,1.78a1,1,0,0,1-.72.68l-.47.1a6.12,6.12,0,0,1-1,.08,5.8,5.8,0,0,1-.59,0l-1.32-.19A.78.78,0,0,1,21,17l-.22-1.73a.46.46,0,0,1,.38-.5l1.32-.21a8.1,8.1,0,0,1,.86-.06,5.81,5.81,0,0,1,.72,0l1.73.21a.32.32,0,0,1,.24.14A.31.31,0,0,1,26.06,15.15ZM33.28,17a.76.76,0,0,1-.59.6l-1.31.19a3,3,0,0,1-.6,0,4.45,4.45,0,0,1-1-.08l-.47-.09a1.11,1.11,0,0,1-.72-.68l-.44-1.78a.34.34,0,0,1,0-.28.32.32,0,0,1,.24-.14l1.73-.21a5.81,5.81,0,0,1,.72-.05,8.46,8.46,0,0,1,.87.05l1.31.19a.46.46,0,0,1,.38.51Z"/><path data-cppathid="10018" fill="#fff" transform="translate(-0.01 0.01)" d="M45.32,24.14l-1-.63a2,2,0,0,1-.17.4,1.75,1.75,0,0,1-.28.33l1,.64a3,3,0,0,1,1.27,2.28V37.52H47V27.16A3.9,3.9,0,0,0,45.32,24.14Z"/><path data-cppathid="10019" fill="#fff" transform="translate(-0.01 0.01)" d="M42.67,25.16a2.16,2.16,0,0,1-1.1-.34l-3-1.88a2.16,2.16,0,1,1,2.3-3.66l3,1.89a2.14,2.14,0,0,1,1,1.34,2.16,2.16,0,0,1-2.15,2.65Zm-3-5.35a1.3,1.3,0,0,0-.68,2.4l3,1.89a1.32,1.32,0,0,0,1.78-.42,1.3,1.3,0,0,0-.41-1.78h0l-3-1.9A1.44,1.44,0,0,0,39.65,19.81Z"/><path data-cppathid="10020" fill="#fff" transform="translate(-0.01 0.01)" d="M48.72,40.11v3.45H5.54V40.11H48.72m.86-.86H4.67v5.18H49.58Z"/><path data-cppathid="10021" fill="#fff" transform="translate(-0.01 0.01)" d="M49.58,37.52v1.73H4.67V37.52H49.58m.86-.87H3.81v3.46H50.44Z"/><rect data-cppathid="10022" fill="#fff" height="6.59" width="0.86" y="43.89" x="7.25"/><rect data-cppathid="10023" fill="#fff" height="6.59" width="0.86" y="43.89" x="46.11"/><path data-cppathid="10024" fill="#fff" transform="translate(-0.01 0.01)" d="M11.12,37.52,10,36.79a13.54,13.54,0,0,1,.09-2.38l.22-1.31a3.16,3.16,0,0,1,2.29-2.36l4.19-.86v1.36l1.73.86L17.2,33.83l2.87,3.67h1.11l-2.93-3.67.86-1.19.62-.86-2.17-1.09v-1.4L21.3,28l2.75,9.5h.87l-1.79-6.15a6.38,6.38,0,0,0,7.77,0l-1.68,6.13h.87L32.85,28l3.74,1.25V30.7l-1.25.63-.89.49.62.86.87,1.2-2.85,3.64h1.1l2.87-3.67-1.3-1.73,1.73-.86V29.89l4.2.87A3.23,3.23,0,0,1,44,33.11l.18,1.3a13.62,13.62,0,0,1,.09,2.39l-1.16.73h1.49l.54-.35A22.16,22.16,0,0,0,45,34.27L44.79,33a4,4,0,0,0-3-3.07L37.46,29v-.35L32.27,27l-.86,2.86a5.62,5.62,0,0,1-7.92.72,6.12,6.12,0,0,1-.72-.72L21.91,27l-5.18,1.72V29l-4.37.86A4,4,0,0,0,9.4,33l-.23,1.31c-.07.44-.14,2.1-.14,2.89l.58.36Z"/></g></g><g id="Borde"><path data-cppathid="10025" fill="#00ffd3" transform="translate(-0.01 0.01)" d="M47.61,1a6,6,0,0,1,6,6v57.5a6,6,0,0,1-6,6H7a6,6,0,0,1-6-6V7A6,6,0,0,1,7,1H47.61m0-1H7A7,7,0,0,0,0,7v57.5a7,7,0,0,0,7,7H47.61a7,7,0,0,0,7-7V7a7,7,0,0,0-7-7Z"/></g></svg>