<?xml version="1.0" encoding="UTF-8"?>
<svg xmlns="http://www.w3.org/2000/svg" onmouseup="{ if(window.parent.document.onmouseup) window.parent.document.onmouseup(arguments[0]);}" xml:space="preserve" enable-background="new 0 0 512 478" viewBox="0 0 512 478" y="0px" x="0px" id="over" version="1.1" xmlns:xlink="http://www.w3.org/1999/xlink"><g id="alerta"><rect data-cppathid="10000" height="478" width="512" fill="#333E48"/><circle data-cppathid="10001" r="216.1" cy="239" cx="256" stroke-dasharray="0,15" stroke-linejoin="round" stroke-linecap="round" stroke-width="4" stroke="#F7A800" fill="none"/><g><path data-cppathid="10002" d="M125.5,297.7v7.2h-4V285h7.6c2.3,0,4.1,0.6,5.4,1.7c2.5,2.4,2.6,6.4,0.2,9c-0.1,0.1-0.1,0.1-0.2,0.2    c-1.3,1.2-3.1,1.7-5.4,1.7L125.5,297.7L125.5,297.7z M125.5,294.6h3.6c0.9,0.1,1.9-0.3,2.5-0.9s0.9-1.5,0.9-2.3    c0-0.9-0.3-1.7-0.9-2.4c-0.7-0.7-1.6-1-2.5-0.9h-3.6L125.5,294.6z" fill="#FFFFFF"/><path data-cppathid="10003" d="M150.7,296.2h-7.4v5.7h8.8v3.1h-12.8v-20H152v3.1h-8.7v5h7.4V296.2z" fill="#FFFFFF"/><path data-cppathid="10004" d="M159,297v8h-4v-20h6.9c2.3,0,4,0.5,5.3,1.6s2,2.7,1.9,4.3c0,0.9-0.3,1.9-0.8,2.6c-0.6,0.8-1.4,1.4-2.4,1.8    c1,0.2,1.9,0.9,2.5,1.7c0.5,0.9,0.8,2,0.8,3v1.4c0,0.6,0.1,1.2,0.2,1.7c0.1,0.5,0.4,1,0.8,1.3v0.3h-4.1c-0.4-0.4-0.7-0.9-0.7-1.4    c-0.1-0.6-0.2-1.3-0.2-2v-1.4c0.1-0.9-0.2-1.7-0.8-2.3c-0.6-0.6-1.5-0.9-2.3-0.8L159,297z M159,293.9h2.8c0.9,0.1,1.8-0.2,2.5-0.7    c0.6-0.5,0.9-1.3,0.8-2.1c0-0.8-0.3-1.6-0.8-2.2c-0.7-0.6-1.5-0.9-2.4-0.8H159V293.9z" fill="#FFFFFF"/><path data-cppathid="10005" d="M188.9,296.8c0.1,2.2-0.8,4.4-2.3,6.1c-3.4,3.2-8.6,3.2-12,0c-1.5-1.6-2.4-3.8-2.3-6.1v-3.6    c-0.1-2.2,0.8-4.4,2.3-6c1.6-1.6,3.7-2.5,6-2.4c2.3-0.1,4.4,0.8,6,2.4s2.4,3.8,2.3,6V296.8z M184.9,293.2c0.1-1.4-0.4-2.7-1.2-3.8    c-0.8-1-2-1.5-3.2-1.5c-1.2-0.1-2.4,0.5-3.2,1.5c-0.8,1.1-1.2,2.4-1.1,3.8v3.6c-0.1,1.4,0.3,2.7,1.1,3.8c0.7,1,1.9,1.5,3.2,1.5    c1.2,0.1,2.4-0.5,3.2-1.5c0.8-1.1,1.2-2.5,1.1-3.8L184.9,293.2L184.9,293.2z" fill="#FFFFFF"/><path data-cppathid="10006" d="M215.1,304.9h-4l-8-13.4H203v13.4h-4V285h4l8,13.4h0.1V285h4V304.9z" fill="#FFFFFF"/><path data-cppathid="10007" d="M234.9,296.8c0.1,2.2-0.8,4.4-2.3,6.1c-3.4,3.2-8.6,3.2-12,0c-1.5-1.6-2.4-3.8-2.3-6.1v-3.6    c-0.1-2.2,0.8-4.4,2.3-6c1.6-1.6,3.7-2.5,6-2.4c2.3-0.1,4.4,0.8,6,2.4s2.4,3.8,2.3,6V296.8z M230.9,293.2c0.1-1.4-0.4-2.7-1.2-3.8    c-0.8-1-2-1.5-3.2-1.5c-1.2-0.1-2.4,0.5-3.1,1.5c-0.8,1.1-1.2,2.4-1.1,3.8v3.6c-0.1,1.4,0.3,2.7,1.1,3.8c0.7,1,1.9,1.5,3.2,1.5    c1.2,0.1,2.4-0.5,3.2-1.5c0.8-1.1,1.2-2.5,1.1-3.8V293.2z" fill="#FFFFFF"/><path data-cppathid="10008" d="M249,297.7v7.2h-4V285h7.6c2.3,0,4.1,0.6,5.4,1.7c2.5,2.4,2.6,6.4,0.2,9c-0.1,0.1-0.1,0.1-0.2,0.2    c-1.3,1.2-3.1,1.7-5.4,1.7L249,297.7L249,297.7z M249,294.6h3.6c0.9,0.1,1.8-0.3,2.5-0.9c0.6-0.6,0.9-1.5,0.9-2.3    c0-0.9-0.3-1.7-0.9-2.4c-0.7-0.7-1.6-1-2.5-0.9H249V294.6z" fill="#FFFFFF"/><path data-cppathid="10009" d="M270.8,300.6h-6.5l-1.3,4.3h-4.2l6.7-19.9h4.1l6.7,19.9h-4.2L270.8,300.6z M265.3,297.5h4.5l-2.2-7h-0.1    L265.3,297.5z" fill="#FFFFFF"/><path data-cppathid="10010" d="M288.6,299.7c0-0.7-0.3-1.4-0.8-1.8c-0.8-0.6-1.8-1.1-2.8-1.3c-2.3-0.7-4-1.5-5.2-2.4s-1.8-2.3-1.8-3.8    c0-1.6,0.7-3.1,2-4c1.5-1.1,3.3-1.6,5.1-1.6c2.2,0,4,0.6,5.3,1.7s2,2.7,2,4.4v0.1h-3.8c0.1-0.9-0.3-1.7-0.9-2.3    c-0.7-0.6-1.6-0.9-2.5-0.8c-0.8-0.1-1.6,0.2-2.3,0.7c-0.5,0.5-0.8,1.1-0.8,1.8c0,0.7,0.3,1.3,0.9,1.7c0.9,0.6,2,1.1,3,1.4    c2.2,0.6,3.9,1.4,5,2.4s1.8,2.4,1.7,3.9c0.1,1.6-0.7,3.1-2,4c-1.3,1-3.1,1.5-5.3,1.5c-2,0.1-3.9-0.5-5.5-1.6    c-1.5-1.1-2.3-2.7-2.2-4.8v-0.1h3.9c0,1.2,0.3,2,1,2.6c0.8,0.6,1.8,0.9,2.8,0.8c0.9,0.1,1.7-0.2,2.4-0.7    C288.3,301.1,288.6,300.4,288.6,299.7z" fill="#FFFFFF"/><path data-cppathid="10011" d="M305.9,300.6h-6.5l-1.3,4.3h-4.2l6.7-19.9h4.1l6.7,19.9h-4.2L305.9,300.6z M300.4,297.5h4.5l-2.2-7h-0.1    L300.4,297.5z" fill="#FFFFFF"/><path data-cppathid="10012" d="M336.4,304.9h-4l-8-13.4h-0.1v13.4h-4V285h4l8,13.4h0.1V285h4V304.9z" fill="#FFFFFF"/><path data-cppathid="10013" d="M350.6,300.6h-6.4l-1.3,4.3h-4.2l6.7-19.9h4.1l6.7,19.9H352L350.6,300.6z M345.2,297.5h4.5l-2.2-7h-0.1    L345.2,297.5z" fill="#FFFFFF"/><path data-cppathid="10014" d="M358.1,304.9V285h7c2.2-0.1,4.4,0.8,6,2.3c1.6,1.6,2.4,3.7,2.4,6v3.3c0.1,2.2-0.8,4.4-2.4,6    c-1.6,1.5-3.8,2.4-6,2.3L358.1,304.9L358.1,304.9z M362.1,288.1v13.8h3c1.2,0,2.4-0.5,3.2-1.5c0.8-1.1,1.3-2.4,1.2-3.8v-3.3    c0.1-1.4-0.4-2.7-1.2-3.7c-0.8-1-1.9-1.5-3.2-1.4L362.1,288.1z" fill="#FFFFFF"/><path data-cppathid="10015" d="M386.7,300.6h-6.4l-1.3,4.3h-4.2l6.7-19.9h4.1l6.7,19.9h-4.2L386.7,300.6z M381.2,297.5h4.5l-2.2-7h-0.1    L381.2,297.5z" fill="#FFFFFF"/></g><g><path data-cppathid="10016" d="M122.5,265.1h-3.4v-3h3.4V265.1z M122.5,279h-3.4v-11h3.4V279z" fill="#E75300"/><path data-cppathid="10017" d="M139.1,257.8v11c0.1,1.7-0.6,3.3-1.9,4.5c-1.4,1.1-3.1,1.7-4.9,1.6c-1.8,0.1-3.5-0.5-4.9-1.6    c-1.3-1.1-2-2.8-1.9-4.5v-11h3.4v11c-0.1,0.9,0.3,1.9,0.9,2.6c0.7,0.6,1.5,0.9,2.4,0.9s1.8-0.3,2.5-0.9c0.6-0.7,1-1.6,0.9-2.6v-11    H139.1z" fill="#E75300"/><path data-cppathid="10018" d="M142.7,274.6v-10.2h-1.9V262h1.9v-1.4c-0.1-1.2,0.4-2.4,1.2-3.3c0.8-0.8,2-1.1,3.4-1.1    c0.3,0,0.6,0,0.9,0.1c0.3,0,0.6,0.1,1,0.2l-0.3,2.5c-0.2,0-0.4-0.1-0.5-0.1c-0.2,0-0.4,0-0.6,0c-0.5,0-0.9,0.1-1.2,0.5    s-0.5,0.8-0.4,1.3v1.4h2.4v2.4h-2.4v10.2L142.7,274.6z" fill="#E75300"/><path data-cppathid="10019" d="M153.6,274.5l-1.8,3.7h-2.3l0.8-3.8v-2.6h3.3V274.5z" fill="#E75300"/><path data-cppathid="10020" d="M167.6,274.9c-1.9,0-3.3-0.6-4.4-1.7c-1.1-1.2-1.6-2.8-1.6-4.4v-0.5c-0.1-1.7,0.5-3.3,1.5-4.6    c1.1-1.2,2.6-1.9,4.2-1.8c1.7,0,3,0.5,3.9,1.5s1.3,2.4,1.3,4.2v1.7H165v0.1c0,0.8,0.3,1.5,0.8,2.1s1.3,0.9,2.1,0.8    c0.6,0,1.3-0.1,1.9-0.2c0.6-0.2,1.1-0.4,1.6-0.7l0.9,2.1c-0.6,0.5-1.3,0.8-2,1C169.5,274.7,168.5,274.9,167.6,274.9z M167.4,264.5    c-0.6,0-1.2,0.2-1.6,0.7c-0.4,0.5-0.6,1.2-0.7,1.9v0.1h4.1v-0.3c0-0.6-0.1-1.2-0.5-1.7C168.5,264.7,167.9,264.4,167.4,264.5z" fill="#E75300"/><path data-cppathid="10021" d="M181.3,271.2c0-0.4-0.2-0.7-0.5-1c-0.6-0.4-1.3-0.6-2-0.7c-1.2-0.2-2.4-0.6-3.4-1.3    c-0.7-0.6-1.2-1.5-1.1-2.4c0-1.1,0.5-2.1,1.4-2.7c1-0.8,2.3-1.2,3.6-1.1c1.4-0.1,2.7,0.3,3.8,1.1c0.9,0.7,1.4,1.7,1.4,2.8v0.1    h-3.3c0-0.5-0.2-0.9-0.5-1.2c-0.4-0.3-0.9-0.5-1.4-0.5s-0.9,0.1-1.3,0.4c-0.3,0.2-0.5,0.6-0.5,1s0.2,0.7,0.5,1    c0.6,0.3,1.3,0.6,2,0.7c1.2,0.2,2.4,0.7,3.4,1.4c0.8,0.6,1.2,1.5,1.1,2.5c0,1.1-0.5,2.1-1.4,2.8c-1.1,0.8-2.5,1.1-3.8,1.1    c-1.7,0-3-0.4-4-1.3c-0.9-0.7-1.4-1.8-1.4-2.9v-0.1h3.1c0,0.6,0.2,1.1,0.7,1.4s1.1,0.5,1.6,0.5s1-0.1,1.4-0.4    C181.1,272,181.3,271.6,181.3,271.2z" fill="#E75300"/><path data-cppathid="10022" d="M190.8,259v3.1h2.1v2.4h-2.1v6.4c0,0.4,0.1,0.7,0.3,1c0.2,0.2,0.5,0.3,0.8,0.3c0.2,0,0.3,0,0.5,0    c0.1,0,0.3-0.1,0.5-0.1l0.3,2.4c-0.3,0.1-0.7,0.2-1,0.3c-0.3,0.1-0.7,0.1-1,0.1c-1,0.1-2-0.3-2.7-1c-0.6-0.6-1-1.7-1-3.1v-6.4    h-1.8V262h1.8v-3H190.8z" fill="#E75300"/><path data-cppathid="10023" d="M202.5,274.6c-0.1-0.3-0.2-0.6-0.3-0.9s-0.2-0.6-0.2-1c-0.3,0.6-0.8,1.1-1.4,1.5c-0.6,0.4-1.3,0.6-2,0.6    c-1.1,0.1-2.2-0.3-3-1c-0.7-0.7-1.1-1.7-1.1-2.8c-0.1-1.1,0.5-2.2,1.4-2.9c1-0.7,2.3-1,4.1-1h1.9v-1c0-0.5-0.1-1-0.5-1.4    s-0.9-0.5-1.4-0.5s-0.9,0.1-1.3,0.4c-0.3,0.3-0.5,0.7-0.4,1.1H195v-0.1c0-1.1,0.5-2.1,1.4-2.7c1.1-0.8,2.5-1.2,3.8-1.2    c1.3-0.1,2.6,0.4,3.6,1.2c1,0.8,1.5,2,1.4,3.3v5.2c0,0.6,0,1.1,0.1,1.7c0.1,0.5,0.2,1,0.4,1.5L202.5,274.6z M199.4,272.4    c0.6,0,1.1-0.1,1.6-0.4c0.4-0.2,0.7-0.6,1-1v-1.8h-2c-0.6,0-1.2,0.1-1.6,0.5c-0.4,0.3-0.6,0.8-0.6,1.3c0,0.4,0.1,0.8,0.4,1    C198.5,272.3,198.9,272.4,199.4,272.4z" fill="#E75300"/><path data-cppathid="10024" d="M218.3,270l0.2,1.2h0.1l0.2-1.2l2.1-7.9h3.5l-4.3,12.5h-3.2l-4.3-12.5h3.5L218.3,270z" fill="#E75300"/><path data-cppathid="10025" d="M231.1,274.9c-1.9,0-3.3-0.6-4.4-1.7c-1.1-1.2-1.6-2.8-1.6-4.4v-0.5c-0.1-1.7,0.5-3.3,1.5-4.6    c1.1-1.2,2.6-1.9,4.2-1.8c1.7,0,3,0.5,3.9,1.5s1.3,2.4,1.3,4.2v1.7h-7.5v0.1c0,0.8,0.3,1.5,0.8,2.1s1.3,0.9,2.1,0.8    c0.6,0,1.3-0.1,1.9-0.2c0.6-0.2,1.1-0.4,1.6-0.7l0.9,2.1c-0.6,0.5-1.3,0.8-2,1C233,274.7,232.1,274.9,231.1,274.9z M230.9,264.5    c-0.6,0-1.2,0.2-1.6,0.7c-0.4,0.5-0.6,1.2-0.7,1.9v0.1h4.1v-0.3c0-0.6-0.1-1.2-0.5-1.7C232,264.7,231.5,264.4,230.9,264.5z" fill="#E75300"/><path data-cppathid="10026" d="M241.9,272h6.2v2.6h-10.4v-2l6-7.9h-5.8v-2.6h10v1.9L241.9,272z" fill="#E75300"/><path data-cppathid="10027" d="M259.3,262.1l0.1,1.8c0.4-0.6,0.9-1.1,1.5-1.5s1.3-0.5,2.1-0.5c1.1-0.1,2.2,0.4,3,1.2    c0.7,0.8,1.1,2.1,1.1,3.9v7.7h-3.4V267c0.1-0.7-0.1-1.4-0.5-1.9c-0.4-0.4-0.9-0.6-1.4-0.6s-0.9,0.1-1.3,0.3    c-0.4,0.2-0.7,0.4-1,0.8v9.1h-3.4v-12.5L259.3,262.1L259.3,262.1z" fill="#E75300"/><path data-cppathid="10028" d="M269,268.3c-0.1-1.7,0.5-3.3,1.6-4.6c1-1.2,2.5-1.8,4.3-1.8c1.6-0.1,3.2,0.6,4.4,1.8    c1.1,1.3,1.6,2.9,1.6,4.6v0.2c0.1,1.7-0.5,3.3-1.6,4.6c-1,1.2-2.5,1.8-4.3,1.8s-3.3-0.6-4.4-1.8c-1.1-1.3-1.6-2.9-1.6-4.6V268.3z     M272.4,268.5c0,1,0.2,1.9,0.6,2.8c0.7,1.1,2.1,1.3,3.2,0.6c0.3-0.2,0.5-0.4,0.6-0.6c0.4-0.8,0.7-1.8,0.6-2.7v-0.2    c0-0.9-0.2-1.9-0.6-2.7c-0.4-0.7-1.1-1.1-1.9-1.1s-1.5,0.4-1.9,1.1c-0.4,0.8-0.6,1.8-0.6,2.7L272.4,268.5z" fill="#E75300"/><path data-cppathid="10029" d="M296.3,274.6c-0.1-0.3-0.2-0.6-0.3-0.9c-0.1-0.3-0.2-0.6-0.2-1c-0.3,0.6-0.8,1.1-1.4,1.5s-1.3,0.6-2,0.6    c-1.1,0.1-2.2-0.3-3-1c-0.7-0.7-1.1-1.7-1.1-2.8c-0.1-1.1,0.5-2.2,1.4-2.9c1-0.7,2.3-1,4.1-1h1.9v-1c0-0.5-0.1-1-0.5-1.4    c-0.8-0.6-1.9-0.7-2.7-0.1c-0.3,0.3-0.5,0.7-0.4,1.1h-3.3v-0.1c0-1.1,0.5-2.1,1.4-2.7c1.1-0.8,2.5-1.2,3.8-1.2    c1.3-0.1,2.6,0.3,3.7,1.1c1,0.8,1.5,2,1.4,3.3v5.2c0,0.6,0,1.1,0.1,1.7c0.1,0.5,0.2,1,0.4,1.5L296.3,274.6z M293.2,272.4    c0.6,0,1.1-0.1,1.6-0.4c0.4-0.2,0.8-0.6,1-1v-1.8h-1.9c-0.6,0-1.2,0.1-1.6,0.5c-0.4,0.3-0.6,0.8-0.6,1.3c0,0.4,0.1,0.8,0.4,1    C292.4,272.3,292.8,272.4,293.2,272.4z" fill="#E75300"/><path data-cppathid="10030" d="M306.9,272.3c0.5,0,1-0.2,1.4-0.5c0.4-0.4,0.5-0.9,0.5-1.4h3.1v0.1c0,1.2-0.5,2.4-1.4,3.2    c-1,0.9-2.3,1.3-3.6,1.3c-1.9,0-3.3-0.6-4.3-1.8c-1-1.3-1.6-2.9-1.5-4.5v-0.4c-0.1-1.6,0.5-3.3,1.5-4.5s2.4-1.8,4.3-1.8    c1.4-0.1,2.7,0.4,3.7,1.3c0.9,0.9,1.4,2.2,1.4,3.5v0.1h-3.1c0-0.6-0.2-1.2-0.5-1.6s-0.9-0.7-1.4-0.6c-0.8-0.1-1.5,0.4-1.9,1.1    c-0.4,0.8-0.6,1.8-0.5,2.7v0.4c0,0.9,0.1,1.9,0.5,2.7C305.3,272,306.1,272.4,306.9,272.3z" fill="#E75300"/><path data-cppathid="10031" d="M319.3,274.9c-1.9,0-3.3-0.6-4.4-1.7c-1.1-1.2-1.6-2.8-1.6-4.4v-0.5c-0.1-1.7,0.5-3.3,1.5-4.6    c1.1-1.2,2.6-1.9,4.2-1.8c1.7,0,3,0.5,3.9,1.5s1.4,2.4,1.4,4.2v1.7h-7.5v0.1c0,0.8,0.3,1.5,0.8,2.1s1.3,0.9,2.1,0.8    c0.6,0,1.3-0.1,1.9-0.2c0.6-0.2,1.1-0.4,1.6-0.7l0.9,2.1c-0.6,0.5-1.3,0.8-2,1C321.2,274.7,320.3,274.9,319.3,274.9z M319.1,264.5    c-0.6,0-1.2,0.2-1.6,0.7s-0.6,1.2-0.7,1.9v0.1h4.1v-0.3c0-0.6-0.1-1.2-0.5-1.7C320.2,264.7,319.6,264.4,319.1,264.5z" fill="#E75300"/><path data-cppathid="10032" d="M332.9,265h-1.2c-0.4,0-0.9,0.1-1.2,0.3c-0.3,0.2-0.6,0.5-0.7,0.9v8.5h-3.4v-12.5h3.1l0.1,1.9    c0.3-0.6,0.6-1.1,1.1-1.5s1-0.6,1.6-0.6c0.2,0,0.3,0,0.5,0l0.4,0.1L332.9,265z" fill="#E75300"/><path data-cppathid="10033" d="M338.9,259v3.1h2.1v2.4h-2.1v6.4c0,0.4,0.1,0.7,0.3,1c0.2,0.2,0.5,0.3,0.8,0.3c0.2,0,0.3,0,0.5,0    c0.1,0,0.3-0.1,0.5-0.1l0.3,2.4c-0.3,0.1-0.7,0.2-1,0.3c-0.3,0.1-0.7,0.1-1,0.1c-1,0.1-2-0.3-2.7-1c-0.6-0.6-1-1.7-1-3.1v-6.4    h-1.8V262h1.8v-3H338.9z" fill="#E75300"/><path data-cppathid="10034" d="M350.5,274.6c-0.1-0.3-0.2-0.6-0.3-0.9c-0.1-0.3-0.2-0.6-0.2-1c-0.3,0.6-0.8,1.1-1.4,1.5s-1.3,0.6-2,0.6    c-1.1,0.1-2.2-0.3-3-1c-0.7-0.7-1.1-1.7-1.1-2.8c-0.1-1.1,0.5-2.2,1.4-2.9c1-0.7,2.3-1,4.1-1h1.9v-1c0-0.5-0.1-1-0.5-1.4    c-0.8-0.6-1.9-0.7-2.7-0.1c-0.3,0.3-0.5,0.7-0.4,1.1H343v-0.1c0-1.1,0.5-2.1,1.4-2.7c1.1-0.8,2.5-1.2,3.8-1.2    c1.3-0.1,2.6,0.3,3.7,1.1c1,0.8,1.5,2,1.4,3.3v5.2c0,0.6,0,1.1,0.1,1.7c0.1,0.5,0.2,1,0.4,1.5L350.5,274.6z M347.4,272.4    c0.6,0,1.1-0.1,1.6-0.4c0.4-0.2,0.8-0.6,1-1v-1.8h-2c-0.6,0-1.2,0.1-1.6,0.5c-0.4,0.3-0.6,0.8-0.6,1.3c0,0.4,0.1,0.8,0.4,1    C346.6,272.3,347,272.4,347.4,272.4L347.4,272.4z" fill="#E75300"/><path data-cppathid="10035" d="M362.6,271.2c0-0.4-0.2-0.7-0.5-1c-0.6-0.4-1.3-0.6-2-0.7c-1.2-0.2-2.4-0.6-3.4-1.3    c-0.7-0.6-1.2-1.5-1.1-2.4c0-1.1,0.5-2.1,1.4-2.7c1-0.8,2.3-1.2,3.6-1.1c1.4-0.1,2.7,0.3,3.8,1.1c0.9,0.7,1.4,1.7,1.4,2.8v0.1    h-3.3c0-0.5-0.2-0.9-0.5-1.2c-0.4-0.3-0.9-0.5-1.4-0.5s-0.9,0.1-1.3,0.4c-0.3,0.2-0.5,0.6-0.5,1s0.2,0.7,0.5,1    c0.6,0.3,1.3,0.6,2,0.7c1.2,0.2,2.4,0.7,3.4,1.4c0.8,0.6,1.2,1.5,1.1,2.5c0,1.1-0.5,2.1-1.4,2.8c-1.1,0.8-2.5,1.1-3.8,1.1    c-1.7,0-3-0.4-4-1.3c-0.9-0.7-1.4-1.8-1.4-2.9v-0.1h3.1c0,0.6,0.2,1.1,0.7,1.4s1.1,0.5,1.6,0.5s1-0.1,1.4-0.4    C362.5,272,362.7,271.6,362.6,271.2z" fill="#E75300"/><path data-cppathid="10036" d="M372.2,259v3.1h2.1v2.4h-2.1v6.4c0,0.4,0.1,0.7,0.3,1c0.2,0.2,0.5,0.3,0.8,0.3c0.2,0,0.3,0,0.5,0    s0.3-0.1,0.5-0.1l0.3,2.4c-0.3,0.1-0.7,0.2-1,0.3c-0.3,0.1-0.7,0.1-1,0.1c-1,0.1-2-0.3-2.7-1c-0.6-0.6-1-1.7-1-3.1v-6.4H367V262    h1.8v-3H372.2z" fill="#E75300"/><path data-cppathid="10037" d="M381.8,274.9c-1.9,0-3.3-0.6-4.4-1.7c-1.1-1.2-1.6-2.8-1.6-4.4v-0.5c-0.1-1.7,0.5-3.3,1.5-4.6    c1.1-1.2,2.6-1.9,4.2-1.8c1.7,0,3,0.5,3.9,1.5s1.3,2.4,1.3,4.2v1.7h-7.5v0.1c0,0.8,0.3,1.5,0.8,2.1s1.3,0.9,2.1,0.8    c0.6,0,1.3-0.1,1.9-0.2c0.6-0.2,1.1-0.4,1.6-0.7l0.9,2.1c-0.6,0.5-1.3,0.8-2,1C383.7,274.7,382.8,274.9,381.8,274.9z M381.6,264.5    c-0.6,0-1.2,0.2-1.6,0.7s-0.6,1.2-0.7,1.9v0.1h4.1v-0.3c0-0.6-0.1-1.2-0.5-1.7C382.7,264.7,382.1,264.4,381.6,264.5z" fill="#E75300"/><path data-cppathid="10038" d="M392.4,268.8H389v-11h3.4V268.8z M392.4,274.6H389v-3h3.4V274.6z" fill="#E75300"/></g><path data-cppathid="10039" d="M243.7,89.5l-68.5,118.7c-3.9,6.8-1.6,15.5,5.2,19.4c2.2,1.3,4.6,1.9,7.1,1.9h137.1   c7.9,0,14.2-6.4,14.2-14.2c0-2.5-0.7-5-1.9-7.1L268.3,89.5c-3.9-6.8-12.6-9.1-19.4-5.2C246.7,85.5,244.9,87.3,243.7,89.5z" fill="#F7A800"/><path data-cppathid="10040" d="M256,100.4c0.2,0,0.4,0.1,0.5,0.3l64.7,112.1c0.1,0.2,0.1,0.4,0,0.6c-0.1,0.2-0.3,0.3-0.5,0.3H191.3   c-0.3,0-0.6-0.3-0.6-0.6c0-0.1,0-0.2,0.1-0.3l64.7-112.1C255.6,100.5,255.8,100.4,256,100.4L256,100.4z M256,96.9   c-1.5,0-2.8,0.8-3.6,2.1l-64.7,112.1c-1.1,2-0.5,4.5,1.5,5.6c0.6,0.4,1.3,0.6,2.1,0.6h129.4c2.3,0,4.1-1.8,4.1-4.1   c0-0.7-0.2-1.4-0.6-2.1L259.6,99C258.8,97.7,257.5,96.9,256,96.9L256,96.9z" fill="#FFFFFF"/><path data-cppathid="10041" d="M248.2,195c0-2.5,0.7-4.4,2-5.6c1.3-1.3,3.3-1.9,5.8-1.9s4.4,0.7,5.7,2c1.3,1.3,2,3.2,2,5.6c0,2.3-0.7,4.2-2,5.5   c-1.4,1.3-3.3,2-5.7,2c-2.5,0-4.4-0.7-5.8-2C248.9,199.2,248.2,197.4,248.2,195z M261.5,179.8h-10.8l-2.3-43.4h15.4L261.5,179.8z"/></g><path data-cppathid="10042" d="M119.9,314.7h272.2c10.2,0,18.4,8.3,18.4,18.4l0,0c0,10.2-8.3,18.4-18.4,18.4H119.9  c-10.2,0-18.4-8.3-18.4-18.4l0,0C101.5,322.9,109.7,314.7,119.9,314.7z" fill="#00FFD3"/><path data-cppathid="10043" d="M121.8,331.6h-3.2v-2.8h3.2V331.6z M121.8,344.5h-3.2v-10.3h3.2V344.5z" fill="#333E48"/><path data-cppathid="10044" d="M128.2,340.5H125v-15.7h3.2V340.5z" fill="#333E48"/><path data-cppathid="10045" d="M144,340.5h-3.2l-6.3-10.6h-0.1v10.6h-3.1v-15.7h3.1l6.3,10.6h0.1v-10.6h3.2V340.5z" fill="#333E48"/><path data-cppathid="10046" d="M157.5,327.2H153v13.3h-3.2v-13.3h-4.4v-2.4h12.1L157.5,327.2z" fill="#333E48"/><path data-cppathid="10047" d="M168.3,333.6h-5.8v4.5h6.9v2.4h-10.1v-15.7h10.1v2.4h-6.9v3.9h5.8V333.6z M164.9,320.4h3.5v0.1l-3,2.8h-2.7  L164.9,320.4z" fill="#333E48"/><path data-cppathid="10048" d="M184.3,340.5h-3.2l-6.3-10.6h-0.1v10.6h-3.2v-15.7h3.2l6.3,10.6h0.1v-10.6h3.2V340.5z" fill="#333E48"/><path data-cppathid="10049" d="M197.8,327.2h-4.5v13.3h-3.2v-13.3h-4.4v-2.4h12.1L197.8,327.2z" fill="#333E48"/><path data-cppathid="10050" d="M206.5,337.1h-5.1l-1.1,3.4H197l5.3-15.7h3.2l5.3,15.7h-3.3L206.5,337.1z M202.2,334.7h3.6l-1.7-5.5H204  L202.2,334.7z" fill="#333E48"/><path data-cppathid="10051" d="M215.6,338.1h7v2.4h-10.2v-15.7h3.2V338.1z" fill="#333E48"/><path data-cppathid="10052" d="M237.1,334.1c0.1,1.8-0.6,3.5-1.8,4.8c-2.7,2.5-6.8,2.5-9.5,0c-1.2-1.3-1.9-3-1.8-4.8v-2.9  c-0.1-1.8,0.6-3.5,1.8-4.8s2.9-2,4.7-1.9c1.8-0.1,3.5,0.6,4.8,1.9c1.2,1.3,1.9,3,1.8,4.8V334.1z M234,331.2c0-1.1-0.3-2.1-0.9-3  c-0.6-0.8-1.5-1.2-2.5-1.2s-1.9,0.4-2.5,1.2c-0.6,0.9-0.9,1.9-0.9,3v2.8c0,1.1,0.3,2.2,0.9,3c0.6,0.8,1.5,1.2,2.5,1.2  s1.9-0.4,2.5-1.2c0.6-0.9,1-2,0.9-3V331.2z" fill="#333E48"/><path data-cppathid="10053" d="M257.8,340.5h-3.2l-6.3-10.6h-0.1v10.6H245v-15.7h3.2l6.3,10.6h0.1v-10.6h3.2V340.5z" fill="#333E48"/><path data-cppathid="10054" d="M273.2,324.8v10.3c0.1,1.6-0.6,3.1-1.8,4.2c-1.3,1-2.9,1.6-4.6,1.5c-1.6,0.1-3.3-0.5-4.5-1.5  s-1.8-2.6-1.7-4.2v-10.3h3.2v10.3c-0.1,0.9,0.2,1.8,0.8,2.4c0.6,0.6,1.4,0.9,2.3,0.8c0.9,0,1.7-0.3,2.3-0.8c0.6-0.6,0.9-1.5,0.9-2.4  v-10.3H273.2z" fill="#333E48"/><path data-cppathid="10055" d="M284.9,333.6h-5.8v4.5h6.9v2.4h-10.1v-15.7H286v2.4h-6.9v3.9h5.8V333.6z" fill="#333E48"/><path data-cppathid="10056" d="M293.5,336.3l0.2,0.9h0.1l0.2-0.8l3.4-11.5h3.3l-5.3,15.7h-3.2l-5.3-15.7h3.3L293.5,336.3z" fill="#333E48"/><path data-cppathid="10057" d="M309.6,337.1h-5.1l-1.1,3.4h-3.3l5.3-15.7h3.2l5.3,15.7h-3.3L309.6,337.1z M305.3,334.7h3.6l-1.7-5.5H307  L305.3,334.7z" fill="#333E48"/><path data-cppathid="10058" d="M323.6,336.4L323.6,336.4l4.1-11.6h4.1v15.7h-3.2v-10.7h-0.1l-3.9,10.7h-2.1l-3.9-10.8h-0.1v10.7h-3.2v-15.7  h4.1L323.6,336.4z" fill="#333E48"/><path data-cppathid="10059" d="M343.7,333.6h-5.8v4.5h6.9v2.4h-10.1v-15.7h10.1v2.4h-6.9v3.9h5.8V333.6z" fill="#333E48"/><path data-cppathid="10060" d="M359.7,340.5h-3.2l-6.3-10.6h-0.1v10.6H347v-15.7h3.2l6.3,10.6h0.1v-10.6h3.2L359.7,340.5z" fill="#333E48"/><path data-cppathid="10061" d="M373.2,327.2h-4.5v13.3h-3.1v-13.3h-4.4v-2.4h12.1v2.4H373.2z" fill="#333E48"/><path data-cppathid="10062" d="M383.9,333.6h-5.8v4.5h6.9v2.4h-10.1v-15.7H385v2.4h-6.9v3.9h5.8V333.6z" fill="#333E48"/><path data-cppathid="10063" d="M390.4,335.1h-3.2v-10.3h3.2V335.1z M390.4,340.5h-3.2v-2.8h3.2V340.5z" fill="#333E48"/></svg>