<?xml version="1.0" encoding="UTF-8"?>
<svg xmlns="http://www.w3.org/2000/svg" onmouseup="{ if(window.parent.document.onmouseup) window.parent.document.onmouseup(arguments[0]);}" viewBox="0 0 602.2 139.98" data-name="Capa 1" id="Capa_1"><g data-name="Capa 1" id="Capa_1-2"><rect data-cppathid="10000" fill="#e6550e" height="34.17" width="80.83" y="105.81"/><path data-cppathid="10001" fill="#fff" transform="translate(0 0.03)" d="M40.09,84A44.7,44.7,0,0,1,23.93,81.4a30.17,30.17,0,0,1-11.22-7.32A29.13,29.13,0,0,1,6.17,62.93a45.89,45.89,0,0,1-2.12-14.3V.32h20V47a29.93,29.93,0,0,0,1.22,9.17,16.94,16.94,0,0,0,3.33,6.16,11.85,11.85,0,0,0,5.13,3.39,20.26,20.26,0,0,0,6.6,1q7.32,0,11.87-4.49T56.76,47V.32h20V48.63A44.89,44.89,0,0,1,74.58,63a29.39,29.39,0,0,1-6.66,11.22A30.14,30.14,0,0,1,56.5,81.46,47.21,47.21,0,0,1,40.09,84"/></g><g data-name="Capa 2" id="Capa_2"><path data-cppathid="10002" fill="#fff" transform="translate(0 0.03)" d="M133.82,84a37.24,37.24,0,0,1-14.44-2.79,33,33,0,0,1-11.62-8.13A38.58,38.58,0,0,1,100,59.87a52.37,52.37,0,0,1-2.84-17.94A48.59,48.59,0,0,1,100.22,24a39.8,39.8,0,0,1,8.16-13.19,33.9,33.9,0,0,1,11.85-8.07,37.15,37.15,0,0,1,14-2.73,54.23,54.23,0,0,1,8.25.58,44.19,44.19,0,0,1,11.26,3.2,21.34,21.34,0,0,1,3,1.56l-2.55,6.86a48,48,0,0,0-7.38-3.43,31.89,31.89,0,0,0-11.09-1.68,31.71,31.71,0,0,0-13.18,2.55,26,26,0,0,0-9.46,7.2,31,31,0,0,0-5.75,11A48.78,48.78,0,0,0,105.46,42a50.39,50.39,0,0,0,1.92,14.5,30.91,30.91,0,0,0,5.63,11,24.65,24.65,0,0,0,9.12,7,29.66,29.66,0,0,0,12.36,2.44,48.27,48.27,0,0,0,12.89-1.51,37.21,37.21,0,0,0,7.84-3l2.2,6.74a13.37,13.37,0,0,1-2.81,1.39,51.71,51.71,0,0,1-5,1.57,53.68,53.68,0,0,1-7,1.34,70.29,70.29,0,0,1-8.82.52"/><path data-cppathid="10003" fill="#fff" transform="translate(0 0.03)" d="M242.29,41.93a51,51,0,0,1-3,18.23,37.87,37.87,0,0,1-8.19,13.18,33.68,33.68,0,0,1-12,8,40.81,40.81,0,0,1-29,0,33.68,33.68,0,0,1-12-8,37.87,37.87,0,0,1-8.19-13.18,50.54,50.54,0,0,1-3-18.23,50.27,50.27,0,0,1,3-18.18,37.92,37.92,0,0,1,8.19-13.12,33.9,33.9,0,0,1,12-8,40.81,40.81,0,0,1,29,0,33.9,33.9,0,0,1,12,8,38,38,0,0,1,8.19,13.12,50.49,50.49,0,0,1,3,18.18m-8.36,0a47.37,47.37,0,0,0-2.09-14.58,32.09,32.09,0,0,0-5.93-11,25.26,25.26,0,0,0-9.23-6.91,32.16,32.16,0,0,0-24.27,0,25.37,25.37,0,0,0-9.24,6.91,32.33,32.33,0,0,0-5.92,11,47.37,47.37,0,0,0-2.09,14.58,47.31,47.31,0,0,0,2.09,14.57,32.33,32.33,0,0,0,5.92,11,26,26,0,0,0,9.24,7,31.52,31.52,0,0,0,24.27,0,25.92,25.92,0,0,0,9.23-7,32.09,32.09,0,0,0,5.93-11,47.31,47.31,0,0,0,2.09-14.57"/><path data-cppathid="10004" fill="#fff" transform="translate(0 0.03)" d="M323.81,41.93a45.8,45.8,0,0,1-3.25,18,34.62,34.62,0,0,1-9.11,12.77,38.61,38.61,0,0,1-14,7.67,59.24,59.24,0,0,1-17.89,2.55q-4.87,0-10.21-.52a62.43,62.43,0,0,1-9.41-1.57V3.25a54,54,0,0,1,9.44-1.69A101.35,101.35,0,0,1,279.59,1a59.65,59.65,0,0,1,17.86,2.52,38.76,38.76,0,0,1,14,7.67A34.62,34.62,0,0,1,320.56,24a45.44,45.44,0,0,1,3.25,17.89m-56,33.33c.46.08,1.64.23,3.54.46a81.7,81.7,0,0,0,9.12.35,44.18,44.18,0,0,0,15.21-2.38,29.65,29.65,0,0,0,10.92-6.79,28.23,28.23,0,0,0,6.62-10.74,43,43,0,0,0,2.2-14.23,42.63,42.63,0,0,0-2.2-14.17A28.29,28.29,0,0,0,306.6,17a29.65,29.65,0,0,0-10.92-6.79,44.42,44.42,0,0,0-15.21-2.38,84.16,84.16,0,0,0-9.12.35c-1.9.23-3.08.39-3.54.46Z"/><polygon data-cppathid="10005" fill="#fff" points="341.47 82.25 341.47 1.77 387.93 1.77 387.93 8.62 349.37 8.62 349.37 36.61 383.75 36.61 383.75 43.35 349.37 43.35 349.37 75.4 390.95 75.4 390.95 82.25 341.47 82.25"/><polygon data-cppathid="10006" fill="#fff" points="451.68 75.4 451.68 82.25 405.93 82.25 405.93 1.77 413.82 1.77 413.82 75.4 451.68 75.4"/><path data-cppathid="10007" fill="#fff" transform="translate(0 0.03)" d="M493.72,84a37,37,0,0,1-14.46-2.79,33,33,0,0,1-11.61-8.13,38.42,38.42,0,0,1-7.78-13.18A52.38,52.38,0,0,1,457,41.93,48.79,48.79,0,0,1,460.1,24a39.88,39.88,0,0,1,8.19-13.19,33.64,33.64,0,0,1,11.84-8.07A37.2,37.2,0,0,1,494.19,0a54.1,54.1,0,0,1,8.24.58A45.2,45.2,0,0,1,508.93,2a47.77,47.77,0,0,1,4.77,1.75,21.34,21.34,0,0,1,3,1.56l-2.56,6.86a47.44,47.44,0,0,0-7.37-3.43,36.29,36.29,0,0,0-24.28.87,26.23,26.23,0,0,0-9.46,7.2,31.26,31.26,0,0,0-5.75,11,48.69,48.69,0,0,0-1.9,14.2A50.47,50.47,0,0,0,467.3,56.5a30.91,30.91,0,0,0,5.63,11,24.76,24.76,0,0,0,9.12,7,29.82,29.82,0,0,0,12.33,2.38,47.83,47.83,0,0,0,12.83-1.45,37.21,37.21,0,0,0,7.84-3l2.21,6.74a13.4,13.4,0,0,1-2.75,1.39,51.71,51.71,0,0,1-5,1.57,55.4,55.4,0,0,1-7,1.34,70.45,70.45,0,0,1-8.83.52"/><path data-cppathid="10008" fill="#fff" transform="translate(0 0.03)" d="M602.19,41.93a51,51,0,0,1-3,18.23A37.84,37.84,0,0,1,591,73.34a33.77,33.77,0,0,1-12,8,40.81,40.81,0,0,1-29,0,33.77,33.77,0,0,1-12-8,37.87,37.87,0,0,1-8.19-13.18,51,51,0,0,1-3-18.23,50.49,50.49,0,0,1,3-18.18A38,38,0,0,1,538,10.63a34,34,0,0,1,12-8,40.81,40.81,0,0,1,29,0,34,34,0,0,1,12,8,38,38,0,0,1,8.18,13.12,50.49,50.49,0,0,1,3,18.18m-8.36,0a47.37,47.37,0,0,0-2.09-14.58,32.24,32.24,0,0,0-5.92-11,25.37,25.37,0,0,0-9.24-6.91,32.16,32.16,0,0,0-24.27,0,25.26,25.26,0,0,0-9.23,6.91,31.9,31.9,0,0,0-5.92,11,47.07,47.07,0,0,0-2.09,14.58,47,47,0,0,0,2.09,14.57,31.9,31.9,0,0,0,5.92,11,25.92,25.92,0,0,0,9.23,7,31.52,31.52,0,0,0,24.27,0,26,26,0,0,0,9.24-7,32.07,32.07,0,0,0,5.92-11,47.31,47.31,0,0,0,2.09-14.57"/></g></svg>