<?xml version="1.0" encoding="UTF-8"?>
<svg xmlns="http://www.w3.org/2000/svg" onmouseup="{ if(window.parent.document.onmouseup) window.parent.document.onmouseup(arguments[0]);}" viewBox="0 0 747.27 114.26"><g id="BOX"><path data-cppathid="10000" fill-rule="evenodd" fill="#0097a7" d="M0,57.13A57.13,57.13,0,0,1,57.13,0h633a57.13,57.13,0,0,1,0,114.26h-633A57.13,57.13,0,0,1,0,57.13Z"/></g><g id="TXT"><path data-cppathid="10001" fill="#fff" d="M250.64,61.48l0,.12a8.8,8.8,0,0,1-2.89,6.89,11,11,0,0,1-7.85,2.77,10.33,10.33,0,0,1-8.09-3.51,12.94,12.94,0,0,1-3.12-8.92v-5.2a13,13,0,0,1,3.12-8.93,10.3,10.3,0,0,1,8.09-3.52,11.37,11.37,0,0,1,7.89,2.64,8.75,8.75,0,0,1,2.85,7l0,.12h-3.79A6.54,6.54,0,0,0,245,46.08a7,7,0,0,0-5.1-1.79A6.25,6.25,0,0,0,234.65,47a10.88,10.88,0,0,0-2,6.63v5.24a10.94,10.94,0,0,0,2,6.67,6.25,6.25,0,0,0,5.29,2.67,7,7,0,0,0,5.1-1.78,6.58,6.58,0,0,0,1.81-4.91Z"/><path data-cppathid="10002" fill="#fff" d="M271.05,63.31H260l-2.61,7.53h-4L263.94,41.6h3.39l10.33,29.24h-4ZM261.19,60h8.74l-4.26-12.56h-.12Z"/><path data-cppathid="10003" fill="#fff" d="M286,67.75H300.3v3.09H282.08V41.6h4Z"/><path data-cppathid="10004" fill="#fff" d="M309.2,70.84h-4V41.6h4Z"/><path data-cppathid="10005" fill="#fff" d="M316.57,70.84V41.6h9.2a12,12,0,0,1,12.7,12.63v4a12,12,0,0,1-12.7,12.61Zm4-26.13v23h5.24a8.07,8.07,0,0,0,6.4-2.67,10,10,0,0,0,2.34-6.85v-4a10,10,0,0,0-2.34-6.81,8.07,8.07,0,0,0-6.4-2.67Z"/><path data-cppathid="10006" fill="#fff" d="M359.66,63.31h-11L346,70.84h-4L352.55,41.6h3.39l10.33,29.24h-4ZM349.8,60h8.73l-4.25-12.56h-.12Z"/><path data-cppathid="10007" fill="#fff" d="M370.69,70.84V41.6h9.2a12,12,0,0,1,12.69,12.63v4a12,12,0,0,1-12.69,12.61Zm3.95-26.13v23h5.25a8.06,8.06,0,0,0,6.39-2.67,10,10,0,0,0,2.34-6.85v-4a10,10,0,0,0-2.34-6.81,8.06,8.06,0,0,0-6.39-2.67Z"/><path data-cppathid="10008" fill="#fff" d="M409,70.84V41.6h9.19a12,12,0,0,1,12.7,12.63v4a12,12,0,0,1-12.7,12.61Zm4-26.13v23h5.24a8.07,8.07,0,0,0,6.4-2.67A10,10,0,0,0,427,58.23v-4a10,10,0,0,0-2.34-6.81,8.07,8.07,0,0,0-6.4-2.67Z"/><path data-cppathid="10009" fill="#fff" d="M453,57.29H441V67.75H455v3.09H437V41.6h17.79v3.11H441v9.46h12Z"/><path data-cppathid="10010" fill="#fff" d="M470.16,70.84V41.6h9.2a12,12,0,0,1,12.7,12.63v4a12,12,0,0,1-12.7,12.61Zm4-26.13v23h5.24a8.07,8.07,0,0,0,6.4-2.67,10,10,0,0,0,2.34-6.85v-4a10,10,0,0,0-2.34-6.81,8.07,8.07,0,0,0-6.4-2.67Z"/><path data-cppathid="10011" fill="#fff" d="M513.25,63.31h-11l-2.61,7.53h-4L506.14,41.6h3.39l10.33,29.24h-4ZM503.39,60h8.73l-4.25-12.56h-.12Z"/><path data-cppathid="10012" fill="#fff" d="M544.73,44.71h-9.65V70.84h-4V44.71h-9.52V41.6h23.12Z"/><path data-cppathid="10013" fill="#fff" d="M571.34,58.83a12.5,12.5,0,0,1-3.32,8.9,11.31,11.31,0,0,1-8.63,3.53,10.69,10.69,0,0,1-8.32-3.53,12.74,12.74,0,0,1-3.21-8.9v-5.2a12.79,12.79,0,0,1,3.21-8.9,10.67,10.67,0,0,1,8.32-3.55A11.32,11.32,0,0,1,568,44.72a12.55,12.55,0,0,1,3.32,8.91Zm-4-5.24A9.86,9.86,0,0,0,565.21,47a7.22,7.22,0,0,0-5.82-2.57A6.71,6.71,0,0,0,553.88,47a10.18,10.18,0,0,0-2.06,6.59v5.24a10.22,10.22,0,0,0,2.06,6.63A6.71,6.71,0,0,0,559.39,68a7.21,7.21,0,0,0,5.83-2.56,10,10,0,0,0,2.16-6.64Z"/><path data-cppathid="10014" fill="#fff" d="M592.75,63.47a4.39,4.39,0,0,0-1.42-3.33,11.88,11.88,0,0,0-5-2.29,16.59,16.59,0,0,1-7-3.26,6.81,6.81,0,0,1-2.5-5.4,7.17,7.17,0,0,1,2.69-5.72,10.38,10.38,0,0,1,7-2.29,10.2,10.2,0,0,1,7.36,2.62,7.93,7.93,0,0,1,2.66,6.11l-.06.12h-3.78A5.4,5.4,0,0,0,591,45.92a6.23,6.23,0,0,0-4.45-1.63,6.07,6.07,0,0,0-4.25,1.35,4.51,4.51,0,0,0-1.48,3.49,3.9,3.9,0,0,0,1.62,3.18,14.9,14.9,0,0,0,5.25,2.24,14.93,14.93,0,0,1,6.73,3.38,7.33,7.33,0,0,1,2.31,5.5,6.86,6.86,0,0,1-2.78,5.69,11.58,11.58,0,0,1-7.26,2.14,12.33,12.33,0,0,1-7.48-2.37A7.22,7.22,0,0,1,576,62.55l0-.12h3.78A4.9,4.9,0,0,0,582,66.67a7.88,7.88,0,0,0,4.72,1.5,7.13,7.13,0,0,0,4.45-1.26A4.12,4.12,0,0,0,592.75,63.47Z"/></g><g id="IMG"><g id="CALIDAD"><path data-cppathid="10015" fill-rule="evenodd" fill="#fff" d="M142.77,99H79a1.48,1.48,0,0,1-1.48-1.48V11.89A1.48,1.48,0,0,1,79,10.41h68.2a1.48,1.48,0,0,1,1.48,1.48V93.23a1.48,1.48,0,0,1-3,0V13.37H80.46V96h62.31a1.48,1.48,0,0,1,0,3Z"/><path data-cppathid="10016" fill-rule="evenodd" fill="#fff" d="M128.43,82.64a19,19,0,0,0,3.45-4,18.9,18.9,0,1,0-28.26,4.24,19,19,0,0,0,8.2,4.1,18.79,18.79,0,0,0,4.1.44,19.26,19.26,0,0,0,4.09-.44,19,19,0,0,0,8.42-4.3Zm-26.74,2.43a21.84,21.84,0,1,1,32.69-4.89,22.33,22.33,0,0,1-4,4.68,21.86,21.86,0,0,1-9.74,5,21.77,21.77,0,0,1-9.46,0A21.89,21.89,0,0,1,101.69,85.07Z"/><path data-cppathid="10017" fill-rule="evenodd" fill="#fff" d="M150.29,105a4.16,4.16,0,0,1-3-1.23L128.44,84.87a1.48,1.48,0,0,1,2.09-2.09l18.88,18.88a1.23,1.23,0,0,0,1.76,0l.22-.22a1.24,1.24,0,0,0,0-1.75l-19-19c-.05,0,0,0,0-.06a1.47,1.47,0,1,1,1.74-2.38,3.09,3.09,0,0,1,.38.35l19,19a4.19,4.19,0,0,1,0,5.93l-.21.22A4.16,4.16,0,0,1,150.29,105Z"/><path data-cppathid="10018" fill-rule="evenodd" fill="#fff" d="M126.86,77.21H104.94a1.48,1.48,0,0,1-1.28-.74,1.5,1.5,0,0,1,0-1.48l11-19a1.48,1.48,0,0,1,2.56,0l11,19a1.5,1.5,0,0,1,0,1.48,1.48,1.48,0,0,1-1.28.74Zm-19.36-3h16.8l-8.4-14.54Z"/><path data-cppathid="10019" fill-rule="evenodd" fill="#fff" d="M115.89,70.16a1.47,1.47,0,0,1-1.47-1.47V64.42a1.48,1.48,0,1,1,3,0v4.27A1.47,1.47,0,0,1,115.89,70.16Z"/><path data-cppathid="10020" fill-rule="evenodd" fill="#fff" d="M115.89,73.77a1.48,1.48,0,0,1-1.47-1.48v-.05a1.48,1.48,0,1,1,3,0v.05A1.48,1.48,0,0,1,115.89,73.77Z"/><path data-cppathid="10021" fill-rule="evenodd" fill="#fff" d="M97,29.87H87.86a1.48,1.48,0,0,1-1.48-1.47V19.31a1.48,1.48,0,0,1,1.48-1.48H97a1.48,1.48,0,0,1,1.48,1.48V28.4A1.47,1.47,0,0,1,97,29.87Zm-7.61-2.95h6.13V20.79H89.34Z"/><path data-cppathid="10022" fill-rule="evenodd" fill="#fff" d="M138.3,25.33h-33a1.48,1.48,0,0,1,0-3h33a1.48,1.48,0,0,1,0,3Z"/><path data-cppathid="10023" fill-rule="evenodd" fill="#fff" d="M97,45.46H87.89A1.48,1.48,0,0,1,86.41,44V34.89a1.47,1.47,0,0,1,1.48-1.47H97a1.48,1.48,0,0,1,1.48,1.47V44A1.48,1.48,0,0,1,97,45.46Zm-7.61-3H95.5V36.37H89.37Z"/><path data-cppathid="10024" fill-rule="evenodd" fill="#fff" d="M138.33,40.92h-33a1.48,1.48,0,0,1,0-3h33a1.48,1.48,0,0,1,0,3Z"/></g></g></svg>