<?xml version="1.0" encoding="UTF-8"?>
<svg xmlns="http://www.w3.org/2000/svg" onmouseup="{ if(window.parent.document.onmouseup) window.parent.document.onmouseup(arguments[0]);}" viewBox="0 0 747.27 114.26"><g id="BOX"><path data-cppathid="10000" fill-rule="evenodd" fill="#0097a7" d="M0,57.13A57.13,57.13,0,0,1,57.13,0h633a57.13,57.13,0,0,1,0,114.26h-633A57.13,57.13,0,0,1,0,57.13Z"/></g><g id="TXT"><path data-cppathid="10001" fill="#fff" d="M274.09,61.48l0,.12a8.8,8.8,0,0,1-2.89,6.89,11,11,0,0,1-7.86,2.77,10.32,10.32,0,0,1-8.08-3.51,12.94,12.94,0,0,1-3.12-8.92v-5.2a13,13,0,0,1,3.12-8.93,10.29,10.29,0,0,1,8.08-3.52,11.38,11.38,0,0,1,7.9,2.64,8.75,8.75,0,0,1,2.85,7l0,.12h-3.8a6.54,6.54,0,0,0-1.8-4.86,7,7,0,0,0-5.11-1.79A6.22,6.22,0,0,0,258.1,47a10.88,10.88,0,0,0-2,6.63v5.24a10.94,10.94,0,0,0,2,6.67,6.22,6.22,0,0,0,5.28,2.67,7,7,0,0,0,5.11-1.78,6.58,6.58,0,0,0,1.8-4.91Z"/><path data-cppathid="10002" fill="#fff" d="M301.73,58.83a12.5,12.5,0,0,1-3.32,8.9,11.31,11.31,0,0,1-8.63,3.53,10.71,10.71,0,0,1-8.33-3.53,12.78,12.78,0,0,1-3.2-8.9v-5.2a12.83,12.83,0,0,1,3.2-8.9,10.69,10.69,0,0,1,8.33-3.55,11.32,11.32,0,0,1,8.63,3.54,12.55,12.55,0,0,1,3.32,8.91Zm-4-5.24A9.86,9.86,0,0,0,295.6,47a7.22,7.22,0,0,0-5.82-2.57A6.71,6.71,0,0,0,284.27,47a10.18,10.18,0,0,0-2.06,6.59v5.24a10.22,10.22,0,0,0,2.06,6.63A6.71,6.71,0,0,0,289.78,68a7.22,7.22,0,0,0,5.83-2.56,10,10,0,0,0,2.16-6.64Z"/><path data-cppathid="10003" fill="#fff" d="M329.67,70.84h-4L311.63,48.51l-.12,0V70.84h-3.95V41.6h3.95l14.08,22.31.12,0V41.6h4Z"/><path data-cppathid="10004" fill="#fff" d="M357.51,61.48l0,.12a8.8,8.8,0,0,1-2.89,6.89,11,11,0,0,1-7.85,2.77,10.33,10.33,0,0,1-8.09-3.51,12.94,12.94,0,0,1-3.12-8.92v-5.2a13,13,0,0,1,3.12-8.93,10.3,10.3,0,0,1,8.09-3.52,11.37,11.37,0,0,1,7.89,2.64,8.75,8.75,0,0,1,2.85,7l0,.12h-3.79a6.54,6.54,0,0,0-1.81-4.86,7,7,0,0,0-5.1-1.79A6.25,6.25,0,0,0,341.52,47a10.88,10.88,0,0,0-2,6.63v5.24a10.94,10.94,0,0,0,2,6.67,6.25,6.25,0,0,0,5.29,2.67,7,7,0,0,0,5.1-1.78,6.58,6.58,0,0,0,1.81-4.91Z"/><path data-cppathid="10005" fill="#fff" d="M367.2,70.84h-4V41.6h4Z"/><path data-cppathid="10006" fill="#fff" d="M390.54,57.29h-12V67.75h14.06v3.09h-18V41.6h17.8v3.11H378.53v9.46h12Z"/><path data-cppathid="10007" fill="#fff" d="M419.5,70.84h-3.95L401.47,48.51l-.12,0V70.84h-4V41.6h4l14.08,22.31.12,0V41.6h3.95Z"/><path data-cppathid="10008" fill="#fff" d="M447.34,61.48l0,.12a8.76,8.76,0,0,1-2.89,6.89,11,11,0,0,1-7.85,2.77,10.34,10.34,0,0,1-8.09-3.51,12.94,12.94,0,0,1-3.12-8.92v-5.2a13,13,0,0,1,3.12-8.93,10.32,10.32,0,0,1,8.09-3.52,11.33,11.33,0,0,1,7.89,2.64,8.69,8.69,0,0,1,2.85,7l0,.12h-3.79a6.5,6.5,0,0,0-1.81-4.86,7,7,0,0,0-5.1-1.79A6.22,6.22,0,0,0,431.36,47a10.82,10.82,0,0,0-2,6.63v5.24a10.88,10.88,0,0,0,2,6.67,6.22,6.22,0,0,0,5.28,2.67,7,7,0,0,0,5.1-1.78,6.54,6.54,0,0,0,1.81-4.91Z"/><path data-cppathid="10009" fill="#fff" d="M457,70.84h-4V41.6h4Z"/><path data-cppathid="10010" fill="#fff" d="M479.51,63.31h-11l-2.61,7.53h-4L472.4,41.6h3.39l10.32,29.24h-4ZM469.64,60h8.74l-4.26-12.56H474Z"/></g><g id="IMG"><g id="Conciencia"><path data-cppathid="10011" fill-rule="evenodd" fill="#fff" d="M138.08,105.69a17.91,17.91,0,0,1-3.45-.36c-4.08-.79-9.12-2.94-15-6.38a1.5,1.5,0,0,1,1.52-2.59c5.55,3.27,10.26,5.3,14,6,2.86.55,5.12.34,6.71-.62,3.09-1.88,3-6.32,3-7.19,0-.25,0-.49,0-.73a5.88,5.88,0,0,0-1.12-3.46l-1.26-1.74a5.19,5.19,0,0,1-.3-5.61l2.11-3.69a2.17,2.17,0,0,0,.21-1.67l-1.61-5.76A1.51,1.51,0,0,1,144.32,70h6a2.48,2.48,0,0,0,2.25-3.54L147.2,55a24.81,24.81,0,0,1-2.35-10.51V38.6c-.53-14.52-11.84-25.89-25.78-25.89H106v6.9l6.69,6.69a1.5,1.5,0,0,1-2.12,2.12l-7.13-7.12a1.54,1.54,0,0,1-.44-1.07v-9a1.5,1.5,0,0,1,1.5-1.5h14.61a28.09,28.09,0,0,1,20,8.42,30.29,30.29,0,0,1,8.76,20.39v6a21.81,21.81,0,0,0,2.06,9.22l5.4,11.5a5.47,5.47,0,0,1-5,7.81h-4l1.08,3.86a5.23,5.23,0,0,1-.49,4l-2.12,3.69a2.19,2.19,0,0,0,.13,2.36l1.26,1.73a8.85,8.85,0,0,1,1.69,5.23c0,.19,0,.38,0,.57a14.74,14.74,0,0,1-.45,4.32,9.08,9.08,0,0,1-3.95,5.59A10.25,10.25,0,0,1,138.08,105.69Z"/><path data-cppathid="10012" fill-rule="evenodd" fill="#fff" d="M114.5,35.72a5.46,5.46,0,1,1,3.86-9.32h0a5.46,5.46,0,0,1-3.86,9.32Zm0-7.92a2.46,2.46,0,1,0,1.74.72A2.45,2.45,0,0,0,114.5,27.8Z"/><path data-cppathid="10013" fill-rule="evenodd" fill="#fff" d="M101.71,46.48h-6A1.54,1.54,0,0,1,94.59,46l-4.28-4.28a1.5,1.5,0,0,1-.44-1.06V34.64a1.52,1.52,0,0,1,.44-1.06l4.28-4.28a1.54,1.54,0,0,1,1.07-.44h6a1.5,1.5,0,0,1,1.06.44l4.28,4.28a1.52,1.52,0,0,1,.44,1.06V40.7a1.5,1.5,0,0,1-.44,1.06L102.77,46a1.5,1.5,0,0,1-1.06.44Zm-5.43-3h4.81l3.4-3.4V35.26l-3.4-3.4H96.28l-3.41,3.4v4.82Z"/><path data-cppathid="10014" fill-rule="evenodd" fill="#fff" d="M85.25,28.9a1.5,1.5,0,0,1-1.06-2.56l6.72-6.73v-6.9h-13a1.5,1.5,0,0,1,0-3H92.41a1.5,1.5,0,0,1,1.5,1.5v9a1.54,1.54,0,0,1-.44,1.07l-7.16,7.16A1.53,1.53,0,0,1,85.25,28.9Z"/><path data-cppathid="10015" fill-rule="evenodd" fill="#fff" d="M82.38,35.72a5.46,5.46,0,0,1-3.86-9.32h0a5.46,5.46,0,1,1,3.86,9.32Zm-1.74-7.2a2.47,2.47,0,1,0,3.49,0,2.46,2.46,0,0,0-3.49,0Z"/><path data-cppathid="10016" fill-rule="evenodd" fill="#fff" d="M118.94,65.77H104.4a1.5,1.5,0,0,1-1.5-1.5v-9a1.53,1.53,0,0,1,.44-1.06l7.12-7.11a1.5,1.5,0,1,1,2.12,2.12l-6.68,6.68v6.9h12.38L131,48.87V38.36a1.5,1.5,0,0,1,1.5-1.5h13.53a1.5,1.5,0,0,1,0,3H134v9.6a1.52,1.52,0,0,1-.39,1L120.05,65.29A1.48,1.48,0,0,1,118.94,65.77Z"/><path data-cppathid="10017" fill-rule="evenodd" fill="#fff" d="M114.43,50.68a5.46,5.46,0,1,1,3.86-1.6h0a5.42,5.42,0,0,1-3.86,1.6Zm0-7.93A2.47,2.47,0,0,0,112.69,47a2.46,2.46,0,0,0,3.48,0h0a2.47,2.47,0,0,0-1.74-4.21Z"/><path data-cppathid="10018" fill-rule="evenodd" fill="#fff" d="M92.41,65.77H77.87a1.5,1.5,0,1,1,0-3h13v-6.9l-6.69-6.69a1.51,1.51,0,0,1,0-2.12,1.49,1.49,0,0,1,2.12,0l7.13,7.12a1.54,1.54,0,0,1,.44,1.07v9A1.5,1.5,0,0,1,92.41,65.77Z"/><path data-cppathid="10019" fill-rule="evenodd" fill="#fff" d="M82.38,50.68a5.47,5.47,0,0,1-3.86-9.33,5.47,5.47,0,0,1,9.33,3.87,5.46,5.46,0,0,1-5.47,5.46Zm0-7.92A2.46,2.46,0,0,0,80.64,47a2.47,2.47,0,0,0,4.21-1.74,2.45,2.45,0,0,0-.72-1.74A2.48,2.48,0,0,0,82.38,42.76Z"/></g></g></svg>