<?xml version="1.0" encoding="UTF-8"?>
<svg xmlns="http://www.w3.org/2000/svg" onmouseup="{ if(window.parent.document.onmouseup) window.parent.document.onmouseup(arguments[0]);}" viewBox="0 0 747.27 114.26"><g id="BOX"><path data-cppathid="10000" fill-rule="evenodd" fill="#0097a7" d="M0,57.13A57.13,57.13,0,0,1,57.13,0h633a57.13,57.13,0,0,1,0,114.26h-633A57.13,57.13,0,0,1,0,57.13Z"/></g><g id="TXT"><path data-cppathid="10001" fill="#fff" d="M229.63,65.36h.12l9.34-23.76H244V70.84h-4V48.93l-.12,0-8.85,21.93h-2.76l-9.11-22.65-.13,0V70.84h-4V41.6h5.2Z"/><path data-cppathid="10002" fill="#fff" d="M267,57.29h-12V67.75H269v3.09H251V41.6h17.8v3.11H254.94v9.46h12Z"/><path data-cppathid="10003" fill="#fff" d="M294.25,44.71h-9.64V70.84h-4V44.71h-9.52V41.6h23.12Z"/><path data-cppathid="10004" fill="#fff" d="M313.63,63.31h-11L300,70.84h-4L306.52,41.6h3.4l10.32,29.24h-4ZM303.77,60h8.74l-4.26-12.56h-.12Z"/><path data-cppathid="10005" fill="#fff" d="M324.66,70.84V41.6h9.2a12,12,0,0,1,12.7,12.63v4a12,12,0,0,1-12.7,12.61Zm4-26.13v23h5.24a8.07,8.07,0,0,0,6.4-2.67,10,10,0,0,0,2.34-6.85v-4a10,10,0,0,0-2.34-6.81,8.07,8.07,0,0,0-6.4-2.67Z"/><path data-cppathid="10006" fill="#fff" d="M367.75,63.31h-11l-2.61,7.53h-4L360.64,41.6H364l10.33,29.24h-4ZM357.89,60h8.73l-4.25-12.56h-.12Z"/><path data-cppathid="10007" fill="#fff" d="M399.22,44.71h-9.64V70.84h-3.95V44.71h-9.52V41.6h23.11Z"/><path data-cppathid="10008" fill="#fff" d="M425.84,58.83a12.5,12.5,0,0,1-3.32,8.9,11.31,11.31,0,0,1-8.63,3.53,10.69,10.69,0,0,1-8.32-3.53,12.74,12.74,0,0,1-3.21-8.9v-5.2a12.79,12.79,0,0,1,3.21-8.9,10.67,10.67,0,0,1,8.32-3.55,11.32,11.32,0,0,1,8.63,3.54,12.55,12.55,0,0,1,3.32,8.91Zm-4-5.24A9.86,9.86,0,0,0,419.71,47a7.22,7.22,0,0,0-5.82-2.57A6.71,6.71,0,0,0,408.38,47a10.18,10.18,0,0,0-2.06,6.59v5.24a10.22,10.22,0,0,0,2.06,6.63A6.71,6.71,0,0,0,413.89,68a7.21,7.21,0,0,0,5.83-2.56,10,10,0,0,0,2.16-6.64Z"/><path data-cppathid="10009" fill="#fff" d="M447.25,63.47a4.39,4.39,0,0,0-1.42-3.33,11.88,11.88,0,0,0-5-2.29,16.59,16.59,0,0,1-7-3.26,6.81,6.81,0,0,1-2.5-5.4A7.17,7.17,0,0,1,434,43.47a10.38,10.38,0,0,1,7-2.29,10.2,10.2,0,0,1,7.36,2.62,7.93,7.93,0,0,1,2.66,6.11L451,50h-3.78a5.4,5.4,0,0,0-1.73-4.11A6.23,6.23,0,0,0,441,44.29a6.07,6.07,0,0,0-4.25,1.35,4.51,4.51,0,0,0-1.48,3.49,3.9,3.9,0,0,0,1.62,3.18,14.9,14.9,0,0,0,5.25,2.24,14.93,14.93,0,0,1,6.73,3.38,7.33,7.33,0,0,1,2.31,5.5,6.86,6.86,0,0,1-2.78,5.69,11.58,11.58,0,0,1-7.26,2.14,12.33,12.33,0,0,1-7.48-2.37,7.22,7.22,0,0,1-3.15-6.34l0-.12h3.78a4.9,4.9,0,0,0,2.09,4.24,7.88,7.88,0,0,0,4.72,1.5,7.13,7.13,0,0,0,4.45-1.26A4.12,4.12,0,0,0,447.25,63.47Z"/><path data-cppathid="10010" fill="#fff" d="M476.83,56.46l7.63-14.86H489l-10.27,19V70.84h-3.93V60.26L464.67,41.6h4.52Z"/><path data-cppathid="10011" fill="#fff" d="M507.72,67.75H522v3.09H503.76V41.6h4Z"/><path data-cppathid="10012" fill="#fff" d="M530.88,70.84h-4V41.6h4Z"/><path data-cppathid="10013" fill="#fff" d="M560.37,70.84h-4L542.33,48.51l-.12,0V70.84h-4V41.6h4l14.08,22.31.12,0V41.6h4Z"/><path data-cppathid="10014" fill="#fff" d="M582.45,63.31h-11l-2.61,7.53h-4L575.34,41.6h3.39l10.33,29.24h-4ZM572.58,60h8.74l-4.26-12.56h-.12Z"/><path data-cppathid="10015" fill="#fff" d="M605.31,41.6h4V62.37a8.57,8.57,0,0,1-2.48,6.48,8.82,8.82,0,0,1-6.43,2.41,9.27,9.27,0,0,1-6.42-2.13,7.65,7.65,0,0,1-2.28-6.22l0-.12h3.8a5.72,5.72,0,0,0,1.26,4.06,4.74,4.74,0,0,0,3.6,1.32,4.53,4.53,0,0,0,3.57-1.58,6.22,6.22,0,0,0,1.39-4.22Z"/><path data-cppathid="10016" fill="#fff" d="M632.12,57.29h-12V67.75h14.06v3.09h-18V41.6H634v3.11H620.11v9.46h12Z"/></g><g id="IMG"><g id="META"><path data-cppathid="10017" fill-rule="evenodd" fill="#fff" d="M139.52,102.27H110.43a2.64,2.64,0,0,1-2.64-2.64V86a1.4,1.4,0,0,1,1.4-1.39h31.58A1.39,1.39,0,0,1,142.16,86V99.63a2.64,2.64,0,0,1-2.64,2.64Zm-28.94-2.79h28.79V87.37H110.58Z"/><path data-cppathid="10018" fill-rule="evenodd" fill="#fff" d="M140.77,91.27a1.4,1.4,0,0,1-1.4-1.39V83.09H125.56a3.39,3.39,0,0,1-2-.67l-2.22-1.66a.57.57,0,0,0-.33-.11H110.58v9.23a1.4,1.4,0,0,1-2.79,0V79.25a1.4,1.4,0,0,1,1.4-1.39H121a3.36,3.36,0,0,1,2,.67l2.22,1.66a.6.6,0,0,0,.34.11h15.21a1.4,1.4,0,0,1,1.39,1.4v8.18A1.39,1.39,0,0,1,140.77,91.27Z"/><path data-cppathid="10019" fill-rule="evenodd" fill="#fff" d="M107.06,37.53H78a2.64,2.64,0,0,1-2.64-2.64V21.24a1.4,1.4,0,0,1,1.39-1.4H108.3a1.4,1.4,0,0,1,1.4,1.4V34.89a2.64,2.64,0,0,1-2.64,2.64ZM78.12,34.75h28.79V22.63H78.12Z"/><path data-cppathid="10020" fill-rule="evenodd" fill="#fff" d="M108.3,26.54a1.4,1.4,0,0,1-1.39-1.4V18.35H93.09a3.33,3.33,0,0,1-2-.66L88.87,16a.6.6,0,0,0-.34-.11H78.12v9.23a1.4,1.4,0,1,1-2.79,0V14.52a1.4,1.4,0,0,1,1.39-1.4H88.53a3.39,3.39,0,0,1,2,.67l2.22,1.67a.55.55,0,0,0,.33.11H108.3A1.4,1.4,0,0,1,109.7,17v8.18A1.4,1.4,0,0,1,108.3,26.54Z"/><path data-cppathid="10021" fill-rule="evenodd" fill="#fff" d="M154.24,37.53H125.15a2.64,2.64,0,0,1-2.64-2.64V21.24a1.4,1.4,0,0,1,1.39-1.4h31.58a1.4,1.4,0,0,1,1.4,1.4V34.89a2.64,2.64,0,0,1-2.64,2.64ZM125.3,34.75h28.79V22.63H125.3Z"/><path data-cppathid="10022" fill-rule="evenodd" fill="#fff" d="M155.48,26.54a1.4,1.4,0,0,1-1.39-1.4V18.35H140.27a3.33,3.33,0,0,1-2-.66L136.05,16a.6.6,0,0,0-.34-.11H125.3v9.23a1.4,1.4,0,1,1-2.79,0V14.52a1.4,1.4,0,0,1,1.39-1.4h11.81a3.39,3.39,0,0,1,2,.67l2.22,1.67a.55.55,0,0,0,.33.11h15.21a1.4,1.4,0,0,1,1.4,1.39v8.18A1.4,1.4,0,0,1,155.48,26.54Z"/><path data-cppathid="10023" fill-rule="evenodd" fill="#fff" d="M112.28,59.69H96.68a1.4,1.4,0,0,1,0-2.79h15.6a1.4,1.4,0,0,1,0,2.79Z"/><path data-cppathid="10024" fill-rule="evenodd" fill="#fff" d="M155,59.69H143a1.4,1.4,0,0,1,0-2.79h12a1.4,1.4,0,0,1,0,2.79Z"/><path data-cppathid="10025" fill-rule="evenodd" fill="#fff" d="M135.76,59.69H119.69a1.4,1.4,0,0,1,0-2.79h16.07a1.4,1.4,0,0,1,0,2.79Z"/><path data-cppathid="10026" fill-rule="evenodd" fill="#fff" d="M89.26,59.69h-12a1.4,1.4,0,0,1,0-2.79h12a1.4,1.4,0,0,1,0,2.79Z"/><path data-cppathid="10027" fill-rule="evenodd" fill="#fff" d="M119.51,63.1h-6.82a1.39,1.39,0,0,1-1.39-1.39V54.89a1.4,1.4,0,0,1,1.39-1.4h6.82a1.4,1.4,0,0,1,1.4,1.4v6.82a1.4,1.4,0,0,1-1.4,1.39Zm-5.42-2.79h4v-4h-4Z"/><path data-cppathid="10028" fill-rule="evenodd" fill="#fff" d="M142.76,63.1h-6.82a1.4,1.4,0,0,1-1.4-1.39V54.89a1.4,1.4,0,0,1,1.4-1.4h6.82a1.4,1.4,0,0,1,1.39,1.4v6.82a1.39,1.39,0,0,1-1.39,1.39Zm-5.43-2.79h4v-4h-4Z"/><path data-cppathid="10029" fill-rule="evenodd" fill="#fff" d="M96.27,63.1H89.45a1.39,1.39,0,0,1-1.39-1.39V54.89a1.4,1.4,0,0,1,1.39-1.4h6.82a1.4,1.4,0,0,1,1.39,1.4v6.82a1.39,1.39,0,0,1-1.39,1.39Zm-5.43-2.79h4v-4h-4Z"/><path data-cppathid="10030" fill-rule="evenodd" fill="#fff" d="M92.8,56.16a1.38,1.38,0,0,1-1.39-1.38V36.24a1.39,1.39,0,0,1,2.78,0V54.78A1.38,1.38,0,0,1,92.8,56.16Z"/><path data-cppathid="10031" fill-rule="evenodd" fill="#fff" d="M139.35,56.18A1.39,1.39,0,0,1,138,54.8V36.22a1.4,1.4,0,0,1,2.79,0V54.8A1.38,1.38,0,0,1,139.35,56.18Z"/><path data-cppathid="10032" fill-rule="evenodd" fill="#fff" d="M116.1,80.6a1.39,1.39,0,0,1-1.39-1.39V61.75a1.4,1.4,0,0,1,2.79,0V79.21A1.4,1.4,0,0,1,116.1,80.6Z"/></g></g></svg>