<?xml version="1.0" encoding="UTF-8"?>
<svg xmlns="http://www.w3.org/2000/svg" onmouseup="{ if(window.parent.document.onmouseup) window.parent.document.onmouseup(arguments[0]);}" viewBox="0 0 747.27 114.26"><g id="BOX"><path data-cppathid="10000" fill-rule="evenodd" fill="#0097a7" d="M0,57.13A57.13,57.13,0,0,1,57.13,0h633a57.13,57.13,0,0,1,0,114.26h-633A57.13,57.13,0,0,1,0,57.13Z"/></g><g id="TXT"><path data-cppathid="10001" fill="#fff" d="M256.73,59.11V70.84h-4V41.6H264q4.68,0,7.28,2.41a8.26,8.26,0,0,1,2.6,6.35,8.22,8.22,0,0,1-2.6,6.36c-1.73,1.6-4.16,2.39-7.28,2.39Zm0-3.09H264a5.32,5.32,0,0,0,5.91-5.62,5.83,5.83,0,0,0-1.48-4.06A5.66,5.66,0,0,0,264,44.71h-7.23Z"/><path data-cppathid="10002" fill="#fff" d="M283,58.17V70.84h-3.95V41.62h10q4.8,0,7.33,2.13a7.61,7.61,0,0,1,2.53,6.18,6.65,6.65,0,0,1-1.17,3.92,8,8,0,0,1-3.43,2.65A6,6,0,0,1,297.78,59a8.37,8.37,0,0,1,1.05,4.35v2.75a9.18,9.18,0,0,0,.3,2.45,3.59,3.59,0,0,0,1.05,1.77v.48H296.1a3.22,3.22,0,0,1-1-2,16.22,16.22,0,0,1-.23-2.73V63.43a5.28,5.28,0,0,0-1.38-3.81,4.9,4.9,0,0,0-3.72-1.45Zm0-3.11h5.65q3.35,0,4.83-1.28A4.88,4.88,0,0,0,295,49.89a5,5,0,0,0-1.44-3.82,6.31,6.31,0,0,0-4.47-1.36H283Z"/><path data-cppathid="10003" fill="#fff" d="M309.72,70.84h-4V41.6h4Z"/><path data-cppathid="10004" fill="#fff" d="M339.43,58.83a12.47,12.47,0,0,1-3.33,8.9,11.27,11.27,0,0,1-8.62,3.53,10.71,10.71,0,0,1-8.33-3.53,12.78,12.78,0,0,1-3.2-8.9v-5.2a12.83,12.83,0,0,1,3.2-8.9,10.69,10.69,0,0,1,8.33-3.55,11.28,11.28,0,0,1,8.62,3.54,12.51,12.51,0,0,1,3.33,8.91Zm-4-5.24A9.86,9.86,0,0,0,333.3,47a7.22,7.22,0,0,0-5.82-2.57A6.72,6.72,0,0,0,322,47a10.23,10.23,0,0,0-2,6.59v5.24a10.27,10.27,0,0,0,2,6.63A6.72,6.72,0,0,0,327.48,68a7.22,7.22,0,0,0,5.83-2.56,10,10,0,0,0,2.16-6.64Z"/><path data-cppathid="10005" fill="#fff" d="M349.21,58.17V70.84h-3.95V41.62h10q4.8,0,7.33,2.13a7.61,7.61,0,0,1,2.53,6.18A6.65,6.65,0,0,1,364,53.85a8,8,0,0,1-3.43,2.65A6,6,0,0,1,364,59,8.37,8.37,0,0,1,365,63.39v2.75a9.18,9.18,0,0,0,.3,2.45,3.59,3.59,0,0,0,1.05,1.77v.48h-4.08a3.28,3.28,0,0,1-1-2,17.34,17.34,0,0,1-.22-2.73V63.43a5.28,5.28,0,0,0-1.38-3.81A4.9,4.9,0,0,0,356,58.17Zm0-3.11h5.65q3.34,0,4.83-1.28a4.88,4.88,0,0,0,1.47-3.89,5,5,0,0,0-1.43-3.82,6.31,6.31,0,0,0-4.47-1.36h-6.05Z"/><path data-cppathid="10006" fill="#fff" d="M375.93,70.84h-4V41.6h4Z"/><path data-cppathid="10007" fill="#fff" d="M386.3,67.75h16.35v3.09H381.84V67.91l15.62-23.2h-15.4V41.6H402v2.83Z"/><path data-cppathid="10008" fill="#fff" d="M423.13,63.31h-11l-2.61,7.53h-4L416,41.6h3.4l10.32,29.24h-4ZM413.27,60H422l-4.26-12.56h-.12Z"/><path data-cppathid="10009" fill="#fff" d="M455,61.48l0,.12a8.76,8.76,0,0,1-2.89,6.89,11,11,0,0,1-7.85,2.77,10.34,10.34,0,0,1-8.09-3.51,12.94,12.94,0,0,1-3.12-8.92v-5.2a13,13,0,0,1,3.12-8.93,10.32,10.32,0,0,1,8.09-3.52,11.35,11.35,0,0,1,7.89,2.64,8.69,8.69,0,0,1,2.85,7l0,.12h-3.79a6.54,6.54,0,0,0-1.81-4.86,7,7,0,0,0-5.1-1.79A6.25,6.25,0,0,0,439,47a10.88,10.88,0,0,0-2,6.63v5.24a10.94,10.94,0,0,0,2,6.67,6.25,6.25,0,0,0,5.29,2.67,7,7,0,0,0,5.1-1.78,6.58,6.58,0,0,0,1.81-4.91Z"/><path data-cppathid="10010" fill="#fff" d="M464.72,70.84h-4V41.6h4Z"/><path data-cppathid="10011" fill="#fff" d="M494.43,58.83a12.47,12.47,0,0,1-3.33,8.9,11.27,11.27,0,0,1-8.62,3.53,10.71,10.71,0,0,1-8.33-3.53,12.73,12.73,0,0,1-3.2-8.9v-5.2a12.78,12.78,0,0,1,3.2-8.9,10.69,10.69,0,0,1,8.33-3.55,11.28,11.28,0,0,1,8.62,3.54,12.51,12.51,0,0,1,3.33,8.91Zm-4-5.24A9.86,9.86,0,0,0,488.3,47a7.25,7.25,0,0,0-5.82-2.57A6.71,6.71,0,0,0,477,47a10.24,10.24,0,0,0-2.06,6.59v5.24A10.28,10.28,0,0,0,477,65.46,6.71,6.71,0,0,0,482.48,68a7.22,7.22,0,0,0,5.83-2.56,10,10,0,0,0,2.16-6.64ZM484.6,33h4.62l0,.12-5.4,5.23h-3Z"/><path data-cppathid="10012" fill="#fff" d="M522.37,70.84h-4L504.33,48.51l-.12,0V70.84h-4V41.6h4l14.08,22.31.12,0V41.6h4Z"/></g><g id="IMG"><g id="PRIO"><polygon data-cppathid="10013" stroke-width="3" stroke-linejoin="round" stroke-linecap="round" stroke="#fff" fill="#0099a8" points="116.1 11.66 95.22 48.05 136.99 48.05 116.1 11.66"/><polygon data-cppathid="10014" stroke-width="3" stroke-linejoin="round" stroke-linecap="round" stroke="#fff" fill="#0099a8" points="141.32 55.6 90.89 55.6 80.56 73.59 151.65 73.59 141.32 55.6"/><polygon data-cppathid="10015" stroke-width="3" stroke-linejoin="round" stroke-linecap="round" stroke="#fff" fill="#0099a8" points="76.22 81.14 65 100.7 167.21 100.7 155.98 81.14 76.22 81.14"/></g></g></svg>