<?xml version="1.0" encoding="UTF-8"?>
<svg xmlns="http://www.w3.org/2000/svg" onmouseup="{ if(window.parent.document.onmouseup) window.parent.document.onmouseup(arguments[0]);}" viewBox="0 0 747.27 114.26"><g id="BOX"><path data-cppathid="10000" fill-rule="evenodd" fill="#0097a7" d="M0,57.13A57.13,57.13,0,0,1,57.13,0h633a57.13,57.13,0,0,1,0,114.26h-633A57.13,57.13,0,0,1,0,57.13Z"/></g><g id="TXT"><path data-cppathid="10001" fill="#fff" d="M265.74,57.29h-12V67.75h14.06v3.09h-18V41.6h17.8v3.11H253.73v9.46h12Z"/><path data-cppathid="10002" fill="#fff" d="M288.18,63.47a4.39,4.39,0,0,0-1.43-3.33,11.82,11.82,0,0,0-5-2.29,16.71,16.71,0,0,1-7-3.26,6.81,6.81,0,0,1-2.5-5.4A7.2,7.2,0,0,1,275,43.47a10.42,10.42,0,0,1,7-2.29,10.18,10.18,0,0,1,7.36,2.62A7.9,7.9,0,0,1,292,49.91l-.06.12h-3.77a5.37,5.37,0,0,0-1.74-4.11A6.23,6.23,0,0,0,282,44.29a6.09,6.09,0,0,0-4.25,1.35,4.5,4.5,0,0,0-1.47,3.49,3.91,3.91,0,0,0,1.61,3.18,14.88,14.88,0,0,0,5.26,2.24,15,15,0,0,1,6.73,3.38,7.32,7.32,0,0,1,2.3,5.5,6.83,6.83,0,0,1-2.78,5.69,11.54,11.54,0,0,1-7.26,2.14,12.35,12.35,0,0,1-7.48-2.37,7.21,7.21,0,0,1-3.14-6.34l0-.12h3.77a4.9,4.9,0,0,0,2.09,4.24,7.9,7.9,0,0,0,4.72,1.5,7.11,7.11,0,0,0,4.45-1.26A4.13,4.13,0,0,0,288.18,63.47Z"/><path data-cppathid="10003" fill="#fff" d="M318.19,44.71h-9.65V70.84h-4V44.71h-9.52V41.6h23.12Z"/><path data-cppathid="10004" fill="#fff" d="M338,63.31H327l-2.62,7.53h-4L330.87,41.6h3.4l10.32,29.24h-4ZM328.12,60h8.74L332.6,47.44h-.12Zm6.27-26.58H339l0,.13-5.41,5.22h-3Z"/><path data-cppathid="10005" fill="#fff" d="M370.14,70.84h-4L352.1,48.51l-.12,0V70.84h-4V41.6h4l14.08,22.31.12,0V41.6h4Z"/><path data-cppathid="10006" fill="#fff" d="M377.73,70.84V41.6h9.2a12,12,0,0,1,12.69,12.63v4a12,12,0,0,1-12.69,12.61Zm3.95-26.13v23h5.25a8.06,8.06,0,0,0,6.39-2.67,10,10,0,0,0,2.34-6.85v-4a10,10,0,0,0-2.34-6.81,8.06,8.06,0,0,0-6.39-2.67Z"/><path data-cppathid="10007" fill="#fff" d="M420.28,63.31h-11l-2.61,7.53h-4L413.17,41.6h3.39l10.33,29.24h-4ZM410.42,60h8.73L414.9,47.44h-.12Z"/><path data-cppathid="10008" fill="#fff" d="M434.28,58.17V70.84h-4V41.62h10c3.2,0,5.65.71,7.33,2.13a7.61,7.61,0,0,1,2.53,6.18A6.65,6.65,0,0,1,449,53.85a7.92,7.92,0,0,1-3.43,2.65A6,6,0,0,1,449.05,59a8.37,8.37,0,0,1,1.05,4.35v2.75a9.17,9.17,0,0,0,.31,2.45,3.65,3.65,0,0,0,1,1.77v.48h-4.08a3.27,3.27,0,0,1-1-2,16.23,16.23,0,0,1-.22-2.73V63.43a5.24,5.24,0,0,0-1.39-3.81,4.87,4.87,0,0,0-3.71-1.45Zm0-3.11h5.64q3.36,0,4.83-1.28a4.85,4.85,0,0,0,1.48-3.89,5,5,0,0,0-1.44-3.82,6.31,6.31,0,0,0-4.47-1.36h-6Z"/><path data-cppathid="10009" fill="#fff" d="M471.43,57.29h-12V67.75h14.06v3.09h-18V41.6h17.8v3.11H459.42v9.46h12Z"/><path data-cppathid="10010" fill="#fff" d="M493.87,63.47a4.39,4.39,0,0,0-1.43-3.33,11.82,11.82,0,0,0-5-2.29,16.71,16.71,0,0,1-7-3.26,6.81,6.81,0,0,1-2.5-5.4,7.2,7.2,0,0,1,2.69-5.72,10.42,10.42,0,0,1,7-2.29A10.18,10.18,0,0,1,495,43.8a7.94,7.94,0,0,1,2.67,6.11l-.07.12h-3.77a5.37,5.37,0,0,0-1.74-4.11,6.23,6.23,0,0,0-4.45-1.63,6.09,6.09,0,0,0-4.25,1.35,4.5,4.5,0,0,0-1.47,3.49,3.9,3.9,0,0,0,1.62,3.18,14.73,14.73,0,0,0,5.25,2.24,15,15,0,0,1,6.73,3.38,7.33,7.33,0,0,1,2.31,5.5A6.84,6.84,0,0,1,495,69.12a11.54,11.54,0,0,1-7.26,2.14,12.35,12.35,0,0,1-7.48-2.37,7.21,7.21,0,0,1-3.14-6.34l0-.12H481a4.9,4.9,0,0,0,2.09,4.24,7.92,7.92,0,0,0,4.72,1.5,7.11,7.11,0,0,0,4.45-1.26A4.13,4.13,0,0,0,493.87,63.47Z"/></g><g id="IMG"><g id="STD"><rect data-cppathid="10011" stroke-width="3" stroke-miterlimit="10" stroke="#fff" fill="#0099a8" rx="8.88" height="94.42" width="72.66" y="9.94" x="66.69"/><path data-cppathid="10012" fill="#fff" d="M82.16,43H78.05V26H73.79V22.8l8.37-.73Z"/><path data-cppathid="10013" fill="#fff" d="M102.79,35.5a8.11,8.11,0,0,1-1.9,5.68,7.24,7.24,0,0,1-10.12,0,8.06,8.06,0,0,1-1.91-5.68V29.83a8.15,8.15,0,0,1,1.9-5.69,7.21,7.21,0,0,1,10.11,0,8.06,8.06,0,0,1,1.92,5.69Zm-4.12-6.1a5.32,5.32,0,0,0-.75-3.06,2.42,2.42,0,0,0-2.1-1.09,2.38,2.38,0,0,0-2.1,1.09A5.32,5.32,0,0,0,93,29.4v6.49A5.45,5.45,0,0,0,93.73,39a2.41,2.41,0,0,0,2.12,1.08A2.38,2.38,0,0,0,97.93,39a5.46,5.46,0,0,0,.74-3.11Z"/><path data-cppathid="10014" fill="#fff" d="M119.4,35.5a8.06,8.06,0,0,1-1.9,5.68,7.24,7.24,0,0,1-10.12,0,8.06,8.06,0,0,1-1.91-5.68V29.83a8.11,8.11,0,0,1,1.91-5.69,7.2,7.2,0,0,1,10.1,0,8.06,8.06,0,0,1,1.92,5.69Zm-4.11-6.1a5.32,5.32,0,0,0-.76-3.06,2.42,2.42,0,0,0-2.1-1.09,2.38,2.38,0,0,0-2.1,1.09,5.32,5.32,0,0,0-.74,3.06v6.49a5.45,5.45,0,0,0,.75,3.11,2.42,2.42,0,0,0,2.12,1.08A2.38,2.38,0,0,0,114.54,39a5.45,5.45,0,0,0,.75-3.11Z"/><path data-cppathid="10015" fill="#fff" d="M132,43h-4.12V26h-4.25V22.8l8.37-.73Z"/><path data-cppathid="10016" fill="#fff" d="M86.18,61.08a8.07,8.07,0,0,1-1.91,5.69,6.52,6.52,0,0,1-5,2.06,6.59,6.59,0,0,1-5.07-2.06,8.07,8.07,0,0,1-1.91-5.69V55.41a8.09,8.09,0,0,1,1.9-5.68,7.18,7.18,0,0,1,10.11,0,8.06,8.06,0,0,1,1.92,5.68ZM82.06,55a5.38,5.38,0,0,0-.75-3.07,2.44,2.44,0,0,0-2.1-1.09,2.4,2.4,0,0,0-2.1,1.09A5.38,5.38,0,0,0,76.36,55v6.49a5.4,5.4,0,0,0,.75,3.1,2.43,2.43,0,0,0,2.12,1.08,2.4,2.4,0,0,0,2.09-1.08,5.48,5.48,0,0,0,.74-3.1Z"/><path data-cppathid="10017" fill="#fff" d="M98.77,68.53H94.66v-17H90.4V48.39l8.37-.74Z"/><path data-cppathid="10018" fill="#fff" d="M119.4,61.08a8.07,8.07,0,0,1-1.9,5.69,7.24,7.24,0,0,1-10.12,0,8.07,8.07,0,0,1-1.91-5.69V55.41a8.1,8.1,0,0,1,1.91-5.68,7.17,7.17,0,0,1,10.1,0,8.06,8.06,0,0,1,1.92,5.68ZM115.29,55a5.38,5.38,0,0,0-.76-3.07,2.44,2.44,0,0,0-2.1-1.09,2.4,2.4,0,0,0-2.1,1.09,5.38,5.38,0,0,0-.74,3.07v6.49a5.4,5.4,0,0,0,.75,3.1,2.42,2.42,0,0,0,2.12,1.08,2.38,2.38,0,0,0,2.08-1.08,5.4,5.4,0,0,0,.75-3.1Z"/><path data-cppathid="10019" fill="#fff" d="M132,68.53h-4.12v-17h-4.25V48.39l8.37-.74Z"/><path data-cppathid="10020" fill="#fff" d="M82.16,94.12H78.05v-17H73.79V74l8.37-.74Z"/><path data-cppathid="10021" fill="#fff" d="M102.79,86.67a8.09,8.09,0,0,1-1.9,5.68,7.22,7.22,0,0,1-10.12,0,8,8,0,0,1-1.91-5.68V81a8.12,8.12,0,0,1,1.9-5.68,7.18,7.18,0,0,1,10.11,0A8,8,0,0,1,102.79,81Zm-4.12-6.09a5.38,5.38,0,0,0-.75-3.07,2.42,2.42,0,0,0-2.1-1.09,2.38,2.38,0,0,0-2.1,1.09A5.38,5.38,0,0,0,93,80.58v6.49a5.4,5.4,0,0,0,.75,3.1,2.41,2.41,0,0,0,2.12,1.08,2.38,2.38,0,0,0,2.08-1.08,5.4,5.4,0,0,0,.74-3.1Z"/><path data-cppathid="10022" fill="#fff" d="M115.38,94.12h-4.11v-17H107V74l8.37-.74Z"/><path data-cppathid="10023" fill="#fff" d="M132,94.12h-4.12v-17h-4.25V74l8.37-.74Z"/><polygon data-cppathid="10024" stroke-width="3" stroke-linejoin="round" stroke-linecap="round" stroke="#fff" fill="#0099a8" points="162.03 98.79 152.06 94.8 147.72 104.62 137.47 78.72 143.78 79.22 146.45 75.98 151.76 72.61 162.03 98.79"/><polygon data-cppathid="10025" stroke-width="3" stroke-linejoin="round" stroke-linecap="round" stroke="#fff" fill="#0099a8" points="107.43 100.58 117.12 95.94 122.1 105.46 131.65 77.97 125.32 80.83 116.72 73.35 107.43 100.58"/><path data-cppathid="10026" fill="#0099a8" d="M135.18,16.64h0a5.65,5.65,0,0,1,9,2.1h0a5.64,5.64,0,0,0,6.39,3.41h0a5.66,5.66,0,0,1,6.75,6.32h0a5.66,5.66,0,0,0,3.83,6.16h0a5.65,5.65,0,0,1,2.68,8.85h0a5.65,5.65,0,0,0,.24,7.24h0a5.66,5.66,0,0,1-2.1,9h0a5.66,5.66,0,0,0-3.42,6.39h0a5.65,5.65,0,0,1-6.32,6.75h0a5.65,5.65,0,0,0-6.15,3.83h0a5.66,5.66,0,0,1-8.85,2.68h0a5.67,5.67,0,0,0-7.25.24h0a5.65,5.65,0,0,1-9-2.1h0a5.65,5.65,0,0,0-6.39-3.41h0a5.66,5.66,0,0,1-6.75-6.33h0A5.67,5.67,0,0,0,104,61.63h0a5.66,5.66,0,0,1-2.69-8.85h0a5.65,5.65,0,0,0-.24-7.24h0a5.66,5.66,0,0,1,2.1-9h0a5.65,5.65,0,0,0,3.42-6.39h0a5.66,5.66,0,0,1,6.32-6.75h0a5.67,5.67,0,0,0,6.16-3.83h0a5.66,5.66,0,0,1,8.85-2.69h0A5.66,5.66,0,0,0,135.18,16.64Z"/><path data-cppathid="10027" fill="#fff" d="M136.24,17.7a4.2,4.2,0,0,1,6.45,1.35,8.26,8.26,0,0,0,3,3.68,7.18,7.18,0,0,0,4.71,1,4.66,4.66,0,0,1,4,.82,4.4,4.4,0,0,1,1.41,4,7.23,7.23,0,0,0,4.42,7.41,4.7,4.7,0,0,1,1.85,1,4.24,4.24,0,0,1,1.16,1.64,4.34,4.34,0,0,1-.71,4.24l1.29-.74c-2,.06-2.74,3.61-2.69,5.16s.95,5.15,2.93,5.08L163,51.78a4.22,4.22,0,0,1,.71,4.24c-.67,1.7-2.19,2.09-3.44,2.9a7.19,7.19,0,0,0-3.18,4.57c-.36,1.83.48,3.45-.17,5.21a4.19,4.19,0,0,1-3.83,2.72,19.67,19.67,0,0,0-2.66,0,7.12,7.12,0,0,0-2.88,1.06c-1.72,1.13-2.27,2.62-3.15,4.36a4.18,4.18,0,0,1-3.79,2.26c-2,0-3.33-1.79-5.26-2.21a7.44,7.44,0,0,0-6.44,1.69l1.06-.44c-.74,0-1.17.61-1.78.94a4.07,4.07,0,0,1-2,.49A4.17,4.17,0,0,1,123,78a19,19,0,0,1-1.06-2,7.21,7.21,0,0,0-6.25-3.49c-1.66,0-3.06.55-4.55-.5a4.23,4.23,0,0,1-1.78-3.86,8,8,0,0,0-.72-4.43c-.65-1.28-2.16-3-3.66-3.32-.44-.08,0,.14.15.19-.25-.1-.52-.31-.78-.43a4.4,4.4,0,0,1-1-.56A4.21,4.21,0,0,1,102,57.87a4.31,4.31,0,0,1,.68-4.33l-1.3.74c2-.07,2.75-3.61,2.7-5.17s-1-5.14-2.94-5.07l1.07.44a4.23,4.23,0,0,1-.68-4.34,4.31,4.31,0,0,1,1.36-1.72c.16-.12.38-.2.53-.32s.82-.68-.18-.07c.42-.26,1.08-.32,1.55-.6a7.17,7.17,0,0,0,3.33-4.66c.36-1.83-.48-3.46.17-5.21a4.2,4.2,0,0,1,4-2.73c2,0,3.75.08,5.5-1.13a7.81,7.81,0,0,0,2-2c.54-.8.72-1.74,1.22-2.55a4.2,4.2,0,0,1,3.93-2,8.11,8.11,0,0,1,2.52,1l.18.08c.47,0,.53.06.17.06s-.32,0,.08.2l.32.18a7.81,7.81,0,0,0,1.69.63,7.44,7.44,0,0,0,6.44-1.69c1.48-1.24-.65-3.35-2.12-2.12-2,1.62-4,.86-6-.18-.59-.31.72.45,0-.19a3.29,3.29,0,0,0-.55-.3,8.9,8.9,0,0,0-1.21-.47,7.24,7.24,0,0,0-7.75,2.71c-1.23,1.68-1.33,3.77-3.57,4.56a7.6,7.6,0,0,1-2.85.12,7.17,7.17,0,0,0-7,5.24c-.56,2,.45,3.81-.3,5.72a4.94,4.94,0,0,1-1.88,2.14c-.47.37-.14.23.12.1-.25.12-.62.14-.9.27a7.16,7.16,0,0,0-4.13,6.34,7.05,7.05,0,0,0,.64,3.07c.39.88,1.16,2.36,2.29,2.33L100,46.6A4.28,4.28,0,0,1,100,52l1.29-.74c-1.76.06-2.51,2.9-2.66,4.3a7.15,7.15,0,0,0,1.17,4.65,7.46,7.46,0,0,0,1.76,1.83,7.59,7.59,0,0,0,1.06.63,3.54,3.54,0,0,0,.66.28l-.21-.16a1.14,1.14,0,0,0,.51.27,4.31,4.31,0,0,1,2.78,4c0,1.91-.11,3.58,1,5.27a7.32,7.32,0,0,0,4.32,3.16c1.86.46,3.77-.43,5.55.25,1.93.74,2.22,2.57,3.35,4a7.25,7.25,0,0,0,10.47.89l-1.07.44c1,0,1.67-1,2.6-1.26a4.08,4.08,0,0,1,3.12.32,21.2,21.2,0,0,0,2.63,1.49,6.87,6.87,0,0,0,2.88.39,7.2,7.2,0,0,0,5-2.53c1.32-1.59,1.45-3.85,3.48-4.81a5,5,0,0,1,2.75-.33,6.9,6.9,0,0,0,3.18-.45,7.24,7.24,0,0,0,4.17-4.29,6.86,6.86,0,0,0,.38-3,6.82,6.82,0,0,1,0-2.85c.64-2.14,2.54-2.48,4-3.55A7.23,7.23,0,0,0,167,54.61a6.94,6.94,0,0,0-.64-3.07c-.39-.88-1.15-2.36-2.29-2.32l1.06.44a4.29,4.29,0,0,1,0-5.43l-1.3.75c1.7-.06,2.47-2.74,2.64-4.11A7.18,7.18,0,0,0,165.33,36a7.42,7.42,0,0,0-1.76-1.82,13.59,13.59,0,0,0-2.36-1.1,4.45,4.45,0,0,1-2.42-4.27,7.73,7.73,0,0,0-1.08-5.06,7.27,7.27,0,0,0-4.38-3.06c-1.81-.4-3.67.46-5.4-.21-2-.77-2.26-2.7-3.46-4.19a7.24,7.24,0,0,0-10.35-.73C132.64,16.82,134.77,18.93,136.24,17.7Z"/><circle data-cppathid="10028" stroke-width="3" stroke-miterlimit="10" stroke="#fff" fill="none" r="25.04" cy="48.13" cx="132.59"/><path data-cppathid="10029" fill="#fff" d="M146.33,43.81,129.07,59.53a3.18,3.18,0,0,1-2.45.82,3.27,3.27,0,0,1-1.82-.81l-5.52-5a3.17,3.17,0,0,1,4.25-4.7l3.4,3.08,15.13-13.79a3.17,3.17,0,1,1,4.27,4.69Z"/></g></g></svg>