<?xml version="1.0" encoding="UTF-8"?>
<svg xmlns="http://www.w3.org/2000/svg" onmouseup="{ if(window.parent.document.onmouseup) window.parent.document.onmouseup(arguments[0]);}" viewBox="0 0 747.27 114.26"><g id="BOX"><path data-cppathid="10000" fill-rule="evenodd" fill="#0097a7" d="M0,57.13A57.13,57.13,0,0,1,57.13,0h633a57.13,57.13,0,0,1,0,114.26h-633A57.13,57.13,0,0,1,0,57.13Z"/></g><g id="TXT"><path data-cppathid="10001" fill="#fff" d="M233.73,58.17V70.84h-4V41.62h10q4.8,0,7.33,2.13a7.65,7.65,0,0,1,2.53,6.18,6.59,6.59,0,0,1-1.18,3.92A7.89,7.89,0,0,1,245,56.5,6,6,0,0,1,248.5,59a8.27,8.27,0,0,1,1.06,4.35v2.75a9.18,9.18,0,0,0,.3,2.45,3.65,3.65,0,0,0,1,1.77v.48h-4.07a3.22,3.22,0,0,1-1-2,16.23,16.23,0,0,1-.22-2.73V63.43a5.24,5.24,0,0,0-1.39-3.81,4.87,4.87,0,0,0-3.71-1.45Zm0-3.11h5.64q3.36,0,4.83-1.28a4.85,4.85,0,0,0,1.48-3.89,5,5,0,0,0-1.44-3.82,6.27,6.27,0,0,0-4.46-1.36h-6.05Z"/><path data-cppathid="10002" fill="#fff" d="M272,57.29H260V67.75h14.06v3.09h-18V41.6h17.79v3.11H260v9.46h12Z"/><path data-cppathid="10003" fill="#fff" d="M294.47,63.47a4.39,4.39,0,0,0-1.42-3.33,11.88,11.88,0,0,0-5-2.29,16.59,16.59,0,0,1-7-3.26,6.81,6.81,0,0,1-2.5-5.4,7.17,7.17,0,0,1,2.69-5.72,10.38,10.38,0,0,1,7-2.29,10.2,10.2,0,0,1,7.36,2.62,7.93,7.93,0,0,1,2.66,6.11l-.06.12h-3.78a5.4,5.4,0,0,0-1.73-4.11,6.25,6.25,0,0,0-4.45-1.63A6.07,6.07,0,0,0,284,45.64a4.48,4.48,0,0,0-1.48,3.49,3.9,3.9,0,0,0,1.62,3.18,14.9,14.9,0,0,0,5.25,2.24,14.93,14.93,0,0,1,6.73,3.38,7.33,7.33,0,0,1,2.31,5.5,6.86,6.86,0,0,1-2.78,5.69,11.58,11.58,0,0,1-7.26,2.14,12.33,12.33,0,0,1-7.48-2.37,7.22,7.22,0,0,1-3.15-6.34l0-.12h3.78a4.88,4.88,0,0,0,2.09,4.24,7.88,7.88,0,0,0,4.72,1.5,7.13,7.13,0,0,0,4.45-1.26A4.12,4.12,0,0,0,294.47,63.47Z"/><path data-cppathid="10004" fill="#fff" d="M308.11,59.11V70.84h-3.95V41.6h11.18q4.68,0,7.28,2.41a8.23,8.23,0,0,1,2.61,6.35,8.2,8.2,0,0,1-2.61,6.36c-1.73,1.6-4.16,2.39-7.28,2.39Zm0-3.09h7.23a5.32,5.32,0,0,0,5.91-5.62,5.79,5.79,0,0,0-1.48-4.06,5.66,5.66,0,0,0-4.43-1.63h-7.23Z"/><path data-cppathid="10005" fill="#fff" d="M352.77,58.83a12.47,12.47,0,0,1-3.33,8.9,11.27,11.27,0,0,1-8.62,3.53,10.69,10.69,0,0,1-8.33-3.53,12.73,12.73,0,0,1-3.2-8.9v-5.2a12.78,12.78,0,0,1,3.2-8.9,10.67,10.67,0,0,1,8.33-3.55,11.28,11.28,0,0,1,8.62,3.54,12.51,12.51,0,0,1,3.33,8.91Zm-4-5.24A9.86,9.86,0,0,0,346.64,47a7.25,7.25,0,0,0-5.82-2.57A6.71,6.71,0,0,0,335.3,47a10.24,10.24,0,0,0-2.06,6.59v5.24a10.28,10.28,0,0,0,2.06,6.63A6.71,6.71,0,0,0,340.82,68a7.22,7.22,0,0,0,5.83-2.56,10,10,0,0,0,2.16-6.64Z"/><path data-cppathid="10006" fill="#fff" d="M380.71,70.84h-4L362.67,48.51l-.12,0V70.84h-4V41.6h4l14.08,22.31.12,0V41.6h4Z"/><path data-cppathid="10007" fill="#fff" d="M403.27,63.47a4.39,4.39,0,0,0-1.43-3.33,11.88,11.88,0,0,0-5-2.29,16.71,16.71,0,0,1-7-3.26,6.81,6.81,0,0,1-2.5-5.4,7.17,7.17,0,0,1,2.69-5.72,10.38,10.38,0,0,1,7-2.29,10.2,10.2,0,0,1,7.36,2.62,7.93,7.93,0,0,1,2.66,6.11L407,50h-3.78a5.36,5.36,0,0,0-1.73-4.11A6.23,6.23,0,0,0,397,44.29a6.09,6.09,0,0,0-4.25,1.35,4.51,4.51,0,0,0-1.48,3.49,3.9,3.9,0,0,0,1.62,3.18,14.9,14.9,0,0,0,5.25,2.24,14.93,14.93,0,0,1,6.73,3.38,7.33,7.33,0,0,1,2.31,5.5,6.86,6.86,0,0,1-2.78,5.69,11.56,11.56,0,0,1-7.26,2.14,12.33,12.33,0,0,1-7.48-2.37,7.24,7.24,0,0,1-3.15-6.34l0-.12h3.78a4.9,4.9,0,0,0,2.09,4.24,7.88,7.88,0,0,0,4.72,1.5,7.13,7.13,0,0,0,4.45-1.26A4.13,4.13,0,0,0,403.27,63.47Z"/><path data-cppathid="10008" fill="#fff" d="M428.05,63.31h-11l-2.61,7.53h-4L420.94,41.6h3.4l10.32,29.24h-4ZM418.19,60h8.74l-4.26-12.56h-.12Z"/><path data-cppathid="10009" fill="#fff" d="M439.08,70.84V41.6h9.54a11.53,11.53,0,0,1,7.17,2,7,7,0,0,1,2.59,5.93,5.36,5.36,0,0,1-1.16,3.39,7.49,7.49,0,0,1-3.09,2.28,6.76,6.76,0,0,1,4.55,2.49,7.65,7.65,0,0,1,1.67,4.92,7.43,7.43,0,0,1-2.61,6.13,10.84,10.84,0,0,1-7.07,2.12ZM443,54h6.41A5.24,5.24,0,0,0,453,52.82a4.25,4.25,0,0,0,1.39-3.39,4.21,4.21,0,0,0-1.5-3.54,6.81,6.81,0,0,0-4.31-1.18H443Zm0,3.09V67.75h7.63a6.11,6.11,0,0,0,4.21-1.34,4.8,4.8,0,0,0,1.5-3.78,5.22,5.22,0,0,0-1.53-3.92,6,6,0,0,0-4.12-1.59H443Z"/><path data-cppathid="10010" fill="#fff" d="M469.74,70.84h-4V41.6h4Z"/><path data-cppathid="10011" fill="#fff" d="M481.07,67.75h14.26v3.09H477.11V41.6h4Z"/><path data-cppathid="10012" fill="#fff" d="M504.23,70.84h-4V41.6h4Z"/><path data-cppathid="10013" fill="#fff" d="M511.6,70.84V41.6h9.2a12,12,0,0,1,12.7,12.63v4a12,12,0,0,1-12.7,12.61Zm4-26.13v23h5.24a8.07,8.07,0,0,0,6.4-2.67,10,10,0,0,0,2.34-6.85v-4a10,10,0,0,0-2.34-6.81,8.07,8.07,0,0,0-6.4-2.67Z"/><path data-cppathid="10014" fill="#fff" d="M554.69,63.31h-11l-2.61,7.53h-4L547.58,41.6H551L561.3,70.84h-4ZM544.83,60h8.73L549.3,47.44h-.12Z"/><path data-cppathid="10015" fill="#fff" d="M565.72,70.84V41.6h9.2a12,12,0,0,1,12.69,12.63v4a12,12,0,0,1-12.69,12.61Zm3.95-26.13v23h5.25a8.06,8.06,0,0,0,6.39-2.67,10,10,0,0,0,2.34-6.85v-4a10,10,0,0,0-2.34-6.81,8.06,8.06,0,0,0-6.39-2.67Z"/></g><g id="IMG"><g id="RESP"><path data-cppathid="10016" fill-rule="evenodd" fill="#fff" d="M165.1,103.1H121.39a1.58,1.58,0,0,1-1.58-1.58V89.8a19.48,19.48,0,0,1,17-19.31,1.56,1.56,0,0,1,1.4.55,6.89,6.89,0,0,0,5,2.79h0a6.85,6.85,0,0,0,5-2.8,1.59,1.59,0,0,1,1.4-.55A19.47,19.47,0,0,1,166.68,89.8v11.72a1.58,1.58,0,0,1-1.58,1.58ZM123,99.93h40.55V89.8A16.3,16.3,0,0,0,150,73.74,9.61,9.61,0,0,1,143.28,77h-.06a9.58,9.58,0,0,1-6.79-3.24A16.31,16.31,0,0,0,123,89.8Z"/><path data-cppathid="10017" fill-rule="evenodd" fill="#fff" d="M143.22,69.54a8.44,8.44,0,0,1-4.63-1.45,13.24,13.24,0,0,1-3.51-3.43,16.34,16.34,0,0,1-3.14-9.15,11.29,11.29,0,0,1,11.28-11.28h0A11.27,11.27,0,0,1,154.5,55.51a16.34,16.34,0,0,1-3.14,9.15,13,13,0,0,1-3.51,3.43,8.44,8.44,0,0,1-4.63,1.45Zm0-22.15h0a8.13,8.13,0,0,0-8.12,8.12,13.37,13.37,0,0,0,2.55,7.31c1.62,2.26,3.65,3.55,5.57,3.55s3.95-1.29,5.58-3.55a13.43,13.43,0,0,0,2.54-7.31A8.13,8.13,0,0,0,143.25,47.39Z"/><path data-cppathid="10018" fill-rule="evenodd" fill="#fff" d="M121.08,91.6h-54A1.57,1.57,0,0,1,65.53,90V13.88a1.57,1.57,0,0,1,1.58-1.58h76.14a1.58,1.58,0,0,1,1.58,1.58V45.72a1.58,1.58,0,1,1-3.16,0V15.46h-73v73h52.39a1.58,1.58,0,0,1,0,3.16Z"/><path data-cppathid="10019" fill-rule="evenodd" fill="#fff" d="M82.11,83.71H77.18a1.58,1.58,0,0,1-1.58-1.58V63.64a1.58,1.58,0,0,1,1.58-1.58h4.93a1.58,1.58,0,0,1,1.58,1.58V82.13a1.58,1.58,0,0,1-1.58,1.58Zm-3.35-3.16h1.76V65.22H78.76Z"/><path data-cppathid="10020" fill-rule="evenodd" fill="#fff" d="M93.2,83.71H88.27a1.58,1.58,0,0,1-1.58-1.58V69.73a1.58,1.58,0,0,1,1.58-1.58H93.2a1.58,1.58,0,0,1,1.58,1.58v12.4a1.58,1.58,0,0,1-1.58,1.58Zm-3.35-3.16h1.77V71.32H89.85Z"/><path data-cppathid="10021" fill-rule="evenodd" fill="#fff" d="M104.29,83.71H99.37a1.59,1.59,0,0,1-1.59-1.58V57.38a1.59,1.59,0,0,1,1.59-1.59h4.92a1.59,1.59,0,0,1,1.58,1.59V82.13a1.58,1.58,0,0,1-1.58,1.58ZM101,80.55h1.76V59H101Z"/><path data-cppathid="10022" fill-rule="evenodd" fill="#fff" d="M115.38,83.71h-4.92a1.58,1.58,0,0,1-1.58-1.58V63.64a1.58,1.58,0,0,1,1.58-1.58h4.92A1.58,1.58,0,0,1,117,63.64V82.13a1.58,1.58,0,0,1-1.58,1.58ZM112,80.55h1.76V65.22H112V80.55Z"/><path data-cppathid="10023" fill-rule="evenodd" fill="#fff" d="M112.72,47.8A13.84,13.84,0,1,1,126.56,34,13.85,13.85,0,0,1,112.72,47.8Zm0-24.51a10.68,10.68,0,0,0,0,21.35h0a10.68,10.68,0,1,0,0-21.35Z"/><path data-cppathid="10024" fill-rule="evenodd" fill="#fff" d="M112.72,35.61a1.57,1.57,0,0,1-.6-.12,1.59,1.59,0,0,1-1-1.46V21.84a1.58,1.58,0,1,1,3.16,0v8.37l5.89-5.88a1.58,1.58,0,1,1,2.23,2.23l-8.58,8.59A1.59,1.59,0,0,1,112.72,35.61Z"/><path data-cppathid="10025" fill-rule="evenodd" fill="#fff" d="M92.18,25h-15a1.58,1.58,0,1,1,0-3.16h15a1.58,1.58,0,0,1,0,3.16Z"/><path data-cppathid="10026" fill-rule="evenodd" fill="#fff" d="M92.18,30.3h-15a1.58,1.58,0,1,1,0-3.16h15a1.58,1.58,0,0,1,0,3.16Z"/><path data-cppathid="10027" fill-rule="evenodd" fill="#fff" d="M92.18,35.57h-15a1.58,1.58,0,0,1,0-3.16h15a1.58,1.58,0,0,1,0,3.16Z"/><path data-cppathid="10028" fill-rule="evenodd" fill="#fff" d="M92.18,40.84h-15a1.58,1.58,0,1,1,0-3.16h15a1.58,1.58,0,1,1,0,3.16Z"/><path data-cppathid="10029" fill-rule="evenodd" fill="#fff" d="M92.18,46.11h-15a1.58,1.58,0,0,1,0-3.16h15a1.58,1.58,0,0,1,0,3.16Z"/></g></g></svg>