<?xml version="1.0" encoding="UTF-8"?>
<svg xmlns="http://www.w3.org/2000/svg" onmouseup="{ if(window.parent.document.onmouseup) window.parent.document.onmouseup(arguments[0]);}" viewBox="0 0 238 49" data-name="Capa 1" id="Capa_1"><path data-cppathid="10000" fill-rule="evenodd" fill="#ffc000" d="M0,24.5A24.5,24.5,0,0,1,24.5,0h189a24.5,24.5,0,0,1,0,49H24.5A24.5,24.5,0,0,1,0,24.5Z"/><path data-cppathid="10001" fill="#595959" d="M37,27.77a1.89,1.89,0,0,0-.63-1.45,5.13,5.13,0,0,0-2.2-1,7.23,7.23,0,0,1-3-1.42,3,3,0,0,1-1.1-2.36A3.17,3.17,0,0,1,31.24,19a4.56,4.56,0,0,1,3.06-1,4.44,4.44,0,0,1,3.22,1.15,3.47,3.47,0,0,1,1.17,2.67l0,.05H37a2.4,2.4,0,0,0-.76-1.8,2.77,2.77,0,0,0-2-.71,2.68,2.68,0,0,0-1.86.59,2,2,0,0,0-.64,1.53,1.69,1.69,0,0,0,.7,1.39,6.63,6.63,0,0,0,2.3,1,6.64,6.64,0,0,1,3,1.48,3.22,3.22,0,0,1,1,2.41,3,3,0,0,1-1.22,2.48,5,5,0,0,1-3.18.94,5.4,5.4,0,0,1-3.27-1,3.16,3.16,0,0,1-1.38-2.78l0-.05h1.65a2.16,2.16,0,0,0,.92,1.86,3.48,3.48,0,0,0,2.06.65,3.12,3.12,0,0,0,2-.55A1.8,1.8,0,0,0,37,27.77Z"/><path data-cppathid="10002" fill="#595959" d="M43.12,31H41.38V18.2h1.74Z"/><path data-cppathid="10003" fill="#595959" d="M53.05,27.77a1.89,1.89,0,0,0-.63-1.45,5.14,5.14,0,0,0-2.19-1,7.22,7.22,0,0,1-3-1.42,3,3,0,0,1-1.09-2.36A3.16,3.16,0,0,1,47.26,19a4.56,4.56,0,0,1,3.06-1,4.44,4.44,0,0,1,3.22,1.15,3.47,3.47,0,0,1,1.17,2.67l0,.05H53a2.36,2.36,0,0,0-.76-1.8,2.77,2.77,0,0,0-2-.71,2.68,2.68,0,0,0-1.86.59,2,2,0,0,0-.64,1.53,1.69,1.69,0,0,0,.7,1.39,6.63,6.63,0,0,0,2.3,1,6.64,6.64,0,0,1,3,1.48,3.22,3.22,0,0,1,1,2.41,3,3,0,0,1-1.22,2.48,5,5,0,0,1-3.18.94,5.42,5.42,0,0,1-3.27-1,3.16,3.16,0,0,1-1.38-2.78l0-.05H47.4a2.16,2.16,0,0,0,.92,1.86,3.5,3.5,0,0,0,2.06.65,3.12,3.12,0,0,0,1.95-.55A1.8,1.8,0,0,0,53.05,27.77Z"/><path data-cppathid="10004" fill="#595959" d="M66.18,19.57H62V31H60.23V19.57H56.06V18.2H66.18Z"/><path data-cppathid="10005" fill="#595959" d="M75.2,25.07H69.94v4.58H76.1V31H68.21V18.2H76v1.37H69.94v4.14H75.2Z"/><path data-cppathid="10006" fill="#595959" d="M84.56,28.6h0L88.7,18.2h2.15V31H89.12V21.41h-.05L85.19,31H84l-4-9.91h0V31H78.22V18.2h2.27Z"/><path data-cppathid="10007" fill="#595959" d="M100.82,27.7H96L94.86,31H93.1l4.61-12.8H99.2L103.71,31H102Zm-4.31-1.45h3.82l-1.86-5.49h-.06Z"/><path data-cppathid="10008" fill="#595959" d="M109.22,31V18.2h4a5.27,5.27,0,0,1,5.55,5.53v1.75A5.24,5.24,0,0,1,113.25,31ZM111,19.57V29.65h2.3a3.54,3.54,0,0,0,2.8-1.17,4.4,4.4,0,0,0,1-3V23.71a4.38,4.38,0,0,0-1-3,3.57,3.57,0,0,0-2.8-1.16Z"/><path data-cppathid="10009" fill="#595959" d="M128.22,25.07H123v4.58h6.16V31h-7.89V18.2H129v1.37H123v4.14h5.26Z"/><path data-cppathid="10010" fill="#595959" d="M142.84,27.7H138L136.88,31h-1.76l4.61-12.8h1.48L145.73,31H144Zm-4.31-1.45h3.82l-1.86-5.49h-.06Z"/><path data-cppathid="10011" fill="#595959" d="M149,29.65h6.24V31h-8V18.2H149Z"/><path data-cppathid="10012" fill="#595959" d="M164.23,25.07H159v4.58h6.15V31h-7.88V18.2H165v1.37H159v4.14h5.26Z"/><path data-cppathid="10013" fill="#595959" d="M169,25.45V31h-1.73V18.21h4.38a4.88,4.88,0,0,1,3.21.93,3.34,3.34,0,0,1,1.11,2.71,2.89,2.89,0,0,1-.52,1.71,3.37,3.37,0,0,1-1.5,1.16,2.6,2.6,0,0,1,1.52,1.12,3.59,3.59,0,0,1,.46,1.9v1.2A4,4,0,0,0,176,30a1.63,1.63,0,0,0,.46.77V31h-1.78a1.4,1.4,0,0,1-.44-.88,6.67,6.67,0,0,1-.1-1.19V27.76a2.29,2.29,0,0,0-.61-1.67,2.14,2.14,0,0,0-1.62-.64Zm0-1.36h2.47a3.19,3.19,0,0,0,2.12-.56,2.12,2.12,0,0,0,.64-1.7,2.2,2.2,0,0,0-.62-1.67,2.77,2.77,0,0,0-2-.59H169Z"/><path data-cppathid="10014" fill="#595959" d="M187.19,19.57H183V31h-1.73V19.57h-4.16V18.2h10.11Z"/><path data-cppathid="10015" fill="#595959" d="M195.84,27.7H191L189.88,31h-1.77l4.62-12.8h1.48L198.73,31H197Zm-4.32-1.45h3.82l-1.86-5.49h0Z"/><path data-cppathid="10016" fill="#595959" d="M207.05,27.77a1.92,1.92,0,0,0-.62-1.45,5.19,5.19,0,0,0-2.2-1,7.34,7.34,0,0,1-3-1.42,3,3,0,0,1-1.09-2.36A3.14,3.14,0,0,1,201.27,19a4.53,4.53,0,0,1,3.06-1,4.46,4.46,0,0,1,3.22,1.15,3.43,3.43,0,0,1,1.16,2.67l0,.05H207a2.36,2.36,0,0,0-.76-1.8,2.73,2.73,0,0,0-1.94-.71,2.68,2.68,0,0,0-1.86.59,2,2,0,0,0-.65,1.53,1.7,1.7,0,0,0,.71,1.39,6.54,6.54,0,0,0,2.3,1,6.55,6.55,0,0,1,2.94,1.48,3.19,3.19,0,0,1,1,2.41,3,3,0,0,1-1.21,2.48,5.05,5.05,0,0,1-3.18.94,5.43,5.43,0,0,1-3.28-1,3.17,3.17,0,0,1-1.37-2.78l0-.05h1.65a2.16,2.16,0,0,0,.91,1.86,3.51,3.51,0,0,0,2.07.65,3.07,3.07,0,0,0,1.94-.55A1.8,1.8,0,0,0,207.05,27.77Z"/></svg>