<?xml version="1.0" encoding="UTF-8"?>
<svg xmlns="http://www.w3.org/2000/svg" onmouseup="{ if(window.parent.document.onmouseup) window.parent.document.onmouseup(arguments[0]);}" viewBox="0 0 238 49" data-name="Capa 1" id="Capa_1"><path data-cppathid="10000" fill-rule="evenodd" fill="red" transform="translate(-1)" d="M1,24.5A24.5,24.5,0,0,1,25.5,0h189a24.5,24.5,0,0,1,0,49H25.5A24.5,24.5,0,0,1,1,24.5Z"/><path data-cppathid="10001" fill="#fff" transform="translate(-1)" d="M43.88,31H42.15L36,21.23h-.05V31H34.21V18.2h1.73L42.1,28l0,0V18.2h1.73Z"/><path data-cppathid="10002" fill="#fff" transform="translate(-1)" d="M49.12,31H47.38V18.2h1.74Z"/><path data-cppathid="10003" fill="#fff" transform="translate(-1)" d="M56.11,27.64l.29,1.07h.05l.29-1.07L60,18.2h1.88L57.16,31H55.68L50.92,18.2H52.8Z"/><path data-cppathid="10004" fill="#fff" transform="translate(-1)" d="M70.21,25.07H65v4.58h6.15V31H63.23V18.2H71v1.37H65v4.14h5.25Z"/><path data-cppathid="10005" fill="#fff" transform="translate(-1)" d="M74.94,29.65h6.24V31h-8V18.2h1.73Z"/><path data-cppathid="10006" fill="#fff" transform="translate(-1)" d="M87.2,31V18.2h4a5.27,5.27,0,0,1,5.55,5.53v1.75A5.24,5.24,0,0,1,91.23,31Zm1.74-11.43V29.65h2.29A3.53,3.53,0,0,0,94,28.48a4.4,4.4,0,0,0,1-3V23.71a4.38,4.38,0,0,0-1-3,3.56,3.56,0,0,0-2.8-1.16Z"/><path data-cppathid="10007" fill="#fff" transform="translate(-1)" d="M106.18,25.07h-5.25v4.58h6.15V31H99.2V18.2H107v1.37h-6v4.14h5.25Z"/><path data-cppathid="10008" fill="#fff" transform="translate(-1)" d="M123.31,26.9l0,.06a3.84,3.84,0,0,1-1.27,3,4.82,4.82,0,0,1-3.43,1.21,4.52,4.52,0,0,1-3.54-1.53,5.69,5.69,0,0,1-1.37-3.91V23.47a5.69,5.69,0,0,1,1.37-3.91A4.5,4.5,0,0,1,118.63,18a5,5,0,0,1,3.45,1.15,3.88,3.88,0,0,1,1.25,3.07l0,.05h-1.66a2.88,2.88,0,0,0-.79-2.13,3,3,0,0,0-2.23-.78,2.74,2.74,0,0,0-2.32,1.17,4.79,4.79,0,0,0-.86,2.9v2.29a4.81,4.81,0,0,0,.86,2.92,2.74,2.74,0,0,0,2.32,1.17,3,3,0,0,0,2.23-.78,2.88,2.88,0,0,0,.79-2.15Z"/><path data-cppathid="10009" fill="#fff" transform="translate(-1)" d="M126.91,25.45V31h-1.73V18.21h4.38a4.88,4.88,0,0,1,3.21.93,3.37,3.37,0,0,1,1.1,2.71,2.88,2.88,0,0,1-.51,1.71,3.37,3.37,0,0,1-1.5,1.16,2.64,2.64,0,0,1,1.52,1.12,3.69,3.69,0,0,1,.46,1.9v1.2A4,4,0,0,0,134,30a1.63,1.63,0,0,0,.46.77V31h-1.79a1.5,1.5,0,0,1-.44-.88,7.75,7.75,0,0,1-.09-1.19V27.76a2.29,2.29,0,0,0-.61-1.67,2.15,2.15,0,0,0-1.62-.64Zm0-1.36h2.47a3.19,3.19,0,0,0,2.12-.56,2.12,2.12,0,0,0,.64-1.7,2.17,2.17,0,0,0-.63-1.67,2.74,2.74,0,0,0-1.95-.59h-2.65Z"/><path data-cppathid="10010" fill="#fff" transform="translate(-1)" d="M138.1,31h-1.74V18.2h1.74Z"/><path data-cppathid="10011" fill="#fff" transform="translate(-1)" d="M150.15,19.57h-4.22V31H144.2V19.57H140V18.2h10.12Z"/><path data-cppathid="10012" fill="#fff" transform="translate(-1)" d="M154.12,31h-1.74V18.2h1.74Z"/><path data-cppathid="10013" fill="#fff" transform="translate(-1)" d="M166.35,26.9l0,.06a3.84,3.84,0,0,1-1.27,3,4.82,4.82,0,0,1-3.43,1.21,4.52,4.52,0,0,1-3.54-1.53,5.69,5.69,0,0,1-1.37-3.91V23.47a5.69,5.69,0,0,1,1.37-3.91A4.5,4.5,0,0,1,161.67,18a5,5,0,0,1,3.45,1.15,3.88,3.88,0,0,1,1.25,3.07l0,.05h-1.66a2.88,2.88,0,0,0-.79-2.13,3,3,0,0,0-2.23-.78,2.74,2.74,0,0,0-2.32,1.17,4.79,4.79,0,0,0-.86,2.9v2.29a4.81,4.81,0,0,0,.86,2.92,2.74,2.74,0,0,0,2.32,1.17,3,3,0,0,0,2.23-.78,2.88,2.88,0,0,0,.79-2.15Z"/><path data-cppathid="10014" fill="#fff" transform="translate(-1)" d="M170.14,31H168.4V18.2h1.74Z"/><path data-cppathid="10015" fill="#fff" transform="translate(-1)" d="M173.24,31V18.2h4a5.28,5.28,0,0,1,5.56,5.53v1.75A5.25,5.25,0,0,1,177.26,31ZM175,19.57V29.65h2.29a3.52,3.52,0,0,0,2.8-1.17,4.36,4.36,0,0,0,1-3V23.71a4.34,4.34,0,0,0-1-3,3.54,3.54,0,0,0-2.8-1.16Z"/><path data-cppathid="10016" fill="#fff" transform="translate(-1)" d="M191.84,27.7H187L185.88,31h-1.77l4.62-12.8h1.48L194.73,31H193Zm-4.32-1.45h3.83l-1.87-5.49h0Z"/><path data-cppathid="10017" fill="#fff" transform="translate(-1)" d="M196.23,31V18.2h4a5.27,5.27,0,0,1,5.55,5.53v1.75A5.24,5.24,0,0,1,200.26,31ZM198,19.57V29.65h2.29a3.53,3.53,0,0,0,2.8-1.17,4.4,4.4,0,0,0,1-3V23.71a4.38,4.38,0,0,0-1-3,3.56,3.56,0,0,0-2.8-1.16Z"/></svg>