<?xml version="1.0" encoding="UTF-8"?>
<svg xmlns="http://www.w3.org/2000/svg" onmouseup="{ if(window.parent.document.onmouseup) window.parent.document.onmouseup(arguments[0]);}" viewBox="0 0 238 50" data-name="Capa 1" id="Capa_1"><path data-cppathid="10000" fill-rule="evenodd" fill="#baf8ff" d="M0,25A25,25,0,0,1,25,0H213a25,25,0,0,1,0,50H25A25,25,0,0,1,0,25Z"/><path data-cppathid="10001" fill="#595959" d="M78.71,26.16l0,.06a3.84,3.84,0,0,1-1.27,3A4.81,4.81,0,0,1,74,30.44a4.52,4.52,0,0,1-3.54-1.53A5.69,5.69,0,0,1,69.12,25V22.73a5.69,5.69,0,0,1,1.37-3.91A4.5,4.5,0,0,1,74,17.28a4.94,4.94,0,0,1,3.45,1.15,3.85,3.85,0,0,1,1.25,3.07l0,.05H77.05a2.84,2.84,0,0,0-.79-2.13A3,3,0,0,0,74,18.64a2.71,2.71,0,0,0-2.31,1.17,4.73,4.73,0,0,0-.87,2.9V25a4.75,4.75,0,0,0,.87,2.92A2.71,2.71,0,0,0,74,29.09a3,3,0,0,0,2.23-.78,2.86,2.86,0,0,0,.79-2.15Z"/><path data-cppathid="10002" fill="#595959" d="M90.32,25a5.46,5.46,0,0,1-1.45,3.9,5,5,0,0,1-3.78,1.54,4.68,4.68,0,0,1-3.64-1.54,5.56,5.56,0,0,1-1.4-3.9V22.73a5.59,5.59,0,0,1,1.4-3.9,4.69,4.69,0,0,1,3.64-1.55,5,5,0,0,1,3.78,1.55,5.46,5.46,0,0,1,1.45,3.9Zm-1.73-2.29a4.33,4.33,0,0,0-1-2.88,3.16,3.16,0,0,0-2.55-1.13,2.93,2.93,0,0,0-2.41,1.13,4.47,4.47,0,0,0-.9,2.88V25a4.49,4.49,0,0,0,.9,2.9A2.93,2.93,0,0,0,85.09,29a3.17,3.17,0,0,0,2.56-1.12A4.42,4.42,0,0,0,88.59,25Z"/><path data-cppathid="10003" fill="#595959" d="M98.73,27.86h0l4.09-10.4H105v12.8h-1.73V20.67h-.05l-3.88,9.6h-1.2l-4-9.91h0v9.91H92.39V17.46h2.27Z"/><path data-cppathid="10004" fill="#595959" d="M109.32,25.13v5.13h-1.73V17.46h4.89a4.49,4.49,0,0,1,3.19,1.06,3.6,3.6,0,0,1,1.14,2.78,3.59,3.59,0,0,1-1.14,2.78,4.53,4.53,0,0,1-3.19,1.05Zm0-1.36h3.16a2.53,2.53,0,0,0,1.94-4.23,2.46,2.46,0,0,0-1.94-.71h-3.16Z"/><path data-cppathid="10005" fill="#595959" d="M120.33,28.91h6.24v1.35h-8V17.46h1.73Z"/><path data-cppathid="10006" fill="#595959" d="M135.05,24.33H129.8v4.58H136v1.35h-7.88V17.46h7.78v1.37h-6V23h5.25Z"/><path data-cppathid="10007" fill="#595959" d="M146.51,18.83h-4.22V30.26h-1.73V18.83H136.4V17.46h10.11Z"/><path data-cppathid="10008" fill="#595959" d="M157.34,17.46V26a4.14,4.14,0,0,1-1.37,3.3,5.22,5.22,0,0,1-3.54,1.18A4.91,4.91,0,0,1,149,29.25,4.2,4.2,0,0,1,147.7,26v-8.5h1.73V26a3.08,3.08,0,0,0,.84,2.3,3,3,0,0,0,2.16.83,3.21,3.21,0,0,0,2.29-.83,3,3,0,0,0,.89-2.3v-8.5Z"/><path data-cppathid="10009" fill="#595959" d="M159.65,30.26V17.46h4A5.28,5.28,0,0,1,169.23,23v1.75a5.25,5.25,0,0,1-5.56,5.52Zm1.73-11.43V28.91h2.29a3.52,3.52,0,0,0,2.8-1.17,4.36,4.36,0,0,0,1-3V23a4.34,4.34,0,0,0-1-3,3.54,3.54,0,0,0-2.8-1.16Z"/></svg>