<?xml version="1.0" encoding="UTF-8"?>
<svg xmlns="http://www.w3.org/2000/svg" onmouseup="{ if(window.parent.document.onmouseup) window.parent.document.onmouseup(arguments[0]);}" viewBox="0 0 238 50" data-name="Capa 1" id="Capa_1"><path data-cppathid="10000" fill-rule="evenodd" fill="#31eafe" d="M0,25A25,25,0,0,1,25,0H213a25,25,0,0,1,0,50H25A25,25,0,0,1,0,25Z"/><path data-cppathid="10001" fill="#595959" d="M21,30.26V17.46h4A5.28,5.28,0,0,1,30.55,23v1.75A5.25,5.25,0,0,1,25,30.26ZM22.7,18.83V28.91H25a3.53,3.53,0,0,0,2.8-1.17,4.4,4.4,0,0,0,1-3V23a4.38,4.38,0,0,0-1-3A3.56,3.56,0,0,0,25,18.83Z"/><path data-cppathid="10002" fill="#595959" d="M34.89,30.26H33.15V17.46h1.74Z"/><path data-cppathid="10003" fill="#595959" d="M47.11,26.16v.06a3.8,3.8,0,0,1-1.26,3,4.83,4.83,0,0,1-3.44,1.21,4.55,4.55,0,0,1-3.54-1.53A5.68,5.68,0,0,1,37.52,25V22.73a5.68,5.68,0,0,1,1.36-3.91,4.53,4.53,0,0,1,3.54-1.54,5,5,0,0,1,3.46,1.15,3.84,3.84,0,0,1,1.24,3.07v.05H45.45a2.85,2.85,0,0,0-.8-2.13,3,3,0,0,0-2.23-.78,2.74,2.74,0,0,0-2.31,1.17,4.79,4.79,0,0,0-.86,2.9V25a4.81,4.81,0,0,0,.86,2.92,2.74,2.74,0,0,0,2.31,1.17,3,3,0,0,0,2.23-.78,2.87,2.87,0,0,0,.8-2.15Z"/><path data-cppathid="10004" fill="#595959" d="M58.11,26.16l0,.06a3.84,3.84,0,0,1-1.27,3,4.81,4.81,0,0,1-3.43,1.21,4.52,4.52,0,0,1-3.54-1.53A5.69,5.69,0,0,1,48.52,25V22.73a5.69,5.69,0,0,1,1.37-3.91,4.5,4.5,0,0,1,3.54-1.54,5,5,0,0,1,3.45,1.15,3.85,3.85,0,0,1,1.25,3.07l0,.05H56.45a2.84,2.84,0,0,0-.79-2.13,3,3,0,0,0-2.23-.78,2.74,2.74,0,0,0-2.32,1.17,4.79,4.79,0,0,0-.86,2.9V25a4.81,4.81,0,0,0,.86,2.92,2.74,2.74,0,0,0,2.32,1.17,3,3,0,0,0,2.23-.78,2.86,2.86,0,0,0,.79-2.15Z"/><path data-cppathid="10005" fill="#595959" d="M61.9,30.26H60.16V17.46H61.9Z"/><path data-cppathid="10006" fill="#595959" d="M74.75,25a5.46,5.46,0,0,1-1.45,3.9,5,5,0,0,1-3.78,1.54,4.69,4.69,0,0,1-3.64-1.54,5.6,5.6,0,0,1-1.4-3.9V22.73a5.64,5.64,0,0,1,1.4-3.9,4.7,4.7,0,0,1,3.64-1.55,5,5,0,0,1,3.78,1.55,5.46,5.46,0,0,1,1.45,3.9ZM73,22.71a4.28,4.28,0,0,0-1-2.88,3.16,3.16,0,0,0-2.55-1.13,2.94,2.94,0,0,0-2.41,1.13,4.47,4.47,0,0,0-.9,2.88V25a4.49,4.49,0,0,0,.9,2.9A2.94,2.94,0,0,0,69.52,29a3.16,3.16,0,0,0,2.56-1.12A4.37,4.37,0,0,0,73,25Z"/><path data-cppathid="10007" fill="#595959" d="M86.68,30.26H84.94l-6.16-9.77h0v9.76H77V17.46h1.73l6.16,9.77,0,0V17.46h1.74Z"/><path data-cppathid="10008" fill="#595959" d="M96.61,27H91.79l-1.14,3.3H88.88l4.61-12.8H95l4.52,12.8H97.73Zm-4.32-1.45h3.82L94.25,20h0Z"/><path data-cppathid="10009" fill="#595959" d="M102.73,24.71v5.55H101V17.47h4.38a4.83,4.83,0,0,1,3.2.93,3.34,3.34,0,0,1,1.11,2.71,2.88,2.88,0,0,1-.51,1.71,3.37,3.37,0,0,1-1.5,1.16,2.64,2.64,0,0,1,1.52,1.12,3.69,3.69,0,0,1,.46,1.9v1.2a4,4,0,0,0,.13,1.08,1.63,1.63,0,0,0,.46.77v.21h-1.79a1.45,1.45,0,0,1-.44-.88,7.75,7.75,0,0,1-.09-1.19V27a2.33,2.33,0,0,0-.61-1.67,2.16,2.16,0,0,0-1.63-.64Zm0-1.36h2.47a3.15,3.15,0,0,0,2.11-.56,2.1,2.1,0,0,0,.65-1.7,2.17,2.17,0,0,0-.63-1.67,2.74,2.74,0,0,0-2-.59h-2.65Z"/><path data-cppathid="10010" fill="#595959" d="M113.92,30.26h-1.74V17.46h1.74Z"/><path data-cppathid="10011" fill="#595959" d="M126.77,25a5.46,5.46,0,0,1-1.45,3.9,5,5,0,0,1-3.78,1.54,4.69,4.69,0,0,1-3.64-1.54,5.6,5.6,0,0,1-1.4-3.9V22.73a5.64,5.64,0,0,1,1.4-3.9,4.7,4.7,0,0,1,3.64-1.55,5,5,0,0,1,3.78,1.55,5.46,5.46,0,0,1,1.45,3.9ZM125,22.71a4.28,4.28,0,0,0-1-2.88,3.16,3.16,0,0,0-2.55-1.13,2.94,2.94,0,0,0-2.41,1.13,4.47,4.47,0,0,0-.9,2.88V25a4.49,4.49,0,0,0,.9,2.9A2.94,2.94,0,0,0,121.54,29a3.16,3.16,0,0,0,2.56-1.12A4.37,4.37,0,0,0,125,25Z"/><path data-cppathid="10012" fill="#595959" d="M136,30.26V17.46h4A5.27,5.27,0,0,1,145.59,23v1.75A5.24,5.24,0,0,1,140,30.26Zm1.73-11.43V28.91H140a3.54,3.54,0,0,0,2.8-1.17,4.4,4.4,0,0,0,1-3V23a4.38,4.38,0,0,0-1-3,3.57,3.57,0,0,0-2.8-1.16Z"/><path data-cppathid="10013" fill="#595959" d="M155,24.33h-5.26v4.58h6.16v1.35H148V17.46h7.79v1.37h-6.06V23H155Z"/><path data-cppathid="10014" fill="#595959" d="M163,30.26V17.46h4A5.27,5.27,0,0,1,172.58,23v1.75A5.24,5.24,0,0,1,167,30.26Zm1.74-11.43V28.91H167a3.53,3.53,0,0,0,2.8-1.17,4.4,4.4,0,0,0,1-3V23a4.38,4.38,0,0,0-1-3,3.56,3.56,0,0,0-2.8-1.16Z"/><path data-cppathid="10015" fill="#595959" d="M181.62,27h-4.81l-1.14,3.3H173.9l4.61-12.8H180l4.52,12.8h-1.77Zm-4.31-1.45h3.82L179.27,20h-.05Z"/><path data-cppathid="10016" fill="#595959" d="M195,18.83h-4.22V30.26H189V18.83h-4.17V17.46H195Z"/><path data-cppathid="10017" fill="#595959" d="M206.77,25a5.46,5.46,0,0,1-1.45,3.9,5,5,0,0,1-3.78,1.54,4.69,4.69,0,0,1-3.64-1.54,5.6,5.6,0,0,1-1.4-3.9V22.73a5.64,5.64,0,0,1,1.4-3.9,4.7,4.7,0,0,1,3.64-1.55,5,5,0,0,1,3.78,1.55,5.46,5.46,0,0,1,1.45,3.9ZM205,22.71a4.28,4.28,0,0,0-.95-2.88,3.16,3.16,0,0,0-2.55-1.13,2.94,2.94,0,0,0-2.41,1.13,4.47,4.47,0,0,0-.9,2.88V25a4.49,4.49,0,0,0,.9,2.9A2.94,2.94,0,0,0,201.54,29a3.16,3.16,0,0,0,2.56-1.12A4.37,4.37,0,0,0,205,25Z"/><path data-cppathid="10018" fill="#595959" d="M215.84,27a1.89,1.89,0,0,0-.63-1.45,5.08,5.08,0,0,0-2.19-1A7.28,7.28,0,0,1,210,23.15a3,3,0,0,1-1.09-2.36,3.14,3.14,0,0,1,1.18-2.51,4.52,4.52,0,0,1,3.05-1,4.42,4.42,0,0,1,3.22,1.15,3.44,3.44,0,0,1,1.17,2.67l0,0h-1.65a2.36,2.36,0,0,0-.76-1.8,2.75,2.75,0,0,0-1.95-.71,2.71,2.71,0,0,0-1.86.59,2,2,0,0,0-.64,1.53,1.68,1.68,0,0,0,.71,1.39,6.46,6.46,0,0,0,2.3,1,6.6,6.6,0,0,1,2.94,1.48,3.22,3.22,0,0,1,1,2.41,3,3,0,0,1-1.22,2.48,5,5,0,0,1-3.17.94,5.43,5.43,0,0,1-3.28-1,3.17,3.17,0,0,1-1.37-2.78v-.05h1.66a2.16,2.16,0,0,0,.91,1.86,3.51,3.51,0,0,0,2.07.65,3.08,3.08,0,0,0,1.94-.55A1.8,1.8,0,0,0,215.84,27Z"/></svg>