<?xml version="1.0" encoding="UTF-8"?>
<svg xmlns="http://www.w3.org/2000/svg" onmouseup="{ if(window.parent.document.onmouseup) window.parent.document.onmouseup(arguments[0]);}" viewBox="0 0 238 49" data-name="Capa 1" id="Capa_1"><path data-cppathid="10000" fill-rule="evenodd" fill="#71f3cf" d="M0,24.5A24.5,24.5,0,0,1,24.5,0h189a24.5,24.5,0,0,1,0,49H24.5A24.5,24.5,0,0,1,0,24.5Z"/><path data-cppathid="10001" fill="#595959" d="M42.34,25.9V26a3.8,3.8,0,0,1-1.26,3,4.83,4.83,0,0,1-3.44,1.21,4.55,4.55,0,0,1-3.54-1.53,5.68,5.68,0,0,1-1.36-3.91V22.47a5.68,5.68,0,0,1,1.36-3.91A4.53,4.53,0,0,1,37.65,17a5,5,0,0,1,3.46,1.15,3.83,3.83,0,0,1,1.24,3.07v.05H40.68a2.85,2.85,0,0,0-.8-2.13,3,3,0,0,0-2.23-.78,2.74,2.74,0,0,0-2.31,1.17,4.79,4.79,0,0,0-.86,2.9v2.29a4.81,4.81,0,0,0,.86,2.92,2.74,2.74,0,0,0,2.31,1.17,3,3,0,0,0,2.23-.78,2.85,2.85,0,0,0,.8-2.15Z"/><path data-cppathid="10002" fill="#595959" d="M53.65,17.2v8.5A4.14,4.14,0,0,1,52.28,29a5.22,5.22,0,0,1-3.54,1.18A4.89,4.89,0,0,1,45.33,29,4.2,4.2,0,0,1,44,25.7V17.2h1.73v8.5a3.08,3.08,0,0,0,.84,2.3,3,3,0,0,0,2.16.83A3.22,3.22,0,0,0,51,28a3,3,0,0,0,.89-2.3V17.2Z"/><path data-cppathid="10003" fill="#595959" d="M63.05,26.77a1.89,1.89,0,0,0-.63-1.45,5.08,5.08,0,0,0-2.19-1,7.28,7.28,0,0,1-3-1.42,3,3,0,0,1-1.09-2.36A3.14,3.14,0,0,1,57.27,18a4.52,4.52,0,0,1,3-1,4.42,4.42,0,0,1,3.22,1.15,3.47,3.47,0,0,1,1.17,2.67l0,.05H63a2.36,2.36,0,0,0-.76-1.8,2.77,2.77,0,0,0-2-.71,2.71,2.71,0,0,0-1.86.59,2,2,0,0,0-.64,1.53,1.68,1.68,0,0,0,.71,1.39,6.48,6.48,0,0,0,2.29,1,6.59,6.59,0,0,1,3,1.48,3.22,3.22,0,0,1,1,2.41,3,3,0,0,1-1.22,2.48,5,5,0,0,1-3.17.94,5.43,5.43,0,0,1-3.28-1,3.17,3.17,0,0,1-1.37-2.78v-.05h1.66a2.16,2.16,0,0,0,.91,1.86,3.51,3.51,0,0,0,2.07.65,3.08,3.08,0,0,0,1.94-.55A1.8,1.8,0,0,0,63.05,26.77Z"/><path data-cppathid="10004" fill="#595959" d="M76.18,18.57H72V30H70.23V18.57H66.06V17.2H76.18Z"/><path data-cppathid="10005" fill="#595959" d="M88,24.74a5.47,5.47,0,0,1-1.46,3.9,4.93,4.93,0,0,1-3.77,1.54,4.67,4.67,0,0,1-3.64-1.54,5.56,5.56,0,0,1-1.41-3.9V22.47a5.6,5.6,0,0,1,1.41-3.9A4.67,4.67,0,0,1,82.76,17a4.94,4.94,0,0,1,3.77,1.55A5.47,5.47,0,0,1,88,22.47Zm-1.73-2.29a4.33,4.33,0,0,0-1-2.88,3.18,3.18,0,0,0-2.55-1.13,2.93,2.93,0,0,0-2.41,1.13,4.47,4.47,0,0,0-.9,2.88v2.29a4.49,4.49,0,0,0,.9,2.9,2.93,2.93,0,0,0,2.41,1.13,3.15,3.15,0,0,0,2.55-1.12,4.37,4.37,0,0,0,1-2.91Z"/><path data-cppathid="10006" fill="#595959" d="M90.23,30V17.2h4a5.27,5.27,0,0,1,5.55,5.53v1.75A5.24,5.24,0,0,1,94.26,30ZM92,18.57V28.65h2.3a3.54,3.54,0,0,0,2.8-1.17,4.4,4.4,0,0,0,1-3V22.71a4.38,4.38,0,0,0-1-3,3.57,3.57,0,0,0-2.8-1.16Z"/><path data-cppathid="10007" fill="#595959" d="M104.16,30h-1.74V17.2h1.74Z"/><path data-cppathid="10008" fill="#595959" d="M117,24.74a5.46,5.46,0,0,1-1.45,3.9,5,5,0,0,1-3.78,1.54,4.68,4.68,0,0,1-3.64-1.54,5.6,5.6,0,0,1-1.4-3.9V22.47a5.64,5.64,0,0,1,1.4-3.9A4.69,4.69,0,0,1,111.8,17a5,5,0,0,1,3.78,1.55,5.46,5.46,0,0,1,1.45,3.9Zm-1.73-2.29a4.33,4.33,0,0,0-1-2.88,3.16,3.16,0,0,0-2.55-1.13,2.94,2.94,0,0,0-2.41,1.13,4.47,4.47,0,0,0-.9,2.88v2.29a4.49,4.49,0,0,0,.9,2.9,2.94,2.94,0,0,0,2.41,1.13,3.16,3.16,0,0,0,2.56-1.12,4.37,4.37,0,0,0,.94-2.91Z"/><path data-cppathid="10009" fill="#595959" d="M125.26,30V17.2h4a5.27,5.27,0,0,1,5.55,5.53v1.75A5.24,5.24,0,0,1,129.29,30ZM127,18.57V28.65h2.3a3.53,3.53,0,0,0,2.8-1.17,4.4,4.4,0,0,0,1-3V22.71a4.38,4.38,0,0,0-1-3,3.56,3.56,0,0,0-2.8-1.16Z"/><path data-cppathid="10010" fill="#595959" d="M144.26,24.07H139v4.58h6.16V30h-7.89V17.2h7.79v1.37H139v4.14h5.26Z"/><path data-cppathid="10011" fill="#595959" d="M151.28,30V17.2h4a5.27,5.27,0,0,1,5.55,5.53v1.75A5.24,5.24,0,0,1,155.31,30ZM153,18.57V28.65h2.3a3.54,3.54,0,0,0,2.8-1.17,4.4,4.4,0,0,0,1-3V22.71a4.38,4.38,0,0,0-1-3,3.57,3.57,0,0,0-2.8-1.16Z"/><path data-cppathid="10012" fill="#595959" d="M169.9,26.7h-4.81L163.94,30h-1.76l4.61-12.8h1.49L172.79,30H171Zm-4.31-1.45h3.82l-1.86-5.49h-.06Z"/><path data-cppathid="10013" fill="#595959" d="M183.24,18.57H179V30h-1.74V18.57h-4.16V17.2h10.11Z"/><path data-cppathid="10014" fill="#595959" d="M195.05,24.74a5.46,5.46,0,0,1-1.45,3.9,5,5,0,0,1-3.78,1.54,4.68,4.68,0,0,1-3.64-1.54,5.6,5.6,0,0,1-1.4-3.9V22.47a5.64,5.64,0,0,1,1.4-3.9A4.69,4.69,0,0,1,189.82,17a5,5,0,0,1,3.78,1.55,5.46,5.46,0,0,1,1.45,3.9Zm-1.73-2.29a4.33,4.33,0,0,0-.95-2.88,3.16,3.16,0,0,0-2.55-1.13,2.94,2.94,0,0,0-2.41,1.13,4.47,4.47,0,0,0-.9,2.88v2.29a4.49,4.49,0,0,0,.9,2.9,2.94,2.94,0,0,0,2.41,1.13,3.16,3.16,0,0,0,2.56-1.12,4.37,4.37,0,0,0,.94-2.91Z"/><path data-cppathid="10015" fill="#595959" d="M204.12,26.77a1.89,1.89,0,0,0-.63-1.45,5.14,5.14,0,0,0-2.19-1,7.28,7.28,0,0,1-3.05-1.42,3,3,0,0,1-1.09-2.36A3.16,3.16,0,0,1,198.33,18a4.56,4.56,0,0,1,3.06-1,4.44,4.44,0,0,1,3.22,1.15,3.47,3.47,0,0,1,1.17,2.67l0,.05H204.1a2.36,2.36,0,0,0-.76-1.8,2.77,2.77,0,0,0-2-.71,2.68,2.68,0,0,0-1.86.59,2,2,0,0,0-.64,1.53,1.68,1.68,0,0,0,.71,1.39,6.48,6.48,0,0,0,2.29,1,6.64,6.64,0,0,1,3,1.48,3.22,3.22,0,0,1,1,2.41,3,3,0,0,1-1.22,2.48,5,5,0,0,1-3.18.94,5.42,5.42,0,0,1-3.27-1,3.18,3.18,0,0,1-1.38-2.78l0-.05h1.65a2.16,2.16,0,0,0,.92,1.86,3.5,3.5,0,0,0,2.06.65,3.12,3.12,0,0,0,2-.55A1.8,1.8,0,0,0,204.12,26.77Z"/></svg>