<?xml version="1.0" encoding="UTF-8"?>
<svg xmlns="http://www.w3.org/2000/svg" onmouseup="{ if(window.parent.document.onmouseup) window.parent.document.onmouseup(arguments[0]);}" viewBox="0 0 380.16 89.67" id="over"><rect data-cppathid="10000" stroke-width="3" stroke-miterlimit="10" stroke="#00ffd3" fill="#00ffd3" rx="43.33" height="86.67" width="377.16" y="1.5" x="1.5"/><path data-cppathid="10001" fill="#333e48" d="M40.45,61.21h-5.7V27.08h5.7Z"/><path data-cppathid="10002" fill="#333e48" d="M53.79,47.05V61.21h-5.7V27.08H59.83q5.7,0,8.81,2.58A9,9,0,0,1,71.76,37a7.62,7.62,0,0,1-1.37,4.56,9.46,9.46,0,0,1-4,3.06,7.2,7.2,0,0,1,4.16,3,9.48,9.48,0,0,1,1.28,5.11v2.84a11.49,11.49,0,0,0,.38,2.93,4.19,4.19,0,0,0,1.24,2.18v.54H67.59a3.78,3.78,0,0,1-1.2-2.42,21.22,21.22,0,0,1-.25-3.28V52.77a5.74,5.74,0,0,0-1.51-4.17,5.5,5.5,0,0,0-4.12-1.55Zm0-4.57h5.74q3.42,0,5-1.31a4.92,4.92,0,0,0,1.57-4,5.29,5.29,0,0,0-1.55-4,6.61,6.61,0,0,0-4.71-1.47h-6Z"/><path data-cppathid="10003" fill="#333e48" d="M108.35,53.24H96.25l-2.62,8H87.75l11.9-34.13h5.42l11.76,34.13H111ZM97.82,48.48h9L102.42,35h-.14Z"/><path data-cppathid="10004" fill="#333e48" d="M126.75,56.66h16v4.55H121.05V27.08h5.7Z"/><path data-cppathid="10005" fill="#333e48" d="M159.51,61.21V27.08h11.28a14.27,14.27,0,0,1,10.55,4.06,14.1,14.1,0,0,1,4.07,10.43v5.18a14.07,14.07,0,0,1-4.07,10.43,14.37,14.37,0,0,1-10.55,4Zm5.7-29.56v25h5.58a8.16,8.16,0,0,0,6.51-2.78,10.47,10.47,0,0,0,2.41-7.13V41.52a10.42,10.42,0,0,0-2.41-7.09,8.19,8.19,0,0,0-6.51-2.78Z"/><path data-cppathid="10006" fill="#333e48" d="M210.72,45.86H197.36v10.8h15.75v4.55H191.67V27.08H213v4.57H197.36v9.64h13.36Z"/><path data-cppathid="10007" fill="#333e48" d="M236.22,52.44A4.48,4.48,0,0,0,234.71,49a13.88,13.88,0,0,0-5.35-2.44,22.83,22.83,0,0,1-8.5-4,8,8,0,0,1-3-6.46,8.38,8.38,0,0,1,3.28-6.8,13,13,0,0,1,8.44-2.67,12.77,12.77,0,0,1,8.85,3,9.09,9.09,0,0,1,3.2,7.32l0,.14h-5.48a5.44,5.44,0,0,0-1.8-4.29,6.91,6.91,0,0,0-4.77-1.59,6.53,6.53,0,0,0-4.44,1.36A4.42,4.42,0,0,0,223.54,36a3.9,3.9,0,0,0,1.71,3.25,18.57,18.57,0,0,0,5.68,2.42,20,20,0,0,1,8.18,4.09,8.64,8.64,0,0,1,2.81,6.63,8.08,8.08,0,0,1-3.33,6.77,14,14,0,0,1-8.74,2.53,15.15,15.15,0,0,1-9.07-2.77,8.74,8.74,0,0,1-3.75-7.8l0-.14h5.49a5.39,5.39,0,0,0,2.12,4.63,8.48,8.48,0,0,0,5.17,1.56,7.63,7.63,0,0,0,4.7-1.28A4.13,4.13,0,0,0,236.22,52.44Z"/><path data-cppathid="10008" fill="#333e48" d="M265.52,53.24H253.43l-2.63,8h-5.88l11.9-34.13h5.42L274,61.21h-5.88ZM255,48.48h9L259.59,35h-.14Z"/><path data-cppathid="10009" fill="#333e48" d="M297.68,46.65H283.92V61.21h-5.7V27.08h21.85v4.57H283.92V42.08h13.76Z"/><path data-cppathid="10010" fill="#333e48" d="M311,61.21h-5.69V27.08H311Zm-1-43.71h6.45l0,.14L310,23.73h-4.57Z"/><path data-cppathid="10011" fill="#333e48" d="M345.42,47.22a14.43,14.43,0,0,1-3.93,10.37,13.46,13.46,0,0,1-10.2,4.11,13,13,0,0,1-10-4.11,14.62,14.62,0,0,1-3.84-10.37V41.07a14.64,14.64,0,0,1,3.83-10.35,13,13,0,0,1,10-4.13,13.45,13.45,0,0,1,10.19,4.13,14.38,14.38,0,0,1,3.94,10.35ZM339.72,41a10.64,10.64,0,0,0-2.27-7,7.58,7.58,0,0,0-6.16-2.74,7.17,7.17,0,0,0-6,2.74,11,11,0,0,0-2.16,7v6.19a11,11,0,0,0,2.18,7.06A7.15,7.15,0,0,0,331.29,57a7.58,7.58,0,0,0,6.17-2.75,10.71,10.71,0,0,0,2.26-7.07Z"/></svg>