<?xml version="1.0" encoding="UTF-8"?>
<svg xmlns="http://www.w3.org/2000/svg" onmouseup="{ if(window.parent.document.onmouseup) window.parent.document.onmouseup(arguments[0]);}" viewBox="0 0 380.16 89.67" id="normal"><rect data-cppathid="10000" stroke-width="3" stroke-miterlimit="10" stroke="#00ffd3" fill="none" rx="43.33" height="86.67" width="377.16" y="1.5" x="1.5"/><path data-cppathid="10001" fill="#fff" d="M52.85,61.21H47.63V29.93h5.22Z"/><path data-cppathid="10002" fill="#fff" d="M65.08,48.23v13H59.86V29.93H70.62c3.48,0,6.17.78,8.08,2.36A8.28,8.28,0,0,1,81.56,39a6.92,6.92,0,0,1-1.26,4.17A8.63,8.63,0,0,1,76.64,46a6.62,6.62,0,0,1,3.81,2.73,8.74,8.74,0,0,1,1.17,4.68V56A11,11,0,0,0,82,58.72a3.81,3.81,0,0,0,1.14,2v.5H77.73A3.4,3.4,0,0,1,76.64,59a19,19,0,0,1-.24-3V53.47A5.2,5.2,0,0,0,75,49.65a5,5,0,0,0-3.77-1.42Zm0-4.19h5.26a7.11,7.11,0,0,0,4.58-1.2,4.52,4.52,0,0,0,1.44-3.68,4.87,4.87,0,0,0-1.42-3.7,6.08,6.08,0,0,0-4.32-1.34H65.08Z"/><path data-cppathid="10003" fill="#fff" d="M115.09,53.9H104l-2.41,7.31H96.21l10.91-31.28h5l10.78,31.28h-5.39Zm-9.64-4.36h8.22l-4-12.33h-.13Z"/><path data-cppathid="10004" fill="#fff" d="M132,57h14.65v4.17H126.74V29.93H132Z"/><path data-cppathid="10005" fill="#fff" d="M162,61.21V29.93h10.34A13.15,13.15,0,0,1,182,33.64a13,13,0,0,1,3.72,9.56V48A12.88,12.88,0,0,1,182,57.51a13.14,13.14,0,0,1-9.68,3.7Zm5.22-27.09V57h5.12a7.5,7.5,0,0,0,6-2.55A9.56,9.56,0,0,0,180.51,48V43.16a9.54,9.54,0,0,0-2.21-6.5,7.49,7.49,0,0,0-6-2.54Z"/><path data-cppathid="10006" fill="#fff" d="M208.94,47.14H196.69V57h14.44v4.17H191.47V29.93H211v4.19H196.69V43h12.25Z"/><path data-cppathid="10007" fill="#fff" d="M232.31,53.17a4.12,4.12,0,0,0-1.38-3.2A12.83,12.83,0,0,0,226,47.74a20.72,20.72,0,0,1-7.79-3.67,7.29,7.29,0,0,1-2.74-5.91,7.69,7.69,0,0,1,3-6.24,11.85,11.85,0,0,1,7.73-2.44,11.71,11.71,0,0,1,8.11,2.71,8.3,8.3,0,0,1,2.93,6.72l0,.13h-5a5,5,0,0,0-1.64-3.94,6.36,6.36,0,0,0-4.37-1.46,6,6,0,0,0-4.07,1.25,4.08,4.08,0,0,0-1.43,3.22,3.56,3.56,0,0,0,1.57,3,17,17,0,0,0,5.2,2.22A18.16,18.16,0,0,1,235,47.06a7.88,7.88,0,0,1,2.58,6.07,7.4,7.4,0,0,1-3.05,6.21,12.85,12.85,0,0,1-8,2.32,14,14,0,0,1-8.32-2.54A8,8,0,0,1,214.72,52l0-.13h5a4.9,4.9,0,0,0,1.94,4.24,7.75,7.75,0,0,0,4.74,1.43,7,7,0,0,0,4.31-1.17A3.78,3.78,0,0,0,232.31,53.17Z"/><path data-cppathid="10008" fill="#fff" d="M259.17,53.9H248.08l-2.41,7.31h-5.39L251.2,29.93h5l10.78,31.28h-5.39Zm-9.65-4.36h8.23l-4-12.33h-.13Z"/><path data-cppathid="10009" fill="#fff" d="M288.64,47.87H276V61.21h-5.22V29.93h20v4.19H276v9.56h12.61Z"/><path data-cppathid="10010" fill="#fff" d="M300.83,61.21H295.6V29.93h5.23Zm-1-40.07h5.91l0,.13-5.87,5.58h-4.18Z"/><path data-cppathid="10011" fill="#fff" d="M332.41,48.38a13.22,13.22,0,0,1-3.6,9.51,12.37,12.37,0,0,1-9.36,3.77,11.94,11.94,0,0,1-9.13-3.77,13.38,13.38,0,0,1-3.52-9.51V42.75a13.4,13.4,0,0,1,3.51-9.49,11.9,11.9,0,0,1,9.14-3.78,12.35,12.35,0,0,1,9.35,3.78,13.22,13.22,0,0,1,3.61,9.49Zm-5.22-5.67a9.7,9.7,0,0,0-2.09-6.42,6.94,6.94,0,0,0-5.65-2.52A6.55,6.55,0,0,0,314,36.29a10,10,0,0,0-2,6.42v5.67a10.07,10.07,0,0,0,2,6.48,6.55,6.55,0,0,0,5.43,2.52,6.93,6.93,0,0,0,5.66-2.51,9.84,9.84,0,0,0,2.08-6.49Z"/></svg>