<?xml version="1.0" encoding="UTF-8"?>
<svg xmlns="http://www.w3.org/2000/svg" onmouseup="{ if(window.parent.document.onmouseup) window.parent.document.onmouseup(arguments[0]);}" viewBox="0 0 415 451.2" data-name="Layer 1" id="Layer_1"><g id="m3"><path data-cppathid="10000" fill="#333e48" d="M37.2,448.2A34.25,34.25,0,0,1,3,414V37.2A34.25,34.25,0,0,1,37.2,3H377.8A34.25,34.25,0,0,1,412,37.2V414a34.25,34.25,0,0,1-34.2,34.2Z"/><path data-cppathid="10001" stroke-width="6" stroke-miterlimit="10" stroke="#adadad" fill="none" d="M37.2,448.2A34.25,34.25,0,0,1,3,414V37.2A34.25,34.25,0,0,1,37.2,3H377.8A34.25,34.25,0,0,1,412,37.2V414a34.25,34.25,0,0,1-34.2,34.2Z"/><path data-cppathid="10002" fill="#adadad" d="M377.85,446.7H37.25A32.71,32.71,0,0,1,4.55,414V350.2h405.9V414A32.69,32.69,0,0,1,377.85,446.7Z"/><path data-cppathid="10003" stroke-width="7" stroke-linejoin="round" stroke-linecap="round" stroke="#fff" fill="none" d="M317.6,164.4a31.83,31.83,0,0,0,1.8-10.3,30.86,30.86,0,0,0-30.9-30.9,29.41,29.41,0,0,0-9.9,1.7,78.3,78.3,0,0,0-139-19.4,30.77,30.77,0,0,0-41,35.7,59.81,59.81,0,1,0,77.3,81.2,78.34,78.34,0,0,0,92-27.4,44.4,44.4,0,0,0-1.2,9.7,41.4,41.4,0,1,0,50.9-40.3Z"/><rect data-cppathid="10004" stroke-width="7" stroke-linejoin="round" stroke-linecap="round" stroke="#fff" fill="#333e48" height="113.1" width="88.1" y="200.2" x="128"/><rect data-cppathid="10005" stroke-width="7" stroke-linejoin="round" stroke-linecap="round" stroke="#fff" fill="#333e48" height="113.1" width="88.1" y="182" x="161.5"/><rect data-cppathid="10006" stroke-width="7" stroke-linejoin="round" stroke-linecap="round" stroke="#fff" fill="#333e48" height="113.1" width="88.1" y="163.8" x="195"/><path data-cppathid="10007" stroke-width="7" stroke-linejoin="round" stroke-linecap="round" stroke="#fff" fill="none" d="M239.1,163.4V49.6a7.7,7.7,0,0,0-7.7-7.7H147a7.7,7.7,0,0,0-7.7,7.7V75.1"/><polyline data-cppathid="10008" stroke-width="7" stroke-linejoin="round" stroke-linecap="round" stroke="#fff" fill="none" points="127.3 57.2 138.7 76.5 152.2 57.3"/><g style="isolation:isolate"><g style="isolation:isolate"><path data-cppathid="10009" fill="#fff" d="M137.39,388.44h.11l6.13-20.89h4.57v25.6h-3.55V374.71l-.11,0-5.87,18.46h-2.44l-6-18.74-.1,0v18.72h-3.56v-25.6h4.66Z"/><path data-cppathid="10010" fill="#fff" d="M170.21,383.88a9.79,9.79,0,0,1-2.46,7.1,8.77,8.77,0,0,1-6.59,2.54,8.52,8.52,0,0,1-6.49-2.54,9.9,9.9,0,0,1-2.41-7.1v-7a10,10,0,0,1,2.41-7.1,8.44,8.44,0,0,1,6.47-2.57,8.78,8.78,0,0,1,6.6,2.56,9.81,9.81,0,0,1,2.47,7.11Zm-3.55-7.08a7.8,7.8,0,0,0-1.43-5.07,5,5,0,0,0-4.09-1.73,4.74,4.74,0,0,0-3.95,1.73,8,8,0,0,0-1.38,5.07v7.08A8.05,8.05,0,0,0,157.2,389a4.77,4.77,0,0,0,4,1.74,5,5,0,0,0,4.07-1.73,7.92,7.92,0,0,0,1.43-5.13Z"/><path data-cppathid="10011" fill="#fff" d="M174.39,393.15v-25.6h7.26a8.51,8.51,0,0,1,6.78,3.08,11.76,11.76,0,0,1,2.63,7.91v3.64a11.73,11.73,0,0,1-2.63,7.91,8.52,8.52,0,0,1-6.78,3.06ZM178,370.3v20.14h3.69a4.88,4.88,0,0,0,4.22-2.31,10.29,10.29,0,0,0,1.58-5.95V378.5a10.15,10.15,0,0,0-1.58-5.89,4.88,4.88,0,0,0-4.22-2.31Z"/><path data-cppathid="10012" fill="#fff" d="M212.08,367.55v16.93a9,9,0,0,1-2.39,6.65,8.4,8.4,0,0,1-6.21,2.39,8.16,8.16,0,0,1-6.09-2.4,9.1,9.1,0,0,1-2.34-6.64V367.55h3.56v16.93a7.23,7.23,0,0,0,1.35,4.65,4.3,4.3,0,0,0,3.52,1.68,4.49,4.49,0,0,0,3.63-1.67,7.11,7.11,0,0,0,1.38-4.66V367.55Z"/><path data-cppathid="10013" fill="#fff" d="M220.22,390.44h10.35v2.71H216.65v-25.6h3.57Z"/><path data-cppathid="10014" fill="#fff" d="M250.08,383.88a9.79,9.79,0,0,1-2.46,7.1,8.77,8.77,0,0,1-6.59,2.54,8.54,8.54,0,0,1-6.49-2.54,9.94,9.94,0,0,1-2.4-7.1v-7a10,10,0,0,1,2.4-7.1,8.47,8.47,0,0,1,6.47-2.57,8.75,8.75,0,0,1,6.6,2.56,9.81,9.81,0,0,1,2.47,7.11Zm-3.55-7.08a7.74,7.74,0,0,0-1.43-5.07A5,5,0,0,0,241,370a4.72,4.72,0,0,0-3.94,1.73,8,8,0,0,0-1.38,5.07v7.08a8.05,8.05,0,0,0,1.39,5.12,4.75,4.75,0,0,0,3.95,1.74,5,5,0,0,0,4.08-1.73,7.92,7.92,0,0,0,1.42-5.13Z"/><path data-cppathid="10015" fill="#fff" d="M268.91,378.66a3.37,3.37,0,0,0,2.85-1.18,5.95,5.95,0,0,0,0-6.34,3.19,3.19,0,0,0-2.7-1.21,3.46,3.46,0,0,0-2.71,1.21,4.52,4.52,0,0,0-1.07,3.09h-3.48l0-.1a6.27,6.27,0,0,1,2-4.95,8.23,8.23,0,0,1,10.58-.15,6.88,6.88,0,0,1,2,5.27,6.16,6.16,0,0,1-3.5,5.63,6,6,0,0,1,2.87,2.32,6.93,6.93,0,0,1,1,3.83,7.06,7.06,0,0,1-2.14,5.46,7.74,7.74,0,0,1-5.49,2,8.09,8.09,0,0,1-5.33-1.91,6.22,6.22,0,0,1-2.21-5.25l0-.1H265a4.79,4.79,0,0,0,1.13,3.24,3.7,3.7,0,0,0,2.91,1.31,3.66,3.66,0,0,0,2.94-1.29,5.14,5.14,0,0,0,1.09-3.4,5.27,5.27,0,0,0-1.06-3.59,4,4,0,0,0-3.11-1.18h-2.46v-2.69Z"/><path data-cppathid="10016" fill="#fff" d="M284.33,377.75h-3.61v-3.57h3.61Zm0,15.4h-3.61v-3.57h3.61Z"/></g><g style="isolation:isolate"><path data-cppathid="10017" fill="#fff" d="M68,421.45l0,.1A7.54,7.54,0,0,1,66,427.42a8.27,8.27,0,0,1-6,2.1A8.12,8.12,0,0,1,53.69,427a10,10,0,0,1-2.34-7.07v-7.1a10.17,10.17,0,0,1,2.31-7.09,7.9,7.9,0,0,1,6.18-2.55,8.68,8.68,0,0,1,6.12,2,7.52,7.52,0,0,1,2.13,5.94l0,.1H64.62a5.76,5.76,0,0,0-1.19-4,4.66,4.66,0,0,0-3.59-1.29,4.25,4.25,0,0,0-3.64,1.76,8.59,8.59,0,0,0-1.28,5.07v7.16A8.44,8.44,0,0,0,56.24,425,4.36,4.36,0,0,0,60,426.81a4.53,4.53,0,0,0,3.48-1.27,6,6,0,0,0,1.16-4.09Z"/><path data-cppathid="10018" fill="#fff" d="M83.26,422.68H75.61l-1.85,6.47h-3.7l7.68-25.6H81.2l7.61,25.6H85.1Zm-6.84-2.83h6l-3-10.41h-.1Z"/><path data-cppathid="10019" fill="#fff" d="M104.79,406.3H98v22.85H94.42V406.3H87.69v-2.75h17.1Z"/><path data-cppathid="10020" fill="#fff" d="M117.78,422.68h-7.65l-1.84,6.47h-3.71l7.68-25.6h3.46l7.62,25.6h-3.71Zm-6.84-2.83h6L114,409.44h-.11Zm4.31-23.47h4.1l.05.09-4.26,4.59h-3Z"/><path data-cppathid="10021" fill="#fff" d="M129.84,426.44h10.35v2.71H126.27v-25.6h3.57Z"/><path data-cppathid="10022" fill="#fff" d="M159.7,419.88a9.79,9.79,0,0,1-2.46,7.1,8.75,8.75,0,0,1-6.59,2.54,8.5,8.5,0,0,1-6.48-2.54,9.9,9.9,0,0,1-2.41-7.1v-7a10,10,0,0,1,2.41-7.1,8.44,8.44,0,0,1,6.46-2.57,8.75,8.75,0,0,1,6.6,2.56,9.81,9.81,0,0,1,2.47,7.11Zm-3.55-7.08a7.74,7.74,0,0,0-1.43-5.07,5,5,0,0,0-4.09-1.73,4.72,4.72,0,0,0-3.94,1.73,8,8,0,0,0-1.38,5.07v7.08A8.05,8.05,0,0,0,146.7,425a4.75,4.75,0,0,0,4,1.74,5,5,0,0,0,4.08-1.73,7.92,7.92,0,0,0,1.42-5.13Z"/><path data-cppathid="10023" fill="#fff" d="M180.22,425.81a7.93,7.93,0,0,1-2.91,2.58,10.41,10.41,0,0,1-5.14,1.13,8.75,8.75,0,0,1-6.46-2.45c-1.64-1.63-2.45-3.95-2.45-7v-7.59a9.48,9.48,0,0,1,2.37-6.89,9.62,9.62,0,0,1,12.3-.44,7,7,0,0,1,2,5.48l0,.11h-3.36a5.1,5.1,0,0,0-1.17-3.58,4.38,4.38,0,0,0-3.4-1.27,4.64,4.64,0,0,0-3.79,1.68,7.48,7.48,0,0,0-1.38,4.87v7.63a7.65,7.65,0,0,0,1.43,5,4.83,4.83,0,0,0,3.9,1.71,6.38,6.38,0,0,0,2.89-.56,3.89,3.89,0,0,0,1.57-1.37v-6h-4.71v-2.6h8.3Z"/><path data-cppathid="10024" fill="#fff" d="M202.17,419.88a9.79,9.79,0,0,1-2.46,7.1,8.77,8.77,0,0,1-6.59,2.54,8.54,8.54,0,0,1-6.49-2.54,9.94,9.94,0,0,1-2.4-7.1v-7a10,10,0,0,1,2.4-7.1,8.47,8.47,0,0,1,6.47-2.57,8.75,8.75,0,0,1,6.6,2.56,9.81,9.81,0,0,1,2.47,7.11Zm-3.55-7.08a7.8,7.8,0,0,0-1.43-5.07A5,5,0,0,0,193.1,406a4.72,4.72,0,0,0-3.94,1.73,8,8,0,0,0-1.38,5.07v7.08a8.05,8.05,0,0,0,1.39,5.12,4.75,4.75,0,0,0,4,1.74A5,5,0,0,0,197.2,425a7.92,7.92,0,0,0,1.42-5.13Z"/><path data-cppathid="10025" fill="#fff" d="M214.27,429.15v-25.6h7.26a8.5,8.5,0,0,1,6.77,3.08,11.71,11.71,0,0,1,2.63,7.91v3.64a11.68,11.68,0,0,1-2.63,7.91,8.51,8.51,0,0,1-6.77,3.06Zm3.57-22.85v20.14h3.69a4.9,4.9,0,0,0,4.22-2.31,10.37,10.37,0,0,0,1.58-5.95V414.5a10.23,10.23,0,0,0-1.58-5.89,4.9,4.9,0,0,0-4.22-2.31Z"/><path data-cppathid="10026" fill="#fff" d="M247.45,417.26h-8.68v9.18H249v2.71H235.2v-25.6h13.71v2.75H238.77v8.24h8.68Z"/><path data-cppathid="10027" fill="#fff" d="M260.5,429.15v-25.6h7.26a8.5,8.5,0,0,1,6.77,3.08,11.71,11.71,0,0,1,2.63,7.91v3.64a11.68,11.68,0,0,1-2.63,7.91,8.51,8.51,0,0,1-6.77,3.06Zm3.57-22.85v20.14h3.69a4.9,4.9,0,0,0,4.22-2.31,10.37,10.37,0,0,0,1.58-5.95V414.5a10.23,10.23,0,0,0-1.58-5.89,4.9,4.9,0,0,0-4.22-2.31Z"/><path data-cppathid="10028" fill="#fff" d="M292.38,422.68h-7.64l-1.85,6.47h-3.71l7.68-25.6h3.47l7.61,25.6h-3.71Zm-6.83-2.83h6l-2.95-10.41h-.11Z"/><path data-cppathid="10029" fill="#fff" d="M313.92,406.3h-6.79v22.85h-3.58V406.3h-6.74v-2.75h17.11Z"/><path data-cppathid="10030" fill="#fff" d="M333.71,419.88a9.79,9.79,0,0,1-2.46,7.1,8.77,8.77,0,0,1-6.59,2.54,8.54,8.54,0,0,1-6.49-2.54,9.94,9.94,0,0,1-2.41-7.1v-7a10,10,0,0,1,2.41-7.1,8.46,8.46,0,0,1,6.47-2.57,8.78,8.78,0,0,1,6.6,2.56,9.81,9.81,0,0,1,2.47,7.11Zm-3.55-7.08a7.8,7.8,0,0,0-1.43-5.07,5,5,0,0,0-4.09-1.73,4.74,4.74,0,0,0-3.95,1.73,8,8,0,0,0-1.38,5.07v7.08A8.12,8.12,0,0,0,320.7,425a4.78,4.78,0,0,0,4,1.74,5,5,0,0,0,4.08-1.73,8,8,0,0,0,1.42-5.13Z"/><path data-cppathid="10031" fill="#fff" d="M349.57,422.71a4.21,4.21,0,0,0-1-2.89,8.74,8.74,0,0,0-3.53-2.06,14.59,14.59,0,0,1-5.54-2.9,6.11,6.11,0,0,1-1.93-4.73,6.46,6.46,0,0,1,2.14-5,7.79,7.79,0,0,1,5.47-2,7.65,7.65,0,0,1,5.7,2.18,7.25,7.25,0,0,1,2.07,5.47l0,.11h-3.43a5.36,5.36,0,0,0-1.2-3.64,3.92,3.92,0,0,0-3.14-1.39,3.73,3.73,0,0,0-2.95,1.19,4.38,4.38,0,0,0-1,3,3.68,3.68,0,0,0,1.1,2.76,10.71,10.71,0,0,0,3.73,2.06,13.14,13.14,0,0,1,5.33,3,6.52,6.52,0,0,1,1.82,4.78,6.22,6.22,0,0,1-2.15,5,8.33,8.33,0,0,1-5.65,1.86,9.07,9.07,0,0,1-5.87-2,6.7,6.7,0,0,1-2.41-5.75l0-.1h3.44a5,5,0,0,0,1.38,3.88,4.82,4.82,0,0,0,3.42,1.29,4.21,4.21,0,0,0,3.11-1.12A4,4,0,0,0,349.57,422.71Z"/></g></g></g></svg>