<?xml version="1.0" encoding="UTF-8"?>
<svg xmlns="http://www.w3.org/2000/svg" onmouseup="{ if(window.parent.document.onmouseup) window.parent.document.onmouseup(arguments[0]);}" viewBox="0 0 415 451.2" data-name="Layer 1" id="Layer_1"><g id="m4"><path data-cppathid="10000" fill="#333e48" transform="translate(1.5 1.5)" d="M35.7,446.7A34.25,34.25,0,0,1,1.5,412.5V35.7A34.25,34.25,0,0,1,35.7,1.5H376.3a34.25,34.25,0,0,1,34.2,34.2V412.5a34.25,34.25,0,0,1-34.2,34.2Z"/><path data-cppathid="10001" stroke-width="6" stroke-miterlimit="10" stroke="#adadad" fill="none" transform="translate(1.5 1.5)" d="M35.7,446.7A34.25,34.25,0,0,1,1.5,412.5V35.7A34.25,34.25,0,0,1,35.7,1.5H376.3a34.25,34.25,0,0,1,34.2,34.2V412.5a34.25,34.25,0,0,1-34.2,34.2Z"/><path data-cppathid="10002" fill="#adadad" transform="translate(1.5 1.5)" d="M376.35,445.2H35.75a32.71,32.71,0,0,1-32.7-32.7V348.7H409v63.8A32.69,32.69,0,0,1,376.35,445.2Z"/><polyline data-cppathid="10003" stroke-width="7" stroke-linejoin="round" stroke-linecap="round" stroke="#fff" fill="none" points="228.2 115.5 189.3 69.1 150.8 117.3"/><polyline data-cppathid="10004" stroke-width="7" stroke-linejoin="round" stroke-linecap="round" stroke="#fff" fill="none" points="103 141.5 143.5 93.9 156.8 107.7"/><rect data-cppathid="10005" stroke-width="7" stroke-linejoin="round" stroke-linecap="round" stroke="#fff" fill="none" height="39.4" width="46.8" y="128.8" x="250.8"/><line data-cppathid="10006" stroke-width="7" stroke-linejoin="round" stroke-linecap="round" stroke="#fff" fill="none" y2="127.8" x2="274.2" y1="167.3" x1="274.2"/><polyline data-cppathid="10007" stroke-width="7" stroke-linejoin="round" stroke-linecap="round" stroke="#fff" fill="none" points="89.1 183.6 148.1 245.7 353.5 245.7 353.5 184.7 297.1 167.3"/><rect data-cppathid="10008" stroke-width="7" stroke-linejoin="round" stroke-linecap="round" stroke="#fff" fill="none" height="25.2" width="20.4" y="195.3" x="332.9"/><line data-cppathid="10009" stroke-width="7" stroke-linejoin="round" stroke-linecap="round" stroke="#fff" fill="none" y2="191.6" x2="129.7" y1="172.2" x1="129.7"/><line data-cppathid="10010" stroke-width="7" stroke-linejoin="round" stroke-linecap="round" stroke="#fff" fill="none" y2="191.6" x2="160.9" y1="172.2" x1="160.9"/><line data-cppathid="10011" stroke-width="7" stroke-linejoin="round" stroke-linecap="round" stroke="#fff" fill="none" y2="191.6" x2="192.1" y1="172.2" x1="192.1"/><line data-cppathid="10012" stroke-width="7" stroke-linejoin="round" stroke-linecap="round" stroke="#fff" fill="none" y2="244.8" x2="229" y1="168.5" x1="229"/><circle data-cppathid="10013" stroke-width="7" stroke-linejoin="round" stroke-linecap="round" stroke="#fff" fill="#333e48" r="40.8" cy="245.2" cx="149.9"/><line data-cppathid="10014" stroke-width="7" stroke-linejoin="round" stroke-linecap="round" stroke="#fff" fill="none" y2="220.5" x2="149.9" y1="204.4" x1="149.9"/><line data-cppathid="10015" stroke-width="7" stroke-linejoin="round" stroke-linecap="round" stroke="#fff" fill="none" y2="228.2" x2="132.2" y1="216.8" x1="120.9"/><line data-cppathid="10016" stroke-width="7" stroke-linejoin="round" stroke-linecap="round" stroke="#fff" fill="none" y2="246.1" x2="125.2" y1="246.1" x1="110.2"/><line data-cppathid="10017" stroke-width="7" stroke-linejoin="round" stroke-linecap="round" stroke="#fff" fill="none" y2="263.7" x2="132.8" y1="273.4" x1="123.1"/><line data-cppathid="10018" stroke-width="7" stroke-linejoin="round" stroke-linecap="round" stroke="#fff" fill="none" y2="270.8" x2="150.7" y1="285.2" x1="150.7"/><line data-cppathid="10019" stroke-width="7" stroke-linejoin="round" stroke-linecap="round" stroke="#fff" fill="none" y2="263.1" x2="168.4" y1="273.1" x1="178.3"/><line data-cppathid="10020" stroke-width="7" stroke-linejoin="round" stroke-linecap="round" stroke="#fff" fill="none" y2="245.2" x2="175.4" y1="245.2" x1="189.3"/><line data-cppathid="10021" stroke-width="7" stroke-linejoin="round" stroke-linecap="round" stroke="#fff" fill="none" y2="227.6" x2="167.8" y1="217.9" x1="177.5"/><circle data-cppathid="10022" stroke-width="7" stroke-linejoin="round" stroke-linecap="round" stroke="#fff" fill="none" r="13.8" cy="245.2" cx="149.9"/><circle data-cppathid="10023" stroke-width="7" stroke-linejoin="round" stroke-linecap="round" stroke="#fff" fill="#333e48" r="40.8" cy="245.2" cx="280.5"/><line data-cppathid="10024" stroke-width="7" stroke-linejoin="round" stroke-linecap="round" stroke="#fff" fill="none" y2="220.5" x2="280.5" y1="204.4" x1="280.5"/><line data-cppathid="10025" stroke-width="7" stroke-linejoin="round" stroke-linecap="round" stroke="#fff" fill="none" y2="228.2" x2="262.8" y1="216.8" x1="251.5"/><line data-cppathid="10026" stroke-width="7" stroke-linejoin="round" stroke-linecap="round" stroke="#fff" fill="none" y2="246.1" x2="255.7" y1="246.1" x1="240.8"/><line data-cppathid="10027" stroke-width="7" stroke-linejoin="round" stroke-linecap="round" stroke="#fff" fill="none" y2="263.7" x2="263.4" y1="273.4" x1="253.7"/><line data-cppathid="10028" stroke-width="7" stroke-linejoin="round" stroke-linecap="round" stroke="#fff" fill="none" y2="270.8" x2="281.3" y1="285.2" x1="281.3"/><line data-cppathid="10029" stroke-width="7" stroke-linejoin="round" stroke-linecap="round" stroke="#fff" fill="none" y2="263.1" x2="298.9" y1="273.1" x1="308.9"/><line data-cppathid="10030" stroke-width="7" stroke-linejoin="round" stroke-linecap="round" stroke="#fff" fill="none" y2="245.2" x2="306" y1="245.2" x1="319.9"/><line data-cppathid="10031" stroke-width="7" stroke-linejoin="round" stroke-linecap="round" stroke="#fff" fill="none" y2="227.6" x2="298.4" y1="217.9" x1="308.1"/><circle data-cppathid="10032" stroke-width="7" stroke-linejoin="round" stroke-linecap="round" stroke="#fff" fill="none" r="13.8" cy="245.2" cx="280.5"/><path data-cppathid="10033" stroke-width="7" stroke-linejoin="round" stroke-linecap="round" stroke="#fff" fill="#333e48" transform="translate(1.5 1.5)" d="M72.9,185.7,60.7,172.5A5.25,5.25,0,0,1,61,165l24.4-22.6A5.43,5.43,0,0,1,89,141H207a5.4,5.4,0,0,0,4.4-2.3l22.5-32.5a5.4,5.4,0,0,1,4.4-2.3h71.4a5.27,5.27,0,0,1,5.3,5.3v18a5.27,5.27,0,0,1-5.3,5.3H253.4a5.4,5.4,0,0,0-4.4,2.3l-22.5,32.5a5.4,5.4,0,0,1-4.4,2.3H100.4a5.43,5.43,0,0,0-3.6,1.4L80.7,186A5.71,5.71,0,0,1,72.9,185.7Z"/><g style="isolation:isolate"><g style="isolation:isolate"><path data-cppathid="10034" fill="#fff" transform="translate(1.5 1.5)" d="M137.29,386.94h.11l6.13-20.89h4.57v25.6h-3.55V373.21l-.1,0-5.87,18.46h-2.45l-5.95-18.74-.11,0v18.72h-3.55v-25.6h4.66Z"/><path data-cppathid="10035" fill="#fff" transform="translate(1.5 1.5)" d="M170.11,382.38a9.79,9.79,0,0,1-2.46,7.1,8.77,8.77,0,0,1-6.59,2.54,8.54,8.54,0,0,1-6.49-2.54,9.94,9.94,0,0,1-2.4-7.1v-7a10,10,0,0,1,2.4-7.1,8.47,8.47,0,0,1,6.47-2.57,8.75,8.75,0,0,1,6.6,2.56,9.81,9.81,0,0,1,2.47,7.11Zm-3.55-7.08a7.8,7.8,0,0,0-1.43-5.07A5,5,0,0,0,161,368.5a4.72,4.72,0,0,0-3.94,1.73,8,8,0,0,0-1.38,5.07v7.08a8.12,8.12,0,0,0,1.38,5.12,4.78,4.78,0,0,0,4,1.74,5,5,0,0,0,4.08-1.73,7.92,7.92,0,0,0,1.42-5.13Z"/><path data-cppathid="10036" fill="#fff" transform="translate(1.5 1.5)" d="M174.3,391.65v-25.6h7.26a8.5,8.5,0,0,1,6.77,3.08A11.76,11.76,0,0,1,191,377v3.64a11.73,11.73,0,0,1-2.63,7.91,8.51,8.51,0,0,1-6.77,3.06Zm3.56-22.85v20.14h3.7a4.87,4.87,0,0,0,4.21-2.31,10.29,10.29,0,0,0,1.59-5.95V377a10.16,10.16,0,0,0-1.59-5.89,4.87,4.87,0,0,0-4.21-2.31Z"/><path data-cppathid="10037" fill="#fff" transform="translate(1.5 1.5)" d="M212,366.05V383a9,9,0,0,1-2.39,6.65,8.4,8.4,0,0,1-6.2,2.39,8.13,8.13,0,0,1-6.09-2.4A9.07,9.07,0,0,1,195,383V366.05h3.57V383a7.29,7.29,0,0,0,1.34,4.65,4.32,4.32,0,0,0,3.53,1.68,4.49,4.49,0,0,0,3.63-1.67A7.11,7.11,0,0,0,208.4,383V366.05Z"/><path data-cppathid="10038" fill="#fff" transform="translate(1.5 1.5)" d="M220.12,388.94h10.36v2.71H216.55v-25.6h3.57Z"/><path data-cppathid="10039" fill="#fff" transform="translate(1.5 1.5)" d="M250,382.38a9.79,9.79,0,0,1-2.46,7.1,8.77,8.77,0,0,1-6.59,2.54,8.52,8.52,0,0,1-6.49-2.54,9.9,9.9,0,0,1-2.41-7.1v-7a10,10,0,0,1,2.41-7.1,8.44,8.44,0,0,1,6.47-2.57,8.78,8.78,0,0,1,6.6,2.56,9.85,9.85,0,0,1,2.47,7.11Zm-3.55-7.08a7.74,7.74,0,0,0-1.44-5.07,5,5,0,0,0-4.08-1.73,4.74,4.74,0,0,0-3.95,1.73,8,8,0,0,0-1.38,5.07v7.08A8.05,8.05,0,0,0,237,387.5a4.77,4.77,0,0,0,4,1.74,5,5,0,0,0,4.07-1.73,7.92,7.92,0,0,0,1.43-5.13Z"/><path data-cppathid="10040" fill="#fff" transform="translate(1.5 1.5)" d="M274.25,382.91h3v2.73h-3v6h-3.61v-6h-9.75l-.11-2,9.74-17.58h3.73Zm-9.94,0h6.33V371l-.1,0-.48,1.09Z"/><path data-cppathid="10041" fill="#fff" transform="translate(1.5 1.5)" d="M284.23,376.25h-3.6v-3.57h3.6Zm0,15.4h-3.6v-3.57h3.6Z"/></g><g style="isolation:isolate"><path data-cppathid="10042" fill="#fff" transform="translate(1.5 1.5)" d="M94.49,422.94h.11l6.13-20.89h4.57v25.6h-3.55V409.21l-.1,0-5.87,18.46H93.33l-6-18.74-.1,0v18.72H83.72v-25.6h4.66Z"/><path data-cppathid="10043" fill="#fff" transform="translate(1.5 1.5)" d="M114,427.65H110.4v-25.6H114Z"/><path data-cppathid="10044" fill="#fff" transform="translate(1.5 1.5)" d="M136.36,427.65h-3.58l-9.92-18.88-.1,0v18.85h-3.57v-25.6h3.57l9.91,18.83.11,0V402.05h3.58Z"/><path data-cppathid="10045" fill="#fff" transform="translate(1.5 1.5)" d="M145.14,427.65h-3.57v-25.6h3.57Z"/><path data-cppathid="10046" fill="#fff" transform="translate(1.5 1.5)" d="M162,421.21a4.25,4.25,0,0,0-1-2.89,8.86,8.86,0,0,0-3.54-2.06,14.54,14.54,0,0,1-5.53-2.9,6.12,6.12,0,0,1-1.94-4.73,6.5,6.5,0,0,1,2.14-5,7.8,7.8,0,0,1,5.47-2,7.65,7.65,0,0,1,5.7,2.18,7.25,7.25,0,0,1,2.07,5.47l0,.11h-3.43a5.41,5.41,0,0,0-1.19-3.64,4,4,0,0,0-3.15-1.39,3.7,3.7,0,0,0-2.94,1.19,4.38,4.38,0,0,0-1,3,3.68,3.68,0,0,0,1.11,2.76,10.65,10.65,0,0,0,3.72,2.06,13.14,13.14,0,0,1,5.33,3,6.49,6.49,0,0,1,1.83,4.78,6.23,6.23,0,0,1-2.16,5,8.33,8.33,0,0,1-5.65,1.86,9.09,9.09,0,0,1-5.87-2,6.72,6.72,0,0,1-2.41-5.75l0-.1H153a5,5,0,0,0,1.38,3.88,4.82,4.82,0,0,0,3.42,1.29,4.19,4.19,0,0,0,3.11-1.12A4,4,0,0,0,162,421.21Z"/><path data-cppathid="10047" fill="#fff" transform="translate(1.5 1.5)" d="M184.9,404.8h-6.79v22.85h-3.58V404.8h-6.74v-2.75H184.9Z"/><path data-cppathid="10048" fill="#fff" transform="translate(1.5 1.5)" d="M191.51,416.63v11h-3.57V402.07h7.54a8.09,8.09,0,0,1,5.71,1.88,7,7,0,0,1,2,5.4,6.58,6.58,0,0,1-.94,3.51,6.22,6.22,0,0,1-2.7,2.32,4.94,4.94,0,0,1,2.84,2.22,7.72,7.72,0,0,1,.87,3.83v2.23a9.58,9.58,0,0,0,.23,2.2,3.08,3.08,0,0,0,.8,1.58v.41h-3.67a3,3,0,0,1-.78-1.77,16.32,16.32,0,0,1-.19-2.45v-2.16a5.35,5.35,0,0,0-1-3.4,3.32,3.32,0,0,0-2.75-1.24Zm0-2.73h3.79a4.18,4.18,0,0,0,3.27-1.17,4.74,4.74,0,0,0,1.06-3.31,5.09,5.09,0,0,0-1-3.41,3.86,3.86,0,0,0-3.12-1.21h-4Z"/><path data-cppathid="10049" fill="#fff" transform="translate(1.5 1.5)" d="M225.19,418.38a9.79,9.79,0,0,1-2.46,7.1,8.78,8.78,0,0,1-6.6,2.54,8.52,8.52,0,0,1-6.48-2.54,9.9,9.9,0,0,1-2.41-7.1v-7a10,10,0,0,1,2.41-7.1,8.44,8.44,0,0,1,6.47-2.57,8.78,8.78,0,0,1,6.6,2.56,9.85,9.85,0,0,1,2.47,7.11Zm-3.55-7.08a7.74,7.74,0,0,0-1.44-5.07,5,5,0,0,0-4.08-1.73,4.74,4.74,0,0,0-4,1.73,8,8,0,0,0-1.38,5.07v7.08a8.05,8.05,0,0,0,1.39,5.12,4.75,4.75,0,0,0,3.95,1.74,5,5,0,0,0,4.08-1.73,7.92,7.92,0,0,0,1.43-5.13Z"/><path data-cppathid="10050" fill="#fff" transform="translate(1.5 1.5)" d="M254.44,427.65h-3.57V416.36h-10v11.29h-3.57v-25.6h3.57v11.59h10V402.05h3.57Z"/><path data-cppathid="10051" fill="#fff" transform="translate(1.5 1.5)" d="M271,421.18h-7.65l-1.84,6.47h-3.71l7.68-25.6h3.46l7.62,25.6h-3.71Zm-6.84-2.83h6.05l-2.95-10.41h-.11Z"/><path data-cppathid="10052" fill="#fff" transform="translate(1.5 1.5)" d="M283,424.94h10.35v2.71H279.45v-25.6H283Z"/><path data-cppathid="10053" fill="#fff" transform="translate(1.5 1.5)" d="M309.05,415.76h-8.68v9.18H310.6v2.71H296.8v-25.6h13.71v2.75H300.37V413h8.68Z"/><path data-cppathid="10054" fill="#fff" transform="translate(1.5 1.5)" d="M325.86,421.21a4.21,4.21,0,0,0-1-2.89,8.74,8.74,0,0,0-3.53-2.06,14.59,14.59,0,0,1-5.54-2.9,6.15,6.15,0,0,1-1.93-4.73,6.46,6.46,0,0,1,2.14-5,7.8,7.8,0,0,1,5.47-2,7.65,7.65,0,0,1,5.7,2.18,7.25,7.25,0,0,1,2.07,5.47l0,.11h-3.43a5.36,5.36,0,0,0-1.2-3.64,3.92,3.92,0,0,0-3.14-1.39,3.73,3.73,0,0,0-2.95,1.19,4.43,4.43,0,0,0-1,3,3.71,3.71,0,0,0,1.1,2.76,10.71,10.71,0,0,0,3.73,2.06,13.14,13.14,0,0,1,5.33,3,6.49,6.49,0,0,1,1.83,4.78,6.23,6.23,0,0,1-2.16,5,8.33,8.33,0,0,1-5.65,1.86,9.07,9.07,0,0,1-5.87-2,6.72,6.72,0,0,1-2.41-5.75l0-.1h3.44A5,5,0,0,0,318.2,424a4.82,4.82,0,0,0,3.42,1.29,4.21,4.21,0,0,0,3.11-1.12A4,4,0,0,0,325.86,421.21Z"/></g></g></g></svg>