<?xml version="1.0" encoding="UTF-8"?>
<svg xmlns="http://www.w3.org/2000/svg" onmouseup="{ if(window.parent.document.onmouseup) window.parent.document.onmouseup(arguments[0]);}" viewBox="0 0 415 451.2" data-name="Layer 1" id="Layer_1"><g id="m2"><path data-cppathid="10000" fill="#333e48" d="M37.2,448.2A34.25,34.25,0,0,1,3,414V37.2A34.25,34.25,0,0,1,37.2,3H377.8A34.25,34.25,0,0,1,412,37.2V414a34.25,34.25,0,0,1-34.2,34.2Z"/><path data-cppathid="10001" stroke-width="6" stroke-miterlimit="10" stroke="#f7a800" fill="none" d="M37.2,448.2A34.25,34.25,0,0,1,3,414V37.2A34.25,34.25,0,0,1,37.2,3H377.8A34.25,34.25,0,0,1,412,37.2V414a34.25,34.25,0,0,1-34.2,34.2Z"/><path data-cppathid="10002" fill="#f7a800" d="M377,446.7H36.4A32.71,32.71,0,0,1,3.7,414V350.2H409.6V414A32.69,32.69,0,0,1,377,446.7Z"/><path data-cppathid="10003" stroke-width="6" stroke-miterlimit="10" stroke="#adadad" fill="none" d="M37.2,448.2A34.25,34.25,0,0,1,3,414V37.2A34.25,34.25,0,0,1,37.2,3H377.8A34.25,34.25,0,0,1,412,37.2V414a34.25,34.25,0,0,1-34.2,34.2Z"/><path data-cppathid="10004" fill="#adadad" d="M377.85,446.7H37.25A32.71,32.71,0,0,1,4.55,414V350.2h405.9V414A32.69,32.69,0,0,1,377.85,446.7Z"/><path data-cppathid="10005" fill="#fff" d="M237,107.1c0-4.2-.1-8.3,0-12.3.3-8.5,5.4-15.2,13-16.2,3.3-.4,6.9.8,10.7,1.3,1.1-4.5,3-9.6,8.1-12.1a18.6,18.6,0,0,1,8.6-1.9c7.6.3,10.9,5.6,14,20.7,2.2-.6,4.3-1.6,6.6-1.8,8.9-1,16.5,6.6,16.6,16.9.1,14.4,0,28.8,0,43.2v25.7c2.5-5.4,4.2-10.2,6.8-14.3a96,96,0,0,1,11.7-15.2c2.3-2.4,6.1-3.8,9.4-4.4a9.23,9.23,0,0,1,10.7,7.9c.5,3.5.8,7.3-.2,10.6-6.7,21.2-11,43.4-21.4,63.2-6.2,11.7-13.9,22.6-21.2,33.7-6.6,9.9-11.5,20.2-11.6,32.3,0,2.2-.2,4.7-3.4,4.6-3.5,0-3.2-2.7-3.2-5,0-13.1,5.2-24.4,12.2-35.1,8.1-12.4,15.9-24.9,23.3-37.7,2.7-4.5,4.3-9.8,5.9-14.8,4.1-12.5,8-25,11.7-37.6a40.49,40.49,0,0,0,1.6-10.9c0-4.5-3.5-6.4-6.9-3.5-4,3.4-8.3,7.2-10.5,11.8-6,12.3-11.1,25-16.1,37.7-2.2,5.6-5.6,9.4-11.3,11.5-9.6,3.5-16.8,9.6-19.1,20.3-.3,1.3-2.6,3.1-3.9,3-2.5-.1-2.9-2.4-2.4-4.7,2.1-10.8,8.9-17.9,18.3-22.9a10.72,10.72,0,0,1,2.2-1c8.9-2.2,11-8.6,10.9-16.8-.2-26.5,0-52.9-.1-79.4a17.84,17.84,0,0,0-1.7-7.9c-3.2-6-10.1-6.1-13.4-.2a17.6,17.6,0,0,0-1.9,7.8c-.2,18.8-.1,37.6-.1,56.4,0,1.2.3,2.7-.2,3.6-.6,1.1-2,2.5-3,2.5s-2.6-1.3-3.2-2.4c-.6-.9-.2-2.4-.2-3.6q0-37.65-.1-75.3a19.25,19.25,0,0,0-1.6-7.9c-3.1-6-10.1-6.2-13.3-.2a19.39,19.39,0,0,0-1.8,8.7q-.15,37.2-.1,74.5c0,1.1.3,2.4-.1,3.2-.7,1.2-2.2,3.1-3,3-1.3-.2-2.7-1.7-3.4-3.1-.5-.9-.2-2.4-.2-3.6,0-20.7.1-41.4-.1-62.1a16.58,16.58,0,0,0-2.2-8.5c-3-5-9.5-4.9-12.5.1a16.31,16.31,0,0,0-2.1,8.1c-.2,19.6-.1,39.2-.1,58.8,0,1,.4,2.1-.1,2.8a45.81,45.81,0,0,1-3.5,4.2c-1-1.4-2.9-2.7-2.9-4.1-.2-11.7-.1-23.3-.2-35a20.4,20.4,0,0,0-.5-4.9c-1-3.6-3-6.2-7.1-6.3-3.3-.1-6.4,3.1-7,7a48.61,48.61,0,0,0-.3,6.6v22.2c0,2.6.8,6.2-3.3,6.2-3.9,0-3.1-3.5-3.1-6-.1-8.1,0-16.2,0-24.3C215.64,109.5,222.34,104,237,107.1Z"/><path data-cppathid="10006" fill="#fff" d="M98.84,169.5V102.9c0-4.8,1.1-9.2,4.2-13,4.3-5.1,10.1-6.6,16.3-4.2.9.3,1.7.7,2.9,1.1.5-10.4,2.4-19.9,14.9-21,7.8-.7,12.9,4.5,15.5,14.2,3.4-.6,6.9-1.9,10.3-1.6,7.7.7,13.1,7.6,13.4,16.2.2,4.1,0,8.2,0,12.3,3.1-.5,5.8-1.4,8.4-1.2,7,.4,12.7,6.6,12.9,14.2.2,10.1.2,20.3-.1,30.4a5.16,5.16,0,0,1-2.9,3.9c-2.6.5-3.4-1.6-3.4-4,0-8.8.1-17.6-.1-26.3,0-2.5-.2-5.5-1.5-7.5s-4-3.8-6.1-3.8c-1.9-.1-4.5,2-5.7,3.8s-1.5,4.6-1.6,7c-.1,11.7-.1,23.3-.1,35,0,2.4-.9,4.5-3.4,4-1.3-.2-2.4-2.4-3.2-3.9-.4-.7-.1-1.9-.1-2.8V95.2c-.2-5.8-4-10.4-8.5-10.4s-8.1,4.6-8.4,10.5v64.6c0,1.4.1,2.9-.5,4a4.11,4.11,0,0,1-3,2,4.22,4.22,0,0,1-2.9-2.2c-.5-1.1-.3-2.7-.3-4,0-25,.1-49.9-.1-74.9a17.6,17.6,0,0,0-2.8-9.5c-3-4.5-8.9-4.2-11.6.4a18.15,18.15,0,0,0-2.3,8.9c-.2,25.1-.1,50.2-.1,75.3,0,1.2.3,2.7-.2,3.6-.7,1.1-2.1,2.4-3.2,2.4s-2.4-1.4-3.1-2.5c-.5-1-.2-2.4-.2-3.6,0-18.8.1-37.6-.1-56.4a16.67,16.67,0,0,0-2.3-8.5c-3.2-5.1-9.2-5-12.4.1a16,16,0,0,0-2.2,7.7q-.15,41.55-.1,83.1c0,7,2.7,10.6,9.3,13.3,10.2,4.2,18.2,10.7,21.4,21.7.3,1,.9,2.3.7,3.2a27.29,27.29,0,0,1-2.3,4.5c-1.4-1-3.7-1.9-3.9-3.1-1.3-5.7-3.9-10.7-8.5-14.2a45.81,45.81,0,0,0-11-6.2A17.61,17.61,0,0,1,100,194c-3.9-10.5-7.8-21.1-12.5-31.2-2.6-5.6-6.8-10.5-10.4-15.6a7.4,7.4,0,0,0-3.2-2.6c-1.8-.7-4.3-1.7-5.6-.9s-1.9,3.3-2.3,5.2a10.15,10.15,0,0,0,.4,4.9c6.4,19.6,11.9,39.6,19.8,58.6,5.1,12.2,13.5,23.1,21,34.2,7,10.5,12.8,21.4,13.6,34.3a13.59,13.59,0,0,1,0,4.5c-.4,1.3-1.7,2.3-2.6,3.4-1.2-1-3.2-1.8-3.5-3-.7-2.7-.4-5.7-.9-8.6-1.4-9.3-5.4-17.5-10.9-25-10.5-14.4-20.9-29-26.9-46-6.2-17.8-11.1-36-16.4-54.1a15.79,15.79,0,0,1-.3-5.3c.8-8.9,8.5-13.4,16.2-8.9,4,2.3,7.5,5.9,10.6,9.5a59.26,59.26,0,0,1,6.7,10.8c1.9,3.6,3.4,7.4,5,11.2A5.13,5.13,0,0,0,98.84,169.5Z"/><path data-cppathid="10007" fill="#fff" d="M264.34,231.6v22.6c0,7.7-3.2,12.9-10.5,16-13.6,5.7-27.1,11.7-40.6,17.7a16.63,16.63,0,0,1-14.6-.2c-12.9-5.9-25.9-11.8-39-17.4-7.2-3.1-10.4-8.4-10.4-16,0-15.2.1-30.4,0-45.6,0-7.7,3.2-13,10.5-16,13.1-5.4,26.2-11.1,39.2-16.7a17,17,0,0,1,14.3,0c13.6,5.8,27.2,11.4,40.9,17,7,2.8,10.1,8,10.2,15.3Zm-6.4,1.1V208.4c0-2.3-.2-4.5-3.4-3.1-14.1,5.8-28.1,11.6-42.1,17.7a5.82,5.82,0,0,0-3,4.3c-.2,16.6-.1,33.2,0,49.8,0,3.4,2.1,4.7,5.2,3.4,12.7-5.5,25.4-11,38.1-16.6a8.33,8.33,0,0,0,5.3-8.5C257.84,247.8,257.94,240.3,257.94,232.7Zm-101.7-28a6.76,6.76,0,0,0-.5,1.7c0,16.6-.1,33.2,0,49.7a8.09,8.09,0,0,0,5.2,7.7c11.9,5.3,23.7,10.7,35.6,16,3.9,1.8,6.2.4,6.2-3.9.1-16,0-32.1.1-48.1,0-2.7-1.1-4.2-3.6-5.2-13.4-5.6-26.7-11.3-40.1-17A14.29,14.29,0,0,0,156.24,204.7Zm50.1,13.4c1.6-.5,3.2-.9,4.7-1.5,11.8-4.9,23.6-9.7,35.3-14.7a13.06,13.06,0,0,0,3.2-2.6c-1.1-.9-2-2.2-3.2-2.7-11.7-5-23.5-9.8-35.2-14.8a12.12,12.12,0,0,0-10.2.1c-11.4,5-22.9,9.8-34.4,14.8a13.72,13.72,0,0,0-2.9,2.5,11.35,11.35,0,0,0,2.9,2.5c11.8,5.1,23.7,10.1,35.5,15.1A27,27,0,0,0,206.34,218.1Z"/><path data-cppathid="10008" fill="#333e48" d="M257.94,232.7c0,7.5-.1,15.1,0,22.6,0,4-1.7,6.9-5.3,8.5-12.7,5.6-25.4,11.1-38.1,16.6-3.1,1.3-5.2.1-5.2-3.4-.1-16.6-.2-33.2,0-49.8a5.82,5.82,0,0,1,3-4.3c14-6,28-11.8,42.1-17.7,3.2-1.3,3.4.9,3.4,3.1C257.94,216.5,257.94,224.6,257.94,232.7Z"/><path data-cppathid="10009" fill="#333e48" d="M156.24,204.7a28.12,28.12,0,0,1,2.9.8c13.4,5.7,26.7,11.4,40.1,17,2.5,1.1,3.6,2.6,3.6,5.2-.1,16,0,32.1-.1,48.1,0,4.3-2.2,5.6-6.2,3.9-11.9-5.3-23.7-10.7-35.6-16a8.09,8.09,0,0,1-5.2-7.7c-.1-16.6,0-33.2,0-49.7A10.71,10.71,0,0,1,156.24,204.7Z"/><path data-cppathid="10010" fill="#333e48" d="M206.34,218.1a27,27,0,0,1-4.3-1.3c-11.9-5-23.7-10-35.5-15.1-1.1-.5-1.9-1.7-2.9-2.5a13.32,13.32,0,0,1,2.9-2.5c11.4-5,22.9-9.8,34.4-14.8a12.12,12.12,0,0,1,10.2-.1c11.7,5,23.5,9.8,35.2,14.8,1.2.5,2.2,1.8,3.2,2.7-1.1.9-2,2.1-3.2,2.6-11.7,5-23.5,9.8-35.3,14.7C209.54,217.2,207.94,217.6,206.34,218.1Z"/><g style="isolation:isolate"><g style="isolation:isolate"><path data-cppathid="10011" fill="#fff" d="M138.05,388.44h.1l6.14-20.89h4.57v25.6h-3.55V374.71l-.11,0-5.87,18.46h-2.44l-6-18.74-.11,0v18.72h-3.55v-25.6h4.66Z"/><path data-cppathid="10012" fill="#fff" d="M170.86,383.88a9.79,9.79,0,0,1-2.46,7.1,8.75,8.75,0,0,1-6.59,2.54,8.5,8.5,0,0,1-6.48-2.54,9.9,9.9,0,0,1-2.41-7.1v-7a10,10,0,0,1,2.41-7.1,8.44,8.44,0,0,1,6.46-2.57,8.75,8.75,0,0,1,6.6,2.56,9.81,9.81,0,0,1,2.47,7.11Zm-3.55-7.08a7.74,7.74,0,0,0-1.43-5.07,5,5,0,0,0-4.09-1.73,4.72,4.72,0,0,0-3.94,1.73,8,8,0,0,0-1.38,5.07v7.08a8.05,8.05,0,0,0,1.39,5.12,4.75,4.75,0,0,0,3.95,1.74,5,5,0,0,0,4.08-1.73,7.92,7.92,0,0,0,1.42-5.13Z"/><path data-cppathid="10013" fill="#fff" d="M175.05,393.15v-25.6h7.26a8.5,8.5,0,0,1,6.77,3.08,11.71,11.71,0,0,1,2.63,7.91v3.64a11.68,11.68,0,0,1-2.63,7.91,8.51,8.51,0,0,1-6.77,3.06Zm3.57-22.85v20.14h3.69a4.89,4.89,0,0,0,4.22-2.31,10.37,10.37,0,0,0,1.58-5.95V378.5a10.23,10.23,0,0,0-1.58-5.89,4.89,4.89,0,0,0-4.22-2.31Z"/><path data-cppathid="10014" fill="#fff" d="M212.74,367.55v16.93a9,9,0,0,1-2.4,6.65,8.4,8.4,0,0,1-6.2,2.39,8.13,8.13,0,0,1-6.09-2.4,9.07,9.07,0,0,1-2.35-6.64V367.55h3.57v16.93a7.23,7.23,0,0,0,1.35,4.65,4.28,4.28,0,0,0,3.52,1.68,4.49,4.49,0,0,0,3.63-1.67,7.11,7.11,0,0,0,1.38-4.66V367.55Z"/><path data-cppathid="10015" fill="#fff" d="M220.87,390.44h10.36v2.71H217.31v-25.6h3.56Z"/><path data-cppathid="10016" fill="#fff" d="M250.74,383.88a9.79,9.79,0,0,1-2.46,7.1,8.77,8.77,0,0,1-6.59,2.54A8.54,8.54,0,0,1,235.2,391a9.9,9.9,0,0,1-2.41-7.1v-7a10,10,0,0,1,2.41-7.1,8.46,8.46,0,0,1,6.47-2.57,8.78,8.78,0,0,1,6.6,2.56,9.81,9.81,0,0,1,2.47,7.11Zm-3.55-7.08a7.8,7.8,0,0,0-1.43-5.07,5,5,0,0,0-4.09-1.73,4.74,4.74,0,0,0-3.95,1.73,8,8,0,0,0-1.38,5.07v7.08a8.12,8.12,0,0,0,1.39,5.12,4.78,4.78,0,0,0,4,1.74,5,5,0,0,0,4.07-1.73,7.92,7.92,0,0,0,1.43-5.13Z"/><path data-cppathid="10017" fill="#fff" d="M277.42,393.15H262.64v-2.38l7.24-9.47a23.32,23.32,0,0,0,2.47-4,7.7,7.7,0,0,0,.7-3.06,5.12,5.12,0,0,0-.86-3.11,2.89,2.89,0,0,0-2.5-1.16,3.27,3.27,0,0,0-2.86,1.42,6.21,6.21,0,0,0-1,3.62h-3.5l0-.1a7.54,7.54,0,0,1,1.95-5.45,7,7,0,0,1,5.45-2.24,6.81,6.81,0,0,1,5.13,1.91,7,7,0,0,1,1.85,5.11,8.63,8.63,0,0,1-1.12,4.19,38.25,38.25,0,0,1-3.42,5l-5,7.08h10.28Z"/><path data-cppathid="10018" fill="#fff" d="M285,377.75h-3.6v-3.57H285Zm0,15.4h-3.6v-3.57H285Z"/></g><g style="isolation:isolate"><path data-cppathid="10019" fill="#fff" d="M114.69,417.77h-9v11.38h-3.56v-25.6h14.06v2.75h-10.5v8.75h9Z"/><path data-cppathid="10020" fill="#fff" d="M136.29,403.55v16.93a9,9,0,0,1-2.39,6.65,8.4,8.4,0,0,1-6.2,2.39,8.13,8.13,0,0,1-6.09-2.4,9.07,9.07,0,0,1-2.35-6.64V403.55h3.57v16.93a7.29,7.29,0,0,0,1.34,4.65,4.32,4.32,0,0,0,3.53,1.68,4.49,4.49,0,0,0,3.63-1.67,7.11,7.11,0,0,0,1.38-4.66V403.55Z"/><path data-cppathid="10021" fill="#fff" d="M153.12,417.26h-8.69v9.18h10.23v2.71H140.87v-25.6h13.71v2.75H144.43v8.24h8.69Z"/><path data-cppathid="10022" fill="#fff" d="M175.42,429.15h-3.58l-9.92-18.88-.1,0v18.85h-3.57v-25.6h3.57l9.91,18.83.11,0V403.55h3.58Z"/><path data-cppathid="10023" fill="#fff" d="M195.11,406.3h-6.78v22.85h-3.59V406.3H178v-2.75h17.1Z"/><path data-cppathid="10024" fill="#fff" d="M210.42,417.26h-8.68v9.18H212v2.71h-13.8v-25.6h13.71v2.75H201.74v8.24h8.68Z"/><path data-cppathid="10025" fill="#fff" d="M240.22,403.55v16.93a9,9,0,0,1-2.39,6.65,8.44,8.44,0,0,1-6.21,2.39,8.13,8.13,0,0,1-6.09-2.4,9.11,9.11,0,0,1-2.35-6.64V403.55h3.57v16.93a7.23,7.23,0,0,0,1.35,4.65,4.28,4.28,0,0,0,3.52,1.68,4.49,4.49,0,0,0,3.63-1.67,7.11,7.11,0,0,0,1.38-4.66V403.55Zm-7.16-7.17h4.1l.05.09L233,401.06h-3Z"/><path data-cppathid="10026" fill="#fff" d="M262,429.15h-3.58l-9.92-18.88-.1,0v18.85h-3.57v-25.6h3.57l9.91,18.83.11,0V403.55H262Z"/><path data-cppathid="10027" fill="#fff" d="M270.73,429.15h-3.57v-25.6h3.57Z"/><path data-cppathid="10028" fill="#fff" d="M292,421.45l0,.1a7.5,7.5,0,0,1-2.11,5.87,8.27,8.27,0,0,1-6,2.1,8.12,8.12,0,0,1-6.28-2.53c-1.56-1.68-2.33-4-2.33-7.07v-7.1a10.17,10.17,0,0,1,2.3-7.09,7.92,7.92,0,0,1,6.19-2.55,8.67,8.67,0,0,1,6.11,2,7.48,7.48,0,0,1,2.13,5.94l0,.1h-3.42a5.76,5.76,0,0,0-1.2-4,4.65,4.65,0,0,0-3.58-1.29,4.24,4.24,0,0,0-3.64,1.76,8.51,8.51,0,0,0-1.29,5.07v7.16a8.44,8.44,0,0,0,1.32,5.11,4.36,4.36,0,0,0,3.73,1.78,4.5,4.5,0,0,0,3.48-1.27,6,6,0,0,0,1.16-4.09Z"/><path data-cppathid="10029" fill="#fff" d="M307.19,422.68h-7.65l-1.84,6.47H294l7.68-25.6h3.46l7.61,25.6H309Zm-6.84-2.83h6l-2.95-10.41h-.11Z"/></g></g></g><g id="Check"><g data-name="Capa 2" id="Capa_2"><path data-cppathid="10030" fill="#00ff0c" d="M309.35,144.53l-4.77-5.45a11.92,11.92,0,0,0-16.84-.86l-.19.18-.68.68-109,117.17L128.82,203.8a11.92,11.92,0,0,0-16.84-.86l-.2.18-.68.68L105,210.61l70.85,77.66Z"/><path data-cppathid="10031" fill="#03e503" d="M309.35,144.53,176.5,287.59,105,209.93l-6.81,6.81a14.51,14.51,0,0,0,0,19.08l70.17,76.3a12.74,12.74,0,0,0,17.71.68l.68-.68L316.84,171.78a14.51,14.51,0,0,0,0-19.08Z"/></g></g></svg>