<?xml version="1.0" encoding="UTF-8"?>
<svg xmlns="http://www.w3.org/2000/svg" onmouseup="{ if(window.parent.document.onmouseup) window.parent.document.onmouseup(arguments[0]);}" viewBox="0 0 415 451.2" data-name="Layer 1" id="Layer_1"><g id="m1"><path data-cppathid="10000" fill="#333e48" d="M37.2,448.2A34.25,34.25,0,0,1,3,414V37.2A34.25,34.25,0,0,1,37.2,3H377.8A34.25,34.25,0,0,1,412,37.2V414a34.25,34.25,0,0,1-34.2,34.2Z"/><path data-cppathid="10001" stroke-width="6" stroke-miterlimit="10" stroke="#adadad" fill="none" d="M37.2,448.2A34.25,34.25,0,0,1,3,414V37.2A34.25,34.25,0,0,1,37.2,3H377.8A34.25,34.25,0,0,1,412,37.2V414a34.25,34.25,0,0,1-34.2,34.2Z"/><path data-cppathid="10002" fill="#adadad" d="M377.85,446.7H37.25A32.71,32.71,0,0,1,4.55,414V350.2h405.9V414A32.69,32.69,0,0,1,377.85,446.7Z"/><g style="isolation:isolate"><g style="isolation:isolate"><path data-cppathid="10003" fill="#fff" d="M138.79,388.44h.1L145,367.55h4.57v25.6h-3.55V374.71l-.11,0-5.87,18.46h-2.44l-6-18.74-.11,0v18.72H128v-25.6h4.66Z"/><path data-cppathid="10004" fill="#fff" d="M171.6,383.88a9.79,9.79,0,0,1-2.46,7.1,8.75,8.75,0,0,1-6.59,2.54,8.5,8.5,0,0,1-6.48-2.54,9.9,9.9,0,0,1-2.41-7.1v-7a10,10,0,0,1,2.41-7.1,8.44,8.44,0,0,1,6.46-2.57,8.79,8.79,0,0,1,6.61,2.56,9.85,9.85,0,0,1,2.46,7.11Zm-3.55-7.08a7.74,7.74,0,0,0-1.43-5.07,5,5,0,0,0-4.09-1.73,4.72,4.72,0,0,0-3.94,1.73,8,8,0,0,0-1.38,5.07v7.08A8.05,8.05,0,0,0,158.6,389a4.75,4.75,0,0,0,4,1.74,5,5,0,0,0,4.08-1.73,7.92,7.92,0,0,0,1.42-5.13Z"/><path data-cppathid="10005" fill="#fff" d="M175.79,393.15v-25.6h7.26a8.5,8.5,0,0,1,6.77,3.08,11.71,11.71,0,0,1,2.63,7.91v3.64a11.68,11.68,0,0,1-2.63,7.91,8.51,8.51,0,0,1-6.77,3.06Zm3.57-22.85v20.14h3.69a4.89,4.89,0,0,0,4.22-2.31,10.37,10.37,0,0,0,1.58-5.95V378.5a10.23,10.23,0,0,0-1.58-5.89,4.89,4.89,0,0,0-4.22-2.31Z"/><path data-cppathid="10006" fill="#fff" d="M213.48,367.55v16.93a9,9,0,0,1-2.39,6.65,8.44,8.44,0,0,1-6.21,2.39,8.13,8.13,0,0,1-6.09-2.4,9.11,9.11,0,0,1-2.35-6.64V367.55H200v16.93a7.23,7.23,0,0,0,1.35,4.65,4.28,4.28,0,0,0,3.52,1.68,4.49,4.49,0,0,0,3.63-1.67,7.11,7.11,0,0,0,1.38-4.66V367.55Z"/><path data-cppathid="10007" fill="#fff" d="M221.62,390.44H232v2.71H218.05v-25.6h3.57Z"/><path data-cppathid="10008" fill="#fff" d="M251.48,383.88A9.79,9.79,0,0,1,249,391a8.77,8.77,0,0,1-6.59,2.54,8.54,8.54,0,0,1-6.49-2.54,9.94,9.94,0,0,1-2.41-7.1v-7a10,10,0,0,1,2.41-7.1,8.46,8.46,0,0,1,6.47-2.57,8.78,8.78,0,0,1,6.6,2.56,9.81,9.81,0,0,1,2.47,7.11Zm-3.55-7.08a7.8,7.8,0,0,0-1.43-5.07,5,5,0,0,0-4.09-1.73,4.74,4.74,0,0,0-3.95,1.73,8,8,0,0,0-1.38,5.07v7.08a8.12,8.12,0,0,0,1.39,5.12,4.78,4.78,0,0,0,4,1.74,5,5,0,0,0,4.08-1.73,7.92,7.92,0,0,0,1.42-5.13Z"/><path data-cppathid="10009" fill="#fff" d="M273,393.15h-3.58V370.58l-5,.31v-2.65l8.58-1.06Z"/><path data-cppathid="10010" fill="#fff" d="M285.72,377.75h-3.6v-3.57h3.6Zm0,15.4h-3.6v-3.57h3.6Z"/></g><g style="isolation:isolate"><path data-cppathid="10011" fill="#fff" d="M101,429.15H97.43v-25.6H101Z"/><path data-cppathid="10012" fill="#fff" d="M123.4,429.15h-3.59l-9.91-18.88-.11,0v18.85h-3.57v-25.6h3.57l9.91,18.83.11,0V403.55h3.59Z"/><path data-cppathid="10013" fill="#fff" d="M143.08,406.3H136.3v22.85h-3.59V406.3H126v-2.75h17.1Z"/><path data-cppathid="10014" fill="#fff" d="M149.69,418.13v11h-3.57V403.57h7.55a8,8,0,0,1,5.7,1.88,7,7,0,0,1,2,5.4,6.49,6.49,0,0,1-.94,3.51,6.16,6.16,0,0,1-2.7,2.32,4.91,4.91,0,0,1,2.84,2.22,7.72,7.72,0,0,1,.87,3.83V425a10.17,10.17,0,0,0,.23,2.2,3,3,0,0,0,.81,1.58v.41h-3.67a3.11,3.11,0,0,1-.79-1.77,16.33,16.33,0,0,1-.18-2.45v-2.16a5.35,5.35,0,0,0-1-3.4,3.34,3.34,0,0,0-2.76-1.24Zm0-2.73h3.8a4.18,4.18,0,0,0,3.27-1.17,4.78,4.78,0,0,0,1.05-3.31,5.14,5.14,0,0,0-1-3.41,3.87,3.87,0,0,0-3.12-1.21h-4Z"/><path data-cppathid="10015" fill="#fff" d="M183.37,419.88a9.79,9.79,0,0,1-2.46,7.1,8.77,8.77,0,0,1-6.59,2.54,8.54,8.54,0,0,1-6.49-2.54,9.94,9.94,0,0,1-2.4-7.1v-7a10,10,0,0,1,2.4-7.1,8.47,8.47,0,0,1,6.47-2.57,8.75,8.75,0,0,1,6.6,2.56,9.81,9.81,0,0,1,2.47,7.11Zm-3.55-7.08a7.8,7.8,0,0,0-1.43-5.07A5,5,0,0,0,174.3,406a4.72,4.72,0,0,0-3.94,1.73A8,8,0,0,0,169,412.8v7.08a8.12,8.12,0,0,0,1.38,5.12,4.78,4.78,0,0,0,4,1.74A5,5,0,0,0,178.4,425a7.92,7.92,0,0,0,1.42-5.13Z"/><path data-cppathid="10016" fill="#fff" d="M187.56,429.15v-25.6h7.26a8.5,8.5,0,0,1,6.77,3.08,11.76,11.76,0,0,1,2.63,7.91v3.64a11.73,11.73,0,0,1-2.63,7.91,8.51,8.51,0,0,1-6.77,3.06Zm3.56-22.85v20.14h3.7a4.87,4.87,0,0,0,4.21-2.31,10.29,10.29,0,0,0,1.59-5.95V414.5a10.16,10.16,0,0,0-1.59-5.89,4.87,4.87,0,0,0-4.21-2.31Z"/><path data-cppathid="10017" fill="#fff" d="M225.24,403.55v16.93a9,9,0,0,1-2.39,6.65,8.4,8.4,0,0,1-6.2,2.39,8.13,8.13,0,0,1-6.09-2.4,9.07,9.07,0,0,1-2.35-6.64V403.55h3.57v16.93a7.29,7.29,0,0,0,1.34,4.65,4.32,4.32,0,0,0,3.53,1.68,4.49,4.49,0,0,0,3.63-1.67,7.11,7.11,0,0,0,1.38-4.66V403.55Z"/><path data-cppathid="10018" fill="#fff" d="M245.83,421.45l0,.1a7.5,7.5,0,0,1-2.11,5.87,8.27,8.27,0,0,1-6,2.1,8.12,8.12,0,0,1-6.28-2.53,10,10,0,0,1-2.33-7.07v-7.1a10.17,10.17,0,0,1,2.3-7.09,7.92,7.92,0,0,1,6.19-2.55,8.67,8.67,0,0,1,6.11,2,7.48,7.48,0,0,1,2.13,5.94l0,.1h-3.43a5.76,5.76,0,0,0-1.2-4,4.64,4.64,0,0,0-3.58-1.29,4.24,4.24,0,0,0-3.64,1.76,8.51,8.51,0,0,0-1.29,5.07v7.16A8.44,8.44,0,0,0,234,425a4.36,4.36,0,0,0,3.73,1.78,4.5,4.5,0,0,0,3.48-1.27,6,6,0,0,0,1.16-4.09Z"/><path data-cppathid="10019" fill="#fff" d="M265.74,421.45l0,.1a7.54,7.54,0,0,1-2.11,5.87,8.27,8.27,0,0,1-6,2.1A8.12,8.12,0,0,1,251.4,427a10,10,0,0,1-2.34-7.07v-7.1a10.17,10.17,0,0,1,2.31-7.09,7.9,7.9,0,0,1,6.18-2.55,8.68,8.68,0,0,1,6.12,2,7.55,7.55,0,0,1,2.13,5.94l0,.1h-3.43a5.76,5.76,0,0,0-1.19-4,4.66,4.66,0,0,0-3.59-1.29,4.25,4.25,0,0,0-3.64,1.76,8.59,8.59,0,0,0-1.28,5.07v7.16A8.44,8.44,0,0,0,254,425a4.36,4.36,0,0,0,3.73,1.78,4.53,4.53,0,0,0,3.48-1.27,6,6,0,0,0,1.16-4.09Z"/><path data-cppathid="10020" fill="#fff" d="M273.53,429.15H270v-25.6h3.57Z"/><path data-cppathid="10021" fill="#fff" d="M296,419.88a9.79,9.79,0,0,1-2.46,7.1,8.77,8.77,0,0,1-6.59,2.54,8.52,8.52,0,0,1-6.49-2.54,9.9,9.9,0,0,1-2.41-7.1v-7a10,10,0,0,1,2.41-7.1,8.44,8.44,0,0,1,6.47-2.57,8.78,8.78,0,0,1,6.6,2.56,9.81,9.81,0,0,1,2.47,7.11Zm-3.55-7.08a7.8,7.8,0,0,0-1.43-5.07,5,5,0,0,0-4.09-1.73,4.74,4.74,0,0,0-4,1.73,8,8,0,0,0-1.38,5.07v7.08A8.05,8.05,0,0,0,283,425a4.77,4.77,0,0,0,4,1.74A5,5,0,0,0,291,425a7.92,7.92,0,0,0,1.43-5.13ZM288.31,396h4.1l0,.09-4.25,4.59h-3Z"/><path data-cppathid="10022" fill="#fff" d="M317.34,429.15h-3.59l-9.91-18.88-.11,0v18.85h-3.57v-25.6h3.57l9.91,18.83.11,0V403.55h3.59Z"/></g></g><rect data-cppathid="10023" stroke-width="7" stroke-linejoin="round" stroke-linecap="round" stroke="#fff" fill="#333e48" height="113.1" width="88.1" y="130.2" x="111.5"/><rect data-cppathid="10024" stroke-width="7" stroke-linejoin="round" stroke-linecap="round" stroke="#fff" fill="#333e48" height="113.1" width="88.1" y="130.2" x="216"/><rect data-cppathid="10025" stroke-width="7" stroke-linejoin="round" stroke-linecap="round" stroke="#fff" fill="#333e48" height="113.1" width="88.1" y="104" x="163.8"/><g style="isolation:isolate"><path data-cppathid="10026" fill="#fff" d="M216.11,189.68h-10V139.1H193.44v-7.92L216.11,129Z"/></g><line data-cppathid="10027" stroke-width="7" stroke-linejoin="round" stroke-linecap="round" stroke="#fff" fill="none" y2="216.5" x2="286.2" y1="216.5" x1="251.4"/><line data-cppathid="10028" stroke-width="7" stroke-linejoin="round" stroke-linecap="round" stroke="#fff" fill="none" y2="196.7" x2="286.2" y1="196.7" x1="253.3"/><line data-cppathid="10029" stroke-width="7" stroke-linejoin="round" stroke-linecap="round" stroke="#fff" fill="none" y2="176.8" x2="286.2" y1="176.8" x1="253.3"/><line data-cppathid="10030" stroke-width="7" stroke-linejoin="round" stroke-linecap="round" stroke="#fff" fill="none" y2="156.9" x2="286.2" y1="156.9" x1="253.3"/><line data-cppathid="10031" stroke-width="7" stroke-linejoin="round" stroke-linecap="round" stroke="#fff" fill="none" y2="216.5" x2="130.3" y1="216.5" x1="165"/><line data-cppathid="10032" stroke-width="7" stroke-linejoin="round" stroke-linecap="round" stroke="#fff" fill="none" y2="196.7" x2="130.3" y1="196.7" x1="163.1"/><line data-cppathid="10033" stroke-width="7" stroke-linejoin="round" stroke-linecap="round" stroke="#fff" fill="none" y2="176.8" x2="130.3" y1="176.8" x1="163.1"/><line data-cppathid="10034" stroke-width="7" stroke-linejoin="round" stroke-linecap="round" stroke="#fff" fill="none" y2="156.9" x2="130.3" y1="156.9" x1="163.1"/><path data-cppathid="10035" stroke-width="7" stroke-linejoin="round" stroke-linecap="round" stroke="#fff" fill="none" d="M163.6,304.8a131.38,131.38,0,1,1,109.5-9.7"/><polygon data-cppathid="10036" fill="#fff" points="270.1 276.8 250.2 305.5 285 308.4 270.1 276.8"/></g></svg>