<?xml version="1.0" encoding="UTF-8"?>
<svg xmlns="http://www.w3.org/2000/svg" onmouseup="{ if(window.parent.document.onmouseup) window.parent.document.onmouseup(arguments[0]);}" viewBox="0 0 211.58 211.58" data-name="Capa 25" id="Capa_25"><path data-cppathid="10000" fill="#fff" transform="translate(0 0)" d="M0,105.85A105.79,105.79,0,1,1,105.85,211.58,105.79,105.79,0,0,1,0,105.85ZM111.4,85.63c3.11-3.12,6.32-6.16,9.29-9.4,2.68-2.93,2.56-6.17.06-9.16-2.29-2.72-6.54-2.92-9.57-.61A15.31,15.31,0,0,0,109.6,68L77.52,100.11c-4.77,4.79-4.76,7.89,0,12.68,10.16,10.2,20.29,20.43,30.59,30.49,1.67,1.63,4.3,3.5,6.27,3.29,2.29-.26,4.93-2.26,6.38-4.26,2-2.82.23-5.6-2-7.8q-12.21-12.34-24.59-24.61a35.35,35.35,0,0,0-4-3Z"/></svg>