<?xml version="1.0" encoding="UTF-8"?>
<svg xmlns="http://www.w3.org/2000/svg" onmouseup="{ if(window.parent.document.onmouseup) window.parent.document.onmouseup(arguments[0]);}" viewBox="0 0 46.29 28.42" data-name="Capa 4" id="Capa_4"><path data-cppathid="10000" fill="#fff" transform="translate(0 0.01)" d="M24.36,14.82V16.5h5.38v1.65H24.36V19H21.88v-.83H16.52V16.51h5.36V14.82c-6.71-.35-12-3.53-12-7.4C9.88,3.32,15.79,0,23.08,0s13.2,3.33,13.2,7.43c0,3.87-5.25,7.05-12,7.4M16,7.42A7,7,0,0,1,20.24,1c-5.69.72-9.5,3.59-9.5,6.44s3.81,5.72,9.58,6.43a7,7,0,0,1-4.21-6.43M25.93,1a7,7,0,0,1,0,12.86c5.77-.71,9.57-3.58,9.57-6.43S31.74,1.71,25.93,1"/><path data-cppathid="10001" fill="#fff" transform="translate(0 0.01)" d="M6.38,26.28v1.46a5.49,5.49,0,0,1-2.57.66A3.88,3.88,0,0,1,1,27.34a3.33,3.33,0,0,1,0-4.69l0,0a4,4,0,0,1,2.9-1.06,4.47,4.47,0,0,1,2.37.59v1.49a4.6,4.6,0,0,0-2.25-.69,2.53,2.53,0,0,0-1.71.57,2,2,0,0,0,0,2.93A2.43,2.43,0,0,0,4,27a3.47,3.47,0,0,0,1.15-.19,13.29,13.29,0,0,0,1.22-.54"/><path data-cppathid="10002" fill="#fff" transform="translate(0 0.01)" d="M12.5,25a2,2,0,0,0-.56-1.48,2,2,0,0,0-1.46-.56,2.1,2.1,0,0,0-2,2.15A2.13,2.13,0,0,0,9,26.45a2,2,0,0,0,1.47.56,1.9,1.9,0,0,0,1.46-.56A2,2,0,0,0,12.5,25m1.64,0a3.24,3.24,0,0,1-1,2.35,3.57,3.57,0,0,1-2.69,1.07,3.62,3.62,0,0,1-2.71-1.07,3.36,3.36,0,0,1,0-4.67,3.58,3.58,0,0,1,2.74-1.11,3.56,3.56,0,0,1,2.73,1.11A3.28,3.28,0,0,1,14.14,25"/><path data-cppathid="10003" fill="#fff" transform="translate(0 0.01)" d="M16.28,22.82v4.23h1.06A2,2,0,0,0,19,26.36a2.21,2.21,0,0,0,.45-1.42,2.13,2.13,0,0,0-.5-1.49,2.08,2.08,0,0,0-1.65-.63ZM14.65,21.6h2.89a3.64,3.64,0,0,1,2.7,1A3.15,3.15,0,0,1,21.15,25a3.13,3.13,0,0,1-.92,2.37,4,4,0,0,1-2.88,1h-2.7Z"/><polygon data-cppathid="10004" fill="#fff" points="26.51 27.1 26.51 28.32 21.69 28.32 21.69 21.65 26.45 21.65 26.45 22.87 23.32 22.87 23.32 24.27 26.3 24.27 26.3 25.49 23.32 25.49 23.32 27.1 26.51 27.1"/><polygon data-cppathid="10005" fill="#fff" points="32.08 27.1 32.08 28.32 27.1 28.32 27.1 21.65 28.73 21.65 28.73 27.1 32.08 27.1"/><path data-cppathid="10006" fill="#fff" transform="translate(0 0.01)" d="M38.53,26.28v1.46A5.49,5.49,0,0,1,36,28.4a3.84,3.84,0,0,1-2.86-1.06,3.33,3.33,0,0,1,0-4.69l0,0a4,4,0,0,1,2.9-1.06,4.47,4.47,0,0,1,2.37.59v1.49a4.6,4.6,0,0,0-2.25-.69,2.53,2.53,0,0,0-1.71.57,2,2,0,0,0,0,2.93,2.48,2.48,0,0,0,1.67.57,3.47,3.47,0,0,0,1.15-.19,13.29,13.29,0,0,0,1.22-.54"/><path data-cppathid="10007" fill="#fff" transform="translate(0 0.01)" d="M44.65,25a2,2,0,0,0-.56-1.48,2,2,0,0,0-1.46-.56,2.1,2.1,0,0,0-2,2.15,2.13,2.13,0,0,0,.56,1.36,2,2,0,0,0,1.47.56,1.9,1.9,0,0,0,1.46-.56A2,2,0,0,0,44.65,25m1.64,0a3.24,3.24,0,0,1-1,2.35A3.57,3.57,0,0,1,42.6,28.4a3.62,3.62,0,0,1-2.71-1.07,3.36,3.36,0,0,1,0-4.67,3.92,3.92,0,0,1,5.47,0A3.28,3.28,0,0,1,46.29,25"/></svg>