<?xml version="1.0" encoding="UTF-8"?>
<svg xmlns="http://www.w3.org/2000/svg" onmouseup="{ if(window.parent.document.onmouseup) window.parent.document.onmouseup(arguments[0]);}" viewBox="0 0 211.58 211.58" data-name="Capa 24" id="Capa_24"><path data-cppathid="10000" fill="#fff" transform="translate(0 0)" d="M105.73,211.58A105.79,105.79,0,1,1,211.58,105.85,105.79,105.79,0,0,1,105.73,211.58Zm15.68-104.64a35.35,35.35,0,0,0-4,3Q105,122.2,92.78,134.55c-2.18,2.2-4,5-2,7.8,1.44,2,4.08,4,6.38,4.26,2,.21,4.59-1.66,6.26-3.29,10.31-10.06,20.43-20.29,30.6-30.49,4.78-4.79,4.79-7.89,0-12.68Q118,84.07,101.93,68a15.21,15.21,0,0,0-1.58-1.53c-3-2.31-7.28-2.11-9.56.61-2.51,3-2.62,6.23,0,9.16,3,3.24,6.19,6.28,9.3,9.4Z"/></svg>