<svg id="Capa_1" data-name="Capa 1" xmlns="http://www.w3.org/2000/svg" viewBox="0 0 483.85 68.82"><path d="M161,66.85a23.93,23.93,0,1,0,23.93,23.92A23.94,23.94,0,0,0,161,66.85Zm0,34.49a10.57,10.57,0,1,1,10.56-10.57h0A10.69,10.69,0,0,1,161,101.34Z" transform="translate(-43.4 -45.88)" fill="#ff0914"/><polygon points="171.96 22.12 165.44 22.12 165.44 8.01 151.16 8.01 151.16 22.12 144.56 22.12 144.56 35.08 151.16 35.08 151.16 67.67 165.44 67.67 165.44 35.08 171.96 35.08 171.96 22.12" fill="#ff0914"/><rect x="178.56" y="22.12" width="14.27" height="45.55" fill="#ff0914"/><path d="M229.06,45.89a8,8,0,1,0,8,8h0A8,8,0,0,0,229.06,45.89Z" transform="translate(-43.4 -45.88)" fill="#ff0914"/><path d="M434.18,80.21a8.49,8.49,0,0,1,8.5,8.5v24.76H457V86.81c0-12.13-7-20-18.07-20-4.53,0-9.32,2-13.28,8.33V68H411.32v45.55H425.6V88.79A8.74,8.74,0,0,1,434.18,80.21Z" transform="translate(-43.4 -45.88)" fill="#ff0914"/><polygon points="465.7 67.67 448.12 44.89 464.46 22.12 447.79 22.12 434.67 40.52 434.67 1.16 420.32 1.16 420.32 67.67 434.67 67.67 434.67 48.85 449.03 67.67 465.7 67.67" fill="#ff0914"/><path d="M87.8,101.25a20.89,20.89,0,0,0,1.48-8.41c0-4.62-1.4-8.75-4-11.55C82.18,78,77,75.18,69.72,73a33,33,0,0,1-4-1.48,11.74,11.74,0,0,1-3.05-2.23,5.15,5.15,0,0,1-1.32-3.71c0-2.15,1.15-3.55,3-4.7,2.31-1.49,6.77-1.57,11.3.08a33.86,33.86,0,0,1,4.62,2.14L86.31,51a33.59,33.59,0,0,0-8.75-4,43.06,43.06,0,0,0-9.73-1.15,26.24,26.24,0,0,0-9.08,1.48,19.45,19.45,0,0,0-6.93,4.54,20.8,20.8,0,0,0-4.62,6.93,21.22,21.22,0,0,0-1.49,8.42,17.56,17.56,0,0,0,5.37,12c4.12,3.87,8.91,5.28,10.81,6s4,1.32,5.36,1.9a17.46,17.46,0,0,1,4,2,6,6,0,0,1,2.06,2.31,4.94,4.94,0,0,1,.42,2.89,6.46,6.46,0,0,1-2.07,4c-1.23,1.15-3.46,1.81-6.6,1.81a20.58,20.58,0,0,1-8-1.9,48.07,48.07,0,0,1-6.44-3.46L43.4,107.28c5,4.45,13.12,7.42,20.3,7.42A34.3,34.3,0,0,0,74.51,113a25.6,25.6,0,0,0,8.17-4.54A22.41,22.41,0,0,0,87.8,101.25Z" transform="translate(-43.4 -45.88)" fill="#ff0914"/><path d="M519.25,97.62a8,8,0,1,0,8,8A8.06,8.06,0,0,0,519.25,97.62Zm0,14.36a6.36,6.36,0,1,1,6.35-6.35,6.35,6.35,0,0,1-6.35,6.35Z" transform="translate(-43.4 -45.88)" fill="#ff0914"/><path d="M519.17,107h-1.24v3h-1.57v-8.75h3.3a2.92,2.92,0,0,1,2.89,2.89h0a2.92,2.92,0,0,1-1.65,2.56l1.82,3.3H520.9Zm-1.24-1.49h1.82a1.33,1.33,0,0,0,0-2.64h-1.82Z" transform="translate(-43.4 -45.88)" fill="#ff0914"/><path d="M127,97.38a10.57,10.57,0,1,1-1.65-14.86A10.72,10.72,0,0,1,127,84.17l9.49-9.49a23.78,23.78,0,0,0-17.66-7.83c-13.2,0-24.67,9.4-24.67,23.92s11.47,23.93,24.67,23.93a23.49,23.49,0,0,0,17.66-7.84Z" transform="translate(-43.4 -45.88)" fill="#ff0914"/><path d="M292.18,113.55V68H278.23v4.79l-1.32-1.16a17.48,17.48,0,0,0-12-4.78c-12.3,0-22.69,11-22.69,23.92s10.39,23.93,22.69,23.93a17.77,17.77,0,0,0,12-4.78l1.32-1.16v4.79Zm-25-12A10.73,10.73,0,1,1,277.9,90.77h0A10.81,10.81,0,0,1,267.18,101.5Z" transform="translate(-43.4 -45.88)" fill="#ff0914"/><path d="M404.56,113.55V68H390.61v4.79l-1.32-1.16a17.44,17.44,0,0,0-12-4.78c-12.3,0-22.69,11-22.69,23.92S365,114.7,377.25,114.7a17.77,17.77,0,0,0,12-4.78l1.32-1.16v4.79Zm-25-12a10.69,10.69,0,1,1,.08-21.37,10.69,10.69,0,1,1-.08,21.37Z" transform="translate(-43.4 -45.88)" fill="#ff0914"/><path d="M313.55,113.55v-4.79l1.32,1.16a17.43,17.43,0,0,0,12,4.78c12.3,0,22.69-11,22.69-23.93s-10.39-23.92-22.69-23.92a17.43,17.43,0,0,0-12,4.78l-1.32,1.16V47H299.6v66.51Zm.25-22.78a10.73,10.73,0,1,1,10.72,10.73A10.7,10.7,0,0,1,313.8,90.77Z" transform="translate(-43.4 -45.88)" fill="#ff0914"/></svg>