<svg id="Capa_1" data-name="Capa 1" xmlns="http://www.w3.org/2000/svg" viewBox="0 0 935.07 935.07"><rect width="935.07" height="935.07" rx="61.39" fill="#019676"/><path d="M1094.51,473.22a50.37,50.37,0,0,1-15.68-2.49,39.61,39.61,0,0,1-12.76-6.57l3.19-5.35a45.11,45.11,0,0,0,12.12,6.37,41.69,41.69,0,0,0,12.75,1.79q10.59,0,16.39-4.46t5.81-12.89q0-7.51-4.28-11.67T1098,431l-7.66-2.17q-11.6-3.31-17.15-9.12t-5.55-15a20.63,20.63,0,0,1,8-17q8-6.37,21.11-6.38a41.69,41.69,0,0,1,12.76,2,40.9,40.9,0,0,1,11.1,5.36l-3.06,5a39.21,39.21,0,0,0-9.64-4.46,39.65,39.65,0,0,0-11.92-1.66q-10.08,0-15.88,4.4t-5.81,12.44q0,7,4.15,11.29t14,7.08l7.78,2.16q12.12,3.45,17.47,8.87t5.36,15.24q0,11.24-7.72,17.67T1094.51,473.22Z" transform="translate(-985.99 -34.38)" fill="#fff"/><path d="M1167.73,473.22a28.77,28.77,0,0,1-15.56-4.14,27.79,27.79,0,0,1-10.27-11.55,38.33,38.33,0,0,1-3.63-17.09,39,39,0,0,1,3.63-17.35,27.24,27.24,0,0,1,25.32-15.69,32.74,32.74,0,0,1,10.27,1.53,30.52,30.52,0,0,1,8.36,4.21l-2.68,4.72a32.58,32.58,0,0,0-7.78-3.44,30.71,30.71,0,0,0-8.17-1q-10.2,0-16.33,7.39t-6.12,19.65q0,12.12,6.38,19.39t17,7.27a34,34,0,0,0,8.8-1.09,32.25,32.25,0,0,0,8.16-3.5l2.68,4.72a26.59,26.59,0,0,1-9.06,4.52A39.47,39.47,0,0,1,1167.73,473.22Z" transform="translate(-985.99 -34.38)" fill="#fff"/><path d="M1226.79,473.22a27.47,27.47,0,0,1-25.64-15.75,41.78,41.78,0,0,1,0-34.38,28.55,28.55,0,0,1,51.28,0,41.78,41.78,0,0,1,0,34.38,27.47,27.47,0,0,1-25.64,15.75Zm0-5.87a20.89,20.89,0,0,0,12-3.44,23.09,23.09,0,0,0,8-9.5,36.37,36.37,0,0,0,0-28.32,22.6,22.6,0,0,0-8-9.44,22.85,22.85,0,0,0-23.92,0,22.44,22.44,0,0,0-8,9.44,36.37,36.37,0,0,0,0,28.32,22.93,22.93,0,0,0,8,9.5A21,21,0,0,0,1226.79,467.35Z" transform="translate(-985.99 -34.38)" fill="#fff"/><path d="M1292.74,472.58q-7,0-10.84-4.53T1278.07,455V414.29h-9.18v-5.61h9.18V389.41h6.12v19.27h18.37v5.61h-18.37V455q0,11.73,9.31,11.74a14.81,14.81,0,0,0,4.6-.71,24.76,24.76,0,0,0,4.46-2l2.55,4.46a16.14,16.14,0,0,1-5.74,3.06A22.44,22.44,0,0,1,1292.74,472.58Z" transform="translate(-985.99 -34.38)" fill="#fff"/><path d="M1323.35,392.35c-3.14,0-4.72-1.53-4.72-4.59s1.58-4.6,4.72-4.6,4.72,1.53,4.72,4.6S1326.5,392.35,1323.35,392.35Zm-3.06,79.6V408.68h6.13V472Z" transform="translate(-985.99 -34.38)" fill="#fff"/><path d="M1365.83,473.22q-9.82,0-15.44-5.17t-5.61-13.71q0-9.43,7-14.48t19.58-5a81.35,81.35,0,0,1,8.23.44,52.78,52.78,0,0,1,8.48,1.6v-2.81q0-11-4.4-15.88t-14.09-4.91a31.72,31.72,0,0,0-10.08,1.53,45.38,45.38,0,0,0-8.55,3.83l-2.67-4.72A39,39,0,0,1,1359,409a40.08,40.08,0,0,1,10.91-1.6q24.24,0,24.24,26.66V472h-5.87l-.13-13.4a23.19,23.19,0,0,1-22.32,14.67Zm-14.54-19a12.24,12.24,0,0,0,4,9.57q4,3.57,11,3.57,9.94,0,15.69-6.69t6.12-18.31a79.45,79.45,0,0,0-15.94-1.78Q1351.29,440.57,1351.29,454.21Z" transform="translate(-985.99 -34.38)" fill="#fff"/><path d="M1482.8,473.22q-12.37,0-21.5-5.74a38,38,0,0,1-14.09-16q-5-10.26-5-24t5-24.24a38.2,38.2,0,0,1,14.23-16.07,39.54,39.54,0,0,1,21.43-5.74,43.33,43.33,0,0,1,13.71,2.17,42.17,42.17,0,0,1,11.8,6l-3.06,5a41,41,0,0,0-22.84-7,32.25,32.25,0,0,0-17.85,4.85,31.41,31.41,0,0,0-11.61,13.78q-4.1,8.92-4.08,21.3a49.3,49.3,0,0,0,4.14,20.92,31.72,31.72,0,0,0,11.93,13.84,33.71,33.71,0,0,0,18.37,4.91,42.13,42.13,0,0,0,13.26-2,56,56,0,0,0,11.48-5.29l2.94,4.72a38.66,38.66,0,0,1-12.31,6.31A52.14,52.14,0,0,1,1482.8,473.22Z" transform="translate(-985.99 -34.38)" fill="#fff"/><path d="M1551.42,473.22a27.47,27.47,0,0,1-25.63-15.75,41.78,41.78,0,0,1,0-34.38,28.54,28.54,0,0,1,51.27,0,41.78,41.78,0,0,1,0,34.38,27.47,27.47,0,0,1-25.64,15.75Zm0-5.87a20.92,20.92,0,0,0,12-3.44,23.17,23.17,0,0,0,8-9.5,36.37,36.37,0,0,0,0-28.32,22.68,22.68,0,0,0-8-9.44,22.85,22.85,0,0,0-23.92,0,22.47,22.47,0,0,0-8,9.44,36.37,36.37,0,0,0,0,28.32,23,23,0,0,0,8,9.5A21,21,0,0,0,1551.42,467.35Z" transform="translate(-985.99 -34.38)" fill="#fff"/><path d="M1598.75,472V408.68h5.87l.12,11.73A23.38,23.38,0,0,1,1613,411a21.83,21.83,0,0,1,12.37-3.64q8.16,0,13.2,3.89a20.69,20.69,0,0,1,7.08,11.29,23.86,23.86,0,0,1,8.48-11,22.31,22.31,0,0,1,13.33-4.15q11,0,16.52,6.82t5.55,20V472h-6.12V434.32q0-21.06-16.2-21.05a17.37,17.37,0,0,0-10.27,3.19,21.72,21.72,0,0,0-7.14,8.73,29.39,29.39,0,0,0-2.62,12.7V472h-6.12V434.57q0-21.3-16.2-21.3a17.47,17.47,0,0,0-10.14,3.12,22.06,22.06,0,0,0-7.21,8.55,27.1,27.1,0,0,0-2.68,12.18V472Z" transform="translate(-985.99 -34.38)" fill="#fff"/><path d="M1741.1,473.22a27.87,27.87,0,0,1-14.6-3.7,22.91,22.91,0,0,1-9.25-10.33l-.13,12.76h-5.87V378.83h6.13V421.3a24.85,24.85,0,0,1,9.25-10,25.7,25.7,0,0,1,14-3.89,28.54,28.54,0,0,1,15.31,4A26.73,26.73,0,0,1,1766,422.77a43.84,43.84,0,0,1-.07,34.82,27.72,27.72,0,0,1-10,11.55A26.85,26.85,0,0,1,1741.1,473.22Zm-.76-5.87A20.93,20.93,0,0,0,1752.2,464a22.53,22.53,0,0,0,8-9.5,33.23,33.23,0,0,0,2.87-14.29,32.5,32.5,0,0,0-2.87-14.09,22.6,22.6,0,0,0-8-9.44,21,21,0,0,0-11.86-3.38q-10.47,0-16.71,7.4t-6.25,19.64q0,12.12,6.25,19.58T1740.34,467.35Z" transform="translate(-985.99 -34.38)" fill="#fff"/><path d="M1812.66,473.22A27.5,27.5,0,0,1,1787,457.47a41.89,41.89,0,0,1,0-34.38,28.55,28.55,0,0,1,51.28,0,41.78,41.78,0,0,1,0,34.38,27.47,27.47,0,0,1-25.64,15.75Zm0-5.87a20.86,20.86,0,0,0,12-3.44,23.19,23.19,0,0,0,8-9.5,36.37,36.37,0,0,0,0-28.32,22.7,22.7,0,0,0-8-9.44,22.83,22.83,0,0,0-23.91,0,22.4,22.4,0,0,0-8,9.44,36.37,36.37,0,0,0,0,28.32,22.87,22.87,0,0,0,8,9.5A21,21,0,0,0,1812.66,467.35Z" transform="translate(-985.99 -34.38)" fill="#fff"/><path d="M1273.16,625v-89.3h25.64q15.81,0,27,5.3a38.82,38.82,0,0,1,17.15,15.31q6,10,6,24t-6,24a38.8,38.8,0,0,1-17.15,15.3q-11.17,5.29-27,5.3Zm25.64-72.71H1291v56.12h7.78q15.43,0,23.66-7.27t8.23-20.79q0-13.65-8.23-20.86T1298.8,552.31Z" transform="translate(-985.99 -34.38)" fill="#fff"/><path d="M1370.87,551.92a10.92,10.92,0,0,1-7.53-2.61,9.29,9.29,0,0,1-2.93-7.33c0-3.24,1-5.7,2.93-7.4a12.38,12.38,0,0,1,15.05,0c2,1.7,2.94,4.16,2.94,7.4a9.3,9.3,0,0,1-2.94,7.33A10.88,10.88,0,0,1,1370.87,551.92Zm-8.55,73.1V560h17.09V625Z" transform="translate(-985.99 -34.38)" fill="#fff"/><path d="M1420.62,605a38.64,38.64,0,0,1-10.21-1.28,8.43,8.43,0,0,0-.13,1.54q0,5.87,8,6.37l11,.64q12.12.65,18.56,5.42a15.54,15.54,0,0,1,6.44,13.2,17.94,17.94,0,0,1-8.42,15.82q-8.41,5.61-24.23,5.61-15.06,0-23.54-5.61t-8.48-15.43a15,15,0,0,1,2.29-8.29,18.54,18.54,0,0,1,6.13-5.87,15.91,15.91,0,0,1,3.06-18,20.93,20.93,0,0,1-6.12-7.52,22.45,22.45,0,0,1-2.17-10q0-10.59,7.59-17t20.22-6.44a32.84,32.84,0,0,1,16.58,4h18.62v11.74l-8.29,1a25.15,25.15,0,0,1,.89,6.76,21.7,21.7,0,0,1-3.44,12.24,23,23,0,0,1-9.7,8.17A34.24,34.24,0,0,1,1420.62,605Zm-15.69,24.24a9.06,9.06,0,0,0,4.65,8c3.1,2,7.51,2.94,13.2,2.94q15.57,0,15.57-7.66a4.59,4.59,0,0,0-1.92-4c-1.27-.89-3.36-1.42-6.25-1.59l-16.07-1a23.81,23.81,0,0,1-7.65-1.66A8.06,8.06,0,0,0,1404.93,629.23Zm15.69-37c3.65,0,6.54-1,8.67-2.93a10.85,10.85,0,0,0,0-15.37q-3.19-2.86-8.67-2.87t-8.68,2.87a10.78,10.78,0,0,0,.06,15.37A12.36,12.36,0,0,0,1420.62,592.23Z" transform="translate(-985.99 -34.38)" fill="#fff"/><path d="M1474.57,551.92a10.88,10.88,0,0,1-7.52-2.61,9.3,9.3,0,0,1-2.94-7.33c0-3.24,1-5.7,2.94-7.4a12.38,12.38,0,0,1,15,0c2,1.7,2.93,4.16,2.93,7.4a9.33,9.33,0,0,1-2.93,7.33A10.92,10.92,0,0,1,1474.57,551.92ZM1466,625V560h17.09V625Z" transform="translate(-985.99 -34.38)" fill="#fff"/><path d="M1523.68,626.16q-21.56,0-21.56-26.65v-24h-7.65V560h7.65V542.49h17.1V560h17.22v15.56h-17.22v23.73q0,11.22,8.29,11.22a15.84,15.84,0,0,0,7.14-1.78l6,12.12Q1533.89,626.17,1523.68,626.16Z" transform="translate(-985.99 -34.38)" fill="#fff"/><path d="M1565.27,626.8q-8.94,0-14.61-5.8T1545,606a18.73,18.73,0,0,1,7.66-15.75q7.65-5.81,20.79-5.81a68.37,68.37,0,0,1,12,1.15q-.9-12.75-14.67-12.76a33.29,33.29,0,0,0-16.71,4.85l-5.87-12a48.58,48.58,0,0,1,12.5-5.61,46.63,46.63,0,0,1,13-1.91q28.32,0,28.32,29.72V625h-14.28l-.64-11.1a23,23,0,0,1-8.74,9.57A25,25,0,0,1,1565.27,626.8Zm-3.19-21.68a6.46,6.46,0,0,0,2.42,5.29,10.2,10.2,0,0,0,6.63,2,14.08,14.08,0,0,0,10.4-4,13.75,13.75,0,0,0,4-10.14v-.89a81.5,81.5,0,0,0-10-.64q-6.39,0-9.95,2.17A6.9,6.9,0,0,0,1562.08,605.12Z" transform="translate(-985.99 -34.38)" fill="#fff"/><path d="M1618.08,625V531.9h17.09V625Z" transform="translate(-985.99 -34.38)" fill="#fff"/></svg>